<?xml version="1.0" encoding="utf-8"?>
<!-- Generator: Adobe Illustrator 27.3.1, SVG Export Plug-In . SVG Version: 6.00 Build 0)  -->
<svg version="1.1" id="Layer_1" xmlns="http://www.w3.org/2000/svg" xmlns:xlink="http://www.w3.org/1999/xlink" x="0px" y="0px"
	 viewBox="0 0 324 324" style="enable-background:new 0 0 324 324;" xml:space="preserve">
<style type="text/css">
	.st0{fill:#A3D8E5;}
	.st1{fill:#FDE6D8;}
	.st2{fill:#A53A23;}
	.st3{fill:#D74727;stroke:#D74727;stroke-width:0.25;stroke-miterlimit:10;}
	.st4{fill:#D74727;}
	.st5{fill:none;stroke:#703616;stroke-width:2;stroke-linecap:round;stroke-linejoin:round;stroke-miterlimit:10;}
	.st6{fill:none;stroke:#A8A594;stroke-width:0.25;stroke-miterlimit:10;}
	.st7{fill:none;stroke:#A95517;stroke-width:0.25;stroke-miterlimit:10;}
	.st8{fill:#EA8039;stroke:#CD6028;stroke-width:0.25;stroke-miterlimit:10;}
	.st9{fill:#D74727;stroke:#BA3A26;stroke-width:0.25;stroke-miterlimit:10;}
	.st10{fill:#FDE6D8;stroke:#C6B6B0;stroke-width:0.25;stroke-linecap:round;stroke-linejoin:round;stroke-miterlimit:10;}
	.st11{fill:none;stroke:#3D52A3;stroke-width:0.25;stroke-linecap:round;stroke-linejoin:round;stroke-miterlimit:10;}
	.st12{fill:none;stroke:#B5956A;stroke-width:0.25;stroke-linecap:round;stroke-linejoin:round;stroke-miterlimit:10;}
	.st13{fill:none;stroke:#214144;stroke-width:2;stroke-miterlimit:10;}
	.st14{fill:#ECDED8;stroke:#CEBAB2;stroke-width:0.25;stroke-miterlimit:10;}
	.st15{fill:none;stroke:#A5391D;stroke-width:0.25;stroke-miterlimit:10;}
	.st16{fill:none;stroke:#A5391D;stroke-width:0.25;stroke-linecap:round;stroke-linejoin:round;stroke-miterlimit:10;}
	.st17{fill:none;stroke:#81C241;stroke-width:0.25;stroke-linecap:round;stroke-linejoin:round;stroke-miterlimit:10;}
	.st18{fill:none;stroke:#BA3A26;stroke-width:0.25;stroke-miterlimit:10;}
	.st19{fill:#E9DBD4;stroke:#CEBAB2;stroke-width:0.25;stroke-miterlimit:10;}
	.st20{fill:#D13C27;stroke:#A53A23;stroke-width:0.25;stroke-miterlimit:10;}
	.st21{fill:#19100A;}
	.st22{fill:#B2D5DD;stroke:#7CAEB4;stroke-width:0.5;stroke-linecap:round;stroke-miterlimit:10;}
	.st23{fill:#0D1A1C;stroke:#7CAEB4;stroke-width:0.25;stroke-linecap:round;stroke-miterlimit:10;}
	.st24{fill:#E5E5E4;}
	.st25{fill:#0D1A1C;stroke:#74CDE1;stroke-width:0.75;stroke-miterlimit:10;}
	.st26{fill:none;stroke:#74CDE1;stroke-width:0.75;stroke-miterlimit:10;}
	.st27{fill:none;stroke:#2A4E51;stroke-width:0.25;stroke-linecap:round;stroke-linejoin:round;stroke-miterlimit:10;}
	.st28{fill:none;stroke:#3D7B89;stroke-width:5;stroke-miterlimit:10;}
</style>
<path class="st0" d="M290.3,306.2H33.7c-8.6,0-15.6-7-15.6-15.6V33.8c0-8.6,7-15.6,15.6-15.6h256.6c8.6,0,15.6,7,15.6,15.6v256.8
	C305.9,299.2,298.9,306.2,290.3,306.2z"/>
<g>
	<g>
		<path class="st1" d="M112.5,118.5c0.1-0.2,0.2-0.4,0.3-0.6c-0.8,1-1.6,2-2.3,3c0.1-0.2,0.3-0.3,0.4-0.4c-1,0.8-2,1.6-3,2.3
			c0.3-0.3,0.7-0.5,1.1-0.6c-1.2,0.5-2.4,1-3.6,1.5c0.5-0.2,1.1-0.3,1.7-0.4c-1.3,0.2-2.7,0.4-4,0.5c3.9-0.5,7.9-0.5,11.8-0.8
			c3.8-0.2,7.8-0.7,11.6-0.2c-1.3-0.2-2.7-0.4-4-0.5c1,0.2,1.9,0.4,2.9,0.7c-1.2-0.5-2.4-1-3.6-1.5c2.8,1.2,5.2,3.1,8.2,3.7
			c2.1,0.4,4.2,0.7,6.3,0.7c1,0,2-0.1,2.9,0c-1.3-0.2-2.7-0.4-4-0.5c0.4,0.1,0.8,0.2,1.2,0.3c2.7,0.7,5.3,0.7,8,0
			c2.5-0.7,4.8-2,6.6-3.9c3.6-3.6,5.5-9.6,3.9-14.6c-0.9-2.8-1.8-5.7-2.3-8.6c0.2,1.3,0.4,2.7,0.5,4c-0.2-1.9-0.2-3.7,0-5.5
			c-0.2,1.3-0.4,2.7-0.5,4c0.5-3.2,1.6-6.2,2.9-9.2c-0.5,1.2-1,2.4-1.5,3.6c2.8-6.5,6.3-12.4,9.7-18.6c2.2-3.8,4.1-7.9,5.5-12.1
			c1-3,1.6-6.2,2.9-9.1c-0.5,1.2-1,2.4-1.5,3.6c0.5-1.1,1.1-2.2,1.8-3.2c0.5-1.2,1-2.4,1.5-3.6c0.6-2,0.7-4,0.3-6
			c0-1.3-0.4-2.6-1-3.8c-0.6-1.9-1.6-3.5-3.1-4.8c-1.9-1.8-4.1-3.1-6.6-3.9c-2-0.6-4-0.7-6-0.3c-2,0.1-3.9,0.7-5.6,1.8
			c-8.2,3.9-16.8,7.9-23.8,13.9c-2.2,1.9-4,4.4-5.8,6.7c-1.2,1.6-2.3,3.2-3.5,4.8c-2.4,3.4-4.8,6.9-7.3,10.3
			c-2.8,4-5.6,7.9-8.4,11.9c-1.4,2.3-2,4.9-2.1,7.6c-0.1,2.1,0.3,4,1.3,5.8c0.6,1.9,1.6,3.5,3.1,4.8c1.9,1.9,4.1,3.1,6.6,3.9
			c16.5,4,33,8.1,49.5,12.2c4.1,1,8.3,1.8,12.1,3.4c-1.2-0.5-2.4-1-3.6-1.5c1.2,0.5,2.4,1.2,3.5,2c-1-0.8-2-1.6-3-2.3
			c0.7,0.5,1.3,1.1,1.8,1.8c-0.8-1-1.6-2-2.4-3c1.1,1.5,2.1,3.2,3.5,4.4c3.1,2.9,7.1,4.7,11.4,4.7c3.1,0,5.9-0.9,8.6-2.4
			c1.6-0.9,2.9-2.3,4.4-3.5c-1,0.8-2,1.6-3,2.3c0.3-0.2,0.7-0.4,1-0.6c-1.2,0.5-2.4,1-3.6,1.5c0.6-0.2,1.3-0.4,2-0.4
			c-1.3,0.2-2.7,0.4-4,0.5c8.3-1,16.8-1.8,25-0.7c-1.3-0.2-2.7-0.4-4-0.5c3,0.4,5.9,1.1,8.8,2.1c-2.2-1.3-4.4-2.6-6.6-3.9
			c0.1,0.1,0.1,0.2,0.2,0.2c-0.8-1-1.6-2-2.4-3c0,0.1,0.1,0.2,0.1,0.3c-0.7-2.5-1.4-5.1-2.1-7.6c0,0.1,0,0.2,0,0.3
			c0.2-1.3,0.4-2.7,0.5-4c0,0.1-0.1,0.2-0.1,0.3c0.5-1.2,1-2.4,1.5-3.6c-0.1,0.1-0.1,0.2-0.2,0.3c9.3,2.5,18.6,5.1,27.9,7.6
			c0.3-2.5-0.1-5.2-0.9-7.6c-0.8-2.4-1.9-4.9-3.4-7c-1.6-2.1-3.1-4.1-4.9-5.9c-1.1-1.1-2.1-2.2-3.1-3.3c0.8,1,1.6,2,2.4,3
			c-0.9-1.2-1.7-2.6-2.3-4c0.5,1.2,1,2.4,1.5,3.6c-1.3-3.1-2.4-6.3-3.8-9.3c-0.9-2-2.1-4-3.3-5.8c-2.6-4.1-5.3-8.2-7.9-12.3
			c-1.9-3-3.9-5.8-6.1-8.5c-1.4-1.7-3.1-3-4.8-4.4c-4.3-3.4-8.7-6.7-13.4-9.4c-4.7-2.7-9.8-5-15-6.4c-3.2-0.9-6.6-1.3-10-1.7
			c-0.5-0.1-1-0.1-1.5-0.1c-0.9,0-1.8,0.2-2.6,0.3c-0.4,0-1.7,0.2-2.4,0.3c-1.2,0.3-2.9,1-4,1.7c-0.2,0.1-0.4,0.3-0.6,0.4
			c-2.5,1.8-4.1,3.4-5.9,6c-3.4,4.8-5,11.4-4.9,17.2c0,2.1,0.4,4.2,0.7,6.3c0.1,0.9,0.3,1.9,0.6,2.8c0.6,1.9,1.4,3.8,2.3,5.6
			c0.4,0.9,0.9,1.7,1.4,2.5c3.6,5.2,8.2,9.3,13.9,12.1c4.6,2.2,9.5,3.8,14.2,5.8c-1.2-0.5-2.4-1-3.6-1.5c2.4,1,4.8,2.2,7,3.9
			c-1-0.8-2-1.6-3-2.3c1,0.8,2,1.7,2.8,2.7c2.3,2.8,7.1,4.4,10.6,4.4c3.7,0,8.1-1.6,10.6-4.4c2.6-2.9,4.6-6.6,4.4-10.6
			c-0.2-1.3-0.4-2.7-0.5-4c-0.7-2.5-2-4.8-3.9-6.6c-1.9-2.2-4.3-4-6.7-5.7c-1.5-1.1-3.1-1.9-4.8-2.7c-4.5-2-9.1-3.6-13.6-5.5
			c1.2,0.5,2.4,1,3.6,1.5c-2.5-1.1-4.9-2.3-7-3.9c1,0.8,2,1.6,3,2.3c-1.2-0.9-2.2-1.9-3.1-3.1c0.8,1,1.6,2,2.4,3
			c-0.8-1-1.4-2.2-2-3.4c0.5,1.2,1,2.4,1.5,3.6c-0.6-1.4-1-2.9-1.2-4.5c0.2,1.3,0.4,2.7,0.5,4c-0.2-1.7-0.2-3.3,0-5
			c-0.2,1.3-0.4,2.7-0.5,4c0.2-1.4,0.6-2.8,1.1-4.1c-0.5,1.2-1,2.4-1.5,3.6c0.4-1,0.9-2,1.6-2.9c-0.8,1-1.6,2-2.4,3
			c0.2-0.2,0.3-0.4,0.5-0.6c-1,0.8-2,1.6-3,2.3c0.2-0.2,0.4-0.3,0.6-0.4c-1.2,0.5-2.4,1-3.6,1.5c0.3-0.1,0.5-0.2,0.8-0.2
			c-1.3,0.2-2.7,0.4-4,0.5c1-0.1,2,0.1,3,0.2c-1.3-0.2-2.7-0.4-4-0.5c3.6,0.5,7.1,1.6,10.5,3c-1.2-0.5-2.4-1-3.6-1.5
			c5.9,2.5,11.2,6.1,16.3,10c-1-0.8-2-1.6-3-2.3c2.1,1.6,4.1,3.3,5.7,5.4c-0.8-1-1.6-2-2.4-3c2.9,3.8,5.2,7.9,7.8,11.9
			c2.5,3.8,5.1,7.6,6.9,11.8c-0.5-1.2-1-2.4-1.5-3.6c1.6,3.9,2.8,8.2,5.2,11.7c1.6,2.2,3.3,4.3,5.1,6.3c1.1,1.1,2.2,2.2,3.2,3.5
			c-0.8-1-1.6-2-2.4-3c0.8,1,1.4,2.1,1.9,3.2c-0.5-1.2-1-2.4-1.5-3.6c0.2,0.6,0.4,1.3,0.6,1.9c-0.2-1.3-0.4-2.7-0.5-4
			c0.1,0.7,0.1,1.3,0,2c0.2,1.3,0.4,2.7,0.5,4c0.5,1.9,1.4,3.7,2.7,5.1c1.9,2.5,4.6,4.7,7.8,5.4c2.6,0.6,5.3,0.6,8,0
			c3.8-0.9,6.9-3.8,9-6.9c1.4-2.2,1.7-3.8,2-6.1c0.5-3.5,0-6.7-1.8-9.9c-0.7-1.3-1.6-2.5-2.7-3.5c-2.1-2-4.4-3.1-7.1-4
			c-1.9-0.7-3.8-1.2-5.7-1.5c-4.9-1-10-1.5-15.1-1.5c-3.9,0-7.8,0.3-11.7,0.7c-3.1,0.3-6.3,0.5-9.3,1.1c-4.1,0.8-7.2,3.1-10.3,5.8
			c1-0.8,2-1.6,3-2.3c-0.2,0.1-0.4,0.3-0.6,0.4c1.2-0.5,2.4-1,3.6-1.5c-0.2,0.1-0.4,0.2-0.6,0.2c1.3-0.2,2.7-0.4,4-0.5
			c-0.1,0-0.2,0-0.3,0c1.3,0.2,2.7,0.4,4,0.5c-0.1,0-0.2-0.1-0.3-0.1c1.2,0.5,2.4,1,3.6,1.5c-0.1-0.1-0.2-0.1-0.3-0.2
			c1,0.8,2,1.6,3,2.3c-0.2-0.2-0.4-0.3-0.5-0.5c0.8,1,1.6,2,2.4,3c-1.2-1.7-2.4-3.4-3.9-4.9c-1.4-1.4-3.2-2.7-4.9-3.8
			c-2.6-1.7-5.6-2.8-8.5-3.7c-4.4-1.4-9-2.3-13.5-3.4c-9.7-2.4-19.5-4.8-29.2-7.2c-5.6-1.4-11.1-2.7-16.7-4.1c3,7.3,6,14.7,9,22
			c3.2-4.6,6.5-9.1,9.7-13.7c3.1-4.4,6.1-9,9.4-13.3c-0.8,1-1.6,2-2.4,3c1.3-1.6,2.6-3.1,4.3-4.4c-1,0.8-2,1.6-3,2.3
			c2.9-2.2,6.2-3.9,9.5-5.6c3.4-1.8,6.9-3.6,10.4-5.2c-6.8-6.8-13.7-13.7-20.5-20.5c-3.8,5.6-4.6,12.3-7.1,18.4
			c0.5-1.2,1-2.4,1.5-3.6c-1.7,4-4,7.7-6.2,11.5c-2.2,3.9-4.3,7.9-6.1,12c-1.3,3.1-2.8,6.2-3.8,9.4c-1,3.2-1.5,6.5-1.7,9.8
			c-0.4,5.7,1.2,11.4,2.9,16.8c6.2-6.2,12.3-12.3,18.5-18.4c-3.3-1.3-6.5-0.7-9.8-0.9c1.3,0.2,2.7,0.4,4,0.5
			c-0.6-0.1-1.1-0.2-1.6-0.4c1.2,0.5,2.4,1,3.6,1.5c-0.7-0.3-1.3-0.7-2-1.1c-1.6-0.9-3.6-1.7-5.3-2.4c-2.6-0.9-5.4-1.2-8.1-1.4
			c-3.2-0.2-6.6,0.2-9.8,0.3c-3.5,0.2-7,0.4-10.5,0.6c-2.5,0.2-5.1,0.3-7.5,1.1c-1.6,0.6-3.3,1.2-4.7,2.2c-1.7,1.2-2.4,1.7-3.5,2.8
			c-0.9,1-2,2.3-2.7,3.6c-1.8,3.6-2.6,7.6-1.5,11.6c1,3.5,3.7,7.2,6.9,9c3.5,1.8,7.7,2.8,11.6,1.5
			C107.2,124.2,110.8,122,112.5,118.5L112.5,118.5z"/>
	</g>
</g>
<g>
	<g>
		<path class="st2" d="M155.8,53.4c0.3-1.3,0.7-2.6,1.2-3.9c0.1-0.3,0.1-0.7,0-1c0-0.3-0.1-0.6-0.3-0.9c-0.3-0.5-0.9-1-1.5-1.2
			c-0.6-0.2-1.4-0.1-1.9,0.2c-0.2,0.1-0.3,0.3-0.5,0.4c-0.3,0.3-0.5,0.7-0.6,1.1c-0.5,1.3-0.9,2.6-1.2,3.9c-0.2,0.6-0.1,1.3,0.2,1.9
			c0.3,0.5,0.9,1,1.5,1.2c0.6,0.2,1.4,0.1,1.9-0.2C155.2,54.5,155.7,54,155.8,53.4L155.8,53.4z"/>
	</g>
</g>
<g>
	<g>
		<path class="st3" d="M161.2,34.3c-2.4,1.2-2.7,4-3.4,6.3c-0.8,2.5-2,4.9-3.4,7.1c1.4,0.8,2.9,1.7,4.3,2.5c0.8-1.3,1.6-2.7,2.3-4
			c0.8-1.4,0.1-3.3-1.5-3.7c-3.4-0.9-4.5,2.8-5.4,5.3c-0.9,2.6-1.7,5.2-2.4,7.9c1.6,0.2,3.3,0.4,4.9,0.7c0-0.5,0-1.1,0-1.7
			c0.1-2.8-4.2-3.4-4.9-0.7c-0.6,2.6-1.5,5.1-2.5,7.5c1.6,0.2,3.3,0.4,4.9,0.7c0.2-1.6,0.7-3.2,1.3-4.7c-1.5-0.6-3.1-1.3-4.6-1.9
			c-0.3,1.4-0.6,2.8-0.9,4.2c-0.1,0.6-0.3,1.2-0.4,1.9c-0.1,0.4-0.2,0.8-0.3,1.2c0,0.2-0.1,0.3-0.1,0.5c-0.1,0.4,0,0.3,0.3-0.3
			c0.6-0.1,1.3-0.2,1.9-0.2c-0.1,0-0.2,0-0.3,0c0.6,0.6,1.2,1.2,1.8,1.8c-0.2-0.6-0.3-1.1-0.5-1.7c-0.6-2.2-4.3-2.5-4.8,0
			c-1,5.2-2.1,10.3-3.1,15.5c-1,4.9-2.1,9.9-2.9,14.9c-0.8,5.1-0.8,10.1-0.7,15.2c0.1,5.3,0.2,10.6,0.4,15.9
			c0.1,2.1,2.7,3.3,4.3,1.8c1.2-1.2,2.8-2.1,4.5-2.4c-0.2-1.6-0.4-3.3-0.7-4.9c-1.6,0.4-3,1.9-3,3.6c-0.1,1.8,1.4,3.3,3.2,3.3
			c0.9,0,1.8-0.5,2.6-0.8c0.9-0.3,1.7-0.6,2.6-0.8c1.6-0.4,3.2-0.7,4.9-0.8c3.5-0.2,6.9,0.3,10.4,0.9c3.7,0.6,7.3,1.4,10.9,2.4
			c1.7,0.4,3.1-0.8,3.2-2.4c0.4-6.1,0.9-12.1,0.8-18.2c0-6.1-0.6-12.1-1.7-18.1c-1-5.6-2-11.3-3.4-16.8c-0.7-2.8-1.6-5.5-2.7-8.1
			c-0.5-1.2-1-2.4-1.3-3.7c-0.3-1.3-0.4-2.6-0.7-3.9c-0.8-3.1-2.5-5.8-4-8.6c-1.7-2.9-3.4-5.9-5-8.8c-1.6-2.8-5.9-0.3-4.3,2.5
			c1.4,2.5,2.9,5,4.3,7.5c1.3,2.3,2.8,4.5,3.7,7c1,2.5,0.9,5.2,1.9,7.7c1,2.6,2,5.1,2.8,7.7c1.6,5.4,2.5,11,3.6,16.5
			c1.1,5.7,1.8,11.3,1.9,17.1c0.1,6.7-0.3,13.5-0.8,20.2c1.1-0.8,2.1-1.6,3.2-2.4c-5.6-1.5-11.4-2.6-17.2-3.3
			c-2.8-0.3-5.5-0.3-8.2,0.1c-1.4,0.2-2.7,0.4-4.1,0.8c-1.3,0.4-2.6,1-3.9,1.3c0.4,0,0.9,0,1.3,0c0,0,0,0.1,0.1,0.1
			c0.3,0.3,0.6,0.6,0.9,0.9c0.2,0.3,0.2,1.7-0.5,1.9c1.2-0.3,2-1.6,1.8-2.7c-0.2-1.1-1.2-2.3-2.5-2.2c-3.1,0.4-5.8,1.6-8,3.8
			c1.4,0.6,2.9,1.2,4.3,1.8c-0.1-5.1-0.2-10.3-0.4-15.4c-0.1-5-0.2-9.9,0.6-14.9c1.6-10,3.9-20,5.9-30c-1.6,0-3.2,0-4.8,0
			c0.2,0.6,0.3,1.1,0.5,1.7c0.2,0.8,0.9,1.6,1.8,1.8c2.9,0.5,3.9-1.7,4.5-4.1c0.6-2.2,1-4.4,1.5-6.5c0.2-1.2-0.2-2.5-1.4-3
			c-1-0.4-2.6-0.1-3.1,1c-1,2.3-1.7,4.7-2,7.2c-0.1,1.2,1.1,2.3,2.2,2.5c1.3,0.2,2.2-0.6,2.7-1.8c1-2.5,1.9-5,2.5-7.5
			c-1.6-0.2-3.3-0.4-4.9-0.7c0,0.5,0,1.1,0,1.7c-0.1,2.8,4.2,3.4,4.9,0.7c0.5-1.8,1-3.6,1.6-5.4c0.3-0.9,0.6-1.8,0.9-2.7
			c0.1-0.4,0.3-0.7,0.4-1.1c0.1-0.2,0.2-0.4,0.2-0.7c0.2-0.3,0-0.3-0.4,0.1c-0.4,0-0.9,0-1.3,0c0.1,0,0.2,0,0.3,0.1
			c-0.5-1.2-1-2.5-1.5-3.7c-0.8,1.3-1.6,2.7-2.3,4c-1.6,2.8,2.6,5.2,4.3,2.5c1.4-2.1,2.5-4.3,3.4-6.7c0.4-1.1,0.8-2.2,1-3.4
			c0.1-0.5,0.2-0.9,0.4-1.3c0,0.1,0.1-0.4,0.1-0.3c0.1-0.2,0.1-0.2,0,0c-0.2,0.2-0.2,0.2,0.2,0c1.2-0.6,1.5-2.3,0.9-3.4
			C163.9,34,162.4,33.8,161.2,34.3L161.2,34.3z"/>
	</g>
</g>
<g>
	<g>
		<path class="st3" d="M152.1,51.8c0.1,9,0.1,17.9,0.1,26.9c0,4.5-0.1,8.9-0.2,13.4c-0.1,4.2,0.1,8.6-0.4,12.8
			c0.1-0.9,0.2-1.8,0.4-2.7c-0.2,1.6-0.6,3.2-1.2,4.7c0.3-0.8,0.7-1.6,1-2.4c-0.2,0.4-0.4,0.9-0.7,1.3c0.5-0.7,1-1.3,1.6-2
			c-0.1,0.2-0.3,0.3-0.4,0.5c0.7-0.5,1.4-1,2-1.6c-0.2,0.2-0.4,0.3-0.6,0.3c0.8-0.3,1.6-0.7,2.4-1c-0.1,0-0.2,0.1-0.4,0.1
			c0.9-0.1,1.8-0.2,2.7-0.4c-2.1,0.3-4.1,0.1-6.2,0.7c-2.6,0.8-5.1,2.3-7,4.2c5.6,3.2,11.1,6.5,16.7,9.7c1-5.3,2.1-10.6,3-15.9
			c0.5-3.4,1-6.8,1.1-10.2c0.1-2.8-0.1-5.6,0.2-8.3c-0.1,0.9-0.2,1.8-0.4,2.7c0.5-3.6,1.3-7.6,2.6-11c-0.3,0.8-0.7,1.6-1,2.4
			c0.3-0.6,0.6-1.1,1-1.7c-0.5,0.7-1,1.3-1.6,2c0.2-0.3,0.5-0.5,0.8-0.8c-0.7,0.5-1.4,1-2,1.6c0.3-0.2,0.6-0.4,0.9-0.5
			c-0.8,0.3-1.6,0.7-2.4,1c0.3-0.1,0.6-0.2,1-0.3c-0.9,0.1-1.8,0.2-2.7,0.4c0.4,0,0.6,0,1,0c-0.9-0.1-1.8-0.2-2.7-0.4
			c0.2,0,0.4,0.1,0.6,0.2c-0.8-0.3-1.6-0.7-2.4-1c0.2,0.1,0.4,0.2,0.6,0.3c-0.7-0.5-1.4-1-2-1.6c0.2,0.2,0.4,0.3,0.5,0.6
			c-0.5-0.7-1-1.3-1.6-2c0.2,0.3,0.4,0.7,0.6,1c-0.3-0.8-0.7-1.6-1-2.4c0.9,2.5,1.6,5.1,2.3,7.7c0.8,2.6,1.5,5.2,1.9,7.9
			c-0.1-0.9-0.2-1.8-0.4-2.7c0.7,5.8,0.8,11.7,1.1,17.6c0.2,3.4,0.2,6.9,0.8,10.3c0.4,2,1.3,3.9,2.6,5.5c2.3,3,5.4,4.4,9.2,4.7
			c2.5,0.2,5.4-1.2,7.1-2.9c1.7-1.7,3-4.6,2.9-7.1c-0.3-5.7-4.4-9.7-10-10c-0.1,0-0.2,0-0.3,0c0.9,0.1,1.8,0.2,2.7,0.4
			c-0.1,0-0.2,0-0.3-0.1c0.8,0.3,1.6,0.7,2.4,1c-0.2-0.1-0.3-0.1-0.5-0.2c0.7,0.5,1.4,1,2,1.6c-0.1-0.1-0.3-0.2-0.4-0.4
			c0.5,0.7,1,1.3,1.6,2c-0.2-0.2-0.3-0.5-0.4-0.8c0.3,0.8,0.7,1.6,1,2.4c-0.2-0.5-0.3-1-0.4-1.5c0.1,0.9,0.2,1.8,0.4,2.7
			c-0.3-2.7-0.3-5.5-0.5-8.2c-0.1-2.9-0.3-5.7-0.4-8.6c-0.2-3.2-0.4-6.4-0.8-9.5c-0.4-3.1-1.1-6-2-9c-0.8-2.5-1.4-5-2.3-7.5
			c-1-2.9-2.4-5.3-4.8-7.1c-2.3-1.8-5.2-2.9-8.2-2.7c-5.1,0.4-9.8,3.2-12.1,7.8c-1.5,2.9-2.3,6.1-3,9.3c-0.9,3.8-1.4,7.6-1.4,11.5
			c0,3.3-0.1,6.5-0.5,9.8c0.1-0.9,0.2-1.8,0.4-2.7c-0.8,5.9-2.1,11.8-3.2,17.6c-0.4,2.3-0.4,4.3,0.5,6.5c0.8,1.9,2.2,3.8,4.1,4.8
			c3.9,2.1,8.9,1.7,12.1-1.6c0.3-0.3,0.6-0.5,0.9-0.8c-0.7,0.5-1.4,1-2,1.6c0.4-0.3,0.9-0.5,1.4-0.8c-0.8,0.3-1.6,0.7-2.4,1
			c0.5-0.2,1-0.3,1.5-0.4c-0.9,0.1-1.8,0.2-2.7,0.4c1.2-0.1,2.4-0.1,3.7-0.3c2.8-0.4,5-1.6,7-3.6c1.7-1.7,2.5-3.6,3.4-5.8
			c0.4-1,0.7-2.1,0.9-3.2c1-4.9,0.9-9.8,1-14.8c0.2-9,0.2-18.1,0.2-27.1c0-5.1,0-10.3-0.1-15.4c0-2.6-1.1-5.2-2.9-7.1
			c-1.7-1.7-4.6-3-7.1-2.9C156.7,42,152,46.2,152.1,51.8L152.1,51.8z"/>
	</g>
</g>
<g>
	<g>
		<g>
			<path class="st3" d="M57.1,124c8.2-3,16.8-4.1,25.5-3.3c-0.4-1.6-0.8-3.1-1.3-4.7c-0.7,0.4-1.4,0.8-2.2,1.2
				c-2.2,1.1-1.2,4.8,1.3,4.7c5.1-0.2,10.2,0.8,14.7,3.3c2.1,1.1,4-0.7,3.7-2.8c-0.5-3.4,0.3-6.9,1.1-10.2c0.7-3.3,1.4-6.6,2.2-9.8
				c1.6-6.6,3.4-13,5.8-19.3c4.6-12.2,11.6-23.5,21-32.5c5.1-4.9,10.8-9.1,17-12.5c2.8-1.6,0.3-5.9-2.5-4.3
				c-11.9,6.6-21.9,15.9-29.6,27c-7.9,11.6-12.7,24.9-16.1,38.5c-1,3.9-1.8,7.8-2.7,11.7c-0.9,4.3-1.7,8.5-1.1,12.9
				c1.2-0.9,2.4-1.9,3.7-2.8c-5.3-2.9-11.2-4.3-17.2-4c0.4,1.6,0.8,3.1,1.3,4.7c0.7-0.4,1.4-0.8,2.2-1.2c1-0.5,1.4-1.8,1.2-2.8
				c-0.3-1.1-1.3-1.7-2.4-1.8c-9.1-0.8-18.3,0.4-26.8,3.5c-1.3,0.5-2.1,1.7-1.8,3.1C54.4,123.5,55.8,124.5,57.1,124L57.1,124z"/>
		</g>
	</g>
	<g>
		<g>
			<path class="st3" d="M59.1,119.3c0.6-4.4,1.7-8.8,2.6-13.1c0.3-1.4-0.7-3.4-2.4-3.2c-1.6,0.2-2.8,0.8-3.6,2.2
				c1.5,0.6,3,1.3,4.6,1.9c2.8-12.9,8.6-25.3,17.3-35.2c4.7-5.3,10.1-9.6,16.1-13.3c6.5-4.1,13.3-7.9,20.3-11.1
				c7.7-3.5,15.9-6.2,24.2-7.9c1.3-0.3,2.1-1.8,1.8-3.1c-0.4-1.4-1.7-2-3.1-1.8c-15.6,3-30.1,9.9-43.6,18.1
				c-6.4,3.9-12.5,8.2-17.7,13.7c-4.8,5.1-8.8,10.8-12.1,16.9c-3.7,7-6.4,14.5-8.1,22.2c-0.6,2.7,3.1,4.4,4.6,1.9
				c-0.2,0.1-0.5,0.2-0.7,0.3c-0.8-1.1-1.6-2.1-2.4-3.2c-1,4.8-2.2,9.6-2.8,14.4c-0.2,1.3,1.3,2.5,2.5,2.5
				C58.1,121.8,59,120.7,59.1,119.3L59.1,119.3z"/>
		</g>
	</g>
	<g>
		<g>
			<path class="st3" d="M57.4,110.9c3.2,0,3.2-5,0-5S54.2,110.9,57.4,110.9L57.4,110.9z"/>
		</g>
	</g>
	<g>
		<g>
			<path class="st3" d="M146.9,36.9c1.5-0.4,3-0.9,4.5-1.3c0.6-0.2,1.1-0.9,0.9-1.5c-0.2-0.6-0.9-1.1-1.5-0.9
				c-1.5,0.4-3,0.9-4.5,1.3c-0.6,0.2-1.1,0.9-0.9,1.5C145.6,36.7,146.2,37.1,146.9,36.9L146.9,36.9z"/>
		</g>
	</g>
	<g>
		<g>
			<path class="st3" d="M153.1,33c-0.6,0.1-1.1,0.1-1.7,0.2c-0.2,0-0.3,0-0.5,0.1c-0.1,0-0.3,0.1-0.4,0.3c-0.1,0.1-0.2,0.2-0.3,0.4
				c-0.1,0.2-0.1,0.3-0.1,0.5c0,0.3,0.1,0.7,0.4,0.9c0.1,0.1,0.2,0.1,0.2,0.2c0.2,0.1,0.4,0.2,0.6,0.2c0.6-0.1,1.1-0.1,1.7-0.2
				c0.2,0,0.3,0,0.5-0.1c0.1,0,0.3-0.1,0.4-0.3c0.1-0.1,0.2-0.2,0.3-0.4c0.1-0.2,0.1-0.3,0.1-0.5c0-0.3-0.1-0.7-0.4-0.9
				c-0.1-0.1-0.2-0.1-0.2-0.2C153.6,33.1,153.4,33,153.1,33L153.1,33z"/>
		</g>
	</g>
	<g>
		<g>
			<path class="st3" d="M68.1,100.6c-2.6-0.3-5.5,0.6-7.7,1.9c-4.3,2.5-6,8-4.1,12.5c2,4.7,6.9,6.9,11.8,5.8
				c2.7-0.6,5.5-1.2,8.2-1.6c-0.9,0.1-1.8,0.2-2.7,0.4c3.2-0.4,6.3-0.6,9.5-0.2c-0.9-0.1-1.8-0.2-2.7-0.4c1.8,0.3,3.6,0.7,5.4,1.4
				c-0.8-0.3-1.6-0.7-2.4-1c0.1,0.1,0.3,0.1,0.4,0.2c1.6,0.9,3.2,1.4,5.1,1.4c1.8,0,3.5-0.5,5.1-1.4c2.9-1.7,5.2-5.2,4.9-8.6
				c-0.3-4.3-0.2-8.6,0.4-12.8c-0.1,0.9-0.2,1.8-0.4,2.7c0.2-1.7,0.5-3.3,0.9-4.9c0.3-1.4,0.6-2.8,0.6-4.2c0.1-2.8-1.2-5.9-3.2-7.8
				c-1.6-1.4-3.4-2.5-5.4-3.3c-2.8-1.2-5.4-2.2-8.6-2.2c-5.2,0-9.4,2.6-13.2,5.9c-2.5,2.3-5,4.6-7.5,6.9c-3.7,3.4-3.7,9.4-0.8,13.1
				c2.8,3.7,8.8,5.4,12.9,2.6c2.2-1.6,3.9-3.2,5.2-5.6c0.6-1.1,1.2-2.3,1.9-3.4c1.3-2.2,2.8-4.3,4.3-6.3c-0.5,0.7-1,1.3-1.6,2
				c3.2-4.2,7-7.9,11.1-11.1c-0.7,0.5-1.3,1-2,1.6c0.7-0.5,1.3-1,2-1.5c-4.9-2-9.8-4-14.7-6c0.3,0.7,0.4,1.4,0.6,2.1
				c-0.1-0.9-0.2-1.8-0.4-2.7c0.2,2,0,4.1,0.1,6.1c0.1,3.4,0.8,7,2.7,9.8c1.3,1.8,2.7,3.2,4.8,4.1c2,0.8,4.4,1.2,6.5,0.5
				c4.2-1.4,7.3-5.1,7.3-9.6c0-2.2,0.2-4.4,0.5-6.6c-0.1,0.9-0.2,1.8-0.4,2.7c0.3-2.2,0.6-4.6,1.4-6.7c-0.3,0.8-0.7,1.6-1,2.4
				c0.1-0.2,0.2-0.4,0.3-0.5c-0.5,0.7-1,1.3-1.6,2c0.1-0.1,0.1-0.1,0.2-0.2c-0.7,0.5-1.3,1-2,1.6c0.1,0,0.2-0.1,0.2-0.1
				c-1.7,0.5-3.4,0.9-5.1,1.4c0.1,0,0.2,0,0.3,0c-2.4-1-4.7-1.9-7.1-2.9c0.1,0.1,0.1,0.2,0.2,0.2c-0.5-0.7-1-1.3-1.6-2
				c0,0.1,0.1,0.2,0.1,0.2c-0.3-0.8-0.7-1.6-1-2.4c0.1,0.2,0.1,0.3,0.2,0.5c-0.1-0.9-0.2-1.8-0.4-2.7c0,0.3,0,0.5,0,0.8
				c0.1-0.9,0.2-1.8,0.4-2.7c0,0.2-0.1,0.4-0.2,0.5c0.3-0.8,0.7-1.6,1-2.4c-0.1,0.2-0.2,0.3-0.3,0.5c0.5-0.7,1-1.3,1.6-2
				c-0.1,0.2-0.2,0.3-0.4,0.4c0.7-0.5,1.3-1,2-1.6c-0.2,0.1-0.3,0.2-0.5,0.3c4,5.2,8.1,10.5,12.1,15.7c2.7-3.4,5.1-6.9,6.8-10.9
				c0.9-1.6,1.4-3.2,1.4-5.1c0.1-1.4-0.2-2.7-0.9-3.8c-1.1-2.6-3.5-5.4-6.5-5.8c-1.9-0.3-3.6-0.6-5.5-0.4c-2.5,0.3-4.3,0.7-6.6,1.6
				c-3.9,1.7-6.8,4.2-9.2,7.7c-0.9,1.3-1.4,3.5-1.4,5.1c0,2.2,0.8,4.3,2.2,6.1c1.1,1.4,2.4,2.4,4,3.1c1.9,0.8,4.5,1.3,6.5,0.5
				c1.8-0.7,3.7-1.4,5.2-2.6c1.6-1.2,3.1-2.4,4.5-3.8c2.1-2,4.1-3.8,6.4-5.6c-0.7,0.5-1.3,1-2,1.6c2.6-2,5.2-4,7.8-6
				c2.2-1.7,3.8-3.2,4.6-6c0.7-2.4,0.4-5.6-1-7.7c-1.4-2.1-3.4-4-6-4.6c-2.4-0.5-5.6-0.6-7.7,1c-3.7,2.8-7.3,5.6-11,8.5
				c-2.7,2.1-4.9,4.7-7.6,6.8c0.7-0.5,1.3-1,2-1.6c-0.8,0.6-1.7,1.2-2.7,1.6c0.8-0.3,1.6-0.7,2.4-1c-0.1,0-0.2,0.1-0.4,0.1
				c3.8,4.9,7.5,9.8,11.3,14.7c0.1-0.2,0.3-0.4,0.4-0.6c-0.5,0.7-1,1.3-1.6,2c0.5-0.7,1.1-1.2,1.8-1.8c-0.7,0.5-1.3,1-2,1.6
				c0.7-0.5,1.4-0.9,2.2-1.3c-0.8,0.3-1.6,0.7-2.4,1c0.9-0.4,1.8-0.6,2.8-0.8c-0.9,0.1-1.8,0.2-2.7,0.4c0.8-0.1,1.7-0.1,2.5,0
				c-0.9-0.1-1.8-0.2-2.7-0.4c0.1,0,0.2,0,0.4,0.1c-2-4.9-4-9.8-6-14.7c-1.3,3-3,5.9-5,8.5c0.5-0.7,1-1.3,1.6-2
				c-0.1,0.1-0.2,0.2-0.3,0.4c-1.6,2.1-3.1,4.3-2.9,7.1c0.1,2.3,0.8,4.3,2.2,6.1c1.3,1.7,3.1,3.1,5.2,3.6c0.9,0.1,1.8,0.2,2.7,0.4
				c1.8,0,3.5-0.5,5.1-1.4c1.9-0.9,3.8-2.9,4.7-4.7c1.5-2.7,2-6,1.2-9.1c-1-3.7-3.7-6.9-7.4-8c-4.6-1.2-9.8,0.9-12.1,5
				c-1.5,2.7-2.1,5.7-2.6,8.7c-0.5,3.3-0.9,6.6-0.9,10c6.2-1.7,12.4-3.4,18.6-5.1c-0.3-0.4-0.5-0.8-0.7-1.2c0.3,0.8,0.7,1.6,1,2.4
				c-0.3-0.7-0.4-1.3-0.5-2.1c0.1,0.9,0.2,1.8,0.4,2.7c-0.5-4.1,0.5-8.3-1.1-12.4c-1.2-3-2.7-5.2-5.8-6.5c-2.7-1.2-6.4-1.3-8.9,0.5
				c-4.9,3.5-9.5,7.4-13.4,12c-2.2,2.5-4.2,5.2-6,8c-1.4,2.2-2.5,4.6-4,6.8c0.5-0.7,1-1.3,1.6-2c-0.2,0.3-0.5,0.6-0.8,0.8
				c0.7-0.5,1.3-1,2-1.6c-0.1,0.1-0.2,0.1-0.3,0.2c4,5.2,8.1,10.5,12.1,15.7c2.9-2.6,5.7-5.5,8.7-7.9c-0.7,0.5-1.3,1-2,1.6
				c0.7-0.6,1.5-1.1,2.3-1.4c-0.8,0.3-1.6,0.7-2.4,1c0.5-0.2,1-0.3,1.5-0.4c-0.9,0.1-1.8,0.2-2.7,0.4c0.7-0.1,1.4-0.1,2.1,0
				c-0.9-0.1-1.8-0.2-2.7-0.4c0.9,0.2,1.7,0.4,2.5,0.7c-0.8-0.3-1.6-0.7-2.4-1c1.1,0.5,2.4,1,3.3,1.8c-1.2-1.2-2.4-2.4-3.6-3.6
				c0.1,0.1,0.1,0.2,0.2,0.3c-0.3-0.8-0.7-1.6-1-2.4c0,0.1,0.1,0.2,0.1,0.3c-0.1-0.9-0.2-1.8-0.4-2.7c0,0.2,0,0.4,0,0.7
				c0.1-0.9,0.2-1.8,0.4-2.7c-1.5,7.1-2.4,14.2-1.8,21.5c5-2.9,10-5.8,15.1-8.6c-2.7-1.2-5.2-2.2-8.2-2.6c-2.8-0.4-5.5-0.7-8.3-0.6
				c-5,0.3-9.9,1.2-14.8,2.3c2.6,6.1,5.1,12.2,7.7,18.3c0.2-0.2,0.5-0.3,0.7-0.4c-0.8,0.3-1.6,0.7-2.4,1c0.2-0.1,0.5-0.2,0.8-0.2
				c-0.9,0.1-1.8,0.2-2.7,0.4c0.4,0,0.8,0,1.2,0c2.4,0.3,5.4-1.3,7.1-2.9c1.7-1.7,3-4.6,2.9-7.1c-0.1-2.6-1-5.3-2.9-7.1
				c-0.7-0.5-1.3-1-2-1.6C71.6,101,69.9,100.6,68.1,100.6L68.1,100.6z"/>
		</g>
	</g>
	<g>
		<g>
			<path class="st3" d="M78.1,67.3c-0.1,0.1-0.2,0.2-0.3,0.3c-0.6,0.7-1.3,1.5-1.8,2.4c-0.1,0.1-0.2,0.3-0.2,0.4
				c-0.4,0.9-0.8,1.8-1.2,2.8c-0.1,0.1-0.1,0.3-0.1,0.4c-0.2,1-0.3,2.2-0.4,3.1c0,0.3,0,0.6,0,0.9c-0.1,1.4,0.2,2.7,0.9,3.8
				c0.4,1.2,1.1,2.3,2.1,3.2c0.9,1,2,1.7,3.2,2.1c1.2,0.6,2.5,0.9,3.8,0.9c0.9-0.1,1.8-0.2,2.7-0.4c1.7-0.5,3.2-1.3,4.4-2.6
				c0.5-0.7,1-1.3,1.6-2c0.9-1.6,1.4-3.2,1.4-5.1c0-0.3,0-0.7,0-1c-0.1,0.9-0.2,1.8-0.4,2.7c0.1-0.4,0.2-0.7,0.3-1
				c-0.3,0.8-0.7,1.6-1,2.4c0.1-0.3,0.3-0.6,0.5-0.9c-0.5,0.7-1,1.3-1.6,2c0.1-0.1,0.2-0.3,0.3-0.4c1-0.9,1.7-2,2.1-3.2
				c0.6-1.2,0.9-2.5,0.9-3.8c0.1-1.4-0.2-2.7-0.9-3.8c-0.4-1.2-1.1-2.3-2.1-3.2c-0.7-0.5-1.3-1-2-1.6c-1.6-0.9-3.2-1.4-5.1-1.4
				c-0.9,0.1-1.8,0.2-2.7,0.4C80.8,65.2,79.3,66,78.1,67.3L78.1,67.3z"/>
		</g>
	</g>
	<g>
		<g>
			<path class="st3" d="M114,50c4.8-1.9,9.7-3.6,14.7-5c-0.8-1.4-1.6-2.8-2.4-4.2c-1.8,1.5-3.6,3-5.3,4.6c-0.8,0.7-1.5,1.4-2,2.3
				c-0.6,1-0.7,2-1.1,3.1c0.2-0.4,0.4-0.7,0.6-1.1c0.2-0.1,0.4-0.2,0.6-0.3c0.4,0,0.9,0,1.3,0c-0.1,0-0.1,0-0.2,0
				c0.4,0.2,0.7,0.4,1.1,0.6c0.1,0.3,0.2,0.2,0,0c-0.1-0.2-0.2-0.4-0.3-0.6c-0.1-0.3-0.3-0.6-0.5-0.8c-0.5-0.7-1-1.4-1.6-2
				c-0.2,1.3-0.3,2.6-0.5,3.9c2.3-1.4,4.7-2.3,7.2-3.2c2.8-0.9,5.5-1.8,8.3-2.8c1.3-0.4,2.1-1.7,1.8-3.1c-0.3-1.2-1.8-2.2-3.1-1.8
				c-2.9,1-5.8,1.9-8.6,2.9c-2.8,0.9-5.6,2-8.1,3.5c-1.4,0.9-1.7,2.7-0.5,3.9c0.5,0.5,0.9,1.1,1.3,1.8c0.4,0.8,0.7,1.5,1.5,2
				c1.2,0.7,2.7,0.4,3.6-0.5c0.7-0.7,0.8-1.5,1.1-2.4c0.1-0.4,0.3-0.7,0.7-1.2c0.6-0.6,1.3-1.2,1.9-1.7c1.4-1.2,2.9-2.5,4.3-3.7
				c1.9-1.7-0.1-4.8-2.4-4.2c-5,1.4-9.9,3.1-14.7,5c-1.2,0.5-2.1,1.7-1.8,3.1C111.2,49.5,112.7,50.5,114,50L114,50z"/>
		</g>
	</g>
</g>
<g>
	<g>
		<g>
			<path class="st4" d="M268.9,119c-8.5-3.1-17.8-4.3-26.8-3.5c-1.1,0.1-2.1,0.7-2.4,1.8c-0.3,1,0.2,2.3,1.1,2.8
				c0.7,0.4,1.4,0.8,2.2,1.2c0.4-1.6,0.8-3.1,1.3-4.7c-6-0.3-12,1.1-17.2,4c1.2,0.9,2.4,1.9,3.7,2.8c0.5-3.9,0-7.6-0.8-11.4
				c-0.7-3.4-1.5-6.9-2.3-10.3c-1.6-6.9-3.5-13.7-6-20.3c-4.9-13-12.2-25-22.3-34.7c-5.4-5.2-11.5-9.7-18-13.3
				c-2.8-1.6-5.3,2.8-2.5,4.3c11.1,6.1,20.6,14.8,27.8,25.3c7.5,11,12.1,23.5,15.3,36.3c0.9,3.7,1.8,7.5,2.6,11.2
				c0.8,3.8,1.9,7.8,1.4,11.6c-0.3,2.1,1.6,3.9,3.7,2.8c4.5-2.4,9.6-3.6,14.7-3.3c2.5,0.1,3.4-3.5,1.3-4.7c-0.7-0.4-1.4-0.8-2.2-1.2
				c-0.4,1.6-0.8,3.1-1.3,4.7c8.7-0.8,17.3,0.3,25.5,3.3c1.3,0.5,2.7-0.5,3.1-1.8C271,120.7,270.2,119.4,268.9,119L268.9,119z"/>
		</g>
	</g>
	<g>
		<g>
			<path class="st4" d="M270.5,119.1c-0.6-4.9-1.8-9.6-2.8-14.4c-0.8,1.1-1.6,2.1-2.4,3.2c-0.2-0.1-0.5-0.2-0.7-0.3
				c1.5,2.5,5.2,0.8,4.6-1.9c-3-13.7-9.2-26.7-18.5-37.3c-4.9-5.5-10.6-10.1-16.8-14c-6.7-4.2-13.6-8.1-20.7-11.3
				c-8.1-3.7-16.6-6.7-25.4-8.4c-1.3-0.3-2.7,0.4-3.1,1.8c-0.3,1.2,0.4,2.8,1.8,3.1c15,2.9,28.8,9.4,41.8,17.3
				c6.2,3.7,11.9,7.8,16.9,13c4.6,4.8,8.4,10.3,11.6,16.2c3.5,6.6,6,13.7,7.6,21c1.5-0.6,3-1.3,4.6-1.9c-0.8-1.4-2-2-3.6-2.2
				c-1.7-0.2-2.7,1.8-2.4,3.2c0.9,4.3,2.1,8.7,2.6,13.1c0.2,1.3,1,2.5,2.5,2.5C269.3,121.6,270.7,120.5,270.5,119.1L270.5,119.1z"/>
		</g>
	</g>
	<g>
		<g>
			<path class="st4" d="M267.3,110.8c3.2,0,3.2-5,0-5S264.1,110.8,267.3,110.8L267.3,110.8z"/>
		</g>
	</g>
	<g>
		<g>
			<path class="st4" d="M178.4,34.3c-1.5-0.4-3-0.9-4.5-1.3c-0.6-0.2-1.4,0.2-1.5,0.9c-0.1,0.7,0.2,1.3,0.9,1.5
				c1.5,0.4,3,0.9,4.5,1.3c0.6,0.2,1.4-0.2,1.5-0.9C179.5,35.2,179.1,34.5,178.4,34.3L178.4,34.3z"/>
		</g>
	</g>
	<g>
		<g>
			<path class="st4" d="M171.6,35.4c0.6,0.1,1.1,0.1,1.7,0.2c0.2,0,0.3,0,0.5-0.1c0.1,0,0.3-0.1,0.4-0.3c0.1-0.1,0.2-0.2,0.3-0.4
				c0.1-0.2,0.1-0.3,0.1-0.5c0-0.3-0.1-0.7-0.4-0.9c-0.1-0.1-0.2-0.1-0.2-0.2c-0.2-0.1-0.4-0.2-0.6-0.2c-0.6-0.1-1.1-0.1-1.7-0.2
				c-0.2,0-0.3,0-0.5,0.1c-0.1,0-0.3,0.1-0.4,0.3c-0.1,0.1-0.2,0.2-0.3,0.4c-0.1,0.2-0.1,0.3-0.1,0.5c0,0.3,0.1,0.7,0.4,0.9
				c0.1,0.1,0.2,0.1,0.2,0.2C171.1,35.3,171.3,35.4,171.6,35.4L171.6,35.4z"/>
		</g>
	</g>
	<g>
		<g>
			<path class="st4" d="M256.6,120.3c0.4-0.1,0.8-0.1,1.2,0c-0.9-0.1-1.8-0.2-2.7-0.4c0.3,0,0.5,0.1,0.8,0.2c-0.8-0.3-1.6-0.7-2.4-1
				c0.2,0.1,0.5,0.2,0.7,0.4c2.6-6.1,5.1-12.2,7.7-18.3c-4.9-1.1-9.8-2.1-14.8-2.3c-2.8-0.1-5.5,0.1-8.3,0.6
				c-2.9,0.4-5.4,1.4-8.2,2.6c5,2.9,10,5.8,15.1,8.6c0.5-7.2-0.3-14.4-1.9-21.5c0.1,0.9,0.2,1.8,0.4,2.7c-0.1-0.2-0.1-0.4,0-0.7
				c-0.1,0.9-0.2,1.8-0.4,2.7c0-0.1,0.1-0.2,0.1-0.3c-0.3,0.8-0.7,1.6-1,2.4c0.1-0.1,0.1-0.2,0.2-0.3c-1.2,1.2-2.4,2.4-3.6,3.6
				c1-0.8,2.2-1.3,3.3-1.8c-0.8,0.3-1.6,0.7-2.4,1c0.8-0.3,1.6-0.6,2.5-0.7c-0.9,0.1-1.8,0.2-2.7,0.4c0.7-0.1,1.4-0.1,2.1,0
				c-0.9-0.1-1.8-0.2-2.7-0.4c0.5,0.1,1,0.2,1.5,0.4c-0.8-0.3-1.6-0.7-2.4-1c0.9,0.4,1.6,0.9,2.3,1.4c-0.7-0.5-1.4-1-2-1.6
				c3,2.4,5.8,5.3,8.7,7.9c4-5.2,8.1-10.5,12.1-15.7c-0.1-0.1-0.2-0.1-0.3-0.2c0.7,0.5,1.4,1,2,1.6c-0.3-0.2-0.5-0.5-0.8-0.8
				c0.5,0.7,1,1.3,1.6,2c-1.5-2.1-2.5-4.5-3.9-6.6c-1.9-2.8-3.9-5.6-6.1-8.2c-3.9-4.6-8.5-8.5-13.4-12c-2.5-1.8-6.2-1.7-8.9-0.5
				c-3.1,1.3-4.6,3.5-5.8,6.5c-1.6,4-0.6,8.2-1.1,12.4c0.1-0.9,0.2-1.8,0.4-2.7c-0.1,0.7-0.3,1.4-0.5,2.1c0.3-0.8,0.7-1.6,1-2.4
				c-0.2,0.4-0.4,0.8-0.7,1.2c6.2,1.7,12.4,3.4,18.6,5.1c0-3.3-0.4-6.5-0.9-9.8c-0.4-3-1-6.4-2.6-9c-2.3-3.7-6.4-5.8-10.8-5.2
				c-4.3,0.6-7.7,3.9-8.8,8c-0.7,2.7-0.4,5.4,0.6,8c1,2.4,2.8,4.8,5.2,5.9c2.4,1.1,5.1,1.9,7.7,1c2.1-0.7,3.8-1.8,5.2-3.6
				c1.3-1.7,2.2-3.9,2.1-6.1c-0.1-0.9-0.2-1.8-0.4-2.7c-0.5-1.7-1.3-3.2-2.6-4.4c-0.1-0.1-0.2-0.2-0.3-0.4c0.5,0.7,1,1.3,1.6,2
				c-2-2.6-3.7-5.5-5-8.5c-2,4.9-4,9.8-6,14.7c0.1,0,0.2,0,0.4-0.1c-0.9,0.1-1.8,0.2-2.7,0.4c0.9-0.1,1.7-0.1,2.5,0
				c-0.9-0.1-1.8-0.2-2.7-0.4c1,0.2,1.9,0.4,2.8,0.8c-0.8-0.3-1.6-0.7-2.4-1c0.8,0.3,1.5,0.8,2.2,1.3c-0.7-0.5-1.4-1-2-1.6
				c0.7,0.5,1.3,1.1,1.8,1.8c-0.5-0.7-1-1.3-1.6-2c0.1,0.2,0.3,0.4,0.4,0.6c3.8-4.9,7.5-9.8,11.3-14.7c-0.1,0-0.2-0.1-0.4-0.1
				c0.8,0.3,1.6,0.7,2.4,1c-1-0.4-1.8-0.9-2.6-1.6c0.7,0.5,1.4,1,2,1.6c-2.7-2.1-4.9-4.7-7.6-6.8c-3.6-2.9-7.3-5.7-11-8.5
				c-1.9-1.5-5.5-1.6-7.7-1c-2.3,0.6-4.8,2.4-6,4.6c-1.2,2.3-1.8,5.1-1,7.7c0.3,0.8,0.7,1.6,1,2.4c0.9,1.5,2.1,2.7,3.6,3.6
				c2.6,2,5.2,4,7.8,6c-0.7-0.5-1.4-1-2-1.6c2.2,1.7,4.3,3.6,6.4,5.6c1.4,1.3,2.8,2.5,4.4,3.6c1.6,1.2,3.5,2,5.4,2.7
				c0.9,0.1,1.8,0.2,2.7,0.4c0.9-0.1,1.8-0.2,2.7-0.4c2.1-0.6,3.9-1.9,5.2-3.6c1.1-1.4,1.7-2.9,2-4.7c0.3-2.1,0.1-4.6-1.2-6.4
				c-2.4-3.4-5.3-6-9.2-7.7c-1.8-0.8-3.3-1.2-5.3-1.5c-2.5-0.3-4.4-0.2-6.9,0.2c-3,0.4-5.4,3.2-6.5,5.8c-0.6,1.2-0.9,2.5-0.9,3.8
				c0,1.8,0.5,3.5,1.4,5.1c1.7,4,4.1,7.5,6.8,10.9c4-5.2,8.1-10.5,12.1-15.7c-0.2-0.1-0.3-0.2-0.5-0.3c0.7,0.5,1.4,1,2,1.6
				c-0.1-0.1-0.3-0.2-0.4-0.4c0.5,0.7,1,1.3,1.6,2c-0.1-0.2-0.2-0.3-0.3-0.5c0.3,0.8,0.7,1.6,1,2.4c-0.1-0.2-0.1-0.3-0.2-0.5
				c0.1,0.9,0.2,1.8,0.4,2.7c0-0.3,0-0.5,0-0.8c-0.1,0.9-0.2,1.8-0.4,2.7c0-0.2,0.1-0.4,0.2-0.5c-0.3,0.8-0.7,1.6-1,2.4
				c0-0.1,0.1-0.2,0.1-0.2c-0.5,0.7-1,1.3-1.6,2c0.1-0.1,0.1-0.2,0.2-0.2c-2.4,1-4.7,1.9-7.1,2.9c0.1,0,0.2,0,0.3,0
				c-1.7-0.5-3.4-0.9-5.1-1.4c0.1,0,0.2,0.1,0.2,0.1c-0.7-0.5-1.4-1-2-1.6c0.1,0.1,0.1,0.1,0.2,0.2c-0.5-0.7-1-1.3-1.6-2
				c0.1,0.2,0.2,0.3,0.3,0.5c-0.3-0.8-0.7-1.6-1-2.4c0.8,2.1,1.1,4.5,1.4,6.7c-0.1-0.9-0.2-1.8-0.4-2.7c0.3,2.2,0.4,4.4,0.5,6.6
				c0,4.2,3.1,8.7,7.3,9.6c1.8,0.4,3.6,0.4,5.3,0c2.6-0.6,4.5-2.5,6-4.6c2-2.8,2.6-6.5,2.7-9.8c0.1-2-0.2-4.1,0.1-6.1
				c-0.1,0.9-0.2,1.8-0.4,2.7c0.1-0.7,0.3-1.4,0.6-2.1c-4.9,2-9.8,4-14.7,6c0.7,0.5,1.3,1,2,1.5c-0.7-0.5-1.4-1-2-1.6
				c4.1,3.2,7.9,6.9,11.1,11.1c-0.5-0.7-1-1.3-1.6-2c1.6,2,3,4.1,4.3,6.3c0.6,1.1,1.2,2.1,1.8,3.2c1.3,2.4,3.1,4.2,5.3,5.7
				c1.9,1.3,5.5,1.7,7.7,1c2.1-0.7,3.8-1.8,5.2-3.6c2.9-3.8,2.9-9.7-0.8-13.1c-2.5-2.3-5-4.6-7.5-6.9c-3.7-3.3-8-6-13.2-5.9
				c-2.6,0-5,0.7-7.4,1.7c-2.2,0.9-4.9,2-6.6,3.8c-1.9,2.1-3.2,4.8-3.2,7.7c0,1.4,0.3,2.8,0.6,4.1c0.4,1.7,0.7,3.4,0.9,5.2
				c-0.1-0.9-0.2-1.8-0.4-2.7c0.6,4.3,0.7,8.6,0.4,12.8c-0.2,3.4,2.1,6.9,4.9,8.6c1.6,0.9,3.2,1.4,5.1,1.4c1.8,0,3.5-0.5,5.1-1.4
				c0.1-0.1,0.3-0.1,0.4-0.2c-0.8,0.3-1.6,0.7-2.4,1c1.7-0.7,3.5-1.2,5.4-1.4c-0.9,0.1-1.8,0.2-2.7,0.4c3.2-0.4,6.4-0.2,9.5,0.2
				c-0.9-0.1-1.8-0.2-2.7-0.4c2.8,0.4,5.5,1,8.2,1.6c4.9,1.1,9.8-1.1,11.8-5.8c1.9-4.5,0.2-10-4.1-12.5c-2.2-1.3-5.1-2.2-7.7-1.9
				c-2.7,0.3-5.1,0.9-7.1,2.9c-1.7,1.7-3,4.6-2.9,7.1c0.1,2.6,1,5.3,2.9,7.1C251.3,119.1,254,120.6,256.6,120.3L256.6,120.3z"/>
		</g>
	</g>
	<g>
		<g>
			<path class="st4" d="M232.4,81.2c0.1,0.1,0.2,0.2,0.3,0.4c-0.5-0.7-1-1.3-1.6-2c0.2,0.3,0.4,0.6,0.5,0.9c-0.3-0.8-0.7-1.6-1-2.4
				c0.1,0.3,0.2,0.7,0.3,1c-0.1-0.9-0.2-1.8-0.4-2.7c0,0.3,0.1,0.6,0,1c-0.1,1.4,0.2,2.7,0.9,3.8c0.4,1.2,1.1,2.3,2.1,3.2
				c0.9,1,2,1.7,3.2,2.1c1.2,0.6,2.5,0.9,3.9,0.9c0.9-0.1,1.8-0.2,2.7-0.4c1.7-0.5,3.2-1.3,4.4-2.6c0.5-0.7,1-1.3,1.6-2
				c0.9-1.6,1.4-3.2,1.4-5.1c0-0.3,0-0.6,0-0.9c-0.1-0.9-0.2-1.9-0.4-2.7c0,0,0-0.1,0-0.1c0-0.1,0-0.2-0.1-0.2
				c0-0.2-0.1-0.3-0.1-0.5c0-0.1-0.1-0.1-0.1-0.2c-0.3-0.8-0.7-1.7-1-2.4c0,0,0-0.1-0.1-0.1c-0.1-0.1-0.1-0.3-0.2-0.4
				c0-0.1-0.1-0.1-0.1-0.2c0,0,0-0.1-0.1-0.1c-0.5-0.7-1.1-1.4-1.6-2.1c-0.1-0.1-0.2-0.2-0.3-0.4c-0.9-1-2-1.7-3.2-2.1
				c-1.2-0.6-2.5-0.9-3.9-0.9c-1.4-0.1-2.7,0.2-3.9,0.9c-1.2,0.4-2.3,1.1-3.2,2.1c-0.5,0.7-1,1.3-1.6,2c-0.9,1.6-1.4,3.2-1.4,5.1
				c0.1,0.9,0.2,1.8,0.4,2.7C230.4,78.5,231.2,80,232.4,81.2L232.4,81.2z"/>
		</g>
	</g>
	<g>
		<g>
			<path class="st4" d="M212,45c-4.8-1.9-9.7-3.6-14.7-5c-2.3-0.7-4.4,2.5-2.4,4.2c1.4,1.2,2.9,2.5,4.3,3.7c0.6,0.6,1.3,1.1,1.9,1.7
				c0.4,0.4,0.6,0.7,0.7,1.2c0.2,0.9,0.4,1.7,1.1,2.4c0.9,0.9,2.5,1.2,3.6,0.5c0.8-0.5,1.1-1.2,1.5-2c0.3-0.7,0.8-1.3,1.3-1.8
				c1.1-1.2,0.9-3.1-0.5-3.9c-2.5-1.6-5.3-2.6-8.1-3.5c-2.9-1-5.8-1.9-8.6-2.9c-1.3-0.4-2.7,0.5-3.1,1.8c-0.4,1.4,0.5,2.7,1.8,3.1
				c2.8,0.9,5.5,1.8,8.3,2.8c2.5,0.8,5,1.8,7.2,3.2c-0.2-1.3-0.3-2.6-0.5-3.9c-0.6,0.6-1.1,1.3-1.6,2c-0.2,0.3-0.3,0.5-0.5,0.8
				c-0.1,0.2-0.2,0.4-0.3,0.6c-0.1,0.3-0.1,0.3,0,0c0.4-0.2,0.7-0.4,1.1-0.6c-0.1,0-0.1,0-0.2,0c0.4,0,0.9,0,1.3,0
				c0.2,0.1,0.4,0.2,0.6,0.3c0.2,0.4,0.4,0.7,0.6,1.1c-0.4-1-0.5-2-1.1-3c-0.6-0.9-1.3-1.7-2.1-2.4c-1.8-1.6-3.6-3.1-5.4-4.6
				c-0.8,1.4-1.6,2.8-2.4,4.2c5,1.4,9.9,3.1,14.7,5c1.3,0.5,2.8-0.5,3.1-1.8C214.1,46.7,213.3,45.5,212,45L212,45z"/>
		</g>
	</g>
</g>
<g>
	<g>
		<path class="st4" d="M229.7,125.5c1.5-2.2,4.9-2.1,7.2-2.2c3.4-0.2,6.6-1.4,10-1.7c7-0.6,13.8,1.3,20.4,3.1c3.1,0.8,4.4-4,1.3-4.8
			c-7.5-2-15.4-4.1-23.2-3.1c-1.9,0.2-3.8,0.7-5.6,1.1c-1.7,0.4-3.4,0.4-5.2,0.6c-3.6,0.3-7.2,1.3-9.3,4.6
			C223.6,125.7,228,128.2,229.7,125.5L229.7,125.5z"/>
	</g>
</g>
<g>
	<g>
		<path class="st3" d="M178.2,38.6c3.2,0,3.2-5,0-5S175,38.6,178.2,38.6L178.2,38.6z"/>
	</g>
</g>
<line class="st5" x1="100.5" y1="126.2" x2="148.4" y2="217.6"/>
<line class="st5" x1="58.7" y1="124.5" x2="142.2" y2="219.7"/>
<path class="st5" d="M154.3,207.6L141.6,128c-4.4-66.4,20.8-95.2,20.8-95.2s27.1,31.8,21.4,95.2c0,0-2.9,44.2-9.6,58.6"/>
<path class="st5" d="M161.8,32.8c0,0,68,10.1,63.6,94.4l-47.1,92.1"/>
<line class="st5" x1="266.9" y1="125.3" x2="182.2" y2="224.7"/>
<path class="st5" d="M269.8,126.1c0.4-2.9,0.6-5.8,0.6-8.7c0-46.4-48.7-84.5-107.9-84.5S54.5,71,54.5,117.3c0,2.8,0.2,5.5,0.5,8.3
	c0,0,19.4-10.3,43.3,1.2c0,0,23-9.2,43.3,1.2c0,0,19.3-10,42.1,0c0,0,20.9-10.3,41.6-0.8C225.3,127.2,245.1,116.1,269.8,126.1z"/>
<path class="st5" d="M159.5,33c0,0-56.5,12.6-61.1,93.8"/>
<path class="st6" d="M205.9-552.7"/>
<path class="st6" d="M159.8-596.7"/>
<path class="st6" d="M159.8-596.7"/>
<path class="st7" d="M208.6,306.8H223c0.7,0,1.2-0.5,1.2-1.2V305c0-0.7-0.5-1.2-1.2-1.2h-14.4c-0.7,0-1.2,0.5-1.2,1.2v0.6
	C207.4,306.3,208,306.8,208.6,306.8z"/>
<path class="st8" d="M208.6,306.8H223c0.7,0,1.2-0.5,1.2-1.2V305c0-0.7-0.5-1.2-1.2-1.2h-14.4c-0.7,0-1.2,0.5-1.2,1.2v0.6
	C207.4,306.3,208,306.8,208.6,306.8z"/>
<path class="st9" d="M229.5,256.8l-17.1-31.1c0,0-1.6-4.7-9-7l-21-5.3l-2-0.5c-0.5,0-0.4,0.3-0.4,0.3c0,0.8-0.1,1.7-0.4,2.6
	l-2.8,10.2l0,0c-0.1,0.4-0.5,0.7-1,0.7c-0.2,0-0.3,0-0.5-0.1l0,0l-10.3-5.3l-0.8,0.7l-0.8-0.7l-10.3,5.3l-0.5,0.1
	c-0.5,0-0.9-0.3-1-0.8l0-0.1l-2.8-10.2c-0.4-1-0.4-2-0.4-2.8l0-0.3l-3,0.7l-21,5.3c-7.3,2.2-9,7-9,7l-17.1,31.1
	c-1.9,3.2,22.3,16.1,29,13.1l0.6-4.1l-0.4,39.1c4.4-0.8,9.1-0.5,13.5,0.8c0.1,0,0.3,0,0.4,0c-0.2-0.1,0-0.1,0.4,0
	c0.4,0,0.8,0.1,1.2,0.2c2.3,0.1,4.5,0,6.8-0.2c4.3-0.3,8.6-0.7,12.9-0.8c10.3-0.2,20.6-0.4,30.9-0.5c2.4-0.2,4.7-0.4,7-0.5
	l-0.4-38.3l0.6,4.1C207.2,273,231.4,260,229.5,256.8z"/>
<path class="st10" d="M154.5,249.9c0,0,0.6,2.1,0.9,0c0.3-2.1-0.4-3.4-0.4-3.4s-1.9-1.2-1.6-3.6c0.4-2.4,0.3-3.8,1.8-4.3
	c0,0,2.8,0,4.1-0.4s2.5,0.6,2.5,0.6s1.5,1.5,2,3.1s0.3,2,0.3,2s1.7,2.3,0,4.5c0,0-0.4,1-2.4,1.8c0,0-1.6,1.2-1.7,1.6
	c-0.2,0.5-0.3,0.3-0.3,0.3s-0.3-1.1,0.2-1.8c0.5-0.7-0.3-0.3-0.3-0.3l-1.4,2.9c0,0-0.6,0.9-0.7-0.3c0-1.2,0.2-3.3,0.2-3.3
	s-0.4-2-0.8-0.1c-0.5,1.8-0.3,4.6-0.3,4.6s0,2.2-0.8,0.6c0,0-0.9-3.1-1.8-3.2c-0.9-0.1-0.8,0.8-0.8,0.8l1.7,2.5c0,0,0.7,1.9-0.8,0.6
	c0,0-1.3-2-3.9-2.6c-2.6-0.6-1.3,1.4-1.3,1.4s3,0.1,3.7,1.6c0,0,1.4,1.2,0,1.4c0,0-1-0.2-1.4-0.3c-0.4-0.2-4.6,0.2-4.6,0.2
	s-2.1,1.4-3.5,0.3s-2-3.2-2-3.2s-0.8-3.4,1.6-5.2c2.4-1.8,2.1-2.9,2.1-2.9s0.2-2.2,4.2-1.7C153,244.6,154.5,249.9,154.5,249.9z"/>
<path class="st10" d="M152.2,259.3c0,0-1.7,0.1,0.2,1.3h0.8c0,0,2.4,0,1.1,1.1c-1.3,1.1-3.3,2-3.3,2s-3.2,1.8-0.7,2.1
	s3.9-2.6,3.9-2.6s1.7-2.2,0.6,1c-1.1,3.2-1.4,3.5-0.9,4s1.8-2.7,1.8-2.7s-0.1-3.1,0.9-2.9c1,0.2,0.3,3.8,0.3,3.8l0,4.1
	c0,0-0.5,4.4-3.3,5.4c-2.8,1-3,0.5-4.4-1.2c0,0-3.8,1.8-5.8-3.4c-2-5.1-0.6-7.9-0.6-7.9s0.6-1.2,1.2-1.2c0,0,0,0,0,0l0-0.2
	c0,0-0.5-3.1,2.2-4c2.7-0.9,4.1-0.6,4.1-0.6s4.4,0.3,4.9,1.3c0.5,1-2.6,0.6-2.6,0.6H152.2z"/>
<path class="st10" d="M168.2,247.7c-10.4,3.7-11.7,11.1-11.7,11.1s-0.1,2.8,1.7,0.6c0,0,1.9-8.5,10.9-11c0,0-1.5,3.3,1,3.3
	c0,0,1.2,0.6,0.9-2.5c0,0,1.3,3.5,2.8,1.7c1.5-1.8-1.5-3.6-1.5-3.6s3-0.2,2.5-2.1c-0.5-1.9-2.6-0.9-2.6-0.9l-1,0.9
	c0,0,0.5-3.8-1.7-2.2c-2.1,1.6-0.2,2.5-0.2,2.5s-1.6-1.3-2.1,0.2s0.9,2,0.9,2L168.2,247.7z"/>
<path class="st10" d="M162.9,277.6c0,0-6.9,2.2-4.9-6.1l0-0.2c0,0-0.6-4.3,0-7.2s1,0,1,0l0.4,3.3c0.9,2,1,0.2,1,0.2s-0.8-5.3,0-3
	c0.8,2.2,1.5,2.5,1.5,2.5c1.7,0.8-0.3-2.1-0.3-2.1c-1-2.2,1.6,0.2,1.6,0.2c2.3,3.2,2.3,0.1,2.3,0.1s-1-2.4-4-2.9
	c-3-0.6,1.9-2.2,1.9-2.2c3.5,0.2,3-0.2,3-0.2s0.6-2-2.7-1.4s-0.2-1.4-0.2-1.4s2.5,0.4,2.8-1.2c0.4-1.6-3.8,0-3.8,0
	c-3.4,2.3,0-1.6,0-1.6s3.4-3.7,5.6-2.2s2.8,1.4,2.8,1.4s2.2,0.3,2.9,4.4c0.7,4.1-0.5,5.6-0.5,5.6s-2.1,2.7-4.8-0.7l-0.1-0.1
	c0,0-5.9-1.4-0.9,0.9c4.9,2.3,1.4,7.5,1.4,7.5s1.8,7.9-6,6.5H162.9z"/>
<path class="st10" d="M205,221.2c0,0-3.3,2.6-3.7,2.7c-0.4,0.1-1.3,0.5-1.3,0.5c-1,1,0.8,1.2,0.8,1.2c1.4,0.8,4-0.8,4-0.8
	S205.4,225.2,205,221.2z"/>
<path class="st10" d="M192.6,216.1c-0.1,0.9,0.2,3,0.2,3s1.8,2.5,0.9,2.9c-0.9,0.4-2.4-2.9-2.4-2.9l-2.3-3.4c0,0-0.1-0.1-0.2-0.4
	L192.6,216.1z"/>
<path class="st10" d="M196,216.9c-0.7,1.4-0.5,3.1-0.5,3.1s-0.2,2.8-1.1-0.5c-0.5-1.8-0.5-2.7-0.7-3.2L196,216.9z"/>
<path class="st10" d="M205.3,219.4c0.1,0-0.1,0.2-0.2,0.3c-1.7,2.3-3,2.8-3,2.8s-3.8,2.2-4.8,1.7c-1-0.6,1.8-1.9,1.8-1.9l0.1-0.1
	c0,0,1.3-1.1-0.9-1l-0.6,0.4c0,0-2,1.3-1.5-0.3s1.6-3.6,1.6-3.6s0.1-0.1,0.2-0.4C197.9,217.4,203.3,218.6,205.3,219.4z"/>
<path class="st10" d="M187.3,214.7c0.1,0.3,0.2,0.5,0.3,0.8l0.1,0.1c0,0,2.9,3.2,4.1,5.9s-0.8,0.6-0.8,0.6l-2.2-2.5
	c-1.9-1.1-1,0.4-1,0.4s3.6,3.9,1.7,2.5c-1.9-1.4-2.6-1.2-2.6-1.2c-1.8,0.2,1.4,1.5,1.4,1.5c2.1,1.2-1.5,0.7-1.5,0.7
	c-3.7-1.3-2,1.2-2,1.2s2.1,1.4,4.9,0.2c2.8-1.2-0.3,2.9-0.3,2.9c-3.1,1.8-2.4,1.9-2.4,1.9s0.6,2,3-0.4c2.4-2.4,1,1,1,1
	s-2.3,1.1-1.7,2.6c0.6,1.5,3.2-2.1,3.2-2.1c1.5-3.8,0.9,1.3,0.9,1.3s-0.7,5-3.4,5s-3.1,0.4-3.1,0.4s-2,1-4.9-2s-2.7-4.9-2.7-4.9
	s0.2-3.5,4.4-2.1l0.2,0.1c0,0,5.6-2.2,0.2-1.3c-5.4,0.8-5.4-5.4-5.4-5.4s-0.3-0.3-0.7-0.8l1.8-6.5c0,0,0.2-1.4,0.1-1.6
	c0-0.2,0.7,0,0.7,0l3.5,0.8l2.3,0.6L187.3,214.7z"/>
<path class="st11" d="M188.3,215.8"/>
<path class="st10" d="M145.5,292.7c0,0-0.9,2-0.8-0.1c0.1-2.1,1-3.3,1-3.3s2.1-0.9,2.1-3.3s0.3-3.8-1.1-4.6c0,0-2.8-0.5-4-1
	c-1.2-0.5-2.6,0.2-2.6,0.2s-1.7,1.2-2.5,2.7s-0.6,1.9-0.6,1.9s-2,2.1-0.8,4.4c0,0,0.3,1.1,2.1,2.2c0,0,1.4,1.4,1.4,1.9
	c0.1,0.5,0.2,0.4,0.2,0.4s0.4-1,0.1-1.8c-0.4-0.8,0.4-0.3,0.4-0.3l0.9,3c0,0,0.5,1,0.7-0.2s0.3-3.3,0.3-3.3s0.7-1.9,0.8,0
	s-0.5,4.6-0.5,4.6s-0.3,2.2,0.7,0.7c0,0,1.4-2.9,2.3-2.9c0.9,0.1,0.6,0.9,0.6,0.9l-2,2.2c0,0-1,1.8,0.7,0.8c0,0,1.6-1.7,4.3-1.9
	c2.7-0.2,1.1,1.5,1.1,1.5s-2.9-0.4-3.9,1c0,0-1.6,0.9-0.3,1.4c0,0,1,0,1.4-0.1c0.4-0.1,4.5,0.9,4.5,0.9s1.9,1.7,3.4,0.8
	s2.5-2.8,2.5-2.8s1.4-3.2-0.7-5.4c-2.1-2.2-1.6-3.2-1.6-3.2s0.2-2.2-3.9-2.3C147.8,287.7,145.5,292.7,145.5,292.7z"/>
<path class="st10" d="M145.8,303.7l-0.8-0.1c0,0-2.4-0.4-1.3,0.9c0.5,0.6,1.1,1.1,1.6,1.5c1.4,0,2.7-0.1,4.1-0.2
	c1.5-0.1,3.1-0.2,4.6-0.3c0.2-0.9,0.2-2.5-1.5-3.4c-2.5-1.3-3.9-1.3-3.9-1.3s-4.4-0.4-5,0.5c-0.6,0.9,2.5,1,2.5,1l0.1,0
	C146.2,302.4,147.8,302.8,145.8,303.7z"/>
<path class="st10" d="M127.9,283.8c0.6,0.1,1.1,0.5,1.1,0.5l0.8,1c0,0,0.2-3.8,2-1.9s-0.2,2.5-0.2,2.5s1.7-1,2,0.5
	c0.3,1.5-1.2,1.8-1.2,1.8l-0.1,0.1c9.7,5.3,9.8,12.8,9.8,12.8s-0.4,2.8-1.7,0.3c0,0-0.6-8.7-9-12.6c0,0,0.9,3.5-1.5,3.1
	c0,0-1.3,0.4-0.5-2.6c0,0-0.7,1.2-1.5,1.7L127.9,283.8z"/>
<path class="st10" d="M129.5,302.9c0,0,6-0.4,0.8,1.1c-0.6,0.2-1.1,0.4-1.5,0.7c1.6-0.2,3.2-0.2,4.8-0.1c0.7-0.4,1.6-0.7,2.8-0.8
	c3-0.1-1.5-2.5-1.5-2.5c-3.5-0.3-3-0.7-3-0.7s-0.3-2.1,2.9-0.9c3.2,1.1,0.5-1.4,0.5-1.4s-2.5,0-2.6-1.7c-0.1-1.6,3.8,0.6,3.8,0.6
	c3,2.8,0.3-1.6,0.3-1.6s-2.8-4.2-5.2-3c-2.5,1.2-3,0.9-3,0.9s-0.3,0-0.8,0.2l-0.1,10.5c0.5-0.2,1.1-0.5,1.8-1.2L129.5,302.9z"/>
<path class="st10" d="M199.9,271.6c-0.3,0.2-0.5,0.3-0.5,0.4c-0.2,0.3-1,1-1,1c-1.3,0.5-0.7-1.2-0.7-1.2c-0.1-1.4,1.8-2.9,2.2-3.2
	L199.9,271.6z"/>
<path class="st12" d="M174.6,268.3"/>
<path class="st10" d="M200.6,260.5c-1.2-0.4-1.3-1-1.3-1s-1.3-1.8-4.5,0.8c-3.2,2.5-1.7,7.9-1.7,7.9s0.6,2.1-0.7,0.4
	s-1.4-3.2-1.4-3.2s1-2-0.5-3.9c-1.6-1.9-2.2-3.1-3.8-2.8c0,0-2.4,1.4-3.7,1.8c-1.2,0.4-1.9,1.8-1.9,1.8s-0.6,2.1-0.1,3.7
	c0.4,1.6,0.8,1.8,0.8,1.8s-0.2,2.9,2.2,3.8c0,0,0.9,0.6,3,0.3c0,0,2,0.2,2.3,0.5c0.4,0.3,0.4,0.1,0.4,0.1s-0.3-1.1-1.1-1.4
	s0.1-0.4,0.1-0.4l2.7,1.7c0,0,1,0.4,0.4-0.6c-0.6-1-1.9-2.7-1.9-2.7s-0.7-1.9,0.7-0.5s2.6,3.8,2.6,3.8s1.2,1.9,1,0.1
	c0,0-0.8-3.2-0.1-3.7s1,0.3,1,0.3l-0.1,3c0,0,0.4,2,1,0.1c0,0,0.1-2.3,2-4.2c1.1-1.1,1.6-0.7,1.7-0.3L200.6,260.5z"/>
<path class="st12" d="M200.1,282.1c-0.3-0.5-1.5-2.5-2.2-1.9c-0.7,0.6,1.7,3.4,1.7,3.4l0.5,0.8"/>
<path class="st10" d="M200.1,280.4c-1.8-1.6-0.6-1.3,0-1.1L200.1,280.4z"/>
<path class="st10" d="M200.1,278.3c-0.2,0-0.4,0-0.7-0.1c-1.7-0.3,0.4-1.5,0.4-1.5l0.2-0.1L200.1,278.3"/>
<path class="st10" d="M200,275c0,0-2.6,2-2.7,0.9c-0.1-0.8,1.7-2.2,2.7-3L200,275z"/>
<path class="st10" d="M180.2,273.3c10.8-2.2,15.7,3.5,15.7,3.5s1.5,2.3-1.1,1.3c0,0-6-6.3-15-3.8c0,0,2.9,2.1,0.9,3.3
	c0,0-0.8,1.1-2.1-1.6c0,0,0.7,3.6-1.5,2.9c-2.2-0.8-0.5-3.8-0.5-3.8s-2.7,1.3-3.2-0.6s1.8-2.1,1.8-2.1l1.3,0.3c0,0-2.4-3,0.3-2.8
	c2.6,0.3,1.5,2,1.5,2s0.7-1.9,1.9-0.9s0.2,2.2,0.2,2.2"/>
<path class="st10" d="M200.1,286.5c-0.7-1.3-1.7-3.2-2.8-4.4c-2-2.2-0.9,0.5-0.9,0.5l1.4,3.1c0.2,2.2-0.8,0.7-0.8,0.7
	s-2-4.9-1.6-2.6c0.5,2.3,0,2.9,0,2.9c-1,1.6-0.8-1.9-0.8-1.9c-0.2-2.4-1.3,1-1.3,1c-0.3,3.9-1.9,1.3-1.9,1.3s-0.4-2.5,1.9-4.5
	c2.3-2-2.8-0.9-2.8-0.9c-2.9,2-2.7,1.4-2.7,1.4s-1.6-1.4,1.6-2.6c3.2-1.2-0.5-1.4-0.5-1.4s-1.9,1.6-3.1,0.4c-1.1-1.2,3.3-2,3.3-2
	c4.1,0.2-0.8-1.4-0.8-1.4s-4.8-1.4-5.9,1s-1.7,2.7-1.7,2.7s-1.7,1.4-0.2,5.3c1.5,3.9,3.3,4.5,3.3,4.5s3.2,1.2,3.7-3.1l0-0.2
	c0,0,4.3-4.2,1.3,0.3s2.6,7.2,2.6,7.2s2.9,7.7,8.8,2.5L200.1,286.5z"/>
<path class="st12" d="M127.9,287.5c0.3-0.2,0.5-0.2,0.5-0.2s-0.2-0.1-0.5-0.2"/>
<path class="st11" d="M201.1,287.6"/>
<path class="st10" d="M122.5,225.8c0.1,0,0.2,0,0.2,0c1.1-0.4,0.2-1.1-0.2-1.3L122.5,225.8z"/>
<path class="st10" d="M122.4,222.9c0.8,0.4,1.3,0.9,1.3,0.9c1.8,1,0.7-0.8,0.7-0.8l-2-2L122.4,222.9z"/>
<path class="st10" d="M125.4,218.6c0.1,1.7,0.6,3.4,0.6,3.4s0.4,2.2-0.7,0.8c0,0-1.6-2.9-2.5-2.8c-0.2,0-0.3,0.1-0.4,0.1v-0.5
	L125.4,218.6z"/>
<path class="st10" d="M128.1,218l-0.7,2.7c0,0-0.5,1-0.7-0.2c-0.1-0.6-0.3-1.5-0.3-2.2L128.1,218z"/>
<path class="st13" d="M172.6,262.9c0,0-7-25.9,0.9-48.9"/>
<path class="st13" d="M153.5,262.9c0,0,7-25.9-0.9-48.9"/>
<path class="st10" d="M130.4,217.4c0,0-1.3,1.5-1.4,2c-0.1,0.5-0.2,0.4-0.2,0.4s-0.5-1-0.2-1.8c0,0,0-0.1,0-0.1L130.4,217.4z"/>
<path class="st10" d="M123.7,219.1c0.2,0.4,0.6,0.8,0.6-0.1"/>
<path class="st10" d="M124.8,233.5c0.5-0.8,0.8-1.6,0.8-1.6s1.2-2.5,0.8,0.9s-0.7,3.7,0,4.1c0.7,0.4,1.2-3,1.2-3s-0.7-3,0.2-3
	s1.1,3.6,1.1,3.6l0.8,4c0,0,0.4,4.4-2.2,5.9c-0.6,0.4-0.9,0.6-1.3,0.8l-0.1-2.9c0,0,0-4-0.4-4.8l-0.4-1.9L124.8,233.5z"/>
<path class="st10" d="M124.2,231.6c0.4-0.4,0.8-0.8,1.1-1.2c1.1-1.4-1.3-0.9-1.3-0.9l-0.5,0.1L124.2,231.6z"/>
<path class="st10" d="M123.1,228.3c0,0,3.1-0.2,2.4-1.1c-0.3-0.5-1.7-0.5-2.9-0.5L123.1,228.3z"/>
<path class="st10" d="M133.9,216.5c-5,4.5-5.1,10.7-5.1,10.7c-1.3,2.5-1.8-0.2-1.8-0.2s-0.2-5,5-10L133.9,216.5z"/>
<path class="st10" d="M130.5,238.5"/>
<path class="st10" d="M122.9,227.6c-0.6,0.1-1.2,0-1.7-0.4c-1.4-1.1-2-3.2-2-3.2s-0.3-1.2,0-2.6"/>
<polygon class="st14" points="184.7,207.1 143.3,206.7 143.3,193.7 184.8,193.7 "/>
<path class="st10" d="M126.1,245.3c-1.3,0.1-3.4-0.3-4.6-3.7c-2-5.1-0.6-7.9-0.6-7.9s0.6-1.2,1.2-1.2c0,0,0,0,0,0l0-0.1
	c0,0-0.4-2.4,1.3-3.6c0,0,1.3,3.3,2.5,9l0.3,2.9c0,0,0,1.3-0.1,1.8S126.1,245.3,126.1,245.3z"/>
<path class="st10" d="M127.7,264.7c-1.8-0.4-3,1.1-4.2,2c-1.5,1.2-3.4,1.5-5,2.4c0,0,4.2,1.9,9,0.9l0.5-4.5L127.7,264.7z"/>
<path class="st10" d="M124.3,260.2c0,0,1.8,2.8-0.3,4.7s-3.4,2.2-3.4,2.2s-4.1,1.5-5,0.8c-0.8-0.7,2.1-1.6,2.1-1.6l0.1,0
	c0,0,1.5-0.8-0.7-1.2l-0.7,0.3c0,0-2.2,1-1.5-0.6c0.8-1.6,2.2-3.2,2.2-3.2s2.1-3-0.2-2.2s-2.5,4-2.5,4s-0.7,2.7-1-0.7
	c-0.3-3.4-0.1-3.8-0.9-4c-0.7-0.2-0.5,3.2-0.5,3.2s1.4,2.8,0.4,3c-0.9,0.2-1.8-3.3-1.8-3.3l-1.6-3.7c0,0-1.4-4.2,0.8-6.3
	c2.2-2,2.5-1.7,4.5-0.7c0,0,2.8-3.2,6.7,0.7c3.9,3.9,3.8,6.9,3.8,6.9S124.9,259.9,124.3,260.2C124.3,260.2,124.3,260.2,124.3,260.2"
	/>
<path class="st12" d="M108.3,258"/>
<path class="st10" d="M219.2,238.2c0,0.5,0.1,0.8,0,1.4c-1.4,5.3-4.1,6.8-4.1,6.8s-1.2,0.6-1.7,0.3c0,0,0,0,0,0l-0.1,0.1
	c0,0-1.4,2.8-4.1,2s-3.7-1.9-3.7-1.9s-3.4-2.8-3.2-3.9s2.4,1.1,2.4,1.1l0.1,0.1c0,0,1.4,0.9,0.6-1.2l-0.6-0.5c0,0-2-1.4-0.2-1.6
	c1.7-0.1,3.9,0.3,3.9,0.3s3.6,0.3,1.8-1.3c-1.8-1.6-4.7-0.2-4.7-0.2s-2.7,0.8,0.1-1.2c2.8-2,3.2-2,3-2.8c-0.2-0.7-3,1.1-3,1.1
	s-1.7,2.6-2.4,1.9c-0.7-0.7,1.9-3.3,1.9-3.3l2.4-3.3c0,0,3-3.3,5.8-2.4c1,0.3,1.2,0.7,1.6,0.9L219.2,238.2z"/>
<path class="st11" d="M207.2,231.8"/>
<path class="st10" d="M206.3,270.1c-0.1,0-0.9,0.1-1,0.1c0.3-0.9,1.3-2.7,1.4-3.6c0.2-1.3,1.5-2.1,1.5-2.1s1.9-0.9,3.6-0.8
	c1.7,0.1,2,0.5,2,0.5s2.8-0.7,4.2,1.6C217.9,265.8,211.7,269.3,206.3,270.1z"/>
<path class="st10" d="M219.8,265c-0.1-1-0.1-2,0-3c0.8,0.8,2.7,2,3.4,0.4c0.5-1.2-1-1.7-1.9-1.9c1.1,0,3.9-0.6,2.4-2.4
	c-0.9-1.1-2.8-0.1-3.7,0.5c0.3-1,0.3-2.9-1-3.1c-2.2-0.4-1.8,2.3-1.3,3.4c-0.9-0.5-2.6-1.2-2.9,0.3c-0.2,1.2,1.4,2.5,2.4,1.6
	c-2,1.1,0.2,3.4,1.6,1.9l0.2-0.1c0,0.9,0,1.8,0.1,2.8L219.8,265z"/>
<path class="st6" d="M184.7,194"/>
<path class="st15" d="M149.6,209l-1.5,3.1c0,0,0,0.2,0,0.6"/>
<path class="st16" d="M163.2,221.5"/>
<path class="st16" d="M152.3,225.8"/>
<path class="st16" d="M165.4,221.5"/>
<path class="st17" d="M128.1,265.9"/>
<path class="st18" d="M126.1,246.3c0,0-3.9-2.8-5.1-6.8"/>
<path class="st18" d="M126.5,252.4c0,0-2.2,0.1-2.5,3.6"/>
<path class="st14" d="M184.5,182.7c0,0-3.5-17.8-20.5-17.8h0.1c-17.1,0-20.5,17.8-20.5,17.8"/>
<path class="st19" d="M163.9,201c19.7-0.2,20.9-7.1,20.9-7.1v-8.8c0-8.9-9.2-16.2-20.6-16.2h-0.2c-11.4,0-20.6,7.2-20.6,16.2v8.8
	c0,0,1.2,6.8,20.9,7.1"/>
<path class="st8" d="M173.5,208.9c-1.5,3.7-4.4,9.3-9.3,13.2l-0.3,0c-5-3.9-7.8-9.5-9.3-13.2L173.5,208.9z"/>
<path class="st15" d="M178.3,208.9l1.5,3.1c0,0,0.1,0.7,0.1,1.2"/>
<path class="st20" d="M145.1,213.5"/>
<path class="st16" d="M163.2,221.5"/>
<path class="st16" d="M152.3,225.8"/>
<path class="st16" d="M165.4,221.5"/>
<path class="st9" d="M154.6,208.6c1.4,3.5,4,8.6,8.4,12.5l0.2,0.2l-10.3,5.3l-0.5,0.1c-0.5,0-0.9-0.3-1-0.8l0-0.1l-2.8-10.2
	c-0.4-1-0.4-2-0.4-2.8l0-0.3l0-0.2c0-0.4,0-0.6,0-0.6l1.5-3.1L154.6,208.6z"/>
<path class="st9" d="M178.3,208.9l1.5,3.1c0,0,0.1,0.7,0.1,1.2l0,0.2c0,0.8-0.1,1.7-0.4,2.6l-2.8,10.2l0,0c-0.1,0.4-0.5,0.7-1,0.7
	c-0.2,0-0.3,0-0.5-0.1l0,0l-10.3-5.3l0.2-0.2c5-3.9,6.9-8.7,8.4-12.4L178.3,208.9z"/>
<path class="st16" d="M175.6,225.8"/>
<path class="st16" d="M162.6,221.5"/>
<path class="st16" d="M152.3,225.8"/>
<path class="st16" d="M165.4,221.5"/>
<path class="st16" d="M175.6,225.8"/>
<path class="st16" d="M162.6,221.5"/>
<path class="st14" d="M164,209.7c12.1-0.2,17.2-1.3,19.3-1.8c1.7-0.4,1.5-1.5,1.5-1.5v-1.4c0,0-7.2,2-20.5,1.8h-0.4
	c-13.3,0.1-20.5-1.8-20.5-1.8v1.4c0,0-0.3,1.1,1.5,1.5C146.8,208.5,151.9,209.6,164,209.7"/>
<path class="st16" d="M164.8,221.5"/>
<path class="st16" d="M175.6,225.8"/>
<path class="st16" d="M162.6,221.5"/>
<path class="st17" d="M199.9,265.9"/>
<path class="st18" d="M201.9,246.3c0,0,3.9-2.8,5.1-6.8"/>
<path class="st18" d="M201.5,252.4c0,0,2.2,0.1,2.5,3.6"/>
<path class="st6" d="M164.3,174.4"/>
<path class="st11" d="M188.3,215.8"/>
<path class="st10" d="M200.1,284.4l-0.5-0.8c0,0-2.4-2.8-1.7-3.4c0.6-0.5,1.9,1.4,2.2,1.9L200.1,284.4z"/>
<path class="st11" d="M201.1,287.6"/>
<path class="st18" d="M163.9,222.1c0.1,27.3,0.1,54.6,0,81.9"/>
<path class="st10" d="M130.5,238.5"/>
<path class="st10" d="M122.9,227.6c-0.6,0.1-1.2,0-1.7-0.4c-1.4-1.1-2-3.2-2-3.2s-0.3-1.2,0-2.6l2-1.3l1.3-0.6l0,6.8L122.9,227.6z"
	/>
<path class="st12" d="M108.3,258"/>
<path class="st11" d="M207.2,231.8"/>
<path class="st16" d="M163.2,221.5"/>
<path class="st15" d="M152.3,225.8"/>
<path class="st18" d="M122.4,219.6v6.7c0,0,4,10.2,3.6,15.7c-0.4,5.5,2.1,23.8,2.1,23.8"/>
<path class="st16" d="M165.4,221.5"/>
<path class="st8" d="M125,285.8c0,0,2.9,12.3-5.4,18.1h-15.9c-8.3-5.8-5.4-18.1-5.4-18.1l0-0.1c-1.5-8.9,4-23.7,4-23.7
	c17.3,10.1,23.5,8.3,23.5,8.3c1.1,5.6,1.5,11.8-0.8,15.3L125,285.8"/>
<path class="st17" d="M128.1,265.9"/>
<path class="st7" d="M118.8,306.8h-14.4c-0.7,0-1.2-0.5-1.2-1.2V305c0-0.7,0.5-1.2,1.2-1.2h14.4c0.7,0,1.2,0.5,1.2,1.2v0.6
	C120,306.3,119.5,306.8,118.8,306.8z"/>
<path class="st8" d="M122.2,287.7c1.1-0.4,2-1.2,2.6-2.2"/>
<path class="st8" d="M202.5,285.8c0,0-2.9,12.3,5.4,18.1h15.9c8.3-5.8,5.4-18.1,5.4-18.1l0-0.1c1.5-8.9-4-23.7-4-23.7
	c-17.3,10.1-23.5,8.3-23.5,8.3c-1.1,5.6-1.5,11.8,0.8,15.3L202.5,285.8"/>
<path class="st8" d="M229.3,285.6c-0.5,2.9-1.7,5.1-4,6.1"/>
<path class="st8" d="M205.2,287.7c-1.1-0.4-2-1.2-2.6-2.2"/>
<path class="st7" d="M119.5,303.8"/>
<path class="st8" d="M118.8,306.8h-14.4c-0.7,0-1.2-0.5-1.2-1.2V305c0-0.7,0.5-1.2,1.2-1.2h14.4c0.7,0,1.2,0.5,1.2,1.2v0.6
	C120,306.3,119.5,306.8,118.8,306.8z"/>
<path class="st16" d="M164.8,221.5"/>
<path class="st16" d="M175.6,225.8"/>
<path class="st16" d="M162.6,221.5"/>
<path class="st17" d="M199.9,265.9"/>
<path class="st6" d="M164.3,174.4"/>
<path class="st10" d="M175.1,304.8c6.1-0.1,12.2-0.2,18.3-0.3c0.3,0,0.5-0.1,0.8-0.1c0-0.3,0-0.5-0.1-0.8c-0.3-2.8-3.4-2.7-3.4-2.7
	l-0.2-0.3c0,0,0,0,0,0c0.1-0.6-1-1.4-1-1.4s-2.4-1.8-7.9-1c-5.4,0.9-4.5,5-4.5,5C176,303.9,175.3,304.1,175.1,304.8z"/>
<path class="st10" d="M200.3,304.1l-0.1-4.3c-0.6-0.1-0.9-0.1-0.9-0.1s-2.2,0.2-3.5,1.3c-1.2,1-0.7,2.8-0.5,3.3
	C197,304.3,198.6,304.1,200.3,304.1z"/>
<path class="st10" d="M108.5,265c-0.6-0.9-2.1-2.8-1.4-3.4c0.7-0.6,1.7,1.6,2,2.1c0.4,0.6,1.5,2.8,1.6,1.1c0.2-2.2-1.9-5.1-3-6.9
	l-0.1-0.1c-1.6-8.4-7.4-3.9-7.4-3.9l-1.6,2.9c0,0-0.6,0.6,0.1,1.5c0.7,0.9,1.2,1.6,3.7,3.3C105,263.3,108.5,265,108.5,265z"/>
<path class="st10" d="M192.5,240.8c6.6-8.9,3.6-15.7,3.6-15.7s-1.5-2.4-1.7,0.5c0,0,3.1,8.1-2.9,15.2c0,0-0.6-3.5-2.6-2.2
	c0,0-1.4,0.2,0.6,2.6c0,0-3-2.2-3.2,0.1c-0.2,2.3,3.2,2.1,3.2,2.1s-2.4,1.9-0.9,3.2c1.5,1.3,2.7-0.7,2.7-0.7l0.3-1.3
	c0,0,1.7,3.4,2.6,0.9c0.9-2.5-1.2-2.2-1.2-2.2s2,0.2,1.6-1.3s-1.9-1.1-1.9-1.1L192.5,240.8z"/>
<path class="st15" d="M229.5,256.8l-17.1-31.1c0,0-1.6-4.7-9-7l-21-5.3l-2-0.5c-0.5,0-0.4,0.3-0.4,0.3c0,0.8-0.1,1.7-0.4,2.6
	l-2.8,10.2l0,0c-0.1,0.4-0.5,0.7-1,0.7c-0.2,0-0.3,0-0.5-0.1l0,0l-10.3-5.3l-0.8,0.7l-0.8-0.7l-10.3,5.3l-0.5,0.1
	c-0.5,0-0.9-0.3-1-0.8l0-0.1l-2.8-10.2c-0.4-1-0.4-2-0.4-2.8l0-0.3l-3,0.7l-21,5.3c-7.3,2.2-9,7-9,7l-17.1,31.1
	C96,260,120.8,273,127.5,270l0.6-4.3l-0.9,39.3c4.4-0.8,9-0.4,13.4,0.9c0.1,0,0.3,0,0.4,0c-0.2-0.1,0-0.1,0.4,0
	c0.4,0,0.8,0.1,1.2,0.2c2.3,0.1,4.5,0,6.8-0.2c4.3-0.3,8.6-0.7,12.9-0.8c10.3-0.2,20.6-0.4,30.9-0.5c2.4-0.2,4.7-0.4,7-0.5
	l-0.4-38.3l0.6,4.1C207.2,273,231.4,260,229.5,256.8z"/>
<path class="st10" d="M205.5,226.5l-1.9,5.5c-0.6-0.4-1-0.7-1-0.7s-1.7-1.4-0.7,0.5c0.4,0.8,0.9,1.4,1.3,1.8c0,0-1.7,5.2-1.2,10.3
	l0,0.3l0,0.3c-0.7-0.2-1.7-0.6-2.4-1.2c-1.3-1.1-1.3-1.5-1.3-1.5s-2.7-1-2.5-3.7c0,0-0.2-1.1,0.9-2.8c0,0,0.6-1.9,0.5-2.3
	s0-0.4,0-0.4s0.8,0.8,0.8,1.6c0,0.9,0.4,0.1,0.4,0.1L198,231c0,0,0-1.1,0.7-0.1c0.7,1,1.7,2.8,1.7,2.8s1.4,1.4,0.8-0.4
	c-0.6-1.8-2.4-4-2.4-4s-1.2-1.8,0.3-1c0,0,2.5,2.1,3.3,1.6c0.8-0.4,0.2-1.1,0.2-1.1l-2.8-1.1c0,0-1.7-1.2,0.3-1c0,0,2.2,0.9,4.7-0.1
	C205.1,226.6,205.3,226.5,205.5,226.5"/>
<path class="st10" d="M138.3,242.8c0,0-6.2,3.6-6.1-4.9l-0.1-0.2c0,0-1.5-4.1-1.5-7c-0.1-2.9,1-0.3,1-0.3l1.1,3.2
	c1.3,1.7,1.1,0,1.1,0s-1.9-5-0.7-3c1.2,2,2,2.1,2,2.1c1.8,0.5-0.7-2-0.7-2c-1.5-1.9,1.6-0.1,1.6-0.1c2.9,2.6,2.3-0.4,2.3-0.4
	s-1.5-2.1-4.5-2s1.4-2.6,1.4-2.6c3.5-0.5,2.9-0.9,2.9-0.9s0.2-2.1-3-0.8c-3.2,1.3-0.5-1.3-0.5-1.3s2.5-0.2,2.5-1.8
	c0-1.6-3.8,0.8-3.8,0.8c-2.8,3-0.3-1.6-0.3-1.6s2.5-4.3,5-3.3c2.5,1,3.1,0.8,3.1,0.8s2.2-0.2,3.8,3.7c1.6,3.9,0.7,5.6,0.7,5.6
	s-1.5,3.1-4.9,0.3l-0.1-0.1c0,0-6-0.1-0.7,1.1s3,7,3,7s3.5,7.4-4.4,7.6L138.3,242.8z"/>
<g>
	<path class="st21" d="M164,199.7c-18.2-0.2-19.3-6.5-19.3-6.5V185c0-8.3,8.6-15,19.1-15c0.4,0,0.4,0,0.4,0c10.6,0,19.1,6.7,19.1,15
		v8.1C183.3,193.1,182.2,199.4,164,199.7"/>
</g>
<path class="st18" d="M205.5,219.8v6.7c0,0-4,10.2-3.6,15.7s-2.1,23.8-2.1,23.8"/>
<path class="st8" d="M98.1,285.6c0.5,2.9,1.7,5.1,4,6.1"/>
<path class="st22" d="M170.9,268.8h-15.7c-1.7,0-3.1-1.4-3.1-3.1v-7.3c0-1.7,1.4-3.1,3.1-3.1h15.7c1.7,0,3.1,1.4,3.1,3.1v7.3
	C174,267.5,172.7,268.8,170.9,268.8z"/>
<path class="st22" d="M169.1,255.1v-2c0-0.6-0.5-1-1-1h-9.3c-0.6,0-1,0.5-1,1v2"/>
<circle class="st23" cx="163.9" cy="262.7" r="4.5"/>
<circle class="st24" cx="154.4" cy="257.4" r="1.3"/>
<path class="st25" d="M156.8,168.2l1.1,2.3c0.2,0.4,0.6,0.7,1.1,0.8l2.6,0.4c1.2,0.2,1.7,1.6,0.8,2.5l-1.9,1.8
	c-0.3,0.3-0.5,0.8-0.4,1.3l0.4,2.6c0.2,1.2-1,2.1-2.1,1.5l-2.3-1.2c-0.4-0.2-0.9-0.2-1.3,0l-2.3,1.2c-1.1,0.6-2.3-0.3-2.1-1.5
	l0.4-2.6c0.1-0.5-0.1-0.9-0.4-1.3l-1.9-1.8c-0.9-0.8-0.4-2.3,0.8-2.5l2.6-0.4c0.5-0.1,0.9-0.4,1.1-0.8l1.1-2.3
	C154.7,167.2,156.2,167.2,156.8,168.2z"/>
<path class="st25" d="M173.8,168.2l1.1,2.3c0.2,0.4,0.6,0.7,1.1,0.8l2.6,0.4c1.2,0.2,1.7,1.6,0.8,2.5l-1.9,1.8
	c-0.3,0.3-0.5,0.8-0.4,1.3l0.4,2.6c0.2,1.2-1,2.1-2.1,1.5l-2.3-1.2c-0.4-0.2-0.9-0.2-1.3,0l-2.3,1.2c-1.1,0.6-2.3-0.3-2.1-1.5
	l0.4-2.6c0.1-0.5-0.1-0.9-0.4-1.3l-1.9-1.8c-0.9-0.8-0.4-2.3,0.8-2.5l2.6-0.4c0.5-0.1,0.9-0.4,1.1-0.8l1.1-2.3
	C171.7,167.1,173.2,167.1,173.8,168.2z"/>
<line class="st26" x1="162.9" y1="172.8" x2="164.9" y2="172.8"/>
<path class="st27" d="M160.4,262.4c0-0.7,0.3-1.5,0.8-2s1.2-0.9,1.9-1.1"/>
<path class="st28" d="M290.4,306.2H33.7c-8.6,0-15.6-7-15.6-15.6V33.8c0-8.6,7-15.6,15.6-15.6h256.8c8.6,0,15.6,7,15.6,15.6v256.8
	C306,299.2,299,306.2,290.4,306.2z"/>
</svg>
