<?xml version="1.0" encoding="utf-8"?>
<!-- Generator: Adobe Illustrator 27.3.1, SVG Export Plug-In . SVG Version: 6.00 Build 0)  -->
<svg version="1.1" id="Layer_1" xmlns="http://www.w3.org/2000/svg" xmlns:xlink="http://www.w3.org/1999/xlink" x="0px" y="0px"
	 viewBox="0 0 432 648" style="enable-background:new 0 0 432 648;" xml:space="preserve">
<style type="text/css">
	.st0{fill:#EA803A;stroke:#CD6129;stroke-miterlimit:10;}
	.st1{fill:#D74928;stroke:#BB3B26;stroke-miterlimit:10;}
	.st2{fill:none;stroke:#A5391D;stroke-miterlimit:10;}
	.st3{fill:#EEE0D8;stroke:#D7AF9D;stroke-miterlimit:10;}
	.st4{fill:#D23C27;stroke:#A53A23;stroke-miterlimit:10;}
	.st5{fill:none;stroke:#B1AE9C;stroke-linecap:round;stroke-linejoin:round;stroke-miterlimit:10;}
	.st6{fill:#EFE8CC;stroke:#B5956A;stroke-miterlimit:10;}
	.st7{fill:#EFE8CC;stroke:#B5956A;stroke-linecap:round;stroke-linejoin:round;stroke-miterlimit:10;}
	.st8{fill:#FCE5D7;stroke:#C6B6B0;stroke-linecap:round;stroke-linejoin:round;stroke-miterlimit:10;}
	.st9{fill:none;stroke:#A53A23;stroke-miterlimit:10;}
	.st10{fill:#D23D27;stroke:#B5956A;stroke-miterlimit:10;}
	.st11{fill:#B4D5DD;stroke:#7CAFB5;stroke-linecap:round;stroke-miterlimit:10;}
	.st12{fill:#0E1A1C;stroke:#7CAFB5;stroke-linecap:round;stroke-miterlimit:10;}
	.st13{fill:none;stroke:#214144;stroke-width:3;stroke-linecap:round;stroke-linejoin:round;stroke-miterlimit:10;}
	.st14{fill:#1D4149;stroke:#11292D;stroke-width:3;stroke-linecap:round;stroke-linejoin:round;stroke-miterlimit:10;}
	.st15{fill:#2C6069;stroke:#224B4F;stroke-miterlimit:10;}
	.st16{fill:none;stroke:#9BC9CE;stroke-width:2;stroke-linecap:round;stroke-miterlimit:10;}
	.st17{fill:#D3E0E2;stroke:#BAD7D9;stroke-miterlimit:10;}
	.st18{fill:#ECDED8;stroke:#CEBAB3;stroke-miterlimit:10;}
	.st19{fill:#EFE8CC;stroke:#B1AE9C;stroke-miterlimit:10;}
	.st20{fill:none;stroke:#A8A694;stroke-miterlimit:10;}
	.st21{opacity:0.56;fill:#EFE8CC;stroke:#B1AE9C;stroke-miterlimit:10;}
	.st22{fill:#EEE0D8;}
	.st23{fill:#D7AF9D;}
	.st24{fill:#EFE8CC;}
	.st25{fill:#470000;stroke:#350000;stroke-miterlimit:10;}
	.st26{fill:none;stroke:#350000;stroke-miterlimit:10;}
	.st27{opacity:0.45;fill:#470000;stroke:#350000;stroke-miterlimit:10;}
	.st28{fill:#A9493B;stroke:#A53A23;stroke-miterlimit:10;}
	.st29{fill:#C75647;stroke:#A53A23;stroke-miterlimit:10;}
	.st30{fill:#2B190D;stroke:#000000;stroke-miterlimit:10;}
	.st31{fill:#B1AE9C;stroke:#9B9989;stroke-miterlimit:10;}
	.st32{fill:#EDDFD9;stroke:#CEBBB3;stroke-miterlimit:10;}
	.st33{fill:none;stroke:#75CEE2;stroke-width:2;stroke-linecap:round;stroke-linejoin:round;stroke-miterlimit:10;}
	.st34{fill:#1B140F;}
	.st35{fill:#0D1A1C;stroke:#75CEE2;stroke-width:2;stroke-miterlimit:10;}
</style>
<path class="st0" d="M228.6,277.8c0,0,2,28.4-18.7,38.2l-35.4-5.8c-16.4-15.8-5.5-42.2-5.5-42.2l0-0.3c0-20.3,17.6-51.2,17.6-51.2
	c34.9,28.7,49.2,27.1,49.2,27.1c0.4,13-1,26.9-7.3,33.6L228.6,277.8"/>
<path class="st1" d="M242.8,234.3l4.2-104.8c-13.2,3.3-17.6,11.3-17.6,11.3l-49.4,63c-5.5,6.3,43.8,44,59.8,39.7l2.8-8.9
	L242.8,234.3z"/>
<path class="st2" d="M244.5,189.4c0,0-7.8-7.5-9.3-16.6"/>
<path class="st2" d="M241.3,206.5c0,0-4.9,0.2-5.7,8.2"/>
<path class="st0" d="M225.4,270.3c2.1,1.7,3.5,3.9,4.3,6.4"/>
<path class="st3" d="M326.4,599.9c0,0,30.4-8.2,31.9,16.9c1.5,25-68.7,18.4-68.7,18.4s-12.5-2.6-6.6-24.3
	c5.9-21.7,5.1-21.2,5.1-21.2l34.2,2.6l7.7,14.6"/>
<path class="st3" d="M218.7,593.1c-2.4-4.1,4.8-21.8,4.8-21.8l33.4,1.7c0,0,9.2,43.6-6.5,42.9s-26.6,0.3-26.6,0.3
	c-24.3-16-8.3-39.8-3.1-37.8"/>
<path class="st0" d="M218.5,392.3c0,0-18.8,75.1-13.3,91.4l-7.3,50.4c0,0-1.2,30,21.7,38.3s38.7,3.1,38.7,3.1s8.2-4,11.5-16.2
	l7.3-50.4c10-14,13.3-91.4,13.3-91.4l0.3-2.4c2.6-18.8,4.2-37.3,4.9-46.2l0.1-2.1c0,0-44.8-8.2-68-22.6c0,0-22,96.5-8.7,102.2"/>
<path class="st0" d="M266.5,530.9c0,0-35.7,10.8-51.1-20.5"/>
<path class="st0" d="M264.2,445.7c0,0-3.5,14-31.1,10.7"/>
<path class="st0" d="M363,398.8c0,0,10.1,85.8,0,102.9v56.8c0,0-4.1,33.2-34.9,38.8c-30.8,5.5-50.2-2.8-50.2-2.8s-9.7-5.8-11.7-19.7
	V518c-10.1-17.1,0-102.9,0-102.9l0-2.7c0.1-21.1,1.6-41.8,2.4-51.7l0.2-2.4c0,0,59-1.9,91.3-14c0,0,10.2,109.9-7.9,114.1"/>
<path class="st0" d="M273.2,555c0,0,43.8,18.4,69.3-15"/>
<path class="st4" d="M324,213.4c0,0-35.7,6.7-77,0.1"/>
<path class="st5" d="M274.6,360.1c0.7-0.8,1-4.4,1-9"/>
<path class="st1" d="M332.3,139.1c0,1.1,40.6,41,32.3,69.2c-8.3,28.1-1.3,152.4-1.3,152.4s-139.8,2.7-142.8-5.6
	c-3-8.3,7.8-53.7,7.8-53.7s4.2-90.1-1.2-108.7c-5.4-18.6,10.4-66.5,26.2-71S332.3,139.1,332.3,139.1z"/>
<path class="st6" d="M365.3,193.4c-0.5,0.7-1.9,2.3-5.1,3.7c0,0-3.6,2.6-3.9,3.7c-0.3,1.1-0.6,0.7-0.6,0.7s-0.6-2.5,0.5-4.1
	c1.1-1.6-0.7-0.7-0.7-0.7l-3.2,6.4c0,0-1.5,2-1.5-0.7c-0.1-2.7,0.5-7.4,0.5-7.4s-0.8-4.4-1.9-0.2c-1.1,4.2-0.7,10.4-0.7,10.4
	s-0.1,5-1.8,1.4c0,0-2.1-7.1-4.1-7.3c-2-0.2-1.7,1.7-1.7,1.7l3.8,5.6c0,0,1.6,4.4-1.9,1.4c0,0-2.9-4.4-8.8-5.8s-3,3-3,3
	s6.7,0.3,8.3,3.6c0,0,3.2,2.7,0.1,3.2c0,0-2.3-0.4-3.1-0.7c-0.8-0.4-10.3,0.4-10.3,0.4s-4.8,3.1-7.8,0.7c-3.1-2.4-4.6-7.2-4.6-7.2
	s-1.9-7.6,3.6-11.7c5.5-4.1,4.8-6.5,4.8-6.5s0.4-4.9,9.5-3.7c9.1,1.2,12.4,13.2,12.4,13.2s1.3,4.7,1.9,0c0.6-4.7-1-7.8-1-7.8
	s-4.3-2.7-3.5-8.2c0.8-5.5,0.6-8.5,4.1-9.8c0,0,6.4-0.1,9.2-0.8c0.3-0.1,0.7-0.1,1-0.1"/>
<path class="st6" d="M338.8,218c0,0-3.8,0.3,0.4,3h1.8c0,0,5.5,0,2.5,2.5c-3,2.5-7.5,4.6-7.5,4.6s-7.1,4.1-1.6,4.7s8.8-5.9,8.8-5.9
	s3.9-5,1.4,2.3c-2.4,7.3-3.2,7.9-1.9,9s4-6,4-6s-0.2-6.9,1.9-6.6s0.7,8.5,0.7,8.5l-0.1,9.2c0,0-1.1,9.9-7.5,12.1
	c-6.4,2.2-6.7,1.1-9.9-2.7c0,0-8.6,4-13.1-7.6c-4.4-11.6-1.5-17.8-1.5-17.8s1.4-2.8,2.8-2.8c0,0,0,0,0.1,0l-0.1-0.4
	c0,0-1.1-6.9,4.9-9c6-2,9.1-1.4,9.1-1.4s9.9,0.7,11,2.9c1.1,2.3-5.8,1.2-5.8,1.2H338.8z"/>
<path class="st7" d="M365.3,196.2c-14.7,8.7-16.8,20.5-16.8,20.5s-0.2,6.3,3.8,1.3c0,0,2.6-11.3,13-19.1"/>
<path class="st7" d="M364.3,209.4c-1.2,0.3-2.1,0.7-2.1,0.7c-7.7,5.2,0-3.6,0-3.6s1.2-1.3,3-2.7"/>
<path class="st7" d="M363,216.3c-2.8,0.1-0.9-1.7,0.5-2.7"/>
<path class="st7" d="M362.1,225.3c-0.6-0.2-1.3-0.4-1.9-0.5c-4.9-0.9-0.5-3.1,2.3-4.3"/>
<path class="st7" d="M361.4,232.6c-0.6-1.1-1.3-2.1-1.3-2.1c-1.3-2.8,0-2.2,1.5-1.2"/>
<path class="st7" d="M360.6,259.5c-4.2,0.5-11.9-0.4-8.6-14.3l-0.1-0.4c0,0-1.3-9.7,0-16.2c1.3-6.5,2.3-0.1,2.3-0.1l0.9,7.5
	c2.1,4.4,2.4,0.5,2.4,0.5s-1.8-11.9,0-6.8c1.8,5,3.3,5.5,3.3,5.5c0.2,0.1,0.3,0.1,0.4,0.2"/>
<path class="st8" d="M325.7,292.2c0,0-2.1,4.5-1.9-0.3s2.2-7.5,2.2-7.5s4.7-2,4.8-7.5c0.1-5.5,0.8-8.5-2.4-10.3c0,0-6.3-1.1-8.9-2.3
	s-5.8,0.4-5.8,0.4s-3.9,2.7-5.6,6.1c-1.6,3.4-1.3,4.3-1.3,4.3s-4.5,4.6-1.7,9.9c0,0,0.6,2.4,4.6,4.9c0,0,3.1,3.2,3.3,4.3
	c0.2,1.1,0.5,0.8,0.5,0.8s1-2.4,0.2-4.1c-0.8-1.7,0.8-0.6,0.8-0.6l2.1,6.9c0,0,1.1,2.2,1.6-0.4c0.5-2.6,0.7-7.3,0.7-7.3
	s1.5-4.2,1.9,0.1s-1,10.4-1,10.4s-0.7,4.9,1.6,1.6c0,0,3.2-6.6,5.3-6.5c2,0.1,1.4,2,1.4,2l-4.6,5c0,0-2.3,4,1.6,1.7
	c0,0,3.6-3.9,9.6-4.3c6-0.4,2.5,3.5,2.5,3.5s-6.6-0.8-8.8,2.2c0,0-3.6,2.1-0.6,3.1c0,0,2.3,0,3.2-0.2c0.9-0.2,10.1,2.1,10.1,2.1
	s4.2,3.8,7.6,1.9c3.4-1.9,5.7-6.3,5.7-6.3s3.1-7.2-1.7-12.1s-3.7-7.2-3.7-7.2s0.4-4.9-8.8-5.2C330.9,280.9,325.7,292.2,325.7,292.2z
	"/>
<path class="st8" d="M342.5,323.9c0,0,2.8-6.4-2.9-9.4c-5.6-3-8.8-2.9-8.8-2.9s-9.9-0.9-11.3,1.1c-1.4,2.1,5.6,2.2,5.6,2.2l0.3,0
	c0,0,3.7,0.9-0.9,2.9l-1.7-0.3c0,0-5.4-0.8-2.8,2.1s6.7,5.8,6.7,5.8s6.4,5.2,0.9,4.9c-5.5-0.4-7.7-7.2-7.7-7.2s-3-5.6-1.8,2
	c1.2,7.6,1.9,8.3,0.4,9.2c-1.4,0.9-3-6.6-3-6.6s1.4-6.8-0.8-6.8c-2.2,0-2.1,8.3-2.1,8.3l-1.4,9.1c0,0-0.5,10,5.5,13.2
	s6.5,2.2,10.2-1.1c0,0,7.9,5.3,14.1-5.4c6.2-10.7,4.3-17.3,4.3-17.3s-1-3-2.3-3.2c0,0,0,0-0.1,0L342.5,323.9z"/>
<path class="st8" d="M319.9,135c3.4,8.5,1.5,12.2,1.5,12.2s-3.4,7-10.9,0.7l-0.3-0.2c0,0-13.6-0.2-1.6,2.5c12,2.8,6.8,15.8,6.8,15.8
	s7.9,16.6-9.9,17.2l-0.3,0.1c0,0-14,8.1-13.8-11.2l-0.1-0.4c0,0-3.3-9.2-3.5-15.8c-0.2-6.6,2.2-0.6,2.2-0.6l2.5,7.1
	c3,3.9,2.4,0,2.4,0s-4.3-11.2-1.5-6.7s4.4,4.7,4.4,4.7c4,1-1.6-4.4-1.6-4.4c-3.4-4.3,3.7-0.3,3.7-0.3c6.6,5.9,5.2-0.9,5.2-0.9
	s-3.3-4.7-10.1-4.5c-6.8,0.2,3.1-5.8,3.1-5.8c7.9-1.2,6.6-2,6.6-2s0.4-4.7-6.7-1.7c-7.1,3-1.2-3-1.2-3s5.6-0.4,5.7-4
	c0-3.7-8.5,1.8-8.5,1.8c-6.4,6.7-0.8-3.5-0.8-3.5s1.1-1.9,2.8-3.8"/>
<path class="st8" d="M296.5,283c21,13.3,20.3,30,20.3,30s-1.2,6.2-4,0.4c0,0-0.1-19.6-18.6-29.5c0,0,1.6,7.9-3.7,6.7
	c0,0-3,0.7-0.9-5.9c0,0-4.5,7-6.9,2.4c-2.4-4.6,5.1-7.1,5.1-7.1s-6.5-2-4.4-5.9s6.3-0.6,6.3-0.6l1.7,2.5c0,0,0.9-8.6,4.8-4.1
	c3.9,4.5-0.8,5.6-0.8,5.6s4-2,4.5,1.4c0.5,3.4-3,3.9-3,3.9L296.5,283z"/>
<path class="st8" d="M294.8,351.3c0,0,14.8,6.7,12.6-12.5l0.1-0.4c0,0,2.4-9.5,1.9-16.1c-0.5-6.6-2.3-0.4-2.3-0.4l-1.7,7.3
	c-2.6,4.2-2.4,0.2-2.4,0.2s3.1-11.6,0.8-6.8c-2.3,4.8-4,5.1-4,5.1c-3.9,1.4,1.2-4.5,1.2-4.5c2.9-4.6-3.7,0.1-3.7,0.1
	c-5.9,6.5-5.2-0.3-5.2-0.3s2.8-5,9.6-5.5s-3.7-5.5-3.7-5.5c-8-0.4-6.7-1.3-6.7-1.3s-0.9-4.6,6.5-2.4c7.4,2.2,0.9-3.1,0.9-3.1
	s-5.6,0.2-6-3.5c-0.4-3.6,8.6,0.9,8.6,0.9c7,6,0.4-3.6,0.4-3.6s-6.7-9.1-12.1-6.3c-5.4,2.8-6.7,2.4-6.7,2.4s-5,0.1-7.6,9.2
	s-0.4,12.6-0.4,12.6s4.1,6.6,11-0.4l0.3-0.3c0,0,13.5-1.6,1.8,2.4s-5.1,16.4-5.1,16.4s-6.2,17.3,11.6,16.1L294.8,351.3z"/>
<path class="st8" d="M277.3,123.6c0.1,0,0,0.2,0,0.4c-0.1,4.3,1.7,10.3,1.7,10.3s1,4.9-1.5,1.7c0,0-3.7-6.4-5.7-6.1
	c-2,0.3-1.3,2.1-1.3,2.1l4.9,4.6c0,0,2.6,3.9-1.5,1.8c0,0-3.8-3.6-9.9-3.7c-6,0-2.2,3.6-2.2,3.6s6.6-1.3,8.9,1.6
	c0,0,3.7,1.9,0.8,3.1c0,0-2.3,0.2-3.2,0c-0.9-0.2-9.9,2.7-9.9,2.7s-4,4.1-7.5,2.4s-6.1-6-6.1-6s-3.5-7,0.9-12.2
	c2.4-2.8,3.1-4.8,3.3-6C249.1,124.1,254,118.8,277.3,123.6z"/>
<path class="st8" d="M283.5,125.2l-1.5,6.2c0,0-1,2.3-1.6-0.3c-0.5-2.1-1-5.4-1.1-6.7"/>
<path class="st8" d="M272.3,148.8c0,0-3.6,1.2,1.1,2.9l1.7-0.4c0,0,5.3-1.2,3,1.9s-6.3,6.2-6.3,6.2s-6,5.6-0.5,4.9
	c5.5-0.7,7.2-7.7,7.2-7.7s2.6-5.8,1.9,1.9c-0.7,7.6-1.3,8.4,0.2,9.2c1.5,0.8,2.6-6.8,2.6-6.8s-1.8-6.7,0.4-6.8
	c2.2-0.1,2.6,8.1,2.6,8.1l2,9c0,0,1.2,9.9-4.6,13.5c-5.8,3.6-6.3,2.6-10.3-0.4c0,0-7.5,5.8-14.5-4.5c-6.9-10.3-5.4-17-5.4-17
	s0.8-3,2.1-3.3c0,0,0,0,0.1,0l-0.2-0.4c0,0-2.7-6.5,2.7-9.9c5.4-3.3,8.6-3.4,8.6-3.4s9.8-1.6,11.3,0.4s-5.4,2.5-5.4,2.5L272.3,148.8
	z"/>
<path class="st8" d="M289,126.2c-8,10.1-7.6,19.2-7.6,19.2s1.3,6.1,4,0.4c0,0,0-9.6,6.3-18.8"/>
<path class="st9" d="M286.9,125.7c3,0.7,6.1,1.5,9.1,2.3"/>
<path class="st9" d="M279.2,124c2.5,0.5,5.1,1.1,7.7,1.7"/>
<path class="st6" d="M229.9,225.4c1.3,1.1,2.4,2.1,2.4,2.1s4,1.9,1.3-1.4c-1-1.2-2.4-2.4-3.7-3.5"/>
<path class="st8" d="M229,204.2c1.7-2.5,4.4-6.9,4.4-6.9s0.3-5.7,4.1-6.7c3.8-1,8.5,0.5,8.5,0.5s7.2,3,7.3,9.8
	c0.1,6.8,2.4,7.7,2.4,7.7s3.7,3.3-2.6,9.9s-18,2.2-18,2.2s-4.6-1.7-1.1,1.6c3.5,3.3,6.8,3.8,6.8,3.8s4.8-1.9,8.7,2s6.5,5.5,5.5,9
	c0,0-3.7,5.2-4.8,7.9c-1.1,2.7-4.5,3.8-4.5,3.8s-4.7,0.8-8.3-0.4c-3.5-1.3-4-2.2-4-2.2s-1.7,0-3.7-0.9"/>
<path class="st10" d="M229.3,212.8c1.9-0.4,4.7-1.3,7.2-3.4c4.6-3.9-0.7-4.2-0.7-4.2s-3.1,4-6.4,4.6"/>
<path class="st10" d="M229.7,218.3c1.7,0.3,3.4,0.4,4-0.2c1.4-1.5-0.4-2.4-0.4-2.4l-3.7-0.2"/>
<path class="st8" d="M226.1,180.9c0.1,0.1,0.1,0.2,0.1,0.2s1.4,2.8,0.6,3.9c0,0,0,0,0,0.1l0.4,0.2c0,0,6.3,3.2,4.4,9.3
	c-1,3.3-2.2,5.5-3.1,6.8"/>
<path class="st8" d="M221.4,338c0.3,0.1,0.9-0.2,1.9-1c0,0,2.9-4.4,8.8-5.8c5.9-1.4,3,3,3,3s-6.7,0.3-8.3,3.6c0,0-3.2,2.7-0.1,3.2
	c0,0,2.3-0.4,3.1-0.7c0.8-0.4,10.3,0.4,10.3,0.4s4.8,3.1,7.8,0.7c3.1-2.4,4.6-7.2,4.6-7.2s1.9-7.6-3.6-11.7s-4.8-6.5-4.8-6.5
	s-0.4-4.9-9.5-3.7c-5.1,0.7-8.4,4.8-10.3,8.2"/>
<path class="st10" d="M223,328.4c0.2-0.1,0.3-0.2,0.5-0.2c2-0.2,1.7,1.7,1.7,1.7l-3.4,5"/>
<polyline class="st0" points="322.3,126.5 271.6,106.6 271.6,100.4 322.3,103.6 322.3,105.9 322.3,126.5 "/>
<path class="st11" d="M362,243.8l10.2-1.7c1.7-0.3,2.8-1.9,2.6-3.6l-4-23.9c-0.3-1.7-1.9-2.8-3.6-2.6l-10.2,1.7
	c-1.7,0.3-2.8,1.9-2.6,3.6l4,23.9C358.7,242.9,360.3,244,362,243.8z"/>
<path class="st11" d="M366.5,211.6l-0.8-4.7c-0.2-1.1-1.1-1.9-2.1-1.8l-5.2,0.9c-0.9,0.2-1.6,1.2-1.4,2.4l0.8,4.7"/>
<path class="st12" d="M382.2,236.8c1.2-0.2,1.4-5,0.5-10.6c-0.9-5.7-2.7-10.1-3.9-9.9"/>
<polyline class="st11" points="382.3,236.8 374.7,238 371.3,217.4 378.8,216.2 "/>
<path class="st13" d="M367.2,226c0,0,0.5-73.5-76.5-104.9"/>
<path class="st8" d="M249.8,359.8c-0.3-2.4-0.9-3.7-0.9-3.7s-1.4-2.8-2.8-2.8c0,0,0,0-0.1,0l0.1-0.4c0,0,1.1-6.9-4.9-9
	c-6-2-9.1-1.4-9.1-1.4s-9.9,0.7-11,2.9c-1.1,2.3,5.8,1.2,5.8,1.2h0.3c0,0,3.8,0.3-0.4,3h-1.8c0,0-5.5,0-2.5,2.5s7.5,4.6,7.5,4.6
	s1.1,0.7,2.1,1.5"/>
<path class="st10" d="M229.9,225.4c1.3,1.1,2.4,2.1,2.4,2.1s4,1.9,1.3-1.4c-1-1.2-2.4-2.4-3.7-3.5"/>
<path class="st9" d="M296,128.1c18.9,5.1,36.3,11.1,36.3,11.1c0,1.1,40.6,41,32.3,69.2c-8.3,28.1-1.3,152.4-1.3,152.4
	s-139.8,2.7-142.8-5.6c-3-8.3,7.8-53.7,7.8-53.7s4.2-90.1-1.2-108.7c-5.4-18.6,10.4-66.5,26.2-71c5-1.4,14.8-0.2,25.9,2.2"/>
<path class="st14" d="M353.1,342.6c-35.1,5.5-89.4,9.4-133-7.8l0.5,14.7c9.4,6.4,42.1,10.8,42.1,10.8c28.6,7.4,83.8,0.4,83.8,0.4
	s2.4-0.3,6.1-0.9"/>
<path class="st15" d="M371.8,372.9c-0.2,1.5-1.5,2.6-3,2.6h-4.4l-0.7,0c-6,0-11.7-4.9-11.7-10.8v-21.2c0-0.9,0.7-1.6,1.6-1.6h14.9
	c1.4,0,2.7,1,2.9,2.5C372.3,348.8,373.6,359.4,371.8,372.9z"/>
<path class="st15" d="M371.8,344.6l1.9,0c0.1,0,0.1,0,0.2,0c3.9,0,7.1,7.6,7.1,16.9c0,9.1-3.1,16.7-7,16.9h-2.5
	c-3.8-0.2-7-7.8-7-16.9C364.6,352.2,367.9,344.6,371.8,344.6c0.1,0,0.1,0,0.2,0"/>
<line class="st16" x1="373.8" y1="354.6" x2="370.5" y2="354.6"/>
<path class="st17" d="M372.9,354.3h0.4c0.8,0,1.5,0.7,1.5,1.5v6.9c0,0.8-0.7,1.5-1.5,1.5h-0.4c-0.8,0-1.5-0.7-1.5-1.5v-6.9
	C371.4,354.9,372.1,354.3,372.9,354.3z"/>
<path class="st3" d="M343.6,360.3c0-4.5-0.2-9.9-0.4-14.1c-0.4-8.5,5.2-12.2,5.2-12.2l20.3,0.2c0,0,12.7,7.4,12.7,26.3
	c0,18.9-16.2,24.5-16.2,24.5l-0.3,0.1c-6.4,6.9-14.7,0.9-14.7,0.9s-1.4-0.9-1.6-2.2l-0.4,0c-4.3,0-8.4-1-11.1-6.2l-0.1-0.2
	c-2.1-1-3.8-3.1-4.2-7c-1-11.9,10.1-10.2,10.1-10.2L343.6,360.3z"/>
<path class="st3" d="M337.1,377.5c4.3,2,10.2-0.3,10.2-0.3s6.9-3.2,10-20.9"/>
<path class="st3" d="M348.3,383.9c5.5,0,10.7-2.7,11.3-3.5c0,0,5.6-4.6,8.7-18.8"/>
<path class="st3" d="M376.9,361.6c0,0-4.4,13.9-10.9,22.5c-0.3,0.4-0.6,0.7-0.9,1.1"/>
<path class="st1" d="M256.3,121.8c-1.8,0.6,1.9-4.3,1.9-4.3s-0.3-5.6,2.1-11.7c2.4-6.2,24,1.4,24,1.4s57.6,23.7,51.2,29.1l-7.2,9
	c0,0-0.5,1.7-5.4-2.4C318,138.7,274,115.9,256.3,121.8z"/>
<path class="st0" d="M292.1,457.3c0,0,1.8,16.7,37.8,17.5"/>
<path class="st0" d="M303.2,228.5c0.7,22.7,3.4,47.1,11.2,59.7l-0.1,0.9l-0.1,0.6c0,0-2.4,33.2,20.9,45.1l40.2-6.1
	c18.7-18.2,6.5-49.3,6.5-49.3l0-0.4c0.2-23.8-19.6-60.3-19.6-60.3"/>
<path class="st0" d="M373.2,335.6l-33.2,5.1c-1.2,0.2-2.2-0.6-2.4-1.8l-0.4-2.4c-0.2-1.2,0.6-2.2,1.8-2.4l33.2-5.1
	c1.2-0.2,2.2,0.6,2.4,1.8l0.4,2.4C375.1,334.3,374.3,335.4,373.2,335.6z"/>
<path class="st1" d="M358.7,168.2c0,0-19.8-34.4-55.9-11.7c0,0-21.5,10.9-11.6,45.8l4.6,34.4c0-3.9,55.2-18,75.1-11.6
	C371,225.2,365.9,173.1,358.7,168.2z"/>
<path class="st2" d="M454.6,347.3"/>
<polygon class="st18" points="255.9,114.1 347.1,102.9 343.4,73.7 252.2,84.9 "/>
<path class="st19" d="M293.4,96.1"/>
<path class="st20" d="M290.9,36.2"/>
<path class="st20" d="M290.9,36.2"/>
<path class="st21" d="M247.9,60.2l0,0.6c-0.1,1.7-0.1,3.4,0.1,5.1l2.3,19.6l2.9,24.6"/>
<g>
	<path class="st22" d="M198.3,343.5"/>
	<g>
		<path class="st23" d="M198.3,346c3.2,0,3.2-5,0-5C195.1,341,195,346,198.3,346L198.3,346z"/>
	</g>
</g>
<g>
	<g>
		<path class="st24" d="M201.1,337.9c3.2,0,3.2-5,0-5C197.9,332.9,197.9,337.9,201.1,337.9L201.1,337.9z"/>
	</g>
</g>
<path class="st25" d="M205.3,356.4l-27.9,89.1l-8.6-2.7l27.9-89.1l1.4-4.3l1.4-4.5c0.5-1.6-1-3.5-3.3-4.3l-19.8-6.2
	c-2.3-0.7-4.6,0-5.1,1.6l-1.4,4.5l-1.5,4.5l-27.7,88.5l-8.6-2.7l27.7-88.5l0.4-1.5l3.4-10.9c1.1-3.7,5-5.7,8.5-4.6l32.7,10.2
	c3.6,1.1,5.5,5,4.4,8.6l-3.4,10.9L205.3,356.4z"/>
<path class="st26" d="M199.5,344.9c0.5-1.6-1-3.5-3.3-4.3"/>
<path class="st3" d="M209,339.4c0-1.3-0.1-2.9-0.4-4.7c-2-14.5-4.3-15.3-4.3-15.3l-27.7-2.2c0,0-14,10.5-8.9,23.4l0.9,1.8
	c1.8,7,5.8,6.7,5.8,6.7s4.9,5.9,7.9,4.7l0-0.2c5,4.4,9.7,4.1,13.7,1.7l3.1-9.4l-0.6-0.4c-4.4-6.3-0.8-10.2,1.1-11.7
	c0.5-0.4,0.9-0.6,0.9-0.6"/>
<path class="st3" d="M191.8,357.1c0.9-0.1,1.5-0.6,1.8-1.2c0.5-0.9,0.1-2-0.7-2.5c-2.2-1.3-7-5-7.9-12.6"/>
<path class="st5" d="M182.4,353.6c1,1.1,2.2,1.9,3.5,2.5c1.6,0.6,2.7,0.8,3.5,0.8"/>
<path class="st3" d="M177.7,342.1c0,0,1.4,7.7,5.5,12.1"/>
<path class="st3" d="M173.8,341.7c0,0,0.8,6.2,1.5,8"/>
<line class="st27" x1="140.6" y1="433.6" x2="132" y2="430.9"/>
<polyline class="st26" points="195.4,357.7 198,349.4 199.5,344.9 "/>
<path class="st25" d="M200.5,334.3l4.3,1.3c3.6,1.1,5.5,5,4.4,8.6"/>
<path class="st0" d="M207.8,322.5l-33.1-5.4c-1.2-0.2-1.9-1.3-1.7-2.4l0.4-2.4c0.2-1.2,1.3-1.9,2.4-1.7l33.1,5.4
	c1.2,0.2,1.9,1.3,1.7,2.4l-0.4,2.4C210,321.9,209,322.6,207.8,322.5z"/>
<path class="st28" d="M149.3,604.2l-80.8-25c-13.8-4.3-21.5-18.9-17.3-32.7l37.6-121.8c4.3-13.8,18.9-21.5,32.7-17.3l80.8,25
	c13.8,4.3,21.5,18.9,17.3,32.7L182,586.9C177.8,600.7,163.1,608.4,149.3,604.2z"/>
<path class="st29" d="M143.6,596.2l-80.8-25C49,567,41.3,552.3,45.5,538.5l37.6-121.8c4.3-13.8,18.9-21.5,32.7-17.3l80.8,25
	c13.8,4.3,21.5,18.9,17.3,32.7l-37.6,121.8C172.1,592.8,157.4,600.5,143.6,596.2z"/>
<circle class="st30" cx="60.5" cy="586.8" r="11.7"/>
<circle class="st31" cx="60.5" cy="586.8" r="3.6"/>
<circle class="st30" cx="153.9" cy="614.7" r="11.7"/>
<circle class="st31" cx="153.9" cy="614.7" r="3.6"/>
<circle class="st30" cx="138.6" cy="609.4" r="11.7"/>
<circle class="st31" cx="138.6" cy="609.4" r="3.6"/>
<circle class="st30" cx="45.7" cy="575.6" r="11.7"/>
<circle class="st31" cx="45.7" cy="575.6" r="3.6"/>
<polygon class="st32" points="253.5,113.2 348.4,100.9 345.3,72.2 250.4,84.5 "/>
<path class="st20" d="M307.9,30.6"/>
<path class="st32" d="M348,96.9l-2.4-24.2l0-0.1l-1.9-19.2c-0.1-1.4-0.4-2.8-0.8-4.2l-0.3-1.3c0,0-11.9-38.2-51.3-33l0.2,0
	C252.1,20,248,60.2,248,60.2l0,0.6c-0.1,1.6-0.2,3.3,0,5l1.9,19.3l2.4,24.2"/>
<path class="st33" d="M319.6,28.2l-35.9,25.3c0,0-0.3,2,0.4,2.8"/>
<path class="st34" d="M347.7,84.6c-15.5-2-19.9-6.6-20.3-8.9L324.5,57c-1.4-9,1.8-17.9,8.5-25.1l0.3,0c6.9,8.4,9.6,16.7,9.6,16.7
	l0.3,1.3c0.4,1.4,0.7,2.8,0.9,4.2l2.3,19.5l0,0.1l1.6,13.7"/>
<path class="st32" d="M301.2,113.7c-28,3.2-39.9,2.3-44.9,1.8c-4.1-0.5-3.7-2.9-3.7-2.9l-0.3-3.2c0,0,17.1,2.2,47.8-2.1l0.9-0.1
	c30.8-3.7,47-10.1,47-10.1l0.3,3.2c0,0,0.9,2.3-3,3.8C340.5,105.8,329.1,109.7,301.2,113.7"/>
<path class="st18" d="M347.7,84.6c-15.5-2-19.9-6.6-20.3-8.9L324.5,57c-1.4-9,1.8-17.9,8.5-25.1c0.5-1.5-1.4-2-1.4-2
	c-7.7,8.1-11.7,18-10.1,28l3.2,20.3c0,0,3.8,7.5,23.4,9.3C348.3,87.7,349.2,84.8,347.7,84.6z"/>
<path class="st35" d="M318.4,16.7l2.7,4.8c0.5,0.9,0.7,1.7,0.5,2.1l-1.2,2.4c-0.5,1.1,1.3,4,3.2,4.8l4,1.8c0.7,0.3,1.6,1.1,2.2,1.9
	l3.6,4.7c1.7,2.2,3.9,2.9,3.7,1.2l-0.3-3.7c0-0.7,0.3-1,0.9-0.9l3.4,0.5c1.6,0.2,1.1-2.2-0.9-4.1l-4.2-4.1c-0.8-0.8-1.4-1.7-1.7-2.5
	l-1.5-4.4c-0.7-2-3.2-4.2-4.3-3.7l-2.3,1.1c-0.4,0.2-1.2,0-1.9-0.6l-4.3-3.2C318.2,13.4,317.1,14.5,318.4,16.7z"/>
</svg>
