<?xml version="1.0" encoding="utf-8"?>
<!-- Generator: Adobe Illustrator 27.4.0, SVG Export Plug-In . SVG Version: 6.00 Build 0)  -->
<svg version="1.1" id="Layer_1" xmlns="http://www.w3.org/2000/svg" xmlns:xlink="http://www.w3.org/1999/xlink" x="0px" y="0px"
	 viewBox="0 0 1080 1008" style="enable-background:new 0 0 1080 1008;" xml:space="preserve">
<style type="text/css">
	.st0{fill:#EEE0D8;stroke:#D7AF9D;stroke-width:3;stroke-miterlimit:10;}
	.st1{fill:#CEBBB3;stroke:#C2A79D;stroke-width:4;stroke-miterlimit:10;}
	.st2{fill:#1B140F;stroke:#000000;stroke-width:3;stroke-miterlimit:10;}
	.st3{fill:#D74928;stroke:#BB3B26;stroke-width:3;stroke-miterlimit:10;}
	.st4{fill:none;stroke:#1B140F;stroke-width:10;stroke-miterlimit:10;}
	.st5{fill:#EA803A;stroke:#CD6129;stroke-miterlimit:10;}
	.st6{fill:#D74928;stroke:#BB3B26;stroke-miterlimit:10;}
	.st7{fill:none;stroke:#A5391D;stroke-miterlimit:10;}
	.st8{fill:#EEE0D8;stroke:#D7AF9D;stroke-miterlimit:10;}
	.st9{fill:#D23C27;stroke:#A53A23;stroke-miterlimit:10;}
	.st10{fill:none;stroke:#B1AE9C;stroke-linecap:round;stroke-linejoin:round;stroke-miterlimit:10;}
	.st11{fill:#EFE8CC;stroke:#B5956A;stroke-miterlimit:10;}
	.st12{fill:#EFE8CC;stroke:#B5956A;stroke-linecap:round;stroke-linejoin:round;stroke-miterlimit:10;}
	.st13{fill:#FCE5D7;stroke:#C6B6B0;stroke-linecap:round;stroke-linejoin:round;stroke-miterlimit:10;}
	.st14{fill:none;stroke:#A53A23;stroke-miterlimit:10;}
	.st15{fill:#D23D27;stroke:#B5956A;stroke-miterlimit:10;}
	.st16{fill:#B4D5DD;stroke:#7CAFB5;stroke-linecap:round;stroke-miterlimit:10;}
	.st17{fill:#0E1A1C;stroke:#7CAFB5;stroke-linecap:round;stroke-miterlimit:10;}
	.st18{fill:none;stroke:#214144;stroke-width:3;stroke-linecap:round;stroke-linejoin:round;stroke-miterlimit:10;}
	.st19{fill:#1D4149;stroke:#11292D;stroke-width:3;stroke-linecap:round;stroke-linejoin:round;stroke-miterlimit:10;}
	.st20{fill:#2C6069;stroke:#224B4F;stroke-miterlimit:10;}
	.st21{fill:none;stroke:#9BC9CE;stroke-width:2;stroke-linecap:round;stroke-miterlimit:10;}
	.st22{fill:#D3E0E2;stroke:#BAD7D9;stroke-miterlimit:10;}
	.st23{fill:#ECDED8;stroke:#CEBAB3;stroke-miterlimit:10;}
	.st24{fill:#EFE8CC;stroke:#B1AE9C;stroke-miterlimit:10;}
	.st25{fill:none;stroke:#A8A694;stroke-miterlimit:10;}
	.st26{opacity:0.56;fill:#EFE8CC;stroke:#B1AE9C;stroke-miterlimit:10;}
	.st27{fill:#EEE0D8;}
	.st28{fill:#D7AF9D;}
	.st29{fill:#EFE8CC;}
	.st30{fill:#470000;stroke:#350000;stroke-miterlimit:10;}
	.st31{fill:none;stroke:#350000;stroke-miterlimit:10;}
	.st32{opacity:0.45;fill:#470000;stroke:#350000;stroke-miterlimit:10;}
	.st33{fill:#A9493B;stroke:#A53A23;stroke-miterlimit:10;}
	.st34{fill:#C75647;stroke:#A53A23;stroke-miterlimit:10;}
	.st35{fill:#2B190D;stroke:#000000;stroke-miterlimit:10;}
	.st36{fill:#B1AE9C;stroke:#9B9989;stroke-miterlimit:10;}
	.st37{fill:#EDDFD9;stroke:#CEBBB3;stroke-miterlimit:10;}
	.st38{fill:none;stroke:#75CEE2;stroke-width:2;stroke-linecap:round;stroke-linejoin:round;stroke-miterlimit:10;}
	.st39{fill:#1B140F;}
	.st40{fill:#0D1A1C;stroke:#75CEE2;stroke-width:2;stroke-miterlimit:10;}
</style>
<path class="st0" d="M702.9,143.2c-306.4,311-73.5,572.4-73.5,572.4h147.6c0,0,232.9-261.4-73.5-572.4"/>
<circle class="st1" cx="703.5" cy="426.9" r="83.1"/>
<circle class="st2" cx="703.5" cy="425.8" r="63.6"/>
<polyline class="st2" points="630.3,715.7 601.6,779.7 806.3,779.7 777.6,715.7 "/>
<path class="st3" d="M555.5,385.7c0,0-127,129.2-44.2,319.4l65.6-76.6c-36.3-72.7-42.9-154.6-22.3-241.4"/>
<path class="st3" d="M848.8,385.7c0,0,127,129.2,44.2,319.4l-65.6-76.6c36.3-72.7,42.9-154.6,22.3-241.4"/>
<path class="st4" d="M1022.1,40h-82.7c-3.3,0-5.9,2.6-5.9,5.9v725.4c0,3.3,2.6,5.9,5.9,5.9h82.7c3.3,0,5.9-2.6,5.9-5.9V45.9
	C1028,42.6,1025.4,40,1022.1,40z"/>
<path class="st4" d="M442,45.7v82.7c0,3.3,2.6,5.9,5.9,5.9h573.8c3.3,0,5.9-2.6,5.9-5.9V45.7c0-3.3-2.6-5.9-5.9-5.9H447.9
	C444.6,39.8,442,42.4,442,45.7z"/>
<line class="st4" x1="932.8" y1="38.4" x2="1029.3" y2="134.9"/>
<line class="st4" x1="1029.3" y1="38.4" x2="932.8" y2="134.9"/>
<line class="st4" x1="932.8" y1="132.4" x2="1029.3" y2="228.9"/>
<line class="st4" x1="1029.3" y1="132.4" x2="932.8" y2="228.9"/>
<line class="st4" x1="932.8" y1="232.4" x2="1029.3" y2="328.9"/>
<line class="st4" x1="1029.3" y1="232.4" x2="932.8" y2="328.9"/>
<line class="st4" x1="932.8" y1="326.4" x2="1029.3" y2="422.9"/>
<line class="st4" x1="1029.3" y1="326.4" x2="932.8" y2="422.9"/>
<line class="st4" x1="932.8" y1="426.4" x2="1029.3" y2="522.9"/>
<line class="st4" x1="1029.3" y1="426.4" x2="932.8" y2="522.9"/>
<line class="st4" x1="932.8" y1="527.4" x2="1029.3" y2="623.9"/>
<line class="st4" x1="1029.3" y1="527.4" x2="932.8" y2="623.9"/>
<line class="st4" x1="932.8" y1="627.4" x2="1029.3" y2="723.9"/>
<line class="st4" x1="1029.3" y1="627.4" x2="932.8" y2="723.9"/>
<line class="st4" x1="932.8" y1="721.4" x2="989.2" y2="777.9"/>
<line class="st4" x1="1029.3" y1="721.4" x2="973.2" y2="777.5"/>
<line class="st4" x1="933.1" y1="37.9" x2="836.6" y2="134.5"/>
<line class="st4" x1="933.1" y1="134.5" x2="836.6" y2="37.9"/>
<line class="st4" x1="833.1" y1="37.9" x2="736.6" y2="134.5"/>
<line class="st4" x1="833.1" y1="134.5" x2="736.6" y2="37.9"/>
<line class="st4" x1="739.1" y1="37.9" x2="642.6" y2="134.5"/>
<line class="st4" x1="739.1" y1="134.5" x2="642.6" y2="37.9"/>
<line class="st4" x1="639.1" y1="37.9" x2="542.6" y2="134.5"/>
<line class="st4" x1="639.1" y1="134.5" x2="542.6" y2="37.9"/>
<line class="st4" x1="538.1" y1="37.9" x2="441.6" y2="134.5"/>
<line class="st4" x1="538.1" y1="134.5" x2="441.6" y2="37.9"/>
<path class="st5" d="M242.9,611.5c0,0,2,28.4-18.7,38.2l-35.4-5.8c-16.4-15.8-5.5-42.2-5.5-42.2l0-0.3c0-20.3,17.6-51.2,17.6-51.2
	c34.9,28.7,49.2,27.1,49.2,27.1c0.4,13-1,26.9-7.3,33.6L242.9,611.5"/>
<path class="st6" d="M257.1,568l4.2-104.8c-13.2,3.3-17.6,11.3-17.6,11.3l-49.4,63c-5.5,6.3,43.8,44,59.8,39.7l2.8-8.9L257.1,568z"
	/>
<path class="st7" d="M258.8,523.1c0,0-7.8-7.5-9.3-16.6"/>
<path class="st7" d="M255.6,540.2c0,0-4.9,0.2-5.7,8.2"/>
<path class="st5" d="M239.7,604c2.1,1.7,3.5,3.9,4.3,6.4"/>
<path class="st8" d="M340.7,933.7c0,0,30.4-8.2,31.9,16.9c1.5,25-68.7,18.4-68.7,18.4s-12.5-2.6-6.6-24.3
	c5.9-21.7,5.1-21.2,5.1-21.2l34.2,2.6l7.7,14.6"/>
<path class="st8" d="M233,926.8c-2.4-4.1,4.8-21.8,4.8-21.8l33.4,1.7c0,0,9.2,43.6-6.5,42.9s-26.6,0.3-26.6,0.3
	c-24.3-16-8.3-39.8-3.1-37.8"/>
<path class="st5" d="M232.8,726c0,0-18.8,75.1-13.3,91.4l-7.3,50.4c0,0-1.2,30,21.7,38.3s38.7,3.1,38.7,3.1s8.2-4,11.5-16.2
	l7.3-50.4c10-14,13.3-91.4,13.3-91.4l0.3-2.4c2.6-18.8,4.2-37.3,4.9-46.2l0.1-2.1c0,0-44.8-8.2-68-22.6c0,0-22,96.5-8.7,102.2"/>
<path class="st5" d="M280.7,864.7c0,0-35.7,10.8-51.1-20.5"/>
<path class="st5" d="M278.5,779.4c0,0-3.5,14-31.1,10.7"/>
<path class="st5" d="M377.3,732.6c0,0,10.1,85.8,0,102.9v56.8c0,0-4.1,33.2-34.9,38.8c-30.8,5.5-50.2-2.8-50.2-2.8
	s-9.7-5.8-11.7-19.7v-56.8c-10.1-17.1,0-102.9,0-102.9l0-2.7c0.1-21.1,1.6-41.8,2.4-51.7l0.2-2.4c0,0,59-1.9,91.3-14
	c0,0,10.2,109.9-7.9,114.1"/>
<path class="st5" d="M287.5,888.7c0,0,43.8,18.4,69.3-15"/>
<path class="st9" d="M338.3,547.1c0,0-35.7,6.7-77,0.1"/>
<path class="st10" d="M288.9,693.8c0.7-0.8,1-4.4,1-9"/>
<path class="st6" d="M346.6,472.9c0,1.1,40.6,41,32.3,69.2c-8.3,28.1-1.3,152.4-1.3,152.4s-139.8,2.7-142.8-5.6
	c-3-8.3,7.8-53.7,7.8-53.7s4.2-90.1-1.2-108.7c-5.4-18.6,10.4-66.5,26.2-71C283.4,451.1,346.6,472.9,346.6,472.9z"/>
<path class="st11" d="M379.6,527.2c-0.5,0.7-1.9,2.3-5.1,3.7c0,0-3.6,2.6-3.9,3.7c-0.3,1.1-0.6,0.7-0.6,0.7s-0.6-2.5,0.5-4.1
	s-0.7-0.7-0.7-0.7l-3.2,6.4c0,0-1.5,2-1.5-0.7c-0.1-2.7,0.5-7.4,0.5-7.4s-0.8-4.4-1.9-0.2c-1.1,4.2-0.7,10.4-0.7,10.4
	s-0.1,5-1.8,1.4c0,0-2.1-7.1-4.1-7.3c-2-0.2-1.7,1.7-1.7,1.7l3.8,5.6c0,0,1.6,4.4-1.9,1.4c0,0-2.9-4.4-8.8-5.8c-5.9-1.4-3,3-3,3
	s6.7,0.3,8.3,3.6c0,0,3.2,2.7,0.1,3.2c0,0-2.3-0.4-3.1-0.7s-10.3,0.4-10.3,0.4s-4.8,3.1-7.8,0.7s-4.6-7.2-4.6-7.2s-1.9-7.6,3.6-11.7
	s4.8-6.5,4.8-6.5s0.4-4.9,9.5-3.7c9.1,1.2,12.4,13.2,12.4,13.2s1.3,4.7,1.9,0c0.6-4.7-1-7.8-1-7.8s-4.3-2.7-3.5-8.2
	c0.8-5.5,0.6-8.5,4.1-9.8c0,0,6.4-0.1,9.2-0.8c0.3-0.1,0.7-0.1,1-0.1"/>
<path class="st11" d="M353.1,551.7c0,0-3.8,0.3,0.4,3h1.8c0,0,5.5,0,2.5,2.5c-3,2.5-7.5,4.6-7.5,4.6s-7.1,4.1-1.6,4.7
	c5.5,0.5,8.8-5.9,8.8-5.9s3.9-5,1.4,2.3c-2.4,7.3-3.2,7.9-1.9,9s4-6,4-6s-0.2-6.9,1.9-6.6c2.2,0.4,0.7,8.5,0.7,8.5l-0.1,9.2
	c0,0-1.1,9.9-7.5,12.1c-6.4,2.2-6.7,1.1-9.9-2.7c0,0-8.6,4-13.1-7.6s-1.5-17.8-1.5-17.8s1.4-2.8,2.8-2.8c0,0,0,0,0.1,0l-0.1-0.4
	c0,0-1.1-6.9,4.9-9c6-2,9.1-1.4,9.1-1.4s9.9,0.7,11,2.9s-5.8,1.2-5.8,1.2H353.1z"/>
<path class="st12" d="M379.6,530c-14.7,8.7-16.8,20.5-16.8,20.5s-0.2,6.3,3.8,1.3c0,0,2.6-11.3,13-19.1"/>
<path class="st12" d="M378.6,543.1c-1.2,0.3-2.1,0.7-2.1,0.7c-7.7,5.2,0-3.6,0-3.6s1.2-1.3,3-2.7"/>
<path class="st12" d="M377.3,550.1c-2.8,0.1-0.9-1.7,0.5-2.7"/>
<path class="st12" d="M376.3,559c-0.6-0.2-1.3-0.4-1.9-0.5c-4.9-0.9-0.5-3.1,2.3-4.3"/>
<path class="st12" d="M375.7,566.3c-0.6-1.1-1.3-2.1-1.3-2.1c-1.3-2.8,0-2.2,1.5-1.2"/>
<path class="st12" d="M374.9,593.2c-4.2,0.5-11.9-0.4-8.6-14.3l-0.1-0.4c0,0-1.3-9.7,0-16.2c1.3-6.5,2.3-0.1,2.3-0.1l0.9,7.5
	c2.1,4.4,2.4,0.5,2.4,0.5s-1.8-11.9,0-6.8s3.3,5.5,3.3,5.5c0.2,0.1,0.3,0.1,0.4,0.2"/>
<path class="st13" d="M340,625.9c0,0-2.1,4.5-1.9-0.3s2.2-7.5,2.2-7.5s4.7-2,4.8-7.5c0.1-5.5,0.8-8.5-2.4-10.3c0,0-6.3-1.1-8.9-2.3
	c-2.7-1.1-5.8,0.4-5.8,0.4s-3.9,2.7-5.6,6.1c-1.6,3.4-1.3,4.3-1.3,4.3s-4.5,4.6-1.7,9.9c0,0,0.6,2.4,4.6,4.9c0,0,3.1,3.2,3.3,4.3
	c0.2,1.1,0.5,0.8,0.5,0.8s1-2.4,0.2-4.1c-0.8-1.7,0.8-0.6,0.8-0.6l2.1,6.9c0,0,1.1,2.2,1.6-0.4s0.7-7.3,0.7-7.3s1.5-4.2,1.9,0.1
	c0.4,4.3-1,10.4-1,10.4s-0.7,4.9,1.6,1.6c0,0,3.2-6.6,5.3-6.5c2,0.1,1.4,2,1.4,2l-4.6,5c0,0-2.3,4,1.6,1.7c0,0,3.6-3.9,9.6-4.3
	c6-0.4,2.5,3.5,2.5,3.5s-6.6-0.8-8.8,2.2c0,0-3.6,2.1-0.6,3.1c0,0,2.3,0,3.2-0.2c0.9-0.2,10.1,2.1,10.1,2.1s4.2,3.8,7.6,1.9
	c3.4-1.9,5.7-6.3,5.7-6.3s3.1-7.2-1.7-12.1c-4.7-4.9-3.7-7.2-3.7-7.2s0.4-4.9-8.8-5.2C345.2,614.6,340,625.9,340,625.9z"/>
<path class="st13" d="M356.7,657.6c0,0,2.8-6.4-2.9-9.4c-5.6-3-8.8-2.9-8.8-2.9s-9.9-0.9-11.3,1.1s5.6,2.2,5.6,2.2l0.3,0
	c0,0,3.7,0.9-0.9,2.9l-1.7-0.3c0,0-5.4-0.8-2.8,2.1s6.7,5.8,6.7,5.8s6.4,5.2,0.9,4.9c-5.5-0.4-7.7-7.2-7.7-7.2s-3-5.6-1.8,2
	c1.2,7.6,1.9,8.3,0.4,9.2c-1.4,0.9-3-6.6-3-6.6s1.4-6.8-0.8-6.8c-2.2,0-2.1,8.3-2.1,8.3l-1.4,9.1c0,0-0.5,10,5.5,13.2
	c6,3.2,6.5,2.2,10.2-1.1c0,0,7.9,5.3,14.1-5.4c6.2-10.7,4.3-17.3,4.3-17.3s-1-3-2.3-3.2c0,0,0,0-0.1,0L356.7,657.6z"/>
<path class="st13" d="M334.2,468.8c3.4,8.5,1.5,12.2,1.5,12.2s-3.4,7-10.9,0.7l-0.3-0.2c0,0-13.6-0.2-1.6,2.5
	c12,2.8,6.8,15.8,6.8,15.8s7.9,16.6-9.9,17.2l-0.3,0.1c0,0-14,8.1-13.8-11.2l-0.1-0.4c0,0-3.3-9.2-3.5-15.8
	c-0.2-6.6,2.2-0.6,2.2-0.6l2.5,7.1c3,3.9,2.4,0,2.4,0s-4.3-11.2-1.5-6.7c2.8,4.5,4.4,4.7,4.4,4.7c4,1-1.6-4.4-1.6-4.4
	c-3.4-4.3,3.7-0.3,3.7-0.3c6.6,5.9,5.2-0.9,5.2-0.9s-3.3-4.7-10.1-4.5c-6.8,0.2,3.1-5.8,3.1-5.8c7.9-1.2,6.6-2,6.6-2
	s0.4-4.7-6.7-1.7c-7.1,3-1.2-3-1.2-3s5.6-0.4,5.7-4c0-3.7-8.5,1.8-8.5,1.8c-6.4,6.7-0.8-3.5-0.8-3.5s1.1-1.9,2.8-3.8"/>
<path class="st13" d="M310.8,616.7c21,13.3,20.3,30,20.3,30s-1.2,6.2-4,0.4c0,0-0.1-19.6-18.6-29.5c0,0,1.6,7.9-3.7,6.7
	c0,0-3,0.7-0.9-5.9c0,0-4.5,7-6.9,2.4c-2.4-4.6,5.1-7.1,5.1-7.1s-6.5-2-4.4-5.9c2.1-3.9,6.3-0.6,6.3-0.6l1.7,2.5
	c0,0,0.9-8.6,4.8-4.1c3.9,4.5-0.8,5.6-0.8,5.6s4-2,4.5,1.4s-3,3.9-3,3.9L310.8,616.7z"/>
<path class="st13" d="M309.1,685.1c0,0,14.8,6.7,12.6-12.5l0.1-0.4c0,0,2.4-9.5,1.9-16.1c-0.5-6.6-2.3-0.4-2.3-0.4l-1.7,7.3
	c-2.6,4.2-2.4,0.2-2.4,0.2s3.1-11.6,0.8-6.8s-4,5.1-4,5.1c-3.9,1.4,1.2-4.5,1.2-4.5c2.9-4.6-3.7,0.1-3.7,0.1
	c-5.9,6.5-5.2-0.3-5.2-0.3s2.8-5,9.6-5.5s-3.7-5.5-3.7-5.5c-8-0.4-6.7-1.3-6.7-1.3s-0.9-4.6,6.5-2.4c7.4,2.2,0.9-3.1,0.9-3.1
	s-5.6,0.2-6-3.5c-0.4-3.6,8.6,0.9,8.6,0.9c7,6,0.4-3.6,0.4-3.6s-6.7-9.1-12.1-6.3s-6.7,2.4-6.7,2.4s-5,0.1-7.6,9.2
	s-0.4,12.6-0.4,12.6s4.1,6.6,11-0.4l0.3-0.3c0,0,13.5-1.6,1.8,2.4s-5.1,16.4-5.1,16.4s-6.2,17.3,11.6,16.1L309.1,685.1z"/>
<path class="st13" d="M291.6,457.3c0.1,0,0,0.2,0,0.4c-0.1,4.3,1.7,10.3,1.7,10.3s1,4.9-1.5,1.7c0,0-3.7-6.4-5.7-6.1
	s-1.3,2.1-1.3,2.1l4.9,4.6c0,0,2.6,3.9-1.5,1.8c0,0-3.8-3.6-9.9-3.7s-2.2,3.6-2.2,3.6s6.6-1.3,8.9,1.6c0,0,3.7,1.9,0.8,3.1
	c0,0-2.3,0.2-3.2,0c-0.9-0.2-9.9,2.7-9.9,2.7s-4,4.1-7.5,2.4c-3.5-1.7-6.1-6-6.1-6s-3.5-7,0.9-12.2c2.4-2.8,3.1-4.8,3.3-6
	C263.3,457.8,268.3,452.6,291.6,457.3z"/>
<path class="st13" d="M297.8,458.9l-1.5,6.2c0,0-1,2.3-1.6-0.3c-0.5-2.1-1-5.4-1.1-6.7"/>
<path class="st13" d="M286.6,482.5c0,0-3.6,1.2,1.1,2.9l1.7-0.4c0,0,5.3-1.2,3,1.9c-2.4,3.1-6.3,6.2-6.3,6.2s-6,5.6-0.5,4.9
	c5.5-0.7,7.2-7.7,7.2-7.7s2.6-5.8,1.9,1.9c-0.7,7.6-1.3,8.4,0.2,9.2s2.6-6.8,2.6-6.8s-1.8-6.7,0.4-6.8c2.2-0.1,2.6,8.1,2.6,8.1l2,9
	c0,0,1.2,9.9-4.6,13.5s-6.3,2.6-10.3-0.4c0,0-7.5,5.8-14.5-4.5c-6.9-10.3-5.4-17-5.4-17s0.8-3,2.1-3.3c0,0,0,0,0.1,0l-0.2-0.4
	c0,0-2.7-6.5,2.7-9.9s8.6-3.4,8.6-3.4s9.8-1.6,11.3,0.4c1.5,2-5.4,2.5-5.4,2.5L286.6,482.5z"/>
<path class="st13" d="M303.3,459.9c-8,10.1-7.6,19.2-7.6,19.2s1.3,6.1,4,0.4c0,0,0-9.6,6.3-18.8"/>
<path class="st14" d="M301.2,459.5c3,0.7,6.1,1.5,9.1,2.3"/>
<path class="st14" d="M293.5,457.7c2.5,0.5,5.1,1.1,7.7,1.7"/>
<path class="st11" d="M244.2,559.2c1.3,1.1,2.4,2.1,2.4,2.1s4,1.9,1.3-1.4c-1-1.2-2.4-2.4-3.7-3.5"/>
<path class="st13" d="M243.3,538c1.7-2.5,4.4-6.9,4.4-6.9s0.3-5.7,4.1-6.7c3.8-1,8.5,0.5,8.5,0.5s7.2,3,7.3,9.8s2.4,7.7,2.4,7.7
	s3.7,3.3-2.6,9.9c-6.3,6.6-18,2.2-18,2.2s-4.6-1.7-1.1,1.6s6.8,3.8,6.8,3.8s4.8-1.9,8.7,2c3.9,3.9,6.5,5.5,5.5,9
	c0,0-3.7,5.2-4.8,7.9c-1.1,2.7-4.5,3.8-4.5,3.8s-4.7,0.8-8.3-0.4c-3.5-1.3-4-2.2-4-2.2s-1.7,0-3.7-0.9"/>
<path class="st15" d="M243.5,546.5c1.9-0.4,4.7-1.3,7.2-3.4c4.6-3.9-0.7-4.2-0.7-4.2s-3.1,4-6.4,4.6"/>
<path class="st15" d="M244,552.1c1.7,0.3,3.4,0.4,4-0.2c1.4-1.5-0.4-2.4-0.4-2.4l-3.7-0.2"/>
<path class="st13" d="M240.4,514.6c0.1,0.1,0.1,0.2,0.1,0.2s1.4,2.8,0.6,3.9c0,0,0,0,0,0.1l0.4,0.2c0,0,6.3,3.2,4.4,9.3
	c-1,3.3-2.2,5.5-3.1,6.8"/>
<path class="st13" d="M235.7,671.7c0.3,0.1,0.9-0.2,1.9-1c0,0,2.9-4.4,8.8-5.8c5.9-1.4,3,3,3,3s-6.7,0.3-8.3,3.6
	c0,0-3.2,2.7-0.1,3.2c0,0,2.3-0.4,3.1-0.7c0.8-0.4,10.3,0.4,10.3,0.4s4.8,3.1,7.8,0.7s4.6-7.2,4.6-7.2s1.9-7.6-3.6-11.7
	c-5.5-4.1-4.8-6.5-4.8-6.5s-0.4-4.9-9.5-3.7c-5.1,0.7-8.4,4.8-10.3,8.2"/>
<path class="st15" d="M237.3,662.1c0.2-0.1,0.3-0.2,0.5-0.2c2-0.2,1.7,1.7,1.7,1.7l-3.4,5"/>
<polyline class="st5" points="336.5,460.2 285.8,440.4 285.8,434.1 336.5,437.3 336.5,439.6 336.5,460.2 "/>
<path class="st16" d="M376.3,577.5l10.2-1.7c1.7-0.3,2.8-1.9,2.6-3.6l-4-23.9c-0.3-1.7-1.9-2.8-3.6-2.6l-10.2,1.7
	c-1.7,0.3-2.8,1.9-2.6,3.6l4,23.9C373,576.6,374.6,577.8,376.3,577.5z"/>
<path class="st16" d="M380.7,545.3l-0.8-4.7c-0.2-1.1-1.1-1.9-2.1-1.8l-5.2,0.9c-0.9,0.2-1.6,1.2-1.4,2.4l0.8,4.7"/>
<path class="st17" d="M396.5,570.5c1.2-0.2,1.4-5,0.5-10.6c-0.9-5.7-2.7-10.1-3.9-9.9"/>
<polyline class="st16" points="396.6,570.5 389,571.8 385.6,551.2 393.1,549.9 "/>
<path class="st18" d="M381.5,559.7c0,0,0.5-73.5-76.5-104.9"/>
<path class="st13" d="M264.1,693.5c-0.3-2.4-0.9-3.7-0.9-3.7s-1.4-2.8-2.8-2.8c0,0,0,0-0.1,0l0.1-0.4c0,0,1.1-6.9-4.9-9
	c-6-2-9.1-1.4-9.1-1.4s-9.9,0.7-11,2.9c-1.1,2.3,5.8,1.2,5.8,1.2h0.3c0,0,3.8,0.3-0.4,3h-1.8c0,0-5.5,0-2.5,2.5
	c3,2.5,7.5,4.6,7.5,4.6s1.1,0.7,2.1,1.5"/>
<path class="st15" d="M244.2,559.2c1.3,1.1,2.4,2.1,2.4,2.1s4,1.9,1.3-1.4c-1-1.2-2.4-2.4-3.7-3.5"/>
<path class="st14" d="M310.3,461.8c18.9,5.1,36.3,11.1,36.3,11.1c0,1.1,40.6,41,32.3,69.2c-8.3,28.1-1.3,152.4-1.3,152.4
	s-139.8,2.7-142.8-5.6c-3-8.3,7.8-53.7,7.8-53.7s4.2-90.1-1.2-108.7c-5.4-18.6,10.4-66.5,26.2-71c5-1.4,14.8-0.2,25.9,2.2"/>
<path class="st19" d="M367.4,676.4c-35.1,5.5-89.4,9.4-133-7.8l0.5,14.7c9.4,6.4,42.1,10.8,42.1,10.8c28.6,7.4,83.8,0.4,83.8,0.4
	s2.4-0.3,6.1-0.9"/>
<path class="st20" d="M386.1,706.6c-0.2,1.5-1.5,2.6-3,2.6h-4.4l-0.7,0c-6,0-11.7-4.9-11.7-10.8v-21.2c0-0.9,0.7-1.6,1.6-1.6h14.9
	c1.4,0,2.7,1,2.9,2.5C386.6,682.6,387.9,693.1,386.1,706.6z"/>
<path class="st20" d="M386.1,678.3l1.9,0c0.1,0,0.1,0,0.2,0c3.9,0,7.1,7.6,7.1,16.9c0,9.1-3.1,16.7-7,16.9h-2.5
	c-3.8-0.2-7-7.8-7-16.9C378.9,685.9,382.1,678.3,386.1,678.3c0.1,0,0.1,0,0.2,0"/>
<line class="st21" x1="388.1" y1="688.4" x2="384.8" y2="688.4"/>
<path class="st22" d="M387.2,688h0.4c0.8,0,1.5,0.7,1.5,1.5v6.9c0,0.8-0.7,1.5-1.5,1.5h-0.4c-0.8,0-1.5-0.7-1.5-1.5v-6.9
	C385.7,688.7,386.4,688,387.2,688z"/>
<path class="st8" d="M357.9,694c0-4.5-0.2-9.9-0.4-14.1c-0.4-8.5,5.2-12.2,5.2-12.2l20.3,0.2c0,0,12.7,7.4,12.7,26.3
	c0,18.9-16.2,24.5-16.2,24.5l-0.3,0.1c-6.4,6.9-14.7,0.9-14.7,0.9s-1.4-0.9-1.6-2.2l-0.4,0c-4.3,0-8.4-1-11.1-6.2l-0.1-0.2
	c-2.1-1-3.8-3.1-4.2-7c-1-11.9,10.1-10.2,10.1-10.2L357.9,694z"/>
<path class="st8" d="M351.4,711.2c4.3,2,10.2-0.3,10.2-0.3s6.9-3.2,10-20.9"/>
<path class="st8" d="M362.6,717.6c5.5,0,10.7-2.7,11.3-3.5c0,0,5.6-4.6,8.7-18.8"/>
<path class="st8" d="M391.2,695.4c0,0-4.4,13.9-10.9,22.5c-0.3,0.4-0.6,0.7-0.9,1.1"/>
<path class="st6" d="M270.6,455.6c-1.8,0.6,1.9-4.3,1.9-4.3s-0.3-5.6,2.1-11.7c2.4-6.2,24,1.4,24,1.4s57.6,23.7,51.2,29.1l-7.2,9
	c0,0-0.5,1.7-5.4-2.4C332.3,472.4,288.2,449.7,270.6,455.6z"/>
<path class="st5" d="M306.4,791c0,0,1.8,16.7,37.8,17.5"/>
<path class="st5" d="M317.5,562.2c0.7,22.7,3.4,47.1,11.2,59.7l-0.1,0.9l-0.1,0.6c0,0-2.4,33.2,20.9,45.1l40.2-6.1
	c18.7-18.2,6.5-49.3,6.5-49.3l0-0.4c0.2-23.8-19.6-60.3-19.6-60.3"/>
<path class="st5" d="M387.5,669.3l-33.2,5.1c-1.2,0.2-2.2-0.6-2.4-1.8l-0.4-2.4c-0.2-1.2,0.6-2.2,1.8-2.4l33.2-5.1
	c1.2-0.2,2.2,0.6,2.4,1.8l0.4,2.4C389.4,668.1,388.6,669.2,387.5,669.3z"/>
<path class="st6" d="M373,502c0,0-19.8-34.4-55.9-11.7c0,0-21.5,10.9-11.6,45.8l4.6,34.4c0-3.9,55.2-18,75.1-11.6
	C385.2,559,380.2,506.9,373,502z"/>
<path class="st7" d="M524.9,682.8"/>
<polygon class="st23" points="270.2,447.8 361.4,436.6 357.7,407.5 266.5,418.6 "/>
<path class="st24" d="M307.7,429.8"/>
<path class="st25" d="M305.2,369.9"/>
<path class="st25" d="M305.2,369.9"/>
<path class="st26" d="M262.2,393.9l0,0.6c-0.1,1.7-0.1,3.4,0.1,5.1l2.3,19.6l2.9,24.6"/>
<g>
	<path class="st27" d="M212.6,677.2"/>
	<g>
		<path class="st28" d="M212.6,679.7c3.2,0,3.2-5,0-5C209.3,674.7,209.3,679.7,212.6,679.7L212.6,679.7z"/>
	</g>
</g>
<g>
	<g>
		<path class="st29" d="M215.4,671.6c3.2,0,3.2-5,0-5C212.2,666.6,212.2,671.6,215.4,671.6L215.4,671.6z"/>
	</g>
</g>
<path class="st30" d="M219.6,690.1l-27.9,89.1l-8.6-2.7l27.9-89.1l1.4-4.3l1.4-4.5c0.5-1.6-1-3.5-3.3-4.3l-19.8-6.2
	c-2.3-0.7-4.6,0-5.1,1.6l-1.4,4.5l-1.5,4.5l-27.7,88.5l-8.6-2.7l27.7-88.5l0.4-1.5l3.4-10.9c1.1-3.7,5-5.7,8.5-4.6l32.7,10.2
	c3.6,1.1,5.5,5,4.4,8.6l-3.4,10.9L219.6,690.1z"/>
<path class="st31" d="M213.8,678.6c0.5-1.6-1-3.5-3.3-4.3"/>
<path class="st8" d="M223.3,673.1c0-1.3-0.1-2.9-0.4-4.7c-2-14.5-4.3-15.3-4.3-15.3l-27.7-2.2c0,0-14,10.5-8.9,23.4l0.9,1.8
	c1.8,7,5.8,6.7,5.8,6.7s4.9,5.9,7.9,4.7l0-0.2c5,4.4,9.7,4.1,13.7,1.7l3.1-9.4l-0.6-0.4c-4.4-6.3-0.8-10.2,1.1-11.7
	c0.5-0.4,0.9-0.6,0.9-0.6"/>
<path class="st8" d="M206.1,690.9c0.9-0.1,1.5-0.6,1.8-1.2c0.5-0.9,0.1-2-0.7-2.5c-2.2-1.3-7-5-7.9-12.6"/>
<path class="st10" d="M196.7,687.4c1,1.1,2.2,1.9,3.5,2.5c1.6,0.6,2.7,0.8,3.5,0.8"/>
<path class="st8" d="M192,675.9c0,0,1.4,7.7,5.5,12.1"/>
<path class="st8" d="M188.1,675.5c0,0,0.8,6.2,1.5,8"/>
<line class="st32" x1="154.9" y1="767.3" x2="146.3" y2="764.6"/>
<polyline class="st31" points="209.7,691.4 212.3,683.1 213.8,678.6 "/>
<path class="st30" d="M214.8,668l4.3,1.3c3.6,1.1,5.5,5,4.4,8.6"/>
<path class="st5" d="M222.1,656.2l-33.1-5.4c-1.2-0.2-1.9-1.3-1.7-2.4l0.4-2.4c0.2-1.2,1.3-1.9,2.4-1.7l33.1,5.4
	c1.2,0.2,1.9,1.3,1.7,2.4l-0.4,2.4C224.3,655.6,223.3,656.4,222.1,656.2z"/>
<path class="st33" d="M163.6,937.9l-80.8-25C69,908.6,61.2,894,65.5,880.2l37.6-121.8c4.3-13.8,18.9-21.5,32.7-17.3l80.8,25
	c13.8,4.3,21.5,18.9,17.3,32.7l-37.6,121.8C192.1,934.4,177.4,942.2,163.6,937.9z"/>
<path class="st34" d="M157.9,930l-80.8-25c-13.8-4.3-21.5-18.9-17.3-32.7l37.6-121.8c4.3-13.8,18.9-21.5,32.7-17.3l80.8,25
	c13.8,4.3,21.5,18.9,17.3,32.7l-37.6,121.8C186.4,926.5,171.7,934.2,157.9,930z"/>
<circle class="st35" cx="74.8" cy="920.5" r="11.7"/>
<circle class="st36" cx="74.8" cy="920.5" r="3.6"/>
<circle class="st35" cx="168.2" cy="948.5" r="11.7"/>
<circle class="st36" cx="168.2" cy="948.5" r="3.6"/>
<circle class="st35" cx="152.9" cy="943.2" r="11.7"/>
<circle class="st36" cx="152.9" cy="943.2" r="3.6"/>
<circle class="st35" cx="60" cy="909.4" r="11.7"/>
<circle class="st36" cx="60" cy="909.4" r="3.6"/>
<polygon class="st37" points="267.8,447 362.7,434.7 359.6,405.9 264.7,418.2 "/>
<path class="st25" d="M322.2,994.3"/>
<path class="st25" d="M322.2,364.3"/>
<path class="st37" d="M362.3,430.7l-2.4-24.2l0-0.1l-1.9-19.2c-0.1-1.4-0.4-2.8-0.8-4.2l-0.3-1.3c0,0-11.9-38.2-51.3-33l0.2,0
	c-39.4,5.1-43.5,45.3-43.5,45.3l0,0.6c-0.1,1.6-0.2,3.3,0,5l1.9,19.3l2.4,24.2"/>
<path class="st38" d="M333.9,362l-35.9,25.3c0,0-0.3,2,0.4,2.8"/>
<path class="st39" d="M362,418.4c-15.5-2-19.9-6.6-20.3-8.9l-2.9-18.8c-1.4-9,1.8-17.9,8.5-25.1l0.3,0c6.9,8.4,9.6,16.7,9.6,16.7
	l0.3,1.3c0.4,1.4,0.7,2.8,0.9,4.2l2.3,19.5l0,0.1l1.6,13.7"/>
<path class="st37" d="M315.5,447.4c-28,3.2-39.9,2.3-44.9,1.8c-4.1-0.5-3.7-2.9-3.7-2.9l-0.3-3.2c0,0,17.1,2.2,47.8-2.1l0.9-0.1
	c30.8-3.7,47-10.1,47-10.1l0.3,3.2c0,0,0.9,2.3-3,3.8C354.8,439.5,343.4,443.4,315.5,447.4"/>
<path class="st23" d="M362,418.4c-15.5-2-19.9-6.6-20.3-8.9l-2.9-18.8c-1.4-9,1.8-17.9,8.5-25.1c0.5-1.5-1.4-2-1.4-2
	c-7.7,8.1-11.7,18-10.1,28l3.2,20.3c0,0,3.8,7.5,23.4,9.3C362.6,421.5,363.5,418.6,362,418.4z"/>
<path class="st40" d="M332.7,350.4l2.7,4.8c0.5,0.9,0.7,1.7,0.5,2.1l-1.2,2.4c-0.5,1.1,1.3,4,3.2,4.8l4,1.8c0.7,0.3,1.6,1.1,2.2,1.9
	l3.6,4.7c1.7,2.2,3.9,2.9,3.7,1.2l-0.3-3.7c0-0.7,0.3-1,0.9-0.9l3.4,0.5c1.6,0.2,1.1-2.2-0.9-4.1l-4.2-4.1c-0.8-0.8-1.4-1.7-1.7-2.5
	l-1.5-4.4c-0.7-2-3.2-4.2-4.3-3.7l-2.3,1.1c-0.4,0.2-1.2,0-1.9-0.6l-4.3-3.2C332.4,347.2,331.4,348.2,332.7,350.4z"/>
</svg>
