<?xml version="1.0" encoding="utf-8"?>
<!-- Generator: Adobe Illustrator 27.3.1, SVG Export Plug-In . SVG Version: 6.00 Build 0)  -->
<svg version="1.1" id="Layer_1" xmlns="http://www.w3.org/2000/svg" xmlns:xlink="http://www.w3.org/1999/xlink" x="0px" y="0px"
	 viewBox="0 0 864 936" style="enable-background:new 0 0 864 936;" xml:space="preserve">
<style type="text/css">
	.st0{fill:#132628;}
	.st1{fill:#153035;}
	.st2{fill:#1D4149;}
	.st3{fill:#E5E5E4;}
	.st4{fill:#FFF1E7;}
	.st5{fill:#EA8039;stroke:#CD6028;stroke-width:4;stroke-miterlimit:10;}
	.st6{fill:#D74727;stroke:#BA3A26;stroke-width:4;stroke-miterlimit:10;}
	.st7{fill:#FDE6D8;stroke:#C6B6B0;stroke-width:4;stroke-linecap:round;stroke-linejoin:round;stroke-miterlimit:10;}
	.st8{fill:#EFE8CC;stroke:#B5956A;stroke-miterlimit:10;}
	.st9{fill:none;stroke:#3D52A4;stroke-linecap:round;stroke-linejoin:round;stroke-miterlimit:10;}
	.st10{fill:#EFE8CC;stroke:#B5956A;stroke-linecap:round;stroke-linejoin:round;stroke-miterlimit:10;}
	.st11{fill:none;stroke:#B5956A;stroke-linecap:round;stroke-linejoin:round;stroke-miterlimit:10;}
	.st12{fill:none;stroke:#B5956A;stroke-miterlimit:10;}
	.st13{fill:none;stroke:#214144;stroke-width:9;stroke-miterlimit:10;}
	.st14{fill:none;stroke:#A8A694;stroke-miterlimit:10;}
	.st15{fill:none;stroke:#A5391D;stroke-miterlimit:10;}
	.st16{fill:none;stroke:#82C341;stroke-linecap:round;stroke-linejoin:round;stroke-miterlimit:10;}
	.st17{fill:#D23C27;stroke:#A53A23;stroke-miterlimit:10;}
	.st18{fill:#B2D5DD;stroke:#7CAEB4;stroke-width:4;stroke-linecap:round;stroke-miterlimit:10;}
	.st19{fill:none;stroke:#BA3A26;stroke-width:4;stroke-miterlimit:10;}
	.st20{fill:#F9EBE4;stroke:#C6B6B0;stroke-width:4;stroke-linecap:round;stroke-linejoin:round;stroke-miterlimit:10;}
	.st21{fill:none;stroke:#B1AE9B;stroke-miterlimit:10;}
	.st22{fill:none;stroke:#AA5517;stroke-miterlimit:10;}
	.st23{fill:#0D1A1C;stroke:#000000;stroke-width:4;stroke-miterlimit:10;}
	.st24{fill:none;stroke:#A8A594;stroke-miterlimit:10;}
	.st25{fill:#ECDED8;stroke:#CEBAB2;stroke-width:4;stroke-miterlimit:10;}
	.st26{fill:#E9DBD4;stroke:#CEBAB2;stroke-width:4;stroke-miterlimit:10;}
	.st27{fill:#19100A;}
	.st28{fill:#FDE6D8;}
	.st29{fill:#FDE6D8;stroke:#19100A;stroke-width:4;stroke-miterlimit:10;}
	.st30{fill:#0D1A1C;stroke:#74CDE1;stroke-width:6;stroke-miterlimit:10;}
	.st31{fill:none;stroke:#74CDE1;stroke-width:6;stroke-miterlimit:10;}
</style>
<path class="st0" d="M830.2,264.8H37V66.2c0-26.5,21.5-48.1,48.1-48.1h693.1c28.7,0,52,23.3,52,52L830.2,264.8L830.2,264.8z"/>
<rect x="37" y="264.8" class="st1" width="793.1" height="285.9"/>
<rect x="37" y="549.2" class="st2" width="793.1" height="272.5"/>
<g>
	<g>
		<path class="st3" d="M640.7,198.9c3.2,0,3.2-5,0-5C637.5,193.9,637.5,198.9,640.7,198.9L640.7,198.9z"/>
	</g>
</g>
<g>
	<g>
		<path class="st4" d="M703.8,471.6c3.2,0,3.2-5,0-5C700.6,466.6,700.6,471.6,703.8,471.6L703.8,471.6z"/>
	</g>
</g>
<g>
	<g>
		<path class="st4" d="M180,422.6c3.2,0,3.2-5,0-5S176.7,422.6,180,422.6L180,422.6z"/>
	</g>
</g>
<g>
	<g>
		<path class="st3" d="M202.1,211.2c3.2,0,3.2-5,0-5S198.8,211.2,202.1,211.2L202.1,211.2z"/>
	</g>
</g>
<g>
	<g>
		<path class="st4" d="M284.1,428.7c3.2,0,3.2-5,0-5C280.9,423.7,280.9,428.7,284.1,428.7L284.1,428.7z"/>
	</g>
</g>
<g>
	<g>
		<path class="st4" d="M176.8,643.2c3.2,0,3.2-5,0-5S173.6,643.2,176.8,643.2L176.8,643.2z"/>
	</g>
</g>
<g>
	<g>
		<path class="st4" d="M741.7,575.8c3.2,0,3.2-5,0-5S738.5,575.8,741.7,575.8L741.7,575.8z"/>
	</g>
</g>
<g>
	<g>
		<path class="st3" d="M748,336.8c3.2,0,3.2-5,0-5S744.8,336.8,748,336.8L748,336.8z"/>
	</g>
</g>
<g>
	<g>
		<path class="st4" d="M609.2,376.6c3.2,0,3.2-5,0-5S606,376.6,609.2,376.6L609.2,376.6z"/>
	</g>
</g>
<g>
	<g>
		<path class="st3" d="M599.7,220.4c3.2,0,3.2-5,0-5C596.5,215.4,596.5,220.4,599.7,220.4L599.7,220.4z"/>
	</g>
</g>
<g>
	<g>
		<path class="st3" d="M773.3,159.1c3.2,0,3.2-5,0-5C770.1,154.1,770.1,159.1,773.3,159.1L773.3,159.1z"/>
	</g>
</g>
<g>
	<g>
		<path class="st4" d="M486.1,324.5c3.2,0,3.2-5,0-5C482.9,319.5,482.9,324.5,486.1,324.5L486.1,324.5z"/>
	</g>
</g>
<g>
	<g>
		<path class="st3" d="M239.9,330.7c3.2,0,3.2-5,0-5C236.7,325.7,236.7,330.7,239.9,330.7L239.9,330.7z"/>
	</g>
</g>
<g>
	<g>
		<path class="st3" d="M157.9,91.7c3.2,0,3.2-5,0-5C154.7,86.7,154.6,91.7,157.9,91.7L157.9,91.7z"/>
	</g>
</g>
<g>
	<g>
		<path class="st3" d="M135.8,303.1c3.2,0,3.2-5,0-5C132.6,298.1,132.6,303.1,135.8,303.1L135.8,303.1z"/>
	</g>
</g>
<g>
	<g>
		<path class="st4" d="M492.4,612.5c3.2,0,3.2-5,0-5S489.2,612.5,492.4,612.5L492.4,612.5z"/>
	</g>
</g>
<g>
	<g>
		<path class="st4" d="M757.5,634c3.2,0,3.2-5,0-5C754.3,629,754.3,634,757.5,634L757.5,634z"/>
	</g>
</g>
<g>
	<g>
		<path class="st3" d="M675.5,177.5c3.2,0,3.2-5,0-5C672.2,172.5,672.2,177.5,675.5,177.5L675.5,177.5z"/>
	</g>
</g>
<g>
	<g>
		<path class="st4" d="M375.6,153c3.2,0,3.2-5,0-5S372.4,153,375.6,153L375.6,153z"/>
	</g>
</g>
<g>
	<g>
		<path class="st4" d="M492.4,168.3c3.2,0,3.2-5,0-5S489.2,168.3,492.4,168.3L492.4,168.3z"/>
	</g>
</g>
<g>
	<g>
		<path class="st4" d="M325.1,244.9c3.2,0,3.2-5,0-5S321.9,244.9,325.1,244.9L325.1,244.9z"/>
	</g>
</g>
<g>
	<g>
		<path class="st3" d="M222.6,24.3c3.2,0,3.2-5,0-5S219.4,24.3,222.6,24.3L222.6,24.3z"/>
	</g>
</g>
<g>
	<g>
		<path class="st3" d="M56.6,106.7c3.2,0,3.2-5,0-5C53.4,101.7,53.4,106.7,56.6,106.7L56.6,106.7z"/>
	</g>
</g>
<g>
	<g>
		<path class="st4" d="M707,692.2c3.2,0,3.2-5,0-5C703.8,687.2,703.8,692.2,707,692.2L707,692.2z"/>
	</g>
</g>
<g>
	<g>
		<path class="st4" d="M157.9,581.9c3.2,0,3.2-5,0-5C154.7,576.9,154.6,581.9,157.9,581.9L157.9,581.9z"/>
	</g>
</g>
<g>
	<g>
		<path class="st3" d="M82.1,229.6c3.2,0,3.2-5,0-5C78.9,224.6,78.9,229.6,82.1,229.6L82.1,229.6z"/>
	</g>
</g>
<g>
	<g>
		<path class="st3" d="M189.4,324.5c3.2,0,3.2-5,0-5C186.2,319.5,186.2,324.5,189.4,324.5L189.4,324.5z"/>
	</g>
</g>
<g>
	<g>
		<path class="st4" d="M126.3,548.2c3.2,0,3.2-5,0-5C123.1,543.2,123.1,548.2,126.3,548.2L126.3,548.2z"/>
	</g>
</g>
<g>
	<g>
		<path class="st4" d="M274.6,618.7c3.2,0,3.2-5,0-5C271.4,613.7,271.4,618.7,274.6,618.7L274.6,618.7z"/>
	</g>
</g>
<g>
	<g>
		<path class="st4" d="M239.9,477.7c3.2,0,3.2-5,0-5C236.7,472.7,236.7,477.7,239.9,477.7L239.9,477.7z"/>
	</g>
</g>
<g>
	<g>
		<path class="st4" d="M180,511.4c3.2,0,3.2-5,0-5S176.7,511.4,180,511.4L180,511.4z"/>
	</g>
</g>
<g>
	<g>
		<path class="st3" d="M224.1,171.3c3.2,0,3.2-5,0-5S220.9,171.3,224.1,171.3L224.1,171.3z"/>
	</g>
</g>
<g>
	<g>
		<path class="st3" d="M154.7,385.8c3.2,0,3.2-5,0-5S151.5,385.8,154.7,385.8L154.7,385.8z"/>
	</g>
</g>
<g>
	<g>
		<path class="st3" d="M617.1,283.2c3.2,0,3.2-5,0-5C613.8,278.2,613.8,283.2,617.1,283.2L617.1,283.2z"/>
	</g>
</g>
<g>
	<g>
		<path class="st3" d="M724.4,217.3c3.2,0,3.2-5,0-5S721.1,217.3,724.4,217.3L724.4,217.3z"/>
	</g>
</g>
<g>
	<g>
		<path class="st3" d="M557.8,92.5c3.2,0,3.2-5,0-5S554.6,92.5,557.8,92.5L557.8,92.5z"/>
	</g>
</g>
<g>
	<g>
		<path class="st4" d="M380.9,410.8c3.2,0,3.2-5,0-5C377.7,405.8,377.7,410.8,380.9,410.8L380.9,410.8z"/>
	</g>
</g>
<g>
	<g>
		<path class="st4" d="M352.5,300.5c3.2,0,3.2-5,0-5S349.3,300.5,352.5,300.5L352.5,300.5z"/>
	</g>
</g>
<g>
	<g>
		<path class="st4" d="M437.7,254.6c3.2,0,3.2-5,0-5S434.5,254.6,437.7,254.6L437.7,254.6z"/>
	</g>
</g>
<g>
	<g>
		<path class="st4" d="M434.5,397c3.2,0,3.2-5,0-5S431.3,397,434.5,397L434.5,397z"/>
	</g>
</g>
<g>
	<g>
		<path class="st4" d="M532.4,403.2c3.2,0,3.2-5,0-5C529.2,398.2,529.2,403.2,532.4,403.2L532.4,403.2z"/>
	</g>
</g>
<g>
	<g>
		<path class="st4" d="M584.5,484.4c3.2,0,3.2-5,0-5C581.2,479.4,581.2,484.4,584.5,484.4L584.5,484.4z"/>
	</g>
</g>
<g>
	<g>
		<path class="st4" d="M680.7,401.6c3.2,0,3.2-5,0-5C677.5,396.6,677.5,401.6,680.7,401.6L680.7,401.6z"/>
	</g>
</g>
<g>
	<g>
		<path class="st3" d="M756.5,505.8c3.2,0,3.2-5,0-5C753.2,500.8,753.2,505.8,756.5,505.8L756.5,505.8z"/>
	</g>
</g>
<g>
	<g>
		<path class="st3" d="M808.2,515c3.2,0,3.2-5,0-5S805,515,808.2,515L808.2,515z"/>
	</g>
</g>
<g>
	<g>
		<path class="st3" d="M775.4,384.8c3.2,0,3.2-5,0-5C772.2,379.8,772.2,384.8,775.4,384.8L775.4,384.8z"/>
	</g>
</g>
<g>
	<g>
		<path class="st3" d="M800.3,299c3.2,0,3.2-5,0-5C797.1,294,797,299,800.3,299L800.3,299z"/>
	</g>
</g>
<g>
	<g>
		<path class="st3" d="M786.1,188.7c3.2,0,3.2-5,0-5C782.8,183.7,782.8,188.7,786.1,188.7L786.1,188.7z"/>
	</g>
</g>
<g>
	<g>
		<path class="st3" d="M688.6,92.2c3.2,0,3.2-5,0-5S685.4,92.2,688.6,92.2L688.6,92.2z"/>
	</g>
</g>
<g>
	<g>
		<path class="st3" d="M728,52.4c3.2,0,3.2-5,0-5S724.8,52.4,728,52.4L728,52.4z"/>
	</g>
</g>
<g>
	<g>
		<path class="st3" d="M813,134.6c3.2,0,3.2-5,0-5C809.8,129.6,809.8,134.6,813,134.6L813,134.6z"/>
	</g>
</g>
<g>
	<g>
		<path class="st3" d="M783.3,155c3.2,0,3.2-5,0-5C780.1,150,780.1,155,783.3,155L783.3,155z"/>
	</g>
</g>
<g>
	<g>
		<path class="st4" d="M459.8,139.7c3.2,0,3.2-5,0-5C456.6,134.7,456.6,139.7,459.8,139.7L459.8,139.7z"/>
	</g>
</g>
<g>
	<g>
		<path class="st3" d="M560.8,125.9c3.2,0,3.2-5,0-5C557.6,120.9,557.6,125.9,560.8,125.9L560.8,125.9z"/>
	</g>
</g>
<g>
	<g>
		<path class="st4" d="M477.1,113.6c3.2,0,3.2-5,0-5S473.9,113.6,477.1,113.6L477.1,113.6z"/>
	</g>
</g>
<g>
	<g>
		<path class="st3" d="M281.5,87.6c3.2,0,3.2-5,0-5C278.3,82.6,278.3,87.6,281.5,87.6L281.5,87.6z"/>
	</g>
</g>
<g>
	<g>
		<path class="st3" d="M208.9,150.4c3.2,0,3.2-5,0-5S205.7,150.4,208.9,150.4L208.9,150.4z"/>
	</g>
</g>
<g>
	<g>
		<path class="st3" d="M150.5,147.3c3.2,0,3.2-5,0-5S147.3,147.3,150.5,147.3L150.5,147.3z"/>
	</g>
</g>
<g>
	<g>
		<path class="st3" d="M87.4,124.4c3.2,0,3.2-5,0-5S84.2,124.4,87.4,124.4L87.4,124.4z"/>
	</g>
</g>
<g>
	<g>
		<path class="st3" d="M128.4,43.2c3.2,0,3.2-5,0-5S125.2,43.2,128.4,43.2L128.4,43.2z"/>
	</g>
</g>
<g>
	<g>
		<path class="st4" d="M354.1,508.9c3.2,0,3.2-5,0-5S350.9,508.9,354.1,508.9L354.1,508.9z"/>
	</g>
</g>
<g>
	<g>
		<path class="st4" d="M518.2,444.5c3.2,0,3.2-5,0-5S515,444.5,518.2,444.5L518.2,444.5z"/>
	</g>
</g>
<g>
	<g>
		<path class="st4" d="M469.3,594.7c3.2,0,3.2-5,0-5S466,594.7,469.3,594.7L469.3,594.7z"/>
	</g>
</g>
<g>
	<g>
		<path class="st4" d="M328.8,527.2c3.2,0,3.2-5,0-5S325.6,527.2,328.8,527.2L328.8,527.2z"/>
	</g>
</g>
<g>
	<g>
		<path class="st4" d="M504,510.4c3.2,0,3.2-5,0-5S500.8,510.4,504,510.4L504,510.4z"/>
	</g>
</g>
<g>
	<g>
		<path class="st4" d="M455.1,564c3.2,0,3.2-5,0-5S451.8,564,455.1,564L455.1,564z"/>
	</g>
</g>
<g>
	<g>
		<path class="st4" d="M346.2,574.7c3.2,0,3.2-5,0-5S343,574.7,346.2,574.7L346.2,574.7z"/>
	</g>
</g>
<g>
	<g>
		<path class="st4" d="M268.9,551.8c3.2,0,3.2-5,0-5C265.6,546.8,265.6,551.8,268.9,551.8L268.9,551.8z"/>
	</g>
</g>
<g>
	<g>
		<path class="st4" d="M302,663.6c3.2,0,3.2-5,0-5S298.8,663.6,302,663.6L302,663.6z"/>
	</g>
</g>
<g>
	<g>
		<path class="st4" d="M537.1,622.2c3.2,0,3.2-5,0-5C533.9,617.2,533.9,622.2,537.1,622.2L537.1,622.2z"/>
	</g>
</g>
<g>
	<g>
		<path class="st4" d="M560.8,573.2c3.2,0,3.2-5,0-5C557.6,568.2,557.6,573.2,560.8,573.2L560.8,573.2z"/>
	</g>
</g>
<g>
	<g>
		<path class="st4" d="M598.7,542.6c3.2,0,3.2-5,0-5S595.4,542.6,598.7,542.6L598.7,542.6z"/>
	</g>
</g>
<g>
	<g>
		<path class="st4" d="M666.5,580.9c3.2,0,3.2-5,0-5C663.3,575.9,663.3,580.9,666.5,580.9L666.5,580.9z"/>
	</g>
</g>
<g>
	<g>
		<path class="st4" d="M631.8,675.8c3.2,0,3.2-5,0-5C628.6,670.8,628.6,675.8,631.8,675.8L631.8,675.8z"/>
	</g>
</g>
<g>
	<g>
		<path class="st4" d="M467.7,660.5c3.2,0,3.2-5,0-5C464.5,655.5,464.5,660.5,467.7,660.5L467.7,660.5z"/>
	</g>
</g>
<g>
	<g>
		<path class="st4" d="M587.6,668.2c3.2,0,3.2-5,0-5S584.4,668.2,587.6,668.2L587.6,668.2z"/>
	</g>
</g>
<g>
	<g>
		<path class="st4" d="M409.3,674.3c3.2,0,3.2-5,0-5S406.1,674.3,409.3,674.3L409.3,674.3z"/>
	</g>
</g>
<g>
	<g>
		<path class="st4" d="M404.6,614.6c3.2,0,3.2-5,0-5C401.4,609.6,401.3,614.6,404.6,614.6L404.6,614.6z"/>
	</g>
</g>
<g>
	<g>
		<path class="st4" d="M186.8,686.6c3.2,0,3.2-5,0-5C183.6,681.6,183.6,686.6,186.8,686.6L186.8,686.6z"/>
	</g>
</g>
<g>
	<g>
		<path class="st4" d="M286.2,709.5c3.2,0,3.2-5,0-5S283,709.5,286.2,709.5L286.2,709.5z"/>
	</g>
</g>
<g>
	<g>
		<path class="st4" d="M89,666.7c3.2,0,3.2-5,0-5S85.8,666.7,89,666.7L89,666.7z"/>
	</g>
</g>
<g>
	<g>
		<path class="st3" d="M63.7,502.7c3.2,0,3.2-5,0-5S60.5,502.7,63.7,502.7L63.7,502.7z"/>
	</g>
</g>
<g>
	<g>
		<path class="st4" d="M163.1,593.1c3.2,0,3.2-5,0-5C159.9,588.1,159.9,593.1,163.1,593.1L163.1,593.1z"/>
	</g>
</g>
<g>
	<g>
		<path class="st3" d="M81.1,367.9c3.2,0,3.2-5,0-5S77.9,367.9,81.1,367.9L81.1,367.9z"/>
	</g>
</g>
<g>
	<g>
		<path class="st3" d="M248.4,367.9c3.2,0,3.2-5,0-5S245.1,367.9,248.4,367.9L248.4,367.9z"/>
	</g>
</g>
<g>
	<g>
		<path class="st4" d="M368.3,377.1c3.2,0,3.2-5,0-5S365,377.1,368.3,377.1L368.3,377.1z"/>
	</g>
</g>
<path class="st5" d="M626.7,654c0,0-73.5,7-89.8,63.9l29.7,88c47.4,35.3,110.1-3.7,110.1-3.7l0.8-0.1
	c134.3,7.3,141.8-180.7,90.3-190.5c-88.2-77-56.9,9.6-56.9,9.6c-33.3,4.6-68.2,13.9-82.9,32.9L626.7,654"/>
<path class="st5" d="M677.5,802c-16.8,2.8-31.5,0.3-41.2-11"/>
<path class="st6" d="M180.8,388.2c3-1.2,6.1-2.3,9.5-3.3l122.8-30.7l17.7-4.1l0,1.6c0,4.5,0.5,10.7,2.6,16.5l16.1,59.6l0.1,0.4
	c0.8,2.6,3.2,4.4,6,4.4l3-0.7l60.2-30.7l4.9,4l4.9-4l60.2,30.7l0.2,0.1c0.9,0.5,1.8,0.6,2.8,0.6c2.7,0,5.1-1.7,6-4.3l0-0.1
	l16.1-59.6c2-5.3,2.5-11,2.6-15.3c0,0-0.6-1.8,2.6-1.8l11.9,2.7l122.8,30.7c4.8,1.5,9.3,3.1,13.3,4.9l-0.1,0.6v39.1
	c0,0-23.3,59.4-20.9,91.5c2.3,32.1-12,138.8-12,138.8l-0.7,0.2l1.4,125c-2-1.2-4.3-2-6.8-2.3c-25.3-3.2-50.7-6.5-76.2-7.3
	c-27.1-0.8-54.4-0.3-81.5-0.6c-54.4-0.6-108.8-1.7-163.2-2.1c-30.3-0.2-60.6-0.3-90.9,0.1c-2.7,0-5,0.8-6.8,2l1.3-114.8"/>
<path class="st7" d="M368,567.2c0,0,3.4,12.3,5,0c1.6-12.3-2.5-20.2-2.5-20.2s-11.2-7.1-9.1-21.3c2.2-14.2,1.6-22.1,10.5-25.4
	c0,0,16.5-0.3,23.8-2.1s14.8,3.5,14.8,3.5s8.9,8.6,11.7,18c2.7,9.4,1.5,11.6,1.5,11.6s9.7,13.7,0.3,26c0,0-2.6,5.9-13.9,10.6
	c0,0-9.2,6.8-10.1,9.5s-1.7,1.9-1.7,1.9s-1.6-6.4,1.2-10.5c2.8-4.1-1.8-1.8-1.8-1.8l-8.3,16.7c0,0-3.8,5.2-3.9-1.8
	s1.3-19.1,1.3-19.1s-2.1-11.4-4.9-0.6s-1.7,27-1.7,27s-0.2,12.9-4.7,3.5c0,0-5.5-18.3-10.7-18.8c-5.2-0.5-4.4,4.5-4.4,4.5l9.7,14.6
	c0,0,4.2,11.3-4.9,3.7c0,0-7.5-11.4-22.8-15s-7.8,7.9-7.8,7.9s17.3,0.7,21.6,9.3c0,0,8.4,6.9,0.2,8.3c0,0-6-1-8.1-1.9
	c-2.2-1-26.7,1-26.7,1s-12.4,8-20.3,1.7c-7.9-6.3-11.8-18.6-11.8-18.6s-4.9-19.7,9.3-30.3c14.2-10.6,12.4-16.8,12.4-16.8
	s1.1-12.8,24.7-9.7S368,567.2,368,567.2z"/>
<path class="st8" d="M354.8,622.2c0,0-9.9,0.8,1,7.9h4.5c0,0,14.1,0.1,6.4,6.6s-19.4,12-19.4,12s-18.4,10.8-4.3,12.1
	c14.2,1.4,22.8-15.2,22.8-15.2s10-13,3.7,5.8c-6.3,18.8-8.2,20.4-5,23.4c3.3,3,10.4-15.7,10.4-15.7s-0.6-17.9,5-17
	c5.6,0.9,1.9,22.1,1.9,22.1l-0.3,23.8c0,0-2.9,25.7-19.5,31.3c-16.6,5.6-17.5,2.8-25.7-7.1c0,0-22.4,10.3-33.9-19.7
	c-11.5-30-3.8-46.1-3.8-46.1s3.7-7.2,7.1-7.2c0.1,0,0.1,0,0.2,0l-0.2-1.1c0,0-2.9-18,12.7-23.3c15.6-5.3,23.7-3.7,23.7-3.7
	s25.6,1.7,28.4,7.6c2.8,5.8-15.1,3.2-15.1,3.2L354.8,622.2L354.8,622.2z"/>
<path class="st7" d="M448.2,554.3c-60.7,21.7-68.2,64.6-68.2,64.6s-0.4,16.2,9.8,3.3c0,0,11.4-49.4,63.6-64.2c0,0-8.5,19.2,5.7,19.2
	c0,0,7.2,3.4,5.5-14.5c0,0,7.5,20.3,16.2,9.9c8.6-10.4-8.8-20.8-8.8-20.8s17.6-1.4,14.5-12.5c-3.1-11.1-15.5-5.1-15.5-5.1l-5.7,5.2
	c0,0,2.7-22.3-9.8-13c-12.5,9.2-1.1,14.6-1.1,14.6s-9.1-7.4-12.2,1c-3.1,8.4,5.4,11.6,5.4,11.6L448.2,554.3z"/>
<path class="st7" d="M417.6,728.5c0,0-40,12.8-28.7-35.9l-0.1-1c0,0-3.3-25.1,0-42s6-0.3,6-0.3l2.3,19.4c5.5,11.5,6.1,1.3,6.1,1.3
	s-4.5-30.8,0-17.7c4.5,13,8.6,14.3,8.6,14.3c9.6,4.8-1.7-12.1-1.7-12.1c-6.1-12.8,9.5,1.4,9.5,1.4c13.3,18.6,13.5,0.7,13.5,0.7
	s-5.7-13.8-23.2-17s11.1-13,11.1-13c20.7,1.4,17.7-1.3,17.7-1.3s3.7-11.6-16-8.1c-19.7,3.5-1.4-8.4-1.4-8.4s14.5,2.1,16.6-7.1
	c2.1-9.2-22.4-0.3-22.4-0.3c-19.9,13.5,0-9.4,0-9.4s19.9-21.6,32.9-12.6c13,8.9,16.6,8.2,16.6,8.2s12.8,1.8,16.9,25.9
	c4.1,24.1-2.8,32.6-2.8,32.6s-12.5,15.9-28.1-4.3l-0.6-0.8c0,0-34.2-8.1-5.5,5.5c28.7,13.6,8.3,43.8,8.3,43.8s10.8,46.4-34.8,38
	L417.6,728.5L417.6,728.5z"/>
<path class="st7" d="M663.4,399.6c0,0-19.1,15.4-21.5,15.9s-7.8,3-7.8,3c-6,5.7,4.8,6.7,4.8,6.7c8.4,4.7,23.1-4.5,23.1-4.5
	S665.5,422.9,663.4,399.6z"/>
<path class="st7" d="M591.1,369.5c-0.7,5,1.3,17.3,1.3,17.3s10.6,14.4,5.5,16.8s-14-17.2-14-17.2l-13.2-19.9c0,0-0.5-0.9-1.1-2.4
	L591.1,369.5z"/>
<path class="st7" d="M610.4,374.4c-4.3,8-3.1,18-3.1,18s-1,16.4-6.3-2.8c-3-10.6-3.2-15.8-4.3-18.7L610.4,374.4z"/>
<path class="st7" d="M664.8,389.1c0.6,0.3-0.7,1.2-1.2,1.7c-9.9,13.2-17.5,16.4-17.5,16.4s-22.2,13-27.8,9.7s10.7-11.2,10.7-11.2
	l0.6-0.4c0,0,7.7-6.2-5.3-5.9l-3.8,2.6c0,0-11.8,7.9-9-1.9c2.8-9.7,9.3-20.8,9.3-20.8s0.4-0.9,1-2.2
	C621.9,377.2,653.3,384.2,664.8,389.1z"/>
<path class="st7" d="M559.8,361.7c0.7,1.5,1.3,3.1,2,4.8l0.7,0.7c0,0,16.8,18.9,23.7,34.7s-4.8,3.6-4.8,3.6l-12.8-14.8
	c-11-6.4-5.8,2.4-5.8,2.4s21.1,22.9,10,14.6s-15.2-7-15.2-7c-10.7,1.5,8.2,9,8.2,9c12.2,7.1-8.7,4.2-8.7,4.2
	c-21.5-7.8-11.6,7-11.6,7s12.5,8.2,28.7,1c16.3-7.1-1.8,17-1.8,17c-17.9,10.5-13.9,11-13.9,11s3.5,11.7,17.8-2.4
	c14.3-14,5.9,6.1,5.9,6.1s-13.2,6.4-9.7,15.2c3.4,8.8,18.7-12.4,18.7-12.4c8.8-22.3,5.3,7.7,5.3,7.7s-4.3,29-20.1,29
	s-18.3,2.5-18.3,2.5s-11.6,5.7-28.5-11.9c-17-17.6-16-28.5-16-28.5s1.4-20.1,25.7-12.2l0.9,0.3c0,0,32.8-12.6,1.4-7.6
	s-31.5-31.5-31.5-31.5s-1.9-1.8-4.4-4.8l10.2-38c0,0,1-8,0.8-9.4s3.8,0,3.8,0l20.4,4.7l13.2,3.3L559.8,361.7z"/>
<path class="st9" d="M565.9,367.9"/>
<path class="st8" d="M307.2,772.7c7.2,0.1,14.5,0.2,21.7,0.2c0.3-11.6,1.1-18.3-6.4-22.5c0,0-16.2-2.9-23.2-5.9
	c-6.9-3-15.1,1.1-15.1,1.1s-10.2,7-14.4,15.8c-3.4,7.2-3.5,10.1-3.4,11C280,772.5,293.5,772.6,307.2,772.7z"/>
<path class="st10" d="M240.2,772.6c0.8-2.3,0.1-5.5-4.2-9.9c-9.3-9.5-11.3,5.5-11.7,10C229.6,772.6,234.9,772.6,240.2,772.6z"/>
<path class="st10" d="M216.2,772.8c2.3,0,4.7,0,7-0.1l-3.8-4.8c0,0-3.1-2.2-6.7-2.7l-0.1,8.1C213.7,773,214.9,772.8,216.2,772.8z"/>
<path class="st10" d="M633.5,693.9c-1.7,1-2.9,1.8-3.2,2.2c-1.4,1.9-6,5.8-6,5.8c-7.7,3-4.1-7.2-4.1-7.2
	c-0.7-8.4,10.4-16.7,13.1-18.7L633.5,693.9z"/>
<path class="st11" d="M485.9,674.6"/>
<path class="st10" d="M637.5,628.7c-6.8-2.5-7.6-5.6-7.6-5.6s-7.5-10.4-26.2,4.4s-9.9,45.9-9.9,45.9s3.4,12.3-4.3,2.6
	s-8.2-18.6-8.2-18.6s6-11.9-3.2-22.9c-9.2-11-12.7-18.2-22.1-16.4c0,0-14.3,8.2-21.5,10.5s-10.8,10.6-10.8,10.6s-3.2,12-0.8,21.4
	s4.7,10.8,4.7,10.8s-1.2,16.7,13.1,22.5c0,0,5.2,3.7,17.4,2c0,0,11.4,1.1,13.6,3c2.2,1.9,2.4,0.8,2.4,0.8s-2-6.3-6.5-8.4
	c-4.5-2.1,0.6-2.5,0.6-2.5l15.7,10c0,0,5.9,2.5,2.4-3.6c-3.5-6-10.9-15.7-10.9-15.7s-4-10.9,3.9-3.1c7.9,7.8,15.4,22.3,15.4,22.3
	s6.8,10.9,5.9,0.6c0,0-4.7-18.5-0.5-21.7c4.2-3.2,6.1,1.5,6.1,1.5l-0.8,17.5c0,0,2.2,11.9,6.1,0.6c0,0,0.6-13.6,11.8-24.6
	c6.6-6.5,9.2-4.3,10.1-1.5L637.5,628.7z"/>
<path class="st12" d="M634.6,755.1c-1.8-3-8.8-14.5-12.6-11.3c-4.3,3.7,9.7,19.9,9.7,19.9l2.8,4.5"/>
<path class="st10" d="M634.5,745.3c-10.3-9.1-3.4-7.4-0.1-6.4L634.5,745.3z"/>
<path class="st10" d="M634.4,732.8c-1.3-0.1-2.6-0.3-3.8-0.5c-10-1.6,2.1-8.9,2.1-8.9l1.4-0.8L634.4,732.8"/>
<path class="st10" d="M634.1,713.7c0,0-15.4,11.9-16,5.4c-0.4-4.5,9.7-13,15.9-17.7L634.1,713.7z"/>
<path class="st10" d="M518.4,703.5c63.2-12.6,91.7,20.3,91.7,20.3s8.7,13.7-6.7,7.9c0,0-35.1-36.5-87.5-22.3c0,0,17.2,12,5,19.3
	c0,0-4.5,6.6-12.2-9.6c0,0,4,21.3-8.8,16.8c-12.8-4.4-3.2-22.4-3.2-22.4s-15.8,7.8-18.8-3.3s10.6-12.3,10.6-12.3l7.6,1.6
	c0,0-13.8-17.7,1.7-16.2c15.4,1.5,8.5,12,8.5,12s4-11,11-5.4c7,5.6,1.4,12.8,1.4,12.8"/>
<path class="st10" d="M594.9,778.7c2.7,0.3,5.3,0.6,8,0.9c-0.6-4-0.3-9.7-0.3-9.7c-1.3-14.1-7.4,6.1-7.4,6.1
	C595.1,777,595,777.9,594.9,778.7z"/>
<path class="st10" d="M607.8,780.2c3.4,0.4,6.8,0.8,10.2,1.2c-0.8-0.8-1.5-1.8-1.5-1.8s-11.9-28.7-9.1-15.2
	C609.4,774.1,608.5,778.5,607.8,780.2z"/>
<path class="st10" d="M621.1,775.4c0.3,3.6,0.1,5.5-0.4,6.4c2.5,0.3,4.9,0.6,7.4,0.9c2.5,0.3,4.9,1.1,6.9,2.3l0-4.6
	c-4-7.8-10.1-18.4-16.6-25.7c-11.5-12.8-5.3,2.8-5.3,2.8L621.1,775.4z"/>
<path class="st10" d="M521.3,775c10.2,0,20.4,0.2,30.6,0.5c4.2,0.1,8.4,0.3,12.5,0.6c5.7-5.2,15.8-13.6,7.2,0.5
	c4.2,0.3,8.3,0.7,12.5,1.1c0.7-5.4,3.1-13.5,11-20.5c13.3-11.8-16.2-5.5-16.2-5.5c-17,11.9-15.9,8-15.9,8s-9.2-8.1,9.6-15.2
	c18.7-7.1-3.1-7.9-3.1-7.9s-11.3,9.3-17.9,2.5c-6.6-6.8,19.1-11.8,19.1-11.8c24,1.3-4.8-8-4.8-8s-28.1-8.3-34.7,6.1
	c-6.6,14.4-10,15.6-10,15.6s-10,8.1-1.2,30.9C520.4,772.9,520.8,773.9,521.3,775z"/>
<path class="st9" d="M640.7,787.3"/>
<path class="st10" d="M181.3,426.4c0.8,0,1.2,0,1.2,0c6.3-2.5,1.1-6.3-1.1-7.6L181.3,426.4z"/>
<path class="st7" d="M181.1,409c4.8,2.6,7.5,5.3,7.5,5.3c10.5,5.6,4.1-4.6,4.1-4.6L181,398.3L181.1,409z"/>
<path class="st7" d="M198.1,384.1c0.8,9.8,3.6,19.9,3.6,19.9s2.4,12.6-3.9,4.4c0,0-9.1-16.8-14.3-16.3c-1.1,0.1-1.9,0.4-2.5,0.9
	v-3.2L198.1,384.1z"/>
<path class="st7" d="M213.9,380.8l-4.2,15.8c0,0-2.7,5.8-4.2-1c-0.8-3.7-1.5-8.9-2-12.9L213.9,380.8z"/>
<path class="st7" d="M227.6,377c0,0-7.6,8.5-8,11.4s-1.2,2.2-1.2,2.2s-2.8-6-0.9-10.6c0.1-0.3,0.2-0.5,0.3-0.7L227.6,377z"/>
<path class="st7" d="M194.6,471.3c3.2-4.8,4.5-9.5,4.5-9.5s7.2-14.7,4.8,5c-2.4,19.7-3.9,21.6-0.1,23.9c3.8,2.3,7-17.5,7-17.5
	s-4.2-17.4,1.4-17.6c5.7-0.2,6.3,21.2,6.3,21.2l4.5,23.4c0,0,2.4,25.8-12.8,34.6c-3.5,2.1-5.5,3.5-7.9,4.4l-0.3-16.9
	c0,0,0-23.1-2.3-27.9l-2.3-11.3L194.6,471.3z"/>
<path class="st7" d="M191.5,460.1c2.3-2.2,4.7-4.7,6.7-7.2c6.3-7.9-7.6-5.2-7.6-5.2l-3,0.6L191.5,460.1z"/>
<path class="st7" d="M185.1,441c0,0,18-1,14.1-6.2c-2-2.7-9.9-3-16.9-2.8L185.1,441z"/>
<path class="st13" d="M478.5,639.7c0,0-40.3-149.7,5-283.1"/>
<path class="st13" d="M356.7,639.7c0,0,40.3-149.7-5-283.1"/>
<path class="st7" d="M247.8,371.7c-29.2,26.3-30,62.4-30,62.4c-7.4,14.7-10.2-1.2-10.2-1.2s-0.9-29.4,29.4-58.4L247.8,371.7z"/>
<path class="st12" d="M227.9,500.3"/>
<path class="st12" d="M126.6,622.6"/>
<path class="st9" d="M676,461.2"/>
<path class="st14" d="M544.9,240.2"/>
<path class="st15" d="M339.7,327.8l-8.6,18c0,0,0,1.3-0.1,3.4"/>
<path class="st15" d="M418.8,401.1"/>
<path class="st15" d="M355.6,426.2"/>
<path class="st15" d="M432,401.1"/>
<path class="st16" d="M213.9,660.3"/>
<path class="st5" d="M479,327.2c-8.6,21.6-25.4,54.3-54.5,77.2l-1.8-0.2c-29.1-22.9-45.8-55.4-54.4-77L479,327.2z"/>
<path class="st15" d="M507.4,327.2l8.6,18c0,0,0.3,4.1,0.5,7"/>
<path class="st17" d="M313.2,354.1"/>
<path class="st15" d="M418.8,401.1"/>
<path class="st15" d="M355.6,426.2"/>
<path class="st15" d="M432,401.1"/>
<path class="st6" d="M368.4,327.2c8,20.3,23.3,50.3,49.3,72.9l1.2,1l-60.2,30.7l-3,0.7c-2.7,0-5.2-1.8-6-4.4l-0.1-0.4l-16.1-59.6
	c-2.1-5.8-2.6-11.9-2.6-16.5l0-1.6l0.1-0.9c0.1-2.1,0.1-3.4,0.1-3.4l8.6-18L368.4,327.2z"/>
<path class="st6" d="M507.4,327.2l8.6,18c0,0,0.3,4.1,0.5,7l0,1c-0.1,4.4-0.6,10-2.6,15.3l-16.1,59.6l0,0.1c-0.8,2.6-3.2,4.3-6,4.3
	c-1,0-1.9-0.2-2.8-0.6l-0.2-0.1l-60.2-30.7l1.4-1.2c29.1-22.9,40.4-51,49-72.7L507.4,327.2z"/>
<path class="st15" d="M491.8,426.2"/>
<path class="st15" d="M415.5,401.1"/>
<path class="st15" d="M355.6,426.2"/>
<path class="st15" d="M432,401.1"/>
<path class="st15" d="M491.8,426.2"/>
<path class="st15" d="M415.5,401.1"/>
<path class="st15" d="M428.6,401.1"/>
<path class="st15" d="M491.8,426.2"/>
<path class="st15" d="M415.5,401.1"/>
<path class="st16" d="M633.5,660.3"/>
<path class="st15" d="M675.1,506.3"/>
<path class="st15" d="M645.3,545.7"/>
<path class="st16" d="M442.5,773"/>
<path class="st9" d="M565.9,367.9"/>
<path class="st10" d="M634.5,768.2l-2.8-4.5c0,0-14-16.3-9.7-19.9c3.8-3.2,10.8,8.3,12.6,11.3L634.5,768.2z"/>
<path class="st16" d="M437.1,773"/>
<path class="st9" d="M640.7,787.3"/>
<path class="st6" d="M423.3,404.8c-0.6,121.6-0.6,244.8-0.4,367.3"/>
<path class="st12" d="M227.9,500.3"/>
<path class="st12" d="M126.6,622.6"/>
<path class="st9" d="M676,461.2"/>
<path class="st15" d="M418.8,401.1"/>
<path class="st15" d="M355.6,426.2"/>
<path class="st15" d="M432,401.1"/>
<path class="st16" d="M213.9,660.3"/>
<path class="st15" d="M428.6,401.1"/>
<path class="st15" d="M491.8,426.2"/>
<path class="st15" d="M415.5,401.1"/>
<path class="st16" d="M633.5,660.3"/>
<path class="st16" d="M442.5,773"/>
<path class="st16" d="M437.1,773"/>
<path class="st12" d="M611,730.7"/>
<path class="st18" d="M452.8,594.7V583c0-3.3-2.6-5.9-5.9-5.9h-53.9c-3.3,0-5.9,2.6-5.9,5.9v11.8"/>
<path class="st7" d="M590.4,514.1c38.4-51.8,20.8-91.6,20.8-91.6s-8.7-13.7-10,2.7c0,0,18,47.4-17.2,88.7c0,0-3.6-20.6-15.4-12.8
	c0,0-7.9,1.2,3.4,15.1c0,0-17.5-12.7-19,0.7c-1.4,13.4,18.9,12.5,18.9,12.5s-13.8,11-5.1,18.4c8.7,7.5,15.7-4.3,15.7-4.3l1.8-7.5
	c0,0,10.1,20,15.4,5.4c5.2-14.6-7.2-12.8-7.2-12.8s11.7,1.1,9.6-7.6c-2.1-8.7-11-6.7-11-6.7L590.4,514.1z"/>
<path class="st19" d="M664.9,388.8c-3.4-1.4-7.1-2.8-11.1-4L531,354.1l-11.9-2.7c-3.2-0.1-2.6,1.8-2.6,1.8c-0.1,4.4-0.6,10-2.6,15.3
	l-16.1,59.6l0,0.1c-0.8,2.6-3.2,4.3-6,4.3c-1,0-1.9-0.2-2.8-0.6l-0.2-0.1l-60.2-30.7l-4.9,4l-4.9-4l-60.2,30.7l-3,0.7
	c-2.7,0-5.2-1.8-6-4.4l-0.1-0.4l-16.1-59.6c-2.1-5.8-2.6-11.9-2.6-16.5l0-1.6l-17.7,4.1L180.9,388"/>
<path class="st7" d="M666.4,430.1l-11,32.4c-3.6-2.3-5.8-4.2-5.8-4.2s-9.7-8.2-4.1,2.8c2.3,4.6,5,8,7.4,10.4c0,0-10.1,30.6-7.1,60.1
	l0,1.6l0,1.6c-4.2-1.2-9.9-3.4-14.2-6.9c-7.5-6.2-7.8-8.8-7.8-8.8s-15.7-5.9-14.9-21.3c0,0-1.2-6.3,5.5-16.6c0,0,3.8-10.8,3-13.6
	s0.3-2.5,0.3-2.5s4.9,4.4,4.9,9.4c0,5,2.5,0.5,2.5,0.5l-2.5-18.4c0,0,0.2-6.4,4.3-0.7c4,5.7,9.7,16.5,9.7,16.5s8.2,8.2,4.4-2.3
	s-13.8-23.3-13.8-23.3s-7.1-10.7,1.9-5.6c0,0,14.8,12,19.5,9.5c4.6-2.5,1.1-6.1,1.1-6.1l-16.3-6.6c0,0-9.8-7,2-5.8
	c0,0,12.6,5.2,27.3-0.4c1.5-0.6,2.7-1.1,3.7-1.7"/>
<path class="st20" d="M268.8,531.3c0,0-36.3,21.1-35.7-28.9l-0.4-0.9c0,0-8.6-23.8-9-41s5.8-1.6,5.8-1.6l6.4,18.5
	c7.9,10,6.2-0.1,6.2-0.1s-11.1-29.1-3.8-17.3s11.5,12.1,11.5,12.1c10.5,2.6-4.2-11.4-4.2-11.4c-8.7-11.2,9.6-0.7,9.6-0.7
	c17,15.3,13.3-2.2,13.3-2.2s-8.5-12.2-26.3-11.6s8-15.1,8-15.1c20.5-3.1,17.1-5.1,17.1-5.1s1.1-12.1-17.4-4.5s-3.2-7.9-3.2-7.9
	s14.6-1,14.7-10.5c0.1-9.5-21.9,4.5-21.9,4.5c-16.5,17.4-2-9.1-2-9.1s14.8-25.3,29.4-19.4c14.7,5.9,18,4.5,18,4.5s12.9-1,22,21.6
	s4.2,32.4,4.2,32.4s-8.8,18.2-28.4,1.8l-0.7-0.6c0,0-35.1-0.5-4.1,6.6c31,7.1,17.5,41,17.5,41s20.5,43-25.8,44.6L268.8,531.3z"/>
<path class="st5" d="M232.3,654c0,0,73.5,7,89.8,63.9l-29.7,88c-47.4,35.3-110.1-3.7-110.1-3.7l-0.8-0.1
	C47.1,809.4,39.6,621.4,91.1,611.5c88.2-77,56.9,9.6,56.9,9.6c33.3,4.6,68.2,13.9,82.9,32.9L232.3,654"/>
<path class="st6" d="M180.6,388.5l4.6,38.8c0,0,30,56.2,31.5,88.4s28.1,136.4,28.1,136.4l0,0.4l-3.6,25
	C204.5,699.6,54.8,641,63.9,621.3L142,429c0,0,5.4-24.5,38.6-42.3L180.6,388.5z"/>
<path class="st7" d="M219.2,535.5c-7.4,1.5-19.7,0.5-29.4-18c-14.9-28.5-9.1-45.3-9.1-45.3s2.9-7.6,6.2-8c0.1,0,0.1,0,0.2,0l0.1-0.6
	c0,0-4.1-13.5,4.8-21.8c0,0,9.7,18.1,20.4,50.4l3.7,16.7c0,0,1.1,7.8,0.9,10.8S219.2,535.5,219.2,535.5z"/>
<path class="st7" d="M242,646.8c-10.6-1.4-16.6,8.2-23.1,14.7c-7.8,7.9-18.5,10.8-27.3,17.3c0,0,25.6,8.2,52.7-1.2l0-26.5L242,646.8
	z"/>
<path class="st7" d="M219.2,622.8c0,0,12.4,14.8,1.7,27.3c-10.7,12.5-18.4,15.3-18.4,15.3s-22.9,11.7-28.3,8.1s11.3-10.5,11.3-10.5
	l0.6-0.3c0,0,8.1-5.7-4.9-6.2l-3.9,2.3c0,0-12.2,7.2-8.9-2.4s10.5-20.2,10.5-20.2s10.3-18.7-2.6-12.6s-11.7,24.7-11.7,24.7
	s-1.9,16.3-6.2-3.1c-4.3-19.4-3.4-21.7-7.8-22.6c-4.4-0.9-0.9,18.8-0.9,18.8s9.8,15,4.5,17.1s-13-18-13-18l-12-20.6
	c0,0-10.7-23.5,0.6-36.9s13.5-11.4,25.7-7.2c0,0,13.9-20.3,39.2-0.5s26.9,37.6,26.9,37.6s0.5,8.1-2.4,9.8
	C219.2,622.7,219.2,622.8,219.2,622.8"/>
<path class="st12" d="M124.7,621.4"/>
<path class="st19" d="M219.8,540.9c0,0-24.5-13.8-34.2-35.7"/>
<path class="st7" d="M188.6,434.9c-3.2,0.8-6.7,0.8-9.9-1.1c-8.6-5.4-13.9-17.1-13.9-17.1s-2.6-6.9-1.8-15.1l10.7-8.7l7.1-4.5
	l4.4,39.2L188.6,434.9z"/>
<path class="st12" d="M124.7,621.4"/>
<path class="st21" d="M397.3,817.8"/>
<path class="st21" d="M400.8,821.5"/>
<path class="st5" d="M181.5,802c16.8,2.8,31.6,0.3,41.2-11"/>
<path class="st21" d="M397.3,817.8"/>
<path class="st21" d="M400.8,821.5"/>
<path class="st22" d="M225.8,693.2c-0.4-7-2.9-13.2-7.1-18.6"/>
<path class="st22" d="M309.9,738.4"/>
<path class="st7" d="M130.6,661.4c-4.3-5-14.2-14.7-10.4-18.8c3.9-4.2,11,8,13,10.6c2.5,3.3,10.4,15,10.2,5.4
	c-0.2-13.2-14.5-28.4-22.1-38.1l-0.6-0.8c-15.3-47.6-45.8-17.4-45.8-17.4l-7.2,17.8c0,0-3,4.2,1.9,8.8s8.1,8.3,23.9,16.7
	S130.6,661.4,130.6,661.4z"/>
<path class="st19" d="M245.2,652.1l-0.4,25.4c-36.6,22.1-189.6-36.6-180.5-56.3L142.4,429c0,0,5.4-24.3,38.2-42.1l4.6,40.7
	l11.2,22.9c0,0,18.7,41.8,19.6,58.2c0.9,16.5,3.1,26.7,3.1,26.7S233.1,617.7,245.2,652.1z"/>
<path class="st21" d="M457.5,840.9"/>
<path class="st22" d="M616.1,693.2c0.4-7,2.9-13.2,7.1-18.6"/>
<path class="st22" d="M638.5,811.8"/>
<path class="st22" d="M679.7,822.8"/>
<path class="st6" d="M665.9,390.5l-2.5,39c0,0-27,57.8-26.7,90c0.3,32.2-20.8,137-20.8,137l-0.1,0.4l1.8,24.2
	c37.8,20.1,184.1-46.5,174-65.7l-88.2-187.8c0,0-6.3-22.8-37.9-38.8L665.9,390.5z"/>
<path class="st7" d="M738.9,503.2c-0.3,3.1,0.5,4.5-0.8,8.3c-10.1,30.5-26.2,38.1-26.2,38.1s-7.5,3.2-10.1,1.1c0,0-0.1-0.1-0.1-0.1
	l-0.6,0.8c0,0-9.1,15.9-24.5,10.1c-15.4-5.8-20.7-12.2-20.7-12.2s-18.7-17.6-17.2-23.9s13.7,7.1,13.7,7.1l0.5,0.4
	c0,0,8.1,5.6,4.2-6.7l-3.5-2.9c0,0-10.9-9-0.8-9.2c10.1-0.1,22.6,3.1,22.6,3.1s21.1,3.4,11-6.7c-10.1-10.1-27.2-2.7-27.2-2.7
	s-16,3.7,0.8-6.9c16.8-10.6,19.3-10.6,18.7-15s-18,5.5-18,5.5s-10.8,14.3-14.6,10c-3.8-4.3,12.5-18.3,12.5-18.3l15.3-18.3
	c0,0,18.5-18.1,35-11.9c5.7,2.1,6.6,4.2,8.9,6.1L738.9,503.2z"/>
<path class="st7" d="M651.4,683.1c-0.6,0-5.1,0.2-5.6,0.2c2-4.9,8.7-15.1,9.7-20.2c1.4-7.4,9.4-11.9,9.4-11.9s11.6-4.5,21.2-3.1
	c9.7,1.4,11.2,3.5,11.2,3.5s16.5-3,23.7,10.6C721,662.1,683.4,680.1,651.4,683.1z"/>
<path class="st7" d="M732.2,659.3c-0.2-5.8,0.2-11.6,1.1-17.3c4.3,4.7,14.9,12.8,19.5,3.7c3.5-6.7-5.5-10.2-10.6-11.9
	c6.7,0.4,23.2-2.3,15.1-12.8c-5-6.5-16.5-1.9-21.9,1.5c1.9-5.9,2.9-16.8-4.9-18.7c-12.6-3-11.5,12.5-9.1,19.6
	c-4.9-3-14.7-8.1-16.7,0.5c-1.7,7.2,7.1,15.3,13.6,10.1c-11.9,5.7-0.3,19.7,8.6,11.5l0.9-0.3c-0.5,5.4-0.7,10.8-0.6,16.1
	L732.2,659.3z"/>
<path class="st3" d="M789.4,903.8H78.1c-22.6,0-41-18.3-41-41v-42.7h793.2v42.7C830.3,885.5,812,903.8,789.4,903.8z"/>
<path class="st19" d="M635,543.5c0,0,23.7-15,32.2-37.5"/>
<path class="st6" d="M630.2,578.9c0,0,12.7,1.4,13.5,22.2"/>
<path class="st19" d="M617.8,681c37.8,20.1,184.1-46.5,174-65.7l-88.2-187.8c0,0-6.3-22.8-37.9-38.8"/>
<path class="st23" d="M640.1,872.3H227.2c-4.7,0-8.5-3.8-8.5-8.5V597.1c0-4.7,3.8-8.5,8.5-8.5h412.9c4.7,0,8.5,3.8,8.5,8.5v266.7
	C648.6,868.5,644.8,872.3,640.1,872.3z"/>
<path class="st24" d="M543.8,240.7"/>
<g>
	<g>
		<path class="st4" d="M423,331c3.2,0,3.2-5,0-5C419.8,326,419.8,331,423,331L423,331z"/>
	</g>
</g>
<g>
	<g>
		<path class="st4" d="M505.5,292.5c3.2,0,3.2-5,0-5S502.3,292.5,505.5,292.5L505.5,292.5z"/>
	</g>
</g>
<polygon class="st25" points="543.8,317.4 300.7,315.4 300.7,239.4 544.4,239.1 "/>
<path class="st25" d="M542.4,174.8c0,0-20.3-104-120.4-104h0.6c-100.2,0-120.4,104-120.4,104"/>
<path class="st26" d="M421.4,281.9c115.3-1.4,122.4-41.3,122.4-41.3v-51.2c0-52.2-54.1-94.6-120.9-94.6h-1.4
	c-66.8,0-120.9,42.3-120.9,94.6v51.2c0,0,7.1,39.9,122.4,41.3"/>
<path class="st25" d="M422.2,333c71-1.1,100.5-7.4,113.1-10.7c10.1-2.6,8.5-8.9,8.5-8.9V305c0,0-42.4,11.5-120.4,10.6H421
	C343,316.5,300.6,305,300.6,305v8.4c0,0-1.6,6.3,8.5,8.9C321.7,325.6,351.3,332,422.2,333"/>
<g>
	<path class="st27" d="M422.5,274c-106.8-1.3-113.4-38.2-113.4-38.2v-47.5c0-48.4,50.1-87.6,112-87.6c2.2,0,2.2,0,2.2,0
		c61.9,0,112,39.2,112,87.6v47.5c0,0-6.6,37-113.4,38.2"/>
</g>
<path class="st14" d="M445.9,124.7"/>
<path class="st14" d="M445.9,124.7"/>
<ellipse class="st28" cx="422.6" cy="159.3" rx="35" ry="39.7"/>
<path class="st28" d="M451.5,191.2c-6.7,8.5-17.3,13.6-28.5,13.6c-11.2,0-21.9-5.1-28.6-13.6c0,0-30,16.3-32.5,54.5
	c0,0,0.5,3.9,4.8,3.9s113.3,0.1,113.3,0.1s4.6-1.8,4-5.3C483.4,240.9,482.2,212.3,451.5,191.2z"/>
<path class="st29" d="M497.2,191.1c1-1.3,1.5-2.9,1.5-4.5c0-4.1-3.4-7.6-7.5-7.6c-2.4,0-4.6,1.1-6,3l-26.4,39.5l-14.5-11.4
	c-1.4-1.4-3.1-2.1-5-2.1c-4.1,0-7.4,3.7-7.4,8.3c0,1.9,0.6,3.8,1.7,5.3l22.8,18.4c1.1,0.8,2.6,1.2,4,1.2c1.9,0,3.7-0.7,4.9-1.9
	L497.2,191.1z"/>
<path class="st24" d="M423.7,126.4"/>
<path class="st24" d="M423.7,126.4"/>
<path class="st30" d="M379.8,90.2l6.7,13.6c1.2,2.5,3.6,4.2,6.4,4.6l15.1,2.2c7,1,9.7,9.5,4.7,14.4l-10.9,10.6
	c-2,1.9-2.9,4.7-2.4,7.5l2.6,15c1.2,6.9-6.1,12.2-12.3,8.9l-13.5-7.1c-2.5-1.3-5.4-1.3-7.9,0l-13.5,7.1c-6.2,3.3-13.5-2-12.3-8.9
	l2.6-15c0.5-2.7-0.4-5.5-2.4-7.5L331.7,125c-5-4.9-2.3-13.4,4.7-14.4l15.1-2.2c2.8-0.4,5.1-2.1,6.4-4.6l6.7-13.6
	C367.7,83.9,376.7,83.9,379.8,90.2z"/>
<path class="st30" d="M479.5,89.8l6.7,13.6c1.2,2.5,3.6,4.2,6.4,4.6l15.1,2.2c7,1,9.7,9.5,4.7,14.4l-10.9,10.6
	c-2,1.9-2.9,4.7-2.4,7.5l2.6,15c1.2,6.9-6.1,12.2-12.3,8.9l-13.5-7.1c-2.5-1.3-5.4-1.3-7.9,0l-13.5,7.1c-6.2,3.3-13.5-2-12.3-8.9
	l2.6-15c0.5-2.7-0.4-5.5-2.4-7.5l-10.9-10.6c-5-4.9-2.3-13.4,4.7-14.4l15.1-2.2c2.8-0.4,5.1-2.1,6.4-4.6l6.7-13.6
	C467.4,83.5,476.4,83.5,479.5,89.8z"/>
<line class="st31" x1="415.7" y1="116.7" x2="427.3" y2="116.7"/>
<g>
	<g>
		<path class="st3" d="M815.8,663.6c3.2,0,3.2-5,0-5C812.6,658.6,812.5,663.6,815.8,663.6L815.8,663.6z"/>
	</g>
</g>
<g>
	<g>
		<path class="st3" d="M808.3,607c3.2,0,3.2-5,0-5C805,602,805,607,808.3,607L808.3,607z"/>
	</g>
</g>
<g>
	<g>
		<path class="st3" d="M696.1,812.5c3.2,0,3.2-5,0-5C692.9,807.5,692.9,812.5,696.1,812.5L696.1,812.5z"/>
	</g>
</g>
<g>
	<g>
		<path class="st3" d="M805.5,573.3c3.2,0,3.2-5,0-5C802.3,568.3,802.3,573.3,805.5,573.3L805.5,573.3z"/>
	</g>
</g>
<g>
	<g>
		<path class="st3" d="M67.2,790c-3.2,0-3.2-5,0-5C70.4,785,70.4,790,67.2,790L67.2,790z"/>
	</g>
</g>
<g>
	<g>
		<path class="st3" d="M279.5,278.5c-3.2,0-3.2-5,0-5C282.7,273.5,282.7,278.5,279.5,278.5L279.5,278.5z"/>
	</g>
</g>
<g>
	<g>
		<path class="st3" d="M46.6,603.1c-3.2,0-3.2-5,0-5S49.9,603.1,46.6,603.1L46.6,603.1z"/>
	</g>
</g>
<g>
	<g>
		<path class="st3" d="M403.2,37c-3.2,0-3.2-5,0-5S406.4,37,403.2,37L403.2,37z"/>
	</g>
</g>
<g>
	<g>
		<path class="st3" d="M45.1,750.2c-3.2,0-3.2-5,0-5S48.3,750.2,45.1,750.2L45.1,750.2z"/>
	</g>
</g>
<g>
	<g>
		<path class="st3" d="M60.3,729.3c-3.2,0-3.2-5,0-5S63.5,729.3,60.3,729.3L60.3,729.3z"/>
	</g>
</g>
<g>
	<g>
		<path class="st3" d="M286.8,334.2c-3.2,0-3.2-5,0-5S290,334.2,286.8,334.2L286.8,334.2z"/>
	</g>
</g>
<g>
	<g>
		<path class="st3" d="M372.4,54.7c-3.2,0-3.2-5,0-5S375.6,54.7,372.4,54.7L372.4,54.7z"/>
	</g>
</g>
<g>
	<g>
		<path class="st3" d="M601.4,43.5c-3.2,0-3.2-5,0-5C604.6,38.5,604.6,43.5,601.4,43.5L601.4,43.5z"/>
	</g>
</g>
</svg>
