<?xml version="1.0" encoding="utf-8"?>
<!-- Generator: Adobe Illustrator 27.3.1, SVG Export Plug-In . SVG Version: 6.00 Build 0)  -->
<svg version="1.1" id="Layer_1" xmlns="http://www.w3.org/2000/svg" xmlns:xlink="http://www.w3.org/1999/xlink" x="0px" y="0px"
	 viewBox="0 0 1080 1080" style="enable-background:new 0 0 1080 1080;" xml:space="preserve">
<style type="text/css">
	.st0{fill:#D6D6D6;}
	.st1{fill:none;stroke:#3F7C8A;stroke-width:5;stroke-miterlimit:10;}
	.st2{fill:#1B140F;stroke:#D6D6D6;stroke-width:5;stroke-miterlimit:10;}
	.st3{fill:#EEE0D8;stroke:#D7AF9D;stroke-width:3;stroke-miterlimit:10;}
	.st4{fill:#F7B384;stroke:#E0A57E;stroke-width:5;stroke-miterlimit:10;}
	.st5{fill:#CC6328;stroke:#703818;stroke-width:4;stroke-miterlimit:10;}
	.st6{fill:#1B140F;stroke:#140000;stroke-width:4;stroke-miterlimit:10;}
	.st7{fill:#FFF1E7;}
	.st8{fill:#ECDED8;stroke:#CEBAB3;stroke-width:2;stroke-miterlimit:10;}
	.st9{fill:none;stroke:#A7A593;stroke-miterlimit:10;}
	.st10{fill:#E9DAD4;stroke:#CEBAB3;stroke-width:2;stroke-miterlimit:10;}
	.st11{fill:#1B140F;}
	.st12{fill:#0E1A1C;stroke:#76CDE1;stroke-width:4;stroke-miterlimit:10;}
	.st13{fill:none;stroke:#76CDE1;stroke-width:4;stroke-miterlimit:10;}
</style>
<path class="st0" d="M937.11,994.21H152.08c-7.33,0-13.28-5.94-13.28-13.28V102.44c0-7.33,5.94-13.28,13.28-13.28h785.03
	c7.33,0,13.28,5.94,13.28,13.28v878.49C950.39,988.26,944.45,994.21,937.11,994.21z"/>
<path class="st1" d="M605.41,326.18H456.25c-5.77,0-10.45-4.68-10.45-10.45V151.88c0-5.77,4.68-10.45,10.45-10.45h149.16
	c5.77,0,10.45,4.68,10.45,10.45v163.85C615.86,321.5,611.18,326.18,605.41,326.18z"/>
<path class="st1" d="M605.41,643.76H456.25c-5.77,0-10.45-4.68-10.45-10.45V469.46c0-5.77,4.68-10.45,10.45-10.45h149.16
	c5.77,0,10.45,4.68,10.45,10.45v163.85C615.86,639.08,611.18,643.76,605.41,643.76z"/>
<path class="st1" d="M605.41,936.13H456.25c-5.77,0-10.45-4.68-10.45-10.45V761.83c0-5.77,4.68-10.45,10.45-10.45h149.16
	c5.77,0,10.45,4.68,10.45,10.45v163.85C615.86,931.45,611.18,936.13,605.41,936.13z"/>
<path class="st2" d="M616.22,160.95c2.28-3.99,3.51-8.81,3.51-13.76c0-12.79-8.23-23.32-18.24-23.32c-5.68,0-11.05,3.39-14.5,9.16
	l-63.74,121.85l-34.91-35.02c-3.3-4.22-7.58-6.56-12.01-6.56c-9.85,0-17.96,11.56-17.96,25.6c0,6,1.48,11.82,4.18,16.42l55.04,56.66
	c2.75,2.41,6.18,3.72,9.7,3.72c4.55,0,8.88-2.19,11.83-5.98L616.22,160.95z"/>
<path class="st2" d="M616.22,478.53c2.28-3.99,3.51-8.81,3.51-13.76c0-12.79-8.23-23.32-18.24-23.32c-5.68,0-11.05,3.39-14.5,9.16
	l-63.74,121.85l-34.91-35.02c-3.3-4.22-7.58-6.56-12.01-6.56c-9.85,0-17.96,11.56-17.96,25.6c0,6,1.48,11.82,4.18,16.42l55.04,56.66
	c2.75,2.41,6.18,3.72,9.7,3.72c4.55,0,8.88-2.19,11.83-5.98L616.22,478.53z"/>
<path class="st3" d="M786.38,564.97c0,0-11.15,63.68,46.2,77.88c0,0,28.67,3.81,27.4-22.5c0,0,3.82-15.58-20.07-18.69
	c-23.89-3.11-14.27-79.23-14.27-79.23l0.57-7.3c-0.89,7.31-0.71,13.58-0.18,18.47c0.8,7.38,2.41,11.64,2.41,11.64
	c17.52,28.04,42.06,12.46,42.06,12.46s6.69-3.12,7.96-20.07c1.27-16.96-12.11-15.92-12.11-15.92c-28.67,0-25.49-18.69-25.49-18.69
	c0.96-42.92-25.48-47.15-25.48-47.15h-64.32c0,0-34.76,0.77-28.39,128.14c0,0,15.61,38.42,57.35,41.19c0,0,14.76,12.12,25.86,3.38"
	/>
<path class="st3" d="M746.97,613.75c0,0-9.59-20.12-9.59-37.43"/>
<path class="st3" d="M780.01,625.2c0,0-18.48-12.46-21.66-47.07"/>
<path class="st3" d="M763.24,800.95l9.93-13.54h78.45c20.39,34.46,9.39,98.82,9.39,98.82c-12.63,19.34-49.21,22.51-49.21,22.51
	s-94.2,6.33-110.38-12.66c-16.18-18.99,0-54.19,0-54.19c9.85-24.64,34.2-40.93,61.18-40.93c26.81,0,51.05,16.1,61.01,40.53"/>
<path class="st4" d="M368.75,715.07l35.62-162.4l-51.17-40.38l-132.5,78.28C220.7,590.57,272.84,716.67,368.75,715.07z"/>
<path class="st5" d="M368.29,712.79l-2-19.79c-0.28-2.74-2.8-4.51-5.21-3.67l-36.66,12.82c-2.17,0.76-4.41-0.89-4.58-3.35
	l-4.46-66.93c-0.26-3.88-3.62-6.6-7.11-5.77l-47.87,11.43c-3.47,0.83-6.86-1.72-7.36-5.55l-5.34-40.75
	c-0.46-3.54-3.51-5.97-6.76-5.39l-16.11,2.88c-3.2,0.57-6.08,2.44-8.07,5.23L99.4,759.01c2.2,5.92,1.57,12.95-1.07,18.94
	c1.75-3.97-0.78,2.02-1.07,2.83c-0.52,1.43-1.01,2.87-1.46,4.32c-0.89,2.82-1.65,5.67-2.31,8.55c-0.54,2.38-1.22,4.9-1.48,7.37
	c-0.04,0.8-0.09,1.78-0.13,2.22c-0.13,1.39-0.23,2.78-0.31,4.18c-0.68,11.62,0.14,23.26,1.26,34.83
	c2.09,21.55,4.55,42.81,2.18,64.45c-1.86,16.97-2.59,33.94-0.96,50.95c0.09,0.59,0.19,1.19,0.29,1.78c0.3,1.77,0.65,3.53,1.03,5.28
	c0.76,3.45,1.67,6.85,2.78,10.2c0.58,1.77,1.49,3.59,2.02,5.4c0.14,0.3,0.28,0.6,0.42,0.9c1.53,3.17,3.24,6.24,5.14,9.2
	c1.05,1.64,2.22,3.19,3.32,4.79c0.46,0.54,0.9,1.08,1.36,1.61c2.51,2.9,5.19,5.64,8.01,8.24c1.64,1.52,3.34,2.98,5.07,4.4
	c0.41,0.34,4.03,2.68,1.14,0.93c-2.97-1.8,0.94,0.64,1.3,0.9c3.67,2.62,7.47,5.04,11.34,7.34c4.33,2.57,7.31,6.37,8.88,10.66
	l219.98-308.13C367.81,718.78,368.59,715.78,368.29,712.79z"/>
<path class="st5" d="M256.18,636.8c-13.37,19.39-27.37,37.39-41.37,57.39c-32,46-61,84-93,130c-7,11-14,19-20,30c-1,2-3,3-3.79,4.23
	"/>
<path class="st5" d="M114.34,992.61c15.47-24.42,33.47-45.42,50.47-70.42c19-28,36-51,56-78c2-3,3-6,5-9c34-47,64-89,95.86-133.59"
	/>
<path class="st6" d="M404.27,552.96c-36.44-1.08-51-40.42-51-40.42l-0.07-0.24l37.85-22.36c11.8-6.97,26.01,4.85,22.9,19.05
	l-9.58,43.69L404.27,552.96z"/>
<g>
	<path class="st7" d="M890.78,96.9c26.94,0,48.77,21.84,48.77,48.77V933.8c0,26.94-21.84,48.77-48.77,48.77H194
		c-26.94,0-48.77-21.84-48.77-48.77V145.67c0-26.94,21.84-48.77,48.77-48.77H890.78 M890.78,35.9H194
		c-29.32,0-56.89,11.42-77.62,32.15c-20.73,20.73-32.15,48.3-32.15,77.62V933.8c0,29.32,11.42,56.89,32.15,77.62
		c20.73,20.73,48.3,32.15,77.62,32.15h696.77c29.32,0,56.89-11.42,77.62-32.15c20.73-20.73,32.15-48.3,32.15-77.62V145.67
		c0-29.32-11.42-56.89-32.15-77.62C947.67,47.32,920.1,35.9,890.78,35.9L890.78,35.9z"/>
</g>
<polygon class="st8" points="874.18,313.16 715.42,311.69 715.42,257.04 874.57,256.86 "/>
<path class="st9" d="M874.19,257.98"/>
<path class="st8" d="M873.24,210.6c0,0-13.25-74.77-78.64-74.77h0.38c-65.39,0-78.64,74.77-78.64,74.77"/>
<path class="st10" d="M794.29,287.65c75.27-0.99,79.9-29.67,79.9-29.67v-36.84c0-37.56-35.34-68-78.94-68h-0.93
	c-43.6,0-78.94,30.44-78.94,68v36.84c0,0,4.63,28.68,79.9,29.67"/>
<path class="st8" d="M794.77,324.4c46.33-0.77,65.65-5.31,73.86-7.67c6.58-1.89,5.56-6.42,5.56-6.42v-6.08
	c0,0-27.66,8.25-78.64,7.64h-1.51c-50.98,0.61-78.64-7.64-78.64-7.64v6.08c0,0-1.02,4.53,5.56,6.42c8.21,2.36,27.53,6.9,73.86,7.67"
	/>
<path class="st9" d="M795.78,175.8"/>
<path class="st9" d="M795.78,175.8"/>
<g>
	<path class="st11" d="M794.98,281.98c-69.73-0.92-74.03-27.49-74.03-27.49v-34.13c0-34.79,32.74-63,73.13-63c1.42,0,1.42,0,1.42,0
		c40.39,0,73.13,28.21,73.13,63v34.13c0,0-4.29,26.57-74.03,27.49"/>
</g>
<path class="st12" d="M767.1,149.76l4.4,9.8c0.81,1.8,2.36,3.04,4.17,3.33l9.84,1.57c4.54,0.73,6.35,6.86,3.07,10.38l-7.12,7.63
	c-1.3,1.4-1.9,3.41-1.59,5.39l1.68,10.77c0.78,4.97-3.97,8.76-8.03,6.41l-8.8-5.09c-1.61-0.93-3.54-0.93-5.15,0l-8.8,5.09
	c-4.06,2.35-8.8-1.44-8.03-6.41l1.68-10.77c0.31-1.97-0.29-3.99-1.59-5.39l-7.12-7.63c-3.28-3.52-1.47-9.65,3.07-10.38l9.84-1.57
	c1.8-0.29,3.36-1.53,4.17-3.33l4.4-9.8C759.21,145.24,765.07,145.24,767.1,149.76z"/>
<path class="st12" d="M832.21,149.5l4.4,9.8c0.81,1.8,2.36,3.04,4.17,3.33l9.84,1.57c4.54,0.73,6.35,6.86,3.07,10.38l-7.12,7.63
	c-1.3,1.4-1.9,3.41-1.59,5.39l1.68,10.77c0.78,4.97-3.97,8.76-8.03,6.41l-8.8-5.09c-1.61-0.93-3.54-0.93-5.15,0l-8.8,5.09
	c-4.06,2.35-8.8-1.44-8.03-6.41l1.68-10.77c0.31-1.97-0.29-3.99-1.59-5.39l-7.12-7.63c-3.28-3.52-1.47-9.65,3.07-10.38l9.84-1.57
	c1.8-0.29,3.36-1.53,4.17-3.33l4.4-9.8C824.31,144.98,830.18,144.98,832.21,149.5z"/>
<line class="st13" x1="790.54" y1="168.82" x2="798.13" y2="168.82"/>
</svg>
