<?xml version="1.0" encoding="utf-8"?>
<!-- Generator: Adobe Illustrator 27.3.1, SVG Export Plug-In . SVG Version: 6.00 Build 0)  -->
<svg version="1.1" id="Layer_1" xmlns="http://www.w3.org/2000/svg" xmlns:xlink="http://www.w3.org/1999/xlink" x="0px" y="0px"
	 viewBox="0 0 1080 1080" style="enable-background:new 0 0 1080 1080;" xml:space="preserve">
<style type="text/css">
	.st0{fill:#142728;}
	.st1{fill:#E5E5E4;}
	.st2{fill:#FFF1E7;}
	.st3{fill:#F26722;stroke:#F26722;stroke-miterlimit:10;}
	.st4{fill:#F79756;}
	.st5{fill:#F9B485;}
	.st6{fill:#EEE0D8;stroke:#D7AF9D;stroke-width:3;stroke-miterlimit:10;}
	.st7{fill:#CEBBB3;stroke:#C2A79D;stroke-width:3;stroke-miterlimit:10;}
	.st8{fill:#1B140F;stroke:#000000;stroke-width:3;stroke-miterlimit:10;}
	.st9{fill:#D74928;stroke:#BB3B26;stroke-width:3;stroke-linecap:round;stroke-linejoin:round;stroke-miterlimit:10;}
</style>
<path class="st0" d="M950.02,1007.2H172.05c-10.19,0-18.45-8.26-18.45-18.45V112.11c0-10.19,8.26-18.45,18.45-18.45h777.96
	c10.19,0,18.45,8.26,18.45,18.45v876.64C968.47,998.94,960.21,1007.2,950.02,1007.2z"/>
<g>
	<path class="st1" d="M171.74,442.6"/>
	<g>
		<path class="st1" d="M171.74,445.1c3.22,0,3.22-5,0-5C168.52,440.1,168.52,445.1,171.74,445.1L171.74,445.1z"/>
	</g>
</g>
<g>
	<path class="st1" d="M200.85,359.32"/>
	<g>
		<path class="st1" d="M200.85,361.82c3.22,0,3.22-5,0-5C197.64,356.82,197.63,361.82,200.85,361.82L200.85,361.82z"/>
	</g>
</g>
<g>
	<path class="st1" d="M889.27,603.48"/>
	<g>
		<path class="st1" d="M889.27,605.98c3.22,0,3.22-5,0-5C886.05,600.98,886.04,605.98,889.27,605.98L889.27,605.98z"/>
	</g>
</g>
<g>
	<path class="st1" d="M377.67,329.98"/>
	<g>
		<path class="st1" d="M377.67,332.48c3.22,0,3.22-5,0-5C374.45,327.48,374.44,332.48,377.67,332.48L377.67,332.48z"/>
	</g>
</g>
<g>
	<path class="st1" d="M461.32,558.43"/>
	<g>
		<path class="st1" d="M461.32,560.93c3.22,0,3.22-5,0-5C458.11,555.93,458.1,560.93,461.32,560.93L461.32,560.93z"/>
	</g>
</g>
<g>
	<path class="st1" d="M485.83,297.93"/>
	<g>
		<path class="st1" d="M485.83,300.43c3.22,0,3.22-5,0-5C482.61,295.43,482.61,300.43,485.83,300.43L485.83,300.43z"/>
	</g>
</g>
<g>
	<path class="st1" d="M351.92,794.17"/>
	<g>
		<path class="st1" d="M351.92,796.67c3.22,0,3.22-5,0-5C348.71,791.67,348.7,796.67,351.92,796.67L351.92,796.67z"/>
	</g>
</g>
<g>
	<path class="st1" d="M927.88,712.88"/>
	<g>
		<path class="st1" d="M927.88,715.38c3.22,0,3.22-5,0-5C924.66,710.38,924.66,715.38,927.88,715.38L927.88,715.38z"/>
	</g>
</g>
<g>
	<path class="st1" d="M934.31,461.9"/>
	<g>
		<path class="st1" d="M934.31,464.4c3.22,0,3.22-5,0-5C931.1,459.4,931.09,464.4,934.31,464.4L934.31,464.4z"/>
	</g>
</g>
<g>
	<path class="st1" d="M792.74,503.73"/>
	<g>
		<path class="st1" d="M792.74,506.23c3.22,0,3.22-5,0-5C789.52,501.23,789.52,506.23,792.74,506.23L792.74,506.23z"/>
	</g>
</g>
<g>
	<path class="st1" d="M783.09,339.63"/>
	<g>
		<path class="st1" d="M783.09,342.13c3.22,0,3.22-5,0-5C779.87,337.13,779.86,342.13,783.09,342.13L783.09,342.13z"/>
	</g>
</g>
<g>
	<path class="st1" d="M252.48,581.28"/>
	<g>
		<path class="st1" d="M252.48,583.78c3.22,0,3.22-5,0-5C249.26,578.78,249.26,583.78,252.48,583.78L252.48,583.78z"/>
	</g>
</g>
<g>
	<path class="st1" d="M667.25,449.03"/>
	<g>
		<path class="st1" d="M667.25,451.53c3.22,0,3.22-5,0-5C664.03,446.53,664.03,451.53,667.25,451.53L667.25,451.53z"/>
	</g>
</g>
<g>
	<path class="st1" d="M416.28,455.47"/>
	<g>
		<path class="st1" d="M416.28,457.97c3.22,0,3.22-5,0-5C413.06,452.97,413.05,457.97,416.28,457.97L416.28,457.97z"/>
	</g>
</g>
<g>
	<path class="st1" d="M573.23,293.46"/>
	<g>
		<path class="st1" d="M573.23,295.96c3.22,0,3.22-5,0-5C570.01,290.96,570.01,295.96,573.23,295.96L573.23,295.96z"/>
	</g>
</g>
<g>
	<path class="st1" d="M182.97,299.15"/>
	<g>
		<path class="st1" d="M182.97,301.65c3.22,0,3.22-5,0-5C179.75,296.65,179.74,301.65,182.97,301.65L182.97,301.65z"/>
	</g>
</g>
<g>
	<path class="st1" d="M310.1,426.51"/>
	<g>
		<path class="st1" d="M310.1,429.01c3.22,0,3.22-5,0-5C306.88,424.01,306.87,429.01,310.1,429.01L310.1,429.01z"/>
	</g>
</g>
<g>
	<path class="st1" d="M716.33,760.97"/>
	<g>
		<path class="st1" d="M716.33,763.47c3.22,0,3.22-5,0-5C713.11,758.47,713.11,763.47,716.33,763.47L716.33,763.47z"/>
	</g>
</g>
<g>
	<path class="st1" d="M943.97,774.01"/>
	<g>
		<path class="st1" d="M943.97,776.51c3.22,0,3.22-5,0-5C940.75,771.51,940.74,776.51,943.97,776.51L943.97,776.51z"/>
	</g>
</g>
<g>
	<path class="st1" d="M860.31,294.59"/>
	<g>
		<path class="st1" d="M860.31,297.09c3.22,0,3.22-5,0-5C857.09,292.09,857.09,297.09,860.31,297.09L860.31,297.09z"/>
	</g>
</g>
<g>
	<path class="st1" d="M673.69,284.93"/>
	<g>
		<path class="st1" d="M673.69,287.43c3.22,0,3.22-5,0-5C670.47,282.43,670.46,287.43,673.69,287.43L673.69,287.43z"/>
	</g>
</g>
<g>
	<path class="st1" d="M503.15,365.37"/>
	<g>
		<path class="st1" d="M503.15,367.87c3.22,0,3.22-5,0-5C499.94,362.87,499.93,367.87,503.15,367.87L503.15,367.87z"/>
	</g>
</g>
<g>
	<path class="st1" d="M414.69,378.83"/>
	<g>
		<path class="st1" d="M414.69,381.33c3.22,0,3.22-5,0-5C411.47,376.33,411.46,381.33,414.69,381.33L414.69,381.33z"/>
	</g>
</g>
<g>
	<path class="st1" d="M892.48,835.15"/>
	<g>
		<path class="st1" d="M892.48,837.65c3.22,0,3.22-5,0-5C889.27,832.65,889.26,837.65,892.48,837.65L892.48,837.65z"/>
	</g>
</g>
<g>
	<path class="st1" d="M332.62,719.31"/>
	<g>
		<path class="st1" d="M332.62,721.81c3.22,0,3.22-5,0-5C329.4,716.81,329.4,721.81,332.62,721.81L332.62,721.81z"/>
	</g>
</g>
<g>
	<path class="st1" d="M334.19,371.52"/>
	<g>
		<path class="st1" d="M334.19,374.02c3.22,0,3.22-5,0-5C330.98,369.02,330.97,374.02,334.19,374.02L334.19,374.02z"/>
	</g>
</g>
<g>
	<path class="st1" d="M199.23,691.05"/>
	<g>
		<path class="st1" d="M199.23,693.55c3.22,0,3.22-5,0-5C196.01,688.55,196,693.55,199.23,693.55L199.23,693.55z"/>
	</g>
</g>
<g>
	<path class="st1" d="M168.52,526.26"/>
	<g>
		<path class="st1" d="M168.52,528.76c3.22,0,3.22-5,0-5C165.3,523.76,165.3,528.76,168.52,528.76L168.52,528.76z"/>
	</g>
</g>
<g>
	<path class="st1" d="M802.22,655.55"/>
	<g>
		<path class="st1" d="M802.22,658.05c3.22,0,3.22-5,0-5C799,653.05,799,658.05,802.22,658.05L802.22,658.05z"/>
	</g>
</g>
<g>
	<path class="st1" d="M300.44,683.92"/>
	<g>
		<path class="st1" d="M300.44,686.42c3.22,0,3.22-5,0-5C297.23,681.42,297.22,686.42,300.44,686.42L300.44,686.42z"/>
	</g>
</g>
<g>
	<path class="st1" d="M451.67,768.43"/>
	<g>
		<path class="st1" d="M451.67,770.93c3.22,0,3.22-5,0-5C448.45,765.93,448.45,770.93,451.67,770.93L451.67,770.93z"/>
	</g>
</g>
<g>
	<path class="st1" d="M416.28,609.91"/>
	<g>
		<path class="st1" d="M416.28,612.41c3.22,0,3.22-5,0-5C413.06,607.41,413.05,612.41,416.28,612.41L416.28,612.41z"/>
	</g>
</g>
<g>
	<path class="st1" d="M355.14,645.31"/>
	<g>
		<path class="st1" d="M355.14,647.81c3.22,0,3.22-5,0-5C351.93,642.81,351.92,647.81,355.14,647.81L355.14,647.81z"/>
	</g>
</g>
<g>
	<path class="st1" d="M158.87,642.09"/>
	<g>
		<path class="st1" d="M158.87,644.59c3.22,0,3.22-5,0-5C155.65,639.59,155.65,644.59,158.87,644.59L158.87,644.59z"/>
	</g>
</g>
<g>
	<path class="st1" d="M400.19,288.15"/>
	<g>
		<path class="st1" d="M400.19,290.65c3.22,0,3.22-5,0-5C396.97,285.65,396.97,290.65,400.19,290.65L400.19,290.65z"/>
	</g>
</g>
<g>
	<path class="st1" d="M329.4,513.38"/>
	<g>
		<path class="st1" d="M329.4,515.88c3.22,0,3.22-5,0-5C326.18,510.88,326.18,515.88,329.4,515.88L329.4,515.88z"/>
	</g>
</g>
<g>
	<path class="st1" d="M800.78,405.59"/>
	<g>
		<path class="st1" d="M800.78,408.09c3.22,0,3.22-5,0-5C797.57,403.09,797.56,408.09,800.78,408.09L800.78,408.09z"/>
	</g>
</g>
<g>
	<path class="st1" d="M910.18,336.42"/>
	<g>
		<path class="st1" d="M910.18,338.92c3.22,0,3.22-5,0-5C906.96,333.92,906.96,338.92,910.18,338.92L910.18,338.92z"/>
	</g>
</g>
<g>
	<path class="st1" d="M746.41,312.98"/>
	<g>
		<path class="st1" d="M746.41,315.48c3.22,0,3.22-5,0-5C743.19,310.48,743.19,315.48,746.41,315.48L746.41,315.48z"/>
	</g>
</g>
<g>
	<path class="st1" d="M878.13,766.66"/>
	<g>
		<path class="st1" d="M878.13,769.16c3.22,0,3.22-5,0-5C874.91,764.16,874.9,769.16,878.13,769.16L878.13,769.16z"/>
	</g>
</g>
<g>
	<g>
		<path class="st2" d="M560,542.16c3.22,0,3.22-5,0-5C556.78,537.16,556.77,542.16,560,542.16L560,542.16z"/>
	</g>
</g>
<g>
	<path class="st1" d="M531.04,423.83"/>
	<g>
		<path class="st1" d="M531.04,426.33c3.22,0,3.22-5,0-5C527.82,421.33,527.82,426.33,531.04,426.33L531.04,426.33z"/>
	</g>
</g>
<g>
	<path class="st1" d="M617.91,375.56"/>
	<g>
		<path class="st1" d="M617.91,378.06c3.22,0,3.22-5,0-5C614.7,373.06,614.69,378.06,617.91,378.06L617.91,378.06z"/>
	</g>
</g>
<g>
	<path class="st1" d="M614.7,525.18"/>
	<g>
		<path class="st1" d="M614.7,527.68c3.22,0,3.22-5,0-5C611.48,522.68,611.47,527.68,614.7,527.68L614.7,527.68z"/>
	</g>
</g>
<g>
	<path class="st1" d="M714.44,531.62"/>
	<g>
		<path class="st1" d="M714.44,534.12c3.22,0,3.22-5,0-5C711.23,529.12,711.22,534.12,714.44,534.12L714.44,534.12z"/>
	</g>
</g>
<g>
	<path class="st1" d="M767.53,616.88"/>
	<g>
		<path class="st1" d="M767.53,619.38c3.22,0,3.22-5,0-5C764.32,614.38,764.31,619.38,767.53,619.38L767.53,619.38z"/>
	</g>
</g>
<g>
	<path class="st1" d="M865.67,530.01"/>
	<g>
		<path class="st1" d="M865.67,532.51c3.22,0,3.22-5,0-5C862.45,527.51,862.45,532.51,865.67,532.51L865.67,532.51z"/>
	</g>
</g>
<g>
	<path class="st1" d="M942.89,639.41"/>
	<g>
		<path class="st1" d="M942.89,641.91c3.22,0,3.22-5,0-5C939.68,636.91,939.67,641.91,942.89,641.91L942.89,641.91z"/>
	</g>
</g>
<g>
	<path class="st1" d="M174.83,845.53"/>
	<g>
		<path class="st1" d="M174.83,848.03c3.22,0,3.22-5,0-5C171.62,843.03,171.61,848.03,174.83,848.03L174.83,848.03z"/>
	</g>
</g>
<g>
	<path class="st1" d="M509.81,469.08"/>
	<g>
		<path class="st1" d="M509.81,471.58c3.22,0,3.22-5,0-5C506.6,466.58,506.59,471.58,509.81,471.58L509.81,471.58z"/>
	</g>
</g>
<g>
	<path class="st1" d="M585.43,644.7"/>
	<g>
		<path class="st1" d="M585.43,647.2c3.22,0,3.22-5,0-5C582.21,642.2,582.2,647.2,585.43,647.2L585.43,647.2z"/>
	</g>
</g>
<g>
	<path class="st1" d="M243.94,415.42"/>
	<g>
		<path class="st1" d="M243.94,417.92c3.22,0,3.22-5,0-5C240.73,412.92,240.72,417.92,243.94,417.92L243.94,417.92z"/>
	</g>
</g>
<g>
	<path class="st1" d="M532.65,642.63"/>
	<g>
		<path class="st1" d="M532.65,645.13c3.22,0,3.22-5,0-5C529.43,640.13,529.43,645.13,532.65,645.13L532.65,645.13z"/>
	</g>
</g>
<g>
	<path class="st1" d="M699.96,575.06"/>
	<g>
		<path class="st1" d="M699.96,577.56c3.22,0,3.22-5,0-5C696.75,572.56,696.74,577.56,699.96,577.56L699.96,577.56z"/>
	</g>
</g>
<g>
	<path class="st1" d="M650.09,732.72"/>
	<g>
		<path class="st1" d="M650.09,735.22c3.22,0,3.22-5,0-5C646.87,730.22,646.87,735.22,650.09,735.22L650.09,735.22z"/>
	</g>
</g>
<g>
	<path class="st1" d="M506.91,661.93"/>
	<g>
		<path class="st1" d="M506.91,664.43c3.22,0,3.22-5,0-5C503.69,659.43,503.68,664.43,506.91,664.43L506.91,664.43z"/>
	</g>
</g>
<g>
	<path class="st1" d="M685.48,644.23"/>
	<g>
		<path class="st1" d="M685.48,646.73c3.22,0,3.22-5,0-5C682.27,641.73,682.26,646.73,685.48,646.73L685.48,646.73z"/>
	</g>
</g>
<g>
	<path class="st1" d="M952.11,297.53"/>
	<g>
		<path class="st1" d="M952.11,300.03c3.22,0,3.22-5,0-5C948.9,295.03,948.89,300.03,952.11,300.03L952.11,300.03z"/>
	</g>
</g>
<g>
	<path class="st1" d="M524.6,711.8"/>
	<g>
		<path class="st1" d="M524.6,714.3c3.22,0,3.22-5,0-5C521.39,709.3,521.38,714.3,524.6,714.3L524.6,714.3z"/>
	</g>
</g>
<g>
	<path class="st1" d="M445.77,687.67"/>
	<g>
		<path class="st1" d="M445.77,690.17c3.22,0,3.22-5,0-5C442.55,685.17,442.55,690.17,445.77,690.17L445.77,690.17z"/>
	</g>
</g>
<g>
	<path class="st1" d="M540.71,816.26"/>
	<g>
		<path class="st1" d="M540.71,818.76c3.22,0,3.22-5,0-5C537.49,813.76,537.49,818.76,540.71,818.76L540.71,818.76z"/>
	</g>
</g>
<g>
	<path class="st1" d="M713.08,835.77"/>
	<g>
		<path class="st1" d="M713.08,838.27c3.22,0,3.22-5,0-5C709.86,833.27,709.85,838.27,713.08,838.27L713.08,838.27z"/>
	</g>
</g>
<g>
	<path class="st1" d="M743.4,710.2"/>
	<g>
		<path class="st1" d="M743.4,712.7c3.22,0,3.22-5,0-5C740.18,707.7,740.18,712.7,743.4,712.7L743.4,712.7z"/>
	</g>
</g>
<g>
	<path class="st1" d="M823.65,591.85"/>
	<g>
		<path class="st1" d="M823.65,594.35c3.22,0,3.22-5,0-5C820.43,589.35,820.43,594.35,823.65,594.35L823.65,594.35z"/>
	</g>
</g>
<g>
	<path class="st1" d="M851.19,718.24"/>
	<g>
		<path class="st1" d="M851.19,720.74c3.22,0,3.22-5,0-5C847.97,715.74,847.97,720.74,851.19,720.74L851.19,720.74z"/>
	</g>
</g>
<g>
	<path class="st1" d="M815.8,817.99"/>
	<g>
		<path class="st1" d="M815.8,820.49c3.22,0,3.22-5,0-5C812.58,815.49,812.58,820.49,815.8,820.49L815.8,820.49z"/>
	</g>
</g>
<g>
	<path class="st1" d="M648.48,801.9"/>
	<g>
		<path class="st1" d="M648.48,804.4c3.22,0,3.22-5,0-5C645.26,799.4,645.26,804.4,648.48,804.4L648.48,804.4z"/>
	</g>
</g>
<g>
	<path class="st1" d="M805.76,759.34"/>
	<g>
		<path class="st1" d="M805.76,761.84c3.22,0,3.22-5,0-5C802.55,756.84,802.54,761.84,805.76,761.84L805.76,761.84z"/>
	</g>
</g>
<g>
	<path class="st1" d="M605.75,839.02"/>
	<g>
		<path class="st1" d="M605.75,841.52c3.22,0,3.22-5,0-5C602.54,836.52,602.53,841.52,605.75,841.52L605.75,841.52z"/>
	</g>
</g>
<g>
	<path class="st1" d="M584.13,753.63"/>
	<g>
		<path class="st1" d="M584.13,756.13c3.22,0,3.22-5,0-5C580.91,751.13,580.91,756.13,584.13,756.13L584.13,756.13z"/>
	</g>
</g>
<g>
	<path class="st1" d="M313.05,848.78"/>
	<g>
		<path class="st1" d="M313.05,851.28c3.22,0,3.22-5,0-5C309.84,846.28,309.83,851.28,313.05,851.28L313.05,851.28z"/>
	</g>
</g>
<g>
	<path class="st1" d="M453.71,844.71"/>
	<g>
		<path class="st1" d="M453.71,847.21c3.22,0,3.22-5,0-5C450.49,842.21,450.49,847.21,453.71,847.21L453.71,847.21z"/>
	</g>
</g>
<g>
	<path class="st1" d="M262.37,808.33"/>
	<g>
		<path class="st1" d="M262.37,810.83c3.22,0,3.22-5,0-5C259.15,805.83,259.15,810.83,262.37,810.83L262.37,810.83z"/>
	</g>
</g>
<g>
	<path class="st1" d="M196.41,740.76"/>
	<g>
		<path class="st1" d="M196.41,743.26c3.22,0,3.22-5,0-5C193.19,738.26,193.18,743.26,196.41,743.26L196.41,743.26z"/>
	</g>
</g>
<g>
	<path class="st1" d="M198.02,787.42"/>
	<g>
		<path class="st1" d="M198.02,789.92c3.22,0,3.22-5,0-5C194.8,784.92,194.79,789.92,198.02,789.92L198.02,789.92z"/>
	</g>
</g>
<g>
	<path class="st1" d="M337.98,731.11"/>
	<g>
		<path class="st1" d="M337.98,733.61c3.22,0,3.22-5,0-5C334.76,728.61,334.76,733.61,337.98,733.61L337.98,733.61z"/>
	</g>
</g>
<g>
	<path class="st1" d="M254.32,494.62"/>
	<g>
		<path class="st1" d="M254.32,497.12c3.22,0,3.22-5,0-5C251.11,492.12,251.1,497.12,254.32,497.12L254.32,497.12z"/>
	</g>
</g>
<g>
	<path class="st1" d="M424.86,494.62"/>
	<g>
		<path class="st1" d="M424.86,497.12c3.22,0,3.22-5,0-5C421.64,492.12,421.63,497.12,424.86,497.12L424.86,497.12z"/>
	</g>
</g>
<g>
	<path class="st1" d="M547.13,504.27"/>
	<g>
		<path class="st1" d="M547.13,506.77c3.22,0,3.22-5,0-5C543.91,501.77,543.9,506.77,547.13,506.77L547.13,506.77z"/>
	</g>
</g>
<path class="st3" d="M480.02,525.02c0,0-1.48,0.05-4.16,0.2c-19.37,1.06-101.53,7.26-142.34,37.41c-4.18,3.09-3.17,9.59,1.77,11.23
	h0c5.81,1.93,5.86,10.13,0.07,12.11c-31.13,10.65-92.42,36.51-120.47,82.32c-2.07,3.39-0.64,7.83,3.05,9.31l8.23,3.31
	c4.16,1.67,5.35,6.98,2.31,10.27c-16.19,17.49-57.28,64.61-55.19,90.07c2.64,32.1,105.92-0.65,133.05-13.78
	c3.56-1.72,7.8,0.19,8.9,3.98l2.77,9.53c1.01,3.47,4.69,5.42,8.13,4.29c15.12-4.97,54.82-18.74,89.79-37.13
	c4.82-2.54,10.4,1.77,9.19,7.09l-0.23,1.01c-1.27,5.58,4.87,9.9,9.68,6.8c21.83-14.06,67.55-49.92,107.69-123.08L480.02,525.02z"/>
<path class="st4" d="M525.18,610.33c-16.37,40.73-73.63,87.7-95.89,104.87c-2.89,2.23-6.95-0.5-5.97-4.02l0,0
	c0.9-3.25-2.57-5.96-5.51-4.32c-34.11,19.02-51.13,22.91-57.7,23.64c-1.88,0.21-3.62-1.02-4.08-2.86l-0.96-3.85
	c-0.54-2.17-2.83-3.4-4.94-2.66c-48.77,17.06-64.53,19.2-76.77,10.7c-10.2-7.09,19.14-43.62,30.5-57.07
	c1.88-2.22,0.65-5.65-2.21-6.18l-5.16-0.95c-2.52-0.47-3.88-3.26-2.67-5.52c16.76-31.14,55.16-46.07,75.63-52.04
	c3.64-1.06,3.65-6.21,0.01-7.28l-3.8-1.12c-3.15-0.93-3.73-5.17-0.92-6.87c47.52-28.88,134.17-33.87,134.17-33.87L525.18,610.33z"/>
<path class="st5" d="M518.55,598.13c-4.88,13.58-36.54,39.02-47.62,47.62c-1.2,0.93-2.9-0.22-2.47-1.69l0.01-0.02
	c0.42-1.41-1.15-2.56-2.38-1.75c-11.85,7.81-21.68,11.39-25.63,12.63c-0.96,0.3-1.94-0.37-2.03-1.37l-0.19-2.19
	c-0.09-1.07-1.22-1.74-2.2-1.3c-22.61,10.14-32.95,10.91-38.25,8.16c-4.55-2.36,10.36-20.57,15.41-26.53
	c0.74-0.88,0.32-2.23-0.79-2.53l-2.73-0.74c-0.88-0.24-1.37-1.17-1.08-2.03c3.32-10.05,25.87-21.28,35.29-25.6
	c1.35-0.62,1.17-2.58-0.27-2.95l-0.08-0.02c-1.34-0.34-1.61-2.11-0.44-2.86c20.23-12.91,55.62-18.03,62.09-18.88
	c0.63-0.08,1.24,0.22,1.55,0.77l11.67,19.98C518.65,597.23,518.71,597.7,518.55,598.13z"/>
<path class="st6" d="M933.58,356.64C618.6,262.81,527.04,509.98,527.04,509.98l52.13,98.1c0,0,256.08,62.44,354.58-251.11"/>
<circle class="st7" cx="745.18" cy="457.26" r="62.57"/>
<circle class="st8" cx="745.94" cy="456.85" r="47.86"/>
<polyline class="st8" points="527.4,510.64 474.67,514.2 546.98,650.28 579.44,608.58 "/>
<path class="st9" d="M720.32,344.36c0,0-130.76-38.76-227.95,83.47l74.11,16.57c35.46-49.82,87.67-83.13,152.65-100.09"/>
<path class="st9" d="M823.92,539.31c0,0-41.05,130.05-196.74,142.21l27.74-70.69c61.14-1.51,117.95-26.13,168.38-70.49"/>
<g>
	<path class="st1" d="M287.85,300.31"/>
	<g>
		<path class="st1" d="M287.85,302.81c3.22,0,3.22-5,0-5C284.63,297.81,284.63,302.81,287.85,302.81L287.85,302.81z"/>
	</g>
</g>
<g>
	<path class="st2" d="M902.66,96.75c26.94,0,48.77,21.84,48.77,48.77v788.13c0,26.94-21.84,48.77-48.77,48.77H205.89
		c-26.94,0-48.77-21.84-48.77-48.77V145.53c0-26.94,21.84-48.77,48.77-48.77H902.66 M902.66,35.75H205.89
		c-29.32,0-56.89,11.42-77.62,32.15s-32.15,48.3-32.15,77.62v788.13c0,29.32,11.42,56.89,32.15,77.62s48.3,32.15,77.62,32.15h696.77
		c29.32,0,56.89-11.42,77.62-32.15c20.73-20.73,32.15-48.3,32.15-77.62V145.53c0-29.32-11.42-56.89-32.15-77.62
		C959.55,47.17,931.99,35.75,902.66,35.75L902.66,35.75z"/>
</g>
<g>
	<path class="st1" d="M200.43,954.12"/>
	<g>
		<path class="st1" d="M200.43,956.62c3.22,0,3.22-5,0-5C197.21,951.62,197.21,956.62,200.43,956.62L200.43,956.62z"/>
	</g>
</g>
<g>
	<path class="st1" d="M252.46,239.89"/>
	<g>
		<path class="st1" d="M252.46,242.39c3.22,0,3.22-5,0-5C249.24,237.39,249.24,242.39,252.46,242.39L252.46,242.39z"/>
	</g>
</g>
<g>
	<path class="st1" d="M377.24,924.78"/>
	<g>
		<path class="st1" d="M377.24,927.28c3.22,0,3.22-5,0-5C374.03,922.28,374.02,927.28,377.24,927.28L377.24,927.28z"/>
	</g>
</g>
<g>
	<path class="st1" d="M485.41,892.73"/>
	<g>
		<path class="st1" d="M485.41,895.23c3.22,0,3.22-5,0-5C482.19,890.23,482.18,895.23,485.41,895.23L485.41,895.23z"/>
	</g>
</g>
<g>
	<path class="st1" d="M215.31,129.99"/>
	<g>
		<path class="st1" d="M215.31,132.49c3.22,0,3.22-5,0-5C212.1,127.49,212.09,132.49,215.31,132.49L215.31,132.49z"/>
	</g>
</g>
<g>
	<path class="st1" d="M922.69,186.54"/>
	<g>
		<path class="st1" d="M922.69,189.04c3.22,0,3.22-5,0-5C919.47,184.04,919.47,189.04,922.69,189.04L922.69,189.04z"/>
	</g>
</g>
<g>
	<path class="st1" d="M781.11,228.37"/>
	<g>
		<path class="st1" d="M781.11,230.87c3.22,0,3.22-5,0-5C777.9,225.87,777.89,230.87,781.11,230.87L781.11,230.87z"/>
	</g>
</g>
<g>
	<path class="st1" d="M782.66,934.43"/>
	<g>
		<path class="st1" d="M782.66,936.93c3.22,0,3.22-5,0-5C779.45,931.93,779.44,936.93,782.66,936.93L782.66,936.93z"/>
	</g>
</g>
<g>
	<path class="st1" d="M856.99,181.91"/>
	<g>
		<path class="st1" d="M856.99,184.41c3.22,0,3.22-5,0-5C853.77,179.41,853.76,184.41,856.99,184.41L856.99,184.41z"/>
	</g>
</g>
<g>
	<path class="st1" d="M572.81,888.26"/>
	<g>
		<path class="st1" d="M572.81,890.76c3.22,0,3.22-5,0-5C569.59,885.76,569.59,890.76,572.81,890.76L572.81,890.76z"/>
	</g>
</g>
<g>
	<path class="st1" d="M182.54,893.95"/>
	<g>
		<path class="st1" d="M182.54,896.45c3.22,0,3.22-5,0-5C179.33,891.45,179.32,896.45,182.54,896.45L182.54,896.45z"/>
	</g>
</g>
<g>
	<path class="st1" d="M859.89,889.38"/>
	<g>
		<path class="st1" d="M859.89,891.88c3.22,0,3.22-5,0-5C856.67,886.88,856.66,891.88,859.89,891.88L859.89,891.88z"/>
	</g>
</g>
<g>
	<path class="st1" d="M673.26,879.73"/>
	<g>
		<path class="st1" d="M673.26,882.23c3.22,0,3.22-5,0-5C670.05,877.23,670.04,882.23,673.26,882.23L673.26,882.23z"/>
	</g>
</g>
<g>
	<path class="st1" d="M502.73,960.17"/>
	<g>
		<path class="st1" d="M502.73,962.67c3.22,0,3.22-5,0-5C499.51,957.67,499.51,962.67,502.73,962.67L502.73,962.67z"/>
	</g>
</g>
<g>
	<path class="st1" d="M414.26,973.63"/>
	<g>
		<path class="st1" d="M414.26,976.13c3.22,0,3.22-5,0-5C411.05,971.13,411.04,976.13,414.26,976.13L414.26,976.13z"/>
	</g>
</g>
<g>
	<path class="st1" d="M333.77,966.31"/>
	<g>
		<path class="st1" d="M333.77,968.81c3.22,0,3.22-5,0-5C330.55,963.81,330.55,968.81,333.77,968.81L333.77,968.81z"/>
	</g>
</g>
<g>
	<path class="st1" d="M340.2,188.99"/>
	<g>
		<path class="st1" d="M340.2,191.49c3.22,0,3.22-5,0-5C336.98,186.49,336.97,191.49,340.2,191.49L340.2,191.49z"/>
	</g>
</g>
<g>
	<path class="st1" d="M725.49,239.79"/>
	<g>
		<path class="st1" d="M725.49,242.29c3.22,0,3.22-5,0-5C722.27,237.29,722.27,242.29,725.49,242.29L725.49,242.29z"/>
	</g>
</g>
<g>
	<path class="st1" d="M399.77,882.95"/>
	<g>
		<path class="st1" d="M399.77,885.45c3.22,0,3.22-5,0-5C396.55,880.45,396.54,885.45,399.77,885.45L399.77,885.45z"/>
	</g>
</g>
<g>
	<path class="st1" d="M789.16,130.23"/>
	<g>
		<path class="st1" d="M789.16,132.73c3.22,0,3.22-5,0-5C785.94,127.73,785.94,132.73,789.16,132.73L789.16,132.73z"/>
	</g>
</g>
<g>
	<path class="st1" d="M909.76,931.21"/>
	<g>
		<path class="st1" d="M909.76,933.71c3.22,0,3.22-5,0-5C906.54,928.71,906.54,933.71,909.76,933.71L909.76,933.71z"/>
	</g>
</g>
<g>
	<path class="st1" d="M745.99,907.77"/>
	<g>
		<path class="st1" d="M745.99,910.27c3.22,0,3.22-5,0-5C742.77,905.27,742.77,910.27,745.99,910.27L745.99,910.27z"/>
	</g>
</g>
<g>
	<path class="st1" d="M573.63,945.27"/>
	<g>
		<path class="st1" d="M573.63,947.77c3.22,0,3.22-5,0-5C570.41,942.77,570.41,947.77,573.63,947.77L573.63,947.77z"/>
	</g>
</g>
<g>
	<path class="st1" d="M617.49,970.36"/>
	<g>
		<path class="st1" d="M617.49,972.86c3.22,0,3.22-5,0-5C614.27,967.86,614.27,972.86,617.49,972.86L617.49,972.86z"/>
	</g>
</g>
<g>
	<path class="st1" d="M699.05,934.43"/>
	<g>
		<path class="st1" d="M699.05,936.93c3.22,0,3.22-5,0-5C695.83,931.93,695.83,936.93,699.05,936.93L699.05,936.93z"/>
	</g>
</g>
<g>
	<path class="st1" d="M874.02,119.98"/>
	<g>
		<path class="st1" d="M874.02,122.48c3.22,0,3.22-5,0-5C870.8,117.48,870.8,122.48,874.02,122.48L874.02,122.48z"/>
	</g>
</g>
<g>
	<path class="st1" d="M374.36,228.12"/>
	<g>
		<path class="st1" d="M374.36,230.62c3.22,0,3.22-5,0-5C371.14,225.62,371.14,230.62,374.36,230.62L374.36,230.62z"/>
	</g>
</g>
<g>
	<path class="st1" d="M854.05,254.64"/>
	<g>
		<path class="st1" d="M854.05,257.14c3.22,0,3.22-5,0-5C850.83,252.14,850.83,257.14,854.05,257.14L854.05,257.14z"/>
	</g>
</g>
<g>
	<path class="st1" d="M199.32,203.25"/>
	<g>
		<path class="st1" d="M199.32,205.75c3.22,0,3.22-5,0-5C196.1,200.75,196.09,205.75,199.32,205.75L199.32,205.75z"/>
	</g>
</g>
<g>
	<path class="st1" d="M556.82,202.74"/>
	<g>
		<path class="st1" d="M556.82,205.24c3.22,0,3.22-5,0-5C553.61,200.24,553.6,205.24,556.82,205.24L556.82,205.24z"/>
	</g>
</g>
<g>
	<path class="st1" d="M609.57,205.52"/>
	<g>
		<path class="st1" d="M609.57,208.02c3.22,0,3.22-5,0-5C606.35,203.02,606.35,208.02,609.57,208.02L609.57,208.02z"/>
	</g>
</g>
<g>
	<path class="st1" d="M852.34,957.66"/>
	<g>
		<path class="st1" d="M852.34,960.16c3.22,0,3.22-5,0-5C849.12,955.16,849.12,960.16,852.34,960.16L852.34,960.16z"/>
	</g>
</g>
<g>
	<path class="st1" d="M493.34,113.86"/>
	<g>
		<path class="st1" d="M493.34,116.36c3.22,0,3.22-5,0-5C490.13,111.36,490.12,116.36,493.34,116.36L493.34,116.36z"/>
	</g>
</g>
<g>
	<path class="st1" d="M635.57,186.56"/>
	<g>
		<path class="st1" d="M635.57,189.06c3.22,0,3.22-5,0-5C632.35,184.06,632.34,189.06,635.57,189.06L635.57,189.06z"/>
	</g>
</g>
<g>
	<path class="st1" d="M456.77,201.87"/>
	<g>
		<path class="st1" d="M456.77,204.37c3.22,0,3.22-5,0-5C453.55,199.37,453.55,204.37,456.77,204.37L456.77,204.37z"/>
	</g>
</g>
<g>
	<path class="st1" d="M951.69,892.32"/>
	<g>
		<path class="st1" d="M951.69,894.82c3.22,0,3.22-5,0-5C948.47,889.82,948.47,894.82,951.69,894.82L951.69,894.82z"/>
	</g>
</g>
<g>
	<path class="st1" d="M618.54,136.45"/>
	<g>
		<path class="st1" d="M618.54,138.95c3.22,0,3.22-5,0-5C615.32,133.95,615.32,138.95,618.54,138.95L618.54,138.95z"/>
	</g>
</g>
<g>
	<path class="st1" d="M697.04,161.64"/>
	<g>
		<path class="st1" d="M697.04,164.14c3.22,0,3.22-5,0-5C693.82,159.14,693.82,164.14,697.04,164.14L697.04,164.14z"/>
	</g>
</g>
<g>
	<path class="st1" d="M399.74,135.14"/>
	<g>
		<path class="st1" d="M399.74,137.64c3.22,0,3.22-5,0-5C396.52,132.64,396.52,137.64,399.74,137.64L399.74,137.64z"/>
	</g>
</g>
<g>
	<path class="st1" d="M317.91,252.39"/>
	<g>
		<path class="st1" d="M317.91,254.89c3.22,0,3.22-5,0-5C314.69,249.89,314.69,254.89,317.91,254.89L317.91,254.89z"/>
	</g>
</g>
<g>
	<path class="st1" d="M292.07,125.65"/>
	<g>
		<path class="st1" d="M292.07,128.15c3.22,0,3.22-5,0-5C288.85,123.15,288.84,128.15,292.07,128.15L292.07,128.15z"/>
	</g>
</g>
<g>
	<path class="st1" d="M287.43,895.1"/>
	<g>
		<path class="st1" d="M287.43,897.6c3.22,0,3.22-5,0-5C284.21,892.6,284.2,897.6,287.43,897.6L287.43,897.6z"/>
	</g>
</g>
</svg>
