<?xml version="1.0" encoding="utf-8"?>
<!-- Generator: Adobe Illustrator 27.3.1, SVG Export Plug-In . SVG Version: 6.00 Build 0)  -->
<svg version="1.1" id="Layer_1" xmlns="http://www.w3.org/2000/svg" xmlns:xlink="http://www.w3.org/1999/xlink" x="0px" y="0px"
	 viewBox="0 0 1080 1080" style="enable-background:new 0 0 1080 1080;" xml:space="preserve">
<style type="text/css">
	.st0{fill:#142728;}
	.st1{fill:#153035;}
	.st2{fill:#1E4249;}
	.st3{fill:#E5E5E4;stroke:#E5E5E4;stroke-miterlimit:10;}
	.st4{fill:#E5E5E4;}
	.st5{fill:#893C1D;}
	.st6{fill:#7A3417;}
	.st7{fill:#EEE0D8;stroke:#D7AF9D;stroke-width:3;stroke-miterlimit:10;}
	.st8{fill:#CEBBB3;stroke:#C2A79D;stroke-width:4;stroke-miterlimit:10;}
	.st9{fill:#1B140F;stroke:#000000;stroke-width:3;stroke-miterlimit:10;}
	.st10{fill:#D74928;stroke:#BB3B26;stroke-width:3;stroke-miterlimit:10;}
	.st11{fill:none;stroke:#1B140F;stroke-width:10;stroke-miterlimit:10;}
	.st12{fill:#EA803A;stroke:#CD6129;stroke-miterlimit:10;}
	.st13{fill:#D74928;stroke:#BB3B26;stroke-miterlimit:10;}
	.st14{fill:none;stroke:#A5391D;stroke-miterlimit:10;}
	.st15{fill:#EEE0D8;stroke:#D7AF9D;stroke-miterlimit:10;}
	.st16{fill:#D23C27;stroke:#A53A23;stroke-miterlimit:10;}
	.st17{fill:none;stroke:#B1AE9C;stroke-linecap:round;stroke-linejoin:round;stroke-miterlimit:10;}
	.st18{fill:#EFE8CC;stroke:#B5956A;stroke-miterlimit:10;}
	.st19{fill:#EFE8CC;stroke:#B5956A;stroke-linecap:round;stroke-linejoin:round;stroke-miterlimit:10;}
	.st20{fill:#FCE5D7;stroke:#C6B6B0;stroke-linecap:round;stroke-linejoin:round;stroke-miterlimit:10;}
	.st21{fill:none;stroke:#A53A23;stroke-miterlimit:10;}
	.st22{fill:#D23D27;stroke:#B5956A;stroke-miterlimit:10;}
	.st23{fill:#B4D5DD;stroke:#7CAFB5;stroke-linecap:round;stroke-miterlimit:10;}
	.st24{fill:#0E1A1C;stroke:#7CAFB5;stroke-linecap:round;stroke-miterlimit:10;}
	.st25{fill:none;stroke:#214144;stroke-width:3;stroke-linecap:round;stroke-linejoin:round;stroke-miterlimit:10;}
	.st26{fill:#1D4149;stroke:#11292D;stroke-width:3;stroke-linecap:round;stroke-linejoin:round;stroke-miterlimit:10;}
	.st27{fill:#2C6069;stroke:#224B4F;stroke-miterlimit:10;}
	.st28{fill:none;stroke:#9BC9CE;stroke-width:2;stroke-linecap:round;stroke-miterlimit:10;}
	.st29{fill:#D3E0E2;stroke:#BAD7D9;stroke-miterlimit:10;}
	.st30{fill:#ECDED8;stroke:#CEBAB3;stroke-miterlimit:10;}
	.st31{fill:#EFE8CC;stroke:#B1AE9C;stroke-miterlimit:10;}
	.st32{fill:none;stroke:#A8A694;stroke-miterlimit:10;}
	.st33{opacity:0.56;fill:#EFE8CC;stroke:#B1AE9C;stroke-miterlimit:10;}
	.st34{fill:#EEE0D8;}
	.st35{fill:#D7AF9D;}
	.st36{fill:#EFE8CC;}
	.st37{fill:#470000;stroke:#350000;stroke-miterlimit:10;}
	.st38{fill:none;stroke:#350000;stroke-miterlimit:10;}
	.st39{opacity:0.45;fill:#470000;stroke:#350000;stroke-miterlimit:10;}
	.st40{fill:#A9493B;stroke:#A53A23;stroke-miterlimit:10;}
	.st41{fill:#C75647;stroke:#A53A23;stroke-miterlimit:10;}
	.st42{fill:#2B190D;stroke:#000000;stroke-miterlimit:10;}
	.st43{fill:#B1AE9C;stroke:#9B9989;stroke-miterlimit:10;}
	.st44{fill:#EDDFD9;stroke:#CEBBB3;stroke-miterlimit:10;}
	.st45{fill:none;stroke:#75CEE2;stroke-width:2;stroke-linecap:round;stroke-linejoin:round;stroke-miterlimit:10;}
	.st46{fill:#1B140F;}
	.st47{fill:#0D1A1C;stroke:#75CEE2;stroke-width:2;stroke-miterlimit:10;}
	.st48{fill:#FFF1E7;}
</style>
<rect x="145.13" y="55.32" class="st0" width="837.68" height="67.73"/>
<rect x="145.13" y="122.05" class="st1" width="852.61" height="258.74"/>
<rect x="145.13" y="371.24" class="st2" width="852.61" height="218.55"/>
<path class="st3" d="M234.91,553.12"/>
<g>
	<path class="st4" d="M437.94,193.29"/>
	<g>
		<path class="st4" d="M437.94,195.79c3.22,0,3.22-5,0-5C434.72,190.79,434.72,195.79,437.94,195.79L437.94,195.79z"/>
	</g>
</g>
<g>
	<path class="st4" d="M999.77,334.59"/>
	<g>
		<path class="st4" d="M999.77,337.09c3.22,0,3.22-5,0-5C996.56,332.09,996.55,337.09,999.77,337.09L999.77,337.09z"/>
	</g>
</g>
<g>
	<path class="st4" d="M475.89,285.57"/>
	<g>
		<path class="st4" d="M475.89,288.07c3.22,0,3.22-5,0-5C472.67,283.07,472.66,288.07,475.89,288.07L475.89,288.07z"/>
	</g>
</g>
<g>
	<path class="st4" d="M580.03,291.7"/>
	<g>
		<path class="st4" d="M580.03,294.2c3.22,0,3.22-5,0-5C576.81,289.2,576.81,294.2,580.03,294.2L580.03,294.2z"/>
	</g>
</g>
<g>
	<path class="st4" d="M346.42,352.61"/>
	<g>
		<path class="st4" d="M346.42,355.11c3.22,0,3.22-5,0-5C343.2,350.11,343.2,355.11,346.42,355.11L346.42,355.11z"/>
	</g>
</g>
<g>
	<path class="st4" d="M305.39,548.7"/>
	<g>
		<path class="st4" d="M305.39,551.2c3.22,0,3.22-5,0-5C302.17,546.2,302.17,551.2,305.39,551.2L305.39,551.2z"/>
	</g>
</g>
<g>
	<path class="st4" d="M472.73,506.17"/>
	<g>
		<path class="st4" d="M472.73,508.67c3.22,0,3.22-5,0-5C469.51,503.67,469.51,508.67,472.73,508.67L472.73,508.67z"/>
	</g>
</g>
<g>
	<path class="st4" d="M1037.64,438.76"/>
	<g>
		<path class="st4" d="M1037.64,441.26c3.22,0,3.22-5,0-5C1034.43,436.26,1034.42,441.26,1037.64,441.26L1037.64,441.26z"/>
	</g>
</g>
<g>
	<path class="st4" d="M905.09,239.61"/>
	<g>
		<path class="st4" d="M905.09,242.11c3.22,0,3.22-5,0-5C901.88,237.11,901.87,242.11,905.09,242.11L905.09,242.11z"/>
	</g>
</g>
<g>
	<path class="st4" d="M782.01,187.53"/>
	<g>
		<path class="st4" d="M782.01,190.03c3.22,0,3.22-5,0-5C778.8,185.03,778.79,190.03,782.01,190.03L782.01,190.03z"/>
	</g>
</g>
<g>
	<path class="st4" d="M535.85,193.66"/>
	<g>
		<path class="st4" d="M535.85,196.16c3.22,0,3.22-5,0-5C532.63,191.16,532.63,196.16,535.85,196.16L535.85,196.16z"/>
	</g>
</g>
<g>
	<path class="st4" d="M258.05,266.83"/>
	<g>
		<path class="st4" d="M258.05,269.33c3.22,0,3.22-5,0-5C254.84,264.33,254.83,269.33,258.05,269.33L258.05,269.33z"/>
	</g>
</g>
<g>
	<path class="st4" d="M232.81,465.97"/>
	<g>
		<path class="st4" d="M232.81,468.47c3.22,0,3.22-5,0-5C229.59,463.47,229.58,468.47,232.81,468.47L232.81,468.47z"/>
	</g>
</g>
<g>
	<path class="st4" d="M251.74,156.53"/>
	<g>
		<path class="st4" d="M251.74,159.03c3.22,0,3.22-5,0-5C248.52,154.03,248.52,159.03,251.74,159.03L251.74,159.03z"/>
	</g>
</g>
<g>
	<path class="st4" d="M431.7,166.08"/>
	<g>
		<path class="st4" d="M431.7,168.58c3.22,0,3.22-5,0-5C428.49,163.58,428.48,168.58,431.7,168.58L431.7,168.58z"/>
	</g>
</g>
<g>
	<path class="st4" d="M188.62,371"/>
	<g>
		<path class="st4" d="M188.62,373.5c3.22,0,3.22-5,0-5C185.4,368.5,185.4,373.5,188.62,373.5L188.62,373.5z"/>
	</g>
</g>
<g>
	<path class="st4" d="M788.32,475.53"/>
	<g>
		<path class="st4" d="M788.32,478.03c3.22,0,3.22-5,0-5C785.11,473.03,785.1,478.03,788.32,478.03L788.32,478.03z"/>
	</g>
</g>
<g>
	<path class="st4" d="M621.06,107.87"/>
	<g>
		<path class="st4" d="M621.06,110.37c3.22,0,3.22-5,0-5C617.84,105.37,617.84,110.37,621.06,110.37L621.06,110.37z"/>
	</g>
</g>
<g>
	<path class="st4" d="M1002.93,555.19"/>
	<g>
		<path class="st4" d="M1002.93,557.69c3.22,0,3.22-5,0-5C999.71,552.69,999.71,557.69,1002.93,557.69L1002.93,557.69z"/>
	</g>
</g>
<g>
	<path class="st4" d="M453.79,444.89"/>
	<g>
		<path class="st4" d="M453.79,447.39c3.22,0,3.22-5,0-5C450.58,442.39,450.57,447.39,453.79,447.39L453.79,447.39z"/>
	</g>
</g>
<g>
	<path class="st4" d="M286.46,478.23"/>
	<g>
		<path class="st4" d="M286.46,480.73c3.22,0,3.22-5,0-5C283.24,475.73,283.23,480.73,286.46,480.73L286.46,480.73z"/>
	</g>
</g>
<g>
	<path class="st4" d="M311.7,328.1"/>
	<g>
		<path class="st4" d="M311.7,330.6c3.22,0,3.22-5,0-5C308.49,325.6,308.48,330.6,311.7,330.6L311.7,330.6z"/>
	</g>
</g>
<g>
	<path class="st4" d="M390.6,125.89"/>
	<g>
		<path class="st4" d="M390.6,128.39c3.22,0,3.22-5,0-5C387.39,123.39,387.38,128.39,390.6,128.39L390.6,128.39z"/>
	</g>
</g>
<g>
	<path class="st4" d="M321.17,291.34"/>
	<g>
		<path class="st4" d="M321.17,293.84c3.22,0,3.22-5,0-5C317.95,288.84,317.95,293.84,321.17,293.84L321.17,293.84z"/>
	</g>
</g>
<g>
	<path class="st4" d="M239.12,518.06"/>
	<g>
		<path class="st4" d="M239.12,520.56c3.22,0,3.22-5,0-5C235.9,515.56,235.89,520.56,239.12,520.56L239.12,520.56z"/>
	</g>
</g>
<g>
	<path class="st4" d="M198.09,147.34"/>
	<g>
		<path class="st4" d="M198.09,149.84c3.22,0,3.22-5,0-5C194.87,144.84,194.87,149.84,198.09,149.84L198.09,149.84z"/>
	</g>
</g>
<g>
	<path class="st4" d="M378.05,92.55"/>
	<g>
		<path class="st4" d="M378.05,95.05c3.22,0,3.22-5,0-5C374.83,90.05,374.83,95.05,378.05,95.05L378.05,95.05z"/>
	</g>
</g>
<g>
	<path class="st4" d="M434.79,272.95"/>
	<g>
		<path class="st4" d="M434.79,275.45c3.22,0,3.22-5,0-5C431.57,270.45,431.56,275.45,434.79,275.45L434.79,275.45z"/>
	</g>
</g>
<g>
	<path class="st4" d="M318.02,223.93"/>
	<g>
		<path class="st4" d="M318.02,226.43c3.22,0,3.22-5,0-5C314.8,221.43,314.79,226.43,318.02,226.43L318.02,226.43z"/>
	</g>
</g>
<g>
	<path class="st4" d="M485.35,187.53"/>
	<g>
		<path class="st4" d="M485.35,190.03c3.22,0,3.22-5,0-5C482.14,185.03,482.13,190.03,485.35,190.03L485.35,190.03z"/>
	</g>
</g>
<g>
	<path class="st4" d="M422.23,411.19"/>
	<g>
		<path class="st4" d="M422.23,413.69c3.22,0,3.22-5,0-5C419.02,408.69,419.01,413.69,422.23,413.69L422.23,413.69z"/>
	</g>
</g>
<g>
	<path class="st4" d="M570.56,481.66"/>
	<g>
		<path class="st4" d="M570.56,484.16c3.22,0,3.22-5,0-5C567.35,479.16,567.34,484.16,570.56,484.16L570.56,484.16z"/>
	</g>
</g>
<g>
	<path class="st4" d="M535.85,340.72"/>
	<g>
		<path class="st4" d="M535.85,343.22c3.22,0,3.22-5,0-5C532.63,338.22,532.63,343.22,535.85,343.22L535.85,343.22z"/>
	</g>
</g>
<g>
	<path class="st4" d="M475.89,374.42"/>
	<g>
		<path class="st4" d="M475.89,376.92c3.22,0,3.22-5,0-5C472.67,371.92,472.66,376.92,475.89,376.92L475.89,376.92z"/>
	</g>
</g>
<g>
	<path class="st4" d="M352.73,560.95"/>
	<g>
		<path class="st4" d="M352.73,563.45c3.22,0,3.22-5,0-5C349.51,558.45,349.51,563.45,352.73,563.45L352.73,563.45z"/>
	</g>
</g>
<g>
	<path class="st4" d="M374.82,318.91"/>
	<g>
		<path class="st4" d="M374.82,321.41c3.22,0,3.22-5,0-5C371.61,316.41,371.6,321.41,374.82,321.41L374.82,321.41z"/>
	</g>
</g>
<g>
	<path class="st4" d="M425.32,383.25"/>
	<g>
		<path class="st4" d="M425.32,385.75c3.22,0,3.22-5,0-5C422.1,380.75,422.1,385.75,425.32,385.75L425.32,385.75z"/>
	</g>
</g>
<g>
	<path class="st4" d="M239.12,367.93"/>
	<g>
		<path class="st4" d="M239.12,370.43c3.22,0,3.22-5,0-5C235.9,365.43,235.89,370.43,239.12,370.43L239.12,370.43z"/>
	</g>
</g>
<g>
	<path class="st4" d="M314.86,410.83"/>
	<g>
		<path class="st4" d="M314.86,413.33c3.22,0,3.22-5,0-5C311.64,408.33,311.64,413.33,314.86,413.33L314.86,413.33z"/>
	</g>
</g>
<g>
	<path class="st4" d="M450.64,248.81"/>
	<g>
		<path class="st4" d="M450.64,251.31c3.22,0,3.22-5,0-5C447.42,246.31,447.42,251.31,450.64,251.31L450.64,251.31z"/>
	</g>
</g>
<g>
	<path class="st4" d="M912.98,146.17"/>
	<g>
		<path class="st4" d="M912.98,148.67c3.22,0,3.22-5,0-5C909.77,143.67,909.76,148.67,912.98,148.67L912.98,148.67z"/>
	</g>
</g>
<g>
	<path class="st4" d="M676.81,273.83"/>
	<g>
		<path class="st4" d="M676.81,276.33c3.22,0,3.22-5,0-5C673.6,271.33,673.59,276.33,676.81,276.33L676.81,276.33z"/>
	</g>
</g>
<g>
	<path class="st4" d="M648.41,163.53"/>
	<g>
		<path class="st4" d="M648.41,166.03c3.22,0,3.22-5,0-5C645.19,161.03,645.19,166.03,648.41,166.03L648.41,166.03z"/>
	</g>
</g>
<g>
	<path class="st4" d="M733.62,117.57"/>
	<g>
		<path class="st4" d="M733.62,120.07c3.22,0,3.22-5,0-5C730.4,115.07,730.4,120.07,733.62,120.07L733.62,120.07z"/>
	</g>
</g>
<g>
	<path class="st4" d="M730.47,260.04"/>
	<g>
		<path class="st4" d="M730.47,262.54c3.22,0,3.22-5,0-5C727.25,257.54,727.24,262.54,730.47,262.54L730.47,262.54z"/>
	</g>
</g>
<g>
	<path class="st4" d="M828.3,266.17"/>
	<g>
		<path class="st4" d="M828.3,268.67c3.22,0,3.22-5,0-5C825.08,263.67,825.08,268.67,828.3,268.67L828.3,268.67z"/>
	</g>
</g>
<g>
	<path class="st4" d="M880.37,347.36"/>
	<g>
		<path class="st4" d="M880.37,349.86c3.22,0,3.22-5,0-5C877.16,344.86,877.15,349.86,880.37,349.86L880.37,349.86z"/>
	</g>
</g>
<g>
	<path class="st4" d="M976.63,264.64"/>
	<g>
		<path class="st4" d="M976.63,267.14c3.22,0,3.22-5,0-5C973.41,262.14,973.41,267.14,976.63,267.14L976.63,267.14z"/>
	</g>
</g>
<g>
	<path class="st4" d="M990.85,260.04"/>
	<g>
		<path class="st4" d="M990.85,262.54c3.22,0,3.22-5,0-5C987.64,257.54,987.63,262.54,990.85,262.54L990.85,262.54z"/>
	</g>
</g>
<g>
	<path class="st4" d="M649.99,371.87"/>
	<g>
		<path class="st4" d="M649.99,374.37c3.22,0,3.22-5,0-5C646.77,369.37,646.77,374.37,649.99,374.37L649.99,374.37z"/>
	</g>
</g>
<g>
	<path class="st4" d="M814.1,307.53"/>
	<g>
		<path class="st4" d="M814.1,310.03c3.22,0,3.22-5,0-5C810.88,305.03,810.88,310.03,814.1,310.03L814.1,310.03z"/>
	</g>
</g>
<g>
	<path class="st4" d="M765.18,457.66"/>
	<g>
		<path class="st4" d="M765.18,460.16c3.22,0,3.22-5,0-5C761.96,455.16,761.96,460.16,765.18,460.16L765.18,460.16z"/>
	</g>
</g>
<g>
	<path class="st4" d="M624.74,390.25"/>
	<g>
		<path class="st4" d="M624.74,392.75c3.22,0,3.22-5,0-5C621.52,387.75,621.52,392.75,624.74,392.75L624.74,392.75z"/>
	</g>
</g>
<g>
	<path class="st4" d="M799.9,373.4"/>
	<g>
		<path class="st4" d="M799.9,375.9c3.22,0,3.22-5,0-5C796.68,370.9,796.67,375.9,799.9,375.9L799.9,375.9z"/>
	</g>
</g>
<g>
	<path class="st4" d="M750.98,427.02"/>
	<g>
		<path class="st4" d="M750.98,429.52c3.22,0,3.22-5,0-5C747.76,424.52,747.76,429.52,750.98,429.52L750.98,429.52z"/>
	</g>
</g>
<g>
	<path class="st4" d="M642.1,437.74"/>
	<g>
		<path class="st4" d="M642.1,440.24c3.22,0,3.22-5,0-5C638.88,435.24,638.88,440.24,642.1,440.24L642.1,440.24z"/>
	</g>
</g>
<g>
	<path class="st4" d="M564.78,414.76"/>
	<g>
		<path class="st4" d="M564.78,417.26c3.22,0,3.22-5,0-5C561.56,412.26,561.56,417.26,564.78,417.26L564.78,417.26z"/>
	</g>
</g>
<g>
	<path class="st4" d="M597.92,526.59"/>
	<g>
		<path class="st4" d="M597.92,529.09c3.22,0,3.22-5,0-5C594.7,524.09,594.69,529.09,597.92,529.09L597.92,529.09z"/>
	</g>
</g>
<g>
	<path class="st4" d="M833.03,485.23"/>
	<g>
		<path class="st4" d="M833.03,487.73c3.22,0,3.22-5,0-5C829.82,482.73,829.81,487.73,833.03,487.73L833.03,487.73z"/>
	</g>
</g>
<g>
	<path class="st4" d="M856.7,436.21"/>
	<g>
		<path class="st4" d="M856.7,438.71c3.22,0,3.22-5,0-5C853.49,433.71,853.48,438.71,856.7,438.71L856.7,438.71z"/>
	</g>
</g>
<g>
	<path class="st4" d="M894.57,405.57"/>
	<g>
		<path class="st4" d="M894.57,408.07c3.22,0,3.22-5,0-5C891.36,403.07,891.35,408.07,894.57,408.07L894.57,408.07z"/>
	</g>
</g>
<g>
	<path class="st4" d="M962.43,443.87"/>
	<g>
		<path class="st4" d="M962.43,446.37c3.22,0,3.22-5,0-5C959.21,441.37,959.2,446.37,962.43,446.37L962.43,446.37z"/>
	</g>
</g>
<g>
	<path class="st4" d="M927.71,538.85"/>
	<g>
		<path class="st4" d="M927.71,541.35c3.22,0,3.22-5,0-5C924.49,536.35,924.49,541.35,927.71,541.35L927.71,541.35z"/>
	</g>
</g>
<g>
	<path class="st4" d="M763.6,523.53"/>
	<g>
		<path class="st4" d="M763.6,526.03c3.22,0,3.22-5,0-5C760.39,521.03,760.38,526.03,763.6,526.03L763.6,526.03z"/>
	</g>
</g>
<g>
	<path class="st4" d="M883.53,531.19"/>
	<g>
		<path class="st4" d="M883.53,533.69c3.22,0,3.22-5,0-5C880.31,528.69,880.31,533.69,883.53,533.69L883.53,533.69z"/>
	</g>
</g>
<g>
	<path class="st4" d="M769.91,583.27"/>
	<g>
		<path class="st4" d="M769.91,585.77c3.22,0,3.22-5,0-5C766.7,580.77,766.69,585.77,769.91,585.77L769.91,585.77z"/>
	</g>
</g>
<g>
	<path class="st4" d="M705.22,537.32"/>
	<g>
		<path class="st4" d="M705.22,539.82c3.22,0,3.22-5,0-5C702,534.82,702,539.82,705.22,539.82L705.22,539.82z"/>
	</g>
</g>
<g>
	<path class="st4" d="M700.48,477.57"/>
	<g>
		<path class="st4" d="M700.48,480.07c3.22,0,3.22-5,0-5C697.27,475.07,697.26,480.07,700.48,480.07L700.48,480.07z"/>
	</g>
</g>
<g>
	<path class="st4" d="M482.72,549.57"/>
	<g>
		<path class="st4" d="M482.72,552.07c3.22,0,3.22-5,0-5C479.51,547.07,479.5,552.07,482.72,552.07L482.72,552.07z"/>
	</g>
</g>
<g>
	<path class="st4" d="M582.14,572.55"/>
	<g>
		<path class="st4" d="M582.14,575.05c3.22,0,3.22-5,0-5C578.92,570.05,578.91,575.05,582.14,575.05L582.14,575.05z"/>
	</g>
</g>
<g>
	<path class="st4" d="M411.21,588.5"/>
	<g>
		<path class="st4" d="M411.21,591c3.22,0,3.22-5,0-5C407.99,586,407.99,591,411.21,591L411.21,591z"/>
	</g>
</g>
<g>
	<path class="st4" d="M385.96,424.58"/>
	<g>
		<path class="st4" d="M385.96,427.08c3.22,0,3.22-5,0-5C382.75,422.08,382.74,427.08,385.96,427.08L385.96,427.08z"/>
	</g>
</g>
<g>
	<path class="st4" d="M296.02,585.43"/>
	<g>
		<path class="st4" d="M296.02,587.93c3.22,0,3.22-5,0-5C292.8,582.93,292.8,587.93,296.02,587.93L296.02,587.93z"/>
	</g>
</g>
<g>
	<path class="st4" d="M351.68,438.91"/>
	<g>
		<path class="st4" d="M351.68,441.41c3.22,0,3.22-5,0-5C348.46,436.41,348.46,441.41,351.68,441.41L351.68,441.41z"/>
	</g>
</g>
<g>
	<path class="st4" d="M346.51,524.16"/>
	<g>
		<path class="st4" d="M346.51,526.66c3.22,0,3.22-5,0-5C343.3,521.66,343.29,526.66,346.51,526.66L346.51,526.66z"/>
	</g>
</g>
<g>
	<path class="st4" d="M348.09,568.58"/>
	<g>
		<path class="st4" d="M348.09,571.08c3.22,0,3.22-5,0-5C344.88,566.08,344.87,571.08,348.09,571.08L348.09,571.08z"/>
	</g>
</g>
<g>
	<path class="st4" d="M459.05,456.13"/>
	<g>
		<path class="st4" d="M459.05,458.63c3.22,0,3.22-5,0-5C455.84,453.63,455.83,458.63,459.05,458.63L459.05,458.63z"/>
	</g>
</g>
<g>
	<path class="st4" d="M377,230.93"/>
	<g>
		<path class="st4" d="M377,233.43c3.22,0,3.22-5,0-5C373.78,228.43,373.78,233.43,377,233.43L377,233.43z"/>
	</g>
</g>
<g>
	<path class="st4" d="M544.26,230.93"/>
	<g>
		<path class="st4" d="M544.26,233.43c3.22,0,3.22-5,0-5C541.05,228.43,541.04,233.43,544.26,233.43L544.26,233.43z"/>
	</g>
</g>
<g>
	<path class="st4" d="M664.19,240.13"/>
	<g>
		<path class="st4" d="M664.19,242.63c3.22,0,3.22-5,0-5C660.97,237.63,660.97,242.63,664.19,242.63L664.19,242.63z"/>
	</g>
</g>
<g>
	<path class="st4" d="M219.59,450.66"/>
	<g>
		<path class="st4" d="M219.59,453.16c3.22,0,3.22-5,0-5C216.37,448.16,216.37,453.16,219.59,453.16L219.59,453.16z"/>
	</g>
</g>
<g>
	<path class="st4" d="M235.37,508.87"/>
	<g>
		<path class="st4" d="M235.37,511.37c3.22,0,3.22-5,0-5C232.15,506.37,232.15,511.37,235.37,511.37L235.37,511.37z"/>
	</g>
</g>
<g>
	<path class="st4" d="M184.87,567.08"/>
	<g>
		<path class="st4" d="M184.87,569.58c3.22,0,3.22-5,0-5C181.66,564.58,181.65,569.58,184.87,569.58L184.87,569.58z"/>
	</g>
</g>
<rect x="145.13" y="588.77" class="st5" width="852.71" height="343.15"/>
<rect x="145.58" y="746.07" class="st6" width="852.71" height="227.44"/>
<path class="st7" d="M736.91,100.09c-306.38,310.98-73.53,572.43-73.53,572.43h147.56c0,0,232.85-261.45-73.53-572.43"/>
<circle class="st8" cx="737.51" cy="383.8" r="83.11"/>
<circle class="st9" cx="737.51" cy="382.65" r="63.57"/>
<polyline class="st9" points="664.38,672.52 635.7,736.58 840.38,736.58 811.7,672.52 "/>
<path class="st10" d="M589.59,342.58c0,0-126.96,129.22-44.18,319.4l65.62-76.6c-36.34-72.65-42.87-154.64-22.26-241.44"/>
<path class="st10" d="M882.83,342.58c0,0,126.96,129.22,44.18,319.4l-65.62-76.6c36.34-72.65,42.87-154.64,22.26-241.44"/>
<line class="st11" x1="966.81" y1="678.28" x2="1023.25" y2="734.73"/>
<path class="st12" d="M303.25,627.24c0,0,1.95,28.42-18.65,38.21l-35.39-5.77c-16.42-15.83-5.54-42.16-5.54-42.16l-0.01-0.3
	c-0.04-20.31,17.57-51.21,17.57-51.21c34.89,28.73,49.2,27.08,49.2,27.08c0.36,12.96-0.99,26.86-7.29,33.63L303.25,627.24"/>
<path class="st13" d="M317.47,583.68l4.16-104.82c-13.25,3.3-17.58,11.31-17.58,11.31l-49.38,63.01
	c-5.48,6.33,43.83,44.01,59.76,39.72l2.78-8.94L317.47,583.68z"/>
<path class="st14" d="M319.18,538.81c0,0-7.8-7.52-9.29-16.64"/>
<path class="st14" d="M316.01,555.93c0,0-4.91,0.21-5.74,8.2"/>
<path class="st12" d="M300.1,619.73c2.13,1.69,3.5,3.86,4.26,6.37"/>
<path class="st15" d="M401.03,949.38c0,0,30.38-8.17,31.91,16.85c1.53,25.02-68.68,18.38-68.68,18.38s-12.51-2.55-6.64-24.26
	c5.87-21.7,5.11-21.19,5.11-21.19l34.21,2.55l7.66,14.55"/>
<path class="st15" d="M293.37,942.49c-2.38-4.09,4.77-21.79,4.77-21.79l33.36,1.7c0,0,9.19,43.57-6.47,42.89s-26.55,0.34-26.55,0.34
	c-24.25-16.01-8.28-39.84-3.06-37.79"/>
<path class="st12" d="M293.19,741.72c0,0-18.85,75.14-13.32,91.44l-7.34,50.44c0,0-1.17,29.98,21.66,38.33
	c22.84,8.35,38.72,3.13,38.72,3.13s8.15-4.05,11.48-16.23l7.34-50.44c9.95-14.04,13.32-91.44,13.32-91.44l0.34-2.4
	c2.65-18.8,4.21-37.34,4.88-46.16l0.15-2.11c0,0-44.82-8.24-67.99-22.59c0,0-22.02,96.46-8.73,102.24"/>
<path class="st12" d="M341.13,880.35c0,0-35.74,10.79-51.11-20.5"/>
<path class="st12" d="M338.83,795.08c0,0-3.47,14.05-31.06,10.66"/>
<path class="st12" d="M437.64,748.24c0,0,10.13,85.85,0,102.93v56.77c0,0-4.09,33.23-34.91,38.77c-30.82,5.54-50.2-2.77-50.2-2.77
	s-9.69-5.77-11.68-19.73v-56.77c-10.13-17.08,0-102.93,0-102.93l0.01-2.7c0.12-21.15,1.58-41.83,2.36-51.67l0.21-2.35
	c0,0,58.97-1.88,91.34-13.99c0,0,10.22,109.86-7.89,114.09"/>
<path class="st12" d="M347.9,904.44c0,0,43.78,18.4,69.32-15.02"/>
<path class="st16" d="M398.69,562.79c0,0-35.66,6.69-76.95,0.12"/>
<path class="st17" d="M349.25,709.48c0.72-0.76,0.97-4.43,1-8.98"/>
<path class="st13" d="M407.01,488.58c-0.01,1.14,40.58,41.01,32.28,69.15c-8.31,28.14-1.29,152.44-1.29,152.44
	s-139.79,2.72-142.83-5.6c-3.04-8.32,7.84-53.66,7.84-53.66s4.24-90.11-1.17-108.68s10.41-66.51,26.2-70.97
	C343.83,466.82,407.01,488.58,407.01,488.58z"/>
<path class="st18" d="M439.99,542.85c-0.49,0.72-1.87,2.34-5.14,3.72c0,0-3.56,2.63-3.9,3.69c-0.35,1.06-0.64,0.75-0.64,0.75
	s-0.6-2.48,0.47-4.07c1.08-1.59-0.69-0.71-0.69-0.71l-3.21,6.42c0,0-1.46,1.99-1.51-0.69c-0.05-2.68,0.49-7.35,0.49-7.35
	s-0.82-4.4-1.9-0.24s-0.66,10.44-0.66,10.44s-0.07,4.96-1.82,1.37c0,0-2.12-7.06-4.14-7.26c-2.03-0.2-1.7,1.72-1.7,1.72l3.76,5.64
	c0,0,1.62,4.36-1.9,1.42c0,0-2.9-4.4-8.78-5.8c-5.88-1.41-3.01,3.05-3.01,3.05s6.68,0.26,8.34,3.59c0,0,3.23,2.66,0.07,3.19
	c0,0-2.3-0.36-3.14-0.73s-10.29,0.4-10.29,0.4s-4.78,3.1-7.85,0.66s-4.56-7.17-4.56-7.17s-1.88-7.59,3.59-11.68s4.8-6.48,4.8-6.48
	s0.44-4.93,9.54-3.72c9.11,1.2,12.39,13.23,12.39,13.23s1.31,4.74,1.93,0c0.62-4.74-0.97-7.77-0.97-7.77s-4.34-2.74-3.5-8.21
	c0.84-5.47,0.6-8.54,4.05-9.8c0,0,6.37-0.11,9.2-0.8c0.34-0.08,0.67-0.13,1-0.14"/>
<path class="st18" d="M413.51,567.42c0,0-3.8,0.3,0.4,3.04h1.75c0,0,5.46,0.04,2.46,2.55c-3,2.5-7.5,4.61-7.5,4.61
	s-7.12,4.15-1.64,4.68c5.47,0.53,8.79-5.86,8.79-5.86s3.86-5.01,1.42,2.26c-2.44,7.27-3.18,7.87-1.92,9.03s4.02-6.05,4.02-6.05
	s-0.25-6.91,1.92-6.56c2.16,0.36,0.74,8.53,0.74,8.53l-0.11,9.2c0,0-1.11,9.92-7.53,12.1c-6.42,2.18-6.75,1.09-9.92-2.72
	c0,0-8.65,3.97-13.08-7.61s-1.46-17.78-1.46-17.78s1.44-2.79,2.75-2.78c0.02,0,0.05,0,0.07,0l-0.07-0.41c0,0-1.12-6.94,4.9-8.98
	c6.02-2.04,9.14-1.42,9.14-1.42s9.89,0.67,10.96,2.93s-5.83,1.25-5.83,1.25H413.51z"/>
<path class="st19" d="M439.98,545.67c-14.72,8.71-16.78,20.48-16.78,20.48s-0.16,6.27,3.78,1.27c0,0,2.6-11.32,13.01-19.12"/>
<path class="st19" d="M438.99,558.78c-1.2,0.34-2.07,0.66-2.07,0.66c-7.66,5.2,0-3.61,0-3.61s1.23-1.34,3.03-2.72"/>
<path class="st19" d="M437.63,565.77c-2.82,0.08-0.91-1.68,0.47-2.73"/>
<path class="st19" d="M436.73,574.68c-0.6-0.21-1.25-0.38-1.95-0.51c-4.85-0.91-0.49-3.12,2.32-4.29"/>
<path class="st19" d="M436.09,582.01c-0.59-1.1-1.26-2.09-1.26-2.09c-1.34-2.81,0.04-2.24,1.47-1.23"/>
<path class="st19" d="M435.29,608.93c-4.16,0.48-11.87-0.37-8.61-14.34l-0.05-0.38c0,0-1.26-9.69,0-16.2
	c1.26-6.51,2.3-0.11,2.3-0.11l0.88,7.5c2.13,4.43,2.35,0.49,2.35,0.49s-1.75-11.88,0-6.84c1.75,5.04,3.34,5.53,3.34,5.53
	c0.16,0.08,0.31,0.15,0.45,0.2"/>
<path class="st20" d="M400.38,641.62c0,0-2.06,4.47-1.91-0.31s2.21-7.52,2.21-7.52s4.73-2,4.78-7.54c0.05-5.54,0.78-8.53-2.42-10.32
	c0,0-6.27-1.13-8.95-2.27c-2.68-1.14-5.84,0.43-5.84,0.43s-3.94,2.72-5.57,6.12c-1.63,3.4-1.3,4.34-1.3,4.34s-4.54,4.62-1.72,9.89
	c0,0,0.62,2.39,4.63,4.92c0,0,3.09,3.17,3.26,4.27c0.17,1.1,0.51,0.84,0.51,0.84s0.99-2.35,0.19-4.09c-0.81-1.74,0.8-0.59,0.8-0.59
	l2.13,6.86c0,0,1.12,2.2,1.61-0.44s0.7-7.34,0.7-7.34s1.52-4.21,1.91,0.07c0.39,4.28-1.03,10.41-1.03,10.41s-0.73,4.91,1.58,1.64
	c0,0,3.23-6.63,5.26-6.5c2.03,0.13,1.4,1.97,1.4,1.97l-4.62,4.96c0,0-2.31,4.04,1.64,1.71c0,0,3.57-3.87,9.6-4.31
	c6.03-0.44,2.48,3.49,2.48,3.49s-6.63-0.82-8.81,2.2c0,0-3.62,2.11-0.59,3.14c0,0,2.33,0.01,3.22-0.21
	c0.89-0.22,10.09,2.05,10.09,2.05s4.22,3.83,7.64,1.91c3.42-1.92,5.66-6.34,5.66-6.34s3.08-7.19-1.67-12.1
	c-4.74-4.92-3.69-7.17-3.69-7.17s0.36-4.93-8.82-5.21C405.56,630.29,400.38,641.62,400.38,641.62z"/>
<path class="st20" d="M417.12,673.29c0,0,2.76-6.39-2.85-9.38c-5.61-2.98-8.79-2.88-8.79-2.88s-9.87-0.93-11.29,1.12
	s5.55,2.17,5.55,2.17l0.26,0.04c0,0,3.71,0.91-0.88,2.93l-1.73-0.28c0,0-5.4-0.84-2.84,2.12s6.66,5.76,6.66,5.76
	s6.36,5.24,0.87,4.88c-5.49-0.36-7.73-7.2-7.73-7.2s-3-5.57-1.77,2c1.23,7.56,1.87,8.28,0.44,9.22c-1.43,0.95-3-6.62-3-6.62
	s1.36-6.78-0.83-6.78c-2.19,0-2.1,8.3-2.1,8.3l-1.37,9.09c0,0-0.5,9.97,5.48,13.15c5.98,3.18,6.48,2.17,10.23-1.09
	c0,0,7.9,5.31,14.14-5.4c6.24-10.71,4.31-17.31,4.31-17.31s-0.97-2.99-2.27-3.19c-0.02,0-0.05-0.01-0.07-0.01L417.12,673.29z"/>
<path class="st20" d="M394.55,484.47c3.37,8.5,1.5,12.2,1.5,12.2s-3.39,7.02-10.94,0.7l-0.28-0.25c0,0-13.56-0.21-1.6,2.54
	c11.96,2.75,6.76,15.83,6.76,15.83s7.91,16.59-9.95,17.21l-0.32,0.07c0,0-14.02,8.13-13.77-11.15l-0.14-0.36
	c0,0-3.31-9.19-3.48-15.83c-0.17-6.63,2.22-0.6,2.22-0.6l2.47,7.14c3.04,3.87,2.4-0.02,2.4-0.02s-4.26-11.23-1.47-6.68
	s4.45,4.68,4.45,4.68c4.04,1.02-1.64-4.4-1.64-4.4c-3.36-4.31,3.7-0.25,3.7-0.25c6.57,5.9,5.15-0.85,5.15-0.85s-3.29-4.71-10.14-4.5
	c-6.85,0.22,3.09-5.84,3.09-5.84c7.92-1.18,6.58-1.95,6.58-1.95s0.43-4.69-6.71-1.72c-7.14,2.97-1.23-3.04-1.23-3.04
	s5.63-0.4,5.67-4.05c0.04-3.65-8.47,1.75-8.47,1.75c-6.37,6.73-0.78-3.53-0.78-3.53s1.11-1.91,2.84-3.84"/>
<path class="st20" d="M371.21,632.44c21.05,13.27,20.28,30.04,20.28,30.04s-1.2,6.15-3.96,0.42c0,0-0.13-19.56-18.55-29.5
	c0,0,1.6,7.93-3.74,6.74c0,0-3.01,0.68-0.87-5.91c0,0-4.53,7.01-6.92,2.38c-2.39-4.63,5.06-7.12,5.06-7.12s-6.51-2.01-4.4-5.92
	c2.1-3.91,6.25-0.63,6.25-0.63l1.7,2.45c0,0,0.85-8.61,4.78-4.09c3.93,4.52-0.8,5.6-0.8,5.6s4.04-2.02,4.51,1.4
	s-3.01,3.93-3.01,3.93L371.21,632.44z"/>
<path class="st20" d="M369.48,700.76c0,0,14.77,6.67,12.58-12.49l0.1-0.37c0,0,2.36-9.48,1.86-16.1c-0.5-6.62-2.27-0.37-2.27-0.37
	l-1.73,7.35c-2.63,4.16-2.39,0.22-2.39,0.22s3.11-11.6,0.79-6.8c-2.32,4.8-3.95,5.11-3.95,5.11c-3.91,1.42,1.19-4.55,1.19-4.55
	c2.9-4.62-3.71,0.12-3.71,0.12c-5.94,6.53-5.21-0.33-5.21-0.33s2.8-5.02,9.63-5.5s-3.66-5.49-3.66-5.49c-8-0.37-6.74-1.28-6.74-1.28
	s-0.9-4.62,6.5-2.39c7.4,2.23,0.91-3.15,0.91-3.15s-5.64,0.17-6.05-3.45c-0.41-3.63,8.6,0.89,8.6,0.89
	c7.02,6.05,0.42-3.59,0.42-3.59s-6.66-9.15-12.06-6.3s-6.73,2.42-6.73,2.42s-4.97,0.13-7.62,9.17s-0.36,12.61-0.36,12.61
	s4.08,6.64,10.96-0.42l0.25-0.27c0,0,13.47-1.58,1.85,2.36c-11.62,3.95-5.13,16.44-5.13,16.44s-6.19,17.3,11.64,16.11L369.48,700.76
	z"/>
<path class="st20" d="M351.94,473.02c0.11,0.02-0.01,0.24-0.01,0.37c-0.11,4.3,1.71,10.32,1.71,10.32s1.05,4.85-1.47,1.74
	c0,0-3.65-6.4-5.67-6.14s-1.27,2.05-1.27,2.05l4.93,4.65c0,0,2.57,3.88-1.53,1.81c0,0-3.82-3.63-9.86-3.67s-2.25,3.65-2.25,3.65
	s6.56-1.26,8.93,1.62c0,0,3.75,1.87,0.79,3.09c0,0-2.32,0.16-3.22,0c-0.9-0.17-9.94,2.71-9.94,2.71s-3.96,4.1-7.5,2.41
	c-3.54-1.69-6.06-5.96-6.06-5.96s-3.54-6.97,0.87-12.19c2.4-2.84,3.14-4.78,3.32-5.96C323.73,473.52,328.66,468.25,351.94,473.02z"
	/>
<path class="st20" d="M358.13,474.61l-1.49,6.19c0,0-0.97,2.27-1.63-0.33c-0.52-2.06-0.96-5.43-1.11-6.73"/>
<path class="st20" d="M346.95,498.21c0,0-3.64,1.15,1.07,2.87l1.71-0.39c0,0,5.33-1.19,2.97,1.92c-2.36,3.12-6.27,6.18-6.27,6.18
	s-6,5.64-0.54,4.93c5.45-0.71,7.24-7.69,7.24-7.69s2.63-5.75,1.9,1.88c-0.73,7.63-1.32,8.38,0.17,9.23c1.49,0.85,2.56-6.8,2.56-6.8
	s-1.8-6.68,0.39-6.82c2.19-0.14,2.64,8.14,2.64,8.14l1.97,8.98c0,0,1.16,9.92-4.61,13.48s-6.33,2.59-10.28-0.42
	c0,0-7.53,5.82-14.46-4.46c-6.93-10.28-5.43-16.99-5.43-16.99s0.78-3.04,2.05-3.33c0.02,0,0.04-0.01,0.07-0.01l-0.16-0.38
	c0,0-2.66-6.51,2.75-9.85s8.59-3.45,8.59-3.45s9.79-1.58,11.34,0.38s-5.4,2.53-5.4,2.53L346.95,498.21z"/>
<path class="st20" d="M363.66,475.6c-8.04,10.13-7.56,19.18-7.56,19.18s1.25,6.14,3.97,0.39c0,0-0.02-9.59,6.28-18.81"/>
<path class="st21" d="M361.56,475.17c3.03,0.73,6.08,1.52,9.1,2.33"/>
<path class="st21" d="M353.89,473.43c2.51,0.53,5.08,1.12,7.68,1.75"/>
<path class="st18" d="M304.54,574.86c1.31,1.13,2.35,2.09,2.35,2.09s4.04,1.93,1.31-1.39c-1-1.22-2.35-2.45-3.66-3.51"/>
<path class="st20" d="M303.72,553.66c1.73-2.49,4.44-6.92,4.44-6.92s0.31-5.69,4.09-6.73s8.48,0.54,8.48,0.54s7.24,2.96,7.32,9.79
	c0.08,6.83,2.41,7.69,2.41,7.69s3.72,3.26-2.62,9.9c-6.34,6.65-17.99,2.21-17.99,2.21s-4.61-1.73-1.14,1.56
	c3.47,3.3,6.85,3.8,6.85,3.8s4.77-1.9,8.7,2.01c3.93,3.9,6.54,5.52,5.53,9.05c0,0-3.66,5.21-4.77,7.9
	c-1.11,2.69-4.46,3.79-4.46,3.79s-4.72,0.83-8.26-0.45c-3.54-1.27-3.97-2.17-3.97-2.17s-1.74-0.03-3.66-0.85"/>
<path class="st22" d="M303.92,562.24c1.94-0.37,4.66-1.27,7.18-3.42c4.6-3.92-0.69-4.23-0.69-4.23s-3.13,3.96-6.36,4.59"/>
<path class="st22" d="M304.42,567.77c1.71,0.33,3.41,0.44,4.01-0.24c1.36-1.52-0.39-2.38-0.39-2.38l-3.69-0.16"/>
<path class="st20" d="M300.79,530.32c0.07,0.1,0.1,0.16,0.1,0.16s1.4,2.81,0.63,3.86c-0.01,0.02-0.03,0.04-0.04,0.05l0.37,0.18
	c0,0,6.27,3.18,4.37,9.25c-1.05,3.35-2.23,5.5-3.08,6.76"/>
<path class="st20" d="M296.07,687.4c0.33,0.07,0.91-0.18,1.9-1.01c0,0,2.9-4.4,8.78-5.8c5.88-1.41,3.01,3.05,3.01,3.05
	s-6.68,0.26-8.34,3.59c0,0-3.23,2.66-0.07,3.19c0,0,2.3-0.36,3.14-0.73c0.84-0.36,10.29,0.4,10.29,0.4s4.78,3.1,7.85,0.66
	s4.56-7.17,4.56-7.17s1.88-7.59-3.59-11.68c-5.47-4.09-4.8-6.48-4.8-6.48s-0.44-4.93-9.54-3.72c-5.12,0.68-8.4,4.78-10.29,8.24"/>
<path class="st22" d="M297.63,677.8c0.17-0.1,0.33-0.16,0.5-0.18c2.03-0.2,1.7,1.72,1.7,1.72l-3.36,5.04"/>
<polyline class="st12" points="396.92,475.94 346.23,456.06 346.23,449.8 396.92,453.01 396.92,455.33 396.92,475.94 "/>
<path class="st23" d="M436.65,593.19l10.18-1.69c1.69-0.28,2.83-1.88,2.55-3.57l-3.96-23.89c-0.28-1.69-1.88-2.83-3.57-2.55
	l-10.18,1.69c-1.69,0.28-2.83,1.88-2.55,3.57l3.96,23.89C433.36,592.32,434.96,593.47,436.65,593.19z"/>
<path class="st23" d="M441.12,561.04l-0.78-4.71c-0.19-1.14-1.11-1.94-2.06-1.78l-5.16,0.85c-0.95,0.16-1.57,1.21-1.38,2.35
	l0.78,4.71"/>
<path class="st24" d="M456.89,586.19c1.2-0.2,1.41-4.95,0.47-10.62c-0.94-5.67-2.67-10.1-3.87-9.9"/>
<polyline class="st23" points="456.98,586.19 449.36,587.45 445.95,566.86 453.51,565.61 "/>
<path class="st25" d="M441.88,575.41c0,0,0.49-73.53-76.47-104.9"/>
<path class="st20" d="M324.47,709.23c-0.26-2.43-0.86-3.68-0.86-3.68s-1.44-2.79-2.75-2.78c-0.02,0-0.05,0-0.07,0l0.07-0.41
	c0,0,1.12-6.94-4.9-8.98c-6.02-2.04-9.14-1.42-9.14-1.42s-9.89,0.67-10.96,2.93c-1.07,2.26,5.83,1.25,5.83,1.25h0.26
	c0,0,3.8,0.3-0.4,3.04h-1.75c0,0-5.46,0.04-2.46,2.55s7.5,4.61,7.5,4.61s1.13,0.66,2.14,1.48"/>
<path class="st22" d="M304.54,574.86c1.31,1.13,2.35,2.09,2.35,2.09s4.04,1.93,1.31-1.39c-1-1.22-2.35-2.45-3.66-3.51"/>
<path class="st21" d="M370.67,477.5c18.87,5.06,36.34,11.08,36.34,11.08c-0.01,1.14,40.58,41.01,32.28,69.15
	c-8.31,28.14-1.29,152.44-1.29,152.44s-139.79,2.72-142.83-5.6c-3.04-8.32,7.84-53.66,7.84-53.66s4.24-90.11-1.17-108.68
	s10.41-66.51,26.2-70.97c5.02-1.41,14.82-0.18,25.85,2.15"/>
<path class="st26" d="M427.79,692.05c-35.13,5.51-89.4,9.42-132.97-7.82l0.52,14.71c9.37,6.37,42.15,10.78,42.15,10.78
	c28.65,7.35,83.78,0.39,83.78,0.39s2.43-0.33,6.15-0.93"/>
<path class="st27" d="M446.51,722.33c-0.19,1.49-1.45,2.61-2.95,2.61h-4.38l-0.72-0.02c-5.99,0-11.71-4.85-11.71-10.84V692.9
	c0-0.9,0.73-1.63,1.63-1.63h14.88c1.44,0,2.68,1.03,2.92,2.45C446.98,698.27,448.27,708.8,446.51,722.33z"/>
<path class="st27" d="M446.45,694l1.86,0.01c0.07-0.01,0.15-0.01,0.22-0.01c3.92,0,7.15,7.64,7.15,16.92
	c0,9.11-3.11,16.67-6.96,16.91h-2.45c-3.85-0.24-6.96-7.8-6.96-16.91C439.3,701.63,442.53,694,446.45,694c0.07,0,0.15,0,0.22,0.01"
	/>
<line class="st28" x1="448.45" y1="704.07" x2="445.21" y2="704.07"/>
<path class="st29" d="M447.59,703.7h0.45c0.82,0,1.48,0.66,1.48,1.48v6.91c0,0.82-0.66,1.48-1.48,1.48h-0.45
	c-0.82,0-1.48-0.66-1.48-1.48v-6.91C446.11,704.37,446.77,703.7,447.59,703.7z"/>
<path class="st15" d="M418.27,709.73c0.03-4.51-0.17-9.87-0.37-14.1c-0.4-8.48,5.23-12.21,5.23-12.21l20.34,0.24
	c0,0,12.73,7.41,12.73,26.29c0,18.87-16.18,24.51-16.18,24.51l-0.28,0.11c-6.4,6.89-14.71,0.95-14.71,0.95s-1.35-0.93-1.63-2.19
	l-0.41,0c-4.26,0.03-8.45-1.02-11.1-6.21l-0.12-0.2c-2.13-0.99-3.84-3.06-4.16-7.02c-0.97-11.89,10.11-10.23,10.11-10.23
	L418.27,709.73z"/>
<path class="st15" d="M411.78,726.92c4.26,1.98,10.21-0.33,10.21-0.33s6.87-3.2,10.03-20.88"/>
<path class="st15" d="M423,733.32c5.48-0.04,10.65-2.69,11.33-3.51c0,0,5.58-4.62,8.65-18.77"/>
<path class="st15" d="M451.54,711.05c0,0-4.42,13.95-10.91,22.46c-0.29,0.38-0.59,0.73-0.89,1.05"/>
<path class="st13" d="M330.97,471.27c-1.81,0.61,1.94-4.33,1.94-4.33s-0.34-5.58,2.05-11.73c2.39-6.15,24.04,1.41,24.04,1.41
	s57.65,23.66,51.15,29.13l-7.18,8.98c0,0-0.46,1.74-5.35-2.42S348.63,465.35,330.97,471.27z"/>
<path class="st12" d="M366.75,806.71c0,0,1.82,16.75,37.81,17.47"/>
<path class="st12" d="M377.85,577.93c0.66,22.65,3.36,47.15,11.16,59.72l-0.08,0.91l-0.11,0.59c0,0-2.39,33.24,20.93,45.07
	l40.19-6.13c18.73-18.25,6.54-49.26,6.54-49.26l0.01-0.36c0.17-23.78-19.63-60.26-19.63-60.26"/>
<path class="st12" d="M447.83,685.03l-33.17,5.06c-1.16,0.18-2.24-0.62-2.41-1.77l-0.37-2.41c-0.18-1.16,0.62-2.24,1.77-2.41
	l33.17-5.06c1.16-0.18,2.24,0.62,2.41,1.77l0.37,2.41C449.78,683.77,448.99,684.85,447.83,685.03z"/>
<path class="st13" d="M433.36,517.67c0,0-19.77-34.39-55.94-11.66c0,0-21.51,10.86-11.56,45.83l4.64,34.4
	c-0.05-3.87,55.17-17.98,75.13-11.59C445.63,574.65,440.56,522.55,433.36,517.67z"/>
<path class="st14" d="M558.99,639.62"/>
<polygon class="st30" points="330.58,463.5 421.82,452.33 418.1,423.16 326.85,434.32 "/>
<path class="st31" d="M368.11,445.48"/>
<path class="st32" d="M365.6,385.64"/>
<path class="st32" d="M365.6,385.64"/>
<path class="st33" d="M322.59,409.61l-0.01,0.62c-0.11,1.67-0.09,3.35,0.11,5.05l2.35,19.59l2.95,24.6"/>
<g>
	<path class="st34" d="M272.94,692.93"/>
	<g>
		<path class="st35" d="M272.94,695.43c3.22,0,3.22-5,0-5C269.72,690.43,269.72,695.43,272.94,695.43L272.94,695.43z"/>
	</g>
</g>
<g>
	<g>
		<path class="st36" d="M275.79,687.3c3.22,0,3.22-5,0-5C272.57,682.3,272.57,687.3,275.79,687.3L275.79,687.3z"/>
	</g>
</g>
<path class="st37" d="M279.99,705.82l-27.92,89.11l-8.63-2.71l27.92-89.11l1.36-4.27l1.42-4.52c0.51-1.62-0.95-3.53-3.27-4.25
	l-19.8-6.21c-2.31-0.72-4.6,0-5.11,1.63l-1.42,4.52l-1.52,4.54l-27.72,88.46l-8.63-2.71l27.72-88.46l0.42-1.52l3.42-10.93
	c1.15-3.66,4.97-5.72,8.53-4.6l32.65,10.23c3.56,1.12,5.52,4.99,4.38,8.65l-3.42,10.93L279.99,705.82z"/>
<path class="st38" d="M274.13,694.32c0.51-1.62-0.95-3.53-3.27-4.25"/>
<path class="st15" d="M283.68,688.82c0-1.34-0.11-2.89-0.36-4.69c-2.04-14.47-4.26-15.32-4.26-15.32l-27.74-2.21
	c0,0-14.04,10.47-8.94,23.36l0.85,1.83c1.83,7.02,5.82,6.72,5.82,6.72s4.91,5.92,7.93,4.73v-0.17c4.96,4.39,9.7,4.12,13.73,1.7
	l3.07-9.4l-0.61-0.35c-4.41-6.27-0.76-10.23,1.06-11.67c0.51-0.41,0.88-0.61,0.88-0.61"/>
<path class="st15" d="M266.44,706.57c0.94-0.08,1.48-0.59,1.8-1.18c0.47-0.87,0.15-1.95-0.7-2.46c-2.22-1.33-6.98-5.01-7.92-12.59"
	/>
<path class="st17" d="M230.74,644.23c1,1.06,2.15,1.93,3.49,2.45c1.64,0.64,2.74,0.84,3.46,0.78"/>
<path class="st15" d="M252.34,691.57c0,0,1.35,7.73,5.48,12.14"/>
<path class="st15" d="M248.44,691.15c0,0,0.81,6.22,1.51,8"/>
<line class="st39" x1="188.98" y1="724.17" x2="180.35" y2="721.47"/>
<polyline class="st38" points="270.05,707.1 272.72,698.84 274.13,694.32 "/>
<path class="st37" d="M275.15,683.72l4.26,1.31c3.56,1.12,5.52,4.99,4.38,8.65"/>
<path class="st12" d="M282.47,671.89l-33.11-5.4c-1.15-0.19-1.94-1.28-1.75-2.43l0.39-2.41c0.19-1.15,1.28-1.94,2.43-1.75l33.11,5.4
	c1.15,0.19,1.94,1.28,1.75,2.43l-0.39,2.41C284.72,671.29,283.63,672.07,282.47,671.89z"/>
<path class="st40" d="M223.98,953.59l-80.81-24.99c-13.81-4.27-21.54-18.93-17.27-32.74l37.65-121.77
	c4.27-13.81,18.93-21.54,32.74-17.27l80.82,24.99c13.81,4.27,21.54,18.93,17.27,32.74l-37.65,121.77
	C252.45,950.13,237.79,957.86,223.98,953.59z"/>
<path class="st41" d="M218.31,945.65l-80.81-24.99c-13.81-4.27-21.54-18.93-17.27-32.74l37.65-121.77
	c4.27-13.81,18.93-21.54,32.74-17.27l80.81,24.99c13.81,4.27,21.54,18.93,17.27,32.74l-37.65,121.77
	C246.77,942.19,232.12,949.92,218.31,945.65z"/>
<circle class="st42" cx="135.19" cy="936.19" r="11.73"/>
<circle class="st43" cx="135.19" cy="936.19" r="3.56"/>
<circle class="st42" cx="228.6" cy="964.17" r="11.73"/>
<circle class="st43" cx="228.6" cy="964.17" r="3.56"/>
<circle class="st42" cx="213.31" cy="958.87" r="11.73"/>
<circle class="st43" cx="213.31" cy="958.87" r="3.56"/>
<circle class="st43" cx="120.41" cy="925.07" r="3.56"/>
<polygon class="st44" points="328.17,462.67 423.08,450.36 419.98,421.61 325.07,433.91 "/>
<path class="st32" d="M-80.42,336.46"/>
<path class="st32" d="M382.55,380.01"/>
<path class="st44" d="M422.71,446.36l-2.42-24.25l-0.04-0.09l-1.89-19.22c-0.14-1.44-0.43-2.83-0.81-4.19l-0.31-1.26
	c0,0-11.89-38.16-51.32-33.05l0.23-0.03c-39.42,5.11-43.51,45.34-43.51,45.34l-0.02,0.61c-0.14,1.65-0.16,3.31,0,4.98l1.92,19.31
	l2.42,24.25"/>
<path class="st45" d="M394.29,377.68l-35.85,25.26c0,0-0.34,2.02,0.38,2.81"/>
<path class="st46" d="M422.38,434.07c-15.5-1.99-19.87-6.57-20.31-8.9l-2.94-18.76c-1.42-9.04,1.84-17.87,8.5-25.13l0.29-0.01
	c6.85,8.44,9.59,16.74,9.59,16.74l0.34,1.28c0.41,1.38,0.73,2.79,0.91,4.25l2.31,19.5l0.04,0.09l1.64,13.71"/>
<path class="st44" d="M375.9,463.13c-27.97,3.22-39.86,2.35-44.93,1.75c-4.07-0.48-3.69-2.93-3.69-2.93l-0.32-3.18
	c0,0,17.11,2.16,47.81-2.14l0.91-0.12c30.77-3.66,47.01-10.15,47.01-10.15l0.32,3.18c0,0,0.85,2.29-3.02,3.8
	c-4.83,1.88-16.23,5.77-44.13,9.79"/>
<path class="st30" d="M422.38,434.07c-15.5-1.99-19.87-6.57-20.31-8.9l-2.94-18.76c-1.42-9.04,1.84-17.87,8.5-25.13
	c0.48-1.49-1.38-1.97-1.38-1.97c-7.74,8.08-11.71,17.98-10.15,27.96l3.17,20.25c0,0,3.78,7.47,23.39,9.33
	C422.93,437.15,423.88,434.26,422.38,434.07z"/>
<path class="st47" d="M393.05,366.13l2.75,4.82c0.5,0.88,0.67,1.68,0.46,2.12l-1.19,2.42c-0.55,1.12,1.34,3.96,3.19,4.82l4.02,1.85
	c0.74,0.34,1.57,1.06,2.22,1.92l3.58,4.73c1.65,2.18,3.86,2.88,3.74,1.18l-0.26-3.68c-0.05-0.67,0.3-1.02,0.92-0.93l3.4,0.5
	c1.57,0.23,1.05-2.18-0.88-4.08l-4.18-4.12c-0.77-0.75-1.39-1.69-1.66-2.5l-1.48-4.42c-0.68-2.04-3.21-4.23-4.29-3.71l-2.32,1.13
	c-0.43,0.21-1.15-0.02-1.94-0.61l-4.32-3.23C392.83,362.85,391.78,363.91,393.05,366.13z"/>
<g>
	<path class="st48" d="M915.88,82.26c26.94,0,48.77,21.84,48.77,48.77v788.13c0,26.94-21.84,48.77-48.77,48.77H219.11
		c-26.94,0-48.77-21.84-48.77-48.77V131.03c0-26.94,21.84-48.77,48.77-48.77H915.88 M915.88,21.26H219.11
		c-29.32,0-56.89,11.42-77.62,32.15c-20.73,20.73-32.15,48.3-32.15,77.62v788.13c0,29.32,11.42,56.89,32.15,77.62
		s48.3,32.15,77.62,32.15h696.77c29.32,0,56.89-11.42,77.62-32.15c20.73-20.73,32.15-48.3,32.15-77.62V131.03
		c0-29.32-11.42-56.89-32.15-77.62S945.2,21.26,915.88,21.26L915.88,21.26z"/>
</g>
</svg>
