<?xml version="1.0" encoding="utf-8"?>
<!-- Generator: Adobe Illustrator 27.4.0, SVG Export Plug-In . SVG Version: 6.00 Build 0)  -->
<svg version="1.1" id="Layer_1" xmlns="http://www.w3.org/2000/svg" xmlns:xlink="http://www.w3.org/1999/xlink" x="0px" y="0px"
	 viewBox="0 0 1800 576" style="enable-background:new 0 0 1800 576;" xml:space="preserve">
<style type="text/css">
	.st0{fill:none;stroke:#AA5517;stroke-miterlimit:10;}
	.st1{fill:#54B6CC;}
	.st2{fill:none;stroke:#4799AC;stroke-width:5;stroke-miterlimit:10;}
	.st3{fill:#EDE0D8;stroke:#D7AE9D;stroke-miterlimit:10;}
	.st4{fill:#EA8039;stroke:#CD6028;stroke-miterlimit:10;}
	.st5{fill:#D13C27;stroke:#A53A23;stroke-miterlimit:10;}
	.st6{fill:#D74727;stroke:#BA3A26;stroke-miterlimit:10;}
	.st7{fill:none;stroke:#3D52A3;stroke-linecap:round;stroke-linejoin:round;stroke-miterlimit:10;}
	.st8{fill:none;stroke:#B5956A;stroke-miterlimit:10;}
	.st9{fill:none;stroke:#B5956A;stroke-linecap:round;stroke-linejoin:round;stroke-miterlimit:10;}
	.st10{fill:#ECDED8;stroke:#CEBAB2;stroke-miterlimit:10;}
	.st11{fill:none;stroke:#A5391D;stroke-miterlimit:10;}
	.st12{fill:none;stroke:#81C241;stroke-linecap:round;stroke-linejoin:round;stroke-miterlimit:10;}
	.st13{fill:none;stroke:#BA3A26;stroke-miterlimit:10;}
	.st14{fill:none;stroke:#A8A594;stroke-miterlimit:10;}
	.st15{fill:#EEE7CB;stroke:#B4956A;stroke-miterlimit:10;}
	.st16{fill:none;stroke:#B1AE9B;stroke-miterlimit:10;}
	.st17{fill:#1D4149;stroke:#11292D;stroke-width:3;stroke-linecap:round;stroke-linejoin:round;stroke-miterlimit:10;}
	.st18{fill:none;stroke:#74CDE1;stroke-width:2;stroke-linecap:round;stroke-linejoin:round;stroke-miterlimit:10;}
	.st19{fill:#FDE6D8;stroke:#C6B6B0;stroke-linecap:round;stroke-linejoin:round;stroke-miterlimit:10;}
	.st20{fill:#FDE6D8;stroke:#FDE6D8;stroke-miterlimit:10;}
</style>
<path class="st0" d="M1577.3,250.4"/>
<path class="st1" d="M55.7,531.9h1688.6c17.6,0,31.9-14.3,31.9-31.9V73.7c0-17.6-14.3-31.9-31.9-31.9H55.7
	C38,41.7,23.7,56,23.7,73.7V500C23.7,517.6,38,531.9,55.7,531.9z"/>
<path class="st2" d="M55.7,531.9h1688.6c17.6,0,31.9-14.3,31.9-31.9V73.7c0-17.6-14.3-31.9-31.9-31.9H55.7
	C38,41.7,23.7,56,23.7,73.7V500C23.7,517.6,38,531.9,55.7,531.9z"/>
<path class="st3" d="M97.6,531c-3.2-13.9,6-14.1,6-14.1l8,9.8c1,1.2,2.3,2,3.8,2.3c2.8,0.5,7.3,0.7,8.7-2.4c1.2-2.6,0.3-5-0.7-6.5
	c-0.6-0.9-1.4-1.7-2.3-2.3c-2.2-1.4-8.9-6.5-18-21.2l-38-0.1c0,0-7.9,18.3-7.6,33.8C70.8,531.2,84.2,531,97.6,531z"/>
<path class="st3" d="M69,530.8l-0.4-7.5c-0.4,3.3-0.6,5.7-0.7,7.5C68.3,530.8,68.6,530.8,69,530.8z"/>
<path class="st3" d="M92.8,528.1c0,0-15.3,4.1-26-5.9"/>
<path class="st3" d="M358.3,527.4c2.5,0.3,5,0.9,7.4,1.7c0.3,0,0.5-0.1,0.7-0.1c1.5-0.3,2.8-1.1,3.8-2.3l8-9.8c0,0,8.2,0.1,6.4,11.9
	c6.3-0.5,12.6-0.3,18.9,0.4c3.8,0.4,7.5,1,11.3,1.4c3.2-0.4,6.3-0.7,9.5-0.8c0.2-15.4-7.6-33.3-7.6-33.3l-38,0.1
	c-9.1,14.7-15.7,19.7-18,21.2c-0.9,0.6-1.7,1.3-2.3,2.3c-1,1.5-1.8,3.9-0.7,6.5C358,526.9,358.2,527.1,358.3,527.4z"/>
<path class="st3" d="M414,530.7c-0.1-1.8-0.3-4.1-0.7-7.4l-0.4,7.5C413.3,530.8,413.6,530.7,414,530.7z"/>
<path class="st3" d="M389.1,528.1c0,0,15.3,4.1,26-5.9"/>
<path class="st4" d="M373.9,496.6h45.9c1.2,0,2.1-0.9,2.1-2.1v-4.6c0-1.2-0.9-2.1-2.1-2.1h-45.9c-1.2,0-2.1,0.9-2.1,2.1v4.6
	C371.8,495.7,372.7,496.6,373.9,496.6z"/>
<path class="st4" d="M373.9,496.6h45.9c1.2,0,2.1-0.9,2.1-2.1v-4.6c0-1.2-0.9-2.1-2.1-2.1h-45.9c-1.2,0-2.1,0.9-2.1,2.1v4.6
	C371.8,495.7,372.7,496.6,373.9,496.6z"/>
<path class="st5" d="M239.4,241.5"/>
<line class="st5" x1="203.9" y1="255.2" x2="203.9" y2="255.4"/>
<path class="st5" d="M195.7,224.7"/>
<path class="st6" d="M437.7,347.1l-51.2-93.1c0,0-4.9-14.2-26.8-20.8l-62.9-15.7l-6.1-1.4l-96.3-0.7l-9.1,2.1l-62.9,15.7
	c-21.9,6.6-26.8,20.8-26.8,20.8l-51.2,93.1c-5.8,9.5,66.8,48.3,86.7,39.2l1.7-12.3l-1.7,152.3c0,0,1.6,0.6,4.6,1.7
	c4.1,0,8.2,0.5,12.1,1.7c0.3,0.1,0.6,0.2,0.9,0.3c12.8,0.5,25.9-1.3,38.7-0.9c18,0.5,35.9,0.6,53.9,0.2c18.7-0.5,37.3-1.1,56-1.2
	c16.8-0.1,33.6,0.6,50.3-0.5c2.2-0.8,3.4-1.2,3.4-1.2l-1.7-152.3l1.7,12.3C370.9,395.4,443.5,356.6,437.7,347.1z"/>
<line class="st5" x1="279.8" y1="255.5" x2="279.8" y2="255.4"/>
<path class="st5" d="M244.4,241.5"/>
<path class="st5" d="M241.9,243.6"/>
<path class="st7" d="M314.7,224.5"/>
<path class="st8" d="M167.2,514.6"/>
<path class="st9" d="M273.7,381.5"/>
<path class="st7" d="M353,439.3"/>
<path class="st8" d="M287.3,513.3"/>
<path class="st8" d="M141.6,292.3"/>
<polygon class="st10" points="302.9,197.5 179.9,197.5 180.2,158.5 303.2,158.5 "/>
<path class="st8" d="M75.2,350.8"/>
<path class="st7" d="M371,272.3"/>
<path class="st10" d="M303.9,159.2"/>
<path class="st11" d="M239.4,241.5"/>
<path class="st11" d="M207,254.4"/>
<path class="st11" d="M246.1,241.5"/>
<path class="st12" d="M134.5,374.3"/>
<path class="st6" d="M128.4,315.6c0,0-11.6-8.5-15.2-20.2"/>
<path class="st6" d="M129.7,333.8c0,0-6.5,0.3-7.6,10.9"/>
<path class="st10" d="M242.3,180.3"/>
<path class="st10" d="M303.9,159.2V133c0-2.3-0.2-4.5-0.6-6.7l-0.1-0.8c0,0-10.4-53.1-61.4-53.1h0.3c-51.1,0-61.4,53.1-61.4,53.1
	l-0.2,1.7c-0.3,1.9-0.5,3.8-0.5,5.7l0,26.1l0,0.1v32.9"/>
<path class="st5" d="M185.3,217.5"/>
<path class="st11" d="M239.4,241.5"/>
<path class="st11" d="M207,254.4"/>
<path class="st11" d="M246.1,241.5"/>
<path class="st11" d="M276.7,254.4"/>
<path class="st11" d="M237.7,241.5"/>
<path class="st11" d="M207,254.4"/>
<path class="st11" d="M246.1,241.5"/>
<path class="st11" d="M276.7,254.4"/>
<path class="st11" d="M237.7,241.5"/>
<path class="st6" d="M213.5,201.1l-14.5,0l-4.4,9.2c0,0-0.2,2.1-0.2,3.6l0,0.5c0,2,0.3,4.6,1.1,7.1l0.3,0.4c0,0,34.5,5.5,92.3,0
	l0.4-0.4c0.8-2.5,1-5.1,1.1-7.1l0-0.5c-0.1-1.5-0.2-3.6-0.2-3.6l-4.4-9.2l-14.5,0"/>
<path class="st10" d="M241.9,206.4c36.2-0.5,51.3-3.8,57.7-5.4c5.1-1.3,4.3-4.6,4.3-4.6v-4.3c0,0-21.6,5.9-61.4,5.4h-1.2
	c-39.8,0.4-61.4-5.4-61.4-5.4v4.3c0,0-0.8,3.2,4.3,4.6C190.6,202.6,205.7,205.8,241.9,206.4"/>
<line class="st10" x1="303.9" y1="192.1" x2="303.9" y2="159.2"/>
<path class="st11" d="M244.4,241.5"/>
<path class="st11" d="M276.7,254.4"/>
<path class="st11" d="M237.7,241.5"/>
<path class="st12" d="M349.3,374.3"/>
<path class="st13" d="M355.3,315.6c0,0,11.6-8.5,15.2-20.2"/>
<path class="st6" d="M354,333.8c0,0,6.5,0.3,7.6,10.9"/>
<path class="st14" d="M242.6,100.8"/>
<path class="st7" d="M314.7,224.5"/>
<path class="st8" d="M167.2,514.6"/>
<path class="st7" d="M353,439.3"/>
<path class="st8" d="M287.3,513.3"/>
<path class="st11" d="M241.7,243.4"/>
<path class="st8" d="M141.6,292.3"/>
<path class="st8" d="M75.2,350.8"/>
<path class="st7" d="M371,272.3"/>
<path class="st11" d="M239.4,241.5"/>
<path class="st11" d="M207,254.4"/>
<path class="st11" d="M246.1,241.5"/>
<path class="st4" d="M125.1,433.7c0,0,8.6,36.8-16.3,54H61.3c-24.9-17.2-16.3-54-16.3-54l-0.1-0.4C40.6,406.7,57,362.5,57,362.5
	c51.8,30.2,70.2,24.9,70.2,24.9c3.2,16.9,4.4,35.4-2.4,45.6L125.1,433.7"/>
<path class="st12" d="M134.5,374.3"/>
<path class="st4" d="M108.2,496.6H62.3c-1.2,0-2.1-0.9-2.1-2.1v-4.6c0-1.2,0.9-2.1,2.1-2.1h45.9c1.2,0,2.1,0.9,2.1,2.1v4.6
	C110.3,495.7,109.3,496.6,108.2,496.6z"/>
<path class="st4" d="M118.1,425.4c3.1,1.8,5.3,4.4,6.8,7.6"/>
<path class="st4" d="M108.9,487.7"/>
<path class="st4" d="M108.2,496.6H62.3c-1.2,0-2.1-0.9-2.1-2.1v-4.6c0-1.2,0.9-2.1,2.1-2.1h45.9c1.2,0,2.1,0.9,2.1,2.1v4.6
	C110.3,495.7,109.3,496.6,108.2,496.6z"/>
<path class="st11" d="M244.4,241.5"/>
<path class="st11" d="M276.7,254.4"/>
<path class="st11" d="M237.7,241.5"/>
<path class="st12" d="M349.3,374.3"/>
<path class="st14" d="M242.6,100.8"/>
<path class="st8" d="M350.9,517.2"/>
<path class="st4" d="M356.5,433.7c0,0-8.6,36.8,16.3,54h47.6c24.9-17.2,16.3-54,16.3-54l0.1-0.4c4.4-26.6-12.1-70.8-12.1-70.8
	c-51.8,30.2-70.2,24.9-70.2,24.9c-3.2,16.9-4.4,35.4,2.4,45.6L356.5,433.7"/>
<path class="st4" d="M363.6,425.4c-3.1,1.8-5.3,4.4-6.8,7.6"/>
<path class="st4" d="M436.7,434.2c-1.4-8.6-5-15.4-12.1-18.2"/>
<path class="st11" d="M208.6,257.3"/>
<path class="st11" d="M366.1,236.4v20c0,0-11.9,30.4-10.7,46.8s-6.1,71-6.1,71"/>
<path class="st4" d="M44.9,434.2c1.4-8.6,5-15.4,12.1-18.2"/>
<path class="st15" d="M131.7,514.1c3.6,0.5,9.2,2.1,9.2,2.1s5.9-0.2,0.7-2.4c-3-1.3-7.1-2.1-9.9-2.6"/>
<path class="st13" d="M131.7,497.4l2.7-123.8l-1.7,12.9c-19.9,9-94.2-30-88.4-39.4l51.2-93.1c0,0,4.9-14.2,26.8-20.8l62.9-15.7
	l9.1-2.1"/>
<line class="st11" x1="131.5" y1="507.1" x2="131.7" y2="497.4"/>
<line class="st11" x1="131.4" y1="511.2" x2="131.5" y2="507.1"/>
<line class="st11" x1="131.3" y1="516.8" x2="131.4" y2="511.2"/>
<path class="st11" d="M133.7,527.3c-0.5-0.2-2.2-0.5-2.6-1c-1.1-1.5,0.2-7.6,0.2-9.6"/>
<path class="st11" d="M357.9,232.8c7.5,0.8,16.8,6.1,20.8,11.4c23.9,30.5,37.1,63.7,55.7,95.5c1.3,2.7,4,8,2.7,10.6
	c-17.2,22.6-43.8,30.5-70.3,37.1c-5.3,0-11.9,2.7-14.6-1.3c-2.7-2.7-4-8-3-12.1c0.2,17.9,0.2,1.7,0,0c-1,50.6,1.6,102.4,1.4,152.4"
	/>
<polyline class="st13" points="290.7,216.1 296.8,217.5 357.9,232.8 "/>
<path class="st13" d="M117.6,235.8v20c0,0,11.9,30.4,10.7,46.8c-1.2,16.4,6.1,71,6.1,71"/>
<path class="st13" d="M366.1,236.4v20c0,0-11.9,30.4-10.7,46.8s-6.1,71-6.1,71"/>
<path class="st16" d="M96.6,496.6"/>
<path class="st16" d="M321.5,498.5"/>
<path class="st17" d="M135.2,528c4.2-0.1,8.5,0.5,12.5,1.7c0.3,0.1,0.6,0.2,0.9,0.3c12.8,0.5,25.9-1.3,38.7-0.9
	c18,0.5,35.9,0.6,53.9,0.2c18.7-0.5,37.3-1.1,56-1.2c16.5-0.1,33.1,0.6,49.6-0.4c1.7-0.8,3.2-1.6,4.4-2.4l0.7-19.5
	c-92.4,37-221.6,0.5-221.6,0.5l0.7,19.5C132.3,526.6,133.6,527.3,135.2,528z"/>
<path class="st18" d="M181.3,119.3l8.6,4c0,0,1,2.9,0,4.2"/>
<path class="st18" d="M302.5,119.3l-8.6,4c0,0-1,2.9,0,4.2"/>
<g>
	<path class="st19" d="M148.3,270.7v-5c0-1.4-0.3-1.6-1.6-1.6h-2.9c-1.4,0-1.6,0.3-1.6,1.6v23.5c0,1.4,0.3,1.6,1.6,1.6h2.9
		c1.4,0,1.6-0.3,1.6-1.6v-5h3.7v5.6c0,2.8-1.4,4.2-4.2,4.2h-5.1c-2.8,0-4.2-1.4-4.2-4.2v-24.7c0-2.8,1.4-4.2,4.2-4.2h5.1
		c2.8,0,4.2,1.4,4.2,4.2v5.6H148.3z"/>
	<path class="st19" d="M176.7,260.9v33h-3.7V279H166v14.9h-3.7v-33h3.7v15h7.1v-15H176.7z"/>
	<path class="st19" d="M197.3,285.5h-6.7l-1.2,8.4h-3.7l5.1-33h5.8l5.7,33h-3.7L197.3,285.5z M196.8,282.4l-3.1-18.9l-2.7,18.9
		H196.8z"/>
	<path class="st19" d="M221,260.9c2.8,0,4.2,1.4,4.2,4.2v11.4c0,2.8-1.4,4.2-4.2,4.2h-6v13.3h-3.6v-33H221z M221.6,265.7
		c0-1.4-0.3-1.6-1.6-1.6H215v13.5h4.9c1.4,0,1.6-0.3,1.6-1.6V265.7z"/>
	<path class="st19" d="M247.7,290.8v3.1H235v-33h12.4v3.1h-8.7v11.1h7.1v3.1h-7.1v12.5H247.7z"/>
	<path class="st19" d="M263.8,280.1h-3.1v13.8H257v-33h9.6c2.8,0,4.2,1.4,4.2,4.2v10.8c0,2.5-1.1,3.9-3.3,4.1l5,13.8h-3.9
		L263.8,280.1z M260.6,277h4.9c1.4,0,1.6-0.3,1.6-1.6v-9.7c0-1.4-0.3-1.6-1.6-1.6h-4.9V277z"/>
	<path class="st19" d="M291,260.9c2.8,0,4.2,1.4,4.2,4.2v24.6c0,2.8-1.4,4.2-4.2,4.2h-5.4c-2.8,0-4.2-1.4-4.2-4.2v-24.6
		c0-2.8,1.4-4.2,4.2-4.2H291z M291.6,265.7c0-1.4-0.3-1.6-1.6-1.6h-3.3c-1.4,0-1.6,0.3-1.6,1.6v23.5c0,1.4,0.3,1.6,1.6,1.6h3.3
		c1.4,0,1.6-0.3,1.6-1.6V265.7z"/>
	<path class="st19" d="M320.2,260.9v33h-4l-6.8-25.6v25.6h-3.3v-33h4.2l6.6,24.7v-24.7H320.2z"/>
	<path class="st19" d="M344.1,290.8v3.1h-12.7v-33h12.4v3.1H335v11.1h7.1v3.1H335v12.5H344.1z"/>
</g>
<path class="st3" d="M747.6,531c-3.2-13.9,6-14.1,6-14.1l8,9.8c1,1.2,2.3,2,3.8,2.3c2.8,0.5,7.3,0.7,8.7-2.4c1.2-2.6,0.3-5-0.7-6.5
	c-0.6-0.9-1.4-1.7-2.3-2.3c-2.2-1.4-8.9-6.5-18-21.2l-38-0.1c0,0-7.9,18.3-7.6,33.8C720.8,531.2,734.2,531,747.6,531z"/>
<path class="st3" d="M719,530.8l-0.4-7.5c-0.4,3.3-0.6,5.7-0.7,7.5C718.3,530.8,718.6,530.8,719,530.8z"/>
<path class="st3" d="M742.8,528.1c0,0-15.3,4.1-26-5.9"/>
<path class="st3" d="M1008.3,527.4c2.5,0.3,5,0.9,7.4,1.7c0.3,0,0.5-0.1,0.7-0.1c1.5-0.3,2.8-1.1,3.8-2.3l8-9.8
	c0,0,8.2,0.1,6.4,11.9c6.3-0.5,12.6-0.3,18.9,0.4c3.8,0.4,7.5,1,11.3,1.4c3.2-0.4,6.3-0.7,9.5-0.8c0.2-15.4-7.6-33.3-7.6-33.3
	l-38,0.1c-9.1,14.7-15.7,19.7-18,21.2c-0.9,0.6-1.7,1.3-2.3,2.3c-1,1.5-1.8,3.9-0.7,6.5C1008,526.9,1008.2,527.1,1008.3,527.4z"/>
<path class="st3" d="M1064,530.7c-0.1-1.8-0.3-4.1-0.7-7.4l-0.4,7.5C1063.3,530.8,1063.6,530.7,1064,530.7z"/>
<path class="st3" d="M1039.1,528.1c0,0,15.3,4.1,26-5.9"/>
<path class="st4" d="M1023.9,496.6h45.9c1.2,0,2.1-0.9,2.1-2.1v-4.6c0-1.2-0.9-2.1-2.1-2.1h-45.9c-1.2,0-2.1,0.9-2.1,2.1v4.6
	C1021.8,495.7,1022.7,496.6,1023.9,496.6z"/>
<path class="st4" d="M1023.9,496.6h45.9c1.2,0,2.1-0.9,2.1-2.1v-4.6c0-1.2-0.9-2.1-2.1-2.1h-45.9c-1.2,0-2.1,0.9-2.1,2.1v4.6
	C1021.8,495.7,1022.7,496.6,1023.9,496.6z"/>
<path class="st5" d="M889.4,241.5"/>
<line class="st5" x1="853.9" y1="255.2" x2="853.9" y2="255.4"/>
<path class="st5" d="M845.7,224.7"/>
<path class="st6" d="M1087.7,347.1l-51.2-93.1c0,0-4.9-14.2-26.8-20.8l-62.9-15.7l-6.1-1.4l-96.3-0.7l-9.1,2.1l-62.9,15.7
	c-21.9,6.6-26.8,20.8-26.8,20.8l-51.2,93.1c-5.8,9.5,66.8,48.3,86.7,39.2l1.7-12.3l-1.7,152.3c0,0,1.6,0.6,4.6,1.7
	c4.1,0,8.2,0.5,12.1,1.7c0.3,0.1,0.6,0.2,0.9,0.3c12.8,0.5,25.9-1.3,38.7-0.9c18,0.5,35.9,0.6,53.9,0.2c18.7-0.5,37.3-1.1,56-1.2
	c16.8-0.1,33.6,0.6,50.3-0.5c2.2-0.8,3.4-1.2,3.4-1.2l-1.7-152.3l1.7,12.3C1020.9,395.4,1093.5,356.6,1087.7,347.1z"/>
<line class="st5" x1="929.8" y1="255.5" x2="929.8" y2="255.4"/>
<path class="st5" d="M894.4,241.5"/>
<path class="st5" d="M891.9,243.6"/>
<path class="st7" d="M964.7,224.5"/>
<path class="st8" d="M817.2,514.6"/>
<path class="st9" d="M923.7,381.5"/>
<path class="st7" d="M1003,439.3"/>
<path class="st8" d="M937.3,513.3"/>
<path class="st8" d="M791.6,292.3"/>
<polygon class="st10" points="952.9,197.5 829.9,197.5 830.2,158.5 953.2,158.5 "/>
<path class="st8" d="M725.2,350.8"/>
<path class="st7" d="M1021,272.3"/>
<path class="st10" d="M953.9,159.2"/>
<path class="st11" d="M889.4,241.5"/>
<path class="st11" d="M857,254.4"/>
<path class="st11" d="M896.1,241.5"/>
<path class="st12" d="M784.5,374.3"/>
<path class="st6" d="M778.4,315.6c0,0-11.6-8.5-15.2-20.2"/>
<path class="st6" d="M779.7,333.8c0,0-6.5,0.3-7.6,10.9"/>
<path class="st10" d="M892.3,180.3"/>
<path class="st10" d="M953.9,159.2V133c0-2.3-0.2-4.5-0.6-6.7l-0.1-0.8c0,0-10.4-53.1-61.4-53.1h0.3c-51.1,0-61.4,53.1-61.4,53.1
	l-0.2,1.7c-0.3,1.9-0.5,3.8-0.5,5.7l0,26.1l0,0.1v32.9"/>
<path class="st5" d="M835.3,217.5"/>
<path class="st11" d="M889.4,241.5"/>
<path class="st11" d="M857,254.4"/>
<path class="st11" d="M896.1,241.5"/>
<path class="st11" d="M926.7,254.4"/>
<path class="st11" d="M887.7,241.5"/>
<path class="st11" d="M857,254.4"/>
<path class="st11" d="M896.1,241.5"/>
<path class="st11" d="M926.7,254.4"/>
<path class="st11" d="M887.7,241.5"/>
<path class="st6" d="M863.5,201.1l-14.5,0l-4.4,9.2c0,0-0.2,2.1-0.2,3.6l0,0.5c0,2,0.3,4.6,1.1,7.1l0.3,0.4c0,0,34.5,5.5,92.3,0
	l0.4-0.4c0.8-2.5,1-5.1,1.1-7.1l0-0.5c-0.1-1.5-0.2-3.6-0.2-3.6l-4.4-9.2l-14.5,0"/>
<path class="st10" d="M891.9,206.4c36.2-0.5,51.3-3.8,57.7-5.4c5.1-1.3,4.3-4.6,4.3-4.6v-4.3c0,0-21.6,5.9-61.4,5.4h-1.2
	c-39.8,0.4-61.4-5.4-61.4-5.4v4.3c0,0-0.8,3.2,4.3,4.6C840.6,202.6,855.7,205.8,891.9,206.4"/>
<line class="st10" x1="953.9" y1="192.1" x2="953.9" y2="159.2"/>
<path class="st11" d="M894.4,241.5"/>
<path class="st11" d="M926.7,254.4"/>
<path class="st11" d="M887.7,241.5"/>
<path class="st12" d="M999.3,374.3"/>
<path class="st13" d="M1005.3,315.6c0,0,11.6-8.5,15.2-20.2"/>
<path class="st6" d="M1004,333.8c0,0,6.5,0.3,7.6,10.9"/>
<path class="st14" d="M892.6,100.8"/>
<path class="st7" d="M964.7,224.5"/>
<path class="st8" d="M817.2,514.6"/>
<path class="st7" d="M1003,439.3"/>
<path class="st8" d="M937.3,513.3"/>
<path class="st11" d="M891.7,243.4"/>
<path class="st8" d="M791.6,292.3"/>
<path class="st8" d="M725.2,350.8"/>
<path class="st7" d="M1021,272.3"/>
<path class="st11" d="M889.4,241.5"/>
<path class="st11" d="M857,254.4"/>
<path class="st11" d="M896.1,241.5"/>
<path class="st4" d="M775.1,433.7c0,0,8.6,36.8-16.3,54h-47.6c-24.9-17.2-16.3-54-16.3-54l-0.1-0.4c-4.4-26.6,12.1-70.8,12.1-70.8
	c51.8,30.2,70.2,24.9,70.2,24.9c3.2,16.9,4.4,35.4-2.4,45.6L775.1,433.7"/>
<path class="st12" d="M784.5,374.3"/>
<path class="st4" d="M758.2,496.6h-45.9c-1.2,0-2.1-0.9-2.1-2.1v-4.6c0-1.2,0.9-2.1,2.1-2.1h45.9c1.2,0,2.1,0.9,2.1,2.1v4.6
	C760.3,495.7,759.3,496.6,758.2,496.6z"/>
<path class="st4" d="M768.1,425.4c3.1,1.8,5.3,4.4,6.8,7.6"/>
<path class="st4" d="M758.9,487.7"/>
<path class="st4" d="M758.2,496.6h-45.9c-1.2,0-2.1-0.9-2.1-2.1v-4.6c0-1.2,0.9-2.1,2.1-2.1h45.9c1.2,0,2.1,0.9,2.1,2.1v4.6
	C760.3,495.7,759.3,496.6,758.2,496.6z"/>
<path class="st11" d="M894.4,241.5"/>
<path class="st11" d="M926.7,254.4"/>
<path class="st11" d="M887.7,241.5"/>
<path class="st12" d="M999.3,374.3"/>
<path class="st14" d="M892.6,100.8"/>
<path class="st8" d="M1000.9,517.2"/>
<path class="st4" d="M1006.5,433.7c0,0-8.6,36.8,16.3,54h47.6c24.9-17.2,16.3-54,16.3-54l0.1-0.4c4.4-26.6-12.1-70.8-12.1-70.8
	c-51.8,30.2-70.2,24.9-70.2,24.9c-3.2,16.9-4.4,35.4,2.4,45.6L1006.5,433.7"/>
<path class="st4" d="M1013.6,425.4c-3.1,1.8-5.3,4.4-6.8,7.6"/>
<path class="st4" d="M1086.7,434.2c-1.4-8.6-5-15.4-12.1-18.2"/>
<path class="st11" d="M858.6,257.3"/>
<path class="st11" d="M1016.1,236.4v20c0,0-11.9,30.4-10.7,46.8s-6.1,71-6.1,71"/>
<path class="st4" d="M694.9,434.2c1.4-8.6,5-15.4,12.1-18.2"/>
<path class="st15" d="M781.7,514.1c3.6,0.5,9.2,2.1,9.2,2.1s5.9-0.2,0.7-2.4c-3-1.3-7.1-2.1-9.9-2.6"/>
<path class="st13" d="M781.7,497.4l2.7-123.8l-1.7,12.9c-19.9,9-94.2-30-88.4-39.4l51.2-93.1c0,0,4.9-14.2,26.8-20.8l62.9-15.7
	l9.1-2.1"/>
<line class="st11" x1="781.5" y1="507.1" x2="781.7" y2="497.4"/>
<line class="st11" x1="781.4" y1="511.2" x2="781.5" y2="507.1"/>
<line class="st11" x1="781.3" y1="516.8" x2="781.4" y2="511.2"/>
<path class="st11" d="M783.7,527.3c-0.5-0.2-2.2-0.5-2.6-1c-1.1-1.5,0.2-7.6,0.2-9.6"/>
<path class="st11" d="M1007.9,232.8c7.5,0.8,16.8,6.1,20.8,11.4c23.9,30.5,37.1,63.7,55.7,95.5c1.3,2.7,4,8,2.7,10.6
	c-17.2,22.6-43.8,30.5-70.3,37.1c-5.3,0-11.9,2.7-14.6-1.3c-2.7-2.7-4-8-3-12.1c0.2,17.9,0.2,1.7,0,0c-1,50.6,1.6,102.4,1.4,152.4"
	/>
<polyline class="st13" points="940.7,216.1 946.8,217.5 1007.9,232.8 "/>
<path class="st13" d="M767.6,235.8v20c0,0,11.9,30.4,10.7,46.8c-1.2,16.4,6.1,71,6.1,71"/>
<path class="st13" d="M1016.1,236.4v20c0,0-11.9,30.4-10.7,46.8s-6.1,71-6.1,71"/>
<path class="st16" d="M746.6,496.6"/>
<path class="st16" d="M971.5,498.5"/>
<path class="st17" d="M785.2,528c4.2-0.1,8.5,0.5,12.5,1.7c0.3,0.1,0.6,0.2,0.9,0.3c12.8,0.5,25.9-1.3,38.7-0.9
	c18,0.5,35.9,0.6,53.9,0.2c18.7-0.5,37.3-1.1,56-1.2c16.5-0.1,33.1,0.6,49.6-0.4c1.7-0.8,3.2-1.6,4.4-2.4l0.7-19.5
	c-92.4,37-221.6,0.5-221.6,0.5l0.7,19.5C782.3,526.6,783.6,527.3,785.2,528z"/>
<path class="st18" d="M831.3,119.3l8.6,4c0,0,1,2.9,0,4.2"/>
<path class="st18" d="M952.5,119.3l-8.6,4c0,0-1,2.9,0,4.2"/>
<g>
	<path class="st19" d="M798.3,270.7v-5c0-1.4-0.3-1.6-1.6-1.6h-2.9c-1.4,0-1.6,0.3-1.6,1.6v23.5c0,1.4,0.3,1.6,1.6,1.6h2.9
		c1.4,0,1.6-0.3,1.6-1.6v-5h3.7v5.6c0,2.8-1.4,4.2-4.2,4.2h-5.1c-2.8,0-4.2-1.4-4.2-4.2v-24.7c0-2.8,1.4-4.2,4.2-4.2h5.1
		c2.8,0,4.2,1.4,4.2,4.2v5.6H798.3z"/>
	<path class="st19" d="M826.7,260.9v33h-3.7V279H816v14.9h-3.7v-33h3.7v15h7.1v-15H826.7z"/>
	<path class="st19" d="M847.3,285.5h-6.7l-1.2,8.4h-3.7l5.1-33h5.8l5.7,33h-3.7L847.3,285.5z M846.8,282.4l-3.1-18.9l-2.7,18.9
		H846.8z"/>
	<path class="st19" d="M871,260.9c2.8,0,4.2,1.4,4.2,4.2v11.4c0,2.8-1.4,4.2-4.2,4.2h-6v13.3h-3.6v-33H871z M871.6,265.7
		c0-1.4-0.3-1.6-1.6-1.6H865v13.5h4.9c1.4,0,1.6-0.3,1.6-1.6V265.7z"/>
	<path class="st19" d="M897.7,290.8v3.1H885v-33h12.4v3.1h-8.7v11.1h7.1v3.1h-7.1v12.5H897.7z"/>
	<path class="st19" d="M913.8,280.1h-3.1v13.8H907v-33h9.6c2.8,0,4.2,1.4,4.2,4.2v10.8c0,2.5-1.1,3.9-3.3,4.1l5,13.8h-3.9
		L913.8,280.1z M910.6,277h4.9c1.4,0,1.6-0.3,1.6-1.6v-9.7c0-1.4-0.3-1.6-1.6-1.6h-4.9V277z"/>
	<path class="st19" d="M941,260.9c2.8,0,4.2,1.4,4.2,4.2v24.6c0,2.8-1.4,4.2-4.2,4.2h-5.4c-2.8,0-4.2-1.4-4.2-4.2v-24.6
		c0-2.8,1.4-4.2,4.2-4.2H941z M941.6,265.7c0-1.4-0.3-1.6-1.6-1.6h-3.3c-1.4,0-1.6,0.3-1.6,1.6v23.5c0,1.4,0.3,1.6,1.6,1.6h3.3
		c1.4,0,1.6-0.3,1.6-1.6V265.7z"/>
	<path class="st19" d="M970.2,260.9v33h-4l-6.8-25.6v25.6h-3.3v-33h4.2l6.6,24.7v-24.7H970.2z"/>
	<path class="st19" d="M994.1,290.8v3.1h-12.7v-33h12.4v3.1H985v11.1h7.1v3.1H985v12.5H994.1z"/>
</g>
<path class="st3" d="M419.6,531c-3.2-13.9,6-14.1,6-14.1l8,9.8c1,1.2,2.3,2,3.8,2.3c2.8,0.5,7.3,0.7,8.7-2.4c1.2-2.6,0.3-5-0.7-6.5
	c-0.6-0.9-1.4-1.7-2.3-2.3c-2.2-1.4-8.9-6.5-18-21.2l-38-0.1c0,0-7.9,18.3-7.6,33.8C392.8,531.2,406.2,531,419.6,531z"/>
<path class="st3" d="M391,530.8l-0.4-7.5c-0.4,3.3-0.6,5.7-0.7,7.5C390.3,530.8,390.6,530.8,391,530.8z"/>
<path class="st3" d="M414.8,528.1c0,0-15.3,4.1-26-5.9"/>
<path class="st3" d="M680.3,527.4c2.5,0.3,5,0.9,7.4,1.7c0.3,0,0.5-0.1,0.7-0.1c1.5-0.3,2.8-1.1,3.8-2.3l8-9.8c0,0,8.2,0.1,6.4,11.9
	c6.3-0.5,12.6-0.3,18.9,0.4c3.8,0.4,7.5,1,11.3,1.4c3.2-0.4,6.3-0.7,9.5-0.8c0.2-15.4-7.6-33.3-7.6-33.3l-38,0.1
	c-9.1,14.7-15.7,19.7-18,21.2c-0.9,0.6-1.7,1.3-2.3,2.3c-1,1.5-1.8,3.9-0.7,6.5C680,526.9,680.2,527.1,680.3,527.4z"/>
<path class="st3" d="M736,530.7c-0.1-1.8-0.3-4.1-0.7-7.4l-0.4,7.5C735.3,530.8,735.6,530.7,736,530.7z"/>
<path class="st3" d="M711.1,528.1c0,0,15.3,4.1,26-5.9"/>
<path class="st4" d="M695.9,496.6h45.9c1.2,0,2.1-0.9,2.1-2.1v-4.6c0-1.2-0.9-2.1-2.1-2.1h-45.9c-1.2,0-2.1,0.9-2.1,2.1v4.6
	C693.8,495.7,694.7,496.6,695.9,496.6z"/>
<path class="st4" d="M695.9,496.6h45.9c1.2,0,2.1-0.9,2.1-2.1v-4.6c0-1.2-0.9-2.1-2.1-2.1h-45.9c-1.2,0-2.1,0.9-2.1,2.1v4.6
	C693.8,495.7,694.7,496.6,695.9,496.6z"/>
<path class="st5" d="M561.4,241.5"/>
<line class="st5" x1="525.9" y1="255.2" x2="525.9" y2="255.4"/>
<path class="st5" d="M517.7,224.7"/>
<path class="st6" d="M759.7,347.1l-51.2-93.1c0,0-4.9-14.2-26.8-20.8l-62.9-15.7l-6.1-1.4l-96.3-0.7l-9.1,2.1l-62.9,15.7
	c-21.9,6.6-26.8,20.8-26.8,20.8l-51.2,93.1c-5.8,9.5,66.8,48.3,86.7,39.2l1.7-12.3l-1.7,152.3c0,0,1.6,0.6,4.6,1.7
	c4.1,0,8.2,0.5,12.1,1.7c0.3,0.1,0.6,0.2,0.9,0.3c12.8,0.5,25.9-1.3,38.7-0.9c18,0.5,35.9,0.6,53.9,0.2c18.7-0.5,37.3-1.1,56-1.2
	c16.8-0.1,33.6,0.6,50.3-0.5c2.2-0.8,3.4-1.2,3.4-1.2l-1.7-152.3l1.7,12.3C692.9,395.4,765.5,356.6,759.7,347.1z"/>
<line class="st5" x1="601.8" y1="255.5" x2="601.8" y2="255.4"/>
<path class="st5" d="M566.4,241.5"/>
<path class="st5" d="M563.9,243.6"/>
<path class="st7" d="M636.7,224.5"/>
<path class="st8" d="M489.2,514.6"/>
<path class="st9" d="M595.7,381.5"/>
<path class="st7" d="M675,439.3"/>
<path class="st8" d="M609.3,513.3"/>
<path class="st8" d="M463.6,292.3"/>
<polygon class="st10" points="624.9,197.5 501.9,197.5 502.2,158.5 625.2,158.5 "/>
<path class="st8" d="M397.2,350.8"/>
<path class="st7" d="M693,272.3"/>
<path class="st10" d="M625.9,159.2"/>
<path class="st11" d="M561.4,241.5"/>
<path class="st11" d="M529,254.4"/>
<path class="st11" d="M568.1,241.5"/>
<path class="st12" d="M456.5,374.3"/>
<path class="st6" d="M450.4,315.6c0,0-11.6-8.5-15.2-20.2"/>
<path class="st6" d="M451.7,333.8c0,0-6.5,0.3-7.6,10.9"/>
<path class="st10" d="M564.3,180.3"/>
<path class="st10" d="M625.9,159.2V133c0-2.3-0.2-4.5-0.6-6.7l-0.1-0.8c0,0-10.4-53.1-61.4-53.1h0.3c-51.1,0-61.4,53.1-61.4,53.1
	l-0.2,1.7c-0.3,1.9-0.5,3.8-0.5,5.7l0,26.1l0,0.1v32.9"/>
<path class="st5" d="M507.3,217.5"/>
<path class="st11" d="M561.4,241.5"/>
<path class="st11" d="M529,254.4"/>
<path class="st11" d="M568.1,241.5"/>
<path class="st11" d="M598.7,254.4"/>
<path class="st11" d="M559.7,241.5"/>
<path class="st11" d="M529,254.4"/>
<path class="st11" d="M568.1,241.5"/>
<path class="st11" d="M598.7,254.4"/>
<path class="st11" d="M559.7,241.5"/>
<path class="st6" d="M535.5,201.1l-14.5,0l-4.4,9.2c0,0-0.2,2.1-0.2,3.6l0,0.5c0,2,0.3,4.6,1.1,7.1l0.3,0.4c0,0,34.5,5.5,92.3,0
	l0.4-0.4c0.8-2.5,1-5.1,1.1-7.1l0-0.5c-0.1-1.5-0.2-3.6-0.2-3.6l-4.4-9.2l-14.5,0"/>
<path class="st10" d="M563.9,206.4c36.2-0.5,51.3-3.8,57.7-5.4c5.1-1.3,4.3-4.6,4.3-4.6v-4.3c0,0-21.6,5.9-61.4,5.4h-1.2
	c-39.8,0.4-61.4-5.4-61.4-5.4v4.3c0,0-0.8,3.2,4.3,4.6C512.6,202.6,527.7,205.8,563.9,206.4"/>
<line class="st10" x1="625.9" y1="192.1" x2="625.9" y2="159.2"/>
<path class="st11" d="M566.4,241.5"/>
<path class="st11" d="M598.7,254.4"/>
<path class="st11" d="M559.7,241.5"/>
<path class="st12" d="M671.3,374.3"/>
<path class="st13" d="M677.3,315.6c0,0,11.6-8.5,15.2-20.2"/>
<path class="st6" d="M676,333.8c0,0,6.5,0.3,7.6,10.9"/>
<path class="st14" d="M564.6,100.8"/>
<path class="st7" d="M636.7,224.5"/>
<path class="st8" d="M489.2,514.6"/>
<path class="st7" d="M675,439.3"/>
<path class="st8" d="M609.3,513.3"/>
<path class="st11" d="M563.7,243.4"/>
<path class="st8" d="M463.6,292.3"/>
<path class="st8" d="M397.2,350.8"/>
<path class="st7" d="M693,272.3"/>
<path class="st11" d="M561.4,241.5"/>
<path class="st11" d="M529,254.4"/>
<path class="st11" d="M568.1,241.5"/>
<path class="st4" d="M447.1,433.7c0,0,8.6,36.8-16.3,54h-47.6c-24.9-17.2-16.3-54-16.3-54l-0.1-0.4c-4.4-26.6,12.1-70.8,12.1-70.8
	c51.8,30.2,70.2,24.9,70.2,24.9c3.2,16.9,4.4,35.4-2.4,45.6L447.1,433.7"/>
<path class="st12" d="M456.5,374.3"/>
<path class="st4" d="M430.2,496.6h-45.9c-1.2,0-2.1-0.9-2.1-2.1v-4.6c0-1.2,0.9-2.1,2.1-2.1h45.9c1.2,0,2.1,0.9,2.1,2.1v4.6
	C432.3,495.7,431.3,496.6,430.2,496.6z"/>
<path class="st4" d="M440.1,425.4c3.1,1.8,5.3,4.4,6.8,7.6"/>
<path class="st4" d="M430.9,487.7"/>
<path class="st4" d="M430.2,496.6h-45.9c-1.2,0-2.1-0.9-2.1-2.1v-4.6c0-1.2,0.9-2.1,2.1-2.1h45.9c1.2,0,2.1,0.9,2.1,2.1v4.6
	C432.3,495.7,431.3,496.6,430.2,496.6z"/>
<path class="st11" d="M566.4,241.5"/>
<path class="st11" d="M598.7,254.4"/>
<path class="st11" d="M559.7,241.5"/>
<path class="st12" d="M671.3,374.3"/>
<path class="st14" d="M564.6,100.8"/>
<path class="st8" d="M672.9,517.2"/>
<path class="st4" d="M678.5,433.7c0,0-8.6,36.8,16.3,54h47.6c24.9-17.2,16.3-54,16.3-54l0.1-0.4c4.4-26.6-12.1-70.8-12.1-70.8
	c-51.8,30.2-70.2,24.9-70.2,24.9c-3.2,16.9-4.4,35.4,2.4,45.6L678.5,433.7"/>
<path class="st4" d="M685.6,425.4c-3.1,1.8-5.3,4.4-6.8,7.6"/>
<path class="st4" d="M758.7,434.2c-1.4-8.6-5-15.4-12.1-18.2"/>
<path class="st11" d="M530.6,257.3"/>
<path class="st11" d="M688.1,236.4v20c0,0-11.9,30.4-10.7,46.8s-6.1,71-6.1,71"/>
<path class="st4" d="M366.9,434.2c1.4-8.6,5-15.4,12.1-18.2"/>
<path class="st15" d="M453.7,514.1c3.6,0.5,9.2,2.1,9.2,2.1s5.9-0.2,0.7-2.4c-3-1.3-7.1-2.1-9.9-2.6"/>
<path class="st13" d="M453.7,497.4l2.7-123.8l-1.7,12.9c-19.9,9-94.2-30-88.4-39.4l51.2-93.1c0,0,4.9-14.2,26.8-20.8l62.9-15.7
	l9.1-2.1"/>
<line class="st11" x1="453.5" y1="507.1" x2="453.7" y2="497.4"/>
<line class="st11" x1="453.4" y1="511.2" x2="453.5" y2="507.1"/>
<line class="st11" x1="453.3" y1="516.8" x2="453.4" y2="511.2"/>
<path class="st11" d="M455.7,527.3c-0.5-0.2-2.2-0.5-2.6-1c-1.1-1.5,0.2-7.6,0.2-9.6"/>
<path class="st11" d="M679.9,232.8c7.5,0.8,16.8,6.1,20.8,11.4c23.9,30.5,37.1,63.7,55.7,95.5c1.3,2.7,4,8,2.7,10.6
	c-17.2,22.6-43.8,30.5-70.3,37.1c-5.3,0-11.9,2.7-14.6-1.3c-2.7-2.7-4-8-3-12.1c0.2,17.9,0.2,1.7,0,0c-1,50.6,1.6,102.4,1.4,152.4"
	/>
<polyline class="st13" points="612.7,216.1 618.8,217.5 679.9,232.8 "/>
<path class="st13" d="M439.6,235.8v20c0,0,11.9,30.4,10.7,46.8s6.1,71,6.1,71"/>
<path class="st13" d="M688.1,236.4v20c0,0-11.9,30.4-10.7,46.8s-6.1,71-6.1,71"/>
<path class="st16" d="M418.6,496.6"/>
<path class="st16" d="M643.5,498.5"/>
<path class="st17" d="M457.2,528c4.2-0.1,8.5,0.5,12.5,1.7c0.3,0.1,0.6,0.2,0.9,0.3c12.8,0.5,25.9-1.3,38.7-0.9
	c18,0.5,35.9,0.6,53.9,0.2c18.7-0.5,37.3-1.1,56-1.2c16.5-0.1,33.1,0.6,49.6-0.4c1.7-0.8,3.2-1.6,4.4-2.4l0.7-19.5
	c-92.4,37-221.6,0.5-221.6,0.5l0.7,19.5C454.3,526.6,455.6,527.3,457.2,528z"/>
<path class="st18" d="M503.3,119.3l8.6,4c0,0,1,2.9,0,4.2"/>
<path class="st18" d="M624.5,119.3l-8.6,4c0,0-1,2.9,0,4.2"/>
<g>
	<path class="st19" d="M470.3,270.7v-5c0-1.4-0.3-1.6-1.6-1.6h-2.9c-1.4,0-1.6,0.3-1.6,1.6v23.5c0,1.4,0.3,1.6,1.6,1.6h2.9
		c1.4,0,1.6-0.3,1.6-1.6v-5h3.7v5.6c0,2.8-1.4,4.2-4.2,4.2h-5.1c-2.8,0-4.2-1.4-4.2-4.2v-24.7c0-2.8,1.4-4.2,4.2-4.2h5.1
		c2.8,0,4.2,1.4,4.2,4.2v5.6H470.3z"/>
	<path class="st19" d="M498.7,260.9v33h-3.7V279H488v14.9h-3.7v-33h3.7v15h7.1v-15H498.7z"/>
	<path class="st19" d="M519.3,285.5h-6.7l-1.2,8.4h-3.7l5.1-33h5.8l5.7,33h-3.7L519.3,285.5z M518.8,282.4l-3.1-18.9l-2.7,18.9
		H518.8z"/>
	<path class="st19" d="M543,260.9c2.8,0,4.2,1.4,4.2,4.2v11.4c0,2.8-1.4,4.2-4.2,4.2h-6v13.3h-3.6v-33H543z M543.6,265.7
		c0-1.4-0.3-1.6-1.6-1.6H537v13.5h4.9c1.4,0,1.6-0.3,1.6-1.6V265.7z"/>
	<path class="st19" d="M569.7,290.8v3.1H557v-33h12.4v3.1h-8.7v11.1h7.1v3.1h-7.1v12.5H569.7z"/>
	<path class="st19" d="M585.8,280.1h-3.1v13.8H579v-33h9.6c2.8,0,4.2,1.4,4.2,4.2v10.8c0,2.5-1.1,3.9-3.3,4.1l5,13.8h-3.9
		L585.8,280.1z M582.6,277h4.9c1.4,0,1.6-0.3,1.6-1.6v-9.7c0-1.4-0.3-1.6-1.6-1.6h-4.9V277z"/>
	<path class="st19" d="M613,260.9c2.8,0,4.2,1.4,4.2,4.2v24.6c0,2.8-1.4,4.2-4.2,4.2h-5.4c-2.8,0-4.2-1.4-4.2-4.2v-24.6
		c0-2.8,1.4-4.2,4.2-4.2H613z M613.6,265.7c0-1.4-0.3-1.6-1.6-1.6h-3.3c-1.4,0-1.6,0.3-1.6,1.6v23.5c0,1.4,0.3,1.6,1.6,1.6h3.3
		c1.4,0,1.6-0.3,1.6-1.6V265.7z"/>
	<path class="st19" d="M642.2,260.9v33h-4l-6.8-25.6v25.6h-3.3v-33h4.2l6.6,24.7v-24.7H642.2z"/>
	<path class="st19" d="M666.1,290.8v3.1h-12.7v-33h12.4v3.1H657v11.1h7.1v3.1H657v12.5H666.1z"/>
</g>
<g>
	<path class="st20" d="M1335,156.1v-7.5c0-2.1-0.4-2.5-2.5-2.5h-4.4c-2.1,0-2.5,0.4-2.5,2.5V184c0,2.1,0.4,2.5,2.5,2.5h4.4
		c2.1,0,2.5-0.4,2.5-2.5v-7.5h5.5v8.4c0,4.2-2.1,6.3-6.3,6.3h-7.8c-4.2,0-6.3-2.1-6.3-6.3v-37.2c0-4.2,2.1-6.3,6.3-6.3h7.8
		c4.2,0,6.3,2.1,6.3,6.3v8.4H1335z"/>
	<path class="st20" d="M1360.5,152.3c4.2,0,6.3,2.1,6.3,6.3v32.5h-5.5v-31.6c0-2.1-0.4-2.5-2.5-2.5h-3.2c-1.9,0-2.7,0.7-2.7,2.9
		v31.2h-5.5v-53.5h5.5V155c0.6-1.9,2.2-2.6,4.4-2.6H1360.5z"/>
	<path class="st20" d="M1393,152.3v38.8h-5.5v-2.6c-0.6,1.9-2.2,2.6-4.4,2.6h-3.2c-4.2,0-6.3-2.1-6.3-6.3v-26.2
		c0-4.2,2.1-6.3,6.3-6.3h3.2c2.2,0,3.8,0.7,4.4,2.6v-2.6H1393z M1384.8,186.4c1.9,0,2.7-0.7,2.7-2.9v-23.6c0-2.2-0.8-2.9-2.7-2.9
		h-3.2c-2.1,0-2.5,0.4-2.5,2.5v24.4c0,2.1,0.4,2.5,2.5,2.5H1384.8z"/>
	<path class="st20" d="M1413.4,152.3c4.2,0,6.3,2.1,6.3,6.3v26.2c0,4.2-2.1,6.3-6.3,6.3h-3.2c-2.2,0-3.8-0.7-4.4-2.6v13.9h-5.5
		v-50.1h5.5v2.6c0.6-1.9,2.2-2.6,4.4-2.6H1413.4z M1414.2,159.5c0-2.1-0.4-2.5-2.5-2.5h-3.2c-1.9,0-2.7,0.7-2.7,2.9v23.6
		c0,2.2,0.8,2.9,2.7,2.9h3.2c2.1,0,2.5-0.4,2.5-2.5V159.5z"/>
	<path class="st20" d="M1440.2,152.3c4.2,0,6.3,2.1,6.3,6.3v15H1432v10.3c0,2.1,0.4,2.5,2.5,2.5h3.8c2.1,0,2.5-0.4,2.5-2.5v-3.5h5.5
		v4.4c0,4.2-2.1,6.3-6.3,6.3h-7.1c-4.2,0-6.3-2.1-6.3-6.3v-26.2c0-4.2,2.1-6.3,6.3-6.3H1440.2z M1441,168.9v-9.4
		c0-2.1-0.4-2.5-2.5-2.5h-4c-2.1,0-2.5,0.4-2.5,2.5v9.4H1441z"/>
	<path class="st20" d="M1465.8,152.3v4.8h-2.4c-3.5,0-5,1.9-5,6v28h-5.5v-38.8h5.5v4.5c0.7-2.2,2.6-4.5,5.8-4.5H1465.8z"/>
	<path class="st20" d="M1483.9,152.3c4.2,0,6.3,2.1,6.3,6.3v26.2c0,4.2-2.1,6.3-6.3,6.3h-8.2c-4.2,0-6.3-2.1-6.3-6.3v-26.2
		c0-4.2,2.1-6.3,6.3-6.3H1483.9z M1484.8,159.5c0-2.1-0.4-2.5-2.5-2.5h-5c-2.1,0-2.5,0.4-2.5,2.5v24.4c0,2.1,0.4,2.5,2.5,2.5h5
		c2.1,0,2.5-0.4,2.5-2.5V159.5z"/>
	<path class="st20" d="M1510.2,152.3c4.2,0,6.3,2.1,6.3,6.3v32.5h-5.5v-31.6c0-2.1-0.4-2.5-2.5-2.5h-3.2c-1.9,0-2.7,0.7-2.7,2.9
		v31.2h-5.5v-38.8h5.5v2.6c0.6-1.9,2.2-2.6,4.4-2.6H1510.2z"/>
	<path class="st20" d="M1537.4,152.3c4.2,0,6.3,2.1,6.3,6.3v15h-14.5v10.3c0,2.1,0.4,2.5,2.5,2.5h3.8c2.1,0,2.5-0.4,2.5-2.5v-3.5
		h5.5v4.4c0,4.2-2.1,6.3-6.3,6.3h-7.1c-4.2,0-6.3-2.1-6.3-6.3v-26.2c0-4.2,2.1-6.3,6.3-6.3H1537.4z M1538.2,168.9v-9.4
		c0-2.1-0.4-2.5-2.5-2.5h-4c-2.1,0-2.5,0.4-2.5,2.5v9.4H1538.2z"/>
	<path class="st20" d="M1562,176.6c0-2.1-0.4-2.5-2.5-2.5h-3.9c-4.2,0-6.3-2.1-6.3-6.3v-9.2c0-4.2,2.1-6.3,6.3-6.3h5.4
		c4.2,0,6.3,2.1,6.3,6.3v3.9h-5.4v-3.1c0-2.1-0.4-2.5-2.5-2.5h-2.2c-2.1,0-2.5,0.4-2.5,2.5v7.6c0,2.1,0.4,2.5,2.5,2.5h3.9
		c4.2,0,6.3,2.1,6.3,6.3v9c0,4.2-2.1,6.3-6.3,6.3h-5.4c-4.2,0-6.3-2.1-6.3-6.3v-3.9h5.4v3.1c0,2.1,0.4,2.5,2.5,2.5h2.2
		c2.1,0,2.5-0.4,2.5-2.5V176.6z"/>
	<path class="st20" d="M1168.1,237.1v22.4h-2.4v-22.4H1168.1z"/>
	<path class="st20" d="M1178,242.1c1.9,0,2.8,0.9,2.8,2.8v14.6h-2.5v-14.2c0-0.9-0.2-1.1-1.1-1.1h-1.4c-0.9,0-1.2,0.3-1.2,1.3v14
		h-2.5v-17.5h2.5v1.2c0.3-0.9,1-1.2,2-1.2H1178z"/>
	<path class="st20" d="M1191.4,244.2v11.9c0,0.9,0.2,1.1,1.1,1.1h1.4v2.3h-2.1c-1.9,0-2.8-0.9-2.8-2.8v-12.5h-1.6v-2.1h1.6v-2.8h2.5
		v2.8h2.5v2.1H1191.4z"/>
	<path class="st20" d="M1201.8,242.1c1.9,0,2.8,0.9,2.8,2.8v14.6h-2.5v-14.2c0-0.9-0.2-1.1-1.1-1.1h-1.4c-0.9,0-1.2,0.3-1.2,1.3v14
		h-2.5v-24.1h2.5v7.8c0.3-0.9,1-1.2,2-1.2H1201.8z"/>
	<path class="st20" d="M1214,242.1c1.9,0,2.8,0.9,2.8,2.8v6.7h-6.5v4.6c0,0.9,0.2,1.1,1.1,1.1h1.7c0.9,0,1.1-0.2,1.1-1.1v-1.6h2.5v2
		c0,1.9-0.9,2.8-2.8,2.8h-3.2c-1.9,0-2.8-0.9-2.8-2.8v-11.8c0-1.9,0.9-2.8,2.8-2.8H1214z M1214.4,249.5v-4.2c0-0.9-0.2-1.1-1.1-1.1
		h-1.8c-0.9,0-1.1,0.2-1.1,1.1v4.2H1214.4z"/>
	<path class="st20" d="M1230.6,242.1c1.9,0,2.8,0.9,2.8,2.8v6.7h-6.5v4.6c0,0.9,0.2,1.1,1.1,1.1h1.7c0.9,0,1.1-0.2,1.1-1.1v-1.6h2.5
		v2c0,1.9-0.9,2.8-2.8,2.8h-3.2c-1.9,0-2.8-0.9-2.8-2.8v-11.8c0-1.9,0.9-2.8,2.8-2.8H1230.6z M1230.9,249.5v-4.2
		c0-0.9-0.2-1.1-1.1-1.1h-1.8c-0.9,0-1.1,0.2-1.1,1.1v4.2H1230.9z"/>
	<path class="st20" d="M1239.7,257.8l2.4-15.7h2.5l-2.9,17.5h-3.9l-2.9-17.5h2.5L1239.7,257.8z"/>
	<path class="st20" d="M1252.5,242.1c1.9,0,2.8,0.9,2.8,2.8v6.7h-6.5v4.6c0,0.9,0.2,1.1,1.1,1.1h1.7c0.9,0,1.1-0.2,1.1-1.1v-1.6h2.5
		v2c0,1.9-0.9,2.8-2.8,2.8h-3.2c-1.9,0-2.8-0.9-2.8-2.8v-11.8c0-1.9,0.9-2.8,2.8-2.8H1252.5z M1252.8,249.5v-4.2
		c0-0.9-0.2-1.1-1.1-1.1h-1.8c-0.9,0-1.1,0.2-1.1,1.1v4.2H1252.8z"/>
	<path class="st20" d="M1264.1,242.1c1.9,0,2.8,0.9,2.8,2.8v14.6h-2.5v-14.2c0-0.9-0.2-1.1-1.1-1.1h-1.4c-0.9,0-1.2,0.3-1.2,1.3v14
		h-2.5v-17.5h2.5v1.2c0.3-0.9,1-1.2,2-1.2H1264.1z"/>
	<path class="st20" d="M1272.8,244.2v11.9c0,0.9,0.2,1.1,1.1,1.1h1.4v2.3h-2.1c-1.9,0-2.8-0.9-2.8-2.8v-12.5h-1.6v-2.1h1.6v-2.8h2.5
		v2.8h2.5v2.1H1272.8z"/>
	<path class="st20" d="M1288.3,242.1c1.9,0,2.8,0.9,2.8,2.8v11.8c0,1.9-0.9,2.8-2.8,2.8h-3.7c-1.9,0-2.8-0.9-2.8-2.8v-11.8
		c0-1.9,0.9-2.8,2.8-2.8H1288.3z M1288.7,245.3c0-0.9-0.2-1.1-1.1-1.1h-2.2c-0.9,0-1.1,0.2-1.1,1.1v11c0,0.9,0.2,1.1,1.1,1.1h2.2
		c0.9,0,1.1-0.2,1.1-1.1V245.3z"/>
	<path class="st20" d="M1298.1,237.7c-0.9,0-1.1,0.2-1.1,1.1v3.2h2.5v2.1h-2.5v15.3h-2.5v-15.3h-1.7v-2.1h1.7v-3.8
		c0-1.9,0.9-2.8,2.8-2.8h2.2v2.3H1298.1z"/>
	<path class="st20" d="M1314.5,242.1v17.5h-2.5v-1.2c-0.3,0.9-1,1.2-2,1.2h-1.4c-1.9,0-2.8-0.9-2.8-2.8v-11.8c0-1.9,0.9-2.8,2.8-2.8
		h1.4c1,0,1.7,0.3,2,1.2v-1.2H1314.5z M1310.8,257.4c0.9,0,1.2-0.3,1.2-1.3v-10.6c0-1-0.4-1.3-1.2-1.3h-1.4c-0.9,0-1.1,0.2-1.1,1.1
		v11c0,0.9,0.2,1.1,1.1,1.1H1310.8z"/>
	<path class="st20" d="M1328.8,247.2v-1.9c0-0.9-0.2-1.1-1.1-1.1h-1.8c-0.9,0-1.1,0.2-1.1,1.1v11c0,0.9,0.2,1.1,1.1,1.1h1.8
		c0.9,0,1.1-0.2,1.1-1.1v-1.9h2.5v2.3c0,1.9-0.9,2.8-2.8,2.8h-3.3c-1.9,0-2.8-0.9-2.8-2.8v-11.8c0-1.9,0.9-2.8,2.8-2.8h3.3
		c1.9,0,2.8,0.9,2.8,2.8v2.3H1328.8z"/>
	<path class="st20" d="M1340,242.1v2.2h-1.1c-1.6,0-2.3,0.9-2.3,2.7v12.6h-2.5v-17.5h2.5v2c0.3-1,1.2-2,2.6-2H1340z"/>
	<path class="st20" d="M1348,242.1c1.9,0,2.8,0.9,2.8,2.8v6.7h-6.5v4.6c0,0.9,0.2,1.1,1.1,1.1h1.7c0.9,0,1.1-0.2,1.1-1.1v-1.6h2.5v2
		c0,1.9-0.9,2.8-2.8,2.8h-3.2c-1.9,0-2.8-0.9-2.8-2.8v-11.8c0-1.9,0.9-2.8,2.8-2.8H1348z M1348.3,249.5v-4.2c0-0.9-0.2-1.1-1.1-1.1
		h-1.8c-0.9,0-1.1,0.2-1.1,1.1v4.2H1348.3z"/>
	<path class="st20" d="M1370.1,242.1l-3.1,17.5h-3.8l-2.1-14l-2.1,14h-3.8l-3.1-17.5h2.4l2.6,15.7l2.3-15.7h3.4l2.2,15.7l2.6-15.7
		H1370.1z"/>
	<path class="st20" d="M1382.5,242c1.9,0,2.8,0.9,2.8,2.8v11.8c0,1.9-0.9,2.8-2.8,2.8h-1.4c-1,0-1.7-0.3-2-1.2v1.2h-2.5v-24.1h2.5
		v7.8c0.3-0.9,1-1.2,2-1.2H1382.5z M1382.9,245.3c0-0.9-0.2-1.1-1.1-1.1h-1.4c-0.9,0-1.2,0.3-1.2,1.3v10.7c0,1,0.4,1.3,1.2,1.3h1.4
		c0.9,0,1.1-0.2,1.1-1.1V245.3z"/>
	<path class="st20" d="M1394.6,242.1c1.9,0,2.8,0.9,2.8,2.8v6.7h-6.5v4.6c0,0.9,0.2,1.1,1.1,1.1h1.7c0.9,0,1.1-0.2,1.1-1.1v-1.6h2.5
		v2c0,1.9-0.9,2.8-2.8,2.8h-3.2c-1.9,0-2.8-0.9-2.8-2.8v-11.8c0-1.9,0.9-2.8,2.8-2.8H1394.6z M1394.9,249.5v-4.2
		c0-0.9-0.2-1.1-1.1-1.1h-1.8c-0.9,0-1.1,0.2-1.1,1.1v4.2H1394.9z"/>
	<path class="st20" d="M1400.2,235.4h2.6v2.9h-2.6V235.4z M1400.3,259.5v-17.5h2.5v17.5H1400.3z"/>
	<path class="st20" d="M1411.9,242.1c1.9,0,2.8,0.9,2.8,2.8v14.6h-2.5v-14.2c0-0.9-0.2-1.1-1.1-1.1h-1.4c-0.9,0-1.2,0.3-1.2,1.3v14
		h-2.5v-17.5h2.5v1.2c0.3-0.9,1-1.2,2-1.2H1411.9z"/>
	<path class="st20" d="M1426.6,242.1v19.7c0,1.9-0.9,2.8-2.8,2.8h-5.4v-2.1h4.6c0.9,0,1.1-0.2,1.1-1.1v-3c-0.3,0.9-1,1.2-2,1.2h-1.4
		c-1.9,0-2.8-0.9-2.8-2.8v-11.8c0-1.9,0.9-2.8,2.8-2.8h1.4c1,0,1.7,0.3,2,1.2v-1.2H1426.6z M1422.9,257.4c0.9,0,1.2-0.3,1.2-1.3
		v-10.6c0-1-0.4-1.3-1.2-1.3h-1.4c-0.9,0-1.1,0.2-1.1,1.1v11c0,0.9,0.2,1.1,1.1,1.1H1422.9z"/>
	<path class="st20" d="M1446.7,242.1c1.9,0,2.8,0.9,2.8,2.8v14.6h-2.5v-14.2c0-0.9-0.2-1.1-1.1-1.1h-1.4c-0.9,0-1.2,0.3-1.2,1.3v14
		h-2.5v-14.2c0-0.9-0.2-1.1-1.1-1.1h-1.4c-0.9,0-1.2,0.3-1.2,1.3v14h-2.5v-17.5h2.5v1.2c0.3-0.9,1-1.2,2-1.2h1.4
		c1.4,0,2.2,0.5,2.6,1.4c0.3-1,1.1-1.4,2.2-1.4H1446.7z"/>
	<path class="st20" d="M1458.9,242.1c1.9,0,2.8,0.9,2.8,2.8v11.8c0,1.9-0.9,2.8-2.8,2.8h-3.7c-1.9,0-2.8-0.9-2.8-2.8v-11.8
		c0-1.9,0.9-2.8,2.8-2.8H1458.9z M1459.3,245.3c0-0.9-0.2-1.1-1.1-1.1h-2.2c-0.9,0-1.1,0.2-1.1,1.1v11c0,0.9,0.2,1.1,1.1,1.1h2.2
		c0.9,0,1.1-0.2,1.1-1.1V245.3z"/>
	<path class="st20" d="M1470.6,242.1v2.2h-1.1c-1.6,0-2.3,0.9-2.3,2.7v12.6h-2.5v-17.5h2.5v2c0.3-1,1.2-2,2.6-2H1470.6z"/>
	<path class="st20" d="M1478.6,242.1c1.9,0,2.8,0.9,2.8,2.8v6.7h-6.5v4.6c0,0.9,0.2,1.1,1.1,1.1h1.7c0.9,0,1.1-0.2,1.1-1.1v-1.6h2.5
		v2c0,1.9-0.9,2.8-2.8,2.8h-3.2c-1.9,0-2.8-0.9-2.8-2.8v-11.8c0-1.9,0.9-2.8,2.8-2.8H1478.6z M1479,249.5v-4.2
		c0-0.9-0.2-1.1-1.1-1.1h-1.8c-0.9,0-1.1,0.2-1.1,1.1v4.2H1479z"/>
	<path class="st20" d="M1494.9,242.1c1.9,0,2.8,0.9,2.8,2.8v14.6h-2.5v-14.2c0-0.9-0.2-1.1-1.1-1.1h-1.4c-0.9,0-1.2,0.3-1.2,1.3v14
		h-2.5v-17.5h2.5v1.2c0.3-0.9,1-1.2,2-1.2H1494.9z"/>
	<path class="st20" d="M1507.1,242.1c1.9,0,2.8,0.9,2.8,2.8v6.7h-6.5v4.6c0,0.9,0.2,1.1,1.1,1.1h1.7c0.9,0,1.1-0.2,1.1-1.1v-1.6h2.5
		v2c0,1.9-0.9,2.8-2.8,2.8h-3.2c-1.9,0-2.8-0.9-2.8-2.8v-11.8c0-1.9,0.9-2.8,2.8-2.8H1507.1z M1507.5,249.5v-4.2
		c0-0.9-0.2-1.1-1.1-1.1h-1.8c-0.9,0-1.1,0.2-1.1,1.1v4.2H1507.5z"/>
	<path class="st20" d="M1518.7,242.1v2.2h-1.1c-1.6,0-2.3,0.9-2.3,2.7v12.6h-2.5v-17.5h2.5v2c0.3-1,1.2-2,2.6-2H1518.7z"/>
	<path class="st20" d="M1523.9,257.8l2.4-15.7h2.5l-2.9,17.5h-3.9l-2.9-17.5h2.5L1523.9,257.8z"/>
	<path class="st20" d="M1536.9,242.1c1.9,0,2.8,0.9,2.8,2.8v11.8c0,1.9-0.9,2.8-2.8,2.8h-3.7c-1.9,0-2.8-0.9-2.8-2.8v-11.8
		c0-1.9,0.9-2.8,2.8-2.8H1536.9z M1537.3,245.3c0-0.9-0.2-1.1-1.1-1.1h-2.2c-0.9,0-1.1,0.2-1.1,1.1v11c0,0.9,0.2,1.1,1.1,1.1h2.2
		c0.9,0,1.1-0.2,1.1-1.1V245.3z"/>
	<path class="st20" d="M1551.5,242.1v17.5h-2.5v-1.2c-0.3,0.9-1,1.2-2,1.2h-1.4c-1.9,0-2.8-0.9-2.8-2.8v-14.6h2.5v14.2
		c0,0.9,0.2,1.1,1.1,1.1h1.4c0.9,0,1.2-0.3,1.2-1.3v-14H1551.5z"/>
	<path class="st20" d="M1560.1,253c0-0.9-0.2-1.1-1.1-1.1h-1.8c-1.9,0-2.8-0.9-2.8-2.8v-4.1c0-1.9,0.9-2.8,2.8-2.8h2.4
		c1.9,0,2.8,0.9,2.8,2.8v1.8h-2.4v-1.4c0-0.9-0.2-1.1-1.1-1.1h-1c-0.9,0-1.1,0.2-1.1,1.1v3.4c0,0.9,0.2,1.1,1.1,1.1h1.8
		c1.9,0,2.8,0.9,2.8,2.8v4c0,1.9-0.9,2.8-2.8,2.8h-2.4c-1.9,0-2.8-0.9-2.8-2.8v-1.8h2.4v1.4c0,0.9,0.2,1.1,1.1,1.1h1
		c0.9,0,1.1-0.2,1.1-1.1V253z"/>
	<path class="st20" d="M1578.7,242.1v17.5h-2.5v-1.2c-0.3,0.9-1,1.2-2,1.2h-1.4c-1.9,0-2.8-0.9-2.8-2.8v-11.8c0-1.9,0.9-2.8,2.8-2.8
		h1.4c1,0,1.7,0.3,2,1.2v-1.2H1578.7z M1575,257.4c0.9,0,1.2-0.3,1.2-1.3v-10.6c0-1-0.4-1.3-1.2-1.3h-1.4c-0.9,0-1.1,0.2-1.1,1.1v11
		c0,0.9,0.2,1.1,1.1,1.1H1575z"/>
	<path class="st20" d="M1587.8,242c1.9,0,2.8,0.9,2.8,2.8v11.8c0,1.9-0.9,2.8-2.8,2.8h-1.4c-1,0-1.7-0.3-2-1.2v1.2h-2.5v-24.1h2.5
		v7.8c0.3-0.9,1-1.2,2-1.2H1587.8z M1588.2,245.3c0-0.9-0.2-1.1-1.1-1.1h-1.4c-0.9,0-1.2,0.3-1.2,1.3v10.7c0,1,0.4,1.3,1.2,1.3h1.4
		c0.9,0,1.1-0.2,1.1-1.1V245.3z"/>
	<path class="st20" d="M1600.1,242.1c1.9,0,2.8,0.9,2.8,2.8v11.8c0,1.9-0.9,2.8-2.8,2.8h-3.7c-1.9,0-2.8-0.9-2.8-2.8v-11.8
		c0-1.9,0.9-2.8,2.8-2.8H1600.1z M1600.5,245.3c0-0.9-0.2-1.1-1.1-1.1h-2.2c-0.9,0-1.1,0.2-1.1,1.1v11c0,0.9,0.2,1.1,1.1,1.1h2.2
		c0.9,0,1.1-0.2,1.1-1.1V245.3z"/>
	<path class="st20" d="M1614.7,242.1v17.5h-2.5v-1.2c-0.3,0.9-1,1.2-2,1.2h-1.4c-1.9,0-2.8-0.9-2.8-2.8v-14.6h2.5v14.2
		c0,0.9,0.2,1.1,1.1,1.1h1.4c0.9,0,1.2-0.3,1.2-1.3v-14H1614.7z"/>
	<path class="st20" d="M1620.6,244.2v11.9c0,0.9,0.2,1.1,1.1,1.1h1.4v2.3h-2.1c-1.9,0-2.8-0.9-2.8-2.8v-12.5h-1.6v-2.1h1.6v-2.8h2.5
		v2.8h2.5v2.1H1620.6z"/>
	<path class="st20" d="M1632.4,244.2v11.9c0,0.9,0.2,1.1,1.1,1.1h1.4v2.3h-2.1c-1.9,0-2.8-0.9-2.8-2.8v-12.5h-1.6v-2.1h1.6v-2.8h2.5
		v2.8h2.5v2.1H1632.4z"/>
	<path class="st20" d="M1642.7,242.1c1.9,0,2.8,0.9,2.8,2.8v14.6h-2.5v-14.2c0-0.9-0.2-1.1-1.1-1.1h-1.4c-0.9,0-1.2,0.3-1.2,1.3v14
		h-2.5v-24.1h2.5v7.8c0.3-0.9,1-1.2,2-1.2H1642.7z"/>
	<path class="st20" d="M1655,242.1c1.9,0,2.8,0.9,2.8,2.8v6.7h-6.5v4.6c0,0.9,0.2,1.1,1.1,1.1h1.7c0.9,0,1.1-0.2,1.1-1.1v-1.6h2.5v2
		c0,1.9-0.9,2.8-2.8,2.8h-3.2c-1.9,0-2.8-0.9-2.8-2.8v-11.8c0-1.9,0.9-2.8,2.8-2.8H1655z M1655.3,249.5v-4.2c0-0.9-0.2-1.1-1.1-1.1
		h-1.8c-0.9,0-1.1,0.2-1.1,1.1v4.2H1655.3z"/>
	<path class="st20" d="M1674.4,235.4v24.1h-2.5v-15.3h-3.8v15.3h-2.5v-15.3h-1.7v-2.1h1.7v-3.8c0-1.9,0.9-2.8,2.8-2.8h1.5v2.3h-0.8
		c-0.9,0-1.1,0.2-1.1,1.1v3.2h3.8v-6.6H1674.4z"/>
	<path class="st20" d="M1677.6,235.4h2.6v2.9h-2.6V235.4z M1677.7,259.5v-17.5h2.5v17.5H1677.7z"/>
	<path class="st20" d="M1692,242.1v19.7c0,1.9-0.9,2.8-2.8,2.8h-5.4v-2.1h4.6c0.9,0,1.1-0.2,1.1-1.1v-3c-0.3,0.9-1,1.2-2,1.2h-1.4
		c-1.9,0-2.8-0.9-2.8-2.8v-11.8c0-1.9,0.9-2.8,2.8-2.8h1.4c1,0,1.7,0.3,2,1.2v-1.2H1692z M1688.2,257.4c0.9,0,1.2-0.3,1.2-1.3v-10.6
		c0-1-0.4-1.3-1.2-1.3h-1.4c-0.9,0-1.1,0.2-1.1,1.1v11c0,0.9,0.2,1.1,1.1,1.1H1688.2z"/>
	<path class="st20" d="M1701.1,242.1c1.9,0,2.8,0.9,2.8,2.8v14.6h-2.5v-14.2c0-0.9-0.2-1.1-1.1-1.1h-1.4c-0.9,0-1.2,0.3-1.2,1.3v14
		h-2.5v-24.1h2.5v7.8c0.3-0.9,1-1.2,2-1.2H1701.1z"/>
	<path class="st20" d="M1709.8,244.2v11.9c0,0.9,0.2,1.1,1.1,1.1h1.4v2.3h-2.1c-1.9,0-2.8-0.9-2.8-2.8v-12.5h-1.6v-2.1h1.6v-2.8h2.5
		v2.8h2.5v2.1H1709.8z"/>
	<path class="st20" d="M1136.8,285.3v17.5h-2.5v-1.2c-0.3,0.9-1,1.2-2,1.2h-1.4c-1.9,0-2.8-0.9-2.8-2.8v-11.8c0-1.9,0.9-2.8,2.8-2.8
		h1.4c1,0,1.7,0.3,2,1.2v-1.2H1136.8z M1133.1,300.6c0.9,0,1.2-0.3,1.2-1.3v-10.6c0-1-0.4-1.3-1.2-1.3h-1.4c-0.9,0-1.1,0.2-1.1,1.1
		v11c0,0.9,0.2,1.1,1.1,1.1H1133.1z"/>
	<path class="st20" d="M1145.9,285.3c1.9,0,2.8,0.9,2.8,2.8v14.6h-2.5v-14.2c0-0.9-0.2-1.1-1.1-1.1h-1.4c-0.9,0-1.2,0.3-1.2,1.3v14
		h-2.5v-17.5h2.5v1.2c0.3-0.9,1-1.2,2-1.2H1145.9z"/>
	<path class="st20" d="M1160.6,278.6v24.1h-2.5v-1.2c-0.3,0.9-1,1.2-2,1.2h-1.4c-1.9,0-2.8-0.9-2.8-2.8v-11.8c0-1.9,0.9-2.8,2.8-2.8
		h1.4c1,0,1.7,0.3,2,1.2v-7.8H1160.6z M1156.8,300.6c0.9,0,1.2-0.3,1.2-1.3v-10.7c0-1-0.4-1.3-1.2-1.3h-1.4c-0.9,0-1.1,0.2-1.1,1.1
		v11c0,0.9,0.2,1.1,1.1,1.1H1156.8z"/>
	<path class="st20" d="M1177,278.6v24.1h-2.5v-1.2c-0.3,0.9-1,1.2-2,1.2h-1.4c-1.9,0-2.8-0.9-2.8-2.8v-11.8c0-1.9,0.9-2.8,2.8-2.8
		h1.4c1,0,1.7,0.3,2,1.2v-7.8H1177z M1173.3,300.6c0.9,0,1.2-0.3,1.2-1.3v-10.7c0-1-0.4-1.3-1.2-1.3h-1.4c-0.9,0-1.1,0.2-1.1,1.1v11
		c0,0.9,0.2,1.1,1.1,1.1H1173.3z"/>
	<path class="st20" d="M1188.9,285.3v17.5h-2.5v-1.2c-0.3,0.9-1,1.2-2,1.2h-1.4c-1.9,0-2.8-0.9-2.8-2.8v-11.8c0-1.9,0.9-2.8,2.8-2.8
		h1.4c1,0,1.7,0.3,2,1.2v-1.2H1188.9z M1185.1,300.6c0.9,0,1.2-0.3,1.2-1.3v-10.6c0-1-0.4-1.3-1.2-1.3h-1.4c-0.9,0-1.1,0.2-1.1,1.1
		v11c0,0.9,0.2,1.1,1.1,1.1H1185.1z"/>
	<path class="st20" d="M1192,278.6h2.6v2.9h-2.6V278.6z M1192.1,302.7v-17.5h2.5v17.5H1192.1z"/>
	<path class="st20" d="M1197.8,302.7v-24.1h2.5v24.1H1197.8z"/>
	<path class="st20" d="M1204.8,285.3l2.8,15.7l2.6-15.7h2.5l-3.5,19.7c-0.4,1.9-1.5,2.8-3.4,2.8h-1.9v-2.1h1.2
		c0.9,0,1.6-0.2,1.8-1.1l0.4-1.8h-1.6l-3.3-17.5H1204.8z"/>
	<path class="st20" d="M1225.7,285.3c1.9,0,2.8,0.9,2.8,2.8v11.8c0,1.9-0.9,2.8-2.8,2.8h-3.7c-1.9,0-2.8-0.9-2.8-2.8v-11.8
		c0-1.9,0.9-2.8,2.8-2.8H1225.7z M1226.1,288.5c0-0.9-0.2-1.1-1.1-1.1h-2.2c-0.9,0-1.1,0.2-1.1,1.1v11c0,0.9,0.2,1.1,1.1,1.1h2.2
		c0.9,0,1.1-0.2,1.1-1.1V288.5z"/>
	<path class="st20" d="M1237.5,285.3c1.9,0,2.8,0.9,2.8,2.8v11.8c0,1.9-0.9,2.8-2.8,2.8h-1.4c-1,0-1.7-0.3-2-1.2v6.3h-2.5v-22.5h2.5
		v1.2c0.3-0.9,1-1.2,2-1.2H1237.5z M1237.8,288.5c0-0.9-0.2-1.1-1.1-1.1h-1.4c-0.9,0-1.2,0.3-1.2,1.3v10.6c0,1,0.4,1.3,1.2,1.3h1.4
		c0.9,0,1.1-0.2,1.1-1.1V288.5z"/>
	<path class="st20" d="M1249.5,285.3c1.9,0,2.8,0.9,2.8,2.8v6.7h-6.5v4.6c0,0.9,0.2,1.1,1.1,1.1h1.7c0.9,0,1.1-0.2,1.1-1.1v-1.6h2.5
		v2c0,1.9-0.9,2.8-2.8,2.8h-3.2c-1.9,0-2.8-0.9-2.8-2.8v-11.8c0-1.9,0.9-2.8,2.8-2.8H1249.5z M1249.9,292.7v-4.2
		c0-0.9-0.2-1.1-1.1-1.1h-1.8c-0.9,0-1.1,0.2-1.1,1.1v4.2H1249.9z"/>
	<path class="st20" d="M1261.1,285.3v2.2h-1.1c-1.6,0-2.3,0.9-2.3,2.7v12.6h-2.5v-17.5h2.5v2c0.3-1,1.2-2,2.6-2H1261.1z"/>
	<path class="st20" d="M1271.5,285.3v17.5h-2.5v-1.2c-0.3,0.9-1,1.2-2,1.2h-1.4c-1.9,0-2.8-0.9-2.8-2.8v-11.8c0-1.9,0.9-2.8,2.8-2.8
		h1.4c1,0,1.7,0.3,2,1.2v-1.2H1271.5z M1267.8,300.6c0.9,0,1.2-0.3,1.2-1.3v-10.6c0-1-0.4-1.3-1.2-1.3h-1.4c-0.9,0-1.1,0.2-1.1,1.1
		v11c0,0.9,0.2,1.1,1.1,1.1H1267.8z"/>
	<path class="st20" d="M1277.3,287.4v11.9c0,0.9,0.2,1.1,1.1,1.1h1.4v2.3h-2.1c-1.9,0-2.8-0.9-2.8-2.8v-12.5h-1.6v-2.1h1.6v-2.8h2.5
		v2.8h2.5v2.1H1277.3z"/>
	<path class="st20" d="M1281.7,278.6h2.6v2.9h-2.6V278.6z M1281.8,302.7v-17.5h2.5v17.5H1281.8z"/>
	<path class="st20" d="M1293.9,285.3c1.9,0,2.8,0.9,2.8,2.8v11.8c0,1.9-0.9,2.8-2.8,2.8h-3.7c-1.9,0-2.8-0.9-2.8-2.8v-11.8
		c0-1.9,0.9-2.8,2.8-2.8H1293.9z M1294.3,288.5c0-0.9-0.2-1.1-1.1-1.1h-2.2c-0.9,0-1.1,0.2-1.1,1.1v11c0,0.9,0.2,1.1,1.1,1.1h2.2
		c0.9,0,1.1-0.2,1.1-1.1V288.5z"/>
	<path class="st20" d="M1305.7,285.3c1.9,0,2.8,0.9,2.8,2.8v14.6h-2.5v-14.2c0-0.9-0.2-1.1-1.1-1.1h-1.4c-0.9,0-1.2,0.3-1.2,1.3v14
		h-2.5v-17.5h2.5v1.2c0.3-0.9,1-1.2,2-1.2H1305.7z"/>
	<path class="st20" d="M1317.1,296.2c0-0.9-0.2-1.1-1.1-1.1h-1.8c-1.9,0-2.8-0.9-2.8-2.8v-4.1c0-1.9,0.9-2.8,2.8-2.8h2.4
		c1.9,0,2.8,0.9,2.8,2.8v1.8h-2.4v-1.4c0-0.9-0.2-1.1-1.1-1.1h-1c-0.9,0-1.1,0.2-1.1,1.1v3.4c0,0.9,0.2,1.1,1.1,1.1h1.8
		c1.9,0,2.8,0.9,2.8,2.8v4c0,1.9-0.9,2.8-2.8,2.8h-2.4c-1.9,0-2.8-0.9-2.8-2.8v-1.8h2.4v1.4c0,0.9,0.2,1.1,1.1,1.1h1
		c0.9,0,1.1-0.2,1.1-1.1V296.2z"/>
	<path class="st20" d="M1333.5,285.3c1.9,0,2.8,0.9,2.8,2.8v11.8c0,1.9-0.9,2.8-2.8,2.8h-3.7c-1.9,0-2.8-0.9-2.8-2.8v-11.8
		c0-1.9,0.9-2.8,2.8-2.8H1333.5z M1333.9,288.5c0-0.9-0.2-1.1-1.1-1.1h-2.2c-0.9,0-1.1,0.2-1.1,1.1v11c0,0.9,0.2,1.1,1.1,1.1h2.2
		c0.9,0,1.1-0.2,1.1-1.1V288.5z"/>
	<path class="st20" d="M1343.3,280.9c-0.9,0-1.1,0.2-1.1,1.1v3.2h2.5v2.1h-2.5v15.3h-2.5v-15.3h-1.7v-2.1h1.7v-3.8
		c0-1.9,0.9-2.8,2.8-2.8h2.2v2.3H1343.3z"/>
	<path class="st20" d="M1359.7,285.3v17.5h-2.5v-1.2c-0.3,0.9-1,1.2-2,1.2h-1.4c-1.9,0-2.8-0.9-2.8-2.8v-11.8c0-1.9,0.9-2.8,2.8-2.8
		h1.4c1,0,1.7,0.3,2,1.2v-1.2H1359.7z M1356,300.6c0.9,0,1.2-0.3,1.2-1.3v-10.6c0-1-0.4-1.3-1.2-1.3h-1.4c-0.9,0-1.1,0.2-1.1,1.1v11
		c0,0.9,0.2,1.1,1.1,1.1H1356z"/>
	<path class="st20" d="M1373,296.2c0-0.9-0.2-1.1-1.1-1.1h-1.8c-1.9,0-2.8-0.9-2.8-2.8v-4.1c0-1.9,0.9-2.8,2.8-2.8h2.4
		c1.9,0,2.8,0.9,2.8,2.8v1.8h-2.4v-1.4c0-0.9-0.2-1.1-1.1-1.1h-1c-0.9,0-1.1,0.2-1.1,1.1v3.4c0,0.9,0.2,1.1,1.1,1.1h1.8
		c1.9,0,2.8,0.9,2.8,2.8v4c0,1.9-0.9,2.8-2.8,2.8h-2.4c-1.9,0-2.8-0.9-2.8-2.8v-1.8h2.4v1.4c0,0.9,0.2,1.1,1.1,1.1h1
		c0.9,0,1.1-0.2,1.1-1.1V296.2z"/>
	<path class="st20" d="M1384.2,285.3c1.9,0,2.8,0.9,2.8,2.8v11.8c0,1.9-0.9,2.8-2.8,2.8h-1.4c-1,0-1.7-0.3-2-1.2v6.3h-2.5v-22.5h2.5
		v1.2c0.3-0.9,1-1.2,2-1.2H1384.2z M1384.6,288.5c0-0.9-0.2-1.1-1.1-1.1h-1.4c-0.9,0-1.2,0.3-1.2,1.3v10.6c0,1,0.4,1.3,1.2,1.3h1.4
		c0.9,0,1.1-0.2,1.1-1.1V288.5z"/>
	<path class="st20" d="M1398.7,285.3v17.5h-2.5v-1.2c-0.3,0.9-1,1.2-2,1.2h-1.4c-1.9,0-2.8-0.9-2.8-2.8v-11.8c0-1.9,0.9-2.8,2.8-2.8
		h1.4c1,0,1.7,0.3,2,1.2v-1.2H1398.7z M1395,300.6c0.9,0,1.2-0.3,1.2-1.3v-10.6c0-1-0.4-1.3-1.2-1.3h-1.4c-0.9,0-1.1,0.2-1.1,1.1v11
		c0,0.9,0.2,1.1,1.1,1.1H1395z"/>
	<path class="st20" d="M1408.3,290.4v-1.9c0-0.9-0.2-1.1-1.1-1.1h-1.8c-0.9,0-1.1,0.2-1.1,1.1v11c0,0.9,0.2,1.1,1.1,1.1h1.8
		c0.9,0,1.1-0.2,1.1-1.1v-1.9h2.5v2.3c0,1.9-0.9,2.8-2.8,2.8h-3.3c-1.9,0-2.8-0.9-2.8-2.8v-11.8c0-1.9,0.9-2.8,2.8-2.8h3.3
		c1.9,0,2.8,0.9,2.8,2.8v2.3H1408.3z"/>
	<path class="st20" d="M1419.8,285.3c1.9,0,2.8,0.9,2.8,2.8v6.7h-6.5v4.6c0,0.9,0.2,1.1,1.1,1.1h1.7c0.9,0,1.1-0.2,1.1-1.1v-1.6h2.5
		v2c0,1.9-0.9,2.8-2.8,2.8h-3.2c-1.9,0-2.8-0.9-2.8-2.8v-11.8c0-1.9,0.9-2.8,2.8-2.8H1419.8z M1420.1,292.7v-4.2
		c0-0.9-0.2-1.1-1.1-1.1h-1.8c-0.9,0-1.1,0.2-1.1,1.1v4.2H1420.1z"/>
	<path class="st20" d="M1430.9,296.2c0-0.9-0.2-1.1-1.1-1.1h-1.8c-1.9,0-2.8-0.9-2.8-2.8v-4.1c0-1.9,0.9-2.8,2.8-2.8h2.4
		c1.9,0,2.8,0.9,2.8,2.8v1.8h-2.4v-1.4c0-0.9-0.2-1.1-1.1-1.1h-1c-0.9,0-1.1,0.2-1.1,1.1v3.4c0,0.9,0.2,1.1,1.1,1.1h1.8
		c1.9,0,2.8,0.9,2.8,2.8v4c0,1.9-0.9,2.8-2.8,2.8h-2.4c-1.9,0-2.8-0.9-2.8-2.8v-1.8h2.4v1.4c0,0.9,0.2,1.1,1.1,1.1h1
		c0.9,0,1.1-0.2,1.1-1.1V296.2z"/>
	<path class="st20" d="M1442.1,285.3c1.9,0,2.8,0.9,2.8,2.8v14.6h-2.5v-14.2c0-0.9-0.2-1.1-1.1-1.1h-1.4c-0.9,0-1.2,0.3-1.2,1.3v14
		h-2.5v-24.1h2.5v7.8c0.3-0.9,1-1.2,2-1.2H1442.1z"/>
	<path class="st20" d="M1448.1,278.6h2.6v2.9h-2.6V278.6z M1448.2,302.7v-17.5h2.5v17.5H1448.2z"/>
	<path class="st20" d="M1459.8,285.3c1.9,0,2.8,0.9,2.8,2.8v11.8c0,1.9-0.9,2.8-2.8,2.8h-1.4c-1,0-1.7-0.3-2-1.2v6.3h-2.5v-22.5h2.5
		v1.2c0.3-0.9,1-1.2,2-1.2H1459.8z M1460.2,288.5c0-0.9-0.2-1.1-1.1-1.1h-1.4c-0.9,0-1.2,0.3-1.2,1.3v10.6c0,1,0.4,1.3,1.2,1.3h1.4
		c0.9,0,1.1-0.2,1.1-1.1V288.5z"/>
	<path class="st20" d="M1478,274.2h0.6v2.1l-0.5,0c-4,0.3-5.1,6.2-5.1,14v2.6c0,7.8,1.1,13.8,5.1,14l0.5,0v2.1h-0.6
		c-5.1,0-7.4-5.9-7.4-16.2v-2.6C1470.5,280.1,1472.8,274.2,1478,274.2z"/>
	<path class="st20" d="M1491.4,285.3c1.9,0,2.8,0.9,2.8,2.8v14.6h-2.5v-14.2c0-0.9-0.2-1.1-1.1-1.1h-1.4c-0.9,0-1.2,0.3-1.2,1.3v14
		h-2.5v-14.2c0-0.9-0.2-1.1-1.1-1.1h-1.4c-0.9,0-1.2,0.3-1.2,1.3v14h-2.5v-17.5h2.5v1.2c0.3-0.9,1-1.2,2-1.2h1.4
		c1.4,0,2.2,0.5,2.6,1.4c0.3-1,1.1-1.4,2.2-1.4H1491.4z"/>
	<path class="st20" d="M1503.6,285.3c1.9,0,2.8,0.9,2.8,2.8v11.8c0,1.9-0.9,2.8-2.8,2.8h-3.7c-1.9,0-2.8-0.9-2.8-2.8v-11.8
		c0-1.9,0.9-2.8,2.8-2.8H1503.6z M1504,288.5c0-0.9-0.2-1.1-1.1-1.1h-2.2c-0.9,0-1.1,0.2-1.1,1.1v11c0,0.9,0.2,1.1,1.1,1.1h2.2
		c0.9,0,1.1-0.2,1.1-1.1V288.5z"/>
	<path class="st20" d="M1514.9,296.2c0-0.9-0.2-1.1-1.1-1.1h-1.8c-1.9,0-2.8-0.9-2.8-2.8v-4.1c0-1.9,0.9-2.8,2.8-2.8h2.4
		c1.9,0,2.8,0.9,2.8,2.8v1.8h-2.4v-1.4c0-0.9-0.2-1.1-1.1-1.1h-1c-0.9,0-1.1,0.2-1.1,1.1v3.4c0,0.9,0.2,1.1,1.1,1.1h1.8
		c1.9,0,2.8,0.9,2.8,2.8v4c0,1.9-0.9,2.8-2.8,2.8h-2.4c-1.9,0-2.8-0.9-2.8-2.8v-1.8h2.4v1.4c0,0.9,0.2,1.1,1.1,1.1h1
		c0.9,0,1.1-0.2,1.1-1.1V296.2z"/>
	<path class="st20" d="M1522.9,287.4v11.9c0,0.9,0.2,1.1,1.1,1.1h1.4v2.3h-2.1c-1.9,0-2.8-0.9-2.8-2.8v-12.5h-1.6v-2.1h1.6v-2.8h2.5
		v2.8h2.5v2.1H1522.9z"/>
	<path class="st20" d="M1538.3,285.3c1.9,0,2.8,0.9,2.8,2.8v11.8c0,1.9-0.9,2.8-2.8,2.8h-3.7c-1.9,0-2.8-0.9-2.8-2.8v-11.8
		c0-1.9,0.9-2.8,2.8-2.8H1538.3z M1538.7,288.5c0-0.9-0.2-1.1-1.1-1.1h-2.2c-0.9,0-1.1,0.2-1.1,1.1v11c0,0.9,0.2,1.1,1.1,1.1h2.2
		c0.9,0,1.1-0.2,1.1-1.1V288.5z"/>
	<path class="st20" d="M1548.1,280.9c-0.9,0-1.1,0.2-1.1,1.1v3.2h2.5v2.1h-2.5v15.3h-2.5v-15.3h-1.7v-2.1h1.7v-3.8
		c0-1.9,0.9-2.8,2.8-2.8h2.2v2.3H1548.1z"/>
	<path class="st20" d="M1554,287.4v11.9c0,0.9,0.2,1.1,1.1,1.1h1.4v2.3h-2.1c-1.9,0-2.8-0.9-2.8-2.8v-12.5h-1.6v-2.1h1.6v-2.8h2.5
		v2.8h2.5v2.1H1554z"/>
	<path class="st20" d="M1564.6,285.3c1.9,0,2.8,0.9,2.8,2.8v6.7h-6.5v4.6c0,0.9,0.2,1.1,1.1,1.1h1.7c0.9,0,1.1-0.2,1.1-1.1v-1.6h2.5
		v2c0,1.9-0.9,2.8-2.8,2.8h-3.2c-1.9,0-2.8-0.9-2.8-2.8v-11.8c0-1.9,0.9-2.8,2.8-2.8H1564.6z M1564.9,292.7v-4.2
		c0-0.9-0.2-1.1-1.1-1.1h-1.8c-0.9,0-1.1,0.2-1.1,1.1v4.2H1564.9z"/>
	<path class="st20" d="M1576.2,285.3c1.9,0,2.8,0.9,2.8,2.8v14.6h-2.5v-14.2c0-0.9-0.2-1.1-1.1-1.1h-1.4c-0.9,0-1.2,0.3-1.2,1.3v14
		h-2.5v-17.5h2.5v1.2c0.3-0.9,1-1.2,2-1.2H1576.2z"/>
	<path class="st20" d="M1590.9,280.9c-0.9,0-1.1,0.2-1.1,1.1v3.2h2.5v2.1h-2.5v15.3h-2.5v-15.3h-1.7v-2.1h1.7v-3.8
		c0-1.9,0.9-2.8,2.8-2.8h2.2v2.3H1590.9z"/>
	<path class="st20" d="M1600.4,285.3c1.9,0,2.8,0.9,2.8,2.8v11.8c0,1.9-0.9,2.8-2.8,2.8h-3.7c-1.9,0-2.8-0.9-2.8-2.8v-11.8
		c0-1.9,0.9-2.8,2.8-2.8H1600.4z M1600.8,288.5c0-0.9-0.2-1.1-1.1-1.1h-2.2c-0.9,0-1.1,0.2-1.1,1.1v11c0,0.9,0.2,1.1,1.1,1.1h2.2
		c0.9,0,1.1-0.2,1.1-1.1V288.5z"/>
	<path class="st20" d="M1612.1,285.3v2.2h-1.1c-1.6,0-2.3,0.9-2.3,2.7v12.6h-2.5v-17.5h2.5v2c0.3-1,1.2-2,2.6-2H1612.1z"/>
	<path class="st20" d="M1621.2,287.4v11.9c0,0.9,0.2,1.1,1.1,1.1h1.4v2.3h-2.1c-1.9,0-2.8-0.9-2.8-2.8v-12.5h-1.6v-2.1h1.6v-2.8h2.5
		v2.8h2.5v2.1H1621.2z"/>
	<path class="st20" d="M1631.6,285.3c1.9,0,2.8,0.9,2.8,2.8v14.6h-2.5v-14.2c0-0.9-0.2-1.1-1.1-1.1h-1.4c-0.9,0-1.2,0.3-1.2,1.3v14
		h-2.5v-24.1h2.5v7.8c0.3-0.9,1-1.2,2-1.2H1631.6z"/>
	<path class="st20" d="M1643.8,285.3c1.9,0,2.8,0.9,2.8,2.8v6.7h-6.5v4.6c0,0.9,0.2,1.1,1.1,1.1h1.7c0.9,0,1.1-0.2,1.1-1.1v-1.6h2.5
		v2c0,1.9-0.9,2.8-2.8,2.8h-3.2c-1.9,0-2.8-0.9-2.8-2.8v-11.8c0-1.9,0.9-2.8,2.8-2.8H1643.8z M1644.2,292.7v-4.2
		c0-0.9-0.2-1.1-1.1-1.1h-1.8c-0.9,0-1.1,0.2-1.1,1.1v4.2H1644.2z"/>
	<path class="st20" d="M1649.5,278.6h2.6v2.9h-2.6V278.6z M1649.6,302.7v-17.5h2.5v17.5H1649.6z"/>
	<path class="st20" d="M1661.1,285.3v2.2h-1.1c-1.6,0-2.3,0.9-2.3,2.7v12.6h-2.5v-17.5h2.5v2c0.3-1,1.2-2,2.6-2H1661.1z"/>
	<path class="st20" d="M1676.6,285.3v17.5h-2.5v-15.3h-3.8v15.3h-2.5v-15.3h-1.7v-2.1h1.7v-3.8c0-1.9,0.9-2.8,2.8-2.8h1.5v2.3h-0.8
		c-0.9,0-1.1,0.2-1.1,1.1v3.2H1676.6z M1676.6,278.6v2.3h-2.5v-2.3H1676.6z"/>
	<path class="st20" d="M1685.7,285.3v2.2h-1.1c-1.6,0-2.3,0.9-2.3,2.7v12.6h-2.5v-17.5h2.5v2c0.3-1,1.2-2,2.6-2H1685.7z"/>
	<path class="st20" d="M1692.9,296.2c0-0.9-0.2-1.1-1.1-1.1h-1.8c-1.9,0-2.8-0.9-2.8-2.8v-4.1c0-1.9,0.9-2.8,2.8-2.8h2.4
		c1.9,0,2.8,0.9,2.8,2.8v1.8h-2.4v-1.4c0-0.9-0.2-1.1-1.1-1.1h-1c-0.9,0-1.1,0.2-1.1,1.1v3.4c0,0.9,0.2,1.1,1.1,1.1h1.8
		c1.9,0,2.8,0.9,2.8,2.8v4c0,1.9-0.9,2.8-2.8,2.8h-2.4c-1.9,0-2.8-0.9-2.8-2.8v-1.8h2.4v1.4c0,0.9,0.2,1.1,1.1,1.1h1
		c0.9,0,1.1-0.2,1.1-1.1V296.2z"/>
	<path class="st20" d="M1700.8,287.4v11.9c0,0.9,0.2,1.1,1.1,1.1h1.4v2.3h-2.1c-1.9,0-2.8-0.9-2.8-2.8v-12.5h-1.6v-2.1h1.6v-2.8h2.5
		v2.8h2.5v2.1H1700.8z"/>
	<path class="st20" d="M1712.6,287.4v11.9c0,0.9,0.2,1.1,1.1,1.1h1.4v2.3h-2.1c-1.9,0-2.8-0.9-2.8-2.8v-12.5h-1.6v-2.1h1.6v-2.8h2.5
		v2.8h2.5v2.1H1712.6z"/>
	<path class="st20" d="M1722.9,285.3v2.2h-1.1c-1.6,0-2.3,0.9-2.3,2.7v12.6h-2.5v-17.5h2.5v2c0.3-1,1.2-2,2.6-2H1722.9z"/>
	<path class="st20" d="M1724.6,278.6h2.6v2.9h-2.6V278.6z M1724.7,302.7v-17.5h2.5v17.5H1724.7z"/>
	<path class="st20" d="M1736.3,285.3c1.9,0,2.8,0.9,2.8,2.8v11.8c0,1.9-0.9,2.8-2.8,2.8h-1.4c-1,0-1.7-0.3-2-1.2v6.3h-2.5v-22.5h2.5
		v1.2c0.3-0.9,1-1.2,2-1.2H1736.3z M1736.7,288.5c0-0.9-0.2-1.1-1.1-1.1h-1.4c-0.9,0-1.2,0.3-1.2,1.3v10.6c0,1,0.4,1.3,1.2,1.3h1.4
		c0.9,0,1.1-0.2,1.1-1.1V288.5z"/>
	<path class="st20" d="M1740.1,309.1h-0.6v-2.1l0.5,0c4-0.3,5.1-6.2,5.1-14v-2.6c0-7.8-1.1-13.8-5.1-14l-0.5,0v-2.1h0.6
		c5.1,0,7.4,5.9,7.4,16.2v2.6C1747.6,303.2,1745.3,309.1,1740.1,309.1z"/>
	<path class="st20" d="M1163.8,330.6v11.9c0,0.9,0.2,1.1,1.1,1.1h1.4v2.3h-2.1c-1.9,0-2.8-0.9-2.8-2.8v-12.5h-1.6v-2.1h1.6v-2.8h2.5
		v2.8h2.5v2.1H1163.8z"/>
	<path class="st20" d="M1174.1,328.5c1.9,0,2.8,0.9,2.8,2.8v14.6h-2.5v-14.2c0-0.9-0.2-1.1-1.1-1.1h-1.4c-0.9,0-1.2,0.3-1.2,1.3v14
		h-2.5v-24.1h2.5v7.8c0.3-0.9,1-1.2,2-1.2H1174.1z"/>
	<path class="st20" d="M1188.8,328.5v17.5h-2.5v-1.2c-0.3,0.9-1,1.2-2,1.2h-1.4c-1.9,0-2.8-0.9-2.8-2.8v-11.8c0-1.9,0.9-2.8,2.8-2.8
		h1.4c1,0,1.7,0.3,2,1.2v-1.2H1188.8z M1185.1,343.8c0.9,0,1.2-0.3,1.2-1.3v-10.6c0-1-0.4-1.3-1.2-1.3h-1.4c-0.9,0-1.1,0.2-1.1,1.1
		v11c0,0.9,0.2,1.1,1.1,1.1H1185.1z"/>
	<path class="st20" d="M1197.9,328.5c1.9,0,2.8,0.9,2.8,2.8v14.6h-2.5v-14.2c0-0.9-0.2-1.1-1.1-1.1h-1.4c-0.9,0-1.2,0.3-1.2,1.3v14
		h-2.5v-17.5h2.5v1.2c0.3-0.9,1-1.2,2-1.2H1197.9z"/>
	<path class="st20" d="M1214.6,328.5c1.9,0,2.8,0.9,2.8,2.8v14.6h-2.5v-14.2c0-0.9-0.2-1.1-1.1-1.1h-1.4c-0.9,0-1.2,0.3-1.2,1.3v14
		h-2.5v-17.5h2.5v1.2c0.3-0.9,1-1.2,2-1.2H1214.6z"/>
	<path class="st20" d="M1227,328.5c1.9,0,2.8,0.9,2.8,2.8v11.8c0,1.9-0.9,2.8-2.8,2.8h-3.7c-1.9,0-2.8-0.9-2.8-2.8v-11.8
		c0-1.9,0.9-2.8,2.8-2.8H1227z M1227.4,331.7c0-0.9-0.2-1.1-1.1-1.1h-2.2c-0.9,0-1.1,0.2-1.1,1.1v11c0,0.9,0.2,1.1,1.1,1.1h2.2
		c0.9,0,1.1-0.2,1.1-1.1V331.7z"/>
	<path class="st20" d="M1238.7,328.5v2.2h-1.1c-1.6,0-2.3,0.9-2.3,2.7v12.6h-2.5v-17.5h2.5v2c0.3-1,1.2-2,2.6-2H1238.7z"/>
	<path class="st20" d="M1252.7,328.5c1.9,0,2.8,0.9,2.8,2.8v14.6h-2.5v-14.2c0-0.9-0.2-1.1-1.1-1.1h-1.4c-0.9,0-1.2,0.3-1.2,1.3v14
		h-2.5v-14.2c0-0.9-0.2-1.1-1.1-1.1h-1.4c-0.9,0-1.2,0.3-1.2,1.3v14h-2.5v-17.5h2.5v1.2c0.3-0.9,1-1.2,2-1.2h1.4
		c1.4,0,2.2,0.5,2.6,1.4c0.3-1,1.1-1.4,2.2-1.4H1252.7z"/>
	<path class="st20" d="M1267.2,328.5v17.5h-2.5v-1.2c-0.3,0.9-1,1.2-2,1.2h-1.4c-1.9,0-2.8-0.9-2.8-2.8v-11.8c0-1.9,0.9-2.8,2.8-2.8
		h1.4c1,0,1.7,0.3,2,1.2v-1.2H1267.2z M1263.5,343.8c0.9,0,1.2-0.3,1.2-1.3v-10.6c0-1-0.4-1.3-1.2-1.3h-1.4c-0.9,0-1.1,0.2-1.1,1.1
		v11c0,0.9,0.2,1.1,1.1,1.1H1263.5z"/>
	<path class="st20" d="M1270.4,345.9v-24.1h2.5v24.1H1270.4z"/>
	<path class="st20" d="M1278.6,341.9v2.1l-2,6.9h-1v-9H1278.6z"/>
	<path class="st20" d="M1294.5,328.5v17.5h-2.5v-1.2c-0.3,0.9-1,1.2-2,1.2h-1.4c-1.9,0-2.8-0.9-2.8-2.8v-11.8c0-1.9,0.9-2.8,2.8-2.8
		h1.4c1,0,1.7,0.3,2,1.2v-1.2H1294.5z M1290.8,343.8c0.9,0,1.2-0.3,1.2-1.3v-10.6c0-1-0.4-1.3-1.2-1.3h-1.4c-0.9,0-1.1,0.2-1.1,1.1
		v11c0,0.9,0.2,1.1,1.1,1.1H1290.8z"/>
	<path class="st20" d="M1303.7,328.5c1.9,0,2.8,0.9,2.8,2.8v14.6h-2.5v-14.2c0-0.9-0.2-1.1-1.1-1.1h-1.4c-0.9,0-1.2,0.3-1.2,1.3v14
		h-2.5v-17.5h2.5v1.2c0.3-0.9,1-1.2,2-1.2H1303.7z"/>
	<path class="st20" d="M1318.3,321.8v24.1h-2.5v-1.2c-0.3,0.9-1,1.2-2,1.2h-1.4c-1.9,0-2.8-0.9-2.8-2.8v-11.8c0-1.9,0.9-2.8,2.8-2.8
		h1.4c1,0,1.7,0.3,2,1.2v-7.8H1318.3z M1314.6,343.8c0.9,0,1.2-0.3,1.2-1.3v-10.7c0-1-0.4-1.3-1.2-1.3h-1.4c-0.9,0-1.1,0.2-1.1,1.1
		v11c0,0.9,0.2,1.1,1.1,1.1H1314.6z"/>
	<path class="st20" d="M1334.8,321.8v24.1h-2.5v-1.2c-0.3,0.9-1,1.2-2,1.2h-1.4c-1.9,0-2.8-0.9-2.8-2.8v-11.8c0-1.9,0.9-2.8,2.8-2.8
		h1.4c1,0,1.7,0.3,2,1.2v-7.8H1334.8z M1331.1,343.8c0.9,0,1.2-0.3,1.2-1.3v-10.7c0-1-0.4-1.3-1.2-1.3h-1.4c-0.9,0-1.1,0.2-1.1,1.1
		v11c0,0.9,0.2,1.1,1.1,1.1H1331.1z"/>
	<path class="st20" d="M1344.4,328.5c1.9,0,2.8,0.9,2.8,2.8v11.8c0,1.9-0.9,2.8-2.8,2.8h-3.7c-1.9,0-2.8-0.9-2.8-2.8v-11.8
		c0-1.9,0.9-2.8,2.8-2.8H1344.4z M1344.8,331.7c0-0.9-0.2-1.1-1.1-1.1h-2.2c-0.9,0-1.1,0.2-1.1,1.1v11c0,0.9,0.2,1.1,1.1,1.1h2.2
		c0.9,0,1.1-0.2,1.1-1.1V331.7z"/>
	<path class="st20" d="M1356.2,328.5c1.9,0,2.8,0.9,2.8,2.8v14.6h-2.5v-14.2c0-0.9-0.2-1.1-1.1-1.1h-1.4c-0.9,0-1.2,0.3-1.2,1.3v14
		h-2.5v-17.5h2.5v1.2c0.3-0.9,1-1.2,2-1.2H1356.2z"/>
	<path class="st20" d="M1364.7,323.5v2.1l-2,6.9h-1v-9H1364.7z"/>
	<path class="st20" d="M1370,330.6v11.9c0,0.9,0.2,1.1,1.1,1.1h1.4v2.3h-2.1c-1.9,0-2.8-0.9-2.8-2.8v-12.5h-1.6v-2.1h1.6v-2.8h2.5
		v2.8h2.5v2.1H1370z"/>
	<path class="st20" d="M1395.6,328.5l-3.1,17.5h-3.8l-2.1-14l-2.1,14h-3.8l-3.1-17.5h2.4l2.6,15.7l2.3-15.7h3.4l2.2,15.7l2.6-15.7
		H1395.6z"/>
	<path class="st20" d="M1406,328.5v17.5h-2.5v-1.2c-0.3,0.9-1,1.2-2,1.2h-1.4c-1.9,0-2.8-0.9-2.8-2.8v-11.8c0-1.9,0.9-2.8,2.8-2.8
		h1.4c1,0,1.7,0.3,2,1.2v-1.2H1406z M1402.3,343.8c0.9,0,1.2-0.3,1.2-1.3v-10.6c0-1-0.4-1.3-1.2-1.3h-1.4c-0.9,0-1.1,0.2-1.1,1.1v11
		c0,0.9,0.2,1.1,1.1,1.1H1402.3z"/>
	<path class="st20" d="M1415.1,328.5c1.9,0,2.8,0.9,2.8,2.8v14.6h-2.5v-14.2c0-0.9-0.2-1.1-1.1-1.1h-1.4c-0.9,0-1.2,0.3-1.2,1.3v14
		h-2.5v-17.5h2.5v1.2c0.3-0.9,1-1.2,2-1.2H1415.1z"/>
	<path class="st20" d="M1423.8,330.6v11.9c0,0.9,0.2,1.1,1.1,1.1h1.4v2.3h-2.1c-1.9,0-2.8-0.9-2.8-2.8v-12.5h-1.6v-2.1h1.6v-2.8h2.5
		v2.8h2.5v2.1H1423.8z"/>
	<path class="st20" d="M1435.6,330.6v11.9c0,0.9,0.2,1.1,1.1,1.1h1.4v2.3h-2.1c-1.9,0-2.8-0.9-2.8-2.8v-12.5h-1.6v-2.1h1.6v-2.8h2.5
		v2.8h2.5v2.1H1435.6z"/>
	<path class="st20" d="M1446.4,328.5c1.9,0,2.8,0.9,2.8,2.8v11.8c0,1.9-0.9,2.8-2.8,2.8h-3.7c-1.9,0-2.8-0.9-2.8-2.8v-11.8
		c0-1.9,0.9-2.8,2.8-2.8H1446.4z M1446.8,331.7c0-0.9-0.2-1.1-1.1-1.1h-2.2c-0.9,0-1.1,0.2-1.1,1.1v11c0,0.9,0.2,1.1,1.1,1.1h2.2
		c0.9,0,1.1-0.2,1.1-1.1V331.7z"/>
	<path class="st20" d="M1466,321.8v24.1h-2.5v-15.3h-3.8v15.3h-2.5v-15.3h-1.7v-2.1h1.7v-3.8c0-1.9,0.9-2.8,2.8-2.8h1.5v2.3h-0.8
		c-0.9,0-1.1,0.2-1.1,1.1v3.2h3.8v-6.6H1466z"/>
	<path class="st20" d="M1470.5,328.5l2.8,15.7l2.6-15.7h2.5l-3.5,19.7c-0.4,1.9-1.5,2.8-3.4,2.8h-1.9v-2.1h1.2
		c0.9,0,1.6-0.2,1.8-1.1l0.4-1.8h-1.6l-3.3-17.5H1470.5z"/>
	<path class="st20" d="M1493.6,328.5v17.5h-2.5v-1.2c-0.3,0.9-1,1.2-2,1.2h-1.4c-1.9,0-2.8-0.9-2.8-2.8v-11.8c0-1.9,0.9-2.8,2.8-2.8
		h1.4c1,0,1.7,0.3,2,1.2v-1.2H1493.6z M1489.9,343.8c0.9,0,1.2-0.3,1.2-1.3v-10.6c0-1-0.4-1.3-1.2-1.3h-1.4c-0.9,0-1.1,0.2-1.1,1.1
		v11c0,0.9,0.2,1.1,1.1,1.1H1489.9z"/>
	<path class="st20" d="M1496.9,345.9v-24.1h2.5v24.1H1496.9z"/>
	<path class="st20" d="M1508.9,328.5c1.9,0,2.8,0.9,2.8,2.8v11.8c0,1.9-0.9,2.8-2.8,2.8h-3.7c-1.9,0-2.8-0.9-2.8-2.8v-11.8
		c0-1.9,0.9-2.8,2.8-2.8H1508.9z M1509.3,331.7c0-0.9-0.2-1.1-1.1-1.1h-2.2c-0.9,0-1.1,0.2-1.1,1.1v11c0,0.9,0.2,1.1,1.1,1.1h2.2
		c0.9,0,1.1-0.2,1.1-1.1V331.7z"/>
	<path class="st20" d="M1520.7,328.5c1.9,0,2.8,0.9,2.8,2.8v14.6h-2.5v-14.2c0-0.9-0.2-1.1-1.1-1.1h-1.4c-0.9,0-1.2,0.3-1.2,1.3v14
		h-2.5v-17.5h2.5v1.2c0.3-0.9,1-1.2,2-1.2H1520.7z"/>
	<path class="st20" d="M1533,328.5c1.9,0,2.8,0.9,2.8,2.8v6.7h-6.5v4.6c0,0.9,0.2,1.1,1.1,1.1h1.7c0.9,0,1.1-0.2,1.1-1.1v-1.6h2.5v2
		c0,1.9-0.9,2.8-2.8,2.8h-3.2c-1.9,0-2.8-0.9-2.8-2.8v-11.8c0-1.9,0.9-2.8,2.8-2.8H1533z M1533.3,335.9v-4.2c0-0.9-0.2-1.1-1.1-1.1
		h-1.8c-0.9,0-1.1,0.2-1.1,1.1v4.2H1533.3z"/>
	<path class="st20" d="M1541.1,341.9v2.1l-2,6.9h-1v-9H1541.1z"/>
	<path class="st20" d="M1564.9,328.5l-3.1,17.5h-3.8l-2.1-14l-2.1,14h-3.8l-3.1-17.5h2.4l2.6,15.7l2.3-15.7h3.4l2.2,15.7l2.6-15.7
		H1564.9z"/>
	<path class="st20" d="M1572.9,328.5c1.9,0,2.8,0.9,2.8,2.8v6.7h-6.5v4.6c0,0.9,0.2,1.1,1.1,1.1h1.7c0.9,0,1.1-0.2,1.1-1.1v-1.6h2.5
		v2c0,1.9-0.9,2.8-2.8,2.8h-3.2c-1.9,0-2.8-0.9-2.8-2.8v-11.8c0-1.9,0.9-2.8,2.8-2.8H1572.9z M1573.2,335.9v-4.2
		c0-0.9-0.2-1.1-1.1-1.1h-1.8c-0.9,0-1.1,0.2-1.1,1.1v4.2H1573.2z"/>
	<path class="st20" d="M1589.2,328.5c1.9,0,2.8,0.9,2.8,2.8v14.6h-2.5v-14.2c0-0.9-0.2-1.1-1.1-1.1h-1.4c-0.9,0-1.2,0.3-1.2,1.3v14
		h-2.5v-24.1h2.5v7.8c0.3-0.9,1-1.2,2-1.2H1589.2z"/>
	<path class="st20" d="M1603.8,328.5v17.5h-2.5v-1.2c-0.3,0.9-1,1.2-2,1.2h-1.4c-1.9,0-2.8-0.9-2.8-2.8v-11.8c0-1.9,0.9-2.8,2.8-2.8
		h1.4c1,0,1.7,0.3,2,1.2v-1.2H1603.8z M1600.1,343.8c0.9,0,1.2-0.3,1.2-1.3v-10.6c0-1-0.4-1.3-1.2-1.3h-1.4c-0.9,0-1.1,0.2-1.1,1.1
		v11c0,0.9,0.2,1.1,1.1,1.1H1600.1z"/>
	<path class="st20" d="M1610.5,344.2l2.4-15.7h2.5l-2.9,17.5h-3.9l-2.9-17.5h2.5L1610.5,344.2z"/>
	<path class="st20" d="M1623.3,328.5c1.9,0,2.8,0.9,2.8,2.8v6.7h-6.5v4.6c0,0.9,0.2,1.1,1.1,1.1h1.7c0.9,0,1.1-0.2,1.1-1.1v-1.6h2.5
		v2c0,1.9-0.9,2.8-2.8,2.8h-3.2c-1.9,0-2.8-0.9-2.8-2.8v-11.8c0-1.9,0.9-2.8,2.8-2.8H1623.3z M1623.6,335.9v-4.2
		c0-0.9-0.2-1.1-1.1-1.1h-1.8c-0.9,0-1.1,0.2-1.1,1.1v4.2H1623.6z"/>
	<path class="st20" d="M1642.3,328.5v17.5h-2.5v-1.2c-0.3,0.9-1,1.2-2,1.2h-1.4c-1.9,0-2.8-0.9-2.8-2.8v-11.8c0-1.9,0.9-2.8,2.8-2.8
		h1.4c1,0,1.7,0.3,2,1.2v-1.2H1642.3z M1638.6,343.8c0.9,0,1.2-0.3,1.2-1.3v-10.6c0-1-0.4-1.3-1.2-1.3h-1.4c-0.9,0-1.1,0.2-1.1,1.1
		v11c0,0.9,0.2,1.1,1.1,1.1H1638.6z"/>
	<path class="st20" d="M1652.8,330.6v11.9c0,0.9,0.2,1.1,1.1,1.1h1.4v2.3h-2.1c-1.9,0-2.8-0.9-2.8-2.8v-12.5h-1.6v-2.1h1.6v-2.8h2.5
		v2.8h2.5v2.1H1652.8z"/>
	<path class="st20" d="M1663.1,328.5v2.2h-1.1c-1.6,0-2.3,0.9-2.3,2.7v12.6h-2.5v-17.5h2.5v2c0.3-1,1.2-2,2.6-2H1663.1z"/>
	<path class="st20" d="M1673.5,328.5v17.5h-2.5v-1.2c-0.3,0.9-1,1.2-2,1.2h-1.4c-1.9,0-2.8-0.9-2.8-2.8v-11.8c0-1.9,0.9-2.8,2.8-2.8
		h1.4c1,0,1.7,0.3,2,1.2v-1.2H1673.5z M1669.8,343.8c0.9,0,1.2-0.3,1.2-1.3v-10.6c0-1-0.4-1.3-1.2-1.3h-1.4c-0.9,0-1.1,0.2-1.1,1.1
		v11c0,0.9,0.2,1.1,1.1,1.1H1669.8z"/>
	<path class="st20" d="M1676.6,321.8h2.6v2.9h-2.6V321.8z M1676.7,345.9v-17.5h2.5v17.5H1676.7z"/>
	<path class="st20" d="M1688.3,328.5c1.9,0,2.8,0.9,2.8,2.8v14.6h-2.5v-14.2c0-0.9-0.2-1.1-1.1-1.1h-1.4c-0.9,0-1.2,0.3-1.2,1.3v14
		h-2.5v-17.5h2.5v1.2c0.3-0.9,1-1.2,2-1.2H1688.3z"/>
	<path class="st20" d="M1700.6,328.5c1.9,0,2.8,0.9,2.8,2.8v6.7h-6.5v4.6c0,0.9,0.2,1.1,1.1,1.1h1.7c0.9,0,1.1-0.2,1.1-1.1v-1.6h2.5
		v2c0,1.9-0.9,2.8-2.8,2.8h-3.2c-1.9,0-2.8-0.9-2.8-2.8v-11.8c0-1.9,0.9-2.8,2.8-2.8H1700.6z M1700.9,335.9v-4.2
		c0-0.9-0.2-1.1-1.1-1.1h-1.8c-0.9,0-1.1,0.2-1.1,1.1v4.2H1700.9z"/>
	<path class="st20" d="M1714.9,321.8v24.1h-2.5v-1.2c-0.3,0.9-1,1.2-2,1.2h-1.4c-1.9,0-2.8-0.9-2.8-2.8v-11.8c0-1.9,0.9-2.8,2.8-2.8
		h1.4c1,0,1.7,0.3,2,1.2v-7.8H1714.9z M1711.2,343.8c0.9,0,1.2-0.3,1.2-1.3v-10.7c0-1-0.4-1.3-1.2-1.3h-1.4c-0.9,0-1.1,0.2-1.1,1.1
		v11c0,0.9,0.2,1.1,1.1,1.1H1711.2z"/>
	<path class="st20" d="M1176.5,371.7v19.7c0,1.9-0.9,2.8-2.8,2.8h-5.4v-2.1h4.6c0.9,0,1.1-0.2,1.1-1.1v-3c-0.3,0.9-1,1.2-2,1.2h-1.4
		c-1.9,0-2.8-0.9-2.8-2.8v-11.8c0-1.9,0.9-2.8,2.8-2.8h1.4c1,0,1.7,0.3,2,1.2v-1.2H1176.5z M1172.8,387c0.9,0,1.2-0.3,1.2-1.3v-10.6
		c0-1-0.4-1.3-1.2-1.3h-1.4c-0.9,0-1.1,0.2-1.1,1.1v11c0,0.9,0.2,1.1,1.1,1.1H1172.8z"/>
	<path class="st20" d="M1185.6,371.7v2.2h-1.1c-1.6,0-2.3,0.9-2.3,2.7v12.6h-2.5v-17.5h2.5v2c0.3-1,1.2-2,2.6-2H1185.6z"/>
	<path class="st20" d="M1193.7,371.7c1.9,0,2.8,0.9,2.8,2.8v11.8c0,1.9-0.9,2.8-2.8,2.8h-3.7c-1.9,0-2.8-0.9-2.8-2.8v-11.8
		c0-1.9,0.9-2.8,2.8-2.8H1193.7z M1194.1,374.9c0-0.9-0.2-1.1-1.1-1.1h-2.2c-0.9,0-1.1,0.2-1.1,1.1v11c0,0.9,0.2,1.1,1.1,1.1h2.2
		c0.9,0,1.1-0.2,1.1-1.1V374.9z"/>
	<path class="st20" d="M1208.3,371.7v17.5h-2.5v-1.2c-0.3,0.9-1,1.2-2,1.2h-1.4c-1.9,0-2.8-0.9-2.8-2.8v-14.6h2.5v14.2
		c0,0.9,0.2,1.1,1.1,1.1h1.4c0.9,0,1.2-0.3,1.2-1.3v-14H1208.3z"/>
	<path class="st20" d="M1217.5,371.7c1.9,0,2.8,0.9,2.8,2.8v11.8c0,1.9-0.9,2.8-2.8,2.8h-1.4c-1,0-1.7-0.3-2-1.2v6.3h-2.5v-22.5h2.5
		v1.2c0.3-0.9,1-1.2,2-1.2H1217.5z M1217.8,374.9c0-0.9-0.2-1.1-1.1-1.1h-1.4c-0.9,0-1.2,0.3-1.2,1.3v10.6c0,1,0.4,1.3,1.2,1.3h1.4
		c0.9,0,1.1-0.2,1.1-1.1V374.9z"/>
	<path class="st20" d="M1234.4,371.7c1.9,0,2.8,0.9,2.8,2.8v11.8c0,1.9-0.9,2.8-2.8,2.8h-3.7c-1.9,0-2.8-0.9-2.8-2.8v-11.8
		c0-1.9,0.9-2.8,2.8-2.8H1234.4z M1234.8,374.9c0-0.9-0.2-1.1-1.1-1.1h-2.2c-0.9,0-1.1,0.2-1.1,1.1v11c0,0.9,0.2,1.1,1.1,1.1h2.2
		c0.9,0,1.1-0.2,1.1-1.1V374.9z"/>
	<path class="st20" d="M1244.2,367.3c-0.9,0-1.1,0.2-1.1,1.1v3.2h2.5v2.1h-2.5v15.3h-2.5v-15.3h-1.7v-2.1h1.7v-3.8
		c0-1.9,0.9-2.8,2.8-2.8h2.2v2.3H1244.2z"/>
	<path class="st20" d="M1260.7,371.7v17.5h-2.5v-1.2c-0.3,0.9-1,1.2-2,1.2h-1.4c-1.9,0-2.8-0.9-2.8-2.8v-11.8c0-1.9,0.9-2.8,2.8-2.8
		h1.4c1,0,1.7,0.3,2,1.2v-1.2H1260.7z M1256.9,387c0.9,0,1.2-0.3,1.2-1.3v-10.6c0-1-0.4-1.3-1.2-1.3h-1.4c-0.9,0-1.1,0.2-1.1,1.1v11
		c0,0.9,0.2,1.1,1.1,1.1H1256.9z"/>
	<path class="st20" d="M1269.3,382.6c0-0.9-0.2-1.1-1.1-1.1h-1.8c-1.9,0-2.8-0.9-2.8-2.8v-4.1c0-1.9,0.9-2.8,2.8-2.8h2.4
		c1.9,0,2.8,0.9,2.8,2.8v1.8h-2.4v-1.4c0-0.9-0.2-1.1-1.1-1.1h-1c-0.9,0-1.1,0.2-1.1,1.1v3.4c0,0.9,0.2,1.1,1.1,1.1h1.8
		c1.9,0,2.8,0.9,2.8,2.8v4c0,1.9-0.9,2.8-2.8,2.8h-2.4c-1.9,0-2.8-0.9-2.8-2.8v-1.8h2.4v1.4c0,0.9,0.2,1.1,1.1,1.1h1
		c0.9,0,1.1-0.2,1.1-1.1V382.6z"/>
	<path class="st20" d="M1277.2,373.8v11.9c0,0.9,0.2,1.1,1.1,1.1h1.4v2.3h-2.1c-1.9,0-2.8-0.9-2.8-2.8v-12.5h-1.6v-2.1h1.6v-2.8h2.5
		v2.8h2.5v2.1H1277.2z"/>
	<path class="st20" d="M1287.5,371.7v2.2h-1.1c-1.6,0-2.3,0.9-2.3,2.7v12.6h-2.5v-17.5h2.5v2c0.3-1,1.2-2,2.6-2H1287.5z"/>
	<path class="st20" d="M1295.6,371.7c1.9,0,2.8,0.9,2.8,2.8v11.8c0,1.9-0.9,2.8-2.8,2.8h-3.7c-1.9,0-2.8-0.9-2.8-2.8v-11.8
		c0-1.9,0.9-2.8,2.8-2.8H1295.6z M1296,374.9c0-0.9-0.2-1.1-1.1-1.1h-2.2c-0.9,0-1.1,0.2-1.1,1.1v11c0,0.9,0.2,1.1,1.1,1.1h2.2
		c0.9,0,1.1-0.2,1.1-1.1V374.9z"/>
	<path class="st20" d="M1307.5,371.7c1.9,0,2.8,0.9,2.8,2.8v14.6h-2.5v-14.2c0-0.9-0.2-1.1-1.1-1.1h-1.4c-0.9,0-1.2,0.3-1.2,1.3v14
		h-2.5v-17.5h2.5v1.2c0.3-0.9,1-1.2,2-1.2H1307.5z"/>
	<path class="st20" d="M1322.1,371.7v17.5h-2.5v-1.2c-0.3,0.9-1,1.2-2,1.2h-1.4c-1.9,0-2.8-0.9-2.8-2.8v-11.8c0-1.9,0.9-2.8,2.8-2.8
		h1.4c1,0,1.7,0.3,2,1.2v-1.2H1322.1z M1318.4,387c0.9,0,1.2-0.3,1.2-1.3v-10.6c0-1-0.4-1.3-1.2-1.3h-1.4c-0.9,0-1.1,0.2-1.1,1.1v11
		c0,0.9,0.2,1.1,1.1,1.1H1318.4z"/>
	<path class="st20" d="M1334.1,371.7v17.5h-2.5v-1.2c-0.3,0.9-1,1.2-2,1.2h-1.4c-1.9,0-2.8-0.9-2.8-2.8v-14.6h2.5v14.2
		c0,0.9,0.2,1.1,1.1,1.1h1.4c0.9,0,1.2-0.3,1.2-1.3v-14H1334.1z"/>
	<path class="st20" d="M1340,373.8v11.9c0,0.9,0.2,1.1,1.1,1.1h1.4v2.3h-2.1c-1.9,0-2.8-0.9-2.8-2.8v-12.5h-1.6v-2.1h1.6v-2.8h2.5
		v2.8h2.5v2.1H1340z"/>
	<path class="st20" d="M1349.8,382.6c0-0.9-0.2-1.1-1.1-1.1h-1.8c-1.9,0-2.8-0.9-2.8-2.8v-4.1c0-1.9,0.9-2.8,2.8-2.8h2.4
		c1.9,0,2.8,0.9,2.8,2.8v1.8h-2.4v-1.4c0-0.9-0.2-1.1-1.1-1.1h-1c-0.9,0-1.1,0.2-1.1,1.1v3.4c0,0.9,0.2,1.1,1.1,1.1h1.8
		c1.9,0,2.8,0.9,2.8,2.8v4c0,1.9-0.9,2.8-2.8,2.8h-2.4c-1.9,0-2.8-0.9-2.8-2.8v-1.8h2.4v1.4c0,0.9,0.2,1.1,1.1,1.1h1
		c0.9,0,1.1-0.2,1.1-1.1V382.6z"/>
	<path class="st20" d="M1376.2,371.7l-3.1,17.5h-3.8l-2.1-14l-2.1,14h-3.8l-3.1-17.5h2.4l2.6,15.7l2.3-15.7h3.4l2.2,15.7l2.6-15.7
		H1376.2z"/>
	<path class="st20" d="M1383.9,371.7c1.9,0,2.8,0.9,2.8,2.8v14.6h-2.5v-14.2c0-0.9-0.2-1.1-1.1-1.1h-1.4c-0.9,0-1.2,0.3-1.2,1.3v14
		h-2.5V365h2.5v7.8c0.3-0.9,1-1.2,2-1.2H1383.9z"/>
	<path class="st20" d="M1396.4,371.7c1.9,0,2.8,0.9,2.8,2.8v11.8c0,1.9-0.9,2.8-2.8,2.8h-3.7c-1.9,0-2.8-0.9-2.8-2.8v-11.8
		c0-1.9,0.9-2.8,2.8-2.8H1396.4z M1396.8,374.9c0-0.9-0.2-1.1-1.1-1.1h-2.2c-0.9,0-1.1,0.2-1.1,1.1v11c0,0.9,0.2,1.1,1.1,1.1h2.2
		c0.9,0,1.1-0.2,1.1-1.1V374.9z"/>
	<path class="st20" d="M1423.4,371.7l-3.1,17.5h-3.8l-2.1-14l-2.1,14h-3.8l-3.1-17.5h2.4l2.6,15.7l2.3-15.7h3.4l2.2,15.7l2.6-15.7
		H1423.4z"/>
	<path class="st20" d="M1425.1,365h2.6v2.9h-2.6V365z M1425.2,389.1v-17.5h2.5v17.5H1425.2z"/>
	<path class="st20" d="M1430.9,389.1V365h2.5v24.1H1430.9z"/>
	<path class="st20" d="M1436.7,389.1V365h2.5v24.1H1436.7z"/>
	<path class="st20" d="M1453,371.6c1.9,0,2.8,0.9,2.8,2.8v11.8c0,1.9-0.9,2.8-2.8,2.8h-1.4c-1,0-1.7-0.3-2-1.2v1.2h-2.5V365h2.5v7.8
		c0.3-0.9,1-1.2,2-1.2H1453z M1453.3,374.9c0-0.9-0.2-1.1-1.1-1.1h-1.4c-0.9,0-1.2,0.3-1.2,1.3v10.7c0,1,0.4,1.3,1.2,1.3h1.4
		c0.9,0,1.1-0.2,1.1-1.1V374.9z"/>
	<path class="st20" d="M1465,371.7c1.9,0,2.8,0.9,2.8,2.8v6.7h-6.5v4.6c0,0.9,0.2,1.1,1.1,1.1h1.7c0.9,0,1.1-0.2,1.1-1.1v-1.6h2.5v2
		c0,1.9-0.9,2.8-2.8,2.8h-3.2c-1.9,0-2.8-0.9-2.8-2.8v-11.8c0-1.9,0.9-2.8,2.8-2.8H1465z M1465.4,379.1v-4.2c0-0.9-0.2-1.1-1.1-1.1
		h-1.8c-0.9,0-1.1,0.2-1.1,1.1v4.2H1465.4z"/>
	<path class="st20" d="M1484,371.7v17.5h-2.5v-1.2c-0.3,0.9-1,1.2-2,1.2h-1.4c-1.9,0-2.8-0.9-2.8-2.8v-11.8c0-1.9,0.9-2.8,2.8-2.8
		h1.4c1,0,1.7,0.3,2,1.2v-1.2H1484z M1480.3,387c0.9,0,1.2-0.3,1.2-1.3v-10.6c0-1-0.4-1.3-1.2-1.3h-1.4c-0.9,0-1.1,0.2-1.1,1.1v11
		c0,0.9,0.2,1.1,1.1,1.1H1480.3z"/>
	<path class="st20" d="M1493.1,371.6c1.9,0,2.8,0.9,2.8,2.8v11.8c0,1.9-0.9,2.8-2.8,2.8h-1.4c-1,0-1.7-0.3-2-1.2v1.2h-2.5V365h2.5
		v7.8c0.3-0.9,1-1.2,2-1.2H1493.1z M1493.5,374.9c0-0.9-0.2-1.1-1.1-1.1h-1.4c-0.9,0-1.2,0.3-1.2,1.3v10.7c0,1,0.4,1.3,1.2,1.3h1.4
		c0.9,0,1.1-0.2,1.1-1.1V374.9z"/>
	<path class="st20" d="M1499,389.1V365h2.5v24.1H1499z"/>
	<path class="st20" d="M1510.9,371.7c1.9,0,2.8,0.9,2.8,2.8v6.7h-6.5v4.6c0,0.9,0.2,1.1,1.1,1.1h1.7c0.9,0,1.1-0.2,1.1-1.1v-1.6h2.5
		v2c0,1.9-0.9,2.8-2.8,2.8h-3.2c-1.9,0-2.8-0.9-2.8-2.8v-11.8c0-1.9,0.9-2.8,2.8-2.8H1510.9z M1511.3,379.1v-4.2
		c0-0.9-0.2-1.1-1.1-1.1h-1.8c-0.9,0-1.1,0.2-1.1,1.1v4.2H1511.3z"/>
	<path class="st20" d="M1523.9,373.8v11.9c0,0.9,0.2,1.1,1.1,1.1h1.4v2.3h-2.1c-1.9,0-2.8-0.9-2.8-2.8v-12.5h-1.6v-2.1h1.6v-2.8h2.5
		v2.8h2.5v2.1H1523.9z"/>
	<path class="st20" d="M1534.7,371.7c1.9,0,2.8,0.9,2.8,2.8v11.8c0,1.9-0.9,2.8-2.8,2.8h-3.7c-1.9,0-2.8-0.9-2.8-2.8v-11.8
		c0-1.9,0.9-2.8,2.8-2.8H1534.7z M1535.1,374.9c0-0.9-0.2-1.1-1.1-1.1h-2.2c-0.9,0-1.1,0.2-1.1,1.1v11c0,0.9,0.2,1.1,1.1,1.1h2.2
		c0.9,0,1.1-0.2,1.1-1.1V374.9z"/>
	<path class="st20" d="M1554.4,365v24.1h-2.5v-15.3h-3.8v15.3h-2.5v-15.3h-1.7v-2.1h1.7v-3.8c0-1.9,0.9-2.8,2.8-2.8h1.5v2.3h-0.8
		c-0.9,0-1.1,0.2-1.1,1.1v3.2h3.8V365H1554.4z"/>
	<path class="st20" d="M1558.8,371.7l2.8,15.7l2.6-15.7h2.5l-3.5,19.7c-0.4,1.9-1.5,2.8-3.4,2.8h-1.9v-2.1h1.2
		c0.9,0,1.6-0.2,1.8-1.1l0.4-1.8h-1.6l-3.3-17.5H1558.8z"/>
	<path class="st20" d="M1589.9,371.7l-3.1,17.5h-3.8l-2.1-14l-2.1,14h-3.8l-3.1-17.5h2.4l2.6,15.7l2.3-15.7h3.4l2.2,15.7l2.6-15.7
		H1589.9z"/>
	<path class="st20" d="M1591.6,365h2.6v2.9h-2.6V365z M1591.7,389.1v-17.5h2.5v17.5H1591.7z"/>
	<path class="st20" d="M1600,373.8v11.9c0,0.9,0.2,1.1,1.1,1.1h1.4v2.3h-2.1c-1.9,0-2.8-0.9-2.8-2.8v-12.5h-1.6v-2.1h1.6v-2.8h2.5
		v2.8h2.5v2.1H1600z"/>
	<path class="st20" d="M1610.4,371.7c1.9,0,2.8,0.9,2.8,2.8v14.6h-2.5v-14.2c0-0.9-0.2-1.1-1.1-1.1h-1.4c-0.9,0-1.2,0.3-1.2,1.3v14
		h-2.5V365h2.5v7.8c0.3-0.9,1-1.2,2-1.2H1610.4z"/>
	<path class="st20" d="M1629.7,371.7v19.7c0,1.9-0.9,2.8-2.8,2.8h-5.4v-2.1h4.6c0.9,0,1.1-0.2,1.1-1.1v-3c-0.3,0.9-1,1.2-2,1.2h-1.4
		c-1.9,0-2.8-0.9-2.8-2.8v-11.8c0-1.9,0.9-2.8,2.8-2.8h1.4c1,0,1.7,0.3,2,1.2v-1.2H1629.7z M1626,387c0.9,0,1.2-0.3,1.2-1.3v-10.6
		c0-1-0.4-1.3-1.2-1.3h-1.4c-0.9,0-1.1,0.2-1.1,1.1v11c0,0.9,0.2,1.1,1.1,1.1H1626z"/>
	<path class="st20" d="M1638.8,371.7v2.2h-1.1c-1.6,0-2.3,0.9-2.3,2.7v12.6h-2.5v-17.5h2.5v2c0.3-1,1.2-2,2.6-2H1638.8z"/>
	<path class="st20" d="M1646.9,371.7c1.9,0,2.8,0.9,2.8,2.8v11.8c0,1.9-0.9,2.8-2.8,2.8h-3.7c-1.9,0-2.8-0.9-2.8-2.8v-11.8
		c0-1.9,0.9-2.8,2.8-2.8H1646.9z M1647.3,374.9c0-0.9-0.2-1.1-1.1-1.1h-2.2c-0.9,0-1.1,0.2-1.1,1.1v11c0,0.9,0.2,1.1,1.1,1.1h2.2
		c0.9,0,1.1-0.2,1.1-1.1V374.9z"/>
	<path class="st20" d="M1661.6,371.7v17.5h-2.5v-1.2c-0.3,0.9-1,1.2-2,1.2h-1.4c-1.9,0-2.8-0.9-2.8-2.8v-14.6h2.5v14.2
		c0,0.9,0.2,1.1,1.1,1.1h1.4c0.9,0,1.2-0.3,1.2-1.3v-14H1661.6z"/>
	<path class="st20" d="M1670.7,371.7c1.9,0,2.8,0.9,2.8,2.8v11.8c0,1.9-0.9,2.8-2.8,2.8h-1.4c-1,0-1.7-0.3-2-1.2v6.3h-2.5v-22.5h2.5
		v1.2c0.3-0.9,1-1.2,2-1.2H1670.7z M1671.1,374.9c0-0.9-0.2-1.1-1.1-1.1h-1.4c-0.9,0-1.2,0.3-1.2,1.3v10.6c0,1,0.4,1.3,1.2,1.3h1.4
		c0.9,0,1.1-0.2,1.1-1.1V374.9z"/>
	<path class="st20" d="M1682,382.6c0-0.9-0.2-1.1-1.1-1.1h-1.8c-1.9,0-2.8-0.9-2.8-2.8v-4.1c0-1.9,0.9-2.8,2.8-2.8h2.4
		c1.9,0,2.8,0.9,2.8,2.8v1.8h-2.4v-1.4c0-0.9-0.2-1.1-1.1-1.1h-1c-0.9,0-1.1,0.2-1.1,1.1v3.4c0,0.9,0.2,1.1,1.1,1.1h1.8
		c1.9,0,2.8,0.9,2.8,2.8v4c0,1.9-0.9,2.8-2.8,2.8h-2.4c-1.9,0-2.8-0.9-2.8-2.8v-1.8h2.4v1.4c0,0.9,0.2,1.1,1.1,1.1h1
		c0.9,0,1.1-0.2,1.1-1.1V382.6z"/>
	<path class="st20" d="M1698.3,371.7c1.9,0,2.8,0.9,2.8,2.8v11.8c0,1.9-0.9,2.8-2.8,2.8h-3.7c-1.9,0-2.8-0.9-2.8-2.8v-11.8
		c0-1.9,0.9-2.8,2.8-2.8H1698.3z M1698.7,374.9c0-0.9-0.2-1.1-1.1-1.1h-2.2c-0.9,0-1.1,0.2-1.1,1.1v11c0,0.9,0.2,1.1,1.1,1.1h2.2
		c0.9,0,1.1-0.2,1.1-1.1V374.9z"/>
	<path class="st20" d="M1708.1,367.3c-0.9,0-1.1,0.2-1.1,1.1v3.2h2.5v2.1h-2.5v15.3h-2.5v-15.3h-1.7v-2.1h1.7v-3.8
		c0-1.9,0.9-2.8,2.8-2.8h2.2v2.3H1708.1z"/>
	<path class="st20" d="M1279.8,416.8h-2.4v-4.1c0-1.9,0.9-2.8,2.8-2.8h3c1.9,0,2.8,0.9,2.8,2.8v6.4c0,1-0.5,1.7-1.3,1.7
		c0.8,0.1,1.3,0.6,1.3,1.7v6.8c0,1.9-0.9,2.8-2.8,2.8h-3c-1.9,0-2.8-0.9-2.8-2.8v-4h2.4v3.6c0,0.9,0.2,1.1,1.1,1.1h1.6
		c0.9,0,1.1-0.2,1.1-1.1v-5.9c0-0.9-0.2-1.1-1.1-1.1h-2.6v-2.2h2.6c0.9,0,1.1-0.2,1.1-1.1v-5.6c0-0.9-0.2-1.1-1.1-1.1h-1.6
		c-0.9,0-1.1,0.2-1.1,1.1V416.8z"/>
	<path class="st20" d="M1300.5,414.9c1.9,0,2.8,0.9,2.8,2.8v11.8c0,1.9-0.9,2.8-2.8,2.8h-3.7c-1.9,0-2.8-0.9-2.8-2.8v-11.8
		c0-1.9,0.9-2.8,2.8-2.8H1300.5z M1300.9,418.1c0-0.9-0.2-1.1-1.1-1.1h-2.2c-0.9,0-1.1,0.2-1.1,1.1v11c0,0.9,0.2,1.1,1.1,1.1h2.2
		c0.9,0,1.1-0.2,1.1-1.1V418.1z"/>
	<path class="st20" d="M1312.2,414.9v2.2h-1.1c-1.6,0-2.3,0.9-2.3,2.7v12.6h-2.5v-17.5h2.5v2c0.3-1,1.2-2,2.6-2H1312.2z"/>
	<path class="st20" d="M1318.7,432.3v-24.1h2.5v24.1H1318.7z"/>
	<path class="st20" d="M1330.6,414.9c1.9,0,2.8,0.9,2.8,2.8v6.7h-6.5v4.6c0,0.9,0.2,1.1,1.1,1.1h1.7c0.9,0,1.1-0.2,1.1-1.1v-1.6h2.5
		v2c0,1.9-0.9,2.8-2.8,2.8h-3.2c-1.9,0-2.8-0.9-2.8-2.8v-11.8c0-1.9,0.9-2.8,2.8-2.8H1330.6z M1330.9,422.3v-4.2
		c0-0.9-0.2-1.1-1.1-1.1h-1.8c-0.9,0-1.1,0.2-1.1,1.1v4.2H1330.9z"/>
	<path class="st20" d="M1341.6,425.8c0-0.9-0.2-1.1-1.1-1.1h-1.8c-1.9,0-2.8-0.9-2.8-2.8v-4.1c0-1.9,0.9-2.8,2.8-2.8h2.4
		c1.9,0,2.8,0.9,2.8,2.8v1.8h-2.4v-1.4c0-0.9-0.2-1.1-1.1-1.1h-1c-0.9,0-1.1,0.2-1.1,1.1v3.4c0,0.9,0.2,1.1,1.1,1.1h1.8
		c1.9,0,2.8,0.9,2.8,2.8v4c0,1.9-0.9,2.8-2.8,2.8h-2.4c-1.9,0-2.8-0.9-2.8-2.8v-1.8h2.4v1.4c0,0.9,0.2,1.1,1.1,1.1h1
		c0.9,0,1.1-0.2,1.1-1.1V425.8z"/>
	<path class="st20" d="M1352.3,425.8c0-0.9-0.2-1.1-1.1-1.1h-1.8c-1.9,0-2.8-0.9-2.8-2.8v-4.1c0-1.9,0.9-2.8,2.8-2.8h2.4
		c1.9,0,2.8,0.9,2.8,2.8v1.8h-2.4v-1.4c0-0.9-0.2-1.1-1.1-1.1h-1c-0.9,0-1.1,0.2-1.1,1.1v3.4c0,0.9,0.2,1.1,1.1,1.1h1.8
		c1.9,0,2.8,0.9,2.8,2.8v4c0,1.9-0.9,2.8-2.8,2.8h-2.4c-1.9,0-2.8-0.9-2.8-2.8v-1.8h2.4v1.4c0,0.9,0.2,1.1,1.1,1.1h1
		c0.9,0,1.1-0.2,1.1-1.1V425.8z"/>
	<path class="st20" d="M1370.9,414.9v17.5h-2.5v-1.2c-0.3,0.9-1,1.2-2,1.2h-1.4c-1.9,0-2.8-0.9-2.8-2.8v-11.8c0-1.9,0.9-2.8,2.8-2.8
		h1.4c1,0,1.7,0.3,2,1.2v-1.2H1370.9z M1367.2,430.2c0.9,0,1.2-0.3,1.2-1.3v-10.6c0-1-0.4-1.3-1.2-1.3h-1.4c-0.9,0-1.1,0.2-1.1,1.1
		v11c0,0.9,0.2,1.1,1.1,1.1H1367.2z"/>
	<path class="st20" d="M1380.1,414.9c1.9,0,2.8,0.9,2.8,2.8v14.6h-2.5v-14.2c0-0.9-0.2-1.1-1.1-1.1h-1.4c-0.9,0-1.2,0.3-1.2,1.3v14
		h-2.5v-17.5h2.5v1.2c0.3-0.9,1-1.2,2-1.2H1380.1z"/>
	<path class="st20" d="M1394.7,408.2v24.1h-2.5v-1.2c-0.3,0.9-1,1.2-2,1.2h-1.4c-1.9,0-2.8-0.9-2.8-2.8v-11.8c0-1.9,0.9-2.8,2.8-2.8
		h1.4c1,0,1.7,0.3,2,1.2v-7.8H1394.7z M1391,430.2c0.9,0,1.2-0.3,1.2-1.3v-10.7c0-1-0.4-1.3-1.2-1.3h-1.4c-0.9,0-1.1,0.2-1.1,1.1v11
		c0,0.9,0.2,1.1,1.1,1.1H1391z"/>
	<path class="st20" d="M1411.2,414.9v17.5h-2.5v-1.2c-0.3,0.9-1,1.2-2,1.2h-1.4c-1.9,0-2.8-0.9-2.8-2.8v-11.8c0-1.9,0.9-2.8,2.8-2.8
		h1.4c1,0,1.7,0.3,2,1.2v-1.2H1411.2z M1407.5,430.2c0.9,0,1.2-0.3,1.2-1.3v-10.6c0-1-0.4-1.3-1.2-1.3h-1.4c-0.9,0-1.1,0.2-1.1,1.1
		v11c0,0.9,0.2,1.1,1.1,1.1H1407.5z"/>
	<path class="st20" d="M1419.8,425.8c0-0.9-0.2-1.1-1.1-1.1h-1.8c-1.9,0-2.8-0.9-2.8-2.8v-4.1c0-1.9,0.9-2.8,2.8-2.8h2.4
		c1.9,0,2.8,0.9,2.8,2.8v1.8h-2.4v-1.4c0-0.9-0.2-1.1-1.1-1.1h-1c-0.9,0-1.1,0.2-1.1,1.1v3.4c0,0.9,0.2,1.1,1.1,1.1h1.8
		c1.9,0,2.8,0.9,2.8,2.8v4c0,1.9-0.9,2.8-2.8,2.8h-2.4c-1.9,0-2.8-0.9-2.8-2.8v-1.8h2.4v1.4c0,0.9,0.2,1.1,1.1,1.1h1
		c0.9,0,1.1-0.2,1.1-1.1V425.8z"/>
	<path class="st20" d="M1430.5,425.8c0-0.9-0.2-1.1-1.1-1.1h-1.8c-1.9,0-2.8-0.9-2.8-2.8v-4.1c0-1.9,0.9-2.8,2.8-2.8h2.4
		c1.9,0,2.8,0.9,2.8,2.8v1.8h-2.4v-1.4c0-0.9-0.2-1.1-1.1-1.1h-1c-0.9,0-1.1,0.2-1.1,1.1v3.4c0,0.9,0.2,1.1,1.1,1.1h1.8
		c1.9,0,2.8,0.9,2.8,2.8v4c0,1.9-0.9,2.8-2.8,2.8h-2.4c-1.9,0-2.8-0.9-2.8-2.8v-1.8h2.4v1.4c0,0.9,0.2,1.1,1.1,1.1h1
		c0.9,0,1.1-0.2,1.1-1.1V425.8z"/>
	<path class="st20" d="M1435.8,408.2h2.6v2.9h-2.6V408.2z M1435.8,432.3v-17.5h2.5v17.5H1435.8z"/>
	<path class="st20" d="M1446.9,425.8c0-0.9-0.2-1.1-1.1-1.1h-1.8c-1.9,0-2.8-0.9-2.8-2.8v-4.1c0-1.9,0.9-2.8,2.8-2.8h2.4
		c1.9,0,2.8,0.9,2.8,2.8v1.8h-2.4v-1.4c0-0.9-0.2-1.1-1.1-1.1h-1c-0.9,0-1.1,0.2-1.1,1.1v3.4c0,0.9,0.2,1.1,1.1,1.1h1.8
		c1.9,0,2.8,0.9,2.8,2.8v4c0,1.9-0.9,2.8-2.8,2.8h-2.4c-1.9,0-2.8-0.9-2.8-2.8v-1.8h2.4v1.4c0,0.9,0.2,1.1,1.1,1.1h1
		c0.9,0,1.1-0.2,1.1-1.1V425.8z"/>
	<path class="st20" d="M1454.9,417v11.9c0,0.9,0.2,1.1,1.1,1.1h1.4v2.3h-2.1c-1.9,0-2.8-0.9-2.8-2.8V417h-1.6v-2.1h1.6V412h2.5v2.8
		h2.5v2.1H1454.9z"/>
	<path class="st20" d="M1480.5,414.9l-3.1,17.5h-3.8l-2.1-14l-2.1,14h-3.8l-3.1-17.5h2.4l2.6,15.7l2.3-15.7h3.4l2.2,15.7l2.6-15.7
		H1480.5z"/>
	<path class="st20" d="M1482.2,408.2h2.6v2.9h-2.6V408.2z M1482.3,432.3v-17.5h2.5v17.5H1482.3z"/>
	<path class="st20" d="M1490.6,417v11.9c0,0.9,0.2,1.1,1.1,1.1h1.4v2.3h-2.1c-1.9,0-2.8-0.9-2.8-2.8V417h-1.6v-2.1h1.6V412h2.5v2.8
		h2.5v2.1H1490.6z"/>
	<path class="st20" d="M1501,414.9c1.9,0,2.8,0.9,2.8,2.8v14.6h-2.5v-14.2c0-0.9-0.2-1.1-1.1-1.1h-1.4c-0.9,0-1.2,0.3-1.2,1.3v14
		h-2.5v-24.1h2.5v7.8c0.3-0.9,1-1.2,2-1.2H1501z"/>
	<path class="st20" d="M1514.4,417v11.9c0,0.9,0.2,1.1,1.1,1.1h1.4v2.3h-2.1c-1.9,0-2.8-0.9-2.8-2.8V417h-1.6v-2.1h1.6V412h2.5v2.8
		h2.5v2.1H1514.4z"/>
	<path class="st20" d="M1524.7,414.9c1.9,0,2.8,0.9,2.8,2.8v14.6h-2.5v-14.2c0-0.9-0.2-1.1-1.1-1.1h-1.4c-0.9,0-1.2,0.3-1.2,1.3v14
		h-2.5v-24.1h2.5v7.8c0.3-0.9,1-1.2,2-1.2H1524.7z"/>
	<path class="st20" d="M1537,414.9c1.9,0,2.8,0.9,2.8,2.8v6.7h-6.5v4.6c0,0.9,0.2,1.1,1.1,1.1h1.7c0.9,0,1.1-0.2,1.1-1.1v-1.6h2.5v2
		c0,1.9-0.9,2.8-2.8,2.8h-3.2c-1.9,0-2.8-0.9-2.8-2.8v-11.8c0-1.9,0.9-2.8,2.8-2.8H1537z M1537.3,422.3v-4.2c0-0.9-0.2-1.1-1.1-1.1
		h-1.8c-0.9,0-1.1,0.2-1.1,1.1v4.2H1537.3z"/>
	<path class="st20" d="M1556.4,408.2v24.1h-2.5V417h-3.8v15.3h-2.5V417h-1.7v-2.1h1.7v-3.8c0-1.9,0.9-2.8,2.8-2.8h1.5v2.3h-0.8
		c-0.9,0-1.1,0.2-1.1,1.1v3.2h3.8v-6.6H1556.4z"/>
	<path class="st20" d="M1559.6,408.2h2.6v2.9h-2.6V408.2z M1559.7,432.3v-17.5h2.5v17.5H1559.7z"/>
	<path class="st20" d="M1573.9,414.9v19.7c0,1.9-0.9,2.8-2.8,2.8h-5.4v-2.1h4.6c0.9,0,1.1-0.2,1.1-1.1v-3c-0.3,0.9-1,1.2-2,1.2h-1.4
		c-1.9,0-2.8-0.9-2.8-2.8v-11.8c0-1.9,0.9-2.8,2.8-2.8h1.4c1,0,1.7,0.3,2,1.2v-1.2H1573.9z M1570.2,430.2c0.9,0,1.2-0.3,1.2-1.3
		v-10.6c0-1-0.4-1.3-1.2-1.3h-1.4c-0.9,0-1.1,0.2-1.1,1.1v11c0,0.9,0.2,1.1,1.1,1.1H1570.2z"/>
	<path class="st20" d="M1583.1,414.9c1.9,0,2.8,0.9,2.8,2.8v14.6h-2.5v-14.2c0-0.9-0.2-1.1-1.1-1.1h-1.4c-0.9,0-1.2,0.3-1.2,1.3v14
		h-2.5v-24.1h2.5v7.8c0.3-0.9,1-1.2,2-1.2H1583.1z"/>
	<path class="st20" d="M1591.8,417v11.9c0,0.9,0.2,1.1,1.1,1.1h1.4v2.3h-2.1c-1.9,0-2.8-0.9-2.8-2.8V417h-1.6v-2.1h1.6V412h2.5v2.8
		h2.5v2.1H1591.8z"/>
	<path class="st20" d="M1595.7,428.3h3v4h-3V428.3z"/>
</g>
</svg>
