<?xml version="1.0" encoding="utf-8"?>
<!-- Generator: Adobe Illustrator 27.4.0, SVG Export Plug-In . SVG Version: 6.00 Build 0)  -->
<svg version="1.1" xmlns="http://www.w3.org/2000/svg" xmlns:xlink="http://www.w3.org/1999/xlink" x="0px" y="0px"
	 viewBox="0 0 396 396" style="enable-background:new 0 0 396 396;" xml:space="preserve">
<style type="text/css">
	.st0{fill:#54B6CC;}
	.st1{fill:#EDE0D8;stroke:#D7AE9D;stroke-miterlimit:10;}
	.st2{fill:#EA8039;stroke:#CD6028;stroke-miterlimit:10;}
	.st3{fill:#D13C27;stroke:#A53A23;stroke-miterlimit:10;}
	.st4{fill:#D74727;stroke:#BA3A26;stroke-miterlimit:10;}
	.st5{fill:none;stroke:#3D52A3;stroke-linecap:round;stroke-linejoin:round;stroke-miterlimit:10;}
	.st6{fill:none;stroke:#B5956A;stroke-miterlimit:10;}
	.st7{fill:none;stroke:#B5956A;stroke-linecap:round;stroke-linejoin:round;stroke-miterlimit:10;}
	.st8{fill:#ECDED8;stroke:#CEBAB2;stroke-miterlimit:10;}
	.st9{fill:none;stroke:#A5391D;stroke-miterlimit:10;}
	.st10{fill:none;stroke:#81C241;stroke-linecap:round;stroke-linejoin:round;stroke-miterlimit:10;}
	.st11{fill:none;stroke:#BA3A26;stroke-miterlimit:10;}
	.st12{fill:none;stroke:#A8A594;stroke-miterlimit:10;}
	.st13{fill:#EEE7CB;stroke:#B4956A;stroke-miterlimit:10;}
	.st14{fill:none;stroke:#B1AE9B;stroke-miterlimit:10;}
	.st15{fill:#1D4149;stroke:#11292D;stroke-width:3;stroke-linecap:round;stroke-linejoin:round;stroke-miterlimit:10;}
	.st16{fill:none;stroke:#74CDE1;stroke-width:2;stroke-linecap:round;stroke-linejoin:round;stroke-miterlimit:10;}
	.st17{fill:none;stroke:#4799AC;stroke-width:5;stroke-miterlimit:10;}
	.st18{fill:#FDE6D8;stroke:#C6B6B0;stroke-linecap:round;stroke-linejoin:round;stroke-miterlimit:10;}
</style>
<g id="Layer_1">
	<path class="st0" d="M335.5,377.9H59.7c-23.2,0-42.1-18.8-42.1-42.1V60c0-23.2,18.8-42.1,42.1-42.1h275.9
		c23.2,0,42.1,18.8,42.1,42.1v275.9C377.6,359.1,358.8,377.9,335.5,377.9z"/>
	<path class="st1" d="M89.1,379.1c-2.4-10.5,4.5-10.6,4.5-10.6l6,7.4c0.7,0.9,1.8,1.5,2.9,1.7c2.1,0.4,5.5,0.5,6.5-1.8
		c0.9-2,0.2-3.8-0.5-4.9c-0.4-0.7-1-1.3-1.7-1.7c-1.7-1.1-6.7-4.9-13.5-15.9l-28.7-0.1c0,0-6,13.8-5.7,25.5
		C68.9,379.3,79,379.1,89.1,379.1z"/>
	<path class="st1" d="M67.5,379l-0.3-5.7c-0.3,2.5-0.4,4.3-0.5,5.6C67,379,67.3,379,67.5,379z"/>
	<path class="st1" d="M85.5,377c0,0-11.5,3.1-19.6-4.5"/>
	<path class="st1" d="M285.6,376.4c1.9,0.2,3.8,0.6,5.6,1.3c0.2,0,0.4-0.1,0.6-0.1c1.1-0.2,2.1-0.8,2.9-1.7l6-7.4
		c0,0,6.1,0.1,4.8,8.9c4.7-0.3,9.5-0.2,14.3,0.3c2.8,0.3,5.7,0.7,8.5,1.1c2.4-0.3,4.8-0.5,7.2-0.6c0.1-11.6-5.7-25.1-5.7-25.1
		l-28.7,0.1c-6.9,11.1-11.8,14.9-13.5,15.9c-0.7,0.4-1.3,1-1.7,1.7c-0.7,1.2-1.4,2.9-0.5,4.9C285.4,376,285.5,376.2,285.6,376.4z"/>
	<path class="st1" d="M327.6,378.9c0-1.3-0.2-3.1-0.5-5.6l-0.3,5.7C327,379,327.3,378.9,327.6,378.9z"/>
	<path class="st1" d="M308.8,377c0,0,11.5,3.1,19.6-4.5"/>
	<path class="st2" d="M297.9,353.2h33.6c1.2,0,2.1-0.9,2.1-2.1v-2.4c0-1.2-0.9-2.1-2.1-2.1h-33.6c-1.2,0-2.1,0.9-2.1,2.1v2.4
		C295.8,352.3,296.7,353.2,297.9,353.2z"/>
	<path class="st2" d="M297.9,353.2h33.6c1.2,0,2.1-0.9,2.1-2.1v-2.4c0-1.2-0.9-2.1-2.1-2.1h-33.6c-1.2,0-2.1,0.9-2.1,2.1v2.4
		C295.8,352.3,296.7,353.2,297.9,353.2z"/>
	<path class="st3" d="M196,161"/>
	<line class="st3" x1="169.2" y1="171.3" x2="169.3" y2="171.4"/>
	<path class="st3" d="M163,148.3"/>
	<path class="st4" d="M345.5,240.5l-38.6-70.1c0,0-3.7-10.7-20.2-15.7l-47.4-11.9l-4.6-1.1l-72.6-0.5l-6.8,1.6l-47.4,11.9
		c-16.5,5-20.2,15.7-20.2,15.7L49,240.5c-4.4,7.1,50.3,36.4,65.4,29.6l1.3-9.3l-1.3,114.8c0,0,1.2,0.5,3.5,1.2
		c3.1,0,6.2,0.4,9.1,1.3c0.2,0.1,0.5,0.1,0.7,0.2c9.7,0.4,19.5-0.9,29.2-0.7c13.6,0.4,27.1,0.5,40.6,0.2c14.1-0.3,28.1-0.9,42.2-0.9
		c12.6-0.1,25.3,0.5,37.9-0.4c1.7-0.6,2.5-0.9,2.5-0.9l-1.3-114.8l1.3,9.3C295.1,276.9,349.8,247.7,345.5,240.5z"/>
	<line class="st3" x1="226.4" y1="171.4" x2="226.4" y2="171.4"/>
	<path class="st3" d="M199.7,161"/>
	<path class="st3" d="M197.8,162.5"/>
	<path class="st5" d="M252.7,148.1"/>
	<path class="st6" d="M141.6,366.7"/>
	<path class="st7" d="M221.8,266.5"/>
	<path class="st5" d="M281.6,310"/>
	<path class="st6" d="M232.1,365.8"/>
	<path class="st6" d="M122.3,199.2"/>
	<polygon class="st8" points="243.8,127.8 151.1,127.8 151.3,98.4 244,98.4 	"/>
	<path class="st6" d="M72.2,243.3"/>
	<path class="st5" d="M295.2,184.1"/>
	<path class="st8" d="M244.6,98.9"/>
	<path class="st9" d="M196,161"/>
	<path class="st9" d="M171.6,170.7"/>
	<path class="st9" d="M201,161"/>
	<path class="st10" d="M116.9,261"/>
	<path class="st4" d="M112.3,216.8c0,0-8.8-6.4-11.5-15.2"/>
	<path class="st4" d="M113.3,230.5c0,0-4.9,0.2-5.7,8.2"/>
	<path class="st8" d="M198.1,114.8"/>
	<path class="st8" d="M244.6,98.9V79.2c0-1.7-0.2-3.4-0.5-5l-0.1-0.6c0,0-7.8-40-46.3-40h0.2c-38.5,0-46.3,40-46.3,40l-0.2,1.3
		c-0.2,1.4-0.4,2.9-0.4,4.3l0,19.6l0,0.1v24.8"/>
	<path class="st3" d="M155.2,142.8"/>
	<path class="st9" d="M196,161"/>
	<path class="st9" d="M171.6,170.7"/>
	<path class="st9" d="M201,161"/>
	<path class="st9" d="M224.1,170.7"/>
	<path class="st9" d="M194.7,161"/>
	<path class="st9" d="M171.6,170.7"/>
	<path class="st9" d="M201,161"/>
	<path class="st9" d="M224.1,170.7"/>
	<path class="st9" d="M194.7,161"/>
	<path class="st4" d="M176.5,130.5l-11,0l-3.3,6.9c0,0-0.1,1.6-0.2,2.7l0,0.4c0,1.5,0.2,3.5,0.8,5.4l0.2,0.3c0,0,26,4.2,69.6,0
		l0.3-0.3c0.6-1.9,0.8-3.8,0.8-5.4l0-0.4c0-1.1-0.2-2.7-0.2-2.7l-3.3-6.9l-11,0"/>
	<path class="st8" d="M197.8,134.5c27.3-0.4,38.7-2.8,43.5-4.1c3.9-1,3.3-3.4,3.3-3.4v-3.3c0,0-16.3,4.4-46.3,4.1h-0.9
		c-30,0.3-46.3-4.1-46.3-4.1v3.3c0,0-0.6,2.4,3.3,3.4C159.2,131.6,170.6,134.1,197.8,134.5"/>
	<line class="st8" x1="244.6" y1="123.7" x2="244.6" y2="98.9"/>
	<path class="st9" d="M199.7,161"/>
	<path class="st9" d="M224.1,170.7"/>
	<path class="st9" d="M194.7,161"/>
	<path class="st10" d="M278.8,261"/>
	<path class="st11" d="M283.3,216.8c0,0,8.8-6.4,11.5-15.2"/>
	<path class="st4" d="M282.4,230.5c0,0,4.9,0.2,5.7,8.2"/>
	<path class="st12" d="M198.4,54.9"/>
	<path class="st5" d="M252.7,148.1"/>
	<path class="st6" d="M141.6,366.7"/>
	<path class="st5" d="M281.6,310"/>
	<path class="st6" d="M232.1,365.8"/>
	<path class="st9" d="M197.7,162.4"/>
	<path class="st6" d="M122.3,199.2"/>
	<path class="st6" d="M72.2,243.3"/>
	<path class="st5" d="M295.2,184.1"/>
	<path class="st9" d="M196,161"/>
	<path class="st9" d="M171.6,170.7"/>
	<path class="st9" d="M201,161"/>
	<path class="st2" d="M109.9,305.8c0,0,6.5,27.7-12.3,40.7H61.8c-18.8-13-12.3-40.7-12.3-40.7l-0.1-0.3c-3.3-20,9.1-53.4,9.1-53.4
		c39.1,22.7,52.9,18.8,52.9,18.8c2.4,12.7,3.3,26.7-1.8,34.4L109.9,305.8"/>
	<path class="st10" d="M116.9,261"/>
	<path class="st2" d="M96.6,353.2H63c-1.2,0-2.1-0.9-2.1-2.1v-2.4c0-1.2,0.9-2.1,2.1-2.1h33.6c1.2,0,2.1,0.9,2.1,2.1v2.4
		C98.7,352.3,97.7,353.2,96.6,353.2z"/>
	<path class="st2" d="M104.5,299.5c2.3,1.4,4,3.3,5.1,5.7"/>
	<path class="st2" d="M97.6,346.5"/>
	<path class="st2" d="M96.6,353.2H63c-1.2,0-2.1-0.9-2.1-2.1v-2.4c0-1.2,0.9-2.1,2.1-2.1h33.6c1.2,0,2.1,0.9,2.1,2.1v2.4
		C98.7,352.3,97.7,353.2,96.6,353.2z"/>
	<path class="st9" d="M199.7,161"/>
	<path class="st9" d="M224.1,170.7"/>
	<path class="st9" d="M194.7,161"/>
	<path class="st10" d="M278.8,261"/>
	<path class="st12" d="M198.4,54.9"/>
	<path class="st6" d="M280,368.7"/>
	<path class="st2" d="M284.3,305.8c0,0-6.5,27.7,12.3,40.7h35.9c18.8-13,12.3-40.7,12.3-40.7l0.1-0.3c3.3-20-9.1-53.4-9.1-53.4
		c-39.1,22.7-52.9,18.8-52.9,18.8c-2.4,12.7-3.3,26.7,1.8,34.4L284.3,305.8"/>
	<path class="st2" d="M289.6,299.5c-2.3,1.4-4,3.3-5.1,5.7"/>
	<path class="st2" d="M344.7,306.2c-1.1-6.5-3.8-11.6-9.1-13.7"/>
	<path class="st9" d="M172.7,172.8"/>
	<path class="st9" d="M291.5,157.1v15.1c0,0-9,22.9-8.1,35.3c0.9,12.4-4.6,53.5-4.6,53.5"/>
	<path class="st2" d="M49.4,306.2c1.1-6.5,3.8-11.6,9.1-13.7"/>
	<path class="st13" d="M114.8,366.4c2.7,0.4,7,1.6,7,1.6s4.5-0.1,0.5-1.8c-2.3-1-5.3-1.6-7.5-1.9"/>
	<path class="st11" d="M114.8,353.8l2.1-93.3l-1.3,9.7c-15,6.8-71-22.6-66.6-29.7l38.6-70.1c0,0,3.7-10.7,20.2-15.7l47.4-11.9
		l6.8-1.6"/>
	<line class="st9" x1="114.7" y1="361.1" x2="114.8" y2="353.8"/>
	<line class="st9" x1="114.6" y1="364.2" x2="114.7" y2="361.1"/>
	<line class="st9" x1="114.5" y1="368.4" x2="114.6" y2="364.2"/>
	<path class="st9" d="M116.3,376.4c-0.4-0.1-1.7-0.4-1.9-0.7c-0.8-1.1,0.1-5.8,0.2-7.2"/>
	<path class="st9" d="M285.3,154.4C291,155,298,159,301,163c18,23,28,48,42,72c1,2,3,6,2,8c-13,17-33,23-53,28c-4,0-9,2-11-1
		c-2-2-3-6-2.2-9.2c0.2,13.5,0.2,1.3,0,0c-0.8,38.2,1.2,77.2,1,114.9"/>
	<polyline class="st11" points="234.6,141.8 239.2,142.8 285.3,154.4 	"/>
	<path class="st11" d="M104.2,156.6v15.1c0,0,9,22.9,8.1,35.3c-0.9,12.4,4.6,53.5,4.6,53.5"/>
	<path class="st11" d="M291.5,157.1v15.1c0,0-9,22.9-8.1,35.3c0.9,12.4-4.6,53.5-4.6,53.5"/>
	<path class="st14" d="M88.3,353.2"/>
	<path class="st14" d="M257.9,354.6"/>
	<path class="st15" d="M117.5,376.9c3.2,0,6.4,0.4,9.5,1.3c0.2,0.1,0.5,0.1,0.7,0.2c9.7,0.4,19.5-0.9,29.2-0.7
		c13.6,0.4,27.1,0.5,40.6,0.2c14.1-0.3,28.1-0.9,42.2-0.9c12.5-0.1,25,0.5,37.4-0.3c1.3-0.6,2.4-1.2,3.3-1.8l0.5-14.7
		c-69.6,27.9-167,0.4-167,0.4l0.5,14.7C115.2,375.8,116.3,376.3,117.5,376.9z"/>
	<path class="st16" d="M152.2,68.8l6.5,3c0,0,0.7,2.2,0,3.2"/>
	<path class="st16" d="M243.5,68.8l-6.5,3c0,0-0.7,2.2,0,3.2"/>
	<path class="st17" d="M335.5,377.9H59.7c-23.2,0-42.1-18.8-42.1-42.1V60c0-23.2,18.8-42.1,42.1-42.1h275.9
		c23.2,0,42.1,18.8,42.1,42.1v275.9C377.6,359.1,358.8,377.9,335.5,377.9z"/>
</g>
<g id="Layer_2">
	<g>
		<path class="st18" d="M127.3,182.9v-3.8c0-1-0.2-1.2-1.2-1.2h-2.2c-1,0-1.2,0.2-1.2,1.2v17.7c0,1,0.2,1.2,1.2,1.2h2.2
			c1,0,1.2-0.2,1.2-1.2v-3.8h2.8v4.2c0,2.1-1,3.2-3.2,3.2H123c-2.1,0-3.2-1-3.2-3.2v-18.6c0-2.1,1-3.2,3.2-3.2h3.9
			c2.1,0,3.2,1,3.2,3.2v4.2H127.3z"/>
		<path class="st18" d="M148.7,175.5v24.9H146v-11.2h-5.4v11.2h-2.8v-24.9h2.8v11.3h5.4v-11.3H148.7z"/>
		<path class="st18" d="M164.3,194.1h-5l-0.9,6.3h-2.8l3.9-24.9h4.4l4.3,24.9h-2.8L164.3,194.1z M163.9,191.7l-2.3-14.3l-2,14.3
			H163.9z"/>
		<path class="st18" d="M182.1,175.5c2.1,0,3.2,1,3.2,3.2v8.6c0,2.1-1,3.2-3.2,3.2h-4.5v10h-2.7v-24.9H182.1z M182.5,179.1
			c0-1-0.2-1.2-1.2-1.2h-3.7v10.2h3.7c1,0,1.2-0.2,1.2-1.2V179.1z"/>
		<path class="st18" d="M202.3,198.1v2.4h-9.6v-24.9h9.3v2.4h-6.6v8.4h5.4v2.4h-5.4v9.4H202.3z"/>
		<path class="st18" d="M214.3,190H212v10.4h-2.7v-24.9h7.2c2.1,0,3.2,1,3.2,3.2v8.2c0,1.9-0.8,2.9-2.5,3.1l3.8,10.4h-3L214.3,190z
			 M212,187.7h3.7c1,0,1.2-0.2,1.2-1.2v-7.3c0-1-0.2-1.2-1.2-1.2H212V187.7z"/>
		<path class="st18" d="M234.9,175.5c2.1,0,3.2,1,3.2,3.2v18.6c0,2.1-1,3.2-3.2,3.2h-4.1c-2.1,0-3.2-1-3.2-3.2v-18.6
			c0-2.1,1-3.2,3.2-3.2H234.9z M235.3,179.1c0-1-0.2-1.2-1.2-1.2h-2.5c-1,0-1.2,0.2-1.2,1.2v17.7c0,1,0.2,1.2,1.2,1.2h2.5
			c1,0,1.2-0.2,1.2-1.2V179.1z"/>
		<path class="st18" d="M256.9,175.5v24.9h-3l-5.2-19.3v19.3h-2.5v-24.9h3.2l5,18.6v-18.6H256.9z"/>
		<path class="st18" d="M274.9,198.1v2.4h-9.6v-24.9h9.3v2.4h-6.6v8.4h5.4v2.4h-5.4v9.4H274.9z"/>
	</g>
</g>
</svg>
