<?xml version="1.0" encoding="utf-8"?>
<!-- Generator: Adobe Illustrator 27.3.1, SVG Export Plug-In . SVG Version: 6.00 Build 0)  -->
<svg version="1.1" id="Layer_1" xmlns="http://www.w3.org/2000/svg" xmlns:xlink="http://www.w3.org/1999/xlink" x="0px" y="0px"
	 viewBox="0 0 792 576" style="enable-background:new 0 0 792 576;" xml:space="preserve">
<style type="text/css">
	.st0{fill:#19100A;}
	.st1{fill:#60C9E6;}
	.st2{fill:#F16722;stroke:#F16722;stroke-miterlimit:10;}
	.st3{fill:#83CFDC;}
	.st4{fill:#0D1A1C;}
	.st5{fill:#E5E5E4;}
	.st6{fill:#CFDEE2;}
	.st7{fill:none;stroke:#231F20;stroke-miterlimit:10;}
	.st8{fill:#A3D8E5;}
	.st9{fill:#1D4149;}
	.st10{fill:#3D7B89;}
	.st11{fill:#FDE6D8;}
	.st12{fill:#F69656;}
	.st13{fill:#AF4F26;}
	.st14{fill:#703616;}
	.st15{fill:#CB6128;}
	.st16{fill:#F8B384;}
	.st17{fill:#D74727;stroke:#F16722;stroke-miterlimit:10;}
	.st18{fill:#6CC0D3;}
	.st19{fill:#D74727;stroke:#BA3A26;stroke-miterlimit:10;}
	.st20{fill:#FDE6D8;stroke:#C6B6B0;stroke-width:4;stroke-linecap:round;stroke-linejoin:round;stroke-miterlimit:10;}
	.st21{fill:none;stroke:#A8A694;stroke-width:4;stroke-miterlimit:10;}
	.st22{fill:none;stroke:#A5391D;stroke-width:4;stroke-miterlimit:10;}
	.st23{fill:#EA8039;stroke:#CD6028;stroke-miterlimit:10;}
	.st24{fill:#D23C27;stroke:#A53A23;stroke-width:4;stroke-miterlimit:10;}
	.st25{fill:#D74727;stroke:#BA3A26;stroke-width:4;stroke-miterlimit:10;}
	.st26{fill:#EFE8CC;stroke:#B1AE9C;stroke-width:4;stroke-miterlimit:10;}
	.st27{fill:none;stroke:#BA3A26;stroke-width:4;stroke-miterlimit:10;}
	.st28{fill:#ECDED8;stroke:#CEBAB2;stroke-width:4;stroke-miterlimit:10;}
	.st29{fill:none;stroke:#A8A594;stroke-miterlimit:10;}
	.st30{fill:#E9DBD4;stroke:#CEBAB2;stroke-width:4;stroke-miterlimit:10;}
	.st31{fill:#F8B384;stroke:#F7A56D;stroke-width:6;stroke-miterlimit:10;}
	.st32{fill:#EDC8B7;}
	.st33{fill:none;stroke:#E5E5E4;stroke-width:6;stroke-miterlimit:10;}
	.st34{fill:none;stroke:#E5E5E4;stroke-width:6;stroke-linecap:round;stroke-linejoin:round;stroke-miterlimit:10;}
	.st35{fill:#E5E5E4;stroke:#19100A;stroke-width:5;stroke-miterlimit:10;}
	.st36{fill:none;stroke:#3D7B89;stroke-width:5;stroke-miterlimit:10;}
</style>
<rect x="33" y="308.8" class="st0" width="31.7" height="31.7"/>
<rect x="461.1" y="27" class="st1" width="47.3" height="47.3"/>
<rect x="25.1" y="27" class="st2" width="47.3" height="47.3"/>
<rect x="469" y="359.8" class="st3" width="31.7" height="31.7"/>
<rect x="469" y="104.8" class="st4" width="31.7" height="31.7"/>
<rect x="469" y="155.8" class="st5" width="31.7" height="31.7"/>
<rect x="469" y="410.8" class="st6" width="31.7" height="31.7"/>
<rect x="469" y="461.8" class="st7" width="31.7" height="31.7"/>
<rect x="469" y="205.8" class="st8" width="31.7" height="31.7"/>
<rect x="469" y="305.8" class="st9" width="31.7" height="31.7"/>
<rect x="469" y="255.8" class="st10" width="31.7" height="31.7"/>
<rect x="33" y="104.8" class="st0" width="31.7" height="31.7"/>
<rect x="33" y="155.8" class="st11" width="31.7" height="31.7"/>
<rect x="33" y="206.8" class="st12" width="31.7" height="31.7"/>
<rect x="33" y="257.8" class="st13" width="31.7" height="31.7"/>
<rect x="33" y="308.8" class="st14" width="31.7" height="31.7"/>
<rect x="33" y="359.8" class="st15" width="31.7" height="31.7"/>
<rect x="33" y="410.8" class="st16" width="31.7" height="31.7"/>
<rect x="33" y="461.8" class="st17" width="31.7" height="31.7"/>
<path class="st18" d="M765.5,568.9H26c-10.1,0-18.2-8.2-18.2-18.2V25.9C7.8,15.8,16,7.6,26,7.6h739.5c10.1,0,18.2,8.2,18.2,18.2
	v524.8C783.7,560.8,775.6,568.9,765.5,568.9z"/>
<path class="st19" d="M564.4,567h118.2L594,544.9l-21.5-4.9c-5.7-0.1-4.7,3.2-4.7,3.2C567.7,550,566.9,558.6,564.4,567z"/>
<path class="st19" d="M236.2,567c-2.9-9.5-3.6-19.2-3.6-26.6l0.1-2.9l-32,7.3L112,567H236.2z"/>
<path class="st20" d="M564.1,567h85.4c-1.2-3-2.4-5.9-3.6-8.6l-10.4-2.6l-23.8-6l-36.9-8.5c0,0-7.3-2.6-6.9,0s-1.4,17-1.4,17
	L564.1,567z"/>
<path class="st21" d="M619.1,339.2"/>
<path class="st22" d="M248.6,497.4L233,529.8c0,0,0.1,2.3-0.2,6"/>
<path class="st23" d="M463.5,567c16.8-25.4,28.7-50.7,36.6-70.8H300.3c7.9,20.1,19.8,45.3,36.6,70.8H463.5z"/>
<path class="st22" d="M551.4,496.2l15.6,32.5c0,0,0.6,7.5,0.8,12.7"/>
<path class="st24" d="M200.6,544.8"/>
<path class="st25" d="M336.9,567c-16.8-25.4-28.6-50.7-36.6-70.8l-51.8,1.1L233,529.8c0,0,0.1,2.3-0.2,6l-0.1,1.7l-0.1,2.9
	c0,7.4,0.7,17.1,3.6,26.6L336.9,567L336.9,567z"/>
<path class="st25" d="M564.4,567c2.5-8.4,3.3-17,3.4-23.9l0-1.7c-0.2-5.2-0.8-12.7-0.8-12.7l-15.6-32.4h-51.3
	c-8.5,21.3-18.4,46-34.1,70.8H564.4z"/>
<path class="st26" d="M400.3,505.6c-127.7-1.9-180.9-13.3-203.5-19.2c-18.1-4.7-15.3-16.1-15.3-16.1v-15.2c0,0,76.2,20.7,216.7,19.1
	h4.2c140.5,1.5,216.7-19.1,216.7-19.1v15.2c0,0,2.8,11.4-15.3,16.1c-22.6,5.9-75.8,17.3-203.5,19.2"/>
<path class="st21" d="M403,133.2"/>
<path class="st21" d="M403,133.2"/>
<path class="st27" d="M564.4,567h118.2L594,544.9l-21.5-4.9c-5.7-0.1-4.7,3.2-4.7,3.2C567.7,550,566.9,558.6,564.4,567z"/>
<polygon class="st28" points="619.9,481.7 180.8,478 180.8,340.5 621,340.1 "/>
<path class="st29" d="M620,342.9"/>
<path class="st28" d="M617.3,223.7c0,0-36.6-188.1-217.5-188.1h1c-180.9,0-217.5,188.1-217.5,188.1"/>
<path class="st30" d="M398.9,417.6c208.2-2.5,221-74.6,221-74.6v-92.7c0-94.5-97.8-171.1-218.3-171.1h-2.6
	c-120.6,0-218.3,76.6-218.3,171.1v92.7c0,0,12.8,72.2,221,74.6"/>
<path class="st28" d="M400.3,510c128.2-1.9,181.6-13.4,204.3-19.3c18.2-4.7,15.4-16.1,15.4-16.1v-15.3c0,0-76.5,20.7-217.5,19.2
	h-4.2c-141,1.5-217.5-19.2-217.5-19.2v15.3c0,0-2.8,11.4,15.4,16.1c22.7,5.9,76.1,17.4,204.3,19.3"/>
<path class="st29" d="M403.1,136.2"/>
<path class="st29" d="M403.1,136.2"/>
<g>
	<path class="st0" d="M400.9,403.3C208,401,196.1,334.1,196.1,334.1v-85.9c0-87.5,90.6-158.5,202.3-158.5c3.9,0,3.9,0,3.9,0
		c111.7,0,202.3,71,202.3,158.5v85.9c0,0-11.9,66.8-204.8,69.2"/>
</g>
<path class="st25" d="M236.2,567c-2.9-9.5-3.6-19.2-3.6-26.6l0.1-2.9l-32,7.3L112,567H236.2z"/>
<path class="st31" d="M620.1,360.1c0.1-9.1-6.2-17-14.9-18.7c-159.5-30.9-203.7-28-203.7-28h-0.9c0,0-44.2-2.9-203.9,28
	c-8.6,1.7-14.9,9.5-14.9,18.5l0,109.5c0,7.4,4.2,14.2,10.8,17.2c19,8.8,70.8,22.1,209.4,21.9c136.1-0.2,186.8-12.6,205.6-21
	c6.6-3,10.9-9.6,11-17.1L620.1,360.1z"/>
<polygon class="st32" points="202.2,364.3 396.5,340 601.8,366.3 394.5,348.4 "/>
<polygon class="st32" points="196.8,414.2 399.3,387.9 603.2,413.5 399.3,398 "/>
<polygon class="st32" points="195.6,458.7 401.5,475.8 606.4,458.7 401.5,486.6 "/>
<polygon class="st32" points="196.8,443.2 400.3,432.8 603.2,442.5 398.8,441.3 "/>
<path class="st33" d="M480.5,152.8L480.5,152.8c-2.5,2.5-6.6,2.5-9.1,0L434.6,116c-2.5-2.5-2.5-6.6,0-9.1l0,0c2.5-2.5,6.6-2.5,9.1,0
	l36.9,36.9C483.1,146.2,483.1,150.3,480.5,152.8z"/>
<path class="st33" d="M457.5,194.1L457.5,194.1c-2.5,2.5-6.6,2.5-9.1,0l-54.9-54.9c-2.5-2.5-2.5-6.6,0-9.1l0,0
	c2.5-2.5,6.6-2.5,9.1,0l54.9,54.9C460,187.5,460,191.6,457.5,194.1z"/>
<line class="st33" x1="422.6" y1="146.5" x2="443.3" y2="126"/>
<line class="st33" x1="440.2" y1="165.9" x2="460.9" y2="145.4"/>
<path class="st33" d="M445.8,187.6l-75,75c-7.8,7.8-20.5,7.8-28.3,0L325,245.2c-7.8-7.8-7.8-20.5,0-28.3l75-75"/>
<path class="st33" d="M342.6,262.4l-10.5,10.5c-1.1,1.1-4.4-0.5-7.5-3.5l-6.8-6.8c-3-3-4.6-6.4-3.5-7.5l10.5-10.5"/>
<line class="st34" x1="287.6" y1="299.8" x2="321.1" y2="266.6"/>
<path class="st5" d="M405.4,206.2c3.6,1.9,4.2,6.8,1.4,9.7L366,256.6c-4.9,4.9-13.7,4-19.7-1.9L333,241.3c-6-6-6.8-14.8-1.9-19.7
	l40.9-40.9c2.9-2.9,7.7-2.2,9.6,1.4C385.5,189.2,392.9,199.5,405.4,206.2z"/>
<path class="st35" d="M526.5,170.5c2-3.4,3.2-7.4,3.2-11.6c0-10.7-7.4-19.6-16.4-19.6c-5.1,0-9.9,2.9-13,7.7L443,249.3l-31.4-29.4
	c-3-3.6-6.8-5.5-10.8-5.5c-8.9,0-16.1,9.7-16.1,21.5c0,5,1.3,9.9,3.8,13.8l49.4,47.6c2.5,2,5.5,3.1,8.7,3.1c4.1,0,8-1.8,10.6-5
	L526.5,170.5z"/>
<path class="st36" d="M770.1,568.9H21.5c-7.6,0-13.7-6.1-13.7-13.7v-534c0-7.6,6.1-13.7,13.7-13.7h748.6c7.5,0,13.7,6.1,13.7,13.7
	v534C783.7,562.8,777.6,568.9,770.1,568.9z"/>
</svg>
