<?xml version="1.0" encoding="utf-8"?>
<!-- Generator: Adobe Illustrator 27.3.1, SVG Export Plug-In . SVG Version: 6.00 Build 0)  -->
<svg version="1.1" id="Layer_1" xmlns="http://www.w3.org/2000/svg" xmlns:xlink="http://www.w3.org/1999/xlink" x="0px" y="0px"
	 viewBox="0 0 792 864" style="enable-background:new 0 0 792 864;" xml:space="preserve">
<style type="text/css">
	.st0{fill:#F8B384;stroke:#CC956E;stroke-width:5;stroke-miterlimit:10;}
	.st1{fill:#EBDDD7;stroke:#CDB9B1;stroke-width:8;stroke-miterlimit:10;}
	.st2{fill:#E8D9D3;stroke:#CDB9B1;stroke-width:8;stroke-miterlimit:10;}
	.st3{fill:#1A130E;}
	.st4{fill:#0D1A1C;stroke:#75CCE0;stroke-width:10;stroke-miterlimit:10;}
	.st5{fill:none;stroke:#75CCE0;stroke-width:10;stroke-miterlimit:10;}
</style>
<path class="st0" d="M59.8,857.2h672.1c23.2,0,42.1-18.8,42.1-42.1v-767c0-23.2-18.8-42.1-42.1-42.1H59.8
	C36.5,6,17.7,24.9,17.7,48.1v767C17.7,838.3,36.5,857.2,59.8,857.2z"/>
<polygon class="st1" points="747.3,761 40.8,755.1 40.8,533.9 749,533.2 "/>
<path class="st1" d="M743.1,345.9c0,0-59-302.6-350-302.6h1.7c-291,0-350,302.6-350,302.6"/>
<path class="st2" d="M391.8,657.8c334.9-4,355.6-120.1,355.6-120.1V388.6c0-152-157.3-275.2-351.3-275.2h-4.1
	c-194,0-351.3,123.2-351.3,275.2v149.1c0,0,20.6,116.1,355.6,120.1"/>
<path class="st1" d="M393.9,806.5c206.2-3.1,292.1-21.5,328.7-31c29.3-7.6,24.7-26,24.7-26v-24.6c0,0-123.1,33.4-350,30.9h-6.7
	c-226.9,2.5-350-30.9-350-30.9v24.6c0,0-4.5,18.3,24.7,26c36.5,9.5,122.5,27.9,328.7,31"/>
<g>
	<path class="st3" d="M394.8,634.8C84.5,631.1,65.4,523.6,65.4,523.6V385.4c0-140.8,145.7-255,325.4-255c6.3,0,6.3,0,6.3,0
		c179.7,0,325.4,114.1,325.4,255v138.1c0,0-19.1,107.5-329.4,111.3"/>
</g>
<path class="st4" d="M270.8,99.7l19.6,39.7c3.6,7.3,10.5,12.3,18.5,13.5l43.8,6.4c20.2,2.9,28.3,27.8,13.6,42l-31.7,30.9
	c-5.8,5.7-8.5,13.8-7.1,21.8l7.5,43.6c3.5,20.1-17.7,35.5-35.7,26l-39.2-20.6c-7.2-3.8-15.7-3.8-22.9,0l-39.2,20.6
	c-18.1,9.5-39.2-5.8-35.7-26l7.5-43.6c1.4-8-1.3-16.1-7.1-21.8l-31.7-30.9c-14.6-14.2-6.6-39.1,13.6-42l43.8-6.4
	c8-1.2,15-6.2,18.5-13.5l19.6-39.7C235.7,81.4,261.8,81.4,270.8,99.7z"/>
<path class="st4" d="M560.5,98.6l19.6,39.7c3.6,7.3,10.5,12.3,18.5,13.5l43.8,6.4c20.2,2.9,28.3,27.8,13.6,42L624.4,231
	c-5.8,5.7-8.5,13.8-7.1,21.8l7.5,43.6c3.5,20.1-17.7,35.5-35.7,26l-39.2-20.6c-7.2-3.8-15.7-3.8-22.9,0l-39.2,20.6
	c-18.1,9.5-39.2-5.8-35.7-26l7.5-43.6c1.4-8-1.3-16.1-7.1-21.8l-31.7-30.9c-14.6-14.2-6.6-39.1,13.6-42l43.8-6.4
	c8-1.2,15-6.2,18.5-13.5l19.6-39.7C525.4,80.3,551.5,80.3,560.5,98.6z"/>
<line class="st5" x1="375.1" y1="176.8" x2="411.7" y2="176.8"/>
</svg>
