<?xml version="1.0" encoding="utf-8"?>
<!-- Generator: Adobe Illustrator 27.3.1, SVG Export Plug-In . SVG Version: 6.00 Build 0)  -->
<svg version="1.1" id="Layer_1" xmlns="http://www.w3.org/2000/svg" xmlns:xlink="http://www.w3.org/1999/xlink" x="0px" y="0px"
	 viewBox="0 0 1080 1080" style="enable-background:new 0 0 1080 1080;" xml:space="preserve">
<style type="text/css">
	.st0{fill:#142728;}
	.st1{fill:#153035;}
	.st2{fill:#1E4249;}
	.st3{fill:#E5E5E4;}
	.st4{fill:#FFF1E7;}
	.st5{fill:#D74928;stroke:#BB3B26;stroke-width:4;stroke-miterlimit:10;}
	.st6{fill:#FCE5D7;stroke:#C6B6B0;stroke-width:4;stroke-linecap:round;stroke-linejoin:round;stroke-miterlimit:10;}
	.st7{fill:#F8EBE4;stroke:#C6B6B0;stroke-width:4;stroke-linecap:round;stroke-linejoin:round;stroke-miterlimit:10;}
	.st8{fill:none;stroke:#E5E5E4;stroke-miterlimit:10;}
	.st9{fill:#EFE8CC;stroke:#B5956A;stroke-linecap:round;stroke-linejoin:round;stroke-miterlimit:10;}
	.st10{fill:#ECDED8;stroke:#CEBAB3;stroke-width:4;stroke-miterlimit:10;}
	.st11{fill:none;stroke:#A5391D;stroke-miterlimit:10;}
	.st12{fill:none;stroke:#224245;stroke-width:10;stroke-miterlimit:10;}
	.st13{fill:#EA803A;stroke:#CD6129;stroke-width:4;stroke-miterlimit:10;}
	.st14{fill:#EFE8CC;stroke:#B1AE9C;stroke-width:4;stroke-miterlimit:10;}
	.st15{fill:none;stroke:#BB3B26;stroke-width:4;stroke-miterlimit:10;}
	.st16{fill:#1B140F;}
	.st17{fill:none;stroke:#A5391D;stroke-width:4;stroke-miterlimit:10;}
	.st18{fill:#EDE0D9;stroke:#D8AE9E;stroke-width:4;stroke-miterlimit:10;}
	.st19{fill:none;stroke:#CD6129;stroke-width:4;stroke-miterlimit:10;}
	.st20{fill:none;stroke:#76CDE1;stroke-width:6;stroke-linecap:round;stroke-linejoin:round;stroke-miterlimit:10;}
	.st21{fill:#0E1A1C;stroke:#76CDE1;stroke-width:6;stroke-miterlimit:10;}
	.st22{fill:none;stroke:#76CDE1;stroke-width:6;stroke-miterlimit:10;}
	.st23{fill:#B3D6DD;stroke:#7DAEB4;stroke-width:4;stroke-linecap:round;stroke-miterlimit:10;}
	.st24{fill:#E5E5E5;}
	.st25{fill:none;stroke:#FFF1E7;stroke-width:35;stroke-miterlimit:10;}
</style>
<g>
	<path class="st0" d="M947.6,365.8H154.5V148.3c0-26.5,21.5-48.1,48.1-48.1h693.1c28.7,0,52,23.3,52,52V365.8z"/>
	<rect x="154.5" y="365.8" class="st1" width="793.1" height="279.8"/>
	<rect x="154.5" y="643" class="st2" width="793.1" height="260.9"/>
	<g>
		<g>
			<path class="st3" d="M758.2,281.1c3.2,0,3.2-5,0-5C755,276.1,755,281.1,758.2,281.1L758.2,281.1z"/>
		</g>
	</g>
	<g>
		<g>
			<path class="st3" d="M821.3,553.8c3.2,0,3.2-5,0-5C818.1,548.8,818.1,553.8,821.3,553.8L821.3,553.8z"/>
		</g>
	</g>
	<g>
		<g>
			<path class="st3" d="M297.4,504.7c3.2,0,3.2-5,0-5C294.2,499.7,294.2,504.7,297.4,504.7L297.4,504.7z"/>
		</g>
	</g>
	<g>
		<g>
			<path class="st3" d="M319.5,293.3c3.2,0,3.2-5,0-5C316.3,288.3,316.3,293.3,319.5,293.3L319.5,293.3z"/>
		</g>
	</g>
	<g>
		<g>
			<path class="st3" d="M401.6,510.9c3.2,0,3.2-5,0-5C398.4,505.9,398.3,510.9,401.6,510.9L401.6,510.9z"/>
		</g>
	</g>
	<g>
		<g>
			<path class="st4" d="M294.3,725.3c3.2,0,3.2-5,0-5C291,720.3,291,725.3,294.3,725.3L294.3,725.3z"/>
		</g>
	</g>
	<g>
		<g>
			<path class="st3" d="M859.2,657.9c3.2,0,3.2-5,0-5C856,652.9,856,657.9,859.2,657.9L859.2,657.9z"/>
		</g>
	</g>
	<g>
		<g>
			<path class="st3" d="M865.5,418.9c3.2,0,3.2-5,0-5C862.3,413.9,862.3,418.9,865.5,418.9L865.5,418.9z"/>
		</g>
	</g>
	<g>
		<g>
			<path class="st3" d="M726.6,458.8c3.2,0,3.2-5,0-5C723.4,453.8,723.4,458.8,726.6,458.8L726.6,458.8z"/>
		</g>
	</g>
	<g>
		<g>
			<path class="st3" d="M717.2,302.5c3.2,0,3.2-5,0-5C713.9,297.5,713.9,302.5,717.2,302.5L717.2,302.5z"/>
		</g>
	</g>
	<g>
		<g>
			<path class="st3" d="M603.5,406.7c3.2,0,3.2-5,0-5C600.3,401.7,600.3,406.7,603.5,406.7L603.5,406.7z"/>
		</g>
	</g>
	<g>
		<g>
			<path class="st3" d="M357.4,412.8c3.2,0,3.2-5,0-5C354.2,407.8,354.2,412.8,357.4,412.8L357.4,412.8z"/>
		</g>
	</g>
	<g>
		<g>
			<path class="st3" d="M275.3,173.8c3.2,0,3.2-5,0-5C272.1,168.8,272.1,173.8,275.3,173.8L275.3,173.8z"/>
		</g>
	</g>
	<g>
		<g>
			<path class="st3" d="M540.4,143.2c3.2,0,3.2-5,0-5C537.2,138.2,537.2,143.2,540.4,143.2L540.4,143.2z"/>
		</g>
	</g>
	<g>
		<g>
			<path class="st3" d="M253.2,385.2c3.2,0,3.2-5,0-5C250,380.2,250,385.2,253.2,385.2L253.2,385.2z"/>
		</g>
	</g>
	<g>
		<g>
			<path class="st3" d="M609.9,694.7c3.2,0,3.2-5,0-5C606.6,689.7,606.6,694.7,609.9,694.7L609.9,694.7z"/>
		</g>
	</g>
	<g>
		<g>
			<path class="st3" d="M875,716.1c3.2,0,3.2-5,0-5C871.7,711.1,871.7,716.1,875,716.1L875,716.1z"/>
		</g>
	</g>
	<g>
		<g>
			<path class="st3" d="M792.9,259.6c3.2,0,3.2-5,0-5C789.7,254.6,789.7,259.6,792.9,259.6L792.9,259.6z"/>
		</g>
	</g>
	<g>
		<g>
			<path class="st3" d="M493.1,235.1c3.2,0,3.2-5,0-5C489.9,230.1,489.9,235.1,493.1,235.1L493.1,235.1z"/>
		</g>
	</g>
	<g>
		<g>
			<path class="st3" d="M609.9,250.4c3.2,0,3.2-5,0-5C606.6,245.4,606.6,250.4,609.9,250.4L609.9,250.4z"/>
		</g>
	</g>
	<g>
		<g>
			<path class="st3" d="M442.6,327c3.2,0,3.2-5,0-5C439.4,322,439.4,327,442.6,327L442.6,327z"/>
		</g>
	</g>
	<g>
		<g>
			<path class="st3" d="M340,106.4c3.2,0,3.2-5,0-5C336.8,101.4,336.8,106.4,340,106.4L340,106.4z"/>
		</g>
	</g>
	<g>
		<g>
			<path class="st3" d="M174.1,188.9c3.2,0,3.2-5,0-5C170.9,183.9,170.9,188.9,174.1,188.9L174.1,188.9z"/>
		</g>
	</g>
	<g>
		<g>
			<path class="st3" d="M824.5,774.3c3.2,0,3.2-5,0-5C821.2,769.3,821.2,774.3,824.5,774.3L824.5,774.3z"/>
		</g>
	</g>
	<g>
		<g>
			<path class="st3" d="M275.3,664c3.2,0,3.2-5,0-5C272.1,659,272.1,664,275.3,664L275.3,664z"/>
		</g>
	</g>
	<g>
		<g>
			<path class="st3" d="M199.6,311.7c3.2,0,3.2-5,0-5C196.4,306.7,196.4,311.7,199.6,311.7L199.6,311.7z"/>
		</g>
	</g>
	<g>
		<g>
			<path class="st3" d="M306.9,406.7c3.2,0,3.2-5,0-5C303.7,401.7,303.7,406.7,306.9,406.7L306.9,406.7z"/>
		</g>
	</g>
	<g>
		<g>
			<path class="st3" d="M243.8,630.3c3.2,0,3.2-5,0-5C240.6,625.3,240.5,630.3,243.8,630.3L243.8,630.3z"/>
		</g>
	</g>
	<g>
		<g>
			<path class="st4" d="M392.1,700.8c3.2,0,3.2-5,0-5C388.9,695.8,388.9,700.8,392.1,700.8L392.1,700.8z"/>
		</g>
	</g>
	<g>
		<g>
			<path class="st3" d="M357.4,559.9c3.2,0,3.2-5,0-5C354.2,554.9,354.2,559.9,357.4,559.9L357.4,559.9z"/>
		</g>
	</g>
	<g>
		<g>
			<path class="st3" d="M297.4,593.6c3.2,0,3.2-5,0-5C294.2,588.6,294.2,593.6,297.4,593.6L297.4,593.6z"/>
		</g>
	</g>
	<g>
		<g>
			<path class="st3" d="M341.6,253.5c3.2,0,3.2-5,0-5C338.4,248.5,338.4,253.5,341.6,253.5L341.6,253.5z"/>
		</g>
	</g>
	<g>
		<g>
			<path class="st3" d="M272.2,468c3.2,0,3.2-5,0-5C269,463,269,468,272.2,468L272.2,468z"/>
		</g>
	</g>
	<g>
		<g>
			<path class="st3" d="M734.5,365.3c3.2,0,3.2-5,0-5C731.3,360.3,731.3,365.3,734.5,365.3L734.5,365.3z"/>
		</g>
	</g>
	<g>
		<g>
			<path class="st3" d="M841.8,299.5c3.2,0,3.2-5,0-5C838.6,294.5,838.6,299.5,841.8,299.5L841.8,299.5z"/>
		</g>
	</g>
	<g>
		<g>
			<path class="st3" d="M675.3,174.6c3.2,0,3.2-5,0-5C672.1,169.6,672.1,174.6,675.3,174.6L675.3,174.6z"/>
		</g>
	</g>
	<g>
		<g>
			<path class="st3" d="M623,104.6c3.2,0,3.2-5,0-5C619.7,99.6,619.7,104.6,623,104.6L623,104.6z"/>
		</g>
	</g>
	<g>
		<g>
			<path class="st3" d="M498.4,493c3.2,0,3.2-5,0-5C495.1,488,495.1,493,498.4,493L498.4,493z"/>
		</g>
	</g>
	<g>
		<g>
			<path class="st3" d="M469.9,382.7c3.2,0,3.2-5,0-5C466.7,377.7,466.7,382.7,469.9,382.7L469.9,382.7z"/>
		</g>
	</g>
	<g>
		<g>
			<path class="st3" d="M555.2,336.7c3.2,0,3.2-5,0-5C551.9,331.7,551.9,336.7,555.2,336.7L555.2,336.7z"/>
		</g>
	</g>
	<g>
		<g>
			<path class="st3" d="M552,479.2c3.2,0,3.2-5,0-5C548.8,474.2,548.8,479.2,552,479.2L552,479.2z"/>
		</g>
	</g>
	<g>
		<g>
			<path class="st3" d="M649.8,485.3c3.2,0,3.2-5,0-5C646.6,480.3,646.6,485.3,649.8,485.3L649.8,485.3z"/>
		</g>
	</g>
	<g>
		<g>
			<path class="st3" d="M701.9,566.5c3.2,0,3.2-5,0-5C698.7,561.5,698.7,566.5,701.9,566.5L701.9,566.5z"/>
		</g>
	</g>
	<g>
		<g>
			<path class="st3" d="M798.2,483.8c3.2,0,3.2-5,0-5C794.9,478.8,794.9,483.8,798.2,483.8L798.2,483.8z"/>
		</g>
	</g>
	<g>
		<g>
			<path class="st3" d="M873.9,588c3.2,0,3.2-5,0-5C870.7,583,870.7,588,873.9,588L873.9,588z"/>
		</g>
	</g>
	<g>
		<g>
			<path class="st3" d="M925.6,597.2c3.2,0,3.2-5,0-5C922.4,592.2,922.4,597.2,925.6,597.2L925.6,597.2z"/>
		</g>
	</g>
	<g>
		<g>
			<path class="st3" d="M892.8,466.9c3.2,0,3.2-5,0-5C889.6,461.9,889.6,466.9,892.8,466.9L892.8,466.9z"/>
		</g>
	</g>
	<g>
		<g>
			<path class="st3" d="M917.7,381.2c3.2,0,3.2-5,0-5C914.5,376.2,914.5,381.2,917.7,381.2L917.7,381.2z"/>
		</g>
	</g>
	<g>
		<g>
			<path class="st3" d="M903.5,270.9c3.2,0,3.2-5,0-5C900.3,265.9,900.3,270.9,903.5,270.9L903.5,270.9z"/>
		</g>
	</g>
	<g>
		<g>
			<path class="st3" d="M806.1,174.3c3.2,0,3.2-5,0-5C802.8,169.3,802.8,174.3,806.1,174.3L806.1,174.3z"/>
		</g>
	</g>
	<g>
		<g>
			<path class="st3" d="M845.5,134.5c3.2,0,3.2-5,0-5C842.3,129.5,842.3,134.5,845.5,134.5L845.5,134.5z"/>
		</g>
	</g>
	<g>
		<g>
			<path class="st3" d="M930.4,216.8c3.2,0,3.2-5,0-5C927.2,211.8,927.2,216.8,930.4,216.8L930.4,216.8z"/>
		</g>
	</g>
	<g>
		<g>
			<path class="st3" d="M900.7,237.2c3.2,0,3.2-5,0-5C897.5,232.2,897.5,237.2,900.7,237.2L900.7,237.2z"/>
		</g>
	</g>
	<g>
		<g>
			<path class="st3" d="M577.3,221.8c3.2,0,3.2-5,0-5C574,216.8,574,221.8,577.3,221.8L577.3,221.8z"/>
		</g>
	</g>
	<g>
		<g>
			<path class="st3" d="M678.2,208c3.2,0,3.2-5,0-5C675,203,675,208,678.2,208L678.2,208z"/>
		</g>
	</g>
	<g>
		<g>
			<path class="st3" d="M594.6,195.8c3.2,0,3.2-5,0-5C591.4,190.8,591.4,195.8,594.6,195.8L594.6,195.8z"/>
		</g>
	</g>
	<g>
		<g>
			<path class="st3" d="M398.9,169.8c3.2,0,3.2-5,0-5C395.7,164.8,395.7,169.8,398.9,169.8L398.9,169.8z"/>
		</g>
	</g>
	<g>
		<g>
			<path class="st3" d="M326.4,232.6c3.2,0,3.2-5,0-5C323.1,227.6,323.1,232.6,326.4,232.6L326.4,232.6z"/>
		</g>
	</g>
	<g>
		<g>
			<path class="st3" d="M268,229.5c3.2,0,3.2-5,0-5C264.8,224.5,264.7,229.5,268,229.5L268,229.5z"/>
		</g>
	</g>
	<g>
		<g>
			<path class="st3" d="M204.8,206.5c3.2,0,3.2-5,0-5C201.6,201.5,201.6,206.5,204.8,206.5L204.8,206.5z"/>
		</g>
	</g>
	<g>
		<g>
			<path class="st3" d="M245.9,125.3c3.2,0,3.2-5,0-5C242.7,120.3,242.7,125.3,245.9,125.3L245.9,125.3z"/>
		</g>
	</g>
	<g>
		<g>
			<path class="st3" d="M471.5,591c3.2,0,3.2-5,0-5C468.3,586,468.3,591,471.5,591L471.5,591z"/>
		</g>
	</g>
	<g>
		<g>
			<path class="st3" d="M635.6,526.7c3.2,0,3.2-5,0-5C632.4,521.7,632.4,526.7,635.6,526.7L635.6,526.7z"/>
		</g>
	</g>
	<g>
		<g>
			<path class="st3" d="M586.7,676.8c3.2,0,3.2-5,0-5C583.5,671.8,583.5,676.8,586.7,676.8L586.7,676.8z"/>
		</g>
	</g>
	<g>
		<g>
			<path class="st3" d="M446.3,609.4c3.2,0,3.2-5,0-5C443.1,604.4,443.1,609.4,446.3,609.4L446.3,609.4z"/>
		</g>
	</g>
	<g>
		<g>
			<path class="st3" d="M621.4,592.6c3.2,0,3.2-5,0-5C618.2,587.6,618.2,592.6,621.4,592.6L621.4,592.6z"/>
		</g>
	</g>
	<g>
		<g>
			<path class="st3" d="M572.5,646.2c3.2,0,3.2-5,0-5C569.3,641.2,569.3,646.2,572.5,646.2L572.5,646.2z"/>
		</g>
	</g>
	<g>
		<g>
			<path class="st3" d="M463.6,656.9c3.2,0,3.2-5,0-5C460.4,651.9,460.4,656.9,463.6,656.9L463.6,656.9z"/>
		</g>
	</g>
	<g>
		<g>
			<path class="st3" d="M386.3,633.9c3.2,0,3.2-5,0-5C383.1,628.9,383.1,633.9,386.3,633.9L386.3,633.9z"/>
		</g>
	</g>
	<g>
		<g>
			<path class="st4" d="M419.5,745.8c3.2,0,3.2-5,0-5C416.2,740.8,416.2,745.8,419.5,745.8L419.5,745.8z"/>
		</g>
	</g>
	<g>
		<g>
			<path class="st3" d="M654.6,704.4c3.2,0,3.2-5,0-5C651.4,699.4,651.3,704.4,654.6,704.4L654.6,704.4z"/>
		</g>
	</g>
	<g>
		<g>
			<path class="st3" d="M678.2,655.4c3.2,0,3.2-5,0-5C675,650.4,675,655.4,678.2,655.4L678.2,655.4z"/>
		</g>
	</g>
	<g>
		<g>
			<path class="st3" d="M716.1,624.7c3.2,0,3.2-5,0-5C712.9,619.7,712.9,624.7,716.1,624.7L716.1,624.7z"/>
		</g>
	</g>
	<g>
		<g>
			<path class="st3" d="M784,663c3.2,0,3.2-5,0-5C780.7,658,780.7,663,784,663L784,663z"/>
		</g>
	</g>
	<g>
		<g>
			<path class="st3" d="M749.2,758c3.2,0,3.2-5,0-5C746,753,746,758,749.2,758L749.2,758z"/>
		</g>
	</g>
	<g>
		<g>
			<path class="st3" d="M585.1,742.7c3.2,0,3.2-5,0-5C581.9,737.7,581.9,742.7,585.1,742.7L585.1,742.7z"/>
		</g>
	</g>
	<g>
		<g>
			<path class="st3" d="M705.1,750.3c3.2,0,3.2-5,0-5C701.8,745.3,701.8,750.3,705.1,750.3L705.1,750.3z"/>
		</g>
	</g>
	<g>
		<g>
			<path class="st4" d="M526.8,756.5c3.2,0,3.2-5,0-5C523.5,751.5,523.5,756.5,526.8,756.5L526.8,756.5z"/>
		</g>
	</g>
	<g>
		<g>
			<path class="st4" d="M522,696.7c3.2,0,3.2-5,0-5C518.8,691.7,518.8,696.7,522,696.7L522,696.7z"/>
		</g>
	</g>
	<g>
		<g>
			<path class="st4" d="M304.3,768.7c3.2,0,3.2-5,0-5C301,763.7,301,768.7,304.3,768.7L304.3,768.7z"/>
		</g>
	</g>
	<g>
		<g>
			<path class="st4" d="M403.7,791.7c3.2,0,3.2-5,0-5C400.5,786.7,400.5,791.7,403.7,791.7L403.7,791.7z"/>
		</g>
	</g>
	<g>
		<g>
			<path class="st4" d="M206.4,748.8c3.2,0,3.2-5,0-5C203.2,743.8,203.2,748.8,206.4,748.8L206.4,748.8z"/>
		</g>
	</g>
	<g>
		<g>
			<path class="st3" d="M181.2,584.9c3.2,0,3.2-5,0-5C178,579.9,178,584.9,181.2,584.9L181.2,584.9z"/>
		</g>
	</g>
	<g>
		<g>
			<path class="st4" d="M280.6,675.3c3.2,0,3.2-5,0-5C277.4,670.3,277.4,675.3,280.6,675.3L280.6,675.3z"/>
		</g>
	</g>
	<g>
		<g>
			<path class="st3" d="M198.5,450.1c3.2,0,3.2-5,0-5C195.3,445.1,195.3,450.1,198.5,450.1L198.5,450.1z"/>
		</g>
	</g>
	<g>
		<g>
			<path class="st3" d="M365.8,450.1c3.2,0,3.2-5,0-5C362.6,445.1,362.6,450.1,365.8,450.1L365.8,450.1z"/>
		</g>
	</g>
	<g>
		<g>
			<path class="st3" d="M485.7,459.3c3.2,0,3.2-5,0-5C482.5,454.3,482.5,459.3,485.7,459.3L485.7,459.3z"/>
		</g>
	</g>
	<path class="st2" d="M906.8,986H195.6c-22.6,0-41-18.3-41-41v-42.6h793.2V945C947.8,967.6,929.4,986,906.8,986z"/>
	<g>
		<g>
			<path class="st3" d="M912.4,944.6c3.2,0,3.2-5,0-5C909.2,939.6,909.2,944.6,912.4,944.6L912.4,944.6z"/>
		</g>
	</g>
	<g>
		<g>
			<path class="st3" d="M908.7,801.4c3.2,0,3.2-5,0-5C905.5,796.4,905.5,801.4,908.7,801.4L908.7,801.4z"/>
		</g>
	</g>
	<g>
		<g>
			<path class="st3" d="M868.7,861.4c3.2,0,3.2-5,0-5C865.5,856.4,865.5,861.4,868.7,861.4L868.7,861.4z"/>
		</g>
	</g>
	<path class="st5" d="M768.1,750c0,0-13.1-37.8-71.5-55.5l-167.7-41.9l-16.3-3.7c-4.3-0.1-3.5,2.4-3.5,2.4c-0.1,6-0.8,13.7-3.5,20.9
		l-22,81.4l-0.1,0.2c-1.1,3.6-4.4,5.8-8.1,5.8c-1.4,0-2.6-0.2-3.8-0.9l-0.2-0.1l-82.2-41.9l-6.7,5.5l-6.7-5.5l-82.1,42l-4.1,1
		c-3.7,0-7.1-2.4-8.2-6l-0.1-0.5l-22-81.4c-2.9-7.9-3.5-16.3-3.5-22.5l0-2.2l-24.2,5.5l-99.4,24.9c2,14.1,2.2,28.4,2,42.8
		c-0.8,47.8,0.1,95.7-0.4,143.5c-0.2,23.8-0.9,47.5-0.2,71.3c0.4,12.2,1.1,24.4,2.4,36.5c0.2,1.9,0.5,3.7,0.6,5.6c0,0.1,0,0.3,0,0.4
		c0,0.2,0.1,0.3,0.1,0.5c0.4,2.8,0.8,5.5,1.3,8.3c0.5,3,1.1,5.9,1.7,8.9c14.4-0.1,28.7,0,43.1,0h453.8c59.2,0,118.3-2.5,177.5-3
		c27.9-0.2,55.8,0.5,83.7,0.6c1.3,0,2.5,0,3.8,0L768.1,750z"/>
	<path class="st6" d="M211.1,995.2h62.8c0.6,0,1.2,0,1.7,0h19.8c0.9-3.4-5.1-8.4-5.1-8.4c-5.9-11.8-29.5-12.7-29.5-12.7
		s-10.1-15.7,10.6-10.8s31,20.5,31,20.5c12.5,10.4,6.7-5,6.7-5L296,958.9c0,0-1.2-6.8,6-6.1c7.2,0.7,14.7,25.7,14.7,25.7
		c6.2,12.7,6.5-4.8,6.5-4.8s-1.5-22.2,2.3-36.9s6.7,0.8,6.7,0.8s-1.9,16.5-1.7,26c0.2,9.5,5.4,2.5,5.4,2.5l11.4-22.7
		c0,0,6.3-3.1,2.5,2.5s-1.7,14.4-1.7,14.4s1,1.1,2.3-2.6s13.8-13,13.8-13c15.4-6.5,19-14.5,19-14.5c12.8-16.8-0.4-35.5-0.4-35.5
		s1.7-3.1-2.1-15.9c-3.7-12.8-15.9-24.5-15.9-24.5s-10.1-7.3-20.1-4.8c-10,2.5-32.5,2.8-32.5,2.8c-12.2,4.5-11.4,15.3-14.3,34.7
		s12.4,29,12.4,29s5.6,10.7,3.4,27.5s-6.8,0-6.8,0s-11.6-42.5-43.8-46.8c-32.2-4.3-33.8,13.2-33.8,13.2s2.4,8.5-17,22.9
		s-12.7,41.3-12.7,41.3S203.1,986.3,211.1,995.2z"/>
	<path class="st6" d="M329.6,995.2h15.5c10.9-21.5,33.7-52,77.7-64.5c0,0-11.6,26.1,7.7,26.1c0,0,9.9,4.6,7.6-19.7
		c0,0,10.3,27.7,22.1,13.6c11.8-14.1-12-28.5-12-28.5s24-1.9,19.7-17c-4.3-15.1-21.1-7-21.1-7l-7.7,7.2c0,0,3.7-30.4-13.4-17.8
		c-12,8.9-7.9,15.1-4.4,18.1c-3.9-2.2-10.8-4.7-13.8,3.2c-4.3,11.4,7.4,15.9,7.4,15.9l1,1C362.8,944.7,339.5,975.5,329.6,995.2z"/>
	<path class="st7" d="M362.7,995.2c1.9-0.8,4.7-2.5,8.6-5.1c0,0,33.5-12.2,30.6,0.4c-0.4,1.9-1.3,3.5-2.4,4.7h59.6
		c-7.1-22-20.3-23.9-20.3-23.9s-4.8,1-22.7-11.2c-17.8-12.2-44.9,17.2-44.9,17.2s-12.6,14.5-12,17.9H362.7z"/>
	<path class="st6" d="M709.6,714.6c0,0-26.1,21.1-29.3,21.7c-3.2,0.6-10.6,4.1-10.6,4.1c-8.2,7.8,6.6,9.2,6.6,9.2
		c11.5,6.5,31.5-6.1,31.5-6.1S712.5,746.4,709.6,714.6z"/>
	<path class="st6" d="M610.9,673.5c-1,6.9,1.8,23.6,1.8,23.6s14.5,19.7,7.5,23c-7,3.3-19.1-23.4-19.1-23.4l-18-27.1
		c0,0-0.6-1.2-1.5-3.3L610.9,673.5z"/>
	<path class="st6" d="M637.3,680.1c-5.9,10.9-4.2,24.5-4.2,24.5s-1.3,22.3-8.7-3.8c-4.1-14.4-4.3-21.6-5.9-25.5L637.3,680.1z"/>
	<path class="st6" d="M711.6,700.3c0.9,0.4-1,1.6-1.6,2.4c-13.5,18-23.9,22.4-23.9,22.4s-30.3,17.8-37.9,13.3
		c-7.6-4.5,14.6-15.3,14.6-15.3l0.8-0.5c0,0,10.5-8.5-7.2-8.1l-5.1,3.5c0,0-16,10.8-12.3-2.5s12.7-28.4,12.7-28.4s0.6-1.2,1.3-3
		C652.9,684,695.9,693.5,711.6,700.3z"/>
	<path class="st6" d="M568.1,662.8c0.9,2,1.8,4.2,2.7,6.6l0.9,1c0,0,23,25.8,32.3,47.4c9.3,21.5-6.5,4.9-6.5,4.9l-17.5-20.2
		c-15.1-8.7-7.9,3.3-7.9,3.3s28.8,31.2,13.6,20c-15.2-11.2-20.8-9.5-20.8-9.5c-14.6,2,11.2,12.3,11.2,12.3
		c16.7,9.7-11.8,5.7-11.8,5.7c-29.3-10.7-15.8,9.6-15.8,9.6s17,11.1,39.2,1.4c22.2-9.7-2.4,23.2-2.4,23.2
		c-24.4,14.3-19,15.1-19,15.1s4.8,16,24.3-3.2c19.5-19.2,8,8.3,8,8.3s-18,8.7-13.3,20.8c4.7,12,25.5-16.9,25.5-16.9
		c12-30.5,7.2,10.6,7.2,10.6s-5.8,39.6-27.4,39.5c-21.6,0-25,3.5-25,3.5s-15.8,7.8-38.9-16.2S505,790.9,505,790.9s1.9-27.5,35-16.7
		l1.2,0.4c0,0,44.8-17.2,1.9-10.4c-42.9,6.7-43.1-43.1-43.1-43.1s-2.6-2.4-5.9-6.5l14-51.9c0,0,1.4-10.9,1.1-12.9
		c-0.3-1.9,5.2,0,5.2,0l27.9,6.4l18,4.5L568.1,662.8z"/>
	<path class="st8" d="M576.5,671.3"/>
	<path class="st9" d="M132.4,678.9c0.3,2.2,0.6,4.5,0.8,6.7c2.8-3.1,5.8-6.2,9.1-9.2L132.4,678.9z"/>
	<polygon class="st10" points="547.3,599.2 217.2,599.2 218,495.2 548.1,495.2 	"/>
	<path class="st6" d="M823,850c-0.2,4.2,1,6.1-0.4,11.4c-11.1,42.4-32.4,54.1-32.4,54.1s-9.9,5-13.6,2.3c-0.1,0-0.1-0.1-0.2-0.1
		l-0.7,1.2c0,0-11,22.4-32.5,15.8c-21.5-6.6-29.2-14.8-29.2-14.8s-27.1-22.3-25.5-31c1.6-8.7,19.3,8.4,19.3,8.4l0.7,0.5
		c0,0,11.6,7,5.1-9.6l-5-3.6c0,0-15.6-11.4-1.8-12.4c13.8-1,31.1,2.2,31.1,2.2s29,2.8,14.4-10.1c-14.6-12.8-37.3-1.3-37.3-1.3
		s-21.4,6.4,0.6-9.4c22-15.9,25.3-16.1,24.1-22c-1.2-5.9-24,9.1-24,9.1s-13.5,20.4-19,14.9s15.5-26,15.5-26l19.3-26.2
		c0,0,23.6-26.2,46.6-19.3c7.9,2.4,9.4,5.2,12.6,7.5L823,850z"/>
	<path class="st8" d="M726.8,798.6"/>
	<path class="st9" d="M814.2,992.2c4.3,0,8.6,0,12.9,0c-1.5-2.2-3.6-3.8-6.7-4.3c-6.3-1.1-9.9,1-11.8,4.4
		C810.4,992.2,812.3,992.2,814.2,992.2z"/>
	<path class="st8" d="M547.9,497.1"/>
	<path class="st11" d="M267.8,616.6l-11.8,24.5c0,0,0.1,1.7-0.1,4.6"/>
	<path class="st11" d="M375.8,716.6"/>
	<path class="st11" d="M289.6,750.9"/>
	<path class="st11" d="M393.7,716.6"/>
	<path class="st10" d="M470.9,291.5c-22.6-15.3-51.7-25.8-88.8-25.8h0.8c-136.2,0-163.8,141.6-163.8,141.6l-2,89.8v87.6"/>
	<path class="st10" d="M444.9,539.3c-156.8-1.9-166.4-56.2-166.4-56.2v-69.8c0-71.1,73.6-128.8,164.4-128.8h1.9
		c6.4,0,12.8,0.3,19,0.9c0,0,11.8,2.7,11.8,9.5"/>
	<path class="st12" d="M442.2,982.1c-11.7-71.7-23.6-203.4,17.7-325"/>
	<path class="st12" d="M301.1,982.6c11.8-71.6,23.7-203.6-17.6-325.4"/>
	<path class="st10" d="M442.8,539.3c47-0.6,80.8-5.8,105.1-13"/>
	<path class="st13" d="M458,615.8c-11.7,29.6-34.7,74.1-74.4,105.4l-2.5-0.2c-39.7-31.2-62.5-75.7-74.2-105.2L458,615.8z"/>
	<path class="st11" d="M496.7,615.8l11.8,24.5c0,0,0.5,5.6,0.6,9.6"/>
	<path class="st8" d="M231.6,652.5"/>
	<path class="st11" d="M375.8,716.6"/>
	<path class="st11" d="M289.6,750.9"/>
	<path class="st11" d="M393.7,716.6"/>
	<path class="st5" d="M307,615.8c11,27.7,31.8,68.7,67.3,99.4l1.6,1.3l-82.1,42l-4.1,1c-3.7,0-7.1-2.4-8.2-6l-0.1-0.5l-22-81.4
		c-2.9-7.9-3.5-16.3-3.5-22.5l0-2.2l0.1-1.3c0.2-2.8,0.1-4.6,0.1-4.6l11.8-24.5L307,615.8z"/>
	<path class="st5" d="M496.7,615.8l11.8,24.5c0,0,0.5,5.6,0.6,9.6l0,1.3c-0.1,6-0.8,13.7-3.5,20.9l-22,81.4l-0.1,0.2
		c-1.1,3.6-4.4,5.8-8.1,5.8c-1.4,0-2.6-0.2-3.8-0.9l-0.2-0.1l-82.2-41.9l1.9-1.6c39.7-31.2,55.2-69.6,66.9-99.2L496.7,615.8z"/>
	<path class="st11" d="M475.4,750.9"/>
	<path class="st11" d="M371.3,716.6"/>
	<path class="st11" d="M289.6,750.9"/>
	<path class="st11" d="M393.7,716.6"/>
	<path class="st11" d="M475.4,750.9"/>
	<path class="st11" d="M371.3,716.6"/>
	<path class="st10" d="M382.5,622.9c96.5-1.5,136.7-10.1,153.8-14.5c13.7-3.6,11.6-12.2,11.6-12.2v-11.5c0,0-57.6,15.6-163.8,14.5
		h-3.2c-106.2,1.2-163.8-14.5-163.8-14.5v11.5c0,0-2.1,8.6,11.6,12.2C245.8,612.8,286,621.4,382.5,622.9"/>
	<line class="st8" x1="547.9" y1="521.2" x2="547.9" y2="517.6"/>
	<path class="st14" d="M547.9,584.7v-58.4c0,0,5.5-11-1.5-12"/>
	<path class="st11" d="M389.2,716.6"/>
	<path class="st11" d="M475.4,750.9"/>
	<path class="st11" d="M371.3,716.6"/>
	<path class="st11" d="M684.9,914c0,0,31-22.6,40.6-53.8"/>
	<path class="st11" d="M681.5,962.6c0,0,17.4,0.7,20.3,29"/>
	<path class="st8" d="M384.6,341.4"/>
	<path class="st8" d="M576.5,671.3"/>
	<path class="st15" d="M382,721.6c-0.5,90.3-0.5,181.3-0.4,271.6"/>
	<path class="st8" d="M726.8,798.6"/>
	<path class="st11" d="M375.8,716.6"/>
	<path class="st11" d="M289.6,750.9"/>
	<path class="st11" d="M393.7,716.6"/>
	<path class="st11" d="M389.2,716.6"/>
	<path class="st11" d="M475.4,750.9"/>
	<path class="st11" d="M371.3,716.6"/>
	<path class="st8" d="M384.6,341.4"/>
	<path class="st9" d="M610,870.8c52.4-70.7,28.5-125,28.5-125s-11.8-18.8-13.6,3.7c0,0,24.6,64.7-23.5,121c0,0-4.9-28.2-21-17.4
		c0,0-10.8,1.6,4.7,20.6c0,0-23.9-17.3-25.9,1c-2,18.3,25.8,17,25.8,17s-18.9,15-7,25.1c11.9,10.2,21.4-5.9,21.4-5.9l2.5-10.3
		c0,0,13.8,27.3,21,7.4c7.2-19.9-9.8-17.4-9.8-17.4s15.9,1.5,13.1-10.4c-2.8-11.9-14.9-9.1-14.9-9.1L610,870.8z"/>
	<path class="st15" d="M768.1,750c0,0-13.1-37.8-71.5-55.5l-167.7-41.9l-16.3-3.7c-4.3-0.1-3.5,2.4-3.5,2.4
		c-0.1,6-0.8,13.7-3.5,20.9l-22,81.4l-0.1,0.2c-1.1,3.6-4.4,5.8-8.1,5.8c-1.4,0-2.6-0.2-3.8-0.9l-0.2-0.1l-82.2-41.9l-6.7,5.5
		l-6.7-5.5l-82.1,42l-4.1,1c-3.7,0-7.1-2.4-8.2-6l-0.1-0.5l-22-81.4c-2.9-7.9-3.5-16.3-3.5-22.5l0-2.2l-24.2,5.5l-99.4,24.9
		c2,14.1,2.2,28.4,2,42.8c-0.8,47.8,0.1,95.7-0.4,143.5c-0.2,23.8-0.9,47.5-0.2,71.3c0.4,12.2,1.1,24.4,2.4,36.5
		c0.2,1.9,0.5,3.7,0.6,5.6c0,0.1,0,0.3,0,0.4c0,0.2,0.1,0.3,0.1,0.5c0.4,2.8,0.8,5.5,1.3,8.3c0.5,3,1.1,5.9,1.7,8.9
		c14.4-0.1,28.7,0,43.1,0h453.8c59.2,0,118.3-2.5,177.5-3c27.9-0.2,55.8,0.5,83.7,0.6c1.3,0,2.5,0,3.8,0L768.1,750z"/>
	<path class="st6" d="M713.7,756.2l-14.9,44.2c-5-3.2-7.9-5.7-7.9-5.7s-13.3-11.2-5.7,3.9c3.2,6.3,6.9,10.9,10.1,14.2
		c0,0-13.8,41.8-9.7,82l0,2.2l0,2.2c-5.7-1.7-13.5-4.7-19.3-9.4c-10.3-8.5-10.7-12-10.7-12s-21.5-8-20.3-29.1c0,0-1.6-8.6,7.5-22.7
		c0,0,5.2-14.8,4.1-18.6s0.4-3.5,0.4-3.5s6.7,6.1,6.7,12.8s3.4,0.7,3.4,0.7l-3.4-25.2c0,0,0.3-8.7,5.8-1
		c5.5,7.7,13.2,22.5,13.2,22.5s11.2,11.2,6-3.1c-5.1-14.3-18.9-31.8-18.9-31.8s-9.7-14.7,2.6-7.6c0,0,20.3,16.4,26.6,13
		c6.3-3.4,1.5-8.4,1.5-8.4l-22.2-9c0,0-13.4-9.5,2.7-7.9c0,0,17.2,7.1,37.2-0.5c2-0.8,3.7-1.5,5-2.3"/>
	<path class="st6" d="M198.3,878.1c0,0-49.6,28.7-48.7-39.4l-0.5-1.3c0,0-11.7-32.5-12.3-56c-0.6-23.5,7.9-2.1,7.9-2.1l8.7,25.2
		c10.7,13.7,8.5-0.1,8.5-0.1s-15.1-39.7-5.2-23.6c9.9,16.1,15.7,16.6,15.7,16.6c14.3,3.6-5.8-15.6-5.8-15.6
		c-11.9-15.2,13.1-0.9,13.1-0.9c23.2,20.9,18.2-3,18.2-3s-11.6-16.7-35.9-15.9c-24.2,0.8,10.9-20.6,10.9-20.6
		c28-4.2,23.3-6.9,23.3-6.9s1.5-16.6-23.7-6.1s-4.3-10.7-4.3-10.7s19.9-1.4,20-14.3s-30,6.2-30,6.2c-22.5,23.8-2.7-12.5-2.7-12.5
		s20.2-34.6,40.2-26.5s24.5,6.1,24.5,6.1s17.6-1.3,30.1,29.5c12.5,30.9,5.8,44.2,5.8,44.2s-12,24.8-38.7,2.5l-1-0.9
		c0,0-48-0.8-5.7,9c42.3,9.7,23.9,56,23.9,56s28,58.7-35.2,60.9L198.3,878.1z"/>
	<g>
		<path class="st16" d="M445.1,528.5C299,526.8,290,476.5,290,476.5v-64.7c0-65.9,68.6-119.3,153.2-119.3c3,0,3,0,3,0
			c10.4,0,20.6,0.8,30.5,2.4c0,0,98.6,75.6,71.1,219.5c-23,7.7-56.4,13.7-105,14.2"/>
	</g>
	<path class="st17" d="M713.7,700.3c-0.2,19.5-0.2,39.5-0.2,59.5c-13,31-22,62-27,96c-3,20,0,39-1,58c-2,27-4,53-6.4,79.5"/>
	<path class="st18" d="M525.8,622.1c0,0-21.1-12.9-13.5-37.6c7.6-24.7,23.8-26.8,23.8-26.8s15.9-1.3,8.6,16.3
		c-7.2,17.6,25.5,66.3,25.5,66.3s22.8,61.7,19.7,81.6c-3.1,19.9-95.9,55.6-95.9,55.6c-82.5-57.7-70.7-68.9-80.7-74.5
		c-10-5.6-19.7-21.4-16.6-32.4c3.1-11,30.7,6.1,30.7,6.1s-21-8.4-25.9-25.3c-4.8-16.8,20.7-15.8,20.7-15.8l26.2,18.6
		c0,0-6.2-4.6-24.8-20.7c-18.6-16.1,13.1-22.1,13.1-22.1l42.8,22.1c0,0-80-38.2-98.3-59.7c-10.2-11.9,5.7-22.2,16.6-18.4
		c20.7,7.2,137.8,74.3,142.9,72.7"/>
	<path class="st13" d="M562.7,962.4l0.5,1.1c5.2,10.4,12,21.1,19.7,31.7h53.8c59.2,0,118.3-2.5,177.5-3c18-0.2,36,0.1,54.1,0.3
		c-36-55.6-102.5-136.9-129.6-149.8l-0.6-2.1l0,0c0,0-46.6-107.4-131.8-113.7l-104.2,72.4C478.2,881.2,562.7,962.4,562.7,962.4z"/>
	<path class="st19" d="M563.5,965c-10-21-12.3-41.2-1.2-58.1"/>
	<path class="st19" d="M712,840.3c9.4-2.2,18.4-1.2,27,2.2"/>
	<path class="st13" d="M594.1,706.5l-106.3,73.8c-1,0.7-1.2,2-0.5,2.9l11.1,15.9c0.7,1,2,1.2,2.9,0.5l106.3-73.8
		c1-0.7,1.2-2,0.5-2.9L597,707C596.4,706,595,705.8,594.1,706.5z"/>
	<g>
		<path class="st4" d="M855.7,280.8L713.6,403.5v30.4c0,6.6-2.4,12.4-7.3,17.2c-4.9,4.9-10.6,7.3-17.3,7.3c-6.8,0-12.6-2.4-17.4-7.3
			c-4.8-4.9-7.2-10.6-7.2-17.3v-40.7c0-8.8,2.5-15.4,7.6-19.9l140.6-121.5v-17.9L788,211.5l-131,112.2c-5.9,5.1-11.9,7.6-18.2,7.6
			c-6.1,0-11.6-2.3-16.7-7c-5.1-4.7-7.6-10.7-7.6-18.2c0-8,2.1-13.9,6.4-17.6l151.3-128.4c4.5-3.8,9.9-5.7,16.4-5.7
			c6,0,11,1.6,14.9,4.9l50.3,44.1c5.6,4.3,8.5,10.5,8.5,18.5v42.2C862.5,271.5,860.2,277.1,855.7,280.8z M688.4,493.4
			c6.8,0,12.6,2.5,17.4,7.5c4.8,5,7.2,10.9,7.2,17.7c0,6.8-2.4,12.6-7.2,17.4c-4.8,4.8-10.6,7.2-17.4,7.2c-6.8,0-12.6-2.4-17.4-7.2
			c-4.8-4.8-7.2-10.6-7.2-17.4c0-6.8,2.4-12.7,7.2-17.7C675.8,495.9,681.6,493.4,688.4,493.4z"/>
	</g>
	<path class="st20" d="M387.2,331.7l-150.8,69.3c0,0-2.4,7,0,10.3"/>
	<path class="st21" d="M412,277.3l9.2,18.7c1.7,3.4,5,5.8,8.7,6.3l20.6,3c9.5,1.4,13.3,13.1,6.4,19.8L442,339.6
		c-2.7,2.7-4,6.5-3.3,10.3l3.5,20.5c1.6,9.5-8.3,16.7-16.8,12.2l-18.4-9.7c-3.4-1.8-7.4-1.8-10.8,0l-18.4,9.7
		c-8.5,4.5-18.4-2.7-16.8-12.2l3.5-20.5c0.6-3.8-0.6-7.6-3.3-10.3l-14.9-14.5c-6.9-6.7-3.1-18.4,6.4-19.8l20.6-3
		c3.8-0.5,7-2.9,8.7-6.3l9.2-18.7C395.4,268.7,407.7,268.7,412,277.3z"/>
	<line class="st22" x1="461.1" y1="313.6" x2="477" y2="313.6"/>
	<path class="st21" d="M518.9,277.3L525,296c1.1,3.4,3.3,5.8,5.8,6.3l13.7,3c6.3,1.4,8.9,13.1,4.3,19.8l-9.9,14.5
		c-1.8,2.7-2.7,6.5-2.2,10.3l2.3,20.5c1.1,9.5-5.5,16.7-11.2,12.2l-12.3-9.7c-2.3-1.8-4.9-1.8-7.2,0l-12.3,9.7
		c-5.7,4.5-12.3-2.7-11.2-12.2l2.3-20.5c0.4-3.8-0.4-7.6-2.2-10.3l-9.9-14.5c-4.6-6.7-2.1-18.4,4.3-19.8l13.7-3
		c2.5-0.5,4.7-2.9,5.8-6.3l6.1-18.7C507.9,268.7,516.1,268.7,518.9,277.3z"/>
	<path class="st23" d="M307.2,1003.9c10.2-0.4,20.5-0.3,30.7-0.3c36.7,0,73.3,0,110-0.2c3,0,5.9,0,8.9,0v-22.6
		c0-1.7-1.4-3.1-3.1-3.1H290.4c-1.7,0-3.1,1.4-3.1,3.1v24C293.9,1004.6,300.6,1004.2,307.2,1003.9z"/>
	<path class="st23" d="M418.9,975.8v-15.8c0-4.4-3.5-7.9-7.9-7.9h-72.1c-4.4,0-7.9,3.5-7.9,7.9v15.8"/>
	<circle class="st24" cx="304.9" cy="993.6" r="10"/>
	<path class="st25" d="M923,1004H196.4c-22,0-42.5-11.5-53.7-30.4c-0.1-0.2-0.2-0.4-0.4-0.6c-3.8-6.7-5.7-14.4-5.7-22.1v-33.8
		l-0.1,1.6V635v1.6"/>
</g>
</svg>
