<?xml version="1.0" encoding="utf-8"?>
<!-- Generator: Adobe Illustrator 27.4.0, SVG Export Plug-In . SVG Version: 6.00 Build 0)  -->
<svg version="1.1" id="Layer_1" xmlns="http://www.w3.org/2000/svg" xmlns:xlink="http://www.w3.org/1999/xlink" x="0px" y="0px"
	 viewBox="0 0 1800 576" style="enable-background:new 0 0 1800 576;" xml:space="preserve">
<style type="text/css">
	.st0{fill:#703717;}
	.st1{fill:none;stroke:#974C1E;stroke-width:5;stroke-miterlimit:10;}
	.st2{fill:#F16722;stroke:#F16722;stroke-miterlimit:10;}
	.st3{fill:#D64827;stroke:#BA3A26;stroke-width:4;stroke-miterlimit:10;}
	.st4{fill:#EBDDD7;stroke:#CDB9B1;stroke-miterlimit:10;}
	.st5{fill:none;stroke:#A8A594;stroke-miterlimit:10;}
	.st6{fill:#EBDDD7;stroke:#CDB9B1;stroke-width:4;stroke-miterlimit:10;}
	.st7{fill:none;stroke:#A5391D;stroke-miterlimit:10;}
	.st8{fill:#EEE7CB;stroke:#B1AE9B;stroke-width:4;stroke-miterlimit:10;}
	.st9{fill:#E98039;stroke:#CC6028;stroke-miterlimit:10;}
	.st10{fill:#D13C27;stroke:#A53A23;stroke-miterlimit:10;}
	.st11{fill:none;stroke:#BA3A26;stroke-width:4;stroke-miterlimit:10;}
	.st12{fill:#1A130E;}
	.st13{fill:#21393F;stroke:#17292D;stroke-width:4;stroke-miterlimit:10;}
	.st14{fill:#E4E4E3;stroke:#C0CED2;stroke-width:4;stroke-miterlimit:10;}
	.st15{fill:#E4E4E3;stroke:#C0CED2;stroke-miterlimit:10;}
	.st16{fill:none;stroke:#C0CED2;stroke-width:11;stroke-miterlimit:10;}
	.st17{fill:none;stroke:#E4E4E3;stroke-width:4;stroke-miterlimit:10;}
	.st18{fill:#21393F;}
	.st19{fill:#F69656;}
	.st20{fill:#F8B384;}
	.st21{fill:#EDDFD7;stroke:#D6AD9C;stroke-width:2;stroke-miterlimit:10;}
	.st22{fill:#CEBAB2;stroke:#C1A69C;stroke-width:2;stroke-miterlimit:10;}
	.st23{fill:#1A130E;stroke:#000000;stroke-width:2;stroke-miterlimit:10;}
	.st24{fill:#D64827;stroke:#BA3A26;stroke-width:2;stroke-linecap:round;stroke-linejoin:round;stroke-miterlimit:10;}
	.st25{fill:#FDE6D8;stroke:#FDE6D8;stroke-miterlimit:10;}
</style>
<path class="st0" d="M1744.3,40.9H55.7c-17.6,0-31.9,14.3-31.9,31.9v426.3c0,17.6,14.3,31.9,31.9,31.9h650.5
	c1.5-0.3,2.9-0.5,4.3-0.6c3.5-0.3,7,0.2,10.5,0.3c0,0,0,0,0,0c22,0,44,0.1,66,0.3h153c1.8-0.8,3.8-1.2,5.8-1.1c9,0.7,18,1,27.1,1.1
	h17.4c5,0,10-0.1,15-0.2c19.4-0.4,38.7-0.1,58.1-0.1c1,0,2,0.1,2.9,0.3h678c17.6,0,31.9-14.3,31.9-31.9V72.8
	C1776.3,55.2,1762,40.9,1744.3,40.9z"/>
<path class="st1" d="M1744.3,40.9H55.7c-17.6,0-31.9,14.3-31.9,31.9v426.3c0,17.6,14.3,31.9,31.9,31.9h650.5
	c1.5-0.3,2.9-0.5,4.3-0.6c3.5-0.3,7,0.2,10.5,0.3c0,0,0,0,0,0c22,0,44,0.1,66,0.3h153c1.8-0.8,3.8-1.2,5.8-1.1c9,0.7,18,1,27.1,1.1
	h17.4c5,0,10-0.1,15-0.2c19.4-0.4,38.7-0.1,58.1-0.1c1,0,2,0.1,2.9,0.3h678c17.6,0,31.9-14.3,31.9-31.9V72.8
	C1776.3,55.2,1762,40.9,1744.3,40.9z"/>
<path class="st2" d="M462.5,243c0,0,1.4,0,4,0.2c18.4,1,96.7,6.9,135.5,35.6c4,2.9,3,9.1-1.7,10.7l0,0c-5.5,1.8-5.6,9.7-0.1,11.5
	c29.6,10.1,88,34.8,114.7,78.4c2,3.2,0.6,7.5-2.9,8.9l-7.8,3.2c-4,1.6-5.1,6.7-2.2,9.8c15.4,16.7,54.5,61.5,52.5,85.8
	c-2.5,30.6-100.9-0.6-126.7-13.1c-3.4-1.6-7.4,0.2-8.5,3.8l-2.6,9.1c-1,3.3-4.5,5.2-7.7,4.1c-14.4-4.7-52.2-17.8-85.5-35.3
	c-4.6-2.4-9.9,1.7-8.8,6.8l0.2,1c1.2,5.3-4.6,9.4-9.2,6.5c-20.8-13.4-64.3-47.5-102.5-117.2L462.5,243z"/>
<path class="st3" d="M719.6,530.9c0-0.4,0-0.9,0-1.3l0-0.6c0-1-0.9-1.7-1.8-1.5l-6.8,1.6C713.9,529.6,716.8,530.3,719.6,530.9z"/>
<polygon class="st4" points="1049.4,473.1 676,473.1 676.9,355.4 1050.3,355.4 "/>
<path class="st5" d="M1049.9,357.6"/>
<line class="st6" x1="675.9" y1="456.7" x2="675.9" y2="357.6"/>
<path class="st7" d="M733.2,492.8l-13.3,27.7c0,0,0.1,2-0.1,5.2"/>
<path class="st8" d="M1047.7,256.1c0,0-31.2-160.1-185.2-160.1h0.9c-154,0-185.2,160.1-185.2,160.1"/>
<path class="st6" d="M861.7,421.2c177.3-2.1,188.2-63.6,188.2-63.6v-78.9c0-80.4-83.2-145.6-185.9-145.6h-2.2
	c-102.7,0-185.9,65.2-185.9,145.6v78.9c0,0,10.9,61.4,188.2,63.6"/>
<path class="st9" d="M819.5,526.6c21.8,0.5,43.5,1.7,65.3,2.1c15.4,0.3,30.8,0.2,46.1,0.2c7.2-13.4,12.9-26.1,17.2-37l-170.8,0
	c4.1,10.3,9.4,22.2,16,34.8C802.2,526.4,810.8,526.4,819.5,526.6z"/>
<path class="st7" d="M992.1,491.9l13.3,27.7c0,0,0.5,6.4,0.7,10.9"/>
<path class="st10" d="M692.3,533.4"/>
<path class="st3" d="M729.4,533.2c1,0.1,2,0.1,3,0.2c1.3-0.5,2.5-1.1,3.8-1.6c19.1-3,38.2-4.6,57.3-5.1c-6.7-12.6-12-24.5-16-34.8
	l-44.2,0.9l-13.3,27.7c0,0,0.1,2-0.1,5.2l-0.1,1.4l-0.1,2.5c0,0.4,0,0.9,0,1.3C722.9,531.7,726.2,532.4,729.4,533.2z"/>
<path class="st3" d="M953.7,528.8h52.3c-0.2-4.2-0.6-9.2-0.6-9.2l-13.3-27.7l-43.8,0c-4.5,11.4-9.6,24-16,37
	C939.4,528.8,946.5,528.8,953.7,528.8z"/>
<path class="st6" d="M862.9,499.9c109.1-1.6,154.6-11.4,173.9-16.4c15.5-4,13.1-13.7,13.1-13.7v-13c0,0-65.1,17.7-185.2,16.4h-3.6
	c-120.1,1.3-185.2-16.4-185.2-16.4v13c0,0-2.4,9.7,13.1,13.7C708.3,488.5,753.8,498.2,862.9,499.9"/>
<line class="st6" x1="1049.9" y1="456.7" x2="1049.9" y2="357.6"/>
<path class="st5" d="M863.4,177"/>
<path class="st5" d="M863.4,177"/>
<path class="st11" d="M719.6,530.9c0-0.4,0-0.9,0-1.3l0-0.9c0-0.8-0.7-1.4-1.6-1.3l-7.1,1.6C713.9,529.6,716.8,530.3,719.6,530.9z"
	/>
<g>
	<path class="st12" d="M863.3,409c-164.2-2-174.3-58.9-174.3-58.9V277c0-74.5,77.1-134.9,172.2-134.9c3.3,0,3.3,0,3.3,0
		c95.1,0,172.2,60.4,172.2,134.9v73.1c0,0-10.1,56.9-174.3,58.9"/>
</g>
<path class="st13" d="M694.9,182.3c0,0-85.2-53-47.6-93.3s217.9-37.2,217.9-37.2h0.5c0,0,180.4-3.1,217.9,37.2
	c37.5,40.3-47.6,93.3-47.6,93.3"/>
<path class="st13" d="M693.7,203.4l-0.1,0.1c-2.8,1.9-5.2,4.2-7,7.1c-5.2,8.2-7.1,23.5,40,31.2c66.6,10.8,138.2,7,138.2,7l0,0
	c0.8,0,1.6,0,2.5,0.1c9.5,0.4,75.4,3,137-7c47.2-7.7,45.2-22.9,40-31.2c-1.8-2.8-4.2-5.2-7-7.1l-0.1-0.1"/>
<polyline class="st13" points="693.6,203.5 864.8,174.2 1037.3,203.5 "/>
<path class="st14" d="M867.7,185c77.7,0,155.1,15.8,168,18.6c1.2,0.3,2.4-0.5,2.7-1.8c1.2-5.7-1.9-14.9-3.1-18
	c-0.3-0.7-0.8-1.2-1.5-1.4c-45.8-12.6-166.5-19.8-166.5-19.8l-1-0.1c-0.9,0-1.7,0-2.6,0.1l0,0c0,0-120.8,7.2-166.5,19.8
	c-0.7,0.2-1.2,0.7-1.5,1.4c-1.2,3.1-4.3,12.3-3.1,18c0.3,1.2,1.5,2,2.7,1.8c13-2.8,90.3-18.6,168-18.6H867.7z"/>
<path class="st15" d="M824.4,94.6h-40.9c-2.1,0-3.8-1.4-3.8-3.1v0c0-1.7,1.7-3.1,3.8-3.1h43.7"/>
<path class="st15" d="M821.4,103.2h-32.7c-1.7,0-3-1.3-3-2.8v0c0-1.5,1.3-2.8,3-2.8h34.9"/>
<path class="st15" d="M822.8,121.2h-18.8c-1,0-1.7-1.2-1.7-2.6v0c0-1.4,0.8-2.6,1.7-2.6H824"/>
<path class="st15" d="M905.3,94.6h40.9c2.1,0,3.8-1.4,3.8-3.1v0c0-1.7-1.7-3.1-3.8-3.1h-43.7"/>
<path class="st15" d="M908.3,103.2H941c1.7,0,3-1.3,3-2.8v0c0-1.5-1.3-2.8-3-2.8h-34.9"/>
<path class="st15" d="M906.9,121.2h18.8c1,0,1.7-1.2,1.7-2.6v0c0-1.4-0.8-2.6-1.7-2.6h-20.1"/>
<path class="st15" d="M908.7,112.2h24.6c1.2,0,2.3-1.2,2.3-2.6v0c0-1.4-1-2.6-2.3-2.6H907"/>
<path class="st15" d="M902.9,130.5h18.8c1,0,1.7-1.2,1.7-2.6v0c0-1.4-0.8-2.6-1.7-2.6h-20.1"/>
<path class="st15" d="M821,112.2h-24.6c-1.2,0-2.3-1.2-2.3-2.6v0c0-1.4,1-2.6,2.3-2.6h26.2"/>
<path class="st15" d="M826.8,130.5h-18.8c-1,0-1.7-1.2-1.7-2.6v0c0-1.4,0.8-2.6,1.7-2.6H828"/>
<ellipse class="st16" cx="864.9" cy="109.4" rx="39.8" ry="39.7"/>
<ellipse class="st17" cx="864.9" cy="109.4" rx="39.8" ry="39.7"/>
<polyline class="st15" points="858.9,131.3 856.3,137.2 875.1,137.2 872.4,131.3 "/>
<path class="st15" d="M865.5,78.8c-28.1,28.5-6.8,52.5-6.8,52.5l13.5,0C872.3,131.3,893.6,107.3,865.5,78.8"/>
<circle class="st15" cx="865.6" cy="104.8" r="7.6"/>
<circle class="st18" cx="865.6" cy="104.7" r="5.8"/>
<path class="st15" d="M852,101c0,0-11.7,11.8-4.1,29.3l6-7c-3.3-6.7-3.9-14.2-2-22.1"/>
<path class="st15" d="M878.9,101c0,0,11.6,11.9,4,29.3l-6-7c3.3-6.7,3.9-14.2,2.1-22.1"/>
<path class="st19" d="M419.5,324.3c15.6,38.8,70.1,83.5,91.3,99.8c2.8,2.1,6.6-0.5,5.7-3.8l0,0c-0.9-3.1,2.5-5.7,5.2-4.1
	c32.5,18.1,48.7,21.8,54.9,22.5c1.8,0.2,3.5-1,3.9-2.7l0.9-3.7c0.5-2.1,2.7-3.2,4.7-2.5c46.4,16.2,61.5,18.3,73.1,10.2
	c9.7-6.8-18.2-41.5-29-54.3c-1.8-2.1-0.6-5.4,2.1-5.9l4.9-0.9c2.4-0.4,3.7-3.1,2.5-5.3c-16-29.7-52.5-43.9-72-49.5
	c-3.5-1-3.5-5.9,0-6.9l3.6-1.1c3-0.9,3.5-4.9,0.9-6.5C527,282,444.5,277.2,444.5,277.2L419.5,324.3z"/>
<path class="st20" d="M425.8,312.7c4.7,12.9,34.8,37.2,45.3,45.3c1.2,0.9,2.8-0.2,2.3-1.6l0,0c-0.4-1.3,1.1-2.4,2.3-1.7
	c11.3,7.4,20.6,10.8,24.4,12c0.9,0.3,1.8-0.3,1.9-1.3l0.2-2.1c0.1-1,1.2-1.7,2.1-1.2c21.5,9.7,31.4,10.4,36.4,7.8
	c4.3-2.2-9.9-19.6-14.7-25.3c-0.7-0.8-0.3-2.1,0.8-2.4l2.6-0.7c0.8-0.2,1.3-1.1,1-1.9c-3.2-9.6-24.6-20.3-33.6-24.4
	c-1.3-0.6-1.1-2.5,0.3-2.8l0.1,0c1.3-0.3,1.5-2,0.4-2.7c-19.3-12.3-53-17.2-59.1-18c-0.6-0.1-1.2,0.2-1.5,0.7l-11.1,19
	C425.7,311.8,425.7,312.2,425.8,312.7z"/>
<path class="st21" d="M30.6,82.7c299.9-89.3,387.1,146,387.1,146l-49.6,93.4c0,0-243.8,59.5-337.6-239.1"/>
<circle class="st22" cx="210" cy="178.5" r="59.6"/>
<circle class="st23" cx="209.3" cy="178.1" r="45.6"/>
<polyline class="st23" points="417.4,229.3 467.6,232.7 398.7,362.3 367.8,322.6 "/>
<path class="st24" d="M233.7,71c0,0,124.5-36.9,217.1,79.5l-70.6,15.8c-33.8-47.4-83.5-79.2-145.4-95.3"/>
<path class="st24" d="M135,256.7c0,0,39.1,123.8,187.3,135.4L296,324.8c-58.2-1.4-112.3-24.9-160.3-67.1"/>
<path class="st1" d="M1744.3,533.1H55.7c-17.6,0-31.9-14.3-31.9-31.9V74.8c0-17.6,14.3-31.9,31.9-31.9h1688.6
	c17.6,0,31.9,14.3,31.9,31.9v426.3C1776.3,518.8,1762,533.1,1744.3,533.1z"/>
<g>
	<path class="st25" d="M1189.6,113.3h-10.1l-1.8,12.6h-5.5l7.8-49.8h8.7l8.6,49.8h-5.5L1189.6,113.3z M1188.9,108.6l-4.6-28.6
		l-4.1,28.6H1188.9z"/>
	<path class="st25" d="M1214,111.4c0-2.1-0.4-2.5-2.5-2.5h-3.9c-4.2,0-6.3-2.1-6.3-6.3v-9.2c0-4.2,2.1-6.3,6.3-6.3h5.4
		c4.2,0,6.3,2.1,6.3,6.3v3.9h-5.4v-3.1c0-2.1-0.4-2.5-2.5-2.5h-2.2c-2.1,0-2.5,0.4-2.5,2.5v7.6c0,2.1,0.4,2.5,2.5,2.5h3.9
		c4.2,0,6.3,2.1,6.3,6.3v9c0,4.2-2.1,6.3-6.3,6.3h-5.4c-4.2,0-6.3-2.1-6.3-6.3v-3.9h5.4v3.1c0,2.1,0.4,2.5,2.5,2.5h2.2
		c2.1,0,2.5-0.4,2.5-2.5V111.4z"/>
	<path class="st25" d="M1231.6,91.8v26.5c0,2.1,0.4,2.5,2.5,2.5h3v5.1h-4.7c-4.2,0-6.3-2.1-6.3-6.3V91.8h-3.5v-4.7h3.5v-6.3h5.5v6.3
		h5.5v4.7H1231.6z"/>
	<path class="st25" d="M1254.5,87.1v4.8h-2.4c-3.5,0-5,1.9-5,6v28h-5.5V87.1h5.5v4.5c0.7-2.2,2.6-4.5,5.8-4.5H1254.5z"/>
	<path class="st25" d="M1272.6,87.1c4.2,0,6.3,2.1,6.3,6.3v26.2c0,4.2-2.1,6.3-6.3,6.3h-8.2c-4.2,0-6.3-2.1-6.3-6.3V93.4
		c0-4.2,2.1-6.3,6.3-6.3H1272.6z M1273.5,94.3c0-2.1-0.4-2.5-2.5-2.5h-5c-2.1,0-2.5,0.4-2.5,2.5v24.4c0,2.1,0.4,2.5,2.5,2.5h5
		c2.1,0,2.5-0.4,2.5-2.5V94.3z"/>
	<path class="st25" d="M1298.8,87.1c4.2,0,6.3,2.1,6.3,6.3v32.5h-5.5V94.3c0-2.1-0.4-2.5-2.5-2.5h-3.2c-1.9,0-2.7,0.7-2.7,2.9v31.2
		h-5.5V87.1h5.5v2.6c0.6-1.9,2.2-2.6,4.4-2.6H1298.8z"/>
	<path class="st25" d="M1331.4,87.1v38.8h-5.5v-2.6c-0.6,1.9-2.2,2.6-4.4,2.6h-3.2c-4.2,0-6.3-2.1-6.3-6.3V93.4
		c0-4.2,2.1-6.3,6.3-6.3h3.2c2.2,0,3.8,0.7,4.4,2.6v-2.6H1331.4z M1323.2,121.2c1.9,0,2.7-0.7,2.7-2.9V94.7c0-2.2-0.8-2.9-2.7-2.9
		h-3.2c-2.1,0-2.5,0.4-2.5,2.5v24.4c0,2.1,0.4,2.5,2.5,2.5H1323.2z"/>
	<path class="st25" d="M1358,87.1v38.8h-5.5v-2.6c-0.6,1.9-2.2,2.6-4.4,2.6h-3.2c-4.2,0-6.3-2.1-6.3-6.3V87.1h5.5v31.6
		c0,2.1,0.4,2.5,2.5,2.5h3.2c1.9,0,2.7-0.7,2.7-2.9V87.1H1358z"/>
	<path class="st25" d="M1371.1,91.8v26.5c0,2.1,0.4,2.5,2.5,2.5h3v5.1h-4.7c-4.2,0-6.3-2.1-6.3-6.3V91.8h-3.5v-4.7h3.5v-6.3h5.5v6.3
		h5.5v4.7H1371.1z"/>
	<path class="st25" d="M1392.9,111.4c0-2.1-0.4-2.5-2.5-2.5h-3.9c-4.2,0-6.3-2.1-6.3-6.3v-9.2c0-4.2,2.1-6.3,6.3-6.3h5.4
		c4.2,0,6.3,2.1,6.3,6.3v3.9h-5.4v-3.1c0-2.1-0.4-2.5-2.5-2.5h-2.2c-2.1,0-2.5,0.4-2.5,2.5v7.6c0,2.1,0.4,2.5,2.5,2.5h3.9
		c4.2,0,6.3,2.1,6.3,6.3v9c0,4.2-2.1,6.3-6.3,6.3h-5.4c-4.2,0-6.3-2.1-6.3-6.3v-3.9h5.4v3.1c0,2.1,0.4,2.5,2.5,2.5h2.2
		c2.1,0,2.5-0.4,2.5-2.5V111.4z"/>
	<path class="st25" d="M1421.5,80.9v17.6h10.7v4.7h-10.7v22.7h-5.5V76.2h19.4v4.7H1421.5z"/>
	<path class="st25" d="M1439.4,125.9V72.4h5.5v53.5H1439.4z"/>
	<path class="st25" d="M1454.8,87.1l6.2,35l5.8-35h5.5l-7.8,43.8c-0.8,4.2-3.4,6.3-7.6,6.3h-4.3v-4.7h2.6c2.1,0,3.5-0.5,4-2.5l1-4.1
		h-3.6l-7.4-38.8H1454.8z"/>
	<path class="st25" d="M1501.1,105.1c0-2.1-0.4-2.5-2.5-2.5h-5.4c-4.2,0-6.3-2.1-6.3-6.3V82.5c0-4.2,2.1-6.3,6.3-6.3h7
		c4.2,0,6.3,2.1,6.3,6.3v7.7h-5.5v-6.8c0-2.1-0.4-2.5-2.5-2.5h-3.7c-2.1,0-2.5,0.4-2.5,2.5v12.1c0,2.1,0.4,2.5,2.5,2.5h5.4
		c4.2,0,6.3,2.1,6.3,6.3v15.4c0,4.2-2.1,6.3-6.3,6.3h-7c-4.2,0-6.3-2.1-6.3-6.3v-7.7h5.5v6.8c0,2.1,0.4,2.5,2.5,2.5h3.6
		c2.1,0,2.5-0.4,2.5-2.5V105.1z"/>
	<path class="st25" d="M1526.5,87.1c4.2,0,6.3,2.1,6.3,6.3v26.2c0,4.2-2.1,6.3-6.3,6.3h-3.2c-2.2,0-3.8-0.7-4.4-2.6v13.9h-5.5V87.1
		h5.5v2.6c0.6-1.9,2.2-2.6,4.4-2.6H1526.5z M1527.3,94.3c0-2.1-0.4-2.5-2.5-2.5h-3.2c-1.9,0-2.7,0.7-2.7,2.9v23.6
		c0,2.2,0.8,2.9,2.7,2.9h3.2c2.1,0,2.5-0.4,2.5-2.5V94.3z"/>
	<path class="st25" d="M1558.7,87.1v38.8h-5.5v-2.6c-0.6,1.9-2.2,2.6-4.4,2.6h-3.2c-4.2,0-6.3-2.1-6.3-6.3V93.4
		c0-4.2,2.1-6.3,6.3-6.3h3.2c2.2,0,3.8,0.7,4.4,2.6v-2.6H1558.7z M1550.4,121.2c1.9,0,2.7-0.7,2.7-2.9V94.7c0-2.2-0.8-2.9-2.7-2.9
		h-3.2c-2.1,0-2.5,0.4-2.5,2.5v24.4c0,2.1,0.4,2.5,2.5,2.5H1550.4z"/>
	<path class="st25" d="M1580,98.6v-4.3c0-2.1-0.4-2.5-2.5-2.5h-4c-2.1,0-2.5,0.4-2.5,2.5v24.4c0,2.1,0.4,2.5,2.5,2.5h4
		c2.1,0,2.5-0.4,2.5-2.5v-4.3h5.5v5.2c0,4.2-2.1,6.3-6.3,6.3h-7.4c-4.2,0-6.3-2.1-6.3-6.3V93.4c0-4.2,2.1-6.3,6.3-6.3h7.4
		c4.2,0,6.3,2.1,6.3,6.3v5.2H1580z"/>
	<path class="st25" d="M1605.6,87.1c4.2,0,6.3,2.1,6.3,6.3v15h-14.5v10.3c0,2.1,0.4,2.5,2.5,2.5h3.8c2.1,0,2.5-0.4,2.5-2.5v-3.5h5.5
		v4.4c0,4.2-2.1,6.3-6.3,6.3h-7.1c-4.2,0-6.3-2.1-6.3-6.3V93.4c0-4.2,2.1-6.3,6.3-6.3H1605.6z M1606.4,103.7v-9.4
		c0-2.1-0.4-2.5-2.5-2.5h-4c-2.1,0-2.5,0.4-2.5,2.5v9.4H1606.4z"/>
	<path class="st25" d="M1632.4,98.6v-4.3c0-2.1-0.4-2.5-2.5-2.5h-4c-2.1,0-2.5,0.4-2.5,2.5v24.4c0,2.1,0.4,2.5,2.5,2.5h4
		c2.1,0,2.5-0.4,2.5-2.5v-4.3h5.5v5.2c0,4.2-2.1,6.3-6.3,6.3h-7.4c-4.2,0-6.3-2.1-6.3-6.3V93.4c0-4.2,2.1-6.3,6.3-6.3h7.4
		c4.2,0,6.3,2.1,6.3,6.3v5.2H1632.4z"/>
	<path class="st25" d="M1657.2,87.1v4.8h-2.4c-3.5,0-5,1.9-5,6v28h-5.5V87.1h5.5v4.5c0.7-2.2,2.6-4.5,5.8-4.5H1657.2z"/>
	<path class="st25" d="M1680.3,87.1v38.8h-5.5v-2.6c-0.6,1.9-2.2,2.6-4.4,2.6h-3.2c-4.2,0-6.3-2.1-6.3-6.3V93.4
		c0-4.2,2.1-6.3,6.3-6.3h3.2c2.2,0,3.8,0.7,4.4,2.6v-2.6H1680.3z M1672,121.2c1.9,0,2.7-0.7,2.7-2.9V94.7c0-2.2-0.8-2.9-2.7-2.9
		h-3.2c-2.1,0-2.5,0.4-2.5,2.5v24.4c0,2.1,0.4,2.5,2.5,2.5H1672z"/>
	<path class="st25" d="M1696.1,77.5c-2.1,0-2.5,0.4-2.5,2.5v7.1h5.6v4.7h-5.6v34.1h-5.5V91.8h-3.8v-4.7h3.8v-8.4
		c0-4.2,2.1-6.3,6.3-6.3h4.8v5.1H1696.1z"/>
	<path class="st25" d="M1709.1,91.8v26.5c0,2.1,0.4,2.5,2.5,2.5h3v5.1h-4.7c-4.2,0-6.3-2.1-6.3-6.3V91.8h-3.5v-4.7h3.5v-6.3h5.5v6.3
		h5.5v4.7H1709.1z"/>
	<path class="st25" d="M1145.2,171.9c1.9,0,2.8,0.9,2.8,2.8v6.4c0,1-0.5,1.7-1.3,1.8c0.8,0.1,1.3,0.6,1.3,1.7v6.8
		c0,1.9-0.9,2.8-2.8,2.8h-7.1v-22.4H1145.2z M1145.5,175.2c0-0.9-0.2-1.1-1.1-1.1h-3.9v7.8h3.9c0.9,0,1.1-0.2,1.1-1.1V175.2z
		 M1145.5,185.1c0-0.9-0.2-1.1-1.1-1.1h-3.9v8.2h3.9c0.9,0,1.1-0.2,1.1-1.1V185.1z"/>
	<path class="st25" d="M1152.7,176.9l2.8,15.7l2.6-15.7h2.5l-3.5,19.7c-0.4,1.9-1.5,2.8-3.4,2.8h-1.9v-2.1h1.2
		c0.9,0,1.6-0.2,1.8-1.1l0.4-1.8h-1.6l-3.3-17.5H1152.7z"/>
	<path class="st25" d="M1173.1,176.9v2.2h-1.1c-1.6,0-2.3,0.9-2.3,2.7v12.6h-2.5v-17.5h2.5v2c0.3-1,1.2-2,2.6-2H1173.1z"/>
	<path class="st25" d="M1181,176.9c1.9,0,2.8,0.9,2.8,2.8v6.7h-6.5v4.6c0,0.9,0.2,1.1,1.1,1.1h1.7c0.9,0,1.1-0.2,1.1-1.1v-1.6h2.5v2
		c0,1.9-0.9,2.8-2.8,2.8h-3.2c-1.9,0-2.8-0.9-2.8-2.8v-11.8c0-1.9,0.9-2.8,2.8-2.8H1181z M1181.4,184.3v-4.2c0-0.9-0.2-1.1-1.1-1.1
		h-1.8c-0.9,0-1.1,0.2-1.1,1.1v4.2H1181.4z"/>
	<path class="st25" d="M1195.3,176.9v22.5h-2.5v-6.3c-0.3,0.9-1,1.2-2,1.2h-1.4c-1.9,0-2.8-0.9-2.8-2.8v-11.8c0-1.9,0.9-2.8,2.8-2.8
		h1.4c1,0,1.7,0.3,2,1.2v-1.2H1195.3z M1191.6,192.2c0.9,0,1.2-0.3,1.2-1.3v-10.6c0-1-0.4-1.3-1.2-1.3h-1.4c-0.9,0-1.1,0.2-1.1,1.1
		v11c0,0.9,0.2,1.1,1.1,1.1H1191.6z"/>
	<path class="st25" d="M1207.3,176.9v17.5h-2.5v-1.2c-0.3,0.9-1,1.2-2,1.2h-1.4c-1.9,0-2.8-0.9-2.8-2.8v-14.6h2.5v14.2
		c0,0.9,0.2,1.1,1.1,1.1h1.4c0.9,0,1.2-0.3,1.2-1.3v-14H1207.3z"/>
	<path class="st25" d="M1210.5,170.2h2.6v2.9h-2.6V170.2z M1210.5,194.3v-17.5h2.5v17.5H1210.5z"/>
	<path class="st25" d="M1222.1,176.9v2.2h-1.1c-1.6,0-2.3,0.9-2.3,2.7v12.6h-2.5v-17.5h2.5v2c0.3-1,1.2-2,2.6-2H1222.1z"/>
	<path class="st25" d="M1223.8,170.2h2.6v2.9h-2.6V170.2z M1223.9,194.3v-17.5h2.5v17.5H1223.9z"/>
	<path class="st25" d="M1235.5,176.9c1.9,0,2.8,0.9,2.8,2.8v14.6h-2.5v-14.2c0-0.9-0.2-1.1-1.1-1.1h-1.4c-0.9,0-1.2,0.3-1.2,1.3v14
		h-2.5v-17.5h2.5v1.2c0.3-0.9,1-1.2,2-1.2H1235.5z"/>
	<path class="st25" d="M1250.2,176.9v19.7c0,1.9-0.9,2.8-2.8,2.8h-5.4v-2.1h4.6c0.9,0,1.1-0.2,1.1-1.1v-3c-0.3,0.9-1,1.2-2,1.2h-1.4
		c-1.9,0-2.8-0.9-2.8-2.8v-11.8c0-1.9,0.9-2.8,2.8-2.8h1.4c1,0,1.7,0.3,2,1.2v-1.2H1250.2z M1246.5,192.2c0.9,0,1.2-0.3,1.2-1.3
		v-10.6c0-1-0.4-1.3-1.2-1.3h-1.4c-0.9,0-1.1,0.2-1.1,1.1v11c0,0.9,0.2,1.1,1.1,1.1H1246.5z"/>
	<path class="st25" d="M1266.7,176.9v17.5h-2.5v-1.2c-0.3,0.9-1,1.2-2,1.2h-1.4c-1.9,0-2.8-0.9-2.8-2.8v-11.8c0-1.9,0.9-2.8,2.8-2.8
		h1.4c1,0,1.7,0.3,2,1.2v-1.2H1266.7z M1263,192.2c0.9,0,1.2-0.3,1.2-1.3v-10.6c0-1-0.4-1.3-1.2-1.3h-1.4c-0.9,0-1.1,0.2-1.1,1.1v11
		c0,0.9,0.2,1.1,1.1,1.1H1263z"/>
	<path class="st25" d="M1269.9,194.3v-24.1h2.5v24.1H1269.9z"/>
	<path class="st25" d="M1275.6,194.3v-24.1h2.5v24.1H1275.6z"/>
	<path class="st25" d="M1294.6,176.9v17.5h-2.5v-1.2c-0.3,0.9-1,1.2-2,1.2h-1.4c-1.9,0-2.8-0.9-2.8-2.8v-11.8c0-1.9,0.9-2.8,2.8-2.8
		h1.4c1,0,1.7,0.3,2,1.2v-1.2H1294.6z M1290.9,192.2c0.9,0,1.2-0.3,1.2-1.3v-10.6c0-1-0.4-1.3-1.2-1.3h-1.4c-0.9,0-1.1,0.2-1.1,1.1
		v11c0,0.9,0.2,1.1,1.1,1.1H1290.9z"/>
	<path class="st25" d="M1303.2,187.8c0-0.9-0.2-1.1-1.1-1.1h-1.8c-1.9,0-2.8-0.9-2.8-2.8v-4.1c0-1.9,0.9-2.8,2.8-2.8h2.4
		c1.9,0,2.8,0.9,2.8,2.8v1.8h-2.4v-1.4c0-0.9-0.2-1.1-1.1-1.1h-1c-0.9,0-1.1,0.2-1.1,1.1v3.4c0,0.9,0.2,1.1,1.1,1.1h1.8
		c1.9,0,2.8,0.9,2.8,2.8v4c0,1.9-0.9,2.8-2.8,2.8h-2.4c-1.9,0-2.8-0.9-2.8-2.8v-1.8h2.4v1.4c0,0.9,0.2,1.1,1.1,1.1h1
		c0.9,0,1.1-0.2,1.1-1.1V187.8z"/>
	<path class="st25" d="M1311.2,179v11.9c0,0.9,0.2,1.1,1.1,1.1h1.4v2.3h-2.1c-1.9,0-2.8-0.9-2.8-2.8V179h-1.6v-2.1h1.6V174h2.5v2.8
		h2.5v2.1H1311.2z"/>
	<path class="st25" d="M1321.5,176.9v2.2h-1.1c-1.6,0-2.3,0.9-2.3,2.7v12.6h-2.5v-17.5h2.5v2c0.3-1,1.2-2,2.6-2H1321.5z"/>
	<path class="st25" d="M1329.6,176.9c1.9,0,2.8,0.9,2.8,2.8v11.8c0,1.9-0.9,2.8-2.8,2.8h-3.7c-1.9,0-2.8-0.9-2.8-2.8v-11.8
		c0-1.9,0.9-2.8,2.8-2.8H1329.6z M1330,180.1c0-0.9-0.2-1.1-1.1-1.1h-2.2c-0.9,0-1.1,0.2-1.1,1.1v11c0,0.9,0.2,1.1,1.1,1.1h2.2
		c0.9,0,1.1-0.2,1.1-1.1V180.1z"/>
	<path class="st25" d="M1341.4,176.9c1.9,0,2.8,0.9,2.8,2.8v14.6h-2.5v-14.2c0-0.9-0.2-1.1-1.1-1.1h-1.4c-0.9,0-1.2,0.3-1.2,1.3v14
		h-2.5v-17.5h2.5v1.2c0.3-0.9,1-1.2,2-1.2H1341.4z"/>
	<path class="st25" d="M1356,176.9v17.5h-2.5v-1.2c-0.3,0.9-1,1.2-2,1.2h-1.4c-1.9,0-2.8-0.9-2.8-2.8v-11.8c0-1.9,0.9-2.8,2.8-2.8
		h1.4c1,0,1.7,0.3,2,1.2v-1.2H1356z M1352.3,192.2c0.9,0,1.2-0.3,1.2-1.3v-10.6c0-1-0.4-1.3-1.2-1.3h-1.4c-0.9,0-1.1,0.2-1.1,1.1v11
		c0,0.9,0.2,1.1,1.1,1.1H1352.3z"/>
	<path class="st25" d="M1368,176.9v17.5h-2.5v-1.2c-0.3,0.9-1,1.2-2,1.2h-1.4c-1.9,0-2.8-0.9-2.8-2.8v-14.6h2.5v14.2
		c0,0.9,0.2,1.1,1.1,1.1h1.4c0.9,0,1.2-0.3,1.2-1.3v-14H1368z"/>
	<path class="st25" d="M1373.9,179v11.9c0,0.9,0.2,1.1,1.1,1.1h1.4v2.3h-2.1c-1.9,0-2.8-0.9-2.8-2.8V179h-1.6v-2.1h1.6V174h2.5v2.8
		h2.5v2.1H1373.9z"/>
	<path class="st25" d="M1383.7,187.8c0-0.9-0.2-1.1-1.1-1.1h-1.8c-1.9,0-2.8-0.9-2.8-2.8v-4.1c0-1.9,0.9-2.8,2.8-2.8h2.4
		c1.9,0,2.8,0.9,2.8,2.8v1.8h-2.4v-1.4c0-0.9-0.2-1.1-1.1-1.1h-1c-0.9,0-1.1,0.2-1.1,1.1v3.4c0,0.9,0.2,1.1,1.1,1.1h1.8
		c1.9,0,2.8,0.9,2.8,2.8v4c0,1.9-0.9,2.8-2.8,2.8h-2.4c-1.9,0-2.8-0.9-2.8-2.8v-1.8h2.4v1.4c0,0.9,0.2,1.1,1.1,1.1h1
		c0.9,0,1.1-0.2,1.1-1.1V187.8z"/>
	<path class="st25" d="M1396.4,179v11.9c0,0.9,0.2,1.1,1.1,1.1h1.4v2.3h-2.1c-1.9,0-2.8-0.9-2.8-2.8V179h-1.6v-2.1h1.6V174h2.5v2.8
		h2.5v2.1H1396.4z"/>
	<path class="st25" d="M1407.2,176.9c1.9,0,2.8,0.9,2.8,2.8v11.8c0,1.9-0.9,2.8-2.8,2.8h-3.7c-1.9,0-2.8-0.9-2.8-2.8v-11.8
		c0-1.9,0.9-2.8,2.8-2.8H1407.2z M1407.6,180.1c0-0.9-0.2-1.1-1.1-1.1h-2.2c-0.9,0-1.1,0.2-1.1,1.1v11c0,0.9,0.2,1.1,1.1,1.1h2.2
		c0.9,0,1.1-0.2,1.1-1.1V180.1z"/>
	<path class="st25" d="M1423.6,176.9v2.2h-1.1c-1.6,0-2.3,0.9-2.3,2.7v12.6h-2.5v-17.5h2.5v2c0.3-1,1.2-2,2.6-2H1423.6z"/>
	<path class="st25" d="M1431.5,176.9c1.9,0,2.8,0.9,2.8,2.8v6.7h-6.5v4.6c0,0.9,0.2,1.1,1.1,1.1h1.7c0.9,0,1.1-0.2,1.1-1.1v-1.6h2.5
		v2c0,1.9-0.9,2.8-2.8,2.8h-3.2c-1.9,0-2.8-0.9-2.8-2.8v-11.8c0-1.9,0.9-2.8,2.8-2.8H1431.5z M1431.9,184.3v-4.2
		c0-0.9-0.2-1.1-1.1-1.1h-1.8c-0.9,0-1.1,0.2-1.1,1.1v4.2H1431.9z"/>
	<path class="st25" d="M1443.6,182v-1.9c0-0.9-0.2-1.1-1.1-1.1h-1.8c-0.9,0-1.1,0.2-1.1,1.1v11c0,0.9,0.2,1.1,1.1,1.1h1.8
		c0.9,0,1.1-0.2,1.1-1.1v-1.9h2.5v2.3c0,1.9-0.9,2.8-2.8,2.8h-3.3c-1.9,0-2.8-0.9-2.8-2.8v-11.8c0-1.9,0.9-2.8,2.8-2.8h3.3
		c1.9,0,2.8,0.9,2.8,2.8v2.3H1443.6z"/>
	<path class="st25" d="M1455.1,176.9c1.9,0,2.8,0.9,2.8,2.8v6.7h-6.5v4.6c0,0.9,0.2,1.1,1.1,1.1h1.7c0.9,0,1.1-0.2,1.1-1.1v-1.6h2.5
		v2c0,1.9-0.9,2.8-2.8,2.8h-3.2c-1.9,0-2.8-0.9-2.8-2.8v-11.8c0-1.9,0.9-2.8,2.8-2.8H1455.1z M1455.5,184.3v-4.2
		c0-0.9-0.2-1.1-1.1-1.1h-1.8c-0.9,0-1.1,0.2-1.1,1.1v4.2H1455.5z"/>
	<path class="st25" d="M1460.8,170.2h2.6v2.9h-2.6V170.2z M1460.8,194.3v-17.5h2.5v17.5H1460.8z"/>
	<path class="st25" d="M1469.9,192.6l2.4-15.7h2.5l-2.9,17.5h-3.9l-2.9-17.5h2.5L1469.9,192.6z"/>
	<path class="st25" d="M1482.8,176.9c1.9,0,2.8,0.9,2.8,2.8v6.7h-6.5v4.6c0,0.9,0.2,1.1,1.1,1.1h1.7c0.9,0,1.1-0.2,1.1-1.1v-1.6h2.5
		v2c0,1.9-0.9,2.8-2.8,2.8h-3.2c-1.9,0-2.8-0.9-2.8-2.8v-11.8c0-1.9,0.9-2.8,2.8-2.8H1482.8z M1483.1,184.3v-4.2
		c0-0.9-0.2-1.1-1.1-1.1h-1.8c-0.9,0-1.1,0.2-1.1,1.1v4.2H1483.1z"/>
	<path class="st25" d="M1498.5,187.8c0-0.9-0.2-1.1-1.1-1.1h-1.8c-1.9,0-2.8-0.9-2.8-2.8v-4.1c0-1.9,0.9-2.8,2.8-2.8h2.4
		c1.9,0,2.8,0.9,2.8,2.8v1.8h-2.4v-1.4c0-0.9-0.2-1.1-1.1-1.1h-1c-0.9,0-1.1,0.2-1.1,1.1v3.4c0,0.9,0.2,1.1,1.1,1.1h1.8
		c1.9,0,2.8,0.9,2.8,2.8v4c0,1.9-0.9,2.8-2.8,2.8h-2.4c-1.9,0-2.8-0.9-2.8-2.8v-1.8h2.4v1.4c0,0.9,0.2,1.1,1.1,1.1h1
		c0.9,0,1.1-0.2,1.1-1.1V187.8z"/>
	<path class="st25" d="M1510.2,176.9c1.9,0,2.8,0.9,2.8,2.8v11.8c0,1.9-0.9,2.8-2.8,2.8h-3.7c-1.9,0-2.8-0.9-2.8-2.8v-11.8
		c0-1.9,0.9-2.8,2.8-2.8H1510.2z M1510.6,180.1c0-0.9-0.2-1.1-1.1-1.1h-2.2c-0.9,0-1.1,0.2-1.1,1.1v11c0,0.9,0.2,1.1,1.1,1.1h2.2
		c0.9,0,1.1-0.2,1.1-1.1V180.1z"/>
	<path class="st25" d="M1528.3,176.9c1.9,0,2.8,0.9,2.8,2.8v14.6h-2.5v-14.2c0-0.9-0.2-1.1-1.1-1.1h-1.4c-0.9,0-1.2,0.3-1.2,1.3v14
		h-2.5v-14.2c0-0.9-0.2-1.1-1.1-1.1h-1.4c-0.9,0-1.2,0.3-1.2,1.3v14h-2.5v-17.5h2.5v1.2c0.3-0.9,1-1.2,2-1.2h1.4
		c1.4,0,2.2,0.5,2.6,1.4c0.3-1,1.1-1.4,2.2-1.4H1528.3z"/>
	<path class="st25" d="M1540.3,176.9c1.9,0,2.8,0.9,2.8,2.8v6.7h-6.5v4.6c0,0.9,0.2,1.1,1.1,1.1h1.7c0.9,0,1.1-0.2,1.1-1.1v-1.6h2.5
		v2c0,1.9-0.9,2.8-2.8,2.8h-3.2c-1.9,0-2.8-0.9-2.8-2.8v-11.8c0-1.9,0.9-2.8,2.8-2.8H1540.3z M1540.7,184.3v-4.2
		c0-0.9-0.2-1.1-1.1-1.1h-1.8c-0.9,0-1.1,0.2-1.1,1.1v4.2H1540.7z"/>
	<path class="st25" d="M1550.7,194.3v-24.1h2.5v24.1H1550.7z"/>
	<path class="st25" d="M1562.6,176.9c1.9,0,2.8,0.9,2.8,2.8v6.7h-6.5v4.6c0,0.9,0.2,1.1,1.1,1.1h1.7c0.9,0,1.1-0.2,1.1-1.1v-1.6h2.5
		v2c0,1.9-0.9,2.8-2.8,2.8h-3.2c-1.9,0-2.8-0.9-2.8-2.8v-11.8c0-1.9,0.9-2.8,2.8-2.8H1562.6z M1563,184.3v-4.2
		c0-0.9-0.2-1.1-1.1-1.1h-1.8c-0.9,0-1.1,0.2-1.1,1.1v4.2H1563z"/>
	<path class="st25" d="M1571.7,192.6l2.4-15.7h2.5l-2.9,17.5h-3.9l-2.9-17.5h2.5L1571.7,192.6z"/>
	<path class="st25" d="M1584.5,176.9c1.9,0,2.8,0.9,2.8,2.8v6.7h-6.5v4.6c0,0.9,0.2,1.1,1.1,1.1h1.7c0.9,0,1.1-0.2,1.1-1.1v-1.6h2.5
		v2c0,1.9-0.9,2.8-2.8,2.8h-3.2c-1.9,0-2.8-0.9-2.8-2.8v-11.8c0-1.9,0.9-2.8,2.8-2.8H1584.5z M1584.9,184.3v-4.2
		c0-0.9-0.2-1.1-1.1-1.1h-1.8c-0.9,0-1.1,0.2-1.1,1.1v4.2H1584.9z"/>
	<path class="st25" d="M1590.3,194.3v-24.1h2.5v24.1H1590.3z"/>
	<path class="st25" d="M1607,176.9c1.9,0,2.8,0.9,2.8,2.8v11.8c0,1.9-0.9,2.8-2.8,2.8h-3.7c-1.9,0-2.8-0.9-2.8-2.8v-11.8
		c0-1.9,0.9-2.8,2.8-2.8H1607z M1607.4,180.1c0-0.9-0.2-1.1-1.1-1.1h-2.2c-0.9,0-1.1,0.2-1.1,1.1v11c0,0.9,0.2,1.1,1.1,1.1h2.2
		c0.9,0,1.1-0.2,1.1-1.1V180.1z"/>
	<path class="st25" d="M1616.8,172.5c-0.9,0-1.1,0.2-1.1,1.1v3.2h2.5v2.1h-2.5v15.3h-2.5V179h-1.7v-2.1h1.7v-3.8
		c0-1.9,0.9-2.8,2.8-2.8h2.2v2.3H1616.8z"/>
	<path class="st25" d="M1631,182v-1.9c0-0.9-0.2-1.1-1.1-1.1h-1.8c-0.9,0-1.1,0.2-1.1,1.1v11c0,0.9,0.2,1.1,1.1,1.1h1.8
		c0.9,0,1.1-0.2,1.1-1.1v-1.9h2.5v2.3c0,1.9-0.9,2.8-2.8,2.8h-3.3c-1.9,0-2.8-0.9-2.8-2.8v-11.8c0-1.9,0.9-2.8,2.8-2.8h3.3
		c1.9,0,2.8,0.9,2.8,2.8v2.3H1631z"/>
	<path class="st25" d="M1642.5,176.9c1.9,0,2.8,0.9,2.8,2.8v6.7h-6.5v4.6c0,0.9,0.2,1.1,1.1,1.1h1.7c0.9,0,1.1-0.2,1.1-1.1v-1.6h2.5
		v2c0,1.9-0.9,2.8-2.8,2.8h-3.2c-1.9,0-2.8-0.9-2.8-2.8v-11.8c0-1.9,0.9-2.8,2.8-2.8H1642.5z M1642.9,184.3v-4.2
		c0-0.9-0.2-1.1-1.1-1.1h-1.8c-0.9,0-1.1,0.2-1.1,1.1v4.2H1642.9z"/>
	<path class="st25" d="M1654.1,176.9v2.2h-1.1c-1.6,0-2.3,0.9-2.3,2.7v12.6h-2.5v-17.5h2.5v2c0.3-1,1.2-2,2.6-2H1654.1z"/>
	<path class="st25" d="M1658.5,179v11.9c0,0.9,0.2,1.1,1.1,1.1h1.4v2.3h-2.1c-1.9,0-2.8-0.9-2.8-2.8V179h-1.6v-2.1h1.6V174h2.5v2.8
		h2.5v2.1H1658.5z"/>
	<path class="st25" d="M1662.9,170.2h2.6v2.9h-2.6V170.2z M1663,194.3v-17.5h2.5v17.5H1663z"/>
	<path class="st25" d="M1677.7,176.9v17.5h-2.5V179h-3.8v15.3h-2.5V179h-1.7v-2.1h1.7v-3.8c0-1.9,0.9-2.8,2.8-2.8h1.5v2.3h-0.8
		c-0.9,0-1.1,0.2-1.1,1.1v3.2H1677.7z M1677.7,170.2v2.3h-2.5v-2.3H1677.7z"/>
	<path class="st25" d="M1687.3,182v-1.9c0-0.9-0.2-1.1-1.1-1.1h-1.8c-0.9,0-1.1,0.2-1.1,1.1v11c0,0.9,0.2,1.1,1.1,1.1h1.8
		c0.9,0,1.1-0.2,1.1-1.1v-1.9h2.5v2.3c0,1.9-0.9,2.8-2.8,2.8h-3.3c-1.9,0-2.8-0.9-2.8-2.8v-11.8c0-1.9,0.9-2.8,2.8-2.8h3.3
		c1.9,0,2.8,0.9,2.8,2.8v2.3H1687.3z"/>
	<path class="st25" d="M1701.2,176.9v17.5h-2.5v-1.2c-0.3,0.9-1,1.2-2,1.2h-1.4c-1.9,0-2.8-0.9-2.8-2.8v-11.8c0-1.9,0.9-2.8,2.8-2.8
		h1.4c1,0,1.7,0.3,2,1.2v-1.2H1701.2z M1697.5,192.2c0.9,0,1.2-0.3,1.2-1.3v-10.6c0-1-0.4-1.3-1.2-1.3h-1.4c-0.9,0-1.1,0.2-1.1,1.1
		v11c0,0.9,0.2,1.1,1.1,1.1H1697.5z"/>
	<path class="st25" d="M1707.1,179v11.9c0,0.9,0.2,1.1,1.1,1.1h1.4v2.3h-2.1c-1.9,0-2.8-0.9-2.8-2.8V179h-1.6v-2.1h1.6V174h2.5v2.8
		h2.5v2.1H1707.1z"/>
	<path class="st25" d="M1711.5,170.2h2.6v2.9h-2.6V170.2z M1711.6,194.3v-17.5h2.5v17.5H1711.6z"/>
	<path class="st25" d="M1723.6,176.9c1.9,0,2.8,0.9,2.8,2.8v11.8c0,1.9-0.9,2.8-2.8,2.8h-3.7c-1.9,0-2.8-0.9-2.8-2.8v-11.8
		c0-1.9,0.9-2.8,2.8-2.8H1723.6z M1724,180.1c0-0.9-0.2-1.1-1.1-1.1h-2.2c-0.9,0-1.1,0.2-1.1,1.1v11c0,0.9,0.2,1.1,1.1,1.1h2.2
		c0.9,0,1.1-0.2,1.1-1.1V180.1z"/>
	<path class="st25" d="M1735.4,176.9c1.9,0,2.8,0.9,2.8,2.8v14.6h-2.5v-14.2c0-0.9-0.2-1.1-1.1-1.1h-1.4c-0.9,0-1.2,0.3-1.2,1.3v14
		h-2.5v-17.5h2.5v1.2c0.3-0.9,1-1.2,2-1.2H1735.4z"/>
	<path class="st25" d="M1184.9,220c1.9,0,2.8,0.9,2.8,2.8v11.8c0,1.9-0.9,2.8-2.8,2.8h-1.4c-1,0-1.7-0.3-2-1.2v1.2h-2.5v-24.1h2.5
		v7.8c0.3-0.9,1-1.2,2-1.2H1184.9z M1185.3,223.3c0-0.9-0.2-1.1-1.1-1.1h-1.4c-0.9,0-1.2,0.3-1.2,1.3v10.7c0,1,0.4,1.3,1.2,1.3h1.4
		c0.9,0,1.1-0.2,1.1-1.1V223.3z"/>
	<path class="st25" d="M1197,220.1c1.9,0,2.8,0.9,2.8,2.8v6.7h-6.5v4.6c0,0.9,0.2,1.1,1.1,1.1h1.7c0.9,0,1.1-0.2,1.1-1.1v-1.6h2.5v2
		c0,1.9-0.9,2.8-2.8,2.8h-3.2c-1.9,0-2.8-0.9-2.8-2.8v-11.8c0-1.9,0.9-2.8,2.8-2.8H1197z M1197.3,227.5v-4.2c0-0.9-0.2-1.1-1.1-1.1
		h-1.8c-0.9,0-1.1,0.2-1.1,1.1v4.2H1197.3z"/>
	<path class="st25" d="M1206.6,215.7c-0.9,0-1.1,0.2-1.1,1.1v3.2h2.5v2.1h-2.5v15.3h-2.5v-15.3h-1.7v-2.1h1.7v-3.8
		c0-1.9,0.9-2.8,2.8-2.8h2.2v2.3H1206.6z"/>
	<path class="st25" d="M1216.1,220.1c1.9,0,2.8,0.9,2.8,2.8v11.8c0,1.9-0.9,2.8-2.8,2.8h-3.7c-1.9,0-2.8-0.9-2.8-2.8v-11.8
		c0-1.9,0.9-2.8,2.8-2.8H1216.1z M1216.5,223.3c0-0.9-0.2-1.1-1.1-1.1h-2.2c-0.9,0-1.1,0.2-1.1,1.1v11c0,0.9,0.2,1.1,1.1,1.1h2.2
		c0.9,0,1.1-0.2,1.1-1.1V223.3z"/>
	<path class="st25" d="M1227.9,220.1v2.2h-1.1c-1.6,0-2.3,0.9-2.3,2.7v12.6h-2.5v-17.5h2.5v2c0.3-1,1.2-2,2.6-2H1227.9z"/>
	<path class="st25" d="M1235.8,220.1c1.9,0,2.8,0.9,2.8,2.8v6.7h-6.5v4.6c0,0.9,0.2,1.1,1.1,1.1h1.7c0.9,0,1.1-0.2,1.1-1.1v-1.6h2.5
		v2c0,1.9-0.9,2.8-2.8,2.8h-3.2c-1.9,0-2.8-0.9-2.8-2.8v-11.8c0-1.9,0.9-2.8,2.8-2.8H1235.8z M1236.2,227.5v-4.2
		c0-0.9-0.2-1.1-1.1-1.1h-1.8c-0.9,0-1.1,0.2-1.1,1.1v4.2H1236.2z"/>
	<path class="st25" d="M1248.8,222.2v11.9c0,0.9,0.2,1.1,1.1,1.1h1.4v2.3h-2.1c-1.9,0-2.8-0.9-2.8-2.8v-12.5h-1.6v-2.1h1.6v-2.8h2.5
		v2.8h2.5v2.1H1248.8z"/>
	<path class="st25" d="M1259.1,220.1v2.2h-1.1c-1.6,0-2.3,0.9-2.3,2.7v12.6h-2.5v-17.5h2.5v2c0.3-1,1.2-2,2.6-2H1259.1z"/>
	<path class="st25" d="M1269.7,220.1v17.5h-2.5v-1.2c-0.3,0.9-1,1.2-2,1.2h-1.4c-1.9,0-2.8-0.9-2.8-2.8v-14.6h2.5v14.2
		c0,0.9,0.2,1.1,1.1,1.1h1.4c0.9,0,1.2-0.3,1.2-1.3v-14H1269.7z"/>
	<path class="st25" d="M1279.1,220.1c1.9,0,2.8,0.9,2.8,2.8v6.7h-6.5v4.6c0,0.9,0.2,1.1,1.1,1.1h1.7c0.9,0,1.1-0.2,1.1-1.1v-1.6h2.5
		v2c0,1.9-0.9,2.8-2.8,2.8h-3.2c-1.9,0-2.8-0.9-2.8-2.8v-11.8c0-1.9,0.9-2.8,2.8-2.8H1279.1z M1279.4,227.5v-4.2
		c0-0.9-0.2-1.1-1.1-1.1h-1.8c-0.9,0-1.1,0.2-1.1,1.1v4.2H1279.4z"/>
	<path class="st25" d="M1294.9,231c0-0.9-0.2-1.1-1.1-1.1h-1.8c-1.9,0-2.8-0.9-2.8-2.8v-4.1c0-1.9,0.9-2.8,2.8-2.8h2.4
		c1.9,0,2.8,0.9,2.8,2.8v1.8h-2.4v-1.4c0-0.9-0.2-1.1-1.1-1.1h-1c-0.9,0-1.1,0.2-1.1,1.1v3.4c0,0.9,0.2,1.1,1.1,1.1h1.8
		c1.9,0,2.8,0.9,2.8,2.8v4c0,1.9-0.9,2.8-2.8,2.8h-2.4c-1.9,0-2.8-0.9-2.8-2.8v-1.8h2.4v1.4c0,0.9,0.2,1.1,1.1,1.1h1
		c0.9,0,1.1-0.2,1.1-1.1V231z"/>
	<path class="st25" d="M1306.1,220.1c1.9,0,2.8,0.9,2.8,2.8v11.8c0,1.9-0.9,2.8-2.8,2.8h-1.4c-1,0-1.7-0.3-2-1.2v6.3h-2.5v-22.5h2.5
		v1.2c0.3-0.9,1-1.2,2-1.2H1306.1z M1306.4,223.3c0-0.9-0.2-1.1-1.1-1.1h-1.4c-0.9,0-1.2,0.3-1.2,1.3v10.6c0,1,0.4,1.3,1.2,1.3h1.4
		c0.9,0,1.1-0.2,1.1-1.1V223.3z"/>
	<path class="st25" d="M1320.6,220.1v17.5h-2.5v-1.2c-0.3,0.9-1,1.2-2,1.2h-1.4c-1.9,0-2.8-0.9-2.8-2.8v-11.8c0-1.9,0.9-2.8,2.8-2.8
		h1.4c1,0,1.7,0.3,2,1.2v-1.2H1320.6z M1316.8,235.4c0.9,0,1.2-0.3,1.2-1.3v-10.6c0-1-0.4-1.3-1.2-1.3h-1.4c-0.9,0-1.1,0.2-1.1,1.1
		v11c0,0.9,0.2,1.1,1.1,1.1H1316.8z"/>
	<path class="st25" d="M1330.1,225.2v-1.9c0-0.9-0.2-1.1-1.1-1.1h-1.8c-0.9,0-1.1,0.2-1.1,1.1v11c0,0.9,0.2,1.1,1.1,1.1h1.8
		c0.9,0,1.1-0.2,1.1-1.1v-1.9h2.5v2.3c0,1.9-0.9,2.8-2.8,2.8h-3.3c-1.9,0-2.8-0.9-2.8-2.8v-11.8c0-1.9,0.9-2.8,2.8-2.8h3.3
		c1.9,0,2.8,0.9,2.8,2.8v2.3H1330.1z"/>
	<path class="st25" d="M1341.7,220.1c1.9,0,2.8,0.9,2.8,2.8v6.7h-6.5v4.6c0,0.9,0.2,1.1,1.1,1.1h1.7c0.9,0,1.1-0.2,1.1-1.1v-1.6h2.5
		v2c0,1.9-0.9,2.8-2.8,2.8h-3.2c-1.9,0-2.8-0.9-2.8-2.8v-11.8c0-1.9,0.9-2.8,2.8-2.8H1341.7z M1342,227.5v-4.2
		c0-0.9-0.2-1.1-1.1-1.1h-1.8c-0.9,0-1.1,0.2-1.1,1.1v4.2H1342z"/>
	<path class="st25" d="M1361.1,213.4v24.1h-2.5v-15.3h-3.8v15.3h-2.5v-15.3h-1.7v-2.1h1.7v-3.8c0-1.9,0.9-2.8,2.8-2.8h1.5v2.3h-0.8
		c-0.9,0-1.1,0.2-1.1,1.1v3.2h3.8v-6.6H1361.1z"/>
	<path class="st25" d="M1364.3,213.4h2.6v2.9h-2.6V213.4z M1364.3,237.5v-17.5h2.5v17.5H1364.3z"/>
	<path class="st25" d="M1378.6,220.1v19.7c0,1.9-0.9,2.8-2.8,2.8h-5.4v-2.1h4.6c0.9,0,1.1-0.2,1.1-1.1v-3c-0.3,0.9-1,1.2-2,1.2h-1.4
		c-1.9,0-2.8-0.9-2.8-2.8v-11.8c0-1.9,0.9-2.8,2.8-2.8h1.4c1,0,1.7,0.3,2,1.2v-1.2H1378.6z M1374.9,235.4c0.9,0,1.2-0.3,1.2-1.3
		v-10.6c0-1-0.4-1.3-1.2-1.3h-1.4c-0.9,0-1.1,0.2-1.1,1.1v11c0,0.9,0.2,1.1,1.1,1.1H1374.9z"/>
	<path class="st25" d="M1387.8,220.1c1.9,0,2.8,0.9,2.8,2.8v14.6h-2.5v-14.2c0-0.9-0.2-1.1-1.1-1.1h-1.4c-0.9,0-1.2,0.3-1.2,1.3v14
		h-2.5v-24.1h2.5v7.8c0.3-0.9,1-1.2,2-1.2H1387.8z"/>
	<path class="st25" d="M1396.5,222.2v11.9c0,0.9,0.2,1.1,1.1,1.1h1.4v2.3h-2.1c-1.9,0-2.8-0.9-2.8-2.8v-12.5h-1.6v-2.1h1.6v-2.8h2.5
		v2.8h2.5v2.1H1396.5z"/>
	<path class="st25" d="M1403.4,233.5v2.1l-2,6.9h-1v-9H1403.4z"/>
	<path class="st25" d="M1419.3,220.1v17.5h-2.5v-1.2c-0.3,0.9-1,1.2-2,1.2h-1.4c-1.9,0-2.8-0.9-2.8-2.8v-11.8c0-1.9,0.9-2.8,2.8-2.8
		h1.4c1,0,1.7,0.3,2,1.2v-1.2H1419.3z M1415.6,235.4c0.9,0,1.2-0.3,1.2-1.3v-10.6c0-1-0.4-1.3-1.2-1.3h-1.4c-0.9,0-1.1,0.2-1.1,1.1
		v11c0,0.9,0.2,1.1,1.1,1.1H1415.6z"/>
	<path class="st25" d="M1427.9,231c0-0.9-0.2-1.1-1.1-1.1h-1.8c-1.9,0-2.8-0.9-2.8-2.8v-4.1c0-1.9,0.9-2.8,2.8-2.8h2.4
		c1.9,0,2.8,0.9,2.8,2.8v1.8h-2.4v-1.4c0-0.9-0.2-1.1-1.1-1.1h-1c-0.9,0-1.1,0.2-1.1,1.1v3.4c0,0.9,0.2,1.1,1.1,1.1h1.8
		c1.9,0,2.8,0.9,2.8,2.8v4c0,1.9-0.9,2.8-2.8,2.8h-2.4c-1.9,0-2.8-0.9-2.8-2.8v-1.8h2.4v1.4c0,0.9,0.2,1.1,1.1,1.1h1
		c0.9,0,1.1-0.2,1.1-1.1V231z"/>
	<path class="st25" d="M1454.4,220.1l-3.1,17.5h-3.8l-2.1-14l-2.1,14h-3.8l-3.1-17.5h2.4l2.6,15.7l2.3-15.7h3.4l2.2,15.7l2.6-15.7
		H1454.4z"/>
	<path class="st25" d="M1462.3,220.1c1.9,0,2.8,0.9,2.8,2.8v6.7h-6.5v4.6c0,0.9,0.2,1.1,1.1,1.1h1.7c0.9,0,1.1-0.2,1.1-1.1v-1.6h2.5
		v2c0,1.9-0.9,2.8-2.8,2.8h-3.2c-1.9,0-2.8-0.9-2.8-2.8v-11.8c0-1.9,0.9-2.8,2.8-2.8H1462.3z M1462.7,227.5v-4.2
		c0-0.9-0.2-1.1-1.1-1.1h-1.8c-0.9,0-1.1,0.2-1.1,1.1v4.2H1462.7z"/>
	<path class="st25" d="M1468,237.5v-24.1h2.5v24.1H1468z"/>
	<path class="st25" d="M1473.8,237.5v-24.1h2.5v24.1H1473.8z"/>
	<path class="st25" d="M1492.7,220.1v17.5h-2.5v-1.2c-0.3,0.9-1,1.2-2,1.2h-1.4c-1.9,0-2.8-0.9-2.8-2.8v-11.8c0-1.9,0.9-2.8,2.8-2.8
		h1.4c1,0,1.7,0.3,2,1.2v-1.2H1492.7z M1489,235.4c0.9,0,1.2-0.3,1.2-1.3v-10.6c0-1-0.4-1.3-1.2-1.3h-1.4c-0.9,0-1.1,0.2-1.1,1.1v11
		c0,0.9,0.2,1.1,1.1,1.1H1489z"/>
	<path class="st25" d="M1501.3,231c0-0.9-0.2-1.1-1.1-1.1h-1.8c-1.9,0-2.8-0.9-2.8-2.8v-4.1c0-1.9,0.9-2.8,2.8-2.8h2.4
		c1.9,0,2.8,0.9,2.8,2.8v1.8h-2.4v-1.4c0-0.9-0.2-1.1-1.1-1.1h-1c-0.9,0-1.1,0.2-1.1,1.1v3.4c0,0.9,0.2,1.1,1.1,1.1h1.8
		c1.9,0,2.8,0.9,2.8,2.8v4c0,1.9-0.9,2.8-2.8,2.8h-2.4c-1.9,0-2.8-0.9-2.8-2.8v-1.8h2.4v1.4c0,0.9,0.2,1.1,1.1,1.1h1
		c0.9,0,1.1-0.2,1.1-1.1V231z"/>
	<path class="st25" d="M1517.7,220.1c1.9,0,2.8,0.9,2.8,2.8v11.8c0,1.9-0.9,2.8-2.8,2.8h-3.7c-1.9,0-2.8-0.9-2.8-2.8v-11.8
		c0-1.9,0.9-2.8,2.8-2.8H1517.7z M1518.1,223.3c0-0.9-0.2-1.1-1.1-1.1h-2.2c-0.9,0-1.1,0.2-1.1,1.1v11c0,0.9,0.2,1.1,1.1,1.1h2.2
		c0.9,0,1.1-0.2,1.1-1.1V223.3z"/>
	<path class="st25" d="M1526.2,222.2v11.9c0,0.9,0.2,1.1,1.1,1.1h1.4v2.3h-2.1c-1.9,0-2.8-0.9-2.8-2.8v-12.5h-1.6v-2.1h1.6v-2.8h2.5
		v2.8h2.5v2.1H1526.2z"/>
	<path class="st25" d="M1536.6,220.1c1.9,0,2.8,0.9,2.8,2.8v14.6h-2.5v-14.2c0-0.9-0.2-1.1-1.1-1.1h-1.4c-0.9,0-1.2,0.3-1.2,1.3v14
		h-2.5v-24.1h2.5v7.8c0.3-0.9,1-1.2,2-1.2H1536.6z"/>
	<path class="st25" d="M1548.8,220.1c1.9,0,2.8,0.9,2.8,2.8v6.7h-6.5v4.6c0,0.9,0.2,1.1,1.1,1.1h1.7c0.9,0,1.1-0.2,1.1-1.1v-1.6h2.5
		v2c0,1.9-0.9,2.8-2.8,2.8h-3.2c-1.9,0-2.8-0.9-2.8-2.8v-11.8c0-1.9,0.9-2.8,2.8-2.8H1548.8z M1549.2,227.5v-4.2
		c0-0.9-0.2-1.1-1.1-1.1h-1.8c-0.9,0-1.1,0.2-1.1,1.1v4.2H1549.2z"/>
	<path class="st25" d="M1560.4,220.1v2.2h-1.1c-1.6,0-2.3,0.9-2.3,2.7v12.6h-2.5v-17.5h2.5v2c0.3-1,1.2-2,2.6-2H1560.4z"/>
	<path class="st25" d="M1572.7,220.1v2.2h-1.1c-1.6,0-2.3,0.9-2.3,2.7v12.6h-2.5v-17.5h2.5v2c0.3-1,1.2-2,2.6-2H1572.7z"/>
	<path class="st25" d="M1580.6,220.1c1.9,0,2.8,0.9,2.8,2.8v6.7h-6.5v4.6c0,0.9,0.2,1.1,1.1,1.1h1.7c0.9,0,1.1-0.2,1.1-1.1v-1.6h2.5
		v2c0,1.9-0.9,2.8-2.8,2.8h-3.2c-1.9,0-2.8-0.9-2.8-2.8v-11.8c0-1.9,0.9-2.8,2.8-2.8H1580.6z M1581,227.5v-4.2
		c0-0.9-0.2-1.1-1.1-1.1h-1.8c-0.9,0-1.1,0.2-1.1,1.1v4.2H1581z"/>
	<path class="st25" d="M1594.9,220.1v22.5h-2.5v-6.3c-0.3,0.9-1,1.2-2,1.2h-1.4c-1.9,0-2.8-0.9-2.8-2.8v-11.8c0-1.9,0.9-2.8,2.8-2.8
		h1.4c1,0,1.7,0.3,2,1.2v-1.2H1594.9z M1591.2,235.4c0.9,0,1.2-0.3,1.2-1.3v-10.6c0-1-0.4-1.3-1.2-1.3h-1.4c-0.9,0-1.1,0.2-1.1,1.1
		v11c0,0.9,0.2,1.1,1.1,1.1H1591.2z"/>
	<path class="st25" d="M1606.9,220.1v17.5h-2.5v-1.2c-0.3,0.9-1,1.2-2,1.2h-1.4c-1.9,0-2.8-0.9-2.8-2.8v-14.6h2.5v14.2
		c0,0.9,0.2,1.1,1.1,1.1h1.4c0.9,0,1.2-0.3,1.2-1.3v-14H1606.9z"/>
	<path class="st25" d="M1610.1,213.4h2.6v2.9h-2.6V213.4z M1610.2,237.5v-17.5h2.5v17.5H1610.2z"/>
	<path class="st25" d="M1621.7,220.1v2.2h-1.1c-1.6,0-2.3,0.9-2.3,2.7v12.6h-2.5v-17.5h2.5v2c0.3-1,1.2-2,2.6-2H1621.7z"/>
	<path class="st25" d="M1629.7,220.1c1.9,0,2.8,0.9,2.8,2.8v6.7h-6.5v4.6c0,0.9,0.2,1.1,1.1,1.1h1.7c0.9,0,1.1-0.2,1.1-1.1v-1.6h2.5
		v2c0,1.9-0.9,2.8-2.8,2.8h-3.2c-1.9,0-2.8-0.9-2.8-2.8v-11.8c0-1.9,0.9-2.8,2.8-2.8H1629.7z M1630,227.5v-4.2
		c0-0.9-0.2-1.1-1.1-1.1h-1.8c-0.9,0-1.1,0.2-1.1,1.1v4.2H1630z"/>
	<path class="st25" d="M1647.6,220.1c1.9,0,2.8,0.9,2.8,2.8v14.6h-2.5v-14.2c0-0.9-0.2-1.1-1.1-1.1h-1.4c-0.9,0-1.2,0.3-1.2,1.3v14
		h-2.5v-14.2c0-0.9-0.2-1.1-1.1-1.1h-1.4c-0.9,0-1.2,0.3-1.2,1.3v14h-2.5v-17.5h2.5v1.2c0.3-0.9,1-1.2,2-1.2h1.4
		c1.4,0,2.2,0.5,2.6,1.4c0.3-1,1.1-1.4,2.2-1.4H1647.6z"/>
	<path class="st25" d="M1659.6,220.1c1.9,0,2.8,0.9,2.8,2.8v6.7h-6.5v4.6c0,0.9,0.2,1.1,1.1,1.1h1.7c0.9,0,1.1-0.2,1.1-1.1v-1.6h2.5
		v2c0,1.9-0.9,2.8-2.8,2.8h-3.2c-1.9,0-2.8-0.9-2.8-2.8v-11.8c0-1.9,0.9-2.8,2.8-2.8H1659.6z M1660,227.5v-4.2
		c0-0.9-0.2-1.1-1.1-1.1h-1.8c-0.9,0-1.1,0.2-1.1,1.1v4.2H1660z"/>
	<path class="st25" d="M1671.3,220.1c1.9,0,2.8,0.9,2.8,2.8v14.6h-2.5v-14.2c0-0.9-0.2-1.1-1.1-1.1h-1.4c-0.9,0-1.2,0.3-1.2,1.3v14
		h-2.5v-17.5h2.5v1.2c0.3-0.9,1-1.2,2-1.2H1671.3z"/>
	<path class="st25" d="M1680,222.2v11.9c0,0.9,0.2,1.1,1.1,1.1h1.4v2.3h-2.1c-1.9,0-2.8-0.9-2.8-2.8v-12.5h-1.6v-2.1h1.6v-2.8h2.5
		v2.8h2.5v2.1H1680z"/>
	<path class="st25" d="M1689.8,231c0-0.9-0.2-1.1-1.1-1.1h-1.8c-1.9,0-2.8-0.9-2.8-2.8v-4.1c0-1.9,0.9-2.8,2.8-2.8h2.4
		c1.9,0,2.8,0.9,2.8,2.8v1.8h-2.4v-1.4c0-0.9-0.2-1.1-1.1-1.1h-1c-0.9,0-1.1,0.2-1.1,1.1v3.4c0,0.9,0.2,1.1,1.1,1.1h1.8
		c1.9,0,2.8,0.9,2.8,2.8v4c0,1.9-0.9,2.8-2.8,2.8h-2.4c-1.9,0-2.8-0.9-2.8-2.8v-1.8h2.4v1.4c0,0.9,0.2,1.1,1.1,1.1h1
		c0.9,0,1.1-0.2,1.1-1.1V231z"/>
	<path class="st25" d="M1697.5,233.5v2.1l-2,6.9h-1v-9H1697.5z"/>
	<path class="st25" d="M1132.7,274.2c0-0.9-0.2-1.1-1.1-1.1h-1.8c-1.9,0-2.8-0.9-2.8-2.8v-4.1c0-1.9,0.9-2.8,2.8-2.8h2.4
		c1.9,0,2.8,0.9,2.8,2.8v1.8h-2.4v-1.4c0-0.9-0.2-1.1-1.1-1.1h-1c-0.9,0-1.1,0.2-1.1,1.1v3.4c0,0.9,0.2,1.1,1.1,1.1h1.8
		c1.9,0,2.8,0.9,2.8,2.8v4c0,1.9-0.9,2.8-2.8,2.8h-2.4c-1.9,0-2.8-0.9-2.8-2.8v-1.8h2.4v1.4c0,0.9,0.2,1.1,1.1,1.1h1
		c0.9,0,1.1-0.2,1.1-1.1V274.2z"/>
	<path class="st25" d="M1146.8,263.3v17.5h-2.5v-1.2c-0.3,0.9-1,1.2-2,1.2h-1.4c-1.9,0-2.8-0.9-2.8-2.8v-14.6h2.5v14.2
		c0,0.9,0.2,1.1,1.1,1.1h1.4c0.9,0,1.2-0.3,1.2-1.3v-14H1146.8z"/>
	<path class="st25" d="M1156.4,268.4v-1.9c0-0.9-0.2-1.1-1.1-1.1h-1.8c-0.9,0-1.1,0.2-1.1,1.1v11c0,0.9,0.2,1.1,1.1,1.1h1.8
		c0.9,0,1.1-0.2,1.1-1.1v-1.9h2.5v2.3c0,1.9-0.9,2.8-2.8,2.8h-3.3c-1.9,0-2.8-0.9-2.8-2.8v-11.8c0-1.9,0.9-2.8,2.8-2.8h3.3
		c1.9,0,2.8,0.9,2.8,2.8v2.3H1156.4z"/>
	<path class="st25" d="M1167.7,263.3c1.9,0,2.8,0.9,2.8,2.8v14.6h-2.5v-14.2c0-0.9-0.2-1.1-1.1-1.1h-1.4c-0.9,0-1.2,0.3-1.2,1.3v14
		h-2.5v-24.1h2.5v7.8c0.3-0.9,1-1.2,2-1.2H1167.7z"/>
	<path class="st25" d="M1187,263.3v17.5h-2.5v-1.2c-0.3,0.9-1,1.2-2,1.2h-1.4c-1.9,0-2.8-0.9-2.8-2.8v-11.8c0-1.9,0.9-2.8,2.8-2.8
		h1.4c1,0,1.7,0.3,2,1.2v-1.2H1187z M1183.3,278.6c0.9,0,1.2-0.3,1.2-1.3v-10.6c0-1-0.4-1.3-1.2-1.3h-1.4c-0.9,0-1.1,0.2-1.1,1.1v11
		c0,0.9,0.2,1.1,1.1,1.1H1183.3z"/>
	<path class="st25" d="M1195.6,274.2c0-0.9-0.2-1.1-1.1-1.1h-1.8c-1.9,0-2.8-0.9-2.8-2.8v-4.1c0-1.9,0.9-2.8,2.8-2.8h2.4
		c1.9,0,2.8,0.9,2.8,2.8v1.8h-2.4v-1.4c0-0.9-0.2-1.1-1.1-1.1h-1c-0.9,0-1.1,0.2-1.1,1.1v3.4c0,0.9,0.2,1.1,1.1,1.1h1.8
		c1.9,0,2.8,0.9,2.8,2.8v4c0,1.9-0.9,2.8-2.8,2.8h-2.4c-1.9,0-2.8-0.9-2.8-2.8v-1.8h2.4v1.4c0,0.9,0.2,1.1,1.1,1.1h1
		c0.9,0,1.1-0.2,1.1-1.1V274.2z"/>
	<path class="st25" d="M1208.2,265.4v11.9c0,0.9,0.2,1.1,1.1,1.1h1.4v2.3h-2.1c-1.9,0-2.8-0.9-2.8-2.8v-12.5h-1.6v-2.1h1.6v-2.8h2.5
		v2.8h2.5v2.1H1208.2z"/>
	<path class="st25" d="M1218.6,263.3c1.9,0,2.8,0.9,2.8,2.8v14.6h-2.5v-14.2c0-0.9-0.2-1.1-1.1-1.1h-1.4c-0.9,0-1.2,0.3-1.2,1.3v14
		h-2.5v-24.1h2.5v7.8c0.3-0.9,1-1.2,2-1.2H1218.6z"/>
	<path class="st25" d="M1230.8,263.3c1.9,0,2.8,0.9,2.8,2.8v6.7h-6.5v4.6c0,0.9,0.2,1.1,1.1,1.1h1.7c0.9,0,1.1-0.2,1.1-1.1v-1.6h2.5
		v2c0,1.9-0.9,2.8-2.8,2.8h-3.2c-1.9,0-2.8-0.9-2.8-2.8v-11.8c0-1.9,0.9-2.8,2.8-2.8H1230.8z M1231.2,270.7v-4.2
		c0-0.9-0.2-1.1-1.1-1.1h-1.8c-0.9,0-1.1,0.2-1.1,1.1v4.2H1231.2z"/>
	<path class="st25" d="M1249.8,263.3v17.5h-2.5v-1.2c-0.3,0.9-1,1.2-2,1.2h-1.4c-1.9,0-2.8-0.9-2.8-2.8v-11.8c0-1.9,0.9-2.8,2.8-2.8
		h1.4c1,0,1.7,0.3,2,1.2v-1.2H1249.8z M1246.1,278.6c0.9,0,1.2-0.3,1.2-1.3v-10.6c0-1-0.4-1.3-1.2-1.3h-1.4c-0.9,0-1.1,0.2-1.1,1.1
		v11c0,0.9,0.2,1.1,1.1,1.1H1246.1z"/>
	<path class="st25" d="M1258.4,274.2c0-0.9-0.2-1.1-1.1-1.1h-1.8c-1.9,0-2.8-0.9-2.8-2.8v-4.1c0-1.9,0.9-2.8,2.8-2.8h2.4
		c1.9,0,2.8,0.9,2.8,2.8v1.8h-2.4v-1.4c0-0.9-0.2-1.1-1.1-1.1h-1c-0.9,0-1.1,0.2-1.1,1.1v3.4c0,0.9,0.2,1.1,1.1,1.1h1.8
		c1.9,0,2.8,0.9,2.8,2.8v4c0,1.9-0.9,2.8-2.8,2.8h-2.4c-1.9,0-2.8-0.9-2.8-2.8v-1.8h2.4v1.4c0,0.9,0.2,1.1,1.1,1.1h1
		c0.9,0,1.1-0.2,1.1-1.1V274.2z"/>
	<path class="st25" d="M1266.4,265.4v11.9c0,0.9,0.2,1.1,1.1,1.1h1.4v2.3h-2.1c-1.9,0-2.8-0.9-2.8-2.8v-12.5h-1.6v-2.1h1.6v-2.8h2.5
		v2.8h2.5v2.1H1266.4z"/>
	<path class="st25" d="M1276.7,263.3v2.2h-1.1c-1.6,0-2.3,0.9-2.3,2.7v12.6h-2.5v-17.5h2.5v2c0.3-1,1.2-2,2.6-2H1276.7z"/>
	<path class="st25" d="M1284.8,263.3c1.9,0,2.8,0.9,2.8,2.8v11.8c0,1.9-0.9,2.8-2.8,2.8h-3.7c-1.9,0-2.8-0.9-2.8-2.8v-11.8
		c0-1.9,0.9-2.8,2.8-2.8H1284.8z M1285.2,266.5c0-0.9-0.2-1.1-1.1-1.1h-2.2c-0.9,0-1.1,0.2-1.1,1.1v11c0,0.9,0.2,1.1,1.1,1.1h2.2
		c0.9,0,1.1-0.2,1.1-1.1V266.5z"/>
	<path class="st25" d="M1296.6,263.3c1.9,0,2.8,0.9,2.8,2.8v14.6h-2.5v-14.2c0-0.9-0.2-1.1-1.1-1.1h-1.4c-0.9,0-1.2,0.3-1.2,1.3v14
		h-2.5v-17.5h2.5v1.2c0.3-0.9,1-1.2,2-1.2H1296.6z"/>
	<path class="st25" d="M1311.3,263.3v17.5h-2.5v-1.2c-0.3,0.9-1,1.2-2,1.2h-1.4c-1.9,0-2.8-0.9-2.8-2.8v-11.8c0-1.9,0.9-2.8,2.8-2.8
		h1.4c1,0,1.7,0.3,2,1.2v-1.2H1311.3z M1307.6,278.6c0.9,0,1.2-0.3,1.2-1.3v-10.6c0-1-0.4-1.3-1.2-1.3h-1.4c-0.9,0-1.1,0.2-1.1,1.1
		v11c0,0.9,0.2,1.1,1.1,1.1H1307.6z"/>
	<path class="st25" d="M1323.3,263.3v17.5h-2.5v-1.2c-0.3,0.9-1,1.2-2,1.2h-1.4c-1.9,0-2.8-0.9-2.8-2.8v-14.6h2.5v14.2
		c0,0.9,0.2,1.1,1.1,1.1h1.4c0.9,0,1.2-0.3,1.2-1.3v-14H1323.3z"/>
	<path class="st25" d="M1329.1,265.4v11.9c0,0.9,0.2,1.1,1.1,1.1h1.4v2.3h-2.1c-1.9,0-2.8-0.9-2.8-2.8v-12.5h-1.6v-2.1h1.6v-2.8h2.5
		v2.8h2.5v2.1H1329.1z"/>
	<path class="st25" d="M1344.2,263.3c1.9,0,2.8,0.9,2.8,2.8v11.8c0,1.9-0.9,2.8-2.8,2.8h-1.4c-1,0-1.7-0.3-2-1.2v6.3h-2.5v-22.5h2.5
		v1.2c0.3-0.9,1-1.2,2-1.2H1344.2z M1344.5,266.5c0-0.9-0.2-1.1-1.1-1.1h-1.4c-0.9,0-1.2,0.3-1.2,1.3v10.6c0,1,0.4,1.3,1.2,1.3h1.4
		c0.9,0,1.1-0.2,1.1-1.1V266.5z"/>
	<path class="st25" d="M1356,263.3c1.9,0,2.8,0.9,2.8,2.8v14.6h-2.5v-14.2c0-0.9-0.2-1.1-1.1-1.1h-1.4c-0.9,0-1.2,0.3-1.2,1.3v14
		h-2.5v-24.1h2.5v7.8c0.3-0.9,1-1.2,2-1.2H1356z"/>
	<path class="st25" d="M1363.3,263.3l2.8,15.7l2.6-15.7h2.5l-3.5,19.7c-0.4,1.9-1.5,2.8-3.4,2.8h-1.9v-2.1h1.2
		c0.9,0,1.6-0.2,1.8-1.1l0.4-1.8h-1.6l-3.3-17.5H1363.3z"/>
	<path class="st25" d="M1378.5,274.2c0-0.9-0.2-1.1-1.1-1.1h-1.8c-1.9,0-2.8-0.9-2.8-2.8v-4.1c0-1.9,0.9-2.8,2.8-2.8h2.4
		c1.9,0,2.8,0.9,2.8,2.8v1.8h-2.4v-1.4c0-0.9-0.2-1.1-1.1-1.1h-1c-0.9,0-1.1,0.2-1.1,1.1v3.4c0,0.9,0.2,1.1,1.1,1.1h1.8
		c1.9,0,2.8,0.9,2.8,2.8v4c0,1.9-0.9,2.8-2.8,2.8h-2.4c-1.9,0-2.8-0.9-2.8-2.8v-1.8h2.4v1.4c0,0.9,0.2,1.1,1.1,1.1h1
		c0.9,0,1.1-0.2,1.1-1.1V274.2z"/>
	<path class="st25" d="M1383.8,256.6h2.6v2.9h-2.6V256.6z M1383.9,280.7v-17.5h2.5v17.5H1383.9z"/>
	<path class="st25" d="M1395.9,268.4v-1.9c0-0.9-0.2-1.1-1.1-1.1h-1.8c-0.9,0-1.1,0.2-1.1,1.1v11c0,0.9,0.2,1.1,1.1,1.1h1.8
		c0.9,0,1.1-0.2,1.1-1.1v-1.9h2.5v2.3c0,1.9-0.9,2.8-2.8,2.8h-3.3c-1.9,0-2.8-0.9-2.8-2.8v-11.8c0-1.9,0.9-2.8,2.8-2.8h3.3
		c1.9,0,2.8,0.9,2.8,2.8v2.3H1395.9z"/>
	<path class="st25" d="M1409.9,263.3v17.5h-2.5v-1.2c-0.3,0.9-1,1.2-2,1.2h-1.4c-1.9,0-2.8-0.9-2.8-2.8v-11.8c0-1.9,0.9-2.8,2.8-2.8
		h1.4c1,0,1.7,0.3,2,1.2v-1.2H1409.9z M1406.2,278.6c0.9,0,1.2-0.3,1.2-1.3v-10.6c0-1-0.4-1.3-1.2-1.3h-1.4c-0.9,0-1.1,0.2-1.1,1.1
		v11c0,0.9,0.2,1.1,1.1,1.1H1406.2z"/>
	<path class="st25" d="M1413.1,280.7v-24.1h2.5v24.1H1413.1z"/>
	<path class="st25" d="M1421.2,276.7v2.1l-2,6.9h-1v-9H1421.2z"/>
	<path class="st25" d="M1431.3,265.4v11.9c0,0.9,0.2,1.1,1.1,1.1h1.4v2.3h-2.1c-1.9,0-2.8-0.9-2.8-2.8v-12.5h-1.6v-2.1h1.6v-2.8h2.5
		v2.8h2.5v2.1H1431.3z"/>
	<path class="st25" d="M1441.6,263.3c1.9,0,2.8,0.9,2.8,2.8v14.6h-2.5v-14.2c0-0.9-0.2-1.1-1.1-1.1h-1.4c-0.9,0-1.2,0.3-1.2,1.3v14
		h-2.5v-24.1h2.5v7.8c0.3-0.9,1-1.2,2-1.2H1441.6z"/>
	<path class="st25" d="M1447.6,256.6h2.6v2.9h-2.6V256.6z M1447.7,280.7v-17.5h2.5v17.5H1447.7z"/>
	<path class="st25" d="M1458.8,274.2c0-0.9-0.2-1.1-1.1-1.1h-1.8c-1.9,0-2.8-0.9-2.8-2.8v-4.1c0-1.9,0.9-2.8,2.8-2.8h2.4
		c1.9,0,2.8,0.9,2.8,2.8v1.8h-2.4v-1.4c0-0.9-0.2-1.1-1.1-1.1h-1c-0.9,0-1.1,0.2-1.1,1.1v3.4c0,0.9,0.2,1.1,1.1,1.1h1.8
		c1.9,0,2.8,0.9,2.8,2.8v4c0,1.9-0.9,2.8-2.8,2.8h-2.4c-1.9,0-2.8-0.9-2.8-2.8v-1.8h2.4v1.4c0,0.9,0.2,1.1,1.1,1.1h1
		c0.9,0,1.1-0.2,1.1-1.1V274.2z"/>
	<path class="st25" d="M1481,263.3c1.9,0,2.8,0.9,2.8,2.8v14.6h-2.5v-14.2c0-0.9-0.2-1.1-1.1-1.1h-1.4c-0.9,0-1.2,0.3-1.2,1.3v14
		h-2.5v-14.2c0-0.9-0.2-1.1-1.1-1.1h-1.4c-0.9,0-1.2,0.3-1.2,1.3v14h-2.5v-17.5h2.5v1.2c0.3-0.9,1-1.2,2-1.2h1.4
		c1.4,0,2.2,0.5,2.6,1.4c0.3-1,1.1-1.4,2.2-1.4H1481z"/>
	<path class="st25" d="M1495.4,263.3v17.5h-2.5v-1.2c-0.3,0.9-1,1.2-2,1.2h-1.4c-1.9,0-2.8-0.9-2.8-2.8v-11.8c0-1.9,0.9-2.8,2.8-2.8
		h1.4c1,0,1.7,0.3,2,1.2v-1.2H1495.4z M1491.7,278.6c0.9,0,1.2-0.3,1.2-1.3v-10.6c0-1-0.4-1.3-1.2-1.3h-1.4c-0.9,0-1.1,0.2-1.1,1.1
		v11c0,0.9,0.2,1.1,1.1,1.1H1491.7z"/>
	<path class="st25" d="M1498.7,256.6h2.5v24.1h-2.5V256.6z M1504.5,271.5l4.1,9.2h-2.7l-4-9.2l4-8.2h2.7L1504.5,271.5z"/>
	<path class="st25" d="M1516.5,263.3c1.9,0,2.8,0.9,2.8,2.8v6.7h-6.5v4.6c0,0.9,0.2,1.1,1.1,1.1h1.7c0.9,0,1.1-0.2,1.1-1.1v-1.6h2.5
		v2c0,1.9-0.9,2.8-2.8,2.8h-3.2c-1.9,0-2.8-0.9-2.8-2.8v-11.8c0-1.9,0.9-2.8,2.8-2.8H1516.5z M1516.9,270.7v-4.2
		c0-0.9-0.2-1.1-1.1-1.1h-1.8c-0.9,0-1.1,0.2-1.1,1.1v4.2H1516.9z"/>
	<path class="st25" d="M1527.6,274.2c0-0.9-0.2-1.1-1.1-1.1h-1.8c-1.9,0-2.8-0.9-2.8-2.8v-4.1c0-1.9,0.9-2.8,2.8-2.8h2.4
		c1.9,0,2.8,0.9,2.8,2.8v1.8h-2.4v-1.4c0-0.9-0.2-1.1-1.1-1.1h-1c-0.9,0-1.1,0.2-1.1,1.1v3.4c0,0.9,0.2,1.1,1.1,1.1h1.8
		c1.9,0,2.8,0.9,2.8,2.8v4c0,1.9-0.9,2.8-2.8,2.8h-2.4c-1.9,0-2.8-0.9-2.8-2.8v-1.8h2.4v1.4c0,0.9,0.2,1.1,1.1,1.1h1
		c0.9,0,1.1-0.2,1.1-1.1V274.2z"/>
	<path class="st25" d="M1543,274.2c0-0.9-0.2-1.1-1.1-1.1h-1.8c-1.9,0-2.8-0.9-2.8-2.8v-4.1c0-1.9,0.9-2.8,2.8-2.8h2.4
		c1.9,0,2.8,0.9,2.8,2.8v1.8h-2.4v-1.4c0-0.9-0.2-1.1-1.1-1.1h-1c-0.9,0-1.1,0.2-1.1,1.1v3.4c0,0.9,0.2,1.1,1.1,1.1h1.8
		c1.9,0,2.8,0.9,2.8,2.8v4c0,1.9-0.9,2.8-2.8,2.8h-2.4c-1.9,0-2.8-0.9-2.8-2.8v-1.8h2.4v1.4c0,0.9,0.2,1.1,1.1,1.1h1
		c0.9,0,1.1-0.2,1.1-1.1V274.2z"/>
	<path class="st25" d="M1557.1,263.3v17.5h-2.5v-1.2c-0.3,0.9-1,1.2-2,1.2h-1.4c-1.9,0-2.8-0.9-2.8-2.8v-14.6h2.5v14.2
		c0,0.9,0.2,1.1,1.1,1.1h1.4c0.9,0,1.2-0.3,1.2-1.3v-14H1557.1z"/>
	<path class="st25" d="M1566.1,263.3v2.2h-1.1c-1.6,0-2.3,0.9-2.3,2.7v12.6h-2.5v-17.5h2.5v2c0.3-1,1.2-2,2.6-2H1566.1z"/>
	<path class="st25" d="M1574.1,263.3c1.9,0,2.8,0.9,2.8,2.8v6.7h-6.5v4.6c0,0.9,0.2,1.1,1.1,1.1h1.7c0.9,0,1.1-0.2,1.1-1.1v-1.6h2.5
		v2c0,1.9-0.9,2.8-2.8,2.8h-3.2c-1.9,0-2.8-0.9-2.8-2.8v-11.8c0-1.9,0.9-2.8,2.8-2.8H1574.1z M1574.5,270.7v-4.2
		c0-0.9-0.2-1.1-1.1-1.1h-1.8c-0.9,0-1.1,0.2-1.1,1.1v4.2H1574.5z"/>
	<path class="st25" d="M1587.1,265.4v11.9c0,0.9,0.2,1.1,1.1,1.1h1.4v2.3h-2.1c-1.9,0-2.8-0.9-2.8-2.8v-12.5h-1.6v-2.1h1.6v-2.8h2.5
		v2.8h2.5v2.1H1587.1z"/>
	<path class="st25" d="M1597.5,263.3c1.9,0,2.8,0.9,2.8,2.8v14.6h-2.5v-14.2c0-0.9-0.2-1.1-1.1-1.1h-1.4c-0.9,0-1.2,0.3-1.2,1.3v14
		h-2.5v-24.1h2.5v7.8c0.3-0.9,1-1.2,2-1.2H1597.5z"/>
	<path class="st25" d="M1612.1,263.3v17.5h-2.5v-1.2c-0.3,0.9-1,1.2-2,1.2h-1.4c-1.9,0-2.8-0.9-2.8-2.8v-11.8c0-1.9,0.9-2.8,2.8-2.8
		h1.4c1,0,1.7,0.3,2,1.2v-1.2H1612.1z M1608.4,278.6c0.9,0,1.2-0.3,1.2-1.3v-10.6c0-1-0.4-1.3-1.2-1.3h-1.4c-0.9,0-1.1,0.2-1.1,1.1
		v11c0,0.9,0.2,1.1,1.1,1.1H1608.4z"/>
	<path class="st25" d="M1618,265.4v11.9c0,0.9,0.2,1.1,1.1,1.1h1.4v2.3h-2.1c-1.9,0-2.8-0.9-2.8-2.8v-12.5h-1.6v-2.1h1.6v-2.8h2.5
		v2.8h2.5v2.1H1618z"/>
	<path class="st25" d="M1629.8,265.4v11.9c0,0.9,0.2,1.1,1.1,1.1h1.4v2.3h-2.1c-1.9,0-2.8-0.9-2.8-2.8v-12.5h-1.6v-2.1h1.6v-2.8h2.5
		v2.8h2.5v2.1H1629.8z"/>
	<path class="st25" d="M1640.2,263.3c1.9,0,2.8,0.9,2.8,2.8v14.6h-2.5v-14.2c0-0.9-0.2-1.1-1.1-1.1h-1.4c-0.9,0-1.2,0.3-1.2,1.3v14
		h-2.5v-24.1h2.5v7.8c0.3-0.9,1-1.2,2-1.2H1640.2z"/>
	<path class="st25" d="M1652.4,263.3c1.9,0,2.8,0.9,2.8,2.8v6.7h-6.5v4.6c0,0.9,0.2,1.1,1.1,1.1h1.7c0.9,0,1.1-0.2,1.1-1.1v-1.6h2.5
		v2c0,1.9-0.9,2.8-2.8,2.8h-3.2c-1.9,0-2.8-0.9-2.8-2.8v-11.8c0-1.9,0.9-2.8,2.8-2.8H1652.4z M1652.8,270.7v-4.2
		c0-0.9-0.2-1.1-1.1-1.1h-1.8c-0.9,0-1.1,0.2-1.1,1.1v4.2H1652.8z"/>
	<path class="st25" d="M1671.8,256.6v24.1h-2.5v-15.3h-3.8v15.3h-2.5v-15.3h-1.7v-2.1h1.7v-3.8c0-1.9,0.9-2.8,2.8-2.8h1.5v2.3h-0.8
		c-0.9,0-1.1,0.2-1.1,1.1v3.2h3.8v-6.6H1671.8z"/>
	<path class="st25" d="M1675,256.6h2.6v2.9h-2.6V256.6z M1675.1,280.7v-17.5h2.5v17.5H1675.1z"/>
	<path class="st25" d="M1689.4,263.3V283c0,1.9-0.9,2.8-2.8,2.8h-5.4v-2.1h4.6c0.9,0,1.1-0.2,1.1-1.1v-3c-0.3,0.9-1,1.2-2,1.2h-1.4
		c-1.9,0-2.8-0.9-2.8-2.8v-11.8c0-1.9,0.9-2.8,2.8-2.8h1.4c1,0,1.7,0.3,2,1.2v-1.2H1689.4z M1685.7,278.6c0.9,0,1.2-0.3,1.2-1.3
		v-10.6c0-1-0.4-1.3-1.2-1.3h-1.4c-0.9,0-1.1,0.2-1.1,1.1v11c0,0.9,0.2,1.1,1.1,1.1H1685.7z"/>
	<path class="st25" d="M1698.5,263.3c1.9,0,2.8,0.9,2.8,2.8v14.6h-2.5v-14.2c0-0.9-0.2-1.1-1.1-1.1h-1.4c-0.9,0-1.2,0.3-1.2,1.3v14
		h-2.5v-24.1h2.5v7.8c0.3-0.9,1-1.2,2-1.2H1698.5z"/>
	<path class="st25" d="M1707.2,265.4v11.9c0,0.9,0.2,1.1,1.1,1.1h1.4v2.3h-2.1c-1.9,0-2.8-0.9-2.8-2.8v-12.5h-1.6v-2.1h1.6v-2.8h2.5
		v2.8h2.5v2.1H1707.2z"/>
	<path class="st25" d="M1722.7,268.4v-1.9c0-0.9-0.2-1.1-1.1-1.1h-1.8c-0.9,0-1.1,0.2-1.1,1.1v11c0,0.9,0.2,1.1,1.1,1.1h1.8
		c0.9,0,1.1-0.2,1.1-1.1v-1.9h2.5v2.3c0,1.9-0.9,2.8-2.8,2.8h-3.3c-1.9,0-2.8-0.9-2.8-2.8v-11.8c0-1.9,0.9-2.8,2.8-2.8h3.3
		c1.9,0,2.8,0.9,2.8,2.8v2.3H1722.7z"/>
	<path class="st25" d="M1736.6,263.3v17.5h-2.5v-1.2c-0.3,0.9-1,1.2-2,1.2h-1.4c-1.9,0-2.8-0.9-2.8-2.8v-11.8c0-1.9,0.9-2.8,2.8-2.8
		h1.4c1,0,1.7,0.3,2,1.2v-1.2H1736.6z M1732.9,278.6c0.9,0,1.2-0.3,1.2-1.3v-10.6c0-1-0.4-1.3-1.2-1.3h-1.4c-0.9,0-1.1,0.2-1.1,1.1
		v11c0,0.9,0.2,1.1,1.1,1.1H1732.9z"/>
	<path class="st25" d="M1745.8,263.3c1.9,0,2.8,0.9,2.8,2.8v14.6h-2.5v-14.2c0-0.9-0.2-1.1-1.1-1.1h-1.4c-0.9,0-1.2,0.3-1.2,1.3v14
		h-2.5v-17.5h2.5v1.2c0.3-0.9,1-1.2,2-1.2H1745.8z"/>
	<path class="st25" d="M1193.3,306.4c1.9,0,2.8,0.9,2.8,2.8v11.8c0,1.9-0.9,2.8-2.8,2.8h-1.4c-1,0-1.7-0.3-2-1.2v1.2h-2.5v-24.1h2.5
		v7.8c0.3-0.9,1-1.2,2-1.2H1193.3z M1193.7,309.7c0-0.9-0.2-1.1-1.1-1.1h-1.4c-0.9,0-1.2,0.3-1.2,1.3v10.7c0,1,0.4,1.3,1.2,1.3h1.4
		c0.9,0,1.1-0.2,1.1-1.1V309.7z"/>
	<path class="st25" d="M1205.4,306.5c1.9,0,2.8,0.9,2.8,2.8v6.7h-6.5v4.6c0,0.9,0.2,1.1,1.1,1.1h1.7c0.9,0,1.1-0.2,1.1-1.1v-1.6h2.5
		v2c0,1.9-0.9,2.8-2.8,2.8h-3.2c-1.9,0-2.8-0.9-2.8-2.8v-11.8c0-1.9,0.9-2.8,2.8-2.8H1205.4z M1205.8,313.9v-4.2
		c0-0.9-0.2-1.1-1.1-1.1h-1.8c-0.9,0-1.1,0.2-1.1,1.1v4.2H1205.8z"/>
	<path class="st25" d="M1222.1,311.6v-1.9c0-0.9-0.2-1.1-1.1-1.1h-1.8c-0.9,0-1.1,0.2-1.1,1.1v11c0,0.9,0.2,1.1,1.1,1.1h1.8
		c0.9,0,1.1-0.2,1.1-1.1v-1.9h2.5v2.3c0,1.9-0.9,2.8-2.8,2.8h-3.3c-1.9,0-2.8-0.9-2.8-2.8v-11.8c0-1.9,0.9-2.8,2.8-2.8h3.3
		c1.9,0,2.8,0.9,2.8,2.8v2.3H1222.1z"/>
	<path class="st25" d="M1233.8,306.5c1.9,0,2.8,0.9,2.8,2.8v11.8c0,1.9-0.9,2.8-2.8,2.8h-3.7c-1.9,0-2.8-0.9-2.8-2.8v-11.8
		c0-1.9,0.9-2.8,2.8-2.8H1233.8z M1234.2,309.7c0-0.9-0.2-1.1-1.1-1.1h-2.2c-0.9,0-1.1,0.2-1.1,1.1v11c0,0.9,0.2,1.1,1.1,1.1h2.2
		c0.9,0,1.1-0.2,1.1-1.1V309.7z"/>
	<path class="st25" d="M1251.9,306.5c1.9,0,2.8,0.9,2.8,2.8v14.6h-2.5v-14.2c0-0.9-0.2-1.1-1.1-1.1h-1.4c-0.9,0-1.2,0.3-1.2,1.3v14
		h-2.5v-14.2c0-0.9-0.2-1.1-1.1-1.1h-1.4c-0.9,0-1.2,0.3-1.2,1.3v14h-2.5v-17.5h2.5v1.2c0.3-0.9,1-1.2,2-1.2h1.4
		c1.4,0,2.2,0.5,2.6,1.4c0.3-1,1.1-1.4,2.2-1.4H1251.9z"/>
	<path class="st25" d="M1263.7,306.5c1.9,0,2.8,0.9,2.8,2.8v11.8c0,1.9-0.9,2.8-2.8,2.8h-1.4c-1,0-1.7-0.3-2-1.2v6.3h-2.5v-22.5h2.5
		v1.2c0.3-0.9,1-1.2,2-1.2H1263.7z M1264.1,309.7c0-0.9-0.2-1.1-1.1-1.1h-1.4c-0.9,0-1.2,0.3-1.2,1.3v10.6c0,1,0.4,1.3,1.2,1.3h1.4
		c0.9,0,1.1-0.2,1.1-1.1V309.7z"/>
	<path class="st25" d="M1269.6,323.9v-24.1h2.5v24.1H1269.6z"/>
	<path class="st25" d="M1281.5,306.5c1.9,0,2.8,0.9,2.8,2.8v6.7h-6.5v4.6c0,0.9,0.2,1.1,1.1,1.1h1.7c0.9,0,1.1-0.2,1.1-1.1v-1.6h2.5
		v2c0,1.9-0.9,2.8-2.8,2.8h-3.2c-1.9,0-2.8-0.9-2.8-2.8v-11.8c0-1.9,0.9-2.8,2.8-2.8H1281.5z M1281.9,313.9v-4.2
		c0-0.9-0.2-1.1-1.1-1.1h-1.8c-0.9,0-1.1,0.2-1.1,1.1v4.2H1281.9z"/>
	<path class="st25" d="M1289.8,308.6v11.9c0,0.9,0.2,1.1,1.1,1.1h1.4v2.3h-2.1c-1.9,0-2.8-0.9-2.8-2.8v-12.5h-1.6v-2.1h1.6v-2.8h2.5
		v2.8h2.5v2.1H1289.8z"/>
	<path class="st25" d="M1300.5,306.5c1.9,0,2.8,0.9,2.8,2.8v6.7h-6.5v4.6c0,0.9,0.2,1.1,1.1,1.1h1.7c0.9,0,1.1-0.2,1.1-1.1v-1.6h2.5
		v2c0,1.9-0.9,2.8-2.8,2.8h-3.2c-1.9,0-2.8-0.9-2.8-2.8v-11.8c0-1.9,0.9-2.8,2.8-2.8H1300.5z M1300.8,313.9v-4.2
		c0-0.9-0.2-1.1-1.1-1.1h-1.8c-0.9,0-1.1,0.2-1.1,1.1v4.2H1300.8z"/>
	<path class="st25" d="M1314.8,299.8v24.1h-2.5v-1.2c-0.3,0.9-1,1.2-2,1.2h-1.4c-1.9,0-2.8-0.9-2.8-2.8v-11.8c0-1.9,0.9-2.8,2.8-2.8
		h1.4c1,0,1.7,0.3,2,1.2v-7.8H1314.8z M1311.1,321.8c0.9,0,1.2-0.3,1.2-1.3v-10.7c0-1-0.4-1.3-1.2-1.3h-1.4c-0.9,0-1.1,0.2-1.1,1.1
		v11c0,0.9,0.2,1.1,1.1,1.1H1311.1z"/>
	<path class="st25" d="M1328,317.4c0-0.9-0.2-1.1-1.1-1.1h-1.8c-1.9,0-2.8-0.9-2.8-2.8v-4.1c0-1.9,0.9-2.8,2.8-2.8h2.4
		c1.9,0,2.8,0.9,2.8,2.8v1.8h-2.4v-1.4c0-0.9-0.2-1.1-1.1-1.1h-1c-0.9,0-1.1,0.2-1.1,1.1v3.4c0,0.9,0.2,1.1,1.1,1.1h1.8
		c1.9,0,2.8,0.9,2.8,2.8v4c0,1.9-0.9,2.8-2.8,2.8h-2.4c-1.9,0-2.8-0.9-2.8-2.8v-1.8h2.4v1.4c0,0.9,0.2,1.1,1.1,1.1h1
		c0.9,0,1.1-0.2,1.1-1.1V317.4z"/>
	<path class="st25" d="M1341.9,306.5v17.5h-2.5v-1.2c-0.3,0.9-1,1.2-2,1.2h-1.4c-1.9,0-2.8-0.9-2.8-2.8v-11.8c0-1.9,0.9-2.8,2.8-2.8
		h1.4c1,0,1.7,0.3,2,1.2v-1.2H1341.9z M1338.2,321.8c0.9,0,1.2-0.3,1.2-1.3v-10.6c0-1-0.4-1.3-1.2-1.3h-1.4c-0.9,0-1.1,0.2-1.1,1.1
		v11c0,0.9,0.2,1.1,1.1,1.1H1338.2z"/>
	<path class="st25" d="M1349.1,302.1c-0.9,0-1.1,0.2-1.1,1.1v3.2h2.5v2.1h-2.5v15.3h-2.5v-15.3h-1.7v-2.1h1.7v-3.8
		c0-1.9,0.9-2.8,2.8-2.8h2.2v2.3H1349.1z"/>
	<path class="st25" d="M1358.4,306.5c1.9,0,2.8,0.9,2.8,2.8v6.7h-6.5v4.6c0,0.9,0.2,1.1,1.1,1.1h1.7c0.9,0,1.1-0.2,1.1-1.1v-1.6h2.5
		v2c0,1.9-0.9,2.8-2.8,2.8h-3.2c-1.9,0-2.8-0.9-2.8-2.8v-11.8c0-1.9,0.9-2.8,2.8-2.8H1358.4z M1358.8,313.9v-4.2
		c0-0.9-0.2-1.1-1.1-1.1h-1.8c-0.9,0-1.1,0.2-1.1,1.1v4.2H1358.8z"/>
	<path class="st25" d="M1364.2,323.9v-24.1h2.5v24.1H1364.2z"/>
	<path class="st25" d="M1371.1,306.5l2.8,15.7l2.6-15.7h2.5l-3.5,19.7c-0.4,1.9-1.5,2.8-3.4,2.8h-1.9v-2.1h1.2
		c0.9,0,1.6-0.2,1.8-1.1l0.4-1.8h-1.6l-3.3-17.5H1371.1z"/>
	<path class="st25" d="M1391.8,306.5c1.9,0,2.8,0.9,2.8,2.8v6.7h-6.5v4.6c0,0.9,0.2,1.1,1.1,1.1h1.7c0.9,0,1.1-0.2,1.1-1.1v-1.6h2.5
		v2c0,1.9-0.9,2.8-2.8,2.8h-3.2c-1.9,0-2.8-0.9-2.8-2.8v-11.8c0-1.9,0.9-2.8,2.8-2.8H1391.8z M1392.2,313.9v-4.2
		c0-0.9-0.2-1.1-1.1-1.1h-1.8c-0.9,0-1.1,0.2-1.1,1.1v4.2H1392.2z"/>
	<path class="st25" d="M1400.9,322.2l2.4-15.7h2.5l-2.9,17.5h-3.9l-2.9-17.5h2.5L1400.9,322.2z"/>
	<path class="st25" d="M1413.8,306.5c1.9,0,2.8,0.9,2.8,2.8v6.7h-6.5v4.6c0,0.9,0.2,1.1,1.1,1.1h1.7c0.9,0,1.1-0.2,1.1-1.1v-1.6h2.5
		v2c0,1.9-0.9,2.8-2.8,2.8h-3.2c-1.9,0-2.8-0.9-2.8-2.8v-11.8c0-1.9,0.9-2.8,2.8-2.8H1413.8z M1414.1,313.9v-4.2
		c0-0.9-0.2-1.1-1.1-1.1h-1.8c-0.9,0-1.1,0.2-1.1,1.1v4.2H1414.1z"/>
	<path class="st25" d="M1425.4,306.5c1.9,0,2.8,0.9,2.8,2.8v14.6h-2.5v-14.2c0-0.9-0.2-1.1-1.1-1.1h-1.4c-0.9,0-1.2,0.3-1.2,1.3v14
		h-2.5v-17.5h2.5v1.2c0.3-0.9,1-1.2,2-1.2H1425.4z"/>
	<path class="st25" d="M1436.1,299.8h2.6v2.9h-2.6V299.8z M1436.2,323.9v-17.5h2.5v17.5H1436.2z"/>
	<path class="st25" d="M1447.8,306.5c1.9,0,2.8,0.9,2.8,2.8v14.6h-2.5v-14.2c0-0.9-0.2-1.1-1.1-1.1h-1.4c-0.9,0-1.2,0.3-1.2,1.3v14
		h-2.5v-17.5h2.5v1.2c0.3-0.9,1-1.2,2-1.2H1447.8z"/>
	<path class="st25" d="M1461.2,308.6v11.9c0,0.9,0.2,1.1,1.1,1.1h1.4v2.3h-2.1c-1.9,0-2.8-0.9-2.8-2.8v-12.5h-1.6v-2.1h1.6v-2.8h2.5
		v2.8h2.5v2.1H1461.2z"/>
	<path class="st25" d="M1471.5,306.5c1.9,0,2.8,0.9,2.8,2.8v14.6h-2.5v-14.2c0-0.9-0.2-1.1-1.1-1.1h-1.4c-0.9,0-1.2,0.3-1.2,1.3v14
		h-2.5v-24.1h2.5v7.8c0.3-0.9,1-1.2,2-1.2H1471.5z"/>
	<path class="st25" d="M1483.8,306.5c1.9,0,2.8,0.9,2.8,2.8v6.7h-6.5v4.6c0,0.9,0.2,1.1,1.1,1.1h1.7c0.9,0,1.1-0.2,1.1-1.1v-1.6h2.5
		v2c0,1.9-0.9,2.8-2.8,2.8h-3.2c-1.9,0-2.8-0.9-2.8-2.8v-11.8c0-1.9,0.9-2.8,2.8-2.8H1483.8z M1484.1,313.9v-4.2
		c0-0.9-0.2-1.1-1.1-1.1h-1.8c-0.9,0-1.1,0.2-1.1,1.1v4.2H1484.1z"/>
	<path class="st25" d="M1500.3,306.5c1.9,0,2.8,0.9,2.8,2.8v6.7h-6.5v4.6c0,0.9,0.2,1.1,1.1,1.1h1.7c0.9,0,1.1-0.2,1.1-1.1v-1.6h2.5
		v2c0,1.9-0.9,2.8-2.8,2.8h-3.2c-1.9,0-2.8-0.9-2.8-2.8v-11.8c0-1.9,0.9-2.8,2.8-2.8H1500.3z M1500.7,313.9v-4.2
		c0-0.9-0.2-1.1-1.1-1.1h-1.8c-0.9,0-1.1,0.2-1.1,1.1v4.2H1500.7z"/>
	<path class="st25" d="M1509.4,322.2l2.4-15.7h2.5l-2.9,17.5h-3.9l-2.9-17.5h2.5L1509.4,322.2z"/>
	<path class="st25" d="M1522.3,306.5c1.9,0,2.8,0.9,2.8,2.8v6.7h-6.5v4.6c0,0.9,0.2,1.1,1.1,1.1h1.7c0.9,0,1.1-0.2,1.1-1.1v-1.6h2.5
		v2c0,1.9-0.9,2.8-2.8,2.8h-3.2c-1.9,0-2.8-0.9-2.8-2.8v-11.8c0-1.9,0.9-2.8,2.8-2.8H1522.3z M1522.6,313.9v-4.2
		c0-0.9-0.2-1.1-1.1-1.1h-1.8c-0.9,0-1.1,0.2-1.1,1.1v4.2H1522.6z"/>
	<path class="st25" d="M1533.9,306.5c1.9,0,2.8,0.9,2.8,2.8v14.6h-2.5v-14.2c0-0.9-0.2-1.1-1.1-1.1h-1.4c-0.9,0-1.2,0.3-1.2,1.3v14
		h-2.5v-17.5h2.5v1.2c0.3-0.9,1-1.2,2-1.2H1533.9z"/>
	<path class="st25" d="M1542.6,308.6v11.9c0,0.9,0.2,1.1,1.1,1.1h1.4v2.3h-2.1c-1.9,0-2.8-0.9-2.8-2.8v-12.5h-1.6v-2.1h1.6v-2.8h2.5
		v2.8h2.5v2.1H1542.6z"/>
	<path class="st25" d="M1558.1,306.5c1.9,0,2.8,0.9,2.8,2.8v11.8c0,1.9-0.9,2.8-2.8,2.8h-3.7c-1.9,0-2.8-0.9-2.8-2.8v-11.8
		c0-1.9,0.9-2.8,2.8-2.8H1558.1z M1558.5,309.7c0-0.9-0.2-1.1-1.1-1.1h-2.2c-0.9,0-1.1,0.2-1.1,1.1v11c0,0.9,0.2,1.1,1.1,1.1h2.2
		c0.9,0,1.1-0.2,1.1-1.1V309.7z"/>
	<path class="st25" d="M1567.9,302.1c-0.9,0-1.1,0.2-1.1,1.1v3.2h2.5v2.1h-2.5v15.3h-2.5v-15.3h-1.7v-2.1h1.7v-3.8
		c0-1.9,0.9-2.8,2.8-2.8h2.2v2.3H1567.9z"/>
	<path class="st25" d="M1582.1,306.5c1.9,0,2.8,0.9,2.8,2.8v11.8c0,1.9-0.9,2.8-2.8,2.8h-3.7c-1.9,0-2.8-0.9-2.8-2.8v-11.8
		c0-1.9,0.9-2.8,2.8-2.8H1582.1z M1582.5,309.7c0-0.9-0.2-1.1-1.1-1.1h-2.2c-0.9,0-1.1,0.2-1.1,1.1v11c0,0.9,0.2,1.1,1.1,1.1h2.2
		c0.9,0,1.1-0.2,1.1-1.1V309.7z"/>
	<path class="st25" d="M1596.7,306.5v17.5h-2.5v-1.2c-0.3,0.9-1,1.2-2,1.2h-1.4c-1.9,0-2.8-0.9-2.8-2.8v-14.6h2.5v14.2
		c0,0.9,0.2,1.1,1.1,1.1h1.4c0.9,0,1.2-0.3,1.2-1.3v-14H1596.7z"/>
	<path class="st25" d="M1605.8,306.5v2.2h-1.1c-1.6,0-2.3,0.9-2.3,2.7v12.6h-2.5v-17.5h2.5v2c0.3-1,1.2-2,2.6-2H1605.8z"/>
	<path class="st25" d="M1618.6,306.5c1.9,0,2.8,0.9,2.8,2.8v11.8c0,1.9-0.9,2.8-2.8,2.8h-3.7c-1.9,0-2.8-0.9-2.8-2.8v-11.8
		c0-1.9,0.9-2.8,2.8-2.8H1618.6z M1619,309.7c0-0.9-0.2-1.1-1.1-1.1h-2.2c-0.9,0-1.1,0.2-1.1,1.1v11c0,0.9,0.2,1.1,1.1,1.1h2.2
		c0.9,0,1.1-0.2,1.1-1.1V309.7z"/>
	<path class="st25" d="M1630.4,306.5c1.9,0,2.8,0.9,2.8,2.8v14.6h-2.5v-14.2c0-0.9-0.2-1.1-1.1-1.1h-1.4c-0.9,0-1.2,0.3-1.2,1.3v14
		h-2.5v-17.5h2.5v1.2c0.3-0.9,1-1.2,2-1.2H1630.4z"/>
	<path class="st25" d="M1642.4,306.4c1.9,0,2.8,0.9,2.8,2.8v11.8c0,1.9-0.9,2.8-2.8,2.8h-1.4c-1,0-1.7-0.3-2-1.2v1.2h-2.5v-24.1h2.5
		v7.8c0.3-0.9,1-1.2,2-1.2H1642.4z M1642.8,309.7c0-0.9-0.2-1.1-1.1-1.1h-1.4c-0.9,0-1.2,0.3-1.2,1.3v10.7c0,1,0.4,1.3,1.2,1.3h1.4
		c0.9,0,1.1-0.2,1.1-1.1V309.7z"/>
	<path class="st25" d="M1654.7,306.5c1.9,0,2.8,0.9,2.8,2.8v11.8c0,1.9-0.9,2.8-2.8,2.8h-3.7c-1.9,0-2.8-0.9-2.8-2.8v-11.8
		c0-1.9,0.9-2.8,2.8-2.8H1654.7z M1655.1,309.7c0-0.9-0.2-1.1-1.1-1.1h-2.2c-0.9,0-1.1,0.2-1.1,1.1v11c0,0.9,0.2,1.1,1.1,1.1h2.2
		c0.9,0,1.1-0.2,1.1-1.1V309.7z"/>
	<path class="st25" d="M1669.1,306.5v17.5h-2.5v-1.2c-0.3,0.9-1,1.2-2,1.2h-1.4c-1.9,0-2.8-0.9-2.8-2.8v-11.8c0-1.9,0.9-2.8,2.8-2.8
		h1.4c1,0,1.7,0.3,2,1.2v-1.2H1669.1z M1665.4,321.8c0.9,0,1.2-0.3,1.2-1.3v-10.6c0-1-0.4-1.3-1.2-1.3h-1.4c-0.9,0-1.1,0.2-1.1,1.1
		v11c0,0.9,0.2,1.1,1.1,1.1H1665.4z"/>
	<path class="st25" d="M1678.2,306.5v2.2h-1.1c-1.6,0-2.3,0.9-2.3,2.7v12.6h-2.5v-17.5h2.5v2c0.3-1,1.2-2,2.6-2H1678.2z"/>
	<path class="st25" d="M1688.6,299.8v24.1h-2.5v-1.2c-0.3,0.9-1,1.2-2,1.2h-1.4c-1.9,0-2.8-0.9-2.8-2.8v-11.8c0-1.9,0.9-2.8,2.8-2.8
		h1.4c1,0,1.7,0.3,2,1.2v-7.8H1688.6z M1684.9,321.8c0.9,0,1.2-0.3,1.2-1.3v-10.7c0-1-0.4-1.3-1.2-1.3h-1.4c-0.9,0-1.1,0.2-1.1,1.1
		v11c0,0.9,0.2,1.1,1.1,1.1H1684.9z"/>
	<path class="st25" d="M1202.6,354.8v-1.9c0-0.9-0.2-1.1-1.1-1.1h-1.8c-0.9,0-1.1,0.2-1.1,1.1v11c0,0.9,0.2,1.1,1.1,1.1h1.8
		c0.9,0,1.1-0.2,1.1-1.1v-1.9h2.5v2.3c0,1.9-0.9,2.8-2.8,2.8h-3.3c-1.9,0-2.8-0.9-2.8-2.8v-11.8c0-1.9,0.9-2.8,2.8-2.8h3.3
		c1.9,0,2.8,0.9,2.8,2.8v2.3H1202.6z"/>
	<path class="st25" d="M1213.9,349.7c1.9,0,2.8,0.9,2.8,2.8v14.6h-2.5v-14.2c0-0.9-0.2-1.1-1.1-1.1h-1.4c-0.9,0-1.2,0.3-1.2,1.3v14
		h-2.5V343h2.5v7.8c0.3-0.9,1-1.2,2-1.2H1213.9z"/>
	<path class="st25" d="M1228.5,349.7v17.5h-2.5v-1.2c-0.3,0.9-1,1.2-2,1.2h-1.4c-1.9,0-2.8-0.9-2.8-2.8v-11.8c0-1.9,0.9-2.8,2.8-2.8
		h1.4c1,0,1.7,0.3,2,1.2v-1.2H1228.5z M1224.8,365c0.9,0,1.2-0.3,1.2-1.3v-10.6c0-1-0.4-1.3-1.2-1.3h-1.4c-0.9,0-1.1,0.2-1.1,1.1v11
		c0,0.9,0.2,1.1,1.1,1.1H1224.8z"/>
	<path class="st25" d="M1237.7,349.7c1.9,0,2.8,0.9,2.8,2.8v11.8c0,1.9-0.9,2.8-2.8,2.8h-1.4c-1,0-1.7-0.3-2-1.2v6.3h-2.5v-22.5h2.5
		v1.2c0.3-0.9,1-1.2,2-1.2H1237.7z M1238,352.9c0-0.9-0.2-1.1-1.1-1.1h-1.4c-0.9,0-1.2,0.3-1.2,1.3v10.6c0,1,0.4,1.3,1.2,1.3h1.4
		c0.9,0,1.1-0.2,1.1-1.1V352.9z"/>
	<path class="st25" d="M1249.7,349.7c1.9,0,2.8,0.9,2.8,2.8v6.7h-6.5v4.6c0,0.9,0.2,1.1,1.1,1.1h1.7c0.9,0,1.1-0.2,1.1-1.1v-1.6h2.5
		v2c0,1.9-0.9,2.8-2.8,2.8h-3.2c-1.9,0-2.8-0.9-2.8-2.8v-11.8c0-1.9,0.9-2.8,2.8-2.8H1249.7z M1250.1,357.1v-4.2
		c0-0.9-0.2-1.1-1.1-1.1h-1.8c-0.9,0-1.1,0.2-1.1,1.1v4.2H1250.1z"/>
	<path class="st25" d="M1261.3,349.7v2.2h-1.1c-1.6,0-2.3,0.9-2.3,2.7v12.6h-2.5v-17.5h2.5v2c0.3-1,1.2-2,2.6-2H1261.3z"/>
	<path class="st25" d="M1269.4,349.7c1.9,0,2.8,0.9,2.8,2.8v11.8c0,1.9-0.9,2.8-2.8,2.8h-3.7c-1.9,0-2.8-0.9-2.8-2.8v-11.8
		c0-1.9,0.9-2.8,2.8-2.8H1269.4z M1269.8,352.9c0-0.9-0.2-1.1-1.1-1.1h-2.2c-0.9,0-1.1,0.2-1.1,1.1v11c0,0.9,0.2,1.1,1.1,1.1h2.2
		c0.9,0,1.1-0.2,1.1-1.1V352.9z"/>
	<path class="st25" d="M1281.2,349.7c1.9,0,2.8,0.9,2.8,2.8v14.6h-2.5v-14.2c0-0.9-0.2-1.1-1.1-1.1h-1.4c-0.9,0-1.2,0.3-1.2,1.3v14
		h-2.5v-17.5h2.5v1.2c0.3-0.9,1-1.2,2-1.2H1281.2z"/>
	<path class="st25" d="M1293.5,349.7c1.9,0,2.8,0.9,2.8,2.8v6.7h-6.5v4.6c0,0.9,0.2,1.1,1.1,1.1h1.7c0.9,0,1.1-0.2,1.1-1.1v-1.6h2.5
		v2c0,1.9-0.9,2.8-2.8,2.8h-3.2c-1.9,0-2.8-0.9-2.8-2.8v-11.8c0-1.9,0.9-2.8,2.8-2.8H1293.5z M1293.8,357.1v-4.2
		c0-0.9-0.2-1.1-1.1-1.1h-1.8c-0.9,0-1.1,0.2-1.1,1.1v4.2H1293.8z"/>
	<path class="st25" d="M1309.8,349.6c1.9,0,2.8,0.9,2.8,2.8v11.8c0,1.9-0.9,2.8-2.8,2.8h-1.4c-1,0-1.7-0.3-2-1.2v1.2h-2.5V343h2.5
		v7.8c0.3-0.9,1-1.2,2-1.2H1309.8z M1310.1,352.9c0-0.9-0.2-1.1-1.1-1.1h-1.4c-0.9,0-1.2,0.3-1.2,1.3v10.7c0,1,0.4,1.3,1.2,1.3h1.4
		c0.9,0,1.1-0.2,1.1-1.1V352.9z"/>
	<path class="st25" d="M1321.8,349.7c1.9,0,2.8,0.9,2.8,2.8v6.7h-6.5v4.6c0,0.9,0.2,1.1,1.1,1.1h1.7c0.9,0,1.1-0.2,1.1-1.1v-1.6h2.5
		v2c0,1.9-0.9,2.8-2.8,2.8h-3.2c-1.9,0-2.8-0.9-2.8-2.8v-11.8c0-1.9,0.9-2.8,2.8-2.8H1321.8z M1322.2,357.1v-4.2
		c0-0.9-0.2-1.1-1.1-1.1h-1.8c-0.9,0-1.1,0.2-1.1,1.1v4.2H1322.2z"/>
	<path class="st25" d="M1333.9,354.8v-1.9c0-0.9-0.2-1.1-1.1-1.1h-1.8c-0.9,0-1.1,0.2-1.1,1.1v11c0,0.9,0.2,1.1,1.1,1.1h1.8
		c0.9,0,1.1-0.2,1.1-1.1v-1.9h2.5v2.3c0,1.9-0.9,2.8-2.8,2.8h-3.3c-1.9,0-2.8-0.9-2.8-2.8v-11.8c0-1.9,0.9-2.8,2.8-2.8h3.3
		c1.9,0,2.8,0.9,2.8,2.8v2.3H1333.9z"/>
	<path class="st25" d="M1345.6,349.7c1.9,0,2.8,0.9,2.8,2.8v11.8c0,1.9-0.9,2.8-2.8,2.8h-3.7c-1.9,0-2.8-0.9-2.8-2.8v-11.8
		c0-1.9,0.9-2.8,2.8-2.8H1345.6z M1346,352.9c0-0.9-0.2-1.1-1.1-1.1h-2.2c-0.9,0-1.1,0.2-1.1,1.1v11c0,0.9,0.2,1.1,1.1,1.1h2.2
		c0.9,0,1.1-0.2,1.1-1.1V352.9z"/>
	<path class="st25" d="M1363.7,349.7c1.9,0,2.8,0.9,2.8,2.8v14.6h-2.5v-14.2c0-0.9-0.2-1.1-1.1-1.1h-1.4c-0.9,0-1.2,0.3-1.2,1.3v14
		h-2.5v-14.2c0-0.9-0.2-1.1-1.1-1.1h-1.4c-0.9,0-1.2,0.3-1.2,1.3v14h-2.5v-17.5h2.5v1.2c0.3-0.9,1-1.2,2-1.2h1.4
		c1.4,0,2.2,0.5,2.6,1.4c0.3-1,1.1-1.4,2.2-1.4H1363.7z"/>
	<path class="st25" d="M1369.5,343h2.6v2.9h-2.6V343z M1369.6,367.1v-17.5h2.5v17.5H1369.6z"/>
	<path class="st25" d="M1381.2,349.7c1.9,0,2.8,0.9,2.8,2.8v14.6h-2.5v-14.2c0-0.9-0.2-1.1-1.1-1.1h-1.4c-0.9,0-1.2,0.3-1.2,1.3v14
		h-2.5v-17.5h2.5v1.2c0.3-0.9,1-1.2,2-1.2H1381.2z"/>
	<path class="st25" d="M1395.8,349.7v19.7c0,1.9-0.9,2.8-2.8,2.8h-5.4v-2.1h4.6c0.9,0,1.1-0.2,1.1-1.1v-3c-0.3,0.9-1,1.2-2,1.2h-1.4
		c-1.9,0-2.8-0.9-2.8-2.8v-11.8c0-1.9,0.9-2.8,2.8-2.8h1.4c1,0,1.7,0.3,2,1.2v-1.2H1395.8z M1392.1,365c0.9,0,1.2-0.3,1.2-1.3v-10.6
		c0-1-0.4-1.3-1.2-1.3h-1.4c-0.9,0-1.1,0.2-1.1,1.1v11c0,0.9,0.2,1.1,1.1,1.1H1392.1z"/>
	<path class="st25" d="M1403.7,343h2.6v2.9h-2.6V343z M1403.8,367.1v-17.5h2.5v17.5H1403.8z"/>
	<path class="st25" d="M1415.4,349.7c1.9,0,2.8,0.9,2.8,2.8v14.6h-2.5v-14.2c0-0.9-0.2-1.1-1.1-1.1h-1.4c-0.9,0-1.2,0.3-1.2,1.3v14
		h-2.5v-17.5h2.5v1.2c0.3-0.9,1-1.2,2-1.2H1415.4z"/>
	<path class="st25" d="M1427.8,354.8v-1.9c0-0.9-0.2-1.1-1.1-1.1h-1.8c-0.9,0-1.1,0.2-1.1,1.1v11c0,0.9,0.2,1.1,1.1,1.1h1.8
		c0.9,0,1.1-0.2,1.1-1.1v-1.9h2.5v2.3c0,1.9-0.9,2.8-2.8,2.8h-3.3c-1.9,0-2.8-0.9-2.8-2.8v-11.8c0-1.9,0.9-2.8,2.8-2.8h3.3
		c1.9,0,2.8,0.9,2.8,2.8v2.3H1427.8z"/>
	<path class="st25" d="M1441.7,349.7v17.5h-2.5v-1.2c-0.3,0.9-1,1.2-2,1.2h-1.4c-1.9,0-2.8-0.9-2.8-2.8v-11.8c0-1.9,0.9-2.8,2.8-2.8
		h1.4c1,0,1.7,0.3,2,1.2v-1.2H1441.7z M1438,365c0.9,0,1.2-0.3,1.2-1.3v-10.6c0-1-0.4-1.3-1.2-1.3h-1.4c-0.9,0-1.1,0.2-1.1,1.1v11
		c0,0.9,0.2,1.1,1.1,1.1H1438z"/>
	<path class="st25" d="M1450.9,349.7c1.9,0,2.8,0.9,2.8,2.8v11.8c0,1.9-0.9,2.8-2.8,2.8h-1.4c-1,0-1.7-0.3-2-1.2v6.3h-2.5v-22.5h2.5
		v1.2c0.3-0.9,1-1.2,2-1.2H1450.9z M1451.2,352.9c0-0.9-0.2-1.1-1.1-1.1h-1.4c-0.9,0-1.2,0.3-1.2,1.3v10.6c0,1,0.4,1.3,1.2,1.3h1.4
		c0.9,0,1.1-0.2,1.1-1.1V352.9z"/>
	<path class="st25" d="M1465.4,349.7v17.5h-2.5v-1.2c-0.3,0.9-1,1.2-2,1.2h-1.4c-1.9,0-2.8-0.9-2.8-2.8v-11.8c0-1.9,0.9-2.8,2.8-2.8
		h1.4c1,0,1.7,0.3,2,1.2v-1.2H1465.4z M1461.7,365c0.9,0,1.2-0.3,1.2-1.3v-10.6c0-1-0.4-1.3-1.2-1.3h-1.4c-0.9,0-1.1,0.2-1.1,1.1v11
		c0,0.9,0.2,1.1,1.1,1.1H1461.7z"/>
	<path class="st25" d="M1474.9,354.8v-1.9c0-0.9-0.2-1.1-1.1-1.1h-1.8c-0.9,0-1.1,0.2-1.1,1.1v11c0,0.9,0.2,1.1,1.1,1.1h1.8
		c0.9,0,1.1-0.2,1.1-1.1v-1.9h2.5v2.3c0,1.9-0.9,2.8-2.8,2.8h-3.3c-1.9,0-2.8-0.9-2.8-2.8v-11.8c0-1.9,0.9-2.8,2.8-2.8h3.3
		c1.9,0,2.8,0.9,2.8,2.8v2.3H1474.9z"/>
	<path class="st25" d="M1480.2,343h2.6v2.9h-2.6V343z M1480.3,367.1v-17.5h2.5v17.5H1480.3z"/>
	<path class="st25" d="M1488.7,351.8v11.9c0,0.9,0.2,1.1,1.1,1.1h1.4v2.3h-2.1c-1.9,0-2.8-0.9-2.8-2.8v-12.5h-1.6v-2.1h1.6v-2.8h2.5
		v2.8h2.5v2.1H1488.7z"/>
	<path class="st25" d="M1501.7,349.7v17.5h-2.5v-1.2c-0.3,0.9-1,1.2-2,1.2h-1.4c-1.9,0-2.8-0.9-2.8-2.8v-11.8c0-1.9,0.9-2.8,2.8-2.8
		h1.4c1,0,1.7,0.3,2,1.2v-1.2H1501.7z M1498,365c0.9,0,1.2-0.3,1.2-1.3v-10.6c0-1-0.4-1.3-1.2-1.3h-1.4c-0.9,0-1.1,0.2-1.1,1.1v11
		c0,0.9,0.2,1.1,1.1,1.1H1498z"/>
	<path class="st25" d="M1507.6,351.8v11.9c0,0.9,0.2,1.1,1.1,1.1h1.4v2.3h-2.1c-1.9,0-2.8-0.9-2.8-2.8v-12.5h-1.6v-2.1h1.6v-2.8h2.5
		v2.8h2.5v2.1H1507.6z"/>
	<path class="st25" d="M1518.2,349.7c1.9,0,2.8,0.9,2.8,2.8v6.7h-6.5v4.6c0,0.9,0.2,1.1,1.1,1.1h1.7c0.9,0,1.1-0.2,1.1-1.1v-1.6h2.5
		v2c0,1.9-0.9,2.8-2.8,2.8h-3.2c-1.9,0-2.8-0.9-2.8-2.8v-11.8c0-1.9,0.9-2.8,2.8-2.8H1518.2z M1518.5,357.1v-4.2
		c0-0.9-0.2-1.1-1.1-1.1h-1.8c-0.9,0-1.1,0.2-1.1,1.1v4.2H1518.5z"/>
	<path class="st25" d="M1532.5,343v24.1h-2.5v-1.2c-0.3,0.9-1,1.2-2,1.2h-1.4c-1.9,0-2.8-0.9-2.8-2.8v-11.8c0-1.9,0.9-2.8,2.8-2.8
		h1.4c1,0,1.7,0.3,2,1.2V343H1532.5z M1528.8,365c0.9,0,1.2-0.3,1.2-1.3V353c0-1-0.4-1.3-1.2-1.3h-1.4c-0.9,0-1.1,0.2-1.1,1.1v11
		c0,0.9,0.2,1.1,1.1,1.1H1528.8z"/>
	<path class="st25" d="M1544.3,345.3c-0.9,0-1.1,0.2-1.1,1.1v3.2h2.5v2.1h-2.5v15.3h-2.5v-15.3h-1.7v-2.1h1.7v-3.8
		c0-1.9,0.9-2.8,2.8-2.8h2.2v2.3H1544.3z"/>
	<path class="st25" d="M1553.8,349.7c1.9,0,2.8,0.9,2.8,2.8v11.8c0,1.9-0.9,2.8-2.8,2.8h-3.7c-1.9,0-2.8-0.9-2.8-2.8v-11.8
		c0-1.9,0.9-2.8,2.8-2.8H1553.8z M1554.2,352.9c0-0.9-0.2-1.1-1.1-1.1h-2.2c-0.9,0-1.1,0.2-1.1,1.1v11c0,0.9,0.2,1.1,1.1,1.1h2.2
		c0.9,0,1.1-0.2,1.1-1.1V352.9z"/>
	<path class="st25" d="M1565.5,349.7v2.2h-1.1c-1.6,0-2.3,0.9-2.3,2.7v12.6h-2.5v-17.5h2.5v2c0.3-1,1.2-2,2.6-2H1565.5z"/>
	<path class="st25" d="M1580.6,349.7v17.5h-2.5v-1.2c-0.3,0.9-1,1.2-2,1.2h-1.4c-1.9,0-2.8-0.9-2.8-2.8v-11.8c0-1.9,0.9-2.8,2.8-2.8
		h1.4c1,0,1.7,0.3,2,1.2v-1.2H1580.6z M1576.9,365c0.9,0,1.2-0.3,1.2-1.3v-10.6c0-1-0.4-1.3-1.2-1.3h-1.4c-0.9,0-1.1,0.2-1.1,1.1v11
		c0,0.9,0.2,1.1,1.1,1.1H1576.9z"/>
	<path class="st25" d="M1589.7,349.7c1.9,0,2.8,0.9,2.8,2.8v14.6h-2.5v-14.2c0-0.9-0.2-1.1-1.1-1.1h-1.4c-0.9,0-1.2,0.3-1.2,1.3v14
		h-2.5v-17.5h2.5v1.2c0.3-0.9,1-1.2,2-1.2H1589.7z"/>
	<path class="st25" d="M1597,349.7l2.8,15.7l2.6-15.7h2.5l-3.5,19.7c-0.4,1.9-1.5,2.8-3.4,2.8h-1.9v-2.1h1.2c0.9,0,1.6-0.2,1.8-1.1
		l0.4-1.8h-1.6l-3.3-17.5H1597z"/>
	<path class="st25" d="M1617.5,349.7v2.2h-1.1c-1.6,0-2.3,0.9-2.3,2.7v12.6h-2.5v-17.5h2.5v2c0.3-1,1.2-2,2.6-2H1617.5z"/>
	<path class="st25" d="M1625.4,349.7c1.9,0,2.8,0.9,2.8,2.8v6.7h-6.5v4.6c0,0.9,0.2,1.1,1.1,1.1h1.7c0.9,0,1.1-0.2,1.1-1.1v-1.6h2.5
		v2c0,1.9-0.9,2.8-2.8,2.8h-3.2c-1.9,0-2.8-0.9-2.8-2.8v-11.8c0-1.9,0.9-2.8,2.8-2.8H1625.4z M1625.8,357.1v-4.2
		c0-0.9-0.2-1.1-1.1-1.1h-1.8c-0.9,0-1.1,0.2-1.1,1.1v4.2H1625.8z"/>
	<path class="st25" d="M1639.7,349.7v17.5h-2.5v-1.2c-0.3,0.9-1,1.2-2,1.2h-1.4c-1.9,0-2.8-0.9-2.8-2.8v-11.8c0-1.9,0.9-2.8,2.8-2.8
		h1.4c1,0,1.7,0.3,2,1.2v-1.2H1639.7z M1636,365c0.9,0,1.2-0.3,1.2-1.3v-10.6c0-1-0.4-1.3-1.2-1.3h-1.4c-0.9,0-1.1,0.2-1.1,1.1v11
		c0,0.9,0.2,1.1,1.1,1.1H1636z"/>
	<path class="st25" d="M1648.3,360.6c0-0.9-0.2-1.1-1.1-1.1h-1.8c-1.9,0-2.8-0.9-2.8-2.8v-4.1c0-1.9,0.9-2.8,2.8-2.8h2.4
		c1.9,0,2.8,0.9,2.8,2.8v1.8h-2.4v-1.4c0-0.9-0.2-1.1-1.1-1.1h-1c-0.9,0-1.1,0.2-1.1,1.1v3.4c0,0.9,0.2,1.1,1.1,1.1h1.8
		c1.9,0,2.8,0.9,2.8,2.8v4c0,1.9-0.9,2.8-2.8,2.8h-2.4c-1.9,0-2.8-0.9-2.8-2.8v-1.8h2.4v1.4c0,0.9,0.2,1.1,1.1,1.1h1
		c0.9,0,1.1-0.2,1.1-1.1V360.6z"/>
	<path class="st25" d="M1660,349.7c1.9,0,2.8,0.9,2.8,2.8v11.8c0,1.9-0.9,2.8-2.8,2.8h-3.7c-1.9,0-2.8-0.9-2.8-2.8v-11.8
		c0-1.9,0.9-2.8,2.8-2.8H1660z M1660.4,352.9c0-0.9-0.2-1.1-1.1-1.1h-2.2c-0.9,0-1.1,0.2-1.1,1.1v11c0,0.9,0.2,1.1,1.1,1.1h2.2
		c0.9,0,1.1-0.2,1.1-1.1V352.9z"/>
	<path class="st25" d="M1671.8,349.7c1.9,0,2.8,0.9,2.8,2.8v14.6h-2.5v-14.2c0-0.9-0.2-1.1-1.1-1.1h-1.4c-0.9,0-1.2,0.3-1.2,1.3v14
		h-2.5v-17.5h2.5v1.2c0.3-0.9,1-1.2,2-1.2H1671.8z"/>
	<path class="st25" d="M1677.3,363.1h3v4h-3V363.1z"/>
	<path class="st25" d="M1177.2,404.6h-4.5l-0.8,5.7h-2.5l3.5-22.4h3.9l3.9,22.4h-2.5L1177.2,404.6z M1176.9,402.5l-2.1-12.9
		l-1.8,12.9H1176.9z"/>
	<path class="st25" d="M1191.4,386.2v24.1h-2.5v-1.2c-0.3,0.9-1,1.2-2,1.2h-1.4c-1.9,0-2.8-0.9-2.8-2.8v-11.8c0-1.9,0.9-2.8,2.8-2.8
		h1.4c1,0,1.7,0.3,2,1.2v-7.8H1191.4z M1187.7,408.2c0.9,0,1.2-0.3,1.2-1.3v-10.7c0-1-0.4-1.3-1.2-1.3h-1.4c-0.9,0-1.1,0.2-1.1,1.1
		v11c0,0.9,0.2,1.1,1.1,1.1H1187.7z"/>
	<path class="st25" d="M1203.2,386.2v24.1h-2.5v-1.2c-0.3,0.9-1,1.2-2,1.2h-1.4c-1.9,0-2.8-0.9-2.8-2.8v-11.8c0-1.9,0.9-2.8,2.8-2.8
		h1.4c1,0,1.7,0.3,2,1.2v-7.8H1203.2z M1199.5,408.2c0.9,0,1.2-0.3,1.2-1.3v-10.7c0-1-0.4-1.3-1.2-1.3h-1.4c-0.9,0-1.1,0.2-1.1,1.1
		v11c0,0.9,0.2,1.1,1.1,1.1H1199.5z"/>
	<path class="st25" d="M1206.4,386.2h2.6v2.9h-2.6V386.2z M1206.4,410.3v-17.5h2.5v17.5H1206.4z"/>
	<path class="st25" d="M1214.8,395v11.9c0,0.9,0.2,1.1,1.1,1.1h1.4v2.3h-2.1c-1.9,0-2.8-0.9-2.8-2.8V395h-1.6v-2.1h1.6V390h2.5v2.8
		h2.5v2.1H1214.8z"/>
	<path class="st25" d="M1219.2,386.2h2.6v2.9h-2.6V386.2z M1219.3,410.3v-17.5h2.5v17.5H1219.3z"/>
	<path class="st25" d="M1231.3,392.9c1.9,0,2.8,0.9,2.8,2.8v11.8c0,1.9-0.9,2.8-2.8,2.8h-3.7c-1.9,0-2.8-0.9-2.8-2.8v-11.8
		c0-1.9,0.9-2.8,2.8-2.8H1231.3z M1231.7,396.1c0-0.9-0.2-1.1-1.1-1.1h-2.2c-0.9,0-1.1,0.2-1.1,1.1v11c0,0.9,0.2,1.1,1.1,1.1h2.2
		c0.9,0,1.1-0.2,1.1-1.1V396.1z"/>
	<path class="st25" d="M1243.1,392.9c1.9,0,2.8,0.9,2.8,2.8v14.6h-2.5v-14.2c0-0.9-0.2-1.1-1.1-1.1h-1.4c-0.9,0-1.2,0.3-1.2,1.3v14
		h-2.5v-17.5h2.5v1.2c0.3-0.9,1-1.2,2-1.2H1243.1z"/>
	<path class="st25" d="M1257.8,392.9v17.5h-2.5v-1.2c-0.3,0.9-1,1.2-2,1.2h-1.4c-1.9,0-2.8-0.9-2.8-2.8v-11.8c0-1.9,0.9-2.8,2.8-2.8
		h1.4c1,0,1.7,0.3,2,1.2v-1.2H1257.8z M1254.1,408.2c0.9,0,1.2-0.3,1.2-1.3v-10.6c0-1-0.4-1.3-1.2-1.3h-1.4c-0.9,0-1.1,0.2-1.1,1.1
		v11c0,0.9,0.2,1.1,1.1,1.1H1254.1z"/>
	<path class="st25" d="M1261,410.3v-24.1h2.5v24.1H1261z"/>
	<path class="st25" d="M1266.7,410.3v-24.1h2.5v24.1H1266.7z"/>
	<path class="st25" d="M1273.7,392.9l2.8,15.7l2.6-15.7h2.5l-3.5,19.7c-0.4,1.9-1.5,2.8-3.4,2.8h-1.9v-2.1h1.2
		c0.9,0,1.6-0.2,1.8-1.1l0.4-1.8h-1.6l-3.3-17.5H1273.7z"/>
	<path class="st25" d="M1286,406.3v2.1l-2,6.9h-1v-9H1286z"/>
	<path class="st25" d="M1293.3,386.2h2.6v2.9h-2.6V386.2z M1293.4,410.3v-17.5h2.5v17.5H1293.4z"/>
	<path class="st25" d="M1303,388.5c-0.9,0-1.1,0.2-1.1,1.1v3.2h2.5v2.1h-2.5v15.3h-2.5V395h-1.7v-2.1h1.7v-3.8
		c0-1.9,0.9-2.8,2.8-2.8h2.2v2.3H1303z"/>
	<path class="st25" d="M1319.4,392.9v17.5h-2.5v-1.2c-0.3,0.9-1,1.2-2,1.2h-1.4c-1.9,0-2.8-0.9-2.8-2.8v-11.8c0-1.9,0.9-2.8,2.8-2.8
		h1.4c1,0,1.7,0.3,2,1.2v-1.2H1319.4z M1315.7,408.2c0.9,0,1.2-0.3,1.2-1.3v-10.6c0-1-0.4-1.3-1.2-1.3h-1.4c-0.9,0-1.1,0.2-1.1,1.1
		v11c0,0.9,0.2,1.1,1.1,1.1H1315.7z"/>
	<path class="st25" d="M1328,403.8c0-0.9-0.2-1.1-1.1-1.1h-1.8c-1.9,0-2.8-0.9-2.8-2.8v-4.1c0-1.9,0.9-2.8,2.8-2.8h2.4
		c1.9,0,2.8,0.9,2.8,2.8v1.8h-2.4v-1.4c0-0.9-0.2-1.1-1.1-1.1h-1c-0.9,0-1.1,0.2-1.1,1.1v3.4c0,0.9,0.2,1.1,1.1,1.1h1.8
		c1.9,0,2.8,0.9,2.8,2.8v4c0,1.9-0.9,2.8-2.8,2.8h-2.4c-1.9,0-2.8-0.9-2.8-2.8v-1.8h2.4v1.4c0,0.9,0.2,1.1,1.1,1.1h1
		c0.9,0,1.1-0.2,1.1-1.1V403.8z"/>
	<path class="st25" d="M1336,395v11.9c0,0.9,0.2,1.1,1.1,1.1h1.4v2.3h-2.1c-1.9,0-2.8-0.9-2.8-2.8V395h-1.6v-2.1h1.6V390h2.5v2.8
		h2.5v2.1H1336z"/>
	<path class="st25" d="M1346.3,392.9v2.2h-1.1c-1.6,0-2.3,0.9-2.3,2.7v12.6h-2.5v-17.5h2.5v2c0.3-1,1.2-2,2.6-2H1346.3z"/>
	<path class="st25" d="M1354.4,392.9c1.9,0,2.8,0.9,2.8,2.8v11.8c0,1.9-0.9,2.8-2.8,2.8h-3.7c-1.9,0-2.8-0.9-2.8-2.8v-11.8
		c0-1.9,0.9-2.8,2.8-2.8H1354.4z M1354.8,396.1c0-0.9-0.2-1.1-1.1-1.1h-2.2c-0.9,0-1.1,0.2-1.1,1.1v11c0,0.9,0.2,1.1,1.1,1.1h2.2
		c0.9,0,1.1-0.2,1.1-1.1V396.1z"/>
	<path class="st25" d="M1366.2,392.9c1.9,0,2.8,0.9,2.8,2.8v14.6h-2.5v-14.2c0-0.9-0.2-1.1-1.1-1.1h-1.4c-0.9,0-1.2,0.3-1.2,1.3v14
		h-2.5v-17.5h2.5v1.2c0.3-0.9,1-1.2,2-1.2H1366.2z"/>
	<path class="st25" d="M1380.9,392.9v17.5h-2.5v-1.2c-0.3,0.9-1,1.2-2,1.2h-1.4c-1.9,0-2.8-0.9-2.8-2.8v-11.8c0-1.9,0.9-2.8,2.8-2.8
		h1.4c1,0,1.7,0.3,2,1.2v-1.2H1380.9z M1377.2,408.2c0.9,0,1.2-0.3,1.2-1.3v-10.6c0-1-0.4-1.3-1.2-1.3h-1.4c-0.9,0-1.1,0.2-1.1,1.1
		v11c0,0.9,0.2,1.1,1.1,1.1H1377.2z"/>
	<path class="st25" d="M1392.9,392.9v17.5h-2.5v-1.2c-0.3,0.9-1,1.2-2,1.2h-1.4c-1.9,0-2.8-0.9-2.8-2.8v-14.6h2.5v14.2
		c0,0.9,0.2,1.1,1.1,1.1h1.4c0.9,0,1.2-0.3,1.2-1.3v-14H1392.9z"/>
	<path class="st25" d="M1398.7,395v11.9c0,0.9,0.2,1.1,1.1,1.1h1.4v2.3h-2.1c-1.9,0-2.8-0.9-2.8-2.8V395h-1.6v-2.1h1.6V390h2.5v2.8
		h2.5v2.1H1398.7z"/>
	<path class="st25" d="M1408.6,403.8c0-0.9-0.2-1.1-1.1-1.1h-1.8c-1.9,0-2.8-0.9-2.8-2.8v-4.1c0-1.9,0.9-2.8,2.8-2.8h2.4
		c1.9,0,2.8,0.9,2.8,2.8v1.8h-2.4v-1.4c0-0.9-0.2-1.1-1.1-1.1h-1c-0.9,0-1.1,0.2-1.1,1.1v3.4c0,0.9,0.2,1.1,1.1,1.1h1.8
		c1.9,0,2.8,0.9,2.8,2.8v4c0,1.9-0.9,2.8-2.8,2.8h-2.4c-1.9,0-2.8-0.9-2.8-2.8v-1.8h2.4v1.4c0,0.9,0.2,1.1,1.1,1.1h1
		c0.9,0,1.1-0.2,1.1-1.1V403.8z"/>
	<path class="st25" d="M1435,392.9l-3.1,17.5h-3.8l-2.1-14l-2.1,14h-3.8l-3.1-17.5h2.4l2.6,15.7l2.3-15.7h3.4l2.2,15.7l2.6-15.7
		H1435z"/>
	<path class="st25" d="M1445.4,392.9v17.5h-2.5v-1.2c-0.3,0.9-1,1.2-2,1.2h-1.4c-1.9,0-2.8-0.9-2.8-2.8v-11.8c0-1.9,0.9-2.8,2.8-2.8
		h1.4c1,0,1.7,0.3,2,1.2v-1.2H1445.4z M1441.7,408.2c0.9,0,1.2-0.3,1.2-1.3v-10.6c0-1-0.4-1.3-1.2-1.3h-1.4c-0.9,0-1.1,0.2-1.1,1.1
		v11c0,0.9,0.2,1.1,1.1,1.1H1441.7z"/>
	<path class="st25" d="M1454.5,392.9c1.9,0,2.8,0.9,2.8,2.8v14.6h-2.5v-14.2c0-0.9-0.2-1.1-1.1-1.1h-1.4c-0.9,0-1.2,0.3-1.2,1.3v14
		h-2.5v-17.5h2.5v1.2c0.3-0.9,1-1.2,2-1.2H1454.5z"/>
	<path class="st25" d="M1463.3,395v11.9c0,0.9,0.2,1.1,1.1,1.1h1.4v2.3h-2.1c-1.9,0-2.8-0.9-2.8-2.8V395h-1.6v-2.1h1.6V390h2.5v2.8
		h2.5v2.1H1463.3z"/>
	<path class="st25" d="M1475,395v11.9c0,0.9,0.2,1.1,1.1,1.1h1.4v2.3h-2.1c-1.9,0-2.8-0.9-2.8-2.8V395h-1.6v-2.1h1.6V390h2.5v2.8
		h2.5v2.1H1475z"/>
	<path class="st25" d="M1485.8,392.9c1.9,0,2.8,0.9,2.8,2.8v11.8c0,1.9-0.9,2.8-2.8,2.8h-3.7c-1.9,0-2.8-0.9-2.8-2.8v-11.8
		c0-1.9,0.9-2.8,2.8-2.8H1485.8z M1486.2,396.1c0-0.9-0.2-1.1-1.1-1.1h-2.2c-0.9,0-1.1,0.2-1.1,1.1v11c0,0.9,0.2,1.1,1.1,1.1h2.2
		c0.9,0,1.1-0.2,1.1-1.1V396.1z"/>
	<path class="st25" d="M1505.4,386.2v24.1h-2.5V395h-3.8v15.3h-2.5V395h-1.7v-2.1h1.7v-3.8c0-1.9,0.9-2.8,2.8-2.8h1.5v2.3h-0.8
		c-0.9,0-1.1,0.2-1.1,1.1v3.2h3.8v-6.6H1505.4z"/>
	<path class="st25" d="M1509.9,392.9l2.8,15.7l2.6-15.7h2.5l-3.5,19.7c-0.4,1.9-1.5,2.8-3.4,2.8h-1.9v-2.1h1.2
		c0.9,0,1.6-0.2,1.8-1.1l0.4-1.8h-1.6l-3.3-17.5H1509.9z"/>
	<path class="st25" d="M1540.9,392.9l-3.1,17.5h-3.8l-2.1-14l-2.1,14h-3.8l-3.1-17.5h2.4l2.6,15.7l2.3-15.7h3.4l2.2,15.7l2.6-15.7
		H1540.9z"/>
	<path class="st25" d="M1542.7,386.2h2.6v2.9h-2.6V386.2z M1542.7,410.3v-17.5h2.5v17.5H1542.7z"/>
	<path class="st25" d="M1551.1,395v11.9c0,0.9,0.2,1.1,1.1,1.1h1.4v2.3h-2.1c-1.9,0-2.8-0.9-2.8-2.8V395h-1.6v-2.1h1.6V390h2.5v2.8
		h2.5v2.1H1551.1z"/>
	<path class="st25" d="M1561.5,392.9c1.9,0,2.8,0.9,2.8,2.8v14.6h-2.5v-14.2c0-0.9-0.2-1.1-1.1-1.1h-1.4c-0.9,0-1.2,0.3-1.2,1.3v14
		h-2.5v-24.1h2.5v7.8c0.3-0.9,1-1.2,2-1.2H1561.5z"/>
	<path class="st25" d="M1573.9,392.9c1.9,0,2.8,0.9,2.8,2.8v11.8c0,1.9-0.9,2.8-2.8,2.8h-3.7c-1.9,0-2.8-0.9-2.8-2.8v-11.8
		c0-1.9,0.9-2.8,2.8-2.8H1573.9z M1574.3,396.1c0-0.9-0.2-1.1-1.1-1.1h-2.2c-0.9,0-1.1,0.2-1.1,1.1v11c0,0.9,0.2,1.1,1.1,1.1h2.2
		c0.9,0,1.1-0.2,1.1-1.1V396.1z"/>
	<path class="st25" d="M1588.5,392.9v17.5h-2.5v-1.2c-0.3,0.9-1,1.2-2,1.2h-1.4c-1.9,0-2.8-0.9-2.8-2.8v-14.6h2.5v14.2
		c0,0.9,0.2,1.1,1.1,1.1h1.4c0.9,0,1.2-0.3,1.2-1.3v-14H1588.5z"/>
	<path class="st25" d="M1594.4,395v11.9c0,0.9,0.2,1.1,1.1,1.1h1.4v2.3h-2.1c-1.9,0-2.8-0.9-2.8-2.8V395h-1.6v-2.1h1.6V390h2.5v2.8
		h2.5v2.1H1594.4z"/>
	<path class="st25" d="M1612.1,392.9v17.5h-2.5v-1.2c-0.3,0.9-1,1.2-2,1.2h-1.4c-1.9,0-2.8-0.9-2.8-2.8v-11.8c0-1.9,0.9-2.8,2.8-2.8
		h1.4c1,0,1.7,0.3,2,1.2v-1.2H1612.1z M1608.4,408.2c0.9,0,1.2-0.3,1.2-1.3v-10.6c0-1-0.4-1.3-1.2-1.3h-1.4c-0.9,0-1.1,0.2-1.1,1.1
		v11c0,0.9,0.2,1.1,1.1,1.1H1608.4z"/>
	<path class="st25" d="M1626.4,398v-1.9c0-0.9-0.2-1.1-1.1-1.1h-1.8c-0.9,0-1.1,0.2-1.1,1.1v11c0,0.9,0.2,1.1,1.1,1.1h1.8
		c0.9,0,1.1-0.2,1.1-1.1v-1.9h2.5v2.3c0,1.9-0.9,2.8-2.8,2.8h-3.3c-1.9,0-2.8-0.9-2.8-2.8v-11.8c0-1.9,0.9-2.8,2.8-2.8h3.3
		c1.9,0,2.8,0.9,2.8,2.8v2.3H1626.4z"/>
	<path class="st25" d="M1638.1,392.9c1.9,0,2.8,0.9,2.8,2.8v11.8c0,1.9-0.9,2.8-2.8,2.8h-3.7c-1.9,0-2.8-0.9-2.8-2.8v-11.8
		c0-1.9,0.9-2.8,2.8-2.8H1638.1z M1638.5,396.1c0-0.9-0.2-1.1-1.1-1.1h-2.2c-0.9,0-1.1,0.2-1.1,1.1v11c0,0.9,0.2,1.1,1.1,1.1h2.2
		c0.9,0,1.1-0.2,1.1-1.1V396.1z"/>
	<path class="st25" d="M1656.1,392.9c1.9,0,2.8,0.9,2.8,2.8v14.6h-2.5v-14.2c0-0.9-0.2-1.1-1.1-1.1h-1.4c-0.9,0-1.2,0.3-1.2,1.3v14
		h-2.5v-14.2c0-0.9-0.2-1.1-1.1-1.1h-1.4c-0.9,0-1.2,0.3-1.2,1.3v14h-2.5v-17.5h2.5v1.2c0.3-0.9,1-1.2,2-1.2h1.4
		c1.4,0,2.2,0.5,2.6,1.4c0.3-1,1.1-1.4,2.2-1.4H1656.1z"/>
	<path class="st25" d="M1667.9,392.9c1.9,0,2.8,0.9,2.8,2.8v11.8c0,1.9-0.9,2.8-2.8,2.8h-1.4c-1,0-1.7-0.3-2-1.2v6.3h-2.5v-22.5h2.5
		v1.2c0.3-0.9,1-1.2,2-1.2H1667.9z M1668.3,396.1c0-0.9-0.2-1.1-1.1-1.1h-1.4c-0.9,0-1.2,0.3-1.2,1.3v10.6c0,1,0.4,1.3,1.2,1.3h1.4
		c0.9,0,1.1-0.2,1.1-1.1V396.1z"/>
	<path class="st25" d="M1682.4,392.9v17.5h-2.5v-1.2c-0.3,0.9-1,1.2-2,1.2h-1.4c-1.9,0-2.8-0.9-2.8-2.8v-11.8c0-1.9,0.9-2.8,2.8-2.8
		h1.4c1,0,1.7,0.3,2,1.2v-1.2H1682.4z M1678.7,408.2c0.9,0,1.2-0.3,1.2-1.3v-10.6c0-1-0.4-1.3-1.2-1.3h-1.4c-0.9,0-1.1,0.2-1.1,1.1
		v11c0,0.9,0.2,1.1,1.1,1.1H1678.7z"/>
	<path class="st25" d="M1691.6,392.9c1.9,0,2.8,0.9,2.8,2.8v14.6h-2.5v-14.2c0-0.9-0.2-1.1-1.1-1.1h-1.4c-0.9,0-1.2,0.3-1.2,1.3v14
		h-2.5v-17.5h2.5v1.2c0.3-0.9,1-1.2,2-1.2H1691.6z"/>
	<path class="st25" d="M1698.9,392.9l2.8,15.7l2.6-15.7h2.5l-3.5,19.7c-0.4,1.9-1.5,2.8-3.4,2.8h-1.9v-2.1h1.2
		c0.9,0,1.6-0.2,1.8-1.1l0.4-1.8h-1.6l-3.3-17.5H1698.9z"/>
	<path class="st25" d="M1167.4,441.2v-1.9c0-0.9-0.2-1.1-1.1-1.1h-1.8c-0.9,0-1.1,0.2-1.1,1.1v11c0,0.9,0.2,1.1,1.1,1.1h1.8
		c0.9,0,1.1-0.2,1.1-1.1v-1.9h2.5v2.3c0,1.9-0.9,2.8-2.8,2.8h-3.3c-1.9,0-2.8-0.9-2.8-2.8v-11.8c0-1.9,0.9-2.8,2.8-2.8h3.3
		c1.9,0,2.8,0.9,2.8,2.8v2.3H1167.4z"/>
	<path class="st25" d="M1178.6,436.1c1.9,0,2.8,0.9,2.8,2.8v14.6h-2.5v-14.2c0-0.9-0.2-1.1-1.1-1.1h-1.4c-0.9,0-1.2,0.3-1.2,1.3v14
		h-2.5v-24.1h2.5v7.8c0.3-0.9,1-1.2,2-1.2H1178.6z"/>
	<path class="st25" d="M1193.3,436.1v17.5h-2.5v-1.2c-0.3,0.9-1,1.2-2,1.2h-1.4c-1.9,0-2.8-0.9-2.8-2.8v-11.8c0-1.9,0.9-2.8,2.8-2.8
		h1.4c1,0,1.7,0.3,2,1.2v-1.2H1193.3z M1189.6,451.4c0.9,0,1.2-0.3,1.2-1.3v-10.6c0-1-0.4-1.3-1.2-1.3h-1.4c-0.9,0-1.1,0.2-1.1,1.1
		v11c0,0.9,0.2,1.1,1.1,1.1H1189.6z"/>
	<path class="st25" d="M1202.4,436.1c1.9,0,2.8,0.9,2.8,2.8v11.8c0,1.9-0.9,2.8-2.8,2.8h-1.4c-1,0-1.7-0.3-2-1.2v6.3h-2.5v-22.5h2.5
		v1.2c0.3-0.9,1-1.2,2-1.2H1202.4z M1202.8,439.3c0-0.9-0.2-1.1-1.1-1.1h-1.4c-0.9,0-1.2,0.3-1.2,1.3v10.6c0,1,0.4,1.3,1.2,1.3h1.4
		c0.9,0,1.1-0.2,1.1-1.1V439.3z"/>
	<path class="st25" d="M1214.5,436.1c1.9,0,2.8,0.9,2.8,2.8v6.7h-6.5v4.6c0,0.9,0.2,1.1,1.1,1.1h1.7c0.9,0,1.1-0.2,1.1-1.1v-1.6h2.5
		v2c0,1.9-0.9,2.8-2.8,2.8h-3.2c-1.9,0-2.8-0.9-2.8-2.8v-11.8c0-1.9,0.9-2.8,2.8-2.8H1214.5z M1214.9,443.5v-4.2
		c0-0.9-0.2-1.1-1.1-1.1h-1.8c-0.9,0-1.1,0.2-1.1,1.1v4.2H1214.9z"/>
	<path class="st25" d="M1226.1,436.1v2.2h-1.1c-1.6,0-2.3,0.9-2.3,2.7v12.6h-2.5v-17.5h2.5v2c0.3-1,1.2-2,2.6-2H1226.1z"/>
	<path class="st25" d="M1234.2,436.1c1.9,0,2.8,0.9,2.8,2.8v11.8c0,1.9-0.9,2.8-2.8,2.8h-3.7c-1.9,0-2.8-0.9-2.8-2.8v-11.8
		c0-1.9,0.9-2.8,2.8-2.8H1234.2z M1234.6,439.3c0-0.9-0.2-1.1-1.1-1.1h-2.2c-0.9,0-1.1,0.2-1.1,1.1v11c0,0.9,0.2,1.1,1.1,1.1h2.2
		c0.9,0,1.1-0.2,1.1-1.1V439.3z"/>
	<path class="st25" d="M1246,436.1c1.9,0,2.8,0.9,2.8,2.8v14.6h-2.5v-14.2c0-0.9-0.2-1.1-1.1-1.1h-1.4c-0.9,0-1.2,0.3-1.2,1.3v14
		h-2.5v-17.5h2.5v1.2c0.3-0.9,1-1.2,2-1.2H1246z"/>
	<path class="st25" d="M1258.2,436.1c1.9,0,2.8,0.9,2.8,2.8v6.7h-6.5v4.6c0,0.9,0.2,1.1,1.1,1.1h1.7c0.9,0,1.1-0.2,1.1-1.1v-1.6h2.5
		v2c0,1.9-0.9,2.8-2.8,2.8h-3.2c-1.9,0-2.8-0.9-2.8-2.8v-11.8c0-1.9,0.9-2.8,2.8-2.8H1258.2z M1258.6,443.5v-4.2
		c0-0.9-0.2-1.1-1.1-1.1h-1.8c-0.9,0-1.1,0.2-1.1,1.1v4.2H1258.6z"/>
	<path class="st25" d="M1266.4,449.5v2.1l-2,6.9h-1v-9H1266.4z"/>
	<path class="st25" d="M1276.4,438.2v11.9c0,0.9,0.2,1.1,1.1,1.1h1.4v2.3h-2.1c-1.9,0-2.8-0.9-2.8-2.8v-12.5h-1.6v-2.1h1.6v-2.8h2.5
		v2.8h2.5v2.1H1276.4z"/>
	<path class="st25" d="M1286.8,436.1c1.9,0,2.8,0.9,2.8,2.8v14.6h-2.5v-14.2c0-0.9-0.2-1.1-1.1-1.1h-1.4c-0.9,0-1.2,0.3-1.2,1.3v14
		h-2.5v-24.1h2.5v7.8c0.3-0.9,1-1.2,2-1.2H1286.8z"/>
	<path class="st25" d="M1299,436.1c1.9,0,2.8,0.9,2.8,2.8v6.7h-6.5v4.6c0,0.9,0.2,1.1,1.1,1.1h1.7c0.9,0,1.1-0.2,1.1-1.1v-1.6h2.5v2
		c0,1.9-0.9,2.8-2.8,2.8h-3.2c-1.9,0-2.8-0.9-2.8-2.8v-11.8c0-1.9,0.9-2.8,2.8-2.8H1299z M1299.4,443.5v-4.2c0-0.9-0.2-1.1-1.1-1.1
		h-1.8c-0.9,0-1.1,0.2-1.1,1.1v4.2H1299.4z"/>
	<path class="st25" d="M1305.9,436.1l2.8,15.7l2.6-15.7h2.5l-3.5,19.7c-0.4,1.9-1.5,2.8-3.4,2.8h-1.9v-2.1h1.2
		c0.9,0,1.6-0.2,1.8-1.1l0.4-1.8h-1.6l-3.3-17.5H1305.9z"/>
	<path class="st25" d="M1337,436.1l-3.1,17.5h-3.8l-2.1-14l-2.1,14h-3.8l-3.1-17.5h2.4l2.6,15.7l2.3-15.7h3.4l2.2,15.7l2.6-15.7
		H1337z"/>
	<path class="st25" d="M1338.7,429.4h2.6v2.9h-2.6V429.4z M1338.8,453.5v-17.5h2.5v17.5H1338.8z"/>
	<path class="st25" d="M1344.5,453.5v-24.1h2.5v24.1H1344.5z"/>
	<path class="st25" d="M1350.2,453.5v-24.1h2.5v24.1H1350.2z"/>
	<path class="st25" d="M1369.4,436.1v17.5h-2.5v-1.2c-0.3,0.9-1,1.2-2,1.2h-1.4c-1.9,0-2.8-0.9-2.8-2.8v-14.6h2.5v14.2
		c0,0.9,0.2,1.1,1.1,1.1h1.4c0.9,0,1.2-0.3,1.2-1.3v-14H1369.4z"/>
	<path class="st25" d="M1378.5,436.1c1.9,0,2.8,0.9,2.8,2.8v14.6h-2.5v-14.2c0-0.9-0.2-1.1-1.1-1.1h-1.4c-0.9,0-1.2,0.3-1.2,1.3v14
		h-2.5v-17.5h2.5v1.2c0.3-0.9,1-1.2,2-1.2H1378.5z"/>
	<path class="st25" d="M1393.2,429.4v24.1h-2.5v-1.2c-0.3,0.9-1,1.2-2,1.2h-1.4c-1.9,0-2.8-0.9-2.8-2.8v-11.8c0-1.9,0.9-2.8,2.8-2.8
		h1.4c1,0,1.7,0.3,2,1.2v-7.8H1393.2z M1389.5,451.4c0.9,0,1.2-0.3,1.2-1.3v-10.7c0-1-0.4-1.3-1.2-1.3h-1.4c-0.9,0-1.1,0.2-1.1,1.1
		v11c0,0.9,0.2,1.1,1.1,1.1H1389.5z"/>
	<path class="st25" d="M1402.6,436.1c1.9,0,2.8,0.9,2.8,2.8v6.7h-6.5v4.6c0,0.9,0.2,1.1,1.1,1.1h1.7c0.9,0,1.1-0.2,1.1-1.1v-1.6h2.5
		v2c0,1.9-0.9,2.8-2.8,2.8h-3.2c-1.9,0-2.8-0.9-2.8-2.8v-11.8c0-1.9,0.9-2.8,2.8-2.8H1402.6z M1402.9,443.5v-4.2
		c0-0.9-0.2-1.1-1.1-1.1h-1.8c-0.9,0-1.1,0.2-1.1,1.1v4.2H1402.9z"/>
	<path class="st25" d="M1414.1,436.1v2.2h-1.1c-1.6,0-2.3,0.9-2.3,2.7v12.6h-2.5v-17.5h2.5v2c0.3-1,1.2-2,2.6-2H1414.1z"/>
	<path class="st25" d="M1424.5,436.1v19.7c0,1.9-0.9,2.8-2.8,2.8h-5.4v-2.1h4.6c0.9,0,1.1-0.2,1.1-1.1v-3c-0.3,0.9-1,1.2-2,1.2h-1.4
		c-1.9,0-2.8-0.9-2.8-2.8v-11.8c0-1.9,0.9-2.8,2.8-2.8h1.4c1,0,1.7,0.3,2,1.2v-1.2H1424.5z M1420.8,451.4c0.9,0,1.2-0.3,1.2-1.3
		v-10.6c0-1-0.4-1.3-1.2-1.3h-1.4c-0.9,0-1.1,0.2-1.1,1.1v11c0,0.9,0.2,1.1,1.1,1.1H1420.8z"/>
	<path class="st25" d="M1434.1,436.1c1.9,0,2.8,0.9,2.8,2.8v11.8c0,1.9-0.9,2.8-2.8,2.8h-3.7c-1.9,0-2.8-0.9-2.8-2.8v-11.8
		c0-1.9,0.9-2.8,2.8-2.8H1434.1z M1434.5,439.3c0-0.9-0.2-1.1-1.1-1.1h-2.2c-0.9,0-1.1,0.2-1.1,1.1v11c0,0.9,0.2,1.1,1.1,1.1h2.2
		c0.9,0,1.1-0.2,1.1-1.1V439.3z"/>
	<path class="st25" d="M1448.5,431.7c-0.9,0-1.1,0.2-1.1,1.1v3.2h2.5v2.1h-2.5v15.3h-2.5v-15.3h-1.7v-2.1h1.7v-3.8
		c0-1.9,0.9-2.8,2.8-2.8h2.2v2.3H1448.5z"/>
	<path class="st25" d="M1460.3,436.1v17.5h-2.5v-1.2c-0.3,0.9-1,1.2-2,1.2h-1.4c-1.9,0-2.8-0.9-2.8-2.8v-11.8c0-1.9,0.9-2.8,2.8-2.8
		h1.4c1,0,1.7,0.3,2,1.2v-1.2H1460.3z M1456.6,451.4c0.9,0,1.2-0.3,1.2-1.3v-10.6c0-1-0.4-1.3-1.2-1.3h-1.4c-0.9,0-1.1,0.2-1.1,1.1
		v11c0,0.9,0.2,1.1,1.1,1.1H1456.6z"/>
	<path class="st25" d="M1469.4,436.1v2.2h-1.1c-1.6,0-2.3,0.9-2.3,2.7v12.6h-2.5v-17.5h2.5v2c0.3-1,1.2-2,2.6-2H1469.4z"/>
	<path class="st25" d="M1488,436.1c1.9,0,2.8,0.9,2.8,2.8v14.6h-2.5v-14.2c0-0.9-0.2-1.1-1.1-1.1h-1.4c-0.9,0-1.2,0.3-1.2,1.3v14
		h-2.5v-14.2c0-0.9-0.2-1.1-1.1-1.1h-1.4c-0.9,0-1.2,0.3-1.2,1.3v14h-2.5v-17.5h2.5v1.2c0.3-0.9,1-1.2,2-1.2h1.4
		c1.4,0,2.2,0.5,2.6,1.4c0.3-1,1.1-1.4,2.2-1.4H1488z"/>
	<path class="st25" d="M1500.3,436.1c1.9,0,2.8,0.9,2.8,2.8v11.8c0,1.9-0.9,2.8-2.8,2.8h-3.7c-1.9,0-2.8-0.9-2.8-2.8v-11.8
		c0-1.9,0.9-2.8,2.8-2.8H1500.3z M1500.7,439.3c0-0.9-0.2-1.1-1.1-1.1h-2.2c-0.9,0-1.1,0.2-1.1,1.1v11c0,0.9,0.2,1.1,1.1,1.1h2.2
		c0.9,0,1.1-0.2,1.1-1.1V439.3z"/>
	<path class="st25" d="M1512,436.1v2.2h-1.1c-1.6,0-2.3,0.9-2.3,2.7v12.6h-2.5v-17.5h2.5v2c0.3-1,1.2-2,2.6-2H1512z"/>
	<path class="st25" d="M1520,436.1c1.9,0,2.8,0.9,2.8,2.8v6.7h-6.5v4.6c0,0.9,0.2,1.1,1.1,1.1h1.7c0.9,0,1.1-0.2,1.1-1.1v-1.6h2.5v2
		c0,1.9-0.9,2.8-2.8,2.8h-3.2c-1.9,0-2.8-0.9-2.8-2.8v-11.8c0-1.9,0.9-2.8,2.8-2.8H1520z M1520.3,443.5v-4.2c0-0.9-0.2-1.1-1.1-1.1
		h-1.8c-0.9,0-1.1,0.2-1.1,1.1v4.2H1520.3z"/>
	<path class="st25" d="M1530.3,429.4h2.6v2.9h-2.6V429.4z M1530.4,453.5v-17.5h2.5v17.5H1530.4z"/>
	<path class="st25" d="M1542,436.1c1.9,0,2.8,0.9,2.8,2.8v14.6h-2.5v-14.2c0-0.9-0.2-1.1-1.1-1.1h-1.4c-0.9,0-1.2,0.3-1.2,1.3v14
		h-2.5v-17.5h2.5v1.2c0.3-0.9,1-1.2,2-1.2H1542z"/>
	<path class="st25" d="M1550.7,438.2v11.9c0,0.9,0.2,1.1,1.1,1.1h1.4v2.3h-2.1c-1.9,0-2.8-0.9-2.8-2.8v-12.5h-1.6v-2.1h1.6v-2.8h2.5
		v2.8h2.5v2.1H1550.7z"/>
	<path class="st25" d="M1561.3,436.1c1.9,0,2.8,0.9,2.8,2.8v6.7h-6.5v4.6c0,0.9,0.2,1.1,1.1,1.1h1.7c0.9,0,1.1-0.2,1.1-1.1v-1.6h2.5
		v2c0,1.9-0.9,2.8-2.8,2.8h-3.2c-1.9,0-2.8-0.9-2.8-2.8v-11.8c0-1.9,0.9-2.8,2.8-2.8H1561.3z M1561.7,443.5v-4.2
		c0-0.9-0.2-1.1-1.1-1.1h-1.8c-0.9,0-1.1,0.2-1.1,1.1v4.2H1561.7z"/>
	<path class="st25" d="M1572.9,436.1c1.9,0,2.8,0.9,2.8,2.8v14.6h-2.5v-14.2c0-0.9-0.2-1.1-1.1-1.1h-1.4c-0.9,0-1.2,0.3-1.2,1.3v14
		h-2.5v-17.5h2.5v1.2c0.3-0.9,1-1.2,2-1.2H1572.9z"/>
	<path class="st25" d="M1584.4,447c0-0.9-0.2-1.1-1.1-1.1h-1.8c-1.9,0-2.8-0.9-2.8-2.8v-4.1c0-1.9,0.9-2.8,2.8-2.8h2.4
		c1.9,0,2.8,0.9,2.8,2.8v1.8h-2.4v-1.4c0-0.9-0.2-1.1-1.1-1.1h-1c-0.9,0-1.1,0.2-1.1,1.1v3.4c0,0.9,0.2,1.1,1.1,1.1h1.8
		c1.9,0,2.8,0.9,2.8,2.8v4c0,1.9-0.9,2.8-2.8,2.8h-2.4c-1.9,0-2.8-0.9-2.8-2.8v-1.8h2.4v1.4c0,0.9,0.2,1.1,1.1,1.1h1
		c0.9,0,1.1-0.2,1.1-1.1V447z"/>
	<path class="st25" d="M1589.6,429.4h2.6v2.9h-2.6V429.4z M1589.7,453.5v-17.5h2.5v17.5H1589.7z"/>
	<path class="st25" d="M1598.8,451.8l2.4-15.7h2.5l-2.9,17.5h-3.9l-2.9-17.5h2.5L1598.8,451.8z"/>
	<path class="st25" d="M1611.6,436.1c1.9,0,2.8,0.9,2.8,2.8v6.7h-6.5v4.6c0,0.9,0.2,1.1,1.1,1.1h1.7c0.9,0,1.1-0.2,1.1-1.1v-1.6h2.5
		v2c0,1.9-0.9,2.8-2.8,2.8h-3.2c-1.9,0-2.8-0.9-2.8-2.8v-11.8c0-1.9,0.9-2.8,2.8-2.8H1611.6z M1612,443.5v-4.2
		c0-0.9-0.2-1.1-1.1-1.1h-1.8c-0.9,0-1.1,0.2-1.1,1.1v4.2H1612z"/>
	<path class="st25" d="M1624.7,438.2v11.9c0,0.9,0.2,1.1,1.1,1.1h1.4v2.3h-2.1c-1.9,0-2.8-0.9-2.8-2.8v-12.5h-1.6v-2.1h1.6v-2.8h2.5
		v2.8h2.5v2.1H1624.7z"/>
	<path class="st25" d="M1635,436.1v2.2h-1.1c-1.6,0-2.3,0.9-2.3,2.7v12.6h-2.5v-17.5h2.5v2c0.3-1,1.2-2,2.6-2H1635z"/>
	<path class="st25" d="M1645.3,436.1v17.5h-2.5v-1.2c-0.3,0.9-1,1.2-2,1.2h-1.4c-1.9,0-2.8-0.9-2.8-2.8v-11.8c0-1.9,0.9-2.8,2.8-2.8
		h1.4c1,0,1.7,0.3,2,1.2v-1.2H1645.3z M1641.6,451.4c0.9,0,1.2-0.3,1.2-1.3v-10.6c0-1-0.4-1.3-1.2-1.3h-1.4c-0.9,0-1.1,0.2-1.1,1.1
		v11c0,0.9,0.2,1.1,1.1,1.1H1641.6z"/>
	<path class="st25" d="M1648.5,429.4h2.6v2.9h-2.6V429.4z M1648.6,453.5v-17.5h2.5v17.5H1648.6z"/>
	<path class="st25" d="M1660.2,436.1c1.9,0,2.8,0.9,2.8,2.8v14.6h-2.5v-14.2c0-0.9-0.2-1.1-1.1-1.1h-1.4c-0.9,0-1.2,0.3-1.2,1.3v14
		h-2.5v-17.5h2.5v1.2c0.3-0.9,1-1.2,2-1.2H1660.2z"/>
	<path class="st25" d="M1666.2,429.4h2.6v2.9h-2.6V429.4z M1666.3,453.5v-17.5h2.5v17.5H1666.3z"/>
	<path class="st25" d="M1677.9,436.1c1.9,0,2.8,0.9,2.8,2.8v14.6h-2.5v-14.2c0-0.9-0.2-1.1-1.1-1.1h-1.4c-0.9,0-1.2,0.3-1.2,1.3v14
		h-2.5v-17.5h2.5v1.2c0.3-0.9,1-1.2,2-1.2H1677.9z"/>
	<path class="st25" d="M1692.6,436.1v19.7c0,1.9-0.9,2.8-2.8,2.8h-5.4v-2.1h4.6c0.9,0,1.1-0.2,1.1-1.1v-3c-0.3,0.9-1,1.2-2,1.2h-1.4
		c-1.9,0-2.8-0.9-2.8-2.8v-11.8c0-1.9,0.9-2.8,2.8-2.8h1.4c1,0,1.7,0.3,2,1.2v-1.2H1692.6z M1688.9,451.4c0.9,0,1.2-0.3,1.2-1.3
		v-10.6c0-1-0.4-1.3-1.2-1.3h-1.4c-0.9,0-1.1,0.2-1.1,1.1v11c0,0.9,0.2,1.1,1.1,1.1H1688.9z"/>
	<path class="st25" d="M1700.4,429.4h2.6v2.9h-2.6V429.4z M1700.5,453.5v-17.5h2.5v17.5H1700.5z"/>
	<path class="st25" d="M1712.1,436.1c1.9,0,2.8,0.9,2.8,2.8v14.6h-2.5v-14.2c0-0.9-0.2-1.1-1.1-1.1h-1.4c-0.9,0-1.2,0.3-1.2,1.3v14
		h-2.5v-17.5h2.5v1.2c0.3-0.9,1-1.2,2-1.2H1712.1z"/>
	<path class="st25" d="M1264.5,479.3c1.9,0,2.8,0.9,2.8,2.8v11.8c0,1.9-0.9,2.8-2.8,2.8h-3.7c-1.9,0-2.8-0.9-2.8-2.8v-11.8
		c0-1.9,0.9-2.8,2.8-2.8H1264.5z M1264.9,482.5c0-0.9-0.2-1.1-1.1-1.1h-2.2c-0.9,0-1.1,0.2-1.1,1.1v11c0,0.9,0.2,1.1,1.1,1.1h2.2
		c0.9,0,1.1-0.2,1.1-1.1V482.5z"/>
	<path class="st25" d="M1276.2,479.3v2.2h-1.1c-1.6,0-2.3,0.9-2.3,2.7v12.6h-2.5v-17.5h2.5v2c0.3-1,1.2-2,2.6-2H1276.2z"/>
	<path class="st25" d="M1286.6,472.6v24.1h-2.5v-1.2c-0.3,0.9-1,1.2-2,1.2h-1.4c-1.9,0-2.8-0.9-2.8-2.8v-11.8c0-1.9,0.9-2.8,2.8-2.8
		h1.4c1,0,1.7,0.3,2,1.2v-7.8H1286.6z M1282.9,494.6c0.9,0,1.2-0.3,1.2-1.3v-10.7c0-1-0.4-1.3-1.2-1.3h-1.4c-0.9,0-1.1,0.2-1.1,1.1
		v11c0,0.9,0.2,1.1,1.1,1.1H1282.9z"/>
	<path class="st25" d="M1296,479.3c1.9,0,2.8,0.9,2.8,2.8v6.7h-6.5v4.6c0,0.9,0.2,1.1,1.1,1.1h1.7c0.9,0,1.1-0.2,1.1-1.1v-1.6h2.5v2
		c0,1.9-0.9,2.8-2.8,2.8h-3.2c-1.9,0-2.8-0.9-2.8-2.8v-11.8c0-1.9,0.9-2.8,2.8-2.8H1296z M1296.4,486.7v-4.2c0-0.9-0.2-1.1-1.1-1.1
		h-1.8c-0.9,0-1.1,0.2-1.1,1.1v4.2H1296.4z"/>
	<path class="st25" d="M1307.6,479.3v2.2h-1.1c-1.6,0-2.3,0.9-2.3,2.7v12.6h-2.5v-17.5h2.5v2c0.3-1,1.2-2,2.6-2H1307.6z"/>
	<path class="st25" d="M1316.7,481.4v11.9c0,0.9,0.2,1.1,1.1,1.1h1.4v2.3h-2.1c-1.9,0-2.8-0.9-2.8-2.8v-12.5h-1.6v-2.1h1.6v-2.8h2.5
		v2.8h2.5v2.1H1316.7z"/>
	<path class="st25" d="M1327.5,479.3c1.9,0,2.8,0.9,2.8,2.8v11.8c0,1.9-0.9,2.8-2.8,2.8h-3.7c-1.9,0-2.8-0.9-2.8-2.8v-11.8
		c0-1.9,0.9-2.8,2.8-2.8H1327.5z M1327.9,482.5c0-0.9-0.2-1.1-1.1-1.1h-2.2c-0.9,0-1.1,0.2-1.1,1.1v11c0,0.9,0.2,1.1,1.1,1.1h2.2
		c0.9,0,1.1-0.2,1.1-1.1V482.5z"/>
	<path class="st25" d="M1344.2,479.3c1.9,0,2.8,0.9,2.8,2.8v6.7h-6.5v4.6c0,0.9,0.2,1.1,1.1,1.1h1.7c0.9,0,1.1-0.2,1.1-1.1v-1.6h2.5
		v2c0,1.9-0.9,2.8-2.8,2.8h-3.2c-1.9,0-2.8-0.9-2.8-2.8v-11.8c0-1.9,0.9-2.8,2.8-2.8H1344.2z M1344.6,486.7v-4.2
		c0-0.9-0.2-1.1-1.1-1.1h-1.8c-0.9,0-1.1,0.2-1.1,1.1v4.2H1344.6z"/>
	<path class="st25" d="M1355.8,479.3c1.9,0,2.8,0.9,2.8,2.8v14.6h-2.5v-14.2c0-0.9-0.2-1.1-1.1-1.1h-1.4c-0.9,0-1.2,0.3-1.2,1.3v14
		h-2.5v-17.5h2.5v1.2c0.3-0.9,1-1.2,2-1.2H1355.8z"/>
	<path class="st25" d="M1367.3,490.2c0-0.9-0.2-1.1-1.1-1.1h-1.8c-1.9,0-2.8-0.9-2.8-2.8v-4.1c0-1.9,0.9-2.8,2.8-2.8h2.4
		c1.9,0,2.8,0.9,2.8,2.8v1.8h-2.4v-1.4c0-0.9-0.2-1.1-1.1-1.1h-1c-0.9,0-1.1,0.2-1.1,1.1v3.4c0,0.9,0.2,1.1,1.1,1.1h1.8
		c1.9,0,2.8,0.9,2.8,2.8v4c0,1.9-0.9,2.8-2.8,2.8h-2.4c-1.9,0-2.8-0.9-2.8-2.8v-1.8h2.4v1.4c0,0.9,0.2,1.1,1.1,1.1h1
		c0.9,0,1.1-0.2,1.1-1.1V490.2z"/>
	<path class="st25" d="M1381.4,479.3v17.5h-2.5v-1.2c-0.3,0.9-1,1.2-2,1.2h-1.4c-1.9,0-2.8-0.9-2.8-2.8v-14.6h2.5v14.2
		c0,0.9,0.2,1.1,1.1,1.1h1.4c0.9,0,1.2-0.3,1.2-1.3v-14H1381.4z"/>
	<path class="st25" d="M1390.4,479.3v2.2h-1.1c-1.6,0-2.3,0.9-2.3,2.7v12.6h-2.5v-17.5h2.5v2c0.3-1,1.2-2,2.6-2H1390.4z"/>
	<path class="st25" d="M1398.4,479.3c1.9,0,2.8,0.9,2.8,2.8v6.7h-6.5v4.6c0,0.9,0.2,1.1,1.1,1.1h1.7c0.9,0,1.1-0.2,1.1-1.1v-1.6h2.5
		v2c0,1.9-0.9,2.8-2.8,2.8h-3.2c-1.9,0-2.8-0.9-2.8-2.8v-11.8c0-1.9,0.9-2.8,2.8-2.8H1398.4z M1398.7,486.7v-4.2
		c0-0.9-0.2-1.1-1.1-1.1h-1.8c-0.9,0-1.1,0.2-1.1,1.1v4.2H1398.7z"/>
	<path class="st25" d="M1417.4,479.3v17.5h-2.5v-1.2c-0.3,0.9-1,1.2-2,1.2h-1.4c-1.9,0-2.8-0.9-2.8-2.8v-11.8c0-1.9,0.9-2.8,2.8-2.8
		h1.4c1,0,1.7,0.3,2,1.2v-1.2H1417.4z M1413.6,494.6c0.9,0,1.2-0.3,1.2-1.3v-10.6c0-1-0.4-1.3-1.2-1.3h-1.4c-0.9,0-1.1,0.2-1.1,1.1
		v11c0,0.9,0.2,1.1,1.1,1.1H1413.6z"/>
	<path class="st25" d="M1420.6,496.7v-24.1h2.5v24.1H1420.6z"/>
	<path class="st25" d="M1426.3,496.7v-24.1h2.5v24.1H1426.3z"/>
	<path class="st25" d="M1442.6,479.3c1.9,0,2.8,0.9,2.8,2.8v11.8c0,1.9-0.9,2.8-2.8,2.8h-1.4c-1,0-1.7-0.3-2-1.2v6.3h-2.5v-22.5h2.5
		v1.2c0.3-0.9,1-1.2,2-1.2H1442.6z M1443,482.5c0-0.9-0.2-1.1-1.1-1.1h-1.4c-0.9,0-1.2,0.3-1.2,1.3v10.6c0,1,0.4,1.3,1.2,1.3h1.4
		c0.9,0,1.1-0.2,1.1-1.1V482.5z"/>
	<path class="st25" d="M1457.1,479.3v17.5h-2.5v-1.2c-0.3,0.9-1,1.2-2,1.2h-1.4c-1.9,0-2.8-0.9-2.8-2.8v-11.8c0-1.9,0.9-2.8,2.8-2.8
		h1.4c1,0,1.7,0.3,2,1.2v-1.2H1457.1z M1453.4,494.6c0.9,0,1.2-0.3,1.2-1.3v-10.6c0-1-0.4-1.3-1.2-1.3h-1.4c-0.9,0-1.1,0.2-1.1,1.1
		v11c0,0.9,0.2,1.1,1.1,1.1H1453.4z"/>
	<path class="st25" d="M1466.2,479.3v2.2h-1.1c-1.6,0-2.3,0.9-2.3,2.7v12.6h-2.5v-17.5h2.5v2c0.3-1,1.2-2,2.6-2H1466.2z"/>
	<path class="st25" d="M1470.6,481.4v11.9c0,0.9,0.2,1.1,1.1,1.1h1.4v2.3h-2.1c-1.9,0-2.8-0.9-2.8-2.8v-12.5h-1.6v-2.1h1.6v-2.8h2.5
		v2.8h2.5v2.1H1470.6z"/>
	<path class="st25" d="M1475,472.6h2.6v2.9h-2.6V472.6z M1475.1,496.7v-17.5h2.5v17.5H1475.1z"/>
	<path class="st25" d="M1487.1,484.4v-1.9c0-0.9-0.2-1.1-1.1-1.1h-1.8c-0.9,0-1.1,0.2-1.1,1.1v11c0,0.9,0.2,1.1,1.1,1.1h1.8
		c0.9,0,1.1-0.2,1.1-1.1v-1.9h2.5v2.3c0,1.9-0.9,2.8-2.8,2.8h-3.3c-1.9,0-2.8-0.9-2.8-2.8v-11.8c0-1.9,0.9-2.8,2.8-2.8h3.3
		c1.9,0,2.8,0.9,2.8,2.8v2.3H1487.1z"/>
	<path class="st25" d="M1492.4,472.6h2.6v2.9h-2.6V472.6z M1492.5,496.7v-17.5h2.5v17.5H1492.5z"/>
	<path class="st25" d="M1504.1,479.3c1.9,0,2.8,0.9,2.8,2.8v11.8c0,1.9-0.9,2.8-2.8,2.8h-1.4c-1,0-1.7-0.3-2-1.2v6.3h-2.5v-22.5h2.5
		v1.2c0.3-0.9,1-1.2,2-1.2H1504.1z M1504.5,482.5c0-0.9-0.2-1.1-1.1-1.1h-1.4c-0.9,0-1.2,0.3-1.2,1.3v10.6c0,1,0.4,1.3,1.2,1.3h1.4
		c0.9,0,1.1-0.2,1.1-1.1V482.5z"/>
	<path class="st25" d="M1518.6,479.3v17.5h-2.5v-1.2c-0.3,0.9-1,1.2-2,1.2h-1.4c-1.9,0-2.8-0.9-2.8-2.8v-11.8c0-1.9,0.9-2.8,2.8-2.8
		h1.4c1,0,1.7,0.3,2,1.2v-1.2H1518.6z M1514.9,494.6c0.9,0,1.2-0.3,1.2-1.3v-10.6c0-1-0.4-1.3-1.2-1.3h-1.4c-0.9,0-1.1,0.2-1.1,1.1
		v11c0,0.9,0.2,1.1,1.1,1.1H1514.9z"/>
	<path class="st25" d="M1527.7,479.3c1.9,0,2.8,0.9,2.8,2.8v14.6h-2.5v-14.2c0-0.9-0.2-1.1-1.1-1.1h-1.4c-0.9,0-1.2,0.3-1.2,1.3v14
		h-2.5v-17.5h2.5v1.2c0.3-0.9,1-1.2,2-1.2H1527.7z"/>
	<path class="st25" d="M1536.4,481.4v11.9c0,0.9,0.2,1.1,1.1,1.1h1.4v2.3h-2.1c-1.9,0-2.8-0.9-2.8-2.8v-12.5h-1.6v-2.1h1.6v-2.8h2.5
		v2.8h2.5v2.1H1536.4z"/>
	<path class="st25" d="M1546.3,490.2c0-0.9-0.2-1.1-1.1-1.1h-1.8c-1.9,0-2.8-0.9-2.8-2.8v-4.1c0-1.9,0.9-2.8,2.8-2.8h2.4
		c1.9,0,2.8,0.9,2.8,2.8v1.8h-2.4v-1.4c0-0.9-0.2-1.1-1.1-1.1h-1c-0.9,0-1.1,0.2-1.1,1.1v3.4c0,0.9,0.2,1.1,1.1,1.1h1.8
		c1.9,0,2.8,0.9,2.8,2.8v4c0,1.9-0.9,2.8-2.8,2.8h-2.4c-1.9,0-2.8-0.9-2.8-2.8v-1.8h2.4v1.4c0,0.9,0.2,1.1,1.1,1.1h1
		c0.9,0,1.1-0.2,1.1-1.1V490.2z"/>
	<path class="st25" d="M1561.6,490.2c0-0.9-0.2-1.1-1.1-1.1h-1.8c-1.9,0-2.8-0.9-2.8-2.8v-4.1c0-1.9,0.9-2.8,2.8-2.8h2.4
		c1.9,0,2.8,0.9,2.8,2.8v1.8h-2.4v-1.4c0-0.9-0.2-1.1-1.1-1.1h-1c-0.9,0-1.1,0.2-1.1,1.1v3.4c0,0.9,0.2,1.1,1.1,1.1h1.8
		c1.9,0,2.8,0.9,2.8,2.8v4c0,1.9-0.9,2.8-2.8,2.8h-2.4c-1.9,0-2.8-0.9-2.8-2.8v-1.8h2.4v1.4c0,0.9,0.2,1.1,1.1,1.1h1
		c0.9,0,1.1-0.2,1.1-1.1V490.2z"/>
	<path class="st25" d="M1575.5,479.3v17.5h-2.5v-1.2c-0.3,0.9-1,1.2-2,1.2h-1.4c-1.9,0-2.8-0.9-2.8-2.8v-11.8c0-1.9,0.9-2.8,2.8-2.8
		h1.4c1,0,1.7,0.3,2,1.2v-1.2H1575.5z M1571.8,494.6c0.9,0,1.2-0.3,1.2-1.3v-10.6c0-1-0.4-1.3-1.2-1.3h-1.4c-0.9,0-1.1,0.2-1.1,1.1
		v11c0,0.9,0.2,1.1,1.1,1.1H1571.8z"/>
	<path class="st25" d="M1582.7,474.9c-0.9,0-1.1,0.2-1.1,1.1v3.2h2.5v2.1h-2.5v15.3h-2.5v-15.3h-1.7v-2.1h1.7v-3.8
		c0-1.9,0.9-2.8,2.8-2.8h2.2v2.3H1582.7z"/>
	<path class="st25" d="M1592,479.3c1.9,0,2.8,0.9,2.8,2.8v6.7h-6.5v4.6c0,0.9,0.2,1.1,1.1,1.1h1.7c0.9,0,1.1-0.2,1.1-1.1v-1.6h2.5v2
		c0,1.9-0.9,2.8-2.8,2.8h-3.2c-1.9,0-2.8-0.9-2.8-2.8v-11.8c0-1.9,0.9-2.8,2.8-2.8H1592z M1592.4,486.7v-4.2c0-0.9-0.2-1.1-1.1-1.1
		h-1.8c-0.9,0-1.1,0.2-1.1,1.1v4.2H1592.4z"/>
	<path class="st25" d="M1600.4,481.4v11.9c0,0.9,0.2,1.1,1.1,1.1h1.4v2.3h-2.1c-1.9,0-2.8-0.9-2.8-2.8v-12.5h-1.6v-2.1h1.6v-2.8h2.5
		v2.8h2.5v2.1H1600.4z"/>
	<path class="st25" d="M1606.1,479.3l2.8,15.7l2.6-15.7h2.5l-3.5,19.7c-0.4,1.9-1.5,2.8-3.4,2.8h-1.9v-2.1h1.2
		c0.9,0,1.6-0.2,1.8-1.1l0.4-1.8h-1.6l-3.3-17.5H1606.1z"/>
	<path class="st25" d="M1615.4,492.7h3v4h-3V492.7z"/>
</g>
</svg>
