<?xml version="1.0" encoding="utf-8"?>
<!-- Generator: Adobe Illustrator 27.3.1, SVG Export Plug-In . SVG Version: 6.00 Build 0)  -->
<svg version="1.1" id="Layer_1" xmlns="http://www.w3.org/2000/svg" xmlns:xlink="http://www.w3.org/1999/xlink" x="0px" y="0px"
	 viewBox="0 0 396 396" style="enable-background:new 0 0 396 396;" xml:space="preserve">
<style type="text/css">
	.st0{fill:#703717;}
	.st1{fill:#D64827;stroke:#BA3A26;stroke-width:4;stroke-miterlimit:10;}
	.st2{fill:#FBE4D6;stroke:#C5B5AF;stroke-width:4;stroke-linecap:round;stroke-linejoin:round;stroke-miterlimit:10;}
	.st3{fill:none;stroke:#3D52A3;stroke-linecap:round;stroke-linejoin:round;stroke-miterlimit:10;}
	.st4{fill:#EBDDD7;stroke:#CDB9B1;stroke-miterlimit:10;}
	.st5{fill:none;stroke:#A8A594;stroke-miterlimit:10;}
	.st6{fill:#EBDDD7;stroke:#CDB9B1;stroke-width:4;stroke-miterlimit:10;}
	.st7{fill:none;stroke:#A5391D;stroke-miterlimit:10;}
	.st8{fill:#EEE7CB;stroke:#B1AE9B;stroke-width:4;stroke-miterlimit:10;}
	.st9{fill:#E98039;stroke:#CC6028;stroke-miterlimit:10;}
	.st10{fill:#D13C27;stroke:#A53A23;stroke-miterlimit:10;}
	.st11{fill:none;stroke:#BA3A26;stroke-width:4;stroke-miterlimit:10;}
	.st12{fill:#1A130E;}
	.st13{fill:#21393F;stroke:#17292D;stroke-width:4;stroke-miterlimit:10;}
	.st14{fill:#E4E4E3;stroke:#C0CED2;stroke-width:4;stroke-miterlimit:10;}
	.st15{fill:#E4E4E3;stroke:#C0CED2;stroke-miterlimit:10;}
	.st16{fill:none;stroke:#C0CED2;stroke-width:11;stroke-miterlimit:10;}
	.st17{fill:none;stroke:#E4E4E3;stroke-width:4;stroke-miterlimit:10;}
	.st18{fill:#21393F;}
	.st19{fill:none;stroke:#974C1E;stroke-width:5;stroke-miterlimit:10;}
</style>
<path class="st0" d="M335.5,378H59.7c-23.2,0-42.1-18.8-42.1-42.1V60.1C17.6,36.8,36.5,18,59.7,18h275.9c23.2,0,42.1,18.8,42.1,42.1
	v275.9C377.6,359.2,358.8,378,335.5,378z"/>
<path class="st1" d="M348.9,376.1c0.2-0.1,0.5-1.2,0.7-1.3c1.5-1.5,3-0.9,4.6-2.3c4.3-3.7,8.6-6.5,13.1-9.3c1-1.1,1.9-2.2,2.8-3.3
	l-63.7-15.9l-11.3-2.6c-0.1,0-0.1,0-0.2,0c-2.6,0-2.4,1.3-2.4,1.6c0,0.1,0,0.1,0,0.2c-0.1,4.2-0.6,9.5-2.4,14.5c0,0,0,0,0,0.1
	l-5.3,19.4c4.2,0.2,8.4,0.6,12.5,1C314.6,378,331.8,376.8,348.9,376.1z"/>
<path class="st1" d="M38.3,371.3c2.9,1.8,5.8,3.6,8.8,5.3c0.1,0,0.1,0,0.2,0.1c6.5,0.3,13-0.1,19.5-0.2c8-0.1,15.9,0.9,23.8,2.1
	c3.8-0.1,7.6-0.1,11.3,0.2c2.5,0,5.1,0,7.6,0c4.7-0.2,9.5-0.4,14.2-0.6l-5.6-20.8c0,0,0,0,0-0.1c-2-5.5-2.5-11.4-2.4-15.7l0-0.4
	c0-0.6-0.5-1-1.1-0.9l-15.8,3.6l-70.3,17.6C31.7,364.8,34.9,368.2,38.3,371.3z"/>
<path class="st2" d="M354.9,371.9c2.9-2.4,5.9-4.5,8.8-6.5c-0.2-2.6-0.3-5.2-0.1-6.9l-20.6-5c0.6,1.4,1.1,2.3,1.1,2.3L354.9,371.9z"
	/>
<path class="st2" d="M335.5,377.6c0.1-1,1-1.5,4.1-0.1c3.1-0.1,6.2-2.2,9.3-2.3c0.2-0.1,0.5-1.2,0.7-1.3c0.5-0.5,0.9,2.1,1.4,1.6
	c-6.9-10.3-14.6-19-14.6-19l-0.6-0.7c-0.6-1.6-1.3-3.2-1.9-4.6l-5.5-1.4l-12.6-3.1l-19.5-4.5c0,0-3.9-1.4-3.6,0c0.2,1.4-0.7,9-0.7,9
	l-7,26c4.2,0.2,8.4,0.6,12.5,1C310.1,378,322.8,377.9,335.5,377.6z"/>
<path class="st3" d="M339.7,357"/>
<path class="st2" d="M31.9,365c1.4-1.5,2.9-2.9,4.5-4.4l-7,1.8C30.2,363.3,31.1,364.1,31.9,365z"/>
<polygon class="st4" points="319.3,306.6 88.7,306.6 89.3,234 319.9,234 "/>
<path class="st5" d="M319.7,235.3"/>
<line class="st6" x1="88.7" y1="296.5" x2="88.7" y2="235.3"/>
<path class="st7" d="M124.1,318.8l-8.2,17.1c0,0,0,1.2-0.1,3.2"/>
<path class="st8" d="M318.3,172.6c0,0-19.3-98.9-114.4-98.9h0.5C109.3,73.7,90,172.6,90,172.6"/>
<path class="st6" d="M203.4,274.6c109.5-1.3,116.2-39.3,116.2-39.3v-48.7c0-49.7-51.4-90-114.8-90h-1.4c-63.4,0-114.8,40.3-114.8,90
	v48.7c0,0,6.7,37.9,116.2,39.3"/>
<path class="st9" d="M219.8,378.1c18.7-19.9,30.4-43.3,37-59.9l-105.5,0c6.6,16.7,18.3,40.1,37.2,60
	C199,378.2,209.4,378.2,219.8,378.1z"/>
<path class="st7" d="M284,318.3l8.2,17.1c0,0,0.3,3.9,0.4,6.7"/>
<path class="st10" d="M98.8,343.9"/>
<path class="st1" d="M123.7,378.1c9.3-0.4,18.6-0.6,28-0.4c7.1,0.2,14.2,0.4,21.4,0.7c5.2,0,10.3-0.1,15.5-0.1
	c-18.9-19.9-30.6-43.4-37.2-60l-27.3,0.6l-8.2,17.1c0,0,0,1.2-0.1,3.2l-0.1,0.9l0,1.5c0,4.3,0.4,10.2,2.5,15.7L123.7,378.1z"/>
<path class="st1" d="M253.4,378c3.2,0,6.4,0,9.6,0c6.2-0.8,12.3-1.3,18.6-1.1c1.1,0,2.3,0.1,3.4,0.1l5.3-19.4
	c1.9-5.1,2.4-10.4,2.4-14.6l0-0.9c-0.1-2.8-0.4-6.7-0.4-6.7l-8.2-17.1l-27.1,0c-7.1,17.8-16.1,40.1-36.1,59.9
	C231.7,378.1,242.5,378,253.4,378z"/>
<path class="st6" d="M204.1,323.2c67.4-1,95.5-7,107.4-10.1c9.6-2.5,8.1-8.5,8.1-8.5v-8c0,0-40.2,10.9-114.4,10.1h-2.2
	c-74.2,0.8-114.4-10.1-114.4-10.1v8c0,0-1.5,6,8.1,8.5C108.7,316.2,136.8,322.2,204.1,323.2"/>
<line class="st6" x1="319.7" y1="296.5" x2="319.7" y2="235.3"/>
<path class="st5" d="M204.5,123.8"/>
<path class="st3" d="M339.7,357"/>
<path class="st5" d="M204.5,123.8"/>
<path class="st11" d="M348.9,376.1c0.2-0.1,0.5-1.2,0.7-1.3c1.5-1.5,3-0.9,4.6-2.3c4.3-3.7,8.6-6.5,13.1-9.3c1-1.1,1.9-2.2,2.8-3.3
	l-63.7-15.9l-11.4-2.6c0,0,0,0,0,0c-3-0.1-2.5,1.7-2.5,1.7c0,0,0,0,0,0c-0.1,4.2-0.6,9.5-2.4,14.6c0,0,0,0,0,0l-5.3,19.4
	c4.2,0.2,8.4,0.6,12.5,1C314.6,378,331.8,376.8,348.9,376.1z"/>
<path class="st11" d="M38.3,371.3c2.9,1.8,5.8,3.6,8.8,5.3c0.1,0,0.1,0,0.2,0.1c6.5,0.3,13-0.1,19.5-0.2c8-0.1,15.9,0.9,23.8,2.1
	c3.8-0.1,7.6-0.1,11.3,0.2c2.5,0,5.1,0,7.6,0c4.7-0.2,9.5-0.4,14.2-0.6l-5.6-20.8c0,0,0,0,0-0.1c-2-5.5-2.5-11.4-2.4-15.7l0-0.5
	c0-0.5-0.5-0.9-1-0.8l-15.9,3.7l-70.3,17.6C31.7,364.8,34.9,368.2,38.3,371.3z"/>
<path class="st2" d="M47,376.6c0.1,0,0.1,0,0.2,0.1c6.5,0.3,13-0.1,19.5-0.2c4.5-0.1,8.9,0.2,13.4,0.7c-5.4-4.4-9.8-4.1-9.8-4.1
	s-3.2,1.4-17.1-4.3c-5-2-10-0.2-14.3,2.9C41.5,373.4,44.2,375.1,47,376.6z"/>
<g>
	<path class="st12" d="M204.4,267.1C103,265.9,96.7,230.7,96.7,230.7v-45.2c0-46,47.6-83.3,106.4-83.3c2.1,0,2.1,0,2.1,0
		c58.8,0,106.4,37.3,106.4,83.3v45.2c0,0-6.2,35.2-107.7,36.4"/>
</g>
<path class="st13" d="M100.4,127c0,0-52.6-32.8-29.4-57.6s134.6-23,134.6-23h0.3c0,0,111.4-1.9,134.6,23S311.1,127,311.1,127"/>
<path class="st13" d="M99.7,140.1L99.7,140.1c-1.8,1.2-3.3,2.7-4.4,4.4c-3.2,5.1-4.4,14.5,24.7,19.3c41.1,6.7,85.4,4.3,85.4,4.3l0,0
	c0.5,0,1,0,1.5,0c5.9,0.3,46.6,1.9,84.6-4.3c29.1-4.7,27.9-14.2,24.7-19.3c-1.1-1.8-2.6-3.2-4.3-4.4l-0.1,0"/>
<polyline class="st13" points="99.6,140.1 205.4,122 311.9,140.1 "/>
<path class="st14" d="M207.1,128.7c48,0,95.8,9.8,103.8,11.5c0.8,0.2,1.5-0.3,1.7-1.1c0.8-3.5-1.2-9.2-1.9-11.1
	c-0.2-0.4-0.5-0.7-0.9-0.8c-28.3-7.8-102.9-12.2-102.9-12.2l-0.6,0c-0.5,0-1.1,0-1.6,0l0,0c0,0-74.6,4.5-102.9,12.2
	c-0.4,0.1-0.8,0.4-0.9,0.8c-0.7,1.9-2.7,7.6-1.9,11.1c0.2,0.8,0.9,1.2,1.7,1.1c8-1.7,55.8-11.5,103.8-11.5H207.1z"/>
<path class="st15" d="M180.4,72.9h-25.3c-1.3,0-2.3-0.8-2.3-1.9v0c0-1,1-1.9,2.3-1.9h27"/>
<path class="st15" d="M178.5,78.1h-20.2c-1,0-1.9-0.8-1.9-1.7v0c0-1,0.8-1.7,1.9-1.7h21.5"/>
<path class="st15" d="M179.4,89.3h-11.6c-0.6,0-1.1-0.7-1.1-1.6l0,0c0-0.9,0.5-1.6,1.1-1.6h12.4"/>
<path class="st15" d="M230.4,72.9h25.3c1.3,0,2.3-0.8,2.3-1.9v0c0-1-1-1.9-2.3-1.9h-27"/>
<path class="st15" d="M232.2,78.1h20.2c1,0,1.9-0.8,1.9-1.7v0c0-1-0.8-1.7-1.9-1.7h-21.5"/>
<path class="st15" d="M231.4,89.3H243c0.6,0,1.1-0.7,1.1-1.6l0,0c0-0.9-0.5-1.6-1.1-1.6h-12.4"/>
<path class="st15" d="M232.4,83.7h15.2c0.8,0,1.4-0.7,1.4-1.6l0,0c0-0.9-0.6-1.6-1.4-1.6h-16.2"/>
<path class="st15" d="M228.9,95h11.6c0.6,0,1.1-0.7,1.1-1.6v0c0-0.9-0.5-1.6-1.1-1.6h-12.4"/>
<path class="st15" d="M178.3,83.7h-15.2c-0.8,0-1.4-0.7-1.4-1.6l0,0c0-0.9,0.6-1.6,1.4-1.6h16.2"/>
<path class="st15" d="M181.8,95h-11.6c-0.6,0-1.1-0.7-1.1-1.6v0c0-0.9,0.5-1.6,1.1-1.6h12.4"/>
<ellipse class="st16" cx="205.4" cy="82" rx="24.6" ry="24.6"/>
<ellipse class="st17" cx="205.4" cy="82" rx="24.6" ry="24.6"/>
<polyline class="st15" points="201.7,95.5 200.1,99.2 211.7,99.2 210.1,95.6 "/>
<path class="st15" d="M205.8,63.1c-17.4,17.6-4.2,32.4-4.2,32.4l8.4,0C209.9,95.5,223.2,80.7,205.8,63.1"/>
<circle class="st15" cx="205.8" cy="79.1" r="4.7"/>
<circle class="st18" cx="205.8" cy="79.1" r="3.6"/>
<path class="st15" d="M197.4,76.8c0,0-7.2,7.3-2.5,18.1l3.7-4.3C196.6,86.4,196.2,81.8,197.4,76.8"/>
<path class="st15" d="M214,76.8c0,0,7.2,7.3,2.5,18.1l-3.7-4.3C214.9,86.5,215.2,81.8,214,76.8"/>
<path class="st19" d="M335.5,378H59.7c-23.2,0-42.1-18.8-42.1-42.1V60.1C17.6,36.8,36.5,18,59.7,18h275.9
	c23.2,0,42.1,18.8,42.1,42.1v275.9C377.6,359.2,358.8,378,335.5,378z"/>
</svg>
