<?xml version="1.0" encoding="utf-8"?>
<!-- Generator: Adobe Illustrator 27.3.1, SVG Export Plug-In . SVG Version: 6.00 Build 0)  -->
<svg version="1.1" id="Layer_1" xmlns="http://www.w3.org/2000/svg" xmlns:xlink="http://www.w3.org/1999/xlink" x="0px" y="0px"
	 viewBox="0 0 396 396" style="enable-background:new 0 0 396 396;" xml:space="preserve">
<style type="text/css">
	.st0{fill:#268399;stroke:#366F7B;stroke-width:5;stroke-miterlimit:10;}
	.st1{fill:none;stroke:#000000;stroke-miterlimit:10;}
	.st2{fill:#EFE8CC;stroke:#B5956A;stroke-width:0.5;stroke-linecap:round;stroke-linejoin:round;stroke-miterlimit:10;}
	.st3{fill:none;stroke:#000000;stroke-width:2;stroke-miterlimit:10;}
	.st4{fill:#EFE8CC;stroke:#B5956A;stroke-width:0.5;stroke-miterlimit:10;}
	.st5{fill:#D23D27;stroke:#B5956A;stroke-width:0.5;stroke-miterlimit:10;}
	.st6{fill:#EFE8CC;}
	.st7{fill:#EA8039;stroke:#CD6028;stroke-width:0.5;stroke-miterlimit:10;}
	.st8{fill:#EDE0D8;stroke:#D7AE9D;stroke-miterlimit:10;}
	.st9{fill:none;stroke:#B1AE9C;stroke-width:2;stroke-linecap:round;stroke-linejoin:round;stroke-miterlimit:10;}
	.st10{fill:#703616;stroke:#582807;stroke-width:2;stroke-linecap:round;stroke-linejoin:round;stroke-miterlimit:10;}
	.st11{fill:#D74727;stroke:#BA3A26;stroke-width:0.5;stroke-miterlimit:10;}
	.st12{fill:#EFE8CC;stroke:#B1AE9C;stroke-width:0.5;stroke-miterlimit:10;}
	.st13{fill:none;stroke:#A8A694;stroke-width:0.5;stroke-miterlimit:10;}
	.st14{fill:#EDE0D8;stroke:#D7AE9D;stroke-width:0.5;stroke-miterlimit:10;}
	.st15{fill:#DC7038;stroke:#AA5626;stroke-width:0.5;stroke-miterlimit:10;}
	.st16{fill:#D23C27;stroke:#A53A23;stroke-width:0.5;stroke-miterlimit:10;}
	.st17{fill:none;stroke:#A53A23;stroke-width:0.5;stroke-miterlimit:10;}
	.st18{fill:none;stroke:#BA3A26;stroke-width:0.5;stroke-miterlimit:10;}
	.st19{fill:#1D4149;stroke:#11292D;stroke-width:2;stroke-linecap:round;stroke-linejoin:round;stroke-miterlimit:10;}
	.st20{fill:none;stroke:#214144;stroke-width:5;stroke-linecap:round;stroke-linejoin:round;stroke-miterlimit:10;}
	.st21{fill:#2C6069;stroke:#214B50;stroke-width:0.5;stroke-miterlimit:10;}
	.st22{fill:none;stroke:#9BC8CD;stroke-linecap:round;stroke-miterlimit:10;}
	.st23{fill:#D2DFE1;stroke:#B9D6D8;stroke-width:0.5;stroke-miterlimit:10;}
	.st24{fill:#EEE7CB;}
	.st25{fill:#ECDED8;stroke:#CEBAB2;stroke-width:0.5;stroke-miterlimit:10;}
	.st26{fill:#EEE7CB;stroke:#B1AE9B;stroke-miterlimit:10;}
	.st27{fill:none;stroke:#A8A594;stroke-miterlimit:10;}
	.st28{fill:#19100A;}
	.st29{fill:#0D1A1C;stroke:#74CDE1;stroke-width:3;stroke-miterlimit:10;}
	.st30{fill:none;stroke:#74CDE1;stroke-width:3;stroke-linecap:round;stroke-linejoin:round;stroke-miterlimit:10;}
	.st31{fill:#B2D5DD;stroke:#7CAEB4;stroke-width:0.75;stroke-linecap:round;stroke-miterlimit:10;}
	.st32{fill:#0D1A1C;stroke:#7CAEB4;stroke-linecap:round;stroke-miterlimit:10;}
	.st33{fill:#B2D5DD;stroke:#7CAEB4;stroke-linecap:round;stroke-miterlimit:10;}
	.st34{fill:#EFE8CC;stroke:#B5956A;stroke-width:2;stroke-miterlimit:10;}
	.st35{fill:#CFDEE2;stroke:#ACB9BD;stroke-width:2;stroke-linecap:round;stroke-linejoin:round;stroke-miterlimit:10;}
	.st36{fill:#3E1D0D;stroke:#180000;stroke-width:2;stroke-miterlimit:10;}
</style>
<path class="st0" d="M335.5,378H59.7c-23.2,0-42.1-18.8-42.1-42.1V60.1C17.6,36.8,36.5,18,59.7,18h275.9c23.2,0,42.1,18.8,42.1,42.1
	v275.9C377.6,359.2,358.8,378,335.5,378z"/>
<path class="st1" d="M80.7,329.7"/>
<path class="st2" d="M140.2,167.8c-0.5-0.9-0.4,0.3,0,1.7C140.2,169,140.2,168.4,140.2,167.8z"/>
<path class="st3" d="M72.3,329.3"/>
<path class="st1" d="M293.8,329.7"/>
<path class="st1" d="M366.7,370.7"/>
<path class="st4" d="M265.3,176.6c1,0.7,1.8,1.2,1.8,1.2s2.9,1,0.8-1.1c-0.8-0.8-1.8-1.5-2.8-2.1"/>
<path class="st5" d="M264.6,171.8c1.2,0.1,2.4,0,2.8-0.5c0.8-1.2-0.5-1.6-0.5-1.6l-2.6,0.2"/>
<path class="st4" d="M290.8,267.4c-0.4-1.7-0.9-2.5-0.9-2.5s-1.2-1.8-2.1-1.7c0,0,0,0-0.1,0l0-0.3c0,0,0.2-4.9-4.2-5.8
	c-4.3-0.9-6.4-0.2-6.4-0.2s-6.8,1.3-7.3,3c-0.5,1.7,4.1,0.3,4.1,0.3l0.2,0c0,0,2.6-0.1,0,2.1l-1.2,0.2c0,0-3.8,0.5-1.5,2
	c2.3,1.5,5.6,2.5,5.6,2.5s0.8,0.4,1.6,0.8"/>
<path class="st5" d="M265.3,176.6c1,0.7,1.8,1.2,1.8,1.2s2.9,1,0.8-1.1c-0.8-0.8-1.8-1.5-2.8-2.1"/>
<path class="st6" d="M184.7,78.5"/>
<path class="st6" d="M193.4,80.1"/>
<path class="st3" d="M285.4,329.3"/>
<path class="st7" d="M181,160.6c12.1,10,26.2,19.7,36.3,21.3l0.4,0.5l0.3,0.3c0,0,16.3,16.4,33.1,9.6l15.1-23.8
	c-1-18.1-22.8-25.8-22.8-25.8l-0.2-0.2c-12.4-10.9-40.4-17.2-40.4-17.2"/>
<path class="st8" d="M272.1,201.5c-2.6-1.7-5.8-3.6-8.4-5c-5.1-2.9-5.2-7.6-5.2-7.6l7.7-11.8c0,0,9.1-4.7,20.1,2.3
	c11.1,7,8.4,18.6,8.4,18.6l0,0.2c1.7,6.3-4.9,9-4.9,9s-1,0.4-1.9,0.1l-0.2,0.2c-1.6,2.5-3.7,4.6-7.8,4.2l-0.2,0
	c-1.4,0.9-3.2,1.1-5.7-0.2c-7.3-3.8-2.2-9.7-2.2-9.7L272.1,201.5z"/>
<path class="st9" d="M279.7,211.7c2.7-1.8,3.6-6.1,3.6-6.1s0.7-5.2-8.5-13.6"/>
<path class="st9" d="M287.7,207.5c2-3.2,2.4-7.2,2.2-7.9c0,0-0.6-5-7.8-12"/>
<path class="st8" d="M285.2,182.5c0,0,6.5,7.8,9.1,14.7c0.1,0.3,0.2,0.6,0.3,0.9"/>
<path class="st7" d="M269.3,172.1L256.1,193c-0.2,0.3-0.7,0.4-1,0.2l-2.7-1.7c-0.3-0.2-0.4-0.7-0.2-1l13.2-20.9
	c0.2-0.3,0.7-0.4,1-0.2l2.7,1.7C269.4,171.3,269.5,171.8,269.3,172.1z"/>
<path class="st10" d="M126.2,364.1c0.5-0.1,1-0.1,1.5-0.1c25.9,0,51.8,0.5,77.6,0.5c1.4,0,2.7,0.3,3.9,0.8c0.3,0,0.6,0,0.8,0
	c-8.4-8.1-18-22.5-9.1-41.8l-68.2,0.2C141.5,341.6,133.9,355.6,126.2,364.1z"/>
<path class="st10" d="M104.6,323.1c-10.2,2.1-20.1-4.4-22.2-14.6L41.2,109.3c-2.1-10.2,4.4-20.1,14.6-22.2l15.3-3.2
	c10.2-2.1,20.1,4.4,22.2,14.6l41.2,199.2"/>
<path class="st10" d="M102.4,270.2h138.2c11.3,0,20.4,8.4,20.4,18.8v15.6c0,10.4-9.1,18.8-20.4,18.8H102.4"/>
<path class="st7" d="M193,278.2c0,0-52.2,0.7-56-13.5c-3.9-14.2,50.4-12.2,50.4-12.2l20.5,18.2L193,278.2z"/>
<path class="st1" d="M154.2,329.7"/>
<path class="st1" d="M227.1,370.7"/>
<path class="st6" d="M195.8,82.8"/>
<path class="st11" d="M138.2,98.1c-1.2,0.6,1-3.1,1-3.1s-0.7-3.8,0.4-8.3c1.1-4.4,16.7-1.2,16.7-1.2S198,96.8,194,101.1l-4.2,6.8
	c0,0-0.2,1.2-3.9-1.2C182.2,104.3,149.9,92.5,138.2,98.1z"/>
<polyline class="st7" points="183.6,100.4 146.9,91.2 146.4,86.9 181.6,84.6 181.8,86.2 183.6,100.4 "/>
<path class="st12" d="M168.7,80.2"/>
<path class="st13" d="M176.8,39.4"/>
<path class="st13" d="M176.8,39.4"/>
<path class="st6" d="M204.6,84.3"/>
<path class="st14" d="M307.3,364.7c11.2-0.2,22.4-0.5,33.7-0.6c0.6-4.9-1-10.2-1-10.2c-3-6.7-10.4-11.1-18.4-10.9
	c0,0-4.5-0.1-8.4,1.2c0-0.1-1.2-4.1-1.8-4c-0.7,0.1-26.2,0.4-26.2,0.4c-3.6,6.9-3.7,17.2-3.2,24.3
	C290.4,364.9,298.8,364.8,307.3,364.7z"/>
<path class="st15" d="M183.4,222.9c0,0,63-0.4,64.4,10.6"/>
<path class="st7" d="M214.4,224c0,0,49.3-1.6,58.5,5.3l32.3,2.9c0,0,18.7,4.2,20.1,22.8c1.5,18.6-4.3,29.7-4.3,29.7
	s-3.8,5.5-11.8,5.9l-32.3-2.9c-10.2,5.1-58.5-5.3-58.5-5.3l-1.5-0.1c-12-1.2-23.7-3.1-29.2-4.1l-1.3-0.2"/>
<path class="st14" d="M307.3,364.7c8-0.1,16.1-0.3,24.1-0.4c-0.1-3-0.7-5.5-0.7-5.5c-2.7-6.8-9.8-11.6-17.8-11.8
	c0,0-4.5-0.3-8.4,0.8c0,0,0,0,0,0c-0.1-0.2-1-4.1-1.6-4.1c-0.7,0.1-26.2-0.9-26.2-0.9c-3.6,6.1-4.4,15.3-4.4,22.2
	C283.8,364.9,295.5,364.9,307.3,364.7z"/>
<path class="st7" d="M185.2,222.4c0,0,63.4-0.4,64.8,10.7"/>
<path class="st7" d="M262.7,289.3c-17.9-1.2-42.2-6.6-42.2-6.6l-1.5-0.1c-12.1-1.2-23.8-3.1-29.4-4.1l-1.3-0.3"/>
<path class="st7" d="M322,277.4c-0.3,5.4,0.8,9.8-0.6,12.1l0.3,32.6c0,0-2.3,19.1-20.9,22.5c-18.6,3.4-30.4-1.3-30.4-1.3
	s-5.9-3.3-7.2-11.3l-0.3-32.6c-1.8-2.8-2.6-9.1-2.9-16.4"/>
<path class="st7" d="M248.4,230.7c0,0,43.8-2.5,70.8,10.1"/>
<path class="st16" d="M189.5,160c0,0-24,7.7-53,6.9"/>
<path class="st11" d="M188.7,108.2c0.1,0.8,31.6,24.7,28.3,44.8c-3.3,20.1,12.5,105.1,12.5,105.1s-96,14.2-98.8,8.7
	c-2.8-5.5,0.7-37.6,0.7-37.6s-5-62.4-10.4-74.7c-5.4-12.3,1.3-46.7,11.8-51.2C143.3,98.8,188.7,108.2,188.7,108.2z"/>
<path class="st4" d="M216.2,142.7c-0.3,0.5-1.1,1.8-3.2,3c0,0-2.2,2.1-2.4,2.9c-0.1,0.8-0.4,0.6-0.4,0.6s-0.6-1.7,0-2.8
	c0.6-1.2-0.5-0.4-0.5-0.4l-1.6,4.7c0,0-0.8,1.5-1.1-0.3c-0.3-1.8-0.3-5.1-0.3-5.1s-1-3-1.3,0s0.5,7.2,0.5,7.2s0.4,3.4-1.1,1.1
	c0,0-2.1-4.7-3.5-4.6c-1.4,0-1,1.3-1,1.3l3.1,3.6c0,0,1.5,2.9-1.2,1.2c0,0-2.4-2.8-6.6-3.2c-4.2-0.4-1.8,2.4-1.8,2.4
	s4.6-0.4,6.1,1.7c0,0,2.5,1.5,0.3,2.2c0,0-1.6-0.1-2.2-0.2c-0.6-0.2-7,1.2-7,1.2s-3,2.6-5.3,1.1c-2.3-1.4-3.8-4.5-3.8-4.5
	s-2-5.1,1.4-8.4c3.4-3.3,2.7-4.9,2.7-4.9s-0.1-3.4,6.2-3.4c6.4,0,9.7,8,9.7,8s1.3,3.1,1.3-0.2s-1.3-5.3-1.3-5.3s-3.2-1.5-3.1-5.3
	c0.1-3.8-0.3-5.9,1.9-7.1c0,0,4.4-0.6,6.3-1.4c0.2-0.1,0.4-0.1,0.7-0.2"/>
<path class="st4" d="M200.1,161.9c0,0-2.6,0.5,0.5,2.1l1.2-0.2c0,0,3.8-0.4,1.9,1.5c-1.9,2-4.8,3.8-4.8,3.8s-4.5,3.5-0.7,3.4
	c3.8-0.1,5.5-4.8,5.5-4.8s2.2-3.8,1.2,1.4c-1,5.2-1.5,5.7-0.5,6.4c1,0.7,2.2-4.5,2.2-4.5s-0.8-4.7,0.7-4.7s1.3,5.8,1.3,5.8l0.7,6.3
	c0,0,0.1,6.9-4.1,9c-4.2,2.1-4.5,1.3-7.1-1c0,0-5.6,3.5-9.7-4.1c-4.1-7.6-2.6-12.1-2.6-12.1s0.7-2,1.7-2.2c0,0,0,0,0.1,0l-0.1-0.3
	c0,0-1.4-4.7,2.6-6.6s6.2-1.8,6.2-1.8s6.9-0.4,7.8,1.1c0.9,1.5-3.9,1.4-3.9,1.4L200.1,161.9z"/>
<path class="st2" d="M216.4,144.6c-9.4,7.3-9.8,15.6-9.8,15.6s0.4,4.3,2.7,0.5c0,0,0.8-8,7.3-14.3"/>
<path class="st2" d="M216.9,153.7c-0.8,0.3-1.4,0.6-1.4,0.6c-4.8,4.3-0.3-2.5-0.3-2.5s0.7-1,1.9-2.1"/>
<path class="st2" d="M216.6,158.6c-1.9,0.3-0.8-1.1,0.1-1.9"/>
<path class="st2" d="M216.7,164.9c-0.4-0.1-0.9-0.1-1.4-0.2c-3.4-0.2-0.6-2.1,1.2-3.2"/>
<path class="st2" d="M216.9,170c-0.5-0.7-1-1.3-1-1.3c-1.2-1.8-0.2-1.5,0.9-1"/>
<path class="st2" d="M218.8,188.6c-2.8,0.7-8.2,0.8-7.2-9.1l-0.1-0.3c0,0-1.7-6.6-1.4-11.2c0.3-4.6,1.6-0.3,1.6-0.3l1.3,5.1
	c1.9,2.9,1.7,0.1,1.7,0.1s-2.2-8-0.6-4.7c1.6,3.3,2.8,3.5,2.8,3.5c0.1,0,0.2,0.1,0.3,0.1"/>
<path class="st4" d="M197.6,214.1c0,0-1,3.3-1.3-0.1c-0.3-3.3,0.9-5.4,0.9-5.4s3.1-1.8,2.6-5.6c-0.4-3.8-0.2-5.9-2.6-6.9
	c0,0-4.4-0.2-6.4-0.8c-1.9-0.6-4,0.8-4,0.8s-2.5,2.2-3.3,4.7c-0.8,2.5-0.5,3.1-0.5,3.1s-2.7,3.6-0.3,7c0,0,0.6,1.6,3.6,3
	c0,0,2.4,1.9,2.6,2.7c0.2,0.7,0.4,0.5,0.4,0.5s0.5-1.7-0.2-2.8c-0.7-1.1,0.5-0.5,0.5-0.5l2.1,4.5c0,0,1,1.4,1.1-0.4
	s-0.2-5.1-0.2-5.1s0.7-3,1.3-0.1s0.2,7.3,0.2,7.3s-0.1,3.5,1.2,1c0,0,1.6-4.9,3.1-4.9c1.4-0.1,1.1,1.2,1.1,1.2l-2.7,3.8
	c0,0-1.2,3,1.3,1c0,0,2.1-3,6.2-3.8s2,2.2,2,2.2s-4.6,0-5.9,2.3c0,0-2.3,1.8-0.1,2.2c0,0,1.6-0.2,2.2-0.4c0.6-0.2,7.1,0.5,7.1,0.5
	s3.2,2.3,5.4,0.6c2.2-1.6,3.3-4.9,3.3-4.9s1.5-5.2-2.2-8.2c-3.7-3-3.2-4.6-3.2-4.6s-0.2-3.4-6.5-2.8
	C200.2,205.9,197.6,214.1,197.6,214.1z"/>
<path class="st4" d="M211.9,234.5c0,0,1.3-4.6-2.8-6.2c-4.1-1.6-6.3-1.2-6.3-1.2s-6.9,0.2-7.7,1.8c-0.8,1.5,4,1,4,1h0.2
	c0,0,2.6,0.3-0.3,2.1l-1.2,0c0,0-3.8-0.1-1.8,1.7s5.1,3.4,5.1,3.4s4.8,3.1,1,3.3c-3.8,0.2-5.9-4.3-5.9-4.3s-2.6-3.6-1,1.5
	c1.5,5.1,2,5.5,1.1,6.3c-0.9,0.8-2.6-4.3-2.6-4.3s0.3-4.8-1.2-4.6c-1.5,0.2-0.7,5.9-0.7,5.9l-0.1,6.4c0,0,0.5,6.9,4.9,8.6
	c4.4,1.7,4.7,0.9,7-1.7c0,0,5.9,3,9.3-5c3.4-7.9,1.4-12.3,1.4-12.3s-0.9-2-1.8-2c0,0,0,0-0.1,0L211.9,234.5z"/>
<path class="st2" d="M179.7,106.5c3.1,5.6,2.1,8.3,2.1,8.3s-1.7,5.1-7.5,1.4l-0.2-0.1c0,0-9.3,1-0.9,1.9s6.1,10.3,6.1,10.3
	s6.9,10.7-5.3,12.7l-0.2,0.1c0,0-8.9,6.8-10.5-6.5l-0.1-0.2c0,0-3.1-6-3.8-10.6c-0.7-4.5,1.5-0.6,1.5-0.6l2.3,4.7
	c2.4,2.4,1.7-0.2,1.7-0.2s-3.9-7.4-1.6-4.5s3.5,2.8,3.5,2.8c2.9,0.3-1.5-2.9-1.5-2.9c-2.7-2.7,2.5-0.5,2.5-0.5c5,3.5,3.5-1,3.5-1
	s-2.7-3-7.4-2.2c-4.7,0.8,1.6-4.3,1.6-4.3c5.4-1.5,4.4-1.9,4.4-1.9s-0.1-3.3-4.8-0.6c-4.7,2.7-1.1-2-1.1-2s3.8-0.8,3.5-3.3
	c-0.3-2.5-5.7,2-5.7,2c-3.8,5.2-0.8-2.4-0.8-2.4s0.6-1.4,1.6-2.9"/>
<path class="st2" d="M176.7,210.4c15.7,7.3,16.6,18.9,16.6,18.9s-0.3,4.3-2.7,0.6c0,0-1.8-13.5-15.4-18.7c0,0,1.8,5.3-2,5
	c0,0-2,0.7-1.1-4c0,0-2.5,5.2-4.6,2.2c-2-3,2.9-5.3,2.9-5.3s-4.7-0.8-3.6-3.7c1.1-2.9,4.2-1,4.2-1l1.4,1.5c0,0-0.2-6,2.9-3.2
	c3.1,2.8-0.1,3.9-0.1,3.9s2.6-1.7,3.2,0.6s-1.7,3-1.7,3L176.7,210.4z"/>
<path class="st2" d="M181.5,257.6c0,0,10.8,3.3,7.6-9.7l0-0.3c0,0,0.8-6.7-0.1-11.3c-0.9-4.5-1.6-0.1-1.6-0.1l-0.5,5.2
	c-1.4,3.1-1.6,0.4-1.6,0.4s1.1-8.3-0.1-4.7c-1.2,3.5-2.3,3.9-2.3,3.9c-2.6,1.3,0.4-3.2,0.4-3.2c1.6-3.4-2.5,0.4-2.5,0.4
	c-3.5,5-3.6,0.2-3.6,0.2s1.5-3.7,6.1-4.6c4.7-0.9-3-3.5-3-3.5c-5.5,0.4-4.8-0.3-4.8-0.3s-1-3.1,4.3-2.2c5.3,0.9,0.4-2.2,0.4-2.2
	s-3.9,0.6-4.5-1.9c-0.6-2.5,6-0.1,6-0.1c5.4,3.5,0-2.5,0-2.5s-5.4-5.7-8.9-3.3c-3.5,2.4-4.4,2.3-4.4,2.3s-3.4,0.5-4.4,7
	c-1,6.5,0.9,8.7,0.9,8.7s3.4,4.2,7.5-1.3l0.1-0.2c0,0,9.1-2.3,1.5,1.5c-7.7,3.7-2.1,11.8-2.1,11.8s-2.7,12.5,9.4,10.1L181.5,257.6z"
	/>
<path class="st4" d="M149.4,102.3c0.1,0,0,0.2,0,0.3c0.3,3,2.1,7,2.1,7s1.2,3.3-0.9,1.3c0,0-3.1-4.1-4.4-3.7s-0.7,1.5-0.7,1.5
	l3.8,2.8c0,0,2.1,2.4-0.9,1.4c0,0-2.9-2.2-7.1-1.7c-4.2,0.5-1.2,2.7-1.2,2.7s4.4-1.4,6.3,0.3c0,0,2.8,1,0.8,2.1c0,0-1.6,0.3-2.2,0.3
	c-0.6,0-6.6,2.7-6.6,2.7s-2.4,3.2-4.9,2.3c-2.6-0.9-4.7-3.6-4.7-3.6s-3.1-4.5-0.5-8.5c1.4-2.2,1.7-3.6,1.8-4.4
	C130,105.2,133,101.1,149.4,102.3z"/>
<path class="st4" d="M153.8,102.9l-0.5,4.4c0,0-0.5,1.7-1.2-0.1c-0.5-1.4-1.1-3.6-1.4-4.5"/>
<path class="st4" d="M148.2,120.1c0,0-2.4,1.1,1,1.9l1.1-0.4c0,0,3.6-1.3,2.2,1.1s-3.8,4.8-3.8,4.8s-3.6,4.4,0.1,3.4
	c3.7-1,4.3-5.9,4.3-5.9s1.3-4.2,1.5,1.1c0.2,5.3-0.2,5.9,0.9,6.3c1.1,0.5,1.2-4.9,1.2-4.9s-1.8-4.4-0.3-4.7c1.5-0.3,2.5,5.4,2.5,5.4
	l2.1,6c0,0,1.7,6.7-2,9.7s-4.1,2.3-7.1,0.6c0,0-4.7,4.7-10.4-1.8c-5.7-6.5-5.2-11.2-5.2-11.2s0.3-2.2,1.1-2.5c0,0,0,0,0,0l-0.1-0.3
	c0,0-2.4-4.2,1-7c3.4-2.8,5.6-3.1,5.6-3.1s6.6-1.9,7.8-0.7c1.2,1.2-3.5,2.2-3.5,2.2L148.2,120.1z"/>
<path class="st2" d="M157.7,103.1c-4.6,7.7-3.5,13.9-3.5,13.9s1.4,4.1,2.8-0.1c0,0-0.9-6.6,2.7-13.5"/>
<path class="st17" d="M156.2,103c2.1,0.2,4.3,0.5,6.5,0.8"/>
<path class="st17" d="M150.8,102.4c1.8,0.1,3.6,0.3,5.4,0.5"/>
<path class="st4" d="M125.7,176.6c1,0.7,1.8,1.2,1.8,1.2s2.9,1,0.8-1.1c-0.8-0.8-1.8-1.5-2.8-2.1"/>
<path class="st4" d="M123.3,162.1c1-1.9,2.4-5.2,2.4-5.2s-0.3-3.9,2.2-5c2.5-1,5.9-0.4,5.9-0.4s5.2,1.4,5.9,6.1
	c0.6,4.7,2.3,5.1,2.3,5.1s2.9,1.9-0.9,7c-3.8,5.1-12.2,3.1-12.2,3.1s-3.3-0.8-0.6,1.2c2.7,2,5.1,2,5.1,2s3.1-1.7,6.2,0.6
	c3,2.3,5,3.2,4.6,5.7c0,0-2.1,3.9-2.6,5.9c-0.5,1.9-2.7,3-2.7,3s-3.2,1-5.7,0.4c-2.6-0.6-2.9-1.2-2.9-1.2s-1.2,0.1-2.6-0.3"/>
<path class="st5" d="M124.2,168c1.3-0.4,3.1-1.3,4.6-3c2.8-3.1-0.8-2.9-0.8-2.9s-1.8,3-4,3.7"/>
<path class="st5" d="M125,171.8c1.2,0.1,2.4,0,2.8-0.5c0.8-1.2-0.5-1.6-0.5-1.6l-2.6,0.2"/>
<path class="st4" d="M119.2,146.3c0.1,0.1,0.1,0.1,0.1,0.1s1.2,1.8,0.8,2.6c0,0,0,0,0,0l0.3,0.1c0,0,4.6,1.6,3.8,6
	c-0.4,2.4-1,4-1.5,4.9"/>
<path class="st4" d="M129.8,254.9c0.2,0,0.6-0.2,1.2-0.9c0,0,1.6-3.3,5.5-4.8c3.9-1.5,2.3,1.8,2.3,1.8s-4.6,0.8-5.4,3.2
	c0,0-2,2.1,0.2,2.2c0,0,1.5-0.4,2.1-0.8c0.5-0.3,7.1-0.6,7.1-0.6s3.6,1.7,5.5-0.2c1.9-2,2.5-5.3,2.5-5.3s0.6-5.4-3.5-7.7
	c-4.1-2.3-3.9-4-3.9-4s-0.7-3.4-6.9-1.7c-3.5,0.9-5.4,4-6.4,6.6"/>
<path class="st4" d="M151.3,267.4c-0.4-1.7-0.9-2.5-0.9-2.5s-1.2-1.8-2.1-1.7c0,0,0,0-0.1,0l0-0.3c0,0,0.2-4.9-4.2-5.8
	c-4.3-0.9-6.4-0.2-6.4-0.2s-6.8,1.3-7.3,3c-0.5,1.7,4.1,0.3,4.1,0.3l0.2,0c0,0,2.6-0.1,0,2.1l-1.2,0.2c0,0-3.8,0.5-1.5,2
	c2.3,1.5,5.6,2.5,5.6,2.5s0.8,0.4,1.6,0.8"/>
<path class="st5" d="M125.7,176.6c1,0.7,1.8,1.2,1.8,1.2s2.9,1,0.8-1.1c-0.8-0.8-1.8-1.5-2.8-2.1"/>
<path class="st18" d="M162.7,103.8c13.4,1.8,26,4.4,26,4.4c0.1,0.8,31.6,24.7,28.3,44.8c-3.3,20.1,12.5,105.1,12.5,105.1
	s-96,14.2-98.8,8.7c-2.8-5.5,0.7-37.6,0.7-37.6s-5-62.4-10.4-74.7s1.3-46.7,11.8-51.2c3.3-1.4,10.2-1.4,18-0.8"/>
<path class="st19" d="M224.3,229.6c-23.5,10.5-60.8,23.6-94.7,20.5l-1,9.6c7.8,2.4,35.9-0.8,35.9-0.8c21.5-0.6,58.8-16,58.8-16
	s1.6-0.7,4.1-1.8"/>
<path class="st20" d="M222.6,171.6c0,0,0.3-51.2-53.2-73"/>
<path class="st21" d="M243.4,246.3c0.2,1-0.5,2-1.6,2.3l-3.1,0.8l-0.5,0.1c-4.2,1.2-9.2-1-10.3-5l-4.1-14.2
	c-0.2-0.6,0.2-1.2,0.8-1.4l10.4-2.9c1-0.3,2.1,0.2,2.5,1.1C239,230.1,241.9,236.9,243.4,246.3z"/>
<path class="st21" d="M237.8,227.3l1.3-0.4c0.1,0,0.1,0,0.2,0c2.7-0.8,6.5,3.7,8.3,9.9c1.8,6.1,1.1,11.8-1.6,12.7l-1.7,0.5
	c-2.7,0.6-6.4-3.9-8.2-10C234.2,233.8,235,228.1,237.8,227.3c0.1,0,0.1,0,0.2,0"/>
<line class="st22" x1="241.1" y1="233.7" x2="238.9" y2="234.3"/>
<line class="st22" x1="246.7" y1="232.1" x2="244.5" y2="232.7"/>
<path class="st23" d="M240.6,233.5L240.6,233.5c0.7-0.2,1.3,0.2,1.5,0.8l1.3,4.3c0.2,0.6-0.2,1.3-0.9,1.5h0
	c-0.7,0.2-1.3-0.2-1.5-0.8l-1.3-4.3C239.6,234.4,240,233.7,240.6,233.5z"/>
<path class="st11" d="M134.8,103c-1.2,0.6,1-3.1,1-3.1s-0.7-3.8,0.4-8.3c1.1-4.4,16.7-1.2,16.7-1.2s41.8,11.2,37.8,15.5l-4.2,6.8
	c0,0-0.2,1.2-3.9-1.2C178.8,109.1,146.4,97.3,134.8,103z"/>
<path class="st24" d="M195.1,82"/>
<rect x="159.2" y="43" transform="matrix(0.1846 -0.9828 0.9828 0.1846 60.8624 230.2968)" class="st25" width="20" height="70.9"/>
<path class="st26" d="M168.6,79.5"/>
<path class="st27" d="M176.2,39.5"/>
<path class="st27" d="M176.2,39.5"/>
<path class="st24" d="M203.7,83.3"/>
<path class="st25" d="M202.8,92.1l3.2-16.5l0-0.1l2.6-13.1c0.2-1,0.3-2,0.3-2.9l0-0.9c0,0-0.6-27.8-29.6-33.3l0.2,0
	c-28.9-5.4-40.1,20.2-40.1,20.2l-0.1,0.4c-0.4,1.1-0.8,2.1-1,3.3l-2.6,13.2l-3.2,16.5"/>
<path class="st25" d="M200.7,35.5c1-0.7,0-1.7,0-1.7c-14.8,1-26.7,9-28.4,20.4l-2.1,13.8c0,0,1.8,11.3,35.2,16.9c0,0,0.8-1.4,0-2.2"
	/>
<path class="st28" d="M203.8,82.5c-31-5.2-31.3-15.4-31.3-15.4l2-12.8c1.7-10.7,12.4-18.1,26.3-18.8l0.4,0.2
	c7.3,9.5,7.9,20.6,7.9,20.6l0,0.9c0,1,0,2-0.2,3.1l-2.2,13.7l0,0.1l-1.3,8.6L203.8,82.5z"/>
<path class="st29" d="M198.2,32.5l1,3.8c0.2,0.7,0.1,1.3-0.1,1.5l-1.3,1.3c-0.6,0.6,0.1,2.9,1.3,3.9l2.5,2.1c0.5,0.4,0.9,1,1.2,1.8
	l1.6,3.9c0.7,1.8,2.1,2.8,2.4,1.6l0.6-2.5c0.1-0.5,0.4-0.6,0.8-0.4l2.3,1.1c1.1,0.5,1.2-1.2,0.2-2.9l-2.1-3.7
	c-0.4-0.7-0.6-1.4-0.7-2l-0.1-3.2c-0.1-1.5-1.4-3.5-2.3-3.4l-1.9,0.2c-0.3,0-0.8-0.3-1.2-0.8l-2.4-3.1
	C198.7,30.3,197.7,30.8,198.2,32.5z"/>
<path class="st30" d="M196.7,40.4l-30.5,8.7c0,0-0.7,1.3-0.3,1.9"/>
<path class="st25" d="M166.2,92.7c-20.5-4.1-28.7-7.4-32.2-8.9c-2.8-1.2-2-2.8-2-2.8l0.4-2.2c0,0,11.7,5.2,34.3,9.3l0.7,0.1
	c22.5,4.5,35.3,3.8,35.3,3.8l-0.4,2.2c0,0,0.1,1.7-2.9,1.8C195.6,96.3,186.8,96.3,166.2,92.7"/>
<path class="st31" d="M219.8,183h5.3c1.7,0,3.1-1.4,3.1-3.1v-15c0-1.7-1.4-3.1-3.1-3.1h-5.3c-1.7,0-3.1,1.4-3.1,3.1v15
	C216.6,181.6,218,183,219.8,183z"/>
<path class="st31" d="M225.5,161.4v-3.3c0-0.8-0.5-1.5-1.2-1.5h-3.6c-0.7,0-1.2,0.7-1.2,1.5v3.3"/>
<path class="st32" d="M233.5,180.5c0.8,0,1.5-3.2,1.5-7.2c0-4-0.7-7.2-1.5-7.2"/>
<polyline class="st33" points="233.6,180.5 228.2,180.5 228.2,166 233.5,166 "/>
<path class="st6" d="M45.1,78.5"/>
<path class="st6" d="M53.9,80.1"/>
<path class="st3" d="M145.9,329.3"/>
<path class="st34" d="M153.6,120.1c0,0-2.5,1,0.9,1.9l1.2-0.3c0,0,3.6-1.1,2.1,1.2c-1.5,2.3-4.1,4.5-4.1,4.5s-3.9,4.2-0.2,3.4
	c3.7-0.7,4.7-5.6,4.7-5.6s1.6-4.1,1.4,1.2c-0.2,5.3-0.6,5.9,0.5,6.4c1.1,0.5,1.5-4.8,1.5-4.8s-1.5-4.5,0-4.7
	c1.5-0.2,2.2,5.5,2.2,5.5l1.7,6.1c0,0,1.2,6.8-2.6,9.5c-3.8,2.7-4.3,2.1-7.1,0.2c0,0-5,4.3-10.2-2.5c-5.2-6.8-4.5-11.5-4.5-11.5
	s0.4-2.1,1.3-2.4c0,0,0,0,0,0l-0.1-0.3c0,0-2.1-4.4,1.5-6.9c3.6-2.5,5.8-2.8,5.8-2.8s6.7-1.5,7.9-0.2s-3.6,2-3.6,2L153.6,120.1z"/>
<path class="st7" d="M175.2,163.9c12.1,10,26.2,19.7,36.3,21.3l0.4,0.5l0.3,0.3c0,0,16.3,16.4,33.1,9.6l15.1-23.8
	c-1-18.1-22.8-25.8-22.8-25.8l-0.2-0.2c-12.4-10.9-40.4-17.2-40.4-17.2"/>
<path class="st8" d="M266.2,204.9c-2.6-1.7-5.8-3.6-8.4-5c-5.1-2.9-5.2-7.6-5.2-7.6l7.7-11.8c0,0,9.1-4.7,20.1,2.3
	c11.1,7,8.4,18.6,8.4,18.6l0,0.2c1.7,6.3-4.9,9-4.9,9s-1,0.4-1.9,0.1l-0.2,0.2c-1.6,2.5-3.7,4.6-7.8,4.2l-0.2,0
	c-1.4,0.9-3.2,1.1-5.7-0.2c-7.3-3.8-2.2-9.7-2.2-9.7L266.2,204.9z"/>
<path class="st8" d="M273.9,215.1c2.7-1.8,3.6-6.1,3.6-6.1s0.7-5.2-8.5-13.6"/>
<path class="st8" d="M281.8,210.9c2-3.2,2.4-7.2,2.2-7.9c0,0-0.6-5-7.8-12"/>
<path class="st8" d="M279.4,185.9c0,0,6.5,7.8,9.1,14.7c0.1,0.3,0.2,0.6,0.3,0.9"/>
<path class="st7" d="M263.4,175.4l-13.2,20.9c-0.2,0.3-0.7,0.4-1,0.2l-2.7-1.7c-0.3-0.2-0.4-0.7-0.2-1l13.2-20.9
	c0.2-0.3,0.7-0.4,1-0.2l2.7,1.7C263.6,174.6,263.7,175.1,263.4,175.4z"/>
<path class="st11" d="M167.1,105.8c0,0-27-5.3-31.6,23.9c0,0-4.1,16.2,18.7,26.9l20.1,13.2c-2-1.7,15.7-37,28.1-44.6
	C202.5,125.4,172.9,104.3,167.1,105.8z"/>
<path class="st4" d="M199.6,123.1c-3.8-0.5-7.5-0.5-7.5-0.5l-0.3,0c-12.6-4.4-10.4,6.6-10.4,6.6l0,0.2c-3,10.2,5.9,10.5,8.4,10.4
	c0,0,7.8-10.6,11.1-12.8c1.3-0.9-3.6,0.1-3.6,0.1s-2.7-0.4,0.5-1.6l4.6,0L199.6,123.1z"/>
<path class="st35" d="M341.2,364.1c-0.8,0-1.5,0.1-2.3,0.1c-8.4,0.3-16.8,0.1-25.2,0.3c-5,0.1-10.1,0.2-15.1,0.2
	c-0.1-26.5-2.6-82.9-22.1-110.2c-0.4-0.5-0.9-0.9-1.5-1.1l-11-4c-1.3-0.5-2.1-1.8-2.1-3.2l0.6-25.3c0-1,0.5-2,1.3-2.6l89.4-65.1
	c0,0.3,0,0.7,0,1l1.9,208.7L341.2,364.1z"/>
<path class="st36" d="M161.4,75.1l-16.8-5.1c-2-0.6-3.1-2.7-2.5-4.7l7.1-23.4c0.6-2,2.7-3.1,4.7-2.5l16.8,5.1c2,0.6,3.1,2.7,2.5,4.7
	l-7.1,23.4C165.5,74.6,163.4,75.7,161.4,75.1z"/>
<path class="st36" d="M165.3,42.8c0,0,11.8-10.8,20.1-17.4l-4.4-0.8c-8.6,1-21.7,16.4-21.7,16.4"/>
</svg>
