<?xml version="1.0" encoding="utf-8"?>
<!-- Generator: Adobe Illustrator 27.4.0, SVG Export Plug-In . SVG Version: 6.00 Build 0)  -->
<svg version="1.1" id="Layer_1" xmlns="http://www.w3.org/2000/svg" xmlns:xlink="http://www.w3.org/1999/xlink" x="0px" y="0px"
	 viewBox="0 0 1800 576" style="enable-background:new 0 0 1800 576;" xml:space="preserve">
<style type="text/css">
	.st0{fill:none;stroke:#AA5517;stroke-miterlimit:10;}
	.st1{fill:#268399;stroke:#3D7B89;stroke-width:5;stroke-miterlimit:10;}
	.st2{fill:#EFE8CC;stroke:#B5956A;stroke-width:0.5;stroke-linecap:round;stroke-linejoin:round;stroke-miterlimit:10;}
	.st3{fill:#EFE8CC;stroke:#B5956A;stroke-width:0.5;stroke-miterlimit:10;}
	.st4{fill:#D23D27;stroke:#B5956A;stroke-width:0.5;stroke-miterlimit:10;}
	.st5{fill:#EFE8CC;}
	.st6{fill:#EA8039;stroke:#CD6028;stroke-width:3;stroke-miterlimit:10;}
	.st7{fill:#EDE0D8;stroke:#D7AE9D;stroke-width:3;stroke-miterlimit:10;}
	.st8{fill:none;stroke:#B1AE9C;stroke-width:2;stroke-linecap:round;stroke-linejoin:round;stroke-miterlimit:10;}
	.st9{fill:#703616;stroke:#582807;stroke-width:4;stroke-linecap:round;stroke-linejoin:round;stroke-miterlimit:10;}
	.st10{fill:#D74727;stroke:#BA3A26;stroke-width:3;stroke-miterlimit:10;}
	.st11{fill:#EA8039;stroke:#CD6028;stroke-width:0.5;stroke-miterlimit:10;}
	.st12{fill:#EFE8CC;stroke:#B1AE9C;stroke-width:0.5;stroke-miterlimit:10;}
	.st13{fill:none;stroke:#A8A694;stroke-width:0.5;stroke-miterlimit:10;}
	.st14{fill:#D23C27;stroke:#A53A23;stroke-width:0.5;stroke-miterlimit:10;}
	.st15{fill:#D74727;stroke:#BA3A26;stroke-width:0.5;stroke-miterlimit:10;}
	.st16{fill:#EFE8CC;stroke:#B5956A;stroke-width:3;stroke-miterlimit:10;}
	.st17{fill:none;stroke:#A53A23;stroke-width:0.5;stroke-miterlimit:10;}
	.st18{fill:none;stroke:#BA3A26;stroke-width:3;stroke-miterlimit:10;}
	.st19{fill:none;stroke:#214144;stroke-width:8;stroke-linecap:round;stroke-linejoin:round;stroke-miterlimit:10;}
	.st20{fill:#EEE7CB;}
	.st21{fill:#ECDED8;stroke:#CEBAB2;stroke-width:0.5;stroke-miterlimit:10;}
	.st22{fill:#EEE7CB;stroke:#B1AE9B;stroke-miterlimit:10;}
	.st23{fill:none;stroke:#A8A594;stroke-miterlimit:10;}
	.st24{fill:#ECDED8;stroke:#CEBAB2;stroke-width:3;stroke-miterlimit:10;}
	.st25{fill:#19100A;}
	.st26{fill:#0D1A1C;stroke:#74CDE1;stroke-width:5;stroke-miterlimit:10;}
	.st27{fill:none;stroke:#74CDE1;stroke-width:5;stroke-linecap:round;stroke-linejoin:round;stroke-miterlimit:10;}
	.st28{fill:#B2D5DD;stroke:#7CAEB4;stroke-width:0.75;stroke-linecap:round;stroke-miterlimit:10;}
	.st29{fill:#0D1A1C;stroke:#7CAEB4;stroke-linecap:round;stroke-miterlimit:10;}
	.st30{fill:#B2D5DD;stroke:#7CAEB4;stroke-linecap:round;stroke-miterlimit:10;}
	.st31{fill:#EFE8CC;stroke:#B5956A;stroke-width:2;stroke-miterlimit:10;}
	.st32{fill:#CFDEE2;stroke:#ACB9BD;stroke-width:2;stroke-linecap:round;stroke-linejoin:round;stroke-miterlimit:10;}
	.st33{fill:#3E1D0D;stroke:#180000;stroke-width:4;stroke-miterlimit:10;}
	.st34{fill:none;stroke:#366F7B;stroke-width:5;stroke-miterlimit:10;}
	.st35{fill:#FDE6D8;stroke:#FDE6D8;stroke-miterlimit:10;}
</style>
<path class="st0" d="M1264.6,248.7"/>
<path class="st1" d="M1747.5,540.5H58.9c-17.6,0-31.9-14.3-31.9-31.9V82.3c0-17.6,14.3-31.9,31.9-31.9h1688.6
	c17.6,0,31.9,14.3,31.9,31.9v426.3C1779.5,526.2,1765.2,540.5,1747.5,540.5z"/>
<path class="st2" d="M397.8,449.6c-1.5-2.5-1,0.7-0.1,4.7C397.8,452.7,397.8,451.1,397.8,449.6z"/>
<path class="st3" d="M736.4,473.4c2.7,1.8,4.9,3.3,4.9,3.3s8,2.6,2.1-2.9c-2.1-2-5-4-7.7-5.7"/>
<path class="st4" d="M734.4,460.3c3.3,0.2,6.5,0,7.4-1.4c2.1-3.1-1.3-4.3-1.3-4.3l-6.9,0.6"/>
<path class="st4" d="M736.4,473.4c2.7,1.8,4.9,3.3,4.9,3.3s8,2.6,2.1-2.9c-2.1-2-5-4-7.7-5.7"/>
<path class="st5" d="M518.2,208"/>
<path class="st5" d="M541.9,212.2"/>
<path class="st6" d="M508.4,430c32.9,27,70.9,53.3,98.2,57.8l1.2,1.2l0.7,0.9c0,0,44.1,44.3,89.5,25.9l40.8-64.4
	c-2.7-49-61.7-69.9-61.7-69.9l-0.5-0.5c-33.4-29.5-109.4-46.5-109.4-46.5"/>
<path class="st7" d="M732.1,527.3c6.9,3.9,15.6,9,22.7,13.6l-0.4,0.5c14.9-0.1,29.8-0.2,44.6-0.2h17c0.6-2.7,0.7-5.8-0.3-9.4
	l0.1-0.5c0,0,7.3-31.3-22.6-50.2c-29.9-18.9-54.4-6.2-54.4-6.2l-20.8,32C718,506.7,718.2,519.4,732.1,527.3z"/>
<path class="st8" d="M781,537.8c-4.7-8.7-11.6-16.2-18.8-22.8"/>
<path class="st8" d="M802.9,537.8c0.2-3.3-1.4-6.9-2.7-9.8c-4.3-9.5-11.2-17.7-18.5-25"/>
<path class="st7" d="M790.3,489.4c0,0,17.7,21,24.6,39.8c0.3,0.8,0.6,1.7,0.8,2.5"/>
<path class="st6" d="M747.2,461.2l-35.8,56.5c-0.6,0.9-1.8,1.2-2.7,0.6l-7.2-4.6c-0.9-0.6-1.2-1.8-0.6-2.7l35.8-56.5
	c0.6-0.9,1.8-1.2,2.7-0.6l7.2,4.6C747.5,459.1,747.8,460.3,747.2,461.2z"/>
<path class="st9" d="M190.5,541.2h138.1L270.9,262c-5.7-27.5-32.6-45.2-60.1-39.5l-41.3,8.6c-27.5,5.7-45.2,32.6-39.5,60.1l51.9,249
	C184.7,539.5,187.6,541.2,190.5,541.2z"/>
<path class="st5" d="M548.3,219.6"/>
<path class="st10" d="M392.5,261.1c-3.2,1.6,2.6-8.5,2.6-8.5s-2-10.3,1-22.4c3-12,45.1-3.1,45.1-3.1s113.1,30.3,102.3,42.1
	l-11.2,18.4c0,0-0.4,3.4-10.6-3.3C511.5,277.8,424,245.8,392.5,261.1z"/>
<polyline class="st11" points="515.3,267.2 416.1,242.3 414.6,230.6 509.8,224.5 510.4,228.9 515.3,267.2 "/>
<path class="st12" d="M475.1,212.4"/>
<path class="st13" d="M497,102"/>
<path class="st13" d="M497,102"/>
<path class="st5" d="M572.1,223.5"/>
<path class="st14" d="M531.3,428.5c0,0-64.8,21-143.4,18.6"/>
<path class="st15" d="M366.9,541.2h23.3c21.5,0,43-0.1,64.5,0c15.6,0,31.2,0.8,46.8,1.3c32.6-8.7,67.4-6.7,100.7-4.2
	c4.2,0.3,8.3,0.6,12.5,0.9c-7.4-54.2-12.6-107.1-9-129.7c8.8-54.4-76.4-119-76.6-121.1c0,0-122.9-25.5-151.3-13.5
	c-28.4,12.1-46.4,105.2-31.9,138.5C353.9,431.6,361.6,491.4,366.9,541.2z"/>
<path class="st3" d="M603.5,381.5c-0.7,1.5-2.9,4.8-8.7,8.2c0,0-6,5.8-6.4,7.8c-0.4,2-1,1.5-1,1.5s-1.7-4.5-0.1-7.7
	c1.6-3.2-1.5-1.1-1.5-1.1l-4.4,12.7c0,0-2.3,4-3-0.9c-0.8-5-0.8-13.8-0.8-13.8s-2.6-8-3.6,0c-1,8,1.3,19.6,1.3,19.6s1,9.3-3.1,3
	c0,0-5.6-12.7-9.4-12.6c-3.8,0.1-2.8,3.6-2.8,3.6l8.3,9.6c0,0,4.1,7.7-3.2,3.1c0,0-6.4-7.5-17.7-8.7c-11.3-1.2-4.9,6.4-4.9,6.4
	s12.5-1.1,16.4,4.7c0,0,6.7,4.2,0.9,5.9c0,0-4.4-0.1-6-0.6c-1.6-0.5-19.1,3.2-19.1,3.2s-8.2,6.9-14.5,3.1
	c-6.3-3.8-10.2-12.3-10.2-12.3s-5.3-13.7,3.9-22.6c9.2-8.9,7.4-13.2,7.4-13.2s-0.4-9.3,16.9-9.2c17.2,0.1,26.2,21.7,26.2,21.7
	s3.6,8.5,3.6-0.5c0-9-3.6-14.2-3.6-14.2s-8.7-4.1-8.5-14.5c0.3-10.4-0.9-16.1,5.2-19.2c0,0,11.8-1.7,17-3.7c0.6-0.3,1.2-0.4,1.8-0.5
	"/>
<path class="st3" d="M560,433.6c0,0-7,1.5,1.5,5.6l3.3-0.4c0,0,10.2-1.2,5.2,4.2S557,453.3,557,453.3s-12.3,9.4-1.9,9.1
	c10.3-0.3,15-13,15-13s6-10.3,3.2,3.9c-2.8,14.1-4,15.4-1.4,17.3c2.6,1.9,6-12.2,6-12.2s-2.1-12.8,2-12.7c4.1,0.1,3.4,15.7,3.4,15.7
	l2,17.2c0,0,0.3,18.7-11.1,24.3c-11.4,5.6-12.3,3.6-19.1-2.7c0,0-15.2,9.4-26.2-11.1s-7-32.8-7-32.8s2-5.5,4.5-5.8c0,0,0.1,0,0.1,0
	l-0.2-0.8c0,0-3.8-12.7,7-17.9c10.7-5.2,16.7-4.8,16.7-4.8s18.6-1.1,21.1,2.9c2.5,3.9-10.6,3.7-10.6,3.7L560,433.6z"/>
<path class="st2" d="M604.1,386.7c-25.4,19.8-26.4,42.1-26.4,42.1s1.2,11.7,7.3,1.5c0,0,2.1-21.7,19.7-38.7"/>
<path class="st2" d="M605.4,411.4c-2.1,0.9-3.7,1.7-3.7,1.7c-13,11.5-0.9-6.7-0.9-6.7s2-2.8,5-5.8"/>
<path class="st2" d="M604.5,424.8c-5.2,0.8-2.1-2.9,0.2-5.2"/>
<path class="st2" d="M605,441.6c-1.2-0.3-2.4-0.4-3.8-0.5c-9.3-0.5-1.6-5.7,3.3-8.6"/>
<path class="st2" d="M605.5,455.4c-1.4-1.9-2.8-3.6-2.8-3.6c-3.2-4.9-0.5-4.2,2.5-2.6"/>
<path class="st2" d="M610.5,505.8c-7.7,1.9-22.2,2.1-19.5-24.7l-0.2-0.7c0,0-4.7-17.7-3.9-30.2c0.8-12.5,4.3-0.8,4.3-0.8l3.4,13.8
	c5,7.8,4.5,0.4,4.5,0.4s-6.1-21.7-1.6-12.7c4.4,9,7.5,9.5,7.5,9.5c0.3,0.1,0.6,0.2,0.9,0.3"/>
<path class="st16" d="M558.1,536.1c-0.6-4.8-1.8-7.9-6-9.6c0,0-12-0.6-17.2-2.1c-5.3-1.5-10.8,2.2-10.8,2.2s-6.7,6-8.9,12.7
	c0,0,0,0.1,0,0.1C529.2,536.9,543.6,536,558.1,536.1z"/>
<path class="st2" d="M504.9,283.6c8.3,15,5.7,22.4,5.7,22.4s-4.7,13.9-20.2,3.9l-0.6-0.4c0,0-25.3,2.8-2.4,5.1s16.4,27.9,16.4,27.9
	s18.7,29-14.4,34.4l-0.6,0.2c0,0-24.2,18.5-28.3-17.5l-0.3-0.6c0,0-8.4-16.4-10.3-28.7c-1.9-12.3,4-1.6,4-1.6l6.3,12.7
	c6.6,6.5,4.5-0.6,4.5-0.6s-10.6-19.9-4.3-12.1c6.3,7.8,9.4,7.7,9.4,7.7c7.8,0.9-4.1-7.8-4.1-7.8c-7.3-7.2,6.8-1.4,6.8-1.4
	c13.6,9.4,9.4-2.8,9.4-2.8s-7.3-8-20-6c-12.7,2,4.4-11.6,4.4-11.6c14.5-4.1,11.8-5.2,11.8-5.2s-0.3-8.8-12.9-1.6s-3-5.4-3-5.4
	s10.4-2.1,9.6-8.9c-0.8-6.8-15.3,5.3-15.3,5.3c-10.3,14.1-2.3-6.4-2.3-6.4s1.6-3.8,4.4-7.8"/>
<path class="st16" d="M422.8,272.4c0.2,0,0,0.4,0.1,0.7c0.8,8,5.7,18.8,5.7,18.8s3.1,8.8-2.3,3.6c0,0-8.3-11.1-12-10.1
	c-3.7,1-1.9,4.1-1.9,4.1l10.3,7.5c0,0,5.7,6.6-2.4,3.8c0,0-8-5.9-19.2-4.5s-3.3,7.3-3.3,7.3s11.9-3.9,17,0.9c0,0,7.4,2.6,2.2,5.6
	c0,0-4.3,0.9-6,0.8c-1.7-0.1-17.9,7.4-17.9,7.4s-6.4,8.6-13.4,6.3c-7-2.3-12.7-9.7-12.7-9.7s-8.3-12.1-1.3-22.9
	c3.8-5.9,4.7-9.7,4.8-11.9C370.3,280.1,378.3,269,422.8,272.4z"/>
<path class="st16" d="M434.7,273.9l-1.3,11.9c0,0-1.3,4.5-3.1-0.3c-1.5-3.7-3.1-9.9-3.7-12.3"/>
<path class="st3" d="M419.5,320.5c0,0-6.5,3,2.7,5.1l3.1-1.1c0,0,9.7-3.5,6,2.9c-3.6,6.4-10.2,13-10.2,13s-9.8,12,0.1,9.3
	c10-2.6,11.7-16.1,11.7-16.1s3.5-11.3,4,3c0.5,14.4-0.5,15.9,2.5,17.2c3,1.3,3.1-13.3,3.1-13.3s-4.9-12-0.9-12.8s6.9,14.5,6.9,14.5
	l5.8,16.3c0,0,4.5,18.2-5.4,26.2c-9.9,8-11.2,6.3-19.2,1.7c0,0-12.6,12.6-28-4.9c-15.3-17.5-14.2-30.4-14.2-30.4s0.7-5.9,3-6.7
	c0,0,0.1,0,0.1,0l-0.4-0.7c0,0-6.5-11.5,2.8-19c9.3-7.5,15.2-8.5,15.2-8.5s17.9-5.3,21.2-2c3.4,3.3-9.4,6-9.4,6L419.5,320.5z"/>
<path class="st2" d="M445.2,274.4c-12.6,20.8-9.5,37.5-9.5,37.5s3.8,11.2,7.5-0.2c0,0-2.3-17.9,7.2-36.5"/>
<path class="st17" d="M441.2,274.1c5.8,0.6,11.7,1.4,17.5,2.2"/>
<path class="st17" d="M426.5,272.7c4.8,0.4,9.7,0.9,14.7,1.4"/>
<path class="st3" d="M358.7,473.4c2.7,1.8,4.9,3.3,4.9,3.3s8,2.6,2.1-2.9c-2.1-2-5-4-7.7-5.7"/>
<path class="st16" d="M352.1,434.1c2.6-5,6.6-14,6.6-14s-0.8-10.7,6-13.5c6.8-2.8,15.9-1,15.9-1s14.2,3.8,16,16.5
	c1.8,12.7,6.3,13.8,6.3,13.8s7.7,5.2-2.5,19.1c-10.2,13.9-33,8.4-33,8.4s-9-2.1-1.8,3.2c7.3,5.3,13.7,5.4,13.7,5.4s8.4-4.7,16.7,1.7
	s13.5,8.7,12.5,15.5c0,0-5.6,10.6-7,15.9c-1.4,5.3-7.4,8.1-7.4,8.1s-8.6,2.7-15.5,1.1c-6.9-1.5-7.9-3.1-7.9-3.1s-3.3,0.4-7-0.7"/>
<path class="st4" d="M354.5,450.1c3.5-1.1,8.4-3.5,12.6-8.1c7.6-8.4-2.3-7.7-2.3-7.7s-4.9,8.1-10.8,10.1"/>
<path class="st4" d="M356.8,460.3c3.3,0.2,6.5,0,7.4-1.4c2.1-3.1-1.3-4.3-1.3-4.3l-6.9,0.6"/>
<path class="st16" d="M341.1,391.4c0.1,0.2,0.2,0.3,0.2,0.3s3.3,4.9,2.1,7c0,0,0,0.1-0.1,0.1l0.7,0.3c0,0,12.5,4.4,10.3,16.2
	c-1.1,6.5-2.8,10.8-4.1,13.3"/>
<path class="st4" d="M358.7,473.4c2.7,1.8,4.9,3.3,4.9,3.3s8,2.6,2.1-2.9c-2.1-2-5-4-7.7-5.7"/>
<path class="st18" d="M366.6,537.7C362,500,358,462,350,424c-12-24-11-50-7-76c4-23,9-44,23-64c3-4,7-7,11-9c16-6,33-4,49.5-2.3"/>
<path class="st18" d="M458.7,276.3C482,280,506,283,529,288c35,34,83,71,76,125c-1,14,0,28,1,42c0,5,0,9,1,14c0,7,0,13,1,20
	c2,16,4,31,6.3,47.4"/>
<path class="st19" d="M620.9,459.8c0,0,0.9-138.5-144.1-197.6"/>
<path class="st10" d="M383.3,274.1c-3.2,1.6,2.6-8.5,2.6-8.5s-2-10.3,1-22.4c3-12,45.1-3.1,45.1-3.1s113.1,30.3,102.3,42.1
	L523,300.6c0,0-0.4,3.4-10.6-3.3C502.3,290.8,414.8,258.9,383.3,274.1z"/>
<path class="st20" d="M546.5,217.3"/>
<rect x="449.3" y="111.9" transform="matrix(0.1846 -0.9828 0.9828 0.1846 184.2114 637.676)" class="st21" width="54.2" height="191.9"/>
<path class="st22" d="M474.6,210.7"/>
<path class="st23" d="M495.3,102.4"/>
<path class="st23" d="M495.3,102.4"/>
<path class="st20" d="M569.8,221"/>
<path class="st24" d="M567.2,244.8L576,200l0-0.2l7-35.5c0.5-2.7,0.7-5.3,0.8-8l0.1-2.4c0,0-1.7-75.3-80-90.1l0.4,0.1
	c-78.3-14.7-108.4,54.7-108.4,54.7l-0.4,1.1c-1.2,2.9-2.1,5.8-2.7,8.9l-7,35.7L377,209"/>
<path class="st24" d="M561.7,91.6c2.8-1.8-0.1-4.6-0.1-4.6c-40,2.7-72.1,24.5-77,55.3l-5.8,37.3c0,0,4.9,30.5,95.4,45.6
	c0,0,2.1-3.7,0.1-5.9"/>
<path class="st25" d="M570.2,218.9c-84.1-14.1-85.1-41.8-85.1-41.8l5.4-34.6c4.5-29,33.5-48.8,71.4-50.9l1.2,0.6
	C583,118,584.6,148,584.6,148l0,2.5c0.1,2.8-0.1,5.5-0.5,8.3l-5.8,37.1l0,0.2l-3.6,23.4L570.2,218.9z"/>
<path class="st26" d="M554.8,83.5l2.6,10.3c0.5,1.9,0.4,3.4-0.3,4.1l-3.6,3.6c-1.7,1.7,0.4,7.9,3.4,10.5l6.7,5.7
	c1.2,1,2.4,2.8,3.2,4.8l4.2,10.6c2,4.9,5.8,7.5,6.5,4.4l1.5-6.7c0.3-1.2,1.1-1.6,2.3-1.1l6.2,2.9c2.9,1.4,3.2-3.3,0.6-7.8l-5.7-9.9
	c-1-1.8-1.7-3.9-1.8-5.5l-0.4-8.8c-0.2-4.1-3.8-9.5-6.2-9.2l-5.1,0.6c-0.9,0.1-2.2-0.7-3.4-2.3l-6.5-8.4
	C556.2,77.5,553.6,78.8,554.8,83.5z"/>
<path class="st27" d="M550.8,104.9l-82.6,23.4c0,0-1.8,3.4-0.8,5.3"/>
<path class="st24" d="M468.3,246.4c-55.4-11.2-77.6-19.9-87-24c-7.5-3.3-5.4-7.5-5.4-7.5l1.2-5.9c0,0,31.6,14.2,92.8,25.1l1.8,0.3
	c61,12.1,95.7,10.3,95.7,10.3l-1.2,5.9c0,0,0.4,4.6-7.9,5C547.9,256,523.9,256.1,468.3,246.4"/>
<path class="st28" d="M607.9,490.7h24.9c1.7,0,3.1-1.4,3.1-3.1v-51.1c0-1.7-1.4-3.1-3.1-3.1h-24.9c-1.7,0-3.1,1.4-3.1,3.1v51.1
	C604.8,489.3,606.1,490.7,607.9,490.7z"/>
<path class="st28" d="M628.8,432.3v-9c0-2.2-1.5-3.9-3.3-3.9h-9.8c-1.8,0-3.3,1.8-3.3,3.9v9"/>
<path class="st29" d="M650.4,483.9c2.3,0,4.1-8.8,4.1-19.6s-1.9-19.6-4.1-19.6"/>
<polyline class="st30" points="650.5,483.9 636,483.9 636,444.6 650.4,444.6 "/>
<path class="st5" d="M140.6,208"/>
<path class="st5" d="M164.3,212.2"/>
<path class="st31" d="M434.1,320.4c0,0-6.7,2.6,2.3,5.2l3.2-0.9c0,0,9.8-2.8,5.8,3.3c-4,6.1-11,12.3-11,12.3s-10.6,11.3-0.5,9.3
	c10.1-2,12.7-15.2,12.7-15.2s4.3-11.1,3.8,3.3c-0.5,14.4-1.5,15.9,1.4,17.3c2.9,1.4,4-13,4-13s-4.1-12.3-0.1-12.8s5.9,14.9,5.9,14.9
	l4.7,16.6c0,0,3.3,18.4-7.1,25.8c-10.4,7.3-11.5,5.6-19.3,0.4c0,0-13.4,11.8-27.6-6.7c-14.2-18.5-12.1-31.2-12.1-31.2
	s1.1-5.8,3.5-6.5c0,0,0.1,0,0.1,0l-0.3-0.7c0,0-5.7-11.9,4-18.8c9.7-6.9,15.7-7.5,15.7-7.5s18.1-4.1,21.3-0.6
	c3.1,3.5-9.8,5.4-9.8,5.4L434.1,320.4z"/>
<path class="st6" d="M485.6,437c32.9,27,77.9,55.3,105.2,59.8l1.2,1.2l0.7,0.9c0,0,44.1,44.3,89.5,25.9l40.8-64.4
	c-2.7-49-61.7-69.9-61.7-69.9l-0.5-0.5c-33.4-29.5-109.4-46.5-109.4-46.5"/>
<path class="st7" d="M716.2,536.3c2.8,1.6,5.9,3.4,9.1,5.2c24.6-0.1,49.1-0.4,73.7-0.4h1c0-0.1,0-0.2-0.1-0.4l0.1-0.5
	c0,0,7.3-31.3-22.6-50.2c-29.9-18.9-54.4-6.2-54.4-6.2l-20.8,32C702.1,515.8,702.4,528.4,716.2,536.3z"/>
<path class="st7" d="M761.8,541.3c-3.4-5-8.3-10.8-15.4-17.3"/>
<path class="st7" d="M786,541.2c-1.7-5.2-6.6-15.8-20.2-29.1"/>
<path class="st7" d="M774.4,498.5c0,0,17.7,21,24.6,39.8c0.3,0.8,0.6,1.7,0.8,2.5"/>
<path class="st6" d="M731.4,470.3l-35.8,56.5c-0.6,0.9-1.8,1.2-2.7,0.6l-7.2-4.6c-0.9-0.6-1.2-1.8-0.6-2.7l35.8-56.5
	c0.6-0.9,1.8-1.2,2.7-0.6l7.2,4.6C731.7,468.1,732,469.3,731.4,470.3z"/>
<path class="st10" d="M470.6,281.9c0,0-73-14.4-85.4,64.8c0,0-11.1,43.8,50.6,72.8l54.4,35.8c-5.5-4.7,42.5-100.2,76.1-120.6
	C566.4,334.7,486.4,277.7,470.6,281.9z"/>
<path class="st16" d="M555.7,328.7c-10.2-1.4-20.4-1.2-20.4-1.2l-0.7,0c-34.1-12-28.1,17.8-28.1,17.8l-0.1,0.6
	c-8.3,27.6,15.9,28.4,22.8,28.1c0,0,21-28.7,30.2-34.7c3.6-2.4-9.7,0.1-9.7,0.1s-7.3-1.2,1.4-4.3l12.6-0.1L555.7,328.7z"/>
<path class="st32" d="M794.3,541.2c1.6,0,3.1,0,4.7,0h176.5l-1.2-128.4c0-0.9,0.1-1.9,0.1-2.8L794.3,541.2z"/>
<path class="st33" d="M455.2,198.8L409.7,185c-5.4-1.6-8.5-7.4-6.8-12.8l19.2-63.5c1.6-5.4,7.4-8.5,12.8-6.8l45.5,13.8
	c5.4,1.6,8.5,7.4,6.8,12.8L468,192C466.4,197.4,460.6,200.5,455.2,198.8z"/>
<path class="st33" d="M465.8,111.3c0,0,31.9-29.3,54.4-47l-12-2.2c-23.3,2.6-58.8,44.3-58.8,44.3"/>
<path class="st34" d="M1747.5,540.5H58.9c-17.6,0-31.9-14.3-31.9-31.9V82.3c0-17.6,14.3-31.9,31.9-31.9h1688.6
	c17.6,0,31.9,14.3,31.9,31.9v426.3C1779.5,526.2,1765.2,540.5,1747.5,540.5z"/>
<path class="st18" d="M470.6,281.9c0,0-73-14.4-85.4,64.8c0,0-11.1,43.8,50.6,72.8l54.4,35.8c-5.5-4.7,42.5-100.2,76.1-120.6
	C566.4,334.7,486.4,277.7,470.6,281.9z"/>
<g>
	<path class="st35" d="M1304,154.5v-6.7c0-2.1-0.4-2.5-2.5-2.5h-4.4c-2.1,0-2.5,0.4-2.5,2.5v35.4c0,2.1,0.4,2.5,2.5,2.5h4.4
		c2.1,0,2.5-0.4,2.5-2.5V170h-4v-4.7h9.5v18.8c0,4.2-2.1,6.3-6.3,6.3h-7.8c-4.2,0-6.3-2.1-6.3-6.3v-37.2c0-4.2,2.1-6.3,6.3-6.3h7.8
		c4.2,0,6.3,2.1,6.3,6.3v7.6H1304z"/>
	<path class="st35" d="M1329.7,151.5v4.8h-2.4c-3.5,0-5,1.9-5,6v28h-5.5v-38.8h5.5v4.5c0.7-2.2,2.6-4.5,5.8-4.5H1329.7z"/>
	<path class="st35" d="M1347.8,151.5c4.2,0,6.3,2.1,6.3,6.3V184c0,4.2-2.1,6.3-6.3,6.3h-8.2c-4.2,0-6.3-2.1-6.3-6.3v-26.2
		c0-4.2,2.1-6.3,6.3-6.3H1347.8z M1348.6,158.7c0-2.1-0.4-2.5-2.5-2.5h-5c-2.1,0-2.5,0.4-2.5,2.5v24.4c0,2.1,0.4,2.5,2.5,2.5h5
		c2.1,0,2.5-0.4,2.5-2.5V158.7z"/>
	<path class="st35" d="M1380.3,151.5v38.8h-5.5v-2.6c-0.6,1.9-2.2,2.6-4.4,2.6h-3.2c-4.2,0-6.3-2.1-6.3-6.3v-32.5h5.5v31.6
		c0,2.1,0.4,2.5,2.5,2.5h3.2c1.9,0,2.7-0.7,2.7-2.9v-31.2H1380.3z"/>
	<path class="st35" d="M1400.6,151.5c4.2,0,6.3,2.1,6.3,6.3v32.5h-5.5v-31.6c0-2.1-0.4-2.5-2.5-2.5h-3.2c-1.9,0-2.7,0.7-2.7,2.9
		v31.2h-5.5v-38.8h5.5v2.6c0.6-1.9,2.2-2.6,4.4-2.6H1400.6z"/>
	<path class="st35" d="M1433.2,136.8v53.5h-5.5v-2.6c-0.6,1.9-2.2,2.6-4.4,2.6h-3.2c-4.2,0-6.3-2.1-6.3-6.3v-26.2
		c0-4.2,2.1-6.3,6.3-6.3h3.2c2.2,0,3.8,0.7,4.4,2.6v-17.3H1433.2z M1425,185.6c1.9,0,2.7-0.7,2.7-2.9V159c0-2.2-0.8-2.9-2.7-2.9
		h-3.2c-2.1,0-2.5,0.4-2.5,2.5v24.5c0,2.1,0.4,2.5,2.5,2.5H1425z"/>
	<path class="st35" d="M1466.1,155.3v-7.5c0-2.1-0.4-2.5-2.5-2.5h-4.4c-2.1,0-2.5,0.4-2.5,2.5v35.4c0,2.1,0.4,2.5,2.5,2.5h4.4
		c2.1,0,2.5-0.4,2.5-2.5v-7.5h5.5v8.4c0,4.2-2.1,6.3-6.3,6.3h-7.8c-4.2,0-6.3-2.1-6.3-6.3v-37.2c0-4.2,2.1-6.3,6.3-6.3h7.8
		c4.2,0,6.3,2.1,6.3,6.3v8.4H1466.1z"/>
	<path class="st35" d="M1492.5,151.5c4.2,0,6.3,2.1,6.3,6.3V184c0,4.2-2.1,6.3-6.3,6.3h-8.2c-4.2,0-6.3-2.1-6.3-6.3v-26.2
		c0-4.2,2.1-6.3,6.3-6.3H1492.5z M1493.4,158.7c0-2.1-0.4-2.5-2.5-2.5h-5c-2.1,0-2.5,0.4-2.5,2.5v24.4c0,2.1,0.4,2.5,2.5,2.5h5
		c2.1,0,2.5-0.4,2.5-2.5V158.7z"/>
	<path class="st35" d="M1518.7,151.5c4.2,0,6.3,2.1,6.3,6.3v32.5h-5.5v-31.6c0-2.1-0.4-2.5-2.5-2.5h-3.2c-1.9,0-2.7,0.7-2.7,2.9
		v31.2h-5.5v-38.8h5.5v2.6c0.6-1.9,2.2-2.6,4.4-2.6H1518.7z"/>
	<path class="st35" d="M1538.1,156.2v26.5c0,2.1,0.4,2.5,2.5,2.5h3v5.1h-4.7c-4.2,0-6.3-2.1-6.3-6.3v-27.8h-3.5v-4.7h3.5v-6.3h5.5
		v6.3h5.5v4.7H1538.1z"/>
	<path class="st35" d="M1561,151.5v4.8h-2.4c-3.5,0-5,1.9-5,6v28h-5.5v-38.8h5.5v4.5c0.7-2.2,2.6-4.5,5.8-4.5H1561z"/>
	<path class="st35" d="M1579,151.5c4.2,0,6.3,2.1,6.3,6.3V184c0,4.2-2.1,6.3-6.3,6.3h-8.2c-4.2,0-6.3-2.1-6.3-6.3v-26.2
		c0-4.2,2.1-6.3,6.3-6.3H1579z M1579.9,158.7c0-2.1-0.4-2.5-2.5-2.5h-5c-2.1,0-2.5,0.4-2.5,2.5v24.4c0,2.1,0.4,2.5,2.5,2.5h5
		c2.1,0,2.5-0.4,2.5-2.5V158.7z"/>
	<path class="st35" d="M1592.2,190.3v-53.5h5.5v53.5H1592.2z"/>
	<path class="st35" d="M1191.9,236.3l-3.3,22.4h-3.7l-2.5-17.7l-2.5,17.7h-3.7l-3.3-22.4h2.5l2.7,20.7l2.8-20.7h3l2.8,20.7l2.7-20.7
		H1191.9z"/>
	<path class="st35" d="M1193.9,234.6h2.6v2.9h-2.6V234.6z M1193.9,258.7v-17.5h2.5v17.5H1193.9z"/>
	<path class="st35" d="M1202.3,243.4v11.9c0,0.9,0.2,1.1,1.1,1.1h1.4v2.3h-2.1c-1.9,0-2.8-0.9-2.8-2.8v-12.5h-1.6v-2.1h1.6v-2.8h2.5
		v2.8h2.5v2.1H1202.3z"/>
	<path class="st35" d="M1212.6,241.3c1.9,0,2.8,0.9,2.8,2.8v14.6h-2.5v-14.2c0-0.9-0.2-1.1-1.1-1.1h-1.4c-0.9,0-1.2,0.3-1.2,1.3v14
		h-2.5v-24.1h2.5v7.8c0.3-0.9,1-1.2,2-1.2H1212.6z"/>
	<path class="st35" d="M1232,241.3v17.5h-2.5v-1.2c-0.3,0.9-1,1.2-2,1.2h-1.4c-1.9,0-2.8-0.9-2.8-2.8v-11.8c0-1.9,0.9-2.8,2.8-2.8
		h1.4c1,0,1.7,0.3,2,1.2v-1.2H1232z M1228.3,256.6c0.9,0,1.2-0.3,1.2-1.3v-10.6c0-1-0.4-1.3-1.2-1.3h-1.4c-0.9,0-1.1,0.2-1.1,1.1v11
		c0,0.9,0.2,1.1,1.1,1.1H1228.3z"/>
	<path class="st35" d="M1241.1,241.3c1.9,0,2.8,0.9,2.8,2.8v14.6h-2.5v-14.2c0-0.9-0.2-1.1-1.1-1.1h-1.4c-0.9,0-1.2,0.3-1.2,1.3v14
		h-2.5v-17.5h2.5v1.2c0.3-0.9,1-1.2,2-1.2H1241.1z"/>
	<path class="st35" d="M1248.4,241.3l2.8,15.7l2.6-15.7h2.5l-3.5,19.7c-0.4,1.9-1.5,2.8-3.4,2.8h-1.9v-2.1h1.2
		c0.9,0,1.6-0.2,1.8-1.1l0.4-1.8h-1.6l-3.3-17.5H1248.4z"/>
	<path class="st35" d="M1275.2,241.3c1.9,0,2.8,0.9,2.8,2.8v14.6h-2.5v-14.2c0-0.9-0.2-1.1-1.1-1.1h-1.4c-0.9,0-1.2,0.3-1.2,1.3v14
		h-2.5v-14.2c0-0.9-0.2-1.1-1.1-1.1h-1.4c-0.9,0-1.2,0.3-1.2,1.3v14h-2.5v-17.5h2.5v1.2c0.3-0.9,1-1.2,2-1.2h1.4
		c1.4,0,2.2,0.5,2.6,1.4c0.3-1,1.1-1.4,2.2-1.4H1275.2z"/>
	<path class="st35" d="M1281,234.6h2.6v2.9h-2.6V234.6z M1281.1,258.7v-17.5h2.5v17.5H1281.1z"/>
	<path class="st35" d="M1292.2,252.2c0-0.9-0.2-1.1-1.1-1.1h-1.8c-1.9,0-2.8-0.9-2.8-2.8v-4.1c0-1.9,0.9-2.8,2.8-2.8h2.4
		c1.9,0,2.8,0.9,2.8,2.8v1.8h-2.4v-1.4c0-0.9-0.2-1.1-1.1-1.1h-1c-0.9,0-1.1,0.2-1.1,1.1v3.4c0,0.9,0.2,1.1,1.1,1.1h1.8
		c1.9,0,2.8,0.9,2.8,2.8v4c0,1.9-0.9,2.8-2.8,2.8h-2.4c-1.9,0-2.8-0.9-2.8-2.8v-1.8h2.4v1.4c0,0.9,0.2,1.1,1.1,1.1h1
		c0.9,0,1.1-0.2,1.1-1.1V252.2z"/>
	<path class="st35" d="M1302.9,252.2c0-0.9-0.2-1.1-1.1-1.1h-1.8c-1.9,0-2.8-0.9-2.8-2.8v-4.1c0-1.9,0.9-2.8,2.8-2.8h2.4
		c1.9,0,2.8,0.9,2.8,2.8v1.8h-2.4v-1.4c0-0.9-0.2-1.1-1.1-1.1h-1c-0.9,0-1.1,0.2-1.1,1.1v3.4c0,0.9,0.2,1.1,1.1,1.1h1.8
		c1.9,0,2.8,0.9,2.8,2.8v4c0,1.9-0.9,2.8-2.8,2.8h-2.4c-1.9,0-2.8-0.9-2.8-2.8v-1.8h2.4v1.4c0,0.9,0.2,1.1,1.1,1.1h1
		c0.9,0,1.1-0.2,1.1-1.1V252.2z"/>
	<path class="st35" d="M1308.1,234.6h2.6v2.9h-2.6V234.6z M1308.2,258.7v-17.5h2.5v17.5H1308.2z"/>
	<path class="st35" d="M1320.2,241.3c1.9,0,2.8,0.9,2.8,2.8v11.8c0,1.9-0.9,2.8-2.8,2.8h-3.7c-1.9,0-2.8-0.9-2.8-2.8v-11.8
		c0-1.9,0.9-2.8,2.8-2.8H1320.2z M1320.6,244.5c0-0.9-0.2-1.1-1.1-1.1h-2.2c-0.9,0-1.1,0.2-1.1,1.1v11c0,0.9,0.2,1.1,1.1,1.1h2.2
		c0.9,0,1.1-0.2,1.1-1.1V244.5z"/>
	<path class="st35" d="M1332.1,241.3c1.9,0,2.8,0.9,2.8,2.8v14.6h-2.5v-14.2c0-0.9-0.2-1.1-1.1-1.1h-1.4c-0.9,0-1.2,0.3-1.2,1.3v14
		h-2.5v-17.5h2.5v1.2c0.3-0.9,1-1.2,2-1.2H1332.1z"/>
	<path class="st35" d="M1342.8,258.7v-24.1h2.5v24.1H1342.8z"/>
	<path class="st35" d="M1357.1,241.3v17.5h-2.5v-1.2c-0.3,0.9-1,1.2-2,1.2h-1.4c-1.9,0-2.8-0.9-2.8-2.8v-11.8c0-1.9,0.9-2.8,2.8-2.8
		h1.4c1,0,1.7,0.3,2,1.2v-1.2H1357.1z M1353.4,256.6c0.9,0,1.2-0.3,1.2-1.3v-10.6c0-1-0.4-1.3-1.2-1.3h-1.4c-0.9,0-1.1,0.2-1.1,1.1
		v11c0,0.9,0.2,1.1,1.1,1.1H1353.4z"/>
	<path class="st35" d="M1369.1,241.3v17.5h-2.5v-1.2c-0.3,0.9-1,1.2-2,1.2h-1.4c-1.9,0-2.8-0.9-2.8-2.8v-14.6h2.5v14.2
		c0,0.9,0.2,1.1,1.1,1.1h1.4c0.9,0,1.2-0.3,1.2-1.3v-14H1369.1z"/>
	<path class="st35" d="M1378.2,241.3c1.9,0,2.8,0.9,2.8,2.8v14.6h-2.5v-14.2c0-0.9-0.2-1.1-1.1-1.1h-1.4c-0.9,0-1.2,0.3-1.2,1.3v14
		h-2.5v-17.5h2.5v1.2c0.3-0.9,1-1.2,2-1.2H1378.2z"/>
	<path class="st35" d="M1390.7,246.4v-1.9c0-0.9-0.2-1.1-1.1-1.1h-1.8c-0.9,0-1.1,0.2-1.1,1.1v11c0,0.9,0.2,1.1,1.1,1.1h1.8
		c0.9,0,1.1-0.2,1.1-1.1v-1.9h2.5v2.3c0,1.9-0.9,2.8-2.8,2.8h-3.3c-1.9,0-2.8-0.9-2.8-2.8v-11.8c0-1.9,0.9-2.8,2.8-2.8h3.3
		c1.9,0,2.8,0.9,2.8,2.8v2.3H1390.7z"/>
	<path class="st35" d="M1401.9,241.3c1.9,0,2.8,0.9,2.8,2.8v14.6h-2.5v-14.2c0-0.9-0.2-1.1-1.1-1.1h-1.4c-0.9,0-1.2,0.3-1.2,1.3v14
		h-2.5v-24.1h2.5v7.8c0.3-0.9,1-1.2,2-1.2H1401.9z"/>
	<path class="st35" d="M1414.2,241.3c1.9,0,2.8,0.9,2.8,2.8v6.7h-6.5v4.6c0,0.9,0.2,1.1,1.1,1.1h1.7c0.9,0,1.1-0.2,1.1-1.1v-1.6h2.5
		v2c0,1.9-0.9,2.8-2.8,2.8h-3.2c-1.9,0-2.8-0.9-2.8-2.8v-11.8c0-1.9,0.9-2.8,2.8-2.8H1414.2z M1414.5,248.7v-4.2
		c0-0.9-0.2-1.1-1.1-1.1h-1.8c-0.9,0-1.1,0.2-1.1,1.1v4.2H1414.5z"/>
	<path class="st35" d="M1428.5,234.6v24.1h-2.5v-1.2c-0.3,0.9-1,1.2-2,1.2h-1.4c-1.9,0-2.8-0.9-2.8-2.8v-11.8c0-1.9,0.9-2.8,2.8-2.8
		h1.4c1,0,1.7,0.3,2,1.2v-7.8H1428.5z M1424.8,256.6c0.9,0,1.2-0.3,1.2-1.3v-10.7c0-1-0.4-1.3-1.2-1.3h-1.4c-0.9,0-1.1,0.2-1.1,1.1
		v11c0,0.9,0.2,1.1,1.1,1.1H1424.8z"/>
	<path class="st35" d="M1434.1,254.7v2.1l-2,6.9h-1v-9H1434.1z"/>
	<path class="st35" d="M1447.6,241.3c1.9,0,2.8,0.9,2.8,2.8v6.7h-6.5v4.6c0,0.9,0.2,1.1,1.1,1.1h1.7c0.9,0,1.1-0.2,1.1-1.1v-1.6h2.5
		v2c0,1.9-0.9,2.8-2.8,2.8h-3.2c-1.9,0-2.8-0.9-2.8-2.8v-11.8c0-1.9,0.9-2.8,2.8-2.8H1447.6z M1448,248.7v-4.2
		c0-0.9-0.2-1.1-1.1-1.1h-1.8c-0.9,0-1.1,0.2-1.1,1.1v4.2H1448z"/>
	<path class="st35" d="M1453.3,234.6h2.6v2.9h-2.6V234.6z M1453.4,258.7v-17.5h2.5v17.5H1453.4z"/>
	<path class="st35" d="M1461.7,243.4v11.9c0,0.9,0.2,1.1,1.1,1.1h1.4v2.3h-2.1c-1.9,0-2.8-0.9-2.8-2.8v-12.5h-1.6v-2.1h1.6v-2.8h2.5
		v2.8h2.5v2.1H1461.7z"/>
	<path class="st35" d="M1472.1,241.3c1.9,0,2.8,0.9,2.8,2.8v14.6h-2.5v-14.2c0-0.9-0.2-1.1-1.1-1.1h-1.4c-0.9,0-1.2,0.3-1.2,1.3v14
		h-2.5v-24.1h2.5v7.8c0.3-0.9,1-1.2,2-1.2H1472.1z"/>
	<path class="st35" d="M1484.3,241.3c1.9,0,2.8,0.9,2.8,2.8v6.7h-6.5v4.6c0,0.9,0.2,1.1,1.1,1.1h1.7c0.9,0,1.1-0.2,1.1-1.1v-1.6h2.5
		v2c0,1.9-0.9,2.8-2.8,2.8h-3.2c-1.9,0-2.8-0.9-2.8-2.8v-11.8c0-1.9,0.9-2.8,2.8-2.8H1484.3z M1484.7,248.7v-4.2
		c0-0.9-0.2-1.1-1.1-1.1h-1.8c-0.9,0-1.1,0.2-1.1,1.1v4.2H1484.7z"/>
	<path class="st35" d="M1495.9,241.3v2.2h-1.1c-1.6,0-2.3,0.9-2.3,2.7v12.6h-2.5v-17.5h2.5v2c0.3-1,1.2-2,2.6-2H1495.9z"/>
	<path class="st35" d="M1508.7,246.4v-1.9c0-0.9-0.2-1.1-1.1-1.1h-1.8c-0.9,0-1.1,0.2-1.1,1.1v11c0,0.9,0.2,1.1,1.1,1.1h1.8
		c0.9,0,1.1-0.2,1.1-1.1v-1.9h2.5v2.3c0,1.9-0.9,2.8-2.8,2.8h-3.3c-1.9,0-2.8-0.9-2.8-2.8v-11.8c0-1.9,0.9-2.8,2.8-2.8h3.3
		c1.9,0,2.8,0.9,2.8,2.8v2.3H1508.7z"/>
	<path class="st35" d="M1520,241.3c1.9,0,2.8,0.9,2.8,2.8v14.6h-2.5v-14.2c0-0.9-0.2-1.1-1.1-1.1h-1.4c-0.9,0-1.2,0.3-1.2,1.3v14
		h-2.5v-24.1h2.5v7.8c0.3-0.9,1-1.2,2-1.2H1520z"/>
	<path class="st35" d="M1534.6,241.3v17.5h-2.5v-1.2c-0.3,0.9-1,1.2-2,1.2h-1.4c-1.9,0-2.8-0.9-2.8-2.8v-11.8c0-1.9,0.9-2.8,2.8-2.8
		h1.4c1,0,1.7,0.3,2,1.2v-1.2H1534.6z M1530.9,256.6c0.9,0,1.2-0.3,1.2-1.3v-10.6c0-1-0.4-1.3-1.2-1.3h-1.4c-0.9,0-1.1,0.2-1.1,1.1
		v11c0,0.9,0.2,1.1,1.1,1.1H1530.9z"/>
	<path class="st35" d="M1543.8,241.3c1.9,0,2.8,0.9,2.8,2.8v11.8c0,1.9-0.9,2.8-2.8,2.8h-1.4c-1,0-1.7-0.3-2-1.2v6.3h-2.5v-22.5h2.5
		v1.2c0.3-0.9,1-1.2,2-1.2H1543.8z M1544.1,244.5c0-0.9-0.2-1.1-1.1-1.1h-1.4c-0.9,0-1.2,0.3-1.2,1.3v10.6c0,1,0.4,1.3,1.2,1.3h1.4
		c0.9,0,1.1-0.2,1.1-1.1V244.5z"/>
	<path class="st35" d="M1555.8,241.3c1.9,0,2.8,0.9,2.8,2.8v6.7h-6.5v4.6c0,0.9,0.2,1.1,1.1,1.1h1.7c0.9,0,1.1-0.2,1.1-1.1v-1.6h2.5
		v2c0,1.9-0.9,2.8-2.8,2.8h-3.2c-1.9,0-2.8-0.9-2.8-2.8v-11.8c0-1.9,0.9-2.8,2.8-2.8H1555.8z M1556.2,248.7v-4.2
		c0-0.9-0.2-1.1-1.1-1.1h-1.8c-0.9,0-1.1,0.2-1.1,1.1v4.2H1556.2z"/>
	<path class="st35" d="M1567.4,241.3v2.2h-1.1c-1.6,0-2.3,0.9-2.3,2.7v12.6h-2.5v-17.5h2.5v2c0.3-1,1.2-2,2.6-2H1567.4z"/>
	<path class="st35" d="M1575.5,241.3c1.9,0,2.8,0.9,2.8,2.8v11.8c0,1.9-0.9,2.8-2.8,2.8h-3.7c-1.9,0-2.8-0.9-2.8-2.8v-11.8
		c0-1.9,0.9-2.8,2.8-2.8H1575.5z M1575.9,244.5c0-0.9-0.2-1.1-1.1-1.1h-2.2c-0.9,0-1.1,0.2-1.1,1.1v11c0,0.9,0.2,1.1,1.1,1.1h2.2
		c0.9,0,1.1-0.2,1.1-1.1V244.5z"/>
	<path class="st35" d="M1587.3,241.3c1.9,0,2.8,0.9,2.8,2.8v14.6h-2.5v-14.2c0-0.9-0.2-1.1-1.1-1.1h-1.4c-0.9,0-1.2,0.3-1.2,1.3v14
		h-2.5v-17.5h2.5v1.2c0.3-0.9,1-1.2,2-1.2H1587.3z"/>
	<path class="st35" d="M1599.6,241.3c1.9,0,2.8,0.9,2.8,2.8v6.7h-6.5v4.6c0,0.9,0.2,1.1,1.1,1.1h1.7c0.9,0,1.1-0.2,1.1-1.1v-1.6h2.5
		v2c0,1.9-0.9,2.8-2.8,2.8h-3.2c-1.9,0-2.8-0.9-2.8-2.8v-11.8c0-1.9,0.9-2.8,2.8-2.8H1599.6z M1599.9,248.7v-4.2
		c0-0.9-0.2-1.1-1.1-1.1h-1.8c-0.9,0-1.1,0.2-1.1,1.1v4.2H1599.9z"/>
	<path class="st35" d="M1613.9,234.6v24.1h-2.5v-1.2c-0.3,0.9-1,1.2-2,1.2h-1.4c-1.9,0-2.8-0.9-2.8-2.8v-11.8c0-1.9,0.9-2.8,2.8-2.8
		h1.4c1,0,1.7,0.3,2,1.2v-7.8H1613.9z M1610.1,256.6c0.9,0,1.2-0.3,1.2-1.3v-10.7c0-1-0.4-1.3-1.2-1.3h-1.4c-0.9,0-1.1,0.2-1.1,1.1
		v11c0,0.9,0.2,1.1,1.1,1.1H1610.1z"/>
	<path class="st35" d="M1628.1,241.3c1.9,0,2.8,0.9,2.8,2.8v11.8c0,1.9-0.9,2.8-2.8,2.8h-3.7c-1.9,0-2.8-0.9-2.8-2.8v-11.8
		c0-1.9,0.9-2.8,2.8-2.8H1628.1z M1628.5,244.5c0-0.9-0.2-1.1-1.1-1.1h-2.2c-0.9,0-1.1,0.2-1.1,1.1v11c0,0.9,0.2,1.1,1.1,1.1h2.2
		c0.9,0,1.1-0.2,1.1-1.1V244.5z"/>
	<path class="st35" d="M1639.8,241.3v2.2h-1.1c-1.6,0-2.3,0.9-2.3,2.7v12.6h-2.5v-17.5h2.5v2c0.3-1,1.2-2,2.6-2H1639.8z"/>
	<path class="st35" d="M1654.9,241.3v17.5h-2.5v-1.2c-0.3,0.9-1,1.2-2,1.2h-1.4c-1.9,0-2.8-0.9-2.8-2.8v-11.8c0-1.9,0.9-2.8,2.8-2.8
		h1.4c1,0,1.7,0.3,2,1.2v-1.2H1654.9z M1651.2,256.6c0.9,0,1.2-0.3,1.2-1.3v-10.6c0-1-0.4-1.3-1.2-1.3h-1.4c-0.9,0-1.1,0.2-1.1,1.1
		v11c0,0.9,0.2,1.1,1.1,1.1H1651.2z"/>
	<path class="st35" d="M1658.1,258.7v-24.1h2.5v24.1H1658.1z"/>
	<path class="st35" d="M1670.2,241.3c1.9,0,2.8,0.9,2.8,2.8v11.8c0,1.9-0.9,2.8-2.8,2.8h-3.7c-1.9,0-2.8-0.9-2.8-2.8v-11.8
		c0-1.9,0.9-2.8,2.8-2.8H1670.2z M1670.6,244.5c0-0.9-0.2-1.1-1.1-1.1h-2.2c-0.9,0-1.1,0.2-1.1,1.1v11c0,0.9,0.2,1.1,1.1,1.1h2.2
		c0.9,0,1.1-0.2,1.1-1.1V244.5z"/>
	<path class="st35" d="M1682,241.3c1.9,0,2.8,0.9,2.8,2.8v14.6h-2.5v-14.2c0-0.9-0.2-1.1-1.1-1.1h-1.4c-0.9,0-1.2,0.3-1.2,1.3v14
		h-2.5v-17.5h2.5v1.2c0.3-0.9,1-1.2,2-1.2H1682z"/>
	<path class="st35" d="M1694.2,241.3c1.9,0,2.8,0.9,2.8,2.8v6.7h-6.5v4.6c0,0.9,0.2,1.1,1.1,1.1h1.7c0.9,0,1.1-0.2,1.1-1.1v-1.6h2.5
		v2c0,1.9-0.9,2.8-2.8,2.8h-3.2c-1.9,0-2.8-0.9-2.8-2.8v-11.8c0-1.9,0.9-2.8,2.8-2.8H1694.2z M1694.6,248.7v-4.2
		c0-0.9-0.2-1.1-1.1-1.1h-1.8c-0.9,0-1.1,0.2-1.1,1.1v4.2H1694.6z"/>
	<path class="st35" d="M1702.4,254.7v2.1l-2,6.9h-1v-9H1702.4z"/>
	<path class="st35" d="M1159.2,286.6v11.9c0,0.9,0.2,1.1,1.1,1.1h1.4v2.3h-2.1c-1.9,0-2.8-0.9-2.8-2.8v-12.5h-1.6v-2.1h1.6v-2.8h2.5
		v2.8h2.5v2.1H1159.2z"/>
	<path class="st35" d="M1169.5,284.5c1.9,0,2.8,0.9,2.8,2.8v14.6h-2.5v-14.2c0-0.9-0.2-1.1-1.1-1.1h-1.4c-0.9,0-1.2,0.3-1.2,1.3v14
		h-2.5v-24.1h2.5v7.8c0.3-0.9,1-1.2,2-1.2H1169.5z"/>
	<path class="st35" d="M1181.8,284.5c1.9,0,2.8,0.9,2.8,2.8v6.7h-6.5v4.6c0,0.9,0.2,1.1,1.1,1.1h1.7c0.9,0,1.1-0.2,1.1-1.1v-1.6h2.5
		v2c0,1.9-0.9,2.8-2.8,2.8h-3.2c-1.9,0-2.8-0.9-2.8-2.8v-11.8c0-1.9,0.9-2.8,2.8-2.8H1181.8z M1182.1,291.9v-4.2
		c0-0.9-0.2-1.1-1.1-1.1h-1.8c-0.9,0-1.1,0.2-1.1,1.1v4.2H1182.1z"/>
	<path class="st35" d="M1193.3,284.5v2.2h-1.1c-1.6,0-2.3,0.9-2.3,2.7v12.6h-2.5v-17.5h2.5v2c0.3-1,1.2-2,2.6-2H1193.3z"/>
	<path class="st35" d="M1201.3,284.5c1.9,0,2.8,0.9,2.8,2.8v6.7h-6.5v4.6c0,0.9,0.2,1.1,1.1,1.1h1.7c0.9,0,1.1-0.2,1.1-1.1v-1.6h2.5
		v2c0,1.9-0.9,2.8-2.8,2.8h-3.2c-1.9,0-2.8-0.9-2.8-2.8v-11.8c0-1.9,0.9-2.8,2.8-2.8H1201.3z M1201.6,291.9v-4.2
		c0-0.9-0.2-1.1-1.1-1.1h-1.8c-0.9,0-1.1,0.2-1.1,1.1v4.2H1201.6z"/>
	<path class="st35" d="M1228.1,284.5l-3.1,17.5h-3.8l-2.1-14l-2.1,14h-3.8l-3.1-17.5h2.4l2.6,15.7l2.3-15.7h3.4l2.2,15.7l2.6-15.7
		H1228.1z"/>
	<path class="st35" d="M1229.9,277.8h2.6v2.9h-2.6V277.8z M1229.9,301.9v-17.5h2.5v17.5H1229.9z"/>
	<path class="st35" d="M1235.7,301.9v-24.1h2.5v24.1H1235.7z"/>
	<path class="st35" d="M1241.4,301.9v-24.1h2.5v24.1H1241.4z"/>
	<path class="st35" d="M1257.7,284.4c1.9,0,2.8,0.9,2.8,2.8v11.8c0,1.9-0.9,2.8-2.8,2.8h-1.4c-1,0-1.7-0.3-2-1.2v1.2h-2.5v-24.1h2.5
		v7.8c0.3-0.9,1-1.2,2-1.2H1257.7z M1258,287.7c0-0.9-0.2-1.1-1.1-1.1h-1.4c-0.9,0-1.2,0.3-1.2,1.3v10.7c0,1,0.4,1.3,1.2,1.3h1.4
		c0.9,0,1.1-0.2,1.1-1.1V287.7z"/>
	<path class="st35" d="M1269.7,284.5c1.9,0,2.8,0.9,2.8,2.8v6.7h-6.5v4.6c0,0.9,0.2,1.1,1.1,1.1h1.7c0.9,0,1.1-0.2,1.1-1.1v-1.6h2.5
		v2c0,1.9-0.9,2.8-2.8,2.8h-3.2c-1.9,0-2.8-0.9-2.8-2.8v-11.8c0-1.9,0.9-2.8,2.8-2.8H1269.7z M1270.1,291.9v-4.2
		c0-0.9-0.2-1.1-1.1-1.1h-1.8c-0.9,0-1.1,0.2-1.1,1.1v4.2H1270.1z"/>
	<path class="st35" d="M1281.9,286.7h-2.4v-4.4c0-1.9,0.9-2.8,2.8-2.8h2.8c1.9,0,2.8,0.9,2.8,2.8v2c0,1.8-0.2,3-0.9,4.7l-4.9,10.8h6
		v2.1h-8.6v-2.1l5.1-11.2c0.6-1.5,0.8-2.7,0.8-4.4v-1.4c0-0.9-0.2-1.1-1.1-1.1h-1.3c-0.9,0-1.1,0.2-1.1,1.1V286.7z"/>
	<path class="st35" d="M1300.7,297.3h-1.9v4.6h-2.4v-4.6h-7.2v-1.9l5.9-15.9h2.4l-5.8,15.7h4.7V291h2.4v4.2h1.9V297.3z"/>
	<path class="st35" d="M1312.9,276.8l-9.5,30.1h-2.4l9.5-30.1H1312.9z"/>
	<path class="st35" d="M1323.5,281.2l-5.8,20.7h-2.4l5.6-20.3h-6.2v-2.1h8.9V281.2z"/>
	<path class="st35" d="M1338.6,284.5v19.7c0,1.9-0.9,2.8-2.8,2.8h-5.4v-2.1h4.6c0.9,0,1.1-0.2,1.1-1.1v-3c-0.3,0.9-1,1.2-2,1.2h-1.4
		c-1.9,0-2.8-0.9-2.8-2.8v-11.8c0-1.9,0.9-2.8,2.8-2.8h1.4c1,0,1.7,0.3,2,1.2v-1.2H1338.6z M1334.9,299.8c0.9,0,1.2-0.3,1.2-1.3
		v-10.6c0-1-0.4-1.3-1.2-1.3h-1.4c-0.9,0-1.1,0.2-1.1,1.1v11c0,0.9,0.2,1.1,1.1,1.1H1334.9z"/>
	<path class="st35" d="M1347.6,284.5v2.2h-1.1c-1.6,0-2.3,0.9-2.3,2.7v12.6h-2.5v-17.5h2.5v2c0.3-1,1.2-2,2.6-2H1347.6z"/>
	<path class="st35" d="M1355.8,284.5c1.9,0,2.8,0.9,2.8,2.8v11.8c0,1.9-0.9,2.8-2.8,2.8h-3.7c-1.9,0-2.8-0.9-2.8-2.8v-11.8
		c0-1.9,0.9-2.8,2.8-2.8H1355.8z M1356.2,287.7c0-0.9-0.2-1.1-1.1-1.1h-2.2c-0.9,0-1.1,0.2-1.1,1.1v11c0,0.9,0.2,1.1,1.1,1.1h2.2
		c0.9,0,1.1-0.2,1.1-1.1V287.7z"/>
	<path class="st35" d="M1370.4,284.5v17.5h-2.5v-1.2c-0.3,0.9-1,1.2-2,1.2h-1.4c-1.9,0-2.8-0.9-2.8-2.8v-14.6h2.5v14.2
		c0,0.9,0.2,1.1,1.1,1.1h1.4c0.9,0,1.2-0.3,1.2-1.3v-14H1370.4z"/>
	<path class="st35" d="M1379.6,284.5c1.9,0,2.8,0.9,2.8,2.8v14.6h-2.5v-14.2c0-0.9-0.2-1.1-1.1-1.1h-1.4c-0.9,0-1.2,0.3-1.2,1.3v14
		h-2.5v-17.5h2.5v1.2c0.3-0.9,1-1.2,2-1.2H1379.6z"/>
	<path class="st35" d="M1394.2,277.8v24.1h-2.5v-1.2c-0.3,0.9-1,1.2-2,1.2h-1.4c-1.9,0-2.8-0.9-2.8-2.8v-11.8c0-1.9,0.9-2.8,2.8-2.8
		h1.4c1,0,1.7,0.3,2,1.2v-7.8H1394.2z M1390.5,299.8c0.9,0,1.2-0.3,1.2-1.3v-10.7c0-1-0.4-1.3-1.2-1.3h-1.4c-0.9,0-1.1,0.2-1.1,1.1
		v11c0,0.9,0.2,1.1,1.1,1.1H1390.5z"/>
	<path class="st35" d="M1408.5,289.6v-1.9c0-0.9-0.2-1.1-1.1-1.1h-1.8c-0.9,0-1.1,0.2-1.1,1.1v11c0,0.9,0.2,1.1,1.1,1.1h1.8
		c0.9,0,1.1-0.2,1.1-1.1v-1.9h2.5v2.3c0,1.9-0.9,2.8-2.8,2.8h-3.3c-1.9,0-2.8-0.9-2.8-2.8v-11.8c0-1.9,0.9-2.8,2.8-2.8h3.3
		c1.9,0,2.8,0.9,2.8,2.8v2.3H1408.5z"/>
	<path class="st35" d="M1420.2,284.5c1.9,0,2.8,0.9,2.8,2.8v11.8c0,1.9-0.9,2.8-2.8,2.8h-3.7c-1.9,0-2.8-0.9-2.8-2.8v-11.8
		c0-1.9,0.9-2.8,2.8-2.8H1420.2z M1420.6,287.7c0-0.9-0.2-1.1-1.1-1.1h-2.2c-0.9,0-1.1,0.2-1.1,1.1v11c0,0.9,0.2,1.1,1.1,1.1h2.2
		c0.9,0,1.1-0.2,1.1-1.1V287.7z"/>
	<path class="st35" d="M1432,284.5c1.9,0,2.8,0.9,2.8,2.8v14.6h-2.5v-14.2c0-0.9-0.2-1.1-1.1-1.1h-1.4c-0.9,0-1.2,0.3-1.2,1.3v14
		h-2.5v-17.5h2.5v1.2c0.3-0.9,1-1.2,2-1.2H1432z"/>
	<path class="st35" d="M1440.7,286.6v11.9c0,0.9,0.2,1.1,1.1,1.1h1.4v2.3h-2.1c-1.9,0-2.8-0.9-2.8-2.8v-12.5h-1.6v-2.1h1.6v-2.8h2.5
		v2.8h2.5v2.1H1440.7z"/>
	<path class="st35" d="M1451,284.5v2.2h-1.1c-1.6,0-2.3,0.9-2.3,2.7v12.6h-2.5v-17.5h2.5v2c0.3-1,1.2-2,2.6-2H1451z"/>
	<path class="st35" d="M1459.1,284.5c1.9,0,2.8,0.9,2.8,2.8v11.8c0,1.9-0.9,2.8-2.8,2.8h-3.7c-1.9,0-2.8-0.9-2.8-2.8v-11.8
		c0-1.9,0.9-2.8,2.8-2.8H1459.1z M1459.5,287.7c0-0.9-0.2-1.1-1.1-1.1h-2.2c-0.9,0-1.1,0.2-1.1,1.1v11c0,0.9,0.2,1.1,1.1,1.1h2.2
		c0.9,0,1.1-0.2,1.1-1.1V287.7z"/>
	<path class="st35" d="M1465,301.9v-24.1h2.5v24.1H1465z"/>
	<path class="st35" d="M1484,284.5v17.5h-2.5v-1.2c-0.3,0.9-1,1.2-2,1.2h-1.4c-1.9,0-2.8-0.9-2.8-2.8v-11.8c0-1.9,0.9-2.8,2.8-2.8
		h1.4c1,0,1.7,0.3,2,1.2v-1.2H1484z M1480.3,299.8c0.9,0,1.2-0.3,1.2-1.3v-10.6c0-1-0.4-1.3-1.2-1.3h-1.4c-0.9,0-1.1,0.2-1.1,1.1v11
		c0,0.9,0.2,1.1,1.1,1.1H1480.3z"/>
	<path class="st35" d="M1490.6,300.2l2.4-15.7h2.5l-2.9,17.5h-3.9l-2.9-17.5h2.5L1490.6,300.2z"/>
	<path class="st35" d="M1505.9,284.5v17.5h-2.5v-1.2c-0.3,0.9-1,1.2-2,1.2h-1.4c-1.9,0-2.8-0.9-2.8-2.8v-11.8c0-1.9,0.9-2.8,2.8-2.8
		h1.4c1,0,1.7,0.3,2,1.2v-1.2H1505.9z M1502.2,299.8c0.9,0,1.2-0.3,1.2-1.3v-10.6c0-1-0.4-1.3-1.2-1.3h-1.4c-0.9,0-1.1,0.2-1.1,1.1
		v11c0,0.9,0.2,1.1,1.1,1.1H1502.2z"/>
	<path class="st35" d="M1509,277.8h2.6v2.9h-2.6V277.8z M1509.1,301.9v-17.5h2.5v17.5H1509.1z"/>
	<path class="st35" d="M1514.8,301.9v-24.1h2.5v24.1H1514.8z"/>
	<path class="st35" d="M1529.1,284.5v17.5h-2.5v-1.2c-0.3,0.9-1,1.2-2,1.2h-1.4c-1.9,0-2.8-0.9-2.8-2.8v-11.8c0-1.9,0.9-2.8,2.8-2.8
		h1.4c1,0,1.7,0.3,2,1.2v-1.2H1529.1z M1525.4,299.8c0.9,0,1.2-0.3,1.2-1.3v-10.6c0-1-0.4-1.3-1.2-1.3h-1.4c-0.9,0-1.1,0.2-1.1,1.1
		v11c0,0.9,0.2,1.1,1.1,1.1H1525.4z"/>
	<path class="st35" d="M1538.3,284.4c1.9,0,2.8,0.9,2.8,2.8v11.8c0,1.9-0.9,2.8-2.8,2.8h-1.4c-1,0-1.7-0.3-2-1.2v1.2h-2.5v-24.1h2.5
		v7.8c0.3-0.9,1-1.2,2-1.2H1538.3z M1538.6,287.7c0-0.9-0.2-1.1-1.1-1.1h-1.4c-0.9,0-1.2,0.3-1.2,1.3v10.7c0,1,0.4,1.3,1.2,1.3h1.4
		c0.9,0,1.1-0.2,1.1-1.1V287.7z"/>
	<path class="st35" d="M1544.2,301.9v-24.1h2.5v24.1H1544.2z"/>
	<path class="st35" d="M1556,284.5c1.9,0,2.8,0.9,2.8,2.8v6.7h-6.5v4.6c0,0.9,0.2,1.1,1.1,1.1h1.7c0.9,0,1.1-0.2,1.1-1.1v-1.6h2.5v2
		c0,1.9-0.9,2.8-2.8,2.8h-3.2c-1.9,0-2.8-0.9-2.8-2.8v-11.8c0-1.9,0.9-2.8,2.8-2.8H1556z M1556.4,291.9v-4.2c0-0.9-0.2-1.1-1.1-1.1
		h-1.8c-0.9,0-1.1,0.2-1.1,1.1v4.2H1556.4z"/>
	<path class="st35" d="M1569.1,286.6v11.9c0,0.9,0.2,1.1,1.1,1.1h1.4v2.3h-2.1c-1.9,0-2.8-0.9-2.8-2.8v-12.5h-1.6v-2.1h1.6v-2.8h2.5
		v2.8h2.5v2.1H1569.1z"/>
	<path class="st35" d="M1579.9,284.5c1.9,0,2.8,0.9,2.8,2.8v11.8c0,1.9-0.9,2.8-2.8,2.8h-3.7c-1.9,0-2.8-0.9-2.8-2.8v-11.8
		c0-1.9,0.9-2.8,2.8-2.8H1579.9z M1580.3,287.7c0-0.9-0.2-1.1-1.1-1.1h-2.2c-0.9,0-1.1,0.2-1.1,1.1v11c0,0.9,0.2,1.1,1.1,1.1h2.2
		c0.9,0,1.1-0.2,1.1-1.1V287.7z"/>
	<path class="st35" d="M1596.8,289.6v-1.9c0-0.9-0.2-1.1-1.1-1.1h-1.8c-0.9,0-1.1,0.2-1.1,1.1v11c0,0.9,0.2,1.1,1.1,1.1h1.8
		c0.9,0,1.1-0.2,1.1-1.1v-1.9h2.5v2.3c0,1.9-0.9,2.8-2.8,2.8h-3.3c-1.9,0-2.8-0.9-2.8-2.8v-11.8c0-1.9,0.9-2.8,2.8-2.8h3.3
		c1.9,0,2.8,0.9,2.8,2.8v2.3H1596.8z"/>
	<path class="st35" d="M1608.5,284.5c1.9,0,2.8,0.9,2.8,2.8v11.8c0,1.9-0.9,2.8-2.8,2.8h-3.7c-1.9,0-2.8-0.9-2.8-2.8v-11.8
		c0-1.9,0.9-2.8,2.8-2.8H1608.5z M1608.9,287.7c0-0.9-0.2-1.1-1.1-1.1h-2.2c-0.9,0-1.1,0.2-1.1,1.1v11c0,0.9,0.2,1.1,1.1,1.1h2.2
		c0.9,0,1.1-0.2,1.1-1.1V287.7z"/>
	<path class="st35" d="M1626.6,284.5c1.9,0,2.8,0.9,2.8,2.8v14.6h-2.5v-14.2c0-0.9-0.2-1.1-1.1-1.1h-1.4c-0.9,0-1.2,0.3-1.2,1.3v14
		h-2.5v-14.2c0-0.9-0.2-1.1-1.1-1.1h-1.4c-0.9,0-1.2,0.3-1.2,1.3v14h-2.5v-17.5h2.5v1.2c0.3-0.9,1-1.2,2-1.2h1.4
		c1.4,0,2.2,0.5,2.6,1.4c0.3-1,1.1-1.4,2.2-1.4H1626.6z"/>
	<path class="st35" d="M1644.6,284.5c1.9,0,2.8,0.9,2.8,2.8v14.6h-2.5v-14.2c0-0.9-0.2-1.1-1.1-1.1h-1.4c-0.9,0-1.2,0.3-1.2,1.3v14
		h-2.5v-14.2c0-0.9-0.2-1.1-1.1-1.1h-1.4c-0.9,0-1.2,0.3-1.2,1.3v14h-2.5v-17.5h2.5v1.2c0.3-0.9,1-1.2,2-1.2h1.4
		c1.4,0,2.2,0.5,2.6,1.4c0.3-1,1.1-1.4,2.2-1.4H1644.6z"/>
	<path class="st35" d="M1659.3,284.5v17.5h-2.5v-1.2c-0.3,0.9-1,1.2-2,1.2h-1.4c-1.9,0-2.8-0.9-2.8-2.8v-14.6h2.5v14.2
		c0,0.9,0.2,1.1,1.1,1.1h1.4c0.9,0,1.2-0.3,1.2-1.3v-14H1659.3z"/>
	<path class="st35" d="M1668.4,284.5c1.9,0,2.8,0.9,2.8,2.8v14.6h-2.5v-14.2c0-0.9-0.2-1.1-1.1-1.1h-1.4c-0.9,0-1.2,0.3-1.2,1.3v14
		h-2.5v-17.5h2.5v1.2c0.3-0.9,1-1.2,2-1.2H1668.4z"/>
	<path class="st35" d="M1674.4,277.8h2.6v2.9h-2.6V277.8z M1674.5,301.9v-17.5h2.5v17.5H1674.5z"/>
	<path class="st35" d="M1686.6,289.6v-1.9c0-0.9-0.2-1.1-1.1-1.1h-1.8c-0.9,0-1.1,0.2-1.1,1.1v11c0,0.9,0.2,1.1,1.1,1.1h1.8
		c0.9,0,1.1-0.2,1.1-1.1v-1.9h2.5v2.3c0,1.9-0.9,2.8-2.8,2.8h-3.3c-1.9,0-2.8-0.9-2.8-2.8v-11.8c0-1.9,0.9-2.8,2.8-2.8h3.3
		c1.9,0,2.8,0.9,2.8,2.8v2.3H1686.6z"/>
	<path class="st35" d="M1700.5,284.5v17.5h-2.5v-1.2c-0.3,0.9-1,1.2-2,1.2h-1.4c-1.9,0-2.8-0.9-2.8-2.8v-11.8c0-1.9,0.9-2.8,2.8-2.8
		h1.4c1,0,1.7,0.3,2,1.2v-1.2H1700.5z M1696.8,299.8c0.9,0,1.2-0.3,1.2-1.3v-10.6c0-1-0.4-1.3-1.2-1.3h-1.4c-0.9,0-1.1,0.2-1.1,1.1
		v11c0,0.9,0.2,1.1,1.1,1.1H1696.8z"/>
	<path class="st35" d="M1706.4,286.6v11.9c0,0.9,0.2,1.1,1.1,1.1h1.4v2.3h-2.1c-1.9,0-2.8-0.9-2.8-2.8v-12.5h-1.6v-2.1h1.6v-2.8h2.5
		v2.8h2.5v2.1H1706.4z"/>
	<path class="st35" d="M1717,284.5c1.9,0,2.8,0.9,2.8,2.8v6.7h-6.5v4.6c0,0.9,0.2,1.1,1.1,1.1h1.7c0.9,0,1.1-0.2,1.1-1.1v-1.6h2.5v2
		c0,1.9-0.9,2.8-2.8,2.8h-3.2c-1.9,0-2.8-0.9-2.8-2.8v-11.8c0-1.9,0.9-2.8,2.8-2.8H1717z M1717.4,291.9v-4.2c0-0.9-0.2-1.1-1.1-1.1
		h-1.8c-0.9,0-1.1,0.2-1.1,1.1v4.2H1717.4z"/>
	<path class="st35" d="M1182.4,327.7l-3.1,17.5h-3.8l-2.1-14l-2.1,14h-3.8l-3.1-17.5h2.4l2.6,15.7l2.3-15.7h3.4l2.2,15.7l2.6-15.7
		H1182.4z"/>
	<path class="st35" d="M1184.1,321h2.6v2.9h-2.6V321z M1184.2,345.1v-17.5h2.5v17.5H1184.2z"/>
	<path class="st35" d="M1192.6,329.8v11.9c0,0.9,0.2,1.1,1.1,1.1h1.4v2.3h-2.1c-1.9,0-2.8-0.9-2.8-2.8v-12.5h-1.6v-2.1h1.6v-2.8h2.5
		v2.8h2.5v2.1H1192.6z"/>
	<path class="st35" d="M1202.9,327.7c1.9,0,2.8,0.9,2.8,2.8v14.6h-2.5v-14.2c0-0.9-0.2-1.1-1.1-1.1h-1.4c-0.9,0-1.2,0.3-1.2,1.3v14
		h-2.5V321h2.5v7.8c0.3-0.9,1-1.2,2-1.2H1202.9z"/>
	<path class="st35" d="M1213.6,321h2.6v2.9h-2.6V321z M1213.7,345.1v-17.5h2.5v17.5H1213.7z"/>
	<path class="st35" d="M1225.3,327.7c1.9,0,2.8,0.9,2.8,2.8v14.6h-2.5v-14.2c0-0.9-0.2-1.1-1.1-1.1h-1.4c-0.9,0-1.2,0.3-1.2,1.3v14
		h-2.5v-17.5h2.5v1.2c0.3-0.9,1-1.2,2-1.2H1225.3z"/>
	<path class="st35" d="M1238.7,329.8v11.9c0,0.9,0.2,1.1,1.1,1.1h1.4v2.3h-2.1c-1.9,0-2.8-0.9-2.8-2.8v-12.5h-1.6v-2.1h1.6v-2.8h2.5
		v2.8h2.5v2.1H1238.7z"/>
	<path class="st35" d="M1249.1,327.7c1.9,0,2.8,0.9,2.8,2.8v14.6h-2.5v-14.2c0-0.9-0.2-1.1-1.1-1.1h-1.4c-0.9,0-1.2,0.3-1.2,1.3v14
		h-2.5V321h2.5v7.8c0.3-0.9,1-1.2,2-1.2H1249.1z"/>
	<path class="st35" d="M1261.3,327.7c1.9,0,2.8,0.9,2.8,2.8v6.7h-6.5v4.6c0,0.9,0.2,1.1,1.1,1.1h1.7c0.9,0,1.1-0.2,1.1-1.1v-1.6h2.5
		v2c0,1.9-0.9,2.8-2.8,2.8h-3.2c-1.9,0-2.8-0.9-2.8-2.8v-11.8c0-1.9,0.9-2.8,2.8-2.8H1261.3z M1261.7,335.1v-4.2
		c0-0.9-0.2-1.1-1.1-1.1h-1.8c-0.9,0-1.1,0.2-1.1,1.1v4.2H1261.7z"/>
	<path class="st35" d="M1277.9,327.7c1.9,0,2.8,0.9,2.8,2.8v6.7h-6.5v4.6c0,0.9,0.2,1.1,1.1,1.1h1.7c0.9,0,1.1-0.2,1.1-1.1v-1.6h2.5
		v2c0,1.9-0.9,2.8-2.8,2.8h-3.2c-1.9,0-2.8-0.9-2.8-2.8v-11.8c0-1.9,0.9-2.8,2.8-2.8H1277.9z M1278.2,335.1v-4.2
		c0-0.9-0.2-1.1-1.1-1.1h-1.8c-0.9,0-1.1,0.2-1.1,1.1v4.2H1278.2z"/>
	<path class="st35" d="M1287,343.4l2.4-15.7h2.5l-2.9,17.5h-3.9l-2.9-17.5h2.5L1287,343.4z"/>
	<path class="st35" d="M1299.8,327.7c1.9,0,2.8,0.9,2.8,2.8v6.7h-6.5v4.6c0,0.9,0.2,1.1,1.1,1.1h1.7c0.9,0,1.1-0.2,1.1-1.1v-1.6h2.5
		v2c0,1.9-0.9,2.8-2.8,2.8h-3.2c-1.9,0-2.8-0.9-2.8-2.8v-11.8c0-1.9,0.9-2.8,2.8-2.8H1299.8z M1300.2,335.1v-4.2
		c0-0.9-0.2-1.1-1.1-1.1h-1.8c-0.9,0-1.1,0.2-1.1,1.1v4.2H1300.2z"/>
	<path class="st35" d="M1311.4,327.7c1.9,0,2.8,0.9,2.8,2.8v14.6h-2.5v-14.2c0-0.9-0.2-1.1-1.1-1.1h-1.4c-0.9,0-1.2,0.3-1.2,1.3v14
		h-2.5v-17.5h2.5v1.2c0.3-0.9,1-1.2,2-1.2H1311.4z"/>
	<path class="st35" d="M1320.1,329.8v11.9c0,0.9,0.2,1.1,1.1,1.1h1.4v2.3h-2.1c-1.9,0-2.8-0.9-2.8-2.8v-12.5h-1.6v-2.1h1.6v-2.8h2.5
		v2.8h2.5v2.1H1320.1z"/>
	<path class="st35" d="M1335.6,327.7c1.9,0,2.8,0.9,2.8,2.8v11.8c0,1.9-0.9,2.8-2.8,2.8h-3.7c-1.9,0-2.8-0.9-2.8-2.8v-11.8
		c0-1.9,0.9-2.8,2.8-2.8H1335.6z M1336,330.9c0-0.9-0.2-1.1-1.1-1.1h-2.2c-0.9,0-1.1,0.2-1.1,1.1v11c0,0.9,0.2,1.1,1.1,1.1h2.2
		c0.9,0,1.1-0.2,1.1-1.1V330.9z"/>
	<path class="st35" d="M1345.4,323.3c-0.9,0-1.1,0.2-1.1,1.1v3.2h2.5v2.1h-2.5v15.3h-2.5v-15.3h-1.7v-2.1h1.7v-3.8
		c0-1.9,0.9-2.8,2.8-2.8h2.2v2.3H1345.4z"/>
	<path class="st35" d="M1361.9,327.7v17.5h-2.5v-1.2c-0.3,0.9-1,1.2-2,1.2h-1.4c-1.9,0-2.8-0.9-2.8-2.8v-11.8c0-1.9,0.9-2.8,2.8-2.8
		h1.4c1,0,1.7,0.3,2,1.2v-1.2H1361.9z M1358.2,343c0.9,0,1.2-0.3,1.2-1.3v-10.6c0-1-0.4-1.3-1.2-1.3h-1.4c-0.9,0-1.1,0.2-1.1,1.1v11
		c0,0.9,0.2,1.1,1.1,1.1H1358.2z"/>
	<path class="st35" d="M1371,327.7c1.9,0,2.8,0.9,2.8,2.8v14.6h-2.5v-14.2c0-0.9-0.2-1.1-1.1-1.1h-1.4c-0.9,0-1.2,0.3-1.2,1.3v14
		h-2.5v-17.5h2.5v1.2c0.3-0.9,1-1.2,2-1.2H1371z"/>
	<path class="st35" d="M1387.9,327.7c1.9,0,2.8,0.9,2.8,2.8v6.7h-6.5v4.6c0,0.9,0.2,1.1,1.1,1.1h1.7c0.9,0,1.1-0.2,1.1-1.1v-1.6h2.5
		v2c0,1.9-0.9,2.8-2.8,2.8h-3.2c-1.9,0-2.8-0.9-2.8-2.8v-11.8c0-1.9,0.9-2.8,2.8-2.8H1387.9z M1388.3,335.1v-4.2
		c0-0.9-0.2-1.1-1.1-1.1h-1.8c-0.9,0-1.1,0.2-1.1,1.1v4.2H1388.3z"/>
	<path class="st35" d="M1405.8,327.7c1.9,0,2.8,0.9,2.8,2.8v14.6h-2.5v-14.2c0-0.9-0.2-1.1-1.1-1.1h-1.4c-0.9,0-1.2,0.3-1.2,1.3v14
		h-2.5v-14.2c0-0.9-0.2-1.1-1.1-1.1h-1.4c-0.9,0-1.2,0.3-1.2,1.3v14h-2.5v-17.5h2.5v1.2c0.3-0.9,1-1.2,2-1.2h1.4
		c1.4,0,2.2,0.5,2.6,1.4c0.3-1,1.1-1.4,2.2-1.4H1405.8z"/>
	<path class="st35" d="M1417.9,327.7c1.9,0,2.8,0.9,2.8,2.8v6.7h-6.5v4.6c0,0.9,0.2,1.1,1.1,1.1h1.7c0.9,0,1.1-0.2,1.1-1.1v-1.6h2.5
		v2c0,1.9-0.9,2.8-2.8,2.8h-3.2c-1.9,0-2.8-0.9-2.8-2.8v-11.8c0-1.9,0.9-2.8,2.8-2.8H1417.9z M1418.2,335.1v-4.2
		c0-0.9-0.2-1.1-1.1-1.1h-1.8c-0.9,0-1.1,0.2-1.1,1.1v4.2H1418.2z"/>
	<path class="st35" d="M1429.4,327.7v2.2h-1.1c-1.6,0-2.3,0.9-2.3,2.7v12.6h-2.5v-17.5h2.5v2c0.3-1,1.2-2,2.6-2H1429.4z"/>
	<path class="st35" d="M1439.8,327.7v19.7c0,1.9-0.9,2.8-2.8,2.8h-5.4v-2.1h4.6c0.9,0,1.1-0.2,1.1-1.1v-3c-0.3,0.9-1,1.2-2,1.2h-1.4
		c-1.9,0-2.8-0.9-2.8-2.8v-11.8c0-1.9,0.9-2.8,2.8-2.8h1.4c1,0,1.7,0.3,2,1.2v-1.2H1439.8z M1436.1,343c0.9,0,1.2-0.3,1.2-1.3v-10.6
		c0-1-0.4-1.3-1.2-1.3h-1.4c-0.9,0-1.1,0.2-1.1,1.1v11c0,0.9,0.2,1.1,1.1,1.1H1436.1z"/>
	<path class="st35" d="M1449.2,327.7c1.9,0,2.8,0.9,2.8,2.8v6.7h-6.5v4.6c0,0.9,0.2,1.1,1.1,1.1h1.7c0.9,0,1.1-0.2,1.1-1.1v-1.6h2.5
		v2c0,1.9-0.9,2.8-2.8,2.8h-3.2c-1.9,0-2.8-0.9-2.8-2.8v-11.8c0-1.9,0.9-2.8,2.8-2.8H1449.2z M1449.6,335.1v-4.2
		c0-0.9-0.2-1.1-1.1-1.1h-1.8c-0.9,0-1.1,0.2-1.1,1.1v4.2H1449.6z"/>
	<path class="st35" d="M1460.8,327.7c1.9,0,2.8,0.9,2.8,2.8v14.6h-2.5v-14.2c0-0.9-0.2-1.1-1.1-1.1h-1.4c-0.9,0-1.2,0.3-1.2,1.3v14
		h-2.5v-17.5h2.5v1.2c0.3-0.9,1-1.2,2-1.2H1460.8z"/>
	<path class="st35" d="M1473.2,332.8v-1.9c0-0.9-0.2-1.1-1.1-1.1h-1.8c-0.9,0-1.1,0.2-1.1,1.1v11c0,0.9,0.2,1.1,1.1,1.1h1.8
		c0.9,0,1.1-0.2,1.1-1.1v-1.9h2.5v2.3c0,1.9-0.9,2.8-2.8,2.8h-3.3c-1.9,0-2.8-0.9-2.8-2.8v-11.8c0-1.9,0.9-2.8,2.8-2.8h3.3
		c1.9,0,2.8,0.9,2.8,2.8v2.3H1473.2z"/>
	<path class="st35" d="M1479.8,327.7l2.8,15.7l2.6-15.7h2.5l-3.5,19.7c-0.4,1.9-1.5,2.8-3.4,2.8h-1.9v-2.1h1.2
		c0.9,0,1.6-0.2,1.8-1.1l0.4-1.8h-1.6l-3.3-17.5H1479.8z"/>
	<path class="st35" d="M1489.2,341.1h3v4h-3V341.1z"/>
	<path class="st35" d="M1507.7,324.9h-3.6v20.3h-2.4v-20.3h-3.6v-2.1h9.6V324.9z"/>
	<path class="st35" d="M1515.4,327.7c1.9,0,2.8,0.9,2.8,2.8v14.6h-2.5v-14.2c0-0.9-0.2-1.1-1.1-1.1h-1.4c-0.9,0-1.2,0.3-1.2,1.3v14
		h-2.5V321h2.5v7.8c0.3-0.9,1-1.2,2-1.2H1515.4z"/>
	<path class="st35" d="M1527.7,327.7c1.9,0,2.8,0.9,2.8,2.8v6.7h-6.5v4.6c0,0.9,0.2,1.1,1.1,1.1h1.7c0.9,0,1.1-0.2,1.1-1.1v-1.6h2.5
		v2c0,1.9-0.9,2.8-2.8,2.8h-3.2c-1.9,0-2.8-0.9-2.8-2.8v-11.8c0-1.9,0.9-2.8,2.8-2.8H1527.7z M1528,335.1v-4.2
		c0-0.9-0.2-1.1-1.1-1.1h-1.8c-0.9,0-1.1,0.2-1.1,1.1v4.2H1528z"/>
	<path class="st35" d="M1534.6,327.7l2.8,15.7l2.6-15.7h2.5l-3.5,19.7c-0.4,1.9-1.5,2.8-3.4,2.8h-1.9v-2.1h1.2
		c0.9,0,1.6-0.2,1.8-1.1l0.4-1.8h-1.6l-3.3-17.5H1534.6z"/>
	<path class="st35" d="M1565.7,327.7l-3.1,17.5h-3.8l-2.1-14l-2.1,14h-3.8l-3.1-17.5h2.4l2.6,15.7l2.3-15.7h3.4l2.2,15.7l2.6-15.7
		H1565.7z"/>
	<path class="st35" d="M1567.4,321h2.6v2.9h-2.6V321z M1567.5,345.1v-17.5h2.5v17.5H1567.5z"/>
	<path class="st35" d="M1573.2,345.1V321h2.5v24.1H1573.2z"/>
	<path class="st35" d="M1578.9,345.1V321h2.5v24.1H1578.9z"/>
	<path class="st35" d="M1597.9,327.7v17.5h-2.5v-1.2c-0.3,0.9-1,1.2-2,1.2h-1.4c-1.9,0-2.8-0.9-2.8-2.8v-11.8c0-1.9,0.9-2.8,2.8-2.8
		h1.4c1,0,1.7,0.3,2,1.2v-1.2H1597.9z M1594.2,343c0.9,0,1.2-0.3,1.2-1.3v-10.6c0-1-0.4-1.3-1.2-1.3h-1.4c-0.9,0-1.1,0.2-1.1,1.1v11
		c0,0.9,0.2,1.1,1.1,1.1H1594.2z"/>
	<path class="st35" d="M1601.1,345.1V321h2.5v24.1H1601.1z"/>
	<path class="st35" d="M1612.2,338.6c0-0.9-0.2-1.1-1.1-1.1h-1.8c-1.9,0-2.8-0.9-2.8-2.8v-4.1c0-1.9,0.9-2.8,2.8-2.8h2.4
		c1.9,0,2.8,0.9,2.8,2.8v1.8h-2.4v-1.4c0-0.9-0.2-1.1-1.1-1.1h-1c-0.9,0-1.1,0.2-1.1,1.1v3.4c0,0.9,0.2,1.1,1.1,1.1h1.8
		c1.9,0,2.8,0.9,2.8,2.8v4c0,1.9-0.9,2.8-2.8,2.8h-2.4c-1.9,0-2.8-0.9-2.8-2.8v-1.8h2.4v1.4c0,0.9,0.2,1.1,1.1,1.1h1
		c0.9,0,1.1-0.2,1.1-1.1V338.6z"/>
	<path class="st35" d="M1623.9,327.7c1.9,0,2.8,0.9,2.8,2.8v11.8c0,1.9-0.9,2.8-2.8,2.8h-3.7c-1.9,0-2.8-0.9-2.8-2.8v-11.8
		c0-1.9,0.9-2.8,2.8-2.8H1623.9z M1624.3,330.9c0-0.9-0.2-1.1-1.1-1.1h-2.2c-0.9,0-1.1,0.2-1.1,1.1v11c0,0.9,0.2,1.1,1.1,1.1h2.2
		c0.9,0,1.1-0.2,1.1-1.1V330.9z"/>
	<path class="st35" d="M1640.4,327.6c1.9,0,2.8,0.9,2.8,2.8v11.8c0,1.9-0.9,2.8-2.8,2.8h-1.4c-1,0-1.7-0.3-2-1.2v1.2h-2.5V321h2.5
		v7.8c0.3-0.9,1-1.2,2-1.2H1640.4z M1640.7,330.9c0-0.9-0.2-1.1-1.1-1.1h-1.4c-0.9,0-1.2,0.3-1.2,1.3v10.7c0,1,0.4,1.3,1.2,1.3h1.4
		c0.9,0,1.1-0.2,1.1-1.1V330.9z"/>
	<path class="st35" d="M1652.4,327.7c1.9,0,2.8,0.9,2.8,2.8v6.7h-6.5v4.6c0,0.9,0.2,1.1,1.1,1.1h1.7c0.9,0,1.1-0.2,1.1-1.1v-1.6h2.5
		v2c0,1.9-0.9,2.8-2.8,2.8h-3.2c-1.9,0-2.8-0.9-2.8-2.8v-11.8c0-1.9,0.9-2.8,2.8-2.8H1652.4z M1652.8,335.1v-4.2
		c0-0.9-0.2-1.1-1.1-1.1h-1.8c-0.9,0-1.1,0.2-1.1,1.1v4.2H1652.8z"/>
	<path class="st35" d="M1665.4,329.8v11.9c0,0.9,0.2,1.1,1.1,1.1h1.4v2.3h-2.1c-1.9,0-2.8-0.9-2.8-2.8v-12.5h-1.6v-2.1h1.6v-2.8h2.5
		v2.8h2.5v2.1H1665.4z"/>
	<path class="st35" d="M1675.8,327.7c1.9,0,2.8,0.9,2.8,2.8v14.6h-2.5v-14.2c0-0.9-0.2-1.1-1.1-1.1h-1.4c-0.9,0-1.2,0.3-1.2,1.3v14
		h-2.5V321h2.5v7.8c0.3-0.9,1-1.2,2-1.2H1675.8z"/>
	<path class="st35" d="M1688.1,327.7c1.9,0,2.8,0.9,2.8,2.8v6.7h-6.5v4.6c0,0.9,0.2,1.1,1.1,1.1h1.7c0.9,0,1.1-0.2,1.1-1.1v-1.6h2.5
		v2c0,1.9-0.9,2.8-2.8,2.8h-3.2c-1.9,0-2.8-0.9-2.8-2.8v-11.8c0-1.9,0.9-2.8,2.8-2.8H1688.1z M1688.4,335.1v-4.2
		c0-0.9-0.2-1.1-1.1-1.1h-1.8c-0.9,0-1.1,0.2-1.1,1.1v4.2H1688.4z"/>
	<path class="st35" d="M1699.6,327.7v2.2h-1.1c-1.6,0-2.3,0.9-2.3,2.7v12.6h-2.5v-17.5h2.5v2c0.3-1,1.2-2,2.6-2H1699.6z"/>
	<path class="st35" d="M1707.6,327.7c1.9,0,2.8,0.9,2.8,2.8v6.7h-6.5v4.6c0,0.9,0.2,1.1,1.1,1.1h1.7c0.9,0,1.1-0.2,1.1-1.1v-1.6h2.5
		v2c0,1.9-0.9,2.8-2.8,2.8h-3.2c-1.9,0-2.8-0.9-2.8-2.8v-11.8c0-1.9,0.9-2.8,2.8-2.8H1707.6z M1707.9,335.1v-4.2
		c0-0.9-0.2-1.1-1.1-1.1h-1.8c-0.9,0-1.1,0.2-1.1,1.1v4.2H1707.9z"/>
	<path class="st35" d="M1184.8,373v11.9c0,0.9,0.2,1.1,1.1,1.1h1.4v2.3h-2.1c-1.9,0-2.8-0.9-2.8-2.8V373h-1.6v-2.1h1.6V368h2.5v2.8
		h2.5v2.1H1184.8z"/>
	<path class="st35" d="M1195.6,370.9c1.9,0,2.8,0.9,2.8,2.8v11.8c0,1.9-0.9,2.8-2.8,2.8h-3.7c-1.9,0-2.8-0.9-2.8-2.8v-11.8
		c0-1.9,0.9-2.8,2.8-2.8H1195.6z M1196,374.1c0-0.9-0.2-1.1-1.1-1.1h-2.2c-0.9,0-1.1,0.2-1.1,1.1v11c0,0.9,0.2,1.1,1.1,1.1h2.2
		c0.9,0,1.1-0.2,1.1-1.1V374.1z"/>
	<path class="st35" d="M1214.8,370.9v17.5h-2.5v-1.2c-0.3,0.9-1,1.2-2,1.2h-1.4c-1.9,0-2.8-0.9-2.8-2.8v-11.8c0-1.9,0.9-2.8,2.8-2.8
		h1.4c1,0,1.7,0.3,2,1.2v-1.2H1214.8z M1211.1,386.2c0.9,0,1.2-0.3,1.2-1.3v-10.6c0-1-0.4-1.3-1.2-1.3h-1.4c-0.9,0-1.1,0.2-1.1,1.1
		v11c0,0.9,0.2,1.1,1.1,1.1H1211.1z"/>
	<path class="st35" d="M1223.4,381.8c0-0.9-0.2-1.1-1.1-1.1h-1.8c-1.9,0-2.8-0.9-2.8-2.8v-4.1c0-1.9,0.9-2.8,2.8-2.8h2.4
		c1.9,0,2.8,0.9,2.8,2.8v1.8h-2.4v-1.4c0-0.9-0.2-1.1-1.1-1.1h-1c-0.9,0-1.1,0.2-1.1,1.1v3.4c0,0.9,0.2,1.1,1.1,1.1h1.8
		c1.9,0,2.8,0.9,2.8,2.8v4c0,1.9-0.9,2.8-2.8,2.8h-2.4c-1.9,0-2.8-0.9-2.8-2.8v-1.8h2.4v1.4c0,0.9,0.2,1.1,1.1,1.1h1
		c0.9,0,1.1-0.2,1.1-1.1V381.8z"/>
	<path class="st35" d="M1234.1,381.8c0-0.9-0.2-1.1-1.1-1.1h-1.8c-1.9,0-2.8-0.9-2.8-2.8v-4.1c0-1.9,0.9-2.8,2.8-2.8h2.4
		c1.9,0,2.8,0.9,2.8,2.8v1.8h-2.4v-1.4c0-0.9-0.2-1.1-1.1-1.1h-1c-0.9,0-1.1,0.2-1.1,1.1v3.4c0,0.9,0.2,1.1,1.1,1.1h1.8
		c1.9,0,2.8,0.9,2.8,2.8v4c0,1.9-0.9,2.8-2.8,2.8h-2.4c-1.9,0-2.8-0.9-2.8-2.8v-1.8h2.4v1.4c0,0.9,0.2,1.1,1.1,1.1h1
		c0.9,0,1.1-0.2,1.1-1.1V381.8z"/>
	<path class="st35" d="M1239.3,364.2h2.6v2.9h-2.6V364.2z M1239.4,388.3v-17.5h2.5v17.5H1239.4z"/>
	<path class="st35" d="M1250.5,381.8c0-0.9-0.2-1.1-1.1-1.1h-1.8c-1.9,0-2.8-0.9-2.8-2.8v-4.1c0-1.9,0.9-2.8,2.8-2.8h2.4
		c1.9,0,2.8,0.9,2.8,2.8v1.8h-2.4v-1.4c0-0.9-0.2-1.1-1.1-1.1h-1c-0.9,0-1.1,0.2-1.1,1.1v3.4c0,0.9,0.2,1.1,1.1,1.1h1.8
		c1.9,0,2.8,0.9,2.8,2.8v4c0,1.9-0.9,2.8-2.8,2.8h-2.4c-1.9,0-2.8-0.9-2.8-2.8v-1.8h2.4v1.4c0,0.9,0.2,1.1,1.1,1.1h1
		c0.9,0,1.1-0.2,1.1-1.1V381.8z"/>
	<path class="st35" d="M1258.4,373v11.9c0,0.9,0.2,1.1,1.1,1.1h1.4v2.3h-2.1c-1.9,0-2.8-0.9-2.8-2.8V373h-1.6v-2.1h1.6V368h2.5v2.8
		h2.5v2.1H1258.4z"/>
	<path class="st35" d="M1284,370.9l-3.1,17.5h-3.8l-2.1-14l-2.1,14h-3.8l-3.1-17.5h2.4l2.6,15.7l2.3-15.7h3.4l2.2,15.7l2.6-15.7
		H1284z"/>
	<path class="st35" d="M1285.8,364.2h2.6v2.9h-2.6V364.2z M1285.8,388.3v-17.5h2.5v17.5H1285.8z"/>
	<path class="st35" d="M1294.2,373v11.9c0,0.9,0.2,1.1,1.1,1.1h1.4v2.3h-2.1c-1.9,0-2.8-0.9-2.8-2.8V373h-1.6v-2.1h1.6V368h2.5v2.8
		h2.5v2.1H1294.2z"/>
	<path class="st35" d="M1304.6,370.9c1.9,0,2.8,0.9,2.8,2.8v14.6h-2.5v-14.2c0-0.9-0.2-1.1-1.1-1.1h-1.4c-0.9,0-1.2,0.3-1.2,1.3v14
		h-2.5v-24.1h2.5v7.8c0.3-0.9,1-1.2,2-1.2H1304.6z"/>
	<path class="st35" d="M1317.9,373v11.9c0,0.9,0.2,1.1,1.1,1.1h1.4v2.3h-2.1c-1.9,0-2.8-0.9-2.8-2.8V373h-1.6v-2.1h1.6V368h2.5v2.8
		h2.5v2.1H1317.9z"/>
	<path class="st35" d="M1328.3,370.9c1.9,0,2.8,0.9,2.8,2.8v14.6h-2.5v-14.2c0-0.9-0.2-1.1-1.1-1.1h-1.4c-0.9,0-1.2,0.3-1.2,1.3v14
		h-2.5v-24.1h2.5v7.8c0.3-0.9,1-1.2,2-1.2H1328.3z"/>
	<path class="st35" d="M1340.6,370.9c1.9,0,2.8,0.9,2.8,2.8v6.7h-6.5v4.6c0,0.9,0.2,1.1,1.1,1.1h1.7c0.9,0,1.1-0.2,1.1-1.1v-1.6h2.5
		v2c0,1.9-0.9,2.8-2.8,2.8h-3.2c-1.9,0-2.8-0.9-2.8-2.8v-11.8c0-1.9,0.9-2.8,2.8-2.8H1340.6z M1340.9,378.3v-4.2
		c0-0.9-0.2-1.1-1.1-1.1h-1.8c-0.9,0-1.1,0.2-1.1,1.1v4.2H1340.9z"/>
	<path class="st35" d="M1350.4,374.9v-2.1l2-6.9h1v9H1350.4z M1355.2,374.9v-2.1l2-6.9h1v9H1355.2z"/>
	<path class="st35" d="M1373,370.9c1.9,0,2.8,0.9,2.8,2.8v14.6h-2.5v-14.2c0-0.9-0.2-1.1-1.1-1.1h-1.4c-0.9,0-1.2,0.3-1.2,1.3v14
		h-2.5v-14.2c0-0.9-0.2-1.1-1.1-1.1h-1.4c-0.9,0-1.2,0.3-1.2,1.3v14h-2.5v-17.5h2.5v1.2c0.3-0.9,1-1.2,2-1.2h1.4
		c1.4,0,2.2,0.5,2.6,1.4c0.3-1,1.1-1.4,2.2-1.4H1373z"/>
	<path class="st35" d="M1378.8,364.2h2.6v2.9h-2.6V364.2z M1378.9,388.3v-17.5h2.5v17.5H1378.9z"/>
	<path class="st35" d="M1390,381.8c0-0.9-0.2-1.1-1.1-1.1h-1.8c-1.9,0-2.8-0.9-2.8-2.8v-4.1c0-1.9,0.9-2.8,2.8-2.8h2.4
		c1.9,0,2.8,0.9,2.8,2.8v1.8h-2.4v-1.4c0-0.9-0.2-1.1-1.1-1.1h-1c-0.9,0-1.1,0.2-1.1,1.1v3.4c0,0.9,0.2,1.1,1.1,1.1h1.8
		c1.9,0,2.8,0.9,2.8,2.8v4c0,1.9-0.9,2.8-2.8,2.8h-2.4c-1.9,0-2.8-0.9-2.8-2.8v-1.8h2.4v1.4c0,0.9,0.2,1.1,1.1,1.1h1
		c0.9,0,1.1-0.2,1.1-1.1V381.8z"/>
	<path class="st35" d="M1400.7,381.8c0-0.9-0.2-1.1-1.1-1.1h-1.8c-1.9,0-2.8-0.9-2.8-2.8v-4.1c0-1.9,0.9-2.8,2.8-2.8h2.4
		c1.9,0,2.8,0.9,2.8,2.8v1.8h-2.4v-1.4c0-0.9-0.2-1.1-1.1-1.1h-1c-0.9,0-1.1,0.2-1.1,1.1v3.4c0,0.9,0.2,1.1,1.1,1.1h1.8
		c1.9,0,2.8,0.9,2.8,2.8v4c0,1.9-0.9,2.8-2.8,2.8h-2.4c-1.9,0-2.8-0.9-2.8-2.8v-1.8h2.4v1.4c0,0.9,0.2,1.1,1.1,1.1h1
		c0.9,0,1.1-0.2,1.1-1.1V381.8z"/>
	<path class="st35" d="M1405.9,364.2h2.6v2.9h-2.6V364.2z M1406,388.3v-17.5h2.5v17.5H1406z"/>
	<path class="st35" d="M1418.1,370.9c1.9,0,2.8,0.9,2.8,2.8v11.8c0,1.9-0.9,2.8-2.8,2.8h-3.7c-1.9,0-2.8-0.9-2.8-2.8v-11.8
		c0-1.9,0.9-2.8,2.8-2.8H1418.1z M1418.5,374.1c0-0.9-0.2-1.1-1.1-1.1h-2.2c-0.9,0-1.1,0.2-1.1,1.1v11c0,0.9,0.2,1.1,1.1,1.1h2.2
		c0.9,0,1.1-0.2,1.1-1.1V374.1z"/>
	<path class="st35" d="M1429.9,370.9c1.9,0,2.8,0.9,2.8,2.8v14.6h-2.5v-14.2c0-0.9-0.2-1.1-1.1-1.1h-1.4c-0.9,0-1.2,0.3-1.2,1.3v14
		h-2.5v-17.5h2.5v1.2c0.3-0.9,1-1.2,2-1.2H1429.9z"/>
	<path class="st35" d="M1447,376v-1.9c0-0.9-0.2-1.1-1.1-1.1h-1.8c-0.9,0-1.1,0.2-1.1,1.1v11c0,0.9,0.2,1.1,1.1,1.1h1.8
		c0.9,0,1.1-0.2,1.1-1.1v-1.9h2.5v2.3c0,1.9-0.9,2.8-2.8,2.8h-3.3c-1.9,0-2.8-0.9-2.8-2.8v-11.8c0-1.9,0.9-2.8,2.8-2.8h3.3
		c1.9,0,2.8,0.9,2.8,2.8v2.3H1447z"/>
	<path class="st35" d="M1458.7,370.9c1.9,0,2.8,0.9,2.8,2.8v11.8c0,1.9-0.9,2.8-2.8,2.8h-3.7c-1.9,0-2.8-0.9-2.8-2.8v-11.8
		c0-1.9,0.9-2.8,2.8-2.8H1458.7z M1459.1,374.1c0-0.9-0.2-1.1-1.1-1.1h-2.2c-0.9,0-1.1,0.2-1.1,1.1v11c0,0.9,0.2,1.1,1.1,1.1h2.2
		c0.9,0,1.1-0.2,1.1-1.1V374.1z"/>
	<path class="st35" d="M1470.5,370.9c1.9,0,2.8,0.9,2.8,2.8v14.6h-2.5v-14.2c0-0.9-0.2-1.1-1.1-1.1h-1.4c-0.9,0-1.2,0.3-1.2,1.3v14
		h-2.5v-17.5h2.5v1.2c0.3-0.9,1-1.2,2-1.2H1470.5z"/>
	<path class="st35" d="M1479.2,373v11.9c0,0.9,0.2,1.1,1.1,1.1h1.4v2.3h-2.1c-1.9,0-2.8-0.9-2.8-2.8V373h-1.6v-2.1h1.6V368h2.5v2.8
		h2.5v2.1H1479.2z"/>
	<path class="st35" d="M1489.5,370.9v2.2h-1.1c-1.6,0-2.3,0.9-2.3,2.7v12.6h-2.5v-17.5h2.5v2c0.3-1,1.2-2,2.6-2H1489.5z"/>
	<path class="st35" d="M1497.6,370.9c1.9,0,2.8,0.9,2.8,2.8v11.8c0,1.9-0.9,2.8-2.8,2.8h-3.7c-1.9,0-2.8-0.9-2.8-2.8v-11.8
		c0-1.9,0.9-2.8,2.8-2.8H1497.6z M1498,374.1c0-0.9-0.2-1.1-1.1-1.1h-2.2c-0.9,0-1.1,0.2-1.1,1.1v11c0,0.9,0.2,1.1,1.1,1.1h2.2
		c0.9,0,1.1-0.2,1.1-1.1V374.1z"/>
	<path class="st35" d="M1503.5,388.3v-24.1h2.5v24.1H1503.5z"/>
	<path class="st35" d="M1511.7,365.9v2.1l-2,6.9h-1v-9H1511.7z M1516.4,365.9v2.1l-2,6.9h-1v-9H1516.4z"/>
	<path class="st35" d="M1532.4,370.9v17.5h-2.5v-1.2c-0.3,0.9-1,1.2-2,1.2h-1.4c-1.9,0-2.8-0.9-2.8-2.8v-11.8c0-1.9,0.9-2.8,2.8-2.8
		h1.4c1,0,1.7,0.3,2,1.2v-1.2H1532.4z M1528.6,386.2c0.9,0,1.2-0.3,1.2-1.3v-10.6c0-1-0.4-1.3-1.2-1.3h-1.4c-0.9,0-1.1,0.2-1.1,1.1
		v11c0,0.9,0.2,1.1,1.1,1.1H1528.6z"/>
	<path class="st35" d="M1541,381.8c0-0.9-0.2-1.1-1.1-1.1h-1.8c-1.9,0-2.8-0.9-2.8-2.8v-4.1c0-1.9,0.9-2.8,2.8-2.8h2.4
		c1.9,0,2.8,0.9,2.8,2.8v1.8h-2.4v-1.4c0-0.9-0.2-1.1-1.1-1.1h-1c-0.9,0-1.1,0.2-1.1,1.1v3.4c0,0.9,0.2,1.1,1.1,1.1h1.8
		c1.9,0,2.8,0.9,2.8,2.8v4c0,1.9-0.9,2.8-2.8,2.8h-2.4c-1.9,0-2.8-0.9-2.8-2.8v-1.8h2.4v1.4c0,0.9,0.2,1.1,1.1,1.1h1
		c0.9,0,1.1-0.2,1.1-1.1V381.8z"/>
	<path class="st35" d="M1552.2,370.9c1.9,0,2.8,0.9,2.8,2.8v11.8c0,1.9-0.9,2.8-2.8,2.8h-1.4c-1,0-1.7-0.3-2-1.2v6.3h-2.5v-22.5h2.5
		v1.2c0.3-0.9,1-1.2,2-1.2H1552.2z M1552.5,374.1c0-0.9-0.2-1.1-1.1-1.1h-1.4c-0.9,0-1.2,0.3-1.2,1.3v10.6c0,1,0.4,1.3,1.2,1.3h1.4
		c0.9,0,1.1-0.2,1.1-1.1V374.1z"/>
	<path class="st35" d="M1564.2,370.9c1.9,0,2.8,0.9,2.8,2.8v6.7h-6.5v4.6c0,0.9,0.2,1.1,1.1,1.1h1.7c0.9,0,1.1-0.2,1.1-1.1v-1.6h2.5
		v2c0,1.9-0.9,2.8-2.8,2.8h-3.2c-1.9,0-2.8-0.9-2.8-2.8v-11.8c0-1.9,0.9-2.8,2.8-2.8H1564.2z M1564.6,378.3v-4.2
		c0-0.9-0.2-1.1-1.1-1.1h-1.8c-0.9,0-1.1,0.2-1.1,1.1v4.2H1564.6z"/>
	<path class="st35" d="M1576.3,376v-1.9c0-0.9-0.2-1.1-1.1-1.1h-1.8c-0.9,0-1.1,0.2-1.1,1.1v11c0,0.9,0.2,1.1,1.1,1.1h1.8
		c0.9,0,1.1-0.2,1.1-1.1v-1.9h2.5v2.3c0,1.9-0.9,2.8-2.8,2.8h-3.3c-1.9,0-2.8-0.9-2.8-2.8v-11.8c0-1.9,0.9-2.8,2.8-2.8h3.3
		c1.9,0,2.8,0.9,2.8,2.8v2.3H1576.3z"/>
	<path class="st35" d="M1584.3,373v11.9c0,0.9,0.2,1.1,1.1,1.1h1.4v2.3h-2.1c-1.9,0-2.8-0.9-2.8-2.8V373h-1.6v-2.1h1.6V368h2.5v2.8
		h2.5v2.1H1584.3z"/>
	<path class="st35" d="M1594.1,381.8c0-0.9-0.2-1.1-1.1-1.1h-1.8c-1.9,0-2.8-0.9-2.8-2.8v-4.1c0-1.9,0.9-2.8,2.8-2.8h2.4
		c1.9,0,2.8,0.9,2.8,2.8v1.8h-2.4v-1.4c0-0.9-0.2-1.1-1.1-1.1h-1c-0.9,0-1.1,0.2-1.1,1.1v3.4c0,0.9,0.2,1.1,1.1,1.1h1.8
		c1.9,0,2.8,0.9,2.8,2.8v4c0,1.9-0.9,2.8-2.8,2.8h-2.4c-1.9,0-2.8-0.9-2.8-2.8v-1.8h2.4v1.4c0,0.9,0.2,1.1,1.1,1.1h1
		c0.9,0,1.1-0.2,1.1-1.1V381.8z"/>
	<path class="st35" d="M1610.5,370.9c1.9,0,2.8,0.9,2.8,2.8v11.8c0,1.9-0.9,2.8-2.8,2.8h-3.7c-1.9,0-2.8-0.9-2.8-2.8v-11.8
		c0-1.9,0.9-2.8,2.8-2.8H1610.5z M1610.9,374.1c0-0.9-0.2-1.1-1.1-1.1h-2.2c-0.9,0-1.1,0.2-1.1,1.1v11c0,0.9,0.2,1.1,1.1,1.1h2.2
		c0.9,0,1.1-0.2,1.1-1.1V374.1z"/>
	<path class="st35" d="M1620.3,366.5c-0.9,0-1.1,0.2-1.1,1.1v3.2h2.5v2.1h-2.5v15.3h-2.5V373h-1.7v-2.1h1.7v-3.8
		c0-1.9,0.9-2.8,2.8-2.8h2.2v2.3H1620.3z"/>
	<path class="st35" d="M1630.8,373v11.9c0,0.9,0.2,1.1,1.1,1.1h1.4v2.3h-2.1c-1.9,0-2.8-0.9-2.8-2.8V373h-1.6v-2.1h1.6V368h2.5v2.8
		h2.5v2.1H1630.8z"/>
	<path class="st35" d="M1643.8,370.9v17.5h-2.5v-1.2c-0.3,0.9-1,1.2-2,1.2h-1.4c-1.9,0-2.8-0.9-2.8-2.8v-11.8c0-1.9,0.9-2.8,2.8-2.8
		h1.4c1,0,1.7,0.3,2,1.2v-1.2H1643.8z M1640.1,386.2c0.9,0,1.2-0.3,1.2-1.3v-10.6c0-1-0.4-1.3-1.2-1.3h-1.4c-0.9,0-1.1,0.2-1.1,1.1
		v11c0,0.9,0.2,1.1,1.1,1.1H1640.1z"/>
	<path class="st35" d="M1647,364.2h2.5v24.1h-2.5V364.2z M1652.9,379.1l4.1,9.2h-2.7l-4-9.2l4-8.2h2.7L1652.9,379.1z"/>
	<path class="st35" d="M1664.9,370.9c1.9,0,2.8,0.9,2.8,2.8v6.7h-6.5v4.6c0,0.9,0.2,1.1,1.1,1.1h1.7c0.9,0,1.1-0.2,1.1-1.1v-1.6h2.5
		v2c0,1.9-0.9,2.8-2.8,2.8h-3.2c-1.9,0-2.8-0.9-2.8-2.8v-11.8c0-1.9,0.9-2.8,2.8-2.8H1664.9z M1665.3,378.3v-4.2
		c0-0.9-0.2-1.1-1.1-1.1h-1.8c-0.9,0-1.1,0.2-1.1,1.1v4.2H1665.3z"/>
	<path class="st35" d="M1677,370.9c1.9,0,2.8,0.9,2.8,2.8v11.8c0,1.9-0.9,2.8-2.8,2.8h-3.7c-1.9,0-2.8-0.9-2.8-2.8v-11.8
		c0-1.9,0.9-2.8,2.8-2.8H1677z M1677.4,374.1c0-0.9-0.2-1.1-1.1-1.1h-2.2c-0.9,0-1.1,0.2-1.1,1.1v11c0,0.9,0.2,1.1,1.1,1.1h2.2
		c0.9,0,1.1-0.2,1.1-1.1V374.1z"/>
	<path class="st35" d="M1686.8,366.5c-0.9,0-1.1,0.2-1.1,1.1v3.2h2.5v2.1h-2.5v15.3h-2.5V373h-1.7v-2.1h1.7v-3.8
		c0-1.9,0.9-2.8,2.8-2.8h2.2v2.3H1686.8z"/>
	<path class="st35" d="M1693.8,366.5c-0.9,0-1.1,0.2-1.1,1.1v3.2h2.5v2.1h-2.5v15.3h-2.5V373h-1.7v-2.1h1.7v-3.8
		c0-1.9,0.9-2.8,2.8-2.8h2.2v2.3H1693.8z"/>
	<path class="st35" d="M1189.2,414.1v17.5h-2.5v-1.2c-0.3,0.9-1,1.2-2,1.2h-1.4c-1.9,0-2.8-0.9-2.8-2.8v-11.8c0-1.9,0.9-2.8,2.8-2.8
		h1.4c1,0,1.7,0.3,2,1.2v-1.2H1189.2z M1185.5,429.4c0.9,0,1.2-0.3,1.2-1.3v-10.6c0-1-0.4-1.3-1.2-1.3h-1.4c-0.9,0-1.1,0.2-1.1,1.1
		v11c0,0.9,0.2,1.1,1.1,1.1H1185.5z"/>
	<path class="st35" d="M1198.4,414.1c1.9,0,2.8,0.9,2.8,2.8v14.6h-2.5v-14.2c0-0.9-0.2-1.1-1.1-1.1h-1.4c-0.9,0-1.2,0.3-1.2,1.3v14
		h-2.5v-17.5h2.5v1.2c0.3-0.9,1-1.2,2-1.2H1198.4z"/>
	<path class="st35" d="M1213,407.4v24.1h-2.5v-1.2c-0.3,0.9-1,1.2-2,1.2h-1.4c-1.9,0-2.8-0.9-2.8-2.8v-11.8c0-1.9,0.9-2.8,2.8-2.8
		h1.4c1,0,1.7,0.3,2,1.2v-7.8H1213z M1209.3,429.4c0.9,0,1.2-0.3,1.2-1.3v-10.7c0-1-0.4-1.3-1.2-1.3h-1.4c-0.9,0-1.1,0.2-1.1,1.1v11
		c0,0.9,0.2,1.1,1.1,1.1H1209.3z"/>
	<path class="st35" d="M1220.9,431.5v-24.1h2.5v24.1H1220.9z"/>
	<path class="st35" d="M1235.2,414.1v17.5h-2.5v-1.2c-0.3,0.9-1,1.2-2,1.2h-1.4c-1.9,0-2.8-0.9-2.8-2.8v-11.8c0-1.9,0.9-2.8,2.8-2.8
		h1.4c1,0,1.7,0.3,2,1.2v-1.2H1235.2z M1231.5,429.4c0.9,0,1.2-0.3,1.2-1.3v-10.6c0-1-0.4-1.3-1.2-1.3h-1.4c-0.9,0-1.1,0.2-1.1,1.1
		v11c0,0.9,0.2,1.1,1.1,1.1H1231.5z"/>
	<path class="st35" d="M1244.4,414.1c1.9,0,2.8,0.9,2.8,2.8v14.6h-2.5v-14.2c0-0.9-0.2-1.1-1.1-1.1h-1.4c-0.9,0-1.2,0.3-1.2,1.3v14
		h-2.5v-17.5h2.5v1.2c0.3-0.9,1-1.2,2-1.2H1244.4z"/>
	<path class="st35" d="M1259,407.4v24.1h-2.5v-1.2c-0.3,0.9-1,1.2-2,1.2h-1.4c-1.9,0-2.8-0.9-2.8-2.8v-11.8c0-1.9,0.9-2.8,2.8-2.8
		h1.4c1,0,1.7,0.3,2,1.2v-7.8H1259z M1255.3,429.4c0.9,0,1.2-0.3,1.2-1.3v-10.7c0-1-0.4-1.3-1.2-1.3h-1.4c-0.9,0-1.1,0.2-1.1,1.1v11
		c0,0.9,0.2,1.1,1.1,1.1H1255.3z"/>
	<path class="st35" d="M1262.2,407.4h2.6v2.9h-2.6V407.4z M1262.3,431.5v-17.5h2.5v17.5H1262.3z"/>
	<path class="st35" d="M1273.9,414.1c1.9,0,2.8,0.9,2.8,2.8v14.6h-2.5v-14.2c0-0.9-0.2-1.1-1.1-1.1h-1.4c-0.9,0-1.2,0.3-1.2,1.3v14
		h-2.5v-17.5h2.5v1.2c0.3-0.9,1-1.2,2-1.2H1273.9z"/>
	<path class="st35" d="M1288.5,414.1v19.7c0,1.9-0.9,2.8-2.8,2.8h-5.4v-2.1h4.6c0.9,0,1.1-0.2,1.1-1.1v-3c-0.3,0.9-1,1.2-2,1.2h-1.4
		c-1.9,0-2.8-0.9-2.8-2.8v-11.8c0-1.9,0.9-2.8,2.8-2.8h1.4c1,0,1.7,0.3,2,1.2v-1.2H1288.5z M1284.8,429.4c0.9,0,1.2-0.3,1.2-1.3
		v-10.6c0-1-0.4-1.3-1.2-1.3h-1.4c-0.9,0-1.1,0.2-1.1,1.1v11c0,0.9,0.2,1.1,1.1,1.1H1284.8z"/>
	<path class="st35" d="M1299.1,416.2v11.9c0,0.9,0.2,1.1,1.1,1.1h1.4v2.3h-2.1c-1.9,0-2.8-0.9-2.8-2.8v-12.5h-1.6v-2.1h1.6v-2.8h2.5
		v2.8h2.5v2.1H1299.1z"/>
	<path class="st35" d="M1309.4,414.1c1.9,0,2.8,0.9,2.8,2.8v14.6h-2.5v-14.2c0-0.9-0.2-1.1-1.1-1.1h-1.4c-0.9,0-1.2,0.3-1.2,1.3v14
		h-2.5v-24.1h2.5v7.8c0.3-0.9,1-1.2,2-1.2H1309.4z"/>
	<path class="st35" d="M1324.1,414.1v17.5h-2.5v-1.2c-0.3,0.9-1,1.2-2,1.2h-1.4c-1.9,0-2.8-0.9-2.8-2.8v-11.8c0-1.9,0.9-2.8,2.8-2.8
		h1.4c1,0,1.7,0.3,2,1.2v-1.2H1324.1z M1320.4,429.4c0.9,0,1.2-0.3,1.2-1.3v-10.6c0-1-0.4-1.3-1.2-1.3h-1.4c-0.9,0-1.1,0.2-1.1,1.1
		v11c0,0.9,0.2,1.1,1.1,1.1H1320.4z"/>
	<path class="st35" d="M1330,416.2v11.9c0,0.9,0.2,1.1,1.1,1.1h1.4v2.3h-2.1c-1.9,0-2.8-0.9-2.8-2.8v-12.5h-1.6v-2.1h1.6v-2.8h2.5
		v2.8h2.5v2.1H1330z"/>
	<path class="st35" d="M1345.4,419.2v-1.9c0-0.9-0.2-1.1-1.1-1.1h-1.8c-0.9,0-1.1,0.2-1.1,1.1v11c0,0.9,0.2,1.1,1.1,1.1h1.8
		c0.9,0,1.1-0.2,1.1-1.1v-1.9h2.5v2.3c0,1.9-0.9,2.8-2.8,2.8h-3.3c-1.9,0-2.8-0.9-2.8-2.8v-11.8c0-1.9,0.9-2.8,2.8-2.8h3.3
		c1.9,0,2.8,0.9,2.8,2.8v2.3H1345.4z"/>
	<path class="st35" d="M1359.4,414.1v17.5h-2.5v-1.2c-0.3,0.9-1,1.2-2,1.2h-1.4c-1.9,0-2.8-0.9-2.8-2.8v-11.8c0-1.9,0.9-2.8,2.8-2.8
		h1.4c1,0,1.7,0.3,2,1.2v-1.2H1359.4z M1355.7,429.4c0.9,0,1.2-0.3,1.2-1.3v-10.6c0-1-0.4-1.3-1.2-1.3h-1.4c-0.9,0-1.1,0.2-1.1,1.1
		v11c0,0.9,0.2,1.1,1.1,1.1H1355.7z"/>
	<path class="st35" d="M1368.5,414.1c1.9,0,2.8,0.9,2.8,2.8v14.6h-2.5v-14.2c0-0.9-0.2-1.1-1.1-1.1h-1.4c-0.9,0-1.2,0.3-1.2,1.3v14
		h-2.5v-17.5h2.5v1.2c0.3-0.9,1-1.2,2-1.2H1368.5z"/>
	<path class="st35" d="M1380.5,414.1c1.9,0,2.8,0.9,2.8,2.8v14.6h-2.5v-14.2c0-0.9-0.2-1.1-1.1-1.1h-1.4c-0.9,0-1.2,0.3-1.2,1.3v14
		h-2.5v-17.5h2.5v1.2c0.3-0.9,1-1.2,2-1.2H1380.5z"/>
	<path class="st35" d="M1392.9,414.1c1.9,0,2.8,0.9,2.8,2.8v11.8c0,1.9-0.9,2.8-2.8,2.8h-3.7c-1.9,0-2.8-0.9-2.8-2.8v-11.8
		c0-1.9,0.9-2.8,2.8-2.8H1392.9z M1393.3,417.3c0-0.9-0.2-1.1-1.1-1.1h-2.2c-0.9,0-1.1,0.2-1.1,1.1v11c0,0.9,0.2,1.1,1.1,1.1h2.2
		c0.9,0,1.1-0.2,1.1-1.1V417.3z"/>
	<path class="st35" d="M1401.5,416.2v11.9c0,0.9,0.2,1.1,1.1,1.1h1.4v2.3h-2.1c-1.9,0-2.8-0.9-2.8-2.8v-12.5h-1.6v-2.1h1.6v-2.8h2.5
		v2.8h2.5v2.1H1401.5z"/>
	<path class="st35" d="M1416.5,414c1.9,0,2.8,0.9,2.8,2.8v11.8c0,1.9-0.9,2.8-2.8,2.8h-1.4c-1,0-1.7-0.3-2-1.2v1.2h-2.5v-24.1h2.5
		v7.8c0.3-0.9,1-1.2,2-1.2H1416.5z M1416.9,417.3c0-0.9-0.2-1.1-1.1-1.1h-1.4c-0.9,0-1.2,0.3-1.2,1.3v10.7c0,1,0.4,1.3,1.2,1.3h1.4
		c0.9,0,1.1-0.2,1.1-1.1V417.3z"/>
	<path class="st35" d="M1428.6,414.1c1.9,0,2.8,0.9,2.8,2.8v6.7h-6.5v4.6c0,0.9,0.2,1.1,1.1,1.1h1.7c0.9,0,1.1-0.2,1.1-1.1v-1.6h2.5
		v2c0,1.9-0.9,2.8-2.8,2.8h-3.2c-1.9,0-2.8-0.9-2.8-2.8v-11.8c0-1.9,0.9-2.8,2.8-2.8H1428.6z M1428.9,421.5v-4.2
		c0-0.9-0.2-1.1-1.1-1.1h-1.8c-0.9,0-1.1,0.2-1.1,1.1v4.2H1428.9z"/>
	<path class="st35" d="M1445.3,419.2v-1.9c0-0.9-0.2-1.1-1.1-1.1h-1.8c-0.9,0-1.1,0.2-1.1,1.1v11c0,0.9,0.2,1.1,1.1,1.1h1.8
		c0.9,0,1.1-0.2,1.1-1.1v-1.9h2.5v2.3c0,1.9-0.9,2.8-2.8,2.8h-3.3c-1.9,0-2.8-0.9-2.8-2.8v-11.8c0-1.9,0.9-2.8,2.8-2.8h3.3
		c1.9,0,2.8,0.9,2.8,2.8v2.3H1445.3z"/>
	<path class="st35" d="M1457,414.1c1.9,0,2.8,0.9,2.8,2.8v11.8c0,1.9-0.9,2.8-2.8,2.8h-3.7c-1.9,0-2.8-0.9-2.8-2.8v-11.8
		c0-1.9,0.9-2.8,2.8-2.8H1457z M1457.4,417.3c0-0.9-0.2-1.1-1.1-1.1h-2.2c-0.9,0-1.1,0.2-1.1,1.1v11c0,0.9,0.2,1.1,1.1,1.1h2.2
		c0.9,0,1.1-0.2,1.1-1.1V417.3z"/>
	<path class="st35" d="M1475.1,414.1c1.9,0,2.8,0.9,2.8,2.8v14.6h-2.5v-14.2c0-0.9-0.2-1.1-1.1-1.1h-1.4c-0.9,0-1.2,0.3-1.2,1.3v14
		h-2.5v-14.2c0-0.9-0.2-1.1-1.1-1.1h-1.4c-0.9,0-1.2,0.3-1.2,1.3v14h-2.5v-17.5h2.5v1.2c0.3-0.9,1-1.2,2-1.2h1.4
		c1.4,0,2.2,0.5,2.6,1.4c0.3-1,1.1-1.4,2.2-1.4H1475.1z"/>
	<path class="st35" d="M1486.9,414.1c1.9,0,2.8,0.9,2.8,2.8v11.8c0,1.9-0.9,2.8-2.8,2.8h-1.4c-1,0-1.7-0.3-2-1.2v6.3h-2.5v-22.5h2.5
		v1.2c0.3-0.9,1-1.2,2-1.2H1486.9z M1487.2,417.3c0-0.9-0.2-1.1-1.1-1.1h-1.4c-0.9,0-1.2,0.3-1.2,1.3v10.6c0,1,0.4,1.3,1.2,1.3h1.4
		c0.9,0,1.1-0.2,1.1-1.1V417.3z"/>
	<path class="st35" d="M1492.8,431.5v-24.1h2.5v24.1H1492.8z"/>
	<path class="st35" d="M1504.7,414.1c1.9,0,2.8,0.9,2.8,2.8v6.7h-6.5v4.6c0,0.9,0.2,1.1,1.1,1.1h1.7c0.9,0,1.1-0.2,1.1-1.1v-1.6h2.5
		v2c0,1.9-0.9,2.8-2.8,2.8h-3.2c-1.9,0-2.8-0.9-2.8-2.8v-11.8c0-1.9,0.9-2.8,2.8-2.8H1504.7z M1505,421.5v-4.2
		c0-0.9-0.2-1.1-1.1-1.1h-1.8c-0.9,0-1.1,0.2-1.1,1.1v4.2H1505z"/>
	<path class="st35" d="M1513,416.2v11.9c0,0.9,0.2,1.1,1.1,1.1h1.4v2.3h-2.1c-1.9,0-2.8-0.9-2.8-2.8v-12.5h-1.6v-2.1h1.6v-2.8h2.5
		v2.8h2.5v2.1H1513z"/>
	<path class="st35" d="M1523.6,414.1c1.9,0,2.8,0.9,2.8,2.8v6.7h-6.5v4.6c0,0.9,0.2,1.1,1.1,1.1h1.7c0.9,0,1.1-0.2,1.1-1.1v-1.6h2.5
		v2c0,1.9-0.9,2.8-2.8,2.8h-3.2c-1.9,0-2.8-0.9-2.8-2.8v-11.8c0-1.9,0.9-2.8,2.8-2.8H1523.6z M1524,421.5v-4.2
		c0-0.9-0.2-1.1-1.1-1.1h-1.8c-0.9,0-1.1,0.2-1.1,1.1v4.2H1524z"/>
	<path class="st35" d="M1537.9,407.4v24.1h-2.5v-1.2c-0.3,0.9-1,1.2-2,1.2h-1.4c-1.9,0-2.8-0.9-2.8-2.8v-11.8c0-1.9,0.9-2.8,2.8-2.8
		h1.4c1,0,1.7,0.3,2,1.2v-7.8H1537.9z M1534.2,429.4c0.9,0,1.2-0.3,1.2-1.3v-10.7c0-1-0.4-1.3-1.2-1.3h-1.4c-0.9,0-1.1,0.2-1.1,1.1
		v11c0,0.9,0.2,1.1,1.1,1.1H1534.2z"/>
	<path class="st35" d="M1554.4,414.1v17.5h-2.5v-1.2c-0.3,0.9-1,1.2-2,1.2h-1.4c-1.9,0-2.8-0.9-2.8-2.8v-11.8c0-1.9,0.9-2.8,2.8-2.8
		h1.4c1,0,1.7,0.3,2,1.2v-1.2H1554.4z M1550.7,429.4c0.9,0,1.2-0.3,1.2-1.3v-10.6c0-1-0.4-1.3-1.2-1.3h-1.4c-0.9,0-1.1,0.2-1.1,1.1
		v11c0,0.9,0.2,1.1,1.1,1.1H1550.7z"/>
	<path class="st35" d="M1563.6,414c1.9,0,2.8,0.9,2.8,2.8v11.8c0,1.9-0.9,2.8-2.8,2.8h-1.4c-1,0-1.7-0.3-2-1.2v1.2h-2.5v-24.1h2.5
		v7.8c0.3-0.9,1-1.2,2-1.2H1563.6z M1563.9,417.3c0-0.9-0.2-1.1-1.1-1.1h-1.4c-0.9,0-1.2,0.3-1.2,1.3v10.7c0,1,0.4,1.3,1.2,1.3h1.4
		c0.9,0,1.1-0.2,1.1-1.1V417.3z"/>
	<path class="st35" d="M1575.8,414.1c1.9,0,2.8,0.9,2.8,2.8v11.8c0,1.9-0.9,2.8-2.8,2.8h-3.7c-1.9,0-2.8-0.9-2.8-2.8v-11.8
		c0-1.9,0.9-2.8,2.8-2.8H1575.8z M1576.2,417.3c0-0.9-0.2-1.1-1.1-1.1h-2.2c-0.9,0-1.1,0.2-1.1,1.1v11c0,0.9,0.2,1.1,1.1,1.1h2.2
		c0.9,0,1.1-0.2,1.1-1.1V417.3z"/>
	<path class="st35" d="M1590.3,414.1v17.5h-2.5v-1.2c-0.3,0.9-1,1.2-2,1.2h-1.4c-1.9,0-2.8-0.9-2.8-2.8v-11.8c0-1.9,0.9-2.8,2.8-2.8
		h1.4c1,0,1.7,0.3,2,1.2v-1.2H1590.3z M1586.6,429.4c0.9,0,1.2-0.3,1.2-1.3v-10.6c0-1-0.4-1.3-1.2-1.3h-1.4c-0.9,0-1.1,0.2-1.1,1.1
		v11c0,0.9,0.2,1.1,1.1,1.1H1586.6z"/>
	<path class="st35" d="M1599.3,414.1v2.2h-1.1c-1.6,0-2.3,0.9-2.3,2.7v12.6h-2.5v-17.5h2.5v2c0.3-1,1.2-2,2.6-2H1599.3z"/>
	<path class="st35" d="M1609.7,407.4v24.1h-2.5v-1.2c-0.3,0.9-1,1.2-2,1.2h-1.4c-1.9,0-2.8-0.9-2.8-2.8v-11.8c0-1.9,0.9-2.8,2.8-2.8
		h1.4c1,0,1.7,0.3,2,1.2v-7.8H1609.7z M1606,429.4c0.9,0,1.2-0.3,1.2-1.3v-10.7c0-1-0.4-1.3-1.2-1.3h-1.4c-0.9,0-1.1,0.2-1.1,1.1v11
		c0,0.9,0.2,1.1,1.1,1.1H1606z"/>
	<path class="st35" d="M1620.3,416.2v11.9c0,0.9,0.2,1.1,1.1,1.1h1.4v2.3h-2.1c-1.9,0-2.8-0.9-2.8-2.8v-12.5h-1.6v-2.1h1.6v-2.8h2.5
		v2.8h2.5v2.1H1620.3z"/>
	<path class="st35" d="M1630.6,414.1c1.9,0,2.8,0.9,2.8,2.8v14.6h-2.5v-14.2c0-0.9-0.2-1.1-1.1-1.1h-1.4c-0.9,0-1.2,0.3-1.2,1.3v14
		h-2.5v-24.1h2.5v7.8c0.3-0.9,1-1.2,2-1.2H1630.6z"/>
	<path class="st35" d="M1642.9,414.1c1.9,0,2.8,0.9,2.8,2.8v6.7h-6.5v4.6c0,0.9,0.2,1.1,1.1,1.1h1.7c0.9,0,1.1-0.2,1.1-1.1v-1.6h2.5
		v2c0,1.9-0.9,2.8-2.8,2.8h-3.2c-1.9,0-2.8-0.9-2.8-2.8v-11.8c0-1.9,0.9-2.8,2.8-2.8H1642.9z M1643.2,421.5v-4.2
		c0-0.9-0.2-1.1-1.1-1.1h-1.8c-0.9,0-1.1,0.2-1.1,1.1v4.2H1643.2z"/>
	<path class="st35" d="M1658.6,425c0-0.9-0.2-1.1-1.1-1.1h-1.8c-1.9,0-2.8-0.9-2.8-2.8v-4.1c0-1.9,0.9-2.8,2.8-2.8h2.4
		c1.9,0,2.8,0.9,2.8,2.8v1.8h-2.4v-1.4c0-0.9-0.2-1.1-1.1-1.1h-1c-0.9,0-1.1,0.2-1.1,1.1v3.4c0,0.9,0.2,1.1,1.1,1.1h1.8
		c1.9,0,2.8,0.9,2.8,2.8v4c0,1.9-0.9,2.8-2.8,2.8h-2.4c-1.9,0-2.8-0.9-2.8-2.8v-1.8h2.4v1.4c0,0.9,0.2,1.1,1.1,1.1h1
		c0.9,0,1.1-0.2,1.1-1.1V425z"/>
	<path class="st35" d="M1669.9,414.1c1.9,0,2.8,0.9,2.8,2.8v14.6h-2.5v-14.2c0-0.9-0.2-1.1-1.1-1.1h-1.4c-0.9,0-1.2,0.3-1.2,1.3v14
		h-2.5v-24.1h2.5v7.8c0.3-0.9,1-1.2,2-1.2H1669.9z"/>
	<path class="st35" d="M1675.9,407.4h2.6v2.9h-2.6V407.4z M1676,431.5v-17.5h2.5v17.5H1676z"/>
	<path class="st35" d="M1687.6,414.1c1.9,0,2.8,0.9,2.8,2.8v11.8c0,1.9-0.9,2.8-2.8,2.8h-1.4c-1,0-1.7-0.3-2-1.2v6.3h-2.5v-22.5h2.5
		v1.2c0.3-0.9,1-1.2,2-1.2H1687.6z M1687.9,417.3c0-0.9-0.2-1.1-1.1-1.1h-1.4c-0.9,0-1.2,0.3-1.2,1.3v10.6c0,1,0.4,1.3,1.2,1.3h1.4
		c0.9,0,1.1-0.2,1.1-1.1V417.3z"/>
	<path class="st35" d="M1692.9,427.5h3v4h-3V427.5z"/>
</g>
</svg>
