<?xml version="1.0" encoding="utf-8"?>
<!-- Generator: Adobe Illustrator 27.3.1, SVG Export Plug-In . SVG Version: 6.00 Build 0)  -->
<svg version="1.1" id="Layer_1" xmlns="http://www.w3.org/2000/svg" xmlns:xlink="http://www.w3.org/1999/xlink" x="0px" y="0px"
	 viewBox="0 0 1980 144" style="enable-background:new 0 0 1980 144;" xml:space="preserve">
<style type="text/css">
	.st0{fill:#142728;}
	.st1{fill:#E5E5E4;}
</style>
<rect class="st0" width="1980" height="144"/>
<g>
	<path class="st1" d="M1306.34,100.63"/>
	<g>
		<path class="st1" d="M1306.34,103.13c3.22,0,3.22-5,0-5C1303.12,98.13,1303.12,103.13,1306.34,103.13L1306.34,103.13z"/>
	</g>
</g>
<g>
	<path class="st1" d="M775.86,119.01"/>
	<g>
		<path class="st1" d="M775.86,121.51c3.22,0,3.22-5,0-5C772.65,116.51,772.64,121.51,775.86,121.51L775.86,121.51z"/>
	</g>
</g>
<g>
	<path class="st1" d="M453.79,128.2"/>
	<g>
		<path class="st1" d="M453.79,130.7c3.22,0,3.22-5,0-5C450.57,125.7,450.56,130.7,453.79,130.7L453.79,130.7z"/>
	</g>
</g>
<g>
	<path class="st1" d="M1571.58,69.99"/>
	<g>
		<path class="st1" d="M1571.58,72.49c3.22,0,3.22-5,0-5C1568.36,67.49,1568.36,72.49,1571.58,72.49L1571.58,72.49z"/>
	</g>
</g>
<g>
	<path class="st1" d="M1371.07,33.22"/>
	<g>
		<path class="st1" d="M1371.07,35.72c3.22,0,3.22-5,0-5C1367.85,30.72,1367.85,35.72,1371.07,35.72L1371.07,35.72z"/>
	</g>
</g>
<g>
	<path class="st1" d="M1205.03,115.69"/>
	<g>
		<path class="st1" d="M1205.03,118.19c3.22,0,3.22-5,0-5C1201.82,113.19,1201.81,118.19,1205.03,118.19L1205.03,118.19z"/>
	</g>
</g>
<g>
	<path class="st1" d="M927.95,46.76"/>
	<g>
		<path class="st1" d="M927.95,49.26c3.22,0,3.22-5,0-5C924.74,44.26,924.73,49.26,927.95,49.26L927.95,49.26z"/>
	</g>
</g>
<g>
	<path class="st1" d="M567.46,30.16"/>
	<g>
		<path class="st1" d="M567.46,32.66c3.22,0,3.22-5,0-5C564.24,27.66,564.24,32.66,567.46,32.66L567.46,32.66z"/>
	</g>
</g>
<g>
	<path class="st1" d="M49.61,97.56"/>
	<g>
		<path class="st1" d="M49.61,100.06c3.22,0,3.22-5,0-5C46.4,95.06,46.39,100.06,49.61,100.06L49.61,100.06z"/>
	</g>
</g>
<g>
	<path class="st1" d="M962.16,102.24"/>
	<g>
		<path class="st1" d="M962.16,104.74c3.22,0,3.22-5,0-5C958.94,99.74,958.94,104.74,962.16,104.74L962.16,104.74z"/>
	</g>
</g>
<g>
	<path class="st1" d="M1130.83,27.61"/>
	<g>
		<path class="st1" d="M1130.83,30.11c3.22,0,3.22-5,0-5C1127.61,25.11,1127.61,30.11,1130.83,30.11L1130.83,30.11z"/>
	</g>
</g>
<g>
	<path class="st1" d="M777.18,27.61"/>
	<g>
		<path class="st1" d="M777.18,30.11c3.22,0,3.22-5,0-5C773.96,25.11,773.96,30.11,777.18,30.11L777.18,30.11z"/>
	</g>
</g>
<g>
	<path class="st1" d="M1958.03,27.1"/>
	<g>
		<path class="st1" d="M1958.03,29.6c3.22,0,3.22-5,0-5C1954.81,24.6,1954.81,29.6,1958.03,29.6L1958.03,29.6z"/>
	</g>
</g>
<g>
	<path class="st1" d="M1706.52,101.44"/>
	<g>
		<path class="st1" d="M1706.52,103.94c3.22,0,3.22-5,0-5C1703.31,98.94,1703.3,103.94,1706.52,103.94L1706.52,103.94z"/>
	</g>
</g>
<g>
	<path class="st1" d="M1658.15,31.44"/>
	<g>
		<path class="st1" d="M1658.15,33.94c3.22,0,3.22-5,0-5C1654.93,28.94,1654.93,33.94,1658.15,33.94L1658.15,33.94z"/>
	</g>
</g>
<g>
	<path class="st1" d="M1837.34,101.14"/>
	<g>
		<path class="st1" d="M1837.34,103.64c3.22,0,3.22-5,0-5C1834.13,98.64,1834.12,103.64,1837.34,103.64L1837.34,103.64z"/>
	</g>
</g>
<g>
	<path class="st1" d="M1876.81,61.31"/>
	<g>
		<path class="st1" d="M1876.81,63.81c3.22,0,3.22-5,0-5C1873.6,58.81,1873.59,63.81,1876.81,63.81L1876.81,63.81z"/>
	</g>
</g>
<g>
	<path class="st1" d="M1625.79,122.59"/>
	<g>
		<path class="st1" d="M1625.79,125.09c3.22,0,3.22-5,0-5C1622.57,120.09,1622.56,125.09,1625.79,125.09L1625.79,125.09z"/>
	</g>
</g>
<g>
	<path class="st1" d="M1430.01,96.54"/>
	<g>
		<path class="st1" d="M1430.01,99.04c3.22,0,3.22-5,0-5C1426.8,94.04,1426.79,99.04,1430.01,99.04L1430.01,99.04z"/>
	</g>
</g>
<g>
	<path class="st1" d="M1276.87,52.12"/>
	<g>
		<path class="st1" d="M1276.87,54.62c3.22,0,3.22-5,0-5C1273.65,49.62,1273.65,54.62,1276.87,54.62L1276.87,54.62z"/>
	</g>
</g>
<g>
	<path class="st1" d="M484.31,58.24"/>
	<g>
		<path class="st1" d="M484.31,60.74c3.22,0,3.22-5,0-5C481.09,55.74,481.09,60.74,484.31,60.74L484.31,60.74z"/>
	</g>
</g>
</svg>
