<?xml version="1.0" encoding="utf-8"?>
<!-- Generator: Adobe Illustrator 27.3.1, SVG Export Plug-In . SVG Version: 6.00 Build 0)  -->
<svg version="1.1" id="Layer_1" xmlns="http://www.w3.org/2000/svg" xmlns:xlink="http://www.w3.org/1999/xlink" x="0px" y="0px"
	 viewBox="0 0 1512 576" style="enable-background:new 0 0 1512 576;" xml:space="preserve">
<style type="text/css">
	.st0{fill:#142728;}
	.st1{fill:#E5E5E4;}
	.st2{fill:#FFF1E7;}
	.st3{fill:none;stroke:#070909;stroke-width:5;stroke-miterlimit:10;}
	.st4{fill:#EDDFD9;stroke:#CEBBB3;stroke-width:3;stroke-miterlimit:10;}
	.st5{fill:none;stroke:#CEBBB3;stroke-width:3;stroke-miterlimit:10;}
	.st6{fill:#CEBBB3;stroke:#AB9C96;stroke-width:3;stroke-miterlimit:10;}
</style>
<path class="st0" d="M1495.2,570.35H17.59c-7.55,0-13.67-6.12-13.67-13.67V22.7c0-7.55,6.12-13.67,13.67-13.67H1495.2
	c7.55,0,13.67,6.12,13.67,13.67v533.98C1508.87,564.23,1502.75,570.35,1495.2,570.35z"/>
<g>
	<path class="st1" d="M313.8,191.47"/>
	<g>
		<path class="st1" d="M313.8,193.97c3.22,0,3.22-5,0-5C310.58,188.97,310.58,193.97,313.8,193.97L313.8,193.97z"/>
	</g>
</g>
<g>
	<path class="st1" d="M376.92,464.15"/>
	<g>
		<path class="st1" d="M376.92,466.65c3.22,0,3.22-5,0-5C373.7,461.65,373.7,466.65,376.92,466.65L376.92,466.65z"/>
	</g>
</g>
<g>
	<path class="st1" d="M414.79,568.32"/>
	<g>
		<path class="st1" d="M414.79,570.82c3.22,0,3.22-5,0-5C411.57,565.82,411.57,570.82,414.79,570.82L414.79,570.82z"/>
	</g>
</g>
<g>
	<path class="st1" d="M421.1,329.35"/>
	<g>
		<path class="st1" d="M421.1,331.85c3.22,0,3.22-5,0-5C417.88,326.85,417.88,331.85,421.1,331.85L421.1,331.85z"/>
	</g>
</g>
<g>
	<path class="st1" d="M446.35,151.64"/>
	<g>
		<path class="st1" d="M446.35,154.14c3.22,0,3.22-5,0-5C443.13,149.14,443.13,154.14,446.35,154.14L446.35,154.14z"/>
	</g>
</g>
<g>
	<path class="st1" d="M1459.64,233.87"/>
	<g>
		<path class="st1" d="M1459.64,236.37c3.22,0,3.22-5,0-5C1456.42,231.37,1456.42,236.37,1459.64,236.37L1459.64,236.37z"/>
	</g>
</g>
<g>
	<path class="st1" d="M1508.47,151.43"/>
	<g>
		<path class="st1" d="M1508.47,153.93c3.22,0,3.22-5,0-5C1505.26,148.93,1505.25,153.93,1508.47,153.93L1508.47,153.93z"/>
	</g>
</g>
<g>
	<path class="st1" d="M348.52,170.03"/>
	<g>
		<path class="st1" d="M348.52,172.53c3.22,0,3.22-5,0-5C345.3,167.53,345.29,172.53,348.52,172.53L348.52,172.53z"/>
	</g>
</g>
<g>
	<path class="st1" d="M1432.79,165.94"/>
	<g>
		<path class="st1" d="M1432.79,168.44c3.22,0,3.22-5,0-5C1429.57,163.44,1429.57,168.44,1432.79,168.44L1432.79,168.44z"/>
	</g>
</g>
<g>
	<path class="st1" d="M397.43,209.86"/>
	<g>
		<path class="st1" d="M397.43,212.36c3.22,0,3.22-5,0-5C394.22,207.36,394.21,212.36,397.43,212.36L397.43,212.36z"/>
	</g>
</g>
<g>
	<path class="st1" d="M482.29,10.71"/>
	<g>
		<path class="st1" d="M482.29,13.21c3.22,0,3.22-5,0-5C479.07,8.21,479.06,13.21,482.29,13.21L482.29,13.21z"/>
	</g>
</g>
<g>
	<path class="st1" d="M353.78,394.2"/>
	<g>
		<path class="st1" d="M353.78,396.7c3.22,0,3.22-5,0-5C350.56,391.7,350.55,396.7,353.78,396.7L353.78,396.7z"/>
	</g>
</g>
<g>
	<path class="st1" d="M497.02,389.6"/>
	<g>
		<path class="st1" d="M497.02,392.1c3.22,0,3.22-5,0-5C493.81,387.1,493.8,392.1,497.02,392.1L497.02,392.1z"/>
	</g>
</g>
<g>
	<path class="st1" d="M429.52,498.37"/>
	<g>
		<path class="st1" d="M429.52,500.87c3.22,0,3.22-5,0-5C426.3,495.87,426.3,500.87,429.52,500.87L429.52,500.87z"/>
	</g>
</g>
<g>
	<path class="st1" d="M481.23,507.56"/>
	<g>
		<path class="st1" d="M481.23,510.06c3.22,0,3.22-5,0-5C478.02,505.06,478.01,510.06,481.23,510.06L481.23,510.06z"/>
	</g>
</g>
<g>
	<path class="st1" d="M448.45,377.35"/>
	<g>
		<path class="st1" d="M448.45,379.85c3.22,0,3.22-5,0-5C445.24,374.85,445.23,379.85,448.45,379.85L448.45,379.85z"/>
	</g>
</g>
<g>
	<path class="st1" d="M473.34,291.56"/>
	<g>
		<path class="st1" d="M473.34,294.06c3.22,0,3.22-5,0-5C470.12,289.06,470.12,294.06,473.34,294.06L473.34,294.06z"/>
	</g>
</g>
<g>
	<path class="st1" d="M459.13,181.26"/>
	<g>
		<path class="st1" d="M459.13,183.76c3.22,0,3.22-5,0-5C455.91,178.76,455.9,183.76,459.13,183.76L459.13,183.76z"/>
	</g>
</g>
<g>
	<path class="st1" d="M361.66,84.75"/>
	<g>
		<path class="st1" d="M361.66,87.25c3.22,0,3.22-5,0-5C358.45,82.25,358.44,87.25,361.66,87.25L361.66,87.25z"/>
	</g>
</g>
<g>
	<path class="st1" d="M401.11,44.92"/>
	<g>
		<path class="st1" d="M401.11,47.42c3.22,0,3.22-5,0-5C397.9,42.42,397.89,47.42,401.11,47.42L401.11,47.42z"/>
	</g>
</g>
<g>
	<path class="st1" d="M486.06,127.18"/>
	<g>
		<path class="st1" d="M486.06,129.68c3.22,0,3.22-5,0-5C482.84,124.68,482.83,129.68,486.06,129.68L486.06,129.68z"/>
	</g>
</g>
<g>
	<path class="st1" d="M456.34,147.56"/>
	<g>
		<path class="st1" d="M456.34,150.06c3.22,0,3.22-5,0-5C453.13,145.06,453.12,150.06,456.34,150.06L456.34,150.06z"/>
	</g>
</g>
<g>
	<path class="st1" d="M339.57,573.43"/>
	<g>
		<path class="st1" d="M339.57,575.93c3.22,0,3.22-5,0-5C336.36,570.93,336.35,575.93,339.57,575.93L339.57,575.93z"/>
	</g>
</g>
<g>
	<path class="st1" d="M1383.8,106.57"/>
	<g>
		<path class="st1" d="M1383.8,109.07c3.22,0,3.22-5,0-5C1380.58,104.07,1380.58,109.07,1383.8,109.07L1383.8,109.07z"/>
	</g>
</g>
<g>
	<path class="st1" d="M787.41,58.95"/>
	<g>
		<path class="st1" d="M787.41,61.45c3.22,0,3.22-5,0-5C784.19,56.45,784.19,61.45,787.41,61.45L787.41,61.45z"/>
	</g>
</g>
<g>
	<path class="st1" d="M901.02,233.59"/>
	<g>
		<path class="st1" d="M901.02,236.09c3.22,0,3.22-5,0-5C897.81,231.09,897.8,236.09,901.02,236.09L901.02,236.09z"/>
	</g>
</g>
<g>
	<path class="st1" d="M1080.91,337.76"/>
	<g>
		<path class="st1" d="M1080.91,340.26c3.22,0,3.22-5,0-5C1077.69,335.26,1077.69,340.26,1080.91,340.26L1080.91,340.26z"/>
	</g>
</g>
<g>
	<path class="st1" d="M1103,126.36"/>
	<g>
		<path class="st1" d="M1103,128.86c3.22,0,3.22-5,0-5C1099.79,123.86,1099.78,128.86,1103,128.86L1103,128.86z"/>
	</g>
</g>
<g>
	<path class="st1" d="M1185.06,343.89"/>
	<g>
		<path class="st1" d="M1185.06,346.39c3.22,0,3.22-5,0-5C1181.84,341.39,1181.84,346.39,1185.06,346.39L1185.06,346.39z"/>
	</g>
</g>
<g>
	<path class="st1" d="M809.5,392.91"/>
	<g>
		<path class="st1" d="M809.5,395.41c3.22,0,3.22-5,0-5C806.28,390.41,806.28,395.41,809.5,395.41L809.5,395.41z"/>
	</g>
</g>
<g>
	<path class="st1" d="M1077.76,558.36"/>
	<g>
		<path class="st1" d="M1077.76,560.86c3.22,0,3.22-5,0-5C1074.54,555.86,1074.53,560.86,1077.76,560.86L1077.76,560.86z"/>
	</g>
</g>
<g>
	<path class="st1" d="M1510.12,291.81"/>
	<g>
		<path class="st1" d="M1510.12,294.31c3.22,0,3.22-5,0-5C1506.9,289.31,1506.9,294.31,1510.12,294.31L1510.12,294.31z"/>
	</g>
</g>
<g>
	<path class="st1" d="M1500.65,135.55"/>
	<g>
		<path class="st1" d="M1500.65,138.05c3.22,0,3.22-5,0-5C1497.44,133.05,1497.43,138.05,1500.65,138.05L1500.65,138.05z"/>
	</g>
</g>
<g>
	<path class="st1" d="M1387.04,239.72"/>
	<g>
		<path class="st1" d="M1387.04,242.22c3.22,0,3.22-5,0-5C1383.82,237.22,1383.82,242.22,1387.04,242.22L1387.04,242.22z"/>
	</g>
</g>
<g>
	<path class="st1" d="M1140.87,245.85"/>
	<g>
		<path class="st1" d="M1140.87,248.35c3.22,0,3.22-5,0-5C1137.66,243.35,1137.65,248.35,1140.87,248.35L1140.87,248.35z"/>
	</g>
</g>
<g>
	<path class="st1" d="M721.13,307.12"/>
	<g>
		<path class="st1" d="M721.13,309.62c3.22,0,3.22-5,0-5C717.92,304.62,717.91,309.62,721.13,309.62L721.13,309.62z"/>
	</g>
</g>
<g>
	<path class="st1" d="M695.89,506.27"/>
	<g>
		<path class="st1" d="M695.89,508.77c3.22,0,3.22-5,0-5C692.67,503.77,692.66,508.77,695.89,508.77L695.89,508.77z"/>
	</g>
</g>
<g>
	<path class="st1" d="M534.93,71.21"/>
	<g>
		<path class="st1" d="M534.93,73.71c3.22,0,3.22-5,0-5C531.72,68.71,531.71,73.71,534.93,73.71L534.93,73.71z"/>
	</g>
</g>
<g>
	<path class="st1" d="M200.4,123.3"/>
	<g>
		<path class="st1" d="M200.4,125.8c3.22,0,3.22-5,0-5C197.19,120.8,197.18,125.8,200.4,125.8L200.4,125.8z"/>
	</g>
</g>
<g>
	<path class="st1" d="M617.83,47.05"/>
	<g>
		<path class="st1" d="M617.83,49.55c3.22,0,3.22-5,0-5C614.61,44.55,614.6,49.55,617.83,49.55L617.83,49.55z"/>
	</g>
</g>
<g>
	<path class="st1" d="M54.21,106.54"/>
	<g>
		<path class="st1" d="M54.21,109.04c3.22,0,3.22-5,0-5C51,104.04,50.99,109.04,54.21,109.04L54.21,109.04z"/>
	</g>
</g>
<g>
	<path class="st1" d="M645.39,285.68"/>
	<g>
		<path class="st1" d="M645.39,288.18c3.22,0,3.22-5,0-5C642.17,283.18,642.17,288.18,645.39,288.18L645.39,288.18z"/>
	</g>
</g>
<g>
	<path class="st1" d="M1058.82,6.87"/>
	<g>
		<path class="st1" d="M1058.82,9.37c3.22,0,3.22-5,0-5C1055.6,4.37,1055.6,9.37,1058.82,9.37L1058.82,9.37z"/>
	</g>
</g>
<g>
	<path class="st1" d="M528.62,25.25"/>
	<g>
		<path class="st1" d="M528.62,27.75c3.22,0,3.22-5,0-5C525.4,22.75,525.4,27.75,528.62,27.75L528.62,27.75z"/>
	</g>
</g>
<g>
	<path class="st1" d="M206.71,34.44"/>
	<g>
		<path class="st1" d="M206.71,36.94c3.22,0,3.22-5,0-5C203.5,31.94,203.49,36.94,206.71,36.94L206.71,36.94z"/>
	</g>
</g>
<g>
	<path class="st1" d="M11.05,55.89"/>
	<g>
		<path class="st1" d="M11.05,58.39c3.22,0,3.22-5,0-5C7.83,53.39,7.82,58.39,11.05,58.39L11.05,58.39z"/>
	</g>
</g>
<g>
	<path class="st1" d="M614.42,205.9"/>
	<g>
		<path class="st1" d="M614.42,208.4c3.22,0,3.22-5,0-5C611.21,203.4,611.2,208.4,614.42,208.4L614.42,208.4z"/>
	</g>
</g>
<g>
	<path class="st1" d="M714.82,196.83"/>
	<g>
		<path class="st1" d="M714.82,199.33c3.22,0,3.22-5,0-5C711.6,194.33,711.6,199.33,714.82,199.33L714.82,199.33z"/>
	</g>
</g>
<g>
	<path class="st1" d="M904.18,107.98"/>
	<g>
		<path class="st1" d="M904.18,110.48c3.22,0,3.22-5,0-5C900.96,105.48,900.96,110.48,904.18,110.48L904.18,110.48z"/>
	</g>
</g>
<g>
	<path class="st1" d="M1036.73,218.27"/>
	<g>
		<path class="st1" d="M1036.73,220.77c3.22,0,3.22-5,0-5C1033.51,215.77,1033.51,220.77,1036.73,220.77L1036.73,220.77z"/>
	</g>
</g>
<g>
	<path class="st1" d="M651.7,411.3"/>
	<g>
		<path class="st1" d="M651.7,413.8c3.22,0,3.22-5,0-5C648.49,408.8,648.48,413.8,651.7,413.8L651.7,413.8z"/>
	</g>
</g>
<g>
	<path class="st1" d="M1393.35,527.72"/>
	<g>
		<path class="st1" d="M1393.35,530.22c3.22,0,3.22-5,0-5C1390.13,525.22,1390.13,530.22,1393.35,530.22L1393.35,530.22z"/>
	</g>
</g>
<g>
	<path class="st1" d="M1276.58,68.15"/>
	<g>
		<path class="st1" d="M1276.58,70.65c3.22,0,3.22-5,0-5C1273.36,65.65,1273.36,70.65,1276.58,70.65L1276.58,70.65z"/>
	</g>
</g>
<g>
	<path class="st1" d="M1393.35,83.47"/>
	<g>
		<path class="st1" d="M1393.35,85.97c3.22,0,3.22-5,0-5C1390.13,80.97,1390.13,85.97,1393.35,85.97L1393.35,85.97z"/>
	</g>
</g>
<g>
	<path class="st1" d="M1226.09,160.06"/>
	<g>
		<path class="st1" d="M1226.09,162.56c3.22,0,3.22-5,0-5C1222.87,157.56,1222.86,162.56,1226.09,162.56L1226.09,162.56z"/>
	</g>
</g>
<g>
	<path class="st1" d="M957.57,21.93"/>
	<g>
		<path class="st1" d="M957.57,24.43c3.22,0,3.22-5,0-5C954.35,19.43,954.34,24.43,957.57,24.43L957.57,24.43z"/>
	</g>
</g>
<g>
	<path class="st1" d="M883.94,103.63"/>
	<g>
		<path class="st1" d="M883.94,106.13c3.22,0,3.22-5,0-5C880.72,101.13,880.72,106.13,883.94,106.13L883.94,106.13z"/>
	</g>
</g>
<g>
	<path class="st1" d="M800.87,105.26"/>
	<g>
		<path class="st1" d="M800.87,107.76c3.22,0,3.22-5,0-5C797.65,102.76,797.65,107.76,800.87,107.76L800.87,107.76z"/>
	</g>
</g>
<g>
	<path class="st1" d="M1058.82,497.08"/>
	<g>
		<path class="st1" d="M1058.82,499.58c3.22,0,3.22-5,0-5C1055.6,494.58,1055.6,499.58,1058.82,499.58L1058.82,499.58z"/>
	</g>
</g>
<g>
	<path class="st1" d="M749.54,518.53"/>
	<g>
		<path class="st1" d="M749.54,521.03c3.22,0,3.22-5,0-5C746.32,516.03,746.31,521.03,749.54,521.03L749.54,521.03z"/>
	</g>
</g>
<g>
	<path class="st1" d="M774.78,368.4"/>
	<g>
		<path class="st1" d="M774.78,370.9c3.22,0,3.22-5,0-5C771.57,365.9,771.56,370.9,774.78,370.9L774.78,370.9z"/>
	</g>
</g>
<g>
	<path class="st1" d="M853.68,166.19"/>
	<g>
		<path class="st1" d="M853.68,168.69c3.22,0,3.22-5,0-5C850.47,163.69,850.46,168.69,853.68,168.69L853.68,168.69z"/>
	</g>
</g>
<g>
	<path class="st1" d="M718.82,4.15"/>
	<g>
		<path class="st1" d="M718.82,6.65c3.22,0,3.22-5,0-5C715.6,1.65,715.59,6.65,718.82,6.65L718.82,6.65z"/>
	</g>
</g>
<g>
	<path class="st1" d="M709.1,218.16"/>
	<g>
		<path class="st1" d="M709.1,220.66c3.22,0,3.22-5,0-5C705.88,215.66,705.88,220.66,709.1,220.66L709.1,220.66z"/>
	</g>
</g>
<g>
	<path class="st1" d="M554.46,270.24"/>
	<g>
		<path class="st1" d="M554.46,272.74c3.22,0,3.22-5,0-5C551.24,267.74,551.24,272.74,554.46,272.74L554.46,272.74z"/>
	</g>
</g>
<g>
	<path class="st1" d="M560.77,153.82"/>
	<g>
		<path class="st1" d="M560.77,156.32c3.22,0,3.22-5,0-5C557.56,151.32,557.55,156.32,560.77,156.32L560.77,156.32z"/>
	</g>
</g>
<g>
	<path class="st1" d="M364.51,43.64"/>
	<g>
		<path class="st1" d="M364.51,46.14c3.22,0,3.22-5,0-5C361.29,41.14,361.29,46.14,364.51,46.14L364.51,46.14z"/>
	</g>
</g>
<g>
	<path class="st1" d="M130.97,86.53"/>
	<g>
		<path class="st1" d="M130.97,89.03c3.22,0,3.22-5,0-5C127.75,84.03,127.75,89.03,130.97,89.03L130.97,89.03z"/>
	</g>
</g>
<g>
	<path class="st1" d="M219.34,248.91"/>
	<g>
		<path class="st1" d="M219.34,251.41c3.22,0,3.22-5,0-5C216.12,246.41,216.12,251.41,219.34,251.41L219.34,251.41z"/>
	</g>
</g>
<g>
	<path class="st1" d="M59.47,207.65"/>
	<g>
		<path class="st1" d="M59.47,210.15c3.22,0,3.22-5,0-5C56.26,205.15,56.25,210.15,59.47,210.15L59.47,210.15z"/>
	</g>
</g>
<g>
	<path class="st1" d="M213.03,380.66"/>
	<g>
		<path class="st1" d="M213.03,383.16c3.22,0,3.22-5,0-5C209.81,378.16,209.8,383.16,213.03,383.16L213.03,383.16z"/>
	</g>
</g>
<g>
	<path class="st1" d="M784.25,331.64"/>
	<g>
		<path class="st1" d="M784.25,334.14c3.22,0,3.22-5,0-5C781.04,329.14,781.03,334.14,784.25,334.14L784.25,334.14z"/>
	</g>
</g>
<g>
	<path class="st1" d="M702.2,558.36"/>
	<g>
		<path class="st1" d="M702.2,560.86c3.22,0,3.22-5,0-5C698.98,555.86,698.98,560.86,702.2,560.86L702.2,560.86z"/>
	</g>
</g>
<g>
	<path class="st1" d="M326.64,337.76"/>
	<g>
		<path class="st1" d="M326.64,340.26c3.22,0,3.22-5,0-5C323.42,335.26,323.42,340.26,326.64,340.26L326.64,340.26z"/>
	</g>
</g>
<g>
	<path class="st1" d="M497.06,356.15"/>
	<g>
		<path class="st1" d="M497.06,358.65c3.22,0,3.22-5,0-5C493.84,353.65,493.84,358.65,497.06,358.65L497.06,358.65z"/>
	</g>
</g>
<g>
	<path class="st1" d="M323.48,261.17"/>
	<g>
		<path class="st1" d="M323.48,263.67c3.22,0,3.22-5,0-5C320.27,258.67,320.26,263.67,323.48,263.67L323.48,263.67z"/>
	</g>
</g>
<g>
	<path class="st1" d="M175.15,310.19"/>
	<g>
		<path class="st1" d="M175.15,312.69c3.22,0,3.22-5,0-5C171.94,307.69,171.93,312.69,175.15,312.69L175.15,312.69z"/>
	</g>
</g>
<g>
	<path class="st1" d="M99.41,239.72"/>
	<g>
		<path class="st1" d="M99.41,242.22c3.22,0,3.22-5,0-5C96.19,237.22,96.19,242.22,99.41,242.22L99.41,242.22z"/>
	</g>
</g>
<g>
	<path class="st1" d="M165.69,236.66"/>
	<g>
		<path class="st1" d="M165.69,239.16c3.22,0,3.22-5,0-5C162.47,234.16,162.46,239.16,165.69,239.16L165.69,239.16z"/>
	</g>
</g>
<g>
	<path class="st1" d="M272.99,132.49"/>
	<g>
		<path class="st1" d="M272.99,134.99c3.22,0,3.22-5,0-5C269.77,129.99,269.77,134.99,272.99,134.99L272.99,134.99z"/>
	</g>
</g>
<g>
	<path class="st1" d="M661.17,187.64"/>
	<g>
		<path class="st1" d="M661.17,190.14c3.22,0,3.22-5,0-5C657.95,185.14,657.95,190.14,661.17,190.14L661.17,190.14z"/>
	</g>
</g>
<g>
	<path class="st1" d="M449.72,74.27"/>
	<g>
		<path class="st1" d="M449.72,76.77c3.22,0,3.22-5,0-5C446.51,71.77,446.5,76.77,449.72,76.77L449.72,76.77z"/>
	</g>
</g>
<g>
	<path class="st1" d="M856.84,52.83"/>
	<g>
		<path class="st1" d="M856.84,55.33c3.22,0,3.22-5,0-5C853.62,50.33,853.62,55.33,856.84,55.33L856.84,55.33z"/>
	</g>
</g>
<g>
	<path class="st1" d="M626.46,123.3"/>
	<g>
		<path class="st1" d="M626.46,125.8c3.22,0,3.22-5,0-5C623.24,120.8,623.23,125.8,626.46,125.8L626.46,125.8z"/>
	</g>
</g>
<g>
	<path class="st1" d="M714.82,8.49"/>
	<g>
		<path class="st1" d="M714.82,10.99c3.22,0,3.22-5,0-5C711.6,5.99,711.6,10.99,714.82,10.99L714.82,10.99z"/>
	</g>
</g>
<g>
	<path class="st1" d="M983.08,144.74"/>
	<g>
		<path class="st1" d="M983.08,147.24c3.22,0,3.22-5,0-5C979.86,142.24,979.85,147.24,983.08,147.24L983.08,147.24z"/>
	</g>
</g>
<g>
	<path class="st1" d="M897.87,313.25"/>
	<g>
		<path class="st1" d="M897.87,315.75c3.22,0,3.22-5,0-5C894.65,310.75,894.64,315.75,897.87,315.75L897.87,315.75z"/>
	</g>
</g>
<g>
	<path class="st1" d="M781.1,264.23"/>
	<g>
		<path class="st1" d="M781.1,266.73c3.22,0,3.22-5,0-5C777.88,261.73,777.87,266.73,781.1,266.73L781.1,266.73z"/>
	</g>
</g>
<g>
	<path class="st1" d="M1090.38,239.72"/>
	<g>
		<path class="st1" d="M1090.38,242.22c3.22,0,3.22-5,0-5C1087.16,237.22,1087.16,242.22,1090.38,242.22L1090.38,242.22z"/>
	</g>
</g>
<g>
	<path class="st1" d="M1027.26,463.38"/>
	<g>
		<path class="st1" d="M1027.26,465.88c3.22,0,3.22-5,0-5C1024.04,460.88,1024.04,465.88,1027.26,465.88L1027.26,465.88z"/>
	</g>
</g>
<g>
	<path class="st1" d="M1175.59,533.85"/>
	<g>
		<path class="st1" d="M1175.59,536.35c3.22,0,3.22-5,0-5C1172.37,531.35,1172.37,536.35,1175.59,536.35L1175.59,536.35z"/>
	</g>
</g>
<g>
	<path class="st1" d="M1140.87,392.91"/>
	<g>
		<path class="st1" d="M1140.87,395.41c3.22,0,3.22-5,0-5C1137.66,390.41,1137.65,395.41,1140.87,395.41L1140.87,395.41z"/>
	</g>
</g>
<g>
	<path class="st1" d="M1080.91,426.61"/>
	<g>
		<path class="st1" d="M1080.91,429.11c3.22,0,3.22-5,0-5C1077.69,424.11,1077.69,429.11,1080.91,429.11L1080.91,429.11z"/>
	</g>
</g>
<g>
	<path class="st1" d="M837.9,359.21"/>
	<g>
		<path class="st1" d="M837.9,361.71c3.22,0,3.22-5,0-5C834.69,356.71,834.68,361.71,837.9,361.71L837.9,361.71z"/>
	</g>
</g>
<g>
	<path class="st1" d="M888.4,423.55"/>
	<g>
		<path class="st1" d="M888.4,426.05c3.22,0,3.22-5,0-5C885.18,421.05,885.18,426.05,888.4,426.05L888.4,426.05z"/>
	</g>
</g>
<g>
	<path class="st1" d="M702.2,408.23"/>
	<g>
		<path class="st1" d="M702.2,410.73c3.22,0,3.22-5,0-5C698.98,405.73,698.98,410.73,702.2,410.73L702.2,410.73z"/>
	</g>
</g>
<g>
	<path class="st1" d="M777.94,451.12"/>
	<g>
		<path class="st1" d="M777.94,453.62c3.22,0,3.22-5,0-5C774.72,448.62,774.72,453.62,777.94,453.62L777.94,453.62z"/>
	</g>
</g>
<g>
	<path class="st1" d="M1125.1,86.53"/>
	<g>
		<path class="st1" d="M1125.1,89.03c3.22,0,3.22-5,0-5C1121.88,84.03,1121.87,89.03,1125.1,89.03L1125.1,89.03z"/>
	</g>
</g>
<g>
	<path class="st1" d="M1055.66,301"/>
	<g>
		<path class="st1" d="M1055.66,303.5c3.22,0,3.22-5,0-5C1052.45,298.5,1052.44,303.5,1055.66,303.5L1055.66,303.5z"/>
	</g>
</g>
<g>
	<path class="st1" d="M1458.79,7.68"/>
	<g>
		<path class="st1" d="M1458.79,10.18c3.22,0,3.22-5,0-5C1455.58,5.18,1455.57,10.18,1458.79,10.18L1458.79,10.18z"/>
	</g>
</g>
<g>
	<path class="st1" d="M714.36,258.5"/>
	<g>
		<path class="st1" d="M714.36,261c3.22,0,3.22-5,0-5C711.14,256,711.14,261,714.36,261L714.36,261z"/>
	</g>
</g>
<g>
	<path class="st1" d="M207.8,61.1"/>
	<g>
		<path class="st1" d="M207.8,63.6c3.22,0,3.22-5,0-5C204.59,58.6,204.58,63.6,207.8,63.6L207.8,63.6z"/>
	</g>
</g>
<g>
	<path class="st1" d="M145.7,457.76"/>
	<g>
		<path class="st1" d="M145.7,460.26c3.22,0,3.22-5,0-5C142.48,455.26,142.48,460.26,145.7,460.26L145.7,460.26z"/>
	</g>
</g>
<g>
	<path class="st1" d="M110.98,356.66"/>
	<g>
		<path class="st1" d="M110.98,359.16c3.22,0,3.22-5,0-5C107.77,354.16,107.76,359.16,110.98,359.16L110.98,359.16z"/>
	</g>
</g>
<g>
	<path class="st1" d="M9.99,76.32"/>
	<g>
		<path class="st1" d="M9.99,78.82c3.22,0,3.22-5,0-5C6.78,73.82,6.77,78.82,9.99,78.82L9.99,78.82z"/>
	</g>
</g>
<g>
	<path class="st1" d="M522.84,175.89"/>
	<g>
		<path class="st1" d="M522.84,178.39c3.22,0,3.22-5,0-5C519.62,173.39,519.61,178.39,522.84,178.39L522.84,178.39z"/>
	</g>
</g>
<g>
	<path class="st1" d="M521.26,261.68"/>
	<g>
		<path class="st1" d="M521.26,264.18c3.22,0,3.22-5,0-5C518.04,259.18,518.03,264.18,521.26,264.18L521.26,264.18z"/>
	</g>
</g>
<g>
	<path class="st1" d="M459.72,243.3"/>
	<g>
		<path class="st1" d="M459.72,245.8c3.22,0,3.22-5,0-5C456.5,240.8,456.49,245.8,459.72,245.8L459.72,245.8z"/>
	</g>
</g>
<g>
	<path class="st1" d="M379.24,453.17"/>
	<g>
		<path class="st1" d="M379.24,455.67c3.22,0,3.22-5,0-5C376.02,450.67,376.02,455.67,379.24,455.67L379.24,455.67z"/>
	</g>
</g>
<g>
	<path class="st1" d="M551.24,359.72"/>
	<g>
		<path class="st1" d="M551.24,362.22c3.22,0,3.22-5,0-5C548.02,357.22,548.02,362.22,551.24,362.22L551.24,362.22z"/>
	</g>
</g>
<g>
	<path class="st1" d="M503.9,417.93"/>
	<g>
		<path class="st1" d="M503.9,420.43c3.22,0,3.22-5,0-5C500.68,415.43,500.68,420.43,503.9,420.43L503.9,420.43z"/>
	</g>
</g>
<g>
	<path class="st1" d="M86.3,145.35"/>
	<g>
		<path class="st1" d="M86.3,147.85c3.22,0,3.22-5,0-5C83.08,142.85,83.08,147.85,86.3,147.85L86.3,147.85z"/>
	</g>
</g>
<g>
	<path class="st1" d="M711.45,136.41"/>
	<g>
		<path class="st1" d="M711.45,138.91c3.22,0,3.22-5,0-5C708.24,133.91,708.23,138.91,711.45,138.91L711.45,138.91z"/>
	</g>
</g>
<g>
	<path class="st1" d="M711.45,70.53"/>
	<g>
		<path class="st1" d="M711.45,73.03c3.22,0,3.22-5,0-5C708.24,68.03,708.23,73.03,711.45,73.03L711.45,73.03z"/>
	</g>
</g>
<g>
	<path class="st1" d="M1281.84,326.02"/>
	<g>
		<path class="st1" d="M1281.84,328.52c3.22,0,3.22-5,0-5C1278.62,323.52,1278.62,328.52,1281.84,328.52L1281.84,328.52z"/>
	</g>
</g>
<g>
	<path class="st1" d="M1253.44,215.72"/>
	<g>
		<path class="st1" d="M1253.44,218.22c3.22,0,3.22-5,0-5C1250.22,213.22,1250.21,218.22,1253.44,218.22L1253.44,218.22z"/>
	</g>
</g>
<g>
	<path class="st1" d="M1338.65,169.76"/>
	<g>
		<path class="st1" d="M1338.65,172.26c3.22,0,3.22-5,0-5C1335.43,167.26,1335.42,172.26,1338.65,172.26L1338.65,172.26z"/>
	</g>
</g>
<g>
	<path class="st1" d="M1335.49,312.23"/>
	<g>
		<path class="st1" d="M1335.49,314.73c3.22,0,3.22-5,0-5C1332.27,309.73,1332.27,314.73,1335.49,314.73L1335.49,314.73z"/>
	</g>
</g>
<g>
	<path class="st1" d="M1433.33,318.36"/>
	<g>
		<path class="st1" d="M1433.33,320.86c3.22,0,3.22-5,0-5C1430.11,315.86,1430.1,320.86,1433.33,320.86L1433.33,320.86z"/>
	</g>
</g>
<g>
	<path class="st1" d="M1485.4,399.55"/>
	<g>
		<path class="st1" d="M1485.4,402.05c3.22,0,3.22-5,0-5C1482.18,397.05,1482.18,402.05,1485.4,402.05L1485.4,402.05z"/>
	</g>
</g>
<g>
	<path class="st1" d="M1360.74,54.87"/>
	<g>
		<path class="st1" d="M1360.74,57.37c3.22,0,3.22-5,0-5C1357.52,52.37,1357.52,57.37,1360.74,57.37L1360.74,57.37z"/>
	</g>
</g>
<g>
	<path class="st1" d="M1461.73,41.08"/>
	<g>
		<path class="st1" d="M1461.73,43.58c3.22,0,3.22-5,0-5C1458.51,38.58,1458.51,43.58,1461.73,43.58L1461.73,43.58z"/>
	</g>
</g>
<g>
	<path class="st1" d="M1378.1,28.83"/>
	<g>
		<path class="st1" d="M1378.1,31.33c3.22,0,3.22-5,0-5C1374.88,26.33,1374.87,31.33,1378.1,31.33L1378.1,31.33z"/>
	</g>
</g>
<g>
	<path class="st1" d="M1182.43,2.78"/>
	<g>
		<path class="st1" d="M1182.43,5.28c3.22,0,3.22-5,0-5C1179.21,0.28,1179.21,5.28,1182.43,5.28L1182.43,5.28z"/>
	</g>
</g>
<g>
	<path class="st1" d="M1109.84,65.59"/>
	<g>
		<path class="st1" d="M1109.84,68.09c3.22,0,3.22-5,0-5C1106.62,63.09,1106.62,68.09,1109.84,68.09L1109.84,68.09z"/>
	</g>
</g>
<g>
	<path class="st1" d="M1051.46,62.53"/>
	<g>
		<path class="st1" d="M1051.46,65.03c3.22,0,3.22-5,0-5C1048.24,60.03,1048.23,65.03,1051.46,65.03L1051.46,65.03z"/>
	</g>
</g>
<g>
	<path class="st1" d="M988.34,39.55"/>
	<g>
		<path class="st1" d="M988.34,42.05c3.22,0,3.22-5,0-5C985.12,37.05,985.11,42.05,988.34,42.05L988.34,42.05z"/>
	</g>
</g>
<g>
	<path class="st1" d="M1255.01,424.06"/>
	<g>
		<path class="st1" d="M1255.01,426.56c3.22,0,3.22-5,0-5C1251.8,421.56,1251.79,426.56,1255.01,426.56L1255.01,426.56z"/>
	</g>
</g>
<g>
	<path class="st1" d="M1419.12,359.72"/>
	<g>
		<path class="st1" d="M1419.12,362.22c3.22,0,3.22-5,0-5C1415.91,357.22,1415.9,362.22,1419.12,362.22L1419.12,362.22z"/>
	</g>
</g>
<g>
	<path class="st1" d="M1370.21,509.85"/>
	<g>
		<path class="st1" d="M1370.21,512.35c3.22,0,3.22-5,0-5C1366.99,507.35,1366.98,512.35,1370.21,512.35L1370.21,512.35z"/>
	</g>
</g>
<g>
	<path class="st1" d="M1229.77,442.44"/>
	<g>
		<path class="st1" d="M1229.77,444.94c3.22,0,3.22-5,0-5C1226.55,439.94,1226.54,444.94,1229.77,444.94L1229.77,444.94z"/>
	</g>
</g>
<g>
	<path class="st1" d="M1404.92,425.59"/>
	<g>
		<path class="st1" d="M1404.92,428.09c3.22,0,3.22-5,0-5C1401.71,423.09,1401.7,428.09,1404.92,428.09L1404.92,428.09z"/>
	</g>
</g>
<g>
	<path class="st1" d="M1356.01,479.21"/>
	<g>
		<path class="st1" d="M1356.01,481.71c3.22,0,3.22-5,0-5C1352.79,476.71,1352.78,481.71,1356.01,481.71L1356.01,481.71z"/>
	</g>
</g>
<g>
	<path class="st1" d="M1247.12,489.93"/>
	<g>
		<path class="st1" d="M1247.12,492.43c3.22,0,3.22-5,0-5C1243.91,487.43,1243.9,492.43,1247.12,492.43L1247.12,492.43z"/>
	</g>
</g>
<g>
	<path class="st1" d="M1169.8,466.95"/>
	<g>
		<path class="st1" d="M1169.8,469.45c3.22,0,3.22-5,0-5C1166.59,464.45,1166.58,469.45,1169.8,469.45L1169.8,469.45z"/>
	</g>
</g>
<g>
	<path class="st1" d="M1438.06,537.42"/>
	<g>
		<path class="st1" d="M1438.06,539.92c3.22,0,3.22-5,0-5C1434.84,534.92,1434.84,539.92,1438.06,539.92L1438.06,539.92z"/>
	</g>
</g>
<g>
	<path class="st1" d="M1461.73,488.4"/>
	<g>
		<path class="st1" d="M1461.73,490.9c3.22,0,3.22-5,0-5C1458.51,485.9,1458.51,490.9,1461.73,490.9L1461.73,490.9z"/>
	</g>
</g>
<g>
	<path class="st1" d="M1499.6,457.76"/>
	<g>
		<path class="st1" d="M1499.6,460.26c3.22,0,3.22-5,0-5C1496.38,455.26,1496.38,460.26,1499.6,460.26L1499.6,460.26z"/>
	</g>
</g>
<g>
	<path class="st1" d="M1305.51,529.76"/>
	<g>
		<path class="st1" d="M1305.51,532.26c3.22,0,3.22-5,0-5C1302.29,527.26,1302.29,532.26,1305.51,532.26L1305.51,532.26z"/>
	</g>
</g>
<g>
	<path class="st1" d="M964.67,417.93"/>
	<g>
		<path class="st1" d="M964.67,420.43c3.22,0,3.22-5,0-5C961.45,415.43,961.45,420.43,964.67,420.43L964.67,420.43z"/>
	</g>
</g>
<g>
	<path class="st1" d="M814.76,479.21"/>
	<g>
		<path class="st1" d="M814.76,481.71c3.22,0,3.22-5,0-5C811.54,476.71,811.54,481.71,814.76,481.71L814.76,481.71z"/>
	</g>
</g>
<g>
	<path class="st1" d="M925.22,517.51"/>
	<g>
		<path class="st1" d="M925.22,520.01c3.22,0,3.22-5,0-5C922,515.01,922,520.01,925.22,520.01L925.22,520.01z"/>
	</g>
</g>
<g>
	<path class="st1" d="M926.8,561.93"/>
	<g>
		<path class="st1" d="M926.8,564.43c3.22,0,3.22-5,0-5C923.58,559.43,923.57,564.43,926.8,564.43L926.8,564.43z"/>
	</g>
</g>
<g>
	<path class="st1" d="M1064.08,508.32"/>
	<g>
		<path class="st1" d="M1064.08,510.82c3.22,0,3.22-5,0-5C1060.86,505.82,1060.86,510.82,1064.08,510.82L1064.08,510.82z"/>
	</g>
</g>
<g>
	<path class="st1" d="M982.03,283.12"/>
	<g>
		<path class="st1" d="M982.03,285.62c3.22,0,3.22-5,0-5C978.81,280.62,978.8,285.62,982.03,285.62L982.03,285.62z"/>
	</g>
</g>
<g>
	<path class="st1" d="M1149.29,283.12"/>
	<g>
		<path class="st1" d="M1149.29,285.62c3.22,0,3.22-5,0-5C1146.07,280.62,1146.07,285.62,1149.29,285.62L1149.29,285.62z"/>
	</g>
</g>
<g>
	<path class="st1" d="M1269.22,292.32"/>
	<g>
		<path class="st1" d="M1269.22,294.82c3.22,0,3.22-5,0-5C1266,289.82,1265.99,294.82,1269.22,294.82L1269.22,294.82z"/>
	</g>
</g>
<g>
	<path class="st1" d="M800.83,131.71"/>
	<g>
		<path class="st1" d="M800.83,134.21c3.22,0,3.22-5,0-5C797.62,129.21,797.61,134.21,800.83,134.21L800.83,134.21z"/>
	</g>
</g>
<g>
	<path class="st1" d="M682.67,490.95"/>
	<g>
		<path class="st1" d="M682.67,493.45c3.22,0,3.22-5,0-5C679.45,488.45,679.45,493.45,682.67,493.45L682.67,493.45z"/>
	</g>
</g>
<g>
	<path class="st1" d="M433.35,527.72"/>
	<g>
		<path class="st1" d="M433.35,530.22c3.22,0,3.22-5,0-5C430.13,525.22,430.13,530.22,433.35,530.22L433.35,530.22z"/>
	</g>
</g>
<g>
	<path class="st1" d="M698.45,549.17"/>
	<g>
		<path class="st1" d="M698.45,551.67c3.22,0,3.22-5,0-5C695.23,546.67,695.23,551.67,698.45,551.67L698.45,551.67z"/>
	</g>
</g>
<g>
	<path class="st1" d="M215.59,533.85"/>
	<g>
		<path class="st1" d="M215.59,536.35c3.22,0,3.22-5,0-5C212.37,531.35,212.37,536.35,215.59,536.35L215.59,536.35z"/>
	</g>
</g>
<g>
	<path class="st1" d="M410.21,509.85"/>
	<g>
		<path class="st1" d="M410.21,512.35c3.22,0,3.22-5,0-5C406.99,507.35,406.98,512.35,410.21,512.35L410.21,512.35z"/>
	</g>
</g>
<g>
	<path class="st1" d="M396.01,479.21"/>
	<g>
		<path class="st1" d="M396.01,481.71c3.22,0,3.22-5,0-5C392.79,476.71,392.78,481.71,396.01,481.71L396.01,481.71z"/>
	</g>
</g>
<g>
	<path class="st1" d="M287.13,489.93"/>
	<g>
		<path class="st1" d="M287.13,492.43c3.22,0,3.22-5,0-5C283.91,487.43,283.9,492.43,287.13,492.43L287.13,492.43z"/>
	</g>
</g>
<g>
	<path class="st1" d="M478.06,537.42"/>
	<g>
		<path class="st1" d="M478.06,539.92c3.22,0,3.22-5,0-5C474.84,534.92,474.84,539.92,478.06,539.92L478.06,539.92z"/>
	</g>
</g>
<g>
	<path class="st1" d="M501.73,488.4"/>
	<g>
		<path class="st1" d="M501.73,490.9c3.22,0,3.22-5,0-5C498.51,485.9,498.51,490.9,501.73,490.9L501.73,490.9z"/>
	</g>
</g>
<g>
	<path class="st1" d="M607.45,496.06"/>
	<g>
		<path class="st1" d="M607.45,498.56c3.22,0,3.22-5,0-5C604.24,493.56,604.23,498.56,607.45,498.56L607.45,498.56z"/>
	</g>
</g>
<g>
	<path class="st1" d="M408.63,575.72"/>
	<g>
		<path class="st1" d="M408.63,578.22c3.22,0,3.22-5,0-5C405.41,573.22,405.41,578.22,408.63,578.22L408.63,578.22z"/>
	</g>
</g>
<g>
	<path class="st1" d="M345.51,529.76"/>
	<g>
		<path class="st1" d="M345.51,532.26c3.22,0,3.22-5,0-5C342.29,527.26,342.29,532.26,345.51,532.26L345.51,532.26z"/>
	</g>
</g>
<g>
	<path class="st1" d="M83.11,479.98"/>
	<g>
		<path class="st1" d="M83.11,482.48c3.22,0,3.22-5,0-5C79.89,477.48,79.88,482.48,83.11,482.48L83.11,482.48z"/>
	</g>
</g>
<g>
	<path class="st1" d="M192.55,175.22"/>
	<g>
		<path class="st1" d="M192.55,177.72c3.22,0,3.22-5,0-5C189.33,172.72,189.33,177.72,192.55,177.72L192.55,177.72z"/>
	</g>
</g>
<g>
	<path class="st1" d="M267.73,378.87"/>
	<g>
		<path class="st1" d="M267.73,381.37c3.22,0,3.22-5,0-5C264.51,376.37,264.51,381.37,267.73,381.37L267.73,381.37z"/>
	</g>
</g>
<g>
	<path class="st1" d="M245.94,89.18"/>
	<g>
		<path class="st1" d="M245.94,91.68c3.22,0,3.22-5,0-5C242.72,86.68,242.71,91.68,245.94,91.68L245.94,91.68z"/>
	</g>
</g>
<g>
	<path class="st1" d="M27.61,373.25"/>
	<g>
		<path class="st1" d="M27.61,375.75c3.22,0,3.22-5,0-5C24.4,370.75,24.39,375.75,27.61,375.75L27.61,375.75z"/>
	</g>
</g>
<g>
	<path class="st1" d="M149.38,559.64"/>
	<g>
		<path class="st1" d="M149.38,562.14c3.22,0,3.22-5,0-5C146.16,557.14,146.16,562.14,149.38,562.14L149.38,562.14z"/>
	</g>
</g>
<g>
	<path class="st1" d="M206.71,475.89"/>
	<g>
		<path class="st1" d="M206.71,478.39c3.22,0,3.22-5,0-5C203.5,473.39,203.49,478.39,206.71,478.39L206.71,478.39z"/>
	</g>
</g>
<g>
	<path class="st1" d="M134.13,538.7"/>
	<g>
		<path class="st1" d="M134.13,541.2c3.22,0,3.22-5,0-5C130.91,536.2,130.9,541.2,134.13,541.2L134.13,541.2z"/>
	</g>
</g>
<g>
	<path class="st1" d="M75.74,535.64"/>
	<g>
		<path class="st1" d="M75.74,538.14c3.22,0,3.22-5,0-5C72.53,533.14,72.52,538.14,75.74,538.14L75.74,538.14z"/>
	</g>
</g>
<g>
	<path class="st1" d="M12.62,512.66"/>
	<g>
		<path class="st1" d="M12.62,515.16c3.22,0,3.22-5,0-5C9.41,510.16,9.4,515.16,12.62,515.16L12.62,515.16z"/>
	</g>
</g>
<g>
	<path class="st1" d="M173.58,397.76"/>
	<g>
		<path class="st1" d="M173.58,400.26c3.22,0,3.22-5,0-5C170.36,395.26,170.35,400.26,173.58,400.26L173.58,400.26z"/>
	</g>
</g>
<g>
	<g>
		<path class="st2" d="M159.71,325.82c3.22,0,3.22-5,0-5C156.49,320.82,156.48,325.82,159.71,325.82L159.71,325.82z"/>
	</g>
</g>
<g>
	<g>
		<path class="st2" d="M326.97,325.82c3.22,0,3.22-5,0-5C323.75,320.82,323.75,325.82,326.97,325.82L326.97,325.82z"/>
	</g>
</g>
<path class="st3" d="M1495.2,570.35H17.59c-7.55,0-13.67-6.12-13.67-13.67V22.7c0-7.55,6.12-13.67,13.67-13.67H1495.2
	c7.55,0,13.67,6.12,13.67,13.67v533.98C1508.87,564.23,1502.75,570.35,1495.2,570.35z"/>
<g>
	<g>
		<path class="st1" d="M1184.49,547.67c3.22,0,3.22-5,0-5C1181.28,542.67,1181.27,547.67,1184.49,547.67L1184.49,547.67z"/>
	</g>
</g>
<g>
	<g>
		<path class="st1" d="M525.95,349.07c3.22,0,3.22-5,0-5C522.74,344.07,522.73,349.07,525.95,349.07L525.95,349.07z"/>
	</g>
</g>
<g>
	<g>
		<path class="st1" d="M609.06,83.92c3.22,0,3.22-5,0-5C605.84,78.92,605.83,83.92,609.06,83.92L609.06,83.92z"/>
	</g>
</g>
<g>
	<g>
		<path class="st1" d="M657.81,383.91c3.22,0,3.22-5,0-5C654.59,378.91,654.58,383.91,657.81,383.91L657.81,383.91z"/>
	</g>
</g>
<g>
	<g>
		<path class="st1" d="M183.93,369.66c3.22,0,3.22-5,0-5C180.71,364.66,180.71,369.66,183.93,369.66L183.93,369.66z"/>
	</g>
</g>
<g>
	<g>
		<path class="st1" d="M1276.05,386.39c3.22,0,3.22-5,0-5C1272.83,381.39,1272.83,386.39,1276.05,386.39L1276.05,386.39z"/>
	</g>
</g>
<g>
	<g>
		<path class="st1" d="M1087.8,401.43c3.22,0,3.22-5,0-5C1084.59,396.43,1084.58,401.43,1087.8,401.43L1087.8,401.43z"/>
	</g>
</g>
<g>
	<g>
		<path class="st1" d="M1116.17,198.77c3.22,0,3.22-5,0-5C1112.96,193.77,1112.95,198.77,1116.17,198.77L1116.17,198.77z"/>
	</g>
</g>
<g>
	<g>
		<path class="st1" d="M1026.46,288.16c3.22,0,3.22-5,0-5C1023.24,283.16,1023.24,288.16,1026.46,288.16L1026.46,288.16z"/>
	</g>
</g>
<g>
	<g>
		<path class="st1" d="M626.61,246.84c3.22,0,3.22-5,0-5C623.39,241.84,623.39,246.84,626.61,246.84L626.61,246.84z"/>
	</g>
</g>
<g>
	<g>
		<path class="st1" d="M359.07,8.84c3.22,0,3.22-5,0-5C355.85,3.84,355.85,8.84,359.07,8.84L359.07,8.84z"/>
	</g>
</g>
<g>
	<g>
		<path class="st1" d="M597.62,162.17c3.22,0,3.22-5,0-5C594.41,157.17,594.4,162.17,597.62,162.17L597.62,162.17z"/>
	</g>
</g>
<g>
	<g>
		<path class="st1" d="M1224.34,163.45c3.22,0,3.22-5,0-5C1221.12,158.45,1221.12,163.45,1224.34,163.45L1224.34,163.45z"/>
	</g>
</g>
<g>
	<g>
		<path class="st1" d="M992.19,104.22c3.22,0,3.22-5,0-5C988.97,99.22,988.97,104.22,992.19,104.22L992.19,104.22z"/>
	</g>
</g>
<g>
	<g>
		<path class="st1" d="M758.02,159.01c3.22,0,3.22-5,0-5C754.81,154.01,754.8,159.01,758.02,159.01L758.02,159.01z"/>
	</g>
</g>
<g>
	<g>
		<path class="st1" d="M317.71,502.91c3.22,0,3.22-5,0-5C314.5,497.91,314.49,502.91,317.71,502.91L317.71,502.91z"/>
	</g>
</g>
<g>
	<g>
		<path class="st1" d="M279.28,70.33c3.22,0,3.22-5,0-5C276.07,65.33,276.06,70.33,279.28,70.33L279.28,70.33z"/>
	</g>
</g>
<g>
	<g>
		<path class="st1" d="M450.63,76.39c3.22,0,3.22-5,0-5C447.41,71.39,447.41,76.39,450.63,76.39L450.63,76.39z"/>
	</g>
</g>
<g>
	<g>
		<path class="st1" d="M563.5,225.9c3.22,0,3.22-5,0-5C560.28,220.9,560.27,225.9,563.5,225.9L563.5,225.9z"/>
	</g>
</g>
<g>
	<g>
		<path class="st1" d="M502.92,462.91c3.22,0,3.22-5,0-5C499.71,457.91,499.7,462.91,502.92,462.91L502.92,462.91z"/>
	</g>
</g>
<g>
	<g>
		<path class="st1" d="M223.41,286.79c3.22,0,3.22-5,0-5C220.19,281.79,220.19,286.79,223.41,286.79L223.41,286.79z"/>
	</g>
</g>
<g>
	<g>
		<path class="st1" d="M257.05,409.08c3.22,0,3.22-5,0-5C253.84,404.08,253.83,409.08,257.05,409.08L257.05,409.08z"/>
	</g>
</g>
<g>
	<g>
		<path class="st1" d="M736.82,45.77c3.22,0,3.22-5,0-5C733.6,40.77,733.59,45.77,736.82,45.77L736.82,45.77z"/>
	</g>
</g>
<g>
	<g>
		<path class="st1" d="M503.13,295.42c3.22,0,3.22-5,0-5C499.92,290.42,499.91,295.42,503.13,295.42L503.13,295.42z"/>
	</g>
</g>
<g>
	<g>
		<path class="st1" d="M1122.13,283.75c3.22,0,3.22-5,0-5C1118.92,278.75,1118.91,283.75,1122.13,283.75L1122.13,283.75z"/>
	</g>
</g>
<g>
	<g>
		<path class="st1" d="M1276.69,227.16c3.22,0,3.22-5,0-5C1273.48,222.16,1273.47,227.16,1276.69,227.16L1276.69,227.16z"/>
	</g>
</g>
<g>
	<g>
		<path class="st1" d="M786.44,386.1c3.22,0,3.22-5,0-5C783.23,381.1,783.22,386.1,786.44,386.1L786.44,386.1z"/>
	</g>
</g>
<g>
	<g>
		<path class="st1" d="M778.64,237.41c3.22,0,3.22-5,0-5C775.42,232.41,775.42,237.41,778.64,237.41L778.64,237.41z"/>
	</g>
</g>
<g>
	<g>
		<path class="st1" d="M899.73,200.62c3.22,0,3.22-5,0-5C896.51,195.62,896.51,200.62,899.73,200.62L899.73,200.62z"/>
	</g>
</g>
<g>
	<g>
		<path class="st1" d="M858.76,382.34c3.22,0,3.22-5,0-5C855.54,377.34,855.54,382.34,858.76,382.34L858.76,382.34z"/>
	</g>
</g>
<g>
	<g>
		<path class="st1" d="M982.53,415.55c3.22,0,3.22-5,0-5C979.31,410.55,979.3,415.55,982.53,415.55L982.53,415.55z"/>
	</g>
</g>
<g>
	<g>
		<path class="st1" d="M1028.2,533.08c3.22,0,3.22-5,0-5C1024.98,528.08,1024.98,533.08,1028.2,533.08L1028.2,533.08z"/>
	</g>
</g>
<g>
	<g>
		<path class="st1" d="M1172.97,452.04c3.22,0,3.22-5,0-5C1169.76,447.04,1169.75,452.04,1172.97,452.04L1172.97,452.04z"/>
	</g>
</g>
<g>
	<g>
		<path class="st1" d="M895.43,302.96c3.22,0,3.22-5,0-5C892.21,297.96,892.21,302.96,895.43,302.96L895.43,302.96z"/>
	</g>
</g>
<g>
	<g>
		<path class="st1" d="M1298.65,454.99c3.22,0,3.22-5,0-5C1295.43,449.99,1295.43,454.99,1298.65,454.99L1298.65,454.99z"/>
	</g>
</g>
<g>
	<g>
		<path class="st1" d="M1352.77,351.52c3.22,0,3.22-5,0-5C1349.55,346.52,1349.55,351.52,1352.77,351.52L1352.77,351.52z"/>
	</g>
</g>
<g>
	<g>
		<path class="st1" d="M1363.15,206.51c3.22,0,3.22-5,0-5C1359.94,201.51,1359.93,206.51,1363.15,206.51L1363.15,206.51z"/>
	</g>
</g>
<g>
	<g>
		<path class="st1" d="M747.42,453.21c3.22,0,3.22-5,0-5C744.2,448.21,744.19,453.21,747.42,453.21L747.42,453.21z"/>
	</g>
</g>
<g>
	<g>
		<path class="st1" d="M953.61,464.87c3.22,0,3.22-5,0-5C950.39,459.87,950.39,464.87,953.61,464.87L953.61,464.87z"/>
	</g>
</g>
<g>
	<g>
		<path class="st1" d="M729.8,345.86c3.22,0,3.22-5,0-5C726.59,340.86,726.58,345.86,729.8,345.86L729.8,345.86z"/>
	</g>
</g>
<g>
	<g>
		<path class="st1" d="M689.55,521.78c3.22,0,3.22-5,0-5C686.33,516.78,686.32,521.78,689.55,521.78L689.55,521.78z"/>
	</g>
</g>
<g>
	<g>
		<path class="st1" d="M919.17,536.18c3.22,0,3.22-5,0-5C915.95,531.18,915.95,536.18,919.17,536.18L919.17,536.18z"/>
	</g>
</g>
<g>
	<g>
		<path class="st1" d="M819.43,566.37c3.22,0,3.22-5,0-5C816.21,561.37,816.2,566.37,819.43,566.37L819.43,566.37z"/>
	</g>
</g>
<g>
	<g>
		<path class="st1" d="M606.36,537.64c3.22,0,3.22-5,0-5C603.15,532.64,603.14,537.64,606.36,537.64L606.36,537.64z"/>
	</g>
</g>
<g>
	<g>
		<path class="st1" d="M850.99,114.3c3.22,0,3.22-5,0-5C847.77,109.3,847.77,114.3,850.99,114.3L850.99,114.3z"/>
	</g>
</g>
<g>
	<g>
		<path class="st1" d="M856.97,462.45c3.22,0,3.22-5,0-5C853.75,457.45,853.75,462.45,856.97,462.45L856.97,462.45z"/>
	</g>
</g>
<g>
	<g>
		<path class="st1" d="M174.42,485.19c3.22,0,3.22-5,0-5C171.2,480.19,171.2,485.19,174.42,485.19L174.42,485.19z"/>
	</g>
</g>
<g>
	<g>
		<path class="st1" d="M413.41,253.43c3.22,0,3.22-5,0-5C410.2,248.43,410.19,253.43,413.41,253.43L413.41,253.43z"/>
	</g>
</g>
<g>
	<g>
		<path class="st1" d="M627.73,296.78c3.22,0,3.22-5,0-5C624.51,291.78,624.51,296.78,627.73,296.78L627.73,296.78z"/>
	</g>
</g>
<g>
	<g>
		<path class="st1" d="M779.01,339.65c3.22,0,3.22-5,0-5C775.79,334.65,775.78,339.65,779.01,339.65L779.01,339.65z"/>
	</g>
</g>
<g>
	<g>
		<path class="st1" d="M1411.9,313.48c3.22,0,3.22-5,0-5C1408.69,308.48,1408.68,313.48,1411.9,313.48L1411.9,313.48z"/>
	</g>
</g>
<g>
	<g>
		<path class="st1" d="M101.61,313.11c3.22,0,3.22-5,0-5C98.39,308.11,98.38,313.11,101.61,313.11L101.61,313.11z"/>
	</g>
</g>
<g>
	<g>
		<path class="st1" d="M83.6,461.47c3.22,0,3.22-5,0-5C80.38,456.47,80.38,461.47,83.6,461.47L83.6,461.47z"/>
	</g>
</g>
<g>
	<g>
		<path class="st1" d="M158.94,119.74c3.22,0,3.22-5,0-5C155.72,114.74,155.71,119.74,158.94,119.74L158.94,119.74z"/>
	</g>
</g>
<g>
	<g>
		<path class="st1" d="M196.82,190.6c3.22,0,3.22-5,0-5C193.6,185.6,193.59,190.6,196.82,190.6L196.82,190.6z"/>
	</g>
</g>
<g>
	<g>
		<path class="st1" d="M97.81,380.35c3.22,0,3.22-5,0-5C94.59,375.35,94.58,380.35,97.81,380.35L97.81,380.35z"/>
	</g>
</g>
<g>
	<g>
		<path class="st1" d="M230.51,24.04c3.22,0,3.22-5,0-5C227.3,19.04,227.29,24.04,230.51,24.04L230.51,24.04z"/>
	</g>
</g>
<g>
	<g>
		<path class="st2" d="M322.47,168.97c3.22,0,3.22-5,0-5C319.25,163.97,319.24,168.97,322.47,168.97L322.47,168.97z"/>
	</g>
</g>
<g>
	<g>
		<path class="st2" d="M500.31,184.51c3.22,0,3.22-5,0-5C497.1,179.51,497.09,184.51,500.31,184.51L500.31,184.51z"/>
	</g>
</g>
<g>
	<g>
		<path class="st2" d="M297.77,270.22c3.22,0,3.22-5,0-5C294.56,265.22,294.55,270.22,297.77,270.22L297.77,270.22z"/>
	</g>
</g>
<g>
	<g>
		<path class="st2" d="M424.65,496.11c3.22,0,3.22-5,0-5C421.43,491.11,421.43,496.11,424.65,496.11L424.65,496.11z"/>
	</g>
</g>
<g>
	<g>
		<path class="st2" d="M588.49,435.27c3.22,0,3.22-5,0-5C585.27,430.27,585.27,435.27,588.49,435.27L588.49,435.27z"/>
	</g>
</g>
<g>
	<g>
		<path class="st2" d="M356.23,421.66c3.22,0,3.22-5,0-5C353.01,416.66,353.01,421.66,356.23,421.66L356.23,421.66z"/>
	</g>
</g>
<path class="st4" d="M345.01,320.16l-48.65,8.63c-1.9,0.34-3.77-0.7-4.5-2.48l-68.14-166.52c-1.02-2.48,0.59-5.25,3.25-5.61
	l41.58-5.51c1.78-0.24,3.5,0.72,4.25,2.35l75.21,163.41C349.13,316.85,347.65,319.69,345.01,320.16z"/>
<line class="st5" x1="337.47" y1="290.45" x2="280.93" y2="300.44"/>
<line class="st5" x1="323.57" y1="261.4" x2="269.39" y2="270.97"/>
<line class="st5" x1="309.92" y1="232.3" x2="257.36" y2="241.59"/>
<line class="st5" x1="296.48" y1="203.17" x2="245.32" y2="212.21"/>
<line class="st5" x1="283.32" y1="174.23" x2="233.41" y2="182.82"/>
<path class="st4" d="M411.71,306.54l-48.28,10.5c-1.88,0.41-3.8-0.55-4.59-2.3l-74.53-163.77c-1.11-2.44,0.39-5.27,3.03-5.73
	l41.34-7.11c1.77-0.3,3.53,0.58,4.34,2.18l81.47,160.38C415.71,303.08,414.33,305.97,411.71,306.54z"/>
<line class="st5" x1="403.02" y1="277.14" x2="346.92" y2="289.31"/>
<line class="st5" x1="388.02" y1="248.65" x2="334.25" y2="260.31"/>
<line class="st5" x1="373.25" y1="220.1" x2="321.09" y2="231.42"/>
<line class="st5" x1="358.7" y1="191.51" x2="307.92" y2="202.52"/>
<line class="st5" x1="344.43" y1="163.1" x2="294.88" y2="173.62"/>
<path class="st4" d="M495.92,296.02l-48.65,8.63c-1.9,0.34-3.77-0.7-4.5-2.48l-68.14-166.52c-1.02-2.48,0.59-5.25,3.25-5.61
	l41.58-5.51c1.78-0.24,3.5,0.72,4.25,2.35l75.21,163.41C500.04,292.71,498.56,295.55,495.92,296.02z"/>
<line class="st5" x1="488.38" y1="266.31" x2="431.85" y2="276.3"/>
<line class="st5" x1="474.48" y1="237.26" x2="420.3" y2="246.83"/>
<line class="st5" x1="460.83" y1="208.16" x2="408.27" y2="217.45"/>
<line class="st5" x1="447.39" y1="179.03" x2="396.23" y2="188.07"/>
<line class="st5" x1="434.24" y1="150.09" x2="384.32" y2="158.68"/>
<path class="st4" d="M562.62,282.4l-48.28,10.5c-1.88,0.41-3.8-0.55-4.59-2.3l-74.53-163.77c-1.11-2.44,0.39-5.27,3.03-5.73
	l41.34-7.11c1.77-0.3,3.53,0.58,4.34,2.18l81.47,160.38C566.62,278.93,565.24,281.83,562.62,282.4z"/>
<line class="st5" x1="553.94" y1="253" x2="497.83" y2="265.17"/>
<line class="st5" x1="538.93" y1="224.51" x2="485.16" y2="236.17"/>
<line class="st5" x1="524.16" y1="195.96" x2="472" y2="207.27"/>
<line class="st5" x1="509.61" y1="167.37" x2="458.83" y2="178.38"/>
<line class="st5" x1="495.34" y1="138.96" x2="445.79" y2="149.48"/>
<path class="st4" d="M451.47,545.26l-48.65,8.63c-1.9,0.34-3.77-0.7-4.5-2.48l-68.14-166.52c-1.02-2.48,0.59-5.25,3.25-5.61
	l41.58-5.51c1.78-0.24,3.5,0.72,4.25,2.35l75.21,163.41C455.6,541.95,454.11,544.79,451.47,545.26z"/>
<line class="st5" x1="443.93" y1="515.55" x2="387.4" y2="525.54"/>
<line class="st5" x1="430.03" y1="486.5" x2="375.85" y2="496.07"/>
<line class="st5" x1="416.38" y1="457.4" x2="363.83" y2="466.69"/>
<line class="st5" x1="402.94" y1="428.27" x2="351.78" y2="437.31"/>
<line class="st5" x1="389.79" y1="399.33" x2="339.87" y2="407.92"/>
<path class="st4" d="M518.18,531.64l-48.28,10.5c-1.88,0.41-3.8-0.55-4.59-2.3l-74.53-163.77c-1.11-2.44,0.39-5.27,3.03-5.73
	l41.34-7.11c1.77-0.3,3.53,0.58,4.34,2.18l81.47,160.38C522.17,528.18,520.8,531.07,518.18,531.64z"/>
<line class="st5" x1="509.49" y1="502.24" x2="453.39" y2="514.41"/>
<line class="st5" x1="494.48" y1="473.75" x2="440.71" y2="485.41"/>
<line class="st5" x1="479.72" y1="445.2" x2="427.55" y2="456.52"/>
<line class="st5" x1="465.16" y1="416.61" x2="414.38" y2="427.62"/>
<line class="st5" x1="450.89" y1="388.2" x2="401.35" y2="398.72"/>
<path class="st4" d="M602.38,521.12l-48.65,8.63c-1.9,0.34-3.77-0.7-4.5-2.48L481.1,360.74c-1.02-2.48,0.59-5.25,3.25-5.61
	l41.58-5.51c1.78-0.24,3.5,0.72,4.25,2.35l75.21,163.41C606.51,517.81,605.02,520.65,602.38,521.12z"/>
<line class="st5" x1="594.84" y1="491.41" x2="538.31" y2="501.4"/>
<line class="st5" x1="580.94" y1="462.35" x2="526.77" y2="471.93"/>
<line class="st5" x1="567.3" y1="433.26" x2="514.74" y2="442.55"/>
<line class="st5" x1="553.86" y1="404.13" x2="502.69" y2="413.17"/>
<line class="st5" x1="540.7" y1="375.19" x2="490.78" y2="383.78"/>
<path class="st4" d="M669.09,507.49L620.81,518c-1.88,0.41-3.8-0.55-4.59-2.3l-74.53-163.77c-1.11-2.44,0.39-5.27,3.03-5.73
	l41.34-7.11c1.77-0.3,3.53,0.58,4.34,2.18l81.47,160.38C673.08,504.03,671.71,506.93,669.09,507.49z"/>
<line class="st5" x1="660.4" y1="478.1" x2="604.3" y2="490.27"/>
<line class="st5" x1="645.39" y1="449.61" x2="591.62" y2="461.27"/>
<line class="st5" x1="630.63" y1="421.06" x2="578.47" y2="432.37"/>
<line class="st5" x1="699.21" y1="121.37" x2="781.64" y2="112.62"/>
<line class="st5" x1="616.07" y1="392.47" x2="565.29" y2="403.48"/>
<line class="st5" x1="601.8" y1="364.06" x2="552.26" y2="374.58"/>
<path class="st4" d="M697.25,132.69l-28.11,2.27c-0.05,0-0.08-0.04-0.07-0.08l4.79-23.66c0.01-0.03,0.03-0.05,0.06-0.06l27.62-2.8
	c0.05,0,0.08,0.04,0.08,0.08l-4.3,24.19C697.31,132.66,697.28,132.69,697.25,132.69z"/>
<path class="st4" d="M732.43,129.14l-28.11,2.27c-0.05,0-0.08-0.04-0.07-0.08l4.79-23.66c0.01-0.03,0.03-0.05,0.06-0.06l27.62-2.8
	c0.05,0,0.08,0.04,0.08,0.08l-4.3,24.19C732.49,129.11,732.46,129.13,732.43,129.14z"/>
<path class="st4" d="M772.45,125.27l-28.11,2.27c-0.05,0-0.08-0.04-0.07-0.08l4.79-23.66c0.01-0.03,0.03-0.05,0.06-0.06l27.62-2.8
	c0.05,0,0.08,0.04,0.08,0.08l-4.3,24.19C772.51,125.25,772.48,125.27,772.45,125.27z"/>
<path class="st4" d="M807.63,121.72l-28.11,2.27c-0.05,0-0.08-0.04-0.07-0.08l4.79-23.66c0.01-0.03,0.03-0.05,0.06-0.06l27.62-2.8
	c0.05,0,0.08,0.04,0.08,0.08l-4.3,24.19C807.69,121.69,807.66,121.72,807.63,121.72z"/>
<path class="st4" d="M1310.5,417.31l-67.17,21.3c-1.77,0.56-3.7,0.13-5.07-1.13L1053.8,267.17c-3.11-2.88-1.63-8.07,2.53-8.87
	l59.6-11.42c1.52-0.29,3.09,0.12,4.28,1.11l192.04,160.43C1315.38,411.04,1314.39,416.08,1310.5,417.31z"/>
<line class="st5" x1="1280.35" y1="426.6" x2="1084.54" y2="253.79"/>
<path class="st4" d="M1338.46,408.91L1140.6,246.37c-1.89-1.55-1.12-4.59,1.28-5.07l56.72-11.18c0.8-0.16,1.64,0.03,2.29,0.52
	l201.55,151.46c1.83,1.37,1.41,4.23-0.74,5.02l-60.41,22.26C1340.33,409.74,1339.25,409.56,1338.46,408.91z"/>
<line class="st5" x1="1171.61" y1="235.52" x2="1373.31" y2="397.13"/>
<path class="st4" d="M1066.51,190.93l-64.74,10.56c-1.7,0.28-3.48-0.3-4.64-1.51L839.29,36.26c-2.67-2.76-0.82-6.98,3.14-7.19
	l56.79-3.07c1.45-0.08,2.89,0.44,3.91,1.41l165.78,156.24C1071.62,186.18,1070.25,190.32,1066.51,190.93z"/>
<line class="st5" x1="1037.47" y1="195.45" x2="869.23" y2="28.36"/>
<path class="st6" d="M733.28,189.57l-12.41-2.51c-1.13-0.23-1.85-1.33-1.63-2.45l8.86-43.78c0.23-1.13,1.33-1.85,2.45-1.63
	l12.41,2.51c1.13,0.23,1.85,1.33,1.63,2.45l-8.86,43.78C735.5,189.07,734.41,189.8,733.28,189.57z"/>
<path class="st4" d="M1091.63,186.03L920.58,27.37c-1.63-1.51-0.65-3.99,1.64-4.13l54.08-3.19c0.77-0.05,1.53,0.21,2.1,0.69
	l175.47,149.73c1.59,1.36,0.95,3.72-1.13,4.15l-58.5,12.11C1093.31,186.94,1092.31,186.67,1091.63,186.03z"/>
<line class="st5" x1="950.56" y1="21.64" x2="1125.28" y2="179.94"/>
<path class="st6" d="M890.04,372.56l-5.04,4.53c-4.53,4.07-11.51,3.7-15.58-0.83L682.39,168.29c-4.07-4.53-3.7-11.51,0.83-15.58
	l5.04-4.53c4.53-4.07,11.51-3.7,15.58,0.83l187.03,207.98C894.94,361.51,894.57,368.48,890.04,372.56z"/>
<path class="st6" d="M799.12,358.76l-17.5-3.54c-5.03-1.02-8.28-5.92-7.26-10.95l16.25-80.32c1.02-5.03,5.92-8.28,10.95-7.26
	l17.5,3.54c5.03,1.02,8.28,5.92,7.26,10.95l-16.25,80.32C809.06,356.53,804.15,359.78,799.12,358.76z"/>
<polygon class="st6" points="603.93,240.8 594.44,280.87 602.76,291.67 625.05,292.05 626.8,247.66 "/>
<path class="st6" d="M668.79,259.6c-0.1,0.5-3.75,18.52-3.75,18.52l-45.41,10.09l4.84-21.39"/>
<path class="st6" d="M1215.68,216.17L352,371.91c-8.23,1.48-16.11-3.99-17.6-12.22l-1.65-9.16c-1.48-8.23,3.99-16.11,12.22-17.6
	l863.68-155.74c8.23-1.48,16.11,3.99,17.6,12.22l1.65,9.16C1229.39,206.81,1223.91,214.69,1215.68,216.17z"/>
<path class="st6" d="M794.32,416.6l-15.02-12.85c-2.12-1.81-3.08-4.54-2.51-7.14l4.05-18.54l17.69,13.84"/>
<path class="st6" d="M645.93,233.46l-39.52,3.75c-1.73,0.16-2.62,2.14-1.6,3.54l18.32,25.21c0.48,0.66,1.29,1.01,2.1,0.9l41.58-5.44
	c1.77-0.23,2.57-2.34,1.4-3.68l-20.38-23.53C647.36,233.68,646.65,233.39,645.93,233.46z"/>
<polyline class="st6" points="945.93,306.03 939.41,338.27 959.02,356.17 986.53,347.8 993.55,315.66 "/>
<path class="st6" d="M1028.72,361.24l-3.56,16.39c-0.16,0.72-0.68,1.31-1.38,1.55l-25.88,8.09c-3.62,0.64-1.14-0.77-0.81-2.36
	l2.88-14.26"/>
<path class="st6" d="M967.86,362.15l28.26,25.02c0.28,0.26,1.09-2.74,1.15-3.12l2.42-15.76c0.03-0.16-0.03-0.33-0.15-0.44
	l-27.11-24.53c-0.28-0.25-0.72-0.11-0.8,0.26l-3.91,18.12C967.68,361.86,967.74,362.04,967.86,362.15z"/>
<path class="st6" d="M799.43,390.83c0.27,0.05-4.35,24.59-4.35,24.59l179.02-45.7l4.63-21.61"/>
<path class="st6" d="M998.6,370.27l-24.93-25.05c-1.77-1.78-1.02-4.8,1.38-5.54l25.5-7.9c1.22-0.38,2.55-0.03,3.43,0.91l23.79,25.45
	c1.68,1.8,0.9,4.74-1.46,5.47l-24.35,7.49C1000.76,371.47,999.47,371.15,998.6,370.27z"/>
<path class="st6" d="M978.78,348.35L799.55,390.8c-0.08,0.02-0.17,0-0.23-0.05l-17.83-14.64c-0.17-0.14-0.11-0.42,0.11-0.47
	l180.58-41.66c0.08-0.02,0.17,0,0.23,0.06l16.48,13.85C979.06,348.03,978.99,348.3,978.78,348.35z"/>
<line class="st5" x1="740.65" y1="116.84" x2="736.11" y2="139.93"/>
<path class="st6" d="M983.47,324.46l-31.68-6.41c-4.4-0.89-7.25-5.18-6.36-9.58l0.99-4.9c0.89-4.4,5.18-7.25,9.58-6.36l31.68,6.41
	c4.4,0.89,7.25,5.18,6.36,9.58l-0.99,4.9C992.16,322.51,987.87,325.35,983.47,324.46z"/>
</svg>
