<?xml version="1.0" encoding="utf-8"?>
<!-- Generator: Adobe Illustrator 27.4.0, SVG Export Plug-In . SVG Version: 6.00 Build 0)  -->
<svg version="1.1" id="Layer_1" xmlns="http://www.w3.org/2000/svg" xmlns:xlink="http://www.w3.org/1999/xlink" x="0px" y="0px"
	 viewBox="0 0 1584 576" style="enable-background:new 0 0 1584 576;" xml:space="preserve">
<style type="text/css">
	.st0{fill:#142728;}
	.st1{fill:#E5E5E4;}
	.st2{fill:#FFF1E7;}
	.st3{fill:none;stroke:#070909;stroke-width:5;stroke-miterlimit:10;}
	.st4{fill:#EDDFD9;stroke:#CEBBB3;stroke-width:3;stroke-miterlimit:10;}
	.st5{fill:none;stroke:#CEBBB3;stroke-width:3;stroke-miterlimit:10;}
	.st6{fill:#CEBBB3;stroke:#AB9C96;stroke-width:3;stroke-miterlimit:10;}
	.st7{fill:#FEE7D8;stroke:#FEE7D8;stroke-miterlimit:10;}
</style>
<path class="st0" d="M1531.2,570.35H53.59c-7.55,0-13.67-6.12-13.67-13.67V22.7c0-7.55,6.12-13.67,13.67-13.67H1531.2
	c7.55,0,13.67,6.12,13.67,13.67v533.98C1544.87,564.23,1538.75,570.35,1531.2,570.35z"/>
<g>
	<path class="st1" d="M450.79,568.32"/>
	<g>
		<path class="st1" d="M450.79,570.82c3.22,0,3.22-5,0-5C447.57,565.82,447.57,570.82,450.79,570.82L450.79,570.82z"/>
	</g>
</g>
<g>
	<path class="st1" d="M384.52,170.03"/>
	<g>
		<path class="st1" d="M384.52,172.53c3.22,0,3.22-5,0-5C381.3,167.53,381.29,172.53,384.52,172.53L384.52,172.53z"/>
	</g>
</g>
<g>
	<path class="st1" d="M433.43,209.86"/>
	<g>
		<path class="st1" d="M433.43,212.36c3.22,0,3.22-5,0-5C430.22,207.36,430.21,212.36,433.43,212.36L433.43,212.36z"/>
	</g>
</g>
<g>
	<path class="st1" d="M518.29,10.71"/>
	<g>
		<path class="st1" d="M518.29,13.21c3.22,0,3.22-5,0-5C515.07,8.21,515.06,13.21,518.29,13.21L518.29,13.21z"/>
	</g>
</g>
<g>
	<path class="st1" d="M484.45,377.35"/>
	<g>
		<path class="st1" d="M484.45,379.85c3.22,0,3.22-5,0-5C481.24,374.85,481.23,379.85,484.45,379.85L484.45,379.85z"/>
	</g>
</g>
<g>
	<path class="st1" d="M397.66,84.75"/>
	<g>
		<path class="st1" d="M397.66,87.25c3.22,0,3.22-5,0-5C394.45,82.25,394.44,87.25,397.66,87.25L397.66,87.25z"/>
	</g>
</g>
<g>
	<path class="st1" d="M437.11,44.92"/>
	<g>
		<path class="st1" d="M437.11,47.42c3.22,0,3.22-5,0-5C433.9,42.42,433.89,47.42,437.11,47.42L437.11,47.42z"/>
	</g>
</g>
<g>
	<path class="st1" d="M522.06,127.18"/>
	<g>
		<path class="st1" d="M522.06,129.68c3.22,0,3.22-5,0-5C518.84,124.68,518.84,129.68,522.06,129.68L522.06,129.68z"/>
	</g>
</g>
<g>
	<path class="st1" d="M375.57,573.43"/>
	<g>
		<path class="st1" d="M375.57,575.93c3.22,0,3.22-5,0-5C372.36,570.93,372.35,575.93,375.57,575.93L375.57,575.93z"/>
	</g>
</g>
<g>
	<path class="st1" d="M823.41,58.95"/>
	<g>
		<path class="st1" d="M823.41,61.45c3.22,0,3.22-5,0-5C820.19,56.45,820.19,61.45,823.41,61.45L823.41,61.45z"/>
	</g>
</g>
<g>
	<path class="st1" d="M757.13,307.12"/>
	<g>
		<path class="st1" d="M757.13,309.62c3.22,0,3.22-5,0-5C753.92,304.62,753.91,309.62,757.13,309.62L757.13,309.62z"/>
	</g>
</g>
<g>
	<path class="st1" d="M731.89,506.27"/>
	<g>
		<path class="st1" d="M731.89,508.77c3.22,0,3.22-5,0-5C728.67,503.77,728.66,508.77,731.89,508.77L731.89,508.77z"/>
	</g>
</g>
<g>
	<path class="st1" d="M570.93,71.21"/>
	<g>
		<path class="st1" d="M570.93,73.71c3.22,0,3.22-5,0-5C567.72,68.71,567.71,73.71,570.93,73.71L570.93,73.71z"/>
	</g>
</g>
<g>
	<path class="st1" d="M236.4,123.3"/>
	<g>
		<path class="st1" d="M236.4,125.8c3.22,0,3.22-5,0-5C233.19,120.8,233.18,125.8,236.4,125.8L236.4,125.8z"/>
	</g>
</g>
<g>
	<path class="st1" d="M653.83,47.05"/>
	<g>
		<path class="st1" d="M653.83,49.55c3.22,0,3.22-5,0-5C650.61,44.55,650.6,49.55,653.83,49.55L653.83,49.55z"/>
	</g>
</g>
<g>
	<path class="st1" d="M90.21,106.54"/>
	<g>
		<path class="st1" d="M90.21,109.04c3.22,0,3.22-5,0-5C87,104.04,86.99,109.04,90.21,109.04L90.21,109.04z"/>
	</g>
</g>
<g>
	<path class="st1" d="M564.62,25.25"/>
	<g>
		<path class="st1" d="M564.62,27.75c3.22,0,3.22-5,0-5C561.4,22.75,561.4,27.75,564.62,27.75L564.62,27.75z"/>
	</g>
</g>
<g>
	<path class="st1" d="M242.71,34.44"/>
	<g>
		<path class="st1" d="M242.71,36.94c3.22,0,3.22-5,0-5C239.5,31.94,239.49,36.94,242.71,36.94L242.71,36.94z"/>
	</g>
</g>
<g>
	<path class="st1" d="M47.05,55.89"/>
	<g>
		<path class="st1" d="M47.05,58.39c3.22,0,3.22-5,0-5C43.83,53.39,43.82,58.39,47.05,58.39L47.05,58.39z"/>
	</g>
</g>
<g>
	<path class="st1" d="M650.42,205.9"/>
	<g>
		<path class="st1" d="M650.42,208.4c3.22,0,3.22-5,0-5C647.21,203.4,647.2,208.4,650.42,208.4L650.42,208.4z"/>
	</g>
</g>
<g>
	<path class="st1" d="M750.82,196.83"/>
	<g>
		<path class="st1" d="M750.82,199.33c3.22,0,3.22-5,0-5C747.6,194.33,747.6,199.33,750.82,199.33L750.82,199.33z"/>
	</g>
</g>
<g>
	<path class="st1" d="M940.18,107.98"/>
	<g>
		<path class="st1" d="M940.18,110.48c3.22,0,3.22-5,0-5C936.96,105.48,936.96,110.48,940.18,110.48L940.18,110.48z"/>
	</g>
</g>
<g>
	<path class="st1" d="M687.7,411.3"/>
	<g>
		<path class="st1" d="M687.7,413.8c3.22,0,3.22-5,0-5C684.49,408.8,684.48,413.8,687.7,413.8L687.7,413.8z"/>
	</g>
</g>
<g>
	<path class="st1" d="M919.94,103.63"/>
	<g>
		<path class="st1" d="M919.94,106.13c3.22,0,3.22-5,0-5C916.72,101.13,916.72,106.13,919.94,106.13L919.94,106.13z"/>
	</g>
</g>
<g>
	<path class="st1" d="M836.87,105.26"/>
	<g>
		<path class="st1" d="M836.87,107.76c3.22,0,3.22-5,0-5C833.65,102.76,833.65,107.76,836.87,107.76L836.87,107.76z"/>
	</g>
</g>
<g>
	<path class="st1" d="M785.54,518.53"/>
	<g>
		<path class="st1" d="M785.54,521.03c3.22,0,3.22-5,0-5C782.32,516.03,782.31,521.03,785.54,521.03L785.54,521.03z"/>
	</g>
</g>
<g>
	<path class="st1" d="M810.78,368.4"/>
	<g>
		<path class="st1" d="M810.78,370.9c3.22,0,3.22-5,0-5C807.57,365.9,807.56,370.9,810.78,370.9L810.78,370.9z"/>
	</g>
</g>
<g>
	<path class="st1" d="M889.68,166.19"/>
	<g>
		<path class="st1" d="M889.68,168.69c3.22,0,3.22-5,0-5C886.47,163.69,886.46,168.69,889.68,168.69L889.68,168.69z"/>
	</g>
</g>
<g>
	<path class="st1" d="M754.82,4.15"/>
	<g>
		<path class="st1" d="M754.82,6.65c3.22,0,3.22-5,0-5C751.6,1.65,751.59,6.65,754.82,6.65L754.82,6.65z"/>
	</g>
</g>
<g>
	<path class="st1" d="M745.1,218.16"/>
	<g>
		<path class="st1" d="M745.1,220.66c3.22,0,3.22-5,0-5C741.88,215.66,741.88,220.66,745.1,220.66L745.1,220.66z"/>
	</g>
</g>
<g>
	<path class="st1" d="M596.77,153.82"/>
	<g>
		<path class="st1" d="M596.77,156.32c3.22,0,3.22-5,0-5C593.56,151.32,593.55,156.32,596.77,156.32L596.77,156.32z"/>
	</g>
</g>
<g>
	<path class="st1" d="M400.51,43.64"/>
	<g>
		<path class="st1" d="M400.51,46.14c3.22,0,3.22-5,0-5C397.29,41.14,397.29,46.14,400.51,46.14L400.51,46.14z"/>
	</g>
</g>
<g>
	<path class="st1" d="M166.97,86.53"/>
	<g>
		<path class="st1" d="M166.97,89.03c3.22,0,3.22-5,0-5C163.75,84.03,163.75,89.03,166.97,89.03L166.97,89.03z"/>
	</g>
</g>
<g>
	<path class="st1" d="M255.34,248.91"/>
	<g>
		<path class="st1" d="M255.34,251.41c3.22,0,3.22-5,0-5C252.12,246.41,252.12,251.41,255.34,251.41L255.34,251.41z"/>
	</g>
</g>
<g>
	<path class="st1" d="M95.47,207.65"/>
	<g>
		<path class="st1" d="M95.47,210.15c3.22,0,3.22-5,0-5C92.26,205.15,92.25,210.15,95.47,210.15L95.47,210.15z"/>
	</g>
</g>
<g>
	<path class="st1" d="M249.03,380.66"/>
	<g>
		<path class="st1" d="M249.03,383.16c3.22,0,3.22-5,0-5C245.81,378.16,245.8,383.16,249.03,383.16L249.03,383.16z"/>
	</g>
</g>
<g>
	<path class="st1" d="M820.25,331.64"/>
	<g>
		<path class="st1" d="M820.25,334.14c3.22,0,3.22-5,0-5C817.04,329.14,817.03,334.14,820.25,334.14L820.25,334.14z"/>
	</g>
</g>
<g>
	<path class="st1" d="M738.2,558.36"/>
	<g>
		<path class="st1" d="M738.2,560.86c3.22,0,3.22-5,0-5C734.98,555.86,734.98,560.86,738.2,560.86L738.2,560.86z"/>
	</g>
</g>
<g>
	<path class="st1" d="M362.64,337.76"/>
	<g>
		<path class="st1" d="M362.64,340.26c3.22,0,3.22-5,0-5C359.42,335.26,359.42,340.26,362.64,340.26L362.64,340.26z"/>
	</g>
</g>
<g>
	<path class="st1" d="M211.15,310.19"/>
	<g>
		<path class="st1" d="M211.15,312.69c3.22,0,3.22-5,0-5C207.94,307.69,207.93,312.69,211.15,312.69L211.15,312.69z"/>
	</g>
</g>
<g>
	<path class="st1" d="M135.41,239.72"/>
	<g>
		<path class="st1" d="M135.41,242.22c3.22,0,3.22-5,0-5C132.19,237.22,132.19,242.22,135.41,242.22L135.41,242.22z"/>
	</g>
</g>
<g>
	<path class="st1" d="M201.69,236.66"/>
	<g>
		<path class="st1" d="M201.69,239.16c3.22,0,3.22-5,0-5C198.47,234.16,198.46,239.16,201.69,239.16L201.69,239.16z"/>
	</g>
</g>
<g>
	<path class="st1" d="M697.17,187.64"/>
	<g>
		<path class="st1" d="M697.17,190.14c3.22,0,3.22-5,0-5C693.95,185.14,693.95,190.14,697.17,190.14L697.17,190.14z"/>
	</g>
</g>
<g>
	<path class="st1" d="M485.72,74.27"/>
	<g>
		<path class="st1" d="M485.72,76.77c3.22,0,3.22-5,0-5C482.51,71.77,482.5,76.77,485.72,76.77L485.72,76.77z"/>
	</g>
</g>
<g>
	<path class="st1" d="M892.84,52.83"/>
	<g>
		<path class="st1" d="M892.84,55.33c3.22,0,3.22-5,0-5C889.62,50.33,889.62,55.33,892.84,55.33L892.84,55.33z"/>
	</g>
</g>
<g>
	<path class="st1" d="M662.46,123.3"/>
	<g>
		<path class="st1" d="M662.46,125.8c3.22,0,3.22-5,0-5C659.24,120.8,659.23,125.8,662.46,125.8L662.46,125.8z"/>
	</g>
</g>
<g>
	<path class="st1" d="M750.82,8.49"/>
	<g>
		<path class="st1" d="M750.82,10.99c3.22,0,3.22-5,0-5C747.6,5.99,747.6,10.99,750.82,10.99L750.82,10.99z"/>
	</g>
</g>
<g>
	<path class="st1" d="M933.87,313.25"/>
	<g>
		<path class="st1" d="M933.87,315.75c3.22,0,3.22-5,0-5C930.65,310.75,930.64,315.75,933.87,315.75L933.87,315.75z"/>
	</g>
</g>
<g>
	<path class="st1" d="M817.1,264.23"/>
	<g>
		<path class="st1" d="M817.1,266.73c3.22,0,3.22-5,0-5C813.88,261.73,813.87,266.73,817.1,266.73L817.1,266.73z"/>
	</g>
</g>
<g>
	<path class="st1" d="M873.9,359.21"/>
	<g>
		<path class="st1" d="M873.9,361.71c3.22,0,3.22-5,0-5C870.69,356.71,870.68,361.71,873.9,361.71L873.9,361.71z"/>
	</g>
</g>
<g>
	<path class="st1" d="M924.4,423.55"/>
	<g>
		<path class="st1" d="M924.4,426.05c3.22,0,3.22-5,0-5C921.18,421.05,921.18,426.05,924.4,426.05L924.4,426.05z"/>
	</g>
</g>
<g>
	<path class="st1" d="M738.2,408.23"/>
	<g>
		<path class="st1" d="M738.2,410.73c3.22,0,3.22-5,0-5C734.98,405.73,734.98,410.73,738.2,410.73L738.2,410.73z"/>
	</g>
</g>
<g>
	<path class="st1" d="M813.94,451.12"/>
	<g>
		<path class="st1" d="M813.94,453.62c3.22,0,3.22-5,0-5C810.72,448.62,810.72,453.62,813.94,453.62L813.94,453.62z"/>
	</g>
</g>
<g>
	<path class="st1" d="M750.36,258.5"/>
	<g>
		<path class="st1" d="M750.36,261c3.22,0,3.22-5,0-5C747.14,256,747.14,261,750.36,261L750.36,261z"/>
	</g>
</g>
<g>
	<path class="st1" d="M243.8,61.1"/>
	<g>
		<path class="st1" d="M243.8,63.6c3.22,0,3.22-5,0-5C240.59,58.6,240.58,63.6,243.8,63.6L243.8,63.6z"/>
	</g>
</g>
<g>
	<path class="st1" d="M181.7,457.76"/>
	<g>
		<path class="st1" d="M181.7,460.26c3.22,0,3.22-5,0-5C178.48,455.26,178.48,460.26,181.7,460.26L181.7,460.26z"/>
	</g>
</g>
<g>
	<path class="st1" d="M146.98,356.66"/>
	<g>
		<path class="st1" d="M146.98,359.16c3.22,0,3.22-5,0-5C143.77,354.16,143.76,359.16,146.98,359.16L146.98,359.16z"/>
	</g>
</g>
<g>
	<path class="st1" d="M45.99,76.32"/>
	<g>
		<path class="st1" d="M45.99,78.82c3.22,0,3.22-5,0-5C42.78,73.82,42.77,78.82,45.99,78.82L45.99,78.82z"/>
	</g>
</g>
<g>
	<path class="st1" d="M558.84,175.89"/>
	<g>
		<path class="st1" d="M558.84,178.39c3.22,0,3.22-5,0-5C555.62,173.39,555.61,178.39,558.84,178.39L558.84,178.39z"/>
	</g>
</g>
<g>
	<path class="st1" d="M122.3,145.35"/>
	<g>
		<path class="st1" d="M122.3,147.85c3.22,0,3.22-5,0-5C119.08,142.85,119.08,147.85,122.3,147.85L122.3,147.85z"/>
	</g>
</g>
<g>
	<path class="st1" d="M747.45,136.41"/>
	<g>
		<path class="st1" d="M747.45,138.91c3.22,0,3.22-5,0-5C744.24,133.91,744.23,138.91,747.45,138.91L747.45,138.91z"/>
	</g>
</g>
<g>
	<path class="st1" d="M747.45,70.53"/>
	<g>
		<path class="st1" d="M747.45,73.03c3.22,0,3.22-5,0-5C744.24,68.03,744.23,73.03,747.45,73.03L747.45,73.03z"/>
	</g>
</g>
<g>
	<path class="st1" d="M850.76,479.21"/>
	<g>
		<path class="st1" d="M850.76,481.71c3.22,0,3.22-5,0-5C847.54,476.71,847.54,481.71,850.76,481.71L850.76,481.71z"/>
	</g>
</g>
<g>
	<path class="st1" d="M961.22,517.51"/>
	<g>
		<path class="st1" d="M961.22,520.01c3.22,0,3.22-5,0-5C958,515.01,958,520.01,961.22,520.01L961.22,520.01z"/>
	</g>
</g>
<g>
	<path class="st1" d="M962.8,561.93"/>
	<g>
		<path class="st1" d="M962.8,564.43c3.22,0,3.22-5,0-5C959.58,559.43,959.57,564.43,962.8,564.43L962.8,564.43z"/>
	</g>
</g>
<g>
	<path class="st1" d="M836.83,131.71"/>
	<g>
		<path class="st1" d="M836.83,134.21c3.22,0,3.22-5,0-5C833.62,129.21,833.61,134.21,836.83,134.21L836.83,134.21z"/>
	</g>
</g>
<g>
	<path class="st1" d="M718.67,490.95"/>
	<g>
		<path class="st1" d="M718.67,493.45c3.22,0,3.22-5,0-5C715.45,488.45,715.45,493.45,718.67,493.45L718.67,493.45z"/>
	</g>
</g>
<g>
	<path class="st1" d="M734.45,549.17"/>
	<g>
		<path class="st1" d="M734.45,551.67c3.22,0,3.22-5,0-5C731.23,546.67,731.23,551.67,734.45,551.67L734.45,551.67z"/>
	</g>
</g>
<g>
	<path class="st1" d="M251.59,533.85"/>
	<g>
		<path class="st1" d="M251.59,536.35c3.22,0,3.22-5,0-5C248.37,531.35,248.37,536.35,251.59,536.35L251.59,536.35z"/>
	</g>
</g>
<g>
	<path class="st1" d="M323.13,489.93"/>
	<g>
		<path class="st1" d="M323.13,492.43c3.22,0,3.22-5,0-5C319.91,487.43,319.9,492.43,323.13,492.43L323.13,492.43z"/>
	</g>
</g>
<g>
	<path class="st1" d="M444.63,575.72"/>
	<g>
		<path class="st1" d="M444.63,578.22c3.22,0,3.22-5,0-5C441.41,573.22,441.41,578.22,444.63,578.22L444.63,578.22z"/>
	</g>
</g>
<g>
	<path class="st1" d="M381.51,529.76"/>
	<g>
		<path class="st1" d="M381.51,532.26c3.22,0,3.22-5,0-5C378.29,527.26,378.29,532.26,381.51,532.26L381.51,532.26z"/>
	</g>
</g>
<g>
	<path class="st1" d="M119.11,479.98"/>
	<g>
		<path class="st1" d="M119.11,482.48c3.22,0,3.22-5,0-5C115.89,477.48,115.88,482.48,119.11,482.48L119.11,482.48z"/>
	</g>
</g>
<g>
	<path class="st1" d="M228.55,175.22"/>
	<g>
		<path class="st1" d="M228.55,177.72c3.22,0,3.22-5,0-5C225.33,172.72,225.33,177.72,228.55,177.72L228.55,177.72z"/>
	</g>
</g>
<g>
	<path class="st1" d="M303.73,378.87"/>
	<g>
		<path class="st1" d="M303.73,381.37c3.22,0,3.22-5,0-5C300.51,376.37,300.51,381.37,303.73,381.37L303.73,381.37z"/>
	</g>
</g>
<g>
	<path class="st1" d="M281.94,89.18"/>
	<g>
		<path class="st1" d="M281.94,91.68c3.22,0,3.22-5,0-5C278.72,86.68,278.71,91.68,281.94,91.68L281.94,91.68z"/>
	</g>
</g>
<g>
	<path class="st1" d="M63.61,373.25"/>
	<g>
		<path class="st1" d="M63.61,375.75c3.22,0,3.22-5,0-5C60.4,370.75,60.39,375.75,63.61,375.75L63.61,375.75z"/>
	</g>
</g>
<g>
	<path class="st1" d="M185.38,559.64"/>
	<g>
		<path class="st1" d="M185.38,562.14c3.22,0,3.22-5,0-5C182.16,557.14,182.16,562.14,185.38,562.14L185.38,562.14z"/>
	</g>
</g>
<g>
	<path class="st1" d="M242.71,475.89"/>
	<g>
		<path class="st1" d="M242.71,478.39c3.22,0,3.22-5,0-5C239.5,473.39,239.49,478.39,242.71,478.39L242.71,478.39z"/>
	</g>
</g>
<g>
	<path class="st1" d="M170.13,538.7"/>
	<g>
		<path class="st1" d="M170.13,541.2c3.22,0,3.22-5,0-5C166.91,536.2,166.9,541.2,170.13,541.2L170.13,541.2z"/>
	</g>
</g>
<g>
	<path class="st1" d="M111.74,535.64"/>
	<g>
		<path class="st1" d="M111.74,538.14c3.22,0,3.22-5,0-5C108.53,533.14,108.52,538.14,111.74,538.14L111.74,538.14z"/>
	</g>
</g>
<g>
	<path class="st1" d="M48.62,512.66"/>
	<g>
		<path class="st1" d="M48.62,515.16c3.22,0,3.22-5,0-5C45.41,510.16,45.4,515.16,48.62,515.16L48.62,515.16z"/>
	</g>
</g>
<g>
	<path class="st1" d="M209.58,397.76"/>
	<g>
		<path class="st1" d="M209.58,400.26c3.22,0,3.22-5,0-5C206.36,395.26,206.35,400.26,209.58,400.26L209.58,400.26z"/>
	</g>
</g>
<g>
	<g>
		<path class="st2" d="M195.71,325.82c3.22,0,3.22-5,0-5C192.49,320.82,192.48,325.82,195.71,325.82L195.71,325.82z"/>
	</g>
</g>
<path class="st3" d="M1531.2,570.35H53.59c-7.55,0-13.67-6.12-13.67-13.67V22.7c0-7.55,6.12-13.67,13.67-13.67H1531.2
	c7.55,0,13.67,6.12,13.67,13.67v533.98C1544.87,564.23,1538.75,570.35,1531.2,570.35z"/>
<g>
	<g>
		<path class="st1" d="M561.95,349.07c3.22,0,3.22-5,0-5C558.74,344.07,558.73,349.07,561.95,349.07L561.95,349.07z"/>
	</g>
</g>
<g>
	<g>
		<path class="st1" d="M645.06,83.92c3.22,0,3.22-5,0-5C641.84,78.92,641.83,83.92,645.06,83.92L645.06,83.92z"/>
	</g>
</g>
<g>
	<g>
		<path class="st1" d="M693.81,383.91c3.22,0,3.22-5,0-5C690.59,378.91,690.58,383.91,693.81,383.91L693.81,383.91z"/>
	</g>
</g>
<g>
	<g>
		<path class="st1" d="M219.93,369.66c3.22,0,3.22-5,0-5C216.71,364.66,216.71,369.66,219.93,369.66L219.93,369.66z"/>
	</g>
</g>
<g>
	<g>
		<path class="st1" d="M395.07,8.84c3.22,0,3.22-5,0-5C391.85,3.84,391.85,8.84,395.07,8.84L395.07,8.84z"/>
	</g>
</g>
<g>
	<g>
		<path class="st1" d="M633.62,162.17c3.22,0,3.22-5,0-5C630.41,157.17,630.4,162.17,633.62,162.17L633.62,162.17z"/>
	</g>
</g>
<g>
	<g>
		<path class="st1" d="M794.02,159.01c3.22,0,3.22-5,0-5C790.81,154.01,790.8,159.01,794.02,159.01L794.02,159.01z"/>
	</g>
</g>
<g>
	<g>
		<path class="st1" d="M353.71,502.91c3.22,0,3.22-5,0-5C350.5,497.91,350.49,502.91,353.71,502.91L353.71,502.91z"/>
	</g>
</g>
<g>
	<g>
		<path class="st1" d="M315.28,70.33c3.22,0,3.22-5,0-5C312.07,65.33,312.06,70.33,315.28,70.33L315.28,70.33z"/>
	</g>
</g>
<g>
	<g>
		<path class="st1" d="M486.63,76.39c3.22,0,3.22-5,0-5C483.41,71.39,483.41,76.39,486.63,76.39L486.63,76.39z"/>
	</g>
</g>
<g>
	<g>
		<path class="st1" d="M599.5,225.9c3.22,0,3.22-5,0-5C596.28,220.9,596.27,225.9,599.5,225.9L599.5,225.9z"/>
	</g>
</g>
<g>
	<g>
		<path class="st1" d="M538.92,462.91c3.22,0,3.22-5,0-5C535.71,457.91,535.7,462.91,538.92,462.91L538.92,462.91z"/>
	</g>
</g>
<g>
	<g>
		<path class="st1" d="M259.41,286.79c3.22,0,3.22-5,0-5C256.19,281.79,256.19,286.79,259.41,286.79L259.41,286.79z"/>
	</g>
</g>
<g>
	<g>
		<path class="st1" d="M293.05,409.08c3.22,0,3.22-5,0-5C289.84,404.08,289.83,409.08,293.05,409.08L293.05,409.08z"/>
	</g>
</g>
<g>
	<g>
		<path class="st1" d="M772.82,45.77c3.22,0,3.22-5,0-5C769.6,40.77,769.59,45.77,772.82,45.77L772.82,45.77z"/>
	</g>
</g>
<g>
	<g>
		<path class="st1" d="M814.64,237.41c3.22,0,3.22-5,0-5C811.42,232.41,811.42,237.41,814.64,237.41L814.64,237.41z"/>
	</g>
</g>
<g>
	<g>
		<path class="st1" d="M935.73,200.62c3.22,0,3.22-5,0-5C932.51,195.62,932.51,200.62,935.73,200.62L935.73,200.62z"/>
	</g>
</g>
<g>
	<g>
		<path class="st1" d="M931.43,302.96c3.22,0,3.22-5,0-5C928.21,297.96,928.21,302.96,931.43,302.96L931.43,302.96z"/>
	</g>
</g>
<g>
	<g>
		<path class="st1" d="M783.42,453.21c3.22,0,3.22-5,0-5C780.2,448.21,780.19,453.21,783.42,453.21L783.42,453.21z"/>
	</g>
</g>
<g>
	<g>
		<path class="st1" d="M765.8,345.86c3.22,0,3.22-5,0-5C762.59,340.86,762.58,345.86,765.8,345.86L765.8,345.86z"/>
	</g>
</g>
<g>
	<g>
		<path class="st1" d="M725.55,521.78c3.22,0,3.22-5,0-5C722.33,516.78,722.32,521.78,725.55,521.78L725.55,521.78z"/>
	</g>
</g>
<g>
	<g>
		<path class="st1" d="M955.17,536.18c3.22,0,3.22-5,0-5C951.95,531.18,951.95,536.18,955.17,536.18L955.17,536.18z"/>
	</g>
</g>
<g>
	<g>
		<path class="st1" d="M855.43,566.37c3.22,0,3.22-5,0-5C852.21,561.37,852.2,566.37,855.43,566.37L855.43,566.37z"/>
	</g>
</g>
<g>
	<g>
		<path class="st1" d="M642.36,537.64c3.22,0,3.22-5,0-5C639.15,532.64,639.14,537.64,642.36,537.64L642.36,537.64z"/>
	</g>
</g>
<g>
	<g>
		<path class="st1" d="M886.99,114.3c3.22,0,3.22-5,0-5C883.77,109.3,883.77,114.3,886.99,114.3L886.99,114.3z"/>
	</g>
</g>
<g>
	<g>
		<path class="st1" d="M892.97,462.45c3.22,0,3.22-5,0-5C889.75,457.45,889.75,462.45,892.97,462.45L892.97,462.45z"/>
	</g>
</g>
<g>
	<g>
		<path class="st1" d="M210.42,485.19c3.22,0,3.22-5,0-5C207.2,480.19,207.2,485.19,210.42,485.19L210.42,485.19z"/>
	</g>
</g>
<g>
	<g>
		<path class="st1" d="M449.41,253.43c3.22,0,3.22-5,0-5C446.2,248.43,446.19,253.43,449.41,253.43L449.41,253.43z"/>
	</g>
</g>
<g>
	<g>
		<path class="st1" d="M815.01,339.65c3.22,0,3.22-5,0-5C811.79,334.65,811.78,339.65,815.01,339.65L815.01,339.65z"/>
	</g>
</g>
<g>
	<g>
		<path class="st1" d="M137.61,313.11c3.22,0,3.22-5,0-5C134.39,308.11,134.38,313.11,137.61,313.11L137.61,313.11z"/>
	</g>
</g>
<g>
	<g>
		<path class="st1" d="M119.6,461.47c3.22,0,3.22-5,0-5C116.38,456.47,116.38,461.47,119.6,461.47L119.6,461.47z"/>
	</g>
</g>
<g>
	<g>
		<path class="st1" d="M194.94,119.74c3.22,0,3.22-5,0-5C191.72,114.74,191.71,119.74,194.94,119.74L194.94,119.74z"/>
	</g>
</g>
<g>
	<g>
		<path class="st1" d="M232.82,190.6c3.22,0,3.22-5,0-5C229.6,185.6,229.59,190.6,232.82,190.6L232.82,190.6z"/>
	</g>
</g>
<g>
	<g>
		<path class="st1" d="M133.81,380.35c3.22,0,3.22-5,0-5C130.59,375.35,130.58,380.35,133.81,380.35L133.81,380.35z"/>
	</g>
</g>
<g>
	<g>
		<path class="st1" d="M266.51,24.04c3.22,0,3.22-5,0-5C263.3,19.04,263.29,24.04,266.51,24.04L266.51,24.04z"/>
	</g>
</g>
<g>
	<g>
		<path class="st1" d="M120.21,222.04"/>
		<g>
			<path class="st1" d="M120.21,224.54c3.22,0,3.22-5,0-5C116.99,219.54,116.99,224.54,120.21,224.54L120.21,224.54z"/>
		</g>
	</g>
	<g>
		<path class="st1" d="M169.65,435.63"/>
		<g>
			<path class="st1" d="M169.65,438.13c3.22,0,3.22-5,0-5C166.43,433.13,166.43,438.13,169.65,438.13L169.65,438.13z"/>
		</g>
	</g>
	<g>
		<path class="st1" d="M204.26,330.03"/>
		<g>
			<path class="st1" d="M204.26,332.53c3.22,0,3.22-5,0-5C201.04,327.53,201.03,332.53,204.26,332.53L204.26,332.53z"/>
		</g>
	</g>
	<g>
		<path class="st1" d="M224.03,190.85"/>
		<g>
			<path class="st1" d="M224.03,193.35c3.22,0,3.22-5,0-5C220.81,188.35,220.81,193.35,224.03,193.35L224.03,193.35z"/>
		</g>
	</g>
	<g>
		<path class="st1" d="M151.52,380.83"/>
		<g>
			<path class="st1" d="M151.52,383.33c3.22,0,3.22-5,0-5C148.3,378.33,148.3,383.33,151.52,383.33L151.52,383.33z"/>
		</g>
	</g>
	<g>
		<path class="st1" d="M263.72,377.23"/>
		<g>
			<path class="st1" d="M263.72,379.73c3.22,0,3.22-5,0-5C260.5,374.73,260.5,379.73,263.72,379.73L263.72,379.73z"/>
		</g>
	</g>
	<g>
		<path class="st1" d="M210.85,462.42"/>
		<g>
			<path class="st1" d="M210.85,464.92c3.22,0,3.22-5,0-5C207.63,459.92,207.63,464.92,210.85,464.92L210.85,464.92z"/>
		</g>
	</g>
	<g>
		<path class="st1" d="M251.35,469.62"/>
		<g>
			<path class="st1" d="M251.35,472.12c3.22,0,3.22-5,0-5C248.14,467.12,248.13,472.12,251.35,472.12L251.35,472.12z"/>
		</g>
	</g>
	<g>
		<path class="st1" d="M245.17,300.44"/>
		<g>
			<path class="st1" d="M245.17,302.94c3.22,0,3.22-5,0-5C241.95,297.94,241.95,302.94,245.17,302.94L245.17,302.94z"/>
		</g>
	</g>
	<g>
		<path class="st1" d="M234.04,214.04"/>
		<g>
			<path class="st1" d="M234.04,216.54c3.22,0,3.22-5,0-5C230.82,211.54,230.82,216.54,234.04,216.54L234.04,216.54z"/>
		</g>
	</g>
	<g>
		<path class="st1" d="M231.86,187.65"/>
		<g>
			<path class="st1" d="M231.86,190.15c3.22,0,3.22-5,0-5C228.64,185.15,228.64,190.15,231.86,190.15L231.86,190.15z"/>
		</g>
	</g>
	<g>
		<path class="st1" d="M580.16,255.03"/>
		<g>
			<path class="st1" d="M580.16,257.53c3.22,0,3.22-5,0-5C576.94,252.53,576.94,257.53,580.16,257.53L580.16,257.53z"/>
		</g>
	</g>
	<g>
		<path class="st1" d="M802.64,341.43"/>
		<g>
			<path class="st1" d="M802.64,343.93c3.22,0,3.22-5,0-5C799.42,338.93,799.41,343.93,802.64,343.93L802.64,343.93z"/>
		</g>
	</g>
	<g>
		<path class="st1" d="M508.48,379.82"/>
		<g>
			<path class="st1" d="M508.48,382.32c3.22,0,3.22-5,0-5C505.26,377.32,505.25,382.32,508.48,382.32L508.48,382.32z"/>
		</g>
	</g>
	<g>
		<path class="st1" d="M768.03,264.63"/>
		<g>
			<path class="st1" d="M768.03,267.13c3.22,0,3.22-5,0-5C764.81,262.13,764.81,267.13,768.03,267.13L768.03,267.13z"/>
		</g>
	</g>
	<g>
		<path class="st1" d="M379.93,295.83"/>
		<g>
			<path class="st1" d="M379.93,298.33c3.22,0,3.22-5,0-5C376.72,293.33,376.71,298.33,379.93,298.33L379.93,298.33z"/>
		</g>
	</g>
	<g>
		<path class="st1" d="M686.46,243.04"/>
		<g>
			<path class="st1" d="M686.46,245.54c3.22,0,3.22-5,0-5C683.24,240.54,683.23,245.54,686.46,245.54L686.46,245.54z"/>
		</g>
	</g>
	<g>
		<path class="st1" d="M834.77,197.44"/>
		<g>
			<path class="st1" d="M834.77,199.94c3.22,0,3.22-5,0-5C831.56,194.94,831.55,199.94,834.77,199.94L834.77,199.94z"/>
		</g>
	</g>
	<g>
		<path class="st1" d="M308.71,283.74"/>
		<g>
			<path class="st1" d="M308.71,286.24c3.22,0,3.22-5,0-5C305.49,281.24,305.49,286.24,308.71,286.24L308.71,286.24z"/>
		</g>
	</g>
	<g>
		<path class="st1" d="M263.75,351.03"/>
		<g>
			<path class="st1" d="M263.75,353.53c3.22,0,3.22-5,0-5C260.54,348.53,260.53,353.53,263.75,353.53L263.75,353.53z"/>
		</g>
	</g>
	<g>
		<path class="st1" d="M127.8,276.63"/>
		<g>
			<path class="st1" d="M127.8,279.13c3.22,0,3.22-5,0-5C124.58,274.13,124.57,279.13,127.8,279.13L127.8,279.13z"/>
		</g>
	</g>
	<g>
		<path class="st1" d="M88.24,175.84"/>
		<g>
			<path class="st1" d="M88.24,178.34c3.22,0,3.22-5,0-5C85.03,173.34,85.02,178.34,88.24,178.34L88.24,178.34z"/>
		</g>
	</g>
	<g>
		<path class="st1" d="M644.43,185.44"/>
		<g>
			<path class="st1" d="M644.43,187.94c3.22,0,3.22-5,0-5C641.22,182.94,641.21,187.94,644.43,187.94L644.43,187.94z"/>
		</g>
	</g>
	<g>
		<path class="st1" d="M282.7,277.03"/>
		<g>
			<path class="st1" d="M282.7,279.53c3.22,0,3.22-5,0-5C279.49,274.53,279.48,279.53,282.7,279.53L282.7,279.53z"/>
		</g>
	</g>
	<g>
		<path class="st1" d="M234.5,262.63"/>
		<g>
			<path class="st1" d="M234.5,265.13c3.22,0,3.22-5,0-5C231.28,260.13,231.28,265.13,234.5,265.13L234.5,265.13z"/>
		</g>
	</g>
	<g>
		<path class="st1" d="M171.47,427.02"/>
		<g>
			<path class="st1" d="M171.47,429.52c3.22,0,3.22-5,0-5C168.25,424.52,168.24,429.52,171.47,429.52L171.47,429.52z"/>
		</g>
	</g>
	<g>
		<path class="st1" d="M306.19,353.83"/>
		<g>
			<path class="st1" d="M306.19,356.33c3.22,0,3.22-5,0-5C302.97,351.33,302.97,356.33,306.19,356.33L306.19,356.33z"/>
		</g>
	</g>
	<g>
		<path class="st1" d="M269.11,399.42"/>
		<g>
			<path class="st1" d="M269.11,401.92c3.22,0,3.22-5,0-5C265.89,396.92,265.89,401.92,269.11,401.92L269.11,401.92z"/>
		</g>
	</g>
	<g>
		<path class="st1" d="M774.62,293.83"/>
		<g>
			<path class="st1" d="M774.62,296.33c3.22,0,3.22-5,0-5C771.4,291.33,771.4,296.33,774.62,296.33L774.62,296.33z"/>
		</g>
	</g>
	<g>
		<path class="st1" d="M213.85,485.41"/>
		<g>
			<path class="st1" d="M213.85,487.91c3.22,0,3.22-5,0-5C210.63,482.91,210.63,487.91,213.85,487.91L213.85,487.91z"/>
		</g>
	</g>
	<g>
		<path class="st1" d="M195.72,471.42"/>
		<g>
			<path class="st1" d="M195.72,473.92c3.22,0,3.22-5,0-5C192.51,468.92,192.5,473.92,195.72,473.92L195.72,473.92z"/>
		</g>
	</g>
	<g>
		<path class="st1" d="M184.6,447.42"/>
		<g>
			<path class="st1" d="M184.6,449.92c3.22,0,3.22-5,0-5C181.38,444.92,181.38,449.92,184.6,449.92L184.6,449.92z"/>
		</g>
	</g>
	<g>
		<path class="st1" d="M248.87,493.01"/>
		<g>
			<path class="st1" d="M248.87,495.51c3.22,0,3.22-5,0-5C245.65,490.51,245.65,495.51,248.87,495.51L248.87,495.51z"/>
		</g>
	</g>
	<g>
		<path class="st1" d="M267.41,454.62"/>
		<g>
			<path class="st1" d="M267.41,457.12c3.22,0,3.22-5,0-5C264.19,452.12,264.19,457.12,267.41,457.12L267.41,457.12z"/>
		</g>
	</g>
	<g>
		<path class="st1" d="M350.22,460.62"/>
		<g>
			<path class="st1" d="M350.22,463.12c3.22,0,3.22-5,0-5C347,458.12,347,463.12,350.22,463.12L350.22,463.12z"/>
		</g>
	</g>
	<g>
		<g>
			<path class="st2" d="M130.53,327.82c3.22,0,3.22-5,0-5C127.31,322.82,127.3,327.82,130.53,327.82L130.53,327.82z"/>
		</g>
	</g>
	<g>
		<g>
			<path class="st1" d="M748.68,228.3c3.22,0,3.22-5,0-5C745.47,223.3,745.46,228.3,748.68,228.3L748.68,228.3z"/>
		</g>
	</g>
	<g>
		<g>
			<path class="st1" d="M365.22,265.95c3.22,0,3.22-5,0-5C362,260.95,362,265.95,365.22,265.95L365.22,265.95z"/>
		</g>
	</g>
	<g>
		<g>
			<path class="st1" d="M833.41,200.63c3.22,0,3.22-5,0-5C830.19,195.63,830.18,200.63,833.41,200.63L833.41,200.63z"/>
		</g>
	</g>
	<g>
		<g>
			<path class="st1" d="M268.51,304c3.22,0,3.22-5,0-5C265.29,299,265.29,304,268.51,304L268.51,304z"/>
		</g>
	</g>
	<g>
		<g>
			<path class="st1" d="M753.35,294.86c3.22,0,3.22-5,0-5C750.13,289.86,750.13,294.86,753.35,294.86L753.35,294.86z"/>
		</g>
	</g>
	<g>
		<g>
			<path class="st1" d="M490.42,375.03c3.22,0,3.22-5,0-5C487.2,370.03,487.19,375.03,490.42,375.03L490.42,375.03z"/>
		</g>
	</g>
	<g>
		<g>
			<path class="st1" d="M547.06,372.09c3.22,0,3.22-5,0-5C543.84,367.09,543.84,372.09,547.06,372.09L547.06,372.09z"/>
		</g>
	</g>
	<g>
		<g>
			<path class="st1" d="M366.1,305.07c3.22,0,3.22-5,0-5C362.88,300.07,362.88,305.07,366.1,305.07L366.1,305.07z"/>
		</g>
	</g>
	<g>
		<g>
			<path class="st2" d="M127,204.96c3.22,0,3.22-5,0-5C123.78,199.96,123.78,204.96,127,204.96L127,204.96z"/>
		</g>
	</g>
	<g>
		<g>
			<path class="st2" d="M266.3,217.14c3.22,0,3.22-5,0-5C263.08,212.14,263.08,217.14,266.3,217.14L266.3,217.14z"/>
		</g>
	</g>
	<g>
		<g>
			<path class="st2" d="M107.66,284.26c3.22,0,3.22-5,0-5C104.44,279.26,104.44,284.26,107.66,284.26L107.66,284.26z"/>
		</g>
	</g>
	<g>
		<g>
			<path class="st2" d="M207.04,461.2c3.22,0,3.22-5,0-5C203.82,456.2,203.81,461.2,207.04,461.2L207.04,461.2z"/>
		</g>
	</g>
	<g>
		<g>
			<path class="st2" d="M335.36,413.54c3.22,0,3.22-5,0-5C332.15,408.54,332.14,413.54,335.36,413.54L335.36,413.54z"/>
		</g>
	</g>
	<g>
		<g>
			<path class="st2" d="M153.45,402.88c3.22,0,3.22-5,0-5C150.23,397.88,150.22,402.88,153.45,402.88L153.45,402.88z"/>
		</g>
	</g>
	<path class="st4" d="M144.66,322.84l-38.11,6.76c-1.49,0.26-2.95-0.55-3.53-1.94L49.65,197.22c-0.8-1.94,0.46-4.12,2.55-4.39
		l32.57-4.32c1.39-0.18,2.74,0.56,3.33,1.84l58.91,127.99C147.89,320.25,146.72,322.47,144.66,322.84z"/>
	<line class="st5" x1="138.75" y1="299.57" x2="94.47" y2="307.39"/>
	<line class="st5" x1="127.86" y1="276.81" x2="85.43" y2="284.31"/>
	<line class="st5" x1="117.17" y1="254.02" x2="76" y2="261.3"/>
	<line class="st5" x1="106.65" y1="231.2" x2="66.57" y2="238.29"/>
	<line class="st5" x1="96.34" y1="208.54" x2="57.24" y2="215.27"/>
	<path class="st4" d="M196.9,312.17l-37.82,8.23c-1.47,0.32-2.97-0.43-3.6-1.8L97.11,190.32c-0.87-1.91,0.3-4.13,2.37-4.49
		l32.38-5.57c1.39-0.24,2.76,0.45,3.4,1.71l63.81,125.62C200.03,309.46,198.95,311.72,196.9,312.17z"/>
	<line class="st5" x1="190.1" y1="289.15" x2="146.15" y2="298.68"/>
	<line class="st5" x1="178.34" y1="266.83" x2="136.23" y2="275.96"/>
	<line class="st5" x1="166.78" y1="244.47" x2="125.92" y2="253.33"/>
	<line class="st5" x1="155.38" y1="222.07" x2="115.6" y2="230.7"/>
	<line class="st5" x1="144.2" y1="199.82" x2="105.39" y2="208.06"/>
	<path class="st4" d="M262.86,303.93l-38.11,6.76c-1.49,0.26-2.95-0.55-3.53-1.94l-53.37-130.43c-0.8-1.94,0.46-4.12,2.55-4.39
		l32.57-4.32c1.39-0.18,2.74,0.56,3.33,1.84l58.91,127.99C266.09,301.34,264.93,303.56,262.86,303.93z"/>
	<line class="st5" x1="256.95" y1="280.66" x2="212.67" y2="288.48"/>
	<line class="st5" x1="246.07" y1="257.9" x2="203.63" y2="265.4"/>
	<line class="st5" x1="235.38" y1="235.11" x2="194.21" y2="242.39"/>
	<line class="st5" x1="224.85" y1="212.29" x2="184.77" y2="219.38"/>
	<line class="st5" x1="214.54" y1="189.63" x2="175.44" y2="196.36"/>
	<path class="st4" d="M315.11,293.26l-37.82,8.23c-1.47,0.32-2.97-0.43-3.6-1.8l-58.37-128.27c-0.87-1.91,0.3-4.13,2.37-4.49
		l32.38-5.57c1.39-0.24,2.76,0.45,3.4,1.71l63.81,125.62C318.23,290.55,317.16,292.81,315.11,293.26z"/>
	<line class="st5" x1="308.3" y1="270.24" x2="264.36" y2="279.77"/>
	<line class="st5" x1="296.55" y1="247.92" x2="254.43" y2="257.05"/>
	<line class="st5" x1="284.98" y1="225.56" x2="244.13" y2="234.42"/>
	<line class="st5" x1="273.58" y1="203.16" x2="233.81" y2="211.79"/>
	<line class="st5" x1="262.41" y1="180.91" x2="223.6" y2="189.15"/>
	<path class="st4" d="M228.05,499.15l-38.11,6.76c-1.49,0.26-2.95-0.55-3.53-1.94l-53.37-130.43c-0.8-1.94,0.46-4.12,2.55-4.39
		l32.57-4.32c1.39-0.18,2.74,0.56,3.33,1.84l58.91,127.99C231.27,496.56,230.11,498.78,228.05,499.15z"/>
	<line class="st5" x1="222.14" y1="475.88" x2="177.86" y2="483.71"/>
	<line class="st5" x1="211.25" y1="453.13" x2="168.82" y2="460.62"/>
	<line class="st5" x1="200.56" y1="430.34" x2="159.39" y2="437.61"/>
	<line class="st5" x1="190.03" y1="407.52" x2="149.96" y2="414.6"/>
	<line class="st5" x1="179.73" y1="384.85" x2="140.63" y2="391.58"/>
	<path class="st4" d="M280.29,488.48l-37.82,8.23c-1.47,0.32-2.97-0.43-3.6-1.8L180.5,366.63c-0.87-1.91,0.3-4.13,2.37-4.49
		l32.38-5.57c1.39-0.24,2.76,0.45,3.4,1.71l63.81,125.62C283.42,485.77,282.34,488.04,280.29,488.48z"/>
	<line class="st5" x1="273.49" y1="465.46" x2="229.54" y2="474.99"/>
	<line class="st5" x1="261.73" y1="443.14" x2="219.62" y2="452.27"/>
	<line class="st5" x1="250.17" y1="420.78" x2="209.31" y2="429.64"/>
	<line class="st5" x1="238.77" y1="398.39" x2="198.99" y2="407.01"/>
	<line class="st5" x1="227.59" y1="376.14" x2="188.78" y2="384.37"/>
	<path class="st4" d="M346.25,480.24L308.14,487c-1.49,0.26-2.95-0.55-3.53-1.94l-53.37-130.43c-0.8-1.94,0.46-4.12,2.55-4.39
		l32.57-4.32c1.39-0.18,2.74,0.56,3.33,1.84l58.91,127.99C349.48,477.65,348.32,479.88,346.25,480.24z"/>
	<line class="st5" x1="340.34" y1="456.97" x2="296.06" y2="464.8"/>
	<line class="st5" x1="329.46" y1="434.22" x2="287.02" y2="441.71"/>
	<line class="st5" x1="318.77" y1="411.43" x2="277.6" y2="418.7"/>
	<line class="st5" x1="308.24" y1="388.61" x2="268.16" y2="395.69"/>
	<line class="st5" x1="297.93" y1="365.94" x2="258.83" y2="372.67"/>
	<path class="st4" d="M398.49,469.57l-37.82,8.23c-1.47,0.32-2.97-0.43-3.6-1.8l-58.37-128.27c-0.87-1.91,0.3-4.13,2.37-4.49
		l32.38-5.57c1.39-0.24,2.76,0.45,3.4,1.71l63.81,125.62C401.62,466.86,400.55,469.13,398.49,469.57z"/>
	<line class="st5" x1="391.69" y1="446.55" x2="347.75" y2="456.08"/>
	<line class="st5" x1="379.93" y1="424.23" x2="337.82" y2="433.36"/>
	<line class="st5" x1="368.37" y1="401.87" x2="327.51" y2="410.73"/>
	<line class="st5" x1="422.09" y1="167.13" x2="486.66" y2="160.28"/>
	<line class="st5" x1="356.97" y1="379.48" x2="317.2" y2="388.1"/>
	<line class="st5" x1="345.79" y1="357.23" x2="306.99" y2="365.46"/>
	<path class="st4" d="M420.55,176l-22.02,1.78c-0.04,0-0.07-0.03-0.06-0.07l3.75-18.54c0-0.02,0.02-0.04,0.05-0.04l21.63-2.19
		c0.04,0,0.07,0.03,0.06,0.06l-3.36,18.95C420.6,175.98,420.58,176,420.55,176z"/>
	<path class="st4" d="M448.11,173.22L426.09,175c-0.04,0-0.07-0.03-0.06-0.07l3.75-18.54c0-0.02,0.02-0.04,0.05-0.04l21.63-2.19
		c0.04,0,0.07,0.03,0.06,0.06l-3.36,18.95C448.15,173.2,448.13,173.22,448.11,173.22z"/>
	<path class="st4" d="M479.46,170.19l-22.02,1.78c-0.04,0-0.07-0.03-0.06-0.07l3.75-18.54c0-0.02,0.02-0.04,0.05-0.04l21.63-2.19
		c0.04,0,0.07,0.03,0.06,0.06l-3.36,18.95C479.5,170.17,479.48,170.19,479.46,170.19z"/>
	<path class="st4" d="M507.01,167.41l-22.02,1.78c-0.04,0-0.07-0.03-0.06-0.07l3.75-18.54c0-0.02,0.02-0.04,0.05-0.04l21.63-2.19
		c0.04,0,0.07,0.03,0.06,0.06l-3.36,18.95C507.06,167.39,507.04,167.41,507.01,167.41z"/>
	<path class="st4" d="M900.89,398.94l-52.61,16.68c-1.39,0.44-2.9,0.1-3.97-0.88l-144.49-133.4c-2.44-2.25-1.28-6.32,1.98-6.95
		l46.68-8.94c1.19-0.23,2.42,0.09,3.36,0.87l150.42,125.66C904.72,394.02,903.94,397.97,900.89,398.94z"/>
	<line class="st5" x1="877.28" y1="406.21" x2="723.9" y2="270.85"/>
	<path class="st4" d="M922.79,392.35L767.81,265.04c-1.48-1.21-0.88-3.6,1-3.97l44.43-8.76c0.63-0.12,1.28,0.03,1.8,0.41
		L972.9,371.36c1.43,1.08,1.1,3.31-0.58,3.93l-47.32,17.43C924.25,393.01,923.41,392.86,922.79,392.35z"/>
	<line class="st5" x1="792.1" y1="256.54" x2="950.09" y2="383.13"/>
	<path class="st4" d="M709.78,221.62l-50.71,8.28c-1.34,0.22-2.72-0.23-3.64-1.18L531.81,100.47c-2.09-2.17-0.64-5.47,2.46-5.64
		l44.48-2.41c1.14-0.06,2.26,0.34,3.07,1.1l129.85,122.38C713.79,217.9,712.72,221.14,709.78,221.62z"/>
	<line class="st5" x1="687.04" y1="225.16" x2="555.26" y2="94.28"/>
	<path class="st6" d="M448.33,220.46l-8.84-1.79c-1.13-0.23-1.85-1.33-1.63-2.45l6.76-33.41c0.23-1.13,1.33-1.85,2.45-1.63
		l8.84,1.79c1.13,0.23,1.85,1.33,1.63,2.45l-6.76,33.41C450.56,219.96,449.46,220.69,448.33,220.46z"/>
	<path class="st4" d="M729.46,217.78L595.48,93.51c-1.28-1.18-0.51-3.13,1.28-3.23l42.36-2.5c0.6-0.04,1.2,0.16,1.65,0.54
		L778.2,205.6c1.25,1.06,0.75,2.91-0.88,3.25l-45.82,9.49C730.77,218.49,729.99,218.28,729.46,217.78z"/>
	<line class="st5" x1="618.96" y1="89.02" x2="755.82" y2="213.01"/>
	<path class="st6" d="M569.78,365.48l-0.39,0.35c-4.53,4.07-11.51,3.7-15.58-0.83l-143.3-159.34c-4.07-4.53-3.7-11.51,0.83-15.58
		l0.39-0.35c4.53-4.07,11.51-3.7,15.58,0.83l143.3,159.34C574.68,354.43,574.31,361.41,569.78,365.48z"/>
	<path class="st6" d="M498.38,352.68l-9.76-1.97c-5.03-1.02-8.28-5.92-7.26-10.95l11.93-58.97c1.02-5.03,5.92-8.28,10.95-7.26
		l9.76,1.97c5.03,1.02,8.28,5.92,7.26,10.95l-11.93,58.97C508.31,350.44,503.4,353.69,498.38,352.68z"/>
	<polygon class="st6" points="347.46,260.68 340.03,292.07 346.54,300.53 364,300.83 365.38,266.06 	"/>
	<path class="st6" d="M398.26,275.41c-0.08,0.39-2.93,14.5-2.93,14.5l-35.57,7.9l3.79-16.76"/>
	<path class="st6" d="M823.39,241.97L153.36,362.79c-8.23,1.48-16.11-3.99-17.6-12.22l-0.13-0.71c-1.48-8.23,3.99-16.11,12.22-17.6
		l670.03-120.82c8.23-1.48,16.11,3.99,17.6,12.22l0.13,0.71C837.1,232.61,831.63,240.49,823.39,241.97z"/>
	<path class="st6" d="M496.59,398.38l-11.77-10.06c-1.66-1.42-2.41-3.55-1.97-5.59l3.17-14.52l13.85,10.84"/>
	<path class="st6" d="M380.36,254.93l-30.95,2.94c-1.35,0.13-2.05,1.68-1.25,2.78l14.35,19.74c0.38,0.52,1.01,0.79,1.65,0.71
		l32.57-4.26c1.38-0.18,2.01-1.83,1.1-2.89l-15.96-18.43C381.48,255.1,380.92,254.88,380.36,254.93z"/>
	<polyline class="st6" points="615.34,311.77 610.23,337.02 625.59,351.05 647.14,344.49 652.63,319.32 	"/>
	<path class="st6" d="M680.19,355.02l-2.79,12.84c-0.12,0.57-0.53,1.03-1.08,1.21l-20.27,6.34c-2.84,0.5-0.89-0.6-0.64-1.85
		l2.26-11.17"/>
	<path class="st6" d="M632.51,355.73l22.13,19.59c0.22,0.21,0.85-2.15,0.9-2.45l1.9-12.34c0.02-0.13-0.02-0.26-0.12-0.34
		l-21.24-19.21c-0.22-0.2-0.56-0.08-0.63,0.2l-3.06,14.19C632.37,355.5,632.42,355.64,632.51,355.73z"/>
	<path class="st6" d="M500.58,378.19c0.21,0.04-3.41,19.26-3.41,19.26l140.22-35.8l3.63-16.92"/>
	<path class="st6" d="M656.59,362.09l-19.53-19.62c-1.39-1.39-0.8-3.76,1.08-4.34l19.97-6.19c0.96-0.3,2-0.02,2.68,0.71l18.63,19.93
		c1.32,1.41,0.71,3.72-1.14,4.28l-19.07,5.87C658.29,363.03,657.28,362.78,656.59,362.09z"/>
	<path class="st6" d="M641.07,344.92l-140.38,33.25c-0.06,0.02-0.13,0-0.18-0.04l-13.97-11.47c-0.13-0.11-0.08-0.33,0.09-0.37
		l141.44-32.63c0.06-0.01,0.13,0,0.18,0.04l12.91,10.85C641.29,344.67,641.24,344.88,641.07,344.92z"/>
	<line class="st5" x1="454.55" y1="163.59" x2="450.99" y2="181.67"/>
	<path class="st6" d="M643.01,325.86l-21.36-4.32c-4.4-0.89-7.25-5.18-6.36-9.58l0.08-0.38c0.89-4.4,5.18-7.25,9.58-6.36l21.36,4.32
		c4.4,0.89,7.25,5.18,6.36,9.58l-0.08,0.38C651.7,323.91,647.41,326.75,643.01,325.86z"/>
</g>
<g>
	<path class="st7" d="M1119.65,119.54h-8v45.04h-5.44v-45.04h-8v-4.72h21.44V119.54z"/>
	<path class="st7" d="M1136.77,125.78c4.24,0,6.32,2.08,6.32,6.32v32.48h-5.52v-31.6c0-2.08-0.4-2.48-2.48-2.48h-3.2
		c-1.92,0-2.72,0.72-2.72,2.88v31.2h-5.52v-53.52h5.52v17.36c0.64-1.92,2.24-2.64,4.4-2.64H1136.77z"/>
	<path class="st7" d="M1163.97,125.78c4.24,0,6.32,2.08,6.32,6.32v14.96h-14.48v10.32c0,2.08,0.4,2.48,2.48,2.48h3.76
		c2.08,0,2.48-0.4,2.48-2.48v-3.52h5.52v4.4c0,4.24-2.08,6.32-6.32,6.32h-7.12c-4.24,0-6.32-2.08-6.32-6.32V132.1
		c0-4.24,2.08-6.32,6.32-6.32H1163.97z M1164.77,142.34v-9.36c0-2.08-0.4-2.48-2.48-2.48h-4c-2.08,0-2.48,0.4-2.48,2.48v9.36
		H1164.77z"/>
	<path class="st7" d="M1194.13,114.82v49.76h-5.44v-49.76H1194.13z"/>
	<path class="st7" d="M1216.77,143.78c0-2.08-0.4-2.48-2.48-2.48h-5.44c-4.24,0-6.32-2.08-6.32-6.32v-13.84
		c0-4.24,2.08-6.32,6.32-6.32h7.04c4.24,0,6.32,2.08,6.32,6.32v7.68h-5.52v-6.8c0-2.08-0.4-2.48-2.48-2.48h-3.68
		c-2.08,0-2.48,0.4-2.48,2.48v12.08c0,2.08,0.4,2.48,2.48,2.48h5.44c4.24,0,6.32,2.08,6.32,6.32v15.36c0,4.24-2.08,6.32-6.32,6.32
		h-6.96c-4.24,0-6.32-2.08-6.32-6.32v-7.68h5.52v6.8c0,2.08,0.4,2.48,2.48,2.48h3.6c2.08,0,2.48-0.4,2.48-2.48V143.78z"/>
	<path class="st7" d="M1242.93,143.78c0-2.08-0.4-2.48-2.48-2.48h-5.44c-4.24,0-6.32-2.08-6.32-6.32v-13.84
		c0-4.24,2.08-6.32,6.32-6.32h7.04c4.24,0,6.32,2.08,6.32,6.32v7.68h-5.52v-6.8c0-2.08-0.4-2.48-2.48-2.48h-3.68
		c-2.08,0-2.48,0.4-2.48,2.48v12.08c0,2.08,0.4,2.48,2.48,2.48h5.44c4.24,0,6.32,2.08,6.32,6.32v15.36c0,4.24-2.08,6.32-6.32,6.32
		h-6.96c-4.24,0-6.32-2.08-6.32-6.32v-7.68h5.52v6.8c0,2.08,0.4,2.48,2.48,2.48h3.6c2.08,0,2.48-0.4,2.48-2.48V143.78z"/>
	<path class="st7" d="M1285.65,159.86v4.72h-19.2v-49.76h18.64v4.72h-13.12v16.8h10.72v4.72h-10.72v18.8H1285.65z"/>
	<path class="st7" d="M1311.97,164.58h-5.92l-6.24-14l-6.24,14h-5.92l9.68-19.84l-8.88-18.96h5.92l5.52,13.2l5.36-13.2h5.92
		l-8.88,18.96L1311.97,164.58z"/>
	<path class="st7" d="M1329.09,125.78c4.24,0,6.32,2.08,6.32,6.32v26.16c0,4.24-2.08,6.32-6.32,6.32h-3.2
		c-2.16,0-3.76-0.72-4.4-2.64v13.92h-5.52v-50.08h5.52v2.64c0.64-1.92,2.24-2.64,4.4-2.64H1329.09z M1329.89,132.98
		c0-2.08-0.4-2.48-2.48-2.48h-3.2c-1.92,0-2.72,0.72-2.72,2.88v23.6c0,2.16,0.8,2.88,2.72,2.88h3.2c2.08,0,2.48-0.4,2.48-2.48
		V132.98z"/>
	<path class="st7" d="M1355.17,125.78v4.8h-2.4c-3.52,0-5.04,1.92-5.04,6v28h-5.52v-38.8h5.52v4.48c0.72-2.24,2.64-4.48,5.76-4.48
		H1355.17z"/>
	<path class="st7" d="M1372.84,125.78c4.24,0,6.32,2.08,6.32,6.32v14.96h-14.48v10.32c0,2.08,0.4,2.48,2.48,2.48h3.76
		c2.08,0,2.48-0.4,2.48-2.48v-3.52h5.52v4.4c0,4.24-2.08,6.32-6.32,6.32h-7.12c-4.24,0-6.32-2.08-6.32-6.32V132.1
		c0-4.24,2.08-6.32,6.32-6.32H1372.84z M1373.64,142.34v-9.36c0-2.08-0.4-2.48-2.48-2.48h-4c-2.08,0-2.48,0.4-2.48,2.48v9.36
		H1373.64z"/>
	<path class="st7" d="M1397.48,150.1c0-2.08-0.4-2.48-2.48-2.48h-3.92c-4.24,0-6.32-2.08-6.32-6.32v-9.2c0-4.24,2.08-6.32,6.32-6.32
		h5.44c4.24,0,6.32,2.08,6.32,6.32v3.92h-5.44v-3.12c0-2.08-0.4-2.48-2.48-2.48h-2.24c-2.08,0-2.48,0.4-2.48,2.48v7.6
		c0,2.08,0.4,2.48,2.48,2.48h3.92c4.24,0,6.32,2.08,6.32,6.32v8.96c0,4.24-2.08,6.32-6.32,6.32h-5.36c-4.24,0-6.32-2.08-6.32-6.32
		v-3.92h5.44v3.12c0,2.08,0.4,2.48,2.48,2.48h2.16c2.08,0,2.48-0.4,2.48-2.48V150.1z"/>
	<path class="st7" d="M1421.24,150.1c0-2.08-0.4-2.48-2.48-2.48h-3.92c-4.24,0-6.32-2.08-6.32-6.32v-9.2c0-4.24,2.08-6.32,6.32-6.32
		h5.44c4.24,0,6.32,2.08,6.32,6.32v3.92h-5.44v-3.12c0-2.08-0.4-2.48-2.48-2.48h-2.24c-2.08,0-2.48,0.4-2.48,2.48v7.6
		c0,2.08,0.4,2.48,2.48,2.48h3.92c4.24,0,6.32,2.08,6.32,6.32v8.96c0,4.24-2.08,6.32-6.32,6.32H1415c-4.24,0-6.32-2.08-6.32-6.32
		v-3.92h5.44v3.12c0,2.08,0.4,2.48,2.48,2.48h2.16c2.08,0,2.48-0.4,2.48-2.48V150.1z"/>
	<path class="st7" d="M1127.89,233.27h-4v22.52h-2.72v-22.52h-4v-2.36h10.72V233.27z"/>
	<path class="st7" d="M1136.45,236.39c2.12,0,3.16,1.04,3.16,3.16v16.24h-2.76v-15.8c0-1.04-0.2-1.24-1.24-1.24h-1.6
		c-0.96,0-1.36,0.36-1.36,1.44v15.6h-2.76v-26.76h2.76v8.68c0.32-0.96,1.12-1.32,2.2-1.32H1136.45z"/>
	<path class="st7" d="M1143.13,228.99h2.92v3.24h-2.92V228.99z M1143.21,255.78v-19.4h2.76v19.4H1143.21z"/>
	<path class="st7" d="M1155.53,248.54c0-1.04-0.2-1.24-1.24-1.24h-1.96c-2.12,0-3.16-1.04-3.16-3.16v-4.6
		c0-2.12,1.04-3.16,3.16-3.16h2.72c2.12,0,3.16,1.04,3.16,3.16v1.96h-2.72v-1.56c0-1.04-0.2-1.24-1.24-1.24h-1.12
		c-1.04,0-1.24,0.2-1.24,1.24v3.8c0,1.04,0.2,1.24,1.24,1.24h1.96c2.12,0,3.16,1.04,3.16,3.16v4.48c0,2.12-1.04,3.16-3.16,3.16
		h-2.68c-2.12,0-3.16-1.04-3.16-3.16v-1.96h2.72v1.56c0,1.04,0.2,1.24,1.24,1.24h1.08c1.04,0,1.24-0.2,1.24-1.24V248.54z"/>
	<path class="st7" d="M1174.89,232.75l-6.44,23.04h-2.72l6.2-22.52h-6.88v-2.36h9.84V232.75z"/>
	<path class="st7" d="M1177.29,242.95h7.84v2.32h-7.84V242.95z"/>
	<path class="st7" d="M1198.69,229.03v26.76h-2.76v-1.32c-0.32,0.96-1.12,1.32-2.2,1.32h-1.6c-2.12,0-3.16-1.04-3.16-3.16v-13.12
		c0-2.12,1.04-3.16,3.16-3.16h1.6c1.08,0,1.88,0.36,2.2,1.32v-8.64H1198.69z M1194.57,253.42c0.96,0,1.36-0.36,1.36-1.44v-11.84
		c0-1.08-0.4-1.44-1.36-1.44h-1.6c-1.04,0-1.24,0.2-1.24,1.24v12.24c0,1.04,0.2,1.24,1.24,1.24H1194.57z"/>
	<path class="st7" d="M1211.81,236.39v19.4h-2.76v-1.32c-0.32,0.96-1.12,1.32-2.2,1.32h-1.6c-2.12,0-3.16-1.04-3.16-3.16v-13.08
		c0-2.12,1.04-3.16,3.16-3.16h1.6c1.08,0,1.88,0.36,2.2,1.32v-1.32H1211.81z M1207.69,253.42c0.96,0,1.36-0.36,1.36-1.44v-11.8
		c0-1.08-0.4-1.44-1.36-1.44h-1.6c-1.04,0-1.24,0.2-1.24,1.24v12.2c0,1.04,0.2,1.24,1.24,1.24H1207.69z"/>
	<path class="st7" d="M1216.77,236.39l3.12,17.48l2.92-17.48h2.76l-3.88,21.88c-0.4,2.08-1.68,3.16-3.8,3.16h-2.16v-2.36h1.32
		c1.04,0,1.76-0.24,2-1.24l0.48-2.04h-1.8l-3.72-19.4H1216.77z"/>
	<path class="st7" d="M1243,229.03v26.76h-2.76v-17.04h-4.2v17.04h-2.76v-17.04h-1.92v-2.36h1.92v-4.2c0-2.12,1.04-3.16,3.16-3.16
		h1.68v2.56h-0.84c-1.04,0-1.24,0.2-1.24,1.24v3.56h4.2v-7.36H1243z"/>
	<path class="st7" d="M1246.52,228.99h2.92v3.24h-2.92V228.99z M1246.6,255.78v-19.4h2.76v19.4H1246.6z"/>
	<path class="st7" d="M1262.48,236.39v21.88c0,2.12-1.04,3.16-3.16,3.16h-5.96v-2.36h5.12c1.04,0,1.24-0.2,1.24-1.24v-3.36
		c-0.32,0.96-1.12,1.32-2.2,1.32h-1.6c-2.12,0-3.16-1.04-3.16-3.16v-13.08c0-2.12,1.04-3.16,3.16-3.16h1.6
		c1.08,0,1.88,0.36,2.2,1.32v-1.32H1262.48z M1258.36,253.42c0.96,0,1.36-0.36,1.36-1.44v-11.8c0-1.08-0.4-1.44-1.36-1.44h-1.6
		c-1.04,0-1.24,0.2-1.24,1.24v12.2c0,1.04,0.2,1.24,1.24,1.24H1258.36z"/>
	<path class="st7" d="M1272.64,236.39c2.12,0,3.16,1.04,3.16,3.16v16.24h-2.76v-15.8c0-1.04-0.2-1.24-1.24-1.24h-1.6
		c-0.96,0-1.36,0.36-1.36,1.44v15.6h-2.76v-26.76h2.76v8.68c0.32-0.96,1.12-1.32,2.2-1.32H1272.64z"/>
	<path class="st7" d="M1282.32,238.75v13.24c0,1.04,0.2,1.24,1.24,1.24h1.52v2.56h-2.36c-2.12,0-3.16-1.04-3.16-3.16v-13.88h-1.76
		v-2.36h1.76v-3.16h2.76v3.16h2.76v2.36H1282.32z"/>
	<path class="st7" d="M1299.32,236.39c2.12,0,3.16,1.04,3.16,3.16v7.48h-7.24v5.16c0,1.04,0.2,1.24,1.24,1.24h1.88
		c1.04,0,1.24-0.2,1.24-1.24v-1.76h2.76v2.2c0,2.12-1.04,3.16-3.16,3.16h-3.56c-2.12,0-3.16-1.04-3.16-3.16v-13.08
		c0-2.12,1.04-3.16,3.16-3.16H1299.32z M1299.72,244.67v-4.68c0-1.04-0.2-1.24-1.24-1.24h-2c-1.04,0-1.24,0.2-1.24,1.24v4.68
		H1299.72z"/>
	<path class="st7" d="M1316.24,255.78h-2.96l-3.12-7l-3.12,7h-2.96l4.84-9.92l-4.44-9.48h2.96l2.76,6.6l2.68-6.6h2.96l-4.44,9.48
		L1316.24,255.78z"/>
	<path class="st7" d="M1324.8,236.39c2.12,0,3.16,1.04,3.16,3.16v13.08c0,2.12-1.04,3.16-3.16,3.16h-1.6c-1.08,0-1.88-0.36-2.2-1.32
		v6.96h-2.76v-25.04h2.76v1.32c0.32-0.96,1.12-1.32,2.2-1.32H1324.8z M1325.2,239.99c0-1.04-0.2-1.24-1.24-1.24h-1.6
		c-0.96,0-1.36,0.36-1.36,1.44v11.8c0,1.08,0.4,1.44,1.36,1.44h1.6c1.04,0,1.24-0.2,1.24-1.24V239.99z"/>
	<path class="st7" d="M1338.2,236.39c2.12,0,3.16,1.04,3.16,3.16v7.48h-7.24v5.16c0,1.04,0.2,1.24,1.24,1.24h1.88
		c1.04,0,1.24-0.2,1.24-1.24v-1.76h2.76v2.2c0,2.12-1.04,3.16-3.16,3.16h-3.56c-2.12,0-3.16-1.04-3.16-3.16v-13.08
		c0-2.12,1.04-3.16,3.16-3.16H1338.2z M1338.6,244.67v-4.68c0-1.04-0.2-1.24-1.24-1.24h-2c-1.04,0-1.24,0.2-1.24,1.24v4.68H1338.6z"
		/>
	<path class="st7" d="M1351.04,236.39v2.4h-1.2c-1.76,0-2.52,0.96-2.52,3v14h-2.76v-19.4h2.76v2.24c0.36-1.12,1.32-2.24,2.88-2.24
		H1351.04z"/>
	<path class="st7" d="M1352.96,228.99h2.92v3.24h-2.92V228.99z M1353.04,255.78v-19.4h2.76v19.4H1353.04z"/>
	<path class="st7" d="M1366.24,236.39c2.12,0,3.16,1.04,3.16,3.16v7.48h-7.24v5.16c0,1.04,0.2,1.24,1.24,1.24h1.88
		c1.04,0,1.24-0.2,1.24-1.24v-1.76h2.76v2.2c0,2.12-1.04,3.16-3.16,3.16h-3.56c-2.12,0-3.16-1.04-3.16-3.16v-13.08
		c0-2.12,1.04-3.16,3.16-3.16H1366.24z M1366.64,244.67v-4.68c0-1.04-0.2-1.24-1.24-1.24h-2c-1.04,0-1.24,0.2-1.24,1.24v4.68
		H1366.64z"/>
	<path class="st7" d="M1379.16,236.39c2.12,0,3.16,1.04,3.16,3.16v16.24h-2.76v-15.8c0-1.04-0.2-1.24-1.24-1.24h-1.6
		c-0.96,0-1.36,0.36-1.36,1.44v15.6h-2.76v-19.4h2.76v1.32c0.32-0.96,1.12-1.32,2.2-1.32H1379.16z"/>
	<path class="st7" d="M1392.96,242.15v-2.16c0-1.04-0.2-1.24-1.24-1.24h-2c-1.04,0-1.24,0.2-1.24,1.24v12.2
		c0,1.04,0.2,1.24,1.24,1.24h2c1.04,0,1.24-0.2,1.24-1.24v-2.16h2.76v2.6c0,2.12-1.04,3.16-3.16,3.16h-3.68
		c-2.12,0-3.16-1.04-3.16-3.16v-13.08c0-2.12,1.04-3.16,3.16-3.16h3.68c2.12,0,3.16,1.04,3.16,3.16v2.6H1392.96z"/>
	<path class="st7" d="M1405.75,236.39c2.12,0,3.16,1.04,3.16,3.16v7.48h-7.24v5.16c0,1.04,0.2,1.24,1.24,1.24h1.88
		c1.04,0,1.24-0.2,1.24-1.24v-1.76h2.76v2.2c0,2.12-1.04,3.16-3.16,3.16h-3.56c-2.12,0-3.16-1.04-3.16-3.16v-13.08
		c0-2.12,1.04-3.16,3.16-3.16H1405.75z M1406.15,244.67v-4.68c0-1.04-0.2-1.24-1.24-1.24h-2c-1.04,0-1.24,0.2-1.24,1.24v4.68
		H1406.15z"/>
	<path class="st7" d="M1035.71,272.15h0.64v2.28l-0.56,0.04c-4.44,0.32-5.64,6.88-5.64,15.6v2.92c0,8.72,1.2,15.28,5.64,15.6
		l0.56,0.04v2.28h-0.64c-5.72,0-8.24-6.56-8.24-17.96v-2.84C1027.47,278.71,1029.99,272.15,1035.71,272.15z"/>
	<path class="st7" d="M1044.03,278.91c2.12,0,3.16,1.04,3.16,3.16v18.56c0,2.12-1.04,3.16-3.16,3.16h-3.92
		c-2.12,0-3.16-1.04-3.16-3.16v-4.68h2.72v4.24c0,1.04,0.2,1.24,1.24,1.24h2.28c1.04,0,1.24-0.2,1.24-1.24v-6.76h-4.36
		c-2.12,0-3.16-1.04-3.16-3.16v-8.2c0-2.12,1.04-3.16,3.16-3.16H1044.03z M1044.43,291.07v-8.56c0-1.04-0.2-1.24-1.24-1.24h-2.28
		c-1.04,0-1.24,0.2-1.24,1.24v7.32c0,1.04,0.2,1.24,1.24,1.24H1044.43z"/>
	<path class="st7" d="M1065.71,277.03v26.76h-2.76v-1.32c-0.32,0.96-1.12,1.32-2.2,1.32h-1.6c-2.12,0-3.16-1.04-3.16-3.16v-13.12
		c0-2.12,1.04-3.16,3.16-3.16h1.6c1.08,0,1.88,0.36,2.2,1.32v-8.64H1065.71z M1061.59,301.42c0.96,0,1.36-0.36,1.36-1.44v-11.84
		c0-1.08-0.4-1.44-1.36-1.44h-1.6c-1.04,0-1.24,0.2-1.24,1.24v12.24c0,1.04,0.2,1.24,1.24,1.24H1061.59z"/>
	<path class="st7" d="M1078.83,284.39v19.4h-2.76v-1.32c-0.32,0.96-1.12,1.32-2.2,1.32h-1.6c-2.12,0-3.16-1.04-3.16-3.16v-13.08
		c0-2.12,1.04-3.16,3.16-3.16h1.6c1.08,0,1.88,0.36,2.2,1.32v-1.32H1078.83z M1074.71,301.42c0.96,0,1.36-0.36,1.36-1.44v-11.8
		c0-1.08-0.4-1.44-1.36-1.44h-1.6c-1.04,0-1.24,0.2-1.24,1.24v12.2c0,1.04,0.2,1.24,1.24,1.24H1074.71z"/>
	<path class="st7" d="M1083.79,284.39l3.12,17.48l2.92-17.48h2.76l-3.88,21.88c-0.4,2.08-1.68,3.16-3.8,3.16h-2.16v-2.36h1.32
		c1.04,0,1.76-0.24,2-1.24l0.48-2.04h-1.8l-3.72-19.4H1083.79z"/>
	<path class="st7" d="M1100.75,296.54c0-1.04-0.2-1.24-1.24-1.24h-1.96c-2.12,0-3.16-1.04-3.16-3.16v-4.6
		c0-2.12,1.04-3.16,3.16-3.16h2.72c2.12,0,3.16,1.04,3.16,3.16v1.96h-2.72v-1.56c0-1.04-0.2-1.24-1.24-1.24h-1.12
		c-1.04,0-1.24,0.2-1.24,1.24v3.8c0,1.04,0.2,1.24,1.24,1.24h1.96c2.12,0,3.16,1.04,3.16,3.16v4.48c0,2.12-1.04,3.16-3.16,3.16
		h-2.68c-2.12,0-3.16-1.04-3.16-3.16v-1.96h2.72v1.56c0,1.04,0.2,1.24,1.24,1.24h1.08c1.04,0,1.24-0.2,1.24-1.24V296.54z"/>
	<path class="st7" d="M1130.15,284.39l-3.44,19.4h-4.2l-2.32-15.56l-2.28,15.56h-4.2l-3.44-19.4h2.64l2.88,17.48l2.52-17.48h3.8
		l2.48,17.48l2.92-17.48H1130.15z"/>
	<path class="st7" d="M1132.07,276.99h2.92v3.24h-2.92V276.99z M1132.15,303.78v-19.4h2.76v19.4H1132.15z"/>
	<path class="st7" d="M1141.43,286.75v13.24c0,1.04,0.2,1.24,1.24,1.24h1.52v2.56h-2.36c-2.12,0-3.16-1.04-3.16-3.16v-13.88h-1.76
		v-2.36h1.76v-3.16h2.76v3.16h2.76v2.36H1141.43z"/>
	<path class="st7" d="M1152.95,284.39c2.12,0,3.16,1.04,3.16,3.16v16.24h-2.76v-15.8c0-1.04-0.2-1.24-1.24-1.24h-1.6
		c-0.96,0-1.36,0.36-1.36,1.44v15.6h-2.76v-26.76h2.76v8.68c0.32-0.96,1.12-1.32,2.2-1.32H1152.95z"/>
	<path class="st7" d="M1167.83,286.75v13.24c0,1.04,0.2,1.24,1.24,1.24h1.52v2.56h-2.36c-2.12,0-3.16-1.04-3.16-3.16v-13.88h-1.76
		v-2.36h1.76v-3.16h2.76v3.16h2.76v2.36H1167.83z"/>
	<path class="st7" d="M1179.35,284.39c2.12,0,3.16,1.04,3.16,3.16v16.24h-2.76v-15.8c0-1.04-0.2-1.24-1.24-1.24h-1.6
		c-0.96,0-1.36,0.36-1.36,1.44v15.6h-2.76v-26.76h2.76v8.68c0.32-0.96,1.12-1.32,2.2-1.32H1179.35z"/>
	<path class="st7" d="M1192.95,284.39c2.12,0,3.16,1.04,3.16,3.16v7.48h-7.24v5.16c0,1.04,0.2,1.24,1.24,1.24h1.88
		c1.04,0,1.24-0.2,1.24-1.24v-1.76h2.76v2.2c0,2.12-1.04,3.16-3.16,3.16h-3.56c-2.12,0-3.16-1.04-3.16-3.16v-13.08
		c0-2.12,1.04-3.16,3.16-3.16H1192.95z M1193.34,292.67v-4.68c0-1.04-0.2-1.24-1.24-1.24h-2c-1.04,0-1.24,0.2-1.24,1.24v4.68
		H1193.34z"/>
	<path class="st7" d="M1214.02,284.39v19.4h-2.76v-1.32c-0.32,0.96-1.12,1.32-2.2,1.32h-1.6c-2.12,0-3.16-1.04-3.16-3.16v-13.08
		c0-2.12,1.04-3.16,3.16-3.16h1.6c1.08,0,1.88,0.36,2.2,1.32v-1.32H1214.02z M1209.9,301.42c0.96,0,1.36-0.36,1.36-1.44v-11.8
		c0-1.08-0.4-1.44-1.36-1.44h-1.6c-1.04,0-1.24,0.2-1.24,1.24v12.2c0,1.04,0.2,1.24,1.24,1.24H1209.9z"/>
	<path class="st7" d="M1217.62,303.78v-26.76h2.76v26.76H1217.62z"/>
	<path class="st7" d="M1223.98,303.78v-26.76h2.76v26.76H1223.98z"/>
	<path class="st7" d="M1237.38,284.39c2.12,0,3.16,1.04,3.16,3.16v13.08c0,2.12-1.04,3.16-3.16,3.16h-4.08
		c-2.12,0-3.16-1.04-3.16-3.16v-13.08c0-2.12,1.04-3.16,3.16-3.16H1237.38z M1237.82,287.99c0-1.04-0.2-1.24-1.24-1.24h-2.48
		c-1.04,0-1.24,0.2-1.24,1.24v12.2c0,1.04,0.2,1.24,1.24,1.24h2.48c1.04,0,1.24-0.2,1.24-1.24V287.99z"/>
	<path class="st7" d="M1246.86,286.75v13.24c0,1.04,0.2,1.24,1.24,1.24h1.52v2.56h-2.36c-2.12,0-3.16-1.04-3.16-3.16v-13.88h-1.76
		v-2.36h1.76v-3.16h2.76v3.16h2.76v2.36H1246.86z"/>
	<path class="st7" d="M1254.74,286.75v13.24c0,1.04,0.2,1.24,1.24,1.24h1.52v2.56h-2.36c-2.12,0-3.16-1.04-3.16-3.16v-13.88h-1.76
		v-2.36h1.76v-3.16h2.76v3.16h2.76v2.36H1254.74z"/>
	<path class="st7" d="M1266.54,284.39c2.12,0,3.16,1.04,3.16,3.16v7.48h-7.24v5.16c0,1.04,0.2,1.24,1.24,1.24h1.88
		c1.04,0,1.24-0.2,1.24-1.24v-1.76h2.76v2.2c0,2.12-1.04,3.16-3.16,3.16h-3.56c-2.12,0-3.16-1.04-3.16-3.16v-13.08
		c0-2.12,1.04-3.16,3.16-3.16H1266.54z M1266.94,292.67v-4.68c0-1.04-0.2-1.24-1.24-1.24h-2c-1.04,0-1.24,0.2-1.24,1.24v4.68
		H1266.94z"/>
	<path class="st7" d="M1282.42,277.03v26.76h-2.76v-1.32c-0.32,0.96-1.12,1.32-2.2,1.32h-1.6c-2.12,0-3.16-1.04-3.16-3.16v-13.12
		c0-2.12,1.04-3.16,3.16-3.16h1.6c1.08,0,1.88,0.36,2.2,1.32v-8.64H1282.42z M1278.3,301.42c0.96,0,1.36-0.36,1.36-1.44v-11.84
		c0-1.08-0.4-1.44-1.36-1.44h-1.6c-1.04,0-1.24,0.2-1.24,1.24v12.24c0,1.04,0.2,1.24,1.24,1.24H1278.3z"/>
	<path class="st7" d="M1293.14,286.91h-2.72v-4.84c0-2.12,1.04-3.16,3.16-3.16h3.08c2.12,0,3.16,1.04,3.16,3.16v2.2
		c0,1.96-0.24,3.32-1.04,5.2l-5.48,11.96h6.72v2.36h-9.56v-2.32l5.68-12.44c0.72-1.68,0.92-3,0.92-4.92v-1.6
		c0-1.04-0.2-1.24-1.24-1.24h-1.44c-1.04,0-1.24,0.2-1.24,1.24V286.91z"/>
	<path class="st7" d="M1314.5,284.39v2.4h-1.2c-1.76,0-2.52,0.96-2.52,3v14h-2.76v-19.4h2.76v2.24c0.36-1.12,1.32-2.24,2.88-2.24
		H1314.5z"/>
	<path class="st7" d="M1323.34,284.39c2.12,0,3.16,1.04,3.16,3.16v7.48h-7.24v5.16c0,1.04,0.2,1.24,1.24,1.24h1.88
		c1.04,0,1.24-0.2,1.24-1.24v-1.76h2.76v2.2c0,2.12-1.04,3.16-3.16,3.16h-3.56c-2.12,0-3.16-1.04-3.16-3.16v-13.08
		c0-2.12,1.04-3.16,3.16-3.16H1323.34z M1323.74,292.67v-4.68c0-1.04-0.2-1.24-1.24-1.24h-2c-1.04,0-1.24,0.2-1.24,1.24v4.68
		H1323.74z"/>
	<path class="st7" d="M1332.62,286.75v13.24c0,1.04,0.2,1.24,1.24,1.24h1.52v2.56h-2.36c-2.12,0-3.16-1.04-3.16-3.16v-13.88h-1.76
		v-2.36h1.76v-3.16h2.76v3.16h2.76v2.36H1332.62z"/>
	<path class="st7" d="M1347.29,284.39v19.4h-2.76v-1.32c-0.32,0.96-1.12,1.32-2.2,1.32h-1.6c-2.12,0-3.16-1.04-3.16-3.16v-16.24
		h2.76v15.8c0,1.04,0.2,1.24,1.24,1.24h1.6c0.96,0,1.36-0.36,1.36-1.44v-15.6H1347.29z"/>
	<path class="st7" d="M1357.38,284.39v2.4h-1.2c-1.76,0-2.52,0.96-2.52,3v14h-2.76v-19.4h2.76v2.24c0.36-1.12,1.32-2.24,2.88-2.24
		H1357.38z"/>
	<path class="st7" d="M1365.93,284.39c2.12,0,3.16,1.04,3.16,3.16v16.24h-2.76v-15.8c0-1.04-0.2-1.24-1.24-1.24h-1.6
		c-0.96,0-1.36,0.36-1.36,1.44v15.6h-2.76v-19.4h2.76v1.32c0.32-0.96,1.12-1.32,2.2-1.32H1365.93z"/>
	<path class="st7" d="M1380.81,286.75v13.24c0,1.04,0.2,1.24,1.24,1.24h1.52v2.56h-2.36c-2.12,0-3.16-1.04-3.16-3.16v-13.88h-1.76
		v-2.36h1.76v-3.16h2.76v3.16h2.76v2.36H1380.81z"/>
	<path class="st7" d="M1392.25,284.39v2.4h-1.2c-1.76,0-2.52,0.96-2.52,3v14h-2.76v-19.4h2.76v2.24c0.36-1.12,1.32-2.24,2.88-2.24
		H1392.25z"/>
	<path class="st7" d="M1403.77,284.39v19.4h-2.76v-1.32c-0.32,0.96-1.12,1.32-2.2,1.32h-1.6c-2.12,0-3.16-1.04-3.16-3.16v-13.08
		c0-2.12,1.04-3.16,3.16-3.16h1.6c1.08,0,1.88,0.36,2.2,1.32v-1.32H1403.77z M1399.65,301.42c0.96,0,1.36-0.36,1.36-1.44v-11.8
		c0-1.08-0.4-1.44-1.36-1.44h-1.6c-1.04,0-1.24,0.2-1.24,1.24v12.2c0,1.04,0.2,1.24,1.24,1.24H1399.65z"/>
	<path class="st7" d="M1411.13,301.86l2.64-17.48h2.76l-3.2,19.4h-4.36l-3.2-19.4h2.76L1411.13,301.86z"/>
	<path class="st7" d="M1425.37,284.39c2.12,0,3.16,1.04,3.16,3.16v7.48h-7.24v5.16c0,1.04,0.2,1.24,1.24,1.24h1.88
		c1.04,0,1.24-0.2,1.24-1.24v-1.76h2.76v2.2c0,2.12-1.04,3.16-3.16,3.16h-3.56c-2.12,0-3.16-1.04-3.16-3.16v-13.08
		c0-2.12,1.04-3.16,3.16-3.16H1425.37z M1425.77,292.67v-4.68c0-1.04-0.2-1.24-1.24-1.24h-2c-1.04,0-1.24,0.2-1.24,1.24v4.68
		H1425.77z"/>
	<path class="st7" d="M1431.73,303.78v-26.76h2.76v26.76H1431.73z"/>
	<path class="st7" d="M1452.81,277.03v26.76h-2.76v-1.32c-0.32,0.96-1.12,1.32-2.2,1.32h-1.6c-2.12,0-3.16-1.04-3.16-3.16v-13.12
		c0-2.12,1.04-3.16,3.16-3.16h1.6c1.08,0,1.88,0.36,2.2,1.32v-8.64H1452.81z M1448.69,301.42c0.96,0,1.36-0.36,1.36-1.44v-11.84
		c0-1.08-0.4-1.44-1.36-1.44h-1.6c-1.04,0-1.24,0.2-1.24,1.24v12.24c0,1.04,0.2,1.24,1.24,1.24H1448.69z"/>
	<path class="st7" d="M1465.93,284.39v19.4h-2.76v-1.32c-0.32,0.96-1.12,1.32-2.2,1.32h-1.6c-2.12,0-3.16-1.04-3.16-3.16v-13.08
		c0-2.12,1.04-3.16,3.16-3.16h1.6c1.08,0,1.88,0.36,2.2,1.32v-1.32H1465.93z M1461.81,301.42c0.96,0,1.36-0.36,1.36-1.44v-11.8
		c0-1.08-0.4-1.44-1.36-1.44h-1.6c-1.04,0-1.24,0.2-1.24,1.24v12.2c0,1.04,0.2,1.24,1.24,1.24H1461.81z"/>
	<path class="st7" d="M1470.89,284.39l3.12,17.48l2.92-17.48h2.76l-3.88,21.88c-0.4,2.08-1.68,3.16-3.8,3.16h-2.16v-2.36h1.32
		c1.04,0,1.76-0.24,2-1.24l0.48-2.04h-1.8l-3.72-19.4H1470.89z"/>
	<path class="st7" d="M1487.85,296.54c0-1.04-0.2-1.24-1.24-1.24h-1.96c-2.12,0-3.16-1.04-3.16-3.16v-4.6
		c0-2.12,1.04-3.16,3.16-3.16h2.72c2.12,0,3.16,1.04,3.16,3.16v1.96h-2.72v-1.56c0-1.04-0.2-1.24-1.24-1.24h-1.12
		c-1.04,0-1.24,0.2-1.24,1.24v3.8c0,1.04,0.2,1.24,1.24,1.24h1.96c2.12,0,3.16,1.04,3.16,3.16v4.48c0,2.12-1.04,3.16-3.16,3.16
		h-2.68c-2.12,0-3.16-1.04-3.16-3.16v-1.96h2.72v1.56c0,1.04,0.2,1.24,1.24,1.24h1.08c1.04,0,1.24-0.2,1.24-1.24V296.54z"/>
	<path class="st7" d="M1491.45,310.9h-0.64v-2.28l0.56-0.04c4.44-0.32,5.64-6.88,5.64-15.6v-2.92c0-8.72-1.2-15.28-5.64-15.6
		l-0.56-0.04v-2.28h0.64c5.72,0,8.24,6.56,8.24,17.96v2.84C1499.69,304.34,1497.17,310.9,1491.45,310.9z"/>
	<path class="st7" d="M1071.07,332.39v19.4h-2.76v-1.32c-0.32,0.96-1.12,1.32-2.2,1.32h-1.6c-2.12,0-3.16-1.04-3.16-3.16v-13.08
		c0-2.12,1.04-3.16,3.16-3.16h1.6c1.08,0,1.88,0.36,2.2,1.32v-1.32H1071.07z M1066.95,349.42c0.96,0,1.36-0.36,1.36-1.44v-11.8
		c0-1.08-0.4-1.44-1.36-1.44h-1.6c-1.04,0-1.24,0.2-1.24,1.24v12.2c0,1.04,0.2,1.24,1.24,1.24H1066.95z"/>
	<path class="st7" d="M1074.67,351.78v-26.76h2.76v26.76H1074.67z"/>
	<path class="st7" d="M1081.03,351.78v-26.76h2.76v26.76H1081.03z"/>
	<path class="st7" d="M1094.43,332.39c2.12,0,3.16,1.04,3.16,3.16v13.08c0,2.12-1.04,3.16-3.16,3.16h-4.08
		c-2.12,0-3.16-1.04-3.16-3.16v-13.08c0-2.12,1.04-3.16,3.16-3.16H1094.43z M1094.87,335.99c0-1.04-0.2-1.24-1.24-1.24h-2.48
		c-1.04,0-1.24,0.2-1.24,1.24v12.2c0,1.04,0.2,1.24,1.24,1.24h2.48c1.04,0,1.24-0.2,1.24-1.24V335.99z"/>
	<path class="st7" d="M1119.27,332.39l-3.44,19.4h-4.2l-2.32-15.56l-2.28,15.56h-4.2l-3.44-19.4h2.64l2.88,17.48l2.52-17.48h3.8
		l2.48,17.48l2.92-17.48H1119.27z"/>
	<path class="st7" d="M1127.23,344.54c0-1.04-0.2-1.24-1.24-1.24h-1.96c-2.12,0-3.16-1.04-3.16-3.16v-4.6
		c0-2.12,1.04-3.16,3.16-3.16h2.72c2.12,0,3.16,1.04,3.16,3.16v1.96h-2.72v-1.56c0-1.04-0.2-1.24-1.24-1.24h-1.12
		c-1.04,0-1.24,0.2-1.24,1.24v3.8c0,1.04,0.2,1.24,1.24,1.24h1.96c2.12,0,3.16,1.04,3.16,3.16v4.48c0,2.12-1.04,3.16-3.16,3.16
		h-2.68c-2.12,0-3.16-1.04-3.16-3.16v-1.96h2.72v1.56c0,1.04,0.2,1.24,1.24,1.24h1.08c1.04,0,1.24-0.2,1.24-1.24V344.54z"/>
	<path class="st7" d="M1138.27,324.99h2.92v3.24h-2.92V324.99z M1138.35,351.78v-19.4h2.76v19.4H1138.35z"/>
	<path class="st7" d="M1151.27,332.39c2.12,0,3.16,1.04,3.16,3.16v16.24h-2.76v-15.8c0-1.04-0.2-1.24-1.24-1.24h-1.6
		c-0.96,0-1.36,0.36-1.36,1.44v15.6h-2.76v-19.4h2.76v1.32c0.32-0.96,1.12-1.32,2.2-1.32H1151.27z"/>
	<path class="st7" d="M1167.55,325.03v26.76h-2.76v-1.32c-0.32,0.96-1.12,1.32-2.2,1.32h-1.6c-2.12,0-3.16-1.04-3.16-3.16v-13.12
		c0-2.12,1.04-3.16,3.16-3.16h1.6c1.08,0,1.88,0.36,2.2,1.32v-8.64H1167.55z M1163.43,349.42c0.96,0,1.36-0.36,1.36-1.44v-11.84
		c0-1.08-0.4-1.44-1.36-1.44h-1.6c-1.04,0-1.24,0.2-1.24,1.24v12.24c0,1.04,0.2,1.24,1.24,1.24H1163.43z"/>
	<path class="st7" d="M1171.07,324.99h2.92v3.24h-2.92V324.99z M1171.15,351.78v-19.4h2.76v19.4H1171.15z"/>
	<path class="st7" d="M1181.27,349.86l2.64-17.48h2.76l-3.2,19.4h-4.36l-3.2-19.4h2.76L1181.27,349.86z"/>
	<path class="st7" d="M1188.59,324.99h2.92v3.24h-2.92V324.99z M1188.67,351.78v-19.4h2.76v19.4H1188.67z"/>
	<path class="st7" d="M1204.54,325.03v26.76h-2.76v-1.32c-0.32,0.96-1.12,1.32-2.2,1.32h-1.6c-2.12,0-3.16-1.04-3.16-3.16v-13.12
		c0-2.12,1.04-3.16,3.16-3.16h1.6c1.08,0,1.88,0.36,2.2,1.32v-8.64H1204.54z M1200.43,349.42c0.96,0,1.36-0.36,1.36-1.44v-11.84
		c0-1.08-0.4-1.44-1.36-1.44h-1.6c-1.04,0-1.24,0.2-1.24,1.24v12.24c0,1.04,0.2,1.24,1.24,1.24H1200.43z"/>
	<path class="st7" d="M1217.86,332.39v19.4h-2.76v-1.32c-0.32,0.96-1.12,1.32-2.2,1.32h-1.6c-2.12,0-3.16-1.04-3.16-3.16v-16.24
		h2.76v15.8c0,1.04,0.2,1.24,1.24,1.24h1.6c0.96,0,1.36-0.36,1.36-1.44v-15.6H1217.86z"/>
	<path class="st7" d="M1230.98,332.39v19.4h-2.76v-1.32c-0.32,0.96-1.12,1.32-2.2,1.32h-1.6c-2.12,0-3.16-1.04-3.16-3.16v-13.08
		c0-2.12,1.04-3.16,3.16-3.16h1.6c1.08,0,1.88,0.36,2.2,1.32v-1.32H1230.98z M1226.86,349.42c0.96,0,1.36-0.36,1.36-1.44v-11.8
		c0-1.08-0.4-1.44-1.36-1.44h-1.6c-1.04,0-1.24,0.2-1.24,1.24v12.2c0,1.04,0.2,1.24,1.24,1.24H1226.86z"/>
	<path class="st7" d="M1234.58,351.78v-26.76h2.76v26.76H1234.58z"/>
	<path class="st7" d="M1246.9,344.54c0-1.04-0.2-1.24-1.24-1.24h-1.96c-2.12,0-3.16-1.04-3.16-3.16v-4.6c0-2.12,1.04-3.16,3.16-3.16
		h2.72c2.12,0,3.16,1.04,3.16,3.16v1.96h-2.72v-1.56c0-1.04-0.2-1.24-1.24-1.24h-1.12c-1.04,0-1.24,0.2-1.24,1.24v3.8
		c0,1.04,0.2,1.24,1.24,1.24h1.96c2.12,0,3.16,1.04,3.16,3.16v4.48c0,2.12-1.04,3.16-3.16,3.16h-2.68c-2.12,0-3.16-1.04-3.16-3.16
		v-1.96h2.72v1.56c0,1.04,0.2,1.24,1.24,1.24h1.08c1.04,0,1.24-0.2,1.24-1.24V344.54z"/>
	<path class="st7" d="M1260.94,334.75v13.24c0,1.04,0.2,1.24,1.24,1.24h1.52v2.56h-2.36c-2.12,0-3.16-1.04-3.16-3.16v-13.88h-1.76
		v-2.36h1.76v-3.16h2.76v3.16h2.76v2.36H1260.94z"/>
	<path class="st7" d="M1272.94,332.39c2.12,0,3.16,1.04,3.16,3.16v13.08c0,2.12-1.04,3.16-3.16,3.16h-4.08
		c-2.12,0-3.16-1.04-3.16-3.16v-13.08c0-2.12,1.04-3.16,3.16-3.16H1272.94z M1273.38,335.99c0-1.04-0.2-1.24-1.24-1.24h-2.48
		c-1.04,0-1.24,0.2-1.24,1.24v12.2c0,1.04,0.2,1.24,1.24,1.24h2.48c1.04,0,1.24-0.2,1.24-1.24V335.99z"/>
	<path class="st7" d="M1294.22,332.39v21.88c0,2.12-1.04,3.16-3.16,3.16h-5.96v-2.36h5.12c1.04,0,1.24-0.2,1.24-1.24v-3.36
		c-0.32,0.96-1.12,1.32-2.2,1.32h-1.6c-2.12,0-3.16-1.04-3.16-3.16v-13.08c0-2.12,1.04-3.16,3.16-3.16h1.6
		c1.08,0,1.88,0.36,2.2,1.32v-1.32H1294.22z M1290.1,349.42c0.96,0,1.36-0.36,1.36-1.44v-11.8c0-1.08-0.4-1.44-1.36-1.44h-1.6
		c-1.04,0-1.24,0.2-1.24,1.24v12.2c0,1.04,0.2,1.24,1.24,1.24H1290.1z"/>
	<path class="st7" d="M1304.66,332.39c2.12,0,3.16,1.04,3.16,3.16v7.48h-7.24v5.16c0,1.04,0.2,1.24,1.24,1.24h1.88
		c1.04,0,1.24-0.2,1.24-1.24v-1.76h2.76v2.2c0,2.12-1.04,3.16-3.16,3.16h-3.56c-2.12,0-3.16-1.04-3.16-3.16v-13.08
		c0-2.12,1.04-3.16,3.16-3.16H1304.66z M1305.06,340.67v-4.68c0-1.04-0.2-1.24-1.24-1.24h-2c-1.04,0-1.24,0.2-1.24,1.24v4.68
		H1305.06z"/>
	<path class="st7" d="M1313.94,334.75v13.24c0,1.04,0.2,1.24,1.24,1.24h1.52v2.56h-2.36c-2.12,0-3.16-1.04-3.16-3.16v-13.88h-1.76
		v-2.36h1.76v-3.16h2.76v3.16h2.76v2.36H1313.94z"/>
	<path class="st7" d="M1327.02,334.75v13.24c0,1.04,0.2,1.24,1.24,1.24h1.52v2.56h-2.36c-2.12,0-3.16-1.04-3.16-3.16v-13.88h-1.76
		v-2.36h1.76v-3.16h2.76v3.16h2.76v2.36H1327.02z"/>
	<path class="st7" d="M1338.54,332.39c2.12,0,3.16,1.04,3.16,3.16v16.24h-2.76v-15.8c0-1.04-0.2-1.24-1.24-1.24h-1.6
		c-0.96,0-1.36,0.36-1.36,1.44v15.6h-2.76v-26.76h2.76v8.68c0.32-0.96,1.12-1.32,2.2-1.32H1338.54z"/>
	<path class="st7" d="M1352.14,332.39c2.12,0,3.16,1.04,3.16,3.16v7.48h-7.24v5.16c0,1.04,0.2,1.24,1.24,1.24h1.88
		c1.04,0,1.24-0.2,1.24-1.24v-1.76h2.76v2.2c0,2.12-1.04,3.16-3.16,3.16h-3.56c-2.12,0-3.16-1.04-3.16-3.16v-13.08
		c0-2.12,1.04-3.16,3.16-3.16H1352.14z M1352.54,340.67v-4.68c0-1.04-0.2-1.24-1.24-1.24h-2c-1.04,0-1.24,0.2-1.24,1.24v4.68
		H1352.54z"/>
	<path class="st7" d="M1370.74,338.15v-2.16c0-1.04-0.2-1.24-1.24-1.24h-2c-1.04,0-1.24,0.2-1.24,1.24v12.2
		c0,1.04,0.2,1.24,1.24,1.24h2c1.04,0,1.24-0.2,1.24-1.24v-2.16h2.76v2.6c0,2.12-1.04,3.16-3.16,3.16h-3.68
		c-2.12,0-3.16-1.04-3.16-3.16v-13.08c0-2.12,1.04-3.16,3.16-3.16h3.68c2.12,0,3.16,1.04,3.16,3.16v2.6H1370.74z"/>
	<path class="st7" d="M1383.26,332.39c2.12,0,3.16,1.04,3.16,3.16v16.24h-2.76v-15.8c0-1.04-0.2-1.24-1.24-1.24h-1.6
		c-0.96,0-1.36,0.36-1.36,1.44v15.6h-2.76v-26.76h2.76v8.68c0.32-0.96,1.12-1.32,2.2-1.32H1383.26z"/>
	<path class="st7" d="M1399.54,332.39v19.4h-2.76v-1.32c-0.32,0.96-1.12,1.32-2.2,1.32h-1.6c-2.12,0-3.16-1.04-3.16-3.16v-13.08
		c0-2.12,1.04-3.16,3.16-3.16h1.6c1.08,0,1.88,0.36,2.2,1.32v-1.32H1399.54z M1395.42,349.42c0.96,0,1.36-0.36,1.36-1.44v-11.8
		c0-1.08-0.4-1.44-1.36-1.44h-1.6c-1.04,0-1.24,0.2-1.24,1.24v12.2c0,1.04,0.2,1.24,1.24,1.24H1395.42z"/>
	<path class="st7" d="M1409.69,332.39c2.12,0,3.16,1.04,3.16,3.16v16.24h-2.76v-15.8c0-1.04-0.2-1.24-1.24-1.24h-1.6
		c-0.96,0-1.36,0.36-1.36,1.44v15.6h-2.76v-19.4h2.76v1.32c0.32-0.96,1.12-1.32,2.2-1.32H1409.69z"/>
	<path class="st7" d="M1423.49,338.15v-2.16c0-1.04-0.2-1.24-1.24-1.24h-2c-1.04,0-1.24,0.2-1.24,1.24v12.2
		c0,1.04,0.2,1.24,1.24,1.24h2c1.04,0,1.24-0.2,1.24-1.24v-2.16h2.76v2.6c0,2.12-1.04,3.16-3.16,3.16h-3.68
		c-2.12,0-3.16-1.04-3.16-3.16v-13.08c0-2.12,1.04-3.16,3.16-3.16h3.68c2.12,0,3.16,1.04,3.16,3.16v2.6H1423.49z"/>
	<path class="st7" d="M1436.29,332.39c2.12,0,3.16,1.04,3.16,3.16v7.48h-7.24v5.16c0,1.04,0.2,1.24,1.24,1.24h1.88
		c1.04,0,1.24-0.2,1.24-1.24v-1.76h2.76v2.2c0,2.12-1.04,3.16-3.16,3.16h-3.56c-2.12,0-3.16-1.04-3.16-3.16v-13.08
		c0-2.12,1.04-3.16,3.16-3.16H1436.29z M1436.69,340.67v-4.68c0-1.04-0.2-1.24-1.24-1.24h-2c-1.04,0-1.24,0.2-1.24,1.24v4.68
		H1436.69z"/>
	<path class="st7" d="M1450.77,334.75v13.24c0,1.04,0.2,1.24,1.24,1.24h1.52v2.56h-2.36c-2.12,0-3.16-1.04-3.16-3.16v-13.88h-1.76
		v-2.36h1.76v-3.16h2.76v3.16h2.76v2.36H1450.77z"/>
	<path class="st7" d="M1462.77,332.39c2.12,0,3.16,1.04,3.16,3.16v13.08c0,2.12-1.04,3.16-3.16,3.16h-4.08
		c-2.12,0-3.16-1.04-3.16-3.16v-13.08c0-2.12,1.04-3.16,3.16-3.16H1462.77z M1463.21,335.99c0-1.04-0.2-1.24-1.24-1.24h-2.48
		c-1.04,0-1.24,0.2-1.24,1.24v12.2c0,1.04,0.2,1.24,1.24,1.24h2.48c1.04,0,1.24-0.2,1.24-1.24V335.99z"/>
	<path class="st7" d="M1064.57,386.15v-2.16c0-1.04-0.2-1.24-1.24-1.24h-2c-1.04,0-1.24,0.2-1.24,1.24v12.2
		c0,1.04,0.2,1.24,1.24,1.24h2c1.04,0,1.24-0.2,1.24-1.24v-2.16h2.76v2.6c0,2.12-1.04,3.16-3.16,3.16h-3.68
		c-2.12,0-3.16-1.04-3.16-3.16v-13.08c0-2.12,1.04-3.16,3.16-3.16h3.68c2.12,0,3.16,1.04,3.16,3.16v2.6H1064.57z"/>
	<path class="st7" d="M1077.57,380.39c2.12,0,3.16,1.04,3.16,3.16v13.08c0,2.12-1.04,3.16-3.16,3.16h-4.08
		c-2.12,0-3.16-1.04-3.16-3.16v-13.08c0-2.12,1.04-3.16,3.16-3.16H1077.57z M1078.01,383.99c0-1.04-0.2-1.24-1.24-1.24h-2.48
		c-1.04,0-1.24,0.2-1.24,1.24v12.2c0,1.04,0.2,1.24,1.24,1.24h2.48c1.04,0,1.24-0.2,1.24-1.24V383.99z"/>
	<path class="st7" d="M1097.65,380.39c2.12,0,3.16,1.04,3.16,3.16v16.24h-2.76v-15.8c0-1.04-0.2-1.24-1.24-1.24h-1.6
		c-0.96,0-1.36,0.36-1.36,1.44v15.6h-2.76v-15.8c0-1.04-0.2-1.24-1.24-1.24h-1.6c-0.96,0-1.36,0.36-1.36,1.44v15.6h-2.76v-19.4h2.76
		v1.32c0.32-0.96,1.12-1.32,2.2-1.32h1.6c1.52,0,2.48,0.52,2.92,1.6c0.28-1.16,1.2-1.6,2.44-1.6H1097.65z"/>
	<path class="st7" d="M1110.77,380.39c2.12,0,3.16,1.04,3.16,3.16v13.08c0,2.12-1.04,3.16-3.16,3.16h-1.6
		c-1.08,0-1.88-0.36-2.2-1.32v6.96h-2.76v-25.04h2.76v1.32c0.32-0.96,1.12-1.32,2.2-1.32H1110.77z M1111.17,383.99
		c0-1.04-0.2-1.24-1.24-1.24h-1.6c-0.96,0-1.36,0.36-1.36,1.44v11.8c0,1.08,0.4,1.44,1.36,1.44h1.6c1.04,0,1.24-0.2,1.24-1.24
		V383.99z"/>
	<path class="st7" d="M1117.33,399.78v-26.76h2.76v26.76H1117.33z"/>
	<path class="st7" d="M1130.53,380.39c2.12,0,3.16,1.04,3.16,3.16v7.48h-7.24v5.16c0,1.04,0.2,1.24,1.24,1.24h1.88
		c1.04,0,1.24-0.2,1.24-1.24v-1.76h2.76v2.2c0,2.12-1.04,3.16-3.16,3.16h-3.56c-2.12,0-3.16-1.04-3.16-3.16v-13.08
		c0-2.12,1.04-3.16,3.16-3.16H1130.53z M1130.93,388.67v-4.68c0-1.04-0.2-1.24-1.24-1.24h-2c-1.04,0-1.24,0.2-1.24,1.24v4.68
		H1130.93z"/>
	<path class="st7" d="M1139.81,382.75v13.24c0,1.04,0.2,1.24,1.24,1.24h1.52v2.56h-2.36c-2.12,0-3.16-1.04-3.16-3.16v-13.88h-1.76
		v-2.36h1.76v-3.16h2.76v3.16h2.76v2.36H1139.81z"/>
	<path class="st7" d="M1151.61,380.39c2.12,0,3.16,1.04,3.16,3.16v7.48h-7.24v5.16c0,1.04,0.2,1.24,1.24,1.24h1.88
		c1.04,0,1.24-0.2,1.24-1.24v-1.76h2.76v2.2c0,2.12-1.04,3.16-3.16,3.16h-3.56c-2.12,0-3.16-1.04-3.16-3.16v-13.08
		c0-2.12,1.04-3.16,3.16-3.16H1151.61z M1152.01,388.67v-4.68c0-1.04-0.2-1.24-1.24-1.24h-2c-1.04,0-1.24,0.2-1.24,1.24v4.68
		H1152.01z"/>
	<path class="st7" d="M1172.69,380.39v19.4h-2.76v-1.32c-0.32,0.96-1.12,1.32-2.2,1.32h-1.6c-2.12,0-3.16-1.04-3.16-3.16v-13.08
		c0-2.12,1.04-3.16,3.16-3.16h1.6c1.08,0,1.88,0.36,2.2,1.32v-1.32H1172.69z M1168.57,397.42c0.96,0,1.36-0.36,1.36-1.44v-11.8
		c0-1.08-0.4-1.44-1.36-1.44h-1.6c-1.04,0-1.24,0.2-1.24,1.24v12.2c0,1.04,0.2,1.24,1.24,1.24H1168.57z"/>
	<path class="st7" d="M1187.45,392.54c0-1.04-0.2-1.24-1.24-1.24h-1.96c-2.12,0-3.16-1.04-3.16-3.16v-4.6
		c0-2.12,1.04-3.16,3.16-3.16h2.72c2.12,0,3.16,1.04,3.16,3.16v1.96h-2.72v-1.56c0-1.04-0.2-1.24-1.24-1.24h-1.12
		c-1.04,0-1.24,0.2-1.24,1.24v3.8c0,1.04,0.2,1.24,1.24,1.24h1.96c2.12,0,3.16,1.04,3.16,3.16v4.48c0,2.12-1.04,3.16-3.16,3.16
		h-2.68c-2.12,0-3.16-1.04-3.16-3.16v-1.96h2.72v1.56c0,1.04,0.2,1.24,1.24,1.24h1.08c1.04,0,1.24-0.2,1.24-1.24V392.54z"/>
	<path class="st7" d="M1199.92,380.39c2.12,0,3.16,1.04,3.16,3.16v13.08c0,2.12-1.04,3.16-3.16,3.16h-1.6
		c-1.08,0-1.88-0.36-2.2-1.32v6.96h-2.76v-25.04h2.76v1.32c0.32-0.96,1.12-1.32,2.2-1.32H1199.92z M1200.33,383.99
		c0-1.04-0.2-1.24-1.24-1.24h-1.6c-0.96,0-1.36,0.36-1.36,1.44v11.8c0,1.08,0.4,1.44,1.36,1.44h1.6c1.04,0,1.24-0.2,1.24-1.24
		V383.99z"/>
	<path class="st7" d="M1216,380.39v19.4h-2.76v-1.32c-0.32,0.96-1.12,1.32-2.2,1.32h-1.6c-2.12,0-3.16-1.04-3.16-3.16v-13.08
		c0-2.12,1.04-3.16,3.16-3.16h1.6c1.08,0,1.88,0.36,2.2,1.32v-1.32H1216z M1211.88,397.42c0.96,0,1.36-0.36,1.36-1.44v-11.8
		c0-1.08-0.4-1.44-1.36-1.44h-1.6c-1.04,0-1.24,0.2-1.24,1.24v12.2c0,1.04,0.2,1.24,1.24,1.24H1211.88z"/>
	<path class="st7" d="M1226.64,386.15v-2.16c0-1.04-0.2-1.24-1.24-1.24h-2c-1.04,0-1.24,0.2-1.24,1.24v12.2
		c0,1.04,0.2,1.24,1.24,1.24h2c1.04,0,1.24-0.2,1.24-1.24v-2.16h2.76v2.6c0,2.12-1.04,3.16-3.16,3.16h-3.68
		c-2.12,0-3.16-1.04-3.16-3.16v-13.08c0-2.12,1.04-3.16,3.16-3.16h3.68c2.12,0,3.16,1.04,3.16,3.16v2.6H1226.64z"/>
	<path class="st7" d="M1239.44,380.39c2.12,0,3.16,1.04,3.16,3.16v7.48h-7.24v5.16c0,1.04,0.2,1.24,1.24,1.24h1.88
		c1.04,0,1.24-0.2,1.24-1.24v-1.76h2.76v2.2c0,2.12-1.04,3.16-3.16,3.16h-3.56c-2.12,0-3.16-1.04-3.16-3.16v-13.08
		c0-2.12,1.04-3.16,3.16-3.16H1239.44z M1239.84,388.67v-4.68c0-1.04-0.2-1.24-1.24-1.24h-2c-1.04,0-1.24,0.2-1.24,1.24v4.68
		H1239.84z"/>
	<path class="st7" d="M1269.28,380.39l-3.44,19.4h-4.2l-2.32-15.56l-2.28,15.56h-4.2l-3.44-19.4h2.64l2.88,17.48l2.52-17.48h3.8
		l2.48,17.48l2.92-17.48H1269.28z"/>
	<path class="st7" d="M1280.8,380.39v19.4h-2.76v-1.32c-0.32,0.96-1.12,1.32-2.2,1.32h-1.6c-2.12,0-3.16-1.04-3.16-3.16v-13.08
		c0-2.12,1.04-3.16,3.16-3.16h1.6c1.08,0,1.88,0.36,2.2,1.32v-1.32H1280.8z M1276.68,397.42c0.96,0,1.36-0.36,1.36-1.44v-11.8
		c0-1.08-0.4-1.44-1.36-1.44h-1.6c-1.04,0-1.24,0.2-1.24,1.24v12.2c0,1.04,0.2,1.24,1.24,1.24H1276.68z"/>
	<path class="st7" d="M1284.4,399.78v-26.76h2.76v26.76H1284.4z"/>
	<path class="st7" d="M1290.76,373.03h2.76v26.76h-2.76V373.03z M1297.24,389.55l4.52,10.24h-2.96l-4.4-10.24l4.4-9.16h2.96
		L1297.24,389.55z"/>
	<path class="st7" d="M1318.48,380.39v19.4h-2.76v-1.32c-0.32,0.96-1.12,1.32-2.2,1.32h-1.6c-2.12,0-3.16-1.04-3.16-3.16v-13.08
		c0-2.12,1.04-3.16,3.16-3.16h1.6c1.08,0,1.88,0.36,2.2,1.32v-1.32H1318.48z M1314.36,397.42c0.96,0,1.36-0.36,1.36-1.44v-11.8
		c0-1.08-0.4-1.44-1.36-1.44h-1.6c-1.04,0-1.24,0.2-1.24,1.24v12.2c0,1.04,0.2,1.24,1.24,1.24H1314.36z"/>
	<path class="st7" d="M1328.64,380.39c2.12,0,3.16,1.04,3.16,3.16v16.24h-2.76v-15.8c0-1.04-0.2-1.24-1.24-1.24h-1.6
		c-0.96,0-1.36,0.36-1.36,1.44v15.6h-2.76v-19.4h2.76v1.32c0.32-0.96,1.12-1.32,2.2-1.32H1328.64z"/>
	<path class="st7" d="M1344.92,373.03v26.76h-2.76v-1.32c-0.32,0.96-1.12,1.32-2.2,1.32h-1.6c-2.12,0-3.16-1.04-3.16-3.16v-13.12
		c0-2.12,1.04-3.16,3.16-3.16h1.6c1.08,0,1.88,0.36,2.2,1.32v-8.64H1344.92z M1340.8,397.42c0.96,0,1.36-0.36,1.36-1.44v-11.84
		c0-1.08-0.4-1.44-1.36-1.44h-1.6c-1.04,0-1.24,0.2-1.24,1.24v12.24c0,1.04,0.2,1.24,1.24,1.24H1340.8z"/>
	<path class="st7" d="M1360.56,380.39c2.12,0,3.16,1.04,3.16,3.16v7.48h-7.24v5.16c0,1.04,0.2,1.24,1.24,1.24h1.88
		c1.04,0,1.24-0.2,1.24-1.24v-1.76h2.76v2.2c0,2.12-1.04,3.16-3.16,3.16h-3.56c-2.12,0-3.16-1.04-3.16-3.16v-13.08
		c0-2.12,1.04-3.16,3.16-3.16H1360.56z M1360.96,388.67v-4.68c0-1.04-0.2-1.24-1.24-1.24h-2c-1.04,0-1.24,0.2-1.24,1.24v4.68
		H1360.96z"/>
	<path class="st7" d="M1377.47,399.78h-2.96l-3.12-7l-3.12,7h-2.96l4.84-9.92l-4.44-9.48h2.96l2.76,6.6l2.68-6.6h2.96l-4.44,9.48
		L1377.47,399.78z"/>
	<path class="st7" d="M1386.03,380.39c2.12,0,3.16,1.04,3.16,3.16v13.08c0,2.12-1.04,3.16-3.16,3.16h-1.6
		c-1.08,0-1.88-0.36-2.2-1.32v6.96h-2.76v-25.04h2.76v1.32c0.32-0.96,1.12-1.32,2.2-1.32H1386.03z M1386.43,383.99
		c0-1.04-0.2-1.24-1.24-1.24h-1.6c-0.96,0-1.36,0.36-1.36,1.44v11.8c0,1.08,0.4,1.44,1.36,1.44h1.6c1.04,0,1.24-0.2,1.24-1.24
		V383.99z"/>
	<path class="st7" d="M1399.43,380.39c2.12,0,3.16,1.04,3.16,3.16v7.48h-7.24v5.16c0,1.04,0.2,1.24,1.24,1.24h1.88
		c1.04,0,1.24-0.2,1.24-1.24v-1.76h2.76v2.2c0,2.12-1.04,3.16-3.16,3.16h-3.56c-2.12,0-3.16-1.04-3.16-3.16v-13.08
		c0-2.12,1.04-3.16,3.16-3.16H1399.43z M1399.83,388.67v-4.68c0-1.04-0.2-1.24-1.24-1.24h-2c-1.04,0-1.24,0.2-1.24,1.24v4.68
		H1399.83z"/>
	<path class="st7" d="M1412.27,380.39v2.4h-1.2c-1.76,0-2.52,0.96-2.52,3v14h-2.76v-19.4h2.76v2.24c0.36-1.12,1.32-2.24,2.88-2.24
		H1412.27z"/>
	<path class="st7" d="M1414.19,372.99h2.92v3.24h-2.92V372.99z M1414.27,399.78v-19.4h2.76v19.4H1414.27z"/>
	<path class="st7" d="M1427.47,380.39c2.12,0,3.16,1.04,3.16,3.16v7.48h-7.24v5.16c0,1.04,0.2,1.24,1.24,1.24h1.88
		c1.04,0,1.24-0.2,1.24-1.24v-1.76h2.76v2.2c0,2.12-1.04,3.16-3.16,3.16h-3.56c-2.12,0-3.16-1.04-3.16-3.16v-13.08
		c0-2.12,1.04-3.16,3.16-3.16H1427.47z M1427.87,388.67v-4.68c0-1.04-0.2-1.24-1.24-1.24h-2c-1.04,0-1.24,0.2-1.24,1.24v4.68
		H1427.87z"/>
	<path class="st7" d="M1440.39,380.39c2.12,0,3.16,1.04,3.16,3.16v16.24h-2.76v-15.8c0-1.04-0.2-1.24-1.24-1.24h-1.6
		c-0.96,0-1.36,0.36-1.36,1.44v15.6h-2.76v-19.4h2.76v1.32c0.32-0.96,1.12-1.32,2.2-1.32H1440.39z"/>
	<path class="st7" d="M1454.19,386.15v-2.16c0-1.04-0.2-1.24-1.24-1.24h-2c-1.04,0-1.24,0.2-1.24,1.24v12.2
		c0,1.04,0.2,1.24,1.24,1.24h2c1.04,0,1.24-0.2,1.24-1.24v-2.16h2.76v2.6c0,2.12-1.04,3.16-3.16,3.16h-3.68
		c-2.12,0-3.16-1.04-3.16-3.16v-13.08c0-2.12,1.04-3.16,3.16-3.16h3.68c2.12,0,3.16,1.04,3.16,3.16v2.6H1454.19z"/>
	<path class="st7" d="M1466.99,380.39c2.12,0,3.16,1.04,3.16,3.16v7.48h-7.24v5.16c0,1.04,0.2,1.24,1.24,1.24h1.88
		c1.04,0,1.24-0.2,1.24-1.24v-1.76h2.76v2.2c0,2.12-1.04,3.16-3.16,3.16h-3.56c-2.12,0-3.16-1.04-3.16-3.16v-13.08
		c0-2.12,1.04-3.16,3.16-3.16H1466.99z M1467.39,388.67v-4.68c0-1.04-0.2-1.24-1.24-1.24h-2c-1.04,0-1.24,0.2-1.24,1.24v4.68
		H1467.39z"/>
	<path class="st7" d="M1097.49,430.75v13.24c0,1.04,0.2,1.24,1.24,1.24h1.52v2.56h-2.36c-2.12,0-3.16-1.04-3.16-3.16v-13.88h-1.76
		v-2.36h1.76v-3.16h2.76v3.16h2.76v2.36H1097.49z"/>
	<path class="st7" d="M1109.01,428.39c2.12,0,3.16,1.04,3.16,3.16v16.24h-2.76v-15.8c0-1.04-0.2-1.24-1.24-1.24h-1.6
		c-0.96,0-1.36,0.36-1.36,1.44v15.6h-2.76v-26.76h2.76v8.68c0.32-0.96,1.12-1.32,2.2-1.32H1109.01z"/>
	<path class="st7" d="M1122.25,428.39v2.4h-1.2c-1.76,0-2.52,0.96-2.52,3v14h-2.76v-19.4h2.76v2.24c0.36-1.12,1.32-2.24,2.88-2.24
		H1122.25z"/>
	<path class="st7" d="M1131.09,428.39c2.12,0,3.16,1.04,3.16,3.16v7.48h-7.24v5.16c0,1.04,0.2,1.24,1.24,1.24h1.88
		c1.04,0,1.24-0.2,1.24-1.24v-1.76h2.76v2.2c0,2.12-1.04,3.16-3.16,3.16h-3.56c-2.12,0-3.16-1.04-3.16-3.16v-13.08
		c0-2.12,1.04-3.16,3.16-3.16H1131.09z M1131.49,436.67v-4.68c0-1.04-0.2-1.24-1.24-1.24h-2c-1.04,0-1.24,0.2-1.24,1.24v4.68
		H1131.49z"/>
	<path class="st7" d="M1144.29,428.39c2.12,0,3.16,1.04,3.16,3.16v7.48h-7.24v5.16c0,1.04,0.2,1.24,1.24,1.24h1.88
		c1.04,0,1.24-0.2,1.24-1.24v-1.76h2.76v2.2c0,2.12-1.04,3.16-3.16,3.16h-3.56c-2.12,0-3.16-1.04-3.16-3.16v-13.08
		c0-2.12,1.04-3.16,3.16-3.16H1144.29z M1144.69,436.67v-4.68c0-1.04-0.2-1.24-1.24-1.24h-2c-1.04,0-1.24,0.2-1.24,1.24v4.68
		H1144.69z"/>
	<path class="st7" d="M1165.37,421.03v26.76h-2.76v-1.32c-0.32,0.96-1.12,1.32-2.2,1.32h-1.6c-2.12,0-3.16-1.04-3.16-3.16v-13.12
		c0-2.12,1.04-3.16,3.16-3.16h1.6c1.08,0,1.88,0.36,2.2,1.32v-8.64H1165.37z M1161.25,445.42c0.96,0,1.36-0.36,1.36-1.44v-11.84
		c0-1.08-0.4-1.44-1.36-1.44h-1.6c-1.04,0-1.24,0.2-1.24,1.24v12.24c0,1.04,0.2,1.24,1.24,1.24H1161.25z"/>
	<path class="st7" d="M1178.49,428.39v19.4h-2.76v-1.32c-0.32,0.96-1.12,1.32-2.2,1.32h-1.6c-2.12,0-3.16-1.04-3.16-3.16v-13.08
		c0-2.12,1.04-3.16,3.16-3.16h1.6c1.08,0,1.88,0.36,2.2,1.32v-1.32H1178.49z M1174.37,445.42c0.96,0,1.36-0.36,1.36-1.44v-11.8
		c0-1.08-0.4-1.44-1.36-1.44h-1.6c-1.04,0-1.24,0.2-1.24,1.24v12.2c0,1.04,0.2,1.24,1.24,1.24H1174.37z"/>
	<path class="st7" d="M1183.45,428.39l3.12,17.48l2.92-17.48h2.76l-3.88,21.88c-0.4,2.08-1.68,3.16-3.8,3.16h-2.16v-2.36h1.32
		c1.04,0,1.76-0.24,2-1.24l0.48-2.04h-1.8l-3.72-19.4H1183.45z"/>
	<path class="st7" d="M1200.4,440.54c0-1.04-0.2-1.24-1.24-1.24h-1.96c-2.12,0-3.16-1.04-3.16-3.16v-4.6c0-2.12,1.04-3.16,3.16-3.16
		h2.72c2.12,0,3.16,1.04,3.16,3.16v1.96h-2.72v-1.56c0-1.04-0.2-1.24-1.24-1.24H1198c-1.04,0-1.24,0.2-1.24,1.24v3.8
		c0,1.04,0.2,1.24,1.24,1.24h1.96c2.12,0,3.16,1.04,3.16,3.16v4.48c0,2.12-1.04,3.16-3.16,3.16h-2.68c-2.12,0-3.16-1.04-3.16-3.16
		v-1.96h2.72v1.56c0,1.04,0.2,1.24,1.24,1.24h1.08c1.04,0,1.24-0.2,1.24-1.24V440.54z"/>
	<path class="st7" d="M1218.56,428.39c2.12,0,3.16,1.04,3.16,3.16v13.08c0,2.12-1.04,3.16-3.16,3.16h-4.08
		c-2.12,0-3.16-1.04-3.16-3.16v-13.08c0-2.12,1.04-3.16,3.16-3.16H1218.56z M1219,431.99c0-1.04-0.2-1.24-1.24-1.24h-2.48
		c-1.04,0-1.24,0.2-1.24,1.24v12.2c0,1.04,0.2,1.24,1.24,1.24h2.48c1.04,0,1.24-0.2,1.24-1.24V431.99z"/>
	<path class="st7" d="M1229.44,423.59c-1.04,0-1.24,0.2-1.24,1.24v3.56h2.8v2.36h-2.8v17.04h-2.76v-17.04h-1.92v-2.36h1.92v-4.2
		c0-2.12,1.04-3.16,3.16-3.16h2.4v2.56H1229.44z"/>
	<path class="st7" d="M1238.2,447.78v-26.76h2.76v26.76H1238.2z"/>
	<path class="st7" d="M1244.48,420.99h2.92v3.24h-2.92V420.99z M1244.56,447.78v-19.4h2.76v19.4H1244.56z"/>
	<path class="st7" d="M1255.24,423.59c-1.04,0-1.24,0.2-1.24,1.24v3.56h2.8v2.36h-2.8v17.04h-2.76v-17.04h-1.92v-2.36h1.92v-4.2
		c0-2.12,1.04-3.16,3.16-3.16h2.4v2.56H1255.24z"/>
	<path class="st7" d="M1265.64,428.39c2.12,0,3.16,1.04,3.16,3.16v7.48h-7.24v5.16c0,1.04,0.2,1.24,1.24,1.24h1.88
		c1.04,0,1.24-0.2,1.24-1.24v-1.76h2.76v2.2c0,2.12-1.04,3.16-3.16,3.16h-3.56c-2.12,0-3.16-1.04-3.16-3.16v-13.08
		c0-2.12,1.04-3.16,3.16-3.16H1265.64z M1266.04,436.67v-4.68c0-1.04-0.2-1.24-1.24-1.24h-2c-1.04,0-1.24,0.2-1.24,1.24v4.68
		H1266.04z"/>
	<path class="st7" d="M1286.72,428.39v19.4h-2.76v-1.32c-0.32,0.96-1.12,1.32-2.2,1.32h-1.6c-2.12,0-3.16-1.04-3.16-3.16v-13.08
		c0-2.12,1.04-3.16,3.16-3.16h1.6c1.08,0,1.88,0.36,2.2,1.32v-1.32H1286.72z M1282.6,445.42c0.96,0,1.36-0.36,1.36-1.44v-11.8
		c0-1.08-0.4-1.44-1.36-1.44h-1.6c-1.04,0-1.24,0.2-1.24,1.24v12.2c0,1.04,0.2,1.24,1.24,1.24H1282.6z"/>
	<path class="st7" d="M1296.88,428.35c2.12,0,3.16,1.04,3.16,3.16v13.12c0,2.12-1.04,3.16-3.16,3.16h-1.6
		c-1.08,0-1.88-0.36-2.2-1.32v1.32h-2.76v-26.76h2.76v8.64c0.32-0.96,1.12-1.32,2.2-1.32H1296.88z M1297.28,431.95
		c0-1.04-0.2-1.24-1.24-1.24h-1.6c-0.96,0-1.36,0.36-1.36,1.44v11.84c0,1.08,0.4,1.44,1.36,1.44h1.6c1.04,0,1.24-0.2,1.24-1.24
		V431.95z"/>
	<path class="st7" d="M1310.48,428.39c2.12,0,3.16,1.04,3.16,3.16v13.08c0,2.12-1.04,3.16-3.16,3.16h-4.08
		c-2.12,0-3.16-1.04-3.16-3.16v-13.08c0-2.12,1.04-3.16,3.16-3.16H1310.48z M1310.92,431.99c0-1.04-0.2-1.24-1.24-1.24h-2.48
		c-1.04,0-1.24,0.2-1.24,1.24v12.2c0,1.04,0.2,1.24,1.24,1.24h2.48c1.04,0,1.24-0.2,1.24-1.24V431.99z"/>
	<path class="st7" d="M1326.56,428.39v19.4h-2.76v-1.32c-0.32,0.96-1.12,1.32-2.2,1.32h-1.6c-2.12,0-3.16-1.04-3.16-3.16v-13.08
		c0-2.12,1.04-3.16,3.16-3.16h1.6c1.08,0,1.88,0.36,2.2,1.32v-1.32H1326.56z M1322.44,445.42c0.96,0,1.36-0.36,1.36-1.44v-11.8
		c0-1.08-0.4-1.44-1.36-1.44h-1.6c-1.04,0-1.24,0.2-1.24,1.24v12.2c0,1.04,0.2,1.24,1.24,1.24H1322.44z"/>
	<path class="st7" d="M1336.64,428.39v2.4h-1.2c-1.76,0-2.52,0.96-2.52,3v14h-2.76v-19.4h2.76v2.24c0.36-1.12,1.32-2.24,2.88-2.24
		H1336.64z"/>
	<path class="st7" d="M1348.16,421.03v26.76h-2.76v-1.32c-0.32,0.96-1.12,1.32-2.2,1.32h-1.6c-2.12,0-3.16-1.04-3.16-3.16v-13.12
		c0-2.12,1.04-3.16,3.16-3.16h1.6c1.08,0,1.88,0.36,2.2,1.32v-8.64H1348.16z M1344.04,445.42c0.96,0,1.36-0.36,1.36-1.44v-11.84
		c0-1.08-0.4-1.44-1.36-1.44h-1.6c-1.04,0-1.24,0.2-1.24,1.24v12.24c0,1.04,0.2,1.24,1.24,1.24H1344.04z"/>
	<path class="st7" d="M1359.88,430.75v13.24c0,1.04,0.2,1.24,1.24,1.24h1.52v2.56h-2.36c-2.12,0-3.16-1.04-3.16-3.16v-13.88h-1.76
		v-2.36h1.76v-3.16h2.76v3.16h2.76v2.36H1359.88z"/>
	<path class="st7" d="M1371.39,428.39c2.12,0,3.16,1.04,3.16,3.16v16.24h-2.76v-15.8c0-1.04-0.2-1.24-1.24-1.24h-1.6
		c-0.96,0-1.36,0.36-1.36,1.44v15.6h-2.76v-26.76h2.76v8.68c0.32-0.96,1.12-1.32,2.2-1.32H1371.39z"/>
	<path class="st7" d="M1384.99,428.39c2.12,0,3.16,1.04,3.16,3.16v7.48h-7.24v5.16c0,1.04,0.2,1.24,1.24,1.24h1.88
		c1.04,0,1.24-0.2,1.24-1.24v-1.76h2.76v2.2c0,2.12-1.04,3.16-3.16,3.16h-3.56c-2.12,0-3.16-1.04-3.16-3.16v-13.08
		c0-2.12,1.04-3.16,3.16-3.16H1384.99z M1385.39,436.67v-4.68c0-1.04-0.2-1.24-1.24-1.24h-2c-1.04,0-1.24,0.2-1.24,1.24v4.68
		H1385.39z"/>
	<path class="st7" d="M1400.07,422.91v24.88h-2.72v-24.88H1400.07z"/>
	<path class="st7" d="M1411.39,437.39c0-1.04-0.2-1.24-1.24-1.24h-2.72c-2.12,0-3.16-1.04-3.16-3.16v-6.92
		c0-2.12,1.04-3.16,3.16-3.16h3.52c2.12,0,3.16,1.04,3.16,3.16v3.84h-2.76v-3.4c0-1.04-0.2-1.24-1.24-1.24h-1.84
		c-1.04,0-1.24,0.2-1.24,1.24v6.04c0,1.04,0.2,1.24,1.24,1.24h2.72c2.12,0,3.16,1.04,3.16,3.16v7.68c0,2.12-1.04,3.16-3.16,3.16
		h-3.48c-2.12,0-3.16-1.04-3.16-3.16v-3.84h2.76v3.4c0,1.04,0.2,1.24,1.24,1.24h1.8c1.04,0,1.24-0.2,1.24-1.24V437.39z"/>
	<path class="st7" d="M1424.47,437.39c0-1.04-0.2-1.24-1.24-1.24h-2.72c-2.12,0-3.16-1.04-3.16-3.16v-6.92
		c0-2.12,1.04-3.16,3.16-3.16h3.52c2.12,0,3.16,1.04,3.16,3.16v3.84h-2.76v-3.4c0-1.04-0.2-1.24-1.24-1.24h-1.84
		c-1.04,0-1.24,0.2-1.24,1.24v6.04c0,1.04,0.2,1.24,1.24,1.24h2.72c2.12,0,3.16,1.04,3.16,3.16v7.68c0,2.12-1.04,3.16-3.16,3.16
		h-3.48c-2.12,0-3.16-1.04-3.16-3.16v-3.84h2.76v3.4c0,1.04,0.2,1.24,1.24,1.24h1.8c1.04,0,1.24-0.2,1.24-1.24V437.39z"/>
	<path class="st7" d="M1430.03,443.3h3.28v4.48h-3.28V443.3z"/>
</g>
</svg>
