<?xml version="1.0" encoding="utf-8"?>
<!-- Generator: Adobe Illustrator 27.3.1, SVG Export Plug-In . SVG Version: 6.00 Build 0)  -->
<svg version="1.1" id="Layer_1" xmlns="http://www.w3.org/2000/svg" xmlns:xlink="http://www.w3.org/1999/xlink" x="0px" y="0px"
	 viewBox="0 0 1980 1080" style="enable-background:new 0 0 1980 1080;" xml:space="preserve">
<style type="text/css">
	.st0{fill:#142728;}
	.st1{fill:#153035;}
	.st2{fill:#1E4249;}
	.st3{fill:#E5E5E4;stroke:#E5E5E4;stroke-miterlimit:10;}
	.st4{fill:#E5E5E4;}
	.st5{fill:#893C1D;}
	.st6{fill:#7A3417;}
</style>
<rect x="-0.12" y="-1" class="st0" width="1978.96" height="269"/>
<rect x="-0.12" y="267" class="st1" width="1978.96" height="258.74"/>
<rect x="-0.12" y="516.19" class="st2" width="1978.96" height="218.55"/>
<path class="st3" d="M944.7,686.18"/>
<g>
	<path class="st4" d="M1034.12,151.71"/>
	<g>
		<path class="st4" d="M1034.12,154.21c3.22,0,3.22-5,0-5C1030.9,149.21,1030.9,154.21,1034.12,154.21L1034.12,154.21z"/>
	</g>
</g>
<g>
	<path class="st4" d="M1147.73,326.35"/>
	<g>
		<path class="st4" d="M1147.73,328.85c3.22,0,3.22-5,0-5C1144.52,323.85,1144.51,328.85,1147.73,328.85L1147.73,328.85z"/>
	</g>
</g>
<g>
	<path class="st4" d="M1788.39,206.86"/>
	<g>
		<path class="st4" d="M1788.39,209.36c3.22,0,3.22-5,0-5C1785.17,204.36,1785.17,209.36,1788.39,209.36L1788.39,209.36z"/>
	</g>
</g>
<g>
	<path class="st4" d="M1851.51,479.54"/>
	<g>
		<path class="st4" d="M1851.51,482.04c3.22,0,3.22-5,0-5C1848.29,477.04,1848.29,482.04,1851.51,482.04L1851.51,482.04z"/>
	</g>
</g>
<g>
	<path class="st4" d="M1327.62,430.52"/>
	<g>
		<path class="st4" d="M1327.62,433.02c3.22,0,3.22-5,0-5C1324.41,428.02,1324.4,433.02,1327.62,433.02L1327.62,433.02z"/>
	</g>
</g>
<g>
	<path class="st4" d="M1349.71,219.12"/>
	<g>
		<path class="st4" d="M1349.71,221.62c3.22,0,3.22-5,0-5C1346.5,216.62,1346.49,221.62,1349.71,221.62L1349.71,221.62z"/>
	</g>
</g>
<g>
	<path class="st4" d="M1431.77,436.65"/>
	<g>
		<path class="st4" d="M1431.77,439.15c3.22,0,3.22-5,0-5C1428.55,434.15,1428.55,439.15,1431.77,439.15L1431.77,439.15z"/>
	</g>
</g>
<g>
	<path class="st4" d="M1056.21,485.67"/>
	<g>
		<path class="st4" d="M1056.21,488.17c3.22,0,3.22-5,0-5C1052.99,483.17,1052.99,488.17,1056.21,488.17L1056.21,488.17z"/>
	</g>
</g>
<g>
	<path class="st4" d="M1015.18,681.76"/>
	<g>
		<path class="st4" d="M1015.18,684.26c3.22,0,3.22-5,0-5C1011.97,679.26,1011.96,684.26,1015.18,684.26L1015.18,684.26z"/>
	</g>
</g>
<g>
	<path class="st4" d="M1324.47,651.12"/>
	<g>
		<path class="st4" d="M1324.47,653.62c3.22,0,3.22-5,0-5C1321.25,648.62,1321.24,653.62,1324.47,653.62L1324.47,653.62z"/>
	</g>
</g>
<g>
	<path class="st4" d="M1889.38,583.71"/>
	<g>
		<path class="st4" d="M1889.38,586.21c3.22,0,3.22-5,0-5C1886.16,581.21,1886.16,586.21,1889.38,586.21L1889.38,586.21z"/>
	</g>
</g>
<g>
	<path class="st4" d="M1895.69,344.73"/>
	<g>
		<path class="st4" d="M1895.69,347.23c3.22,0,3.22-5,0-5C1892.48,342.23,1892.47,347.23,1895.69,347.23L1895.69,347.23z"/>
	</g>
</g>
<g>
	<path class="st4" d="M1756.83,384.56"/>
	<g>
		<path class="st4" d="M1756.83,387.06c3.22,0,3.22-5,0-5C1753.61,382.06,1753.61,387.06,1756.83,387.06L1756.83,387.06z"/>
	</g>
</g>
<g>
	<path class="st4" d="M1747.36,228.31"/>
	<g>
		<path class="st4" d="M1747.36,230.81c3.22,0,3.22-5,0-5C1744.15,225.81,1744.14,230.81,1747.36,230.81L1747.36,230.81z"/>
	</g>
</g>
<g>
	<path class="st4" d="M1920.94,167.03"/>
	<g>
		<path class="st4" d="M1920.94,169.53c3.22,0,3.22-5,0-5C1917.72,164.53,1917.72,169.53,1920.94,169.53L1920.94,169.53z"/>
	</g>
</g>
<g>
	<path class="st4" d="M1633.75,332.48"/>
	<g>
		<path class="st4" d="M1633.75,334.98c3.22,0,3.22-5,0-5C1630.53,329.98,1630.53,334.98,1633.75,334.98L1633.75,334.98z"/>
	</g>
</g>
<g>
	<path class="st4" d="M1387.59,338.61"/>
	<g>
		<path class="st4" d="M1387.59,341.11c3.22,0,3.22-5,0-5C1384.37,336.11,1384.36,341.11,1387.59,341.11L1387.59,341.11z"/>
	</g>
</g>
<g>
	<path class="st4" d="M967.85,399.88"/>
	<g>
		<path class="st4" d="M967.85,402.38c3.22,0,3.22-5,0-5C964.63,397.38,964.62,402.38,967.85,402.38L967.85,402.38z"/>
	</g>
</g>
<g>
	<path class="st4" d="M942.6,599.03"/>
	<g>
		<path class="st4" d="M942.6,601.53c3.22,0,3.22-5,0-5C939.38,596.53,939.38,601.53,942.6,601.53L942.6,601.53z"/>
	</g>
</g>
<g>
	<path class="st4" d="M781.64,163.97"/>
	<g>
		<path class="st4" d="M781.64,166.47c3.22,0,3.22-5,0-5C778.43,161.47,778.42,166.47,781.64,166.47L781.64,166.47z"/>
	</g>
</g>
<g>
	<path class="st4" d="M447.11,216.05"/>
	<g>
		<path class="st4" d="M447.11,218.55c3.22,0,3.22-5,0-5C443.9,213.55,443.89,218.55,447.11,218.55L447.11,218.55z"/>
	</g>
</g>
<g>
	<path class="st4" d="M36.84,378.44"/>
	<g>
		<path class="st4" d="M36.84,380.94c3.22,0,3.22-5,0-5C33.62,375.94,33.62,380.94,36.84,380.94L36.84,380.94z"/>
	</g>
</g>
<g>
	<path class="st4" d="M36.84,605.16"/>
	<g>
		<path class="st4" d="M36.84,607.66c3.22,0,3.22-5,0-5C33.62,602.66,33.62,607.66,36.84,607.66L36.84,607.66z"/>
	</g>
</g>
<g>
	<path class="st4" d="M892.1,378.44"/>
	<g>
		<path class="st4" d="M892.1,380.94c3.22,0,3.22-5,0-5C888.89,375.94,888.88,380.94,892.1,380.94L892.1,380.94z"/>
	</g>
</g>
<g>
	<path class="st4" d="M1305.53,99.63"/>
	<g>
		<path class="st4" d="M1305.53,102.13c3.22,0,3.22-5,0-5C1302.31,97.13,1302.31,102.13,1305.53,102.13L1305.53,102.13z"/>
	</g>
</g>
<g>
	<path class="st4" d="M775.33,118.01"/>
	<g>
		<path class="st4" d="M775.33,120.51c3.22,0,3.22-5,0-5C772.12,115.51,772.11,120.51,775.33,120.51L775.33,120.51z"/>
	</g>
</g>
<g>
	<path class="st4" d="M453.43,127.2"/>
	<g>
		<path class="st4" d="M453.43,129.7c3.22,0,3.22-5,0-5C450.21,124.7,450.2,129.7,453.43,129.7L453.43,129.7z"/>
	</g>
</g>
<g>
	<path class="st4" d="M257.76,148.65"/>
	<g>
		<path class="st4" d="M257.76,151.15c3.22,0,3.22-5,0-5C254.54,146.15,254.53,151.15,257.76,151.15L257.76,151.15z"/>
	</g>
</g>
<g>
	<path class="st4" d="M103.12,148.65"/>
	<g>
		<path class="st4" d="M103.12,151.15c3.22,0,3.22-5,0-5C99.9,146.15,99.89,151.15,103.12,151.15L103.12,151.15z"/>
	</g>
</g>
<g>
	<path class="st4" d="M1570.63,68.99"/>
	<g>
		<path class="st4" d="M1570.63,71.49c3.22,0,3.22-5,0-5C1567.41,66.49,1567.41,71.49,1570.63,71.49L1570.63,71.49z"/>
	</g>
</g>
<g>
	<path class="st4" d="M961.53,289.59"/>
	<g>
		<path class="st4" d="M961.53,292.09c3.22,0,3.22-5,0-5C958.32,287.09,958.31,292.09,961.53,292.09L961.53,292.09z"/>
	</g>
</g>
<g>
	<path class="st4" d="M1150.89,200.73"/>
	<g>
		<path class="st4" d="M1150.89,203.23c3.22,0,3.22-5,0-5C1147.67,198.23,1147.67,203.23,1150.89,203.23L1150.89,203.23z"/>
	</g>
</g>
<g>
	<path class="st4" d="M1283.44,311.03"/>
	<g>
		<path class="st4" d="M1283.44,313.53c3.22,0,3.22-5,0-5C1280.22,308.53,1280.22,313.53,1283.44,313.53L1283.44,313.53z"/>
	</g>
</g>
<g>
	<path class="st4" d="M898.41,504.05"/>
	<g>
		<path class="st4" d="M898.41,506.55c3.22,0,3.22-5,0-5C895.2,501.55,895.19,506.55,898.41,506.55L898.41,506.55z"/>
	</g>
</g>
<g>
	<path class="st4" d="M1640.06,620.48"/>
	<g>
		<path class="st4" d="M1640.06,622.98c3.22,0,3.22-5,0-5C1636.84,617.98,1636.84,622.98,1640.06,622.98L1640.06,622.98z"/>
	</g>
</g>
<g>
	<path class="st4" d="M1917.79,736.9"/>
	<g>
		<path class="st4" d="M1917.79,739.4c3.22,0,3.22-5,0-5C1914.57,734.4,1914.56,739.4,1917.79,739.4L1917.79,739.4z"/>
	</g>
</g>
<g>
	<path class="st4" d="M1905.16,641.93"/>
	<g>
		<path class="st4" d="M1905.16,644.43c3.22,0,3.22-5,0-5C1901.94,639.43,1901.94,644.43,1905.16,644.43L1905.16,644.43z"/>
	</g>
</g>
<g>
	<path class="st4" d="M1823.11,185.41"/>
	<g>
		<path class="st4" d="M1823.11,187.91c3.22,0,3.22-5,0-5C1819.89,182.91,1819.88,187.91,1823.11,187.91L1823.11,187.91z"/>
	</g>
</g>
<g>
	<path class="st4" d="M1523.29,160.9"/>
	<g>
		<path class="st4" d="M1523.29,163.4c3.22,0,3.22-5,0-5C1520.07,158.4,1520.07,163.4,1523.29,163.4L1523.29,163.4z"/>
	</g>
</g>
<g>
	<path class="st4" d="M1640.06,176.22"/>
	<g>
		<path class="st4" d="M1640.06,178.72c3.22,0,3.22-5,0-5C1636.84,173.72,1636.84,178.72,1640.06,178.72L1640.06,178.72z"/>
	</g>
</g>
<g>
	<path class="st4" d="M1472.8,252.82"/>
	<g>
		<path class="st4" d="M1472.8,255.32c3.22,0,3.22-5,0-5C1469.58,250.32,1469.57,255.32,1472.8,255.32L1472.8,255.32z"/>
	</g>
</g>
<g>
	<path class="st4" d="M1370.23,32.22"/>
	<g>
		<path class="st4" d="M1370.23,34.72c3.22,0,3.22-5,0-5C1367.01,29.72,1367.01,34.72,1370.23,34.72L1370.23,34.72z"/>
	</g>
</g>
<g>
	<path class="st4" d="M1204.28,114.69"/>
	<g>
		<path class="st4" d="M1204.28,117.19c3.22,0,3.22-5,0-5C1201.06,112.19,1201.06,117.19,1204.28,117.19L1204.28,117.19z"/>
	</g>
</g>
<g>
	<path class="st4" d="M927.34,45.76"/>
	<g>
		<path class="st4" d="M927.34,48.26c3.22,0,3.22-5,0-5C924.13,43.26,924.12,48.26,927.34,48.26L927.34,48.26z"/>
	</g>
</g>
<g>
	<path class="st4" d="M567.04,29.16"/>
	<g>
		<path class="st4" d="M567.04,31.66c3.22,0,3.22-5,0-5C563.82,26.66,563.82,31.66,567.04,31.66L567.04,31.66z"/>
	</g>
</g>
<g>
	<path class="st4" d="M49.46,295.71"/>
	<g>
		<path class="st4" d="M49.46,298.21c3.22,0,3.22-5,0-5C46.25,293.21,46.24,298.21,49.46,298.21L49.46,298.21z"/>
	</g>
</g>
<g>
	<path class="st4" d="M219.89,436.65"/>
	<g>
		<path class="st4" d="M219.89,439.15c3.22,0,3.22-5,0-5C216.67,434.15,216.66,439.15,219.89,439.15L219.89,439.15z"/>
	</g>
</g>
<g>
	<path class="st4" d="M1854.67,700.14"/>
	<g>
		<path class="st4" d="M1854.67,702.64c3.22,0,3.22-5,0-5C1851.45,697.64,1851.44,702.64,1854.67,702.64L1854.67,702.64z"/>
	</g>
</g>
<g>
	<path class="st4" d="M1305.53,589.84"/>
	<g>
		<path class="st4" d="M1305.53,592.34c3.22,0,3.22-5,0-5C1302.31,587.34,1302.31,592.34,1305.53,592.34L1305.53,592.34z"/>
	</g>
</g>
<g>
	<path class="st4" d="M996.25,611.29"/>
	<g>
		<path class="st4" d="M996.25,613.79c3.22,0,3.22-5,0-5C993.03,608.79,993.03,613.79,996.25,613.79L996.25,613.79z"/>
	</g>
</g>
<g>
	<path class="st4" d="M1021.5,461.16"/>
	<g>
		<path class="st4" d="M1021.5,463.66c3.22,0,3.22-5,0-5C1018.28,458.66,1018.27,463.66,1021.5,463.66L1021.5,463.66z"/>
	</g>
</g>
<g>
	<path class="st4" d="M1100.4,258.95"/>
	<g>
		<path class="st4" d="M1100.4,261.45c3.22,0,3.22-5,0-5C1097.18,256.45,1097.17,261.45,1100.4,261.45L1100.4,261.45z"/>
	</g>
</g>
<g>
	<path class="st4" d="M137.83,335.54"/>
	<g>
		<path class="st4" d="M137.83,338.04c3.22,0,3.22-5,0-5C134.61,333.04,134.61,338.04,137.83,338.04L137.83,338.04z"/>
	</g>
</g>
<g>
	<path class="st4" d="M197.79,160.9"/>
	<g>
		<path class="st4" d="M197.79,163.4c3.22,0,3.22-5,0-5C194.58,158.4,194.57,163.4,197.79,163.4L197.79,163.4z"/>
	</g>
</g>
<g>
	<path class="st4" d="M43.15,212.99"/>
	<g>
		<path class="st4" d="M43.15,215.49c3.22,0,3.22-5,0-5C39.94,210.49,39.93,215.49,43.15,215.49L43.15,215.49z"/>
	</g>
</g>
<g>
	<path class="st4" d="M49.46,96.56"/>
	<g>
		<path class="st4" d="M49.46,99.06c3.22,0,3.22-5,0-5C46.25,94.06,46.24,99.06,49.46,99.06L49.46,99.06z"/>
	</g>
</g>
<g>
	<path class="st4" d="M611.22,136.39"/>
	<g>
		<path class="st4" d="M611.22,138.89c3.22,0,3.22-5,0-5C608.01,133.89,608,138.89,611.22,138.89L611.22,138.89z"/>
	</g>
</g>
<g>
	<path class="st4" d="M377.68,179.29"/>
	<g>
		<path class="st4" d="M377.68,181.79c3.22,0,3.22-5,0-5C374.47,176.79,374.46,181.79,377.68,181.79L377.68,181.79z"/>
	</g>
</g>
<g>
	<path class="st4" d="M466.05,341.67"/>
	<g>
		<path class="st4" d="M466.05,344.17c3.22,0,3.22-5,0-5C462.83,339.17,462.83,344.17,466.05,344.17L466.05,344.17z"/>
	</g>
</g>
<g>
	<path class="st4" d="M42.1,706.27"/>
	<g>
		<path class="st4" d="M42.1,708.77c3.22,0,3.22-5,0-5C38.88,703.77,38.88,708.77,42.1,708.77L42.1,708.77z"/>
	</g>
</g>
<g>
	<path class="st4" d="M459.74,473.41"/>
	<g>
		<path class="st4" d="M459.74,475.91c3.22,0,3.22-5,0-5C456.52,470.91,456.52,475.91,459.74,475.91L459.74,475.91z"/>
	</g>
</g>
<g>
	<path class="st4" d="M245.13,445.84"/>
	<g>
		<path class="st4" d="M245.13,448.34c3.22,0,3.22-5,0-5C241.92,443.34,241.91,448.34,245.13,448.34L245.13,448.34z"/>
	</g>
</g>
<g>
	<path class="st4" d="M241.98,546.95"/>
	<g>
		<path class="st4" d="M241.98,549.45c3.22,0,3.22-5,0-5C238.76,544.45,238.75,549.45,241.98,549.45L241.98,549.45z"/>
	</g>
</g>
<g>
	<path class="st4" d="M1030.96,424.39"/>
	<g>
		<path class="st4" d="M1030.96,426.89c3.22,0,3.22-5,0-5C1027.75,421.89,1027.74,426.89,1030.96,426.89L1030.96,426.89z"/>
	</g>
</g>
<g>
	<path class="st4" d="M948.91,651.12"/>
	<g>
		<path class="st4" d="M948.91,653.62c3.22,0,3.22-5,0-5C945.69,648.62,945.69,653.62,948.91,653.62L948.91,653.62z"/>
	</g>
</g>
<g>
	<path class="st4" d="M573.35,430.52"/>
	<g>
		<path class="st4" d="M573.35,433.02c3.22,0,3.22-5,0-5C570.13,428.02,570.13,433.02,573.35,433.02L573.35,433.02z"/>
	</g>
</g>
<g>
	<path class="st4" d="M743.77,448.9"/>
	<g>
		<path class="st4" d="M743.77,451.4c3.22,0,3.22-5,0-5C740.56,446.4,740.55,451.4,743.77,451.4L743.77,451.4z"/>
	</g>
</g>
<g>
	<path class="st4" d="M570.2,353.93"/>
	<g>
		<path class="st4" d="M570.2,356.43c3.22,0,3.22-5,0-5C566.98,351.43,566.97,356.43,570.2,356.43L570.2,356.43z"/>
	</g>
</g>
<g>
	<path class="st4" d="M421.87,402.95"/>
	<g>
		<path class="st4" d="M421.87,405.45c3.22,0,3.22-5,0-5C418.65,400.45,418.64,405.45,421.87,405.45L421.87,405.45z"/>
	</g>
</g>
<g>
	<path class="st4" d="M346.12,332.48"/>
	<g>
		<path class="st4" d="M346.12,334.98c3.22,0,3.22-5,0-5C342.91,329.98,342.9,334.98,346.12,334.98L346.12,334.98z"/>
	</g>
</g>
<g>
	<path class="st4" d="M412.4,329.41"/>
	<g>
		<path class="st4" d="M412.4,331.91c3.22,0,3.22-5,0-5C409.18,326.91,409.18,331.91,412.4,331.91L412.4,331.91z"/>
	</g>
</g>
<g>
	<path class="st4" d="M519.7,225.24"/>
	<g>
		<path class="st4" d="M519.7,227.74c3.22,0,3.22-5,0-5C516.48,222.74,516.48,227.74,519.7,227.74L519.7,227.74z"/>
	</g>
</g>
<g>
	<path class="st4" d="M907.88,280.39"/>
	<g>
		<path class="st4" d="M907.88,282.89c3.22,0,3.22-5,0-5C904.66,277.89,904.66,282.89,907.88,282.89L907.88,282.89z"/>
	</g>
</g>
<g>
	<path class="st4" d="M696.43,167.03"/>
	<g>
		<path class="st4" d="M696.43,169.53c3.22,0,3.22-5,0-5C693.22,164.53,693.21,169.53,696.43,169.53L696.43,169.53z"/>
	</g>
</g>
<g>
	<path class="st4" d="M1103.55,145.59"/>
	<g>
		<path class="st4" d="M1103.55,148.09c3.22,0,3.22-5,0-5C1100.33,143.09,1100.33,148.09,1103.55,148.09L1103.55,148.09z"/>
	</g>
</g>
<g>
	<path class="st4" d="M873.17,216.05"/>
	<g>
		<path class="st4" d="M873.17,218.55c3.22,0,3.22-5,0-5C869.95,213.55,869.94,218.55,873.17,218.55L873.17,218.55z"/>
	</g>
</g>
<g>
	<path class="st4" d="M961.53,101.24"/>
	<g>
		<path class="st4" d="M961.53,103.74c3.22,0,3.22-5,0-5C958.32,98.74,958.31,103.74,961.53,103.74L961.53,103.74z"/>
	</g>
</g>
<g>
	<path class="st4" d="M1130.11,26.61"/>
	<g>
		<path class="st4" d="M1130.11,29.11c3.22,0,3.22-5,0-5C1126.9,24.11,1126.89,29.11,1130.11,29.11L1130.11,29.11z"/>
	</g>
</g>
<g>
	<path class="st4" d="M776.65,26.61"/>
	<g>
		<path class="st4" d="M776.65,29.11c3.22,0,3.22-5,0-5C773.43,24.11,773.42,29.11,776.65,29.11L776.65,29.11z"/>
	</g>
</g>
<g>
	<path class="st4" d="M1229.79,237.5"/>
	<g>
		<path class="st4" d="M1229.79,240c3.22,0,3.22-5,0-5C1226.57,235,1226.57,240,1229.79,240L1229.79,240z"/>
	</g>
</g>
<g>
	<path class="st4" d="M1144.58,406.01"/>
	<g>
		<path class="st4" d="M1144.58,408.51c3.22,0,3.22-5,0-5C1141.36,403.51,1141.36,408.51,1144.58,408.51L1144.58,408.51z"/>
	</g>
</g>
<g>
	<path class="st4" d="M1027.81,356.99"/>
	<g>
		<path class="st4" d="M1027.81,359.49c3.22,0,3.22-5,0-5C1024.59,354.49,1024.59,359.49,1027.81,359.49L1027.81,359.49z"/>
	</g>
</g>
<g>
	<path class="st4" d="M1337.09,332.48"/>
	<g>
		<path class="st4" d="M1337.09,334.98c3.22,0,3.22-5,0-5C1333.87,329.98,1333.87,334.98,1337.09,334.98L1337.09,334.98z"/>
	</g>
</g>
<g>
	<path class="st4" d="M1273.97,556.14"/>
	<g>
		<path class="st4" d="M1273.97,558.64c3.22,0,3.22-5,0-5C1270.75,553.64,1270.75,558.64,1273.97,558.64L1273.97,558.64z"/>
	</g>
</g>
<g>
	<path class="st4" d="M1422.3,626.61"/>
	<g>
		<path class="st4" d="M1422.3,629.11c3.22,0,3.22-5,0-5C1419.08,624.11,1419.08,629.11,1422.3,629.11L1422.3,629.11z"/>
	</g>
</g>
<g>
	<path class="st4" d="M1387.59,485.67"/>
	<g>
		<path class="st4" d="M1387.59,488.17c3.22,0,3.22-5,0-5C1384.37,483.17,1384.36,488.17,1387.59,488.17L1387.59,488.17z"/>
	</g>
</g>
<g>
	<path class="st4" d="M1327.62,519.37"/>
	<g>
		<path class="st4" d="M1327.62,521.87c3.22,0,3.22-5,0-5C1324.41,516.87,1324.4,521.87,1327.62,521.87L1327.62,521.87z"/>
	</g>
</g>
<g>
	<path class="st4" d="M1062.52,694.01"/>
	<g>
		<path class="st4" d="M1062.52,696.51c3.22,0,3.22-5,0-5C1059.31,691.51,1059.3,696.51,1062.52,696.51L1062.52,696.51z"/>
	</g>
</g>
<g>
	<path class="st4" d="M1084.62,451.97"/>
	<g>
		<path class="st4" d="M1084.62,454.47c3.22,0,3.22-5,0-5C1081.4,449.47,1081.39,454.47,1084.62,454.47L1084.62,454.47z"/>
	</g>
</g>
<g>
	<path class="st4" d="M1135.11,516.31"/>
	<g>
		<path class="st4" d="M1135.11,518.81c3.22,0,3.22-5,0-5C1131.89,513.81,1131.89,518.81,1135.11,518.81L1135.11,518.81z"/>
	</g>
</g>
<g>
	<path class="st4" d="M948.91,500.99"/>
	<g>
		<path class="st4" d="M948.91,503.49c3.22,0,3.22-5,0-5C945.69,498.49,945.69,503.49,948.91,503.49L948.91,503.49z"/>
	</g>
</g>
<g>
	<path class="st4" d="M1024.65,543.88"/>
	<g>
		<path class="st4" d="M1024.65,546.38c3.22,0,3.22-5,0-5C1021.44,541.38,1021.43,546.38,1024.65,546.38L1024.65,546.38z"/>
	</g>
</g>
<g>
	<path class="st4" d="M1371.81,179.29"/>
	<g>
		<path class="st4" d="M1371.81,181.79c3.22,0,3.22-5,0-5C1368.59,176.79,1368.58,181.79,1371.81,181.79L1371.81,181.79z"/>
	</g>
</g>
<g>
	<path class="st4" d="M1302.38,393.76"/>
	<g>
		<path class="st4" d="M1302.38,396.26c3.22,0,3.22-5,0-5C1299.16,391.26,1299.15,396.26,1302.38,396.26L1302.38,396.26z"/>
	</g>
</g>
<g>
	<path class="st4" d="M1764.72,291.12"/>
	<g>
		<path class="st4" d="M1764.72,293.62c3.22,0,3.22-5,0-5C1761.5,288.62,1761.5,293.62,1764.72,293.62L1764.72,293.62z"/>
	</g>
</g>
<g>
	<path class="st4" d="M1872.02,225.24"/>
	<g>
		<path class="st4" d="M1872.02,227.74c3.22,0,3.22-5,0-5C1868.81,222.74,1868.8,227.74,1872.02,227.74L1872.02,227.74z"/>
	</g>
</g>
<g>
	<path class="st4" d="M1956.88,26.1"/>
	<g>
		<path class="st4" d="M1956.88,28.6c3.22,0,3.22-5,0-5C1953.66,23.6,1953.66,28.6,1956.88,28.6L1956.88,28.6z"/>
	</g>
</g>
<g>
	<path class="st4" d="M1705.5,100.44"/>
	<g>
		<path class="st4" d="M1705.5,102.94c3.22,0,3.22-5,0-5C1702.29,97.94,1702.28,102.94,1705.5,102.94L1705.5,102.94z"/>
	</g>
</g>
<g>
	<path class="st4" d="M1657.16,30.44"/>
	<g>
		<path class="st4" d="M1657.16,32.94c3.22,0,3.22-5,0-5C1653.94,27.94,1653.93,32.94,1657.16,32.94L1657.16,32.94z"/>
	</g>
</g>
<g>
	<path class="st4" d="M203.05,201.24"/>
	<g>
		<path class="st4" d="M203.05,203.74c3.22,0,3.22-5,0-5C199.84,198.74,199.83,203.74,203.05,203.74L203.05,203.74z"/>
	</g>
</g>
<g>
	<path class="st4" d="M190.43,559.71"/>
	<g>
		<path class="st4" d="M190.43,562.21c3.22,0,3.22-5,0-5C187.21,557.21,187.21,562.21,190.43,562.21L190.43,562.21z"/>
	</g>
</g>
<g>
	<path class="st4" d="M392.41,550.52"/>
	<g>
		<path class="st4" d="M392.41,553.02c3.22,0,3.22-5,0-5C389.19,548.02,389.19,553.02,392.41,553.02L392.41,553.02z"/>
	</g>
</g>
<g>
	<path class="st4" d="M357.7,449.41"/>
	<g>
		<path class="st4" d="M357.7,451.91c3.22,0,3.22-5,0-5C354.48,446.91,354.47,451.91,357.7,451.91L357.7,451.91z"/>
	</g>
</g>
<g>
	<path class="st4" d="M256.71,169.07"/>
	<g>
		<path class="st4" d="M256.71,171.57c3.22,0,3.22-5,0-5C253.49,166.57,253.48,171.57,256.71,171.57L256.71,171.57z"/>
	</g>
</g>
<g>
	<path class="st4" d="M769.55,268.65"/>
	<g>
		<path class="st4" d="M769.55,271.15c3.22,0,3.22-5,0-5C766.33,266.15,766.32,271.15,769.55,271.15L769.55,271.15z"/>
	</g>
</g>
<g>
	<path class="st4" d="M767.97,354.44"/>
	<g>
		<path class="st4" d="M767.97,356.94c3.22,0,3.22-5,0-5C764.75,351.94,764.75,356.94,767.97,356.94L767.97,356.94z"/>
	</g>
</g>
<g>
	<path class="st4" d="M706.43,336.05"/>
	<g>
		<path class="st4" d="M706.43,338.55c3.22,0,3.22-5,0-5C703.21,333.55,703.21,338.55,706.43,338.55L706.43,338.55z"/>
	</g>
</g>
<g>
	<path class="st4" d="M625.95,545.93"/>
	<g>
		<path class="st4" d="M625.95,548.43c3.22,0,3.22-5,0-5C622.73,543.43,622.73,548.43,625.95,548.43L625.95,548.43z"/>
	</g>
</g>
<g>
	<path class="st4" d="M797.95,452.48"/>
	<g>
		<path class="st4" d="M797.95,454.98c3.22,0,3.22-5,0-5C794.73,449.98,794.73,454.98,797.95,454.98L797.95,454.98z"/>
	</g>
</g>
<g>
	<path class="st4" d="M750.61,510.69"/>
	<g>
		<path class="st4" d="M750.61,513.19c3.22,0,3.22-5,0-5C747.39,508.19,747.39,513.19,750.61,513.19L750.61,513.19z"/>
	</g>
</g>
<g>
	<path class="st4" d="M68.93,643.97"/>
	<g>
		<path class="st4" d="M68.93,646.47c3.22,0,3.22-5,0-5C65.71,641.47,65.7,646.47,68.93,646.47L68.93,646.47z"/>
	</g>
</g>
<g>
	<path class="st4" d="M130.47,467.8"/>
	<g>
		<path class="st4" d="M130.47,470.3c3.22,0,3.22-5,0-5C127.25,465.3,127.24,470.3,130.47,470.3L130.47,470.3z"/>
	</g>
</g>
<g>
	<path class="st4" d="M130.47,401.93"/>
	<g>
		<path class="st4" d="M130.47,404.43c3.22,0,3.22-5,0-5C127.25,399.43,127.24,404.43,130.47,404.43L130.47,404.43z"/>
	</g>
</g>
<g>
	<path class="st4" d="M1528.55,418.78"/>
	<g>
		<path class="st4" d="M1528.55,421.28c3.22,0,3.22-5,0-5C1525.33,416.28,1525.33,421.28,1528.55,421.28L1528.55,421.28z"/>
	</g>
</g>
<g>
	<path class="st4" d="M1500.15,308.48"/>
	<g>
		<path class="st4" d="M1500.15,310.98c3.22,0,3.22-5,0-5C1496.93,305.98,1496.93,310.98,1500.15,310.98L1500.15,310.98z"/>
	</g>
</g>
<g>
	<path class="st4" d="M1585.36,262.52"/>
	<g>
		<path class="st4" d="M1585.36,265.02c3.22,0,3.22-5,0-5C1582.14,260.02,1582.14,265.02,1585.36,265.02L1585.36,265.02z"/>
	</g>
</g>
<g>
	<path class="st4" d="M1582.2,404.99"/>
	<g>
		<path class="st4" d="M1582.2,407.49c3.22,0,3.22-5,0-5C1578.99,402.49,1578.98,407.49,1582.2,407.49L1582.2,407.49z"/>
	</g>
</g>
<g>
	<path class="st4" d="M1680.04,411.12"/>
	<g>
		<path class="st4" d="M1680.04,413.62c3.22,0,3.22-5,0-5C1676.82,408.62,1676.81,413.62,1680.04,413.62L1680.04,413.62z"/>
	</g>
</g>
<g>
	<path class="st4" d="M1732.11,492.31"/>
	<g>
		<path class="st4" d="M1732.11,494.81c3.22,0,3.22-5,0-5C1728.89,489.81,1728.89,494.81,1732.11,494.81L1732.11,494.81z"/>
	</g>
</g>
<g>
	<path class="st4" d="M1828.37,409.59"/>
	<g>
		<path class="st4" d="M1828.37,412.09c3.22,0,3.22-5,0-5C1825.15,407.09,1825.14,412.09,1828.37,412.09L1828.37,412.09z"/>
	</g>
</g>
<g>
	<path class="st4" d="M1971.61,404.99"/>
	<g>
		<path class="st4" d="M1971.61,407.49c3.22,0,3.22-5,0-5C1968.4,402.49,1968.39,407.49,1971.61,407.49L1971.61,407.49z"/>
	</g>
</g>
<g>
	<path class="st4" d="M1904.11,513.76"/>
	<g>
		<path class="st4" d="M1904.11,516.26c3.22,0,3.22-5,0-5C1900.89,511.26,1900.89,516.26,1904.11,516.26L1904.11,516.26z"/>
	</g>
</g>
<g>
	<path class="st4" d="M1955.82,522.95"/>
	<g>
		<path class="st4" d="M1955.82,525.45c3.22,0,3.22-5,0-5C1952.61,520.45,1952.6,525.45,1955.82,525.45L1955.82,525.45z"/>
	</g>
</g>
<g>
	<path class="st4" d="M1923.05,392.73"/>
	<g>
		<path class="st4" d="M1923.05,395.23c3.22,0,3.22-5,0-5C1919.83,390.23,1919.82,395.23,1923.05,395.23L1923.05,395.23z"/>
	</g>
</g>
<g>
	<path class="st4" d="M1947.93,306.95"/>
	<g>
		<path class="st4" d="M1947.93,309.45c3.22,0,3.22-5,0-5C1944.71,304.45,1944.71,309.45,1947.93,309.45L1947.93,309.45z"/>
	</g>
</g>
<g>
	<path class="st4" d="M1933.72,196.65"/>
	<g>
		<path class="st4" d="M1933.72,199.15c3.22,0,3.22-5,0-5C1930.5,194.15,1930.5,199.15,1933.72,199.15L1933.72,199.15z"/>
	</g>
</g>
<g>
	<path class="st4" d="M1836.26,100.14"/>
	<g>
		<path class="st4" d="M1836.26,102.64c3.22,0,3.22-5,0-5C1833.04,97.64,1833.03,102.64,1836.26,102.64L1836.26,102.64z"/>
	</g>
</g>
<g>
	<path class="st4" d="M1875.71,60.31"/>
	<g>
		<path class="st4" d="M1875.71,62.81c3.22,0,3.22-5,0-5C1872.49,57.81,1872.48,62.81,1875.71,62.81L1875.71,62.81z"/>
	</g>
</g>
<g>
	<path class="st4" d="M1960.65,142.56"/>
	<g>
		<path class="st4" d="M1960.65,145.06c3.22,0,3.22-5,0-5C1957.43,140.06,1957.43,145.06,1960.65,145.06L1960.65,145.06z"/>
	</g>
</g>
<g>
	<path class="st4" d="M1930.94,162.95"/>
	<g>
		<path class="st4" d="M1930.94,165.45c3.22,0,3.22-5,0-5C1927.72,160.45,1927.71,165.45,1930.94,165.45L1930.94,165.45z"/>
	</g>
</g>
<g>
	<path class="st4" d="M1607.45,147.63"/>
	<g>
		<path class="st4" d="M1607.45,150.13c3.22,0,3.22-5,0-5C1604.23,145.13,1604.23,150.13,1607.45,150.13L1607.45,150.13z"/>
	</g>
</g>
<g>
	<path class="st4" d="M1708.44,133.84"/>
	<g>
		<path class="st4" d="M1708.44,136.34c3.22,0,3.22-5,0-5C1705.22,131.34,1705.22,136.34,1708.44,136.34L1708.44,136.34z"/>
	</g>
</g>
<g>
	<path class="st4" d="M1624.81,121.59"/>
	<g>
		<path class="st4" d="M1624.81,124.09c3.22,0,3.22-5,0-5C1621.59,119.09,1621.59,124.09,1624.81,124.09L1624.81,124.09z"/>
	</g>
</g>
<g>
	<path class="st4" d="M1429.14,95.54"/>
	<g>
		<path class="st4" d="M1429.14,98.04c3.22,0,3.22-5,0-5C1425.92,93.04,1425.92,98.04,1429.14,98.04L1429.14,98.04z"/>
	</g>
</g>
<g>
	<path class="st4" d="M1356.55,158.35"/>
	<g>
		<path class="st4" d="M1356.55,160.85c3.22,0,3.22-5,0-5C1353.34,155.85,1353.33,160.85,1356.55,160.85L1356.55,160.85z"/>
	</g>
</g>
<g>
	<path class="st4" d="M1298.17,155.29"/>
	<g>
		<path class="st4" d="M1298.17,157.79c3.22,0,3.22-5,0-5C1294.95,152.79,1294.95,157.79,1298.17,157.79L1298.17,157.79z"/>
	</g>
</g>
<g>
	<path class="st4" d="M1235.05,132.31"/>
	<g>
		<path class="st4" d="M1235.05,134.81c3.22,0,3.22-5,0-5C1231.83,129.81,1231.83,134.81,1235.05,134.81L1235.05,134.81z"/>
	</g>
</g>
<g>
	<path class="st4" d="M1276.08,51.12"/>
	<g>
		<path class="st4" d="M1276.08,53.62c3.22,0,3.22-5,0-5C1272.86,48.62,1272.85,53.62,1276.08,53.62L1276.08,53.62z"/>
	</g>
</g>
<g>
	<path class="st4" d="M1501.73,516.82"/>
	<g>
		<path class="st4" d="M1501.73,519.32c3.22,0,3.22-5,0-5C1498.51,514.32,1498.5,519.32,1501.73,519.32L1501.73,519.32z"/>
	</g>
</g>
<g>
	<path class="st4" d="M1665.84,452.48"/>
	<g>
		<path class="st4" d="M1665.84,454.98c3.22,0,3.22-5,0-5C1662.62,449.98,1662.61,454.98,1665.84,454.98L1665.84,454.98z"/>
	</g>
</g>
<g>
	<path class="st4" d="M1616.92,602.61"/>
	<g>
		<path class="st4" d="M1616.92,605.11c3.22,0,3.22-5,0-5C1613.7,600.11,1613.7,605.11,1616.92,605.11L1616.92,605.11z"/>
	</g>
</g>
<g>
	<path class="st4" d="M1476.48,535.2"/>
	<g>
		<path class="st4" d="M1476.48,537.7c3.22,0,3.22-5,0-5C1473.26,532.7,1473.26,537.7,1476.48,537.7L1476.48,537.7z"/>
	</g>
</g>
<g>
	<path class="st4" d="M1651.63,518.35"/>
	<g>
		<path class="st4" d="M1651.63,520.85c3.22,0,3.22-5,0-5C1648.42,515.85,1648.41,520.85,1651.63,520.85L1651.63,520.85z"/>
	</g>
</g>
<g>
	<path class="st4" d="M1602.72,571.97"/>
	<g>
		<path class="st4" d="M1602.72,574.47c3.22,0,3.22-5,0-5C1599.5,569.47,1599.49,574.47,1602.72,574.47L1602.72,574.47z"/>
	</g>
</g>
<g>
	<path class="st4" d="M1493.84,582.69"/>
	<g>
		<path class="st4" d="M1493.84,585.19c3.22,0,3.22-5,0-5C1490.62,580.19,1490.61,585.19,1493.84,585.19L1493.84,585.19z"/>
	</g>
</g>
<g>
	<path class="st4" d="M1416.52,559.71"/>
	<g>
		<path class="st4" d="M1416.52,562.21c3.22,0,3.22-5,0-5C1413.3,557.21,1413.29,562.21,1416.52,562.21L1416.52,562.21z"/>
	</g>
</g>
<g>
	<path class="st4" d="M1449.65,671.54"/>
	<g>
		<path class="st4" d="M1449.65,674.04c3.22,0,3.22-5,0-5C1446.44,669.04,1446.43,674.04,1449.65,674.04L1449.65,674.04z"/>
	</g>
</g>
<g>
	<path class="st4" d="M1684.77,630.18"/>
	<g>
		<path class="st4" d="M1684.77,632.68c3.22,0,3.22-5,0-5C1681.55,627.68,1681.55,632.68,1684.77,632.68L1684.77,632.68z"/>
	</g>
</g>
<g>
	<path class="st4" d="M1708.44,581.16"/>
	<g>
		<path class="st4" d="M1708.44,583.66c3.22,0,3.22-5,0-5C1705.22,578.66,1705.22,583.66,1708.44,583.66L1708.44,583.66z"/>
	</g>
</g>
<g>
	<path class="st4" d="M1746.31,550.52"/>
	<g>
		<path class="st4" d="M1746.31,553.02c3.22,0,3.22-5,0-5C1743.1,548.02,1743.09,553.02,1746.31,553.02L1746.31,553.02z"/>
	</g>
</g>
<g>
	<path class="st4" d="M1814.17,588.82"/>
	<g>
		<path class="st4" d="M1814.17,591.32c3.22,0,3.22-5,0-5C1810.95,586.32,1810.94,591.32,1814.17,591.32L1814.17,591.32z"/>
	</g>
</g>
<g>
	<path class="st4" d="M1779.45,683.8"/>
	<g>
		<path class="st4" d="M1779.45,686.3c3.22,0,3.22-5,0-5C1776.23,681.3,1776.23,686.3,1779.45,686.3L1779.45,686.3z"/>
	</g>
</g>
<g>
	<path class="st4" d="M1615.34,668.48"/>
	<g>
		<path class="st4" d="M1615.34,670.98c3.22,0,3.22-5,0-5C1612.12,665.98,1612.12,670.98,1615.34,670.98L1615.34,670.98z"/>
	</g>
</g>
<g>
	<path class="st4" d="M1735.27,676.14"/>
	<g>
		<path class="st4" d="M1735.27,678.64c3.22,0,3.22-5,0-5C1732.05,673.64,1732.04,678.64,1735.27,678.64L1735.27,678.64z"/>
	</g>
</g>
<g>
	<path class="st4" d="M1621.65,728.22"/>
	<g>
		<path class="st4" d="M1621.65,730.72c3.22,0,3.22-5,0-5C1618.44,725.72,1618.43,730.72,1621.65,730.72L1621.65,730.72z"/>
	</g>
</g>
<g>
	<path class="st4" d="M1556.96,682.27"/>
	<g>
		<path class="st4" d="M1556.96,684.77c3.22,0,3.22-5,0-5C1553.74,679.77,1553.73,684.77,1556.96,684.77L1556.96,684.77z"/>
	</g>
</g>
<g>
	<path class="st4" d="M1552.22,622.52"/>
	<g>
		<path class="st4" d="M1552.22,625.02c3.22,0,3.22-5,0-5C1549,620.02,1549,625.02,1552.22,625.02L1552.22,625.02z"/>
	</g>
</g>
<g>
	<path class="st4" d="M1334.46,694.52"/>
	<g>
		<path class="st4" d="M1334.46,697.02c3.22,0,3.22-5,0-5C1331.24,692.02,1331.24,697.02,1334.46,697.02L1334.46,697.02z"/>
	</g>
</g>
<g>
	<path class="st4" d="M1433.87,717.5"/>
	<g>
		<path class="st4" d="M1433.87,720c3.22,0,3.22-5,0-5C1430.66,715,1430.65,720,1433.87,720L1433.87,720z"/>
	</g>
</g>
<g>
	<path class="st4" d="M1236.63,674.61"/>
	<g>
		<path class="st4" d="M1236.63,677.11c3.22,0,3.22-5,0-5C1233.41,672.11,1233.4,677.11,1236.63,677.11L1236.63,677.11z"/>
	</g>
</g>
<g>
	<path class="st4" d="M1211.38,510.69"/>
	<g>
		<path class="st4" d="M1211.38,513.19c3.22,0,3.22-5,0-5C1208.16,508.19,1208.16,513.19,1211.38,513.19L1211.38,513.19z"/>
	</g>
</g>
<g>
	<path class="st4" d="M1121.43,671.54"/>
	<g>
		<path class="st4" d="M1121.43,674.04c3.22,0,3.22-5,0-5C1118.22,669.04,1118.21,674.04,1121.43,674.04L1121.43,674.04z"/>
	</g>
</g>
<g>
	<path class="st4" d="M1061.47,571.97"/>
	<g>
		<path class="st4" d="M1061.47,574.47c3.22,0,3.22-5,0-5C1058.25,569.47,1058.25,574.47,1061.47,574.47L1061.47,574.47z"/>
	</g>
</g>
<g>
	<path class="st4" d="M1171.93,610.27"/>
	<g>
		<path class="st4" d="M1171.93,612.77c3.22,0,3.22-5,0-5C1168.71,607.77,1168.71,612.77,1171.93,612.77L1171.93,612.77z"/>
	</g>
</g>
<g>
	<path class="st4" d="M1173.51,654.69"/>
	<g>
		<path class="st4" d="M1173.51,657.19c3.22,0,3.22-5,0-5C1170.29,652.19,1170.29,657.19,1173.51,657.19L1173.51,657.19z"/>
	</g>
</g>
<g>
	<path class="st4" d="M1310.79,601.07"/>
	<g>
		<path class="st4" d="M1310.79,603.57c3.22,0,3.22-5,0-5C1307.57,598.57,1307.57,603.57,1310.79,603.57L1310.79,603.57z"/>
	</g>
</g>
<g>
	<path class="st4" d="M1228.74,375.88"/>
	<g>
		<path class="st4" d="M1228.74,378.38c3.22,0,3.22-5,0-5C1225.52,373.38,1225.51,378.38,1228.74,378.38L1228.74,378.38z"/>
	</g>
</g>
<g>
	<path class="st4" d="M1396,375.88"/>
	<g>
		<path class="st4" d="M1396,378.38c3.22,0,3.22-5,0-5C1392.78,373.38,1392.78,378.38,1396,378.38L1396,378.38z"/>
	</g>
</g>
<g>
	<path class="st4" d="M1515.93,385.07"/>
	<g>
		<path class="st4" d="M1515.93,387.57c3.22,0,3.22-5,0-5C1512.71,382.57,1512.71,387.57,1515.93,387.57L1515.93,387.57z"/>
	</g>
</g>
<g>
	<path class="st4" d="M483.93,57.24"/>
	<g>
		<path class="st4" d="M483.93,59.74c3.22,0,3.22-5,0-5C480.72,54.74,480.71,59.74,483.93,59.74L483.93,59.74z"/>
	</g>
</g>
<g>
	<path class="st4" d="M929.38,583.71"/>
	<g>
		<path class="st4" d="M929.38,586.21c3.22,0,3.22-5,0-5C926.16,581.21,926.16,586.21,929.38,586.21L929.38,586.21z"/>
	</g>
</g>
<g>
	<path class="st4" d="M680.06,620.48"/>
	<g>
		<path class="st4" d="M680.06,622.98c3.22,0,3.22-5,0-5C676.84,617.98,676.84,622.98,680.06,622.98L680.06,622.98z"/>
	</g>
</g>
<g>
	<path class="st4" d="M945.16,641.93"/>
	<g>
		<path class="st4" d="M945.16,644.43c3.22,0,3.22-5,0-5C941.94,639.43,941.94,644.43,945.16,644.43L945.16,644.43z"/>
	</g>
</g>
<g>
	<path class="st4" d="M894.67,700.14"/>
	<g>
		<path class="st4" d="M894.67,702.64c3.22,0,3.22-5,0-5C891.45,697.64,891.44,702.64,894.67,702.64L894.67,702.64z"/>
	</g>
</g>
<g>
	<path class="st4" d="M462.3,626.61"/>
	<g>
		<path class="st4" d="M462.3,629.11c3.22,0,3.22-5,0-5C459.08,624.11,459.08,629.11,462.3,629.11L462.3,629.11z"/>
	</g>
</g>
<g>
	<path class="st4" d="M656.92,602.61"/>
	<g>
		<path class="st4" d="M656.92,605.11c3.22,0,3.22-5,0-5C653.7,600.11,653.7,605.11,656.92,605.11L656.92,605.11z"/>
	</g>
</g>
<g>
	<path class="st4" d="M642.72,571.97"/>
	<g>
		<path class="st4" d="M642.72,574.47c3.22,0,3.22-5,0-5C639.5,569.47,639.49,574.47,642.72,574.47L642.72,574.47z"/>
	</g>
</g>
<g>
	<path class="st4" d="M533.84,582.69"/>
	<g>
		<path class="st4" d="M533.84,585.19c3.22,0,3.22-5,0-5C530.62,580.19,530.61,585.19,533.84,585.19L533.84,585.19z"/>
	</g>
</g>
<g>
	<path class="st4" d="M489.65,671.54"/>
	<g>
		<path class="st4" d="M489.65,674.04c3.22,0,3.22-5,0-5C486.44,669.04,486.43,674.04,489.65,674.04L489.65,674.04z"/>
	</g>
</g>
<g>
	<path class="st4" d="M724.77,630.18"/>
	<g>
		<path class="st4" d="M724.77,632.68c3.22,0,3.22-5,0-5C721.55,627.68,721.55,632.68,724.77,632.68L724.77,632.68z"/>
	</g>
</g>
<g>
	<path class="st4" d="M748.44,581.16"/>
	<g>
		<path class="st4" d="M748.44,583.66c3.22,0,3.22-5,0-5C745.22,578.66,745.22,583.66,748.44,583.66L748.44,583.66z"/>
	</g>
</g>
<g>
	<path class="st4" d="M854.17,588.82"/>
	<g>
		<path class="st4" d="M854.17,591.32c3.22,0,3.22-5,0-5C850.95,586.32,850.94,591.32,854.17,591.32L854.17,591.32z"/>
	</g>
</g>
<g>
	<path class="st4" d="M819.45,683.8"/>
	<g>
		<path class="st4" d="M819.45,686.3c3.22,0,3.22-5,0-5C816.23,681.3,816.23,686.3,819.45,686.3L819.45,686.3z"/>
	</g>
</g>
<g>
	<path class="st4" d="M655.34,668.48"/>
	<g>
		<path class="st4" d="M655.34,670.98c3.22,0,3.22-5,0-5C652.12,665.98,652.12,670.98,655.34,670.98L655.34,670.98z"/>
	</g>
</g>
<g>
	<path class="st4" d="M775.27,676.14"/>
	<g>
		<path class="st4" d="M775.27,678.64c3.22,0,3.22-5,0-5C772.05,673.64,772.04,678.64,775.27,678.64L775.27,678.64z"/>
	</g>
</g>
<g>
	<path class="st4" d="M596.96,682.27"/>
	<g>
		<path class="st4" d="M596.96,684.77c3.22,0,3.22-5,0-5C593.74,679.77,593.73,684.77,596.96,684.77L596.96,684.77z"/>
	</g>
</g>
<g>
	<path class="st4" d="M592.22,622.52"/>
	<g>
		<path class="st4" d="M592.22,625.02c3.22,0,3.22-5,0-5C589,620.02,589,625.02,592.22,625.02L592.22,625.02z"/>
	</g>
</g>
<g>
	<path class="st4" d="M374,692.22"/>
	<g>
		<path class="st4" d="M374,694.72c3.22,0,3.22-5,0-5C370.78,689.72,370.78,694.72,374,694.72L374,694.72z"/>
	</g>
</g>
<g>
	<path class="st4" d="M329.82,572.73"/>
	<g>
		<path class="st4" d="M329.82,575.23c3.22,0,3.22-5,0-5C326.6,570.23,326.6,575.23,329.82,575.23L329.82,575.23z"/>
	</g>
</g>
<g>
	<path class="st4" d="M175.18,673.84"/>
	<g>
		<path class="st4" d="M175.18,676.34c3.22,0,3.22-5,0-5C171.96,671.34,171.95,676.34,175.18,676.34L175.18,676.34z"/>
	</g>
</g>
<g>
	<path class="st4" d="M514.44,471.63"/>
	<g>
		<path class="st4" d="M514.44,474.13c3.22,0,3.22-5,0-5C511.22,469.13,511.22,474.13,514.44,474.13L514.44,474.13z"/>
	</g>
</g>
<g>
	<path class="st4" d="M228.56,587.8"/>
	<g>
		<path class="st4" d="M228.56,590.3c3.22,0,3.22-5,0-5C225.35,585.3,225.34,590.3,228.56,590.3L228.56,590.3z"/>
	</g>
</g>
<g>
	<path class="st4" d="M274.33,466.01"/>
	<g>
		<path class="st4" d="M274.33,468.51c3.22,0,3.22-5,0-5C271.11,463.51,271.1,468.51,274.33,468.51L274.33,468.51z"/>
	</g>
</g>
<g>
	<path class="st4" d="M254.08,710.61"/>
	<g>
		<path class="st4" d="M254.08,713.11c3.22,0,3.22-5,0-5C250.86,708.11,250.85,713.11,254.08,713.11L254.08,713.11z"/>
	</g>
</g>
<g>
	<path class="st4" d="M396.09,652.39"/>
	<g>
		<path class="st4" d="M396.09,654.89c3.22,0,3.22-5,0-5C392.88,649.89,392.87,654.89,396.09,654.89L396.09,654.89z"/>
	</g>
</g>
<g>
	<path class="st4" d="M453.43,568.65"/>
	<g>
		<path class="st4" d="M453.43,571.15c3.22,0,3.22-5,0-5C450.21,566.15,450.2,571.15,453.43,571.15L453.43,571.15z"/>
	</g>
</g>
<g>
	<path class="st4" d="M380.84,631.46"/>
	<g>
		<path class="st4" d="M380.84,633.96c3.22,0,3.22-5,0-5C377.62,628.96,377.62,633.96,380.84,633.96L380.84,633.96z"/>
	</g>
</g>
<g>
	<path class="st4" d="M322.45,628.39"/>
	<g>
		<path class="st4" d="M322.45,630.89c3.22,0,3.22-5,0-5C319.24,625.89,319.23,630.89,322.45,630.89L322.45,630.89z"/>
	</g>
</g>
<g>
	<path class="st4" d="M259.34,605.41"/>
	<g>
		<path class="st4" d="M259.34,607.91c3.22,0,3.22-5,0-5C256.12,602.91,256.11,607.91,259.34,607.91L259.34,607.91z"/>
	</g>
</g>
<g>
	<path class="st4" d="M420.29,490.52"/>
	<g>
		<path class="st4" d="M420.29,493.02c3.22,0,3.22-5,0-5C417.07,488.02,417.07,493.02,420.29,493.02L420.29,493.02z"/>
	</g>
</g>
<rect x="-0.12" y="733.72" class="st5" width="1979.21" height="343.15"/>
<rect x="0.92" y="891.02" class="st6" width="1979.21" height="190.98"/>
</svg>
