<?xml version="1.0" encoding="utf-8"?>
<!-- Generator: Adobe Illustrator 27.3.1, SVG Export Plug-In . SVG Version: 6.00 Build 0)  -->
<svg version="1.1" id="Layer_1" xmlns="http://www.w3.org/2000/svg" xmlns:xlink="http://www.w3.org/1999/xlink" x="0px" y="0px"
	 viewBox="0 0 792 864" style="enable-background:new 0 0 792 864;" xml:space="preserve">
<style type="text/css">
	.st0{fill:#0D1A1C;}
	.st1{fill:#EDDFD7;stroke:#D6AD9C;stroke-width:3;stroke-miterlimit:10;}
	.st2{fill:#CEBAB2;stroke:#C1A69C;stroke-width:4;stroke-miterlimit:10;}
	.st3{fill:#1A130E;stroke:#000000;stroke-width:3;stroke-miterlimit:10;}
	.st4{fill:#D64827;stroke:#BA3A26;stroke-width:3;stroke-miterlimit:10;}
	.st5{fill:#2B190D;stroke:#000000;stroke-width:2;stroke-miterlimit:10;}
	.st6{fill:#D23C27;stroke:#A53A23;stroke-width:3;stroke-linecap:round;stroke-linejoin:round;stroke-miterlimit:10;}
	.st7{fill:#56B7CE;stroke:#2F6D7A;stroke-miterlimit:10;}
	.st8{fill:#DC7038;stroke:#AA5626;stroke-width:0.75;stroke-miterlimit:10;}
	.st9{fill:none;stroke:#984D23;stroke-width:5;stroke-miterlimit:10;}
	.st10{fill:#D74727;stroke:#BA3A26;stroke-miterlimit:10;}
	.st11{fill:#FDE6D8;stroke:#C6B6B0;stroke-linecap:round;stroke-linejoin:round;stroke-miterlimit:10;}
	.st12{fill:none;stroke:#3D52A3;stroke-linecap:round;stroke-linejoin:round;stroke-miterlimit:10;}
	.st13{fill:none;stroke:#B5956A;stroke-linecap:round;stroke-linejoin:round;stroke-miterlimit:10;}
	.st14{fill:none;stroke:#214144;stroke-width:3;stroke-miterlimit:10;}
	.st15{fill:#ECDED8;stroke:#CEBAB2;stroke-miterlimit:10;}
	.st16{fill:none;stroke:#A8A594;stroke-miterlimit:10;}
	.st17{fill:none;stroke:#A5391D;stroke-miterlimit:10;}
	.st18{fill:none;stroke:#A5391D;stroke-linecap:round;stroke-linejoin:round;stroke-miterlimit:10;}
	.st19{fill:none;stroke:#81C241;stroke-linecap:round;stroke-linejoin:round;stroke-miterlimit:10;}
	.st20{fill:none;stroke:#BA3A26;stroke-miterlimit:10;}
	.st21{fill:#E9DBD4;stroke:#CEBAB2;stroke-miterlimit:10;}
	.st22{fill:#EA8039;stroke:#CD6028;stroke-miterlimit:10;}
	.st23{fill:#D13C27;stroke:#A53A23;stroke-miterlimit:10;}
	.st24{fill:#19100A;}
	.st25{fill:#B2D5DD;stroke:#7CAEB4;stroke-linecap:round;stroke-miterlimit:10;}
	.st26{fill:#0D1A1C;stroke:#7CAEB4;stroke-linecap:round;stroke-miterlimit:10;}
	.st27{fill:#E5E5E4;}
	.st28{fill:#0D1A1C;stroke:#74CDE1;stroke-width:2;stroke-miterlimit:10;}
	.st29{fill:none;stroke:#74CDE1;stroke-width:2;stroke-miterlimit:10;}
	.st30{fill:none;stroke:#2A4E51;stroke-linecap:round;stroke-linejoin:round;stroke-miterlimit:10;}
</style>
<path class="st0" d="M58.6,857.6h672.1c23.2,0,42.1-18.8,42.1-42.1v-767c0-23.2-18.8-42.1-42.1-42.1H58.6
	c-23.2,0-42.1,18.8-42.1,42.1v767C16.5,838.8,35.3,857.6,58.6,857.6z"/>
<path class="st1" d="M156.1,22.3c-245.1,450.3,102.4,670,102.4,670l166.6-47.8c0,0,178.2-370.5-268.4-622.3"/>
<circle class="st2" cx="248.6" cy="342.4" r="97.6"/>
<circle class="st3" cx="248.3" cy="341.1" r="74.7"/>
<polyline class="st3" points="259.6,692 248,773.6 479,707.3 425.9,644.3 "/>
<path class="st4" d="M68.3,343.8c0,0-101.5,187,53.6,374.9l49.3-107.7c-64.5-70.2-98.5-160.7-103.3-265.3"/>
<path class="st4" d="M399.3,248.8c0,0,185.2,104.7,153.3,346.2l-98.9-65.2c17.5-93.8-1.7-188.4-53.1-279.7"/>
<polyline class="st5" points="212.1,687.2 206,732.6 334.1,694.8 304.3,660 "/>
<path class="st6" d="M104.3,564.5c0,0-55.6,104.3,31.3,208.1l26.9-60.1c-36.2-38.8-55.4-88.9-58.5-147"/>
<path class="st7" d="M17.4,571.7c0,0,98-52.4,170-23.1c72,29.3,95,50.9,128.7,46.3s78.1-37,116.4-38.6s41.4,32.4,99.6,41.7
	c58.2,9.2,116.4-18.5,131.7-30.8c15.3-12.3,108.2,4.6,108.2,4.6l-0.9,232.9c0,0,7.7,43.2-29.1,49.4c-36.8,6.2-675.6,1.5-675.6,1.5
	s-53.7,15.7-49-61.7C21.9,719.4,15.6,573.2,17.4,571.7z"/>
<path class="st8" d="M479.7,685.8c0,0,17,17.4,9,35.1l-26.1,15.8c-19.4-1.2-26.9-24.3-26.9-24.3l-0.2-0.2
	c-11.2-13.2-16.9-42.9-16.9-42.9c38.5-0.7,46.9-9.6,46.9-9.6c7.4,8.2,14.2,18,13.9,25.8L479.7,685.8"/>
<path class="st8" d="M609.8,685.8c0,0-17,17.4-9,35.1l26.2,15.8c19.4-1.2,26.9-24.3,26.9-24.3l0.2-0.2
	c11.2-13.2,16.9-42.9,16.9-42.9c-38.5-0.7-46.9-9.6-46.9-9.6c-7.4,8.2-14.2,18-13.9,25.8L609.8,685.8"/>
<path class="st9" d="M58.6,857.6h672.1c23.2,0,42.1-18.8,42.1-42.1v-767c0-23.2-18.8-42.1-42.1-42.1H58.6
	c-23.2,0-42.1,18.8-42.1,42.1v767C16.5,838.8,35.3,857.6,58.6,857.6z"/>
<path class="st10" d="M473.3,695.5l1.1-8l-0.5,43.3c5.5-1.2,11-2.1,16.6-2.7c14.6-4.5,30.7-5.6,45.7-4.2c7.4,0.7,14.8,2,22,3.6
	c4.3,0,8.5,0.1,12.8,0.1c15,0,30,0.1,45.1,0l-0.5-40.1l1.1,8c13,5.9,60.4-19.4,56.6-25.6L640,609.1c0,0-3.2-9.3-17.5-13.6l-41-10.3
	l-4-0.9c-1.1,0-0.9,0.6-0.9,0.6c0,1.5-0.2,3.3-0.9,5.1l-5.4,19.9l0,0c-0.3,0.9-1.1,1.4-2,1.4c-0.3,0-0.6-0.1-0.9-0.2l-0.1,0
	l-20.1-10.3l-1.6,1.3l-1.6-1.3l-20.1,10.3l-1,0.2c-0.9,0-1.7-0.6-2-1.5l0-0.1l-5.4-19.9c-0.7-1.9-0.9-4-0.9-5.5l0-0.5l-5.9,1.4
	l-41,10.3c-14.3,4.3-17.5,13.6-17.5,13.6l-33.4,60.7C412.9,676,460.3,701.3,473.3,695.5z"/>
<path class="st11" d="M527,656.4c0,0,1.1,4.1,1.7,0s-0.8-6.7-0.8-6.7s-3.8-2.4-3-7.1c0.7-4.7,0.5-7.4,3.5-8.5c0,0,5.5-0.1,8-0.7
	s4.9,1.2,4.9,1.2s3,2.9,3.9,6c0.9,3.1,0.5,3.9,0.5,3.9s3.2,4.6,0.1,8.7c0,0-0.9,2-4.6,3.6c0,0-3.1,2.3-3.4,3.2
	c-0.3,0.9-0.6,0.6-0.6,0.6s-0.5-2.1,0.4-3.5s-0.6-0.6-0.6-0.6l-2.8,5.6c0,0-1.3,1.7-1.3-0.6s0.4-6.4,0.4-6.4s-0.7-3.8-1.6-0.2
	s-0.6,9-0.6,9s-0.1,4.3-1.6,1.2c0,0-1.8-6.1-3.6-6.3c-1.8-0.2-1.5,1.5-1.5,1.5l3.3,4.9c0,0,1.4,3.8-1.6,1.2c0,0-2.5-3.8-7.6-5
	s-2.6,2.6-2.6,2.6s5.8,0.2,7.2,3.1c0,0,2.8,2.3,0.1,2.8c0,0-2-0.3-2.7-0.6c-0.7-0.3-8.9,0.3-8.9,0.3s-4.1,2.7-6.8,0.6
	c-2.7-2.1-4-6.2-4-6.2s-1.6-6.6,3.1-10.1c4.7-3.5,4.2-5.6,4.2-5.6s0.4-4.3,8.3-3.2C524.2,646,527,656.4,527,656.4z"/>
<path class="st11" d="M522.6,674.8c0,0-3.3,0.3,0.3,2.6h1.5c0,0,4.7,0,2.1,2.2s-6.5,4-6.5,4s-6.2,3.6-1.4,4.1
	c4.7,0.5,7.6-5.1,7.6-5.1s3.3-4.3,1.2,2s-2.7,6.8-1.7,7.8c1.1,1,3.5-5.2,3.5-5.2s-0.2-6,1.7-5.7s0.6,7.4,0.6,7.4l-0.1,8
	c0,0-1,8.6-6.5,10.5c-5.6,1.9-5.8,0.9-8.6-2.4c0,0-7.5,3.4-11.3-6.6c-3.8-10-1.3-15.4-1.3-15.4s1.2-2.4,2.4-2.4c0,0,0,0,0.1,0
	l-0.1-0.4c0,0-1-6,4.2-7.8s7.9-1.2,7.9-1.2s8.6,0.6,9.5,2.5c0.9,2-5,1.1-5,1.1H522.6z"/>
<path class="st11" d="M553.8,652.1c-20.3,7.2-22.8,21.6-22.8,21.6s-0.1,5.4,3.3,1.1c0,0,3.8-16.5,21.2-21.4c0,0-2.8,6.4,1.9,6.4
	c0,0,2.4,1.1,1.8-4.8c0,0,2.5,6.8,5.4,3.3c2.9-3.5-2.9-7-2.9-7s5.9-0.5,4.8-4.2c-1-3.7-5.2-1.7-5.2-1.7l-1.9,1.8
	c0,0,0.9-7.4-3.3-4.4s-0.4,4.9-0.4,4.9s-3-2.5-4.1,0.3c-1,2.8,1.8,3.9,1.8,3.9L553.8,652.1z"/>
<path class="st11" d="M543.6,710.3c0,0-13.4,4.3-9.6-12l0-0.3c0,0-1.1-8.4,0-14c1.1-5.6,2-0.1,2-0.1l0.8,6.5c1.8,3.8,2,0.4,2,0.4
	s-1.5-10.3,0-5.9c1.5,4.4,2.9,4.8,2.9,4.8c3.2,1.6-0.6-4-0.6-4c-2-4.3,3.2,0.5,3.2,0.5c4.5,6.2,4.5,0.2,4.5,0.2s-1.9-4.6-7.7-5.7
	c-5.8-1.1,3.7-4.4,3.7-4.4c6.9,0.5,5.9-0.4,5.9-0.4s1.2-3.9-5.4-2.7c-6.6,1.2-0.5-2.8-0.5-2.8s4.8,0.7,5.5-2.4
	c0.7-3.1-7.5-0.1-7.5-0.1c-6.6,4.5,0-3.1,0-3.1s6.6-7.2,11-4.2c4.4,3,5.5,2.7,5.5,2.7s4.3,0.6,5.6,8.6c1.4,8-0.9,10.9-0.9,10.9
	s-4.2,5.3-9.4-1.4l-0.2-0.3c0,0-11.4-2.7-1.8,1.8s2.8,14.6,2.8,14.6s3.6,15.5-11.6,12.7H543.6z"/>
<path class="st11" d="M625.7,600.4c0,0-6.4,5.2-7.2,5.3c-0.8,0.1-2.6,1-2.6,1c-2,1.9,1.6,2.2,1.6,2.2c2.8,1.6,7.7-1.5,7.7-1.5
	S626.4,608.2,625.7,600.4z"/>
<path class="st11" d="M601.6,590.4c-0.2,1.7,0.4,5.8,0.4,5.8s3.5,4.8,1.8,5.6s-4.7-5.7-4.7-5.7l-4.4-6.6c0,0-0.2-0.3-0.4-0.8
	L601.6,590.4z"/>
<path class="st11" d="M608,592c-1.4,2.7-1,6-1,6s-0.3,5.5-2.1-0.9c-1-3.5-1.1-5.3-1.4-6.2L608,592z"/>
<path class="st11" d="M626.2,596.9c0.2,0.1-0.2,0.4-0.4,0.6c-3.3,4.4-5.8,5.5-5.8,5.5s-7.4,4.3-9.3,3.3s3.6-3.7,3.6-3.7l0.2-0.1
	c0,0,2.6-2.1-1.8-2l-1.3,0.9c0,0-3.9,2.6-3-0.6s3.1-7,3.1-7s0.1-0.3,0.3-0.7C611.8,593,622.3,595.3,626.2,596.9z"/>
<path class="st11" d="M591.1,587.8c0.2,0.5,0.5,1,0.7,1.6l0.2,0.2c0,0,5.6,6.3,7.9,11.6c2.3,5.3-1.6,1.2-1.6,1.2l-4.3-4.9
	c-3.7-2.1-1.9,0.8-1.9,0.8s7,7.6,3.3,4.9c-3.7-2.7-5.1-2.3-5.1-2.3c-3.6,0.5,2.7,3,2.7,3c4.1,2.4-2.9,1.4-2.9,1.4
	c-7.2-2.6-3.9,2.3-3.9,2.3s4.2,2.7,9.6,0.3c5.4-2.4-0.6,5.7-0.6,5.7c-6,3.5-4.7,3.7-4.7,3.7s1.2,3.9,5.9-0.8c4.8-4.7,2,2,2,2
	s-4.4,2.1-3.2,5.1c1.1,2.9,6.2-4.1,6.2-4.1c2.9-7.5,1.8,2.6,1.8,2.6s-1.4,9.7-6.7,9.7c-5.3,0-6.1,0.9-6.1,0.9s-3.9,1.9-9.5-4
	s-5.3-9.5-5.3-9.5s0.5-6.7,8.6-4.1l0.3,0.1c0,0,11-4.2,0.5-2.6c-10.5,1.6-10.5-10.5-10.5-10.5s-0.6-0.6-1.5-1.6l3.4-12.7
	c0,0,0.3-2.7,0.3-3.2s1.3,0,1.3,0l6.8,1.6l4.4,1.1L591.1,587.8z"/>
<path class="st12" d="M593.1,589.8"/>
<path class="st11" d="M491.4,727.8c7.3-2.2,14.9-3.5,22.6-4.2c0.1-3,0-4.8-2.2-6c0,0-5.4-1-7.7-2c-2.3-1-5.1,0.4-5.1,0.4
	s-3.4,2.4-4.8,5.3c-1.4,2.9-1.1,3.8-1.1,3.8S492,726.2,491.4,727.8z"/>
<path class="st11" d="M486.5,728.5c0-0.3,0-0.6-0.1-0.9c-0.4-2.1-2.2-1.7-3.2-1.3c1-0.6,2.2-1.9-0.3-4.5c-3.6-3.7-3.9,3.8-3.9,3.8
	l-1.6-2c0,0-1-0.7-2.2-0.9l-0.1,8C478.8,729.7,482.7,729.1,486.5,728.5z"/>
<path class="st13" d="M496.9,779.1"/>
<path class="st11" d="M615.7,698.8c-0.6,0.3-1,0.6-1.1,0.7c-0.5,0.6-2,1.9-2,1.9c-2.6,1-1.4-2.4-1.4-2.4c-0.2-2.8,3.5-5.6,4.4-6.2
	L615.7,698.8z"/>
<path class="st13" d="M566.4,692.3"/>
<path class="st11" d="M617,677c-2.3-0.8-2.5-1.9-2.5-1.9s-2.5-3.5-8.7,1.5c-6.2,4.9-3.3,15.3-3.3,15.3s1.1,4.1-1.4,0.9
	s-2.7-6.2-2.7-6.2s2-4-1.1-7.7c-3.1-3.7-4.2-6.1-7.4-5.5c0,0-4.8,2.8-7.2,3.5c-2.4,0.7-3.6,3.6-3.6,3.6s-1.1,4-0.3,7.2
	s1.6,3.6,1.6,3.6s-0.4,5.6,4.4,7.5c0,0,1.8,1.2,5.8,0.7c0,0,3.8,0.4,4.5,1c0.7,0.6,0.8,0.3,0.8,0.3s-0.7-2.1-2.2-2.8
	c-1.5-0.7,0.2-0.8,0.2-0.8l5.2,3.3c0,0,2,0.8,0.8-1.2c-1.2-2-3.6-5.2-3.6-5.2s-1.3-3.6,1.3-1c2.7,2.6,5.1,7.5,5.1,7.5s2.3,3.7,2,0.2
	c0,0-1.6-6.2-0.2-7.2c1.4-1.1,2,0.5,2,0.5l-0.3,5.9c0,0,0.7,4,2,0.2c0,0,0.2-4.6,3.9-8.2c2.2-2.2,3.1-1.4,3.4-0.5L617,677z"/>
<path class="st13" d="M616.1,719.2c-0.6-1-2.9-4.8-4.2-3.8c-1.4,1.2,3.2,6.7,3.2,6.7l0.9,1.5"/>
<path class="st11" d="M616.1,715.9c-3.5-3.1-1.1-2.5,0-2.1L616.1,715.9z"/>
<path class="st11" d="M616,711.8c-0.4,0-0.9-0.1-1.3-0.2c-3.3-0.5,0.7-3,0.7-3l0.5-0.3L616,711.8"/>
<path class="st11" d="M615.9,705.4c0,0-5.1,4-5.3,1.8c-0.1-1.5,3.2-4.3,5.3-5.9L615.9,705.4z"/>
<path class="st11" d="M577.3,702c21.1-4.2,30.6,6.8,30.6,6.8s2.9,4.6-2.2,2.6c0,0-11.7-12.2-29.2-7.5c0,0,5.7,4,1.7,6.5
	c0,0-1.5,2.2-4.1-3.2c0,0,1.3,7.1-2.9,5.6c-4.3-1.5-1.1-7.5-1.1-7.5s-5.3,2.6-6.3-1.1s3.6-4.1,3.6-4.1l2.5,0.5c0,0-4.6-5.9,0.6-5.4
	c5.2,0.5,2.8,4,2.8,4s1.3-3.7,3.7-1.8s0.5,4.3,0.5,4.3"/>
<path class="st11" d="M607.2,727.6c1,0,2,0,3,0c-0.1-0.1-0.1-0.1-0.1-0.1s-4-9.6-3-5.1C607.6,725.5,607.4,727,607.2,727.6z"/>
<path class="st11" d="M611.6,726c0.1,0.7,0.1,1.2,0,1.6c1.5,0,3,0,4.5,0c-1.3-2.6-3.3-6.1-5.5-8.4c-3.8-4.3-1.8,0.9-1.8,0.9
	L611.6,726z"/>
<path class="st11" d="M579,727.5c4.2,0,8.3,0,12.5,0l0-0.3c0,0,8.2-8,2.7,0.3c1.6,0,3.2,0,4.9,0c0.1-1.7,0.6-4.9,3.7-7.7
	c4.4-3.9-5.4-1.8-5.4-1.8c-5.7,4-5.3,2.7-5.3,2.7s-3.1-2.7,3.2-5.1c6.3-2.4-1-2.6-1-2.6s-3.8,3.1-6,0.8c-2.2-2.3,6.4-3.9,6.4-3.9
	c8,0.5-1.6-2.7-1.6-2.7s-9.4-2.8-11.6,2c-2.2,4.8-3.3,5.2-3.3,5.2s-3.3,2.7-0.4,10.3C578.2,725.8,578.6,726.7,579,727.5z"/>
<path class="st11" d="M602.8,727.6c0.9,0,1.8,0,2.8,0c-0.2-1.3-0.1-3.4-0.1-3.4c-0.4-4.7-2.5,2-2.5,2
	C602.9,726.7,602.8,727.2,602.8,727.6z"/>
<path class="st13" d="M475.1,729.7c0.6-0.3,1-0.5,1-0.5s-0.4-0.1-1-0.3"/>
<path class="st13" d="M575.3,778.3"/>
<path class="st11" d="M464.6,609.4c0.3,0,0.4,0,0.4,0c2.1-0.8,0.4-2.1-0.4-2.5L464.6,609.4z"/>
<path class="st11" d="M464.5,603.6c1.6,0.9,2.5,1.8,2.5,1.8c3.5,1.9,1.4-1.5,1.4-1.5l-3.9-3.8L464.5,603.6z"/>
<path class="st11" d="M470.3,595.2c0.3,3.3,1.2,6.6,1.2,6.6s0.8,4.2-1.3,1.5c0,0-3-5.6-4.8-5.4c-0.4,0-0.6,0.1-0.8,0.3v-1.1
	L470.3,595.2z"/>
<path class="st11" d="M475.5,594.2l-1.4,5.3c0,0-0.9,1.9-1.4-0.3c-0.3-1.2-0.5-3-0.7-4.3L475.5,594.2z"/>
<path class="st14" d="M564.4,681.7c0,0-13.6-50.5,1.7-95.5"/>
<path class="st14" d="M523.3,681.7c0,0,13.6-50.5-1.7-95.5"/>
<path class="st11" d="M480.1,592.9c0,0-2.6,2.9-2.7,3.8c-0.1,1-0.4,0.7-0.4,0.7s-0.9-2-0.3-3.5c0-0.1,0.1-0.2,0.1-0.2L480.1,592.9z"
	/>
<path class="st11" d="M467.1,596.3c0.5,0.7,1.2,1.6,1.3-0.1"/>
<path class="st11" d="M469.1,624.4c1.1-1.6,1.5-3.2,1.5-3.2s2.4-4.9,1.6,1.7c-0.8,6.6-1.3,7.2,0,8c1.3,0.8,2.4-5.8,2.4-5.8
	s-1.4-5.8,0.5-5.9c1.9-0.1,2.1,7.1,2.1,7.1l1.5,7.8c0,0,0.8,8.6-4.3,11.6c-1.2,0.7-1.8,1.2-2.6,1.5l-0.1-5.7c0,0,0-7.7-0.8-9.3
	l-0.8-3.8L469.1,624.4z"/>
<path class="st11" d="M468,620.6c0.8-0.7,1.6-1.6,2.2-2.4c2.1-2.6-2.5-1.7-2.5-1.7l-1,0.2L468,620.6z"/>
<path class="st11" d="M465.9,614.3c0,0,6-0.3,4.7-2.1c-0.7-0.9-3.3-1-5.7-0.9L465.9,614.3z"/>
<path class="st11" d="M486.8,591.1c-9.8,8.8-10,20.9-10,20.9c-2.5,4.9-3.4-0.4-3.4-0.4s-0.3-9.8,9.8-19.5L486.8,591.1z"/>
<path class="st11" d="M480.2,634.1"/>
<path class="st11" d="M465.4,612.9c-1.1,0.1-2.3,0-3.2-0.8c-2.7-2.1-4-6.2-4-6.2s-0.6-2.4,0-5.1"/>
<polygon class="st15" points="586.1,572.8 505.2,572.1 505.2,546.8 586.3,546.7 "/>
<path class="st11" d="M471.6,647.4c-2.5,0.2-6.6-0.6-9-7.1c-3.8-10-1.3-15.4-1.3-15.4s1.2-2.4,2.4-2.4c0,0,0,0,0.1,0l0.1-0.2
	c0,0-0.8-4.6,2.4-7.1c0,0,2.5,6.4,4.8,17.5l0.6,5.7c0,0,0.1,2.6-0.1,3.6C471.3,643,471.6,647.4,471.6,647.4z"/>
<path class="st11" d="M474.8,685.3c-3.5-0.9-5.8,2.1-8.2,4c-2.9,2.3-6.6,2.9-9.7,4.7c0,0,8.2,3.7,17.5,1.7l1-8.8L474.8,685.3z"/>
<path class="st11" d="M468.2,676.4c0,0,3.5,5.4-0.5,9.1c-4,3.7-6.7,4.4-6.7,4.4s-8.1,3-9.7,1.6s4.2-3.1,4.2-3.1l0.2-0.1
	c0,0,2.9-1.6-1.4-2.3l-1.4,0.6c0,0-4.3,1.9-2.8-1.1c1.5-3,4.3-6.3,4.3-6.3s4.1-5.8-0.4-4.3c-4.5,1.5-4.9,7.7-4.9,7.7
	s-1.3,5.3-1.9-1.3c-0.7-6.6-0.3-7.3-1.7-7.8c-1.4-0.5-1,6.2-1,6.2s2.6,5.4,0.8,5.9c-1.8,0.5-3.6-6.5-3.6-6.5l-3.2-7.3
	c0,0-2.6-8.2,1.7-12.2c4.3-4,4.9-3.3,8.8-1.4c0,0,5.4-6.2,13,1.4s7.5,13.5,7.5,13.5S469.3,675.9,468.2,676.4
	C468.2,676.4,468.2,676.4,468.2,676.4"/>
<path class="st13" d="M436.9,672.3"/>
<path class="st11" d="M653.5,633.6c0,1,0.2,1.5-0.1,2.8c-2.7,10.4-7.9,13.2-7.9,13.2s-2.4,1.2-3.3,0.6c0,0,0,0,0,0l-0.2,0.3
	c0,0-2.7,5.5-8,3.9s-7.2-3.6-7.2-3.6s-6.6-5.5-6.2-7.6c0.4-2.1,4.7,2.1,4.7,2.1l0.2,0.1c0,0,2.8,1.7,1.3-2.3l-1.2-0.9
	c0,0-3.8-2.8-0.4-3s7.6,0.5,7.6,0.5s7.1,0.7,3.5-2.5s-9.1-0.3-9.1-0.3s-5.2,1.6,0.1-2.3c5.4-3.9,6.2-3.9,5.9-5.4
	c-0.3-1.5-5.9,2.2-5.9,2.2s-3.3,5-4.7,3.6c-1.3-1.3,3.8-6.4,3.8-6.4l4.7-6.4c0,0,5.8-6.4,11.4-4.7c1.9,0.6,2.3,1.3,3.1,1.8
	L653.5,633.6z"/>
<path class="st12" d="M629.9,621"/>
<path class="st11" d="M628.1,695.8c-0.2,0-1.7,0.2-1.9,0.2c0.6-1.7,2.6-5.2,2.8-7c0.3-2.5,2.9-4.2,2.9-4.2s3.8-1.8,7-1.5
	c3.2,0.3,3.8,0.9,3.8,0.9s5.4-1.4,8.1,3C650.9,687.4,638.7,694.2,628.1,695.8z"/>
<path class="st11" d="M654.6,685.8c-0.2-1.9-0.2-3.9,0-5.8c1.5,1.5,5.2,3.9,6.6,0.8c1-2.3-2-3.3-3.8-3.8c2.2,0,7.7-1.3,4.8-4.6
	c-1.8-2.1-5.5-0.3-7.3,1c0.5-2,0.6-5.7-2-6.1c-4.3-0.7-3.6,4.4-2.6,6.7c-1.7-0.9-5.1-2.4-5.6,0.5c-0.4,2.4,2.7,5,4.7,3.1
	c-3.9,2.2,0.3,6.6,3.1,3.6l0.3-0.1c0,1.8,0,3.6,0.1,5.4L654.6,685.8z"/>
<path class="st16" d="M586.1,547.2"/>
<path class="st17" d="M517.6,576.5l-2.9,6c0,0,0,0.4,0,1.1"/>
<path class="st18" d="M544,600.9"/>
<path class="st18" d="M522.9,609.3"/>
<path class="st18" d="M548.4,600.9"/>
<path class="st19" d="M475.5,687.5"/>
<path class="st20" d="M471.6,649.3c0,0-7.6-5.5-9.9-13.2"/>
<path class="st20" d="M472.4,661.2c0,0-4.2,0.2-5,7.1"/>
<path class="st15" d="M585.6,525.2c0,0-6.8-34.7-40.1-34.7h0.2c-33.3,0-40.1,34.7-40.1,34.7"/>
<path class="st21" d="M545.4,560.9c38.4-0.5,40.7-13.8,40.7-13.8v-17.1c0-17.4-18-31.5-40.2-31.5h-0.5c-22.2,0-40.2,14.1-40.2,31.5
	v17.1c0,0,2.4,13.3,40.7,13.8"/>
<path class="st22" d="M564.1,576.3c-2.9,7.2-8.5,18.1-18.2,25.8l-0.6-0.1c-9.7-7.6-15.3-18.5-18.2-25.7L564.1,576.3z"/>
<path class="st17" d="M573.6,576.3l2.9,6c0,0,0.1,1.4,0.2,2.4"/>
<path class="st23" d="M508.7,585.2"/>
<path class="st18" d="M544,600.9"/>
<path class="st18" d="M522.9,609.3"/>
<path class="st18" d="M548.4,600.9"/>
<path class="st10" d="M527.3,575.8c2.7,6.8,7.8,16.8,16.5,24.3l0.4,0.3l-20.1,10.3l-1,0.2c-0.9,0-1.7-0.6-2-1.5l0-0.1l-5.4-19.9
	c-0.7-1.9-0.9-4-0.9-5.5l0-0.5l0-0.3c0-0.7,0-1.1,0-1.1l2.9-6L527.3,575.8z"/>
<path class="st10" d="M573.6,576.3l2.9,6c0,0,0.1,1.4,0.2,2.4l0,0.3c0,1.5-0.2,3.3-0.9,5.1l-5.4,19.9l0,0c-0.3,0.9-1.1,1.4-2,1.4
	c-0.3,0-0.6-0.1-0.9-0.2l-0.1,0l-20.1-10.3l0.5-0.4c9.7-7.6,13.5-17,16.4-24.3L573.6,576.3z"/>
<path class="st18" d="M568.4,609.3"/>
<path class="st18" d="M542.9,600.9"/>
<path class="st18" d="M522.9,609.3"/>
<path class="st18" d="M548.4,600.9"/>
<path class="st18" d="M568.4,609.3"/>
<path class="st18" d="M542.9,600.9"/>
<path class="st15" d="M545.6,578c23.6-0.4,33.5-2.5,37.7-3.6c3.4-0.9,2.8-3,2.8-3v-2.8c0,0-14.1,3.8-40.1,3.5h-0.8
	c-26,0.3-40.1-3.5-40.1-3.5v2.8c0,0-0.5,2.1,2.8,3C512.2,575.5,522,577.6,545.6,578"/>
<path class="st18" d="M547.3,600.9"/>
<path class="st18" d="M568.4,609.3"/>
<path class="st18" d="M542.9,600.9"/>
<path class="st19" d="M615.7,687.5"/>
<path class="st20" d="M619.7,649.3c0,0,7.6-5.5,9.9-13.2"/>
<path class="st20" d="M618.8,661.2c0,0,4.2,0.2,5,7.1"/>
<path class="st16" d="M546.1,509.1"/>
<path class="st12" d="M593.1,589.8"/>
<path class="st13" d="M496.9,779.1"/>
<path class="st11" d="M616.1,723.6l-0.9-1.5c0,0-4.7-5.4-3.2-6.7c1.3-1.1,3.6,2.8,4.2,3.8L616.1,723.6z"/>
<path class="st13" d="M575.3,778.3"/>
<path class="st20" d="M545.5,602.2C545,642,545,683,545.5,723"/>
<path class="st11" d="M480.2,634.1"/>
<path class="st11" d="M465.4,612.9c-1.1,0.1-2.3,0-3.2-0.8c-2.7-2.1-4-6.2-4-6.2s-0.6-2.4,0-5.1l3.9-2.5l2.5-1.2l-0.1,13.2
	L465.4,612.9z"/>
<path class="st13" d="M436.9,672.3"/>
<path class="st12" d="M629.9,621"/>
<path class="st18" d="M544,600.9"/>
<path class="st17" d="M522.9,609.3"/>
<path class="st20" d="M464.5,597.2v13.1c0,0,7.8,19.8,7,30.6c-0.8,10.7,4,46.4,4,46.4"/>
<path class="st18" d="M548.4,600.9"/>
<path class="st19" d="M475.5,687.5"/>
<path class="st18" d="M547.3,600.9"/>
<path class="st18" d="M568.4,609.3"/>
<path class="st18" d="M542.9,600.9"/>
<path class="st19" d="M615.7,687.5"/>
<path class="st16" d="M546.1,509.1"/>
<path class="st11" d="M437.3,685.8c-1.2-1.8-4.1-5.4-2.7-6.6c1.5-1.2,3.3,3.1,3.9,4c0.7,1.2,2.9,5.4,3.2,2.2
	c0.4-4.4-3.7-10-5.9-13.5l-0.2-0.3c-3.2-16.4-14.5-7.6-14.5-7.6l-3.1,5.6c0,0-1.1,1.3,0.3,3s2.3,3.1,7.3,6.5
	C430.5,682.5,437.3,685.8,437.3,685.8z"/>
<path class="st11" d="M601.3,638.7c12.8-17.3,7-30.6,7-30.6s-2.9-4.6-3.3,0.9c0,0,6,15.8-5.7,29.6c0,0-1.2-6.9-5.1-4.3
	c0,0-2.6,0.4,1.2,5c0,0-5.9-4.2-6.3,0.2c-0.5,4.5,6.3,4.2,6.3,4.2s-4.6,3.7-1.7,6.2c2.9,2.5,5.2-1.5,5.2-1.5l0.6-2.5
	c0,0,3.4,6.7,5.1,1.8c1.8-4.9-2.4-4.3-2.4-4.3s3.9,0.4,3.2-2.5c-0.7-2.9-3.7-2.2-3.7-2.2L601.3,638.7z"/>
<path class="st17" d="M474.4,695.6l1.1-8.4l-1,43.5c5.3-1.2,10.6-2,16-2.6c14.6-4.5,30.7-5.6,45.7-4.2c7.4,0.7,14.8,2,22,3.6
	c4.3,0,8.5,0.1,12.8,0.1c15,0,30,0.1,45.1,0l-0.5-40.1l1.1,8c13,5.9,60.4-19.4,56.6-25.6L640,609.1c0,0-3.2-9.3-17.5-13.6l-41-10.3
	l-4-0.9c-1.1,0-0.9,0.6-0.9,0.6c0,1.5-0.2,3.3-0.9,5.1l-5.4,19.9l0,0c-0.3,0.9-1.1,1.4-2,1.4c-0.3,0-0.6-0.1-0.9-0.2l-0.1,0
	l-20.1-10.3l-1.6,1.3l-1.6-1.3l-20.1,10.3l-1,0.2c-0.9,0-1.7-0.6-2-1.5l0-0.1l-5.4-19.9c-0.7-1.9-0.9-4-0.9-5.5l0-0.5l-5.9,1.4
	l-41,10.3c-14.3,4.3-17.5,13.6-17.5,13.6l-33.4,60.7C412.9,676,461.4,701.5,474.4,695.6z"/>
<path class="st11" d="M626.7,610.6l-3.7,10.8c-1.2-0.8-1.9-1.4-1.9-1.4s-3.3-2.8-1.4,0.9c0.8,1.5,1.7,2.7,2.5,3.5
	c0,0-3.4,10.2-2.4,20.1l0,0.5l0,0.5c-1.4-0.4-3.3-1.1-4.7-2.3c-2.5-2.1-2.6-2.9-2.6-2.9s-5.3-2-5-7.1c0,0-0.4-2.1,1.8-5.6
	c0,0,1.3-3.6,1-4.5c-0.3-0.9,0.1-0.8,0.1-0.8s1.6,1.5,1.6,3.1c0,1.7,0.8,0.2,0.8,0.2l-0.8-6.2c0,0,0.1-2.1,1.4-0.2
	c1.3,1.9,3.2,5.5,3.2,5.5s2.7,2.7,1.5-0.8c-1.3-3.5-4.6-7.8-4.6-7.8s-2.4-3.6,0.6-1.9c0,0,5,4,6.5,3.2c1.5-0.8,0.4-2.1,0.4-2.1
	l-5.4-2.2c0,0-3.3-2.3,0.7-1.9c0,0,4.2,1.7,9.1-0.1C625.9,611,626.3,610.8,626.7,610.6"/>
<path class="st11" d="M495.4,642.4c0,0-12.1,7-11.9-9.7l-0.1-0.3c0,0-2.9-8-3-13.7c-0.1-5.7,1.9-0.5,1.9-0.5l2.1,6.2
	c2.6,3.4,2.1,0,2.1,0s-3.7-9.7-1.3-5.8s3.9,4.1,3.9,4.1c3.5,0.9-1.4-3.8-1.4-3.8c-2.9-3.7,3.2-0.2,3.2-0.2c5.7,5.1,4.5-0.7,4.5-0.7
	s-2.9-4.1-8.8-3.9c-5.9,0.2,2.7-5.1,2.7-5.1c6.9-1,5.7-1.7,5.7-1.7s0.4-4.1-5.8-1.5s-1.1-2.6-1.1-2.6s4.9-0.3,4.9-3.5
	c0-3.2-7.3,1.5-7.3,1.5c-5.5,5.8-0.7-3.1-0.7-3.1s4.9-8.5,9.8-6.5s6,1.5,6,1.5s4.3-0.3,7.4,7.2c3.1,7.6,1.4,10.8,1.4,10.8
	s-2.9,6.1-9.5,0.6l-0.2-0.2c0,0-11.7-0.2-1.4,2.2s5.9,13.7,5.9,13.7s6.8,14.4-8.6,14.9L495.4,642.4z"/>
<g>
	<path class="st24" d="M545.7,558.3c-35.6-0.4-37.7-12.7-37.7-12.7v-15.8c0-16.1,16.7-29.2,37.3-29.2c0.7,0,0.7,0,0.7,0
		c20.6,0,37.3,13.1,37.3,29.2v15.8c0,0-2.2,12.3-37.7,12.7"/>
</g>
<path class="st20" d="M626.7,597.6v13.1c0,0-7.8,19.8-7,30.6c0.8,10.7-4,46.4-4,46.4"/>
<path class="st25" d="M562.1,693.3h-36.5c-1.7,0-3.1-1.4-3.1-3.1v-20.1c0-1.7,1.4-3.1,3.1-3.1h36.5c1.7,0,3.1,1.4,3.1,3.1v20.1
	C565.2,691.9,563.9,693.3,562.1,693.3z"/>
<path class="st25" d="M555.7,666.5v-4c0-1.1-0.9-2-2-2h-18.2c-1.1,0-2,0.9-2,2v4"/>
<circle class="st26" cx="545.4" cy="681.3" r="8.7"/>
<circle class="st27" cx="527" cy="671" r="2.5"/>
<path class="st28" d="M531.5,497l2.2,4.5c0.4,0.8,1.2,1.4,2.1,1.5l5,0.7c2.3,0.3,3.2,3.2,1.6,4.8l-3.6,3.5c-0.7,0.6-1,1.6-0.8,2.5
	l0.9,5c0.4,2.3-2,4.1-4.1,3l-4.5-2.4c-0.8-0.4-1.8-0.4-2.6,0l-4.5,2.4c-2.1,1.1-4.5-0.7-4.1-3l0.9-5c0.2-0.9-0.1-1.8-0.8-2.5
	l-3.6-3.5c-1.7-1.6-0.8-4.5,1.6-4.8l5-0.7c0.9-0.1,1.7-0.7,2.1-1.5l2.2-4.5C527.5,494.9,530.5,494.9,531.5,497z"/>
<path class="st28" d="M564.7,496.9l2.2,4.5c0.4,0.8,1.2,1.4,2.1,1.5l5,0.7c2.3,0.3,3.2,3.2,1.6,4.8l-3.6,3.5c-0.7,0.6-1,1.6-0.8,2.5
	l0.9,5c0.4,2.3-2,4.1-4.1,3l-4.5-2.4c-0.8-0.4-1.8-0.4-2.6,0l-4.5,2.4c-2.1,1.1-4.5-0.7-4.1-3l0.9-5c0.2-0.9-0.1-1.8-0.8-2.5
	l-3.6-3.5c-1.7-1.6-0.8-4.5,1.6-4.8l5-0.7c0.9-0.1,1.7-0.7,2.1-1.5l2.2-4.5C560.7,494.8,563.7,494.8,564.7,496.9z"/>
<line class="st29" x1="543.5" y1="505.8" x2="547.3" y2="505.8"/>
<path class="st30" d="M538.7,680.7c0.1-1.5,0.7-2.9,1.6-3.9c1-1.1,2.3-1.8,3.7-2.1"/>
<path class="st5" d="M613.9,734H474.5c-9.7,0-17.6-7.9-17.6-17.6l0,0c0-9.7,7.9-17.6,17.6-17.6h139.4c9.7,0,17.6,7.9,17.6,17.6l0,0
	C631.5,726.1,623.6,734,613.9,734z"/>
<path class="st7" d="M385.9,742.3c0,0,47.1-47.7,73-29.3s21.8,42.5,63.2,39.1s74.1-37.9,117.2-35c43.1,2.9,47.7,16.1,72.4,27"/>
</svg>
