<?xml version="1.0" encoding="utf-8"?>
<!-- Generator: Adobe Illustrator 27.3.1, SVG Export Plug-In . SVG Version: 6.00 Build 0)  -->
<svg version="1.1" id="Layer_1" xmlns="http://www.w3.org/2000/svg" xmlns:xlink="http://www.w3.org/1999/xlink" x="0px" y="0px"
	 viewBox="0 0 792 864" style="enable-background:new 0 0 792 864;" xml:space="preserve">
<style type="text/css">
	.st0{fill:#268399;}
	.st1{fill:#703616;stroke:#582807;stroke-width:2;stroke-linecap:round;stroke-linejoin:round;stroke-miterlimit:10;}
	.st2{fill:none;stroke:#000000;stroke-miterlimit:10;}
	.st3{fill:#EFE8CC;stroke:#B5956A;stroke-width:0.5;stroke-linecap:round;stroke-linejoin:round;stroke-miterlimit:10;}
	.st4{fill:#EFE8CC;stroke:#B5956A;stroke-width:0.5;stroke-miterlimit:10;}
	.st5{fill:#D23D27;stroke:#B5956A;stroke-width:0.5;stroke-miterlimit:10;}
	.st6{fill:none;stroke:#000000;stroke-width:2;stroke-miterlimit:10;}
	.st7{fill:#EA8039;stroke:#CD6028;stroke-width:0.5;stroke-miterlimit:10;}
	.st8{fill:#EFE8CC;stroke:#B1AE9C;stroke-width:2;stroke-miterlimit:10;}
	.st9{fill:none;stroke:#B1AE9C;stroke-width:2;stroke-linecap:round;stroke-linejoin:round;stroke-miterlimit:10;}
	.st10{fill:#EDE0D8;stroke:#D7AE9D;stroke-width:0.5;stroke-miterlimit:10;}
	.st11{fill:#EDE0D8;stroke:#D7AE9D;stroke-miterlimit:10;}
	.st12{fill:#CFDEE2;stroke:#ACB9BD;stroke-width:2;stroke-miterlimit:10;}
	.st13{fill:#EFE8CC;}
	.st14{fill:#D74727;stroke:#BA3A26;stroke-width:0.5;stroke-miterlimit:10;}
	.st15{fill:#EFE8CC;stroke:#B1AE9C;stroke-width:0.5;stroke-miterlimit:10;}
	.st16{fill:none;stroke:#A8A694;stroke-width:0.5;stroke-miterlimit:10;}
	.st17{fill:#DC7038;stroke:#AA5626;stroke-width:0.5;stroke-miterlimit:10;}
	.st18{fill:#D23C27;stroke:#A53A23;stroke-width:0.5;stroke-miterlimit:10;}
	.st19{fill:none;stroke:#A53A23;stroke-width:0.5;stroke-miterlimit:10;}
	.st20{fill:none;stroke:#BA3A26;stroke-width:0.5;stroke-miterlimit:10;}
	.st21{fill:#1D4149;stroke:#11292D;stroke-width:2;stroke-linecap:round;stroke-linejoin:round;stroke-miterlimit:10;}
	.st22{fill:none;stroke:#214144;stroke-width:5;stroke-linecap:round;stroke-linejoin:round;stroke-miterlimit:10;}
	.st23{fill:#EEE7CB;}
	.st24{fill:#ECDED8;stroke:#CEBAB2;stroke-width:0.5;stroke-miterlimit:10;}
	.st25{fill:#EEE7CB;stroke:#B1AE9B;stroke-miterlimit:10;}
	.st26{fill:none;stroke:#A8A594;stroke-miterlimit:10;}
	.st27{fill:#19100A;}
	.st28{fill:#0D1A1C;stroke:#74CDE1;stroke-width:3;stroke-miterlimit:10;}
	.st29{fill:none;stroke:#74CDE1;stroke-width:3;stroke-linecap:round;stroke-linejoin:round;stroke-miterlimit:10;}
	.st30{fill:#EFE8CC;stroke:#B5956A;stroke-width:2;stroke-miterlimit:10;}
	.st31{fill:#3E1D0D;stroke:#180000;stroke-width:2;stroke-miterlimit:10;}
	.st32{fill:#2C6069;stroke:#214B50;stroke-width:0.5;stroke-miterlimit:10;}
	.st33{fill:none;stroke:#9BC8CD;stroke-linecap:round;stroke-miterlimit:10;}
	.st34{fill:#D2DFE1;stroke:#B9D6D8;stroke-width:0.5;stroke-miterlimit:10;}
	.st35{fill:#B2D5DD;stroke:#7CAEB4;stroke-width:0.75;stroke-linecap:round;stroke-miterlimit:10;}
	.st36{fill:#0D1A1C;stroke:#7CAEB4;stroke-linecap:round;stroke-miterlimit:10;}
	.st37{fill:#B2D5DD;stroke:#7CAEB4;stroke-linecap:round;stroke-miterlimit:10;}
	.st38{fill:none;stroke:#3D7B89;stroke-width:5;stroke-miterlimit:10;}
</style>
<path class="st0" d="M731,857.2H58.9c-23.2,0-42.1-18.8-42.1-42.1v-767C16.8,24.9,35.7,6,58.9,6H731c23.2,0,42.1,18.8,42.1,42.1v767
	C773.1,838.3,754.2,857.2,731,857.2z"/>
<path class="st1" d="M53.4,855.5c0.9-0.2,1.8-0.3,2.6-0.3c45,0,89.9,1.1,134.9,1.2c2.4,0,4.7,0.7,6.7,1.9c0.5,0,1,0,1.5,0
	c-14.5-19.3-31.3-53.9-15.8-99.9l-118.5,0.5C80.1,801.5,66.8,835.1,53.4,855.5z"/>
<path class="st2" d="M120.5,773.2"/>
<path class="st3" d="M262.9,385.5c-1.3-2.2-0.9,0.6-0.1,4.2C262.9,388.3,262.9,386.9,262.9,385.5z"/>
<path class="st4" d="M52.3,406.7c2.4,1.6,4.3,2.9,4.3,2.9s7.1,2.3,1.9-2.6c-1.9-1.8-4.4-3.5-6.8-5"/>
<path class="st5" d="M48.6,386c3.1-1,7.4-3.1,11.1-7.2c6.7-7.4-2-6.8-2-6.8s-4.3,7.2-9.5,8.9"/>
<path class="st5" d="M50.6,395c2.9,0.2,5.7,0,6.6-1.2c1.9-2.8-1.1-3.8-1.1-3.8l-6.1,0.5"/>
<path class="st5" d="M52.3,406.7c2.4,1.6,4.3,2.9,4.3,2.9s7.1,2.3,1.9-2.6c-1.9-1.8-4.4-3.5-6.8-5"/>
<path class="st6" d="M100.5,772.2"/>
<path class="st7" d="M16.5,376c0.4,19,1.1,37.9,1.2,56.9c0,3.8,0,7.7,0,11.5c0.3-0.1,0.6-0.2,0.9-0.3l36.1-57
	c-1.6-27.7-23.5-45.3-39-54.3C16.1,347.2,16.2,361.6,16.5,376z"/>
<path class="st8" d="M68.6,466.3c-6.3-4-14-8.5-20.1-12c-12.2-7-12.5-18.2-12.5-18.2l18.4-28.3c0,0,21.7-11.2,48.1,5.5
	s20,44.4,20,44.4l-0.1,0.5c4,15.1-11.7,21.5-11.7,21.5s-2.5,1.1-4.5,0.3l-0.4,0.6c-3.7,6-8.9,10.9-18.5,10l-0.4,0
	c-3.3,2.1-7.7,2.7-13.5-0.4C55.9,481,68.1,467,68.1,467L68.6,466.3z"/>
<path class="st9" d="M87,490.6c6.6-4.2,8.6-14.6,8.6-14.6s1.6-12.5-20.4-32.6"/>
<path class="st9" d="M105.9,480.6c4.8-7.7,5.7-17.3,5.2-19c0,0-1.5-11.9-18.6-28.8"/>
<path class="st9" d="M100,420.8c0,0,15.6,18.6,21.8,35.2c0.3,0.8,0.5,1.5,0.7,2.2"/>
<path class="st7" d="M61.9,395.9l-31.7,50c-0.5,0.8-1.6,1.1-2.4,0.5l-6.4-4c-0.8-0.5-1.1-1.6-0.5-2.4l31.7-50
	c0.5-0.8,1.6-1.1,2.4-0.5l6.4,4C62.2,394,62.5,395,61.9,395.9z"/>
<path class="st1" d="M20.5,638.3c0.7,37.2,0.7,74.3,0.6,111.5c12.6-8.1,20.9-21.6,20.9-36.9v-37.3C42,660.1,33.5,646.4,20.5,638.3z"
	/>
<path class="st10" d="M152.8,856.8c26.9-0.5,53.7-1.1,80.6-1.4c1.3-11.6-2.5-24.4-2.5-24.4c-7.3-16-24.8-26.5-44.1-26.1
	c0,0-10.7-0.2-20.1,2.9c-0.1-0.2-2.8-9.8-4.4-9.5c-1.6,0.2-62.7,1-62.7,1c-8.6,16.4-8.8,41.2-7.5,58.2
	C112.4,857.3,132.6,857.2,152.8,856.8z"/>
<path class="st7" d="M196,594.4c-3.5-44.6-48.2-54.6-48.2-54.6l-77.2-7c-8.2-6.2-29.7-9.5-53.5-11.3c0.5,28.1,1.7,56.2,2.6,84.3
	c0.7,22.6,1.1,45.2,1.3,67.8c25.4,3,49.4,4,59.2-0.9l77.2,7c19.2-1.1,28.4-14.2,28.4-14.2S199.6,639,196,594.4z"/>
<path class="st10" d="M152.8,856.8c19.2-0.3,38.4-0.8,57.6-1.1c-0.4-7.3-1.8-13.1-1.8-13.1c-6.5-16.4-23.4-27.7-42.7-28.4
	c0,0-10.7-0.7-20.2,1.8c0,0,0,0,0,0c-0.1-0.6-2.4-9.9-3.9-9.7c-1.6,0.2-62.7-2.2-62.7-2.2c-8.6,14.6-10.6,36.6-10.6,53.2
	C96.7,857.4,124.8,857.3,152.8,856.8z"/>
<path class="st7" d="M21,672.5c0,0.4,0,0.8,0,1.2c8.6,1.1,17.1,2,25.1,2.5L21,672.5z"/>
<path class="st7" d="M188.1,647.8c-0.7,12.8,1.9,23.5-1.5,29l0.8,78c0,0-5.4,45.7-50,53.8c-44.6,8.1-72.8-3-72.8-3
	s-14.1-7.8-17.2-26.9l-0.8-78c-4.4-6.8-6.3-21.7-6.9-39.4"/>
<path class="st7" d="M21.9,536.1c0,0,104.8-5.9,169.5,24.1"/>
<path class="st7" d="M16.5,376c0.4,18.4,1,36.9,1.1,55.3l22.9-36.2c-1.1-19.7-12.5-34.2-24.5-44.3C16.2,359.3,16.3,367.6,16.5,376z"
	/>
<path class="st11" d="M54.6,474.3c-6.3-4-14-8.5-20.1-12c-12.2-7-12.5-18.2-12.5-18.2l18.4-28.3c0,0,21.7-11.2,48.1,5.5
	s20,44.4,20,44.4l-0.1,0.5c4,15.1-11.7,21.5-11.7,21.5s-2.5,1.1-4.5,0.3l-0.4,0.6c-3.7,6-8.9,10.9-18.5,10l-0.4,0
	c-3.3,2.1-7.7,2.7-13.5-0.4C41.9,489,54.1,475,54.1,475L54.6,474.3z"/>
<path class="st11" d="M73,498.6c6.6-4.2,8.6-14.6,8.6-14.6s1.6-12.5-20.4-32.6"/>
<path class="st9" d="M91.9,488.6c4.8-7.7,5.7-17.3,5.2-19c0,0-1.5-11.9-18.6-28.8"/>
<path class="st9" d="M86,428.8c0,0,15.6,18.6,21.8,35.2c0.3,0.8,0.5,1.5,0.7,2.2"/>
<path class="st7" d="M49.4,401.4l-6.4-4c-0.8-0.5-1.9-0.3-2.4,0.5l-23.4,36.9c1.2,3.8,2,7.8,2.1,11.9c0.1,2,0,4-0.4,6l30.9-48.8
	C50.5,403,50.2,402,49.4,401.4z"/>
<path class="st12" d="M262.7,690.6c-0.2-33.4-0.5-66.5,2-99.8c-0.4-6.1-1-12.2-0.7-18.2c0.2-2.8,0.6-5.5,1.1-8.3
	c-1.3-2.3-2.2-4.9-2.3-7.6c0-0.8,0-1.5,0-2.2c0-13.3-0.2-26.5,0-39.8c0.1-6.9,0.2-13.8,0.4-20.7c0.1-3,0.5-6,1-9
	c-5.8-11-2.4-24.9-2.2-36.7c0.2-9.4-0.5-18.7-0.7-28.1c-0.2-8.3,0.7-16.5,1-24.8c-3.7-8.3-2.9-17.7-1.3-27c0.3-2,0.7-4.1,1.1-6.1
	c0.2-1,0.4-2,0.6-3c-0.1-3,0.1-6,0.2-9L49,506.4c-2,1.4-3.2,3.8-3.2,6.3l-1.5,60.5c-0.1,3.4,2,6.5,5,7.6l26.2,9.6
	c1.4,0.5,2.7,1.5,3.6,2.7c46.7,65.3,52.8,200.2,53,263.7c12-0.1,24.1-0.2,36.1-0.5c20.1-0.4,40.3-0.1,60.4-0.7
	c2.2-0.1,4.3-0.2,6.4-0.3c0.7-0.5,1.4-1,2.2-1.3c2.7-1.2,5.2-2.4,7.7-3.9c0.9-0.6,1.8-1.2,2.8-1.8c0.2-0.2,0.8-0.7,1.3-1
	c1.8-1.6,3.4-3.3,5-5.2c0.2-0.2,0.3-0.3,0.4-0.5c0.1-0.2,0.2-0.4,0.4-0.7c0.6-0.9,1.2-1.8,1.8-2.8c1.1-1.8,2-3.7,2.9-5.5
	c-0.2,0.4,0.9-2.2,1-2.5c0.4-1.1,0.8-2.2,1.1-3.3c2-6.2,2.6-9,2.5-14.8c-0.1-6-0.7-11.9-0.5-17.9c-0.8-1.8-1.3-3.8-1.2-5.9
	c0.1-8,1.5-15.9,2.3-23.9c0.9-8.2,0.2-16-0.5-24.1C262.8,723.7,262.8,707.2,262.7,690.6z"/>
<path class="st7" d="M772.6,400.4c1.5-36.8-2-73.4-2.2-110.2c-13.8-4.2-23.6-6.3-23.6-6.3l-52.1,84.4c25.3,20.8,54,41.1,77,48.6
	C772.1,411.4,772.4,405.8,772.6,400.4z"/>
<path class="st1" d="M563.4,855.5c0.9-0.2,1.8-0.3,2.6-0.3c45,0,89.9,1.1,134.9,1.2c2.4,0,4.7,0.7,6.7,1.9c0.5,0,1,0,1.5,0
	c-14.5-19.3-31.3-53.9-15.8-99.9l-118.5,0.5C590.1,801.5,576.8,835.1,563.4,855.5z"/>
<path class="st1" d="M511.8,757.3c-24.3,5-48.1-10.6-53.2-34.9L360,245.5c-5-24.3,10.6-48.1,34.9-53.2l36.5-7.6
	c24.3-5,48.1,10.6,53.2,34.9l98.6,476.9"/>
<path class="st1" d="M775.3,755.9c0.3-18.7-3.3-37.4-2.3-56.1c0.6-11.7,1.9-23.3,2.2-35c0.2-5.6-0.3-11.2-0.5-16.8
	c-0.2-1.1-0.5-2.3-0.8-3.4c-0.2-0.8-0.4-1.5-0.7-2.3c-1.8-3.9-2.7-7.9-2.5-11.8H506.5v127.3h268.7
	C775.2,757.2,775.2,756.6,775.3,755.9z"/>
<path class="st7" d="M723.3,649.8c0,0-124.9,1.6-134.1-32.3s120.6-29.1,120.6-29.1l49,43.6L723.3,649.8z"/>
<path class="st2" d="M630.5,773.2"/>
<path class="st2" d="M805,871.2"/>
<path class="st13" d="M730,182.2"/>
<path class="st14" d="M592.2,218.8c-2.8,1.4,2.3-7.5,2.3-7.5s-1.7-9.1,0.9-19.8c2.7-10.6,39.9-2.8,39.9-2.8s100,26.8,90.4,37.2
	l-9.9,16.3c0,0-0.4,3-9.3-2.9C697.5,233.6,620,205.3,592.2,218.8z"/>
<polyline class="st7" points="700.8,224.3 613.1,202.2 611.8,191.9 696,186.5 696.5,190.3 700.8,224.3 "/>
<path class="st15" d="M665.3,175.8"/>
<path class="st16" d="M684.6,78.1"/>
<path class="st16" d="M684.6,78.1"/>
<path class="st13" d="M751.1,185.6"/>
<path class="st17" d="M772.5,520c-36.9-2.8-72.3-2.5-72.3-2.5l73.9,12.2C773.6,526.4,773,523.2,772.5,520z"/>
<path class="st7" d="M774.7,648.1c-0.2-1.1-0.5-2.3-0.8-3.4c-0.2-0.8-0.4-1.5-0.7-2.3c-3.8-8.1-3.2-16.8,1-23.6
	c-1.3-2.6-2.2-5.5-2.5-8.4c-3.1-7.9-0.8-16.9,4.6-23.3c-0.1-4.7-0.4-9.3-0.7-14c0-0.2,0-0.4-0.1-0.7c-1.1-2.6-1.7-5.5-1.7-8.5v-8.7
	c-0.6-6.5-0.8-12.9,0-19.2c0.2-1.4,0.4-2.8,0.7-4.1c-0.5-2.9-1-5.9-1.5-8.8l-65.7,126.2l3.2,0.6c12.5,2.2,37.8,6.4,64.6,9.2
	C775,655.4,774.8,651.8,774.7,648.1z"/>
<path class="st7" d="M772.3,518.3c-35.2-2.4-67.6-2.2-67.6-2.2l69.2,11.4C773.3,524.5,772.7,521.4,772.3,518.3z"/>
<path class="st7" d="M711.8,649.8l3.2,0.6c11.6,2,34.2,5.8,58.9,8.6L711.8,649.8z"/>
<path class="st18" d="M714.9,366.9c0,0-57.3,18.5-126.8,16.4"/>
<path class="st14" d="M776.3,587.1c-0.1-4.7-0.4-9.3-0.7-14c0-0.2,0-0.4-0.1-0.7c-1.1-2.6-1.7-5.5-1.7-8.5v-8.7
	c-0.6-6.5-0.8-12.9,0-19.2c0.2-1.4,0.4-2.8,0.7-4.1c-1.6-8.7-3-17.5-4.1-26.3c-4-34.9,0.7-70.4,2.1-105.3c1.2-30.8-1-61.6-1.9-92.3
	c-19.1-34.3-57.6-63.8-57.7-65.1c0,0-108.7-22.6-133.8-11.9c-25.1,10.7-41.1,93-28.2,122.5s24.8,178.9,24.8,178.9s-8.4,77-1.6,90.1
	c5,9.6,130.4-6.2,196.6-15.2C769.3,600.1,771.7,592.7,776.3,587.1z"/>
<path class="st4" d="M740.3,371.5c0,0-6.2,1.3,1.3,4.9l2.9-0.4c0,0,9-1.1,4.6,3.7c-4.4,4.7-11.4,9.2-11.4,9.2s-10.9,8.3-1.7,8.1
	c9.1-0.3,13.3-11.5,13.3-11.5s5.3-9.1,2.8,3.4c-2.5,12.5-3.6,13.6-1.3,15.3c2.3,1.6,5.3-10.8,5.3-10.8s-1.9-11.3,1.8-11.2
	c3.6,0.1,3,13.9,3,13.9l1.8,15.2c0,0,0.3,16.6-9.8,21.5c-10.1,4.9-10.9,3.2-16.9-2.4c0,0-13.4,8.4-23.2-9.8c-9.7-18.1-6.2-29-6.2-29
	s1.8-4.9,4-5.2c0,0,0.1,0,0.1,0l-0.2-0.7c0,0-3.3-11.2,6.2-15.8c9.5-4.6,14.8-4.3,14.8-4.3s16.5-1,18.7,2.5c2.2,3.5-9.3,3.3-9.3,3.3
	L740.3,371.5z"/>
<path class="st3" d="M770.8,431.8c0.7-10.5,1.4-21,1.8-31.4c0-0.2,0-0.4,0-0.6c-0.4-0.5-1-1.2-1.6-2.2l-3-12.2c0,0-3.1-10.3-3.8,0.7
	c-0.7,11,3.4,26.7,3.4,26.7l0.2,0.6C766.8,422.9,768.3,428.5,770.8,431.8z"/>
<path class="st3" d="M772.9,385.5c-1.3-2.2-0.9,0.6-0.1,4.2C772.9,388.3,772.9,386.9,772.9,385.5z"/>
<path class="st4" d="M773.4,525.4c-1.1-6.5-2.1-13.1-2.9-19.7c-1.1-9.3-1.5-18.6-1.6-28c-2.1-1.8-6-3.3-13.2-2.6
	c-15.2,1.6-21.4,21.4-21.4,21.4s-2.5,7.8-3.2-0.1c-0.8-7.9,2.1-12.8,2.1-12.8s7.4-4.3,6.3-13.4c-1.1-9.1-0.5-14.2-6.2-16.5
	c0,0-10.6-0.5-15.2-1.9s-9.5,1.9-9.5,1.9s-5.9,5.3-7.9,11.3c-2,5.9-1.2,7.4-1.2,7.4s-6.5,8.6-0.8,16.6c0,0,1.5,3.8,8.7,7.1
	c0,0,5.8,4.6,6.3,6.4c0.5,1.8,1,1.3,1,1.3s1.1-4.1-0.5-6.8c-1.7-2.7,1.2-1.1,1.2-1.1l5,10.9c0,0,2.3,3.4,2.6-1.1
	c0.3-4.5-0.4-12.2-0.4-12.2s1.6-7.2,3.2-0.3s0.5,17.4,0.5,17.4s-0.2,8.3,2.9,2.4c0,0,3.9-11.6,7.3-11.8c3.4-0.2,2.7,2.9,2.7,2.9
	l-6.6,9.1c0,0-2.9,7.2,3.1,2.5c0,0,5.1-7.1,14.9-9.1c9.8-2,4.8,5.2,4.8,5.2s-11.1,0-14.1,5.5c0,0-5.5,4.2-0.3,5.3c0,0,3.8-0.5,5.3-1
	c1.4-0.6,17.1,1.3,17.1,1.3S768.6,526.3,773.4,525.4z"/>
<path class="st4" d="M768.6,545.2c0,0,3.2-11.1-6.7-14.8s-15.1-2.9-15.1-2.9s-16.5,0.5-18.4,4.2c-1.9,3.7,9.6,2.4,9.6,2.4h0.4
	c0,0,6.3,0.7-0.8,5l-2.9-0.1c0,0-9.1-0.3-4.2,4.1c4.8,4.3,12.2,8.1,12.2,8.1s11.6,7.3,2.5,7.9c-9.1,0.6-14.2-10.2-14.2-10.2
	s-6.1-8.5-2.5,3.7c3.6,12.2,4.8,13.3,2.7,15.1s-6.3-10.3-6.3-10.3s0.8-11.5-2.8-11c-3.6,0.5-1.7,14.1-1.7,14.1l-0.3,15.3
	c0,0,1.3,16.6,11.8,20.5c10.5,4,11.1,2.2,16.6-4c0,0,14.1,7.1,22.2-11.9c8-19,3.4-29.4,3.4-29.4s-2.2-4.7-4.4-4.8c0,0-0.1,0-0.1,0
	L768.6,545.2z"/>
<path class="st3" d="M691.6,238.7c7.3,13.3,5.1,19.8,5.1,19.8s-4.1,12.3-17.9,3.4l-0.5-0.3c0,0-22.4,2.5-2.1,4.5
	c20.3,2,14.5,24.7,14.5,24.7s16.5,25.7-12.8,30.4l-0.5,0.2c0,0-21.4,16.4-25.1-15.5l-0.3-0.6c0,0-7.4-14.5-9.1-25.3
	c-1.7-10.9,3.5-1.5,3.5-1.5l5.6,11.2c5.8,5.7,4-0.5,4-0.5s-9.4-17.6-3.8-10.7c5.6,6.9,8.3,6.8,8.3,6.8c6.9,0.8-3.6-6.9-3.6-6.9
	c-6.5-6.4,6-1.2,6-1.2c12.1,8.3,8.3-2.5,8.3-2.5s-6.4-7.1-17.7-5.3c-11.2,1.8,3.9-10.3,3.9-10.3c12.8-3.6,10.4-4.6,10.4-4.6
	s-0.3-7.8-11.4-1.4c-11.1,6.4-2.7-4.7-2.7-4.7s9.2-1.8,8.5-7.9c-0.7-6-13.6,4.7-13.6,4.7c-9.1,12.4-2-5.7-2-5.7s1.4-3.4,3.9-6.9"/>
<path class="st3" d="M684.3,487.5c37.5,17.4,39.7,45.2,39.7,45.2s-0.7,10.4-6.5,1.5c0,0-4.3-32.2-36.8-44.7c0,0,4.3,12.7-4.7,11.9
	c0,0-4.8,1.7-2.7-9.6c0,0-6,12.5-10.9,5.4c-4.9-7.1,6.8-12.8,6.8-12.8s-11.1-1.9-8.5-8.8c2.6-6.9,10.2-2.3,10.2-2.3l3.3,3.7
	c0,0-0.4-14.4,7-7.8c7.4,6.6-0.1,9.4-0.1,9.4s6.2-4.2,7.7,1.4c1.5,5.5-4.1,7.1-4.1,7.1L684.3,487.5z"/>
<path class="st3" d="M695.9,600.5c0,0,25.8,7.9,18.1-23.2l0.1-0.6c0,0,1.9-16.1-0.3-26.9c-2.2-10.8-3.8-0.1-3.8-0.1l-1.3,12.5
	c-3.4,7.4-3.9,0.9-3.9,0.9s2.7-19.8-0.1-11.4c-2.8,8.4-5.4,9.2-5.4,9.2c-6.1,3.2,1-7.8,1-7.8c3.8-8.2-6.1,1-6.1,1
	c-8.4,12-8.7,0.6-8.7,0.6s3.5-8.9,14.7-11.1c11.2-2.2-7.2-8.3-7.2-8.3c-13.3,1.1-11.4-0.7-11.4-0.7s-2.5-7.4,10.2-5.3
	s0.9-5.4,0.9-5.4s-9.3,1.5-10.7-4.4c-1.4-5.9,14.4-0.3,14.4-0.3c12.8,8.5-0.1-6-0.1-6s-12.9-13.7-21.2-7.8
	c-8.3,5.8-10.6,5.4-10.6,5.4s-8.2,1.3-10.6,16.7c-2.5,15.4,2.1,20.9,2.1,20.9s8.1,10.1,18-3l0.3-0.5c0,0,21.9-5.4,3.5,3.5
	c-18.3,9-5,28.2-5,28.2s-6.6,29.8,22.6,24.1L695.9,600.5z"/>
<path class="st4" d="M619,228.9c0.2,0,0,0.4,0.1,0.6c0.7,7.1,5,16.6,5,16.6s2.8,7.8-2.1,3.2c0,0-7.4-9.8-10.6-8.9
	c-3.3,0.9-1.6,3.6-1.6,3.6l9.1,6.6c0,0,5,5.9-2.1,3.3c0,0-7.1-5.2-17-4c-10,1.2-2.9,6.5-2.9,6.5s10.5-3.4,15.1,0.8
	c0,0,6.6,2.3,2,4.9c0,0-3.8,0.8-5.3,0.7s-15.8,6.6-15.8,6.6s-5.7,7.6-11.8,5.5c-6.2-2.1-11.2-8.5-11.2-8.5s-7.3-10.7-1.1-20.3
	c3.4-5.2,4.2-8.5,4.2-10.5C572.6,235.6,579.6,225.9,619,228.9z"/>
<path class="st4" d="M629.5,230.2l-1.1,10.5c0,0-1.1,4-2.8-0.2c-1.3-3.3-2.7-8.7-3.3-10.9"/>
<path class="st4" d="M616.1,271.4c0,0-5.8,2.7,2.4,4.5l2.7-1c0,0,8.5-3.1,5.3,2.5c-3.2,5.6-9,11.5-9,11.5s-8.7,10.6,0.1,8.2
	s10.3-14.2,10.3-14.2s3.1-10,3.5,2.7c0.4,12.7-0.4,14.1,2.2,15.2c2.6,1.1,2.8-11.7,2.8-11.7s-4.4-10.6-0.8-11.3
	c3.6-0.7,6.1,12.8,6.1,12.8l5.1,14.4c0,0,4,16.1-4.7,23.2c-8.7,7.1-9.9,5.6-17,1.5c0,0-11.2,11.2-24.8-4.3
	c-13.6-15.5-12.5-26.9-12.5-26.9s0.6-5.2,2.7-5.9c0,0,0.1,0,0.1,0l-0.3-0.6c0,0-5.8-10.2,2.5-16.8c8.2-6.6,13.4-7.5,13.4-7.5
	s15.8-4.7,18.8-1.8c3,2.9-8.4,5.3-8.4,5.3L616.1,271.4z"/>
<path class="st3" d="M638.8,230.6c-11.1,18.4-8.4,33.2-8.4,33.2s3.4,9.9,6.6-0.2c0,0-2.1-15.8,6.4-32.3"/>
<path class="st19" d="M635.3,230.4c5.1,0.6,10.3,1.2,15.5,1.9"/>
<path class="st19" d="M622.3,229.1c4.2,0.3,8.6,0.8,13,1.3"/>
<path class="st4" d="M562.3,406.7c2.4,1.6,4.3,2.9,4.3,2.9s7.1,2.3,1.9-2.6c-1.9-1.8-4.4-3.5-6.8-5"/>
<path class="st4" d="M556.5,371.9c2.3-4.5,5.9-12.3,5.9-12.3s-0.7-9.4,5.3-12c6-2.5,14.1-0.9,14.1-0.9s12.6,3.4,14.1,14.6
	c1.6,11.2,5.6,12.2,5.6,12.2s6.8,4.6-2.2,16.9c-9.1,12.3-29.2,7.4-29.2,7.4s-7.9-1.9-1.6,2.8c6.4,4.7,12.1,4.8,12.1,4.8
	s7.5-4.1,14.7,1.5s12,7.7,11,13.7c0,0-4.9,9.4-6.2,14c-1.3,4.7-6.6,7.2-6.6,7.2s-7.6,2.4-13.7,1c-6.1-1.4-7-2.8-7-2.8
	s-2.9,0.3-6.2-0.6"/>
<path class="st5" d="M558.6,386c3.1-1,7.4-3.1,11.1-7.2c6.7-7.4-2-6.8-2-6.8s-4.3,7.2-9.5,8.9"/>
<path class="st5" d="M560.6,395c2.9,0.2,5.7,0,6.6-1.2c1.9-2.8-1.1-3.8-1.1-3.8l-6.1,0.5"/>
<path class="st4" d="M546.8,334.1c0.1,0.2,0.2,0.3,0.2,0.3s2.9,4.3,1.8,6.2c0,0,0,0.1-0.1,0.1l0.6,0.2c0,0,11,3.9,9.1,14.3
	c-1,5.7-2.5,9.5-3.6,11.8"/>
<path class="st4" d="M572.1,593.9c0.6,0,1.5-0.5,2.9-2.1c0,0,3.9-7.8,13.2-11.4c9.4-3.5,5.6,4.4,5.6,4.4s-10.9,1.8-13,7.7
	c0,0-4.7,5.1,0.5,5.3c0,0,3.7-1.1,5-1.9c1.3-0.8,17.1-1.5,17.1-1.5s8.5,4.1,13.1-0.6c4.5-4.7,6-12.8,6-12.8s1.5-12.9-8.4-18.5
	c-9.9-5.6-9.3-9.7-9.3-9.7s-1.8-8-16.5-4.1c-8.3,2.2-12.8,9.7-15.2,15.8"/>
<path class="st4" d="M623.5,623.9c-0.9-4-2.2-5.9-2.2-5.9s-3-4.3-5.1-4c0,0-0.1,0-0.1,0l0-0.7c0,0,0.4-11.7-10-13.8
	c-10.3-2.1-15.4-0.4-15.4-0.4s-16.2,3.2-17.4,7.2c-1.3,4,9.9,0.8,9.9,0.8l0.4-0.1c0,0,6.3-0.3,0,5.1l-2.9,0.4c0,0-9,1.2-3.5,4.7
	c5.5,3.5,13.3,6,13.3,6s2,0.9,3.8,2"/>
<path class="st5" d="M562.3,406.7c2.4,1.6,4.3,2.9,4.3,2.9s7.1,2.3,1.9-2.6c-1.9-1.8-4.4-3.5-6.8-5"/>
<path class="st20" d="M767.7,607.6C706,615,644,627,581,625c-3,0-6-1-8-4c-2-4-1-9-1-13c-1-24,0-48,4-71c-3-55-10-108-19-164
	c-2-10-7-19-9-29c-2-13-2-24-1-37c2-15,4-28,9-42c4-12,8-24,19-31c15-10,31-6,47.3-4.9"/>
<path class="st20" d="M650.8,232.3C670,235,689,239,708,241c4,0,6,3,9,5c19,18,37,35,50.6,56.8"/>
<path class="st21" d="M775.6,573.2c0-0.2,0-0.4-0.1-0.7c-1.1-2.6-1.7-5.5-1.7-8.5v-8.7c-0.3-3.8-0.5-7.5-0.5-11.3
	c-55.8,22.4-131.8,45-201.9,38.6l-2.3,23c18.7,5.9,85.8-1.9,85.8-1.9C691.3,602.6,746.3,584.1,775.6,573.2
	C775.6,573.2,775.6,573.2,775.6,573.2z"/>
<path class="st22" d="M767.7,305c-22.7-38-58.7-69-100.9-85.2"/>
<path class="st14" d="M584,230.4c-2.8,1.4,2.3-7.5,2.3-7.5s-1.7-9.1,0.9-19.8c2.7-10.6,39.9-2.8,39.9-2.8s100,26.8,90.4,37.2
	l-9.9,16.3c0,0-0.4,3-9.3-2.9C689.4,245.2,611.9,216.9,584,230.4z"/>
<path class="st23" d="M728.4,180.2"/>
<rect x="642.4" y="86.9" transform="matrix(0.1846 -0.9828 0.9828 0.1846 374.6132 794.9912)" class="st24" width="47.9" height="169.7"/>
<path class="st25" d="M664.8,174.3"/>
<path class="st26" d="M683.1,78.5"/>
<path class="st26" d="M683.1,78.5"/>
<path class="st23" d="M749,183.4"/>
<path class="st24" d="M746.7,204.4l7.8-39.6l0-0.2l6.2-31.4c0.5-2.3,0.7-4.7,0.7-7l0.1-2.2c0,0-1.5-66.6-70.8-79.7l0.4,0.1
	c-69.3-13-95.9,48.4-95.9,48.4l-0.3,1c-1.1,2.5-1.9,5.1-2.4,7.9l-6.2,31.5l-7.8,39.6"/>
<path class="st24" d="M741.8,69c2.5-1.6-0.1-4.1-0.1-4.1c-35.4,2.4-63.8,21.6-68.1,48.9l-5.1,33c0,0,4.3,27,84.4,40.4
	c0,0,1.8-3.3,0.1-5.2"/>
<path class="st27" d="M749.1,181.5c-74.2-12.4-75-36.9-75-36.9l4.8-30.6c4-25.6,29.6-43.2,63-45l1.1,0.6c17.6,22.8,19,49.2,19,49.2
	l0,2.2c0.1,2.4-0.1,4.9-0.4,7.3l-5.2,32.8l0,0.2L753,182L749.1,181.5z"/>
<path class="st28" d="M735.7,61.8l2.3,9.1c0.4,1.7,0.3,3-0.3,3.6l-3.2,3.2c-1.5,1.5,0.3,7,3,9.3l5.9,5.1c1.1,0.9,2.1,2.5,2.8,4.2
	l3.8,9.4c1.7,4.3,5.1,6.6,5.8,3.9l1.4-6c0.2-1.1,1-1.5,2-1l5.5,2.6c2.5,1.2,2.8-2.9,0.5-6.9l-5.1-8.7c-0.9-1.6-1.5-3.4-1.6-4.8
	l-0.3-7.8c-0.2-3.6-3.4-8.4-5.4-8.1l-4.5,0.5c-0.8,0.1-1.9-0.7-3-2l-5.7-7.4C737,56.5,734.7,57.6,735.7,61.8z"/>
<path class="st29" d="M732.2,80.7l-73.1,20.7c0,0-1.6,3-0.7,4.6"/>
<path class="st24" d="M659.2,205.9c-49-9.9-68.7-17.6-77-21.3c-6.7-2.9-4.8-6.6-4.8-6.6l1-5.2c0,0,27.9,12.6,82,22.2l1.6,0.3
	c53.9,10.7,84.6,9.1,84.6,9.1l-1,5.2c0,0,0.3,4.1-7,4.4C729.6,214.4,708.4,214.4,659.2,205.9"/>
<path class="st13" d="M369.4,171.9"/>
<path class="st13" d="M390.4,175.6"/>
<path class="st6" d="M610.5,772.2"/>
<path class="st30" d="M629,271.3c0,0-5.9,2.3,2.1,4.6l2.8-0.8c0,0,8.7-2.5,5.1,2.9c-3.6,5.4-9.8,10.9-9.8,10.9s-9.4,10-0.4,8.2
	s11.2-13.5,11.2-13.5s3.8-9.8,3.3,2.9c-0.4,12.7-1.3,14,1.2,15.3s3.5-11.5,3.5-11.5s-3.7-10.9-0.1-11.3s5.2,13.2,5.2,13.2l4.2,14.7
	c0,0,2.9,16.3-6.2,22.8s-10.2,4.9-17.1,0.4c0,0-11.9,10.4-24.4-5.9c-12.5-16.3-10.7-27.6-10.7-27.6s1-5.1,3.1-5.7c0,0,0.1,0,0.1,0
	l-0.3-0.6c0,0-5.1-10.5,3.5-16.6c8.6-6.1,13.9-6.6,13.9-6.6s16.1-3.6,18.8-0.5s-8.7,4.7-8.7,4.7L629,271.3z"/>
<path class="st7" d="M769.3,429.2c0,0,0.6,0.6,1.6,1.5c0.7-10.1,1.3-20.3,1.7-30.3c1.3-32.6-1.3-65.1-2-97.6
	c-20.7-7.1-37.8-10.9-37.8-10.9l-52.1,84.4c29.1,23.9,62.7,47.2,86.9,51.1l1,1.1L769.3,429.2z"/>
<path class="st14" d="M661.3,237.2c0,0-64.6-12.7-75.5,57.3c0,0-9.8,38.8,44.8,64.4l48.1,31.7c-4.9-4.1,37.6-88.6,67.3-106.6
	C746,284,675.3,233.6,661.3,237.2z"/>
<path class="st4" d="M739.2,278.6c-9-1.3-18.1-1.1-18.1-1.1l-0.6,0c-30.2-10.6-24.8,15.7-24.8,15.7l-0.1,0.5
	c-7.3,24.4,14,25.2,20.2,24.9c0,0,18.6-25.4,26.7-30.7c3.2-2.1-8.6,0.1-8.6,0.1s-6.5-1.1,1.2-3.8l11.1-0.1L739.2,278.6z"/>
<path class="st31" d="M647.7,163.8l-40.2-12.2c-4.8-1.4-7.5-6.5-6-11.3l17-56.1c1.5-4.8,6.5-7.5,11.3-6.1l40.2,12.2
	c4.8,1.4,7.5,6.5,6,11.3l-17,56.1C657.5,162.5,652.5,165.2,647.7,163.8z"/>
<path class="st31" d="M657.1,86.4c0,0,28.2-25.9,48.1-41.6l-10.6-2c-20.6,2.3-52,39.2-52,39.2"/>
<path class="st7" d="M360.7,368.2c29.1,23.9,62.7,47.2,86.9,51.1l1,1.1l0.6,0.8c0,0,39,39.2,79.2,22.9l36.1-57
	c-2.4-43.3-54.5-61.8-54.5-61.8l-0.4-0.4c-29.6-26.1-96.8-41.1-96.8-41.1"/>
<path class="st11" d="M578.6,466.3c-6.3-4-14-8.5-20.1-12c-12.2-7-12.5-18.2-12.5-18.2l18.4-28.3c0,0,21.7-11.2,48.1,5.5
	s20,44.4,20,44.4l-0.1,0.5c4,15.1-11.7,21.5-11.7,21.5s-2.5,1.1-4.5,0.3l-0.4,0.6c-3.7,6-8.9,10.9-18.5,10l-0.4,0
	c-3.3,2.1-7.7,2.7-13.5-0.4c-17.5-9.2-5.4-23.2-5.4-23.2L578.6,466.3z"/>
<path class="st9" d="M597,490.6c6.6-4.2,8.6-14.6,8.6-14.6s1.6-12.5-20.4-32.6"/>
<path class="st9" d="M615.9,480.6c4.8-7.7,5.7-17.3,5.2-19c0,0-1.5-11.9-18.6-28.8"/>
<path class="st11" d="M610,420.8c0,0,15.6,18.6,21.8,35.2c0.3,0.8,0.5,1.5,0.7,2.2"/>
<path class="st7" d="M571.9,395.9l-31.7,50c-0.5,0.8-1.6,1.1-2.4,0.5l-6.4-4c-0.8-0.5-1.1-1.6-0.5-2.4l31.7-50
	c0.5-0.8,1.6-1.1,2.4-0.5l6.4,4C572.2,394,572.5,395,571.9,395.9z"/>
<path class="st1" d="M229.4,855.5c1.2-0.2,2.4-0.3,3.6-0.3c61.9,0,123.9,1.1,185.8,1.2c3.4,0,6.5,0.7,9.3,1.9c0.7,0,1.3,0,2,0
	c-20-19.3-43.1-53.9-21.8-99.9L245,758.8C266.1,801.5,247.8,835.1,229.4,855.5z"/>
<path class="st1" d="M177.8,757.3c-24.3,5-48.1-10.6-53.2-34.9L26,245.5c-5-24.3,10.6-48.1,34.9-53.2l36.5-7.6
	c24.3-5,48.1,10.6,53.2,34.9l98.6,476.9"/>
<path class="st1" d="M172.5,630.6h330.7c26.9,0,48.7,20.2,48.7,45v37.3c0,24.8-21.8,45-48.7,45H172.5"/>
<path class="st7" d="M389.3,649.8c0,0-124.9,1.6-134.1-32.3c-9.3-33.9,120.6-29.1,120.6-29.1l49,43.6L389.3,649.8z"/>
<path class="st2" d="M296.5,773.2"/>
<path class="st2" d="M471,871.2"/>
<path class="st13" d="M396,182.2"/>
<path class="st14" d="M258.2,218.8c-2.8,1.4,2.3-7.5,2.3-7.5s-1.7-9.1,0.9-19.8c2.7-10.6,39.9-2.8,39.9-2.8s100,26.8,90.4,37.2
	l-9.9,16.3c0,0-0.4,3-9.3-2.9C363.5,233.6,286,205.3,258.2,218.8z"/>
<polyline class="st7" points="366.8,224.3 279.1,202.2 277.8,191.9 362,186.5 362.5,190.3 366.8,224.3 "/>
<path class="st15" d="M331.3,175.8"/>
<path class="st16" d="M350.6,78.1"/>
<path class="st16" d="M350.6,78.1"/>
<path class="st13" d="M417.1,185.6"/>
<path class="st10" d="M662.8,856.8c26.9-0.5,53.7-1.1,80.6-1.4c1.3-11.6-2.5-24.4-2.5-24.4c-7.3-16-24.8-26.5-44.1-26.1
	c0,0-10.7-0.2-20.1,2.9c-0.1-0.2-2.8-9.8-4.4-9.5c-1.6,0.2-62.7,1-62.7,1c-8.6,16.4-8.8,41.2-7.5,58.2
	C622.4,857.3,642.6,857.2,662.8,856.8z"/>
<path class="st17" d="M366.2,517.4c0,0,150.7-0.9,154.1,25.4"/>
<path class="st7" d="M440.6,520.1c0,0,118.1-3.8,140,12.8l77.2,7c0,0,44.7,9.9,48.2,54.6c3.5,44.6-10.3,71.2-10.3,71.2
	s-9.1,13.1-28.4,14.2l-77.2-7c-24.5,12.3-140-12.8-140-12.8l-3.7-0.3c-28.7-2.8-56.7-7.4-70-9.8l-3.2-0.6"/>
<path class="st10" d="M662.8,856.8c19.2-0.3,38.4-0.8,57.6-1.1c-0.4-7.3-1.8-13.1-1.8-13.1c-6.5-16.4-23.4-27.7-42.7-28.4
	c0,0-10.7-0.7-20.2,1.8c0,0,0,0,0,0c-0.1-0.6-2.4-9.9-3.9-9.7c-1.6,0.2-62.7-2.2-62.7-2.2c-8.6,14.6-10.6,36.6-10.6,53.2
	C606.7,857.4,634.8,857.3,662.8,856.8z"/>
<path class="st7" d="M370.6,516.2c0,0,151.7-1,155.1,25.6"/>
<path class="st7" d="M556.1,676.3c-42.8-3-101-15.7-101-15.7l-3.7-0.3c-28.9-2.8-57.1-7.5-70.4-9.8l-3.2-0.6"/>
<path class="st7" d="M698.1,647.8c-0.7,12.8,1.9,23.5-1.5,29l0.8,78c0,0-5.4,45.7-50,53.8c-44.6,8.1-72.8-3-72.8-3
	s-14.1-7.8-17.2-26.9l-0.8-78c-4.4-6.8-6.3-21.7-6.9-39.4"/>
<path class="st7" d="M521.9,536.1c0,0,104.8-5.9,169.5,24.1"/>
<path class="st18" d="M380.9,366.9c0,0-57.3,18.5-126.8,16.4"/>
<path class="st14" d="M379,242.9c0.2,1.9,75.5,59.1,67.8,107.2s30,251.5,30,251.5s-229.8,34-236.6,20.9c-6.8-13.1,1.6-90.1,1.6-90.1
	s-12-149.4-24.8-178.9c-12.8-29.5,3.1-111.8,28.2-122.5S379,242.9,379,242.9z"/>
<path class="st4" d="M444.8,325.4c-0.6,1.3-2.6,4.2-7.7,7.2c0,0-5.3,5.1-5.7,6.9c-0.3,1.8-0.9,1.4-0.9,1.4s-1.5-4-0.1-6.8
	c1.4-2.8-1.3-1-1.3-1l-3.9,11.3c0,0-2,3.6-2.6-0.8c-0.7-4.4-0.7-12.2-0.7-12.2s-2.3-7.1-3.2,0c-0.9,7.1,1.1,17.3,1.1,17.3
	s0.9,8.2-2.7,2.6c0,0-5-11.2-8.4-11.1c-3.4,0.1-2.4,3.2-2.4,3.2l7.4,8.5c0,0,3.6,6.8-2.8,2.8c0,0-5.7-6.6-15.7-7.7
	c-10-1.1-4.3,5.7-4.3,5.7s11.1-1,14.5,4.2c0,0,5.9,3.7,0.8,5.3c0,0-3.9-0.1-5.3-0.5c-1.5-0.4-16.9,2.8-16.9,2.8s-7.2,6.1-12.8,2.7
	c-5.6-3.4-9-10.9-9-10.9s-4.7-12.1,3.4-20s6.6-11.7,6.6-11.7s-0.3-8.2,14.9-8.1c15.3,0.1,23.2,19.2,23.2,19.2s3.2,7.5,3.2-0.4
	c0-7.9-3.2-12.6-3.2-12.6s-7.7-3.6-7.5-12.8c0.2-9.2-0.8-14.2,4.6-17c0,0,10.5-1.5,15-3.3c0.5-0.2,1.1-0.3,1.6-0.4"/>
<path class="st4" d="M406.3,371.5c0,0-6.2,1.3,1.3,4.9l2.9-0.4c0,0,9-1.1,4.6,3.7c-4.4,4.7-11.4,9.2-11.4,9.2s-10.9,8.3-1.7,8.1
	c9.1-0.3,13.3-11.5,13.3-11.5s5.3-9.1,2.8,3.4c-2.5,12.5-3.6,13.6-1.3,15.3c2.3,1.6,5.3-10.8,5.3-10.8s-1.9-11.3,1.8-11.2
	c3.6,0.1,3,13.9,3,13.9l1.8,15.2c0,0,0.3,16.6-9.8,21.5c-10.1,4.9-10.9,3.2-16.9-2.4c0,0-13.4,8.4-23.2-9.8c-9.7-18.1-6.2-29-6.2-29
	s1.8-4.9,4-5.2c0,0,0.1,0,0.1,0l-0.2-0.7c0,0-3.3-11.2,6.2-15.8c9.5-4.6,14.8-4.3,14.8-4.3s16.5-1,18.7,2.5c2.2,3.5-9.3,3.3-9.3,3.3
	L406.3,371.5z"/>
<path class="st3" d="M445.4,330c-22.4,17.5-23.4,37.3-23.4,37.3s1,10.4,6.5,1.3c0,0,1.9-19.2,17.4-34.2"/>
<path class="st3" d="M446.5,351.8c-1.9,0.8-3.3,1.5-3.3,1.5c-11.5,10.2-0.8-5.9-0.8-5.9s1.7-2.5,4.4-5.1"/>
<path class="st3" d="M445.7,363.6c-4.6,0.7-1.8-2.6,0.2-4.6"/>
<path class="st3" d="M446.1,378.5c-1-0.2-2.2-0.3-3.3-0.4c-8.2-0.5-1.5-5,2.9-7.6"/>
<path class="st3" d="M446.6,390.7c-1.2-1.7-2.5-3.2-2.5-3.2c-2.8-4.3-0.4-3.7,2.2-2.3"/>
<path class="st3" d="M451,435.2c-6.8,1.7-19.7,1.9-17.2-21.8l-0.2-0.6c0,0-4.1-15.7-3.4-26.7c0.7-11,3.8-0.7,3.8-0.7l3,12.2
	c4.5,6.9,4,0.3,4,0.3s-5.4-19.2-1.5-11.3c3.9,7.9,6.7,8.4,6.7,8.4c0.3,0.1,0.5,0.2,0.8,0.2"/>
<path class="st4" d="M400.3,496.5c0,0-2.5,7.8-3.2-0.1c-0.8-7.9,2.1-12.8,2.1-12.8s7.4-4.3,6.3-13.4c-1.1-9.1-0.5-14.2-6.2-16.5
	c0,0-10.6-0.5-15.2-1.9c-4.7-1.3-9.5,1.9-9.5,1.9s-5.9,5.3-7.9,11.3c-2,5.9-1.2,7.4-1.2,7.4s-6.5,8.6-0.8,16.6c0,0,1.5,3.8,8.7,7.1
	c0,0,5.8,4.6,6.3,6.4c0.5,1.8,1,1.3,1,1.3s1.1-4.1-0.5-6.8c-1.7-2.7,1.2-1.1,1.2-1.1l5,10.9c0,0,2.3,3.4,2.6-1.1
	c0.3-4.5-0.4-12.2-0.4-12.2s1.6-7.2,3.2-0.3s0.5,17.4,0.5,17.4s-0.2,8.3,2.9,2.4c0,0,3.9-11.6,7.3-11.8c3.4-0.2,2.7,2.9,2.7,2.9
	l-6.6,9.1c0,0-2.9,7.2,3.1,2.5c0,0,5.1-7.1,14.9-9.1c9.8-2,4.8,5.2,4.8,5.2s-11.1,0-14.1,5.5c0,0-5.5,4.2-0.3,5.3c0,0,3.8-0.5,5.3-1
	c1.4-0.6,17.1,1.3,17.1,1.3s7.8,5.4,13,1.6c5.2-3.9,8-11.6,8-11.6s3.5-12.5-5.3-19.6c-8.9-7.1-7.6-11-7.6-11s-0.4-8.2-15.6-6.7
	C406.5,476.7,400.3,496.5,400.3,496.5z"/>
<path class="st4" d="M434.6,545.2c0,0,3.2-11.1-6.7-14.8c-9.9-3.7-15.1-2.9-15.1-2.9s-16.5,0.5-18.4,4.2c-1.9,3.7,9.6,2.4,9.6,2.4
	h0.4c0,0,6.3,0.7-0.8,5l-2.9-0.1c0,0-9.1-0.3-4.2,4.1c4.8,4.3,12.2,8.1,12.2,8.1s11.6,7.3,2.5,7.9c-9.1,0.6-14.2-10.2-14.2-10.2
	s-6.1-8.5-2.5,3.7c3.6,12.2,4.8,13.3,2.7,15.1c-2.2,1.8-6.3-10.3-6.3-10.3s0.8-11.5-2.8-11s-1.7,14.1-1.7,14.1l-0.3,15.3
	c0,0,1.3,16.6,11.8,20.5c10.5,4,11.1,2.2,16.6-4c0,0,14.1,7.1,22.2-11.9c8-19,3.4-29.4,3.4-29.4s-2.2-4.7-4.4-4.8c0,0-0.1,0-0.1,0
	L434.6,545.2z"/>
<path class="st3" d="M357.6,238.7c7.3,13.3,5.1,19.8,5.1,19.8s-4.1,12.3-17.9,3.4l-0.5-0.3c0,0-22.4,2.5-2.1,4.5
	c20.3,2,14.5,24.7,14.5,24.7s16.5,25.7-12.8,30.4l-0.5,0.2c0,0-21.4,16.4-25.1-15.5l-0.3-0.6c0,0-7.4-14.5-9.1-25.3s3.5-1.5,3.5-1.5
	l5.6,11.2c5.8,5.7,4-0.5,4-0.5s-9.4-17.6-3.8-10.7c5.6,6.9,8.3,6.8,8.3,6.8c6.9,0.8-3.6-6.9-3.6-6.9c-6.5-6.4,6-1.2,6-1.2
	c12.1,8.3,8.3-2.5,8.3-2.5s-6.4-7.1-17.7-5.3c-11.2,1.8,3.9-10.3,3.9-10.3c12.8-3.6,10.4-4.6,10.4-4.6s-0.3-7.8-11.4-1.4
	s-2.7-4.7-2.7-4.7s9.2-1.8,8.5-7.9c-0.7-6-13.6,4.7-13.6,4.7c-9.1,12.4-2-5.7-2-5.7s1.4-3.4,3.9-6.9"/>
<path class="st3" d="M350.3,487.5c37.5,17.4,39.7,45.2,39.7,45.2s-0.7,10.4-6.5,1.5c0,0-4.3-32.2-36.8-44.7c0,0,4.3,12.7-4.7,11.9
	c0,0-4.8,1.7-2.7-9.6c0,0-6,12.5-10.9,5.4c-4.9-7.1,6.8-12.8,6.8-12.8s-11.1-1.9-8.5-8.8c2.6-6.9,10.2-2.3,10.2-2.3l3.3,3.7
	c0,0-0.4-14.4,7-7.8c7.4,6.6-0.1,9.4-0.1,9.4s6.2-4.2,7.7,1.4c1.5,5.5-4.1,7.1-4.1,7.1L350.3,487.5z"/>
<path class="st3" d="M361.9,600.5c0,0,25.8,7.9,18.1-23.2l0.1-0.6c0,0,1.9-16.1-0.3-26.9c-2.2-10.8-3.8-0.1-3.8-0.1l-1.3,12.5
	c-3.4,7.4-3.9,0.9-3.9,0.9s2.7-19.8-0.1-11.4c-2.8,8.4-5.4,9.2-5.4,9.2c-6.1,3.2,1-7.8,1-7.8c3.8-8.2-6.1,1-6.1,1
	c-8.4,12-8.7,0.6-8.7,0.6s3.5-8.9,14.7-11.1s-7.2-8.3-7.2-8.3c-13.3,1.1-11.4-0.7-11.4-0.7s-2.5-7.4,10.2-5.3s0.9-5.4,0.9-5.4
	s-9.3,1.5-10.7-4.4c-1.4-5.9,14.4-0.3,14.4-0.3c12.8,8.5-0.1-6-0.1-6s-12.9-13.7-21.2-7.8c-8.3,5.8-10.6,5.4-10.6,5.4
	s-8.2,1.3-10.6,16.7c-2.5,15.4,2.1,20.9,2.1,20.9s8.1,10.1,18-3l0.3-0.5c0,0,21.9-5.4,3.5,3.5c-18.3,9-5,28.2-5,28.2
	s-6.6,29.8,22.6,24.1L361.9,600.5z"/>
<path class="st4" d="M285,228.9c0.2,0,0,0.4,0.1,0.6c0.7,7.1,5,16.6,5,16.6s2.8,7.8-2.1,3.2c0,0-7.4-9.8-10.6-8.9
	c-3.3,0.9-1.6,3.6-1.6,3.6l9.1,6.6c0,0,5,5.9-2.1,3.3c0,0-7.1-5.2-17-4c-10,1.2-2.9,6.5-2.9,6.5s10.5-3.4,15.1,0.8
	c0,0,6.6,2.3,2,4.9c0,0-3.8,0.8-5.3,0.7s-15.8,6.6-15.8,6.6s-5.7,7.6-11.8,5.5c-6.2-2.1-11.2-8.5-11.2-8.5s-7.3-10.7-1.1-20.3
	c3.4-5.2,4.2-8.5,4.2-10.5C238.6,235.6,245.6,225.9,285,228.9z"/>
<path class="st4" d="M295.5,230.2l-1.1,10.5c0,0-1.1,4-2.8-0.2c-1.3-3.3-2.7-8.7-3.3-10.9"/>
<path class="st4" d="M282.1,271.4c0,0-5.8,2.7,2.4,4.5l2.7-1c0,0,8.5-3.1,5.3,2.5c-3.2,5.6-9,11.5-9,11.5s-8.7,10.6,0.1,8.2
	c8.8-2.3,10.3-14.2,10.3-14.2s3.1-10,3.5,2.7c0.4,12.7-0.4,14.1,2.2,15.2c2.6,1.1,2.8-11.7,2.8-11.7s-4.4-10.6-0.8-11.3
	c3.6-0.7,6.1,12.8,6.1,12.8l5.1,14.4c0,0,4,16.1-4.7,23.2c-8.7,7.1-9.9,5.6-17,1.5c0,0-11.2,11.2-24.8-4.3
	c-13.6-15.5-12.5-26.9-12.5-26.9s0.6-5.2,2.7-5.9c0,0,0.1,0,0.1,0l-0.3-0.6c0,0-5.8-10.2,2.5-16.8c8.2-6.6,13.4-7.5,13.4-7.5
	s15.8-4.7,18.8-1.8c3,2.9-8.4,5.3-8.4,5.3L282.1,271.4z"/>
<path class="st3" d="M304.8,230.6c-11.1,18.4-8.4,33.2-8.4,33.2s3.4,9.9,6.6-0.2c0,0-2.1-15.8,6.4-32.3"/>
<path class="st19" d="M301.3,230.4c5.1,0.6,10.3,1.2,15.5,1.9"/>
<path class="st19" d="M288.3,229.1c4.2,0.3,8.6,0.8,13,1.3"/>
<path class="st4" d="M228.3,406.7c2.4,1.6,4.3,2.9,4.3,2.9s7.1,2.3,1.9-2.6c-1.9-1.8-4.4-3.5-6.8-5"/>
<path class="st4" d="M222.5,371.9c2.3-4.5,5.9-12.3,5.9-12.3s-0.7-9.4,5.3-12c6-2.5,14.1-0.9,14.1-0.9s12.6,3.4,14.1,14.6
	c1.6,11.2,5.6,12.2,5.6,12.2s6.8,4.6-2.2,16.9c-9.1,12.3-29.2,7.4-29.2,7.4s-7.9-1.9-1.6,2.8c6.4,4.7,12.1,4.8,12.1,4.8
	s7.5-4.1,14.7,1.5c7.3,5.6,12,7.7,11,13.7c0,0-4.9,9.4-6.2,14c-1.3,4.7-6.6,7.2-6.6,7.2s-7.6,2.4-13.7,1c-6.1-1.4-7-2.8-7-2.8
	s-2.9,0.3-6.2-0.6"/>
<path class="st5" d="M224.6,386c3.1-1,7.4-3.1,11.1-7.2c6.7-7.4-2-6.8-2-6.8s-4.3,7.2-9.5,8.9"/>
<path class="st5" d="M226.6,395c2.9,0.2,5.7,0,6.6-1.2c1.9-2.8-1.1-3.8-1.1-3.8l-6.1,0.5"/>
<path class="st4" d="M212.8,334.1c0.1,0.2,0.2,0.3,0.2,0.3s2.9,4.3,1.8,6.2c0,0,0,0.1-0.1,0.1l0.6,0.2c0,0,11,3.9,9.1,14.3
	c-1,5.7-2.5,9.5-3.6,11.8"/>
<path class="st4" d="M238.1,593.9c0.6,0,1.5-0.5,2.9-2.1c0,0,3.9-7.8,13.2-11.4c9.4-3.5,5.6,4.4,5.6,4.4s-10.9,1.8-13,7.7
	c0,0-4.7,5.1,0.5,5.3c0,0,3.7-1.1,5-1.9c1.3-0.8,17.1-1.5,17.1-1.5s8.5,4.1,13.1-0.6c4.5-4.7,6-12.8,6-12.8s1.5-12.9-8.4-18.5
	c-9.9-5.6-9.3-9.7-9.3-9.7s-1.8-8-16.5-4.1c-8.3,2.2-12.8,9.7-15.2,15.8"/>
<path class="st4" d="M289.5,623.9c-0.9-4-2.2-5.9-2.2-5.9s-3-4.3-5.1-4c0,0-0.1,0-0.1,0l0-0.7c0,0,0.4-11.7-10-13.8
	s-15.4-0.4-15.4-0.4s-16.2,3.2-17.4,7.2c-1.3,4,9.9,0.8,9.9,0.8l0.4-0.1c0,0,6.3-0.3,0,5.1l-2.9,0.4c0,0-9,1.2-3.5,4.7
	c5.5,3.5,13.3,6,13.3,6s2,0.9,3.8,2"/>
<path class="st5" d="M228.3,406.7c2.4,1.6,4.3,2.9,4.3,2.9s7.1,2.3,1.9-2.6c-1.9-1.8-4.4-3.5-6.8-5"/>
<path class="st20" d="M316.8,232.3c32.2,4.4,62.2,10.6,62.2,10.6c0.2,1.9,75.5,59.1,67.8,107.2s30,251.5,30,251.5
	s-229.8,34-236.6,20.9c-6.8-13.1,1.6-90.1,1.6-90.1s-12-149.4-24.8-178.9c-12.8-29.5,3.1-111.8,28.2-122.5c8-3.4,24.4-3.4,43.1-1.9"
	/>
<path class="st21" d="M464.2,533.5c-56.4,25.1-145.6,56.5-226.8,49.1l-2.3,23c18.7,5.9,85.8-1.9,85.8-1.9
	c51.5-1.5,140.8-38.2,140.8-38.2s3.9-1.6,9.9-4.3"/>
<path class="st22" d="M460.2,394.6c0,0,0.8-122.5-127.4-174.8"/>
<path class="st32" d="M509.8,573.3c0.4,2.5-1.2,4.8-3.7,5.5l-7.3,2l-1.2,0.3c-10,2.8-21.9-2.3-24.7-11.9l-9.9-33.9
	c-0.4-1.4,0.5-2.9,2-3.4l25-6.9c2.4-0.7,5,0.4,6.1,2.6C499.3,534.6,506.4,550.8,509.8,573.3z"/>
<path class="st32" d="M496.5,528l3.1-0.8c0.1,0,0.2-0.1,0.4-0.1c6.6-1.8,15.6,8.9,19.9,23.8c4.3,14.6,2.6,28.1-3.8,30.3l-4.1,1.1
	c-6.6,1.4-15.3-9.3-19.6-23.9C488,543.5,489.9,529.8,496.5,528c0.1,0,0.3-0.1,0.4-0.1"/>
<line class="st33" x1="504.5" y1="543.2" x2="499.1" y2="544.7"/>
<line class="st33" x1="518" y1="539.5" x2="512.5" y2="541"/>
<path class="st34" d="M503.3,542.9L503.3,542.9c1.6-0.4,3.2,0.4,3.7,1.9l3,10.3c0.4,1.5-0.5,3.1-2.1,3.5l0,0
	c-1.6,0.4-3.2-0.4-3.7-1.9l-3-10.3C500.8,544.9,501.7,543.3,503.3,542.9z"/>
<path class="st14" d="M250,230.4c-2.8,1.4,2.3-7.5,2.3-7.5s-1.7-9.1,0.9-19.8c2.7-10.6,39.9-2.8,39.9-2.8s100,26.8,90.4,37.2
	l-9.9,16.3c0,0-0.4,3-9.3-2.9C355.4,245.2,277.9,216.9,250,230.4z"/>
<path class="st23" d="M394.4,180.2"/>
<rect x="308.4" y="86.9" transform="matrix(0.1846 -0.9828 0.9828 0.1846 102.2566 466.729)" class="st24" width="47.9" height="169.7"/>
<path class="st25" d="M330.8,174.3"/>
<path class="st26" d="M349.1,78.5"/>
<path class="st26" d="M349.1,78.5"/>
<path class="st23" d="M415,183.4"/>
<path class="st24" d="M412.7,204.4l7.8-39.6l0-0.2l6.2-31.4c0.5-2.3,0.7-4.7,0.7-7l0.1-2.2c0,0-1.5-66.6-70.8-79.7l0.4,0.1
	c-69.3-13-95.9,48.4-95.9,48.4l-0.3,1c-1.1,2.5-1.9,5.1-2.4,7.9l-6.2,31.5l-7.8,39.6"/>
<path class="st24" d="M407.8,69c2.5-1.6-0.1-4.1-0.1-4.1c-35.4,2.4-63.8,21.6-68.1,48.9l-5.1,33c0,0,4.3,27,84.4,40.4
	c0,0,1.8-3.3,0.1-5.2"/>
<path class="st27" d="M415.1,181.5c-74.2-12.4-75-36.9-75-36.9l4.8-30.6c4-25.6,29.6-43.2,63-45l1.1,0.6c17.6,22.8,19,49.2,19,49.2
	l0,2.2c0.1,2.4-0.1,4.9-0.4,7.3l-5.2,32.8l0,0.2L419,182L415.1,181.5z"/>
<path class="st28" d="M401.7,61.8l2.3,9.1c0.4,1.7,0.3,3-0.3,3.6l-3.2,3.2c-1.5,1.5,0.3,7,3,9.3l5.9,5.1c1.1,0.9,2.1,2.5,2.8,4.2
	l3.8,9.4c1.7,4.3,5.1,6.6,5.8,3.9l1.4-6c0.2-1.1,1-1.5,2-1l5.5,2.6c2.5,1.2,2.8-2.9,0.5-6.9l-5.1-8.7c-0.9-1.6-1.5-3.4-1.6-4.8
	l-0.3-7.8c-0.2-3.6-3.4-8.4-5.4-8.1l-4.5,0.5c-0.8,0.1-1.9-0.7-3-2l-5.7-7.4C403,56.5,400.7,57.6,401.7,61.8z"/>
<path class="st29" d="M398.2,80.7l-73.1,20.7c0,0-1.6,3-0.7,4.6"/>
<path class="st24" d="M325.2,205.9c-49-9.9-68.7-17.6-77-21.3c-6.7-2.9-4.8-6.6-4.8-6.6l1-5.2c0,0,27.9,12.6,82,22.2l1.6,0.3
	c53.9,10.7,84.6,9.1,84.6,9.1l-1,5.2c0,0,0.3,4.1-7,4.4C395.6,214.4,374.4,214.4,325.2,205.9"/>
<path class="st35" d="M449,421.9h21.3c1.7,0,3.1-1.4,3.1-3.1v-44.5c0-1.7-1.4-3.1-3.1-3.1H449c-1.7,0-3.1,1.4-3.1,3.1v44.5
	C445.9,420.5,447.3,421.9,449,421.9z"/>
<path class="st35" d="M467.2,370.3v-8c0-1.9-1.3-3.5-2.9-3.5h-8.7c-1.6,0-2.9,1.6-2.9,3.5v8"/>
<path class="st36" d="M486.3,415.9c2,0,3.7-7.8,3.7-17.3c0-9.6-1.6-17.3-3.7-17.3"/>
<polyline class="st37" points="486.4,415.9 473.6,415.9 473.6,381.2 486.3,381.2 "/>
<path class="st13" d="M35.4,171.9"/>
<path class="st13" d="M56.4,175.6"/>
<path class="st6" d="M276.5,772.2"/>
<path class="st30" d="M295,271.3c0,0-5.9,2.3,2.1,4.6l2.8-0.8c0,0,8.7-2.5,5.1,2.9c-3.6,5.4-9.8,10.9-9.8,10.9s-9.4,10-0.4,8.2
	s11.2-13.5,11.2-13.5s3.8-9.8,3.3,2.9c-0.4,12.7-1.3,14,1.2,15.3s3.5-11.5,3.5-11.5s-3.7-10.9,0-11.3c3.6-0.5,5.2,13.2,5.2,13.2
	l4.2,14.7c0,0,2.9,16.3-6.2,22.8s-10.2,4.9-17.1,0.4c0,0-11.9,10.4-24.4-5.9c-12.5-16.3-10.7-27.6-10.7-27.6s1-5.1,3.1-5.7
	c0,0,0.1,0,0.1,0l-0.3-0.6c0,0-5.1-10.5,3.5-16.6c8.6-6.1,13.9-6.6,13.9-6.6s16-3.6,18.8-0.5s-8.7,4.7-8.7,4.7L295,271.3z"/>
<path class="st7" d="M346.7,376.2c29.1,23.9,62.7,47.2,86.9,51.1l1,1.1l0.6,0.8c0,0,39,39.2,79.2,22.9l36.1-57
	c-2.4-43.3-54.5-61.8-54.5-61.8l-0.4-0.4c-29.6-26.1-96.8-41.1-96.8-41.1"/>
<path class="st11" d="M564.6,474.3c-6.3-4-14-8.5-20.1-12c-12.2-7-12.5-18.2-12.5-18.2l18.4-28.3c0,0,21.7-11.2,48.1,5.5
	s20,44.4,20,44.4l-0.1,0.5c4,15.1-11.7,21.5-11.7,21.5s-2.5,1.1-4.5,0.3l-0.4,0.6c-3.7,6-8.9,10.9-18.5,10l-0.4,0
	c-3.3,2.1-7.7,2.7-13.5-0.4c-17.5-9.2-5.4-23.2-5.4-23.2L564.6,474.3z"/>
<path class="st11" d="M583,498.6c6.6-4.2,8.6-14.6,8.6-14.6s1.6-12.5-20.4-32.6"/>
<path class="st11" d="M601.9,488.6c4.8-7.7,5.7-17.3,5.2-19c0,0-1.5-11.9-18.6-28.8"/>
<path class="st11" d="M596,428.8c0,0,15.6,18.6,21.8,35.2c0.3,0.8,0.5,1.5,0.7,2.2"/>
<path class="st7" d="M557.9,403.9l-31.7,50c-0.5,0.8-1.6,1.1-2.4,0.5l-6.4-4c-0.8-0.5-1.1-1.6-0.5-2.4l31.7-50
	c0.5-0.8,1.6-1.1,2.4-0.5l6.4,4C558.2,402,558.5,403,557.9,403.9z"/>
<path class="st14" d="M327.3,237.2c0,0-64.6-12.7-75.5,57.3c0,0-9.8,38.8,44.8,64.4l48.1,31.7c-4.9-4.1,37.6-88.6,67.3-106.6
	C412,284,341.3,233.6,327.3,237.2z"/>
<path class="st4" d="M405.2,278.6c-9-1.3-18.1-1.1-18.1-1.1l-0.6,0c-30.2-10.6-24.8,15.7-24.8,15.7l-0.1,0.5
	c-7.3,24.4,14,25.2,20.2,24.9c0,0,18.6-25.4,26.7-30.7c3.2-2.1-8.6,0.1-8.6,0.1s-6.5-1.1,1.2-3.8l11.1-0.1L405.2,278.6z"/>
<path class="st12" d="M772.7,690.6c-0.2-33.4-0.5-66.5,2-99.8c-0.4-6.1-1-12.2-0.7-18.2c0.2-2.8,0.6-5.5,1.1-8.3
	c-1.3-2.3-2.2-4.9-2.3-7.6c0-0.8,0-1.5,0-2.2c0-13.3-0.2-26.5,0-39.8c0.1-6.9,0.2-13.8,0.4-20.7c0.1-3,0.5-6,1-9
	c-5.8-11-2.4-24.9-2.2-36.7c0.2-9.4-0.5-18.7-0.7-28.1c-0.2-8.3,0.7-16.5,1-24.8c-3.7-8.3-2.9-17.7-1.3-27c0.3-2,0.7-4.1,1.1-6.1
	c0.2-1,0.4-2,0.6-3c-0.1-3,0.1-6,0.2-9L559,506.4c-2,1.4-3.2,3.8-3.2,6.3l-1.5,60.5c-0.1,3.4,2,6.5,5,7.6l26.2,9.6
	c1.4,0.5,2.7,1.5,3.6,2.7c46.7,65.3,52.8,200.2,53,263.7c12-0.1,24.1-0.2,36.1-0.5c20.1-0.4,40.3-0.1,60.4-0.7
	c2.2-0.1,4.3-0.2,6.4-0.3c0.7-0.5,1.4-1,2.2-1.3c2.7-1.2,5.2-2.4,7.7-3.9c0.9-0.6,1.8-1.2,2.8-1.8c0.2-0.2,0.8-0.7,1.3-1
	c1.8-1.6,3.4-3.3,5-5.2c0.2-0.2,0.3-0.3,0.4-0.5c0.1-0.2,0.2-0.4,0.4-0.7c0.6-0.9,1.2-1.8,1.8-2.8c1.1-1.8,2-3.7,2.9-5.5
	c-0.2,0.4,0.9-2.2,1-2.5c0.4-1.1,0.8-2.2,1.1-3.3c2-6.2,2.6-9,2.5-14.8c-0.1-6-0.7-11.9-0.5-17.9c-0.8-1.8-1.3-3.8-1.2-5.9
	c0.1-8,1.5-15.9,2.3-23.9c0.9-8.2,0.2-16-0.5-24.1C772.8,723.7,772.8,707.2,772.7,690.6z"/>
<path class="st31" d="M313.7,163.8l-40.2-12.2c-4.8-1.4-7.5-6.5-6-11.3l17-56.1c1.5-4.8,6.5-7.5,11.3-6.1l40.2,12.2
	c4.8,1.4,7.5,6.5,6,11.3l-17,56.1C323.5,162.5,318.5,165.2,313.7,163.8z"/>
<path class="st31" d="M323.1,86.4c0,0,28.2-25.9,48.1-41.6l-10.6-2c-20.6,2.3-52,39.2-52,39.2"/>
<path class="st38" d="M731,857.2H58.9c-23.2,0-42.1-18.8-42.1-42.1v-767C16.8,24.9,35.7,6,58.9,6H731c23.2,0,42.1,18.8,42.1,42.1
	v767C773.1,838.3,754.2,857.2,731,857.2z"/>
</svg>
