<?xml version="1.0" encoding="utf-8"?>
<!-- Generator: Adobe Illustrator 27.3.1, SVG Export Plug-In . SVG Version: 6.00 Build 0)  -->
<svg version="1.1" id="Layer_1" xmlns="http://www.w3.org/2000/svg" xmlns:xlink="http://www.w3.org/1999/xlink" x="0px" y="0px"
	 viewBox="0 0 1152 576" style="enable-background:new 0 0 1152 576;" xml:space="preserve">
<style type="text/css">
	.st0{fill:#132628;stroke:#0D1A1C;stroke-width:5;stroke-miterlimit:10;}
	.st1{fill:#E4E4E3;stroke:#E4E4E3;stroke-miterlimit:10;}
	.st2{fill:#FFF7F3;stroke:#CEBAB2;stroke-width:3;stroke-miterlimit:10;}
	.st3{fill:#CEBAB2;stroke:#CEBAB2;stroke-width:7;stroke-miterlimit:10;}
	.st4{fill:#FDE6D8;stroke:#CEBAB2;stroke-width:3;stroke-miterlimit:10;}
	.st5{fill:#CEBAB2;stroke:#CEBAB2;stroke-width:2;stroke-miterlimit:10;}
	.st6{fill:#FFF7F3;stroke:#CEBAB2;stroke-width:7;stroke-miterlimit:10;}
</style>
<path class="st0" d="M1103.9,568.7H71.3c-13.1,0-23.7-18.8-23.7-42.1V50.3c0-23.2,10.6-42.1,23.7-42.1h1032.6
	c13.1,0,23.7,18.8,23.7,42.1v476.3C1127.6,549.9,1117,568.7,1103.9,568.7z"/>
<g>
	<g>
		<g>
			<path class="st1" d="M116.6,172.1c3.2,0,3.2-5,0-5S113.3,172.1,116.6,172.1L116.6,172.1z"/>
		</g>
	</g>
	<g>
		<g>
			<path class="st1" d="M144.3,92.8c3.2,0,3.2-5,0-5S141.1,92.8,144.3,92.8L144.3,92.8z"/>
		</g>
	</g>
	<g>
		<g>
			<path class="st1" d="M799.8,325.3c3.2,0,3.2-5,0-5C796.6,320.3,796.6,325.3,799.8,325.3L799.8,325.3z"/>
		</g>
	</g>
	<g>
		<g>
			<path class="st1" d="M312.6,64.9c3.2,0,3.2-5,0-5S309.4,64.9,312.6,64.9L312.6,64.9z"/>
		</g>
	</g>
	<g>
		<g>
			<path class="st1" d="M392.3,282.4c3.2,0,3.2-5,0-5S389.1,282.4,392.3,282.4L392.3,282.4z"/>
		</g>
	</g>
	<g>
		<g>
			<path class="st1" d="M415.6,34.4c3.2,0,3.2-5,0-5C412.4,29.4,412.4,34.4,415.6,34.4L415.6,34.4z"/>
		</g>
	</g>
	<g>
		<g>
			<path class="st1" d="M288.1,506.9c3.2,0,3.2-5,0-5C284.9,501.9,284.9,506.9,288.1,506.9L288.1,506.9z"/>
		</g>
	</g>
	<g>
		<g>
			<path class="st1" d="M836.6,429.5c3.2,0,3.2-5,0-5S833.3,429.5,836.6,429.5L836.6,429.5z"/>
		</g>
	</g>
	<g>
		<g>
			<path class="st1" d="M842.7,190.5c3.2,0,3.2-5,0-5C839.5,185.5,839.5,190.5,842.7,190.5L842.7,190.5z"/>
		</g>
	</g>
	<g>
		<g>
			<path class="st1" d="M707.9,230.3c3.2,0,3.2-5,0-5C704.7,225.3,704.6,230.3,707.9,230.3L707.9,230.3z"/>
		</g>
	</g>
	<g>
		<g>
			<path class="st1" d="M698.7,74.1c3.2,0,3.2-5,0-5C695.5,69.1,695.5,74.1,698.7,74.1L698.7,74.1z"/>
		</g>
	</g>
	<g>
		<g>
			<path class="st1" d="M193.4,304.2c3.2,0,3.2-5,0-5S190.2,304.2,193.4,304.2L193.4,304.2z"/>
		</g>
	</g>
	<g>
		<g>
			<path class="st1" d="M588.4,178.3c3.2,0,3.2-5,0-5S585.2,178.3,588.4,178.3L588.4,178.3z"/>
		</g>
	</g>
	<g>
		<g>
			<path class="st1" d="M349.4,184.4c3.2,0,3.2-5,0-5S346.2,184.4,349.4,184.4L349.4,184.4z"/>
		</g>
	</g>
	<g>
		<g>
			<path class="st1" d="M498.9,30.1c3.2,0,3.2-5,0-5S495.6,30.1,498.9,30.1L498.9,30.1z"/>
		</g>
	</g>
	<g>
		<g>
			<path class="st1" d="M127.2,35.5c3.2,0,3.2-5,0-5C124,30.5,124,35.5,127.2,35.5L127.2,35.5z"/>
		</g>
	</g>
	<g>
		<g>
			<path class="st1" d="M248.3,156.8c3.2,0,3.2-5,0-5S245.1,156.8,248.3,156.8L248.3,156.8z"/>
		</g>
	</g>
	<g>
		<g>
			<path class="st1" d="M635.1,475.3c3.2,0,3.2-5,0-5S631.9,475.3,635.1,475.3L635.1,475.3z"/>
		</g>
	</g>
	<g>
		<g>
			<path class="st1" d="M851.9,487.7c3.2,0,3.2-5,0-5C848.7,482.7,848.6,487.7,851.9,487.7L851.9,487.7z"/>
		</g>
	</g>
	<g>
		<g>
			<path class="st1" d="M772.2,31.2c3.2,0,3.2-5,0-5C769,26.2,769,31.2,772.2,31.2L772.2,31.2z"/>
		</g>
	</g>
	<g>
		<g>
			<path class="st1" d="M432.1,98.6c3.2,0,3.2-5,0-5S428.9,98.6,432.1,98.6L432.1,98.6z"/>
		</g>
	</g>
	<g>
		<g>
			<path class="st1" d="M347.9,111.4c3.2,0,3.2-5,0-5S344.7,111.4,347.9,111.4L347.9,111.4z"/>
		</g>
	</g>
	<g>
		<g>
			<path class="st1" d="M802.8,545.9c3.2,0,3.2-5,0-5C799.6,540.9,799.6,545.9,802.8,545.9L802.8,545.9z"/>
		</g>
	</g>
	<g>
		<g>
			<path class="st1" d="M171.4,353.4c3.2,0,3.2-5,0-5S168.2,353.4,171.4,353.4L171.4,353.4z"/>
		</g>
	</g>
	<g>
		<g>
			<path class="st1" d="M271.2,104.4c3.2,0,3.2-5,0-5S268,104.4,271.2,104.4L271.2,104.4z"/>
		</g>
	</g>
	<g>
		<g>
			<path class="st1" d="M142.7,408.7c3.2,0,3.2-5,0-5C139.5,403.7,139.5,408.7,142.7,408.7L142.7,408.7z"/>
		</g>
	</g>
	<g>
		<g>
			<path class="st1" d="M113.5,251.8c3.2,0,3.2-5,0-5S110.3,251.8,113.5,251.8L113.5,251.8z"/>
		</g>
	</g>
	<g>
		<g>
			<path class="st1" d="M716.9,374.9c3.2,0,3.2-5,0-5C713.7,369.9,713.7,374.9,716.9,374.9L716.9,374.9z"/>
		</g>
	</g>
	<g>
		<g>
			<path class="st1" d="M239.1,401.9c3.2,0,3.2-5,0-5S235.9,401.9,239.1,401.9L239.1,401.9z"/>
		</g>
	</g>
	<g>
		<g>
			<path class="st1" d="M365.6,510.8c3.2,0,3.2-5,0-5S362.4,510.8,365.6,510.8L365.6,510.8z"/>
		</g>
	</g>
	<g>
		<g>
			<path class="st1" d="M349.4,331.5c3.2,0,3.2-5,0-5S346.2,331.5,349.4,331.5L349.4,331.5z"/>
		</g>
	</g>
	<g>
		<g>
			<path class="st1" d="M291.2,365.1c3.2,0,3.2-5,0-5C288,360.1,288,365.1,291.2,365.1L291.2,365.1z"/>
		</g>
	</g>
	<g>
		<g>
			<path class="st1" d="M257.5,319.2c3.2,0,3.2-5,0-5C254.3,314.2,254.3,319.2,257.5,319.2L257.5,319.2z"/>
		</g>
	</g>
	<g>
		<g>
			<path class="st1" d="M266.7,239.5c3.2,0,3.2-5,0-5C263.5,234.5,263.5,239.5,266.7,239.5L266.7,239.5z"/>
		</g>
	</g>
	<g>
		<g>
			<path class="st1" d="M715.5,136.9c3.2,0,3.2-5,0-5C712.3,131.9,712.3,136.9,715.5,136.9L715.5,136.9z"/>
		</g>
	</g>
	<g>
		<g>
			<path class="st1" d="M819.7,71c3.2,0,3.2-5,0-5C816.5,66,816.5,71,819.7,71L819.7,71z"/>
		</g>
	</g>
	<g>
		<g>
			<path class="st1" d="M663.8,48.7c3.2,0,3.2-5,0-5C660.5,43.7,660.5,48.7,663.8,48.7L663.8,48.7z"/>
		</g>
	</g>
	<g>
		<g>
			<path class="st1" d="M789.2,480.7c3.2,0,3.2-5,0-5S786,480.7,789.2,480.7L789.2,480.7z"/>
		</g>
	</g>
	<g>
		<g>
			<path class="st1" d="M486.3,264.6c3.2,0,3.2-5,0-5S483,264.6,486.3,264.6L486.3,264.6z"/>
		</g>
	</g>
	<g>
		<g>
			<path class="st1" d="M458.7,154.3c3.2,0,3.2-5,0-5C455.5,149.3,455.5,154.3,458.7,154.3L458.7,154.3z"/>
		</g>
	</g>
	<g>
		<g>
			<path class="st1" d="M541.4,108.3c3.2,0,3.2-5,0-5C538.2,103.3,538.2,108.3,541.4,108.3L541.4,108.3z"/>
		</g>
	</g>
	<g>
		<g>
			<path class="st1" d="M538.3,250.8c3.2,0,3.2-5,0-5C535.1,245.8,535.1,250.8,538.3,250.8L538.3,250.8z"/>
		</g>
	</g>
	<g>
		<g>
			<path class="st1" d="M633.3,256.9c3.2,0,3.2-5,0-5S630.1,256.9,633.3,256.9L633.3,256.9z"/>
		</g>
	</g>
	<g>
		<g>
			<path class="st1" d="M683.9,338.1c3.2,0,3.2-5,0-5C680.7,333.1,680.6,338.1,683.9,338.1L683.9,338.1z"/>
		</g>
	</g>
	<g>
		<g>
			<path class="st1" d="M777.3,255.4c3.2,0,3.2-5,0-5S774.1,255.4,777.3,255.4L777.3,255.4z"/>
		</g>
	</g>
	<g>
		<g>
			<path class="st1" d="M850.8,359.5c3.2,0,3.2-5,0-5C847.6,354.5,847.6,359.5,850.8,359.5L850.8,359.5z"/>
		</g>
	</g>
	<g>
		<g>
			<path class="st1" d="M869.2,238.5c3.2,0,3.2-5,0-5C866,233.5,866,238.5,869.2,238.5L869.2,238.5z"/>
		</g>
	</g>
	<g>
		<g>
			<path class="st1" d="M119.5,555.8c3.2,0,3.2-5,0-5C116.3,550.8,116.3,555.8,119.5,555.8L119.5,555.8z"/>
		</g>
	</g>
	<g>
		<g>
			<path class="st1" d="M438.5,197.4c3.2,0,3.2-5,0-5S435.2,197.4,438.5,197.4L438.5,197.4z"/>
		</g>
	</g>
	<g>
		<g>
			<path class="st1" d="M510.5,364.6c3.2,0,3.2-5,0-5C507.2,359.6,507.2,364.6,510.5,364.6L510.5,364.6z"/>
		</g>
	</g>
	<g>
		<g>
			<path class="st1" d="M185.3,146.2c3.2,0,3.2-5,0-5S182.1,146.2,185.3,146.2L185.3,146.2z"/>
		</g>
	</g>
	<g>
		<g>
			<path class="st1" d="M460.2,362.6c3.2,0,3.2-5,0-5S457,362.6,460.2,362.6L460.2,362.6z"/>
		</g>
	</g>
	<g>
		<g>
			<path class="st1" d="M619.5,298.3c3.2,0,3.2-5,0-5C616.3,293.3,616.3,298.3,619.5,298.3L619.5,298.3z"/>
		</g>
	</g>
	<g>
		<g>
			<path class="st1" d="M572,448.4c3.2,0,3.2-5,0-5C568.8,443.4,568.8,448.4,572,448.4L572,448.4z"/>
		</g>
	</g>
	<g>
		<g>
			<path class="st1" d="M435.7,381c3.2,0,3.2-5,0-5C432.5,376,432.5,381,435.7,381L435.7,381z"/>
		</g>
	</g>
	<g>
		<g>
			<path class="st1" d="M605.7,364.1c3.2,0,3.2-5,0-5S602.5,364.1,605.7,364.1L605.7,364.1z"/>
		</g>
	</g>
	<g>
		<g>
			<path class="st1" d="M859.6,34c3.2,0,3.2-5,0-5C856.4,29,856.4,34,859.6,34L859.6,34z"/>
		</g>
	</g>
	<g>
		<g>
			<path class="st1" d="M452.6,428.5c3.2,0,3.2-5,0-5S449.3,428.5,452.6,428.5L452.6,428.5z"/>
		</g>
	</g>
	<g>
		<g>
			<path class="st1" d="M377.5,405.5c3.2,0,3.2-5,0-5S374.3,405.5,377.5,405.5L377.5,405.5z"/>
		</g>
	</g>
	<g>
		<g>
			<path class="st1" d="M467.9,527.9c3.2,0,3.2-5,0-5S464.7,527.9,467.9,527.9L467.9,527.9z"/>
		</g>
	</g>
	<g>
		<g>
			<path class="st1" d="M632,546.5c3.2,0,3.2-5,0-5S628.8,546.5,632,546.5L632,546.5z"/>
		</g>
	</g>
	<g>
		<g>
			<path class="st1" d="M660.9,426.9c3.2,0,3.2-5,0-5C657.7,421.9,657.7,426.9,660.9,426.9L660.9,426.9z"/>
		</g>
	</g>
	<g>
		<g>
			<path class="st1" d="M737.3,314.2c3.2,0,3.2-5,0-5S734.1,314.2,737.3,314.2L737.3,314.2z"/>
		</g>
	</g>
	<g>
		<g>
			<path class="st1" d="M763.5,434.6c3.2,0,3.2-5,0-5C760.3,429.6,760.3,434.6,763.5,434.6L763.5,434.6z"/>
		</g>
	</g>
	<g>
		<g>
			<path class="st1" d="M729.8,529.6c3.2,0,3.2-5,0-5C726.6,524.6,726.6,529.6,729.8,529.6L729.8,529.6z"/>
		</g>
	</g>
	<g>
		<g>
			<path class="st1" d="M570.5,514.3c3.2,0,3.2-5,0-5C567.3,509.3,567.3,514.3,570.5,514.3L570.5,514.3z"/>
		</g>
	</g>
	<g>
		<g>
			<path class="st1" d="M720.3,473.7c3.2,0,3.2-5,0-5C717.1,468.7,717.1,473.7,720.3,473.7L720.3,473.7z"/>
		</g>
	</g>
	<g>
		<g>
			<path class="st1" d="M529.8,549.6c3.2,0,3.2-5,0-5C526.6,544.6,526.6,549.6,529.8,549.6L529.8,549.6z"/>
		</g>
	</g>
	<g>
		<g>
			<path class="st1" d="M509.2,468.3c3.2,0,3.2-5,0-5S506,468.3,509.2,468.3L509.2,468.3z"/>
		</g>
	</g>
	<g>
		<g>
			<path class="st1" d="M251.1,558.9c3.2,0,3.2-5,0-5S247.9,558.9,251.1,558.9L251.1,558.9z"/>
		</g>
	</g>
	<g>
		<g>
			<path class="st1" d="M385,555c3.2,0,3.2-5,0-5C381.8,550,381.8,555,385,555L385,555z"/>
		</g>
	</g>
	<g>
		<g>
			<path class="st1" d="M202.8,520.4c3.2,0,3.2-5,0-5C199.6,515.4,199.6,520.4,202.8,520.4L202.8,520.4z"/>
		</g>
	</g>
	<g>
		<g>
			<path class="st1" d="M140,456c3.2,0,3.2-5,0-5S136.8,456,140,456L140,456z"/>
		</g>
	</g>
	<g>
		<g>
			<path class="st1" d="M141.6,500.5c3.2,0,3.2-5,0-5S138.3,500.5,141.6,500.5L141.6,500.5z"/>
		</g>
	</g>
	<g>
		<g>
			<path class="st1" d="M409.3,438.4c3.2,0,3.2-5,0-5S406.1,438.4,409.3,438.4L409.3,438.4z"/>
		</g>
	</g>
	<g>
		<g>
			<path class="st1" d="M195.2,221.7c3.2,0,3.2-5,0-5C192,216.7,192,221.7,195.2,221.7L195.2,221.7z"/>
		</g>
	</g>
	<g>
		<g>
			<path class="st1" d="M357.6,221.7c3.2,0,3.2-5,0-5S354.3,221.7,357.6,221.7L357.6,221.7z"/>
		</g>
	</g>
	<g>
		<g>
			<path class="st1" d="M474,230.9c3.2,0,3.2-5,0-5C470.8,225.9,470.8,230.9,474,230.9L474,230.9z"/>
		</g>
	</g>
	<g>
		<g>
			<path class="st1" d="M227.1,36.6c3.2,0,3.2-5,0-5S223.9,36.6,227.1,36.6L227.1,36.6z"/>
		</g>
	</g>
	<g>
		<g>
			<path class="st1" d="M973.7,325.3c3.2,0,3.2-5,0-5S970.5,325.3,973.7,325.3L973.7,325.3z"/>
		</g>
	</g>
	<g>
		<g>
			<path class="st1" d="M937,429.5c3.2,0,3.2-5,0-5C933.8,424.5,933.8,429.5,937,429.5L937,429.5z"/>
		</g>
	</g>
	<g>
		<g>
			<path class="st1" d="M930.8,190.5c3.2,0,3.2-5,0-5C927.6,185.5,927.6,190.5,930.8,190.5L930.8,190.5z"/>
		</g>
	</g>
	<g>
		<g>
			<path class="st1" d="M1065.7,230.3c3.2,0,3.2-5,0-5S1062.4,230.3,1065.7,230.3L1065.7,230.3z"/>
		</g>
	</g>
	<g>
		<g>
			<path class="st1" d="M1074.8,74.1c3.2,0,3.2-5,0-5C1071.6,69.1,1071.6,74.1,1074.8,74.1L1074.8,74.1z"/>
		</g>
	</g>
	<g>
		<g>
			<path class="st1" d="M921.7,487.7c3.2,0,3.2-5,0-5C918.4,482.7,918.4,487.7,921.7,487.7L921.7,487.7z"/>
		</g>
	</g>
	<g>
		<g>
			<path class="st1" d="M1001.3,31.2c3.2,0,3.2-5,0-5S998.1,31.2,1001.3,31.2L1001.3,31.2z"/>
		</g>
	</g>
	<g>
		<g>
			<path class="st1" d="M970.7,545.9c3.2,0,3.2-5,0-5C967.5,540.9,967.5,545.9,970.7,545.9L970.7,545.9z"/>
		</g>
	</g>
	<g>
		<g>
			<path class="st1" d="M1056.6,374.9c3.2,0,3.2-5,0-5C1053.4,369.9,1053.4,374.9,1056.6,374.9L1056.6,374.9z"/>
		</g>
	</g>
	<g>
		<g>
			<path class="st1" d="M1058,136.9c3.2,0,3.2-5,0-5C1054.8,131.9,1054.8,136.9,1058,136.9L1058,136.9z"/>
		</g>
	</g>
	<g>
		<g>
			<path class="st1" d="M953.8,71c3.2,0,3.2-5,0-5C950.6,66,950.6,71,953.8,71L953.8,71z"/>
		</g>
	</g>
	<g>
		<g>
			<path class="st1" d="M1109.8,48.7c3.2,0,3.2-5,0-5C1106.6,43.7,1106.5,48.7,1109.8,48.7L1109.8,48.7z"/>
		</g>
	</g>
	<g>
		<g>
			<path class="st1" d="M984.4,480.7c3.2,0,3.2-5,0-5C981.1,475.7,981.1,480.7,984.4,480.7L984.4,480.7z"/>
		</g>
	</g>
	<g>
		<g>
			<path class="st1" d="M1089.7,338.1c3.2,0,3.2-5,0-5S1086.4,338.1,1089.7,338.1L1089.7,338.1z"/>
		</g>
	</g>
	<g>
		<g>
			<path class="st1" d="M996.2,255.4c3.2,0,3.2-5,0-5C993,250.4,993,255.4,996.2,255.4L996.2,255.4z"/>
		</g>
	</g>
	<g>
		<g>
			<path class="st1" d="M922.7,359.5c3.2,0,3.2-5,0-5C919.5,354.5,919.5,359.5,922.7,359.5L922.7,359.5z"/>
		</g>
	</g>
	<g>
		<g>
			<path class="st1" d="M904.3,238.5c3.2,0,3.2-5,0-5C901.1,233.5,901.1,238.5,904.3,238.5L904.3,238.5z"/>
		</g>
	</g>
	<g>
		<g>
			<path class="st1" d="M913.9,34c3.2,0,3.2-5,0-5C910.7,29,910.7,34,913.9,34L913.9,34z"/>
		</g>
	</g>
	<g>
		<g>
			<path class="st1" d="M1112.6,426.9c3.2,0,3.2-5,0-5C1109.4,421.9,1109.4,426.9,1112.6,426.9L1112.6,426.9z"/>
		</g>
	</g>
	<g>
		<g>
			<path class="st1" d="M1036.2,314.2c3.2,0,3.2-5,0-5C1033,309.2,1033,314.2,1036.2,314.2L1036.2,314.2z"/>
		</g>
	</g>
	<g>
		<g>
			<path class="st1" d="M1010,434.6c3.2,0,3.2-5,0-5C1006.8,429.6,1006.8,434.6,1010,434.6L1010,434.6z"/>
		</g>
	</g>
	<g>
		<g>
			<path class="st1" d="M1043.7,529.6c3.2,0,3.2-5,0-5C1040.5,524.6,1040.5,529.6,1043.7,529.6L1043.7,529.6z"/>
		</g>
	</g>
	<g>
		<g>
			<path class="st1" d="M1053.3,473.7c3.2,0,3.2-5,0-5S1050,473.7,1053.3,473.7L1053.3,473.7z"/>
		</g>
	</g>
	<g>
		<g>
			<path class="st1" d="M1092,558.9c3.2,0,3.2-5,0-5S1088.7,558.9,1092,558.9L1092,558.9z"/>
		</g>
	</g>
	<g>
		<g>
			<path class="st1" d="M59.1,160.8c3.2,0,3.2-5,0-5C55.9,155.8,55.9,160.8,59.1,160.8L59.1,160.8z"/>
		</g>
	</g>
	<g>
		<g>
			<path class="st1" d="M86.8,51.5c3.2,0,3.2-5,0-5C83.6,46.5,83.6,51.5,86.8,51.5L86.8,51.5z"/>
		</g>
	</g>
	<g>
		<g>
			<path class="st1" d="M114,312c3.2,0,3.2-5,0-5C110.8,307,110.8,312,114,312L114,312z"/>
		</g>
	</g>
	<g>
		<g>
			<path class="st1" d="M85.3,367.3c3.2,0,3.2-5,0-5C82.1,362.3,82.1,367.3,85.3,367.3L85.3,367.3z"/>
		</g>
	</g>
	<g>
		<g>
			<path class="st1" d="M56,240.4c3.2,0,3.2-5,0-5C52.8,235.4,52.8,240.4,56,240.4L56,240.4z"/>
		</g>
	</g>
	<g>
		<g>
			<path class="st1" d="M62.1,544.4c3.2,0,3.2-5,0-5S58.8,544.4,62.1,544.4L62.1,544.4z"/>
		</g>
	</g>
	<g>
		<g>
			<path class="st1" d="M127.9,104.9c3.2,0,3.2-5,0-5C124.6,99.9,124.6,104.9,127.9,104.9L127.9,104.9z"/>
		</g>
	</g>
	<g>
		<g>
			<path class="st1" d="M82.6,414.7c3.2,0,3.2-5,0-5S79.4,414.7,82.6,414.7L82.6,414.7z"/>
		</g>
	</g>
	<g>
		<g>
			<path class="st1" d="M84.1,459.1c3.2,0,3.2-5,0-5S80.9,459.1,84.1,459.1L84.1,459.1z"/>
		</g>
	</g>
</g>
<path class="st2" d="M539.8,183.7L875.1,39c0.1,0,0.2-0.1,0.4-0.1l39.9-1.4c1.2,0,1.5,1.6,0.5,2L581.3,184.3
	c-0.1,0.1-0.2,0.1-0.4,0.1l-40.7,1.4C539.1,185.8,538.7,184.2,539.8,183.7z"/>
<path class="st2" d="M606.9,206.9l131.9-39.7c1.6-0.5,3.1,1,2.6,2.6l-13.5,47.8c-0.2,0.7-0.8,1.3-1.5,1.5l-85.7,20.6
	c-0.7,0.2-1.4,0-1.9-0.5l-32.7-28.7C604.9,209.4,605.3,207.4,606.9,206.9z"/>
<path class="st2" d="M629.8,314.5l-18.2,45.9c-0.8,2,0.6,4.3,2.8,4.6l441.5,65.3c1.7,0.2,3.3-0.6,3.9-2.1l20-47.1
	c0.9-2-0.5-4.3-2.8-4.7l-443.3-64.1C632.1,312.1,630.4,313,629.8,314.5z"/>
<path class="st2" d="M533.7,388H575c0.2,0,0.3,0,0.5,0.1l355.4,149.2c1.3,0.5,0.9,2.5-0.5,2.5H880c-0.2,0-0.3,0-0.5-0.1L533.2,390.5
	C531.9,389.9,532.3,388,533.7,388z"/>
<line class="st2" x1="568.4" y1="171.3" x2="611.5" y2="170.9"/>
<line class="st2" x1="679" y1="123.8" x2="716.1" y2="123.8"/>
<line class="st2" x1="770.3" y1="82.6" x2="817.4" y2="82.6"/>
<line class="st2" x1="658.2" y1="235.9" x2="674.5" y2="187.6"/>
<line class="st2" x1="675.3" y1="321.2" x2="658.6" y2="369.8"/>
<line class="st2" x1="810" y1="339" x2="791.8" y2="392.5"/>
<line class="st2" x1="953.3" y1="359.1" x2="932.9" y2="411.8"/>
<line class="st2" x1="638.2" y1="434.8" x2="685.6" y2="434"/>
<line class="st2" x1="760.2" y1="485.9" x2="813.9" y2="485.4"/>
<ellipse class="st3" cx="329.2" cy="288.2" rx="102.6" ry="132.9"/>
<path class="st4" d="M304,169.1c1.1-0.1,2.3-0.1,3.4-0.1c52.6,0,95.9,53.4,95.9,118.2S360,405.5,307.4,405.5c-2.2,0-4.4-0.1-6.6-0.3
	l-2.2-0.5l-175.8-77.6c-8.5-7.4-13.8-22-13.8-37.8c0-16.2,5.6-31.1,14.4-38.3l178.1-81.6L304,169.1z"/>
<path class="st5" d="M613.7,252.4h33.4c12.6,0,22.8,10.2,22.8,22.8v5.6c0,12.6-10.2,22.8-22.8,22.8h-33.4"/>
<path class="st4" d="M454.5,183.2h101.6c49.8,0,90.2,39.6,90.2,88.4v33.6c0,48.8-40.4,88.4-90.2,88.4H454.5"/>
<path class="st6" d="M404.3,155.8c47.2,5.8,83.9,63.8,83.9,132.6c0,71.6-39.9,131.1-89.2,133c0,0-67.7,3.7-72.2-3.3
	c47.2-5.7,83.9-63.8,83.9-130.3c0-66.6-37.4-126.1-84.6-131.8C326.1,156.1,349.2,150.7,404.3,155.8z"/>
</svg>
