<?xml version="1.0" encoding="utf-8"?>
<!-- Generator: Adobe Illustrator 27.3.1, SVG Export Plug-In . SVG Version: 6.00 Build 0)  -->
<svg version="1.1" id="Layer_1" xmlns="http://www.w3.org/2000/svg" xmlns:xlink="http://www.w3.org/1999/xlink" x="0px" y="0px"
	 viewBox="0 0 1944 144" style="enable-background:new 0 0 1944 144;" xml:space="preserve">
<style type="text/css">
	.st0{fill:#E4E4E3;stroke:#E4E4E3;stroke-miterlimit:10;}
	.st1{fill:#FFF1E7;}
	.st2{fill:#0D1A1C;}
	.st3{fill:#56B7CE;}
	.st4{fill:#AF4F26;}
	.st5{fill:#D4AC9F;stroke:#D4AC9F;stroke-miterlimit:10;}
	.st6{fill:#F3CEBD;stroke:#D4AC9F;stroke-miterlimit:10;}
	.st7{fill:#F16722;}
	.st8{fill:#F69656;}
	.st9{fill:#F8B384;}
	.st10{fill:#EDDFD7;stroke:#D6AD9C;stroke-width:0.25;stroke-miterlimit:10;}
	.st11{fill:#CEBAB2;stroke:#C1A69C;stroke-width:0.25;stroke-miterlimit:10;}
	.st12{fill:#1A130E;stroke:#000000;stroke-width:0.25;stroke-miterlimit:10;}
	.st13{fill:#D64827;stroke:#BA3A26;stroke-width:0.25;stroke-miterlimit:10;}
	.st14{fill:none;stroke:#2B190D;stroke-miterlimit:10;}
</style>
<g>
	<g>
		<path class="st0" d="M1512.7,70.9c3.2,0,3.2-5,0-5C1509.5,65.9,1509.5,70.9,1512.7,70.9L1512.7,70.9z"/>
	</g>
</g>
<g>
	<g>
		<path class="st1" d="M1312.3,34.1c3.2,0,3.2-5,0-5C1309.1,29.1,1309.1,34.1,1312.3,34.1L1312.3,34.1z"/>
	</g>
</g>
<g>
	<g>
		<path class="st1" d="M1072.2,28.5c3.2,0,3.2-5,0-5C1069,23.5,1068.9,28.5,1072.2,28.5L1072.2,28.5z"/>
	</g>
</g>
<g>
	<g>
		<path class="st0" d="M1898.9,28c3.2,0,3.2-5,0-5S1895.7,28,1898.9,28L1898.9,28z"/>
	</g>
</g>
<g>
	<g>
		<path class="st0" d="M1599.2,32.3c3.2,0,3.2-5,0-5S1596,32.3,1599.2,32.3L1599.2,32.3z"/>
	</g>
</g>
<g>
	<g>
		<path class="st1" d="M1817.8,62.2c3.2,0,3.2-5,0-5S1814.6,62.2,1817.8,62.2L1817.8,62.2z"/>
	</g>
</g>
<g>
	<g>
		<path class="st1" d="M1218.1,53c3.2,0,3.2-5,0-5S1214.9,53,1218.1,53L1218.1,53z"/>
	</g>
</g>
<g>
	<g>
		<path class="st0" d="M1357.7,51.5c3.2,0,3.2-5,0-5S1354.5,51.5,1357.7,51.5L1357.7,51.5z"/>
	</g>
</g>
<g>
	<g>
		<path class="st1" d="M1091.1,63.7c3.2,0,3.2-5,0-5C1087.9,58.7,1087.9,63.7,1091.1,63.7L1091.1,63.7z"/>
	</g>
</g>
<g>
	<g>
		<path class="st1" d="M965.5,57.6c3.2,0,3.2-5,0-5C962.3,52.6,962.3,57.6,965.5,57.6L965.5,57.6z"/>
	</g>
</g>
<g>
	<g>
		<path class="st0" d="M1504.8,42.3c3.2,0,3.2-5,0-5S1501.5,42.3,1504.8,42.3L1504.8,42.3z"/>
	</g>
</g>
<path class="st2" d="M1911.6,136.3H33.4c-14.5,0-26.3-11.8-26.3-26.3V38.8c0-14.5,11.8-26.3,26.3-26.3h1878.2
	c14.6,0,26.3,11.8,26.3,26.3v71.2C1937.9,124.5,1926.1,136.3,1911.6,136.3z"/>
<path class="st3" d="M201.8,135.7H441c24.5,0,49.1-0.4,73.6-1c20.4-0.5,40.8-0.7,61.1,0.9C539.6,68.7,469,23.3,387.9,23.3
	C306.7,23.3,236,68.8,200,135.8C200.6,135.7,201.2,135.7,201.8,135.7z"/>
<g>
	<path class="st4" d="M387.9,30.3c15.1,0,30.1,1.7,44.8,4.9l-24.1,93.4H212.6c17.2-27.7,40.7-51.1,68.6-68.2
		C313.4,40.8,350.3,30.3,387.9,30.3 M387.9,23.3c-80.5,0-151.3,45.7-187.6,112.4c0.5-0.1,1-0.1,1.4-0.1h212.3l27.2-105.6
		C423.9,25.6,405.9,23.3,387.9,23.3L387.9,23.3z"/>
</g>
<g>
	<g>
		<path class="st3" d="M432.5,92.3c0-0.1,0-0.3-0.1-0.4c0.1,0.7,0.2,1.3,0.3,2c-0.1-1.3-0.1-2.5,0-3.8c-0.1,0.7-0.2,1.3-0.3,2
			c0.7-5,3.2-9.6,4-14.5c0.5-3.3,0.6-6.5,0.5-9.8c-0.1-2.9-0.1-5.7,0.2-8.6c-0.1,0.7-0.2,1.3-0.3,2c0.4-3,1.3-5.9,2.4-8.7
			c-0.2,0.6-0.5,1.2-0.8,1.8c0.3-0.7,0.6-1.4,1-2.1c1.8-3.5,1-8.3-2.7-10.3c-3.4-1.8-8.4-1.1-10.3,2.7c-2.5,5.1-4,10.3-4.6,16
			c-0.5,4.8,0.3,9.7-0.3,14.5c0.1-0.7,0.2-1.3,0.3-2c-0.5,3.5-1.8,6.7-2.8,10.1c-0.5,1.6-0.9,3.3-1.2,4.9c-0.4,2.9-0.4,5.2,0,8.2
			c0.2,1.7,2,3.7,3.5,4.5c1.6,0.9,4,1.3,5.8,0.8c1.8-0.6,3.6-1.7,4.5-3.4C432.7,96.1,432.7,94.4,432.5,92.3L432.5,92.3z"/>
	</g>
</g>
<g>
	<path class="st4" d="M536.5,93.3c3.3,3.4,6.5,7,9.6,10.6c6.3,7.5,12.1,15.5,17.3,23.9c-7.3-0.3-15.1-0.5-23.5-0.5
		c-7.4,0-15.3,0.1-25.5,0.4c-3.7,0.1-7.4,0.2-11.2,0.3L536.5,93.3 M536.5,83.3l-50.1,51.9c9.4-0.2,18.8-0.4,28.2-0.6
		c8.4-0.2,16.9-0.4,25.3-0.4c12.1,0,24.1,0.3,36.1,1.3c-6.9-12.9-15.2-25-24.6-36.2C546.7,93.8,541.7,88.4,536.5,83.3L536.5,83.3z"
		/>
</g>
<g>
	<g>
		<path class="st3" d="M524.5,86c-6.3,6.4-12.3,13-18.6,19.4c-3.1,3.2-6.3,6.3-9.6,9.3c-1.7,1.5-3.4,3-5.1,4.4
			c-0.9,0.7-1.8,1.4-2.6,2.1c-0.4,0.3-2.2,1.4-0.3,0.2c-0.5,0.3-1,0.7-1.5,1.1c-1.6,1.2-2.9,2.4-3.5,4.5c-0.5,1.8-0.3,4.2,0.8,5.8
			c1,1.6,2.6,3,4.5,3.4c1.8,0.4,4.2,0.4,5.8-0.8c7.8-5.8,15-12.3,21.8-19.2c6.4-6.5,12.5-13.2,18.9-19.7c2.8-2.8,3-7.8,0-10.6
			C532.1,83.2,527.4,83,524.5,86L524.5,86z"/>
	</g>
</g>
<path class="st4" d="M574.8,135.4c-7-11.1-18.9-27.6-38.5-52.2c0,0,6.6,38.4-11.3,41.1c-5.6,0.8-6.8,5-6,10.2
	C537.6,134.1,556.2,134.1,574.8,135.4z"/>
<path class="st4" d="M441,135.7c3.1,0,6.2,0,9.3,0c0.2-0.7,0.3-1.5,0.5-2.2c3.9-23.2-4.8-28-4.8-28s0,0-13.5-12.6
	s-26.1,5.8-26.1,5.8s-5.8,25.1-35.7,27S357,71.6,357,71.6s18.4-13.5,49.2-16.4c30.9-2.9,42.5-24.1,42.5-24.1
	c-146-22.2-214.1,39.2-245.8,104.6H441z"/>
<path class="st5" d="M1718.4,67.9c0.1,0.1-14.3-3.4-17.6,9.3c-0.1,0.2-0.4,0.2-0.4-0.1C1700.2,73.4,1702.3,61,1718.4,67.9z"/>
<path class="st6" d="M1803.9,48.2c-48.1-17.8-101.4,6.3-119.1,54c-4.2,11.3-6,22.9-5.7,34.2c17.5-0.1,35.1-1.8,52.5,0h6.8
	c8.1-0.8,16.3-0.9,24.4-0.5c2.4,0,4.8-0.1,7.2,0c0.8,0,1.6-0.1,2.4-0.1c0.8-0.1,1.7-0.2,2.5-0.1c0.5,0,0.9,0,1.4,0.1
	c10.4-0.2,20.8-0.3,31.2,0.5c10.1-0.5,20.1,0.5,30.2,0.1c9-0.3,18-1.1,26.9-0.2C1865.1,98.2,1841.8,62.3,1803.9,48.2z"/>
<path class="st5" d="M1730.3,119.4c9.6-7.4,28.3-16.9,47.1,2c0.7,0.7,1.8-0.2,1.2-1c-9.9-12.8-28-27.2-49.4-2.1
	C1728.6,119,1729.6,120,1730.3,119.4z"/>
<path class="st5" d="M1812.4,82.1c0,0,4.1-3.4,8.7,0.8C1821.1,82.8,1819.1,76.2,1812.4,82.1z"/>
<path class="st5" d="M1813,89.2c0,0,3.2,4.3,8.8-1.2c0.1-0.1,0.2,0,0.2,0.1C1821.1,89.9,1817.3,96,1813,89.2z"/>
<path class="st5" d="M1812.8,118.5c3.1-4.4,11.7-13.6,26.3-3.3c0,0-18.9-19.3-26.9,3C1812.2,118.6,1812.7,118.8,1812.8,118.5z"/>
<path class="st5" d="M1819.4,133.6c1.7,1.2,3.2,2.1,4.7,2.7c3.8,0.1,7.5,0.2,11.3,0.1c4.2-2.6,6-8.2,6.7-11c0.1-0.2-0.3-0.4-0.4-0.2
	c-5.7,10.6-17.1,8.9-21.9,7.6C1819.3,132.8,1819,133.3,1819.4,133.6z"/>
<path class="st5" d="M1752.1,117.1c1.2-1.5,4.8-4.8,10.3,0.8c0.1,0.1,0,0.3-0.2,0.2c-1.9-1.1-6.3-3.2-10-0.8
	C1752.1,117.4,1752,117.2,1752.1,117.1z"/>
<path class="st5" d="M1752.4,126.4c1.7,0.9,5.6,2.5,9.1,0.2c0.2-0.1,0.4,0.1,0.3,0.2c-1.2,1.8-4.7,5.7-9.7-0.2
	C1752,126.5,1752.2,126.3,1752.4,126.4z"/>
<path class="st5" d="M1702.4,135.1c1.3-1,4.4-2.5,9.2-0.1c0.2,0.1,0.4-0.1,0.2-0.2c-2.1-1.7-6.9-4.8-9.7,0.2
	C1702,135,1702.3,135.2,1702.4,135.1z"/>
<path class="st5" d="M1787.9,56.1c0,0-4.7-0.8-2.7-3.9C1785.2,52.2,1779.8,54.8,1787.9,56.1z"/>
<path class="st5" d="M1794.2,54c0,0,2.7-2.5-4.5-3.4c-0.1,0-0.1-0.1,0-0.1C1791.7,50.3,1798.7,50.3,1794.2,54z"/>
<path class="st5" d="M1741.9,72.5c2.3-1.6,8.8-4.8,16.9,1.5c0.1,0.1,0.2,0,0.1-0.1c-2-2.5-10.2-11.4-17.3-1.7
	C1741.5,72.4,1741.7,72.6,1741.9,72.5z"/>
<path class="st5" d="M1742.7,86.6c-0.1-0.1-0.3,0.1-0.2,0.2c2.3,2.4,10.9,9.9,17.7-4.1C1760.2,82.7,1754.6,93.7,1742.7,86.6z"/>
<path class="st5" d="M1718,73.8c-1.1,3.6-4.7,11-16.2,6.1c-0.2-0.1-0.1-0.3,0.1-0.3c2.8,0.3,10.7,0.4,15.6-6.1
	C1717.6,73.2,1718.1,73.4,1718,73.8z"/>
<path class="st7" d="M1071.7,53.3c0,0-0.4-0.2-1.2-0.5c-5.5-2.5-29.2-12.5-44.9-10c-1.6,0.3-2.2,2.2-1.1,3.4l0,0
	c1.3,1.4,0.2,3.7-1.7,3.4c-10.2-1.5-30.9-3.1-45.2,5.6c-1.1,0.6-1.3,2.1-0.5,3l1.8,2.1c0.9,1.1,0.5,2.7-0.8,3.2
	c-7,2.5-25.2,9.8-28.2,17.1c-3.9,9.3,29.5,15,38.9,15.2c1.2,0,2.1,1.2,1.9,2.4l-0.6,3c-0.2,1.1,0.5,2.2,1.7,2.3
	c4.9,0.8,17.9,2.6,30.2,2.5c1.7,0,2.6,2,1.5,3.3l-0.2,0.2c-1.2,1.4-0.1,3.4,1.7,3.3c8.1-0.8,25.9-4.2,47.5-18.8L1071.7,53.3z"/>
<path class="st8" d="M1072.1,83.5c-10.4,9-33,13.8-41.6,15.4c-1.1,0.2-1.9-1.1-1.1-2l0,0c0.7-0.8,0.1-2-0.9-2
	c-12.2,0.4-17.5-0.9-19.4-1.7c-0.5-0.2-0.9-0.8-0.7-1.4l0.3-1.2c0.2-0.7-0.3-1.3-1-1.4c-16-2.2-20.7-3.9-22.8-8
	c-1.8-3.4,11.5-9.4,16.6-11.5c0.8-0.3,1-1.5,0.3-2l-1.3-1c-0.6-0.5-0.6-1.5,0-1.9c9.1-6.2,21.9-4.9,28.5-3.6c1.2,0.2,1.9-1.2,1.1-2
	l-0.9-0.8c-0.7-0.7-0.3-2,0.7-2c17.3-1.2,42.1,9.8,42.1,9.8L1072.1,83.5z"/>
<path class="st9" d="M1071.6,79.8c-3.3,3.1-15.7,5.6-20,6.4c-0.5,0.1-0.8-0.5-0.4-0.8l0,0c0.3-0.3,0-0.9-0.4-0.8
	c-4.4,0.5-7.7,0.1-8.9-0.2c-0.3-0.1-0.5-0.4-0.4-0.7l0.3-0.6c0.1-0.3-0.1-0.7-0.4-0.7c-7.7-0.4-10.7-1.7-11.8-3.2
	c-0.9-1.3,5.8-4.2,8.1-5.2c0.3-0.1,0.4-0.6,0.1-0.8l-0.7-0.6c-0.2-0.2-0.2-0.5,0-0.7c2.4-2.3,10.2-2.2,13.5-2.1
	c0.5,0,0.7-0.6,0.3-0.9l0,0c-0.3-0.3-0.1-0.8,0.3-0.9c7.5-0.7,18,2.9,19.9,3.6c0.2,0.1,0.3,0.2,0.3,0.4l0.4,7.2
	C1071.8,79.6,1071.7,79.7,1071.6,79.8z"/>
<path class="st10" d="M1221.8,71.4c-74.1-71.1-134.8-15.5-134.8-15.5l0.5,34.7c0,0,62.2,54,134.4-19.1"/>
<circle class="st11" cx="1155" cy="72.4" r="19.6"/>
<circle class="st12" cx="1155.3" cy="72.4" r="14.9"/>
<polyline class="st12" points="1086.9,56.1 1071.8,49.6 1072.4,97.7 1087.4,90.8 "/>
<path class="st13" d="M1164.3,37.5c0,0-30.8-29.5-75.3-9.4l18.2,15.2c17-8.8,36.2-10.6,56.7-6"/>
<path class="st13" d="M1165.2,106.5c0,0-30,30.3-75,11.4l17.8-15.7c17.2,8.3,36.5,9.6,56.8,4.5"/>
<g>
	<g>
		<path class="st0" d="M1221.3,32.4c3.2,0,3.2-5,0-5C1218.1,27.4,1218.1,32.4,1221.3,32.4L1221.3,32.4z"/>
	</g>
</g>
<g>
	<g>
		<path class="st0" d="M810.3,44.6c3.2,0,3.2-5,0-5C807,39.6,807,44.6,810.3,44.6L810.3,44.6z"/>
	</g>
</g>
<g>
	<g>
		<path class="st0" d="M608.8,90.4c3.2,0,3.2-5,0-5C605.6,85.4,605.6,90.4,608.8,90.4L608.8,90.4z"/>
	</g>
</g>
<g>
	<g>
		<path class="st0" d="M825.6,102.8c3.2,0,3.2-5,0-5C822.4,97.8,822.4,102.8,825.6,102.8L825.6,102.8z"/>
	</g>
</g>
<g>
	<g>
		<path class="st0" d="M776.6,141c3.2,0,3.2-5,0-5S773.3,141,776.6,141L776.6,141z"/>
	</g>
</g>
<g>
	<g>
		<path class="st0" d="M116.4,23.8c3.2,0,3.2-5,0-5S113.2,23.8,116.4,23.8L116.4,23.8z"/>
	</g>
</g>
<g>
	<g>
		<path class="st0" d="M212.8,17c3.2,0,3.2-5,0-5S209.6,17,212.8,17L212.8,17z"/>
	</g>
</g>
<g>
	<g>
		<path class="st0" d="M1838.9,29.8c3.2,0,3.2-5,0-5S1835.7,29.8,1838.9,29.8L1838.9,29.8z"/>
	</g>
</g>
<g>
	<g>
		<path class="st0" d="M762.9,95.8c3.2,0,3.2-5,0-5C759.7,90.8,759.7,95.8,762.9,95.8L762.9,95.8z"/>
	</g>
</g>
<g>
	<g>
		<path class="st0" d="M545.8,63.5c3.2,0,3.2-5,0-5C542.5,58.5,542.5,63.5,545.8,63.5L545.8,63.5z"/>
	</g>
</g>
<g>
	<g>
		<path class="st0" d="M1072.2,133.3c3.2,0,3.2-5,0-5S1069,133.3,1072.2,133.3L1072.2,133.3z"/>
	</g>
</g>
<g>
	<g>
		<path class="st0" d="M351.2,20.6c3.2,0,3.2-5,0-5S348,20.6,351.2,20.6L351.2,20.6z"/>
	</g>
</g>
<g>
	<g>
		<path class="st0" d="M45,116.6c3.2,0,3.2-5,0-5S41.8,116.6,45,116.6L45,116.6z"/>
	</g>
</g>
<g>
	<g>
		<path class="st0" d="M634.6,42c3.2,0,3.2-5,0-5C631.4,37,631.4,42,634.6,42L634.6,42z"/>
	</g>
</g>
<g>
	<g>
		<path class="st0" d="M737.2,49.7c3.2,0,3.2-5,0-5C734,44.7,734,49.7,737.2,49.7L737.2,49.7z"/>
	</g>
</g>
<g>
	<g>
		<path class="st0" d="M522.2,34.1c3.2,0,3.2-5,0-5C519,29.1,519,34.1,522.2,34.1L522.2,34.1z"/>
	</g>
</g>
<g>
	<g>
		<path class="st0" d="M694,88.8c3.2,0,3.2-5,0-5S690.8,88.8,694,88.8L694,88.8z"/>
	</g>
</g>
<g>
	<g>
		<path class="st0" d="M209.9,68.3c3.2,0,3.2-5,0-5C206.7,63.3,206.7,68.3,209.9,68.3L209.9,68.3z"/>
	</g>
</g>
<g>
	<g>
		<path class="st0" d="M644.2,118.3c3.2,0,3.2-5,0-5S640.9,118.3,644.2,118.3L644.2,118.3z"/>
	</g>
</g>
<g>
	<g>
		<path class="st0" d="M176.6,135.5c3.2,0,3.2-5,0-5S173.3,135.5,176.6,135.5L176.6,135.5z"/>
	</g>
</g>
<g>
	<g>
		<path class="st0" d="M113.8,71.1c3.2,0,3.2-5,0-5C110.5,66.1,110.5,71.1,113.8,71.1L113.8,71.1z"/>
	</g>
</g>
<g>
	<g>
		<path class="st0" d="M115.3,115.6c3.2,0,3.2-5,0-5S112.1,115.6,115.3,115.6L115.3,115.6z"/>
	</g>
</g>
<g>
	<g>
		<path class="st0" d="M287.1,28.9c3.2,0,3.2-5,0-5S283.9,28.9,287.1,28.9L287.1,28.9z"/>
	</g>
</g>
<g>
	<g>
		<path class="st0" d="M1459.1,122c3.2,0,3.2-5,0-5C1455.9,117,1455.9,122,1459.1,122L1459.1,122z"/>
	</g>
</g>
<g>
	<g>
		<path class="st0" d="M910.7,44.6c3.2,0,3.2-5,0-5C907.5,39.6,907.5,44.6,910.7,44.6L910.7,44.6z"/>
	</g>
</g>
<g>
	<g>
		<path class="st0" d="M870.5,62.2c3.2,0,3.2-5,0-5C867.3,57.2,867.2,62.2,870.5,62.2L870.5,62.2z"/>
	</g>
</g>
<g>
	<g>
		<path class="st0" d="M895.4,102.8c3.2,0,3.2-5,0-5S892.2,102.8,895.4,102.8L895.4,102.8z"/>
	</g>
</g>
<g>
	<g>
		<path class="st1" d="M944.4,141c3.2,0,3.2-5,0-5C941.2,136,941.2,141,944.4,141L944.4,141z"/>
	</g>
</g>
<g>
	<g>
		<path class="st0" d="M1477.5,50.7c3.2,0,3.2-5,0-5S1474.3,50.7,1477.5,50.7L1477.5,50.7z"/>
	</g>
</g>
<g>
	<g>
		<path class="st0" d="M1604.5,23.8c3.2,0,3.2-5,0-5S1601.3,23.8,1604.5,23.8L1604.5,23.8z"/>
	</g>
</g>
<g>
	<g>
		<path class="st0" d="M1508.1,17c3.2,0,3.2-5,0-5S1504.9,17,1508.1,17L1508.1,17z"/>
	</g>
</g>
<g>
	<g>
		<path class="st0" d="M1364.1,97.5c3.2,0,3.2-5,0-5S1360.9,97.5,1364.1,97.5L1364.1,97.5z"/>
	</g>
</g>
<g>
	<g>
		<path class="st0" d="M958.1,95.8c3.2,0,3.2-5,0-5C954.8,90.8,954.8,95.8,958.1,95.8L958.1,95.8z"/>
	</g>
</g>
<g>
	<g>
		<path class="st0" d="M1398.5,66.6c3.2,0,3.2-5,0-5C1395.3,61.6,1395.3,66.6,1398.5,66.6L1398.5,66.6z"/>
	</g>
</g>
<g>
	<g>
		<path class="st0" d="M1294.7,43.6c3.2,0,3.2-5,0-5S1291.5,43.6,1294.7,43.6L1294.7,43.6z"/>
	</g>
</g>
<g>
	<g>
		<path class="st0" d="M1369.8,20.6c3.2,0,3.2-5,0-5C1366.5,15.6,1366.5,20.6,1369.8,20.6L1369.8,20.6z"/>
	</g>
</g>
<g>
	<g>
		<path class="st1" d="M1115.2,141.6c3.2,0,3.2-5,0-5C1112,136.6,1112,141.6,1115.2,141.6L1115.2,141.6z"/>
	</g>
</g>
<g>
	<g>
		<path class="st0" d="M1086.3,42c3.2,0,3.2-5,0-5S1083.1,42,1086.3,42L1086.3,42z"/>
	</g>
</g>
<g>
	<g>
		<path class="st0" d="M983.7,49.7c3.2,0,3.2-5,0-5C980.5,44.7,980.5,49.7,983.7,49.7L983.7,49.7z"/>
	</g>
</g>
<g>
	<g>
		<path class="st0" d="M1176.7,129.3c3.2,0,3.2-5,0-5S1173.5,129.3,1176.7,129.3L1176.7,129.3z"/>
	</g>
</g>
<g>
	<g>
		<path class="st0" d="M1307.7,115.1c3.2,0,3.2-5,0-5C1304.4,110.1,1304.4,115.1,1307.7,115.1L1307.7,115.1z"/>
	</g>
</g>
<g>
	<g>
		<path class="st0" d="M1238,83.4c3.2,0,3.2-5,0-5S1234.8,83.4,1238,83.4L1238,83.4z"/>
	</g>
</g>
<g>
	<g>
		<path class="st0" d="M1544.4,135.5c3.2,0,3.2-5,0-5S1541.2,135.5,1544.4,135.5L1544.4,135.5z"/>
	</g>
</g>
<g>
	<g>
		<path class="st0" d="M1607.2,71.1c3.2,0,3.2-5,0-5S1604,71.1,1607.2,71.1L1607.2,71.1z"/>
	</g>
</g>
<g>
	<g>
		<path class="st0" d="M1605.7,115.6c3.2,0,3.2-5,0-5C1602.4,110.6,1602.4,115.6,1605.7,115.6L1605.7,115.6z"/>
	</g>
</g>
<g>
	<g>
		<path class="st0" d="M1650.3,32c3.2,0,3.2-5,0-5C1647.1,27,1647,32,1650.3,32L1650.3,32z"/>
	</g>
</g>
<g>
	<g>
		<path class="st0" d="M1678,111.3c3.2,0,3.2-5,0-5S1674.8,111.3,1678,111.3L1678,111.3z"/>
	</g>
</g>
<g>
	<g>
		<path class="st0" d="M1917,59.6c3.2,0,3.2-5,0-5S1913.7,59.6,1917,59.6L1917,59.6z"/>
	</g>
</g>
<g>
	<g>
		<path class="st0" d="M1883.1,19.7c3.2,0,3.2-5,0-5C1879.9,14.7,1879.9,19.7,1883.1,19.7L1883.1,19.7z"/>
	</g>
</g>
<g>
	<g>
		<path class="st0" d="M1920.6,118.3c3.2,0,3.2-5,0-5S1917.4,118.3,1920.6,118.3L1920.6,118.3z"/>
	</g>
</g>
<g>
	<g>
		<path class="st0" d="M1881.6,92.7c3.2,0,3.2-5,0-5S1878.4,92.7,1881.6,92.7L1881.6,92.7z"/>
	</g>
</g>
<g>
	<g>
		<path class="st0" d="M1541.5,80.6c3.2,0,3.2-5,0-5S1538.3,80.6,1541.5,80.6L1541.5,80.6z"/>
	</g>
</g>
<g>
	<g>
		<path class="st0" d="M1719,57.8c3.2,0,3.2-5,0-5S1715.8,57.8,1719,57.8L1719,57.8z"/>
	</g>
</g>
<g>
	<g>
		<path class="st0" d="M1746.8,28c3.2,0,3.2-5,0-5C1743.6,23,1743.6,28,1746.8,28L1746.8,28z"/>
	</g>
</g>
<g>
	<g>
		<path class="st0" d="M56.3,29.8c3.2,0,3.2-5,0-5S53.1,29.8,56.3,29.8L56.3,29.8z"/>
	</g>
</g>
<g>
	<g>
		<path class="st0" d="M57.8,74.2c3.2,0,3.2-5,0-5S54.6,74.2,57.8,74.2L57.8,74.2z"/>
	</g>
</g>
<path class="st14" d="M1911.6,136.3H33.4c-14.5,0-26.3-11.8-26.3-26.3V38.8c0-14.5,11.8-26.3,26.3-26.3h1878.2
	c14.6,0,26.3,11.8,26.3,26.3v71.2C1937.9,124.5,1926.1,136.3,1911.6,136.3z"/>
</svg>
