<?xml version="1.0" encoding="utf-8"?>
<!-- Generator: Adobe Illustrator 27.3.1, SVG Export Plug-In . SVG Version: 6.00 Build 0)  -->
<svg version="1.1" id="Layer_1" xmlns="http://www.w3.org/2000/svg" xmlns:xlink="http://www.w3.org/1999/xlink" x="0px" y="0px"
	 viewBox="0 0 324 324" style="enable-background:new 0 0 324 324;" xml:space="preserve">
<style type="text/css">
	.st0{fill:none;}
	.st1{fill:none;stroke:#984C1E;stroke-width:5;stroke-miterlimit:10;}
	.st2{fill:#C98372;stroke:#984D23;stroke-width:5;stroke-miterlimit:10;}
	.st3{fill:#F9A360;stroke:#3E1D0D;stroke-width:8;stroke-miterlimit:10;}
	.st4{fill:#3E1D0D;stroke:#3E1D0D;stroke-linecap:round;stroke-linejoin:round;stroke-miterlimit:10;}
	.st5{fill:#3E1D0D;stroke:#3E1D0D;stroke-width:8;stroke-linecap:round;stroke-linejoin:round;stroke-miterlimit:10;}
	.st6{fill:#CFDEE2;stroke:#9ACCD8;stroke-width:5;stroke-miterlimit:10;}
	.st7{fill:#F69656;stroke:#19100A;stroke-width:8;stroke-miterlimit:10;}
	.st8{fill:#19100A;}
	.st9{fill:#19100A;stroke:#19100A;stroke-width:8;stroke-miterlimit:10;}
</style>
<rect x="72.2" y="1712.8" class="st0" width="288" height="288"/>
<path class="st1" d="M344.5,2000.8H87.8c-8.6,0-15.6-7-15.6-15.6v-256.8c0-8.6,7-15.6,15.6-15.6h256.8c8.6,0,15.6,7,15.6,15.6v256.8
	C360.2,1993.8,353.2,2000.8,344.5,2000.8z"/>
<path class="st2" d="M345,2000.8H88.3c-8.6,0-15.6-7-15.6-15.6v-256.8c0-8.6,7-15.6,15.6-15.6H345c8.6,0,15.6,7,15.6,15.6v256.8
	C360.6,1993.8,353.6,2000.8,345,2000.8z"/>
<circle class="st3" cx="216.6" cy="1854.6" r="124.7"/>
<path class="st4" d="M104.9,1857.1l75.9,1.1c0.8,0,1.4-0.6,1.4-1.4c-0.1-18.8,14.4-31.5,18.1-34.5c0.5-0.4,0.7-1.1,0.4-1.7
	l-33.2-67.4c-0.3-0.7-1.2-1-1.9-0.6c-8.9,4.4-62.7,33.9-62.2,103.2C103.5,1856.4,104.2,1857.1,104.9,1857.1z"/>
<path class="st4" d="M262.5,1750.7l-30.5,69.8c-0.3,0.8,0,1.7,0.7,2.1c4.4,2.4,18.6,11.3,22.7,31c0.2,0.8,0.8,1.3,1.6,1.3l73.5-1.8
	c0.9,0,1.6-0.8,1.6-1.7c-0.2-10.8-4.3-73.2-67.4-101.7C263.8,1749.5,262.9,1749.9,262.5,1750.7z"/>
<ellipse class="st5" cx="218.2" cy="1854.9" rx="16.5" ry="17.4"/>
<path class="st4" d="M282.7,1948.2l-41.6-66.3c-20.4,11.7-41.1,2-41.1,2l-42,67.5C157.9,1951.5,216.5,1992.7,282.7,1948.2z"/>
<path class="st6" d="M290.7,306.2H33.9c-8.6,0-15.6-7-15.6-15.6V33.8c0-8.6,7-15.6,15.6-15.6h256.8c8.6,0,15.6,7,15.6,15.6v256.8
	C306.3,299.2,299.3,306.2,290.7,306.2z"/>
<circle class="st7" cx="162.3" cy="160" r="124.7"/>
<path class="st8" d="M50.6,162.5l75.9,1.1c0.8,0,1.4-0.6,1.4-1.4c-0.1-18.8,14.4-31.5,18.1-34.5c0.5-0.4,0.7-1.1,0.4-1.7l-33.2-67.4
	c-0.3-0.7-1.2-1-1.8-0.6c-8.9,4.4-62.7,33.9-62.2,103.2C49.2,161.9,49.8,162.5,50.6,162.5z"/>
<path class="st8" d="M208.1,56.2L177.6,126c-0.3,0.8,0,1.7,0.7,2.1c4.4,2.4,18.6,11.3,22.7,31c0.2,0.8,0.8,1.3,1.6,1.3l73.4-1.8
	c0.9,0,1.6-0.8,1.6-1.7c-0.2-10.8-4.3-73.2-67.4-101.7C209.5,55,208.5,55.3,208.1,56.2z"/>
<ellipse class="st9" cx="163.8" cy="160.3" rx="16.5" ry="17.4"/>
<path class="st8" d="M228.3,253.6l-41.6-66.3c-20.4,11.7-41.1,2-41.1,2l-42,67.5C103.6,256.9,162.2,298.2,228.3,253.6z"/>
</svg>
