<?xml version="1.0" encoding="utf-8"?>
<!-- Generator: Adobe Illustrator 27.3.1, SVG Export Plug-In . SVG Version: 6.00 Build 0)  -->
<svg version="1.1" id="Layer_1" xmlns="http://www.w3.org/2000/svg" xmlns:xlink="http://www.w3.org/1999/xlink" x="0px" y="0px"
	 viewBox="0 0 792 792" style="enable-background:new 0 0 792 792;" xml:space="preserve">
<style type="text/css">
	.st0{fill:#EEE0D8;stroke:#D7AF9D;stroke-width:3;stroke-miterlimit:10;}
	.st1{fill:#CEBBB3;stroke:#C2A79D;stroke-width:4;stroke-miterlimit:10;}
	.st2{fill:#1B140F;stroke:#000000;stroke-width:3;stroke-miterlimit:10;}
	.st3{fill:#D74928;stroke:#BB3B26;stroke-width:3;stroke-miterlimit:10;}
	.st4{fill:none;stroke:#1B140F;stroke-width:10;stroke-miterlimit:10;}
</style>
<path class="st0" d="M384.12,131.02C77.74,442,310.59,703.45,310.59,703.45h147.56c0,0,232.85-261.45-73.53-572.43"/>
<circle class="st1" cx="384.72" cy="414.72" r="83.11"/>
<circle class="st2" cx="384.72" cy="413.57" r="63.57"/>
<polyline class="st2" points="311.59,703.45 282.9,767.51 487.59,767.51 458.9,703.45 "/>
<path class="st3" d="M236.79,373.51c0,0-126.96,129.22-44.18,319.4l65.62-76.6c-36.34-72.65-42.87-154.64-22.26-241.44"/>
<path class="st3" d="M530.04,373.51c0,0,126.96,129.22,44.18,319.4l-65.62-76.6c36.34-72.65,42.87-154.64,22.26-241.44"/>
<path class="st4" d="M703.38,27.74h-82.72c-3.25,0-5.89,2.64-5.89,5.89v725.4c0,3.25,2.64,5.89,5.89,5.89h82.72
	c3.25,0,5.89-2.64,5.89-5.89V33.64C709.27,30.38,706.63,27.74,703.38,27.74z"/>
<path class="st4" d="M123.27,33.44v82.72c0,3.25,2.64,5.89,5.89,5.89h573.81c3.25,0,5.89-2.64,5.89-5.89V33.44
	c0-3.25-2.64-5.89-5.89-5.89H129.16C125.91,27.55,123.27,30.19,123.27,33.44z"/>
<line class="st4" x1="614.02" y1="26.21" x2="710.53" y2="122.72"/>
<line class="st4" x1="710.53" y1="26.21" x2="614.02" y2="122.72"/>
<line class="st4" x1="614.02" y1="120.21" x2="710.53" y2="216.72"/>
<line class="st4" x1="710.53" y1="120.21" x2="614.02" y2="216.72"/>
<line class="st4" x1="614.02" y1="220.21" x2="710.53" y2="316.72"/>
<line class="st4" x1="710.53" y1="220.21" x2="614.02" y2="316.72"/>
<line class="st4" x1="614.02" y1="314.21" x2="710.53" y2="410.72"/>
<line class="st4" x1="710.53" y1="314.21" x2="614.02" y2="410.72"/>
<line class="st4" x1="614.02" y1="414.21" x2="710.53" y2="510.72"/>
<line class="st4" x1="710.53" y1="414.21" x2="614.02" y2="510.72"/>
<line class="st4" x1="614.02" y1="515.21" x2="710.53" y2="611.72"/>
<line class="st4" x1="710.53" y1="515.21" x2="614.02" y2="611.72"/>
<line class="st4" x1="614.02" y1="615.21" x2="710.53" y2="711.72"/>
<line class="st4" x1="710.53" y1="615.21" x2="614.02" y2="711.72"/>
<line class="st4" x1="614.02" y1="709.21" x2="670.46" y2="765.66"/>
<line class="st4" x1="710.53" y1="709.21" x2="654.48" y2="765.25"/>
<line class="st4" x1="614.4" y1="25.72" x2="517.89" y2="122.23"/>
<line class="st4" x1="614.4" y1="122.23" x2="517.89" y2="25.72"/>
<line class="st4" x1="514.4" y1="25.72" x2="417.89" y2="122.23"/>
<line class="st4" x1="514.4" y1="122.23" x2="417.89" y2="25.72"/>
<line class="st4" x1="420.4" y1="25.72" x2="323.89" y2="122.23"/>
<line class="st4" x1="420.4" y1="122.23" x2="323.89" y2="25.72"/>
<line class="st4" x1="320.4" y1="25.72" x2="223.89" y2="122.23"/>
<line class="st4" x1="320.4" y1="122.23" x2="223.89" y2="25.72"/>
<line class="st4" x1="219.4" y1="25.72" x2="122.89" y2="122.23"/>
<line class="st4" x1="219.4" y1="122.23" x2="122.89" y2="25.72"/>
</svg>
