<?xml version="1.0" encoding="utf-8"?>
<!-- Generator: Adobe Illustrator 27.3.1, SVG Export Plug-In . SVG Version: 6.00 Build 0)  -->
<svg version="1.1" id="Layer_1" xmlns="http://www.w3.org/2000/svg" xmlns:xlink="http://www.w3.org/1999/xlink" x="0px" y="0px"
	 viewBox="0 0 324 324" style="enable-background:new 0 0 324 324;" xml:space="preserve">
<style type="text/css">
	.st0{fill:#3D7B89;stroke:#1D4149;stroke-width:5;stroke-miterlimit:10;}
	.st1{fill:#703616;stroke:#582807;stroke-width:2;stroke-linecap:round;stroke-linejoin:round;stroke-miterlimit:10;}
	.st2{fill:#EA8039;stroke:#CD6028;stroke-width:0.5;stroke-miterlimit:10;}
	.st3{fill:none;stroke:#000000;stroke-miterlimit:10;}
	.st4{fill:#EFE8CC;}
	.st5{fill:#D74727;stroke:#BA3A26;stroke-width:0.5;stroke-miterlimit:10;}
	.st6{fill:#EFE8CC;stroke:#B1AE9C;stroke-width:0.5;stroke-miterlimit:10;}
	.st7{fill:none;stroke:#A8A694;stroke-width:0.5;stroke-miterlimit:10;}
	.st8{fill:#EDE0D8;stroke:#D7AE9D;stroke-width:0.5;stroke-miterlimit:10;}
	.st9{fill:#DC7038;stroke:#AA5626;stroke-width:0.5;stroke-miterlimit:10;}
	.st10{fill:#D23C27;stroke:#A53A23;stroke-width:0.5;stroke-miterlimit:10;}
	.st11{fill:none;stroke:#B1AE9C;stroke-width:0.5;stroke-linecap:round;stroke-linejoin:round;stroke-miterlimit:10;}
	.st12{fill:#EFE8CC;stroke:#B5956A;stroke-width:0.5;stroke-miterlimit:10;}
	.st13{fill:#EFE8CC;stroke:#B5956A;stroke-width:0.5;stroke-linecap:round;stroke-linejoin:round;stroke-miterlimit:10;}
	.st14{fill:none;stroke:#A53A23;stroke-width:0.5;stroke-miterlimit:10;}
	.st15{fill:#D23D27;stroke:#B5956A;stroke-width:0.5;stroke-miterlimit:10;}
	.st16{fill:none;stroke:#BA3A26;stroke-width:0.5;stroke-miterlimit:10;}
	.st17{fill:#1D4149;stroke:#11292D;stroke-width:2;stroke-linecap:round;stroke-linejoin:round;stroke-miterlimit:10;}
	.st18{fill:none;stroke:#214144;stroke-width:2;stroke-linecap:round;stroke-linejoin:round;stroke-miterlimit:10;}
	.st19{fill:#2C6069;stroke:#214B50;stroke-width:0.5;stroke-miterlimit:10;}
	.st20{fill:none;stroke:#9BC8CD;stroke-linecap:round;stroke-miterlimit:10;}
	.st21{fill:#D2DFE1;stroke:#B9D6D8;stroke-width:0.5;stroke-miterlimit:10;}
	.st22{fill:#D74727;stroke:#BA3A26;stroke-miterlimit:10;}
	.st23{fill:none;stroke:#F8B384;stroke-width:3;stroke-linecap:round;stroke-linejoin:round;stroke-miterlimit:10;}
	.st24{fill:#EEE7CB;stroke:#B1AE9B;stroke-miterlimit:10;}
	.st25{fill:#EEE7CB;}
	.st26{fill:#ECDED8;stroke:#CEBAB2;stroke-width:0.5;stroke-miterlimit:10;}
	.st27{fill:none;stroke:#A8A594;stroke-miterlimit:10;}
	.st28{fill:#19100A;}
	.st29{fill:#0D1A1C;stroke:#74CDE1;stroke-miterlimit:10;}
	.st30{fill:none;stroke:#74CDE1;stroke-linecap:round;stroke-linejoin:round;stroke-miterlimit:10;}
	.st31{fill:#B2D5DD;stroke:#7CAEB4;stroke-width:0.75;stroke-linecap:round;stroke-miterlimit:10;}
	.st32{fill:#0D1A1C;stroke:#7CAEB4;stroke-linecap:round;stroke-miterlimit:10;}
	.st33{fill:#B2D5DD;stroke:#7CAEB4;stroke-linecap:round;stroke-miterlimit:10;}
</style>
<path class="st0" d="M290.4,306.2H33.7c-8.6,0-15.6-7-15.6-15.6V33.8c0-8.6,7-15.6,15.6-15.6h256.8c8.6,0,15.6,7,15.6,15.6v256.8
	C306,299.2,299,306.2,290.4,306.2z"/>
<path class="st1" d="M134.6,260.7c8.3,16.8-2.6,29.1-9,34.5c-1.2,1-0.4,2.9,1.1,2.9l67.6-0.4l0.8,0c1.5,0,2.2-1.9,1-2.9
	c-6.5-5.2-17.7-17.3-9.9-34.2"/>
<path class="st1" d="M113.4,260.2c-7.7,1.6-15.2-3.4-16.8-11L65.4,98.5c-1.6-7.7,3.3-15.2,11-16.8L88,79.3c7.7-1.6,15.2,3.3,16.8,11
	L136,241"/>
<path class="st1" d="M111.7,220.2h104.5c8.5,0,15.4,6.4,15.4,14.2v11.8c0,7.9-6.9,14.2-15.4,14.2H111.7"/>
<path class="st2" d="M180.2,226.2c0,0-39.5,0.5-42.4-10.2c-2.9-10.7,38.1-9.2,38.1-9.2l15.5,13.8L180.2,226.2z"/>
<path class="st3" d="M150.9,265.2"/>
<path class="st3" d="M206.1,296.2"/>
<path class="st4" d="M179.4,68.7"/>
<path class="st5" d="M138.8,90.1c-0.9,0.4,0.7-2.4,0.7-2.4s-0.6-2.9,0.3-6.2c0.8-3.4,12.6-0.9,12.6-0.9S184,89,181,92.3l-3.1,5.2
	c0,0-0.1,0.9-2.9-0.9C172.1,94.7,147.6,85.8,138.8,90.1z"/>
<polyline class="st2" points="173.1,91.8 145.4,84.8 145,81.6 171.6,79.8 171.8,81.1 173.1,91.8 "/>
<path class="st6" d="M159.2,72.6"/>
<path class="st7" d="M156.3,41.3"/>
<path class="st7" d="M156.3,41.3"/>
<path class="st4" d="M186.1,67.8"/>
<path class="st8" d="M268.4,277.5c0.8-0.6,1.7-1,2.7-1.4c3-1,6.4-0.9,6.4-0.9c6.1-0.1,11.6,3.2,13.9,8.3c0,0,4,13.5-5.2,13.6
	c-8.1,0.1-31.4,0.5-36.8,0.6c0,0-1.1,0.1-1.4-1.3c-0.6-4-1.8-15.9,1.9-22.9c0,0,19.3-0.3,19.8-0.3s1.4,3,1.4,3"/>
<path class="st9" d="M172.9,184.4c0,0,47.6-0.3,48.7,8"/>
<path class="st2" d="M196.4,185.3c0,0,37.3-1.2,44.2,4l24.4,2.2c0,0,14.1,3.1,15.2,17.2c1.1,14.1-3.2,22.5-3.2,22.5s-2.9,4.1-9,4.5
	l-24.4-2.2c-7.8,3.9-44.2-4-44.2-4l-1.2-0.1c-9.1-0.9-17.9-2.4-22.1-3.1l-1-0.2"/>
<path class="st8" d="M261.7,280c0.8-0.5,1.7-0.9,2.7-1.2c3-0.8,6.4-0.6,6.4-0.6c6.1,0.2,11.5,3.8,13.5,9c0,0,3.3,13.7-5.9,13.3
	c-8.1-0.3-31.4-1.1-36.8-1.3c0,0-1.1,0-1.3-1.4c-0.4-4-0.9-16,3.1-22.8c0,0,19.3,0.7,19.8,0.7c0.5,0,1.2,3.1,1.2,3.1"/>
<path class="st2" d="M174.3,184c0,0,47.9-0.3,49,8.1"/>
<path class="st2" d="M232.9,234.6c-13.5-0.9-31.9-5-31.9-5l-1.2-0.1c-9.1-0.9-18-2.4-22.2-3.1l-1-0.2"/>
<path class="st2" d="M277.8,225.6c-0.2,4.1,0.6,7.4-0.5,9.1l0.3,24.7c0,0-1.7,14.5-15.8,17c-14.1,2.5-23-1-23-1s-4.5-2.5-5.4-8.5
	l-0.3-24.6c-1.4-2.1-2-6.9-2.2-12.4"/>
<path class="st2" d="M222.1,190.3c0,0,33.1-1.9,53.6,7.6"/>
<path class="st10" d="M177.6,136.9c0,0-18.1,5.9-40.1,5.2"/>
<path class="st11" d="M161.6,216.6c0.3-0.4,0.2-2.4-0.1-4.7"/>
<path class="st5" d="M177,97.7c0.1,0.6,23.9,18.7,21.4,33.9s9.5,79.5,9.5,79.5s-72.6,10.7-74.8,6.6c-2.1-4.1,0.5-28.5,0.5-28.5
	s-3.8-47.2-7.8-56.5s1-35.3,8.9-38.7S177,97.7,177,97.7z"/>
<path class="st12" d="M197.8,123.7c-0.2,0.4-0.8,1.3-2.4,2.3c0,0-1.7,1.6-1.8,2.2c-0.1,0.6-0.3,0.4-0.3,0.4s-0.5-1.2,0-2.2
	c0.4-0.9-0.4-0.3-0.4-0.3l-1.2,3.6c0,0-0.6,1.1-0.8-0.3c-0.2-1.4-0.2-3.9-0.2-3.9s-0.7-2.2-1,0s0.4,5.5,0.4,5.5s0.3,2.6-0.9,0.8
	c0,0-1.6-3.5-2.6-3.5c-1.1,0-0.8,1-0.8,1l2.3,2.7c0,0,1.1,2.2-0.9,0.9c0,0-1.8-2.1-5-2.4c-3.1-0.3-1.4,1.8-1.4,1.8s3.5-0.3,4.6,1.3
	c0,0,1.9,1.2,0.2,1.7c0,0-1.2,0-1.7-0.2c-0.5-0.1-5.3,0.9-5.3,0.9s-2.3,1.9-4,0.9s-2.9-3.4-2.9-3.4s-1.5-3.8,1.1-6.3
	s2.1-3.7,2.1-3.7s-0.1-2.6,4.7-2.6s7.3,6.1,7.3,6.1s1,2.4,1-0.1s-1-4-1-4s-2.4-1.1-2.4-4c0.1-2.9-0.3-4.5,1.5-5.4c0,0,3.3-0.5,4.7-1
	c0.2-0.1,0.3-0.1,0.5-0.1"/>
<path class="st12" d="M185.6,138.3c0,0-2,0.4,0.4,1.6l0.9-0.1c0,0,2.9-0.3,1.4,1.2s-3.6,2.9-3.6,2.9s-3.4,2.6-0.5,2.6
	c2.9-0.1,4.2-3.6,4.2-3.6s1.7-2.9,0.9,1.1c-0.8,3.9-1.1,4.3-0.4,4.8c0.7,0.5,1.7-3.4,1.7-3.4s-0.6-3.6,0.6-3.5
	c1.1,0,0.9,4.4,0.9,4.4l0.6,4.8c0,0,0.1,5.2-3.1,6.8c-3.2,1.6-3.4,1-5.4-0.8c0,0-4.2,2.6-7.3-3.1s-1.9-9.2-1.9-9.2s0.6-1.6,1.2-1.6
	c0,0,0,0,0,0l-0.1-0.2c0,0-1.1-3.5,1.9-5s4.7-1.4,4.7-1.4s5.2-0.3,5.9,0.8c0.7,1.1-2.9,1-2.9,1L185.6,138.3z"/>
<path class="st13" d="M197.9,125.2c-7.1,5.5-7.4,11.8-7.4,11.8s0.3,3.3,2.1,0.4c0,0,0.6-6.1,5.5-10.8"/>
<path class="st13" d="M198.3,132.1c-0.6,0.3-1,0.5-1,0.5c-3.6,3.2-0.2-1.9-0.2-1.9s0.6-0.8,1.4-1.6"/>
<path class="st13" d="M198.1,135.8c-1.5,0.2-0.6-0.8,0.1-1.4"/>
<path class="st13" d="M198.2,140.5c-0.3-0.1-0.7-0.1-1.1-0.1c-2.6-0.1-0.5-1.6,0.9-2.4"/>
<path class="st13" d="M198.3,144.4c-0.4-0.5-0.8-1-0.8-1c-0.9-1.4-0.1-1.2,0.7-0.7"/>
<path class="st13" d="M199.7,158.4c-2.1,0.5-6.2,0.6-5.4-6.9l-0.1-0.2c0,0-1.3-5-1.1-8.4s1.2-0.2,1.2-0.2l1,3.9
	c1.4,2.2,1.3,0.1,1.3,0.1s-1.7-6.1-0.5-3.6s2.1,2.7,2.1,2.7c0.1,0,0.2,0.1,0.2,0.1"/>
<path class="st12" d="M183.7,177.8c0,0-0.8,2.5-1,0c-0.2-2.5,0.6-4.1,0.6-4.1s2.3-1.4,2-4.2c-0.3-2.9-0.2-4.5-1.9-5.2
	c0,0-3.3-0.2-4.8-0.6s-3,0.6-3,0.6s-1.9,1.7-2.5,3.6c-0.6,1.9-0.4,2.3-0.4,2.3s-2.1,2.7-0.2,5.3c0,0,0.5,1.2,2.7,2.2
	c0,0,1.8,1.4,2,2c0.2,0.6,0.3,0.4,0.3,0.4s0.4-1.3-0.2-2.1c-0.5-0.9,0.4-0.4,0.4-0.4l1.6,3.4c0,0,0.7,1.1,0.8-0.3s-0.1-3.9-0.1-3.9
	s0.5-2.3,1-0.1s0.1,5.5,0.1,5.5s-0.1,2.6,0.9,0.8c0,0,1.2-3.7,2.3-3.7c1.1-0.1,0.9,0.9,0.9,0.9l-2.1,2.9c0,0-0.9,2.3,1,0.8
	c0,0,1.6-2.2,4.7-2.9s1.5,1.6,1.5,1.6s-3.5,0-4.4,1.7c0,0-1.7,1.3-0.1,1.7c0,0,1.2-0.1,1.7-0.3c0.4-0.2,5.4,0.4,5.4,0.4
	s2.4,1.7,4.1,0.5c1.6-1.2,2.5-3.7,2.5-3.7s1.1-3.9-1.7-6.2c-2.8-2.2-2.4-3.5-2.4-3.5s-0.1-2.6-4.9-2.1
	C185.7,171.6,183.7,177.8,183.7,177.8z"/>
<path class="st12" d="M194.5,193.2c0,0,1-3.5-2.1-4.7c-3.1-1.2-4.8-0.9-4.8-0.9s-5.2,0.2-5.8,1.3c-0.6,1.2,3,0.8,3,0.8h0.1
	c0,0,2,0.2-0.3,1.6l-0.9,0c0,0-2.9-0.1-1.3,1.3s3.9,2.6,3.9,2.6s3.7,2.3,0.8,2.5c-2.9,0.2-4.5-3.2-4.5-3.2s-1.9-2.7-0.8,1.2
	c1.1,3.9,1.5,4.2,0.8,4.8s-2-3.2-2-3.2s0.2-3.6-0.9-3.5s-0.5,4.5-0.5,4.5l-0.1,4.8c0,0,0.4,5.2,3.7,6.5c3.3,1.3,3.5,0.7,5.3-1.2
	c0,0,4.5,2.2,7-3.8c2.5-6,1.1-9.3,1.1-9.3s-0.7-1.5-1.4-1.5c0,0,0,0,0,0L194.5,193.2z"/>
<path class="st13" d="M170.2,96.3c2.3,4.2,1.6,6.2,1.6,6.2s-1.3,3.9-5.6,1.1l-0.2-0.1c0,0-7.1,0.8-0.7,1.4s4.6,7.8,4.6,7.8
	s5.2,8.1-4,9.6l-0.2,0.1c0,0-6.8,5.2-7.9-4.9l-0.1-0.2c0,0-2.3-4.6-2.9-8s1.1-0.5,1.1-0.5l1.8,3.6c1.8,1.8,1.2-0.2,1.2-0.2
	s-3-5.6-1.2-3.4s2.6,2.1,2.6,2.1c2.2,0.3-1.1-2.2-1.1-2.2c-2-2,1.9-0.4,1.9-0.4c3.8,2.6,2.6-0.8,2.6-0.8s-2-2.2-5.6-1.7
	s1.2-3.2,1.2-3.2c4.1-1.1,3.3-1.4,3.3-1.4s-0.1-2.5-3.6-0.4c-3.5,2-0.8-1.5-0.8-1.5s2.9-0.6,2.7-2.5c-0.2-1.9-4.3,1.5-4.3,1.5
	c-2.9,3.9-0.6-1.8-0.6-1.8s0.4-1.1,1.2-2.2"/>
<path class="st13" d="M167.9,175c11.9,5.5,12.6,14.3,12.6,14.3s-0.2,3.3-2,0.5c0,0-1.4-10.2-11.6-14.1c0,0,1.4,4-1.5,3.8
	c0,0-1.5,0.6-0.9-3c0,0-1.9,3.9-3.4,1.7c-1.6-2.2,2.2-4,2.2-4s-3.5-0.6-2.7-2.8s3.2-0.7,3.2-0.7l1.1,1.2c0,0-0.1-4.5,2.2-2.4
	s0,3,0,3s2-1.3,2.4,0.4s-1.3,2.2-1.3,2.2L167.9,175z"/>
<path class="st13" d="M171.6,210.7c0,0,8.1,2.5,5.7-7.3l0-0.2c0,0,0.6-5.1-0.1-8.5c-0.7-3.4-1.2,0-1.2,0l-0.4,3.9
	c-1.1,2.3-1.2,0.3-1.2,0.3s0.8-6.2,0-3.6c-0.9,2.6-1.7,2.9-1.7,2.9c-1.9,1,0.3-2.4,0.3-2.4c1.2-2.6-1.9,0.3-1.9,0.3
	c-2.7,3.8-2.7,0.2-2.7,0.2s1.1-2.8,4.6-3.5s-2.3-2.6-2.3-2.6c-4.2,0.3-3.6-0.2-3.6-0.2s-0.8-2.4,3.2-1.7s0.3-1.7,0.3-1.7
	s-2.9,0.5-3.4-1.4c-0.4-1.9,4.5-0.1,4.5-0.1c4.1,2.7,0-1.9,0-1.9s-4.1-4.3-6.7-2.5c-2.6,1.8-3.3,1.7-3.3,1.7s-2.6,0.4-3.4,5.3
	s0.6,6.6,0.6,6.6s2.6,3.2,5.7-0.9l0.1-0.2c0,0,6.9-1.7,1.1,1.1c-5.8,2.8-1.6,8.9-1.6,8.9s-2.1,9.4,7.1,7.6L171.6,210.7z"/>
<path class="st12" d="M147.3,93.2c0.1,0,0,0.1,0,0.2c0.2,2.2,1.6,5.3,1.6,5.3s0.9,2.5-0.6,1c0,0-2.3-3.1-3.4-2.8s-0.5,1.2-0.5,1.2
	l2.9,2.1c0,0,1.6,1.8-0.7,1.1c0,0-2.2-1.6-5.4-1.3s-0.9,2.1-0.9,2.1s3.3-1.1,4.8,0.2c0,0,2.1,0.7,0.6,1.6c0,0-1.2,0.2-1.7,0.2
	s-5,2.1-5,2.1s-1.8,2.4-3.7,1.8c-2-0.7-3.6-2.7-3.6-2.7s-2.3-3.4-0.4-6.4c1.1-1.6,1.3-2.7,1.3-3.3C132.6,95.4,134.8,92.3,147.3,93.2
	z"/>
<path class="st12" d="M150.6,93.6l-0.4,3.3c0,0-0.4,1.2-0.9-0.1c-0.4-1-0.9-2.8-1-3.4"/>
<path class="st12" d="M146.3,106.7c0,0-1.8,0.8,0.8,1.4l0.9-0.3c0,0,2.7-1,1.7,0.8s-2.9,3.6-2.9,3.6s-2.8,3.3,0,2.6s3.3-4.5,3.3-4.5
	s1-3.2,1.1,0.8c0.1,4-0.1,4.4,0.7,4.8s0.9-3.7,0.9-3.7s-1.4-3.4-0.2-3.6s1.9,4.1,1.9,4.1l1.6,4.6c0,0,1.3,5.1-1.5,7.3
	c-2.8,2.2-3.1,1.8-5.4,0.5c0,0-3.5,3.5-7.8-1.4c-4.3-4.9-4-8.5-4-8.5s0.2-1.6,0.9-1.9c0,0,0,0,0,0l-0.1-0.2c0,0-1.8-3.2,0.8-5.3
	s4.2-2.4,4.2-2.4s5-1.5,5.9-0.6c0.9,0.9-2.6,1.7-2.6,1.7L146.3,106.7z"/>
<path class="st13" d="M153.5,93.8c-3.5,5.8-2.7,10.5-2.7,10.5s1.1,3.1,2.1-0.1c0,0-0.6-5,2-10.2"/>
<path class="st14" d="M152.4,93.7c1.6,0.2,3.3,0.4,4.9,0.6"/>
<path class="st14" d="M148.3,93.3c1.3,0.1,2.7,0.2,4.1,0.4"/>
<path class="st14" d="M171.7,106.6c0,0-9.9-18.3-29.2-6.8c0,0-11.4,5.4-6.6,23.9l2,18.1c0-2,29.2-8.7,39.6-5.1
	C177.4,136.6,175.4,109.2,171.7,106.6z"/>
<path class="st12" d="M129.4,149.4c0.8,0.5,1.4,0.9,1.4,0.9s2.2,0.7,0.6-0.8c-0.6-0.6-1.4-1.1-2.1-1.6"/>
<path class="st12" d="M127.5,138.4c0.7-1.4,1.8-3.9,1.8-3.9s-0.2-3,1.7-3.8c1.9-0.8,4.4-0.3,4.4-0.3s4,1.1,4.5,4.6s1.8,3.9,1.8,3.9
	s2.2,1.4-0.7,5.3s-9.2,2.4-9.2,2.4s-2.5-0.6-0.5,0.9c2,1.5,3.8,1.5,3.8,1.5s2.4-1.3,4.7,0.5s3.8,2.4,3.5,4.3c0,0-1.6,3-2,4.4
	s-2.1,2.3-2.1,2.3s-2.4,0.8-4.3,0.3c-1.9-0.4-2.2-0.9-2.2-0.9s-0.9,0.1-2-0.2"/>
<path class="st15" d="M128.2,142.9c1-0.3,2.3-1,3.5-2.3c2.1-2.4-0.6-2.2-0.6-2.2s-1.4,2.3-3,2.8"/>
<path class="st15" d="M128.8,145.7c0.9,0.1,1.8,0,2.1-0.4c0.6-0.9-0.4-1.2-0.4-1.2l-1.9,0.2"/>
<path class="st12" d="M124.4,126.5C124.5,126.5,124.5,126.6,124.4,126.5c0.1,0.1,1,1.5,0.6,2c0,0,0,0,0,0l0.2,0.1
	c0,0,3.5,1.2,2.9,4.5c-0.3,1.8-0.8,3-1.2,3.7"/>
<path class="st12" d="M132.4,208.6c0.2,0,0.5-0.2,0.9-0.6c0,0,1.2-2.5,4.2-3.6c3-1.1,1.8,1.4,1.8,1.4s-3.5,0.6-4.1,2.4
	c0,0-1.5,1.6,0.2,1.7c0,0,1.2-0.3,1.6-0.6c0.4-0.2,5.4-0.5,5.4-0.5s2.7,1.3,4.1-0.2s1.9-4,1.9-4s0.5-4.1-2.6-5.8s-2.9-3.1-2.9-3.1
	s-0.6-2.5-5.2-1.3c-2.6,0.7-4.1,3.1-4.8,5"/>
<path class="st12" d="M148.7,218.1c-0.3-1.2-0.7-1.9-0.7-1.9s-0.9-1.4-1.6-1.3c0,0,0,0,0,0l0-0.2c0,0,0.1-3.7-3.1-4.4
	c-3.3-0.7-4.9-0.1-4.9-0.1s-5.1,1-5.5,2.3c-0.4,1.2,3.1,0.3,3.1,0.3l0.1,0c0,0,2-0.1,0,1.6l-0.9,0.1c0,0-2.8,0.4-1.1,1.5
	s4.2,1.9,4.2,1.9s0.6,0.3,1.2,0.6"/>
<path class="st15" d="M129.4,149.4c0.8,0.5,1.4,0.9,1.4,0.9s2.2,0.7,0.6-0.8c-0.6-0.6-1.4-1.1-2.1-1.6"/>
<path class="st16" d="M157.3,94.3c10.2,1.4,19.7,3.3,19.7,3.3c0.1,0.6,23.9,18.7,21.4,33.9s9.5,79.5,9.5,79.5s-72.6,10.7-74.8,6.6
	c-2.1-4.1,0.5-28.5,0.5-28.5s-3.8-47.2-7.8-56.5s1-35.3,8.9-38.7c2.5-1.1,7.7-1.1,13.6-0.6"/>
<path class="st17" d="M203.9,189.5c-17.8,7.9-46,17.9-71.7,15.5l-0.7,7.3c5.9,1.9,27.1-0.6,27.1-0.6c16.3-0.5,44.5-12.1,44.5-12.1
	s1.2-0.5,3.1-1.4"/>
<path class="st18" d="M202.6,145.6c0,0,0.3-38.7-40.3-55.2"/>
<path class="st19" d="M218.3,202.1c0.1,0.8-0.4,1.5-1.2,1.8l-2.3,0.6l-0.4,0.1c-3.2,0.9-6.9-0.7-7.8-3.8l-3.1-10.7
	c-0.1-0.5,0.1-0.9,0.6-1.1l7.9-2.2c0.8-0.2,1.6,0.1,1.9,0.8C215,189.8,217.2,195,218.3,202.1z"/>
<path class="st19" d="M214.1,187.8l1-0.3c0,0,0.1,0,0.1,0c2.1-0.6,4.9,2.8,6.3,7.5c1.3,4.6,0.8,8.9-1.2,9.6l-1.3,0.4
	c-2.1,0.4-4.8-2.9-6.2-7.5C211.4,192.7,212,188.3,214.1,187.8c0,0,0.1,0,0.1,0"/>
<line class="st20" x1="216.6" y1="192.6" x2="214.9" y2="193"/>
<line class="st20" x1="220.9" y1="191.4" x2="219.2" y2="191.9"/>
<path class="st21" d="M216.2,192.5L216.2,192.5c0.5-0.1,1,0.1,1.2,0.6l1,3.3c0.1,0.5-0.2,1-0.7,1.1l0,0c-0.5,0.1-1-0.1-1.2-0.6
	l-1-3.3C215.5,193.1,215.7,192.6,216.2,192.5z"/>
<path class="st2" d="M141.4,138.9c0.1,11.9,1.2,24.8,5.1,31.5l-0.1,0.5l-0.1,0.3c0,0-1.7,17.4,10.4,23.9l21.2-2.7
	c10.1-9.3,4.1-25.8,4.1-25.8l0-0.2c0.4-12.5-9.5-31.9-9.5-31.9"/>
<path class="st8" d="M161.5,211.8c-0.3-2.4-0.8-5.1-1.1-7.3c-0.8-4.4,1.9-6.7,1.9-6.7l10.6-1.2c0,0,7.1,3,8.4,12.8
	c1.3,9.8-6.8,13.8-6.8,13.8l-0.1,0.1c-2.9,4-7.6,1.5-7.6,1.5s-0.8-0.4-1-1l-0.2,0c-2.2,0.3-4.5,0-6.2-2.5l-0.1-0.1
	c-1.2-0.4-2.2-1.3-2.6-3.4c-1.3-6.1,4.6-6,4.6-6L161.5,211.8z"/>
<path class="st8" d="M159.3,221.2c2.4,0.8,5.3-0.9,5.3-0.9s3.4-2.1,3.8-11.5"/>
<path class="st8" d="M165.6,223.8c2.9-0.4,5.4-2.1,5.7-2.6c0,0,2.6-2.8,3.3-10.4"/>
<path class="st8" d="M178.9,210.3c0,0-1.4,7.6-4.2,12.4c-0.1,0.2-0.3,0.4-0.4,0.6"/>
<path class="st2" d="M176.1,196.1l-16.2,2.1c-1,0.1-1.8-0.6-2-1.5l0,0c-0.1-1,0.6-1.8,1.5-2l16.2-2.1c1-0.1,1.8,0.6,2,1.5l0,0
	C177.8,195.1,177.1,196,176.1,196.1z"/>
<path class="st22" d="M171.4,106.1c0,0-9.9-18.3-29.2-6.8c0,0-11.4,5.4-6.6,23.9l2,18.1c0-2,29.2-8.7,39.6-5.1
	C177.1,136.2,175.1,108.8,171.4,106.1z"/>
<path class="st5" d="M136.2,93.7c-0.9,0.4,0.7-2.4,0.7-2.4s-0.6-2.9,0.3-6.2c0.8-3.4,12.6-0.9,12.6-0.9s31.6,8.5,28.6,11.8l-3.1,5.2
	c0,0-0.1,0.9-2.9-0.9C169.5,98.4,145,89.4,136.2,93.7z"/>
<path class="st13" d="M177,133.5c-1.5-2.4-3.4-4.6-3.4-4.6l-0.1-0.1c-3.5-9.5-8.9-2.9-8.9-2.9l-0.1,0.1c-7.4,3.2-3.3,8.5-2,9.9
	c0,0,9.9-0.6,12.9,0.3c1.2,0.4-1.8-2.1-1.8-2.1s-1-1.8,1.2-0.5l2.3,2.7L177,133.5z"/>
<path class="st16" d="M171.7,106.6c0,0-9.9-18.3-29.2-6.8c0,0-11.4,5.4-6.6,23.9l2,18.1c0-2,29.2-8.7,39.6-5.1
	C177.4,136.6,175.4,109.2,171.7,106.6z"/>
<path class="st23" d="M187.4,35.1l16.4-5.4c1.8-0.6,3.3,1.4,2.2,3l-6.5,9.2c-0.7,1-0.3,2.5,0.9,2.9l20.2,8.2
	c1.8,0.7,1.5,3.4-0.4,3.7l-16.9,3.1c-1.2,0.2-1.9,1.5-1.5,2.7l5.5,13.8c0.7,1.7-1.2,3.3-2.8,2.4l-9.2-5.2"/>
<path class="st24" d="M144.8-9.4"/>
<path class="st25" d="M178.7,68.2"/>
<rect x="132.4" y="63.7" transform="matrix(0.9947 -0.1033 0.1033 0.9947 -6.509 16.8233)" class="st26" width="53.6" height="15.1"/>
<path class="st24" d="M158.9,72.2"/>
<path class="st27" d="M155.8,41.5"/>
<path class="st27" d="M155.8,41.5"/>
<path class="st25" d="M185.3,67.3"/>
<path class="st26" d="M186.5,73.9l-1.2-12.7l0,0l-0.9-10.1c-0.1-0.8-0.2-1.5-0.4-2.2l-0.2-0.7c0,0-6.5-20.1-28.6-17.8l0.1,0
	c-22.2,2.3-24.7,23.3-24.7,23.3l0,0.3c-0.1,0.9-0.1,1.7,0,2.6l1,10.1l1.2,12.7"/>
<path class="st26" d="M172.8,33.3c0.6-0.7-0.4-1.2-0.4-1.2c-10.5,3.9-17.4,12.3-16.2,21l1.4,10.5c0,0,3.7,7.8,29.2,4.6
	c0,0,0.3-1.2-0.4-1.6"/>
<path class="st28" d="M185.1,66.8c-23.6,2.9-26.1-4.4-26.1-4.4l-1.3-9.7c-1.1-8.1,5.1-15.8,15-19.3l0.4,0.1
	c7.4,5.3,10.2,13.2,10.2,13.2l0.2,0.7c0.2,0.7,0.4,1.5,0.5,2.3l1.4,10.4l0,0l0.9,6.6L185.1,66.8z"/>
<path class="st29" d="M170.3,31.7l1.5,2.5c0.3,0.5,0.4,0.9,0.2,1.1l-0.7,1.3c-0.3,0.6,0.7,2.1,1.8,2.5l2.2,1c0.4,0.2,0.9,0.6,1.2,1
	l2,2.5c0.9,1.2,2.2,1.5,2.1,0.7l-0.1-1.9c0-0.4,0.2-0.5,0.5-0.5l1.9,0.3c0.9,0.1,0.6-1.1-0.5-2.1l-2.3-2.2c-0.4-0.4-0.8-0.9-0.9-1.3
	l-0.8-2.3c-0.4-1.1-1.8-2.2-2.4-2l-1.3,0.6c-0.2,0.1-0.6,0-1.1-0.3l-2.4-1.7C170.2,30,169.6,30.5,170.3,31.7z"/>
<path class="st30" d="M170.9,37.8l-20.3,12.9c0,0-0.2,1.1,0.2,1.5"/>
<path class="st26" d="M160.1,82.2c-15.7,1.4-22.4,0.9-25.2,0.5c-2.3-0.3-2.1-1.6-2.1-1.6l-0.2-1.7c0,0,9.6,1.3,26.8-0.7l0.5-0.1
	c17.3-1.6,26.4-4.9,26.4-4.9l0.2,1.7c0,0,0.5,1.2-1.7,2C182.2,78.5,175.8,80.4,160.1,82.2"/>
<path class="st31" d="M201.2,154.2h2.5c1.7,0,3.1-1.4,3.1-3.1v-9.8c0-1.7-1.4-3.1-3.1-3.1h-2.5c-1.7,0-3.1,1.4-3.1,3.1v9.8
	C198.1,152.8,199.5,154.2,201.2,154.2z"/>
<path class="st31" d="M204.8,137.9v-2.5c0-0.6-0.4-1.1-0.9-1.1h-2.8c-0.5,0-0.9,0.5-0.9,1.1v2.5"/>
<path class="st32" d="M210.9,152.3c0.6,0,1.2-2.5,1.2-5.5s-0.5-5.5-1.2-5.5"/>
<polyline class="st33" points="210.9,152.4 206.9,152.4 206.9,141.4 210.9,141.4 "/>
</svg>
