<?xml version="1.0" encoding="utf-8"?>
<!-- Generator: Adobe Illustrator 27.4.0, SVG Export Plug-In . SVG Version: 6.00 Build 0)  -->
<svg version="1.1" id="Layer_1" xmlns="http://www.w3.org/2000/svg" xmlns:xlink="http://www.w3.org/1999/xlink" x="0px" y="0px"
	 viewBox="0 0 1800 576" style="enable-background:new 0 0 1800 576;" xml:space="preserve">
<style type="text/css">
	.st0{fill:none;stroke:#AA5517;stroke-miterlimit:10;}
	.st1{fill:#F8B384;stroke:#CC956E;stroke-width:5;stroke-miterlimit:10;}
	.st2{fill:#B15A2B;stroke:#A5391D;stroke-miterlimit:10;}
	.st3{fill:#C56531;stroke:#A5391D;stroke-miterlimit:10;}
	.st4{fill:#AE301D;stroke:#A53A23;stroke-miterlimit:10;}
	.st5{fill:#DC7038;stroke:#A5391D;stroke-miterlimit:10;}
	.st6{fill:#EFE8CC;stroke:#EFE8CC;stroke-miterlimit:10;}
	.st7{fill:none;stroke:#A8A694;stroke-miterlimit:10;}
	.st8{fill:#EFE8CC;stroke:#B1AE9C;stroke-miterlimit:10;}
	.st9{fill:#2B190D;stroke:#A8A694;stroke-miterlimit:10;}
	.st10{fill:#D23C27;stroke:#A53A23;stroke-miterlimit:10;}
	.st11{fill:#D74727;stroke:#872613;stroke-width:2;stroke-miterlimit:10;}
	.st12{fill:#B36327;stroke:#8D4113;stroke-width:2;stroke-miterlimit:10;}
	.st13{fill:#D47433;stroke:#8D4113;stroke-width:2;stroke-miterlimit:10;}
	.st14{fill:#B53C1F;stroke:#872613;stroke-width:2;stroke-miterlimit:10;}
	.st15{fill:#EA8039;stroke:#8D4113;stroke-width:2;stroke-miterlimit:10;}
	.st16{fill:#ECDED8;stroke:#CEBAB2;stroke-width:2;stroke-miterlimit:10;}
	.st17{fill:#19100A;}
	.st18{fill:#0D1A1C;stroke:#74CDE1;stroke-width:4;stroke-miterlimit:10;}
	.st19{fill:none;stroke:#74CDE1;stroke-width:4;stroke-miterlimit:10;}
	.st20{fill:none;stroke:#74CDE1;stroke-width:4;stroke-linecap:round;stroke-linejoin:round;stroke-miterlimit:10;}
	.st21{fill:#FDE6D8;stroke:#FDE6D8;stroke-miterlimit:10;}
</style>
<path class="st0" d="M1601.5,244.2"/>
<path class="st1" d="M1744.3,537.6H55.7c-17.6,0-31.9-14.3-31.9-31.9V79.3c0-17.6,14.3-31.9,31.9-31.9h1688.6
	c17.6,0,31.9,14.3,31.9,31.9v426.3C1776.3,523.3,1762,537.6,1744.3,537.6z"/>
<path class="st2" d="M858.5,336.1c0,0,3.6-3.4-92-29c-10.5-2.8-13.6-5-10.9-6.6c0,0-18.3,3.9-8.4,29.2c1.5,3.8,1.4,7,0.1,9.8
	c0,0-6.1,13.2,10.2,22.8c16.7,9.8,95.9,36.5,96.2,35.5c0,0,21.4-4.5,18.9-43.4C870.2,315.5,858.5,336.1,858.5,336.1"/>
<path class="st3" d="M853.9,397.8c0,0,84.5,6.8,189-13.1c0,0,22-13.1,12.9-44.4c-2.5-8.6-8.2-14.1-15.2-17.5
	c0,0-152.5,15.8-182.1,13.2C858.5,336.1,882,378.1,853.9,397.8z"/>
<path class="st4" d="M862.6,469.2c-45-17.8-91-35.9-110.8-47.1c0,0-13.5-7-6.8-22.4c0,0,2.5-2.3,1.1-7.6s-4.7-28.8,11.6-28.5
	c0,0,46.3,20.9,85.4,31.1c0,0,35.1,8.2,30.9,47.8c-1.2,11.7-5.7,20.3-11.4,26.6"/>
<path class="st5" d="M756.5,300.1c0,0,94.3-15,194.7-16.9c1.4-2.9,90.4,26.5,89.6,38.9l-0.2,0.7c0,0-152.5,15.8-182.1,13.2l-0.3-0.6
	c0,0,4.4-2.8-91.2-28.3l-0.4-0.1c-10.5-2.8-13.6-5-10.9-6.6L756.5,300.1z"/>
<polygon class="st6" points="1022.8,300.2 779.9,300.2 780.5,223.7 1023.4,223.7 "/>
<path class="st7" d="M973.1,235.1"/>
<line class="st7" x1="779.8" y1="289.6" x2="779.8" y2="225.1"/>
<path class="st8" d="M1021.7,159.1c0,0-20.3-104.2-120.5-104.2h0.6c-100.2,0-120.5,104.2-120.5,104.2"/>
<path class="st8" d="M900.7,266.5c115.3-1.4,122.4-41.3,122.4-41.3v-51.3c0-52.3-54.2-94.8-120.9-94.8h-1.4
	c-66.8,0-120.9,42.4-120.9,94.8v51.3c0,0,7.1,40,122.4,41.3"/>
<path class="st8" d="M901.5,317.7c71-1.1,100.6-7.4,113.2-10.7c10.1-2.6,8.5-8.9,8.5-8.9v-8.5c0,0-42.4,11.5-120.5,10.6h-2.3
	c-78.1,0.8-120.5-10.6-120.5-10.6v8.5c0,0-1.6,6.3,8.5,8.9C800.9,310.3,830.5,316.6,901.5,317.7"/>
<line class="st7" x1="1022.5" y1="292.7" x2="1022.5" y2="228.2"/>
<path class="st7" d="M901.8,107.6"/>
<path class="st7" d="M901.8,107.6"/>
<g>
	<g>
		<path class="st9" d="M901.8,258.6c-106.8-1.3-113.4-38.3-113.4-38.3v-47.6c0-48.5,50.2-87.8,112-87.8c2.2,0,2.2,0,2.2,0
			c61.9,0,112,39.3,112,87.8v47.6c0,0-6.6,37-113.4,38.3"/>
	</g>
</g>
<path class="st10" d="M844.1,414.7c34.2,37.8,3.4,55.8,3.4,55.8c-173.3,37-185,28.8-185,28.8L645,419.8L844.1,414.7z"/>
<path class="st2" d="M658.5,366.1c0,0,3.6-3.4-92-29c-10.5-2.8-13.6-5-10.9-6.6c0,0-18.3,3.9-8.4,29.2c1.5,3.8,1.4,7,0.1,9.8
	c0,0-6.1,13.2,10.2,22.8c16.7,9.8,95.9,36.5,96.2,35.5c0,0,21.4-4.5,18.9-43.4C670.2,345.5,658.5,366.1,658.5,366.1"/>
<path class="st3" d="M653.9,427.8c0,0,84.5,6.8,189-13.1c0,0,22-13.1,12.9-44.4c-2.5-8.6-8.2-14.1-15.2-17.5
	c0,0-152.5,15.8-182.1,13.2C658.5,366.1,682,408.1,653.9,427.8z"/>
<path class="st4" d="M662.6,499.2c-45-17.8-91-35.9-110.8-47.1c0,0-13.5-7-6.8-22.4c0,0,2.5-2.3,1.1-7.6s-4.7-28.8,11.6-28.5
	c0,0,46.3,20.9,85.4,31.1c0,0,35.1,8.2,30.9,47.8c-1.2,11.7-5.7,20.3-11.4,26.6"/>
<path class="st5" d="M556.5,330.1c0,0,94.3-15,194.7-16.9c1.4-2.9,90.4,26.5,89.6,38.9l-0.2,0.7c0,0-152.5,15.8-182.1,13.2l-0.3-0.6
	c0,0,4.4-2.8-91.2-28.3l-0.4-0.1c-10.5-2.8-13.6-5-10.9-6.6L556.5,330.1z"/>
<polygon class="st6" points="822.8,330.2 579.9,330.2 580.5,253.7 823.4,253.7 "/>
<path class="st7" d="M823.1,255.1"/>
<line class="st7" x1="529.8" y1="329.6" x2="529.8" y2="265.1"/>
<path class="st8" d="M821.7,189.1c0,0-20.3-104.2-120.5-104.2h0.6c-100.2,0-120.5,104.2-120.5,104.2"/>
<path class="st8" d="M700.7,296.5c115.3-1.4,122.4-41.3,122.4-41.3v-51.3c0-52.3-54.2-94.8-120.9-94.8h-1.4
	c-66.8,0-120.9,42.4-120.9,94.8v51.3c0,0,7.1,40,122.4,41.3"/>
<path class="st8" d="M701.5,347.7c71-1.1,100.6-7.4,113.2-10.7c10.1-2.6,8.5-8.9,8.5-8.9v-8.5c0,0-42.4,11.5-120.5,10.6h-2.3
	c-78.1,0.8-120.5-10.6-120.5-10.6v8.5c0,0-1.6,6.3,8.5,8.9C600.9,340.3,630.5,346.6,701.5,347.7"/>
<line class="st7" x1="823.1" y1="319.6" x2="823.1" y2="255.1"/>
<path class="st7" d="M701.8,137.6"/>
<path class="st7" d="M701.8,137.6"/>
<g>
	<g>
		<path class="st9" d="M701.8,288.6c-106.8-1.3-113.4-38.3-113.4-38.3v-47.6c0-48.5,50.2-87.8,112-87.8c2.2,0,2.2,0,2.2,0
			c61.9,0,112,39.3,112,87.8v47.6c0,0-6.6,37-113.4,38.3"/>
	</g>
</g>
<path class="st10" d="M564.1,414.7c34.2,37.8,3.4,55.8,3.4,55.8c-173.3,37-185,28.8-185,28.8L365,419.8L564.1,414.7z"/>
<path class="st2" d="M378.5,366.1c0,0,3.6-3.4-91.9-29c-10.5-2.8-13.6-5-10.9-6.6c0,0-18.3,3.9-8.4,29.2c1.5,3.8,1.4,7,0.1,9.8
	c0,0-6.1,13.2,10.2,22.8c16.7,9.8,95.9,36.5,96.2,35.5c0,0,21.4-4.5,18.9-43.4C390.2,345.5,378.5,366.1,378.5,366.1"/>
<path class="st3" d="M373.9,427.8c0,0,84.5,6.8,189-13.1c0,0,22-13.1,12.9-44.4c-2.5-8.6-8.2-14.1-15.2-17.5
	c0,0-152.5,15.8-182.1,13.2C378.5,366.1,402,408.1,373.9,427.8z"/>
<path class="st4" d="M382.6,499.2c-45-17.8-91-35.9-110.8-47.1c0,0-13.5-7-6.8-22.4c0,0,2.5-2.3,1.1-7.6s-4.6-28.8,11.6-28.5
	c0,0,46.3,20.9,85.4,31.1c0,0,35.1,8.2,30.9,47.8c-1.2,11.7-5.7,20.3-11.4,26.6"/>
<path class="st5" d="M276.5,330.1c0,0,94.3-15,194.7-16.9c1.4-2.9,90.4,26.5,89.6,38.9l-0.2,0.7c0,0-152.5,15.8-182.1,13.2l-0.4-0.6
	c0,0,4.4-2.8-91.2-28.3l-0.4-0.1c-10.5-2.8-13.6-5-10.9-6.6L276.5,330.1z"/>
<polygon class="st6" points="542.8,330.2 299.9,330.2 300.5,253.7 543.4,253.7 "/>
<line class="st7" x1="299.8" y1="319.6" x2="299.8" y2="255.1"/>
<path class="st8" d="M420.7,296.5c115.3-1.4,122.4-41.3,122.4-41.3v-51.3c0-52.3-54.2-94.8-120.9-94.8h-1.4
	c-66.8,0-120.9,42.4-120.9,94.8v51.3c0,0,7.1,40,122.4,41.3"/>
<path class="st8" d="M421.5,347.7c71-1.1,100.6-7.4,113.2-10.7c10.1-2.6,8.5-8.9,8.5-8.9v-8.5c0,0-42.4,11.5-120.5,10.6h-2.3
	c-78.1,0.8-120.5-10.6-120.5-10.6v8.5c0,0-1.6,6.3,8.5,8.9C320.9,340.3,350.5,346.6,421.5,347.7"/>
<g>
	<g>
		<path class="st9" d="M421.8,288.6c-106.8-1.3-113.4-38.3-113.4-38.3v-47.6c0-48.5,50.2-87.8,112-87.8c2.2,0,2.2,0,2.2,0
			c61.9,0,112,39.3,112,87.8v47.6c0,0-6.6,37-113.4,38.3"/>
	</g>
</g>
<path class="st10" d="M364.1,444.7c34.2,37.8,3.4,55.8,3.4,55.8c-173.3,37-184.9,28.8-184.9,28.8L165,449.8L364.1,444.7z"/>
<path class="st3" d="M173.9,457.8c0,0,84.6,6.8,189-13.1c0,0,22-13.1,12.9-44.4c-2.5-8.6-8.2-14.1-15.1-17.5
	c0,0-152.5,15.8-182.1,13.2C178.5,396.1,202,438.1,173.9,457.8z"/>
<path class="st4" d="M182.6,529.2c-45-17.8-91-35.9-110.8-47.1c0,0-13.5-7-6.8-22.4c0,0,2.5-2.3,1.1-7.6s-4.6-28.8,11.6-28.5
	c0,0,46.3,20.9,85.4,31.1c0,0,35.1,8.2,30.9,47.8c-1.2,11.7-5.7,20.3-11.4,26.6"/>
<path class="st5" d="M76.5,360.1c0,0,94.3-15,194.7-16.9c1.4-2.9,90.4,26.5,89.6,38.9l-0.1,0.7c0,0-152.5,15.8-182.1,13.2l-0.4-0.6
	c0,0,4.4-2.8-91.2-28.3l-0.4-0.1c-10.4-2.8-13.6-5-10.9-6.6L76.5,360.1z"/>
<polygon class="st6" points="342.8,360.2 99.9,360.2 100.5,283.7 343.4,283.7 "/>
<path class="st7" d="M343.1,285.1"/>
<path class="st8" d="M341.7,219.1c0,0-20.3-104.2-120.5-104.2h0.6c-100.2,0-120.5,104.2-120.5,104.2"/>
<path class="st8" d="M220.7,326.5c115.3-1.4,122.4-41.3,122.4-41.3v-51.3c0-52.3-54.1-94.8-120.9-94.8h-1.4
	c-66.8,0-120.9,42.4-120.9,94.8v51.3c0,0,7.1,40,122.4,41.3"/>
<path class="st8" d="M221.5,377.7c71-1.1,100.6-7.4,113.2-10.7c10.1-2.6,8.5-8.9,8.5-8.9v-8.5c0,0-42.4,11.5-120.5,10.6h-2.3
	c-78.1,0.8-120.5-10.6-120.5-10.6v8.5c0,0-1.6,6.3,8.5,8.9C120.9,370.3,150.5,376.6,221.5,377.7"/>
<line class="st7" x1="343.1" y1="349.6" x2="343.1" y2="285.1"/>
<path class="st7" d="M221.8,167.6"/>
<path class="st7" d="M221.8,167.6"/>
<g>
	<g>
		<path class="st9" d="M221.8,318.6c-106.8-1.3-113.4-38.3-113.4-38.3v-47.6c0-48.5,50.2-87.8,112-87.8c2.2,0,2.2,0,2.2,0
			c61.9,0,112,39.3,112,87.8v47.6c0,0-6.6,37-113.4,38.3"/>
	</g>
</g>
<path class="st11" d="M1043.3,383.2c34.3,37.9,3.4,56,3.4,56C872.8,476.3,861.2,468,861.2,468l-17.6-79.7L1043.3,383.2z"/>
<path class="st12" d="M860.9,335.7c0,0,3.6-3.4-92.2-29c-10.5-2.8-13.6-5-10.9-6.6c0,0-18.4,3.9-8.4,29.3c1.5,3.8,1.4,7.1,0.1,9.8
	c0,0-6.1,13.2,10.2,22.8c16.7,9.8,96.2,36.6,96.5,35.6c0,0,21.5-4.5,18.9-43.5C872.6,315.1,860.9,335.7,860.9,335.7"/>
<path class="st13" d="M852.5,396.3c0,0,84.8,6.8,189.5-13.1c0,0,22.1-13.1,12.9-44.5c-2.5-8.6-8.2-14.1-15.2-17.5
	c0,0-152.9,15.8-182.6,13.3C857.1,334.4,880.7,376.6,852.5,396.3z"/>
<path class="st14" d="M861.2,468c-45.2-17.9-91.3-36-111.1-47.3c0,0-13.6-7-6.8-22.5c0,0,2.5-2.3,1.1-7.6
	c-1.5-5.3-4.7-28.8,11.7-28.6c0,0,46.4,21,85.7,31.2c0,0,35.2,8.3,31,47.9c-1.3,11.7-5.7,20.3-11.4,26.7"/>
<path class="st15" d="M754.7,298.4c0,0,94.6-15.1,195.3-17c1.4-2.9,90.7,26.6,89.9,39l-0.1,0.7c0,0-152.9,15.8-182.6,13.3l-0.4-0.6
	c0,0,4.4-2.8-91.5-28.4l-0.4-0.1c-10.5-2.8-13.6-5-10.9-6.6L754.7,298.4z"/>
<polygon class="st16" points="1021.9,298.5 778.3,298.5 778.8,221.7 1022.5,221.7 "/>
<path class="st7" d="M1022.2,223.1"/>
<line class="st16" x1="778.2" y1="287.8" x2="778.2" y2="223.1"/>
<path class="st16" d="M1020.8,156.9c0,0-20.4-104.5-120.9-104.5h0.6c-100.5,0-120.9,104.5-120.9,104.5"/>
<path class="st16" d="M899.4,264.6c115.7-1.4,122.8-41.5,122.8-41.5v-51.5c0-52.5-54.3-95-121.3-95h-1.4c-67,0-121.3,42.6-121.3,95
	v51.5c0,0,7.1,40.1,122.8,41.5"/>
<path class="st16" d="M900.2,316c71.2-1.1,100.9-7.4,113.5-10.7c10.1-2.6,8.5-9,8.5-9v-8.5c0,0-42.5,11.5-120.9,10.7H899
	c-78.3,0.9-120.9-10.7-120.9-10.7v8.5c0,0-1.6,6.3,8.5,9C799.3,308.5,829,314.9,900.2,316"/>
<line class="st16" x1="1022.2" y1="287.8" x2="1022.2" y2="223.1"/>
<path class="st7" d="M900.5,105.3"/>
<path class="st7" d="M900.5,105.3"/>
<g>
	<g>
		<path class="st17" d="M900.5,256.7c-107.2-1.3-113.8-38.4-113.8-38.4v-47.7c0-48.6,50.3-88.1,112.4-88.1c2.2,0,2.2,0,2.2,0
			c62.1,0,112.4,39.4,112.4,88.1v47.7c0,0-6.6,37.1-113.8,38.4"/>
	</g>
</g>
<path class="st18" d="M889.5,233.5l8.7,15.3c1.6,2.8,4.5,4.6,7.7,4.9l17.5,1.5c8.1,0.7,11.8,10.4,6.4,16.3l-11.9,13
	c-2.2,2.4-3,5.7-2.3,8.8l4,17.1c1.8,7.9-6.2,14.5-13.6,11.1l-16-7.3c-2.9-1.3-6.3-1.1-9.1,0.5l-15.1,9.1c-6.9,4.2-15.7-1.4-14.8-9.5
	l2-17.5c0.4-3.2-0.9-6.4-3.3-8.5l-13.3-11.5c-6.1-5.3-3.5-15.3,4.4-17l17.2-3.5c3.2-0.6,5.8-2.8,7-5.8l6.9-16.2
	C875.2,227,885.5,226.4,889.5,233.5z"/>
<path class="st18" d="M1004.4,226.4l8.7,15.3c1.6,2.8,4.5,4.6,7.7,4.9l17.5,1.5c8.1,0.7,11.8,10.4,6.4,16.3l-11.9,13
	c-2.2,2.4-3,5.7-2.3,8.8l4,17.1c1.8,7.9-6.2,14.5-13.6,11.1l-16-7.3c-2.9-1.3-6.3-1.1-9.1,0.5l-15.1,9.1c-6.9,4.2-15.7-1.4-14.8-9.5
	l2-17.5c0.4-3.2-0.9-6.4-3.3-8.5l-13.3-11.5c-6.1-5.3-3.5-15.3,4.4-17l17.2-3.5c3.2-0.6,5.8-2.8,7-5.8l6.9-16.2
	C990,219.9,1000.4,219.3,1004.4,226.4z"/>
<line class="st19" x1="932.7" y1="261.7" x2="946.1" y2="260.9"/>
<path class="st20" d="M832.2,268.4c-24.9,8.1-49.2,12.9-73.6,21.5c-2.4,1.2-6.1,6.1-3.6,11.4"/>
<path class="st11" d="M841.3,415.2c34.3,37.9,3.4,56,3.4,56C670.8,508.3,659.2,500,659.2,500l-17.6-79.7L841.3,415.2z"/>
<path class="st12" d="M658.9,367.7c0,0,3.6-3.4-92.2-29c-10.5-2.8-13.6-5-10.9-6.6c0,0-18.4,3.9-8.4,29.3c1.5,3.8,1.4,7.1,0.1,9.8
	c0,0-6.1,13.2,10.2,22.8c16.7,9.8,96.2,36.6,96.5,35.6c0,0,21.5-4.5,18.9-43.5C670.6,347.1,658.9,367.7,658.9,367.7"/>
<path class="st13" d="M650.5,428.3c0,0,84.8,6.8,189.5-13.1c0,0,22.1-13.1,12.9-44.5c-2.5-8.6-8.2-14.1-15.2-17.5
	c0,0-152.9,15.8-182.6,13.3C655.1,366.4,678.7,408.6,650.5,428.3z"/>
<path class="st14" d="M659.2,500c-45.2-17.9-91.3-36-111.1-47.3c0,0-13.6-7-6.8-22.5c0,0,2.5-2.3,1.1-7.6
	c-1.5-5.3-4.7-28.8,11.7-28.6c0,0,46.4,21,85.7,31.2c0,0,35.2,8.3,31,47.9c-1.3,11.7-5.7,20.3-11.4,26.7"/>
<path class="st15" d="M552.7,330.4c0,0,94.6-15.1,195.3-17c1.4-2.9,90.7,26.6,89.9,39l-0.1,0.7c0,0-152.9,15.8-182.6,13.3l-0.4-0.6
	c0,0,4.4-2.8-91.5-28.4l-0.4-0.1c-10.5-2.8-13.6-5-10.9-6.6L552.7,330.4z"/>
<polygon class="st16" points="819.9,330.5 576.3,330.5 576.8,253.7 820.5,253.7 "/>
<path class="st7" d="M820.2,255.1"/>
<line class="st16" x1="576.2" y1="319.8" x2="576.2" y2="255.1"/>
<path class="st16" d="M818.8,188.9c0,0-20.4-104.5-120.9-104.5h0.6c-100.5,0-120.9,104.5-120.9,104.5"/>
<path class="st16" d="M697.4,296.6c115.7-1.4,122.8-41.5,122.8-41.5v-51.5c0-52.5-54.3-95-121.3-95h-1.4c-67,0-121.3,42.6-121.3,95
	v51.5c0,0,7.1,40.1,122.8,41.5"/>
<path class="st16" d="M698.2,348c71.2-1.1,100.9-7.4,113.5-10.7c10.1-2.6,8.5-9,8.5-9v-8.5c0,0-42.5,11.5-120.9,10.7H697
	c-78.3,0.9-120.9-10.7-120.9-10.7v8.5c0,0-1.6,6.3,8.5,9C597.3,340.5,627,346.9,698.2,348"/>
<line class="st16" x1="820.2" y1="319.8" x2="820.2" y2="255.1"/>
<path class="st7" d="M698.5,137.3"/>
<path class="st7" d="M698.5,137.3"/>
<g>
	<g>
		<path class="st17" d="M698.5,288.7c-107.2-1.3-113.8-38.4-113.8-38.4v-47.7c0-48.6,50.3-88.1,112.4-88.1c2.2,0,2.2,0,2.2,0
			c62.1,0,112.4,39.4,112.4,88.1v47.7c0,0-6.6,37.1-113.8,38.4"/>
	</g>
</g>
<path class="st18" d="M687.5,265.5l8.7,15.3c1.6,2.8,4.5,4.6,7.7,4.9l17.5,1.5c8.1,0.7,11.8,10.4,6.4,16.3l-11.9,13
	c-2.2,2.4-3,5.7-2.3,8.8l4,17.1c1.8,7.9-6.2,14.5-13.6,11.1l-16-7.3c-2.9-1.3-6.3-1.1-9.1,0.5l-15.1,9.1c-6.9,4.2-15.7-1.4-14.8-9.5
	l2-17.5c0.4-3.2-0.9-6.4-3.3-8.5l-13.3-11.5c-6.1-5.3-3.5-15.3,4.4-17l17.2-3.5c3.2-0.6,5.8-2.8,7-5.8l6.9-16.2
	C673.2,259,683.5,258.4,687.5,265.5z"/>
<path class="st18" d="M802.4,258.4l8.7,15.3c1.6,2.8,4.5,4.6,7.7,4.9l17.5,1.5c8.1,0.7,11.8,10.4,6.4,16.3l-11.9,13
	c-2.2,2.4-3,5.7-2.3,8.8l4,17.1c1.8,7.9-6.2,14.5-13.6,11.1l-16-7.3c-2.9-1.3-6.3-1.1-9.1,0.5l-15.1,9.1c-6.9,4.2-15.7-1.4-14.8-9.5
	l2-17.5c0.4-3.2-0.9-6.4-3.3-8.5l-13.3-11.5c-6.1-5.3-3.5-15.3,4.4-17l17.2-3.5c3.2-0.6,5.8-2.8,7-5.8l6.9-16.2
	C788,251.9,798.4,251.3,802.4,258.4z"/>
<line class="st19" x1="730.7" y1="293.7" x2="744.1" y2="292.9"/>
<path class="st20" d="M630.2,300.4c-24.9,8.1-49.2,12.9-73.6,21.5c-2.4,1.2-6.1,6.1-3.6,11.4"/>
<path class="st11" d="M571.3,415.2c34.3,37.9,3.4,56,3.4,56C400.8,508.3,389.2,500,389.2,500l-17.6-79.7L571.3,415.2z"/>
<path class="st12" d="M388.9,367.7c0,0,3.6-3.4-92.2-29c-10.5-2.8-13.6-5-10.9-6.6c0,0-18.4,3.9-8.4,29.3c1.5,3.8,1.4,7.1,0.1,9.8
	c0,0-6.1,13.2,10.2,22.8c16.7,9.8,96.2,36.6,96.5,35.6c0,0,21.5-4.5,18.9-43.5C400.6,347.1,388.9,367.7,388.9,367.7"/>
<path class="st13" d="M380.5,428.3c0,0,84.8,6.8,189.5-13.1c0,0,22.1-13.1,12.9-44.5c-2.5-8.6-8.2-14.1-15.2-17.5
	c0,0-152.9,15.8-182.6,13.3C385.1,366.4,408.7,408.6,380.5,428.3z"/>
<path class="st14" d="M389.2,500c-45.2-17.9-91.3-36-111.1-47.3c0,0-13.6-7-6.8-22.5c0,0,2.5-2.3,1.1-7.6
	c-1.5-5.3-4.7-28.8,11.7-28.6c0,0,46.4,21,85.7,31.2c0,0,35.2,8.3,31,47.9c-1.3,11.7-5.7,20.3-11.4,26.7"/>
<path class="st15" d="M282.7,330.4c0,0,94.6-15.1,195.3-17c1.4-2.9,90.7,26.6,89.9,39l-0.1,0.7c0,0-152.9,15.8-182.6,13.3l-0.4-0.6
	c0,0,4.4-2.8-91.5-28.4l-0.4-0.1c-10.5-2.8-13.6-5-10.9-6.6L282.7,330.4z"/>
<polygon class="st16" points="549.9,330.5 306.3,330.5 306.8,253.7 550.5,253.7 "/>
<path class="st7" d="M550.2,255.1"/>
<line class="st16" x1="306.2" y1="319.8" x2="306.2" y2="255.1"/>
<path class="st16" d="M548.8,188.9c0,0-20.4-104.5-120.9-104.5h0.6c-100.5,0-120.9,104.5-120.9,104.5"/>
<path class="st16" d="M427.4,296.6c115.7-1.4,122.8-41.5,122.8-41.5v-51.5c0-52.5-54.3-95-121.3-95h-1.4c-67,0-121.3,42.6-121.3,95
	v51.5c0,0,7.1,40.1,122.8,41.5"/>
<path class="st16" d="M428.2,348c71.2-1.1,100.9-7.4,113.5-10.7c10.1-2.6,8.5-9,8.5-9v-8.5c0,0-42.5,11.5-120.9,10.7H427
	c-78.3,0.9-120.9-10.7-120.9-10.7v8.5c0,0-1.6,6.3,8.5,9C327.3,340.5,357,346.9,428.2,348"/>
<line class="st16" x1="550.2" y1="319.8" x2="550.2" y2="255.1"/>
<path class="st7" d="M428.5,137.3"/>
<path class="st7" d="M428.5,137.3"/>
<g>
	<g>
		<path class="st17" d="M428.5,288.7c-107.2-1.3-113.8-38.4-113.8-38.4v-47.7c0-48.6,50.3-88.1,112.4-88.1c2.2,0,2.2,0,2.2,0
			c62.1,0,112.4,39.4,112.4,88.1v47.7c0,0-6.6,37.1-113.8,38.4"/>
	</g>
</g>
<path class="st18" d="M417.5,265.5l8.7,15.3c1.6,2.8,4.5,4.6,7.7,4.9l17.5,1.5c8.1,0.7,11.8,10.4,6.4,16.3l-11.9,13
	c-2.2,2.4-3,5.7-2.3,8.8l4,17.1c1.8,7.9-6.2,14.5-13.6,11.1l-16-7.3c-2.9-1.3-6.3-1.1-9.1,0.5l-15.1,9.1c-6.9,4.2-15.7-1.4-14.8-9.5
	l2-17.5c0.4-3.2-0.9-6.4-3.3-8.5l-13.3-11.5c-6.1-5.3-3.5-15.3,4.4-17l17.2-3.5c3.2-0.6,5.8-2.8,7-5.8l6.9-16.2
	C403.2,259,413.5,258.4,417.5,265.5z"/>
<path class="st18" d="M532.4,258.4l8.7,15.3c1.6,2.8,4.5,4.6,7.7,4.9l17.5,1.5c8.1,0.7,11.8,10.4,6.4,16.3l-11.9,13
	c-2.2,2.4-3,5.7-2.3,8.8l4,17.1c1.8,7.9-6.2,14.5-13.6,11.1l-16-7.3c-2.9-1.3-6.3-1.1-9.1,0.5l-15.1,9.1c-6.9,4.2-15.7-1.4-14.8-9.5
	l2-17.5c0.4-3.2-0.9-6.4-3.3-8.5l-13.3-11.5c-6.1-5.3-3.5-15.3,4.4-17l17.2-3.5c3.2-0.6,5.8-2.8,7-5.8l6.9-16.2
	C518,251.9,528.4,251.3,532.4,258.4z"/>
<line class="st19" x1="460.7" y1="293.7" x2="474.1" y2="292.9"/>
<path class="st20" d="M360.2,300.4c-24.9,8.1-49.2,12.9-73.6,21.5c-2.4,1.2-6.1,6.1-3.6,11.4"/>
<path class="st11" d="M363.3,444.2c34.3,37.9,3.4,56,3.4,56C192.8,537.3,181.2,529,181.2,529l-17.6-79.7L363.3,444.2z"/>
<path class="st12" d="M180.9,396.7c0,0,3.6-3.4-92.2-29c-10.5-2.8-13.6-5-10.9-6.6c0,0-18.4,3.9-8.4,29.3c1.5,3.8,1.4,7.1,0.1,9.8
	c0,0-6.1,13.2,10.2,22.8c16.7,9.8,96.2,36.6,96.5,35.6c0,0,21.5-4.5,18.9-43.5C192.6,376.1,180.9,396.7,180.9,396.7"/>
<path class="st13" d="M172.5,457.3c0,0,84.8,6.8,189.5-13.1c0,0,22.1-13.1,12.9-44.5c-2.5-8.6-8.2-14.1-15.2-17.5
	c0,0-152.9,15.8-182.6,13.3C177.1,395.4,200.7,437.6,172.5,457.3z"/>
<path class="st14" d="M181.2,529c-45.2-17.9-91.3-36-111.1-47.3c0,0-13.6-7-6.8-22.5c0,0,2.5-2.3,1.1-7.6
	c-1.5-5.3-4.7-28.8,11.7-28.6c0,0,46.4,21,85.7,31.2c0,0,35.2,8.3,31,47.9c-1.3,11.7-5.7,20.3-11.4,26.7"/>
<path class="st15" d="M74.7,359.4c0,0,94.6-15.1,195.3-17c1.4-2.9,90.7,26.6,89.9,39l-0.1,0.7c0,0-152.9,15.8-182.6,13.3l-0.4-0.6
	c0,0,4.4-2.8-91.5-28.4l-0.4-0.1c-10.5-2.8-13.6-5-10.9-6.6L74.7,359.4z"/>
<polygon class="st16" points="341.9,359.5 98.3,359.5 98.8,282.7 342.5,282.7 "/>
<path class="st7" d="M342.2,284.1"/>
<line class="st16" x1="98.2" y1="348.8" x2="98.2" y2="284.1"/>
<path class="st16" d="M340.8,217.9c0,0-20.4-104.5-120.9-104.5h0.6C120,113.4,99.6,217.9,99.6,217.9"/>
<path class="st16" d="M219.4,325.6c115.7-1.4,122.8-41.5,122.8-41.5v-51.5c0-52.5-54.3-95-121.3-95h-1.4c-67,0-121.3,42.6-121.3,95
	v51.5c0,0,7.1,40.1,122.8,41.5"/>
<path class="st16" d="M220.2,377c71.2-1.1,100.9-7.4,113.5-10.7c10.1-2.6,8.5-9,8.5-9v-8.5c0,0-42.5,11.5-120.9,10.7H219
	c-78.3,0.9-120.9-10.7-120.9-10.7v8.5c0,0-1.6,6.3,8.5,9C119.3,369.5,149,375.9,220.2,377"/>
<line class="st16" x1="342.2" y1="348.8" x2="342.2" y2="284.1"/>
<path class="st7" d="M220.5,166.3"/>
<path class="st7" d="M220.5,166.3"/>
<g>
	<g>
		<path class="st17" d="M220.5,317.7c-107.2-1.3-113.8-38.4-113.8-38.4v-47.7c0-48.6,50.3-88.1,112.4-88.1c2.2,0,2.2,0,2.2,0
			c62.1,0,112.4,39.4,112.4,88.1v47.7c0,0-6.6,37.1-113.8,38.4"/>
	</g>
</g>
<path class="st18" d="M209.5,294.5l8.7,15.3c1.6,2.8,4.5,4.6,7.7,4.9l17.5,1.5c8.1,0.7,11.8,10.4,6.4,16.3l-11.9,13
	c-2.2,2.4-3,5.7-2.3,8.8l4,17.1c1.8,7.9-6.2,14.5-13.6,11.1l-16-7.3c-2.9-1.3-6.3-1.1-9.1,0.5l-15.1,9.1c-6.9,4.2-15.7-1.4-14.8-9.5
	l2-17.5c0.4-3.2-0.9-6.4-3.3-8.5l-13.3-11.5c-6.1-5.3-3.5-15.3,4.4-17l17.2-3.5c3.2-0.6,5.8-2.8,7-5.8l6.9-16.2
	C195.2,288,205.5,287.4,209.5,294.5z"/>
<path class="st18" d="M324.4,287.4l8.7,15.3c1.6,2.8,4.5,4.6,7.7,4.9l17.5,1.5c8.1,0.7,11.8,10.4,6.4,16.3l-11.9,13
	c-2.2,2.4-3,5.7-2.3,8.8l4,17.1c1.8,7.9-6.2,14.5-13.6,11.1l-16-7.3c-2.9-1.3-6.3-1.1-9.1,0.5l-15.1,9.1c-6.9,4.2-15.7-1.4-14.8-9.5
	l2-17.5c0.4-3.2-0.9-6.4-3.3-8.5l-13.3-11.5c-6.1-5.3-3.5-15.3,4.4-17l17.2-3.5c3.2-0.6,5.8-2.8,7-5.8l6.9-16.2
	C310,280.9,320.4,280.3,324.4,287.4z"/>
<line class="st19" x1="252.7" y1="322.7" x2="266.1" y2="321.9"/>
<path class="st20" d="M152.2,329.4c-24.9,8.1-49.2,12.9-73.6,21.5c-2.4,1.2-6.1,6.1-3.6,11.4"/>
<g>
	<path class="st21" d="M1260.1,213.3c0-2.1-0.4-2.5-2.5-2.5h-5.4c-4.2,0-6.3-2.1-6.3-6.3v-13.8c0-4.2,2.1-6.3,6.3-6.3h7
		c4.2,0,6.3,2.1,6.3,6.3v7.7h-5.5v-6.8c0-2.1-0.4-2.5-2.5-2.5h-3.7c-2.1,0-2.5,0.4-2.5,2.5v12.1c0,2.1,0.4,2.5,2.5,2.5h5.4
		c4.2,0,6.3,2.1,6.3,6.3v15.4c0,4.2-2.1,6.3-6.3,6.3h-7c-4.2,0-6.3-2.1-6.3-6.3v-7.7h5.5v6.8c0,2.1,0.4,2.5,2.5,2.5h3.6
		c2.1,0,2.5-0.4,2.5-2.5V213.3z"/>
	<path class="st21" d="M1285.5,195.3c4.2,0,6.3,2.1,6.3,6.3v26.2c0,4.2-2.1,6.3-6.3,6.3h-3.2c-2.2,0-3.8-0.7-4.4-2.6v13.9h-5.5
		v-50.1h5.5v2.6c0.6-1.9,2.2-2.6,4.4-2.6H1285.5z M1286.3,202.5c0-2.1-0.4-2.5-2.5-2.5h-3.2c-1.9,0-2.7,0.7-2.7,2.9v23.6
		c0,2.2,0.8,2.9,2.7,2.9h3.2c2.1,0,2.5-0.4,2.5-2.5V202.5z"/>
	<path class="st21" d="M1317.7,195.3v38.8h-5.5v-2.6c-0.6,1.9-2.2,2.6-4.4,2.6h-3.2c-4.2,0-6.3-2.1-6.3-6.3v-26.2
		c0-4.2,2.1-6.3,6.3-6.3h3.2c2.2,0,3.8,0.7,4.4,2.6v-2.6H1317.7z M1309.4,229.4c1.9,0,2.7-0.7,2.7-2.9v-23.6c0-2.2-0.8-2.9-2.7-2.9
		h-3.2c-2.1,0-2.5,0.4-2.5,2.5v24.4c0,2.1,0.4,2.5,2.5,2.5H1309.4z"/>
	<path class="st21" d="M1339,206.8v-4.3c0-2.1-0.4-2.5-2.5-2.5h-4c-2.1,0-2.5,0.4-2.5,2.5v24.4c0,2.1,0.4,2.5,2.5,2.5h4
		c2.1,0,2.5-0.4,2.5-2.5v-4.3h5.5v5.2c0,4.2-2.1,6.3-6.3,6.3h-7.4c-4.2,0-6.3-2.1-6.3-6.3v-26.2c0-4.2,2.1-6.3,6.3-6.3h7.4
		c4.2,0,6.3,2.1,6.3,6.3v5.2H1339z"/>
	<path class="st21" d="M1364.6,195.3c4.2,0,6.3,2.1,6.3,6.3v15h-14.5v10.3c0,2.1,0.4,2.5,2.5,2.5h3.8c2.1,0,2.5-0.4,2.5-2.5v-3.5
		h5.5v4.4c0,4.2-2.1,6.3-6.3,6.3h-7.1c-4.2,0-6.3-2.1-6.3-6.3v-26.2c0-4.2,2.1-6.3,6.3-6.3H1364.6z M1365.4,211.9v-9.4
		c0-2.1-0.4-2.5-2.5-2.5h-4c-2.1,0-2.5,0.4-2.5,2.5v9.4H1365.4z"/>
	<path class="st21" d="M1389.2,219.6c0-2.1-0.4-2.5-2.5-2.5h-3.9c-4.2,0-6.3-2.1-6.3-6.3v-9.2c0-4.2,2.1-6.3,6.3-6.3h5.4
		c4.2,0,6.3,2.1,6.3,6.3v3.9h-5.4v-3.1c0-2.1-0.4-2.5-2.5-2.5h-2.2c-2.1,0-2.5,0.4-2.5,2.5v7.6c0,2.1,0.4,2.5,2.5,2.5h3.9
		c4.2,0,6.3,2.1,6.3,6.3v9c0,4.2-2.1,6.3-6.3,6.3h-5.4c-4.2,0-6.3-2.1-6.3-6.3v-3.9h5.4v3.1c0,2.1,0.4,2.5,2.5,2.5h2.2
		c2.1,0,2.5-0.4,2.5-2.5V219.6z"/>
	<path class="st21" d="M1420.5,195.3v38.8h-5.5v-2.6c-0.6,1.9-2.2,2.6-4.4,2.6h-3.2c-4.2,0-6.3-2.1-6.3-6.3v-32.5h5.5v31.6
		c0,2.1,0.4,2.5,2.5,2.5h3.2c1.9,0,2.7-0.7,2.7-2.9v-31.2H1420.5z"/>
	<path class="st21" d="M1427.5,180.5h5.8v6.5h-5.8V180.5z M1427.7,234.1v-38.8h5.5v38.8H1427.7z"/>
	<path class="st21" d="M1446.2,200v26.5c0,2.1,0.4,2.5,2.5,2.5h3v5.1h-4.7c-4.2,0-6.3-2.1-6.3-6.3V200h-3.5v-4.7h3.5V189h5.5v6.3
		h5.5v4.7H1446.2z"/>
	<path class="st21" d="M1484.8,189.1h-8v45h-5.4v-45h-8v-4.7h21.4V189.1z"/>
	<path class="st21" d="M1501.8,195.3v4.8h-2.4c-3.5,0-5,1.9-5,6v28h-5.5v-38.8h5.5v4.5c0.7-2.2,2.6-4.5,5.8-4.5H1501.8z"/>
	<path class="st21" d="M1524.8,195.3v38.8h-5.5v-2.6c-0.6,1.9-2.2,2.6-4.4,2.6h-3.2c-4.2,0-6.3-2.1-6.3-6.3v-26.2
		c0-4.2,2.1-6.3,6.3-6.3h3.2c2.2,0,3.8,0.7,4.4,2.6v-2.6H1524.8z M1516.6,229.4c1.9,0,2.7-0.7,2.7-2.9v-23.6c0-2.2-0.8-2.9-2.7-2.9
		h-3.2c-2.1,0-2.5,0.4-2.5,2.5v24.4c0,2.1,0.4,2.5,2.5,2.5H1516.6z"/>
	<path class="st21" d="M1531.8,180.5h5.8v6.5h-5.8V180.5z M1532,234.1v-38.8h5.5v38.8H1532z"/>
	<path class="st21" d="M1557.8,195.3c4.2,0,6.3,2.1,6.3,6.3v32.5h-5.5v-31.6c0-2.1-0.4-2.5-2.5-2.5h-3.2c-1.9,0-2.7,0.7-2.7,2.9
		v31.2h-5.5v-38.8h5.5v2.6c0.6-1.9,2.2-2.6,4.4-2.6H1557.8z"/>
	<path class="st21" d="M1571.2,180.5h5.8v6.5h-5.8V180.5z M1571.4,234.1v-38.8h5.5v38.8H1571.4z"/>
	<path class="st21" d="M1597.2,195.3c4.2,0,6.3,2.1,6.3,6.3v32.5h-5.5v-31.6c0-2.1-0.4-2.5-2.5-2.5h-3.2c-1.9,0-2.7,0.7-2.7,2.9
		v31.2h-5.5v-38.8h5.5v2.6c0.6-1.9,2.2-2.6,4.4-2.6H1597.2z"/>
	<path class="st21" d="M1629.8,195.3v43.8c0,4.2-2.1,6.3-6.3,6.3h-11.9v-4.7h10.2c2.1,0,2.5-0.4,2.5-2.5v-6.7
		c-0.6,1.9-2.2,2.6-4.4,2.6h-3.2c-4.2,0-6.3-2.1-6.3-6.3v-26.2c0-4.2,2.1-6.3,6.3-6.3h3.2c2.2,0,3.8,0.7,4.4,2.6v-2.6H1629.8z
		 M1621.5,229.4c1.9,0,2.7-0.7,2.7-2.9v-23.6c0-2.2-0.8-2.9-2.7-2.9h-3.2c-2.1,0-2.5,0.4-2.5,2.5v24.4c0,2.1,0.4,2.5,2.5,2.5H1621.5
		z"/>
	<path class="st21" d="M1133.9,280.1c1.9,0,2.8,0.9,2.8,2.8v6.4c0,1-0.5,1.7-1.3,1.8c0.8,0.1,1.3,0.6,1.3,1.7v6.8
		c0,1.9-0.9,2.8-2.8,2.8h-7.1v-22.4H1133.9z M1134.2,283.4c0-0.9-0.2-1.1-1.1-1.1h-3.9v7.8h3.9c0.9,0,1.1-0.2,1.1-1.1V283.4z
		 M1134.2,293.3c0-0.9-0.2-1.1-1.1-1.1h-3.9v8.2h3.9c0.9,0,1.1-0.2,1.1-1.1V293.3z"/>
	<path class="st21" d="M1146.3,285.1c1.9,0,2.8,0.9,2.8,2.8v6.7h-6.5v4.6c0,0.9,0.2,1.1,1.1,1.1h1.7c0.9,0,1.1-0.2,1.1-1.1v-1.6h2.5
		v2c0,1.9-0.9,2.8-2.8,2.8h-3.2c-1.9,0-2.8-0.9-2.8-2.8v-11.8c0-1.9,0.9-2.8,2.8-2.8H1146.3z M1146.7,292.5v-4.2
		c0-0.9-0.2-1.1-1.1-1.1h-1.8c-0.9,0-1.1,0.2-1.1,1.1v4.2H1146.7z"/>
	<path class="st21" d="M1155.9,280.7c-0.9,0-1.1,0.2-1.1,1.1v3.2h2.5v2.1h-2.5v15.3h-2.5v-15.3h-1.7v-2.1h1.7v-3.8
		c0-1.9,0.9-2.8,2.8-2.8h2.2v2.3H1155.9z"/>
	<path class="st21" d="M1165.5,285.1c1.9,0,2.8,0.9,2.8,2.8v11.8c0,1.9-0.9,2.8-2.8,2.8h-3.7c-1.9,0-2.8-0.9-2.8-2.8v-11.8
		c0-1.9,0.9-2.8,2.8-2.8H1165.5z M1165.8,288.3c0-0.9-0.2-1.1-1.1-1.1h-2.2c-0.9,0-1.1,0.2-1.1,1.1v11c0,0.9,0.2,1.1,1.1,1.1h2.2
		c0.9,0,1.1-0.2,1.1-1.1V288.3z"/>
	<path class="st21" d="M1177.2,285.1v2.2h-1.1c-1.6,0-2.3,0.9-2.3,2.7v12.6h-2.5v-17.5h2.5v2c0.3-1,1.2-2,2.6-2H1177.2z"/>
	<path class="st21" d="M1185.1,285.1c1.9,0,2.8,0.9,2.8,2.8v6.7h-6.5v4.6c0,0.9,0.2,1.1,1.1,1.1h1.7c0.9,0,1.1-0.2,1.1-1.1v-1.6h2.5
		v2c0,1.9-0.9,2.8-2.8,2.8h-3.2c-1.9,0-2.8-0.9-2.8-2.8v-11.8c0-1.9,0.9-2.8,2.8-2.8H1185.1z M1185.5,292.5v-4.2
		c0-0.9-0.2-1.1-1.1-1.1h-1.8c-0.9,0-1.1,0.2-1.1,1.1v4.2H1185.5z"/>
	<path class="st21" d="M1198.2,287.2v11.9c0,0.9,0.2,1.1,1.1,1.1h1.4v2.3h-2.1c-1.9,0-2.8-0.9-2.8-2.8v-12.5h-1.6v-2.1h1.6v-2.8h2.5
		v2.8h2.5v2.1H1198.2z"/>
	<path class="st21" d="M1211.2,285.1v17.5h-2.5v-1.2c-0.3,0.9-1,1.2-2,1.2h-1.4c-1.9,0-2.8-0.9-2.8-2.8v-11.8c0-1.9,0.9-2.8,2.8-2.8
		h1.4c1,0,1.7,0.3,2,1.2v-1.2H1211.2z M1207.5,300.4c0.9,0,1.2-0.3,1.2-1.3v-10.6c0-1-0.4-1.3-1.2-1.3h-1.4c-0.9,0-1.1,0.2-1.1,1.1
		v11c0,0.9,0.2,1.1,1.1,1.1H1207.5z"/>
	<path class="st21" d="M1214.4,278.4h2.5v24.1h-2.5V278.4z M1220.3,293.3l4.1,9.2h-2.7l-4-9.2l4-8.2h2.7L1220.3,293.3z"/>
	<path class="st21" d="M1232.3,285.1c1.9,0,2.8,0.9,2.8,2.8v6.7h-6.5v4.6c0,0.9,0.2,1.1,1.1,1.1h1.7c0.9,0,1.1-0.2,1.1-1.1v-1.6h2.5
		v2c0,1.9-0.9,2.8-2.8,2.8h-3.2c-1.9,0-2.8-0.9-2.8-2.8v-11.8c0-1.9,0.9-2.8,2.8-2.8H1232.3z M1232.7,292.5v-4.2
		c0-0.9-0.2-1.1-1.1-1.1h-1.8c-0.9,0-1.1,0.2-1.1,1.1v4.2H1232.7z"/>
	<path class="st21" d="M1244.4,285.1c1.9,0,2.8,0.9,2.8,2.8v11.8c0,1.9-0.9,2.8-2.8,2.8h-3.7c-1.9,0-2.8-0.9-2.8-2.8v-11.8
		c0-1.9,0.9-2.8,2.8-2.8H1244.4z M1244.8,288.3c0-0.9-0.2-1.1-1.1-1.1h-2.2c-0.9,0-1.1,0.2-1.1,1.1v11c0,0.9,0.2,1.1,1.1,1.1h2.2
		c0.9,0,1.1-0.2,1.1-1.1V288.3z"/>
	<path class="st21" d="M1254.2,280.7c-0.9,0-1.1,0.2-1.1,1.1v3.2h2.5v2.1h-2.5v15.3h-2.5v-15.3h-1.7v-2.1h1.7v-3.8
		c0-1.9,0.9-2.8,2.8-2.8h2.2v2.3H1254.2z"/>
	<path class="st21" d="M1261.2,280.7c-0.9,0-1.1,0.2-1.1,1.1v3.2h2.5v2.1h-2.5v15.3h-2.5v-15.3h-1.7v-2.1h1.7v-3.8
		c0-1.9,0.9-2.8,2.8-2.8h2.2v2.3H1261.2z"/>
	<path class="st21" d="M1266.9,298.5v2.1l-2,6.9h-1v-9H1266.9z"/>
	<path class="st21" d="M1282.8,285.1v17.5h-2.5v-1.2c-0.3,0.9-1,1.2-2,1.2h-1.4c-1.9,0-2.8-0.9-2.8-2.8v-11.8c0-1.9,0.9-2.8,2.8-2.8
		h1.4c1,0,1.7,0.3,2,1.2v-1.2H1282.8z M1279.1,300.4c0.9,0,1.2-0.3,1.2-1.3v-10.6c0-1-0.4-1.3-1.2-1.3h-1.4c-0.9,0-1.1,0.2-1.1,1.1
		v11c0,0.9,0.2,1.1,1.1,1.1H1279.1z"/>
	<path class="st21" d="M1286.1,302.5v-24.1h2.5v24.1H1286.1z"/>
	<path class="st21" d="M1291.8,302.5v-24.1h2.5v24.1H1291.8z"/>
	<path class="st21" d="M1314.3,285.1c1.9,0,2.8,0.9,2.8,2.8v14.6h-2.5v-14.2c0-0.9-0.2-1.1-1.1-1.1h-1.4c-0.9,0-1.2,0.3-1.2,1.3v14
		h-2.5v-14.2c0-0.9-0.2-1.1-1.1-1.1h-1.4c-0.9,0-1.2,0.3-1.2,1.3v14h-2.5v-17.5h2.5v1.2c0.3-0.9,1-1.2,2-1.2h1.4
		c1.4,0,2.2,0.5,2.6,1.4c0.3-1,1.1-1.4,2.2-1.4H1314.3z"/>
	<path class="st21" d="M1326.4,285.1c1.9,0,2.8,0.9,2.8,2.8v6.7h-6.5v4.6c0,0.9,0.2,1.1,1.1,1.1h1.7c0.9,0,1.1-0.2,1.1-1.1v-1.6h2.5
		v2c0,1.9-0.9,2.8-2.8,2.8h-3.2c-1.9,0-2.8-0.9-2.8-2.8v-11.8c0-1.9,0.9-2.8,2.8-2.8H1326.4z M1326.8,292.5v-4.2
		c0-0.9-0.2-1.1-1.1-1.1h-1.8c-0.9,0-1.1,0.2-1.1,1.1v4.2H1326.8z"/>
	<path class="st21" d="M1344.3,285.1c1.9,0,2.8,0.9,2.8,2.8v14.6h-2.5v-14.2c0-0.9-0.2-1.1-1.1-1.1h-1.4c-0.9,0-1.2,0.3-1.2,1.3v14
		h-2.5v-14.2c0-0.9-0.2-1.1-1.1-1.1h-1.4c-0.9,0-1.2,0.3-1.2,1.3v14h-2.5v-17.5h2.5v1.2c0.3-0.9,1-1.2,2-1.2h1.4
		c1.4,0,2.2,0.5,2.6,1.4c0.3-1,1.1-1.4,2.2-1.4H1344.3z"/>
	<path class="st21" d="M1356.1,285c1.9,0,2.8,0.9,2.8,2.8v11.8c0,1.9-0.9,2.8-2.8,2.8h-1.4c-1,0-1.7-0.3-2-1.2v1.2h-2.5v-24.1h2.5
		v7.8c0.3-0.9,1-1.2,2-1.2H1356.1z M1356.5,288.3c0-0.9-0.2-1.1-1.1-1.1h-1.4c-0.9,0-1.2,0.3-1.2,1.3v10.7c0,1,0.4,1.3,1.2,1.3h1.4
		c0.9,0,1.1-0.2,1.1-1.1V288.3z"/>
	<path class="st21" d="M1368.2,285.1c1.9,0,2.8,0.9,2.8,2.8v6.7h-6.5v4.6c0,0.9,0.2,1.1,1.1,1.1h1.7c0.9,0,1.1-0.2,1.1-1.1v-1.6h2.5
		v2c0,1.9-0.9,2.8-2.8,2.8h-3.2c-1.9,0-2.8-0.9-2.8-2.8v-11.8c0-1.9,0.9-2.8,2.8-2.8H1368.2z M1368.5,292.5v-4.2
		c0-0.9-0.2-1.1-1.1-1.1h-1.8c-0.9,0-1.1,0.2-1.1,1.1v4.2H1368.5z"/>
	<path class="st21" d="M1379.7,285.1v2.2h-1.1c-1.6,0-2.3,0.9-2.3,2.7v12.6h-2.5v-17.5h2.5v2c0.3-1,1.2-2,2.6-2H1379.7z"/>
	<path class="st21" d="M1386.9,296c0-0.9-0.2-1.1-1.1-1.1h-1.8c-1.9,0-2.8-0.9-2.8-2.8v-4.1c0-1.9,0.9-2.8,2.8-2.8h2.4
		c1.9,0,2.8,0.9,2.8,2.8v1.8h-2.4v-1.4c0-0.9-0.2-1.1-1.1-1.1h-1c-0.9,0-1.1,0.2-1.1,1.1v3.4c0,0.9,0.2,1.1,1.1,1.1h1.8
		c1.9,0,2.8,0.9,2.8,2.8v4c0,1.9-0.9,2.8-2.8,2.8h-2.4c-1.9,0-2.8-0.9-2.8-2.8v-1.8h2.4v1.4c0,0.9,0.2,1.1,1.1,1.1h1
		c0.9,0,1.1-0.2,1.1-1.1V296z"/>
	<path class="st21" d="M1403.2,285.1c1.9,0,2.8,0.9,2.8,2.8v11.8c0,1.9-0.9,2.8-2.8,2.8h-3.7c-1.9,0-2.8-0.9-2.8-2.8v-11.8
		c0-1.9,0.9-2.8,2.8-2.8H1403.2z M1403.6,288.3c0-0.9-0.2-1.1-1.1-1.1h-2.2c-0.9,0-1.1,0.2-1.1,1.1v11c0,0.9,0.2,1.1,1.1,1.1h2.2
		c0.9,0,1.1-0.2,1.1-1.1V288.3z"/>
	<path class="st21" d="M1413,280.7c-0.9,0-1.1,0.2-1.1,1.1v3.2h2.5v2.1h-2.5v15.3h-2.5v-15.3h-1.7v-2.1h1.7v-3.8
		c0-1.9,0.9-2.8,2.8-2.8h2.2v2.3H1413z"/>
	<path class="st21" d="M1423.5,287.2v11.9c0,0.9,0.2,1.1,1.1,1.1h1.4v2.3h-2.1c-1.9,0-2.8-0.9-2.8-2.8v-12.5h-1.6v-2.1h1.6v-2.8h2.5
		v2.8h2.5v2.1H1423.5z"/>
	<path class="st21" d="M1433.9,285.1c1.9,0,2.8,0.9,2.8,2.8v14.6h-2.5v-14.2c0-0.9-0.2-1.1-1.1-1.1h-1.4c-0.9,0-1.2,0.3-1.2,1.3v14
		h-2.5v-24.1h2.5v7.8c0.3-0.9,1-1.2,2-1.2H1433.9z"/>
	<path class="st21" d="M1446.1,285.1c1.9,0,2.8,0.9,2.8,2.8v6.7h-6.5v4.6c0,0.9,0.2,1.1,1.1,1.1h1.7c0.9,0,1.1-0.2,1.1-1.1v-1.6h2.5
		v2c0,1.9-0.9,2.8-2.8,2.8h-3.2c-1.9,0-2.8-0.9-2.8-2.8v-11.8c0-1.9,0.9-2.8,2.8-2.8H1446.1z M1446.5,292.5v-4.2
		c0-0.9-0.2-1.1-1.1-1.1h-1.8c-0.9,0-1.1,0.2-1.1,1.1v4.2H1446.5z"/>
	<path class="st21" d="M1462.9,290.2v-1.9c0-0.9-0.2-1.1-1.1-1.1h-1.8c-0.9,0-1.1,0.2-1.1,1.1v11c0,0.9,0.2,1.1,1.1,1.1h1.8
		c0.9,0,1.1-0.2,1.1-1.1v-1.9h2.5v2.3c0,1.9-0.9,2.8-2.8,2.8h-3.3c-1.9,0-2.8-0.9-2.8-2.8v-11.8c0-1.9,0.9-2.8,2.8-2.8h3.3
		c1.9,0,2.8,0.9,2.8,2.8v2.3H1462.9z"/>
	<path class="st21" d="M1474.1,285.1v2.2h-1.1c-1.6,0-2.3,0.9-2.3,2.7v12.6h-2.5v-17.5h2.5v2c0.3-1,1.2-2,2.6-2H1474.1z"/>
	<path class="st21" d="M1482,285.1c1.9,0,2.8,0.9,2.8,2.8v6.7h-6.5v4.6c0,0.9,0.2,1.1,1.1,1.1h1.7c0.9,0,1.1-0.2,1.1-1.1v-1.6h2.5v2
		c0,1.9-0.9,2.8-2.8,2.8h-3.2c-1.9,0-2.8-0.9-2.8-2.8v-11.8c0-1.9,0.9-2.8,2.8-2.8H1482z M1482.4,292.5v-4.2c0-0.9-0.2-1.1-1.1-1.1
		h-1.8c-0.9,0-1.1,0.2-1.1,1.1v4.2H1482.4z"/>
	<path class="st21" d="M1504.2,285.1l-3.1,17.5h-3.8l-2.1-14l-2.1,14h-3.8l-3.1-17.5h2.4l2.6,15.7l2.3-15.7h3.4l2.2,15.7l2.6-15.7
		H1504.2z"/>
	<path class="st21" d="M1527.1,285.1l-3.1,17.5h-3.8l-2.1-14l-2.1,14h-3.8l-3.1-17.5h2.4l2.6,15.7l2.3-15.7h3.4l2.2,15.7l2.6-15.7
		H1527.1z"/>
	<path class="st21" d="M1528.9,278.4h2.6v2.9h-2.6V278.4z M1528.9,302.5v-17.5h2.5v17.5H1528.9z"/>
	<path class="st21" d="M1534.7,302.5v-24.1h2.5v24.1H1534.7z"/>
	<path class="st21" d="M1540.4,302.5v-24.1h2.5v24.1H1540.4z"/>
	<path class="st21" d="M1556.7,285c1.9,0,2.8,0.9,2.8,2.8v11.8c0,1.9-0.9,2.8-2.8,2.8h-1.4c-1,0-1.7-0.3-2-1.2v1.2h-2.5v-24.1h2.5
		v7.8c0.3-0.9,1-1.2,2-1.2H1556.7z M1557.1,288.3c0-0.9-0.2-1.1-1.1-1.1h-1.4c-0.9,0-1.2,0.3-1.2,1.3v10.7c0,1,0.4,1.3,1.2,1.3h1.4
		c0.9,0,1.1-0.2,1.1-1.1V288.3z"/>
	<path class="st21" d="M1568.8,285.1c1.9,0,2.8,0.9,2.8,2.8v6.7h-6.5v4.6c0,0.9,0.2,1.1,1.1,1.1h1.7c0.9,0,1.1-0.2,1.1-1.1v-1.6h2.5
		v2c0,1.9-0.9,2.8-2.8,2.8h-3.2c-1.9,0-2.8-0.9-2.8-2.8v-11.8c0-1.9,0.9-2.8,2.8-2.8H1568.8z M1569.1,292.5v-4.2
		c0-0.9-0.2-1.1-1.1-1.1h-1.8c-0.9,0-1.1,0.2-1.1,1.1v4.2H1569.1z"/>
	<path class="st21" d="M1579.1,278.4h2.6v2.9h-2.6V278.4z M1579.2,302.5v-17.5h2.5v17.5H1579.2z"/>
	<path class="st21" d="M1590.8,285.1c1.9,0,2.8,0.9,2.8,2.8v14.6h-2.5v-14.2c0-0.9-0.2-1.1-1.1-1.1h-1.4c-0.9,0-1.2,0.3-1.2,1.3v14
		h-2.5v-17.5h2.5v1.2c0.3-0.9,1-1.2,2-1.2H1590.8z"/>
	<path class="st21" d="M1602.2,296c0-0.9-0.2-1.1-1.1-1.1h-1.8c-1.9,0-2.8-0.9-2.8-2.8v-4.1c0-1.9,0.9-2.8,2.8-2.8h2.4
		c1.9,0,2.8,0.9,2.8,2.8v1.8h-2.4v-1.4c0-0.9-0.2-1.1-1.1-1.1h-1c-0.9,0-1.1,0.2-1.1,1.1v3.4c0,0.9,0.2,1.1,1.1,1.1h1.8
		c1.9,0,2.8,0.9,2.8,2.8v4c0,1.9-0.9,2.8-2.8,2.8h-2.4c-1.9,0-2.8-0.9-2.8-2.8v-1.8h2.4v1.4c0,0.9,0.2,1.1,1.1,1.1h1
		c0.9,0,1.1-0.2,1.1-1.1V296z"/>
	<path class="st21" d="M1610.2,287.2v11.9c0,0.9,0.2,1.1,1.1,1.1h1.4v2.3h-2.1c-1.9,0-2.8-0.9-2.8-2.8v-12.5h-1.6v-2.1h1.6v-2.8h2.5
		v2.8h2.5v2.1H1610.2z"/>
	<path class="st21" d="M1620.5,285.1v2.2h-1.1c-1.6,0-2.3,0.9-2.3,2.7v12.6h-2.5v-17.5h2.5v2c0.3-1,1.2-2,2.6-2H1620.5z"/>
	<path class="st21" d="M1631,285.1v17.5h-2.5v-1.2c-0.3,0.9-1,1.2-2,1.2h-1.4c-1.9,0-2.8-0.9-2.8-2.8v-14.6h2.5v14.2
		c0,0.9,0.2,1.1,1.1,1.1h1.4c0.9,0,1.2-0.3,1.2-1.3v-14H1631z"/>
	<path class="st21" d="M1640.6,290.2v-1.9c0-0.9-0.2-1.1-1.1-1.1h-1.8c-0.9,0-1.1,0.2-1.1,1.1v11c0,0.9,0.2,1.1,1.1,1.1h1.8
		c0.9,0,1.1-0.2,1.1-1.1v-1.9h2.5v2.3c0,1.9-0.9,2.8-2.8,2.8h-3.3c-1.9,0-2.8-0.9-2.8-2.8v-11.8c0-1.9,0.9-2.8,2.8-2.8h3.3
		c1.9,0,2.8,0.9,2.8,2.8v2.3H1640.6z"/>
	<path class="st21" d="M1648.6,287.2v11.9c0,0.9,0.2,1.1,1.1,1.1h1.4v2.3h-2.1c-1.9,0-2.8-0.9-2.8-2.8v-12.5h-1.6v-2.1h1.6v-2.8h2.5
		v2.8h2.5v2.1H1648.6z"/>
	<path class="st21" d="M1659.2,285.1c1.9,0,2.8,0.9,2.8,2.8v6.7h-6.5v4.6c0,0.9,0.2,1.1,1.1,1.1h1.7c0.9,0,1.1-0.2,1.1-1.1v-1.6h2.5
		v2c0,1.9-0.9,2.8-2.8,2.8h-3.2c-1.9,0-2.8-0.9-2.8-2.8v-11.8c0-1.9,0.9-2.8,2.8-2.8H1659.2z M1659.6,292.5v-4.2
		c0-0.9-0.2-1.1-1.1-1.1h-1.8c-0.9,0-1.1,0.2-1.1,1.1v4.2H1659.6z"/>
	<path class="st21" d="M1673.5,278.4v24.1h-2.5v-1.2c-0.3,0.9-1,1.2-2,1.2h-1.4c-1.9,0-2.8-0.9-2.8-2.8v-11.8c0-1.9,0.9-2.8,2.8-2.8
		h1.4c1,0,1.7,0.3,2,1.2v-7.8H1673.5z M1669.8,300.4c0.9,0,1.2-0.3,1.2-1.3v-10.7c0-1-0.4-1.3-1.2-1.3h-1.4c-0.9,0-1.1,0.2-1.1,1.1
		v11c0,0.9,0.2,1.1,1.1,1.1H1669.8z"/>
	<path class="st21" d="M1687.8,285.1c1.9,0,2.8,0.9,2.8,2.8v11.8c0,1.9-0.9,2.8-2.8,2.8h-3.7c-1.9,0-2.8-0.9-2.8-2.8v-11.8
		c0-1.9,0.9-2.8,2.8-2.8H1687.8z M1688.2,288.3c0-0.9-0.2-1.1-1.1-1.1h-2.2c-0.9,0-1.1,0.2-1.1,1.1v11c0,0.9,0.2,1.1,1.1,1.1h2.2
		c0.9,0,1.1-0.2,1.1-1.1V288.3z"/>
	<path class="st21" d="M1699.6,285.1c1.9,0,2.8,0.9,2.8,2.8v14.6h-2.5v-14.2c0-0.9-0.2-1.1-1.1-1.1h-1.4c-0.9,0-1.2,0.3-1.2,1.3v14
		h-2.5v-17.5h2.5v1.2c0.3-0.9,1-1.2,2-1.2H1699.6z"/>
	<path class="st21" d="M1716.2,285.1c1.9,0,2.8,0.9,2.8,2.8v14.6h-2.5v-14.2c0-0.9-0.2-1.1-1.1-1.1h-1.4c-0.9,0-1.2,0.3-1.2,1.3v14
		h-2.5v-24.1h2.5v7.8c0.3-0.9,1-1.2,2-1.2H1716.2z"/>
	<path class="st21" d="M1728.7,285.1c1.9,0,2.8,0.9,2.8,2.8v11.8c0,1.9-0.9,2.8-2.8,2.8h-3.7c-1.9,0-2.8-0.9-2.8-2.8v-11.8
		c0-1.9,0.9-2.8,2.8-2.8H1728.7z M1729.1,288.3c0-0.9-0.2-1.1-1.1-1.1h-2.2c-0.9,0-1.1,0.2-1.1,1.1v11c0,0.9,0.2,1.1,1.1,1.1h2.2
		c0.9,0,1.1-0.2,1.1-1.1V288.3z"/>
	<path class="st21" d="M1751,285.1l-3.1,17.5h-3.8l-2.1-14l-2.1,14h-3.8l-3.1-17.5h2.4l2.6,15.7l2.3-15.7h3.4l2.2,15.7l2.6-15.7
		H1751z"/>
	<path class="st21" d="M1141.9,330.4v11.9c0,0.9,0.2,1.1,1.1,1.1h1.4v2.3h-2.1c-1.9,0-2.8-0.9-2.8-2.8v-12.5h-1.6v-2.1h1.6v-2.8h2.5
		v2.8h2.5v2.1H1141.9z"/>
	<path class="st21" d="M1152.7,328.3c1.9,0,2.8,0.9,2.8,2.8v11.8c0,1.9-0.9,2.8-2.8,2.8h-3.7c-1.9,0-2.8-0.9-2.8-2.8v-11.8
		c0-1.9,0.9-2.8,2.8-2.8H1152.7z M1153.1,331.5c0-0.9-0.2-1.1-1.1-1.1h-2.2c-0.9,0-1.1,0.2-1.1,1.1v11c0,0.9,0.2,1.1,1.1,1.1h2.2
		c0.9,0,1.1-0.2,1.1-1.1V331.5z"/>
	<path class="st21" d="M1169.6,328.3c1.9,0,2.8,0.9,2.8,2.8v11.8c0,1.9-0.9,2.8-2.8,2.8h-3.7c-1.9,0-2.8-0.9-2.8-2.8v-11.8
		c0-1.9,0.9-2.8,2.8-2.8H1169.6z M1170,331.5c0-0.9-0.2-1.1-1.1-1.1h-2.2c-0.9,0-1.1,0.2-1.1,1.1v11c0,0.9,0.2,1.1,1.1,1.1h2.2
		c0.9,0,1.1-0.2,1.1-1.1V331.5z"/>
	<path class="st21" d="M1181.4,328.3c1.9,0,2.8,0.9,2.8,2.8v11.8c0,1.9-0.9,2.8-2.8,2.8h-1.4c-1,0-1.7-0.3-2-1.2v6.3h-2.5v-22.5h2.5
		v1.2c0.3-0.9,1-1.2,2-1.2H1181.4z M1181.8,331.5c0-0.9-0.2-1.1-1.1-1.1h-1.4c-0.9,0-1.2,0.3-1.2,1.3v10.6c0,1,0.4,1.3,1.2,1.3h1.4
		c0.9,0,1.1-0.2,1.1-1.1V331.5z"/>
	<path class="st21" d="M1193.5,328.3c1.9,0,2.8,0.9,2.8,2.8v6.7h-6.5v4.6c0,0.9,0.2,1.1,1.1,1.1h1.7c0.9,0,1.1-0.2,1.1-1.1v-1.6h2.5
		v2c0,1.9-0.9,2.8-2.8,2.8h-3.2c-1.9,0-2.8-0.9-2.8-2.8v-11.8c0-1.9,0.9-2.8,2.8-2.8H1193.5z M1193.8,335.7v-4.2
		c0-0.9-0.2-1.1-1.1-1.1h-1.8c-0.9,0-1.1,0.2-1.1,1.1v4.2H1193.8z"/>
	<path class="st21" d="M1205,328.3v2.2h-1.1c-1.6,0-2.3,0.9-2.3,2.7v12.6h-2.5v-17.5h2.5v2c0.3-1,1.2-2,2.6-2H1205z"/>
	<path class="st21" d="M1215.4,328.3v17.5h-2.5v-1.2c-0.3,0.9-1,1.2-2,1.2h-1.4c-1.9,0-2.8-0.9-2.8-2.8v-11.8c0-1.9,0.9-2.8,2.8-2.8
		h1.4c1,0,1.7,0.3,2,1.2v-1.2H1215.4z M1211.7,343.6c0.9,0,1.2-0.3,1.2-1.3v-10.6c0-1-0.4-1.3-1.2-1.3h-1.4c-0.9,0-1.1,0.2-1.1,1.1
		v11c0,0.9,0.2,1.1,1.1,1.1H1211.7z"/>
	<path class="st21" d="M1221.3,330.4v11.9c0,0.9,0.2,1.1,1.1,1.1h1.4v2.3h-2.1c-1.9,0-2.8-0.9-2.8-2.8v-12.5h-1.6v-2.1h1.6v-2.8h2.5
		v2.8h2.5v2.1H1221.3z"/>
	<path class="st21" d="M1231.9,328.3c1.9,0,2.8,0.9,2.8,2.8v6.7h-6.5v4.6c0,0.9,0.2,1.1,1.1,1.1h1.7c0.9,0,1.1-0.2,1.1-1.1v-1.6h2.5
		v2c0,1.9-0.9,2.8-2.8,2.8h-3.2c-1.9,0-2.8-0.9-2.8-2.8v-11.8c0-1.9,0.9-2.8,2.8-2.8H1231.9z M1232.2,335.7v-4.2
		c0-0.9-0.2-1.1-1.1-1.1h-1.8c-0.9,0-1.1,0.2-1.1,1.1v4.2H1232.2z"/>
	<path class="st21" d="M1250.8,328.3v17.5h-2.5v-1.2c-0.3,0.9-1,1.2-2,1.2h-1.4c-1.9,0-2.8-0.9-2.8-2.8v-11.8c0-1.9,0.9-2.8,2.8-2.8
		h1.4c1,0,1.7,0.3,2,1.2v-1.2H1250.8z M1247.1,343.6c0.9,0,1.2-0.3,1.2-1.3v-10.6c0-1-0.4-1.3-1.2-1.3h-1.4c-0.9,0-1.1,0.2-1.1,1.1
		v11c0,0.9,0.2,1.1,1.1,1.1H1247.1z"/>
	<path class="st21" d="M1260,328.3c1.9,0,2.8,0.9,2.8,2.8v14.6h-2.5v-14.2c0-0.9-0.2-1.1-1.1-1.1h-1.4c-0.9,0-1.2,0.3-1.2,1.3v14
		h-2.5v-17.5h2.5v1.2c0.3-0.9,1-1.2,2-1.2H1260z"/>
	<path class="st21" d="M1274.6,321.6v24.1h-2.5v-1.2c-0.3,0.9-1,1.2-2,1.2h-1.4c-1.9,0-2.8-0.9-2.8-2.8v-11.8c0-1.9,0.9-2.8,2.8-2.8
		h1.4c1,0,1.7,0.3,2,1.2v-7.8H1274.6z M1270.9,343.6c0.9,0,1.2-0.3,1.2-1.3v-10.7c0-1-0.4-1.3-1.2-1.3h-1.4c-0.9,0-1.1,0.2-1.1,1.1
		v11c0,0.9,0.2,1.1,1.1,1.1H1270.9z"/>
	<path class="st21" d="M1291.3,328.3v17.5h-2.5v-1.2c-0.3,0.9-1,1.2-2,1.2h-1.4c-1.9,0-2.8-0.9-2.8-2.8v-14.6h2.5v14.2
		c0,0.9,0.2,1.1,1.1,1.1h1.4c0.9,0,1.2-0.3,1.2-1.3v-14H1291.3z"/>
	<path class="st21" d="M1299.9,339.2c0-0.9-0.2-1.1-1.1-1.1h-1.8c-1.9,0-2.8-0.9-2.8-2.8v-4.1c0-1.9,0.9-2.8,2.8-2.8h2.4
		c1.9,0,2.8,0.9,2.8,2.8v1.8h-2.4v-1.4c0-0.9-0.2-1.1-1.1-1.1h-1c-0.9,0-1.1,0.2-1.1,1.1v3.4c0,0.9,0.2,1.1,1.1,1.1h1.8
		c1.9,0,2.8,0.9,2.8,2.8v4c0,1.9-0.9,2.8-2.8,2.8h-2.4c-1.9,0-2.8-0.9-2.8-2.8v-1.8h2.4v1.4c0,0.9,0.2,1.1,1.1,1.1h1
		c0.9,0,1.1-0.2,1.1-1.1V339.2z"/>
	<path class="st21" d="M1311.4,328.3c1.9,0,2.8,0.9,2.8,2.8v6.7h-6.5v4.6c0,0.9,0.2,1.1,1.1,1.1h1.7c0.9,0,1.1-0.2,1.1-1.1v-1.6h2.5
		v2c0,1.9-0.9,2.8-2.8,2.8h-3.2c-1.9,0-2.8-0.9-2.8-2.8v-11.8c0-1.9,0.9-2.8,2.8-2.8H1311.4z M1311.8,335.7v-4.2
		c0-0.9-0.2-1.1-1.1-1.1h-1.8c-0.9,0-1.1,0.2-1.1,1.1v4.2H1311.8z"/>
	<path class="st21" d="M1330.4,328.3v17.5h-2.5v-1.2c-0.3,0.9-1,1.2-2,1.2h-1.4c-1.9,0-2.8-0.9-2.8-2.8v-11.8c0-1.9,0.9-2.8,2.8-2.8
		h1.4c1,0,1.7,0.3,2,1.2v-1.2H1330.4z M1326.7,343.6c0.9,0,1.2-0.3,1.2-1.3v-10.6c0-1-0.4-1.3-1.2-1.3h-1.4c-0.9,0-1.1,0.2-1.1,1.1
		v11c0,0.9,0.2,1.1,1.1,1.1H1326.7z"/>
	<path class="st21" d="M1333.6,345.7v-24.1h2.5v24.1H1333.6z"/>
	<path class="st21" d="M1339.3,345.7v-24.1h2.5v24.1H1339.3z"/>
	<path class="st21" d="M1355.1,339.2c0-0.9-0.2-1.1-1.1-1.1h-1.8c-1.9,0-2.8-0.9-2.8-2.8v-4.1c0-1.9,0.9-2.8,2.8-2.8h2.4
		c1.9,0,2.8,0.9,2.8,2.8v1.8h-2.4v-1.4c0-0.9-0.2-1.1-1.1-1.1h-1c-0.9,0-1.1,0.2-1.1,1.1v3.4c0,0.9,0.2,1.1,1.1,1.1h1.8
		c1.9,0,2.8,0.9,2.8,2.8v4c0,1.9-0.9,2.8-2.8,2.8h-2.4c-1.9,0-2.8-0.9-2.8-2.8v-1.8h2.4v1.4c0,0.9,0.2,1.1,1.1,1.1h1
		c0.9,0,1.1-0.2,1.1-1.1V339.2z"/>
	<path class="st21" d="M1366.3,328.3c1.9,0,2.8,0.9,2.8,2.8v11.8c0,1.9-0.9,2.8-2.8,2.8h-1.4c-1,0-1.7-0.3-2-1.2v6.3h-2.5v-22.5h2.5
		v1.2c0.3-0.9,1-1.2,2-1.2H1366.3z M1366.7,331.5c0-0.9-0.2-1.1-1.1-1.1h-1.4c-0.9,0-1.2,0.3-1.2,1.3v10.6c0,1,0.4,1.3,1.2,1.3h1.4
		c0.9,0,1.1-0.2,1.1-1.1V331.5z"/>
	<path class="st21" d="M1380.8,328.3v17.5h-2.5v-1.2c-0.3,0.9-1,1.2-2,1.2h-1.4c-1.9,0-2.8-0.9-2.8-2.8v-11.8c0-1.9,0.9-2.8,2.8-2.8
		h1.4c1,0,1.7,0.3,2,1.2v-1.2H1380.8z M1377.1,343.6c0.9,0,1.2-0.3,1.2-1.3v-10.6c0-1-0.4-1.3-1.2-1.3h-1.4c-0.9,0-1.1,0.2-1.1,1.1
		v11c0,0.9,0.2,1.1,1.1,1.1H1377.1z"/>
	<path class="st21" d="M1390.4,333.4v-1.9c0-0.9-0.2-1.1-1.1-1.1h-1.8c-0.9,0-1.1,0.2-1.1,1.1v11c0,0.9,0.2,1.1,1.1,1.1h1.8
		c0.9,0,1.1-0.2,1.1-1.1v-1.9h2.5v2.3c0,1.9-0.9,2.8-2.8,2.8h-3.3c-1.9,0-2.8-0.9-2.8-2.8v-11.8c0-1.9,0.9-2.8,2.8-2.8h3.3
		c1.9,0,2.8,0.9,2.8,2.8v2.3H1390.4z"/>
	<path class="st21" d="M1401.9,328.3c1.9,0,2.8,0.9,2.8,2.8v6.7h-6.5v4.6c0,0.9,0.2,1.1,1.1,1.1h1.7c0.9,0,1.1-0.2,1.1-1.1v-1.6h2.5
		v2c0,1.9-0.9,2.8-2.8,2.8h-3.2c-1.9,0-2.8-0.9-2.8-2.8v-11.8c0-1.9,0.9-2.8,2.8-2.8H1401.9z M1402.3,335.7v-4.2
		c0-0.9-0.2-1.1-1.1-1.1h-1.8c-0.9,0-1.1,0.2-1.1,1.1v4.2H1402.3z"/>
	<path class="st21" d="M1413,339.2c0-0.9-0.2-1.1-1.1-1.1h-1.8c-1.9,0-2.8-0.9-2.8-2.8v-4.1c0-1.9,0.9-2.8,2.8-2.8h2.4
		c1.9,0,2.8,0.9,2.8,2.8v1.8h-2.4v-1.4c0-0.9-0.2-1.1-1.1-1.1h-1c-0.9,0-1.1,0.2-1.1,1.1v3.4c0,0.9,0.2,1.1,1.1,1.1h1.8
		c1.9,0,2.8,0.9,2.8,2.8v4c0,1.9-0.9,2.8-2.8,2.8h-2.4c-1.9,0-2.8-0.9-2.8-2.8v-1.8h2.4v1.4c0,0.9,0.2,1.1,1.1,1.1h1
		c0.9,0,1.1-0.2,1.1-1.1V339.2z"/>
	<path class="st21" d="M1427.1,328.3v17.5h-2.5v-1.2c-0.3,0.9-1,1.2-2,1.2h-1.4c-1.9,0-2.8-0.9-2.8-2.8v-14.6h2.5v14.2
		c0,0.9,0.2,1.1,1.1,1.1h1.4c0.9,0,1.2-0.3,1.2-1.3v-14H1427.1z"/>
	<path class="st21" d="M1430.2,321.6h2.6v2.9h-2.6V321.6z M1430.3,345.7v-17.5h2.5v17.5H1430.3z"/>
	<path class="st21" d="M1438.6,330.4v11.9c0,0.9,0.2,1.1,1.1,1.1h1.4v2.3h-2.1c-1.9,0-2.8-0.9-2.8-2.8v-12.5h-1.6v-2.1h1.6v-2.8h2.5
		v2.8h2.5v2.1H1438.6z"/>
	<path class="st21" d="M1448.5,339.2c0-0.9-0.2-1.1-1.1-1.1h-1.8c-1.9,0-2.8-0.9-2.8-2.8v-4.1c0-1.9,0.9-2.8,2.8-2.8h2.4
		c1.9,0,2.8,0.9,2.8,2.8v1.8h-2.4v-1.4c0-0.9-0.2-1.1-1.1-1.1h-1c-0.9,0-1.1,0.2-1.1,1.1v3.4c0,0.9,0.2,1.1,1.1,1.1h1.8
		c1.9,0,2.8,0.9,2.8,2.8v4c0,1.9-0.9,2.8-2.8,2.8h-2.4c-1.9,0-2.8-0.9-2.8-2.8v-1.8h2.4v1.4c0,0.9,0.2,1.1,1.1,1.1h1
		c0.9,0,1.1-0.2,1.1-1.1V339.2z"/>
	<path class="st21" d="M1467.1,328.3v17.5h-2.5v-1.2c-0.3,0.9-1,1.2-2,1.2h-1.4c-1.9,0-2.8-0.9-2.8-2.8v-11.8c0-1.9,0.9-2.8,2.8-2.8
		h1.4c1,0,1.7,0.3,2,1.2v-1.2H1467.1z M1463.3,343.6c0.9,0,1.2-0.3,1.2-1.3v-10.6c0-1-0.4-1.3-1.2-1.3h-1.4c-0.9,0-1.1,0.2-1.1,1.1
		v11c0,0.9,0.2,1.1,1.1,1.1H1463.3z"/>
	<path class="st21" d="M1476.2,328.2c1.9,0,2.8,0.9,2.8,2.8v11.8c0,1.9-0.9,2.8-2.8,2.8h-1.4c-1,0-1.7-0.3-2-1.2v1.2h-2.5v-24.1h2.5
		v7.8c0.3-0.9,1-1.2,2-1.2H1476.2z M1476.6,331.5c0-0.9-0.2-1.1-1.1-1.1h-1.4c-0.9,0-1.2,0.3-1.2,1.3v10.7c0,1,0.4,1.3,1.2,1.3h1.4
		c0.9,0,1.1-0.2,1.1-1.1V331.5z"/>
	<path class="st21" d="M1488.4,328.3c1.9,0,2.8,0.9,2.8,2.8v11.8c0,1.9-0.9,2.8-2.8,2.8h-3.7c-1.9,0-2.8-0.9-2.8-2.8v-11.8
		c0-1.9,0.9-2.8,2.8-2.8H1488.4z M1488.8,331.5c0-0.9-0.2-1.1-1.1-1.1h-2.2c-0.9,0-1.1,0.2-1.1,1.1v11c0,0.9,0.2,1.1,1.1,1.1h2.2
		c0.9,0,1.1-0.2,1.1-1.1V331.5z"/>
	<path class="st21" d="M1502.9,328.3v17.5h-2.5v-1.2c-0.3,0.9-1,1.2-2,1.2h-1.4c-1.9,0-2.8-0.9-2.8-2.8v-11.8c0-1.9,0.9-2.8,2.8-2.8
		h1.4c1,0,1.7,0.3,2,1.2v-1.2H1502.9z M1499.2,343.6c0.9,0,1.2-0.3,1.2-1.3v-10.6c0-1-0.4-1.3-1.2-1.3h-1.4c-0.9,0-1.1,0.2-1.1,1.1
		v11c0,0.9,0.2,1.1,1.1,1.1H1499.2z"/>
	<path class="st21" d="M1512,328.3v2.2h-1.1c-1.6,0-2.3,0.9-2.3,2.7v12.6h-2.5v-17.5h2.5v2c0.3-1,1.2-2,2.6-2H1512z"/>
	<path class="st21" d="M1522.3,321.6v24.1h-2.5v-1.2c-0.3,0.9-1,1.2-2,1.2h-1.4c-1.9,0-2.8-0.9-2.8-2.8v-11.8c0-1.9,0.9-2.8,2.8-2.8
		h1.4c1,0,1.7,0.3,2,1.2v-7.8H1522.3z M1518.6,343.6c0.9,0,1.2-0.3,1.2-1.3v-10.7c0-1-0.4-1.3-1.2-1.3h-1.4c-0.9,0-1.1,0.2-1.1,1.1
		v11c0,0.9,0.2,1.1,1.1,1.1H1518.6z"/>
	<path class="st21" d="M1532.9,330.4v11.9c0,0.9,0.2,1.1,1.1,1.1h1.4v2.3h-2.1c-1.9,0-2.8-0.9-2.8-2.8v-12.5h-1.6v-2.1h1.6v-2.8h2.5
		v2.8h2.5v2.1H1532.9z"/>
	<path class="st21" d="M1543.3,328.3c1.9,0,2.8,0.9,2.8,2.8v14.6h-2.5v-14.2c0-0.9-0.2-1.1-1.1-1.1h-1.4c-0.9,0-1.2,0.3-1.2,1.3v14
		h-2.5v-24.1h2.5v7.8c0.3-0.9,1-1.2,2-1.2H1543.3z"/>
	<path class="st21" d="M1555.5,328.3c1.9,0,2.8,0.9,2.8,2.8v6.7h-6.5v4.6c0,0.9,0.2,1.1,1.1,1.1h1.7c0.9,0,1.1-0.2,1.1-1.1v-1.6h2.5
		v2c0,1.9-0.9,2.8-2.8,2.8h-3.2c-1.9,0-2.8-0.9-2.8-2.8v-11.8c0-1.9,0.9-2.8,2.8-2.8H1555.5z M1555.9,335.7v-4.2
		c0-0.9-0.2-1.1-1.1-1.1h-1.8c-0.9,0-1.1,0.2-1.1,1.1v4.2H1555.9z"/>
	<path class="st21" d="M1571.3,339.2c0-0.9-0.2-1.1-1.1-1.1h-1.8c-1.9,0-2.8-0.9-2.8-2.8v-4.1c0-1.9,0.9-2.8,2.8-2.8h2.4
		c1.9,0,2.8,0.9,2.8,2.8v1.8h-2.4v-1.4c0-0.9-0.2-1.1-1.1-1.1h-1c-0.9,0-1.1,0.2-1.1,1.1v3.4c0,0.9,0.2,1.1,1.1,1.1h1.8
		c1.9,0,2.8,0.9,2.8,2.8v4c0,1.9-0.9,2.8-2.8,2.8h-2.4c-1.9,0-2.8-0.9-2.8-2.8v-1.8h2.4v1.4c0,0.9,0.2,1.1,1.1,1.1h1
		c0.9,0,1.1-0.2,1.1-1.1V339.2z"/>
	<path class="st21" d="M1582.5,328.3c1.9,0,2.8,0.9,2.8,2.8v14.6h-2.5v-14.2c0-0.9-0.2-1.1-1.1-1.1h-1.4c-0.9,0-1.2,0.3-1.2,1.3v14
		h-2.5v-24.1h2.5v7.8c0.3-0.9,1-1.2,2-1.2H1582.5z"/>
	<path class="st21" d="M1588.5,321.6h2.6v2.9h-2.6V321.6z M1588.6,345.7v-17.5h2.5v17.5H1588.6z"/>
	<path class="st21" d="M1600.2,328.3c1.9,0,2.8,0.9,2.8,2.8v11.8c0,1.9-0.9,2.8-2.8,2.8h-1.4c-1,0-1.7-0.3-2-1.2v6.3h-2.5v-22.5h2.5
		v1.2c0.3-0.9,1-1.2,2-1.2H1600.2z M1600.6,331.5c0-0.9-0.2-1.1-1.1-1.1h-1.4c-0.9,0-1.2,0.3-1.2,1.3v10.6c0,1,0.4,1.3,1.2,1.3h1.4
		c0.9,0,1.1-0.2,1.1-1.1V331.5z"/>
	<path class="st21" d="M1608.5,341.7v2.1l-2,6.9h-1v-9H1608.5z"/>
	<path class="st21" d="M1615.8,321.6h2.6v2.9h-2.6V321.6z M1615.9,345.7v-17.5h2.5v17.5H1615.9z"/>
	<path class="st21" d="M1627.5,328.3c1.9,0,2.8,0.9,2.8,2.8v14.6h-2.5v-14.2c0-0.9-0.2-1.1-1.1-1.1h-1.4c-0.9,0-1.2,0.3-1.2,1.3v14
		h-2.5v-17.5h2.5v1.2c0.3-0.9,1-1.2,2-1.2H1627.5z"/>
	<path class="st21" d="M1640,333.4v-1.9c0-0.9-0.2-1.1-1.1-1.1h-1.8c-0.9,0-1.1,0.2-1.1,1.1v11c0,0.9,0.2,1.1,1.1,1.1h1.8
		c0.9,0,1.1-0.2,1.1-1.1v-1.9h2.5v2.3c0,1.9-0.9,2.8-2.8,2.8h-3.3c-1.9,0-2.8-0.9-2.8-2.8v-11.8c0-1.9,0.9-2.8,2.8-2.8h3.3
		c1.9,0,2.8,0.9,2.8,2.8v2.3H1640z"/>
	<path class="st21" d="M1645.3,345.7v-24.1h2.5v24.1H1645.3z"/>
	<path class="st21" d="M1659.8,328.3v17.5h-2.5v-1.2c-0.3,0.9-1,1.2-2,1.2h-1.4c-1.9,0-2.8-0.9-2.8-2.8v-14.6h2.5v14.2
		c0,0.9,0.2,1.1,1.1,1.1h1.4c0.9,0,1.2-0.3,1.2-1.3v-14H1659.8z"/>
	<path class="st21" d="M1671.6,321.6v24.1h-2.5v-1.2c-0.3,0.9-1,1.2-2,1.2h-1.4c-1.9,0-2.8-0.9-2.8-2.8v-11.8c0-1.9,0.9-2.8,2.8-2.8
		h1.4c1,0,1.7,0.3,2,1.2v-7.8H1671.6z M1667.9,343.6c0.9,0,1.2-0.3,1.2-1.3v-10.7c0-1-0.4-1.3-1.2-1.3h-1.4c-0.9,0-1.1,0.2-1.1,1.1
		v11c0,0.9,0.2,1.1,1.1,1.1H1667.9z"/>
	<path class="st21" d="M1674.8,321.6h2.6v2.9h-2.6V321.6z M1674.8,345.7v-17.5h2.5v17.5H1674.8z"/>
	<path class="st21" d="M1686.5,328.3c1.9,0,2.8,0.9,2.8,2.8v14.6h-2.5v-14.2c0-0.9-0.2-1.1-1.1-1.1h-1.4c-0.9,0-1.2,0.3-1.2,1.3v14
		h-2.5v-17.5h2.5v1.2c0.3-0.9,1-1.2,2-1.2H1686.5z"/>
	<path class="st21" d="M1701.1,328.3V348c0,1.9-0.9,2.8-2.8,2.8h-5.4v-2.1h4.6c0.9,0,1.1-0.2,1.1-1.1v-3c-0.3,0.9-1,1.2-2,1.2h-1.4
		c-1.9,0-2.8-0.9-2.8-2.8v-11.8c0-1.9,0.9-2.8,2.8-2.8h1.4c1,0,1.7,0.3,2,1.2v-1.2H1701.1z M1697.4,343.6c0.9,0,1.2-0.3,1.2-1.3
		v-10.6c0-1-0.4-1.3-1.2-1.3h-1.4c-0.9,0-1.1,0.2-1.1,1.1v11c0,0.9,0.2,1.1,1.1,1.1H1697.4z"/>
	<path class="st21" d="M1711.7,330.4v11.9c0,0.9,0.2,1.1,1.1,1.1h1.4v2.3h-2.1c-1.9,0-2.8-0.9-2.8-2.8v-12.5h-1.6v-2.1h1.6v-2.8h2.5
		v2.8h2.5v2.1H1711.7z"/>
	<path class="st21" d="M1722,328.3c1.9,0,2.8,0.9,2.8,2.8v14.6h-2.5v-14.2c0-0.9-0.2-1.1-1.1-1.1h-1.4c-0.9,0-1.2,0.3-1.2,1.3v14
		h-2.5v-24.1h2.5v7.8c0.3-0.9,1-1.2,2-1.2H1722z"/>
	<path class="st21" d="M1734.3,328.3c1.9,0,2.8,0.9,2.8,2.8v6.7h-6.5v4.6c0,0.9,0.2,1.1,1.1,1.1h1.7c0.9,0,1.1-0.2,1.1-1.1v-1.6h2.5
		v2c0,1.9-0.9,2.8-2.8,2.8h-3.2c-1.9,0-2.8-0.9-2.8-2.8v-11.8c0-1.9,0.9-2.8,2.8-2.8H1734.3z M1734.6,335.7v-4.2
		c0-0.9-0.2-1.1-1.1-1.1h-1.8c-0.9,0-1.1,0.2-1.1,1.1v4.2H1734.6z"/>
	<path class="st21" d="M1180.2,373.6v11.9c0,0.9,0.2,1.1,1.1,1.1h1.4v2.3h-2.1c-1.9,0-2.8-0.9-2.8-2.8v-12.5h-1.6v-2.1h1.6v-2.8h2.5
		v2.8h2.5v2.1H1180.2z"/>
	<path class="st21" d="M1193.2,371.5v17.5h-2.5v-1.2c-0.3,0.9-1,1.2-2,1.2h-1.4c-1.9,0-2.8-0.9-2.8-2.8v-11.8c0-1.9,0.9-2.8,2.8-2.8
		h1.4c1,0,1.7,0.3,2,1.2v-1.2H1193.2z M1189.5,386.8c0.9,0,1.2-0.3,1.2-1.3v-10.6c0-1-0.4-1.3-1.2-1.3h-1.4c-0.9,0-1.1,0.2-1.1,1.1
		v11c0,0.9,0.2,1.1,1.1,1.1H1189.5z"/>
	<path class="st21" d="M1196.5,364.8h2.5v24.1h-2.5V364.8z M1202.3,379.7l4.1,9.2h-2.7l-4-9.2l4-8.2h2.7L1202.3,379.7z"/>
	<path class="st21" d="M1214.3,371.5c1.9,0,2.8,0.9,2.8,2.8v6.7h-6.5v4.6c0,0.9,0.2,1.1,1.1,1.1h1.7c0.9,0,1.1-0.2,1.1-1.1v-1.6h2.5
		v2c0,1.9-0.9,2.8-2.8,2.8h-3.2c-1.9,0-2.8-0.9-2.8-2.8v-11.8c0-1.9,0.9-2.8,2.8-2.8H1214.3z M1214.7,378.9v-4.2
		c0-0.9-0.2-1.1-1.1-1.1h-1.8c-0.9,0-1.1,0.2-1.1,1.1v4.2H1214.7z"/>
	<path class="st21" d="M1226.4,371.5c1.9,0,2.8,0.9,2.8,2.8v11.8c0,1.9-0.9,2.8-2.8,2.8h-3.7c-1.9,0-2.8-0.9-2.8-2.8v-11.8
		c0-1.9,0.9-2.8,2.8-2.8H1226.4z M1226.8,374.7c0-0.9-0.2-1.1-1.1-1.1h-2.2c-0.9,0-1.1,0.2-1.1,1.1v11c0,0.9,0.2,1.1,1.1,1.1h2.2
		c0.9,0,1.1-0.2,1.1-1.1V374.7z"/>
	<path class="st21" d="M1236.2,367.1c-0.9,0-1.1,0.2-1.1,1.1v3.2h2.5v2.1h-2.5v15.3h-2.5v-15.3h-1.7v-2.1h1.7v-3.8
		c0-1.9,0.9-2.8,2.8-2.8h2.2v2.3H1236.2z"/>
	<path class="st21" d="M1243.3,367.1c-0.9,0-1.1,0.2-1.1,1.1v3.2h2.5v2.1h-2.5v15.3h-2.5v-15.3h-1.7v-2.1h1.7v-3.8
		c0-1.9,0.9-2.8,2.8-2.8h2.2v2.3H1243.3z"/>
	<path class="st21" d="M1257.1,363.8l-9.5,30.1h-2.4l9.5-30.1H1257.1z"/>
	<path class="st21" d="M1260.3,388.9v-24.1h2.5v24.1H1260.3z"/>
	<path class="st21" d="M1274.6,371.5v17.5h-2.5v-1.2c-0.3,0.9-1,1.2-2,1.2h-1.4c-1.9,0-2.8-0.9-2.8-2.8v-11.8c0-1.9,0.9-2.8,2.8-2.8
		h1.4c1,0,1.7,0.3,2,1.2v-1.2H1274.6z M1270.9,386.8c0.9,0,1.2-0.3,1.2-1.3v-10.6c0-1-0.4-1.3-1.2-1.3h-1.4c-0.9,0-1.1,0.2-1.1,1.1
		v11c0,0.9,0.2,1.1,1.1,1.1H1270.9z"/>
	<path class="st21" d="M1283.7,371.5c1.9,0,2.8,0.9,2.8,2.8v14.6h-2.5v-14.2c0-0.9-0.2-1.1-1.1-1.1h-1.4c-0.9,0-1.2,0.3-1.2,1.3v14
		h-2.5v-17.5h2.5v1.2c0.3-0.9,1-1.2,2-1.2H1283.7z"/>
	<path class="st21" d="M1298.4,364.8v24.1h-2.5v-1.2c-0.3,0.9-1,1.2-2,1.2h-1.4c-1.9,0-2.8-0.9-2.8-2.8v-11.8c0-1.9,0.9-2.8,2.8-2.8
		h1.4c1,0,1.7,0.3,2,1.2v-7.8H1298.4z M1294.7,386.8c0.9,0,1.2-0.3,1.2-1.3v-10.7c0-1-0.4-1.3-1.2-1.3h-1.4c-0.9,0-1.1,0.2-1.1,1.1
		v11c0,0.9,0.2,1.1,1.1,1.1H1294.7z"/>
	<path class="st21" d="M1301.5,364.8h2.6v2.9h-2.6V364.8z M1301.6,388.9v-17.5h2.5v17.5H1301.6z"/>
	<path class="st21" d="M1313.2,371.5c1.9,0,2.8,0.9,2.8,2.8v14.6h-2.5v-14.2c0-0.9-0.2-1.1-1.1-1.1h-1.4c-0.9,0-1.2,0.3-1.2,1.3v14
		h-2.5v-17.5h2.5v1.2c0.3-0.9,1-1.2,2-1.2H1313.2z"/>
	<path class="st21" d="M1327.9,371.5v19.7c0,1.9-0.9,2.8-2.8,2.8h-5.4v-2.1h4.6c0.9,0,1.1-0.2,1.1-1.1v-3c-0.3,0.9-1,1.2-2,1.2h-1.4
		c-1.9,0-2.8-0.9-2.8-2.8v-11.8c0-1.9,0.9-2.8,2.8-2.8h1.4c1,0,1.7,0.3,2,1.2v-1.2H1327.9z M1324.2,386.8c0.9,0,1.2-0.3,1.2-1.3
		v-10.6c0-1-0.4-1.3-1.2-1.3h-1.4c-0.9,0-1.1,0.2-1.1,1.1v11c0,0.9,0.2,1.1,1.1,1.1H1324.2z"/>
	<path class="st21" d="M1341.2,382.4c0-0.9-0.2-1.1-1.1-1.1h-1.8c-1.9,0-2.8-0.9-2.8-2.8v-4.1c0-1.9,0.9-2.8,2.8-2.8h2.4
		c1.9,0,2.8,0.9,2.8,2.8v1.8h-2.4v-1.4c0-0.9-0.2-1.1-1.1-1.1h-1c-0.9,0-1.1,0.2-1.1,1.1v3.4c0,0.9,0.2,1.1,1.1,1.1h1.8
		c1.9,0,2.8,0.9,2.8,2.8v4c0,1.9-0.9,2.8-2.8,2.8h-2.4c-1.9,0-2.8-0.9-2.8-2.8v-1.8h2.4v1.4c0,0.9,0.2,1.1,1.1,1.1h1
		c0.9,0,1.1-0.2,1.1-1.1V382.4z"/>
	<path class="st21" d="M1355.3,371.5v17.5h-2.5v-1.2c-0.3,0.9-1,1.2-2,1.2h-1.4c-1.9,0-2.8-0.9-2.8-2.8v-14.6h2.5v14.2
		c0,0.9,0.2,1.1,1.1,1.1h1.4c0.9,0,1.2-0.3,1.2-1.3v-14H1355.3z"/>
	<path class="st21" d="M1358.4,364.8h2.6v2.9h-2.6V364.8z M1358.5,388.9v-17.5h2.5v17.5H1358.5z"/>
	<path class="st21" d="M1366.8,373.6v11.9c0,0.9,0.2,1.1,1.1,1.1h1.4v2.3h-2.1c-1.9,0-2.8-0.9-2.8-2.8v-12.5h-1.6v-2.1h1.6v-2.8h2.5
		v2.8h2.5v2.1H1366.8z"/>
	<path class="st21" d="M1373.7,384.9v2.1l-2,6.9h-1v-9H1373.7z"/>
	<path class="st21" d="M1389.7,371.5v17.5h-2.5v-1.2c-0.3,0.9-1,1.2-2,1.2h-1.4c-1.9,0-2.8-0.9-2.8-2.8v-11.8c0-1.9,0.9-2.8,2.8-2.8
		h1.4c1,0,1.7,0.3,2,1.2v-1.2H1389.7z M1386,386.8c0.9,0,1.2-0.3,1.2-1.3v-10.6c0-1-0.4-1.3-1.2-1.3h-1.4c-0.9,0-1.1,0.2-1.1,1.1v11
		c0,0.9,0.2,1.1,1.1,1.1H1386z"/>
	<path class="st21" d="M1398.8,371.5c1.9,0,2.8,0.9,2.8,2.8v14.6h-2.5v-14.2c0-0.9-0.2-1.1-1.1-1.1h-1.4c-0.9,0-1.2,0.3-1.2,1.3v14
		h-2.5v-17.5h2.5v1.2c0.3-0.9,1-1.2,2-1.2H1398.8z"/>
	<path class="st21" d="M1413.5,364.8v24.1h-2.5v-1.2c-0.3,0.9-1,1.2-2,1.2h-1.4c-1.9,0-2.8-0.9-2.8-2.8v-11.8c0-1.9,0.9-2.8,2.8-2.8
		h1.4c1,0,1.7,0.3,2,1.2v-7.8H1413.5z M1409.8,386.8c0.9,0,1.2-0.3,1.2-1.3v-10.7c0-1-0.4-1.3-1.2-1.3h-1.4c-0.9,0-1.1,0.2-1.1,1.1
		v11c0,0.9,0.2,1.1,1.1,1.1H1409.8z"/>
	<path class="st21" d="M1424,373.6v11.9c0,0.9,0.2,1.1,1.1,1.1h1.4v2.3h-2.1c-1.9,0-2.8-0.9-2.8-2.8v-12.5h-1.6v-2.1h1.6v-2.8h2.5
		v2.8h2.5v2.1H1424z"/>
	<path class="st21" d="M1434.4,371.5c1.9,0,2.8,0.9,2.8,2.8v14.6h-2.5v-14.2c0-0.9-0.2-1.1-1.1-1.1h-1.4c-0.9,0-1.2,0.3-1.2,1.3v14
		h-2.5v-24.1h2.5v7.8c0.3-0.9,1-1.2,2-1.2H1434.4z"/>
	<path class="st21" d="M1446.6,371.5c1.9,0,2.8,0.9,2.8,2.8v6.7h-6.5v4.6c0,0.9,0.2,1.1,1.1,1.1h1.7c0.9,0,1.1-0.2,1.1-1.1v-1.6h2.5
		v2c0,1.9-0.9,2.8-2.8,2.8h-3.2c-1.9,0-2.8-0.9-2.8-2.8v-11.8c0-1.9,0.9-2.8,2.8-2.8H1446.6z M1447,378.9v-4.2
		c0-0.9-0.2-1.1-1.1-1.1h-1.8c-0.9,0-1.1,0.2-1.1,1.1v4.2H1447z"/>
	<path class="st21" d="M1462.4,382.4c0-0.9-0.2-1.1-1.1-1.1h-1.8c-1.9,0-2.8-0.9-2.8-2.8v-4.1c0-1.9,0.9-2.8,2.8-2.8h2.4
		c1.9,0,2.8,0.9,2.8,2.8v1.8h-2.4v-1.4c0-0.9-0.2-1.1-1.1-1.1h-1c-0.9,0-1.1,0.2-1.1,1.1v3.4c0,0.9,0.2,1.1,1.1,1.1h1.8
		c1.9,0,2.8,0.9,2.8,2.8v4c0,1.9-0.9,2.8-2.8,2.8h-2.4c-1.9,0-2.8-0.9-2.8-2.8v-1.8h2.4v1.4c0,0.9,0.2,1.1,1.1,1.1h1
		c0.9,0,1.1-0.2,1.1-1.1V382.4z"/>
	<path class="st21" d="M1470.3,373.6v11.9c0,0.9,0.2,1.1,1.1,1.1h1.4v2.3h-2.1c-1.9,0-2.8-0.9-2.8-2.8v-12.5h-1.6v-2.1h1.6v-2.8h2.5
		v2.8h2.5v2.1H1470.3z"/>
	<path class="st21" d="M1483.4,371.5v17.5h-2.5v-1.2c-0.3,0.9-1,1.2-2,1.2h-1.4c-1.9,0-2.8-0.9-2.8-2.8v-11.8c0-1.9,0.9-2.8,2.8-2.8
		h1.4c1,0,1.7,0.3,2,1.2v-1.2H1483.4z M1479.7,386.8c0.9,0,1.2-0.3,1.2-1.3v-10.6c0-1-0.4-1.3-1.2-1.3h-1.4c-0.9,0-1.1,0.2-1.1,1.1
		v11c0,0.9,0.2,1.1,1.1,1.1H1479.7z"/>
	<path class="st21" d="M1492.5,371.5c1.9,0,2.8,0.9,2.8,2.8v14.6h-2.5v-14.2c0-0.9-0.2-1.1-1.1-1.1h-1.4c-0.9,0-1.2,0.3-1.2,1.3v14
		h-2.5v-17.5h2.5v1.2c0.3-0.9,1-1.2,2-1.2H1492.5z"/>
	<path class="st21" d="M1507.2,364.8v24.1h-2.5v-1.2c-0.3,0.9-1,1.2-2,1.2h-1.4c-1.9,0-2.8-0.9-2.8-2.8v-11.8c0-1.9,0.9-2.8,2.8-2.8
		h1.4c1,0,1.7,0.3,2,1.2v-7.8H1507.2z M1503.5,386.8c0.9,0,1.2-0.3,1.2-1.3v-10.7c0-1-0.4-1.3-1.2-1.3h-1.4c-0.9,0-1.1,0.2-1.1,1.1
		v11c0,0.9,0.2,1.1,1.1,1.1H1503.5z"/>
	<path class="st21" d="M1519,371.5v17.5h-2.5v-1.2c-0.3,0.9-1,1.2-2,1.2h-1.4c-1.9,0-2.8-0.9-2.8-2.8v-11.8c0-1.9,0.9-2.8,2.8-2.8
		h1.4c1,0,1.7,0.3,2,1.2v-1.2H1519z M1515.3,386.8c0.9,0,1.2-0.3,1.2-1.3v-10.6c0-1-0.4-1.3-1.2-1.3h-1.4c-0.9,0-1.1,0.2-1.1,1.1v11
		c0,0.9,0.2,1.1,1.1,1.1H1515.3z"/>
	<path class="st21" d="M1528,371.5v2.2h-1.1c-1.6,0-2.3,0.9-2.3,2.7v12.6h-2.5v-17.5h2.5v2c0.3-1,1.2-2,2.6-2H1528z"/>
	<path class="st21" d="M1538.4,364.8v24.1h-2.5v-1.2c-0.3,0.9-1,1.2-2,1.2h-1.4c-1.9,0-2.8-0.9-2.8-2.8v-11.8c0-1.9,0.9-2.8,2.8-2.8
		h1.4c1,0,1.7,0.3,2,1.2v-7.8H1538.4z M1534.7,386.8c0.9,0,1.2-0.3,1.2-1.3v-10.7c0-1-0.4-1.3-1.2-1.3h-1.4c-0.9,0-1.1,0.2-1.1,1.1
		v11c0,0.9,0.2,1.1,1.1,1.1H1534.7z"/>
	<path class="st21" d="M1551.7,382.4c0-0.9-0.2-1.1-1.1-1.1h-1.8c-1.9,0-2.8-0.9-2.8-2.8v-4.1c0-1.9,0.9-2.8,2.8-2.8h2.4
		c1.9,0,2.8,0.9,2.8,2.8v1.8h-2.4v-1.4c0-0.9-0.2-1.1-1.1-1.1h-1c-0.9,0-1.1,0.2-1.1,1.1v3.4c0,0.9,0.2,1.1,1.1,1.1h1.8
		c1.9,0,2.8,0.9,2.8,2.8v4c0,1.9-0.9,2.8-2.8,2.8h-2.4c-1.9,0-2.8-0.9-2.8-2.8v-1.8h2.4v1.4c0,0.9,0.2,1.1,1.1,1.1h1
		c0.9,0,1.1-0.2,1.1-1.1V382.4z"/>
	<path class="st21" d="M1562.9,371.5c1.9,0,2.8,0.9,2.8,2.8v11.8c0,1.9-0.9,2.8-2.8,2.8h-1.4c-1,0-1.7-0.3-2-1.2v6.3h-2.5v-22.5h2.5
		v1.2c0.3-0.9,1-1.2,2-1.2H1562.9z M1563.3,374.7c0-0.9-0.2-1.1-1.1-1.1h-1.4c-0.9,0-1.2,0.3-1.2,1.3v10.6c0,1,0.4,1.3,1.2,1.3h1.4
		c0.9,0,1.1-0.2,1.1-1.1V374.7z"/>
	<path class="st21" d="M1577.4,371.5v17.5h-2.5v-1.2c-0.3,0.9-1,1.2-2,1.2h-1.4c-1.9,0-2.8-0.9-2.8-2.8v-11.8c0-1.9,0.9-2.8,2.8-2.8
		h1.4c1,0,1.7,0.3,2,1.2v-1.2H1577.4z M1573.7,386.8c0.9,0,1.2-0.3,1.2-1.3v-10.6c0-1-0.4-1.3-1.2-1.3h-1.4c-0.9,0-1.1,0.2-1.1,1.1
		v11c0,0.9,0.2,1.1,1.1,1.1H1573.7z"/>
	<path class="st21" d="M1587,376.6v-1.9c0-0.9-0.2-1.1-1.1-1.1h-1.8c-0.9,0-1.1,0.2-1.1,1.1v11c0,0.9,0.2,1.1,1.1,1.1h1.8
		c0.9,0,1.1-0.2,1.1-1.1v-1.9h2.5v2.3c0,1.9-0.9,2.8-2.8,2.8h-3.3c-1.9,0-2.8-0.9-2.8-2.8v-11.8c0-1.9,0.9-2.8,2.8-2.8h3.3
		c1.9,0,2.8,0.9,2.8,2.8v2.3H1587z"/>
	<path class="st21" d="M1598.5,371.5c1.9,0,2.8,0.9,2.8,2.8v6.7h-6.5v4.6c0,0.9,0.2,1.1,1.1,1.1h1.7c0.9,0,1.1-0.2,1.1-1.1v-1.6h2.5
		v2c0,1.9-0.9,2.8-2.8,2.8h-3.2c-1.9,0-2.8-0.9-2.8-2.8v-11.8c0-1.9,0.9-2.8,2.8-2.8H1598.5z M1598.9,378.9v-4.2
		c0-0.9-0.2-1.1-1.1-1.1h-1.8c-0.9,0-1.1,0.2-1.1,1.1v4.2H1598.9z"/>
	<path class="st21" d="M1625.4,371.5l-3.1,17.5h-3.8l-2.1-14l-2.1,14h-3.8l-3.1-17.5h2.4l2.6,15.7l2.3-15.7h3.4l2.2,15.7l2.6-15.7
		H1625.4z"/>
	<path class="st21" d="M1635.7,371.5v17.5h-2.5v-1.2c-0.3,0.9-1,1.2-2,1.2h-1.4c-1.9,0-2.8-0.9-2.8-2.8v-11.8c0-1.9,0.9-2.8,2.8-2.8
		h1.4c1,0,1.7,0.3,2,1.2v-1.2H1635.7z M1632,386.8c0.9,0,1.2-0.3,1.2-1.3v-10.6c0-1-0.4-1.3-1.2-1.3h-1.4c-0.9,0-1.1,0.2-1.1,1.1v11
		c0,0.9,0.2,1.1,1.1,1.1H1632z"/>
	<path class="st21" d="M1639,388.9v-24.1h2.5v24.1H1639z"/>
	<path class="st21" d="M1644.7,364.8h2.5v24.1h-2.5V364.8z M1650.5,379.7l4.1,9.2h-2.7l-4-9.2l4-8.2h2.7L1650.5,379.7z"/>
	<path class="st21" d="M1666.4,382.4c0-0.9-0.2-1.1-1.1-1.1h-1.8c-1.9,0-2.8-0.9-2.8-2.8v-4.1c0-1.9,0.9-2.8,2.8-2.8h2.4
		c1.9,0,2.8,0.9,2.8,2.8v1.8h-2.4v-1.4c0-0.9-0.2-1.1-1.1-1.1h-1c-0.9,0-1.1,0.2-1.1,1.1v3.4c0,0.9,0.2,1.1,1.1,1.1h1.8
		c1.9,0,2.8,0.9,2.8,2.8v4c0,1.9-0.9,2.8-2.8,2.8h-2.4c-1.9,0-2.8-0.9-2.8-2.8v-1.8h2.4v1.4c0,0.9,0.2,1.1,1.1,1.1h1
		c0.9,0,1.1-0.2,1.1-1.1V382.4z"/>
	<path class="st21" d="M1680.5,371.5v17.5h-2.5v-1.2c-0.3,0.9-1,1.2-2,1.2h-1.4c-1.9,0-2.8-0.9-2.8-2.8v-14.6h2.5v14.2
		c0,0.9,0.2,1.1,1.1,1.1h1.4c0.9,0,1.2-0.3,1.2-1.3v-14H1680.5z"/>
	<path class="st21" d="M1683.7,364.8h2.6v2.9h-2.6V364.8z M1683.7,388.9v-17.5h2.5v17.5H1683.7z"/>
	<path class="st21" d="M1692.1,373.6v11.9c0,0.9,0.2,1.1,1.1,1.1h1.4v2.3h-2.1c-1.9,0-2.8-0.9-2.8-2.8v-12.5h-1.6v-2.1h1.6v-2.8h2.5
		v2.8h2.5v2.1H1692.1z"/>
	<path class="st21" d="M1696,384.9h3v4h-3V384.9z"/>
</g>
</svg>
