<?xml version="1.0" encoding="utf-8"?>
<!-- Generator: Adobe Illustrator 27.4.0, SVG Export Plug-In . SVG Version: 6.00 Build 0)  -->
<svg version="1.1" id="Layer_1" xmlns="http://www.w3.org/2000/svg" xmlns:xlink="http://www.w3.org/1999/xlink" x="0px" y="0px"
	 viewBox="0 0 396 396" style="enable-background:new 0 0 396 396;" xml:space="preserve">
<style type="text/css">
	.st0{fill:#F8B384;stroke:#CC956E;stroke-width:5;stroke-miterlimit:10;}
	.st1{fill:#D74727;stroke:#872613;stroke-width:2;stroke-miterlimit:10;}
	.st2{fill:#B36327;stroke:#8D4113;stroke-width:2;stroke-miterlimit:10;}
	.st3{fill:#D47433;stroke:#8D4113;stroke-width:2;stroke-miterlimit:10;}
	.st4{fill:#B53C1F;stroke:#872613;stroke-width:2;stroke-miterlimit:10;}
	.st5{fill:#EA8039;stroke:#8D4113;stroke-width:2;stroke-miterlimit:10;}
	.st6{fill:#ECDED8;stroke:#CEBAB2;stroke-width:2;stroke-miterlimit:10;}
	.st7{fill:none;stroke:#A8A694;stroke-miterlimit:10;}
	.st8{fill:#19100A;}
	.st9{fill:#0D1A1C;stroke:#74CDE1;stroke-width:4;stroke-miterlimit:10;}
	.st10{fill:none;stroke:#74CDE1;stroke-width:4;stroke-miterlimit:10;}
	.st11{fill:none;stroke:#74CDE1;stroke-width:4;stroke-linecap:round;stroke-linejoin:round;stroke-miterlimit:10;}
</style>
<path class="st0" d="M335.5,377.9H59.7c-23.2,0-42.1-18.8-42.1-42.1V60c0-23.2,18.8-42.1,42.1-42.1h275.9
	c23.2,0,42.1,18.8,42.1,42.1v275.9C377.6,359.1,358.8,377.9,335.5,377.9z"/>
<path class="st1" d="M317.6,299.5c28.2,31.1,2.8,45.9,2.8,45.9c-142.6,30.4-152.2,23.6-152.2,23.6l-14.4-65.4L317.6,299.5z"/>
<path class="st2" d="M168,260.6c0,0,3-2.8-75.7-23.8c-8.6-2.3-11.2-4.1-8.9-5.4c0,0-15.1,3.2-6.9,24.1c1.2,3.1,1.1,5.8,0.1,8
	c0,0-5,10.9,8.4,18.7c13.7,8,78.9,30,79.1,29.2c0,0,17.6-3.7,15.5-35.7C177.6,243.6,168,260.6,168,260.6"/>
<path class="st3" d="M161.1,310.3c0,0,69.6,5.6,155.5-10.8c0,0,18.1-10.8,10.6-36.5c-2-7.1-6.7-11.6-12.5-14.4
	c0,0-125.4,13-149.8,10.9C164.9,259.5,184.2,294.1,161.1,310.3z"/>
<path class="st4" d="M168.2,369.1c-37.1-14.7-74.9-29.5-91.1-38.8c0,0-11.1-5.7-5.6-18.4c0,0,2.1-1.9,0.9-6.3
	c-1.2-4.4-3.8-23.6,9.6-23.5c0,0,38.1,17.2,70.3,25.6c0,0,28.9,6.8,25.4,39.3c-1,9.6-4.7,16.7-9.4,21.9"/>
<path class="st5" d="M80.9,230c0,0,77.6-12.4,160.2-13.9c1.2-2.4,74.4,21.8,73.7,32l-0.1,0.6c0,0-125.4,13-149.8,10.9l-0.3-0.5
	c0,0,3.6-2.3-75-23.3l-0.3-0.1c-8.6-2.3-11.2-4.1-8.9-5.4L80.9,230z"/>
<polygon class="st6" points="300,230 100.2,230 100.7,167.1 300.5,167.1 "/>
<path class="st7" d="M300.3,168.2"/>
<line class="st6" x1="100.1" y1="221.3" x2="100.1" y2="168.2"/>
<path class="st6" d="M299.1,113.9c0,0-16.7-85.7-99.1-85.7h0.5c-82.4,0-99.1,85.7-99.1,85.7"/>
<path class="st6" d="M199.6,202.2c94.9-1.1,100.7-34,100.7-34V126c0-43.1-44.6-78-99.5-78h-1.2c-55,0-99.5,34.9-99.5,78v42.2
	c0,0,5.8,32.9,100.7,34"/>
<path class="st6" d="M200.2,244.4c58.4-0.9,82.8-6.1,93.1-8.8c8.3-2.2,7-7.4,7-7.4v-7c0,0-34.9,9.5-99.1,8.8h-1.9
	c-64.3,0.7-99.1-8.8-99.1-8.8v7c0,0-1.3,5.2,7,7.4C117.5,238.3,141.8,243.5,200.2,244.4"/>
<line class="st6" x1="300.3" y1="221.3" x2="300.3" y2="168.2"/>
<path class="st7" d="M200.5,71.6"/>
<path class="st7" d="M200.5,71.6"/>
<g>
	<g>
		<path class="st8" d="M200.5,195.8c-87.9-1.1-93.3-31.5-93.3-31.5v-39.1c0-39.9,41.3-72.2,92.2-72.2c1.8,0,1.8,0,1.8,0
			c50.9,0,92.2,32.3,92.2,72.2v39.1c0,0-5.4,30.5-93.3,31.5"/>
	</g>
</g>
<path class="st9" d="M191.5,176.7l7.1,12.5c1.3,2.3,3.7,3.8,6.3,4l14.4,1.2c6.6,0.6,9.7,8.5,5.2,13.4l-9.7,10.6
	c-1.8,1.9-2.5,4.6-1.9,7.2l3.3,14c1.5,6.5-5.1,11.9-11.1,9.1l-13.1-6c-2.4-1.1-5.2-0.9-7.5,0.4l-12.3,7.4
	c-5.7,3.4-12.9-1.2-12.1-7.8l1.6-14.3c0.3-2.6-0.7-5.2-2.7-7l-10.9-9.4c-5-4.4-2.9-12.6,3.6-13.9l14.1-2.9c2.6-0.5,4.7-2.3,5.8-4.7
	l5.6-13.3C179.7,171.4,188.2,170.9,191.5,176.7z"/>
<path class="st9" d="M285.7,170.9l7.1,12.5c1.3,2.3,3.7,3.8,6.3,4l14.4,1.2c6.6,0.6,9.7,8.5,5.2,13.4l-9.7,10.6
	c-1.8,1.9-2.5,4.6-1.9,7.2l3.3,14c1.5,6.5-5.1,11.9-11.1,9.1l-13.1-6c-2.4-1.1-5.2-0.9-7.5,0.4l-12.3,7.4
	c-5.7,3.4-12.9-1.2-12.1-7.8l1.6-14.3c0.3-2.6-0.7-5.2-2.7-7l-10.9-9.4c-5-4.4-2.9-12.6,3.6-13.9l14.1-2.9c2.6-0.5,4.7-2.3,5.8-4.7
	l5.6-13.3C273.9,165.6,282.4,165.1,285.7,170.9z"/>
<line class="st10" x1="226.8" y1="199.8" x2="237.8" y2="199.2"/>
<path class="st11" d="M144.4,205.4C124,212,104,216,84,223c-2,1-5,5-3,9.3"/>
</svg>
