<?xml version="1.0" encoding="utf-8"?>
<!-- Generator: Adobe Illustrator 27.3.1, SVG Export Plug-In . SVG Version: 6.00 Build 0)  -->
<svg version="1.1" id="Layer_1" xmlns="http://www.w3.org/2000/svg" xmlns:xlink="http://www.w3.org/1999/xlink" x="0px" y="0px"
	 viewBox="0 0 792 864" style="enable-background:new 0 0 792 864;" xml:space="preserve">
<style type="text/css">
	.st0{fill:#132628;}
	.st1{fill:#143035;}
	.st2{fill:#1E4149;}
	.st3{fill:#E4E4E3;}
	.st4{fill:#883C1D;}
	.st5{fill:#7A3517;}
	.st6{fill:#EDDFD7;stroke:#D6AD9C;stroke-width:3;stroke-miterlimit:10;}
	.st7{fill:#CEBAB2;stroke:#C1A69C;stroke-width:4;stroke-miterlimit:10;}
	.st8{fill:#1A130E;stroke:#000000;stroke-width:3;stroke-miterlimit:10;}
	.st9{fill:#D64827;stroke:#BA3A26;stroke-width:3;stroke-miterlimit:10;}
	.st10{fill:none;stroke:#1A130E;stroke-width:10;stroke-miterlimit:10;}
	.st11{fill:none;stroke:#984C1E;stroke-width:5;stroke-miterlimit:10;}
</style>
<path class="st0" d="M775.3,178.6H18.2V48.9c0-23.4,19-42.4,42.4-42.4h667.1c26.3,0,47.6,21.3,47.6,47.6V178.6z"/>
<rect x="18.2" y="177.6" class="st1" width="757.1" height="258.7"/>
<rect x="18.2" y="426.8" class="st2" width="757.1" height="218.6"/>
<g>
	<path class="st3" d="M584.1,117.4"/>
	<g>
		<path class="st3" d="M584.1,119.9c3.2,0,3.2-5,0-5C580.8,114.9,580.8,119.9,584.1,119.9L584.1,119.9z"/>
	</g>
</g>
<g>
	<path class="st3" d="M647.2,390.1"/>
	<g>
		<path class="st3" d="M647.2,392.6c3.2,0,3.2-5,0-5C644,387.6,644,392.6,647.2,392.6L647.2,392.6z"/>
	</g>
</g>
<g>
	<path class="st3" d="M123.3,341.1"/>
	<g>
		<path class="st3" d="M123.3,343.6c3.2,0,3.2-5,0-5C120.1,338.6,120.1,343.6,123.3,343.6L123.3,343.6z"/>
	</g>
</g>
<g>
	<path class="st3" d="M145.4,129.7"/>
	<g>
		<path class="st3" d="M145.4,132.2c3.2,0,3.2-5,0-5C142.2,127.2,142.2,132.2,145.4,132.2L145.4,132.2z"/>
	</g>
</g>
<g>
	<path class="st3" d="M227.4,347.2"/>
	<g>
		<path class="st3" d="M227.4,349.7c3.2,0,3.2-5,0-5C224.2,344.7,224.2,349.7,227.4,349.7L227.4,349.7z"/>
	</g>
</g>
<g>
	<path class="st3" d="M120.1,561.7"/>
	<g>
		<path class="st3" d="M120.1,564.2c3.2,0,3.2-5,0-5C116.9,559.2,116.9,564.2,120.1,564.2L120.1,564.2z"/>
	</g>
</g>
<g>
	<path class="st3" d="M685,494.3"/>
	<g>
		<path class="st3" d="M685,496.8c3.2,0,3.2-5,0-5C681.8,491.8,681.8,496.8,685,496.8L685,496.8z"/>
	</g>
</g>
<g>
	<path class="st3" d="M691.4,255.3"/>
	<g>
		<path class="st3" d="M691.4,257.8c3.2,0,3.2-5,0-5C688.1,252.8,688.1,257.8,691.4,257.8L691.4,257.8z"/>
	</g>
</g>
<g>
	<path class="st3" d="M552.5,295.1"/>
	<g>
		<path class="st3" d="M552.5,297.6c3.2,0,3.2-5,0-5C549.3,292.6,549.3,297.6,552.5,297.6L552.5,297.6z"/>
	</g>
</g>
<g>
	<path class="st3" d="M543,138.9"/>
	<g>
		<path class="st3" d="M543,141.4c3.2,0,3.2-5,0-5C539.8,136.4,539.8,141.4,543,141.4L543,141.4z"/>
	</g>
</g>
<g>
	<path class="st3" d="M716.6,77.6"/>
	<g>
		<path class="st3" d="M716.6,80.1c3.2,0,3.2-5,0-5C713.4,75.1,713.4,80.1,716.6,80.1L716.6,80.1z"/>
	</g>
</g>
<g>
	<path class="st3" d="M429.4,243.1"/>
	<g>
		<path class="st3" d="M429.4,245.6c3.2,0,3.2-5,0-5C426.2,240.6,426.2,245.6,429.4,245.6L429.4,245.6z"/>
	</g>
</g>
<g>
	<path class="st3" d="M183.3,249.2"/>
	<g>
		<path class="st3" d="M183.3,251.7c3.2,0,3.2-5,0-5C180,246.7,180,251.7,183.3,251.7L183.3,251.7z"/>
	</g>
</g>
<g>
	<path class="st3" d="M435.7,531.1"/>
	<g>
		<path class="st3" d="M435.7,533.6c3.2,0,3.2-5,0-5C432.5,528.6,432.5,533.6,435.7,533.6L435.7,533.6z"/>
	</g>
</g>
<g>
	<path class="st3" d="M713.5,647.5"/>
	<g>
		<path class="st3" d="M713.5,650c3.2,0,3.2-5,0-5C710.2,645,710.2,650,713.5,650L713.5,650z"/>
	</g>
</g>
<g>
	<path class="st3" d="M700.8,552.5"/>
	<g>
		<path class="st3" d="M700.8,555c3.2,0,3.2-5,0-5C697.6,550,697.6,555,700.8,555L700.8,555z"/>
	</g>
</g>
<g>
	<path class="st3" d="M618.8,96"/>
	<g>
		<path class="st3" d="M618.8,98.5c3.2,0,3.2-5,0-5C615.6,93.5,615.6,98.5,618.8,98.5L618.8,98.5z"/>
	</g>
</g>
<g>
	<path class="st3" d="M319,71.5"/>
	<g>
		<path class="st3" d="M319,74c3.2,0,3.2-5,0-5C315.7,69,315.7,74,319,74L319,74z"/>
	</g>
</g>
<g>
	<path class="st3" d="M435.7,86.8"/>
	<g>
		<path class="st3" d="M435.7,89.3c3.2,0,3.2-5,0-5C432.5,84.3,432.5,89.3,435.7,89.3L435.7,89.3z"/>
	</g>
</g>
<g>
	<path class="st3" d="M268.5,163.4"/>
	<g>
		<path class="st3" d="M268.5,165.9c3.2,0,3.2-5,0-5C265.2,160.9,265.2,165.9,268.5,165.9L268.5,165.9z"/>
	</g>
</g>
<g>
	<path class="st3" d="M650.3,610.7"/>
	<g>
		<path class="st3" d="M650.3,613.2c3.2,0,3.2-5,0-5C647.1,608.2,647.1,613.2,650.3,613.2L650.3,613.2z"/>
	</g>
</g>
<g>
	<path class="st3" d="M101.2,500.4"/>
	<g>
		<path class="st3" d="M101.2,502.9c3.2,0,3.2-5,0-5C98,497.9,98,502.9,101.2,502.9L101.2,502.9z"/>
	</g>
</g>
<g>
	<path class="st3" d="M132.8,243.1"/>
	<g>
		<path class="st3" d="M132.8,245.6c3.2,0,3.2-5,0-5C129.5,240.6,129.5,245.6,132.8,245.6L132.8,245.6z"/>
	</g>
</g>
<g>
	<path class="st3" d="M218,537.2"/>
	<g>
		<path class="st3" d="M218,539.7c3.2,0,3.2-5,0-5C214.8,534.7,214.7,539.7,218,539.7L218,539.7z"/>
	</g>
</g>
<g>
	<path class="st3" d="M183.3,396.2"/>
	<g>
		<path class="st3" d="M183.3,398.7c3.2,0,3.2-5,0-5C180,393.7,180,398.7,183.3,398.7L183.3,398.7z"/>
	</g>
</g>
<g>
	<path class="st3" d="M123.3,429.9"/>
	<g>
		<path class="st3" d="M123.3,432.4c3.2,0,3.2-5,0-5C120.1,427.4,120.1,432.4,123.3,432.4L123.3,432.4z"/>
	</g>
</g>
<g>
	<path class="st3" d="M167.5,89.9"/>
	<g>
		<path class="st3" d="M167.5,92.4c3.2,0,3.2-5,0-5C164.3,87.4,164.3,92.4,167.5,92.4L167.5,92.4z"/>
	</g>
</g>
<g>
	<path class="st3" d="M98,304.3"/>
	<g>
		<path class="st3" d="M98,306.8c3.2,0,3.2-5,0-5C94.8,301.8,94.8,306.8,98,306.8L98,306.8z"/>
	</g>
</g>
<g>
	<path class="st3" d="M560.4,201.7"/>
	<g>
		<path class="st3" d="M560.4,204.2c3.2,0,3.2-5,0-5C557.2,199.2,557.2,204.2,560.4,204.2L560.4,204.2z"/>
	</g>
</g>
<g>
	<path class="st3" d="M667.7,135.8"/>
	<g>
		<path class="st3" d="M667.7,138.3c3.2,0,3.2-5,0-5C664.5,133.3,664.5,138.3,667.7,138.3L667.7,138.3z"/>
	</g>
</g>
<g>
	<path class="st3" d="M324.2,329.4"/>
	<g>
		<path class="st3" d="M324.2,331.9c3.2,0,3.2-5,0-5C321,326.9,321,331.9,324.2,331.9L324.2,331.9z"/>
	</g>
</g>
<g>
	<path class="st3" d="M295.8,219.1"/>
	<g>
		<path class="st3" d="M295.8,221.6c3.2,0,3.2-5,0-5C292.6,216.6,292.6,221.6,295.8,221.6L295.8,221.6z"/>
	</g>
</g>
<g>
	<path class="st3" d="M381,173.1"/>
	<g>
		<path class="st3" d="M381,175.6c3.2,0,3.2-5,0-5C377.8,170.6,377.8,175.6,381,175.6L381,175.6z"/>
	</g>
</g>
<g>
	<path class="st3" d="M377.9,315.6"/>
	<g>
		<path class="st3" d="M377.9,318.1c3.2,0,3.2-5,0-5C374.7,313.1,374.6,318.1,377.9,318.1L377.9,318.1z"/>
	</g>
</g>
<g>
	<path class="st3" d="M475.7,321.7"/>
	<g>
		<path class="st3" d="M475.7,324.2c3.2,0,3.2-5,0-5C472.5,319.2,472.5,324.2,475.7,324.2L475.7,324.2z"/>
	</g>
</g>
<g>
	<path class="st3" d="M527.8,402.9"/>
	<g>
		<path class="st3" d="M527.8,405.4c3.2,0,3.2-5,0-5C524.6,400.4,524.6,405.4,527.8,405.4L527.8,405.4z"/>
	</g>
</g>
<g>
	<path class="st3" d="M624,320.2"/>
	<g>
		<path class="st3" d="M624,322.7c3.2,0,3.2-5,0-5C620.8,317.7,620.8,322.7,624,322.7L624,322.7z"/>
	</g>
</g>
<g>
	<path class="st3" d="M767.3,315.6"/>
	<g>
		<path class="st3" d="M767.3,318.1c3.2,0,3.2-5,0-5C764.1,313.1,764.1,318.1,767.3,318.1L767.3,318.1z"/>
	</g>
</g>
<g>
	<path class="st3" d="M699.8,424.3"/>
	<g>
		<path class="st3" d="M699.8,426.8c3.2,0,3.2-5,0-5C696.6,421.8,696.6,426.8,699.8,426.8L699.8,426.8z"/>
	</g>
</g>
<g>
	<path class="st3" d="M751.5,433.5"/>
	<g>
		<path class="st3" d="M751.5,436c3.2,0,3.2-5,0-5C748.3,431,748.3,436,751.5,436L751.5,436z"/>
	</g>
</g>
<g>
	<path class="st3" d="M718.7,303.3"/>
	<g>
		<path class="st3" d="M718.7,305.8c3.2,0,3.2-5,0-5C715.5,300.8,715.5,305.8,718.7,305.8L718.7,305.8z"/>
	</g>
</g>
<g>
	<path class="st3" d="M743.6,217.5"/>
	<g>
		<path class="st3" d="M743.6,220c3.2,0,3.2-5,0-5C740.4,215,740.4,220,743.6,220L743.6,220z"/>
	</g>
</g>
<g>
	<path class="st3" d="M729.4,107.2"/>
	<g>
		<path class="st3" d="M729.4,109.7c3.2,0,3.2-5,0-5C726.2,104.7,726.2,109.7,729.4,109.7L729.4,109.7z"/>
	</g>
</g>
<g>
	<path class="st3" d="M756.3,53.1"/>
	<g>
		<path class="st3" d="M756.3,55.6c3.2,0,3.2-5,0-5C753.1,50.6,753.1,55.6,756.3,55.6L756.3,55.6z"/>
	</g>
</g>
<g>
	<path class="st3" d="M726.6,73.5"/>
	<g>
		<path class="st3" d="M726.6,76c3.2,0,3.2-5,0-5C723.4,71,723.4,76,726.6,76L726.6,76z"/>
	</g>
</g>
<g>
	<path class="st3" d="M403.1,58.2"/>
	<g>
		<path class="st3" d="M403.1,60.7c3.2,0,3.2-5,0-5C399.9,55.7,399.9,60.7,403.1,60.7L403.1,60.7z"/>
	</g>
</g>
<g>
	<path class="st3" d="M504.1,44.4"/>
	<g>
		<path class="st3" d="M504.1,46.9c3.2,0,3.2-5,0-5C500.9,41.9,500.9,46.9,504.1,46.9L504.1,46.9z"/>
	</g>
</g>
<g>
	<path class="st3" d="M152.2,68.9"/>
	<g>
		<path class="st3" d="M152.2,71.4c3.2,0,3.2-5,0-5C149,66.4,149,71.4,152.2,71.4L152.2,71.4z"/>
	</g>
</g>
<g>
	<path class="st3" d="M297.4,427.4"/>
	<g>
		<path class="st3" d="M297.4,429.9c3.2,0,3.2-5,0-5C294.2,424.9,294.2,429.9,297.4,429.9L297.4,429.9z"/>
	</g>
</g>
<g>
	<path class="st3" d="M461.5,363.1"/>
	<g>
		<path class="st3" d="M461.5,365.6c3.2,0,3.2-5,0-5C458.3,360.6,458.3,365.6,461.5,365.6L461.5,365.6z"/>
	</g>
</g>
<g>
	<path class="st3" d="M412.6,513.2"/>
	<g>
		<path class="st3" d="M412.6,515.7c3.2,0,3.2-5,0-5C409.4,510.7,409.4,515.7,412.6,515.7L412.6,515.7z"/>
	</g>
</g>
<g>
	<path class="st3" d="M272.1,445.8"/>
	<g>
		<path class="st3" d="M272.1,448.3c3.2,0,3.2-5,0-5C268.9,443.3,268.9,448.3,272.1,448.3L272.1,448.3z"/>
	</g>
</g>
<g>
	<path class="st3" d="M447.3,428.9"/>
	<g>
		<path class="st3" d="M447.3,431.4c3.2,0,3.2-5,0-5C444.1,426.4,444.1,431.4,447.3,431.4L447.3,431.4z"/>
	</g>
</g>
<g>
	<path class="st3" d="M398.4,482.5"/>
	<g>
		<path class="st3" d="M398.4,485c3.2,0,3.2-5,0-5C395.2,480,395.2,485,398.4,485L398.4,485z"/>
	</g>
</g>
<g>
	<path class="st3" d="M289.5,493.3"/>
	<g>
		<path class="st3" d="M289.5,495.8c3.2,0,3.2-5,0-5C286.3,490.8,286.3,495.8,289.5,495.8L289.5,495.8z"/>
	</g>
</g>
<g>
	<path class="st3" d="M212.2,470.3"/>
	<g>
		<path class="st3" d="M212.2,472.8c3.2,0,3.2-5,0-5C209,467.8,209,472.8,212.2,472.8L212.2,472.8z"/>
	</g>
</g>
<g>
	<path class="st3" d="M245.3,582.1"/>
	<g>
		<path class="st3" d="M245.3,584.6c3.2,0,3.2-5,0-5C242.1,579.6,242.1,584.6,245.3,584.6L245.3,584.6z"/>
	</g>
</g>
<g>
	<path class="st3" d="M480.4,540.8"/>
	<g>
		<path class="st3" d="M480.4,543.3c3.2,0,3.2-5,0-5C477.2,538.3,477.2,543.3,480.4,543.3L480.4,543.3z"/>
	</g>
</g>
<g>
	<path class="st3" d="M504.1,491.7"/>
	<g>
		<path class="st3" d="M504.1,494.2c3.2,0,3.2-5,0-5C500.9,489.2,500.9,494.2,504.1,494.2L504.1,494.2z"/>
	</g>
</g>
<g>
	<path class="st3" d="M542,461.1"/>
	<g>
		<path class="st3" d="M542,463.6c3.2,0,3.2-5,0-5C538.8,458.6,538.8,463.6,542,463.6L542,463.6z"/>
	</g>
</g>
<g>
	<path class="st3" d="M609.8,499.4"/>
	<g>
		<path class="st3" d="M609.8,501.9c3.2,0,3.2-5,0-5C606.6,496.9,606.6,501.9,609.8,501.9L609.8,501.9z"/>
	</g>
</g>
<g>
	<path class="st3" d="M575.1,594.4"/>
	<g>
		<path class="st3" d="M575.1,596.9c3.2,0,3.2-5,0-5C571.9,591.9,571.9,596.9,575.1,596.9L575.1,596.9z"/>
	</g>
</g>
<g>
	<path class="st3" d="M411,579.1"/>
	<g>
		<path class="st3" d="M411,581.6c3.2,0,3.2-5,0-5C407.8,576.6,407.8,581.6,411,581.6L411,581.6z"/>
	</g>
</g>
<g>
	<path class="st3" d="M530.9,586.7"/>
	<g>
		<path class="st3" d="M530.9,589.2c3.2,0,3.2-5,0-5C527.7,584.2,527.7,589.2,530.9,589.2L530.9,589.2z"/>
	</g>
</g>
<g>
	<path class="st3" d="M417.3,638.8"/>
	<g>
		<path class="st3" d="M417.3,641.3c3.2,0,3.2-5,0-5C414.1,636.3,414.1,641.3,417.3,641.3L417.3,641.3z"/>
	</g>
</g>
<g>
	<path class="st3" d="M352.6,592.8"/>
	<g>
		<path class="st3" d="M352.6,595.3c3.2,0,3.2-5,0-5C349.4,590.3,349.4,595.3,352.6,595.3L352.6,595.3z"/>
	</g>
</g>
<g>
	<path class="st3" d="M347.9,533.1"/>
	<g>
		<path class="st3" d="M347.9,535.6c3.2,0,3.2-5,0-5C344.7,530.6,344.7,535.6,347.9,535.6L347.9,535.6z"/>
	</g>
</g>
<g>
	<path class="st3" d="M130.1,605.1"/>
	<g>
		<path class="st3" d="M130.1,607.6c3.2,0,3.2-5,0-5C126.9,602.6,126.9,607.6,130.1,607.6L130.1,607.6z"/>
	</g>
</g>
<g>
	<path class="st3" d="M229.5,628.1"/>
	<g>
		<path class="st3" d="M229.5,630.6c3.2,0,3.2-5,0-5C226.3,625.6,226.3,630.6,229.5,630.6L229.5,630.6z"/>
	</g>
</g>
<g>
	<path class="st3" d="M106.5,511.6"/>
	<g>
		<path class="st3" d="M106.5,514.1c3.2,0,3.2-5,0-5C103.2,509.1,103.2,514.1,106.5,514.1L106.5,514.1z"/>
	</g>
</g>
<g>
	<path class="st3" d="M191.7,286.5"/>
	<g>
		<path class="st3" d="M191.7,289c3.2,0,3.2-5,0-5C188.5,284,188.4,289,191.7,289L191.7,289z"/>
	</g>
</g>
<g>
	<path class="st3" d="M311.6,295.6"/>
	<g>
		<path class="st3" d="M311.6,298.1c3.2,0,3.2-5,0-5C308.4,293.1,308.4,298.1,311.6,298.1L311.6,298.1z"/>
	</g>
</g>
<rect x="18.2" y="644.3" class="st4" width="757.2" height="134.5"/>
<path class="st5" d="M735.3,857.8H59c-22.3,0-40.4-18.1-40.4-40.4v-76.6h757.2v76.6C775.8,839.7,757.7,857.8,735.3,857.8z"/>
<path class="st6" d="M384.3,155.6C77.9,466.6,310.8,728,310.8,728h147.6c0,0,232.9-261.4-73.5-572.4"/>
<circle class="st7" cx="384.9" cy="439.3" r="83.1"/>
<circle class="st8" cx="384.9" cy="438.2" r="63.6"/>
<polyline class="st8" points="311.8,728 283.1,792.1 487.8,792.1 459.1,728 "/>
<path class="st9" d="M237,398.1c0,0-127,129.2-44.2,319.4l65.6-76.6c-36.3-72.7-42.9-154.6-22.3-241.4"/>
<path class="st9" d="M530.2,398.1c0,0,127,129.2,44.2,319.4l-65.6-76.6c36.3-72.7,42.9-154.6,22.3-241.4"/>
<path class="st10" d="M703.6,52.3h-82.7c-3.3,0-5.9,2.6-5.9,5.9v725.4c0,3.3,2.6,5.9,5.9,5.9h82.7c3.3,0,5.9-2.6,5.9-5.9V58.2
	C709.5,55,706.8,52.3,703.6,52.3z"/>
<path class="st10" d="M123.5,58v82.7c0,3.3,2.6,5.9,5.9,5.9h573.8c3.3,0,5.9-2.6,5.9-5.9V58c0-3.3-2.6-5.9-5.9-5.9H129.4
	C126.1,52.1,123.5,54.8,123.5,58z"/>
<line class="st10" x1="614.2" y1="50.8" x2="710.7" y2="147.3"/>
<line class="st10" x1="710.7" y1="50.8" x2="614.2" y2="147.3"/>
<line class="st10" x1="614.2" y1="144.8" x2="710.7" y2="241.3"/>
<line class="st10" x1="710.7" y1="144.8" x2="614.2" y2="241.3"/>
<line class="st10" x1="614.2" y1="244.8" x2="710.7" y2="341.3"/>
<line class="st10" x1="710.7" y1="244.8" x2="614.2" y2="341.3"/>
<line class="st10" x1="614.2" y1="338.8" x2="710.7" y2="435.3"/>
<line class="st10" x1="710.7" y1="338.8" x2="614.2" y2="435.3"/>
<line class="st10" x1="614.2" y1="438.8" x2="710.7" y2="535.3"/>
<line class="st10" x1="710.7" y1="438.8" x2="614.2" y2="535.3"/>
<line class="st10" x1="614.2" y1="539.8" x2="710.7" y2="636.3"/>
<line class="st10" x1="710.7" y1="539.8" x2="614.2" y2="636.3"/>
<line class="st10" x1="614.2" y1="639.8" x2="710.7" y2="736.3"/>
<line class="st10" x1="710.7" y1="639.8" x2="614.2" y2="736.3"/>
<line class="st10" x1="614.2" y1="733.8" x2="670.7" y2="790.3"/>
<line class="st10" x1="710.7" y1="733.8" x2="654.7" y2="789.9"/>
<line class="st10" x1="614.6" y1="50.3" x2="518.1" y2="146.8"/>
<line class="st10" x1="614.6" y1="146.8" x2="518.1" y2="50.3"/>
<line class="st10" x1="514.6" y1="50.3" x2="418.1" y2="146.8"/>
<line class="st10" x1="514.6" y1="146.8" x2="418.1" y2="50.3"/>
<line class="st10" x1="420.6" y1="50.3" x2="324.1" y2="146.8"/>
<line class="st10" x1="420.6" y1="146.8" x2="324.1" y2="50.3"/>
<line class="st10" x1="320.6" y1="50.3" x2="224.1" y2="146.8"/>
<line class="st10" x1="320.6" y1="146.8" x2="224.1" y2="50.3"/>
<line class="st10" x1="219.6" y1="50.3" x2="123.1" y2="146.8"/>
<line class="st10" x1="219.6" y1="146.8" x2="123.1" y2="50.3"/>
<path class="st11" d="M731.8,857.2H59.8c-23.2,0-42.1-18.8-42.1-42.1v-767C17.7,24.9,36.5,6,59.8,6h672.1
	c23.2,0,42.1,18.8,42.1,42.1v767C773.9,838.3,755.1,857.2,731.8,857.2z"/>
</svg>
