<?xml version="1.0" encoding="utf-8"?>
<!-- Generator: Adobe Illustrator 27.3.1, SVG Export Plug-In . SVG Version: 6.00 Build 0)  -->
<svg version="1.1" id="Layer_1" xmlns="http://www.w3.org/2000/svg" xmlns:xlink="http://www.w3.org/1999/xlink" x="0px" y="0px"
	 viewBox="0 0 1512 576" style="enable-background:new 0 0 1512 576;" xml:space="preserve">
<style type="text/css">
	.st0{fill:#142728;}
	.st1{fill:#E5E5E4;}
	.st2{fill:#FFF1E7;}
	.st3{fill:#EEE0D8;stroke:#D7AF9D;stroke-width:3;stroke-miterlimit:10;}
	.st4{fill:#CEBBB3;stroke:#C2A79D;stroke-width:4;stroke-miterlimit:10;}
	.st5{fill:#1B140F;stroke:#000000;stroke-width:3;stroke-miterlimit:10;}
	.st6{fill:#D74928;stroke:#BB3B26;stroke-width:3;stroke-linecap:round;stroke-linejoin:round;stroke-miterlimit:10;}
	.st7{fill:none;stroke:#B1AE9C;stroke-width:8;stroke-miterlimit:10;}
	.st8{fill:none;stroke:#A8A694;stroke-miterlimit:10;}
	.st9{fill:#EA8039;stroke:#CE6128;stroke-miterlimit:10;}
	.st10{fill:#EDE0D9;stroke:#D8AE9E;stroke-miterlimit:10;}
	.st11{fill:none;stroke:#AA5517;stroke-width:0.5;stroke-miterlimit:10;}
	.st12{fill:none;stroke:#B1AE9B;stroke-width:0.5;stroke-miterlimit:10;}
	.st13{fill:#DC7038;stroke:#AA5626;stroke-width:0.5;stroke-miterlimit:10;}
	.st14{fill:#D64727;stroke:#BB3A26;stroke-miterlimit:10;}
	.st15{fill:#FEE7D8;stroke:#C6B6B0;stroke-width:0.75;stroke-linecap:round;stroke-linejoin:round;stroke-miterlimit:10;}
	.st16{fill:none;stroke:#3D52A4;stroke-width:0.5;stroke-linecap:round;stroke-linejoin:round;stroke-miterlimit:10;}
	.st17{fill:none;stroke:#B5956A;stroke-width:0.5;stroke-miterlimit:10;}
	.st18{fill:none;stroke:#B5956A;stroke-width:0.5;stroke-linecap:round;stroke-linejoin:round;stroke-miterlimit:10;}
	.st19{fill:none;stroke:#BB3A26;stroke-miterlimit:10;}
	.st20{fill:#EDDFD9;stroke:#CEBBB3;stroke-miterlimit:10;}
	.st21{fill:none;stroke:#214144;stroke-width:3;stroke-miterlimit:10;}
	.st22{fill:none;stroke:#A8A694;stroke-width:0.5;stroke-miterlimit:10;}
	.st23{fill:none;stroke:#A5391D;stroke-width:0.5;stroke-miterlimit:10;}
	.st24{fill:none;stroke:#82C341;stroke-width:0.5;stroke-linecap:round;stroke-linejoin:round;stroke-miterlimit:10;}
	.st25{fill:#D23C27;stroke:#A53A23;stroke-width:0.5;stroke-miterlimit:10;}
	.st26{fill:#EFE8CC;stroke:#B5956A;stroke-width:0.5;stroke-miterlimit:10;}
	.st27{fill:#1A110A;}
	.st28{fill:none;stroke:#76CDE1;stroke-width:2;stroke-linecap:round;stroke-linejoin:round;stroke-miterlimit:10;}
	.st29{fill:#0E1A1C;stroke:#76CDE1;stroke-width:2;stroke-miterlimit:10;}
	.st30{fill:none;stroke:#76CDE1;stroke-width:2;stroke-miterlimit:10;}
	.st31{fill:#B4D5DD;stroke:#7CAFB5;stroke-linecap:round;stroke-miterlimit:10;}
	.st32{fill:#0E1A1C;stroke:#7CAFB5;stroke-linecap:round;stroke-miterlimit:10;}
	.st33{fill:#E5E5E5;}
	.st34{fill:#1D4149;stroke:#11292D;stroke-width:3;stroke-linecap:round;stroke-linejoin:round;stroke-miterlimit:10;}
	.st35{fill:none;stroke:#2A4E51;stroke-linecap:round;stroke-linejoin:round;stroke-miterlimit:10;}
	.st36{fill:#2C6069;stroke:#224B4F;stroke-miterlimit:10;}
	.st37{fill:none;stroke:#9BC9CE;stroke-width:2;stroke-linecap:round;stroke-miterlimit:10;}
	.st38{fill:none;stroke:#9BC9CE;stroke-width:2;stroke-linecap:round;stroke-miterlimit:10;stroke-dasharray:4.8879,4.8879;}
	.st39{fill:#D3E0E2;stroke:#BAD7D9;stroke-miterlimit:10;}
	.st40{fill:none;stroke:#070909;stroke-width:5;stroke-miterlimit:10;}
</style>
<path class="st0" d="M1495.18,568.66H17.57c-7.55,0-13.67-6.12-13.67-13.67V21.01c0-7.55,6.12-13.67,13.67-13.67h1477.61
	c7.55,0,13.67,6.12,13.67,13.67v533.98C1508.85,562.54,1502.73,568.66,1495.18,568.66z"/>
<g>
	<path class="st1" d="M313.78,189.78"/>
	<g>
		<path class="st1" d="M313.78,192.28c3.22,0,3.22-5,0-5C310.56,187.28,310.56,192.28,313.78,192.28L313.78,192.28z"/>
	</g>
</g>
<g>
	<path class="st1" d="M376.9,462.46"/>
	<g>
		<path class="st1" d="M376.9,464.96c3.22,0,3.22-5,0-5C373.68,459.96,373.68,464.96,376.9,464.96L376.9,464.96z"/>
	</g>
</g>
<g>
	<path class="st1" d="M421.08,327.66"/>
	<g>
		<path class="st1" d="M421.08,330.16c3.22,0,3.22-5,0-5C417.86,325.16,417.86,330.16,421.08,330.16L421.08,330.16z"/>
	</g>
</g>
<g>
	<path class="st1" d="M446.33,149.95"/>
	<g>
		<path class="st1" d="M446.33,152.45c3.22,0,3.22-5,0-5C443.11,147.45,443.11,152.45,446.33,152.45L446.33,152.45z"/>
	</g>
</g>
<g>
	<path class="st1" d="M1459.62,232.18"/>
	<g>
		<path class="st1" d="M1459.62,234.68c3.22,0,3.22-5,0-5C1456.4,229.68,1456.4,234.68,1459.62,234.68L1459.62,234.68z"/>
	</g>
</g>
<g>
	<path class="st1" d="M1508.45,149.74"/>
	<g>
		<path class="st1" d="M1508.45,152.24c3.22,0,3.22-5,0-5C1505.24,147.24,1505.23,152.24,1508.45,152.24L1508.45,152.24z"/>
	</g>
</g>
<g>
	<path class="st1" d="M348.49,168.34"/>
	<g>
		<path class="st1" d="M348.49,170.84c3.22,0,3.22-5,0-5C345.28,165.84,345.27,170.84,348.49,170.84L348.49,170.84z"/>
	</g>
</g>
<g>
	<path class="st1" d="M1432.77,164.25"/>
	<g>
		<path class="st1" d="M1432.77,166.75c3.22,0,3.22-5,0-5C1429.55,161.75,1429.55,166.75,1432.77,166.75L1432.77,166.75z"/>
	</g>
</g>
<g>
	<path class="st1" d="M397.41,208.17"/>
	<g>
		<path class="st1" d="M397.41,210.67c3.22,0,3.22-5,0-5C394.19,205.67,394.19,210.67,397.41,210.67L397.41,210.67z"/>
	</g>
</g>
<g>
	<path class="st1" d="M353.75,392.51"/>
	<g>
		<path class="st1" d="M353.75,395.01c3.22,0,3.22-5,0-5C350.54,390.01,350.53,395.01,353.75,395.01L353.75,395.01z"/>
	</g>
</g>
<g>
	<path class="st1" d="M497,387.91"/>
	<g>
		<path class="st1" d="M497,390.41c3.22,0,3.22-5,0-5C493.78,385.41,493.78,390.41,497,390.41L497,390.41z"/>
	</g>
</g>
<g>
	<path class="st1" d="M429.5,496.68"/>
	<g>
		<path class="st1" d="M429.5,499.18c3.22,0,3.22-5,0-5C426.28,494.18,426.27,499.18,429.5,499.18L429.5,499.18z"/>
	</g>
</g>
<g>
	<path class="st1" d="M481.21,505.87"/>
	<g>
		<path class="st1" d="M481.21,508.37c3.22,0,3.22-5,0-5C477.99,503.37,477.99,508.37,481.21,508.37L481.21,508.37z"/>
	</g>
</g>
<g>
	<path class="st1" d="M448.43,375.66"/>
	<g>
		<path class="st1" d="M448.43,378.16c3.22,0,3.22-5,0-5C445.22,373.16,445.21,378.16,448.43,378.16L448.43,378.16z"/>
	</g>
</g>
<g>
	<path class="st1" d="M473.32,289.87"/>
	<g>
		<path class="st1" d="M473.32,292.37c3.22,0,3.22-5,0-5C470.1,287.37,470.09,292.37,473.32,292.37L473.32,292.37z"/>
	</g>
</g>
<g>
	<path class="st1" d="M459.11,179.57"/>
	<g>
		<path class="st1" d="M459.11,182.07c3.22,0,3.22-5,0-5C455.89,177.07,455.88,182.07,459.11,182.07L459.11,182.07z"/>
	</g>
</g>
<g>
	<path class="st1" d="M361.64,83.06"/>
	<g>
		<path class="st1" d="M361.64,85.56c3.22,0,3.22-5,0-5C358.43,80.56,358.42,85.56,361.64,85.56L361.64,85.56z"/>
	</g>
</g>
<g>
	<path class="st1" d="M401.09,43.23"/>
	<g>
		<path class="st1" d="M401.09,45.73c3.22,0,3.22-5,0-5C397.88,40.73,397.87,45.73,401.09,45.73L401.09,45.73z"/>
	</g>
</g>
<g>
	<path class="st1" d="M486.04,125.49"/>
	<g>
		<path class="st1" d="M486.04,127.99c3.22,0,3.22-5,0-5C482.82,122.99,482.81,127.99,486.04,127.99L486.04,127.99z"/>
	</g>
</g>
<g>
	<path class="st1" d="M456.32,145.87"/>
	<g>
		<path class="st1" d="M456.32,148.37c3.22,0,3.22-5,0-5C453.11,143.37,453.1,148.37,456.32,148.37L456.32,148.37z"/>
	</g>
</g>
<g>
	<path class="st1" d="M1383.78,104.88"/>
	<g>
		<path class="st1" d="M1383.78,107.38c3.22,0,3.22-5,0-5C1380.56,102.38,1380.56,107.38,1383.78,107.38L1383.78,107.38z"/>
	</g>
</g>
<g>
	<path class="st1" d="M787.39,57.27"/>
	<g>
		<path class="st1" d="M787.39,59.77c3.22,0,3.22-5,0-5C784.17,54.77,784.17,59.77,787.39,59.77L787.39,59.77z"/>
	</g>
</g>
<g>
	<path class="st1" d="M901,231.9"/>
	<g>
		<path class="st1" d="M901,234.4c3.22,0,3.22-5,0-5C897.78,229.4,897.78,234.4,901,234.4L901,234.4z"/>
	</g>
</g>
<g>
	<path class="st1" d="M1080.89,336.07"/>
	<g>
		<path class="st1" d="M1080.89,338.57c3.22,0,3.22-5,0-5C1077.67,333.57,1077.67,338.57,1080.89,338.57L1080.89,338.57z"/>
	</g>
</g>
<g>
	<path class="st1" d="M1102.98,124.67"/>
	<g>
		<path class="st1" d="M1102.98,127.17c3.22,0,3.22-5,0-5C1099.77,122.17,1099.76,127.17,1102.98,127.17L1102.98,127.17z"/>
	</g>
</g>
<g>
	<path class="st1" d="M1185.04,342.2"/>
	<g>
		<path class="st1" d="M1185.04,344.7c3.22,0,3.22-5,0-5C1181.82,339.7,1181.81,344.7,1185.04,344.7L1185.04,344.7z"/>
	</g>
</g>
<g>
	<path class="st1" d="M809.48,391.22"/>
	<g>
		<path class="st1" d="M809.48,393.72c3.22,0,3.22-5,0-5C806.26,388.72,806.26,393.72,809.48,393.72L809.48,393.72z"/>
	</g>
</g>
<g>
	<path class="st1" d="M1077.73,556.67"/>
	<g>
		<path class="st1" d="M1077.73,559.17c3.22,0,3.22-5,0-5C1074.52,554.17,1074.51,559.17,1077.73,559.17L1077.73,559.17z"/>
	</g>
</g>
<g>
	<path class="st1" d="M1510.1,290.12"/>
	<g>
		<path class="st1" d="M1510.1,292.62c3.22,0,3.22-5,0-5C1506.88,287.62,1506.88,292.62,1510.1,292.62L1510.1,292.62z"/>
	</g>
</g>
<g>
	<path class="st1" d="M1500.63,133.86"/>
	<g>
		<path class="st1" d="M1500.63,136.36c3.22,0,3.22-5,0-5C1497.41,131.36,1497.41,136.36,1500.63,136.36L1500.63,136.36z"/>
	</g>
</g>
<g>
	<path class="st1" d="M1387.02,238.03"/>
	<g>
		<path class="st1" d="M1387.02,240.53c3.22,0,3.22-5,0-5C1383.8,235.53,1383.8,240.53,1387.02,240.53L1387.02,240.53z"/>
	</g>
</g>
<g>
	<path class="st1" d="M1140.85,244.16"/>
	<g>
		<path class="st1" d="M1140.85,246.66c3.22,0,3.22-5,0-5C1137.64,241.66,1137.63,246.66,1140.85,246.66L1140.85,246.66z"/>
	</g>
</g>
<g>
	<path class="st1" d="M721.11,305.44"/>
	<g>
		<path class="st1" d="M721.11,307.94c3.22,0,3.22-5,0-5C717.9,302.94,717.89,307.94,721.11,307.94L721.11,307.94z"/>
	</g>
</g>
<g>
	<path class="st1" d="M695.87,504.58"/>
	<g>
		<path class="st1" d="M695.87,507.08c3.22,0,3.22-5,0-5C692.65,502.08,692.64,507.08,695.87,507.08L695.87,507.08z"/>
	</g>
</g>
<g>
	<path class="st1" d="M534.91,69.52"/>
	<g>
		<path class="st1" d="M534.91,72.02c3.22,0,3.22-5,0-5C531.69,67.02,531.69,72.02,534.91,72.02L534.91,72.02z"/>
	</g>
</g>
<g>
	<path class="st1" d="M200.38,121.61"/>
	<g>
		<path class="st1" d="M200.38,124.11c3.22,0,3.22-5,0-5C197.16,119.11,197.16,124.11,200.38,124.11L200.38,124.11z"/>
	</g>
</g>
<g>
	<path class="st1" d="M617.81,45.36"/>
	<g>
		<path class="st1" d="M617.81,47.86c3.22,0,3.22-5,0-5C614.59,42.86,614.58,47.86,617.81,47.86L617.81,47.86z"/>
	</g>
</g>
<g>
	<path class="st1" d="M54.19,104.85"/>
	<g>
		<path class="st1" d="M54.19,107.35c3.22,0,3.22-5,0-5C50.98,102.35,50.97,107.35,54.19,107.35L54.19,107.35z"/>
	</g>
</g>
<g>
	<path class="st1" d="M645.37,283.99"/>
	<g>
		<path class="st1" d="M645.37,286.49c3.22,0,3.22-5,0-5C642.15,281.49,642.15,286.49,645.37,286.49L645.37,286.49z"/>
	</g>
</g>
<g>
	<path class="st1" d="M528.6,23.56"/>
	<g>
		<path class="st1" d="M528.6,26.06c3.22,0,3.22-5,0-5C525.38,21.06,525.38,26.06,528.6,26.06L528.6,26.06z"/>
	</g>
</g>
<g>
	<path class="st1" d="M206.69,32.75"/>
	<g>
		<path class="st1" d="M206.69,35.25c3.22,0,3.22-5,0-5C203.48,30.25,203.47,35.25,206.69,35.25L206.69,35.25z"/>
	</g>
</g>
<g>
	<path class="st1" d="M11.02,54.2"/>
	<g>
		<path class="st1" d="M11.02,56.7c3.22,0,3.22-5,0-5C7.81,51.7,7.8,56.7,11.02,56.7L11.02,56.7z"/>
	</g>
</g>
<g>
	<path class="st1" d="M614.4,204.21"/>
	<g>
		<path class="st1" d="M614.4,206.71c3.22,0,3.22-5,0-5C611.19,201.71,611.18,206.71,614.4,206.71L614.4,206.71z"/>
	</g>
</g>
<g>
	<path class="st1" d="M714.8,195.14"/>
	<g>
		<path class="st1" d="M714.8,197.64c3.22,0,3.22-5,0-5C711.58,192.64,711.58,197.64,714.8,197.64L714.8,197.64z"/>
	</g>
</g>
<g>
	<path class="st1" d="M904.16,106.29"/>
	<g>
		<path class="st1" d="M904.16,108.79c3.22,0,3.22-5,0-5C900.94,103.79,900.94,108.79,904.16,108.79L904.16,108.79z"/>
	</g>
</g>
<g>
	<path class="st1" d="M1036.71,216.58"/>
	<g>
		<path class="st1" d="M1036.71,219.08c3.22,0,3.22-5,0-5C1033.49,214.08,1033.49,219.08,1036.71,219.08L1036.71,219.08z"/>
	</g>
</g>
<g>
	<path class="st1" d="M651.68,409.61"/>
	<g>
		<path class="st1" d="M651.68,412.11c3.22,0,3.22-5,0-5C648.46,407.11,648.46,412.11,651.68,412.11L651.68,412.11z"/>
	</g>
</g>
<g>
	<path class="st1" d="M1393.33,526.03"/>
	<g>
		<path class="st1" d="M1393.33,528.53c3.22,0,3.22-5,0-5C1390.11,523.53,1390.11,528.53,1393.33,528.53L1393.33,528.53z"/>
	</g>
</g>
<g>
	<path class="st1" d="M1276.56,66.46"/>
	<g>
		<path class="st1" d="M1276.56,68.96c3.22,0,3.22-5,0-5C1273.34,63.96,1273.34,68.96,1276.56,68.96L1276.56,68.96z"/>
	</g>
</g>
<g>
	<path class="st1" d="M1393.33,81.78"/>
	<g>
		<path class="st1" d="M1393.33,84.28c3.22,0,3.22-5,0-5C1390.11,79.28,1390.11,84.28,1393.33,84.28L1393.33,84.28z"/>
	</g>
</g>
<g>
	<path class="st1" d="M1226.06,158.37"/>
	<g>
		<path class="st1" d="M1226.06,160.87c3.22,0,3.22-5,0-5C1222.85,155.87,1222.84,160.87,1226.06,160.87L1226.06,160.87z"/>
	</g>
</g>
<g>
	<path class="st1" d="M957.55,20.24"/>
	<g>
		<path class="st1" d="M957.55,22.74c3.22,0,3.22-5,0-5C954.33,17.74,954.32,22.74,957.55,22.74L957.55,22.74z"/>
	</g>
</g>
<g>
	<path class="st1" d="M883.92,101.94"/>
	<g>
		<path class="st1" d="M883.92,104.44c3.22,0,3.22-5,0-5C880.7,99.44,880.7,104.44,883.92,104.44L883.92,104.44z"/>
	</g>
</g>
<g>
	<path class="st1" d="M800.85,103.57"/>
	<g>
		<path class="st1" d="M800.85,106.07c3.22,0,3.22-5,0-5C797.63,101.07,797.63,106.07,800.85,106.07L800.85,106.07z"/>
	</g>
</g>
<g>
	<path class="st1" d="M1058.8,495.39"/>
	<g>
		<path class="st1" d="M1058.8,497.89c3.22,0,3.22-5,0-5C1055.58,492.89,1055.58,497.89,1058.8,497.89L1058.8,497.89z"/>
	</g>
</g>
<g>
	<path class="st1" d="M749.52,516.84"/>
	<g>
		<path class="st1" d="M749.52,519.34c3.22,0,3.22-5,0-5C746.3,514.34,746.29,519.34,749.52,519.34L749.52,519.34z"/>
	</g>
</g>
<g>
	<path class="st1" d="M774.76,366.71"/>
	<g>
		<path class="st1" d="M774.76,369.21c3.22,0,3.22-5,0-5C771.55,364.21,771.54,369.21,774.76,369.21L774.76,369.21z"/>
	</g>
</g>
<g>
	<path class="st1" d="M853.66,164.5"/>
	<g>
		<path class="st1" d="M853.66,167c3.22,0,3.22-5,0-5C850.45,162,850.44,167,853.66,167L853.66,167z"/>
	</g>
</g>
<g>
	<path class="st1" d="M709.08,216.47"/>
	<g>
		<path class="st1" d="M709.08,218.97c3.22,0,3.22-5,0-5C705.86,213.97,705.86,218.97,709.08,218.97L709.08,218.97z"/>
	</g>
</g>
<g>
	<path class="st1" d="M554.44,268.55"/>
	<g>
		<path class="st1" d="M554.44,271.05c3.22,0,3.22-5,0-5C551.22,266.05,551.22,271.05,554.44,271.05L554.44,271.05z"/>
	</g>
</g>
<g>
	<path class="st1" d="M560.75,152.13"/>
	<g>
		<path class="st1" d="M560.75,154.63c3.22,0,3.22-5,0-5C557.53,149.63,557.53,154.63,560.75,154.63L560.75,154.63z"/>
	</g>
</g>
<g>
	<path class="st1" d="M364.49,41.95"/>
	<g>
		<path class="st1" d="M364.49,44.45c3.22,0,3.22-5,0-5C361.27,39.45,361.27,44.45,364.49,44.45L364.49,44.45z"/>
	</g>
</g>
<g>
	<path class="st1" d="M130.95,84.84"/>
	<g>
		<path class="st1" d="M130.95,87.34c3.22,0,3.22-5,0-5C127.73,82.34,127.73,87.34,130.95,87.34L130.95,87.34z"/>
	</g>
</g>
<g>
	<path class="st1" d="M219.32,247.22"/>
	<g>
		<path class="st1" d="M219.32,249.72c3.22,0,3.22-5,0-5C216.1,244.72,216.09,249.72,219.32,249.72L219.32,249.72z"/>
	</g>
</g>
<g>
	<path class="st1" d="M59.45,205.96"/>
	<g>
		<path class="st1" d="M59.45,208.46c3.22,0,3.22-5,0-5C56.23,203.46,56.23,208.46,59.45,208.46L59.45,208.46z"/>
	</g>
</g>
<g>
	<path class="st1" d="M213.01,378.97"/>
	<g>
		<path class="st1" d="M213.01,381.47c3.22,0,3.22-5,0-5C209.79,376.47,209.78,381.47,213.01,381.47L213.01,381.47z"/>
	</g>
</g>
<g>
	<path class="st1" d="M784.23,329.95"/>
	<g>
		<path class="st1" d="M784.23,332.45c3.22,0,3.22-5,0-5C781.01,327.45,781.01,332.45,784.23,332.45L784.23,332.45z"/>
	</g>
</g>
<g>
	<path class="st1" d="M702.18,556.67"/>
	<g>
		<path class="st1" d="M702.18,559.17c3.22,0,3.22-5,0-5C698.96,554.17,698.95,559.17,702.18,559.17L702.18,559.17z"/>
	</g>
</g>
<g>
	<path class="st1" d="M326.62,336.07"/>
	<g>
		<path class="st1" d="M326.62,338.57c3.22,0,3.22-5,0-5C323.4,333.57,323.4,338.57,326.62,338.57L326.62,338.57z"/>
	</g>
</g>
<g>
	<path class="st1" d="M497.04,354.46"/>
	<g>
		<path class="st1" d="M497.04,356.96c3.22,0,3.22-5,0-5C493.82,351.96,493.82,356.96,497.04,356.96L497.04,356.96z"/>
	</g>
</g>
<g>
	<path class="st1" d="M323.46,259.48"/>
	<g>
		<path class="st1" d="M323.46,261.98c3.22,0,3.22-5,0-5C320.25,256.98,320.24,261.98,323.46,261.98L323.46,261.98z"/>
	</g>
</g>
<g>
	<path class="st1" d="M175.13,308.5"/>
	<g>
		<path class="st1" d="M175.13,311c3.22,0,3.22-5,0-5C171.92,306,171.91,311,175.13,311L175.13,311z"/>
	</g>
</g>
<g>
	<path class="st1" d="M99.39,238.03"/>
	<g>
		<path class="st1" d="M99.39,240.53c3.22,0,3.22-5,0-5C96.17,235.53,96.17,240.53,99.39,240.53L99.39,240.53z"/>
	</g>
</g>
<g>
	<path class="st1" d="M165.67,234.97"/>
	<g>
		<path class="st1" d="M165.67,237.47c3.22,0,3.22-5,0-5C162.45,232.47,162.44,237.47,165.67,237.47L165.67,237.47z"/>
	</g>
</g>
<g>
	<path class="st1" d="M272.97,130.8"/>
	<g>
		<path class="st1" d="M272.97,133.3c3.22,0,3.22-5,0-5C269.75,128.3,269.75,133.3,272.97,133.3L272.97,133.3z"/>
	</g>
</g>
<g>
	<path class="st1" d="M661.15,185.95"/>
	<g>
		<path class="st1" d="M661.15,188.45c3.22,0,3.22-5,0-5C657.93,183.45,657.93,188.45,661.15,188.45L661.15,188.45z"/>
	</g>
</g>
<g>
	<path class="st1" d="M449.7,72.58"/>
	<g>
		<path class="st1" d="M449.7,75.08c3.22,0,3.22-5,0-5C446.48,70.08,446.48,75.08,449.7,75.08L449.7,75.08z"/>
	</g>
</g>
<g>
	<path class="st1" d="M856.82,51.14"/>
	<g>
		<path class="st1" d="M856.82,53.64c3.22,0,3.22-5,0-5C853.6,48.64,853.6,53.64,856.82,53.64L856.82,53.64z"/>
	</g>
</g>
<g>
	<path class="st1" d="M626.43,121.61"/>
	<g>
		<path class="st1" d="M626.43,124.11c3.22,0,3.22-5,0-5C623.22,119.11,623.21,124.11,626.43,124.11L626.43,124.11z"/>
	</g>
</g>
<g>
	<path class="st1" d="M983.06,143.05"/>
	<g>
		<path class="st1" d="M983.06,145.55c3.22,0,3.22-5,0-5C979.84,140.55,979.83,145.55,983.06,145.55L983.06,145.55z"/>
	</g>
</g>
<g>
	<path class="st1" d="M897.85,311.56"/>
	<g>
		<path class="st1" d="M897.85,314.06c3.22,0,3.22-5,0-5C894.63,309.06,894.62,314.06,897.85,314.06L897.85,314.06z"/>
	</g>
</g>
<g>
	<path class="st1" d="M781.08,262.54"/>
	<g>
		<path class="st1" d="M781.08,265.04c3.22,0,3.22-5,0-5C777.86,260.04,777.85,265.04,781.08,265.04L781.08,265.04z"/>
	</g>
</g>
<g>
	<path class="st1" d="M1090.36,238.03"/>
	<g>
		<path class="st1" d="M1090.36,240.53c3.22,0,3.22-5,0-5C1087.14,235.53,1087.14,240.53,1090.36,240.53L1090.36,240.53z"/>
	</g>
</g>
<g>
	<path class="st1" d="M1027.24,461.69"/>
	<g>
		<path class="st1" d="M1027.24,464.19c3.22,0,3.22-5,0-5C1024.02,459.19,1024.02,464.19,1027.24,464.19L1027.24,464.19z"/>
	</g>
</g>
<g>
	<path class="st1" d="M1175.57,532.16"/>
	<g>
		<path class="st1" d="M1175.57,534.66c3.22,0,3.22-5,0-5C1172.35,529.66,1172.35,534.66,1175.57,534.66L1175.57,534.66z"/>
	</g>
</g>
<g>
	<path class="st1" d="M1140.85,391.22"/>
	<g>
		<path class="st1" d="M1140.85,393.72c3.22,0,3.22-5,0-5C1137.64,388.72,1137.63,393.72,1140.85,393.72L1140.85,393.72z"/>
	</g>
</g>
<g>
	<path class="st1" d="M1080.89,424.92"/>
	<g>
		<path class="st1" d="M1080.89,427.42c3.22,0,3.22-5,0-5C1077.67,422.42,1077.67,427.42,1080.89,427.42L1080.89,427.42z"/>
	</g>
</g>
<g>
	<path class="st1" d="M837.88,357.52"/>
	<g>
		<path class="st1" d="M837.88,360.02c3.22,0,3.22-5,0-5C834.67,355.02,834.66,360.02,837.88,360.02L837.88,360.02z"/>
	</g>
</g>
<g>
	<path class="st1" d="M888.38,421.86"/>
	<g>
		<path class="st1" d="M888.38,424.36c3.22,0,3.22-5,0-5C885.16,419.36,885.16,424.36,888.38,424.36L888.38,424.36z"/>
	</g>
</g>
<g>
	<path class="st1" d="M702.18,406.54"/>
	<g>
		<path class="st1" d="M702.18,409.04c3.22,0,3.22-5,0-5C698.96,404.04,698.95,409.04,702.18,409.04L702.18,409.04z"/>
	</g>
</g>
<g>
	<path class="st1" d="M777.92,449.44"/>
	<g>
		<path class="st1" d="M777.92,451.94c3.22,0,3.22-5,0-5C774.7,446.94,774.7,451.94,777.92,451.94L777.92,451.94z"/>
	</g>
</g>
<g>
	<path class="st1" d="M1125.07,84.84"/>
	<g>
		<path class="st1" d="M1125.07,87.34c3.22,0,3.22-5,0-5C1121.86,82.34,1121.85,87.34,1125.07,87.34L1125.07,87.34z"/>
	</g>
</g>
<g>
	<path class="st1" d="M1055.64,299.31"/>
	<g>
		<path class="st1" d="M1055.64,301.81c3.22,0,3.22-5,0-5C1052.43,296.81,1052.42,301.81,1055.64,301.81L1055.64,301.81z"/>
	</g>
</g>
<g>
	<path class="st1" d="M714.34,256.81"/>
	<g>
		<path class="st1" d="M714.34,259.31c3.22,0,3.22-5,0-5C711.12,254.31,711.12,259.31,714.34,259.31L714.34,259.31z"/>
	</g>
</g>
<g>
	<path class="st1" d="M207.78,59.41"/>
	<g>
		<path class="st1" d="M207.78,61.91c3.22,0,3.22-5,0-5C204.56,56.91,204.56,61.91,207.78,61.91L207.78,61.91z"/>
	</g>
</g>
<g>
	<path class="st1" d="M145.68,456.07"/>
	<g>
		<path class="st1" d="M145.68,458.57c3.22,0,3.22-5,0-5C142.46,453.57,142.46,458.57,145.68,458.57L145.68,458.57z"/>
	</g>
</g>
<g>
	<path class="st1" d="M110.96,354.97"/>
	<g>
		<path class="st1" d="M110.96,357.47c3.22,0,3.22-5,0-5C107.75,352.47,107.74,357.47,110.96,357.47L110.96,357.47z"/>
	</g>
</g>
<g>
	<path class="st1" d="M9.97,74.63"/>
	<g>
		<path class="st1" d="M9.97,77.13c3.22,0,3.22-5,0-5C6.76,72.13,6.75,77.13,9.97,77.13L9.97,77.13z"/>
	</g>
</g>
<g>
	<path class="st1" d="M522.81,174.2"/>
	<g>
		<path class="st1" d="M522.81,176.7c3.22,0,3.22-5,0-5C519.6,171.7,519.59,176.7,522.81,176.7L522.81,176.7z"/>
	</g>
</g>
<g>
	<path class="st1" d="M521.24,259.99"/>
	<g>
		<path class="st1" d="M521.24,262.49c3.22,0,3.22-5,0-5C518.02,257.49,518.01,262.49,521.24,262.49L521.24,262.49z"/>
	</g>
</g>
<g>
	<path class="st1" d="M459.7,241.61"/>
	<g>
		<path class="st1" d="M459.7,244.11c3.22,0,3.22-5,0-5C456.48,239.11,456.47,244.11,459.7,244.11L459.7,244.11z"/>
	</g>
</g>
<g>
	<path class="st1" d="M379.22,451.48"/>
	<g>
		<path class="st1" d="M379.22,453.98c3.22,0,3.22-5,0-5C376,448.98,376,453.98,379.22,453.98L379.22,453.98z"/>
	</g>
</g>
<g>
	<path class="st1" d="M551.22,358.03"/>
	<g>
		<path class="st1" d="M551.22,360.53c3.22,0,3.22-5,0-5C548,355.53,548,360.53,551.22,360.53L551.22,360.53z"/>
	</g>
</g>
<g>
	<path class="st1" d="M503.88,416.24"/>
	<g>
		<path class="st1" d="M503.88,418.74c3.22,0,3.22-5,0-5C500.66,413.74,500.66,418.74,503.88,418.74L503.88,418.74z"/>
	</g>
</g>
<g>
	<path class="st1" d="M86.28,143.66"/>
	<g>
		<path class="st1" d="M86.28,146.16c3.22,0,3.22-5,0-5C83.06,141.16,83.06,146.16,86.28,146.16L86.28,146.16z"/>
	</g>
</g>
<g>
	<path class="st1" d="M711.43,134.72"/>
	<g>
		<path class="st1" d="M711.43,137.22c3.22,0,3.22-5,0-5C708.21,132.22,708.21,137.22,711.43,137.22L711.43,137.22z"/>
	</g>
</g>
<g>
	<path class="st1" d="M711.43,68.85"/>
	<g>
		<path class="st1" d="M711.43,71.35c3.22,0,3.22-5,0-5C708.21,66.35,708.21,71.35,711.43,71.35L711.43,71.35z"/>
	</g>
</g>
<g>
	<path class="st1" d="M1281.82,324.33"/>
	<g>
		<path class="st1" d="M1281.82,326.83c3.22,0,3.22-5,0-5C1278.6,321.83,1278.6,326.83,1281.82,326.83L1281.82,326.83z"/>
	</g>
</g>
<g>
	<path class="st1" d="M1253.42,214.03"/>
	<g>
		<path class="st1" d="M1253.42,216.53c3.22,0,3.22-5,0-5C1250.2,211.53,1250.19,216.53,1253.42,216.53L1253.42,216.53z"/>
	</g>
</g>
<g>
	<path class="st1" d="M1338.63,168.07"/>
	<g>
		<path class="st1" d="M1338.63,170.57c3.22,0,3.22-5,0-5C1335.41,165.57,1335.4,170.57,1338.63,170.57L1338.63,170.57z"/>
	</g>
</g>
<g>
	<path class="st1" d="M1335.47,310.54"/>
	<g>
		<path class="st1" d="M1335.47,313.04c3.22,0,3.22-5,0-5C1332.25,308.04,1332.25,313.04,1335.47,313.04L1335.47,313.04z"/>
	</g>
</g>
<g>
	<path class="st1" d="M1433.31,316.67"/>
	<g>
		<path class="st1" d="M1433.31,319.17c3.22,0,3.22-5,0-5C1430.09,314.17,1430.08,319.17,1433.31,319.17L1433.31,319.17z"/>
	</g>
</g>
<g>
	<path class="st1" d="M1485.38,397.86"/>
	<g>
		<path class="st1" d="M1485.38,400.36c3.22,0,3.22-5,0-5C1482.16,395.36,1482.16,400.36,1485.38,400.36L1485.38,400.36z"/>
	</g>
</g>
<g>
	<path class="st1" d="M1360.72,53.18"/>
	<g>
		<path class="st1" d="M1360.72,55.68c3.22,0,3.22-5,0-5C1357.5,50.68,1357.5,55.68,1360.72,55.68L1360.72,55.68z"/>
	</g>
</g>
<g>
	<path class="st1" d="M1461.71,39.39"/>
	<g>
		<path class="st1" d="M1461.71,41.89c3.22,0,3.22-5,0-5C1458.49,36.89,1458.49,41.89,1461.71,41.89L1461.71,41.89z"/>
	</g>
</g>
<g>
	<path class="st1" d="M1378.08,27.14"/>
	<g>
		<path class="st1" d="M1378.08,29.64c3.22,0,3.22-5,0-5C1374.86,24.64,1374.85,29.64,1378.08,29.64L1378.08,29.64z"/>
	</g>
</g>
<g>
	<path class="st1" d="M1109.82,63.9"/>
	<g>
		<path class="st1" d="M1109.82,66.4c3.22,0,3.22-5,0-5C1106.6,61.4,1106.6,66.4,1109.82,66.4L1109.82,66.4z"/>
	</g>
</g>
<g>
	<path class="st1" d="M1051.44,60.84"/>
	<g>
		<path class="st1" d="M1051.44,63.34c3.22,0,3.22-5,0-5C1048.22,58.34,1048.21,63.34,1051.44,63.34L1051.44,63.34z"/>
	</g>
</g>
<g>
	<path class="st1" d="M988.32,37.86"/>
	<g>
		<path class="st1" d="M988.32,40.36c3.22,0,3.22-5,0-5C985.1,35.36,985.09,40.36,988.32,40.36L988.32,40.36z"/>
	</g>
</g>
<g>
	<path class="st1" d="M1254.99,422.37"/>
	<g>
		<path class="st1" d="M1254.99,424.87c3.22,0,3.22-5,0-5C1251.78,419.87,1251.77,424.87,1254.99,424.87L1254.99,424.87z"/>
	</g>
</g>
<g>
	<path class="st1" d="M1419.1,358.03"/>
	<g>
		<path class="st1" d="M1419.1,360.53c3.22,0,3.22-5,0-5C1415.89,355.53,1415.88,360.53,1419.1,360.53L1419.1,360.53z"/>
	</g>
</g>
<g>
	<path class="st1" d="M1370.19,508.16"/>
	<g>
		<path class="st1" d="M1370.19,510.66c3.22,0,3.22-5,0-5C1366.97,505.66,1366.96,510.66,1370.19,510.66L1370.19,510.66z"/>
	</g>
</g>
<g>
	<path class="st1" d="M1229.75,440.75"/>
	<g>
		<path class="st1" d="M1229.75,443.25c3.22,0,3.22-5,0-5C1226.53,438.25,1226.52,443.25,1229.75,443.25L1229.75,443.25z"/>
	</g>
</g>
<g>
	<path class="st1" d="M1404.9,423.9"/>
	<g>
		<path class="st1" d="M1404.9,426.4c3.22,0,3.22-5,0-5C1401.68,421.4,1401.68,426.4,1404.9,426.4L1404.9,426.4z"/>
	</g>
</g>
<g>
	<path class="st1" d="M1355.98,477.52"/>
	<g>
		<path class="st1" d="M1355.98,480.02c3.22,0,3.22-5,0-5C1352.77,475.02,1352.76,480.02,1355.98,480.02L1355.98,480.02z"/>
	</g>
</g>
<g>
	<path class="st1" d="M1247.1,488.24"/>
	<g>
		<path class="st1" d="M1247.1,490.74c3.22,0,3.22-5,0-5C1243.89,485.74,1243.88,490.74,1247.1,490.74L1247.1,490.74z"/>
	</g>
</g>
<g>
	<path class="st1" d="M1169.78,465.27"/>
	<g>
		<path class="st1" d="M1169.78,467.77c3.22,0,3.22-5,0-5C1166.57,462.77,1166.56,467.77,1169.78,467.77L1169.78,467.77z"/>
	</g>
</g>
<g>
	<path class="st1" d="M1438.04,535.73"/>
	<g>
		<path class="st1" d="M1438.04,538.23c3.22,0,3.22-5,0-5C1434.82,533.23,1434.82,538.23,1438.04,538.23L1438.04,538.23z"/>
	</g>
</g>
<g>
	<path class="st1" d="M1461.71,486.71"/>
	<g>
		<path class="st1" d="M1461.71,489.21c3.22,0,3.22-5,0-5C1458.49,484.21,1458.49,489.21,1461.71,489.21L1461.71,489.21z"/>
	</g>
</g>
<g>
	<path class="st1" d="M1499.58,456.07"/>
	<g>
		<path class="st1" d="M1499.58,458.57c3.22,0,3.22-5,0-5C1496.36,453.57,1496.36,458.57,1499.58,458.57L1499.58,458.57z"/>
	</g>
</g>
<g>
	<path class="st1" d="M1305.49,528.07"/>
	<g>
		<path class="st1" d="M1305.49,530.57c3.22,0,3.22-5,0-5C1302.27,525.57,1302.27,530.57,1305.49,530.57L1305.49,530.57z"/>
	</g>
</g>
<g>
	<path class="st1" d="M964.65,416.24"/>
	<g>
		<path class="st1" d="M964.65,418.74c3.22,0,3.22-5,0-5C961.43,413.74,961.42,418.74,964.65,418.74L964.65,418.74z"/>
	</g>
</g>
<g>
	<path class="st1" d="M814.74,477.52"/>
	<g>
		<path class="st1" d="M814.74,480.02c3.22,0,3.22-5,0-5C811.52,475.02,811.52,480.02,814.74,480.02L814.74,480.02z"/>
	</g>
</g>
<g>
	<path class="st1" d="M925.2,515.82"/>
	<g>
		<path class="st1" d="M925.2,518.32c3.22,0,3.22-5,0-5C921.98,513.32,921.97,518.32,925.2,518.32L925.2,518.32z"/>
	</g>
</g>
<g>
	<path class="st1" d="M926.78,560.24"/>
	<g>
		<path class="st1" d="M926.78,562.74c3.22,0,3.22-5,0-5C923.56,557.74,923.55,562.74,926.78,562.74L926.78,562.74z"/>
	</g>
</g>
<g>
	<path class="st1" d="M1064.06,506.63"/>
	<g>
		<path class="st1" d="M1064.06,509.13c3.22,0,3.22-5,0-5C1060.84,504.13,1060.84,509.13,1064.06,509.13L1064.06,509.13z"/>
	</g>
</g>
<g>
	<path class="st1" d="M982,281.44"/>
	<g>
		<path class="st1" d="M982,283.94c3.22,0,3.22-5,0-5C978.79,278.94,978.78,283.94,982,283.94L982,283.94z"/>
	</g>
</g>
<g>
	<path class="st1" d="M1149.27,281.44"/>
	<g>
		<path class="st1" d="M1149.27,283.94c3.22,0,3.22-5,0-5C1146.05,278.94,1146.05,283.94,1149.27,283.94L1149.27,283.94z"/>
	</g>
</g>
<g>
	<path class="st1" d="M1269.2,290.63"/>
	<g>
		<path class="st1" d="M1269.2,293.13c3.22,0,3.22-5,0-5C1265.98,288.13,1265.97,293.13,1269.2,293.13L1269.2,293.13z"/>
	</g>
</g>
<g>
	<path class="st1" d="M800.81,130.02"/>
	<g>
		<path class="st1" d="M800.81,132.52c3.22,0,3.22-5,0-5C797.6,127.52,797.59,132.52,800.81,132.52L800.81,132.52z"/>
	</g>
</g>
<g>
	<path class="st1" d="M682.65,489.27"/>
	<g>
		<path class="st1" d="M682.65,491.77c3.22,0,3.22-5,0-5C679.43,486.77,679.43,491.77,682.65,491.77L682.65,491.77z"/>
	</g>
</g>
<g>
	<path class="st1" d="M433.33,526.03"/>
	<g>
		<path class="st1" d="M433.33,528.53c3.22,0,3.22-5,0-5C430.11,523.53,430.11,528.53,433.33,528.53L433.33,528.53z"/>
	</g>
</g>
<g>
	<path class="st1" d="M698.43,547.48"/>
	<g>
		<path class="st1" d="M698.43,549.98c3.22,0,3.22-5,0-5C695.21,544.98,695.21,549.98,698.43,549.98L698.43,549.98z"/>
	</g>
</g>
<g>
	<path class="st1" d="M215.57,532.16"/>
	<g>
		<path class="st1" d="M215.57,534.66c3.22,0,3.22-5,0-5C212.35,529.66,212.35,534.66,215.57,534.66L215.57,534.66z"/>
	</g>
</g>
<g>
	<path class="st1" d="M410.19,508.16"/>
	<g>
		<path class="st1" d="M410.19,510.66c3.22,0,3.22-5,0-5C406.97,505.66,406.96,510.66,410.19,510.66L410.19,510.66z"/>
	</g>
</g>
<g>
	<path class="st1" d="M395.98,477.52"/>
	<g>
		<path class="st1" d="M395.98,480.02c3.22,0,3.22-5,0-5C392.77,475.02,392.76,480.02,395.98,480.02L395.98,480.02z"/>
	</g>
</g>
<g>
	<path class="st1" d="M287.1,488.24"/>
	<g>
		<path class="st1" d="M287.1,490.74c3.22,0,3.22-5,0-5C283.89,485.74,283.88,490.74,287.1,490.74L287.1,490.74z"/>
	</g>
</g>
<g>
	<path class="st1" d="M478.04,535.73"/>
	<g>
		<path class="st1" d="M478.04,538.23c3.22,0,3.22-5,0-5C474.82,533.23,474.82,538.23,478.04,538.23L478.04,538.23z"/>
	</g>
</g>
<g>
	<path class="st1" d="M501.71,486.71"/>
	<g>
		<path class="st1" d="M501.71,489.21c3.22,0,3.22-5,0-5C498.49,484.21,498.49,489.21,501.71,489.21L501.71,489.21z"/>
	</g>
</g>
<g>
	<path class="st1" d="M607.43,494.37"/>
	<g>
		<path class="st1" d="M607.43,496.87c3.22,0,3.22-5,0-5C604.22,491.87,604.21,496.87,607.43,496.87L607.43,496.87z"/>
	</g>
</g>
<g>
	<path class="st1" d="M345.49,528.07"/>
	<g>
		<path class="st1" d="M345.49,530.57c3.22,0,3.22-5,0-5C342.27,525.57,342.27,530.57,345.49,530.57L345.49,530.57z"/>
	</g>
</g>
<g>
	<path class="st1" d="M83.09,478.29"/>
	<g>
		<path class="st1" d="M83.09,480.79c3.22,0,3.22-5,0-5C79.87,475.79,79.86,480.79,83.09,480.79L83.09,480.79z"/>
	</g>
</g>
<g>
	<path class="st1" d="M192.53,173.53"/>
	<g>
		<path class="st1" d="M192.53,176.03c3.22,0,3.22-5,0-5C189.31,171.03,189.31,176.03,192.53,176.03L192.53,176.03z"/>
	</g>
</g>
<g>
	<path class="st1" d="M267.71,377.18"/>
	<g>
		<path class="st1" d="M267.71,379.68c3.22,0,3.22-5,0-5C264.49,374.68,264.49,379.68,267.71,379.68L267.71,379.68z"/>
	</g>
</g>
<g>
	<path class="st1" d="M245.92,87.49"/>
	<g>
		<path class="st1" d="M245.92,89.99c3.22,0,3.22-5,0-5C242.7,84.99,242.69,89.99,245.92,89.99L245.92,89.99z"/>
	</g>
</g>
<g>
	<path class="st1" d="M27.59,371.56"/>
	<g>
		<path class="st1" d="M27.59,374.06c3.22,0,3.22-5,0-5C24.38,369.06,24.37,374.06,27.59,374.06L27.59,374.06z"/>
	</g>
</g>
<g>
	<path class="st1" d="M149.36,557.95"/>
	<g>
		<path class="st1" d="M149.36,560.45c3.22,0,3.22-5,0-5C146.14,555.45,146.14,560.45,149.36,560.45L149.36,560.45z"/>
	</g>
</g>
<g>
	<path class="st1" d="M206.69,474.2"/>
	<g>
		<path class="st1" d="M206.69,476.7c3.22,0,3.22-5,0-5C203.48,471.7,203.47,476.7,206.69,476.7L206.69,476.7z"/>
	</g>
</g>
<g>
	<path class="st1" d="M134.11,537.01"/>
	<g>
		<path class="st1" d="M134.11,539.51c3.22,0,3.22-5,0-5C130.89,534.51,130.88,539.51,134.11,539.51L134.11,539.51z"/>
	</g>
</g>
<g>
	<path class="st1" d="M75.72,533.95"/>
	<g>
		<path class="st1" d="M75.72,536.45c3.22,0,3.22-5,0-5C72.5,531.45,72.5,536.45,75.72,536.45L75.72,536.45z"/>
	</g>
</g>
<g>
	<path class="st1" d="M12.6,510.97"/>
	<g>
		<path class="st1" d="M12.6,513.47c3.22,0,3.22-5,0-5C9.39,508.47,9.38,513.47,12.6,513.47L12.6,513.47z"/>
	</g>
</g>
<g>
	<path class="st1" d="M173.56,396.07"/>
	<g>
		<path class="st1" d="M173.56,398.57c3.22,0,3.22-5,0-5C170.34,393.57,170.33,398.57,173.56,398.57L173.56,398.57z"/>
	</g>
</g>
<g>
	<g>
		<path class="st2" d="M159.69,324.13c3.22,0,3.22-5,0-5C156.47,319.13,156.46,324.13,159.69,324.13L159.69,324.13z"/>
	</g>
</g>
<g>
	<g>
		<path class="st2" d="M326.95,324.13c3.22,0,3.22-5,0-5C323.73,319.13,323.73,324.13,326.95,324.13L326.95,324.13z"/>
	</g>
</g>
<path class="st3" d="M1334.99,569.5c-69.25,0-138.5-0.25-207.75-0.79c-31.61-0.24-63.22-0.34-94.84-0.38
	c-56.37-115.45-87.31-303.06,89.36-538.27l0.57-0.08c261.44,202.53,253.94,416.39,217.88,539.51H1334.99z"/>
<circle class="st4" cx="1165.32" cy="354.67" r="95.94"/>
<circle class="st5" cx="1165.15" cy="353.36" r="73.39"/>
<path class="st6" d="M1345.15,569.5l-4.08-3.64c30.39-88.72,25.24-183.53-11.7-279.66l-1.14-1.44c0,0,130.04,101.03,113.61,284.75
	H1345.15z"/>
<g>
	<g>
		<path class="st2" d="M595.87,260.94c3.22,0,3.22-5,0-5C592.65,255.94,592.65,260.94,595.87,260.94L595.87,260.94z"/>
	</g>
</g>
<g>
	<g>
		<path class="st2" d="M432.32,164.02c3.22,0,3.22-5,0-5C429.1,159.02,429.1,164.02,432.32,164.02L432.32,164.02z"/>
	</g>
</g>
<g>
	<g>
		<path class="st2" d="M465.15,247.4c3.22,0,3.22-5,0-5C461.93,242.4,461.92,247.4,465.15,247.4L465.15,247.4z"/>
	</g>
</g>
<g>
	<g>
		<path class="st2" d="M498.44,195.52c3.22,0,3.22-5,0-5C495.22,190.52,495.22,195.52,498.44,195.52L498.44,195.52z"/>
	</g>
</g>
<g>
	<g>
		<path class="st2" d="M581.53,209.47c3.22,0,3.22-5,0-5C578.32,204.47,578.31,209.47,581.53,209.47L581.53,209.47z"/>
	</g>
</g>
<g>
	<g>
		<path class="st2" d="M446.8,171.17c3.22,0,3.22-5,0-5C443.58,166.17,443.58,171.17,446.8,171.17L446.8,171.17z"/>
	</g>
</g>
<path class="st7" d="M579.91,261.14c0,0,104.14-70.9,161.75,53.18c57.61,124.08,62.04,152.89,108.57,130.73
	c46.53-22.16,108.57,15.51,108.57,15.51"/>
<g>
	<g>
		<path class="st2" d="M571.36,249.34c3.22,0,3.22-5,0-5C568.14,244.34,568.14,249.34,571.36,249.34L571.36,249.34z"/>
	</g>
</g>
<g>
	<g>
		<path class="st2" d="M578.29,374.09c3.22,0,3.22-5,0-5C575.08,369.09,575.07,374.09,578.29,374.09L578.29,374.09z"/>
	</g>
</g>
<g>
	<g>
		<path class="st2" d="M450.43,258.84c3.22,0,3.22-5,0-5C447.22,253.84,447.21,258.84,450.43,258.84L450.43,258.84z"/>
	</g>
</g>
<g>
	<g>
		<path class="st2" d="M678.13,363.94c3.22,0,3.22-5,0-5C674.91,358.94,674.9,363.94,678.13,363.94L678.13,363.94z"/>
	</g>
</g>
<g>
	<g>
		<path class="st2" d="M646.11,441.98c3.22,0,3.22-5,0-5C642.89,436.98,642.89,441.98,646.11,441.98L646.11,441.98z"/>
	</g>
</g>
<g>
	<g>
		<path class="st2" d="M646.43,459.28c3.22,0,3.22-5,0-5C643.21,454.28,643.21,459.28,646.43,459.28L646.43,459.28z"/>
	</g>
</g>
<g>
	<g>
		<path class="st2" d="M641.29,449.63c3.22,0,3.22-5,0-5C638.07,444.63,638.07,449.63,641.29,449.63L641.29,449.63z"/>
	</g>
</g>
<g>
	<g>
		<path class="st2" d="M492.93,283.51c3.22,0,3.22-5,0-5C489.71,278.51,489.7,283.51,492.93,283.51L492.93,283.51z"/>
	</g>
</g>
<path class="st8" d="M597.26,420.39"/>
<path class="st9" d="M672.27,340.44c-10.49-14.59-28.86-33.89-28.86-33.89l-0.95-1.23c-7.43-9.59-15.27-18.56-19.04-22.79
	l-0.91-1.01c-52.84-29.48-45.42,6.01-43.82,21.23c0,0,33.98,53.07,43.18,49.52"/>
<path class="st10" d="M717.46,370.16c-7.3,2.55-12.65,9.77-13.46,18.16c-0.82,8.44,3.12,16.44,9.88,20.08c0,0,9.6,5.87,15.53,1.25
	c5.93-4.63,6.97-34.25,6.97-34.25s0.2-11.52-4.96-15.91c0,0-18.11-4.93-28.61,0.66L701.55,384"/>
<path class="st9" d="M593.01,315.74c0,0,23,44.76,34.8,56.05c0,0,22.58,17.58,28.98,19c1.99,0.44,3.5,0.06,4.52-0.42l27.35,8.49
	c0,0,15.92,2.4,17.92-16.13c2-18.53-2.42-31.95-2.42-31.95s-2.99-6.95-9.76-10.28L667.05,332c-2.26-2.39-6.87-4.6-12.41-6.56"/>
<path class="st11" d="M611.56,428.64"/>
<line class="st12" x1="619.28" y1="424.88" x2="621.3" y2="428.73"/>
<path class="st13" d="M595.21,231.33c0.84,0.12,1.66,0.17,2.47,0.13l0.24,0.32"/>
<path class="st9" d="M595.21,231.33c-6.45-0.94-13.87-6.32-20.21-12.12c0,0,8.05-7.44,9.14-41.62c0,0,24.28,4.59,36.35,13.8
	c0,0,19.3,22.34,21.6,34.42c0.11,0.6-0.09,1.22-0.16,1.8l-0.03,0.23c0,0,5.77,20.65-7.94,31.29l-27.01,1.6
	c-14.54-8.96-10.52-30.2-10.52-30.2"/>
<path class="st11" d="M611.56,428.64"/>
<path class="st9" d="M599.82,385c-0.17-11.99-18.58-48.48-18.58-48.48l-0.49-1.31c-3.85-10.24-8.25-20.02-10.37-24.65l-0.52-1.1
	c-12.26-22.58-44.92-22.25-44.73,9.57c0,0,15.02,55.14,24.15,53.95"/>
<path class="st10" d="M643.1,436.15c-0.99,0.76-1.85,1.8-2.58,2.94c-2.2,3.42-3.26,7.72-3.26,7.72c-2.16,7.64,0.09,15.66,5.67,20.17
	c0,0,15.54,9.31,18.78-2.32c2.85-10.24,11.16-39.39,13.1-46.22c0,0,0.47-1.43-1.22-2.13c-4.81-1.98-19.31-7.21-29.32-4.8
	c0,0-6.8,24.27-7.05,24.87c-0.26,0.6,3.31,2.71,3.31,2.71"/>
<path class="st9" d="M606.32,384.93c0.48,0.41,0.89,0.81,1.22,1.19l32.32,13.81c7.54,4.33,8.83,10.28,8.83,10.28
	s0.74,11.11-8.74,24.23c-9.49,13.11-29.25,6.95-29.25,6.95l-32.32-13.81c-0.93,1.29-19.6-8.13-24.96-23.15
	c-4.78-13.41-20.56-58.59-19.85-58.48"/>
<path class="st9" d="M588.85,375.58c0,0-21.97,9.58-33.77-9.13"/>
<path class="st12" d="M370.1,285.65"/>
<path class="st12" d="M368.6,286.01"/>
<path class="st12" d="M370.1,285.65"/>
<path class="st12" d="M368.6,286.01"/>
<path class="st10" d="M377.28,286.18c-13.88-3.34-16.27-9.83-16.6-12.87c-0.16-1.53,1.02-2.93,2.64-2.91
	c1.34,0.02,2.97,0.83,4.91,2.66c16.11,15.14,18.51,5.91,18.51,5.91l-4.27-5.64c-0.53-0.7-0.79-1.54-0.73-2.39
	c0.12-1.63,0.6-4.14,2.47-4.5c1.6-0.31,2.78,0.47,3.48,1.19c0.44,0.45,0.75,0.99,0.95,1.57c0.48,1.42,2.36,5.71,9.18,12.59
	l-5.08,21.03c0,0-26.57,4.98-28.77-8.34c0,0,0.03-0.56,0.41-1l-0.4-0.2c-1.92-1.22-8-5.51-3.97-8.41l-0.61-0.18
	c-1.69-0.48-3.51-2.34-1.94-5.04c2.13-3.65,5.89-0.64,5.89-0.64"/>
<path class="st10" d="M364.39,293.48c0.69-0.79,2.51-1.21,7.34,2.52c0,0,0.02,0.8,6.78,1.49"/>
<path class="st10" d="M379.12,283.5c0,0-4.32,7.92-0.27,15.13"/>
<path class="st10" d="M360.01,284.88c0.26-0.19,0.56-0.37,0.91-0.54c0,0,1.85-0.96,6.73,4.52c1.46,1.64,5.15,2.36,9.6,2.56"/>
<path class="st11" d="M398.32,279.67l-5.92,24.2c-0.24,0.97,0.35,1.93,1.31,2.15l1.39,0.32c0.96,0.22,1.93-0.38,2.16-1.35l5.92-24.2
	c0.24-0.97-0.35-1.93-1.31-2.15l-1.39-0.32C399.52,278.1,398.56,278.7,398.32,279.67z"/>
<path class="st9" d="M398.32,279.67l-5.92,24.2c-0.24,0.97,0.35,1.93,1.31,2.15l1.39,0.32c0.96,0.22,1.93-0.38,2.16-1.35l5.92-24.2
	c0.24-0.97-0.35-1.93-1.31-2.15l-1.39-0.32C399.52,278.1,398.56,278.7,398.32,279.67z"/>
<path class="st9" d="M435.31,277.43c-0.45,4.68-19.82-1.04-31.83,2.16l-6.43,26.29c6.08,15.92,27.43,15.8,27.43,15.8l0.21,0.09
	c9.95,4.12,34.42,3.33,48.72,1.12c5.07-0.78,10.73-3.8,12.48-8.65c4.63-12.91,0.95-19.27,1.03-22.63c0.07-2.74-1.53-5.2-4.08-6.14
	c-12.53-4.61-41.64-9.92-47.2-7.81L435.31,277.43"/>
<path class="st11" d="M438.92,282.38c-0.59-1.95-1.72-3.49-3.25-4.7"/>
<path class="st9" d="M424.19,321.67c4.91,0.3,9.1-0.84,11.59-4.37"/>
<path class="st14" d="M489.45,195.65l17.54-3.05l0.05-0.01c0.27-0.04,0.47-0.14,0.69-0.3c0.58-0.43,0.84-1.16,0.61-1.84l-0.01-0.03
	l-5.75-15.11c-0.41-1.43-1.15-2.7-1.82-3.64c0,0-0.41-0.29,0.28-0.78l2.96-1.31l30.86-12.95c11.1-4.03,17.41,0.29,17.41,0.29
	l49.27,22.49c5.27,2.1-13.23,40.5-24.23,42.95l-4.42-4.53l46.54,62.16c0,0-12.55,20.18-40.15,41.01l-0.5,0.37
	c-27.89,20.43-50.71,26.55-50.71,26.55l-45.1-63.23l2.98,5.6c-5.57,9.88-47.41,16.34-47.84,10.64l-6.73-54.12
	c0,0-2.22-7.36,4.88-16.86l21.4-25.9l3.15-3.66l0.24,0.34c0.69,0.96,1.74,2.18,3.08,3.06l12.61,10.01l0.07,0.06
	c0.58,0.42,1.37,0.41,1.95-0.02l0.54-0.63l8.06-15.99l1.66,0.07L489.45,195.65z"/>
<path class="st15" d="M502.15,240.25c0,0,2.62,2.05,1.07-0.79c-1.55-2.85-3.64-3.85-3.64-3.85s-3.49,0.29-5.21-3.05
	c-1.72-3.33-3.08-4.91-1.68-7.01c0,0,3.47-2.67,4.75-4.21c1.28-1.54,3.68-1.59,3.68-1.59s3.23,0.4,5.25,1.94
	c2.03,1.54,2.11,2.21,2.11,2.21s4.17,1.36,4.06,5.44c0,0,0.35,1.65-1.32,4.44c0,0-0.91,2.89-0.68,3.61
	c0.23,0.72-0.05,0.67-0.05,0.67s-1.32-1.11-1.36-2.42c-0.04-1.31-0.67-0.1-0.67-0.1l0.79,4.82c0,0-0.01,1.68-1.11,0.24
	c-1.1-1.44-2.66-4.22-2.66-4.22s-2.21-2.07-1.14,0.65c1.07,2.71,3.8,5.97,3.8,5.97s1.94,2.74-0.46,1.5c0,0-3.99-2.99-5.18-2.27
	c-1.2,0.72-0.25,1.63-0.25,1.63l4.32,1.54c0,0,2.64,1.72-0.48,1.56c0,0-3.35-1.21-7.15,0.43s-0.44,2.9-0.44,2.9s3.78-2.6,6.03-1.45
	c0,0,2.84,0.13,1.31,1.71c0,0-1.41,0.74-2.02,0.89c-0.61,0.14-5.51,4.44-5.51,4.44s-1.4,3.65-4.06,3.57
	c-2.67-0.08-5.38-2.05-5.38-2.05s-4.07-3.38-2.68-7.85c1.39-4.48,0.06-5.5,0.06-5.5s-1.73-2.87,3.77-5.94
	C495.54,235.03,502.15,240.25,502.15,240.25z"/>
<path class="st15" d="M507.8,253.92c0,0-1.98,1.72,1.43,1.5l0.97-0.72c0,0,3.03-2.22,2.37,0.38c-0.65,2.6-2.29,5.59-2.29,5.59
	s-2.27,5.18,0.96,3.23c3.23-1.95,2.51-6.8,2.51-6.8s0.13-4.32,1.69,0.65c1.56,4.97,1.39,5.6,2.55,5.72s-0.2-4.95-0.2-4.95
	s-2.89-3.67-1.56-4.37c1.33-0.69,3.81,4.35,3.81,4.35l3.61,5.07c0,0,3.35,5.87,0.68,9.69c-2.67,3.82-3.28,3.36-6.56,2.58
	c0,0-3.18,5.71-10.25,1.21s-7.9-9.11-7.9-9.11s-0.32-2.11,0.41-2.65c0.01-0.01,0.03-0.02,0.04-0.03l-0.2-0.19
	c0,0-3.39-3.33-0.88-6.91c2.51-3.58,4.47-4.52,4.47-4.52s5.72-3.69,7.21-2.89c1.49,0.8-2.72,3.07-2.72,3.07L507.8,253.92z"/>
<path class="st15" d="M517.2,224.85c-9.57,14.18-4.57,24.4-4.57,24.4s2.41,3.49,2.59-0.85c0,0-5.2-12.21,3.64-23.57
	c0,0,1.14,5.38,4.16,3.14c0,0,2.06-0.43-1.05-3.92c0,0,4.72,3.09,4.97-0.47c0.25-3.55-5.08-3-5.08-3s3.52-3.08,1.16-4.92
	c-2.37-1.84-4.08,1.37-4.08,1.37l-0.4,2c0,0-2.86-5.12-4.09-1.2c-1.24,3.92,2.01,3.26,2.01,3.26s-3.07-0.12-2.44,2.14
	c0.63,2.26,2.94,1.6,2.94,1.6L517.2,224.85z"/>
<path class="st15" d="M537.52,266.39c0,0-6.54,9.02-11.62-3.03l-0.18-0.19c0,0-4.56-4.78-6.47-8.85s1.22-1,1.22-1l3.48,3.74
	c2.95,1.55,1.49-0.7,1.49-0.7s-5.71-5.77-2.73-3.74c2.98,2.03,4.05,1.65,4.05,1.65c2.79-0.51-2.22-2.27-2.22-2.27
	c-3.26-1.73,2.24-1.2,2.24-1.2c5.7,1.81,2.98-1.99,2.98-1.99s-3.33-2-7.55,0.07c-4.21,2.07,0.34-4.5,0.34-4.5
	c4.62-2.98,3.58-3.07,3.58-3.07s-1.01-3.03-4.66,0.83s-1.59-1.54-1.59-1.54s3.41-1.84,2.44-4.12c-0.97-2.28-4.81,3.49-4.81,3.49
	c-2.15,5.98-1.44-1.97-1.44-1.97s0.9-7.69,5.06-7.87c4.15-0.18,4.8-0.89,4.8-0.89s3-1.64,7.58,2.78c4.58,4.42,4.41,7.31,4.41,7.31
	s-0.21,5.32-6.64,3.53l-0.24-0.07c0,0-8.52,3.7-0.31,2.03s8.52,7.93,8.52,7.93s9.44,8.07-1.54,13.51L537.52,266.39z"/>
<path class="st15" d="M539.16,158.22c0,0-1.69,6.28-2.12,6.74s-1.19,1.87-1.19,1.87c-0.39,2.16,2.06,0.66,2.06,0.66
	c2.52-0.34,4.22-4.6,4.22-4.6S543.19,162.8,539.16,158.22z"/>
<path class="st15" d="M519.14,163.31c0.62,1.18,2.94,3.44,2.94,3.44s4.48,1.36,3.76,2.68c-0.73,1.32-5.63-1.4-5.63-1.4l-5.86-2.1
	c0,0-0.23-0.11-0.61-0.32L519.14,163.31z"/>
<path class="st15" d="M524,161.27c0.32,2.37,2.11,4.28,2.11,4.28s2.32,3.6-1.77,0.42c-2.26-1.76-3.11-2.83-3.8-3.25L524,161.27z"/>
<path class="st15" d="M537.84,155.78c0.17-0.04,0.02,0.36,0.02,0.55c-0.08,4.34-1.2,6.22-1.2,6.22s-2.71,6.25-4.4,6.44
	c-1.69,0.19,0.55-4.04,0.55-4.04l0.06-0.17c0,0,0.68-2.53-2.04-0.41l-0.4,1.13c0,0-1.29,3.52-2.2,1.03
	c-0.91-2.49-1.22-5.86-1.22-5.86s-0.05-0.25-0.13-0.61C526.87,160.07,534.64,156.56,537.84,155.78z"/>
<path class="st15" d="M511.27,166.61c0.38,0.21,0.76,0.44,1.17,0.69l0.26,0.05c0,0,6.49,1.32,10.38,3.57
	c3.88,2.25-0.46,1.51-0.46,1.51l-5-1.09c-3.33,0.4-0.86,1.41-0.86,1.41s8.01,1.49,4.38,1.51c-3.63,0.02-4.31,0.94-4.31,0.94
	c-2.05,2,3.13,0.6,3.13,0.6c3.7-0.44-1.2,2.25-1.2,2.25c-5.78,1.75-1.38,3.31-1.38,3.31s3.91-0.25,6.27-4.33s2.24,3.87,2.24,3.87
	c-2.19,5.04-1.26,4.53-1.26,4.53s2.55,1.91,3.42-3.31c0.88-5.22,2.19,0.36,2.19,0.36s-1.81,3.43,0.28,4.74
	c2.09,1.31,2.06-5.57,2.06-5.57c-1.56-6.1,2.31,0.8,2.31,0.8s3.56,6.79,0.19,9.28c-3.37,2.49-3.51,3.44-3.51,3.44
	s-1.59,3.03-7.9,2.01c-6.31-1.02-7.8-3.48-7.8-3.48s-2.81-4.46,3.57-6.64l0.24-0.08c0,0,5.04-7.84-0.88-1.83
	c-5.92,6.01-11.57-1.66-11.57-1.66s-0.69-0.07-1.66-0.31l-3.68-9.63c0,0-1.02-1.85-1.29-2.11s0.81-0.61,0.81-0.61l5.07-2.24
	l3.32-1.39L511.27,166.61z"/>
<path class="st16" d="M513.53,166.95"/>
<path class="st15" d="M529.47,301.19c0,0,0.65,3.29-1.18,0.61c-1.82-2.67-1.78-5.01-1.78-5.01s1.81-3.03-0.37-6.08
	c-2.18-3.05-2.97-4.98-5.45-4.65c0,0-3.91,1.95-5.84,2.42c-1.93,0.48-3.05,2.63-3.05,2.63s-1.08,3.1-0.63,5.62
	c0.46,2.52,1.01,2.9,1.01,2.9s-0.66,4.38,3,6.11c0,0,1.3,1.05,4.51,0.79c0,0,2.97,0.46,3.5,0.99s0.62,0.25,0.62,0.25
	s-0.39-1.69-1.53-2.31c-1.14-0.62,0.2-0.65,0.2-0.65l3.91,2.87c0,0,1.49,0.74,0.71-0.9s-2.54-4.29-2.54-4.29s-0.84-2.92,1.08-0.74
	s3.58,6.11,3.58,6.11s1.56,2.98,1.53,0.25c0,0-0.87-4.94,0.3-5.71s1.56,0.5,1.56,0.5l-0.57,4.6c0,0,0.34,3.15,1.59,0.26
	c0,0,0.42-3.58,3.57-6.29s2.76,0.89,2.76,0.89s-3.98,2.27-3.98,4.81c0,0-1.15,2.63,0.93,1.96c0,0,1.29-0.95,1.69-1.43
	c0.4-0.49,6.38-3.01,6.38-3.01s3.85,0.36,4.97-2.09s0.59-5.78,0.59-5.78s-1.17-5.19-5.75-5.93s-4.9-2.4-4.9-2.4
	s-1.77-2.84-6.94,0.77C527.8,292.87,529.47,301.19,529.47,301.19z"/>
<path class="st15" d="M552.04,310.25c0,0-1.03-4.62-5.32-3.95c-4.29,0.67-6,2.03-6,2.03s-5.81,3.54-5.78,5.24
	c0.04,1.7,3.93-1.09,3.93-1.09l0.16-0.08c0,0,2.41-1.02,0.69,1.96l-1.07,0.55c0,0-3.31,1.75-0.72,2.32
	c2.59,0.57,5.97,0.42,5.97,0.42s5.59,0.26,2.43,2.31c-3.17,2.06-7.13-0.76-7.13-0.76s-3.88-1.81-0.18,1.82
	c3.7,3.63,4.33,3.76,3.92,4.86c-0.41,1.1-4.29-2.39-4.29-2.39s-1.96-4.26-3.17-3.36c-1.21,0.9,2.15,5.39,2.15,5.39l2.87,5.53
	c0,0,3.7,5.65,8.27,4.94c4.57-0.71,4.44-1.47,5.21-4.79c0,0,6.47-0.34,5.64-8.74c-0.84-8.41-4.53-11.22-4.53-11.22
	s-1.73-1.23-2.52-0.81c-0.01,0.01-0.03,0.02-0.04,0.02L552.04,310.25z"/>
<path class="st15" d="M499.6,306.52c0.86-0.46,1.84-0.49,1.84-0.49l1.95,0.53c0,0-3.25-4.87,0.76-4.24
	c4.02,0.63,1.99,3.27,1.99,3.27s1.26-2.83,2.98-1.26c1.72,1.57,0.1,3.37,0.1,3.37l-0.08,0.25c16.81-2.35,23.62,6.74,23.62,6.74
	s2.01,3.74-1.91,1.97c0,0-8.48-10.15-22.47-7.22c0,0,4.25,3.43,0.92,5.16c0,0-1.3,1.68-3-2.7c0,0,0.24,2.18-0.35,3.51L499.6,306.52z
	"/>
<path class="st15" d="M517.64,331.81c0.51-0.72,0.88-1.66,1.16-3.08l0.04-0.25c0,0,7.08-6.06,1.93,0.62
	c-1.3,1.68-1.73,3.23-1.67,4.61l9.7,13.74l12.09-4.47c1.9-1.67,2.89-4.69-1.57-9.99l-0.08-0.25c0,0-2.19-6.26-4.94-9.8
	c-2.75-3.54-1.43,0.66-1.43,0.66l1.76,4.81c0.05,3.36-1.28,1.04-1.28,1.04s-2.56-7.74-2.09-4.14c0.47,3.6-0.34,4.4-0.34,4.4
	c-1.7,2.3-1.02-3.02-1.02-3.02c-0.07-3.73-2.06,1.49-2.06,1.49c-0.94,5.97-3.09,1.82-3.09,1.82s-0.28-3.91,3.43-6.8
	s-4.13-1.7-4.13-1.7c-4.7,2.86-4.31,1.87-4.31,1.87s-2.24-2.27,2.81-3.85c5.05-1.58-0.65-2.13-0.65-2.13s-3.15,2.26-4.73,0.37
	c-1.59-1.89,5.23-2.8,5.23-2.8c6.25,0.72-1.1-2.19-1.1-2.19s-7.2-2.61-9.21,1.07c-2.01,3.68-2.93,3.95-2.93,3.95
	s-0.39,0.28-0.79,0.96L517.64,331.81z"/>
<path class="st17" d="M539.53,331.87"/>
<path class="st15" d="M578.13,224.96c-0.21,0.48-0.34,0.83-0.33,0.96c0,0.62-0.38,2.17-0.38,2.17c-1.18,1.86-1.98-0.87-1.98-0.87
	c-1.44-1.67-0.37-5.17-0.08-6.01L578.13,224.96z"/>
<path class="st18" d="M543.74,244.23"/>
<path class="st15" d="M568.92,210.59c-1.82,0.55-2.48,0.03-2.48,0.03s-3.2-0.99-4.88,5.08c-1.68,6.07,4.96,11.24,4.96,11.24
	s2.62,2.05-0.52,1.22c-3.13-0.83-4.61-2.61-4.61-2.61s-0.55-3.45-4.2-4.33c-3.65-0.88-5.51-1.82-7.22,0.04c0,0-1.77,4-2.96,5.61
	c-1.19,1.61-0.67,3.95-0.67,3.95s1.16,3.04,3.13,4.64c1.98,1.6,2.65,1.53,2.65,1.53s2.31,3.72,6.25,2.65c0,0,1.68-0.05,4-2.33
	c0,0,2.6-1.57,3.35-1.52c0.76,0.05,0.64-0.21,0.64-0.21s-1.39-1.02-2.67-0.75s-0.26-0.62-0.26-0.62l4.88-0.38
	c0,0,1.64-0.41-0.03-1.14s-4.73-1.58-4.73-1.58s-2.53-1.65,0.36-1.26c2.89,0.39,6.71,2.27,6.71,2.27s3.13,1.23,1.34-0.8
	c0,0-3.85-3.16-3.44-4.49s1.53-0.63,1.53-0.63l2.52,3.83c0,0,2.29,2.15,1.4-0.83c0,0-1.98-2.97-1.28-7.05
	c0.41-2.41,1.28-2.36,1.93-1.92L568.92,210.59z"/>
<path class="st17" d="M587.79,237.69c-0.84-0.36-4.11-1.66-4.42-0.39c-0.36,1.46,5.14,2.66,5.14,2.66l1.27,0.51"/>
<path class="st15" d="M586.25,235.64c-3.6-0.29-1.86-1.04-1-1.33L586.25,235.64z"/>
<path class="st15" d="M584.29,233.02c-0.29,0.18-0.59,0.35-0.89,0.51c-2.37,1.25-0.93-2.21-0.93-2.21l0.17-0.4L584.29,233.02"/>
<path class="st15" d="M581.3,229.03c0,0-1.44,4.93-2.57,3.68c-0.79-0.88,0.06-4.27,0.64-6.25L581.3,229.03z"/>
<path class="st15" d="M555.12,245.2c11.51-12.66,22.63-10.23,22.63-10.23s3.97,1.51-0.21,2.72c0,0-13.1-2.14-22.05,9.13
	c0,0,5.5-0.17,4.04,3.29c0,0,0.08,2.1-4.07-0.09c0,0,4.12,3.85,0.73,4.93s-4.13-4.22-4.13-4.22s-2.16,4.15-4.51,2.29
	c-2.35-1.86,0.36-4.28,0.36-4.28l1.85-0.86c0,0-5.66-1.56-2.14-3.69c3.52-2.13,3.65,1.18,3.65,1.18s-0.84-2.95,1.5-2.88
	c2.34,0.07,2.25,2.47,2.25,2.47"/>
<path class="st15" d="M591.75,242.98c-2.06-1.01-4.99-2.29-7.49-2.79c-4.41-0.88-0.68,1.43-0.68,1.43l4.46,2.49
	c2.2,2.49-0.32,1.62-0.32,1.62s-6.96-4.17-4.28-1.76c2.68,2.41,2.57,3.54,2.57,3.54c0.17,2.83-2.74-1.61-2.74-1.61
	c-2.45-2.76-0.64,2.46-0.64,2.46c3.11,5.1-1.22,3.37-1.22,3.37s-2.73-2.76-1.72-7.34s-4.29,1.4-4.29,1.4
	c-1.8,5.19-2.14,4.2-2.14,4.2s-3.19-0.26-0.3-4.72c2.89-4.46-1.87-1.18-1.87-1.18s-0.98,3.74-3.43,3.34c-2.45-0.4,2.25-5.5,2.25-5.5
	c5.3-3.51-2.26-0.93-2.26-0.93s-7.26,2.7-6.45,6.78s0.27,4.87,0.27,4.87s-0.88,3.3,4.51,6.69c5.38,3.4,8.16,2.55,8.16,2.55
	s5.12-1.47,1.85-7.28l-0.13-0.22c0,0,1.58-9.15,1.9-0.78s9.73,6.38,9.73,6.38s10.52,6.88,13.2-5.07L591.75,242.98z"/>
<path class="st18" d="M502.88,311.01c0.22-0.46,0.4-0.75,0.4-0.75s-0.33,0.14-0.82,0.28"/>
<path class="st16" d="M594.05,243.51"/>
<path class="st17" d="M615.38,285.83c-5.94-1.96-10.13-0.85-10.13-0.85s-3.95,1.69,0.25,2.71c0,0,3.61-0.76,8.36,0.1"/>
<path class="st15" d="M607.56,295.47c-0.64-0.66-2.8-3.27-3.88-2.53c-0.92,0.63-0.1,5.52-0.43,6.73L607.56,295.47z"/>
<path class="st17" d="M589.06,294.27"/>
<path class="st15" d="M440.73,240.11c0.16-0.12,0.26-0.2,0.26-0.2c0.97-1.52-0.74-1.49-1.4-1.43L440.73,240.11z"/>
<path class="st15" d="M438.02,236.49c1.43-0.22,2.41-0.08,2.41-0.08c3.09-0.47,0.16-1.61,0.16-1.61l-4.23-0.58L438.02,236.49z"/>
<line class="st19" x1="488.89" y1="197.27" x2="579.34" y2="321.04"/>
<path class="st15" d="M437.81,228.52c1.68,1.93,3.84,3.62,3.84,3.62s2.46,2.28-0.15,1.55c0,0-4.52-2.11-5.55-1.16
	c-0.22,0.2-0.35,0.4-0.4,0.57l-0.49-0.67L437.81,228.52z"/>
<path class="st15" d="M440.66,225.34l1.54,4c0,0,0.33,1.65-1.04,0.46c-0.74-0.64-1.7-1.63-2.42-2.41L440.66,225.34z"/>
<path class="st15" d="M442.98,222.39c0,0-0.31,3.01,0.06,3.66c0.37,0.66,0.08,0.67,0.08,0.67s-1.52-0.81-1.83-2.08
	c-0.02-0.07-0.03-0.14-0.05-0.19L442.98,222.39z"/>
<path class="st15" d="M436.29,230.69c0.65,0.24,1.51,0.43,0.74-0.68"/>
<path class="st15" d="M450.48,247.47c-0.06-1.51-0.5-2.71-0.5-2.71s-0.74-4.24,1.79,0.29s2.5,5.18,3.66,5.06
	c1.16-0.12-1.19-4.79-1.19-4.79s-3.59-3-2.41-3.94c1.17-0.95,4.62,3.48,4.62,3.48l4.57,4.21c0,0,4.48,5.05,2.62,9.32
	c-0.43,1-0.63,1.62-0.99,2.18l-2.67-3.51c0,0-3.55-4.87-4.8-5.52l-2.24-2.02L450.48,247.47z"/>
<path class="st15" d="M448.1,245.59c0.15-0.84,0.28-1.73,0.32-2.57c0.12-2.67-2.41,0.11-2.41,0.11l-0.55,0.61L448.1,245.59z"/>
<path class="st15" d="M475.57,246.38c0,0-4.48,10.18-12.04-0.44l-0.22-0.14c0,0-5.49-3.66-8.24-7.22c-2.74-3.55,0.98-1.24,0.98-1.24
	l4.21,2.89c3.22,0.87,1.32-1,1.32-1s-6.83-4.38-3.48-3.05c3.35,1.34,4.32,0.73,4.32,0.73c2.63-1.1-2.66-1.73-2.66-1.73
	c-3.57-0.98,1.94-1.65,1.94-1.65c5.97,0.53,2.5-2.58,2.5-2.58s-3.7-1.22-7.38,1.7c-3.69,2.92-0.63-4.45-0.63-4.45
	c3.9-3.89,2.85-3.76,2.85-3.76s-1.64-2.74-4.39,1.81c-2.75,4.55-1.89-1.16-1.89-1.16s2.94-2.52,1.51-4.53
	c-1.44-2.01-3.97,4.43-3.97,4.43c-0.83,6.28-1.84-1.61-1.84-1.61s-0.76-7.67,3.27-8.74c4.03-1.07,4.51-1.9,4.51-1.9
	s2.59-2.24,8.02,1.08c5.44,3.31,5.89,6.16,5.89,6.16s0.93,5.22-5.76,4.87l-0.25-0.02c0,0-7.56,5.44,0.13,2.04
	c7.69-3.4,10.05,5.88,10.05,5.88s10.98,5.82,1.39,13.48L475.57,246.38z"/>
<path class="st15" d="M443.81,242.58c0,0,3.68-3.07,2.05-3.55c-0.84-0.25-2.56,0.92-4.02,2.1L443.81,242.58z"/>
<path class="st15" d="M446.44,218.07c-2.16,10.16,3.23,17.9,3.23,17.9c0.7,4.28-2.37,1.36-2.37,1.36s-4.71-6.05-2.76-16.96
	L446.44,218.07z"/>
<path class="st17" d="M462.04,248.31"/>
<path class="st17" d="M442.82,241.94c-0.63,0.61-1.43,1.08-2.41,1.05c-2.67-0.08-5.38-2.05-5.38-2.05s-1.48-1.23-2.35-3.2"/>
<polygon class="st20" points="500.5,159.46 449.4,197.45 437.78,181.3 488.88,143.3 "/>
<path class="st15" d="M462.72,260.81c-1.51,1.33-4.46,2.71-9.04-0.21c-7.07-4.51-7.9-9.11-7.9-9.11s-0.32-2.11,0.41-2.65
	c0.01-0.01,0.03-0.02,0.04-0.03l-0.06-0.16c0,0-2.68-2.53-1.7-5.6c0,0,4.54,2.85,11.13,8.77l2.99,3.31c0,0,1.25,1.63,1.59,2.33
	C460.49,258.15,462.72,260.81,462.72,260.81z"/>
<path class="st15" d="M482.2,283.13c-2.6,1.09-2.77,4.06-3.41,6.41c-0.78,2.84-2.85,4.91-4.04,7.54c0,0,6.92-1.54,11.94-7.24
	l-3.4-6.04L482.2,283.13z"/>
<path class="st15" d="M473.9,280.69c0,0,4.73,1.73,3.89,6c-0.84,4.27-2.26,5.93-2.26,5.93s-3.75,5.69-5.45,5.58
	c-1.69-0.11,1.24-3.9,1.24-3.9l0.09-0.16c0,0,1.11-2.37-1.93-0.77l-0.59,1.05c0,0-1.88,3.25-2.34,0.63
	c-0.46-2.62-0.18-6.01-0.18-6.01s-0.03-5.62-2.2-2.53c-2.17,3.1,0.48,7.19,0.48,7.19s1.65,3.96-1.82,0.11
	c-3.46-3.86-3.57-4.5-4.68-4.13c-1.11,0.37,2.2,4.4,2.2,4.4s4.16,2.13,3.22,3.31c-0.94,1.17-5.28-2.37-5.28-2.37l-5.39-3.1
	c0,0-5.48-3.94-4.58-8.49c0.89-4.55,1.64-4.39,4.97-5.03c0,0,0.59-6.48,8.93-5.31c8.34,1.17,10.99,4.99,10.99,4.99
	s1.16,1.78,0.71,2.56c-0.01,0.01-0.02,0.03-0.02,0.04"/>
<path class="st17" d="M452.05,292.89"/>
<path class="st15" d="M572.1,165.99c0.45,0.67,0.85,0.83,1.23,1.8c3.05,7.84,1.05,12.11,1.05,12.11s-0.97,1.93-1.86,1.94
	c-0.02,0-0.03,0-0.05,0l0.03,0.26c0,0,0.81,4.74-3.28,6.22c-4.09,1.48-6.22,1.11-6.22,1.11s-6.74-0.31-7.47-1.84
	c-0.73-1.53,3.96-0.94,3.96-0.94l0.18,0c0,0,2.59-0.26-0.28-2.07l-1.19,0.03c0,0-3.72,0.05-1.68-1.7c2.03-1.75,5.09-3.26,5.09-3.26
	s4.83-2.94,1.1-3.22c-3.73-0.28-5.96,4.13-5.96,4.13s-2.61,3.48-0.98-1.52c1.64-5,2.14-5.42,1.28-6.19
	c-0.86-0.78-2.72,4.19-2.72,4.19s0.19,4.71-1.28,4.5c-1.47-0.21-0.53-5.81-0.53-5.81l0.05-6.28c0,0,0.72-6.79,5.08-8.37
	c1.5-0.54,2.05-0.28,2.82-0.3L572.1,165.99z"/>
<path class="st16" d="M551.31,169.2"/>
<path class="st15" d="M584.66,217.25c-0.11,0.11-0.99,0.9-1.1,1c-0.41-1.34-0.77-4.5-1.43-5.7c-0.95-1.73-0.09-4-0.09-4
	s1.59-2.88,3.78-4.25c2.19-1.37,2.85-1.22,2.85-1.22s2.82-3.43,6.57-1.94C595.24,201.15,590.64,211.19,584.66,217.25z"/>
<path class="st21" d="M532.22,247.02c0,0-26.39-31.56-62.16-41.91"/>
<path class="st21" d="M550.64,220.35c0,0-38.56-13.93-60.64-44.12"/>
<path class="st15" d="M596.86,198.39c-1-1.13-1.89-2.35-2.66-3.65c1.65,0.21,5.14,0.01,4.57-2.6c-0.43-1.94-2.82-1.11-4.13-0.58
	c1.42-1.05,4.31-4.43,0.92-5.15c-2.08-0.45-3.66,2.44-4.18,4.06c-0.59-1.5-2.23-3.87-4.11-2.91c-3.05,1.55-0.23,4.48,1.43,5.49
	c-1.49,0.24-4.33,0.88-3.3,2.96c0.85,1.74,4.01,1.85,4.43-0.31c-1.45,3.19,3.24,4,3.66,0.82l0.13-0.23c0.8,1.16,1.66,2.27,2.58,3.33
	L596.86,198.39z"/>
<path class="st22" d="M489.41,143.37"/>
<path class="st23" d="M459.26,194.28l0.93,5.15c0,0,0.2,0.26,0.5,0.72"/>
<path class="st23" d="M487.36,197.2"/>
<path class="st23" d="M477.8,212.5"/>
<path class="st23" d="M490.15,195.13"/>
<path class="st24" d="M483.71,284.24"/>
<path class="st19" d="M463.55,261.95c0,0-7.37,0.11-12.4-3.6"/>
<path class="st19" d="M469.57,269.06c0,0-2.62,2.13,0.11,6.83"/>
<path class="st20" d="M499.3,156.9l-9.89-13.53l-10.43-13.63c0,0-20.28-18.67-41.51-2.89l0.12-0.09
	c-21.23,15.78-9.54,40.85-9.54,40.85l9.82,14.09l9.89,13.53"/>
<path class="st9" d="M488.8,172.12c1.5,5.92,2.96,15.47,0.3,24.89l-0.41,0.25c-9.71-0.22-18.28-4.44-23.43-7.64L488.8,172.12z"/>
<path class="st23" d="M494.84,167.63l4.6,2.42c0,0,0.71,0.82,1.18,1.41"/>
<path class="st25" d="M457.66,204.02"/>
<path class="st23" d="M487.36,197.2"/>
<path class="st23" d="M477.8,212.5"/>
<path class="st23" d="M490.15,195.13"/>
<path class="st14" d="M465.26,189.62c4.84,3.01,12.71,6.92,21.71,7.56l0.4,0.02l-8.06,15.99l-0.54,0.63
	c-0.58,0.43-1.38,0.44-1.95,0.02l-0.07-0.06l-12.61-10.01c-1.34-0.89-2.39-2.11-3.08-3.06l-0.24-0.34l-0.13-0.21
	c-0.29-0.46-0.5-0.72-0.5-0.72l-0.93-5.15L465.26,189.62z"/>
<path class="st14" d="M494.84,167.63l4.6,2.42c0,0,0.71,0.82,1.18,1.41l0.14,0.2c0.66,0.93,1.41,2.21,1.82,3.64l5.75,15.11
	l0.01,0.03c0.23,0.68-0.03,1.41-0.61,1.84c-0.22,0.16-0.42,0.26-0.69,0.3l-0.05,0.01l-17.54,3.05l0.11-0.46
	c2.66-9.43,0.74-17.14-0.76-23.07L494.84,167.63z"/>
<path class="st23" d="M506.76,190.97"/>
<path class="st23" d="M486.65,197.73"/>
<path class="st23" d="M477.8,212.5"/>
<path class="st23" d="M490.15,195.13"/>
<path class="st23" d="M506.76,190.97"/>
<path class="st23" d="M486.65,197.73"/>
<path class="st20" d="M477.83,181.97c14.88-11.41,20.17-17.4,22.33-20.07c1.73-2.14,0.43-3.22,0.43-3.22l-1.3-1.78
	c0,0-7.22,9.09-23.89,21.21l-0.49,0.37c-16.42,12.48-27.16,16.75-27.16,16.75l1.3,1.78c0,0,0.64,1.57,3.18,0.53
	c3.17-1.29,10.41-4.62,25.61-15.58"/>
<path class="st23" d="M489.45,195.65"/>
<path class="st23" d="M506.76,190.97"/>
<path class="st23" d="M486.65,197.73"/>
<path class="st24" d="M572.96,217.88"/>
<path class="st19" d="M557.81,191.87c0,0,2.28-7.07,0.26-13.01"/>
<path class="st19" d="M562.77,199.77c0,0,2.79-1.9,6.44,2.13"/>
<path class="st24" d="M580.14,320.46"/>
<path class="st22" d="M446.39,138.26"/>
<path class="st16" d="M513.53,166.95"/>
<path class="st17" d="M539.53,331.87"/>
<path class="st15" d="M589.78,240.47l-1.27-0.51c0,0-5.49-1.21-5.14-2.66c0.31-1.27,3.57,0.03,4.42,0.39L589.78,240.47z"/>
<path class="st24" d="M578.73,321.51"/>
<path class="st16" d="M594.05,243.51"/>
<path class="st26" d="M615.38,285.83c-5.94-1.96-10.13-0.85-10.13-0.85s-3.95,1.69,0.25,2.71c0,0,3.61-0.76,8.36,0.1L615.38,285.83z
	"/>
<path class="st17" d="M589.06,294.27"/>
<path class="st17" d="M462.04,248.31"/>
<path class="st15" d="M442.82,241.94c-0.63,0.61-1.43,1.08-2.41,1.05c-2.67-0.08-5.38-2.05-5.38-2.05s-1.48-1.23-2.35-3.2l1.34-3.4
	l1.06-1.98l6.03,8.35L442.82,241.94z"/>
<path class="st17" d="M452.05,292.89"/>
<path class="st16" d="M551.31,169.2"/>
<path class="st23" d="M487.36,197.2"/>
<path class="st23" d="M477.8,212.5"/>
<path class="st19" d="M435.05,232.43l6.02,8.24c0,0,14.09,8.83,18.54,15.97c4.44,7.14,23.92,27.35,23.92,27.35"/>
<path class="st23" d="M490.15,195.13"/>
<path class="st24" d="M483.71,284.24"/>
<path class="st23" d="M489.45,195.65"/>
<path class="st23" d="M506.76,190.97"/>
<path class="st23" d="M486.65,197.73"/>
<path class="st24" d="M572.96,217.88"/>
<path class="st24" d="M580.14,320.46"/>
<path class="st22" d="M446.39,138.26"/>
<path class="st24" d="M578.73,321.51"/>
<path class="st15" d="M592.96,269.66c0,0,3.72-3.01,6.67,0.12c2.95,3.13,3.43,5.24,3.43,5.24s2.34,6.31,1.24,7.62
	c-1.1,1.32-2.4-3.24-2.4-3.24l-0.07-0.16c0,0-1.25-2.26-1.78,1.13l0.49,1.08c0,0,1.5,3.39-0.89,2.26s-4.95-3.29-4.95-3.29
	s-4.56-3.19-3.36,0.34c1.2,3.54,6.09,3.73,6.09,3.73s4.19,0.93-1,1.54c-5.19,0.61-5.77,0.32-6.14,1.44s4.88,0.73,4.88,0.73
	s4.22-2.16,4.6-0.72c0.38,1.44-5.09,2.93-5.09,2.93l-5.74,2.6c0,0-6.47,2.2-9.61-1.14s-2.56-3.85-1.08-6.92c0,0-4.88-4.19,1.07-10.3
	c5.95-6.1,10.63-6.07,10.63-6.07s2.13,0.08,2.49,0.89c0.01,0.01,0.01,0.03,0.02,0.04L592.96,269.66z"/>
<path class="st15" d="M589.3,312.89c-3.69,0-5.54-3.38-6.3-6.58l-0.09-0.2c0,0-7.31-8.16,5.58-10.82l0.22-0.14
	c2.72-1.67,5.61-3.27,8.67-4.22c0.88-0.27,3.88-1.32,3,0.27c-0.58,1.06-6.96,3.17-6.09,4.77c0.6,1.1,5.05-2.32,5.98-2.5
	c-0.44,0.8-4.41,4.06-2.95,5.11c1.35,0.97,2.54-4.33,3.83-2.89c0.53,0.59-3,7.69-0.31,6.61L589.3,312.89z"/>
<path class="st17" d="M616.63,276.22"/>
<path class="st15" d="M616.63,276.22l-12.73-16.89c-0.77,0.41-1.24,0.78-1.24,0.78s-2.53,2.28-3.21,4.88
	c-0.68,2.6,2.57,4.68,2.57,4.68s3.07,5.64,3.08,6.26s0.41,2.15,0.41,2.15c1.2,1.81,1.97-0.96,1.97-0.96c1.62-1.99-0.05-6.2-0.05-6.2
	s1.98-3.05,2.72,0.99c0.74,4.04-1.2,7.1-1.2,7.1c-0.86,3.02,1.41,0.77,1.41,0.77l2.48-3.94c0,0,1.1-0.75,1.53,0.56
	s-3.38,4.65-3.38,4.65c-1.76,2.12,1.35,0.74,1.35,0.74s3.66-1.99,6.53-2.55l-1.33-1.82c-0.2,0.07-0.4,0.14-0.61,0.21
	c-3.12,0.97-0.53-1.2-0.53-1.2S616.48,276.36,616.63,276.22"/>
<path class="st26" d="M617.03,283.43l1.95-2.84c-0.89,0.3-3.02,1.04-4.31,1.67c-1.65,0.8-0.02,1.14-0.02,1.14l2.47,0.08"/>
<path class="st15" d="M458.54,301.22c-1.63-0.58-5.14-1.47-4.79-2.89c0.35-1.47,3.55,0.35,4.32,0.69c0.99,0.43,4.31,2.03,3.04-0.12
	c-1.75-2.97-6.96-4.54-9.95-5.74l-0.24-0.09c-9.59-8.82-12.73,2.11-12.73,2.11l0.62,5c0,0-0.15,1.34,1.57,1.76
	c1.72,0.42,2.91,0.83,7.61,0.65C452.69,302.39,458.54,301.22,458.54,301.22z"/>
<path class="st15" d="M541.27,193.88c0.2-16.99-9.67-22.6-9.67-22.6s-3.96-1.52-1.71,2.15c0,0,11.13,7.13,10,21.4
	c0,0-3.94-3.79-5.23-0.26c0,0-1.5,1.5,3.06,2.64c0,0-5.68,0.1-3.92,3.15c1.76,3.06,5.94-0.37,5.94-0.37s-1.26,4.5,1.75,4.69
	c3.01,0.19,2.67-3.4,2.67-3.4l-0.77-1.87c0,0,5.24,2.61,4.11-1.29c-1.13-3.91-3.49-1.56-3.49-1.56s2.64-1.61,0.87-3.12
	c-1.78-1.51-3.36,0.32-3.36,0.32L541.27,193.88z"/>
<path class="st19" d="M489.45,195.65l17.54-3.05l0.05-0.01c0.27-0.04,0.47-0.14,0.69-0.3c0.58-0.43,0.84-1.16,0.61-1.84l-0.01-0.03
	l-5.75-15.11c-0.41-1.43-1.15-2.7-1.82-3.64c0,0-0.41-0.29,0.28-0.78l2.96-1.31l30.86-12.95c11.1-4.03,17.41,0.29,17.41,0.29
	l49.27,22.49c5.27,2.1-13.23,40.5-24.23,42.95l-4.42-4.53l46.54,62.16c0,0-12.55,20.18-40.15,41.01l-0.5,0.37
	c-27.89,20.43-50.71,26.55-50.71,26.55l-44.54-63.91l3.16,5.85c-5.57,9.88-48.15,16.77-48.58,11.08l-6.73-54.12
	c0,0-2.22-7.36,4.88-16.86l21.4-25.9l3.15-3.66l0.24,0.34c0.69,0.96,1.74,2.18,3.08,3.06l12.61,10.01l0.07,0.06
	c0.58,0.42,1.37,0.41,1.95-0.02l0.54-0.63l8.06-15.99l1.66,0.07L489.45,195.65z"/>
<path class="st15" d="M544.49,164.16l2.66,8.56c-1.13,0.08-1.88,0.04-1.88,0.04s-3.34-0.2-0.45,1.25c1.2,0.6,2.3,0.89,3.18,1.02
	c0,0,2.57,8.06,7.74,13.79l0.25,0.35l0.24,0.35c-1.08,0.4-2.64,0.85-4.07,0.78c-2.56-0.11-3.01-0.61-3.01-0.61s-4.25,1.25-6.45-2.14
	c0,0-1.22-1.15-1.39-4.37c0,0-0.86-2.88-1.46-3.34c-0.6-0.46-0.33-0.58-0.33-0.58s1.73,0.16,2.5,1.2s0.62-0.29,0.62-0.29l-3.37-3.49
	c0,0-0.94-1.38,0.79-0.83s4.59,1.94,4.59,1.94s3.01,0.44,0.59-1.17c-2.42-1.61-6.53-2.72-6.53-2.72s-3.16-1.14-0.46-1.48
	c0,0,5.01,0.19,5.61-1.08c0.6-1.26-0.71-1.47-0.71-1.47l-4.48,1.19c0,0-3.17,0.09-0.47-1.54c0,0,3.48-0.91,5.74-4.39
	c0.23-0.35,0.4-0.66,0.52-0.93"/>
<path class="st19" d="M538.47,155.92l6.02,8.24c0,0,4.2,16.19,9.64,22.58c5.45,6.39,18.82,31.14,18.82,31.14"/>
<g>
	<path class="st27" d="M461.08,178.34c22.44-17.1,18.15-25.91,18.15-25.91l-7.3-9.98c-7.44-10.18-24.09-10.52-37.2-0.78
		c0,0,0,0-0.46,0.34c-4.16,3.1-7.47,6.84-9.8,10.83c0,0,1.65,12.75,3.65,15.13c2,2.39,14,20.54,14,20.54
		c4.55-1.3,10.78-4.25,19.08-10.27"/>
</g>
<path class="st9" d="M608.16,265.72l24.86-1.47c0.99-0.06,1.76-0.91,1.72-1.91l-0.06-1.44c-0.04-1-0.88-1.75-1.87-1.7l-24.86,1.47
	c-0.99,0.06-1.76,0.91-1.72,1.91l0.06,1.44C606.33,265.02,607.17,265.78,608.16,265.72z"/>
<g>
	<path class="st20" d="M443.34,190.08c4.76-1.6,11.01-4.75,19.1-10.62l-0.33,0.24c24.22-18.46,19.59-27.96,19.59-27.96l-7.88-10.78
		c-8.03-10.98-26.01-11.36-40.16-0.84l-0.3,0.22c-3.65,2.72-6.69,5.89-9.06,9.3c-0.98,1.09,0.08,2.83,0.08,2.83
		c2.33-3.99,5.64-7.74,9.8-10.83c0.46-0.34,0.46-0.34,0.46-0.34c13.11-9.75,29.77-9.4,37.2,0.78l7.3,9.98c0,0,4.29,8.81-18.15,25.91
		c0,0-12.29,8.42-18.59,10.39C442.41,188.36,442.46,189.43,443.34,190.08z"/>
</g>
<path class="st9" d="M641.93,227.61c-0.6,4.94-2.49,8.9-6.42,10.74"/>
<path class="st9" d="M601.17,233.56c-1.93-0.65-3.45-1.83-4.61-3.42"/>
<g>
	<path class="st1" d="M547.08,185.47"/>
	<g>
		<path class="st1" d="M547.08,187.97c3.22,0,3.22-5,0-5C543.86,182.97,543.86,187.97,547.08,187.97L547.08,187.97z"/>
	</g>
</g>
<g>
	<path class="st1" d="M630.38,449.81"/>
	<g>
		<path class="st1" d="M630.38,452.31c3.22,0,3.22-5,0-5C627.16,447.31,627.16,452.31,630.38,452.31L630.38,452.31z"/>
	</g>
</g>
<path class="st28" d="M445.29,139.02l29.08-6.81c0,0,1.09,0.73,1.1,1.44"/>
<path class="st29" d="M435.89,134.09l0.68,3.63c0.13,0.67-0.09,1.36-0.57,1.85l-2.64,2.68c-1.22,1.24-0.51,3.29,1.2,3.48l3.7,0.41
	c0.68,0.07,1.27,0.48,1.58,1.08l1.7,3.27c0.78,1.51,2.99,1.43,3.73-0.13l1.6-3.38c0.29-0.62,0.87-1.06,1.55-1.18l3.69-0.66
	c1.7-0.31,2.35-2.41,1.1-3.56l-2.71-2.5c-0.5-0.46-0.73-1.13-0.62-1.81l0.58-3.68c0.27-1.7-1.53-2.92-3.05-2.07l-3.28,1.84
	c-0.6,0.34-1.32,0.36-1.93,0.07l-3.33-1.61C437.34,131.06,435.57,132.41,435.89,134.09z"/>
<line class="st30" x1="432.75" y1="144.58" x2="430.46" y2="146.32"/>
<path class="st29" d="M420.55,145.82l1.12,3.3c0.21,0.6,0.15,1.18-0.15,1.53l-1.65,1.93c-0.76,0.89,0.13,2.81,1.51,3.25l2.99,0.95
	c0.55,0.17,1.08,0.62,1.42,1.2l1.87,3.14c0.86,1.45,2.59,1.74,2.92,0.49l0.72-2.71c0.13-0.5,0.52-0.79,1.03-0.79l2.8,0.01
	c1.29,0.01,1.47-1.74,0.3-2.95l-2.54-2.63c-0.47-0.48-0.76-1.11-0.78-1.69l-0.13-3.13c-0.06-1.45-1.68-2.81-2.74-2.31l-2.29,1.09
	c-0.42,0.2-0.99,0.1-1.52-0.25l-2.89-1.95C421.2,143.4,420.03,144.3,420.55,145.82z"/>
<path class="st31" d="M540.89,250.54l15.97-23.13c0.88-1.27,0.57-3.01-0.69-3.89l-12.38-8.67c-1.26-0.88-2.99-0.57-3.86,0.7
	l-15.97,23.13c-0.88,1.27-0.57,3.01,0.69,3.89l12.38,8.67C538.29,252.12,540.02,251.81,540.89,250.54z"/>
<path class="st31" d="M526.34,234.56l-2.55-1.79c-0.71-0.5-0.88-1.48-0.39-2.19l8.14-11.79c0.49-0.71,1.47-0.89,2.17-0.4l2.55,1.79"
	/>
<ellipse transform="matrix(0.1177 -0.9931 0.9931 0.1177 243.9482 743.6817)" class="st32" cx="540.48" cy="234.56" rx="6.87" ry="6.81"/>
<ellipse transform="matrix(0.1177 -0.9931 0.9931 0.1177 261.8796 730.614)" class="st33" cx="542.09" cy="217.94" rx="1.99" ry="1.97"/>
<path class="st34" d="M600.12,303.49c0,0,16.12-15.45,18.69-22.69l-5.55-8.33c-11.23,16.84-20.15,21.96-20.15,21.96"/>
<path class="st34" d="M555.3,335.81c0,0-20.38,11.13-28.23,11.49l-6.13-7.9c20.05-5.95,28.02-13.13,28.02-13.13"/>
<path class="st35" d="M543.11,229.97c-0.98-0.6-2.13-0.85-3.27-0.71s-2.2,0.66-3.01,1.48"/>
<path class="st36" d="M600.42,315.72c3.3-2.41,4.28-7.2,1.9-10.5l-8.4-11.7c-0.36-0.5-1.05-0.61-1.55-0.24l-43.57,31.74
	c-0.5,0.36-0.61,1.06-0.25,1.56l8.4,11.7c2.37,3.3,7.46,3.68,10.76,1.28"/>
<path class="st36" d="M557.65,320.87l28.07-20.44c0.04-0.03,0.08-0.06,0.12-0.09c2.16-1.58,6.97,1.34,10.65,6.47
	c3.61,5.03,4.89,10.46,2.86,12.13l-28.4,20.69c-2.22,1.42-6.93-1.51-10.55-6.54C556.74,327.96,555.49,322.45,557.65,320.87
	c0.04-0.03,0.08-0.06,0.13-0.08"/>
<g>
	<g>
		<line class="st37" x1="587.22" y1="307.91" x2="585.2" y2="309.38"/>
		<line class="st38" x1="581.25" y1="312.26" x2="567.42" y2="322.33"/>
		<line class="st37" x1="565.44" y1="323.77" x2="563.42" y2="325.24"/>
	</g>
</g>
<path class="st39" d="M564.44,324.09l0.04-0.03c0.51-0.37,1.22-0.26,1.58,0.25l2.59,3.6c0.37,0.51,0.25,1.22-0.26,1.59l-0.04,0.03
	c-0.51,0.37-1.22,0.26-1.58-0.25l-2.59-3.6C563.82,325.17,563.94,324.46,564.44,324.09z"/>
<path class="st10" d="M620.79,289.12c0,0,3.26,13.9-10.33,17.85c0,0-6.83,1.25-6.76-4.58c0,0-1.06-3.38,4.63-4.41
	c5.69-1.03,2.68-17.7,2.68-17.7l-0.2-1.6c0.28,1.6,0.3,2.99,0.21,4.08c-0.12,1.64-0.47,2.6-0.47,2.6c-3.93,6.44-9.95,3.35-9.95,3.35
	s-1.63-0.59-2.09-4.32s2.75-3.69,2.75-3.69c6.86-0.41,5.93-4.49,5.93-4.49c-0.63-9.46,5.66-10.77,5.66-10.77l15.39-0.91
	c0,0,8.33-0.32,7.98,27.89c0,0-3.38,8.7-13.34,9.91c0,0-3.42,2.88-6.16,1.11"/>
<path class="st10" d="M630.67,299.33c0,0,2.11-4.58,1.95-8.4"/>
<path class="st10" d="M622.87,302.33c0,0,4.31-3.01,4.75-10.7"/>
<path class="st6" d="M1033.02,568.34c-30.74-0.04-61.47-0.02-92.21,0c-22.43-139.19,51.9-238.44,51.9-238.44l-0.72,1.69
	C983.32,418.63,996.52,498.69,1033.02,568.34z"/>
<path class="st40" d="M1495.18,568.66H17.57c-7.55,0-13.67-6.12-13.67-13.67V21.01c0-7.55,6.12-13.67,13.67-13.67h1477.61
	c7.55,0,13.67,6.12,13.67,13.67v533.98C1508.85,562.54,1502.73,568.66,1495.18,568.66z"/>
</svg>
