<?xml version="1.0" encoding="utf-8"?>
<!-- Generator: Adobe Illustrator 27.4.0, SVG Export Plug-In . SVG Version: 6.00 Build 0)  -->
<svg version="1.1" id="Layer_2" xmlns="http://www.w3.org/2000/svg" xmlns:xlink="http://www.w3.org/1999/xlink" x="0px" y="0px"
	 viewBox="0 0 1584 576" style="enable-background:new 0 0 1584 576;" xml:space="preserve">
<style type="text/css">
	.st0{fill:#142728;}
	.st1{fill:#E5E5E4;}
	.st2{fill:#FFF1E7;}
	.st3{fill:#D4AC9F;stroke:#D4AC9F;stroke-miterlimit:10;}
	.st4{fill:#F3CEBE;stroke:#D4AC9F;stroke-width:5;stroke-miterlimit:10;}
	.st5{fill:none;stroke:#070909;stroke-width:5;stroke-miterlimit:10;}
	.st6{fill:#F26722;stroke:#F26722;stroke-miterlimit:10;}
	.st7{fill:#F79756;}
	.st8{fill:#F9B485;}
	.st9{fill:#EEE0D8;stroke:#D7AF9D;stroke-width:2;stroke-miterlimit:10;}
	.st10{fill:#CEBBB3;stroke:#C2A79D;stroke-width:2;stroke-miterlimit:10;}
	.st11{fill:#1B140F;stroke:#000000;stroke-width:2;stroke-miterlimit:10;}
	.st12{fill:#D74928;stroke:#BB3B26;stroke-width:2;stroke-miterlimit:10;}
	.st13{fill:#FEE7D8;stroke:#FEE7D8;stroke-miterlimit:10;}
</style>
<path class="st0" d="M1531.2,570.35H53.59c-7.55,0-13.67-6.12-13.67-13.67V22.7c0-7.55,6.12-13.67,13.67-13.67H1531.2
	c7.55,0,13.67,6.12,13.67,13.67v533.98C1544.87,564.23,1538.75,570.35,1531.2,570.35z"/>
<g>
	<path class="st1" d="M349.8,191.47"/>
	<g>
		<path class="st1" d="M349.8,193.97c3.22,0,3.22-5,0-5C346.58,188.97,346.58,193.97,349.8,193.97L349.8,193.97z"/>
	</g>
</g>
<g>
	<path class="st1" d="M412.92,464.15"/>
	<g>
		<path class="st1" d="M412.92,466.65c3.22,0,3.22-5,0-5C409.7,461.65,409.7,466.65,412.92,466.65L412.92,466.65z"/>
	</g>
</g>
<g>
	<path class="st1" d="M450.79,568.32"/>
	<g>
		<path class="st1" d="M450.79,570.82c3.22,0,3.22-5,0-5C447.57,565.82,447.57,570.82,450.79,570.82L450.79,570.82z"/>
	</g>
</g>
<g>
	<path class="st1" d="M457.1,329.35"/>
	<g>
		<path class="st1" d="M457.1,331.85c3.22,0,3.22-5,0-5C453.88,326.85,453.88,331.85,457.1,331.85L457.1,331.85z"/>
	</g>
</g>
<g>
	<path class="st1" d="M482.35,151.64"/>
	<g>
		<path class="st1" d="M482.35,154.14c3.22,0,3.22-5,0-5C479.13,149.14,479.13,154.14,482.35,154.14L482.35,154.14z"/>
	</g>
</g>
<g>
	<path class="st1" d="M384.52,170.03"/>
	<g>
		<path class="st1" d="M384.52,172.53c3.22,0,3.22-5,0-5C381.3,167.53,381.29,172.53,384.52,172.53L384.52,172.53z"/>
	</g>
</g>
<g>
	<path class="st1" d="M433.43,209.86"/>
	<g>
		<path class="st1" d="M433.43,212.36c3.22,0,3.22-5,0-5C430.22,207.36,430.21,212.36,433.43,212.36L433.43,212.36z"/>
	</g>
</g>
<g>
	<path class="st1" d="M518.29,10.71"/>
	<g>
		<path class="st1" d="M518.29,13.21c3.22,0,3.22-5,0-5C515.07,8.21,515.06,13.21,518.29,13.21L518.29,13.21z"/>
	</g>
</g>
<g>
	<path class="st1" d="M389.78,394.2"/>
	<g>
		<path class="st1" d="M389.78,396.7c3.22,0,3.22-5,0-5C386.56,391.7,386.55,396.7,389.78,396.7L389.78,396.7z"/>
	</g>
</g>
<g>
	<path class="st1" d="M533.02,389.6"/>
	<g>
		<path class="st1" d="M533.02,392.1c3.22,0,3.22-5,0-5C529.81,387.1,529.8,392.1,533.02,392.1L533.02,392.1z"/>
	</g>
</g>
<g>
	<path class="st1" d="M465.52,498.37"/>
	<g>
		<path class="st1" d="M465.52,500.87c3.22,0,3.22-5,0-5C462.3,495.87,462.3,500.87,465.52,500.87L465.52,500.87z"/>
	</g>
</g>
<g>
	<path class="st1" d="M517.23,507.56"/>
	<g>
		<path class="st1" d="M517.23,510.06c3.22,0,3.22-5,0-5C514.02,505.06,514.01,510.06,517.23,510.06L517.23,510.06z"/>
	</g>
</g>
<g>
	<path class="st1" d="M484.45,377.35"/>
	<g>
		<path class="st1" d="M484.45,379.85c3.22,0,3.22-5,0-5C481.24,374.85,481.23,379.85,484.45,379.85L484.45,379.85z"/>
	</g>
</g>
<g>
	<path class="st1" d="M509.34,291.56"/>
	<g>
		<path class="st1" d="M509.34,294.06c3.22,0,3.22-5,0-5C506.12,289.06,506.12,294.06,509.34,294.06L509.34,294.06z"/>
	</g>
</g>
<g>
	<path class="st1" d="M495.13,181.26"/>
	<g>
		<path class="st1" d="M495.13,183.76c3.22,0,3.22-5,0-5C491.91,178.76,491.9,183.76,495.13,183.76L495.13,183.76z"/>
	</g>
</g>
<g>
	<path class="st1" d="M397.66,84.75"/>
	<g>
		<path class="st1" d="M397.66,87.25c3.22,0,3.22-5,0-5C394.45,82.25,394.44,87.25,397.66,87.25L397.66,87.25z"/>
	</g>
</g>
<g>
	<path class="st1" d="M437.11,44.92"/>
	<g>
		<path class="st1" d="M437.11,47.42c3.22,0,3.22-5,0-5C433.9,42.42,433.89,47.42,437.11,47.42L437.11,47.42z"/>
	</g>
</g>
<g>
	<path class="st1" d="M522.06,127.18"/>
	<g>
		<path class="st1" d="M522.06,129.68c3.22,0,3.22-5,0-5C518.84,124.68,518.84,129.68,522.06,129.68L522.06,129.68z"/>
	</g>
</g>
<g>
	<path class="st1" d="M492.34,147.56"/>
	<g>
		<path class="st1" d="M492.34,150.06c3.22,0,3.22-5,0-5C489.13,145.06,489.12,150.06,492.34,150.06L492.34,150.06z"/>
	</g>
</g>
<g>
	<path class="st1" d="M375.57,573.43"/>
	<g>
		<path class="st1" d="M375.57,575.93c3.22,0,3.22-5,0-5C372.36,570.93,372.35,575.93,375.57,575.93L375.57,575.93z"/>
	</g>
</g>
<g>
	<path class="st1" d="M823.41,58.95"/>
	<g>
		<path class="st1" d="M823.41,61.45c3.22,0,3.22-5,0-5C820.19,56.45,820.19,61.45,823.41,61.45L823.41,61.45z"/>
	</g>
</g>
<g>
	<path class="st1" d="M937.02,233.59"/>
	<g>
		<path class="st1" d="M937.02,236.09c3.22,0,3.22-5,0-5C933.81,231.09,933.8,236.09,937.02,236.09L937.02,236.09z"/>
	</g>
</g>
<g>
	<path class="st1" d="M845.5,392.91"/>
	<g>
		<path class="st1" d="M845.5,395.41c3.22,0,3.22-5,0-5C842.28,390.41,842.28,395.41,845.5,395.41L845.5,395.41z"/>
	</g>
</g>
<g>
	<path class="st1" d="M757.13,307.12"/>
	<g>
		<path class="st1" d="M757.13,309.62c3.22,0,3.22-5,0-5C753.92,304.62,753.91,309.62,757.13,309.62L757.13,309.62z"/>
	</g>
</g>
<g>
	<path class="st1" d="M731.89,506.27"/>
	<g>
		<path class="st1" d="M731.89,508.77c3.22,0,3.22-5,0-5C728.67,503.77,728.66,508.77,731.89,508.77L731.89,508.77z"/>
	</g>
</g>
<g>
	<path class="st1" d="M570.93,71.21"/>
	<g>
		<path class="st1" d="M570.93,73.71c3.22,0,3.22-5,0-5C567.72,68.71,567.71,73.71,570.93,73.71L570.93,73.71z"/>
	</g>
</g>
<g>
	<path class="st1" d="M236.4,123.3"/>
	<g>
		<path class="st1" d="M236.4,125.8c3.22,0,3.22-5,0-5C233.19,120.8,233.18,125.8,236.4,125.8L236.4,125.8z"/>
	</g>
</g>
<g>
	<path class="st1" d="M653.83,47.05"/>
	<g>
		<path class="st1" d="M653.83,49.55c3.22,0,3.22-5,0-5C650.61,44.55,650.6,49.55,653.83,49.55L653.83,49.55z"/>
	</g>
</g>
<g>
	<path class="st1" d="M90.21,106.54"/>
	<g>
		<path class="st1" d="M90.21,109.04c3.22,0,3.22-5,0-5C87,104.04,86.99,109.04,90.21,109.04L90.21,109.04z"/>
	</g>
</g>
<g>
	<path class="st1" d="M681.39,285.68"/>
	<g>
		<path class="st1" d="M681.39,288.18c3.22,0,3.22-5,0-5C678.17,283.18,678.17,288.18,681.39,288.18L681.39,288.18z"/>
	</g>
</g>
<g>
	<path class="st1" d="M564.62,25.25"/>
	<g>
		<path class="st1" d="M564.62,27.75c3.22,0,3.22-5,0-5C561.4,22.75,561.4,27.75,564.62,27.75L564.62,27.75z"/>
	</g>
</g>
<g>
	<path class="st1" d="M242.71,34.44"/>
	<g>
		<path class="st1" d="M242.71,36.94c3.22,0,3.22-5,0-5C239.5,31.94,239.49,36.94,242.71,36.94L242.71,36.94z"/>
	</g>
</g>
<g>
	<path class="st1" d="M47.05,55.89"/>
	<g>
		<path class="st1" d="M47.05,58.39c3.22,0,3.22-5,0-5C43.83,53.39,43.82,58.39,47.05,58.39L47.05,58.39z"/>
	</g>
</g>
<g>
	<path class="st1" d="M650.42,205.9"/>
	<g>
		<path class="st1" d="M650.42,208.4c3.22,0,3.22-5,0-5C647.21,203.4,647.2,208.4,650.42,208.4L650.42,208.4z"/>
	</g>
</g>
<g>
	<path class="st1" d="M750.82,196.83"/>
	<g>
		<path class="st1" d="M750.82,199.33c3.22,0,3.22-5,0-5C747.6,194.33,747.6,199.33,750.82,199.33L750.82,199.33z"/>
	</g>
</g>
<g>
	<path class="st1" d="M940.18,107.98"/>
	<g>
		<path class="st1" d="M940.18,110.48c3.22,0,3.22-5,0-5C936.96,105.48,936.96,110.48,940.18,110.48L940.18,110.48z"/>
	</g>
</g>
<g>
	<path class="st1" d="M687.7,411.3"/>
	<g>
		<path class="st1" d="M687.7,413.8c3.22,0,3.22-5,0-5C684.49,408.8,684.48,413.8,687.7,413.8L687.7,413.8z"/>
	</g>
</g>
<g>
	<path class="st1" d="M993.57,21.93"/>
	<g>
		<path class="st1" d="M993.57,24.43c3.22,0,3.22-5,0-5C990.35,19.43,990.34,24.43,993.57,24.43L993.57,24.43z"/>
	</g>
</g>
<g>
	<path class="st1" d="M919.94,103.63"/>
	<g>
		<path class="st1" d="M919.94,106.13c3.22,0,3.22-5,0-5C916.72,101.13,916.72,106.13,919.94,106.13L919.94,106.13z"/>
	</g>
</g>
<g>
	<path class="st1" d="M836.87,105.26"/>
	<g>
		<path class="st1" d="M836.87,107.76c3.22,0,3.22-5,0-5C833.65,102.76,833.65,107.76,836.87,107.76L836.87,107.76z"/>
	</g>
</g>
<g>
	<path class="st1" d="M785.54,518.53"/>
	<g>
		<path class="st1" d="M785.54,521.03c3.22,0,3.22-5,0-5C782.32,516.03,782.31,521.03,785.54,521.03L785.54,521.03z"/>
	</g>
</g>
<g>
	<path class="st1" d="M810.78,368.4"/>
	<g>
		<path class="st1" d="M810.78,370.9c3.22,0,3.22-5,0-5C807.57,365.9,807.56,370.9,810.78,370.9L810.78,370.9z"/>
	</g>
</g>
<g>
	<path class="st1" d="M889.68,166.19"/>
	<g>
		<path class="st1" d="M889.68,168.69c3.22,0,3.22-5,0-5C886.47,163.69,886.46,168.69,889.68,168.69L889.68,168.69z"/>
	</g>
</g>
<g>
	<path class="st1" d="M754.82,4.15"/>
	<g>
		<path class="st1" d="M754.82,6.65c3.22,0,3.22-5,0-5C751.6,1.65,751.59,6.65,754.82,6.65L754.82,6.65z"/>
	</g>
</g>
<g>
	<path class="st1" d="M745.1,218.16"/>
	<g>
		<path class="st1" d="M745.1,220.66c3.22,0,3.22-5,0-5C741.88,215.66,741.88,220.66,745.1,220.66L745.1,220.66z"/>
	</g>
</g>
<g>
	<path class="st1" d="M590.46,270.24"/>
	<g>
		<path class="st1" d="M590.46,272.74c3.22,0,3.22-5,0-5C587.24,267.74,587.24,272.74,590.46,272.74L590.46,272.74z"/>
	</g>
</g>
<g>
	<path class="st1" d="M596.77,153.82"/>
	<g>
		<path class="st1" d="M596.77,156.32c3.22,0,3.22-5,0-5C593.56,151.32,593.55,156.32,596.77,156.32L596.77,156.32z"/>
	</g>
</g>
<g>
	<path class="st1" d="M400.51,43.64"/>
	<g>
		<path class="st1" d="M400.51,46.14c3.22,0,3.22-5,0-5C397.29,41.14,397.29,46.14,400.51,46.14L400.51,46.14z"/>
	</g>
</g>
<g>
	<path class="st1" d="M166.97,86.53"/>
	<g>
		<path class="st1" d="M166.97,89.03c3.22,0,3.22-5,0-5C163.75,84.03,163.75,89.03,166.97,89.03L166.97,89.03z"/>
	</g>
</g>
<g>
	<path class="st1" d="M255.34,248.91"/>
	<g>
		<path class="st1" d="M255.34,251.41c3.22,0,3.22-5,0-5C252.12,246.41,252.12,251.41,255.34,251.41L255.34,251.41z"/>
	</g>
</g>
<g>
	<path class="st1" d="M95.47,207.65"/>
	<g>
		<path class="st1" d="M95.47,210.15c3.22,0,3.22-5,0-5C92.26,205.15,92.25,210.15,95.47,210.15L95.47,210.15z"/>
	</g>
</g>
<g>
	<path class="st1" d="M249.03,380.66"/>
	<g>
		<path class="st1" d="M249.03,383.16c3.22,0,3.22-5,0-5C245.81,378.16,245.8,383.16,249.03,383.16L249.03,383.16z"/>
	</g>
</g>
<g>
	<path class="st1" d="M820.25,331.64"/>
	<g>
		<path class="st1" d="M820.25,334.14c3.22,0,3.22-5,0-5C817.04,329.14,817.03,334.14,820.25,334.14L820.25,334.14z"/>
	</g>
</g>
<g>
	<path class="st1" d="M738.2,558.36"/>
	<g>
		<path class="st1" d="M738.2,560.86c3.22,0,3.22-5,0-5C734.98,555.86,734.98,560.86,738.2,560.86L738.2,560.86z"/>
	</g>
</g>
<g>
	<path class="st1" d="M362.64,337.76"/>
	<g>
		<path class="st1" d="M362.64,340.26c3.22,0,3.22-5,0-5C359.42,335.26,359.42,340.26,362.64,340.26L362.64,340.26z"/>
	</g>
</g>
<g>
	<path class="st1" d="M533.06,356.15"/>
	<g>
		<path class="st1" d="M533.06,358.65c3.22,0,3.22-5,0-5C529.84,353.65,529.84,358.65,533.06,358.65L533.06,358.65z"/>
	</g>
</g>
<g>
	<path class="st1" d="M359.48,261.17"/>
	<g>
		<path class="st1" d="M359.48,263.67c3.22,0,3.22-5,0-5C356.27,258.67,356.26,263.67,359.48,263.67L359.48,263.67z"/>
	</g>
</g>
<g>
	<path class="st1" d="M211.15,310.19"/>
	<g>
		<path class="st1" d="M211.15,312.69c3.22,0,3.22-5,0-5C207.94,307.69,207.93,312.69,211.15,312.69L211.15,312.69z"/>
	</g>
</g>
<g>
	<path class="st1" d="M135.41,239.72"/>
	<g>
		<path class="st1" d="M135.41,242.22c3.22,0,3.22-5,0-5C132.19,237.22,132.19,242.22,135.41,242.22L135.41,242.22z"/>
	</g>
</g>
<g>
	<path class="st1" d="M201.69,236.66"/>
	<g>
		<path class="st1" d="M201.69,239.16c3.22,0,3.22-5,0-5C198.47,234.16,198.46,239.16,201.69,239.16L201.69,239.16z"/>
	</g>
</g>
<g>
	<path class="st1" d="M308.99,132.49"/>
	<g>
		<path class="st1" d="M308.99,134.99c3.22,0,3.22-5,0-5C305.77,129.99,305.77,134.99,308.99,134.99L308.99,134.99z"/>
	</g>
</g>
<g>
	<path class="st1" d="M697.17,187.64"/>
	<g>
		<path class="st1" d="M697.17,190.14c3.22,0,3.22-5,0-5C693.95,185.14,693.95,190.14,697.17,190.14L697.17,190.14z"/>
	</g>
</g>
<g>
	<path class="st1" d="M485.72,74.27"/>
	<g>
		<path class="st1" d="M485.72,76.77c3.22,0,3.22-5,0-5C482.51,71.77,482.5,76.77,485.72,76.77L485.72,76.77z"/>
	</g>
</g>
<g>
	<path class="st1" d="M892.84,52.83"/>
	<g>
		<path class="st1" d="M892.84,55.33c3.22,0,3.22-5,0-5C889.62,50.33,889.62,55.33,892.84,55.33L892.84,55.33z"/>
	</g>
</g>
<g>
	<path class="st1" d="M662.46,123.3"/>
	<g>
		<path class="st1" d="M662.46,125.8c3.22,0,3.22-5,0-5C659.24,120.8,659.23,125.8,662.46,125.8L662.46,125.8z"/>
	</g>
</g>
<g>
	<path class="st1" d="M750.82,8.49"/>
	<g>
		<path class="st1" d="M750.82,10.99c3.22,0,3.22-5,0-5C747.6,5.99,747.6,10.99,750.82,10.99L750.82,10.99z"/>
	</g>
</g>
<g>
	<path class="st1" d="M933.87,313.25"/>
	<g>
		<path class="st1" d="M933.87,315.75c3.22,0,3.22-5,0-5C930.65,310.75,930.64,315.75,933.87,315.75L933.87,315.75z"/>
	</g>
</g>
<g>
	<path class="st1" d="M817.1,264.23"/>
	<g>
		<path class="st1" d="M817.1,266.73c3.22,0,3.22-5,0-5C813.88,261.73,813.87,266.73,817.1,266.73L817.1,266.73z"/>
	</g>
</g>
<g>
	<path class="st1" d="M873.9,359.21"/>
	<g>
		<path class="st1" d="M873.9,361.71c3.22,0,3.22-5,0-5C870.69,356.71,870.68,361.71,873.9,361.71L873.9,361.71z"/>
	</g>
</g>
<g>
	<path class="st1" d="M924.4,423.55"/>
	<g>
		<path class="st1" d="M924.4,426.05c3.22,0,3.22-5,0-5C921.18,421.05,921.18,426.05,924.4,426.05L924.4,426.05z"/>
	</g>
</g>
<g>
	<path class="st1" d="M738.2,408.23"/>
	<g>
		<path class="st1" d="M738.2,410.73c3.22,0,3.22-5,0-5C734.98,405.73,734.98,410.73,738.2,410.73L738.2,410.73z"/>
	</g>
</g>
<g>
	<path class="st1" d="M813.94,451.12"/>
	<g>
		<path class="st1" d="M813.94,453.62c3.22,0,3.22-5,0-5C810.72,448.62,810.72,453.62,813.94,453.62L813.94,453.62z"/>
	</g>
</g>
<g>
	<path class="st1" d="M750.36,258.5"/>
	<g>
		<path class="st1" d="M750.36,261c3.22,0,3.22-5,0-5C747.14,256,747.14,261,750.36,261L750.36,261z"/>
	</g>
</g>
<g>
	<path class="st1" d="M243.8,61.1"/>
	<g>
		<path class="st1" d="M243.8,63.6c3.22,0,3.22-5,0-5C240.59,58.6,240.58,63.6,243.8,63.6L243.8,63.6z"/>
	</g>
</g>
<g>
	<path class="st1" d="M181.7,457.76"/>
	<g>
		<path class="st1" d="M181.7,460.26c3.22,0,3.22-5,0-5C178.48,455.26,178.48,460.26,181.7,460.26L181.7,460.26z"/>
	</g>
</g>
<g>
	<path class="st1" d="M146.98,356.66"/>
	<g>
		<path class="st1" d="M146.98,359.16c3.22,0,3.22-5,0-5C143.77,354.16,143.76,359.16,146.98,359.16L146.98,359.16z"/>
	</g>
</g>
<g>
	<path class="st1" d="M45.99,76.32"/>
	<g>
		<path class="st1" d="M45.99,78.82c3.22,0,3.22-5,0-5C42.78,73.82,42.77,78.82,45.99,78.82L45.99,78.82z"/>
	</g>
</g>
<g>
	<path class="st1" d="M558.84,175.89"/>
	<g>
		<path class="st1" d="M558.84,178.39c3.22,0,3.22-5,0-5C555.62,173.39,555.61,178.39,558.84,178.39L558.84,178.39z"/>
	</g>
</g>
<g>
	<path class="st1" d="M557.26,261.68"/>
	<g>
		<path class="st1" d="M557.26,264.18c3.22,0,3.22-5,0-5C554.04,259.18,554.03,264.18,557.26,264.18L557.26,264.18z"/>
	</g>
</g>
<g>
	<path class="st1" d="M495.72,243.3"/>
	<g>
		<path class="st1" d="M495.72,245.8c3.22,0,3.22-5,0-5C492.5,240.8,492.49,245.8,495.72,245.8L495.72,245.8z"/>
	</g>
</g>
<g>
	<path class="st1" d="M415.24,453.17"/>
	<g>
		<path class="st1" d="M415.24,455.67c3.22,0,3.22-5,0-5C412.02,450.67,412.02,455.67,415.24,455.67L415.24,455.67z"/>
	</g>
</g>
<g>
	<path class="st1" d="M587.24,359.72"/>
	<g>
		<path class="st1" d="M587.24,362.22c3.22,0,3.22-5,0-5C584.02,357.22,584.02,362.22,587.24,362.22L587.24,362.22z"/>
	</g>
</g>
<g>
	<path class="st1" d="M539.9,417.93"/>
	<g>
		<path class="st1" d="M539.9,420.43c3.22,0,3.22-5,0-5C536.68,415.43,536.68,420.43,539.9,420.43L539.9,420.43z"/>
	</g>
</g>
<g>
	<path class="st1" d="M122.3,145.35"/>
	<g>
		<path class="st1" d="M122.3,147.85c3.22,0,3.22-5,0-5C119.08,142.85,119.08,147.85,122.3,147.85L122.3,147.85z"/>
	</g>
</g>
<g>
	<path class="st1" d="M747.45,136.41"/>
	<g>
		<path class="st1" d="M747.45,138.91c3.22,0,3.22-5,0-5C744.24,133.91,744.23,138.91,747.45,138.91L747.45,138.91z"/>
	</g>
</g>
<g>
	<path class="st1" d="M747.45,70.53"/>
	<g>
		<path class="st1" d="M747.45,73.03c3.22,0,3.22-5,0-5C744.24,68.03,744.23,73.03,747.45,73.03L747.45,73.03z"/>
	</g>
</g>
<g>
	<path class="st1" d="M850.76,479.21"/>
	<g>
		<path class="st1" d="M850.76,481.71c3.22,0,3.22-5,0-5C847.54,476.71,847.54,481.71,850.76,481.71L850.76,481.71z"/>
	</g>
</g>
<g>
	<path class="st1" d="M961.22,517.51"/>
	<g>
		<path class="st1" d="M961.22,520.01c3.22,0,3.22-5,0-5C958,515.01,958,520.01,961.22,520.01L961.22,520.01z"/>
	</g>
</g>
<g>
	<path class="st1" d="M962.8,561.93"/>
	<g>
		<path class="st1" d="M962.8,564.43c3.22,0,3.22-5,0-5C959.58,559.43,959.57,564.43,962.8,564.43L962.8,564.43z"/>
	</g>
</g>
<g>
	<path class="st1" d="M836.83,131.71"/>
	<g>
		<path class="st1" d="M836.83,134.21c3.22,0,3.22-5,0-5C833.62,129.21,833.61,134.21,836.83,134.21L836.83,134.21z"/>
	</g>
</g>
<g>
	<path class="st1" d="M718.67,490.95"/>
	<g>
		<path class="st1" d="M718.67,493.45c3.22,0,3.22-5,0-5C715.45,488.45,715.45,493.45,718.67,493.45L718.67,493.45z"/>
	</g>
</g>
<g>
	<path class="st1" d="M469.35,527.72"/>
	<g>
		<path class="st1" d="M469.35,530.22c3.22,0,3.22-5,0-5C466.13,525.22,466.13,530.22,469.35,530.22L469.35,530.22z"/>
	</g>
</g>
<g>
	<path class="st1" d="M734.45,549.17"/>
	<g>
		<path class="st1" d="M734.45,551.67c3.22,0,3.22-5,0-5C731.23,546.67,731.23,551.67,734.45,551.67L734.45,551.67z"/>
	</g>
</g>
<g>
	<path class="st1" d="M251.59,533.85"/>
	<g>
		<path class="st1" d="M251.59,536.35c3.22,0,3.22-5,0-5C248.37,531.35,248.37,536.35,251.59,536.35L251.59,536.35z"/>
	</g>
</g>
<g>
	<path class="st1" d="M446.21,509.85"/>
	<g>
		<path class="st1" d="M446.21,512.35c3.22,0,3.22-5,0-5C442.99,507.35,442.98,512.35,446.21,512.35L446.21,512.35z"/>
	</g>
</g>
<g>
	<path class="st1" d="M432.01,479.21"/>
	<g>
		<path class="st1" d="M432.01,481.71c3.22,0,3.22-5,0-5C428.79,476.71,428.78,481.71,432.01,481.71L432.01,481.71z"/>
	</g>
</g>
<g>
	<path class="st1" d="M323.13,489.93"/>
	<g>
		<path class="st1" d="M323.13,492.43c3.22,0,3.22-5,0-5C319.91,487.43,319.9,492.43,323.13,492.43L323.13,492.43z"/>
	</g>
</g>
<g>
	<path class="st1" d="M514.06,537.42"/>
	<g>
		<path class="st1" d="M514.06,539.92c3.22,0,3.22-5,0-5C510.84,534.92,510.84,539.92,514.06,539.92L514.06,539.92z"/>
	</g>
</g>
<g>
	<path class="st1" d="M537.73,488.4"/>
	<g>
		<path class="st1" d="M537.73,490.9c3.22,0,3.22-5,0-5C534.51,485.9,534.51,490.9,537.73,490.9L537.73,490.9z"/>
	</g>
</g>
<g>
	<path class="st1" d="M643.45,496.06"/>
	<g>
		<path class="st1" d="M643.45,498.56c3.22,0,3.22-5,0-5C640.24,493.56,640.23,498.56,643.45,498.56L643.45,498.56z"/>
	</g>
</g>
<g>
	<path class="st1" d="M444.63,575.72"/>
	<g>
		<path class="st1" d="M444.63,578.22c3.22,0,3.22-5,0-5C441.41,573.22,441.41,578.22,444.63,578.22L444.63,578.22z"/>
	</g>
</g>
<g>
	<path class="st1" d="M381.51,529.76"/>
	<g>
		<path class="st1" d="M381.51,532.26c3.22,0,3.22-5,0-5C378.29,527.26,378.29,532.26,381.51,532.26L381.51,532.26z"/>
	</g>
</g>
<g>
	<path class="st1" d="M119.11,479.98"/>
	<g>
		<path class="st1" d="M119.11,482.48c3.22,0,3.22-5,0-5C115.89,477.48,115.88,482.48,119.11,482.48L119.11,482.48z"/>
	</g>
</g>
<g>
	<path class="st1" d="M228.55,175.22"/>
	<g>
		<path class="st1" d="M228.55,177.72c3.22,0,3.22-5,0-5C225.33,172.72,225.33,177.72,228.55,177.72L228.55,177.72z"/>
	</g>
</g>
<g>
	<path class="st1" d="M303.73,378.87"/>
	<g>
		<path class="st1" d="M303.73,381.37c3.22,0,3.22-5,0-5C300.51,376.37,300.51,381.37,303.73,381.37L303.73,381.37z"/>
	</g>
</g>
<g>
	<path class="st1" d="M281.94,89.18"/>
	<g>
		<path class="st1" d="M281.94,91.68c3.22,0,3.22-5,0-5C278.72,86.68,278.71,91.68,281.94,91.68L281.94,91.68z"/>
	</g>
</g>
<g>
	<path class="st1" d="M63.61,373.25"/>
	<g>
		<path class="st1" d="M63.61,375.75c3.22,0,3.22-5,0-5C60.4,370.75,60.39,375.75,63.61,375.75L63.61,375.75z"/>
	</g>
</g>
<g>
	<path class="st1" d="M185.38,559.64"/>
	<g>
		<path class="st1" d="M185.38,562.14c3.22,0,3.22-5,0-5C182.16,557.14,182.16,562.14,185.38,562.14L185.38,562.14z"/>
	</g>
</g>
<g>
	<path class="st1" d="M242.71,475.89"/>
	<g>
		<path class="st1" d="M242.71,478.39c3.22,0,3.22-5,0-5C239.5,473.39,239.49,478.39,242.71,478.39L242.71,478.39z"/>
	</g>
</g>
<g>
	<path class="st1" d="M170.13,538.7"/>
	<g>
		<path class="st1" d="M170.13,541.2c3.22,0,3.22-5,0-5C166.91,536.2,166.9,541.2,170.13,541.2L170.13,541.2z"/>
	</g>
</g>
<g>
	<path class="st1" d="M111.74,535.64"/>
	<g>
		<path class="st1" d="M111.74,538.14c3.22,0,3.22-5,0-5C108.53,533.14,108.52,538.14,111.74,538.14L111.74,538.14z"/>
	</g>
</g>
<g>
	<path class="st1" d="M48.62,512.66"/>
	<g>
		<path class="st1" d="M48.62,515.16c3.22,0,3.22-5,0-5C45.41,510.16,45.4,515.16,48.62,515.16L48.62,515.16z"/>
	</g>
</g>
<g>
	<path class="st1" d="M209.58,397.76"/>
	<g>
		<path class="st1" d="M209.58,400.26c3.22,0,3.22-5,0-5C206.36,395.26,206.35,400.26,209.58,400.26L209.58,400.26z"/>
	</g>
</g>
<g>
	<g>
		<path class="st2" d="M195.71,325.82c3.22,0,3.22-5,0-5C192.49,320.82,192.48,325.82,195.71,325.82L195.71,325.82z"/>
	</g>
</g>
<g>
	<g>
		<path class="st2" d="M362.97,325.82c3.22,0,3.22-5,0-5C359.75,320.82,359.75,325.82,362.97,325.82L362.97,325.82z"/>
	</g>
</g>
<path class="st3" d="M184.9,370.67c0.72,0.49-89.29-41.89-136.96,22.98c-0.79,1.08-2.74,0.33-2.38-0.89
	C51.69,371.62,90.37,306.84,184.9,370.67z"/>
<path class="st4" d="M913.53,571.19c16.48-2.02,33.06,0.36,49.62-0.8c5.14-0.36,11.3-0.99,17.34-0.89
	C936.77,505.2,875.99,447.18,799,400.3C568.61,259.98,262.96,261.76,40.82,387.25c0.32,0.74,0.54,1.52,0.65,2.33
	c0.91,6.91,0,13.78-0.76,20.67c-0.77,6.97-0.68,13.9-0.92,20.89c-0.23,6.65-1.38,13.32-2.11,19.96c1.15,1.18,1.85,2.74,1.77,4.71
	c-0.16,3.86,1.34,7.64,1.68,11.49c0.31,3.5-0.44,6.55-2.18,9.41c1.82,1.23,3.04,3.09,3.04,5.6c0,6.8-0.18,13.68-2.31,20.29
	c3.11,3.28,2.56,8.73-1.65,11.24c0.39,7.98,0.63,15.96,0.66,23.95c0.03,7.29-0.18,14.57-0.42,21.85c0.33,0.36,0.64,0.76,0.92,1.2
	c1.85,2.96,3.59,5.99,5.42,8.96c0.51,0.12,1.39,0.35,1.48,0.35c1.34,0.13,5.4,0.16,7.65,0.16c16.24,0,32.48-0.09,48.72,0.16
	c32.76,0.5,65.48,0.68,98.25,0.54c59.1-0.25,118.21-0.72,177.31-0.83c29.51-0.05,58.98,0.8,88.48,1.01c29.35,0.21,58.7,0,88.05-0.2
	c118.17-0.8,236.37-0.68,354.55-0.68C910.82,570.33,912.3,570.65,913.53,571.19z"/>
<path class="st3" d="M675.9,417.63c0,0-29.83-12.19-10.46-25.57C665.44,392.06,624.26,397.58,675.9,417.63z"/>
<path class="st3" d="M722.19,416.13c0,0,22.77-9.49-23.71-25.9c-0.66-0.23-0.31-0.61,0.44-0.47
	C712.83,392.27,759.8,403.38,722.19,416.13z"/>
<path class="st3" d="M333.92,433.93c18.58-4.97,68.65-12.36,110.63,35.7c0.45,0.51,1.43,0.09,1.13-0.49
	c-8.7-17.16-46.01-79.25-112.91-37.04C331.64,432.82,332.55,434.29,333.92,433.93z"/>
<path class="st3" d="M311.57,512.52c-0.73-0.65-2,0.06-1.5,0.84c10.82,17.2,53.54,71.86,126.87,6.02
	C436.94,519.39,377.52,570.81,311.57,512.52z"/>
<path class="st3" d="M170.67,402.47c-14.33,18.3-53.27,52.77-121.29,7.32c-0.9-0.6-0.07-1.79,1-1.43
	c18.18,6.07,71.1,19.68,116.8-8.54C169.32,398.51,172.12,400.63,170.67,402.47z"/>
<path class="st5" d="M1531.2,570.35H53.59c-7.55,0-13.67-6.12-13.67-13.67V22.7c0-7.55,6.12-13.67,13.67-13.67H1531.2
	c7.55,0,13.67,6.12,13.67,13.67v533.98C1544.87,564.23,1538.75,570.35,1531.2,570.35z"/>
<path class="st6" d="M780.6,178.53c0,0,0.83,0.06,2.32,0.2c10.82,1.03,56.69,6.35,78.87,24.15c2.27,1.82,1.56,5.44-1.24,6.25h0
	c-3.3,0.95-3.51,5.54-0.31,6.78c17.19,6.66,50.93,22.52,65.62,48.81c1.09,1.94,0.18,4.4-1.92,5.14l-4.68,1.67
	c-2.37,0.84-3.15,3.79-1.52,5.7c8.67,10.16,30.63,37.47,28.88,51.68c-2.2,17.92-59.3-2.74-74.2-10.71
	c-1.95-1.04-4.37-0.07-5.08,2.03l-1.77,5.27c-0.64,1.92-2.75,2.93-4.65,2.22c-8.36-3.12-30.28-11.73-49.45-22.81
	c-2.65-1.53-5.86,0.76-5.31,3.76l0.11,0.57c0.59,3.15-2.95,5.44-5.58,3.59c-11.91-8.37-36.7-29.48-57.54-71.35L780.6,178.53z"/>
<path class="st7" d="M753.39,225.29c8.25,23.18,39.26,50.77,51.34,60.88c1.57,1.31,3.9-0.13,3.44-2.12h0
	c-0.43-1.84,1.57-3.28,3.19-2.3c18.67,11.42,28.12,13.98,31.78,14.54c1.05,0.16,2.05-0.49,2.35-1.51l0.62-2.13
	c0.35-1.2,1.66-1.84,2.83-1.38c26.93,10.65,35.71,12.2,42.75,7.72c5.87-3.74-9.74-24.86-15.8-32.65c-1-1.29-0.24-3.18,1.38-3.41
	l2.91-0.42c1.42-0.2,2.25-1.74,1.62-3.03c-8.68-17.81-29.85-27.04-41.19-30.84c-2.02-0.68-1.91-3.56,0.16-4.08l2.15-0.54
	c1.78-0.45,2.2-2.81,0.67-3.83c-25.96-17.24-74.38-21.98-74.38-21.98L753.39,225.29z"/>
<path class="st8" d="M757.38,218.61c2.43,7.72,19.59,22.67,25.6,27.74c0.65,0.55,1.63-0.06,1.42-0.89l0-0.01
	c-0.2-0.8,0.7-1.41,1.37-0.92c6.46,4.64,11.88,6.86,14.07,7.65c0.53,0.19,1.1-0.16,1.17-0.72l0.15-1.22
	c0.08-0.6,0.72-0.95,1.26-0.68c12.44,6.19,18.21,6.85,21.23,5.43c2.6-1.22-5.34-11.75-8.03-15.2c-0.4-0.51-0.13-1.26,0.5-1.4
	l1.55-0.35c0.5-0.11,0.79-0.62,0.65-1.11c-1.63-5.71-14.01-12.5-19.19-15.13c-0.74-0.38-0.6-1.47,0.22-1.64l0.04-0.01
	c0.76-0.16,0.95-1.15,0.31-1.59c-11.04-7.69-30.74-11.35-34.34-11.97c-0.35-0.06-0.7,0.1-0.89,0.39l-6.98,10.93
	C757.34,218.1,757.3,218.36,757.38,218.61z"/>
<path class="st9" d="M530.38,74.04c178.5-45.47,224.22,95.01,224.22,95.01l-31.4,53.77c0,0-144.81,29.21-192.93-148.59"/>
<circle class="st10" cx="633.63" cy="134.63" r="35.07"/>
<circle class="st11" cx="633.21" cy="134.38" r="26.83"/>
<polyline class="st11" points="754.39,169.41 783.84,172.59 740.28,247.17 723.05,223.09 "/>
<path class="st12" d="M650.09,71.96c0,0,74.1-18.77,125.78,51.87L734,131.44c-18.74-28.7-47.23-48.52-83.24-59.48"/>
<path class="st12" d="M587.69,178.81c0,0,20.07,73.75,106.98,84.06l-13.95-40.21c-34.2-2.22-65.47-17.28-92.71-43.26"/>
<g>
	<path class="st13" d="M1175.89,50.83h-8v45.04h-5.44V50.83h-8v-4.72h21.44V50.83z"/>
	<path class="st13" d="M1193.01,57.07c4.24,0,6.32,2.08,6.32,6.32v32.48h-5.52v-31.6c0-2.08-0.4-2.48-2.48-2.48h-3.2
		c-1.92,0-2.72,0.72-2.72,2.88v31.2h-5.52V42.35h5.52v17.36c0.64-1.92,2.24-2.64,4.4-2.64H1193.01z"/>
	<path class="st13" d="M1220.21,57.07c4.24,0,6.32,2.08,6.32,6.32v14.96h-14.48v10.32c0,2.08,0.4,2.48,2.48,2.48h3.76
		c2.08,0,2.48-0.4,2.48-2.48v-3.52h5.52v4.4c0,4.24-2.08,6.32-6.32,6.32h-7.12c-4.24,0-6.32-2.08-6.32-6.32V63.39
		c0-4.24,2.08-6.32,6.32-6.32H1220.21z M1221.01,73.63v-9.36c0-2.08-0.4-2.48-2.48-2.48h-4c-2.08,0-2.48,0.4-2.48,2.48v9.36H1221.01
		z"/>
	<path class="st13" d="M1258.37,83.23h-10.08l-1.84,12.64h-5.52l7.76-49.76h8.72l8.56,49.76h-5.52L1258.37,83.23z M1257.65,78.51
		l-4.64-28.56l-4.08,28.56H1257.65z"/>
	<path class="st13" d="M1283.89,57.07c4.24,0,6.32,2.08,6.32,6.32v26.16c0,4.24-2.08,6.32-6.32,6.32h-3.2
		c-2.16,0-3.76-0.72-4.4-2.64v13.92h-5.52V57.07h5.52v2.64c0.64-1.92,2.24-2.64,4.4-2.64H1283.89z M1284.69,64.27
		c0-2.08-0.4-2.48-2.48-2.48h-3.2c-1.92,0-2.72,0.72-2.72,2.88v23.6c0,2.16,0.8,2.88,2.72,2.88h3.2c2.08,0,2.48-0.4,2.48-2.48V64.27
		z"/>
	<path class="st13" d="M1311.09,57.07c4.24,0,6.32,2.08,6.32,6.32v26.16c0,4.24-2.08,6.32-6.32,6.32h-8.16
		c-4.24,0-6.32-2.08-6.32-6.32V63.39c0-4.24,2.08-6.32,6.32-6.32H1311.09z M1311.97,64.27c0-2.08-0.4-2.48-2.48-2.48h-4.96
		c-2.08,0-2.48,0.4-2.48,2.48v24.4c0,2.08,0.4,2.48,2.48,2.48h4.96c2.08,0,2.48-0.4,2.48-2.48V64.27z"/>
	<path class="st13" d="M1324.21,95.87V42.35h5.52v53.52H1324.21z"/>
	<path class="st13" d="M1336.92,95.87V42.35h5.52v53.52H1336.92z"/>
	<path class="st13" d="M1363.73,57.07c4.24,0,6.32,2.08,6.32,6.32v26.16c0,4.24-2.08,6.32-6.32,6.32h-8.16
		c-4.24,0-6.32-2.08-6.32-6.32V63.39c0-4.24,2.08-6.32,6.32-6.32H1363.73z M1364.61,64.27c0-2.08-0.4-2.48-2.48-2.48h-4.96
		c-2.08,0-2.48,0.4-2.48,2.48v24.4c0,2.08,0.4,2.48,2.48,2.48h4.96c2.08,0,2.48-0.4,2.48-2.48V64.27z"/>
	<path class="st13" d="M1018.15,164.56h-4v22.52h-2.72v-22.52h-4v-2.36h10.72V164.56z"/>
	<path class="st13" d="M1026.71,167.68c2.12,0,3.16,1.04,3.16,3.16v16.24h-2.76v-15.8c0-1.04-0.2-1.24-1.24-1.24h-1.6
		c-0.96,0-1.36,0.36-1.36,1.44v15.6h-2.76v-26.76h2.76V169c0.32-0.96,1.12-1.32,2.2-1.32H1026.71z"/>
	<path class="st13" d="M1033.39,160.28h2.92v3.24h-2.92V160.28z M1033.47,187.07v-19.4h2.76v19.4H1033.47z"/>
	<path class="st13" d="M1045.79,179.84c0-1.04-0.2-1.24-1.24-1.24h-1.96c-2.12,0-3.16-1.04-3.16-3.16v-4.6
		c0-2.12,1.04-3.16,3.16-3.16h2.72c2.12,0,3.16,1.04,3.16,3.16v1.96h-2.72v-1.56c0-1.04-0.2-1.24-1.24-1.24h-1.12
		c-1.04,0-1.24,0.2-1.24,1.24v3.8c0,1.04,0.2,1.24,1.24,1.24h1.96c2.12,0,3.16,1.04,3.16,3.16v4.48c0,2.12-1.04,3.16-3.16,3.16
		h-2.68c-2.12,0-3.16-1.04-3.16-3.16v-1.96h2.72v1.56c0,1.04,0.2,1.24,1.24,1.24h1.08c1.04,0,1.24-0.2,1.24-1.24V179.84z"/>
	<path class="st13" d="M1059.83,170.04v13.24c0,1.04,0.2,1.24,1.24,1.24h1.52v2.56h-2.36c-2.12,0-3.16-1.04-3.16-3.16v-13.88h-1.76
		v-2.36h1.76v-3.16h2.76v3.16h2.76v2.36H1059.83z"/>
	<path class="st13" d="M1071.27,167.68v2.4h-1.2c-1.76,0-2.52,0.96-2.52,3v14h-2.76v-19.4h2.76v2.24c0.36-1.12,1.32-2.24,2.88-2.24
		H1071.27z"/>
	<path class="st13" d="M1073.19,160.28h2.92v3.24h-2.92V160.28z M1073.27,187.07v-19.4h2.76v19.4H1073.27z"/>
	<path class="st13" d="M1086.19,167.68c2.12,0,3.16,1.04,3.16,3.16v13.08c0,2.12-1.04,3.16-3.16,3.16h-1.6
		c-1.08,0-1.88-0.36-2.2-1.32v6.96h-2.76v-25.04h2.76V169c0.32-0.96,1.12-1.32,2.2-1.32H1086.19z M1086.59,171.28
		c0-1.04-0.2-1.24-1.24-1.24h-1.6c-0.96,0-1.36,0.36-1.36,1.44v11.8c0,1.08,0.4,1.44,1.36,1.44h1.6c1.04,0,1.24-0.2,1.24-1.24
		V171.28z"/>
	<path class="st13" d="M1095.43,182.59v2.32l-2.2,7.64h-1.08v-9.96H1095.43z"/>
	<path class="st13" d="M1110.19,167.68c2.12,0,3.16,1.04,3.16,3.16v16.24h-2.76v-15.8c0-1.04-0.2-1.24-1.24-1.24h-1.6
		c-0.96,0-1.36,0.36-1.36,1.44v15.6h-2.76v-19.4h2.76V169c0.32-0.96,1.12-1.32,2.2-1.32H1110.19z"/>
	<path class="st13" d="M1126.47,167.68v19.4h-2.76v-1.32c-0.32,0.96-1.12,1.32-2.2,1.32h-1.6c-2.12,0-3.16-1.04-3.16-3.16v-13.08
		c0-2.12,1.04-3.16,3.16-3.16h1.6c1.08,0,1.88,0.36,2.2,1.32v-1.32H1126.47z M1122.35,184.71c0.96,0,1.36-0.36,1.36-1.44v-11.8
		c0-1.08-0.4-1.44-1.36-1.44h-1.6c-1.04,0-1.24,0.2-1.24,1.24v12.2c0,1.04,0.2,1.24,1.24,1.24H1122.35z"/>
	<path class="st13" d="M1143.58,167.68c2.12,0,3.16,1.04,3.16,3.16v16.24h-2.76v-15.8c0-1.04-0.2-1.24-1.24-1.24h-1.6
		c-0.96,0-1.36,0.36-1.36,1.44v15.6h-2.76v-15.8c0-1.04-0.2-1.24-1.24-1.24h-1.6c-0.96,0-1.36,0.36-1.36,1.44v15.6h-2.76v-19.4h2.76
		V169c0.32-0.96,1.12-1.32,2.2-1.32h1.6c1.52,0,2.48,0.52,2.92,1.6c0.28-1.16,1.2-1.6,2.44-1.6H1143.58z"/>
	<path class="st13" d="M1156.99,167.68c2.12,0,3.16,1.04,3.16,3.16v7.48h-7.24v5.16c0,1.04,0.2,1.24,1.24,1.24h1.88
		c1.04,0,1.24-0.2,1.24-1.24v-1.76h2.76v2.2c0,2.12-1.04,3.16-3.16,3.16h-3.56c-2.12,0-3.16-1.04-3.16-3.16v-13.08
		c0-2.12,1.04-3.16,3.16-3.16H1156.99z M1157.38,175.96v-4.68c0-1.04-0.2-1.24-1.24-1.24h-2c-1.04,0-1.24,0.2-1.24,1.24v4.68
		H1157.38z"/>
	<path class="st13" d="M1172.86,160.32v26.76h-2.76v-1.32c-0.32,0.96-1.12,1.32-2.2,1.32h-1.6c-2.12,0-3.16-1.04-3.16-3.16V170.8
		c0-2.12,1.04-3.16,3.16-3.16h1.6c1.08,0,1.88,0.36,2.2,1.32v-8.64H1172.86z M1168.75,184.71c0.96,0,1.36-0.36,1.36-1.44v-11.84
		c0-1.08-0.4-1.44-1.36-1.44h-1.6c-1.04,0-1.24,0.2-1.24,1.24v12.24c0,1.04,0.2,1.24,1.24,1.24H1168.75z"/>
	<path class="st13" d="M1185.98,162.88c-1.04,0-1.24,0.2-1.24,1.24v3.56h2.8v2.36h-2.8v17.04h-2.76v-17.04h-1.92v-2.36h1.92v-4.2
		c0-2.12,1.04-3.16,3.16-3.16h2.4v2.56H1185.98z"/>
	<path class="st13" d="M1196.58,167.68c2.12,0,3.16,1.04,3.16,3.16v13.08c0,2.12-1.04,3.16-3.16,3.16h-4.08
		c-2.12,0-3.16-1.04-3.16-3.16v-13.08c0-2.12,1.04-3.16,3.16-3.16H1196.58z M1197.02,171.28c0-1.04-0.2-1.24-1.24-1.24h-2.48
		c-1.04,0-1.24,0.2-1.24,1.24v12.2c0,1.04,0.2,1.24,1.24,1.24h2.48c1.04,0,1.24-0.2,1.24-1.24V171.28z"/>
	<path class="st13" d="M1209.62,167.68v2.4h-1.2c-1.76,0-2.52,0.96-2.52,3v14h-2.76v-19.4h2.76v2.24c0.36-1.12,1.32-2.24,2.88-2.24
		H1209.62z"/>
	<path class="st13" d="M1219.74,170.04v13.24c0,1.04,0.2,1.24,1.24,1.24h1.52v2.56h-2.36c-2.12,0-3.16-1.04-3.16-3.16v-13.88h-1.76
		v-2.36h1.76v-3.16h2.76v3.16h2.76v2.36H1219.74z"/>
	<path class="st13" d="M1231.26,167.68c2.12,0,3.16,1.04,3.16,3.16v16.24h-2.76v-15.8c0-1.04-0.2-1.24-1.24-1.24h-1.6
		c-0.96,0-1.36,0.36-1.36,1.44v15.6h-2.76v-26.76h2.76V169c0.32-0.96,1.12-1.32,2.2-1.32H1231.26z"/>
	<path class="st13" d="M1244.86,167.68c2.12,0,3.16,1.04,3.16,3.16v7.48h-7.24v5.16c0,1.04,0.2,1.24,1.24,1.24h1.88
		c1.04,0,1.24-0.2,1.24-1.24v-1.76h2.76v2.2c0,2.12-1.04,3.16-3.16,3.16h-3.56c-2.12,0-3.16-1.04-3.16-3.16v-13.08
		c0-2.12,1.04-3.16,3.16-3.16H1244.86z M1245.26,175.96v-4.68c0-1.04-0.2-1.24-1.24-1.24h-2c-1.04,0-1.24,0.2-1.24,1.24v4.68
		H1245.26z"/>
	<path class="st13" d="M1262.38,179.84c0-1.04-0.2-1.24-1.24-1.24h-1.96c-2.12,0-3.16-1.04-3.16-3.16v-4.6
		c0-2.12,1.04-3.16,3.16-3.16h2.72c2.12,0,3.16,1.04,3.16,3.16v1.96h-2.72v-1.56c0-1.04-0.2-1.24-1.24-1.24h-1.12
		c-1.04,0-1.24,0.2-1.24,1.24v3.8c0,1.04,0.2,1.24,1.24,1.24h1.96c2.12,0,3.16,1.04,3.16,3.16v4.48c0,2.12-1.04,3.16-3.16,3.16
		h-2.68c-2.12,0-3.16-1.04-3.16-3.16v-1.96h2.72v1.56c0,1.04,0.2,1.24,1.24,1.24h1.08c1.04,0,1.24-0.2,1.24-1.24V179.84z"/>
	<path class="st13" d="M1278.02,167.68v19.4h-2.76v-1.32c-0.32,0.96-1.12,1.32-2.2,1.32h-1.6c-2.12,0-3.16-1.04-3.16-3.16v-16.24
		h2.76v15.8c0,1.04,0.2,1.24,1.24,1.24h1.6c0.96,0,1.36-0.36,1.36-1.44v-15.6H1278.02z"/>
	<path class="st13" d="M1288.66,173.44v-2.16c0-1.04-0.2-1.24-1.24-1.24h-2c-1.04,0-1.24,0.2-1.24,1.24v12.2
		c0,1.04,0.2,1.24,1.24,1.24h2c1.04,0,1.24-0.2,1.24-1.24v-2.16h2.76v2.6c0,2.12-1.04,3.16-3.16,3.16h-3.68
		c-2.12,0-3.16-1.04-3.16-3.16v-13.08c0-2.12,1.04-3.16,3.16-3.16h3.68c2.12,0,3.16,1.04,3.16,3.16v2.6H1288.66z"/>
	<path class="st13" d="M1301.66,173.44v-2.16c0-1.04-0.2-1.24-1.24-1.24h-2c-1.04,0-1.24,0.2-1.24,1.24v12.2
		c0,1.04,0.2,1.24,1.24,1.24h2c1.04,0,1.24-0.2,1.24-1.24v-2.16h2.76v2.6c0,2.12-1.04,3.16-3.16,3.16h-3.68
		c-2.12,0-3.16-1.04-3.16-3.16v-13.08c0-2.12,1.04-3.16,3.16-3.16h3.68c2.12,0,3.16,1.04,3.16,3.16v2.6H1301.66z"/>
	<path class="st13" d="M1314.46,167.68c2.12,0,3.16,1.04,3.16,3.16v7.48h-7.24v5.16c0,1.04,0.2,1.24,1.24,1.24h1.88
		c1.04,0,1.24-0.2,1.24-1.24v-1.76h2.76v2.2c0,2.12-1.04,3.16-3.16,3.16h-3.56c-2.12,0-3.16-1.04-3.16-3.16v-13.08
		c0-2.12,1.04-3.16,3.16-3.16H1314.46z M1314.86,175.96v-4.68c0-1.04-0.2-1.24-1.24-1.24h-2c-1.04,0-1.24,0.2-1.24,1.24v4.68
		H1314.86z"/>
	<path class="st13" d="M1326.78,179.84c0-1.04-0.2-1.24-1.24-1.24h-1.96c-2.12,0-3.16-1.04-3.16-3.16v-4.6
		c0-2.12,1.04-3.16,3.16-3.16h2.72c2.12,0,3.16,1.04,3.16,3.16v1.96h-2.72v-1.56c0-1.04-0.2-1.24-1.24-1.24h-1.12
		c-1.04,0-1.24,0.2-1.24,1.24v3.8c0,1.04,0.2,1.24,1.24,1.24h1.96c2.12,0,3.16,1.04,3.16,3.16v4.48c0,2.12-1.04,3.16-3.16,3.16
		h-2.68c-2.12,0-3.16-1.04-3.16-3.16v-1.96h2.72v1.56c0,1.04,0.2,1.24,1.24,1.24h1.08c1.04,0,1.24-0.2,1.24-1.24V179.84z"/>
	<path class="st13" d="M1338.66,179.84c0-1.04-0.2-1.24-1.24-1.24h-1.96c-2.12,0-3.16-1.04-3.16-3.16v-4.6
		c0-2.12,1.04-3.16,3.16-3.16h2.72c2.12,0,3.16,1.04,3.16,3.16v1.96h-2.72v-1.56c0-1.04-0.2-1.24-1.24-1.24h-1.12
		c-1.04,0-1.24,0.2-1.24,1.24v3.8c0,1.04,0.2,1.24,1.24,1.24h1.96c2.12,0,3.16,1.04,3.16,3.16v4.48c0,2.12-1.04,3.16-3.16,3.16
		h-2.68c-2.12,0-3.16-1.04-3.16-3.16v-1.96h2.72v1.56c0,1.04,0.2,1.24,1.24,1.24h1.08c1.04,0,1.24-0.2,1.24-1.24V179.84z"/>
	<path class="st13" d="M1348.9,162.88c-1.04,0-1.24,0.2-1.24,1.24v3.56h2.8v2.36h-2.8v17.04h-2.76v-17.04h-1.92v-2.36h1.92v-4.2
		c0-2.12,1.04-3.16,3.16-3.16h2.4v2.56H1348.9z"/>
	<path class="st13" d="M1362.18,167.68v19.4h-2.76v-1.32c-0.32,0.96-1.12,1.32-2.2,1.32h-1.6c-2.12,0-3.16-1.04-3.16-3.16v-16.24
		h2.76v15.8c0,1.04,0.2,1.24,1.24,1.24h1.6c0.96,0,1.36-0.36,1.36-1.44v-15.6H1362.18z"/>
	<path class="st13" d="M1365.78,187.07v-26.76h2.76v26.76H1365.78z"/>
	<path class="st13" d="M1390.85,167.68c2.12,0,3.16,1.04,3.16,3.16v16.24h-2.76v-15.8c0-1.04-0.2-1.24-1.24-1.24h-1.6
		c-0.96,0-1.36,0.36-1.36,1.44v15.6h-2.76v-15.8c0-1.04-0.2-1.24-1.24-1.24h-1.6c-0.96,0-1.36,0.36-1.36,1.44v15.6h-2.76v-19.4h2.76
		V169c0.32-0.96,1.12-1.32,2.2-1.32h1.6c1.52,0,2.48,0.52,2.92,1.6c0.28-1.16,1.2-1.6,2.44-1.6H1390.85z"/>
	<path class="st13" d="M1404.46,167.68c2.12,0,3.16,1.04,3.16,3.16v13.08c0,2.12-1.04,3.16-3.16,3.16h-4.08
		c-2.12,0-3.16-1.04-3.16-3.16v-13.08c0-2.12,1.04-3.16,3.16-3.16H1404.46z M1404.9,171.28c0-1.04-0.2-1.24-1.24-1.24h-2.48
		c-1.04,0-1.24,0.2-1.24,1.24v12.2c0,1.04,0.2,1.24,1.24,1.24h2.48c1.04,0,1.24-0.2,1.24-1.24V171.28z"/>
	<path class="st13" d="M1418.06,167.68c2.12,0,3.16,1.04,3.16,3.16v13.08c0,2.12-1.04,3.16-3.16,3.16h-4.08
		c-2.12,0-3.16-1.04-3.16-3.16v-13.08c0-2.12,1.04-3.16,3.16-3.16H1418.06z M1418.5,171.28c0-1.04-0.2-1.24-1.24-1.24h-2.48
		c-1.04,0-1.24,0.2-1.24,1.24v12.2c0,1.04,0.2,1.24,1.24,1.24h2.48c1.04,0,1.24-0.2,1.24-1.24V171.28z"/>
	<path class="st13" d="M1431.17,167.68c2.12,0,3.16,1.04,3.16,3.16v16.24h-2.76v-15.8c0-1.04-0.2-1.24-1.24-1.24h-1.6
		c-0.96,0-1.36,0.36-1.36,1.44v15.6h-2.76v-19.4h2.76V169c0.32-0.96,1.12-1.32,2.2-1.32H1431.17z"/>
	<path class="st13" d="M1443.13,187.07v-26.76h2.76v26.76H1443.13z"/>
	<path class="st13" d="M1459.01,167.68v19.4h-2.76v-1.32c-0.32,0.96-1.12,1.32-2.2,1.32h-1.6c-2.12,0-3.16-1.04-3.16-3.16v-13.08
		c0-2.12,1.04-3.16,3.16-3.16h1.6c1.08,0,1.88,0.36,2.2,1.32v-1.32H1459.01z M1454.89,184.71c0.96,0,1.36-0.36,1.36-1.44v-11.8
		c0-1.08-0.4-1.44-1.36-1.44h-1.6c-1.04,0-1.24,0.2-1.24,1.24v12.2c0,1.04,0.2,1.24,1.24,1.24H1454.89z"/>
	<path class="st13" d="M1469.17,167.68c2.12,0,3.16,1.04,3.16,3.16v16.24h-2.76v-15.8c0-1.04-0.2-1.24-1.24-1.24h-1.6
		c-0.96,0-1.36,0.36-1.36,1.44v15.6h-2.76v-19.4h2.76V169c0.32-0.96,1.12-1.32,2.2-1.32H1469.17z"/>
	<path class="st13" d="M1485.45,160.32v26.76h-2.76v-1.32c-0.32,0.96-1.12,1.32-2.2,1.32h-1.6c-2.12,0-3.16-1.04-3.16-3.16V170.8
		c0-2.12,1.04-3.16,3.16-3.16h1.6c1.08,0,1.88,0.36,2.2,1.32v-8.64H1485.45z M1481.33,184.71c0.96,0,1.36-0.36,1.36-1.44v-11.84
		c0-1.08-0.4-1.44-1.36-1.44h-1.6c-1.04,0-1.24,0.2-1.24,1.24v12.24c0,1.04,0.2,1.24,1.24,1.24H1481.33z"/>
	<path class="st13" d="M1488.97,160.28h2.92v3.24h-2.92V160.28z M1489.05,187.07v-19.4h2.76v19.4H1489.05z"/>
	<path class="st13" d="M1501.97,167.68c2.12,0,3.16,1.04,3.16,3.16v16.24h-2.76v-15.8c0-1.04-0.2-1.24-1.24-1.24h-1.6
		c-0.96,0-1.36,0.36-1.36,1.44v15.6h-2.76v-19.4h2.76V169c0.32-0.96,1.12-1.32,2.2-1.32H1501.97z"/>
	<path class="st13" d="M1518.25,167.68v21.88c0,2.12-1.04,3.16-3.16,3.16h-5.96v-2.36h5.12c1.04,0,1.24-0.2,1.24-1.24v-3.36
		c-0.32,0.96-1.12,1.32-2.2,1.32h-1.6c-2.12,0-3.16-1.04-3.16-3.16v-13.08c0-2.12,1.04-3.16,3.16-3.16h1.6
		c1.08,0,1.88,0.36,2.2,1.32v-1.32H1518.25z M1514.13,184.71c0.96,0,1.36-0.36,1.36-1.44v-11.8c0-1.08-0.4-1.44-1.36-1.44h-1.6
		c-1.04,0-1.24,0.2-1.24,1.24v12.2c0,1.04,0.2,1.24,1.24,1.24H1514.13z"/>
	<path class="st13" d="M1015.57,210.88c-1.04,0-1.24,0.2-1.24,1.24v3.56h2.8v2.36h-2.8v17.04h-2.76v-17.04h-1.92v-2.36h1.92v-4.2
		c0-2.12,1.04-3.16,3.16-3.16h2.4v2.56H1015.57z"/>
	<path class="st13" d="M1025.61,215.68v2.4h-1.2c-1.76,0-2.52,0.96-2.52,3v14h-2.76v-19.4h2.76v2.24c0.36-1.12,1.32-2.24,2.88-2.24
		H1025.61z"/>
	<path class="st13" d="M1034.65,215.68c2.12,0,3.16,1.04,3.16,3.16v13.08c0,2.12-1.04,3.16-3.16,3.16h-4.08
		c-2.12,0-3.16-1.04-3.16-3.16v-13.08c0-2.12,1.04-3.16,3.16-3.16H1034.65z M1035.09,219.28c0-1.04-0.2-1.24-1.24-1.24h-2.48
		c-1.04,0-1.24,0.2-1.24,1.24v12.2c0,1.04,0.2,1.24,1.24,1.24h2.48c1.04,0,1.24-0.2,1.24-1.24V219.28z"/>
	<path class="st13" d="M1054.73,215.68c2.12,0,3.16,1.04,3.16,3.16v16.24h-2.76v-15.8c0-1.04-0.2-1.24-1.24-1.24h-1.6
		c-0.96,0-1.36,0.36-1.36,1.44v15.6h-2.76v-15.8c0-1.04-0.2-1.24-1.24-1.24h-1.6c-0.96,0-1.36,0.36-1.36,1.44v15.6h-2.76v-19.4h2.76
		V217c0.32-0.96,1.12-1.32,2.2-1.32h1.6c1.52,0,2.48,0.52,2.92,1.6c0.28-1.16,1.2-1.6,2.44-1.6H1054.73z"/>
	<path class="st13" d="M1069.41,218.04v13.24c0,1.04,0.2,1.24,1.24,1.24h1.52v2.56h-2.36c-2.12,0-3.16-1.04-3.16-3.16v-13.88h-1.76
		v-2.36h1.76v-3.16h2.76v3.16h2.76v2.36H1069.41z"/>
	<path class="st13" d="M1080.93,215.68c2.12,0,3.16,1.04,3.16,3.16v16.24h-2.76v-15.8c0-1.04-0.2-1.24-1.24-1.24h-1.6
		c-0.96,0-1.36,0.36-1.36,1.44v15.6h-2.76v-26.76h2.76V217c0.32-0.96,1.12-1.32,2.2-1.32H1080.93z"/>
	<path class="st13" d="M1094.53,215.68c2.12,0,3.16,1.04,3.16,3.16v7.48h-7.24v5.16c0,1.04,0.2,1.24,1.24,1.24h1.88
		c1.04,0,1.24-0.2,1.24-1.24v-1.76h2.76v2.2c0,2.12-1.04,3.16-3.16,3.16h-3.56c-2.12,0-3.16-1.04-3.16-3.16v-13.08
		c0-2.12,1.04-3.16,3.16-3.16H1094.53z M1094.93,223.96v-4.68c0-1.04-0.2-1.24-1.24-1.24h-2c-1.04,0-1.24,0.2-1.24,1.24v4.68
		H1094.93z"/>
	<path class="st13" d="M1113.61,228.76h-5.04l-0.92,6.32h-2.76l3.88-24.88h4.36l4.28,24.88h-2.76L1113.61,228.76z M1113.25,226.4
		l-2.32-14.28l-2.04,14.28H1113.25z"/>
	<path class="st13" d="M1126.37,215.68c2.12,0,3.16,1.04,3.16,3.16v13.08c0,2.12-1.04,3.16-3.16,3.16h-1.6
		c-1.08,0-1.88-0.36-2.2-1.32v6.96h-2.76v-25.04h2.76V217c0.32-0.96,1.12-1.32,2.2-1.32H1126.37z M1126.77,219.28
		c0-1.04-0.2-1.24-1.24-1.24h-1.6c-0.96,0-1.36,0.36-1.36,1.44v11.8c0,1.08,0.4,1.44,1.36,1.44h1.6c1.04,0,1.24-0.2,1.24-1.24
		V219.28z"/>
	<path class="st13" d="M1139.97,215.68c2.12,0,3.16,1.04,3.16,3.16v13.08c0,2.12-1.04,3.16-3.16,3.16h-4.08
		c-2.12,0-3.16-1.04-3.16-3.16v-13.08c0-2.12,1.04-3.16,3.16-3.16H1139.97z M1140.41,219.28c0-1.04-0.2-1.24-1.24-1.24h-2.48
		c-1.04,0-1.24,0.2-1.24,1.24v12.2c0,1.04,0.2,1.24,1.24,1.24h2.48c1.04,0,1.24-0.2,1.24-1.24V219.28z"/>
	<path class="st13" d="M1146.53,235.07v-26.76h2.76v26.76H1146.53z"/>
	<path class="st13" d="M1152.89,235.07v-26.76h2.76v26.76H1152.89z"/>
	<path class="st13" d="M1166.29,215.68c2.12,0,3.16,1.04,3.16,3.16v13.08c0,2.12-1.04,3.16-3.16,3.16h-4.08
		c-2.12,0-3.16-1.04-3.16-3.16v-13.08c0-2.12,1.04-3.16,3.16-3.16H1166.29z M1166.73,219.28c0-1.04-0.2-1.24-1.24-1.24h-2.48
		c-1.04,0-1.24,0.2-1.24,1.24v12.2c0,1.04,0.2,1.24,1.24,1.24h2.48c1.04,0,1.24-0.2,1.24-1.24V219.28z"/>
	<path class="st13" d="M1182.49,235.07h-2.72v-22.52h-2.72v-2.36h5.44V235.07z"/>
	<path class="st13" d="M1190.92,235.07h-2.72v-22.52h-2.72v-2.36h5.44V235.07z"/>
	<path class="st13" d="M1213.64,215.68c2.12,0,3.16,1.04,3.16,3.16v16.24h-2.76v-15.8c0-1.04-0.2-1.24-1.24-1.24h-1.6
		c-0.96,0-1.36,0.36-1.36,1.44v15.6h-2.76v-15.8c0-1.04-0.2-1.24-1.24-1.24h-1.6c-0.96,0-1.36,0.36-1.36,1.44v15.6h-2.76v-19.4h2.76
		V217c0.32-0.96,1.12-1.32,2.2-1.32h1.6c1.52,0,2.48,0.52,2.92,1.6c0.28-1.16,1.2-1.6,2.44-1.6H1213.64z"/>
	<path class="st13" d="M1220.12,208.28h2.92v3.24h-2.92V208.28z M1220.2,235.07v-19.4h2.76v19.4H1220.2z"/>
	<path class="st13" d="M1232.52,227.84c0-1.04-0.2-1.24-1.24-1.24h-1.96c-2.12,0-3.16-1.04-3.16-3.16v-4.6
		c0-2.12,1.04-3.16,3.16-3.16h2.72c2.12,0,3.16,1.04,3.16,3.16v1.96h-2.72v-1.56c0-1.04-0.2-1.24-1.24-1.24h-1.12
		c-1.04,0-1.24,0.2-1.24,1.24v3.8c0,1.04,0.2,1.24,1.24,1.24h1.96c2.12,0,3.16,1.04,3.16,3.16v4.48c0,2.12-1.04,3.16-3.16,3.16
		h-2.68c-2.12,0-3.16-1.04-3.16-3.16v-1.96h2.72v1.56c0,1.04,0.2,1.24,1.24,1.24h1.08c1.04,0,1.24-0.2,1.24-1.24V227.84z"/>
	<path class="st13" d="M1244.4,227.84c0-1.04-0.2-1.24-1.24-1.24h-1.96c-2.12,0-3.16-1.04-3.16-3.16v-4.6
		c0-2.12,1.04-3.16,3.16-3.16h2.72c2.12,0,3.16,1.04,3.16,3.16v1.96h-2.72v-1.56c0-1.04-0.2-1.24-1.24-1.24H1242
		c-1.04,0-1.24,0.2-1.24,1.24v3.8c0,1.04,0.2,1.24,1.24,1.24h1.96c2.12,0,3.16,1.04,3.16,3.16v4.48c0,2.12-1.04,3.16-3.16,3.16
		h-2.68c-2.12,0-3.16-1.04-3.16-3.16v-1.96h2.72v1.56c0,1.04,0.2,1.24,1.24,1.24h1.08c1.04,0,1.24-0.2,1.24-1.24V227.84z"/>
	<path class="st13" d="M1250.24,208.28h2.92v3.24h-2.92V208.28z M1250.32,235.07v-19.4h2.76v19.4H1250.32z"/>
	<path class="st13" d="M1263.72,215.68c2.12,0,3.16,1.04,3.16,3.16v13.08c0,2.12-1.04,3.16-3.16,3.16h-4.08
		c-2.12,0-3.16-1.04-3.16-3.16v-13.08c0-2.12,1.04-3.16,3.16-3.16H1263.72z M1264.16,219.28c0-1.04-0.2-1.24-1.24-1.24h-2.48
		c-1.04,0-1.24,0.2-1.24,1.24v12.2c0,1.04,0.2,1.24,1.24,1.24h2.48c1.04,0,1.24-0.2,1.24-1.24V219.28z"/>
	<path class="st13" d="M1276.84,215.68c2.12,0,3.16,1.04,3.16,3.16v16.24h-2.76v-15.8c0-1.04-0.2-1.24-1.24-1.24h-1.6
		c-0.96,0-1.36,0.36-1.36,1.44v15.6h-2.76v-19.4h2.76V217c0.32-0.96,1.12-1.32,2.2-1.32H1276.84z"/>
	<path class="st13" d="M1286.28,230.59v2.32l-2.2,7.64H1283v-9.96H1286.28z"/>
	<path class="st13" d="M1294.4,208.28h2.92v3.24h-2.92V208.28z M1294.48,235.07v-19.4h2.76v19.4H1294.48z"/>
	<path class="st13" d="M1306.8,227.84c0-1.04-0.2-1.24-1.24-1.24h-1.96c-2.12,0-3.16-1.04-3.16-3.16v-4.6
		c0-2.12,1.04-3.16,3.16-3.16h2.72c2.12,0,3.16,1.04,3.16,3.16v1.96h-2.72v-1.56c0-1.04-0.2-1.24-1.24-1.24h-1.12
		c-1.04,0-1.24,0.2-1.24,1.24v3.8c0,1.04,0.2,1.24,1.24,1.24h1.96c2.12,0,3.16,1.04,3.16,3.16v4.48c0,2.12-1.04,3.16-3.16,3.16
		h-2.68c-2.12,0-3.16-1.04-3.16-3.16v-1.96h2.72v1.56c0,1.04,0.2,1.24,1.24,1.24h1.08c1.04,0,1.24-0.2,1.24-1.24V227.84z"/>
	<path class="st13" d="M1327.44,215.68v19.4h-2.76v-1.32c-0.32,0.96-1.12,1.32-2.2,1.32h-1.6c-2.12,0-3.16-1.04-3.16-3.16v-13.08
		c0-2.12,1.04-3.16,3.16-3.16h1.6c1.08,0,1.88,0.36,2.2,1.32v-1.32H1327.44z M1323.32,232.71c0.96,0,1.36-0.36,1.36-1.44v-11.8
		c0-1.08-0.4-1.44-1.36-1.44h-1.6c-1.04,0-1.24,0.2-1.24,1.24v12.2c0,1.04,0.2,1.24,1.24,1.24H1323.32z"/>
	<path class="st13" d="M1344.48,212.04l-6.44,23.04h-2.72l6.2-22.52h-6.88v-2.36h9.84V212.04z"/>
	<path class="st13" d="M1361.2,208.32v26.76h-2.76v-1.32c-0.32,0.96-1.12,1.32-2.2,1.32h-1.6c-2.12,0-3.16-1.04-3.16-3.16V218.8
		c0-2.12,1.04-3.16,3.16-3.16h1.6c1.08,0,1.88,0.36,2.2,1.32v-8.64H1361.2z M1357.08,232.71c0.96,0,1.36-0.36,1.36-1.44v-11.84
		c0-1.08-0.4-1.44-1.36-1.44h-1.6c-1.04,0-1.24,0.2-1.24,1.24v12.24c0,1.04,0.2,1.24,1.24,1.24H1357.08z"/>
	<path class="st13" d="M1374.32,215.68v19.4h-2.76v-1.32c-0.32,0.96-1.12,1.32-2.2,1.32h-1.6c-2.12,0-3.16-1.04-3.16-3.16v-13.08
		c0-2.12,1.04-3.16,3.16-3.16h1.6c1.08,0,1.88,0.36,2.2,1.32v-1.32H1374.32z M1370.2,232.71c0.96,0,1.36-0.36,1.36-1.44v-11.8
		c0-1.08-0.4-1.44-1.36-1.44h-1.6c-1.04,0-1.24,0.2-1.24,1.24v12.2c0,1.04,0.2,1.24,1.24,1.24H1370.2z"/>
	<path class="st13" d="M1379.28,215.68l3.12,17.48l2.92-17.48h2.76l-3.88,21.88c-0.4,2.08-1.68,3.16-3.8,3.16h-2.16v-2.36h1.32
		c1.04,0,1.76-0.24,2-1.24l0.48-2.04h-1.8l-3.72-19.4H1379.28z"/>
	<path class="st13" d="M1405.51,208.32v26.76h-2.76v-17.04h-4.2v17.04h-2.76v-17.04h-1.92v-2.36h1.92v-4.2
		c0-2.12,1.04-3.16,3.16-3.16h1.68v2.56h-0.84c-1.04,0-1.24,0.2-1.24,1.24v3.56h4.2v-7.36H1405.51z"/>
	<path class="st13" d="M1409.03,208.28h2.92v3.24h-2.92V208.28z M1409.11,235.07v-19.4h2.76v19.4H1409.11z"/>
	<path class="st13" d="M1424.99,215.68v21.88c0,2.12-1.04,3.16-3.16,3.16h-5.96v-2.36h5.12c1.04,0,1.24-0.2,1.24-1.24v-3.36
		c-0.32,0.96-1.12,1.32-2.2,1.32h-1.6c-2.12,0-3.16-1.04-3.16-3.16v-13.08c0-2.12,1.04-3.16,3.16-3.16h1.6
		c1.08,0,1.88,0.36,2.2,1.32v-1.32H1424.99z M1420.87,232.71c0.96,0,1.36-0.36,1.36-1.44v-11.8c0-1.08-0.4-1.44-1.36-1.44h-1.6
		c-1.04,0-1.24,0.2-1.24,1.24v12.2c0,1.04,0.2,1.24,1.24,1.24H1420.87z"/>
	<path class="st13" d="M1435.15,215.68c2.12,0,3.16,1.04,3.16,3.16v16.24h-2.76v-15.8c0-1.04-0.2-1.24-1.24-1.24h-1.6
		c-0.96,0-1.36,0.36-1.36,1.44v15.6h-2.76v-26.76h2.76V217c0.32-0.96,1.12-1.32,2.2-1.32H1435.15z"/>
	<path class="st13" d="M1444.83,218.04v13.24c0,1.04,0.2,1.24,1.24,1.24h1.52v2.56h-2.36c-2.12,0-3.16-1.04-3.16-3.16v-13.88h-1.76
		v-2.36h1.76v-3.16h2.76v3.16h2.76v2.36H1444.83z"/>
	<path class="st13" d="M1473.27,215.68l-3.44,19.4h-4.2l-2.32-15.56l-2.28,15.56h-4.2l-3.44-19.4h2.64l2.88,17.48l2.52-17.48h3.8
		l2.48,17.48l2.92-17.48H1473.27z"/>
	<path class="st13" d="M1475.19,208.28h2.92v3.24h-2.92V208.28z M1475.27,235.07v-19.4h2.76v19.4H1475.27z"/>
	<path class="st13" d="M1484.55,218.04v13.24c0,1.04,0.2,1.24,1.24,1.24h1.52v2.56h-2.36c-2.12,0-3.16-1.04-3.16-3.16v-13.88h-1.76
		v-2.36h1.76v-3.16h2.76v3.16h2.76v2.36H1484.55z"/>
	<path class="st13" d="M1496.07,215.68c2.12,0,3.16,1.04,3.16,3.16v16.24h-2.76v-15.8c0-1.04-0.2-1.24-1.24-1.24h-1.6
		c-0.96,0-1.36,0.36-1.36,1.44v15.6h-2.76v-26.76h2.76V217c0.32-0.96,1.12-1.32,2.2-1.32H1496.07z"/>
	<path class="st13" d="M1509.95,218.2h-2.72v-4.84c0-2.12,1.04-3.16,3.16-3.16h3.08c2.12,0,3.16,1.04,3.16,3.16v2.2
		c0,1.96-0.24,3.32-1.04,5.2l-5.48,11.96h6.72v2.36h-9.56v-2.32l5.68-12.44c0.72-1.68,0.92-3,0.92-4.92v-1.6
		c0-1.04-0.2-1.24-1.24-1.24h-1.44c-1.04,0-1.24,0.2-1.24,1.24V218.2z"/>
	<path class="st13" d="M1014.69,256.32v26.76h-2.76v-1.32c-0.32,0.96-1.12,1.32-2.2,1.32h-1.6c-2.12,0-3.16-1.04-3.16-3.16V266.8
		c0-2.12,1.04-3.16,3.16-3.16h1.6c1.08,0,1.88,0.36,2.2,1.32v-8.64H1014.69z M1010.57,280.71c0.96,0,1.36-0.36,1.36-1.44v-11.84
		c0-1.08-0.4-1.44-1.36-1.44h-1.6c-1.04,0-1.24,0.2-1.24,1.24v12.24c0,1.04,0.2,1.24,1.24,1.24H1010.57z"/>
	<path class="st13" d="M1027.81,263.68v19.4h-2.76v-1.32c-0.32,0.96-1.12,1.32-2.2,1.32h-1.6c-2.12,0-3.16-1.04-3.16-3.16v-13.08
		c0-2.12,1.04-3.16,3.16-3.16h1.6c1.08,0,1.88,0.36,2.2,1.32v-1.32H1027.81z M1023.69,280.71c0.96,0,1.36-0.36,1.36-1.44v-11.8
		c0-1.08-0.4-1.44-1.36-1.44h-1.6c-1.04,0-1.24,0.2-1.24,1.24v12.2c0,1.04,0.2,1.24,1.24,1.24H1023.69z"/>
	<path class="st13" d="M1032.77,263.68l3.12,17.48l2.92-17.48h2.76l-3.88,21.88c-0.4,2.08-1.68,3.16-3.8,3.16h-2.16v-2.36h1.32
		c1.04,0,1.76-0.24,2-1.24l0.48-2.04h-1.8l-3.72-19.4H1032.77z"/>
	<path class="st13" d="M1049.73,275.84c0-1.04-0.2-1.24-1.24-1.24h-1.96c-2.12,0-3.16-1.04-3.16-3.16v-4.6
		c0-2.12,1.04-3.16,3.16-3.16h2.72c2.12,0,3.16,1.04,3.16,3.16v1.96h-2.72v-1.56c0-1.04-0.2-1.24-1.24-1.24h-1.12
		c-1.04,0-1.24,0.2-1.24,1.24v3.8c0,1.04,0.2,1.24,1.24,1.24h1.96c2.12,0,3.16,1.04,3.16,3.16v4.48c0,2.12-1.04,3.16-3.16,3.16
		h-2.68c-2.12,0-3.16-1.04-3.16-3.16v-1.96h2.72v1.56c0,1.04,0.2,1.24,1.24,1.24h1.08c1.04,0,1.24-0.2,1.24-1.24V275.84z"/>
	<path class="st13" d="M1067.89,263.68c2.12,0,3.16,1.04,3.16,3.16v13.08c0,2.12-1.04,3.16-3.16,3.16h-4.08
		c-2.12,0-3.16-1.04-3.16-3.16v-13.08c0-2.12,1.04-3.16,3.16-3.16H1067.89z M1068.33,267.28c0-1.04-0.2-1.24-1.24-1.24h-2.48
		c-1.04,0-1.24,0.2-1.24,1.24v12.2c0,1.04,0.2,1.24,1.24,1.24h2.48c1.04,0,1.24-0.2,1.24-1.24V267.28z"/>
	<path class="st13" d="M1078.77,258.88c-1.04,0-1.24,0.2-1.24,1.24v3.56h2.8v2.36h-2.8v17.04h-2.76v-17.04h-1.92v-2.36h1.92v-4.2
		c0-2.12,1.04-3.16,3.16-3.16h2.4v2.56H1078.77z"/>
	<path class="st13" d="M1094.01,263.68v2.4h-1.2c-1.76,0-2.52,0.96-2.52,3v14h-2.76v-19.4h2.76v2.24c0.36-1.12,1.32-2.24,2.88-2.24
		H1094.01z"/>
	<path class="st13" d="M1102.85,263.68c2.12,0,3.16,1.04,3.16,3.16v7.48h-7.24v5.16c0,1.04,0.2,1.24,1.24,1.24h1.88
		c1.04,0,1.24-0.2,1.24-1.24v-1.76h2.76v2.2c0,2.12-1.04,3.16-3.16,3.16h-3.56c-2.12,0-3.16-1.04-3.16-3.16v-13.08
		c0-2.12,1.04-3.16,3.16-3.16H1102.85z M1103.25,271.96v-4.68c0-1.04-0.2-1.24-1.24-1.24h-2c-1.04,0-1.24,0.2-1.24,1.24v4.68
		H1103.25z"/>
	<path class="st13" d="M1112.13,266.04v13.24c0,1.04,0.2,1.24,1.24,1.24h1.52v2.56h-2.36c-2.12,0-3.16-1.04-3.16-3.16v-13.88h-1.76
		v-2.36h1.76v-3.16h2.76v3.16h2.76v2.36H1112.13z"/>
	<path class="st13" d="M1126.81,263.68v19.4h-2.76v-1.32c-0.32,0.96-1.12,1.32-2.2,1.32h-1.6c-2.12,0-3.16-1.04-3.16-3.16v-16.24
		h2.76v15.8c0,1.04,0.2,1.24,1.24,1.24h1.6c0.96,0,1.36-0.36,1.36-1.44v-15.6H1126.81z"/>
	<path class="st13" d="M1136.89,263.68v2.4h-1.2c-1.76,0-2.52,0.96-2.52,3v14h-2.76v-19.4h2.76v2.24c0.36-1.12,1.32-2.24,2.88-2.24
		H1136.89z"/>
	<path class="st13" d="M1145.45,263.68c2.12,0,3.16,1.04,3.16,3.16v16.24h-2.76v-15.8c0-1.04-0.2-1.24-1.24-1.24h-1.6
		c-0.96,0-1.36,0.36-1.36,1.44v15.6h-2.76v-19.4h2.76V265c0.32-0.96,1.12-1.32,2.2-1.32H1145.45z"/>
	<path class="st13" d="M1160.33,266.04v13.24c0,1.04,0.2,1.24,1.24,1.24h1.52v2.56h-2.36c-2.12,0-3.16-1.04-3.16-3.16v-13.88h-1.76
		v-2.36h1.76v-3.16h2.76v3.16h2.76v2.36H1160.33z"/>
	<path class="st13" d="M1171.76,263.68v2.4h-1.2c-1.76,0-2.52,0.96-2.52,3v14h-2.76v-19.4h2.76v2.24c0.36-1.12,1.32-2.24,2.88-2.24
		H1171.76z"/>
	<path class="st13" d="M1183.28,263.68v19.4h-2.76v-1.32c-0.32,0.96-1.12,1.32-2.2,1.32h-1.6c-2.12,0-3.16-1.04-3.16-3.16v-13.08
		c0-2.12,1.04-3.16,3.16-3.16h1.6c1.08,0,1.88,0.36,2.2,1.32v-1.32H1183.28z M1179.17,280.71c0.96,0,1.36-0.36,1.36-1.44v-11.8
		c0-1.08-0.4-1.44-1.36-1.44h-1.6c-1.04,0-1.24,0.2-1.24,1.24v12.2c0,1.04,0.2,1.24,1.24,1.24H1179.17z"/>
	<path class="st13" d="M1190.64,281.15l2.64-17.48h2.76l-3.2,19.4h-4.36l-3.2-19.4h2.76L1190.64,281.15z"/>
	<path class="st13" d="M1204.88,263.68c2.12,0,3.16,1.04,3.16,3.16v7.48h-7.24v5.16c0,1.04,0.2,1.24,1.24,1.24h1.88
		c1.04,0,1.24-0.2,1.24-1.24v-1.76h2.76v2.2c0,2.12-1.04,3.16-3.16,3.16h-3.56c-2.12,0-3.16-1.04-3.16-3.16v-13.08
		c0-2.12,1.04-3.16,3.16-3.16H1204.88z M1205.28,271.96v-4.68c0-1.04-0.2-1.24-1.24-1.24h-2c-1.04,0-1.24,0.2-1.24,1.24v4.68
		H1205.28z"/>
	<path class="st13" d="M1211.24,283.07v-26.76h2.76v26.76H1211.24z"/>
	<path class="st13" d="M1229.84,263.68c2.12,0,3.16,1.04,3.16,3.16v13.08c0,2.12-1.04,3.16-3.16,3.16h-4.08
		c-2.12,0-3.16-1.04-3.16-3.16v-13.08c0-2.12,1.04-3.16,3.16-3.16H1229.84z M1230.28,267.28c0-1.04-0.2-1.24-1.24-1.24h-2.48
		c-1.04,0-1.24,0.2-1.24,1.24v12.2c0,1.04,0.2,1.24,1.24,1.24h2.48c1.04,0,1.24-0.2,1.24-1.24V267.28z"/>
	<path class="st13" d="M1242.96,263.68c2.12,0,3.16,1.04,3.16,3.16v16.24h-2.76v-15.8c0-1.04-0.2-1.24-1.24-1.24h-1.6
		c-0.96,0-1.36,0.36-1.36,1.44v15.6h-2.76v-19.4h2.76V265c0.32-0.96,1.12-1.32,2.2-1.32H1242.96z"/>
	<path class="st13" d="M1264.92,280.71v2.36h-9.6V258.2h9.32v2.36h-6.56v8.4h5.36v2.36h-5.36v9.4H1264.92z"/>
	<path class="st13" d="M1277.04,263.68v19.4h-2.76v-1.32c-0.32,0.96-1.12,1.32-2.2,1.32h-1.6c-2.12,0-3.16-1.04-3.16-3.16v-13.08
		c0-2.12,1.04-3.16,3.16-3.16h1.6c1.08,0,1.88,0.36,2.2,1.32v-1.32H1277.04z M1272.92,280.71c0.96,0,1.36-0.36,1.36-1.44v-11.8
		c0-1.08-0.4-1.44-1.36-1.44h-1.6c-1.04,0-1.24,0.2-1.24,1.24v12.2c0,1.04,0.2,1.24,1.24,1.24H1272.92z"/>
	<path class="st13" d="M1287.12,263.68v2.4h-1.2c-1.76,0-2.52,0.96-2.52,3v14h-2.76v-19.4h2.76v2.24c0.36-1.12,1.32-2.24,2.88-2.24
		H1287.12z"/>
	<path class="st13" d="M1292.04,266.04v13.24c0,1.04,0.2,1.24,1.24,1.24h1.52v2.56h-2.36c-2.12,0-3.16-1.04-3.16-3.16v-13.88h-1.76
		v-2.36h1.76v-3.16h2.76v3.16h2.76v2.36H1292.04z"/>
	<path class="st13" d="M1303.56,263.68c2.12,0,3.16,1.04,3.16,3.16v16.24h-2.76v-15.8c0-1.04-0.2-1.24-1.24-1.24h-1.6
		c-0.96,0-1.36,0.36-1.36,1.44v15.6H1297v-26.76h2.76V265c0.32-0.96,1.12-1.32,2.2-1.32H1303.56z"/>
	<path class="st13" d="M1319.84,258.88c-1.04,0-1.24,0.2-1.24,1.24v3.56h2.8v2.36h-2.8v17.04h-2.76v-17.04h-1.92v-2.36h1.92v-4.2
		c0-2.12,1.04-3.16,3.16-3.16h2.4v2.56H1319.84z"/>
	<path class="st13" d="M1330.44,263.68c2.12,0,3.16,1.04,3.16,3.16v13.08c0,2.12-1.04,3.16-3.16,3.16h-4.08
		c-2.12,0-3.16-1.04-3.16-3.16v-13.08c0-2.12,1.04-3.16,3.16-3.16H1330.44z M1330.88,267.28c0-1.04-0.2-1.24-1.24-1.24h-2.48
		c-1.04,0-1.24,0.2-1.24,1.24v12.2c0,1.04,0.2,1.24,1.24,1.24h2.48c1.04,0,1.24-0.2,1.24-1.24V267.28z"/>
	<path class="st13" d="M1343.47,263.68v2.4h-1.2c-1.76,0-2.52,0.96-2.52,3v14H1337v-19.4h2.76v2.24c0.36-1.12,1.32-2.24,2.88-2.24
		H1343.47z"/>
	<path class="st13" d="M1360.19,263.68v19.4h-2.76v-1.32c-0.32,0.96-1.12,1.32-2.2,1.32h-1.6c-2.12,0-3.16-1.04-3.16-3.16v-13.08
		c0-2.12,1.04-3.16,3.16-3.16h1.6c1.08,0,1.88,0.36,2.2,1.32v-1.32H1360.19z M1356.07,280.71c0.96,0,1.36-0.36,1.36-1.44v-11.8
		c0-1.08-0.4-1.44-1.36-1.44h-1.6c-1.04,0-1.24,0.2-1.24,1.24v12.2c0,1.04,0.2,1.24,1.24,1.24H1356.07z"/>
	<path class="st13" d="M1371.91,266.04v13.24c0,1.04,0.2,1.24,1.24,1.24h1.52v2.56h-2.36c-2.12,0-3.16-1.04-3.16-3.16v-13.88h-1.76
		v-2.36h1.76v-3.16h2.76v3.16h2.76v2.36H1371.91z"/>
	<path class="st13" d="M1383.91,263.68c2.12,0,3.16,1.04,3.16,3.16v13.08c0,2.12-1.04,3.16-3.16,3.16h-4.08
		c-2.12,0-3.16-1.04-3.16-3.16v-13.08c0-2.12,1.04-3.16,3.16-3.16H1383.91z M1384.35,267.28c0-1.04-0.2-1.24-1.24-1.24h-2.48
		c-1.04,0-1.24,0.2-1.24,1.24v12.2c0,1.04,0.2,1.24,1.24,1.24h2.48c1.04,0,1.24-0.2,1.24-1.24V267.28z"/>
	<path class="st13" d="M1393.39,266.04v13.24c0,1.04,0.2,1.24,1.24,1.24h1.52v2.56h-2.36c-2.12,0-3.16-1.04-3.16-3.16v-13.88h-1.76
		v-2.36h1.76v-3.16h2.76v3.16h2.76v2.36H1393.39z"/>
	<path class="st13" d="M1407.87,263.68v19.4h-2.76v-1.32c-0.32,0.96-1.12,1.32-2.2,1.32h-1.6c-2.12,0-3.16-1.04-3.16-3.16v-13.08
		c0-2.12,1.04-3.16,3.16-3.16h1.6c1.08,0,1.88,0.36,2.2,1.32v-1.32H1407.87z M1403.75,280.71c0.96,0,1.36-0.36,1.36-1.44v-11.8
		c0-1.08-0.4-1.44-1.36-1.44h-1.6c-1.04,0-1.24,0.2-1.24,1.24v12.2c0,1.04,0.2,1.24,1.24,1.24H1403.75z"/>
	<path class="st13" d="M1411.47,283.07v-26.76h2.76v26.76H1411.47z"/>
	<path class="st13" d="M1430.07,263.68c2.12,0,3.16,1.04,3.16,3.16v13.08c0,2.12-1.04,3.16-3.16,3.16h-4.08
		c-2.12,0-3.16-1.04-3.16-3.16v-13.08c0-2.12,1.04-3.16,3.16-3.16H1430.07z M1430.51,267.28c0-1.04-0.2-1.24-1.24-1.24h-2.48
		c-1.04,0-1.24,0.2-1.24,1.24v12.2c0,1.04,0.2,1.24,1.24,1.24h2.48c1.04,0,1.24-0.2,1.24-1.24V267.28z"/>
	<path class="st13" d="M1440.95,258.88c-1.04,0-1.24,0.2-1.24,1.24v3.56h2.8v2.36h-2.8v17.04h-2.76v-17.04h-1.92v-2.36h1.92v-4.2
		c0-2.12,1.04-3.16,3.16-3.16h2.4v2.56H1440.95z"/>
	<path class="st13" d="M1459.23,263.68v19.4h-2.76v-1.32c-0.32,0.96-1.12,1.32-2.2,1.32h-1.6c-2.12,0-3.16-1.04-3.16-3.16v-13.08
		c0-2.12,1.04-3.16,3.16-3.16h1.6c1.08,0,1.88,0.36,2.2,1.32v-1.32H1459.23z M1455.11,280.71c0.96,0,1.36-0.36,1.36-1.44v-11.8
		c0-1.08-0.4-1.44-1.36-1.44h-1.6c-1.04,0-1.24,0.2-1.24,1.24v12.2c0,1.04,0.2,1.24,1.24,1.24H1455.11z"/>
	<path class="st13" d="M1474.95,258.2c2.12,0,3.16,1.04,3.16,3.16v18.56c0,2.12-1.04,3.16-3.16,3.16h-3.92
		c-2.12,0-3.16-1.04-3.16-3.16v-4.68h2.72v4.24c0,1.04,0.2,1.24,1.24,1.24h2.28c1.04,0,1.24-0.2,1.24-1.24v-6.76h-4.36
		c-2.12,0-3.16-1.04-3.16-3.16v-8.2c0-2.12,1.04-3.16,3.16-3.16H1474.95z M1475.35,270.36v-8.56c0-1.04-0.2-1.24-1.24-1.24h-2.28
		c-1.04,0-1.24,0.2-1.24,1.24v7.32c0,1.04,0.2,1.24,1.24,1.24H1475.35z"/>
	<path class="st13" d="M1496.62,256.32v26.76h-2.76v-1.32c-0.32,0.96-1.12,1.32-2.2,1.32h-1.6c-2.12,0-3.16-1.04-3.16-3.16V266.8
		c0-2.12,1.04-3.16,3.16-3.16h1.6c1.08,0,1.88,0.36,2.2,1.32v-8.64H1496.62z M1492.51,280.71c0.96,0,1.36-0.36,1.36-1.44v-11.84
		c0-1.08-0.4-1.44-1.36-1.44h-1.6c-1.04,0-1.24,0.2-1.24,1.24v12.24c0,1.04,0.2,1.24,1.24,1.24H1492.51z"/>
	<path class="st13" d="M1509.74,263.68v19.4h-2.76v-1.32c-0.32,0.96-1.12,1.32-2.2,1.32h-1.6c-2.12,0-3.16-1.04-3.16-3.16v-13.08
		c0-2.12,1.04-3.16,3.16-3.16h1.6c1.08,0,1.88,0.36,2.2,1.32v-1.32H1509.74z M1505.62,280.71c0.96,0,1.36-0.36,1.36-1.44v-11.8
		c0-1.08-0.4-1.44-1.36-1.44h-1.6c-1.04,0-1.24,0.2-1.24,1.24v12.2c0,1.04,0.2,1.24,1.24,1.24H1505.62z"/>
	<path class="st13" d="M1514.7,263.68l3.12,17.48l2.92-17.48h2.76l-3.88,21.88c-0.4,2.08-1.68,3.16-3.8,3.16h-2.16v-2.36h1.32
		c1.04,0,1.76-0.24,2-1.24l0.48-2.04h-1.8l-3.72-19.4H1514.7z"/>
	<path class="st13" d="M1017.71,314.04v13.24c0,1.04,0.2,1.24,1.24,1.24h1.52v2.56h-2.36c-2.12,0-3.16-1.04-3.16-3.16v-13.88h-1.76
		v-2.36h1.76v-3.16h2.76v3.16h2.76v2.36H1017.71z"/>
	<path class="st13" d="M1029.15,311.68v2.4h-1.2c-1.76,0-2.52,0.96-2.52,3v14h-2.76v-19.4h2.76v2.24c0.36-1.12,1.32-2.24,2.88-2.24
		H1029.15z"/>
	<path class="st13" d="M1031.07,304.28h2.92v3.24h-2.92V304.28z M1031.15,331.07v-19.4h2.76v19.4H1031.15z"/>
	<path class="st13" d="M1044.07,311.68c2.12,0,3.16,1.04,3.16,3.16v13.08c0,2.12-1.04,3.16-3.16,3.16h-1.6
		c-1.08,0-1.88-0.36-2.2-1.32v6.96h-2.76v-25.04h2.76V313c0.32-0.96,1.12-1.32,2.2-1.32H1044.07z M1044.47,315.28
		c0-1.04-0.2-1.24-1.24-1.24h-1.6c-0.96,0-1.36,0.36-1.36,1.44v11.8c0,1.08,0.4,1.44,1.36,1.44h1.6c1.04,0,1.24-0.2,1.24-1.24
		V315.28z"/>
	<path class="st13" d="M1050.03,326.59h3.28v4.48h-3.28V326.59z"/>
	<path class="st13" d="M1069.15,306.2c2.12,0,3.16,1.04,3.16,3.16v8.56c0,2.12-1.04,3.16-3.16,3.16h-4.52v10h-2.72V306.2H1069.15z
		 M1069.59,309.8c0-1.04-0.2-1.24-1.24-1.24h-3.72v10.16h3.72c1.04,0,1.24-0.2,1.24-1.24V309.8z"/>
	<path class="st13" d="M1084.83,311.68v19.4h-2.76v-1.32c-0.32,0.96-1.12,1.32-2.2,1.32h-1.6c-2.12,0-3.16-1.04-3.16-3.16v-13.08
		c0-2.12,1.04-3.16,3.16-3.16h1.6c1.08,0,1.88,0.36,2.2,1.32v-1.32H1084.83z M1080.71,328.71c0.96,0,1.36-0.36,1.36-1.44v-11.8
		c0-1.08-0.4-1.44-1.36-1.44h-1.6c-1.04,0-1.24,0.2-1.24,1.24v12.2c0,1.04,0.2,1.24,1.24,1.24H1080.71z"/>
	<path class="st13" d="M1094.91,311.68v2.4h-1.2c-1.76,0-2.52,0.96-2.52,3v14h-2.76v-19.4h2.76v2.24c0.36-1.12,1.32-2.24,2.88-2.24
		H1094.91z"/>
	<path class="st13" d="M1099.83,314.04v13.24c0,1.04,0.2,1.24,1.24,1.24h1.52v2.56h-2.36c-2.12,0-3.16-1.04-3.16-3.16v-13.88h-1.76
		v-2.36h1.76v-3.16h2.76v3.16h2.76v2.36H1099.83z"/>
	<path class="st13" d="M1104.71,304.28h2.92v3.24h-2.92V304.28z M1104.79,331.07v-19.4h2.76v19.4H1104.79z"/>
	<path class="st13" d="M1118.19,317.44v-2.16c0-1.04-0.2-1.24-1.24-1.24h-2c-1.04,0-1.24,0.2-1.24,1.24v12.2
		c0,1.04,0.2,1.24,1.24,1.24h2c1.04,0,1.24-0.2,1.24-1.24v-2.16h2.76v2.6c0,2.12-1.04,3.16-3.16,3.16h-3.68
		c-2.12,0-3.16-1.04-3.16-3.16v-13.08c0-2.12,1.04-3.16,3.16-3.16h3.68c2.12,0,3.16,1.04,3.16,3.16v2.6H1118.19z"/>
	<path class="st13" d="M1124.07,304.28h2.92v3.24h-2.92V304.28z M1124.15,331.07v-19.4h2.76v19.4H1124.15z"/>
	<path class="st13" d="M1137.07,311.68c2.12,0,3.16,1.04,3.16,3.16v13.08c0,2.12-1.04,3.16-3.16,3.16h-1.6
		c-1.08,0-1.88-0.36-2.2-1.32v6.96h-2.76v-25.04h2.76V313c0.32-0.96,1.12-1.32,2.2-1.32H1137.07z M1137.47,315.28
		c0-1.04-0.2-1.24-1.24-1.24h-1.6c-0.96,0-1.36,0.36-1.36,1.44v11.8c0,1.08,0.4,1.44,1.36,1.44h1.6c1.04,0,1.24-0.2,1.24-1.24
		V315.28z"/>
	<path class="st13" d="M1153.15,311.68v19.4h-2.76v-1.32c-0.32,0.96-1.12,1.32-2.2,1.32h-1.6c-2.12,0-3.16-1.04-3.16-3.16v-13.08
		c0-2.12,1.04-3.16,3.16-3.16h1.6c1.08,0,1.88,0.36,2.2,1.32v-1.32H1153.15z M1149.03,328.71c0.96,0,1.36-0.36,1.36-1.44v-11.8
		c0-1.08-0.4-1.44-1.36-1.44h-1.6c-1.04,0-1.24,0.2-1.24,1.24v12.2c0,1.04,0.2,1.24,1.24,1.24H1149.03z"/>
	<path class="st13" d="M1163.31,311.68c2.12,0,3.16,1.04,3.16,3.16v16.24h-2.76v-15.8c0-1.04-0.2-1.24-1.24-1.24h-1.6
		c-0.96,0-1.36,0.36-1.36,1.44v15.6h-2.76v-19.4h2.76V313c0.32-0.96,1.12-1.32,2.2-1.32H1163.31z"/>
	<path class="st13" d="M1172.99,314.04v13.24c0,1.04,0.2,1.24,1.24,1.24h1.52v2.56h-2.36c-2.12,0-3.16-1.04-3.16-3.16v-13.88h-1.76
		v-2.36h1.76v-3.16h2.76v3.16h2.76v2.36H1172.99z"/>
	<path class="st13" d="M1183.91,323.83c0-1.04-0.2-1.24-1.24-1.24h-1.96c-2.12,0-3.16-1.04-3.16-3.16v-4.6
		c0-2.12,1.04-3.16,3.16-3.16h2.72c2.12,0,3.16,1.04,3.16,3.16v1.96h-2.72v-1.56c0-1.04-0.2-1.24-1.24-1.24h-1.12
		c-1.04,0-1.24,0.2-1.24,1.24v3.8c0,1.04,0.2,1.24,1.24,1.24h1.96c2.12,0,3.16,1.04,3.16,3.16v4.48c0,2.12-1.04,3.16-3.16,3.16
		h-2.68c-2.12,0-3.16-1.04-3.16-3.16v-1.96h2.72v1.56c0,1.04,0.2,1.24,1.24,1.24h1.08c1.04,0,1.24-0.2,1.24-1.24V323.83z"/>
	<path class="st13" d="M1213.3,311.68l-3.44,19.4h-4.2l-2.32-15.56l-2.28,15.56h-4.2l-3.44-19.4h2.64l2.88,17.48l2.52-17.48h3.8
		l2.48,17.48l2.92-17.48H1213.3z"/>
	<path class="st13" d="M1215.22,304.28h2.92v3.24h-2.92V304.28z M1215.3,331.07v-19.4h2.76v19.4H1215.3z"/>
	<path class="st13" d="M1221.67,331.07v-26.76h2.76v26.76H1221.67z"/>
	<path class="st13" d="M1228.02,331.07v-26.76h2.76v26.76H1228.02z"/>
	<path class="st13" d="M1246.14,311.68c2.12,0,3.16,1.04,3.16,3.16v16.24h-2.76v-15.8c0-1.04-0.2-1.24-1.24-1.24h-1.6
		c-0.96,0-1.36,0.36-1.36,1.44v15.6h-2.76v-26.76h2.76V313c0.32-0.96,1.12-1.32,2.2-1.32H1246.14z"/>
	<path class="st13" d="M1262.42,311.68v19.4h-2.76v-1.32c-0.32,0.96-1.12,1.32-2.2,1.32h-1.6c-2.12,0-3.16-1.04-3.16-3.16v-13.08
		c0-2.12,1.04-3.16,3.16-3.16h1.6c1.08,0,1.88,0.36,2.2,1.32v-1.32H1262.42z M1258.3,328.71c0.96,0,1.36-0.36,1.36-1.44v-11.8
		c0-1.08-0.4-1.44-1.36-1.44h-1.6c-1.04,0-1.24,0.2-1.24,1.24v12.2c0,1.04,0.2,1.24,1.24,1.24H1258.3z"/>
	<path class="st13" d="M1269.78,329.15l2.64-17.48h2.76l-3.2,19.4h-4.36l-3.2-19.4h2.76L1269.78,329.15z"/>
	<path class="st13" d="M1284.02,311.68c2.12,0,3.16,1.04,3.16,3.16v7.48h-7.24v5.16c0,1.04,0.2,1.24,1.24,1.24h1.88
		c1.04,0,1.24-0.2,1.24-1.24v-1.76h2.76v2.2c0,2.12-1.04,3.16-3.16,3.16h-3.56c-2.12,0-3.16-1.04-3.16-3.16v-13.08
		c0-2.12,1.04-3.16,3.16-3.16H1284.02z M1284.42,319.96v-4.68c0-1.04-0.2-1.24-1.24-1.24h-2c-1.04,0-1.24,0.2-1.24,1.24v4.68
		H1284.42z"/>
	<path class="st13" d="M1298.5,314.04v13.24c0,1.04,0.2,1.24,1.24,1.24h1.52v2.56h-2.36c-2.12,0-3.16-1.04-3.16-3.16v-13.88h-1.76
		v-2.36h1.76v-3.16h2.76v3.16h2.76v2.36H1298.5z"/>
	<path class="st13" d="M1310.02,311.68c2.12,0,3.16,1.04,3.16,3.16v16.24h-2.76v-15.8c0-1.04-0.2-1.24-1.24-1.24h-1.6
		c-0.96,0-1.36,0.36-1.36,1.44v15.6h-2.76v-26.76h2.76V313c0.32-0.96,1.12-1.32,2.2-1.32H1310.02z"/>
	<path class="st13" d="M1323.62,311.68c2.12,0,3.16,1.04,3.16,3.16v7.48h-7.24v5.16c0,1.04,0.2,1.24,1.24,1.24h1.88
		c1.04,0,1.24-0.2,1.24-1.24v-1.76h2.76v2.2c0,2.12-1.04,3.16-3.16,3.16h-3.56c-2.12,0-3.16-1.04-3.16-3.16v-13.08
		c0-2.12,1.04-3.16,3.16-3.16H1323.62z M1324.02,319.96v-4.68c0-1.04-0.2-1.24-1.24-1.24h-2c-1.04,0-1.24,0.2-1.24,1.24v4.68
		H1324.02z"/>
	<path class="st13" d="M1342.22,311.68c2.12,0,3.16,1.04,3.16,3.16v13.08c0,2.12-1.04,3.16-3.16,3.16h-4.08
		c-2.12,0-3.16-1.04-3.16-3.16v-13.08c0-2.12,1.04-3.16,3.16-3.16H1342.22z M1342.66,315.28c0-1.04-0.2-1.24-1.24-1.24h-2.48
		c-1.04,0-1.24,0.2-1.24,1.24v12.2c0,1.04,0.2,1.24,1.24,1.24h2.48c1.04,0,1.24-0.2,1.24-1.24V315.28z"/>
	<path class="st13" d="M1355.33,311.68c2.12,0,3.16,1.04,3.16,3.16v13.08c0,2.12-1.04,3.16-3.16,3.16h-1.6
		c-1.08,0-1.88-0.36-2.2-1.32v6.96h-2.76v-25.04h2.76V313c0.32-0.96,1.12-1.32,2.2-1.32H1355.33z M1355.74,315.28
		c0-1.04-0.2-1.24-1.24-1.24h-1.6c-0.96,0-1.36,0.36-1.36,1.44v11.8c0,1.08,0.4,1.44,1.36,1.44h1.6c1.04,0,1.24-0.2,1.24-1.24
		V315.28z"/>
	<path class="st13" d="M1368.45,311.68c2.12,0,3.16,1.04,3.16,3.16v13.08c0,2.12-1.04,3.16-3.16,3.16h-1.6
		c-1.08,0-1.88-0.36-2.2-1.32v6.96h-2.76v-25.04h2.76V313c0.32-0.96,1.12-1.32,2.2-1.32H1368.45z M1368.85,315.28
		c0-1.04-0.2-1.24-1.24-1.24h-1.6c-0.96,0-1.36,0.36-1.36,1.44v11.8c0,1.08,0.4,1.44,1.36,1.44h1.6c1.04,0,1.24-0.2,1.24-1.24
		V315.28z"/>
	<path class="st13" d="M1382.05,311.68c2.12,0,3.16,1.04,3.16,3.16v13.08c0,2.12-1.04,3.16-3.16,3.16h-4.08
		c-2.12,0-3.16-1.04-3.16-3.16v-13.08c0-2.12,1.04-3.16,3.16-3.16H1382.05z M1382.49,315.28c0-1.04-0.2-1.24-1.24-1.24h-2.48
		c-1.04,0-1.24,0.2-1.24,1.24v12.2c0,1.04,0.2,1.24,1.24,1.24h2.48c1.04,0,1.24-0.2,1.24-1.24V315.28z"/>
	<path class="st13" d="M1395.09,311.68v2.4h-1.2c-1.76,0-2.52,0.96-2.52,3v14h-2.76v-19.4h2.76v2.24c0.36-1.12,1.32-2.24,2.88-2.24
		H1395.09z"/>
	<path class="st13" d="M1400.01,314.04v13.24c0,1.04,0.2,1.24,1.24,1.24h1.52v2.56h-2.36c-2.12,0-3.16-1.04-3.16-3.16v-13.88h-1.76
		v-2.36h1.76v-3.16h2.76v3.16h2.76v2.36H1400.01z"/>
	<path class="st13" d="M1414.69,311.68v19.4h-2.76v-1.32c-0.32,0.96-1.12,1.32-2.2,1.32h-1.6c-2.12,0-3.16-1.04-3.16-3.16v-16.24
		h2.76v15.8c0,1.04,0.2,1.24,1.24,1.24h1.6c0.96,0,1.36-0.36,1.36-1.44v-15.6H1414.69z"/>
	<path class="st13" d="M1424.85,311.68c2.12,0,3.16,1.04,3.16,3.16v16.24h-2.76v-15.8c0-1.04-0.2-1.24-1.24-1.24h-1.6
		c-0.96,0-1.36,0.36-1.36,1.44v15.6h-2.76v-19.4h2.76V313c0.32-0.96,1.12-1.32,2.2-1.32H1424.85z"/>
	<path class="st13" d="M1431.53,304.28h2.92v3.24h-2.92V304.28z M1431.61,331.07v-19.4h2.76v19.4H1431.61z"/>
	<path class="st13" d="M1440.89,314.04v13.24c0,1.04,0.2,1.24,1.24,1.24h1.52v2.56h-2.36c-2.12,0-3.16-1.04-3.16-3.16v-13.88h-1.76
		v-2.36h1.76v-3.16h2.76v3.16h2.76v2.36H1440.89z"/>
	<path class="st13" d="M1447.21,311.68l3.12,17.48l2.92-17.48h2.76l-3.88,21.88c-0.4,2.08-1.68,3.16-3.8,3.16h-2.16v-2.36h1.32
		c1.04,0,1.76-0.24,2-1.24l0.48-2.04h-1.8l-3.72-19.4H1447.21z"/>
	<path class="st13" d="M1466.33,314.04v13.24c0,1.04,0.2,1.24,1.24,1.24h1.52v2.56h-2.36c-2.12,0-3.16-1.04-3.16-3.16v-13.88h-1.76
		v-2.36h1.76v-3.16h2.76v3.16h2.76v2.36H1466.33z"/>
	<path class="st13" d="M1478.33,311.68c2.12,0,3.16,1.04,3.16,3.16v13.08c0,2.12-1.04,3.16-3.16,3.16h-4.08
		c-2.12,0-3.16-1.04-3.16-3.16v-13.08c0-2.12,1.04-3.16,3.16-3.16H1478.33z M1478.77,315.28c0-1.04-0.2-1.24-1.24-1.24h-2.48
		c-1.04,0-1.24,0.2-1.24,1.24v12.2c0,1.04,0.2,1.24,1.24,1.24h2.48c1.04,0,1.24-0.2,1.24-1.24V315.28z"/>
	<path class="st13" d="M1500.13,304.32v26.76h-2.76v-17.04h-4.2v17.04h-2.76v-17.04h-1.92v-2.36h1.92v-4.2
		c0-2.12,1.04-3.16,3.16-3.16h1.68v2.56h-0.84c-1.04,0-1.24,0.2-1.24,1.24v3.56h4.2v-7.36H1500.13z"/>
	<path class="st13" d="M1505.09,311.68l3.12,17.48l2.92-17.48h2.76l-3.88,21.88c-0.4,2.08-1.68,3.16-3.8,3.16h-2.16v-2.36h1.32
		c1.04,0,1.76-0.24,2-1.24l0.48-2.04h-1.8l-3.72-19.4H1505.09z"/>
	<path class="st13" d="M1039.97,359.68c2.12,0,3.16,1.04,3.16,3.16v13.08c0,2.12-1.04,3.16-3.16,3.16h-4.08
		c-2.12,0-3.16-1.04-3.16-3.16v-13.08c0-2.12,1.04-3.16,3.16-3.16H1039.97z M1040.41,363.28c0-1.04-0.2-1.24-1.24-1.24h-2.48
		c-1.04,0-1.24,0.2-1.24,1.24v12.2c0,1.04,0.2,1.24,1.24,1.24h2.48c1.04,0,1.24-0.2,1.24-1.24V363.28z"/>
	<path class="st13" d="M1056.25,359.68v19.4h-2.76v-1.32c-0.32,0.96-1.12,1.32-2.2,1.32h-1.6c-2.12,0-3.16-1.04-3.16-3.16v-16.24
		h2.76v15.8c0,1.04,0.2,1.24,1.24,1.24h1.6c0.96,0,1.36-0.36,1.36-1.44v-15.6H1056.25z"/>
	<path class="st13" d="M1062.77,362.04v13.24c0,1.04,0.2,1.24,1.24,1.24h1.52v2.56h-2.36c-2.12,0-3.16-1.04-3.16-3.16v-13.88h-1.76
		v-2.36h1.76v-3.16h2.76v3.16h2.76v2.36H1062.77z"/>
	<path class="st13" d="M1082.45,359.68v19.4h-2.76v-1.32c-0.32,0.96-1.12,1.32-2.2,1.32h-1.6c-2.12,0-3.16-1.04-3.16-3.16v-13.08
		c0-2.12,1.04-3.16,3.16-3.16h1.6c1.08,0,1.88,0.36,2.2,1.32v-1.32H1082.45z M1078.33,376.71c0.96,0,1.36-0.36,1.36-1.44v-11.8
		c0-1.08-0.4-1.44-1.36-1.44h-1.6c-1.04,0-1.24,0.2-1.24,1.24v12.2c0,1.04,0.2,1.24,1.24,1.24H1078.33z"/>
	<path class="st13" d="M1092.61,359.68c2.12,0,3.16,1.04,3.16,3.16v16.24h-2.76v-15.8c0-1.04-0.2-1.24-1.24-1.24h-1.6
		c-0.96,0-1.36,0.36-1.36,1.44v15.6h-2.76v-19.4h2.76V361c0.32-0.96,1.12-1.32,2.2-1.32H1092.61z"/>
	<path class="st13" d="M1108.89,352.32v26.76h-2.76v-1.32c-0.32,0.96-1.12,1.32-2.2,1.32h-1.6c-2.12,0-3.16-1.04-3.16-3.16V362.8
		c0-2.12,1.04-3.16,3.16-3.16h1.6c1.08,0,1.88,0.36,2.2,1.32v-8.64H1108.89z M1104.77,376.71c0.96,0,1.36-0.36,1.36-1.44v-11.84
		c0-1.08-0.4-1.44-1.36-1.44h-1.6c-1.04,0-1.24,0.2-1.24,1.24v12.24c0,1.04,0.2,1.24,1.24,1.24H1104.77z"/>
	<path class="st13" d="M1127.21,359.68v19.4h-2.76v-1.32c-0.32,0.96-1.12,1.32-2.2,1.32h-1.6c-2.12,0-3.16-1.04-3.16-3.16v-13.08
		c0-2.12,1.04-3.16,3.16-3.16h1.6c1.08,0,1.88,0.36,2.2,1.32v-1.32H1127.21z M1123.09,376.71c0.96,0,1.36-0.36,1.36-1.44v-11.8
		c0-1.08-0.4-1.44-1.36-1.44h-1.6c-1.04,0-1.24,0.2-1.24,1.24v12.2c0,1.04,0.2,1.24,1.24,1.24H1123.09z"/>
	<path class="st13" d="M1137.29,359.68v2.4h-1.2c-1.76,0-2.52,0.96-2.52,3v14h-2.76v-19.4h2.76v2.24c0.36-1.12,1.32-2.24,2.88-2.24
		H1137.29z"/>
	<path class="st13" d="M1146.33,359.68c2.12,0,3.16,1.04,3.16,3.16v13.08c0,2.12-1.04,3.16-3.16,3.16h-4.08
		c-2.12,0-3.16-1.04-3.16-3.16v-13.08c0-2.12,1.04-3.16,3.16-3.16H1146.33z M1146.76,363.28c0-1.04-0.2-1.24-1.24-1.24h-2.48
		c-1.04,0-1.24,0.2-1.24,1.24v12.2c0,1.04,0.2,1.24,1.24,1.24h2.48c1.04,0,1.24-0.2,1.24-1.24V363.28z"/>
	<path class="st13" d="M1162.6,359.68v19.4h-2.76v-1.32c-0.32,0.96-1.12,1.32-2.2,1.32h-1.6c-2.12,0-3.16-1.04-3.16-3.16v-16.24
		h2.76v15.8c0,1.04,0.2,1.24,1.24,1.24h1.6c0.96,0,1.36-0.36,1.36-1.44v-15.6H1162.6z"/>
	<path class="st13" d="M1172.76,359.68c2.12,0,3.16,1.04,3.16,3.16v16.24h-2.76v-15.8c0-1.04-0.2-1.24-1.24-1.24h-1.6
		c-0.96,0-1.36,0.36-1.36,1.44v15.6h-2.76v-19.4h2.76V361c0.32-0.96,1.12-1.32,2.2-1.32H1172.76z"/>
	<path class="st13" d="M1189.04,352.32v26.76h-2.76v-1.32c-0.32,0.96-1.12,1.32-2.2,1.32h-1.6c-2.12,0-3.16-1.04-3.16-3.16V362.8
		c0-2.12,1.04-3.16,3.16-3.16h1.6c1.08,0,1.88,0.36,2.2,1.32v-8.64H1189.04z M1184.92,376.71c0.96,0,1.36-0.36,1.36-1.44v-11.84
		c0-1.08-0.4-1.44-1.36-1.44h-1.6c-1.04,0-1.24,0.2-1.24,1.24v12.24c0,1.04,0.2,1.24,1.24,1.24H1184.92z"/>
	<path class="st13" d="M1200.76,362.04v13.24c0,1.04,0.2,1.24,1.24,1.24h1.52v2.56h-2.36c-2.12,0-3.16-1.04-3.16-3.16v-13.88h-1.76
		v-2.36h1.76v-3.16h2.76v3.16h2.76v2.36H1200.76z"/>
	<path class="st13" d="M1212.28,359.68c2.12,0,3.16,1.04,3.16,3.16v16.24h-2.76v-15.8c0-1.04-0.2-1.24-1.24-1.24h-1.6
		c-0.96,0-1.36,0.36-1.36,1.44v15.6h-2.76v-26.76h2.76V361c0.32-0.96,1.12-1.32,2.2-1.32H1212.28z"/>
	<path class="st13" d="M1225.88,359.68c2.12,0,3.16,1.04,3.16,3.16v7.48h-7.24v5.16c0,1.04,0.2,1.24,1.24,1.24h1.88
		c1.04,0,1.24-0.2,1.24-1.24v-1.76h2.76v2.2c0,2.12-1.04,3.16-3.16,3.16h-3.56c-2.12,0-3.16-1.04-3.16-3.16v-13.08
		c0-2.12,1.04-3.16,3.16-3.16H1225.88z M1226.28,367.96v-4.68c0-1.04-0.2-1.24-1.24-1.24h-2c-1.04,0-1.24,0.2-1.24,1.24v4.68
		H1226.28z"/>
	<path class="st13" d="M1250.96,359.68c2.12,0,3.16,1.04,3.16,3.16v16.24h-2.76v-15.8c0-1.04-0.2-1.24-1.24-1.24h-1.6
		c-0.96,0-1.36,0.36-1.36,1.44v15.6h-2.76v-15.8c0-1.04-0.2-1.24-1.24-1.24h-1.6c-0.96,0-1.36,0.36-1.36,1.44v15.6h-2.76v-19.4h2.76
		V361c0.32-0.96,1.12-1.32,2.2-1.32h1.6c1.52,0,2.48,0.52,2.92,1.6c0.28-1.16,1.2-1.6,2.44-1.6H1250.96z"/>
	<path class="st13" d="M1264.56,359.68c2.12,0,3.16,1.04,3.16,3.16v13.08c0,2.12-1.04,3.16-3.16,3.16h-4.08
		c-2.12,0-3.16-1.04-3.16-3.16v-13.08c0-2.12,1.04-3.16,3.16-3.16H1264.56z M1265,363.28c0-1.04-0.2-1.24-1.24-1.24h-2.48
		c-1.04,0-1.24,0.2-1.24,1.24v12.2c0,1.04,0.2,1.24,1.24,1.24h2.48c1.04,0,1.24-0.2,1.24-1.24V363.28z"/>
	<path class="st13" d="M1278.16,359.68c2.12,0,3.16,1.04,3.16,3.16v13.08c0,2.12-1.04,3.16-3.16,3.16h-4.08
		c-2.12,0-3.16-1.04-3.16-3.16v-13.08c0-2.12,1.04-3.16,3.16-3.16H1278.16z M1278.6,363.28c0-1.04-0.2-1.24-1.24-1.24h-2.48
		c-1.04,0-1.24,0.2-1.24,1.24v12.2c0,1.04,0.2,1.24,1.24,1.24h2.48c1.04,0,1.24-0.2,1.24-1.24V363.28z"/>
	<path class="st13" d="M1291.28,359.68c2.12,0,3.16,1.04,3.16,3.16v16.24h-2.76v-15.8c0-1.04-0.2-1.24-1.24-1.24h-1.6
		c-0.96,0-1.36,0.36-1.36,1.44v15.6h-2.76v-19.4h2.76V361c0.32-0.96,1.12-1.32,2.2-1.32H1291.28z"/>
	<path class="st13" d="M1300.72,374.59v2.32l-2.2,7.64h-1.08v-9.96H1300.72z"/>
	<path class="st13" d="M1318.44,359.68v19.4h-2.76v-1.32c-0.32,0.96-1.12,1.32-2.2,1.32h-1.6c-2.12,0-3.16-1.04-3.16-3.16v-13.08
		c0-2.12,1.04-3.16,3.16-3.16h1.6c1.08,0,1.88,0.36,2.2,1.32v-1.32H1318.44z M1314.32,376.71c0.96,0,1.36-0.36,1.36-1.44v-11.8
		c0-1.08-0.4-1.44-1.36-1.44h-1.6c-1.04,0-1.24,0.2-1.24,1.24v12.2c0,1.04,0.2,1.24,1.24,1.24H1314.32z"/>
	<path class="st13" d="M1328.6,359.68c2.12,0,3.16,1.04,3.16,3.16v16.24H1329v-15.8c0-1.04-0.2-1.24-1.24-1.24h-1.6
		c-0.96,0-1.36,0.36-1.36,1.44v15.6h-2.76v-19.4h2.76V361c0.32-0.96,1.12-1.32,2.2-1.32H1328.6z"/>
	<path class="st13" d="M1344.88,352.32v26.76h-2.76v-1.32c-0.32,0.96-1.12,1.32-2.2,1.32h-1.6c-2.12,0-3.16-1.04-3.16-3.16V362.8
		c0-2.12,1.04-3.16,3.16-3.16h1.6c1.08,0,1.88,0.36,2.2,1.32v-8.64H1344.88z M1340.76,376.71c0.96,0,1.36-0.36,1.36-1.44v-11.84
		c0-1.08-0.4-1.44-1.36-1.44h-1.6c-1.04,0-1.24,0.2-1.24,1.24v12.24c0,1.04,0.2,1.24,1.24,1.24H1340.76z"/>
	<path class="st13" d="M1356.59,362.04v13.24c0,1.04,0.2,1.24,1.24,1.24h1.52v2.56h-2.36c-2.12,0-3.16-1.04-3.16-3.16v-13.88h-1.76
		v-2.36h1.76v-3.16h2.76v3.16h2.76v2.36H1356.59z"/>
	<path class="st13" d="M1368.11,359.68c2.12,0,3.16,1.04,3.16,3.16v16.24h-2.76v-15.8c0-1.04-0.2-1.24-1.24-1.24h-1.6
		c-0.96,0-1.36,0.36-1.36,1.44v15.6h-2.76v-26.76h2.76V361c0.32-0.96,1.12-1.32,2.2-1.32H1368.11z"/>
	<path class="st13" d="M1381.71,359.68c2.12,0,3.16,1.04,3.16,3.16v7.48h-7.24v5.16c0,1.04,0.2,1.24,1.24,1.24h1.88
		c1.04,0,1.24-0.2,1.24-1.24v-1.76h2.76v2.2c0,2.12-1.04,3.16-3.16,3.16h-3.56c-2.12,0-3.16-1.04-3.16-3.16v-13.08
		c0-2.12,1.04-3.16,3.16-3.16H1381.71z M1382.11,367.96v-4.68c0-1.04-0.2-1.24-1.24-1.24h-2c-1.04,0-1.24,0.2-1.24,1.24v4.68
		H1382.11z"/>
	<path class="st13" d="M1394.63,359.68c2.12,0,3.16,1.04,3.16,3.16v16.24h-2.76v-15.8c0-1.04-0.2-1.24-1.24-1.24h-1.6
		c-0.96,0-1.36,0.36-1.36,1.44v15.6h-2.76v-19.4h2.76V361c0.32-0.96,1.12-1.32,2.2-1.32H1394.63z"/>
	<path class="st13" d="M1413.07,359.68v2.4h-1.2c-1.76,0-2.52,0.96-2.52,3v14h-2.76v-19.4h2.76v2.24c0.36-1.12,1.32-2.24,2.88-2.24
		H1413.07z"/>
	<path class="st13" d="M1421.91,359.68c2.12,0,3.16,1.04,3.16,3.16v7.48h-7.24v5.16c0,1.04,0.2,1.24,1.24,1.24h1.88
		c1.04,0,1.24-0.2,1.24-1.24v-1.76h2.76v2.2c0,2.12-1.04,3.16-3.16,3.16h-3.56c-2.12,0-3.16-1.04-3.16-3.16v-13.08
		c0-2.12,1.04-3.16,3.16-3.16H1421.91z M1422.31,367.96v-4.68c0-1.04-0.2-1.24-1.24-1.24h-2c-1.04,0-1.24,0.2-1.24,1.24v4.68
		H1422.31z"/>
	<path class="st13" d="M1431.19,362.04v13.24c0,1.04,0.2,1.24,1.24,1.24h1.52v2.56h-2.36c-2.12,0-3.16-1.04-3.16-3.16v-13.88h-1.76
		v-2.36h1.76v-3.16h2.76v3.16h2.76v2.36H1431.19z"/>
	<path class="st13" d="M1445.87,359.68v19.4h-2.76v-1.32c-0.32,0.96-1.12,1.32-2.2,1.32h-1.6c-2.12,0-3.16-1.04-3.16-3.16v-16.24
		h2.76v15.8c0,1.04,0.2,1.24,1.24,1.24h1.6c0.96,0,1.36-0.36,1.36-1.44v-15.6H1445.87z"/>
	<path class="st13" d="M1455.95,359.68v2.4h-1.2c-1.76,0-2.52,0.96-2.52,3v14h-2.76v-19.4h2.76v2.24c0.36-1.12,1.32-2.24,2.88-2.24
		H1455.95z"/>
	<path class="st13" d="M1464.51,359.68c2.12,0,3.16,1.04,3.16,3.16v16.24h-2.76v-15.8c0-1.04-0.2-1.24-1.24-1.24h-1.6
		c-0.96,0-1.36,0.36-1.36,1.44v15.6h-2.76v-19.4h2.76V361c0.32-0.96,1.12-1.32,2.2-1.32H1464.51z"/>
	<path class="st13" d="M1479.39,362.04v13.24c0,1.04,0.2,1.24,1.24,1.24h1.52v2.56h-2.36c-2.12,0-3.16-1.04-3.16-3.16v-13.88h-1.76
		v-2.36h1.76v-3.16h2.76v3.16h2.76v2.36H1479.39z"/>
	<path class="st13" d="M1491.39,359.68c2.12,0,3.16,1.04,3.16,3.16v13.08c0,2.12-1.04,3.16-3.16,3.16h-4.08
		c-2.12,0-3.16-1.04-3.16-3.16v-13.08c0-2.12,1.04-3.16,3.16-3.16H1491.39z M1491.83,363.28c0-1.04-0.2-1.24-1.24-1.24h-2.48
		c-1.04,0-1.24,0.2-1.24,1.24v12.2c0,1.04,0.2,1.24,1.24,1.24h2.48c1.04,0,1.24-0.2,1.24-1.24V363.28z"/>
	<path class="st13" d="M1017.09,424.71v2.36h-9.6V402.2h9.32v2.36h-6.56v8.4h5.36v2.36h-5.36v9.4H1017.09z"/>
	<path class="st13" d="M1029.21,407.68v19.4h-2.76v-1.32c-0.32,0.96-1.12,1.32-2.2,1.32h-1.6c-2.12,0-3.16-1.04-3.16-3.16v-13.08
		c0-2.12,1.04-3.16,3.16-3.16h1.6c1.08,0,1.88,0.36,2.2,1.32v-1.32H1029.21z M1025.09,424.71c0.96,0,1.36-0.36,1.36-1.44v-11.8
		c0-1.08-0.4-1.44-1.36-1.44h-1.6c-1.04,0-1.24,0.2-1.24,1.24v12.2c0,1.04,0.2,1.24,1.24,1.24H1025.09z"/>
	<path class="st13" d="M1039.29,407.68v2.4h-1.2c-1.76,0-2.52,0.96-2.52,3v14h-2.76v-19.4h2.76v2.24c0.36-1.12,1.32-2.24,2.88-2.24
		H1039.29z"/>
	<path class="st13" d="M1044.21,410.04v13.24c0,1.04,0.2,1.24,1.24,1.24h1.52v2.56h-2.36c-2.12,0-3.16-1.04-3.16-3.16v-13.88h-1.76
		v-2.36h1.76v-3.16h2.76v3.16h2.76v2.36H1044.21z"/>
	<path class="st13" d="M1055.73,407.68c2.12,0,3.16,1.04,3.16,3.16v16.24h-2.76v-15.8c0-1.04-0.2-1.24-1.24-1.24h-1.6
		c-0.96,0-1.36,0.36-1.36,1.44v15.6h-2.76v-26.76h2.76V409c0.32-0.96,1.12-1.32,2.2-1.32H1055.73z"/>
	<path class="st13" d="M1061.89,422.59h3.28v4.48h-3.28V422.59z"/>
	<path class="st13" d="M1080.89,420.75h-5.04l-0.92,6.32h-2.76l3.88-24.88h4.36l4.28,24.88h-2.76L1080.89,420.75z M1080.53,418.4
		l-2.32-14.28l-2.04,14.28H1080.53z"/>
	<path class="st13" d="M1093.05,419.83c0-1.04-0.2-1.24-1.24-1.24h-1.96c-2.12,0-3.16-1.04-3.16-3.16v-4.6
		c0-2.12,1.04-3.16,3.16-3.16h2.72c2.12,0,3.16,1.04,3.16,3.16v1.96h-2.72v-1.56c0-1.04-0.2-1.24-1.24-1.24h-1.12
		c-1.04,0-1.24,0.2-1.24,1.24v3.8c0,1.04,0.2,1.24,1.24,1.24h1.96c2.12,0,3.16,1.04,3.16,3.16v4.48c0,2.12-1.04,3.16-3.16,3.16
		h-2.68c-2.12,0-3.16-1.04-3.16-3.16v-1.96h2.72v1.56c0,1.04,0.2,1.24,1.24,1.24h1.08c1.04,0,1.24-0.2,1.24-1.24V419.83z"/>
	<path class="st13" d="M1101.89,410.04v13.24c0,1.04,0.2,1.24,1.24,1.24h1.52v2.56h-2.36c-2.12,0-3.16-1.04-3.16-3.16v-13.88h-1.76
		v-2.36h1.76v-3.16h2.76v3.16h2.76v2.36H1101.89z"/>
	<path class="st13" d="M1113.33,407.68v2.4h-1.2c-1.76,0-2.52,0.96-2.52,3v14h-2.76v-19.4h2.76v2.24c0.36-1.12,1.32-2.24,2.88-2.24
		H1113.33z"/>
	<path class="st13" d="M1122.37,407.68c2.12,0,3.16,1.04,3.16,3.16v13.08c0,2.12-1.04,3.16-3.16,3.16h-4.08
		c-2.12,0-3.16-1.04-3.16-3.16v-13.08c0-2.12,1.04-3.16,3.16-3.16H1122.37z M1122.81,411.28c0-1.04-0.2-1.24-1.24-1.24h-2.48
		c-1.04,0-1.24,0.2-1.24,1.24v12.2c0,1.04,0.2,1.24,1.24,1.24h2.48c1.04,0,1.24-0.2,1.24-1.24V411.28z"/>
	<path class="st13" d="M1135.49,407.68c2.12,0,3.16,1.04,3.16,3.16v16.24h-2.76v-15.8c0-1.04-0.2-1.24-1.24-1.24h-1.6
		c-0.96,0-1.36,0.36-1.36,1.44v15.6h-2.76v-19.4h2.76V409c0.32-0.96,1.12-1.32,2.2-1.32H1135.49z"/>
	<path class="st13" d="M1151.77,407.68v19.4h-2.76v-1.32c-0.32,0.96-1.12,1.32-2.2,1.32h-1.6c-2.12,0-3.16-1.04-3.16-3.16v-13.08
		c0-2.12,1.04-3.16,3.16-3.16h1.6c1.08,0,1.88,0.36,2.2,1.32v-1.32H1151.77z M1147.65,424.71c0.96,0,1.36-0.36,1.36-1.44v-11.8
		c0-1.08-0.4-1.44-1.36-1.44h-1.6c-1.04,0-1.24,0.2-1.24,1.24v12.2c0,1.04,0.2,1.24,1.24,1.24H1147.65z"/>
	<path class="st13" d="M1165.08,407.68v19.4h-2.76v-1.32c-0.32,0.96-1.12,1.32-2.2,1.32h-1.6c-2.12,0-3.16-1.04-3.16-3.16v-16.24
		h2.76v15.8c0,1.04,0.2,1.24,1.24,1.24h1.6c0.96,0,1.36-0.36,1.36-1.44v-15.6H1165.08z"/>
	<path class="st13" d="M1171.6,410.04v13.24c0,1.04,0.2,1.24,1.24,1.24h1.52v2.56H1172c-2.12,0-3.16-1.04-3.16-3.16v-13.88h-1.76
		v-2.36h1.76v-3.16h2.76v3.16h2.76v2.36H1171.6z"/>
	<path class="st13" d="M1182.52,419.83c0-1.04-0.2-1.24-1.24-1.24h-1.96c-2.12,0-3.16-1.04-3.16-3.16v-4.6
		c0-2.12,1.04-3.16,3.16-3.16h2.72c2.12,0,3.16,1.04,3.16,3.16v1.96h-2.72v-1.56c0-1.04-0.2-1.24-1.24-1.24h-1.12
		c-1.04,0-1.24,0.2-1.24,1.24v3.8c0,1.04,0.2,1.24,1.24,1.24h1.96c2.12,0,3.16,1.04,3.16,3.16v4.48c0,2.12-1.04,3.16-3.16,3.16
		h-2.68c-2.12,0-3.16-1.04-3.16-3.16v-1.96h2.72v1.56c0,1.04,0.2,1.24,1.24,1.24h1.08c1.04,0,1.24-0.2,1.24-1.24V419.83z"/>
	<path class="st13" d="M1211.92,407.68l-3.44,19.4h-4.2l-2.32-15.56l-2.28,15.56h-4.2l-3.44-19.4h2.64l2.88,17.48l2.52-17.48h3.8
		l2.48,17.48l2.92-17.48H1211.92z"/>
	<path class="st13" d="M1213.84,400.28h2.92v3.24h-2.92V400.28z M1213.92,427.07v-19.4h2.76v19.4H1213.92z"/>
	<path class="st13" d="M1220.28,427.07v-26.76h2.76v26.76H1220.28z"/>
	<path class="st13" d="M1226.64,427.07v-26.76h2.76v26.76H1226.64z"/>
	<path class="st13" d="M1244.76,407.68c2.12,0,3.16,1.04,3.16,3.16v16.24h-2.76v-15.8c0-1.04-0.2-1.24-1.24-1.24h-1.6
		c-0.96,0-1.36,0.36-1.36,1.44v15.6h-2.76v-26.76h2.76V409c0.32-0.96,1.12-1.32,2.2-1.32H1244.76z"/>
	<path class="st13" d="M1261.04,407.68v19.4h-2.76v-1.32c-0.32,0.96-1.12,1.32-2.2,1.32h-1.6c-2.12,0-3.16-1.04-3.16-3.16v-13.08
		c0-2.12,1.04-3.16,3.16-3.16h1.6c1.08,0,1.88,0.36,2.2,1.32v-1.32H1261.04z M1256.92,424.71c0.96,0,1.36-0.36,1.36-1.44v-11.8
		c0-1.08-0.4-1.44-1.36-1.44h-1.6c-1.04,0-1.24,0.2-1.24,1.24v12.2c0,1.04,0.2,1.24,1.24,1.24H1256.92z"/>
	<path class="st13" d="M1268.4,425.15l2.64-17.48h2.76l-3.2,19.4h-4.36l-3.2-19.4h2.76L1268.4,425.15z"/>
	<path class="st13" d="M1282.64,407.68c2.12,0,3.16,1.04,3.16,3.16v7.48h-7.24v5.16c0,1.04,0.2,1.24,1.24,1.24h1.88
		c1.04,0,1.24-0.2,1.24-1.24v-1.76h2.76v2.2c0,2.12-1.04,3.16-3.16,3.16h-3.56c-2.12,0-3.16-1.04-3.16-3.16v-13.08
		c0-2.12,1.04-3.16,3.16-3.16H1282.64z M1283.04,415.96v-4.68c0-1.04-0.2-1.24-1.24-1.24h-2c-1.04,0-1.24,0.2-1.24,1.24v4.68
		H1283.04z"/>
	<path class="st13" d="M1303.72,407.68v19.4h-2.76v-1.32c-0.32,0.96-1.12,1.32-2.2,1.32h-1.6c-2.12,0-3.16-1.04-3.16-3.16v-13.08
		c0-2.12,1.04-3.16,3.16-3.16h1.6c1.08,0,1.88,0.36,2.2,1.32v-1.32H1303.72z M1299.6,424.71c0.96,0,1.36-0.36,1.36-1.44v-11.8
		c0-1.08-0.4-1.44-1.36-1.44h-1.6c-1.04,0-1.24,0.2-1.24,1.24v12.2c0,1.04,0.2,1.24,1.24,1.24H1299.6z"/>
	<path class="st13" d="M1319.56,413.44v-2.16c0-1.04-0.2-1.24-1.24-1.24h-2c-1.04,0-1.24,0.2-1.24,1.24v12.2
		c0,1.04,0.2,1.24,1.24,1.24h2c1.04,0,1.24-0.2,1.24-1.24v-2.16h2.76v2.6c0,2.12-1.04,3.16-3.16,3.16h-3.68
		c-2.12,0-3.16-1.04-3.16-3.16v-13.08c0-2.12,1.04-3.16,3.16-3.16h3.68c2.12,0,3.16,1.04,3.16,3.16v2.6H1319.56z"/>
	<path class="st13" d="M1332.08,407.68c2.12,0,3.16,1.04,3.16,3.16v16.24h-2.76v-15.8c0-1.04-0.2-1.24-1.24-1.24h-1.6
		c-0.96,0-1.36,0.36-1.36,1.44v15.6h-2.76v-26.76h2.76V409c0.32-0.96,1.12-1.32,2.2-1.32H1332.08z"/>
	<path class="st13" d="M1348.35,407.68v19.4h-2.76v-1.32c-0.32,0.96-1.12,1.32-2.2,1.32h-1.6c-2.12,0-3.16-1.04-3.16-3.16v-13.08
		c0-2.12,1.04-3.16,3.16-3.16h1.6c1.08,0,1.88,0.36,2.2,1.32v-1.32H1348.35z M1344.24,424.71c0.96,0,1.36-0.36,1.36-1.44v-11.8
		c0-1.08-0.4-1.44-1.36-1.44h-1.6c-1.04,0-1.24,0.2-1.24,1.24v12.2c0,1.04,0.2,1.24,1.24,1.24H1344.24z"/>
	<path class="st13" d="M1358.51,407.68c2.12,0,3.16,1.04,3.16,3.16v16.24h-2.76v-15.8c0-1.04-0.2-1.24-1.24-1.24h-1.6
		c-0.96,0-1.36,0.36-1.36,1.44v15.6h-2.76v-19.4h2.76V409c0.32-0.96,1.12-1.32,2.2-1.32H1358.51z"/>
	<path class="st13" d="M1372.31,413.44v-2.16c0-1.04-0.2-1.24-1.24-1.24h-2c-1.04,0-1.24,0.2-1.24,1.24v12.2
		c0,1.04,0.2,1.24,1.24,1.24h2c1.04,0,1.24-0.2,1.24-1.24v-2.16h2.76v2.6c0,2.12-1.04,3.16-3.16,3.16h-3.68
		c-2.12,0-3.16-1.04-3.16-3.16v-13.08c0-2.12,1.04-3.16,3.16-3.16h3.68c2.12,0,3.16,1.04,3.16,3.16v2.6H1372.31z"/>
	<path class="st13" d="M1385.11,407.68c2.12,0,3.16,1.04,3.16,3.16v7.48h-7.24v5.16c0,1.04,0.2,1.24,1.24,1.24h1.88
		c1.04,0,1.24-0.2,1.24-1.24v-1.76h2.76v2.2c0,2.12-1.04,3.16-3.16,3.16h-3.56c-2.12,0-3.16-1.04-3.16-3.16v-13.08
		c0-2.12,1.04-3.16,3.16-3.16H1385.11z M1385.51,415.96v-4.68c0-1.04-0.2-1.24-1.24-1.24h-2c-1.04,0-1.24,0.2-1.24,1.24v4.68
		H1385.51z"/>
	<path class="st13" d="M1399.59,410.04v13.24c0,1.04,0.2,1.24,1.24,1.24h1.52v2.56h-2.36c-2.12,0-3.16-1.04-3.16-3.16v-13.88h-1.76
		v-2.36h1.76v-3.16h2.76v3.16h2.76v2.36H1399.59z"/>
	<path class="st13" d="M1411.59,407.68c2.12,0,3.16,1.04,3.16,3.16v13.08c0,2.12-1.04,3.16-3.16,3.16h-4.08
		c-2.12,0-3.16-1.04-3.16-3.16v-13.08c0-2.12,1.04-3.16,3.16-3.16H1411.59z M1412.03,411.28c0-1.04-0.2-1.24-1.24-1.24h-2.48
		c-1.04,0-1.24,0.2-1.24,1.24v12.2c0,1.04,0.2,1.24,1.24,1.24h2.48c1.04,0,1.24-0.2,1.24-1.24V411.28z"/>
	<path class="st13" d="M1430.39,413.44v-2.16c0-1.04-0.2-1.24-1.24-1.24h-2c-1.04,0-1.24,0.2-1.24,1.24v12.2
		c0,1.04,0.2,1.24,1.24,1.24h2c1.04,0,1.24-0.2,1.24-1.24v-2.16h2.76v2.6c0,2.12-1.04,3.16-3.16,3.16h-3.68
		c-2.12,0-3.16-1.04-3.16-3.16v-13.08c0-2.12,1.04-3.16,3.16-3.16h3.68c2.12,0,3.16,1.04,3.16,3.16v2.6H1430.39z"/>
	<path class="st13" d="M1443.39,407.68c2.12,0,3.16,1.04,3.16,3.16v13.08c0,2.12-1.04,3.16-3.16,3.16h-4.08
		c-2.12,0-3.16-1.04-3.16-3.16v-13.08c0-2.12,1.04-3.16,3.16-3.16H1443.39z M1443.83,411.28c0-1.04-0.2-1.24-1.24-1.24h-2.48
		c-1.04,0-1.24,0.2-1.24,1.24v12.2c0,1.04,0.2,1.24,1.24,1.24h2.48c1.04,0,1.24-0.2,1.24-1.24V411.28z"/>
	<path class="st13" d="M1463.47,407.68c2.12,0,3.16,1.04,3.16,3.16v16.24h-2.76v-15.8c0-1.04-0.2-1.24-1.24-1.24h-1.6
		c-0.96,0-1.36,0.36-1.36,1.44v15.6h-2.76v-15.8c0-1.04-0.2-1.24-1.24-1.24h-1.6c-0.96,0-1.36,0.36-1.36,1.44v15.6h-2.76v-19.4h2.76
		V409c0.32-0.96,1.12-1.32,2.2-1.32h1.6c1.52,0,2.48,0.52,2.92,1.6c0.28-1.16,1.2-1.6,2.44-1.6H1463.47z"/>
	<path class="st13" d="M1476.59,407.68c2.12,0,3.16,1.04,3.16,3.16v13.08c0,2.12-1.04,3.16-3.16,3.16h-1.6
		c-1.08,0-1.88-0.36-2.2-1.32v6.96h-2.76v-25.04h2.76V409c0.32-0.96,1.12-1.32,2.2-1.32H1476.59z M1476.99,411.28
		c0-1.04-0.2-1.24-1.24-1.24h-1.6c-0.96,0-1.36,0.36-1.36,1.44v11.8c0,1.08,0.4,1.44,1.36,1.44h1.6c1.04,0,1.24-0.2,1.24-1.24
		V411.28z"/>
	<path class="st13" d="M1483.15,427.07v-26.76h2.76v26.76H1483.15z"/>
	<path class="st13" d="M1496.35,407.68c2.12,0,3.16,1.04,3.16,3.16v7.48h-7.24v5.16c0,1.04,0.2,1.24,1.24,1.24h1.88
		c1.04,0,1.24-0.2,1.24-1.24v-1.76h2.76v2.2c0,2.12-1.04,3.16-3.16,3.16h-3.56c-2.12,0-3.16-1.04-3.16-3.16v-13.08
		c0-2.12,1.04-3.16,3.16-3.16H1496.35z M1496.75,415.96v-4.68c0-1.04-0.2-1.24-1.24-1.24h-2c-1.04,0-1.24,0.2-1.24,1.24v4.68
		H1496.75z"/>
	<path class="st13" d="M1505.63,410.04v13.24c0,1.04,0.2,1.24,1.24,1.24h1.52v2.56h-2.36c-2.12,0-3.16-1.04-3.16-3.16v-13.88h-1.76
		v-2.36h1.76v-3.16h2.76v3.16h2.76v2.36H1505.63z"/>
	<path class="st13" d="M1517.43,407.68c2.12,0,3.16,1.04,3.16,3.16v7.48h-7.24v5.16c0,1.04,0.2,1.24,1.24,1.24h1.88
		c1.04,0,1.24-0.2,1.24-1.24v-1.76h2.76v2.2c0,2.12-1.04,3.16-3.16,3.16h-3.56c-2.12,0-3.16-1.04-3.16-3.16v-13.08
		c0-2.12,1.04-3.16,3.16-3.16H1517.43z M1517.83,415.96v-4.68c0-1.04-0.2-1.24-1.24-1.24h-2c-1.04,0-1.24,0.2-1.24,1.24v4.68
		H1517.83z"/>
	<path class="st13" d="M1058.25,455.68v19.4h-2.76v-1.32c-0.32,0.96-1.12,1.32-2.2,1.32h-1.6c-2.12,0-3.16-1.04-3.16-3.16v-13.08
		c0-2.12,1.04-3.16,3.16-3.16h1.6c1.08,0,1.88,0.36,2.2,1.32v-1.32H1058.25z M1054.13,472.71c0.96,0,1.36-0.36,1.36-1.44v-11.8
		c0-1.08-0.4-1.44-1.36-1.44h-1.6c-1.04,0-1.24,0.2-1.24,1.24v12.2c0,1.04,0.2,1.24,1.24,1.24H1054.13z"/>
	<path class="st13" d="M1073.01,467.83c0-1.04-0.2-1.24-1.24-1.24h-1.96c-2.12,0-3.16-1.04-3.16-3.16v-4.6
		c0-2.12,1.04-3.16,3.16-3.16h2.72c2.12,0,3.16,1.04,3.16,3.16v1.96h-2.72v-1.56c0-1.04-0.2-1.24-1.24-1.24h-1.12
		c-1.04,0-1.24,0.2-1.24,1.24v3.8c0,1.04,0.2,1.24,1.24,1.24h1.96c2.12,0,3.16,1.04,3.16,3.16v4.48c0,2.12-1.04,3.16-3.16,3.16
		h-2.68c-2.12,0-3.16-1.04-3.16-3.16v-1.96h2.72v1.56c0,1.04,0.2,1.24,1.24,1.24h1.08c1.04,0,1.24-0.2,1.24-1.24V467.83z"/>
	<path class="st13" d="M1085.49,455.68c2.12,0,3.16,1.04,3.16,3.16v13.08c0,2.12-1.04,3.16-3.16,3.16h-1.6
		c-1.08,0-1.88-0.36-2.2-1.32v6.96h-2.76v-25.04h2.76V457c0.32-0.96,1.12-1.32,2.2-1.32H1085.49z M1085.89,459.28
		c0-1.04-0.2-1.24-1.24-1.24h-1.6c-0.96,0-1.36,0.36-1.36,1.44v11.8c0,1.08,0.4,1.44,1.36,1.44h1.6c1.04,0,1.24-0.2,1.24-1.24
		V459.28z"/>
	<path class="st13" d="M1101.57,455.68v19.4h-2.76v-1.32c-0.32,0.96-1.12,1.32-2.2,1.32h-1.6c-2.12,0-3.16-1.04-3.16-3.16v-13.08
		c0-2.12,1.04-3.16,3.16-3.16h1.6c1.08,0,1.88,0.36,2.2,1.32v-1.32H1101.57z M1097.45,472.71c0.96,0,1.36-0.36,1.36-1.44v-11.8
		c0-1.08-0.4-1.44-1.36-1.44h-1.6c-1.04,0-1.24,0.2-1.24,1.24v12.2c0,1.04,0.2,1.24,1.24,1.24H1097.45z"/>
	<path class="st13" d="M1112.21,461.44v-2.16c0-1.04-0.2-1.24-1.24-1.24h-2c-1.04,0-1.24,0.2-1.24,1.24v12.2
		c0,1.04,0.2,1.24,1.24,1.24h2c1.04,0,1.24-0.2,1.24-1.24v-2.16h2.76v2.6c0,2.12-1.04,3.16-3.16,3.16h-3.68
		c-2.12,0-3.16-1.04-3.16-3.16v-13.08c0-2.12,1.04-3.16,3.16-3.16h3.68c2.12,0,3.16,1.04,3.16,3.16v2.6H1112.21z"/>
	<path class="st13" d="M1125.01,455.68c2.12,0,3.16,1.04,3.16,3.16v7.48h-7.24v5.16c0,1.04,0.2,1.24,1.24,1.24h1.88
		c1.04,0,1.24-0.2,1.24-1.24v-1.76h2.76v2.2c0,2.12-1.04,3.16-3.16,3.16h-3.56c-2.12,0-3.16-1.04-3.16-3.16v-13.08
		c0-2.12,1.04-3.16,3.16-3.16H1125.01z M1125.41,463.96v-4.68c0-1.04-0.2-1.24-1.24-1.24h-2c-1.04,0-1.24,0.2-1.24,1.24v4.68
		H1125.41z"/>
	<path class="st13" d="M1154.84,455.68l-3.44,19.4h-4.2l-2.32-15.56l-2.28,15.56h-4.2l-3.44-19.4h2.64l2.88,17.48l2.52-17.48h3.8
		l2.48,17.48l2.92-17.48H1154.84z"/>
	<path class="st13" d="M1166.37,455.68v19.4h-2.76v-1.32c-0.32,0.96-1.12,1.32-2.2,1.32h-1.6c-2.12,0-3.16-1.04-3.16-3.16v-13.08
		c0-2.12,1.04-3.16,3.16-3.16h1.6c1.08,0,1.88,0.36,2.2,1.32v-1.32H1166.37z M1162.25,472.71c0.96,0,1.36-0.36,1.36-1.44v-11.8
		c0-1.08-0.4-1.44-1.36-1.44h-1.6c-1.04,0-1.24,0.2-1.24,1.24v12.2c0,1.04,0.2,1.24,1.24,1.24H1162.25z"/>
	<path class="st13" d="M1169.97,475.07v-26.76h2.76v26.76H1169.97z"/>
	<path class="st13" d="M1176.33,448.32h2.76v26.76h-2.76V448.32z M1182.8,464.84l4.52,10.24h-2.96l-4.4-10.24l4.4-9.16h2.96
		L1182.8,464.84z"/>
	<path class="st13" d="M1204.04,448.32v26.76h-2.76v-1.32c-0.32,0.96-1.12,1.32-2.2,1.32h-1.6c-2.12,0-3.16-1.04-3.16-3.16V458.8
		c0-2.12,1.04-3.16,3.16-3.16h1.6c1.08,0,1.88,0.36,2.2,1.32v-8.64H1204.04z M1199.92,472.71c0.96,0,1.36-0.36,1.36-1.44v-11.84
		c0-1.08-0.4-1.44-1.36-1.44h-1.6c-1.04,0-1.24,0.2-1.24,1.24v12.24c0,1.04,0.2,1.24,1.24,1.24H1199.92z"/>
	<path class="st13" d="M1217.36,455.68v19.4h-2.76v-1.32c-0.32,0.96-1.12,1.32-2.2,1.32h-1.6c-2.12,0-3.16-1.04-3.16-3.16v-16.24
		h2.76v15.8c0,1.04,0.2,1.24,1.24,1.24h1.6c0.96,0,1.36-0.36,1.36-1.44v-15.6H1217.36z"/>
	<path class="st13" d="M1227.44,455.68v2.4h-1.2c-1.76,0-2.52,0.96-2.52,3v14h-2.76v-19.4h2.76v2.24c0.36-1.12,1.32-2.24,2.88-2.24
		H1227.44z"/>
	<path class="st13" d="M1229.36,448.28h2.92v3.24h-2.92V448.28z M1229.44,475.07v-19.4h2.76v19.4H1229.44z"/>
	<path class="st13" d="M1242.36,455.68c2.12,0,3.16,1.04,3.16,3.16v16.24h-2.76v-15.8c0-1.04-0.2-1.24-1.24-1.24h-1.6
		c-0.96,0-1.36,0.36-1.36,1.44v15.6h-2.76v-19.4h2.76V457c0.32-0.96,1.12-1.32,2.2-1.32H1242.36z"/>
	<path class="st13" d="M1258.64,455.68v21.88c0,2.12-1.04,3.16-3.16,3.16h-5.96v-2.36h5.12c1.04,0,1.24-0.2,1.24-1.24v-3.36
		c-0.32,0.96-1.12,1.32-2.2,1.32h-1.6c-2.12,0-3.16-1.04-3.16-3.16v-13.08c0-2.12,1.04-3.16,3.16-3.16h1.6
		c1.08,0,1.88,0.36,2.2,1.32v-1.32H1258.64z M1254.52,472.71c0.96,0,1.36-0.36,1.36-1.44v-11.8c0-1.08-0.4-1.44-1.36-1.44h-1.6
		c-1.04,0-1.24,0.2-1.24,1.24v12.2c0,1.04,0.2,1.24,1.24,1.24H1254.52z"/>
	<path class="st13" d="M1270.36,458.04v13.24c0,1.04,0.2,1.24,1.24,1.24h1.52v2.56h-2.36c-2.12,0-3.16-1.04-3.16-3.16v-13.88h-1.76
		v-2.36h1.76v-3.16h2.76v3.16h2.76v2.36H1270.36z"/>
	<path class="st13" d="M1281.88,455.68c2.12,0,3.16,1.04,3.16,3.16v16.24h-2.76v-15.8c0-1.04-0.2-1.24-1.24-1.24h-1.6
		c-0.96,0-1.36,0.36-1.36,1.44v15.6h-2.76v-26.76h2.76V457c0.32-0.96,1.12-1.32,2.2-1.32H1281.88z"/>
	<path class="st13" d="M1295.48,455.68c2.12,0,3.16,1.04,3.16,3.16v7.48h-7.24v5.16c0,1.04,0.2,1.24,1.24,1.24h1.88
		c1.04,0,1.24-0.2,1.24-1.24v-1.76h2.76v2.2c0,2.12-1.04,3.16-3.16,3.16h-3.56c-2.12,0-3.16-1.04-3.16-3.16v-13.08
		c0-2.12,1.04-3.16,3.16-3.16H1295.48z M1295.88,463.96v-4.68c0-1.04-0.2-1.24-1.24-1.24h-2c-1.04,0-1.24,0.2-1.24,1.24v4.68
		H1295.88z"/>
	<path class="st13" d="M1309.96,458.04v13.24c0,1.04,0.2,1.24,1.24,1.24h1.52v2.56h-2.36c-2.12,0-3.16-1.04-3.16-3.16v-13.88h-1.76
		v-2.36h1.76v-3.16h2.76v3.16h2.76v2.36H1309.96z"/>
	<path class="st13" d="M1321.48,455.68c2.12,0,3.16,1.04,3.16,3.16v16.24h-2.76v-15.8c0-1.04-0.2-1.24-1.24-1.24h-1.6
		c-0.96,0-1.36,0.36-1.36,1.44v15.6h-2.76v-26.76h2.76V457c0.32-0.96,1.12-1.32,2.2-1.32H1321.48z"/>
	<path class="st13" d="M1328.16,448.28h2.92v3.24h-2.92V448.28z M1328.24,475.07v-19.4h2.76v19.4H1328.24z"/>
	<path class="st13" d="M1341.08,455.68v2.4h-1.2c-1.76,0-2.52,0.96-2.52,3v14h-2.76v-19.4h2.76v2.24c0.36-1.12,1.32-2.24,2.88-2.24
		H1341.08z"/>
	<path class="st13" d="M1352.59,448.32v26.76h-2.76v-1.32c-0.32,0.96-1.12,1.32-2.2,1.32h-1.6c-2.12,0-3.16-1.04-3.16-3.16V458.8
		c0-2.12,1.04-3.16,3.16-3.16h1.6c1.08,0,1.88,0.36,2.2,1.32v-8.64H1352.59z M1348.48,472.71c0.96,0,1.36-0.36,1.36-1.44v-11.84
		c0-1.08-0.4-1.44-1.36-1.44h-1.6c-1.04,0-1.24,0.2-1.24,1.24v12.24c0,1.04,0.2,1.24,1.24,1.24H1348.48z"/>
	<path class="st13" d="M1370.91,448.32v26.76h-2.76v-1.32c-0.32,0.96-1.12,1.32-2.2,1.32h-1.6c-2.12,0-3.16-1.04-3.16-3.16V458.8
		c0-2.12,1.04-3.16,3.16-3.16h1.6c1.08,0,1.88,0.36,2.2,1.32v-8.64H1370.91z M1366.79,472.71c0.96,0,1.36-0.36,1.36-1.44v-11.84
		c0-1.08-0.4-1.44-1.36-1.44h-1.6c-1.04,0-1.24,0.2-1.24,1.24v12.24c0,1.04,0.2,1.24,1.24,1.24H1366.79z"/>
	<path class="st13" d="M1384.03,455.68v19.4h-2.76v-1.32c-0.32,0.96-1.12,1.32-2.2,1.32h-1.6c-2.12,0-3.16-1.04-3.16-3.16v-13.08
		c0-2.12,1.04-3.16,3.16-3.16h1.6c1.08,0,1.88,0.36,2.2,1.32v-1.32H1384.03z M1379.91,472.71c0.96,0,1.36-0.36,1.36-1.44v-11.8
		c0-1.08-0.4-1.44-1.36-1.44h-1.6c-1.04,0-1.24,0.2-1.24,1.24v12.2c0,1.04,0.2,1.24,1.24,1.24H1379.91z"/>
	<path class="st13" d="M1388.99,455.68l3.12,17.48l2.92-17.48h2.76l-3.88,21.88c-0.4,2.08-1.68,3.16-3.8,3.16h-2.16v-2.36h1.32
		c1.04,0,1.76-0.24,2-1.24l0.48-2.04h-1.8l-3.72-19.4H1388.99z"/>
	<path class="st13" d="M1414.71,455.68v19.4h-2.76v-1.32c-0.32,0.96-1.12,1.32-2.2,1.32h-1.6c-2.12,0-3.16-1.04-3.16-3.16v-13.08
		c0-2.12,1.04-3.16,3.16-3.16h1.6c1.08,0,1.88,0.36,2.2,1.32v-1.32H1414.71z M1410.59,472.71c0.96,0,1.36-0.36,1.36-1.44v-11.8
		c0-1.08-0.4-1.44-1.36-1.44h-1.6c-1.04,0-1.24,0.2-1.24,1.24v12.2c0,1.04,0.2,1.24,1.24,1.24H1410.59z"/>
	<path class="st13" d="M1424.27,467.83c0-1.04-0.2-1.24-1.24-1.24h-1.96c-2.12,0-3.16-1.04-3.16-3.16v-4.6
		c0-2.12,1.04-3.16,3.16-3.16h2.72c2.12,0,3.16,1.04,3.16,3.16v1.96h-2.72v-1.56c0-1.04-0.2-1.24-1.24-1.24h-1.12
		c-1.04,0-1.24,0.2-1.24,1.24v3.8c0,1.04,0.2,1.24,1.24,1.24h1.96c2.12,0,3.16,1.04,3.16,3.16v4.48c0,2.12-1.04,3.16-3.16,3.16
		h-2.68c-2.12,0-3.16-1.04-3.16-3.16v-1.96h2.72v1.56c0,1.04,0.2,1.24,1.24,1.24h1.08c1.04,0,1.24-0.2,1.24-1.24V467.83z"/>
	<path class="st13" d="M1438.31,458.04v13.24c0,1.04,0.2,1.24,1.24,1.24h1.52v2.56h-2.36c-2.12,0-3.16-1.04-3.16-3.16v-13.88h-1.76
		v-2.36h1.76v-3.16h2.76v3.16h2.76v2.36H1438.31z"/>
	<path class="st13" d="M1449.83,455.68c2.12,0,3.16,1.04,3.16,3.16v16.24h-2.76v-15.8c0-1.04-0.2-1.24-1.24-1.24h-1.6
		c-0.96,0-1.36,0.36-1.36,1.44v15.6h-2.76v-26.76h2.76V457c0.32-0.96,1.12-1.32,2.2-1.32H1449.83z"/>
	<path class="st13" d="M1463.43,455.68c2.12,0,3.16,1.04,3.16,3.16v7.48h-7.24v5.16c0,1.04,0.2,1.24,1.24,1.24h1.88
		c1.04,0,1.24-0.2,1.24-1.24v-1.76h2.76v2.2c0,2.12-1.04,3.16-3.16,3.16h-3.56c-2.12,0-3.16-1.04-3.16-3.16v-13.08
		c0-2.12,1.04-3.16,3.16-3.16H1463.43z M1463.83,463.96v-4.68c0-1.04-0.2-1.24-1.24-1.24h-2c-1.04,0-1.24,0.2-1.24,1.24v4.68
		H1463.83z"/>
	<path class="st13" d="M1471.15,455.68l3.12,17.48l2.92-17.48h2.76l-3.88,21.88c-0.4,2.08-1.68,3.16-3.8,3.16h-2.16v-2.36h1.32
		c1.04,0,1.76-0.24,2-1.24l0.48-2.04h-1.8l-3.72-19.4H1471.15z"/>
	<path class="st13" d="M1168.13,503.68v19.4h-2.76v-1.32c-0.32,0.96-1.12,1.32-2.2,1.32h-1.6c-2.12,0-3.16-1.04-3.16-3.16v-13.08
		c0-2.12,1.04-3.16,3.16-3.16h1.6c1.08,0,1.88,0.36,2.2,1.32v-1.32H1168.13z M1164.01,520.71c0.96,0,1.36-0.36,1.36-1.44v-11.8
		c0-1.08-0.4-1.44-1.36-1.44h-1.6c-1.04,0-1.24,0.2-1.24,1.24v12.2c0,1.04,0.2,1.24,1.24,1.24H1164.01z"/>
	<path class="st13" d="M1178.29,503.68c2.12,0,3.16,1.04,3.16,3.16v13.08c0,2.12-1.04,3.16-3.16,3.16h-1.6
		c-1.08,0-1.88-0.36-2.2-1.32v6.96h-2.76v-25.04h2.76V505c0.32-0.96,1.12-1.32,2.2-1.32H1178.29z M1178.69,507.28
		c0-1.04-0.2-1.24-1.24-1.24h-1.6c-0.96,0-1.36,0.36-1.36,1.44v11.8c0,1.08,0.4,1.44,1.36,1.44h1.6c1.04,0,1.24-0.2,1.24-1.24
		V507.28z"/>
	<path class="st13" d="M1191.41,503.68c2.12,0,3.16,1.04,3.16,3.16v13.08c0,2.12-1.04,3.16-3.16,3.16h-1.6
		c-1.08,0-1.88-0.36-2.2-1.32v6.96h-2.76v-25.04h2.76V505c0.32-0.96,1.12-1.32,2.2-1.32H1191.41z M1191.81,507.28
		c0-1.04-0.2-1.24-1.24-1.24h-1.6c-0.96,0-1.36,0.36-1.36,1.44v11.8c0,1.08,0.4,1.44,1.36,1.44h1.6c1.04,0,1.24-0.2,1.24-1.24
		V507.28z"/>
	<path class="st13" d="M1204.44,503.68v2.4h-1.2c-1.76,0-2.52,0.96-2.52,3v14h-2.76v-19.4h2.76v2.24c0.36-1.12,1.32-2.24,2.88-2.24
		H1204.44z"/>
	<path class="st13" d="M1213.48,503.68c2.12,0,3.16,1.04,3.16,3.16v13.08c0,2.12-1.04,3.16-3.16,3.16h-4.08
		c-2.12,0-3.16-1.04-3.16-3.16v-13.08c0-2.12,1.04-3.16,3.16-3.16H1213.48z M1213.92,507.28c0-1.04-0.2-1.24-1.24-1.24h-2.48
		c-1.04,0-1.24,0.2-1.24,1.24v12.2c0,1.04,0.2,1.24,1.24,1.24h2.48c1.04,0,1.24-0.2,1.24-1.24V507.28z"/>
	<path class="st13" d="M1229.56,503.68v19.4h-2.76v-1.32c-0.32,0.96-1.12,1.32-2.2,1.32h-1.6c-2.12,0-3.16-1.04-3.16-3.16v-13.08
		c0-2.12,1.04-3.16,3.16-3.16h1.6c1.08,0,1.88,0.36,2.2,1.32v-1.32H1229.56z M1225.44,520.71c0.96,0,1.36-0.36,1.36-1.44v-11.8
		c0-1.08-0.4-1.44-1.36-1.44h-1.6c-1.04,0-1.24,0.2-1.24,1.24v12.2c0,1.04,0.2,1.24,1.24,1.24H1225.44z"/>
	<path class="st13" d="M1240.2,509.44v-2.16c0-1.04-0.2-1.24-1.24-1.24h-2c-1.04,0-1.24,0.2-1.24,1.24v12.2
		c0,1.04,0.2,1.24,1.24,1.24h2c1.04,0,1.24-0.2,1.24-1.24v-2.16h2.76v2.6c0,2.12-1.04,3.16-3.16,3.16h-3.68
		c-2.12,0-3.16-1.04-3.16-3.16v-13.08c0-2.12,1.04-3.16,3.16-3.16h3.68c2.12,0,3.16,1.04,3.16,3.16v2.6H1240.2z"/>
	<path class="st13" d="M1252.72,503.68c2.12,0,3.16,1.04,3.16,3.16v16.24h-2.76v-15.8c0-1.04-0.2-1.24-1.24-1.24h-1.6
		c-0.96,0-1.36,0.36-1.36,1.44v15.6h-2.76v-26.76h2.76V505c0.32-0.96,1.12-1.32,2.2-1.32H1252.72z"/>
	<path class="st13" d="M1267.6,506.04v13.24c0,1.04,0.2,1.24,1.24,1.24h1.52v2.56H1268c-2.12,0-3.16-1.04-3.16-3.16v-13.88h-1.76
		v-2.36h1.76v-3.16h2.76v3.16h2.76v2.36H1267.6z"/>
	<path class="st13" d="M1279.12,503.68c2.12,0,3.16,1.04,3.16,3.16v16.24h-2.76v-15.8c0-1.04-0.2-1.24-1.24-1.24h-1.6
		c-0.96,0-1.36,0.36-1.36,1.44v15.6h-2.76v-26.76h2.76V505c0.32-0.96,1.12-1.32,2.2-1.32H1279.12z"/>
	<path class="st13" d="M1292.72,503.68c2.12,0,3.16,1.04,3.16,3.16v7.48h-7.24v5.16c0,1.04,0.2,1.24,1.24,1.24h1.88
		c1.04,0,1.24-0.2,1.24-1.24v-1.76h2.76v2.2c0,2.12-1.04,3.16-3.16,3.16h-3.56c-2.12,0-3.16-1.04-3.16-3.16v-13.08
		c0-2.12,1.04-3.16,3.16-3.16H1292.72z M1293.12,511.96v-4.68c0-1.04-0.2-1.24-1.24-1.24h-2c-1.04,0-1.24,0.2-1.24,1.24v4.68
		H1293.12z"/>
	<path class="st13" d="M1317.8,503.68c2.12,0,3.16,1.04,3.16,3.16v16.24h-2.76v-15.8c0-1.04-0.2-1.24-1.24-1.24h-1.6
		c-0.96,0-1.36,0.36-1.36,1.44v15.6h-2.76v-15.8c0-1.04-0.2-1.24-1.24-1.24h-1.6c-0.96,0-1.36,0.36-1.36,1.44v15.6h-2.76v-19.4h2.76
		V505c0.32-0.96,1.12-1.32,2.2-1.32h1.6c1.52,0,2.48,0.52,2.92,1.6c0.28-1.16,1.2-1.6,2.44-1.6H1317.8z"/>
	<path class="st13" d="M1331.4,503.68c2.12,0,3.16,1.04,3.16,3.16v13.08c0,2.12-1.04,3.16-3.16,3.16h-4.08
		c-2.12,0-3.16-1.04-3.16-3.16v-13.08c0-2.12,1.04-3.16,3.16-3.16H1331.4z M1331.84,507.28c0-1.04-0.2-1.24-1.24-1.24h-2.48
		c-1.04,0-1.24,0.2-1.24,1.24v12.2c0,1.04,0.2,1.24,1.24,1.24h2.48c1.04,0,1.24-0.2,1.24-1.24V507.28z"/>
	<path class="st13" d="M1345,503.68c2.12,0,3.16,1.04,3.16,3.16v13.08c0,2.12-1.04,3.16-3.16,3.16h-4.08
		c-2.12,0-3.16-1.04-3.16-3.16v-13.08c0-2.12,1.04-3.16,3.16-3.16H1345z M1345.44,507.28c0-1.04-0.2-1.24-1.24-1.24h-2.48
		c-1.04,0-1.24,0.2-1.24,1.24v12.2c0,1.04,0.2,1.24,1.24,1.24h2.48c1.04,0,1.24-0.2,1.24-1.24V507.28z"/>
	<path class="st13" d="M1358.12,503.68c2.12,0,3.16,1.04,3.16,3.16v16.24h-2.76v-15.8c0-1.04-0.2-1.24-1.24-1.24h-1.6
		c-0.96,0-1.36,0.36-1.36,1.44v15.6h-2.76v-19.4h2.76V505c0.32-0.96,1.12-1.32,2.2-1.32H1358.12z"/>
	<path class="st13" d="M1368.48,498.2l-0.52,17.04h-2.36l-0.52-17.04H1368.48z M1365.12,518.59h3.28v4.48h-3.28V518.59z"/>
</g>
</svg>
