<?xml version="1.0" encoding="utf-8"?>
<!-- Generator: Adobe Illustrator 27.3.1, SVG Export Plug-In . SVG Version: 6.00 Build 0)  -->
<svg version="1.1" id="Layer_1" xmlns="http://www.w3.org/2000/svg" xmlns:xlink="http://www.w3.org/1999/xlink" x="0px" y="0px"
	 viewBox="0 0 1512 576" style="enable-background:new 0 0 1512 576;" xml:space="preserve">
<style type="text/css">
	.st0{fill:#142728;}
	.st1{fill:#E5E5E4;}
	.st2{fill:#FFF1E7;}
	.st3{fill:#D4AC9F;stroke:#D4AC9F;stroke-miterlimit:10;}
	.st4{fill:#F3CEBE;stroke:#D4AC9F;stroke-width:5;stroke-miterlimit:10;}
	.st5{fill:none;stroke:#070909;stroke-width:5;stroke-miterlimit:10;}
	.st6{fill:#F26722;stroke:#F26722;stroke-miterlimit:10;}
	.st7{fill:#F79756;}
	.st8{fill:#F9B485;}
	.st9{fill:#EEE0D8;stroke:#D7AF9D;stroke-width:2;stroke-miterlimit:10;}
	.st10{fill:#CEBBB3;stroke:#C2A79D;stroke-width:2;stroke-miterlimit:10;}
	.st11{fill:#1B140F;stroke:#000000;stroke-width:2;stroke-miterlimit:10;}
	.st12{fill:#D74928;stroke:#BB3B26;stroke-width:2;stroke-miterlimit:10;}
</style>
<path class="st0" d="M1495.2,570.35H17.59c-7.55,0-13.67-6.12-13.67-13.67V22.7c0-7.55,6.12-13.67,13.67-13.67H1495.2
	c7.55,0,13.67,6.12,13.67,13.67v533.98C1508.87,564.23,1502.75,570.35,1495.2,570.35z"/>
<g>
	<path class="st1" d="M313.8,191.47"/>
	<g>
		<path class="st1" d="M313.8,193.97c3.22,0,3.22-5,0-5C310.58,188.97,310.58,193.97,313.8,193.97L313.8,193.97z"/>
	</g>
</g>
<g>
	<path class="st1" d="M376.92,464.15"/>
	<g>
		<path class="st1" d="M376.92,466.65c3.22,0,3.22-5,0-5C373.7,461.65,373.7,466.65,376.92,466.65L376.92,466.65z"/>
	</g>
</g>
<g>
	<path class="st1" d="M414.79,568.32"/>
	<g>
		<path class="st1" d="M414.79,570.82c3.22,0,3.22-5,0-5C411.57,565.82,411.57,570.82,414.79,570.82L414.79,570.82z"/>
	</g>
</g>
<g>
	<path class="st1" d="M421.1,329.35"/>
	<g>
		<path class="st1" d="M421.1,331.85c3.22,0,3.22-5,0-5C417.88,326.85,417.88,331.85,421.1,331.85L421.1,331.85z"/>
	</g>
</g>
<g>
	<path class="st1" d="M446.35,151.64"/>
	<g>
		<path class="st1" d="M446.35,154.14c3.22,0,3.22-5,0-5C443.13,149.14,443.13,154.14,446.35,154.14L446.35,154.14z"/>
	</g>
</g>
<g>
	<path class="st1" d="M1459.64,233.87"/>
	<g>
		<path class="st1" d="M1459.64,236.37c3.22,0,3.22-5,0-5C1456.42,231.37,1456.42,236.37,1459.64,236.37L1459.64,236.37z"/>
	</g>
</g>
<g>
	<path class="st1" d="M1508.47,151.43"/>
	<g>
		<path class="st1" d="M1508.47,153.93c3.22,0,3.22-5,0-5C1505.26,148.93,1505.25,153.93,1508.47,153.93L1508.47,153.93z"/>
	</g>
</g>
<g>
	<path class="st1" d="M348.52,170.03"/>
	<g>
		<path class="st1" d="M348.52,172.53c3.22,0,3.22-5,0-5C345.3,167.53,345.29,172.53,348.52,172.53L348.52,172.53z"/>
	</g>
</g>
<g>
	<path class="st1" d="M1432.79,165.94"/>
	<g>
		<path class="st1" d="M1432.79,168.44c3.22,0,3.22-5,0-5C1429.57,163.44,1429.57,168.44,1432.79,168.44L1432.79,168.44z"/>
	</g>
</g>
<g>
	<path class="st1" d="M397.43,209.86"/>
	<g>
		<path class="st1" d="M397.43,212.36c3.22,0,3.22-5,0-5C394.22,207.36,394.21,212.36,397.43,212.36L397.43,212.36z"/>
	</g>
</g>
<g>
	<path class="st1" d="M482.29,10.71"/>
	<g>
		<path class="st1" d="M482.29,13.21c3.22,0,3.22-5,0-5C479.07,8.21,479.06,13.21,482.29,13.21L482.29,13.21z"/>
	</g>
</g>
<g>
	<path class="st1" d="M353.78,394.2"/>
	<g>
		<path class="st1" d="M353.78,396.7c3.22,0,3.22-5,0-5C350.56,391.7,350.55,396.7,353.78,396.7L353.78,396.7z"/>
	</g>
</g>
<g>
	<path class="st1" d="M497.02,389.6"/>
	<g>
		<path class="st1" d="M497.02,392.1c3.22,0,3.22-5,0-5C493.81,387.1,493.8,392.1,497.02,392.1L497.02,392.1z"/>
	</g>
</g>
<g>
	<path class="st1" d="M429.52,498.37"/>
	<g>
		<path class="st1" d="M429.52,500.87c3.22,0,3.22-5,0-5C426.3,495.87,426.3,500.87,429.52,500.87L429.52,500.87z"/>
	</g>
</g>
<g>
	<path class="st1" d="M481.23,507.56"/>
	<g>
		<path class="st1" d="M481.23,510.06c3.22,0,3.22-5,0-5C478.02,505.06,478.01,510.06,481.23,510.06L481.23,510.06z"/>
	</g>
</g>
<g>
	<path class="st1" d="M448.45,377.35"/>
	<g>
		<path class="st1" d="M448.45,379.85c3.22,0,3.22-5,0-5C445.24,374.85,445.23,379.85,448.45,379.85L448.45,379.85z"/>
	</g>
</g>
<g>
	<path class="st1" d="M473.34,291.56"/>
	<g>
		<path class="st1" d="M473.34,294.06c3.22,0,3.22-5,0-5C470.12,289.06,470.12,294.06,473.34,294.06L473.34,294.06z"/>
	</g>
</g>
<g>
	<path class="st1" d="M459.13,181.26"/>
	<g>
		<path class="st1" d="M459.13,183.76c3.22,0,3.22-5,0-5C455.91,178.76,455.9,183.76,459.13,183.76L459.13,183.76z"/>
	</g>
</g>
<g>
	<path class="st1" d="M361.66,84.75"/>
	<g>
		<path class="st1" d="M361.66,87.25c3.22,0,3.22-5,0-5C358.45,82.25,358.44,87.25,361.66,87.25L361.66,87.25z"/>
	</g>
</g>
<g>
	<path class="st1" d="M401.11,44.92"/>
	<g>
		<path class="st1" d="M401.11,47.42c3.22,0,3.22-5,0-5C397.9,42.42,397.89,47.42,401.11,47.42L401.11,47.42z"/>
	</g>
</g>
<g>
	<path class="st1" d="M486.06,127.18"/>
	<g>
		<path class="st1" d="M486.06,129.68c3.22,0,3.22-5,0-5C482.84,124.68,482.83,129.68,486.06,129.68L486.06,129.68z"/>
	</g>
</g>
<g>
	<path class="st1" d="M456.34,147.56"/>
	<g>
		<path class="st1" d="M456.34,150.06c3.22,0,3.22-5,0-5C453.13,145.06,453.12,150.06,456.34,150.06L456.34,150.06z"/>
	</g>
</g>
<g>
	<path class="st1" d="M339.57,573.43"/>
	<g>
		<path class="st1" d="M339.57,575.93c3.22,0,3.22-5,0-5C336.36,570.93,336.35,575.93,339.57,575.93L339.57,575.93z"/>
	</g>
</g>
<g>
	<path class="st1" d="M1383.8,106.57"/>
	<g>
		<path class="st1" d="M1383.8,109.07c3.22,0,3.22-5,0-5C1380.58,104.07,1380.58,109.07,1383.8,109.07L1383.8,109.07z"/>
	</g>
</g>
<g>
	<path class="st1" d="M787.41,58.95"/>
	<g>
		<path class="st1" d="M787.41,61.45c3.22,0,3.22-5,0-5C784.19,56.45,784.19,61.45,787.41,61.45L787.41,61.45z"/>
	</g>
</g>
<g>
	<path class="st1" d="M901.02,233.59"/>
	<g>
		<path class="st1" d="M901.02,236.09c3.22,0,3.22-5,0-5C897.81,231.09,897.8,236.09,901.02,236.09L901.02,236.09z"/>
	</g>
</g>
<g>
	<path class="st1" d="M1080.91,337.76"/>
	<g>
		<path class="st1" d="M1080.91,340.26c3.22,0,3.22-5,0-5C1077.69,335.26,1077.69,340.26,1080.91,340.26L1080.91,340.26z"/>
	</g>
</g>
<g>
	<path class="st1" d="M1103,126.36"/>
	<g>
		<path class="st1" d="M1103,128.86c3.22,0,3.22-5,0-5C1099.79,123.86,1099.78,128.86,1103,128.86L1103,128.86z"/>
	</g>
</g>
<g>
	<path class="st1" d="M1185.06,343.89"/>
	<g>
		<path class="st1" d="M1185.06,346.39c3.22,0,3.22-5,0-5C1181.84,341.39,1181.84,346.39,1185.06,346.39L1185.06,346.39z"/>
	</g>
</g>
<g>
	<path class="st1" d="M809.5,392.91"/>
	<g>
		<path class="st1" d="M809.5,395.41c3.22,0,3.22-5,0-5C806.28,390.41,806.28,395.41,809.5,395.41L809.5,395.41z"/>
	</g>
</g>
<g>
	<path class="st1" d="M1077.76,558.36"/>
	<g>
		<path class="st1" d="M1077.76,560.86c3.22,0,3.22-5,0-5C1074.54,555.86,1074.53,560.86,1077.76,560.86L1077.76,560.86z"/>
	</g>
</g>
<g>
	<path class="st1" d="M1510.12,291.81"/>
	<g>
		<path class="st1" d="M1510.12,294.31c3.22,0,3.22-5,0-5C1506.9,289.31,1506.9,294.31,1510.12,294.31L1510.12,294.31z"/>
	</g>
</g>
<g>
	<path class="st1" d="M1500.65,135.55"/>
	<g>
		<path class="st1" d="M1500.65,138.05c3.22,0,3.22-5,0-5C1497.44,133.05,1497.43,138.05,1500.65,138.05L1500.65,138.05z"/>
	</g>
</g>
<g>
	<path class="st1" d="M1387.04,239.72"/>
	<g>
		<path class="st1" d="M1387.04,242.22c3.22,0,3.22-5,0-5C1383.82,237.22,1383.82,242.22,1387.04,242.22L1387.04,242.22z"/>
	</g>
</g>
<g>
	<path class="st1" d="M1140.87,245.85"/>
	<g>
		<path class="st1" d="M1140.87,248.35c3.22,0,3.22-5,0-5C1137.66,243.35,1137.65,248.35,1140.87,248.35L1140.87,248.35z"/>
	</g>
</g>
<g>
	<path class="st1" d="M721.13,307.12"/>
	<g>
		<path class="st1" d="M721.13,309.62c3.22,0,3.22-5,0-5C717.92,304.62,717.91,309.62,721.13,309.62L721.13,309.62z"/>
	</g>
</g>
<g>
	<path class="st1" d="M695.89,506.27"/>
	<g>
		<path class="st1" d="M695.89,508.77c3.22,0,3.22-5,0-5C692.67,503.77,692.66,508.77,695.89,508.77L695.89,508.77z"/>
	</g>
</g>
<g>
	<path class="st1" d="M534.93,71.21"/>
	<g>
		<path class="st1" d="M534.93,73.71c3.22,0,3.22-5,0-5C531.72,68.71,531.71,73.71,534.93,73.71L534.93,73.71z"/>
	</g>
</g>
<g>
	<path class="st1" d="M200.4,123.3"/>
	<g>
		<path class="st1" d="M200.4,125.8c3.22,0,3.22-5,0-5C197.19,120.8,197.18,125.8,200.4,125.8L200.4,125.8z"/>
	</g>
</g>
<g>
	<path class="st1" d="M617.83,47.05"/>
	<g>
		<path class="st1" d="M617.83,49.55c3.22,0,3.22-5,0-5C614.61,44.55,614.6,49.55,617.83,49.55L617.83,49.55z"/>
	</g>
</g>
<g>
	<path class="st1" d="M54.21,106.54"/>
	<g>
		<path class="st1" d="M54.21,109.04c3.22,0,3.22-5,0-5C51,104.04,50.99,109.04,54.21,109.04L54.21,109.04z"/>
	</g>
</g>
<g>
	<path class="st1" d="M645.39,285.68"/>
	<g>
		<path class="st1" d="M645.39,288.18c3.22,0,3.22-5,0-5C642.17,283.18,642.17,288.18,645.39,288.18L645.39,288.18z"/>
	</g>
</g>
<g>
	<path class="st1" d="M1058.82,6.87"/>
	<g>
		<path class="st1" d="M1058.82,9.37c3.22,0,3.22-5,0-5C1055.6,4.37,1055.6,9.37,1058.82,9.37L1058.82,9.37z"/>
	</g>
</g>
<g>
	<path class="st1" d="M528.62,25.25"/>
	<g>
		<path class="st1" d="M528.62,27.75c3.22,0,3.22-5,0-5C525.4,22.75,525.4,27.75,528.62,27.75L528.62,27.75z"/>
	</g>
</g>
<g>
	<path class="st1" d="M206.71,34.44"/>
	<g>
		<path class="st1" d="M206.71,36.94c3.22,0,3.22-5,0-5C203.5,31.94,203.49,36.94,206.71,36.94L206.71,36.94z"/>
	</g>
</g>
<g>
	<path class="st1" d="M11.05,55.89"/>
	<g>
		<path class="st1" d="M11.05,58.39c3.22,0,3.22-5,0-5C7.83,53.39,7.82,58.39,11.05,58.39L11.05,58.39z"/>
	</g>
</g>
<g>
	<path class="st1" d="M614.42,205.9"/>
	<g>
		<path class="st1" d="M614.42,208.4c3.22,0,3.22-5,0-5C611.21,203.4,611.2,208.4,614.42,208.4L614.42,208.4z"/>
	</g>
</g>
<g>
	<path class="st1" d="M714.82,196.83"/>
	<g>
		<path class="st1" d="M714.82,199.33c3.22,0,3.22-5,0-5C711.6,194.33,711.6,199.33,714.82,199.33L714.82,199.33z"/>
	</g>
</g>
<g>
	<path class="st1" d="M904.18,107.98"/>
	<g>
		<path class="st1" d="M904.18,110.48c3.22,0,3.22-5,0-5C900.96,105.48,900.96,110.48,904.18,110.48L904.18,110.48z"/>
	</g>
</g>
<g>
	<path class="st1" d="M1036.73,218.27"/>
	<g>
		<path class="st1" d="M1036.73,220.77c3.22,0,3.22-5,0-5C1033.51,215.77,1033.51,220.77,1036.73,220.77L1036.73,220.77z"/>
	</g>
</g>
<g>
	<path class="st1" d="M651.7,411.3"/>
	<g>
		<path class="st1" d="M651.7,413.8c3.22,0,3.22-5,0-5C648.49,408.8,648.48,413.8,651.7,413.8L651.7,413.8z"/>
	</g>
</g>
<g>
	<path class="st1" d="M1393.35,527.72"/>
	<g>
		<path class="st1" d="M1393.35,530.22c3.22,0,3.22-5,0-5C1390.13,525.22,1390.13,530.22,1393.35,530.22L1393.35,530.22z"/>
	</g>
</g>
<g>
	<path class="st1" d="M1276.58,68.15"/>
	<g>
		<path class="st1" d="M1276.58,70.65c3.22,0,3.22-5,0-5C1273.36,65.65,1273.36,70.65,1276.58,70.65L1276.58,70.65z"/>
	</g>
</g>
<g>
	<path class="st1" d="M1393.35,83.47"/>
	<g>
		<path class="st1" d="M1393.35,85.97c3.22,0,3.22-5,0-5C1390.13,80.97,1390.13,85.97,1393.35,85.97L1393.35,85.97z"/>
	</g>
</g>
<g>
	<path class="st1" d="M1226.09,160.06"/>
	<g>
		<path class="st1" d="M1226.09,162.56c3.22,0,3.22-5,0-5C1222.87,157.56,1222.86,162.56,1226.09,162.56L1226.09,162.56z"/>
	</g>
</g>
<g>
	<path class="st1" d="M957.57,21.93"/>
	<g>
		<path class="st1" d="M957.57,24.43c3.22,0,3.22-5,0-5C954.35,19.43,954.34,24.43,957.57,24.43L957.57,24.43z"/>
	</g>
</g>
<g>
	<path class="st1" d="M883.94,103.63"/>
	<g>
		<path class="st1" d="M883.94,106.13c3.22,0,3.22-5,0-5C880.72,101.13,880.72,106.13,883.94,106.13L883.94,106.13z"/>
	</g>
</g>
<g>
	<path class="st1" d="M800.87,105.26"/>
	<g>
		<path class="st1" d="M800.87,107.76c3.22,0,3.22-5,0-5C797.65,102.76,797.65,107.76,800.87,107.76L800.87,107.76z"/>
	</g>
</g>
<g>
	<path class="st1" d="M1058.82,497.08"/>
	<g>
		<path class="st1" d="M1058.82,499.58c3.22,0,3.22-5,0-5C1055.6,494.58,1055.6,499.58,1058.82,499.58L1058.82,499.58z"/>
	</g>
</g>
<g>
	<path class="st1" d="M749.54,518.53"/>
	<g>
		<path class="st1" d="M749.54,521.03c3.22,0,3.22-5,0-5C746.32,516.03,746.31,521.03,749.54,521.03L749.54,521.03z"/>
	</g>
</g>
<g>
	<path class="st1" d="M774.78,368.4"/>
	<g>
		<path class="st1" d="M774.78,370.9c3.22,0,3.22-5,0-5C771.57,365.9,771.56,370.9,774.78,370.9L774.78,370.9z"/>
	</g>
</g>
<g>
	<path class="st1" d="M853.68,166.19"/>
	<g>
		<path class="st1" d="M853.68,168.69c3.22,0,3.22-5,0-5C850.47,163.69,850.46,168.69,853.68,168.69L853.68,168.69z"/>
	</g>
</g>
<g>
	<path class="st1" d="M718.82,4.15"/>
	<g>
		<path class="st1" d="M718.82,6.65c3.22,0,3.22-5,0-5C715.6,1.65,715.59,6.65,718.82,6.65L718.82,6.65z"/>
	</g>
</g>
<g>
	<path class="st1" d="M709.1,218.16"/>
	<g>
		<path class="st1" d="M709.1,220.66c3.22,0,3.22-5,0-5C705.88,215.66,705.88,220.66,709.1,220.66L709.1,220.66z"/>
	</g>
</g>
<g>
	<path class="st1" d="M554.46,270.24"/>
	<g>
		<path class="st1" d="M554.46,272.74c3.22,0,3.22-5,0-5C551.24,267.74,551.24,272.74,554.46,272.74L554.46,272.74z"/>
	</g>
</g>
<g>
	<path class="st1" d="M560.77,153.82"/>
	<g>
		<path class="st1" d="M560.77,156.32c3.22,0,3.22-5,0-5C557.56,151.32,557.55,156.32,560.77,156.32L560.77,156.32z"/>
	</g>
</g>
<g>
	<path class="st1" d="M364.51,43.64"/>
	<g>
		<path class="st1" d="M364.51,46.14c3.22,0,3.22-5,0-5C361.29,41.14,361.29,46.14,364.51,46.14L364.51,46.14z"/>
	</g>
</g>
<g>
	<path class="st1" d="M130.97,86.53"/>
	<g>
		<path class="st1" d="M130.97,89.03c3.22,0,3.22-5,0-5C127.75,84.03,127.75,89.03,130.97,89.03L130.97,89.03z"/>
	</g>
</g>
<g>
	<path class="st1" d="M219.34,248.91"/>
	<g>
		<path class="st1" d="M219.34,251.41c3.22,0,3.22-5,0-5C216.12,246.41,216.12,251.41,219.34,251.41L219.34,251.41z"/>
	</g>
</g>
<g>
	<path class="st1" d="M59.47,207.65"/>
	<g>
		<path class="st1" d="M59.47,210.15c3.22,0,3.22-5,0-5C56.26,205.15,56.25,210.15,59.47,210.15L59.47,210.15z"/>
	</g>
</g>
<g>
	<path class="st1" d="M213.03,380.66"/>
	<g>
		<path class="st1" d="M213.03,383.16c3.22,0,3.22-5,0-5C209.81,378.16,209.8,383.16,213.03,383.16L213.03,383.16z"/>
	</g>
</g>
<g>
	<path class="st1" d="M784.25,331.64"/>
	<g>
		<path class="st1" d="M784.25,334.14c3.22,0,3.22-5,0-5C781.04,329.14,781.03,334.14,784.25,334.14L784.25,334.14z"/>
	</g>
</g>
<g>
	<path class="st1" d="M702.2,558.36"/>
	<g>
		<path class="st1" d="M702.2,560.86c3.22,0,3.22-5,0-5C698.98,555.86,698.98,560.86,702.2,560.86L702.2,560.86z"/>
	</g>
</g>
<g>
	<path class="st1" d="M326.64,337.76"/>
	<g>
		<path class="st1" d="M326.64,340.26c3.22,0,3.22-5,0-5C323.42,335.26,323.42,340.26,326.64,340.26L326.64,340.26z"/>
	</g>
</g>
<g>
	<path class="st1" d="M497.06,356.15"/>
	<g>
		<path class="st1" d="M497.06,358.65c3.22,0,3.22-5,0-5C493.84,353.65,493.84,358.65,497.06,358.65L497.06,358.65z"/>
	</g>
</g>
<g>
	<path class="st1" d="M323.48,261.17"/>
	<g>
		<path class="st1" d="M323.48,263.67c3.22,0,3.22-5,0-5C320.27,258.67,320.26,263.67,323.48,263.67L323.48,263.67z"/>
	</g>
</g>
<g>
	<path class="st1" d="M175.15,310.19"/>
	<g>
		<path class="st1" d="M175.15,312.69c3.22,0,3.22-5,0-5C171.94,307.69,171.93,312.69,175.15,312.69L175.15,312.69z"/>
	</g>
</g>
<g>
	<path class="st1" d="M99.41,239.72"/>
	<g>
		<path class="st1" d="M99.41,242.22c3.22,0,3.22-5,0-5C96.19,237.22,96.19,242.22,99.41,242.22L99.41,242.22z"/>
	</g>
</g>
<g>
	<path class="st1" d="M165.69,236.66"/>
	<g>
		<path class="st1" d="M165.69,239.16c3.22,0,3.22-5,0-5C162.47,234.16,162.46,239.16,165.69,239.16L165.69,239.16z"/>
	</g>
</g>
<g>
	<path class="st1" d="M272.99,132.49"/>
	<g>
		<path class="st1" d="M272.99,134.99c3.22,0,3.22-5,0-5C269.77,129.99,269.77,134.99,272.99,134.99L272.99,134.99z"/>
	</g>
</g>
<g>
	<path class="st1" d="M661.17,187.64"/>
	<g>
		<path class="st1" d="M661.17,190.14c3.22,0,3.22-5,0-5C657.95,185.14,657.95,190.14,661.17,190.14L661.17,190.14z"/>
	</g>
</g>
<g>
	<path class="st1" d="M449.72,74.27"/>
	<g>
		<path class="st1" d="M449.72,76.77c3.22,0,3.22-5,0-5C446.51,71.77,446.5,76.77,449.72,76.77L449.72,76.77z"/>
	</g>
</g>
<g>
	<path class="st1" d="M856.84,52.83"/>
	<g>
		<path class="st1" d="M856.84,55.33c3.22,0,3.22-5,0-5C853.62,50.33,853.62,55.33,856.84,55.33L856.84,55.33z"/>
	</g>
</g>
<g>
	<path class="st1" d="M626.46,123.3"/>
	<g>
		<path class="st1" d="M626.46,125.8c3.22,0,3.22-5,0-5C623.24,120.8,623.23,125.8,626.46,125.8L626.46,125.8z"/>
	</g>
</g>
<g>
	<path class="st1" d="M714.82,8.49"/>
	<g>
		<path class="st1" d="M714.82,10.99c3.22,0,3.22-5,0-5C711.6,5.99,711.6,10.99,714.82,10.99L714.82,10.99z"/>
	</g>
</g>
<g>
	<path class="st1" d="M983.08,144.74"/>
	<g>
		<path class="st1" d="M983.08,147.24c3.22,0,3.22-5,0-5C979.86,142.24,979.85,147.24,983.08,147.24L983.08,147.24z"/>
	</g>
</g>
<g>
	<path class="st1" d="M897.87,313.25"/>
	<g>
		<path class="st1" d="M897.87,315.75c3.22,0,3.22-5,0-5C894.65,310.75,894.64,315.75,897.87,315.75L897.87,315.75z"/>
	</g>
</g>
<g>
	<path class="st1" d="M781.1,264.23"/>
	<g>
		<path class="st1" d="M781.1,266.73c3.22,0,3.22-5,0-5C777.88,261.73,777.87,266.73,781.1,266.73L781.1,266.73z"/>
	</g>
</g>
<g>
	<path class="st1" d="M1090.38,239.72"/>
	<g>
		<path class="st1" d="M1090.38,242.22c3.22,0,3.22-5,0-5C1087.16,237.22,1087.16,242.22,1090.38,242.22L1090.38,242.22z"/>
	</g>
</g>
<g>
	<path class="st1" d="M1027.26,463.38"/>
	<g>
		<path class="st1" d="M1027.26,465.88c3.22,0,3.22-5,0-5C1024.04,460.88,1024.04,465.88,1027.26,465.88L1027.26,465.88z"/>
	</g>
</g>
<g>
	<path class="st1" d="M1175.59,533.85"/>
	<g>
		<path class="st1" d="M1175.59,536.35c3.22,0,3.22-5,0-5C1172.37,531.35,1172.37,536.35,1175.59,536.35L1175.59,536.35z"/>
	</g>
</g>
<g>
	<path class="st1" d="M1140.87,392.91"/>
	<g>
		<path class="st1" d="M1140.87,395.41c3.22,0,3.22-5,0-5C1137.66,390.41,1137.65,395.41,1140.87,395.41L1140.87,395.41z"/>
	</g>
</g>
<g>
	<path class="st1" d="M1080.91,426.61"/>
	<g>
		<path class="st1" d="M1080.91,429.11c3.22,0,3.22-5,0-5C1077.69,424.11,1077.69,429.11,1080.91,429.11L1080.91,429.11z"/>
	</g>
</g>
<g>
	<path class="st1" d="M837.9,359.21"/>
	<g>
		<path class="st1" d="M837.9,361.71c3.22,0,3.22-5,0-5C834.69,356.71,834.68,361.71,837.9,361.71L837.9,361.71z"/>
	</g>
</g>
<g>
	<path class="st1" d="M888.4,423.55"/>
	<g>
		<path class="st1" d="M888.4,426.05c3.22,0,3.22-5,0-5C885.18,421.05,885.18,426.05,888.4,426.05L888.4,426.05z"/>
	</g>
</g>
<g>
	<path class="st1" d="M702.2,408.23"/>
	<g>
		<path class="st1" d="M702.2,410.73c3.22,0,3.22-5,0-5C698.98,405.73,698.98,410.73,702.2,410.73L702.2,410.73z"/>
	</g>
</g>
<g>
	<path class="st1" d="M777.94,451.12"/>
	<g>
		<path class="st1" d="M777.94,453.62c3.22,0,3.22-5,0-5C774.72,448.62,774.72,453.62,777.94,453.62L777.94,453.62z"/>
	</g>
</g>
<g>
	<path class="st1" d="M1125.1,86.53"/>
	<g>
		<path class="st1" d="M1125.1,89.03c3.22,0,3.22-5,0-5C1121.88,84.03,1121.87,89.03,1125.1,89.03L1125.1,89.03z"/>
	</g>
</g>
<g>
	<path class="st1" d="M1055.66,301"/>
	<g>
		<path class="st1" d="M1055.66,303.5c3.22,0,3.22-5,0-5C1052.45,298.5,1052.44,303.5,1055.66,303.5L1055.66,303.5z"/>
	</g>
</g>
<g>
	<path class="st1" d="M1458.79,7.68"/>
	<g>
		<path class="st1" d="M1458.79,10.18c3.22,0,3.22-5,0-5C1455.58,5.18,1455.57,10.18,1458.79,10.18L1458.79,10.18z"/>
	</g>
</g>
<g>
	<path class="st1" d="M714.36,258.5"/>
	<g>
		<path class="st1" d="M714.36,261c3.22,0,3.22-5,0-5C711.14,256,711.14,261,714.36,261L714.36,261z"/>
	</g>
</g>
<g>
	<path class="st1" d="M207.8,61.1"/>
	<g>
		<path class="st1" d="M207.8,63.6c3.22,0,3.22-5,0-5C204.59,58.6,204.58,63.6,207.8,63.6L207.8,63.6z"/>
	</g>
</g>
<g>
	<path class="st1" d="M145.7,457.76"/>
	<g>
		<path class="st1" d="M145.7,460.26c3.22,0,3.22-5,0-5C142.48,455.26,142.48,460.26,145.7,460.26L145.7,460.26z"/>
	</g>
</g>
<g>
	<path class="st1" d="M110.98,356.66"/>
	<g>
		<path class="st1" d="M110.98,359.16c3.22,0,3.22-5,0-5C107.77,354.16,107.76,359.16,110.98,359.16L110.98,359.16z"/>
	</g>
</g>
<g>
	<path class="st1" d="M9.99,76.32"/>
	<g>
		<path class="st1" d="M9.99,78.82c3.22,0,3.22-5,0-5C6.78,73.82,6.77,78.82,9.99,78.82L9.99,78.82z"/>
	</g>
</g>
<g>
	<path class="st1" d="M522.84,175.89"/>
	<g>
		<path class="st1" d="M522.84,178.39c3.22,0,3.22-5,0-5C519.62,173.39,519.61,178.39,522.84,178.39L522.84,178.39z"/>
	</g>
</g>
<g>
	<path class="st1" d="M521.26,261.68"/>
	<g>
		<path class="st1" d="M521.26,264.18c3.22,0,3.22-5,0-5C518.04,259.18,518.03,264.18,521.26,264.18L521.26,264.18z"/>
	</g>
</g>
<g>
	<path class="st1" d="M459.72,243.3"/>
	<g>
		<path class="st1" d="M459.72,245.8c3.22,0,3.22-5,0-5C456.5,240.8,456.49,245.8,459.72,245.8L459.72,245.8z"/>
	</g>
</g>
<g>
	<path class="st1" d="M379.24,453.17"/>
	<g>
		<path class="st1" d="M379.24,455.67c3.22,0,3.22-5,0-5C376.02,450.67,376.02,455.67,379.24,455.67L379.24,455.67z"/>
	</g>
</g>
<g>
	<path class="st1" d="M551.24,359.72"/>
	<g>
		<path class="st1" d="M551.24,362.22c3.22,0,3.22-5,0-5C548.02,357.22,548.02,362.22,551.24,362.22L551.24,362.22z"/>
	</g>
</g>
<g>
	<path class="st1" d="M503.9,417.93"/>
	<g>
		<path class="st1" d="M503.9,420.43c3.22,0,3.22-5,0-5C500.68,415.43,500.68,420.43,503.9,420.43L503.9,420.43z"/>
	</g>
</g>
<g>
	<path class="st1" d="M86.3,145.35"/>
	<g>
		<path class="st1" d="M86.3,147.85c3.22,0,3.22-5,0-5C83.08,142.85,83.08,147.85,86.3,147.85L86.3,147.85z"/>
	</g>
</g>
<g>
	<path class="st1" d="M711.45,136.41"/>
	<g>
		<path class="st1" d="M711.45,138.91c3.22,0,3.22-5,0-5C708.24,133.91,708.23,138.91,711.45,138.91L711.45,138.91z"/>
	</g>
</g>
<g>
	<path class="st1" d="M711.45,70.53"/>
	<g>
		<path class="st1" d="M711.45,73.03c3.22,0,3.22-5,0-5C708.24,68.03,708.23,73.03,711.45,73.03L711.45,73.03z"/>
	</g>
</g>
<g>
	<path class="st1" d="M1281.84,326.02"/>
	<g>
		<path class="st1" d="M1281.84,328.52c3.22,0,3.22-5,0-5C1278.62,323.52,1278.62,328.52,1281.84,328.52L1281.84,328.52z"/>
	</g>
</g>
<g>
	<path class="st1" d="M1253.44,215.72"/>
	<g>
		<path class="st1" d="M1253.44,218.22c3.22,0,3.22-5,0-5C1250.22,213.22,1250.21,218.22,1253.44,218.22L1253.44,218.22z"/>
	</g>
</g>
<g>
	<path class="st1" d="M1338.65,169.76"/>
	<g>
		<path class="st1" d="M1338.65,172.26c3.22,0,3.22-5,0-5C1335.43,167.26,1335.42,172.26,1338.65,172.26L1338.65,172.26z"/>
	</g>
</g>
<g>
	<path class="st1" d="M1335.49,312.23"/>
	<g>
		<path class="st1" d="M1335.49,314.73c3.22,0,3.22-5,0-5C1332.27,309.73,1332.27,314.73,1335.49,314.73L1335.49,314.73z"/>
	</g>
</g>
<g>
	<path class="st1" d="M1433.33,318.36"/>
	<g>
		<path class="st1" d="M1433.33,320.86c3.22,0,3.22-5,0-5C1430.11,315.86,1430.1,320.86,1433.33,320.86L1433.33,320.86z"/>
	</g>
</g>
<g>
	<path class="st1" d="M1485.4,399.55"/>
	<g>
		<path class="st1" d="M1485.4,402.05c3.22,0,3.22-5,0-5C1482.18,397.05,1482.18,402.05,1485.4,402.05L1485.4,402.05z"/>
	</g>
</g>
<g>
	<path class="st1" d="M1360.74,54.87"/>
	<g>
		<path class="st1" d="M1360.74,57.37c3.22,0,3.22-5,0-5C1357.52,52.37,1357.52,57.37,1360.74,57.37L1360.74,57.37z"/>
	</g>
</g>
<g>
	<path class="st1" d="M1461.73,41.08"/>
	<g>
		<path class="st1" d="M1461.73,43.58c3.22,0,3.22-5,0-5C1458.51,38.58,1458.51,43.58,1461.73,43.58L1461.73,43.58z"/>
	</g>
</g>
<g>
	<path class="st1" d="M1378.1,28.83"/>
	<g>
		<path class="st1" d="M1378.1,31.33c3.22,0,3.22-5,0-5C1374.88,26.33,1374.87,31.33,1378.1,31.33L1378.1,31.33z"/>
	</g>
</g>
<g>
	<path class="st1" d="M1182.43,2.78"/>
	<g>
		<path class="st1" d="M1182.43,5.28c3.22,0,3.22-5,0-5C1179.21,0.28,1179.21,5.28,1182.43,5.28L1182.43,5.28z"/>
	</g>
</g>
<g>
	<path class="st1" d="M1109.84,65.59"/>
	<g>
		<path class="st1" d="M1109.84,68.09c3.22,0,3.22-5,0-5C1106.62,63.09,1106.62,68.09,1109.84,68.09L1109.84,68.09z"/>
	</g>
</g>
<g>
	<path class="st1" d="M1051.46,62.53"/>
	<g>
		<path class="st1" d="M1051.46,65.03c3.22,0,3.22-5,0-5C1048.24,60.03,1048.23,65.03,1051.46,65.03L1051.46,65.03z"/>
	</g>
</g>
<g>
	<path class="st1" d="M988.34,39.55"/>
	<g>
		<path class="st1" d="M988.34,42.05c3.22,0,3.22-5,0-5C985.12,37.05,985.11,42.05,988.34,42.05L988.34,42.05z"/>
	</g>
</g>
<g>
	<path class="st1" d="M1255.01,424.06"/>
	<g>
		<path class="st1" d="M1255.01,426.56c3.22,0,3.22-5,0-5C1251.8,421.56,1251.79,426.56,1255.01,426.56L1255.01,426.56z"/>
	</g>
</g>
<g>
	<path class="st1" d="M1419.12,359.72"/>
	<g>
		<path class="st1" d="M1419.12,362.22c3.22,0,3.22-5,0-5C1415.91,357.22,1415.9,362.22,1419.12,362.22L1419.12,362.22z"/>
	</g>
</g>
<g>
	<path class="st1" d="M1370.21,509.85"/>
	<g>
		<path class="st1" d="M1370.21,512.35c3.22,0,3.22-5,0-5C1366.99,507.35,1366.98,512.35,1370.21,512.35L1370.21,512.35z"/>
	</g>
</g>
<g>
	<path class="st1" d="M1229.77,442.44"/>
	<g>
		<path class="st1" d="M1229.77,444.94c3.22,0,3.22-5,0-5C1226.55,439.94,1226.54,444.94,1229.77,444.94L1229.77,444.94z"/>
	</g>
</g>
<g>
	<path class="st1" d="M1404.92,425.59"/>
	<g>
		<path class="st1" d="M1404.92,428.09c3.22,0,3.22-5,0-5C1401.71,423.09,1401.7,428.09,1404.92,428.09L1404.92,428.09z"/>
	</g>
</g>
<g>
	<path class="st1" d="M1356.01,479.21"/>
	<g>
		<path class="st1" d="M1356.01,481.71c3.22,0,3.22-5,0-5C1352.79,476.71,1352.78,481.71,1356.01,481.71L1356.01,481.71z"/>
	</g>
</g>
<g>
	<path class="st1" d="M1247.12,489.93"/>
	<g>
		<path class="st1" d="M1247.12,492.43c3.22,0,3.22-5,0-5C1243.91,487.43,1243.9,492.43,1247.12,492.43L1247.12,492.43z"/>
	</g>
</g>
<g>
	<path class="st1" d="M1169.8,466.95"/>
	<g>
		<path class="st1" d="M1169.8,469.45c3.22,0,3.22-5,0-5C1166.59,464.45,1166.58,469.45,1169.8,469.45L1169.8,469.45z"/>
	</g>
</g>
<g>
	<path class="st1" d="M1438.06,537.42"/>
	<g>
		<path class="st1" d="M1438.06,539.92c3.22,0,3.22-5,0-5C1434.84,534.92,1434.84,539.92,1438.06,539.92L1438.06,539.92z"/>
	</g>
</g>
<g>
	<path class="st1" d="M1461.73,488.4"/>
	<g>
		<path class="st1" d="M1461.73,490.9c3.22,0,3.22-5,0-5C1458.51,485.9,1458.51,490.9,1461.73,490.9L1461.73,490.9z"/>
	</g>
</g>
<g>
	<path class="st1" d="M1499.6,457.76"/>
	<g>
		<path class="st1" d="M1499.6,460.26c3.22,0,3.22-5,0-5C1496.38,455.26,1496.38,460.26,1499.6,460.26L1499.6,460.26z"/>
	</g>
</g>
<g>
	<path class="st1" d="M1368.63,575.72"/>
	<g>
		<path class="st1" d="M1368.63,578.22c3.22,0,3.22-5,0-5C1365.41,573.22,1365.41,578.22,1368.63,578.22L1368.63,578.22z"/>
	</g>
</g>
<g>
	<path class="st1" d="M1305.51,529.76"/>
	<g>
		<path class="st1" d="M1305.51,532.26c3.22,0,3.22-5,0-5C1302.29,527.26,1302.29,532.26,1305.51,532.26L1305.51,532.26z"/>
	</g>
</g>
<g>
	<path class="st1" d="M964.67,417.93"/>
	<g>
		<path class="st1" d="M964.67,420.43c3.22,0,3.22-5,0-5C961.45,415.43,961.45,420.43,964.67,420.43L964.67,420.43z"/>
	</g>
</g>
<g>
	<path class="st1" d="M814.76,479.21"/>
	<g>
		<path class="st1" d="M814.76,481.71c3.22,0,3.22-5,0-5C811.54,476.71,811.54,481.71,814.76,481.71L814.76,481.71z"/>
	</g>
</g>
<g>
	<path class="st1" d="M925.22,517.51"/>
	<g>
		<path class="st1" d="M925.22,520.01c3.22,0,3.22-5,0-5C922,515.01,922,520.01,925.22,520.01L925.22,520.01z"/>
	</g>
</g>
<g>
	<path class="st1" d="M926.8,561.93"/>
	<g>
		<path class="st1" d="M926.8,564.43c3.22,0,3.22-5,0-5C923.58,559.43,923.57,564.43,926.8,564.43L926.8,564.43z"/>
	</g>
</g>
<g>
	<path class="st1" d="M1064.08,508.32"/>
	<g>
		<path class="st1" d="M1064.08,510.82c3.22,0,3.22-5,0-5C1060.86,505.82,1060.86,510.82,1064.08,510.82L1064.08,510.82z"/>
	</g>
</g>
<g>
	<path class="st1" d="M982.03,283.12"/>
	<g>
		<path class="st1" d="M982.03,285.62c3.22,0,3.22-5,0-5C978.81,280.62,978.8,285.62,982.03,285.62L982.03,285.62z"/>
	</g>
</g>
<g>
	<path class="st1" d="M1149.29,283.12"/>
	<g>
		<path class="st1" d="M1149.29,285.62c3.22,0,3.22-5,0-5C1146.07,280.62,1146.07,285.62,1149.29,285.62L1149.29,285.62z"/>
	</g>
</g>
<g>
	<path class="st1" d="M1269.22,292.32"/>
	<g>
		<path class="st1" d="M1269.22,294.82c3.22,0,3.22-5,0-5C1266,289.82,1265.99,294.82,1269.22,294.82L1269.22,294.82z"/>
	</g>
</g>
<g>
	<path class="st1" d="M800.83,131.71"/>
	<g>
		<path class="st1" d="M800.83,134.21c3.22,0,3.22-5,0-5C797.62,129.21,797.61,134.21,800.83,134.21L800.83,134.21z"/>
	</g>
</g>
<g>
	<path class="st1" d="M682.67,490.95"/>
	<g>
		<path class="st1" d="M682.67,493.45c3.22,0,3.22-5,0-5C679.45,488.45,679.45,493.45,682.67,493.45L682.67,493.45z"/>
	</g>
</g>
<g>
	<path class="st1" d="M433.35,527.72"/>
	<g>
		<path class="st1" d="M433.35,530.22c3.22,0,3.22-5,0-5C430.13,525.22,430.13,530.22,433.35,530.22L433.35,530.22z"/>
	</g>
</g>
<g>
	<path class="st1" d="M698.45,549.17"/>
	<g>
		<path class="st1" d="M698.45,551.67c3.22,0,3.22-5,0-5C695.23,546.67,695.23,551.67,698.45,551.67L698.45,551.67z"/>
	</g>
</g>
<g>
	<path class="st1" d="M215.59,533.85"/>
	<g>
		<path class="st1" d="M215.59,536.35c3.22,0,3.22-5,0-5C212.37,531.35,212.37,536.35,215.59,536.35L215.59,536.35z"/>
	</g>
</g>
<g>
	<path class="st1" d="M410.21,509.85"/>
	<g>
		<path class="st1" d="M410.21,512.35c3.22,0,3.22-5,0-5C406.99,507.35,406.98,512.35,410.21,512.35L410.21,512.35z"/>
	</g>
</g>
<g>
	<path class="st1" d="M396.01,479.21"/>
	<g>
		<path class="st1" d="M396.01,481.71c3.22,0,3.22-5,0-5C392.79,476.71,392.78,481.71,396.01,481.71L396.01,481.71z"/>
	</g>
</g>
<g>
	<path class="st1" d="M287.13,489.93"/>
	<g>
		<path class="st1" d="M287.13,492.43c3.22,0,3.22-5,0-5C283.91,487.43,283.9,492.43,287.13,492.43L287.13,492.43z"/>
	</g>
</g>
<g>
	<path class="st1" d="M478.06,537.42"/>
	<g>
		<path class="st1" d="M478.06,539.92c3.22,0,3.22-5,0-5C474.84,534.92,474.84,539.92,478.06,539.92L478.06,539.92z"/>
	</g>
</g>
<g>
	<path class="st1" d="M501.73,488.4"/>
	<g>
		<path class="st1" d="M501.73,490.9c3.22,0,3.22-5,0-5C498.51,485.9,498.51,490.9,501.73,490.9L501.73,490.9z"/>
	</g>
</g>
<g>
	<path class="st1" d="M607.45,496.06"/>
	<g>
		<path class="st1" d="M607.45,498.56c3.22,0,3.22-5,0-5C604.24,493.56,604.23,498.56,607.45,498.56L607.45,498.56z"/>
	</g>
</g>
<g>
	<path class="st1" d="M408.63,575.72"/>
	<g>
		<path class="st1" d="M408.63,578.22c3.22,0,3.22-5,0-5C405.41,573.22,405.41,578.22,408.63,578.22L408.63,578.22z"/>
	</g>
</g>
<g>
	<path class="st1" d="M345.51,529.76"/>
	<g>
		<path class="st1" d="M345.51,532.26c3.22,0,3.22-5,0-5C342.29,527.26,342.29,532.26,345.51,532.26L345.51,532.26z"/>
	</g>
</g>
<g>
	<path class="st1" d="M83.11,479.98"/>
	<g>
		<path class="st1" d="M83.11,482.48c3.22,0,3.22-5,0-5C79.89,477.48,79.88,482.48,83.11,482.48L83.11,482.48z"/>
	</g>
</g>
<g>
	<path class="st1" d="M192.55,175.22"/>
	<g>
		<path class="st1" d="M192.55,177.72c3.22,0,3.22-5,0-5C189.33,172.72,189.33,177.72,192.55,177.72L192.55,177.72z"/>
	</g>
</g>
<g>
	<path class="st1" d="M267.73,378.87"/>
	<g>
		<path class="st1" d="M267.73,381.37c3.22,0,3.22-5,0-5C264.51,376.37,264.51,381.37,267.73,381.37L267.73,381.37z"/>
	</g>
</g>
<g>
	<path class="st1" d="M245.94,89.18"/>
	<g>
		<path class="st1" d="M245.94,91.68c3.22,0,3.22-5,0-5C242.72,86.68,242.71,91.68,245.94,91.68L245.94,91.68z"/>
	</g>
</g>
<g>
	<path class="st1" d="M27.61,373.25"/>
	<g>
		<path class="st1" d="M27.61,375.75c3.22,0,3.22-5,0-5C24.4,370.75,24.39,375.75,27.61,375.75L27.61,375.75z"/>
	</g>
</g>
<g>
	<path class="st1" d="M149.38,559.64"/>
	<g>
		<path class="st1" d="M149.38,562.14c3.22,0,3.22-5,0-5C146.16,557.14,146.16,562.14,149.38,562.14L149.38,562.14z"/>
	</g>
</g>
<g>
	<path class="st1" d="M206.71,475.89"/>
	<g>
		<path class="st1" d="M206.71,478.39c3.22,0,3.22-5,0-5C203.5,473.39,203.49,478.39,206.71,478.39L206.71,478.39z"/>
	</g>
</g>
<g>
	<path class="st1" d="M134.13,538.7"/>
	<g>
		<path class="st1" d="M134.13,541.2c3.22,0,3.22-5,0-5C130.91,536.2,130.9,541.2,134.13,541.2L134.13,541.2z"/>
	</g>
</g>
<g>
	<path class="st1" d="M75.74,535.64"/>
	<g>
		<path class="st1" d="M75.74,538.14c3.22,0,3.22-5,0-5C72.53,533.14,72.52,538.14,75.74,538.14L75.74,538.14z"/>
	</g>
</g>
<g>
	<path class="st1" d="M12.62,512.66"/>
	<g>
		<path class="st1" d="M12.62,515.16c3.22,0,3.22-5,0-5C9.41,510.16,9.4,515.16,12.62,515.16L12.62,515.16z"/>
	</g>
</g>
<g>
	<path class="st1" d="M173.58,397.76"/>
	<g>
		<path class="st1" d="M173.58,400.26c3.22,0,3.22-5,0-5C170.36,395.26,170.35,400.26,173.58,400.26L173.58,400.26z"/>
	</g>
</g>
<g>
	<g>
		<path class="st2" d="M159.71,325.82c3.22,0,3.22-5,0-5C156.49,320.82,156.48,325.82,159.71,325.82L159.71,325.82z"/>
	</g>
</g>
<g>
	<g>
		<path class="st2" d="M326.97,325.82c3.22,0,3.22-5,0-5C323.75,320.82,323.75,325.82,326.97,325.82L326.97,325.82z"/>
	</g>
</g>
<path class="st3" d="M185.22,321.17c0.9,0.61-111.32-52.23-170.76,28.65c-0.99,1.34-3.41,0.41-2.97-1.11
	C19.15,322.35,67.37,241.59,185.22,321.17z"/>
<path class="st4" d="M1093.65,571.17c20.55-2.52,41.22,0.44,61.86-1c6.41-0.45,14.09-1.23,21.62-1.12
	c-54.51-80.17-130.29-152.5-226.27-210.96C663.62,183.17,282.55,185.38,5.59,341.84c0.4,0.92,0.67,1.9,0.81,2.91
	c1.14,8.62,0,17.18-0.95,25.77c-0.96,8.69-0.84,17.33-1.15,26.05c-0.29,8.3-1.73,16.6-2.64,24.89c1.44,1.47,2.3,3.42,2.2,5.88
	c-0.2,4.81,1.66,9.53,2.09,14.32c0.39,4.36-0.55,8.16-2.72,11.73c2.27,1.53,3.79,3.85,3.79,6.98c-0.01,8.48-0.22,17.06-2.88,25.29
	c3.88,4.09,3.19,10.89-2.05,14.02c0.48,9.95,0.79,19.9,0.82,29.86c0.03,9.08-0.22,18.16-0.53,27.24c0.41,0.45,0.8,0.94,1.15,1.5
	c2.31,3.7,4.48,7.47,6.76,11.17c0.64,0.15,1.73,0.43,1.84,0.44c1.67,0.17,6.74,0.2,9.54,0.2c20.25,0,40.5-0.11,60.74,0.2
	c40.85,0.63,81.63,0.84,122.49,0.67c73.68-0.31,147.38-0.9,221.06-1.04c36.79-0.07,73.54,1,110.32,1.26
	c36.59,0.26,73.18,0,109.77-0.25c147.33-1,294.7-0.85,442.03-0.85C1090.27,570.09,1092.11,570.49,1093.65,571.17z"/>
<path class="st3" d="M797.38,379.72c0,0-37.18-15.2-13.04-31.88C784.34,347.83,733,354.72,797.38,379.72z"/>
<path class="st3" d="M855.09,377.84c0,0,28.39-11.83-29.56-32.29c-0.82-0.29-0.39-0.76,0.54-0.59
	C843.42,348.1,901.99,361.95,855.09,377.84z"/>
<path class="st3" d="M371.02,400.03c23.16-6.2,85.59-15.41,137.93,44.51c0.56,0.64,1.78,0.11,1.41-0.62
	c-10.84-21.39-57.37-98.81-140.77-46.18C368.17,398.65,369.31,400.49,371.02,400.03z"/>
<path class="st3" d="M343.15,498.02c-0.91-0.81-2.49,0.07-1.87,1.05c13.5,21.44,66.75,89.6,158.18,7.51
	C499.46,506.58,425.38,570.69,343.15,498.02z"/>
<path class="st3" d="M167.49,360.82c-17.87,22.81-66.41,65.79-151.22,9.13c-1.12-0.75-0.09-2.23,1.25-1.78
	c22.67,7.57,88.65,24.53,145.62-10.64C165.8,355.87,169.29,358.52,167.49,360.82z"/>
<path class="st5" d="M1495.2,570.35H17.59c-7.55,0-13.67-6.12-13.67-13.67V22.7c0-7.55,6.12-13.67,13.67-13.67H1495.2
	c7.55,0,13.67,6.12,13.67,13.67v533.98C1508.87,564.23,1502.75,570.35,1495.2,570.35z"/>
<path class="st6" d="M1281.84,278.84c0,0,0.97,0.35,2.72,1.02c12.66,4.85,65.99,26.53,86.7,55.31c2.12,2.95,0.06,7.06-3.58,7.09l0,0
	c-4.28,0.04-6.06,5.49-2.63,8.04c18.43,13.73,53.68,44.04,62.55,80.51c0.66,2.7-1.25,5.34-4.02,5.54l-6.18,0.44
	c-3.12,0.22-5.05,3.5-3.73,6.34c7.03,15.09,24.3,55.22,17.47,71.72c-8.62,20.79-70.33-23.07-85.57-37.6c-2-1.9-5.23-1.54-6.77,0.74
	l-3.88,5.75c-1.41,2.1-4.28,2.6-6.33,1.12c-9-6.54-32.46-24.18-51.8-43.88c-2.67-2.72-7.3-1.04-7.63,2.75l-0.06,0.72
	c-0.35,3.99-5.36,5.55-7.9,2.46c-11.52-14.02-34.27-47.65-45.34-104.9L1281.84,278.84z"/>
<path class="st7" d="M1233.57,325.94c2.19,30.59,30.24,74.08,41.38,90.25c1.45,2.1,4.73,1.15,4.83-1.4v0
	c0.1-2.35,2.98-3.42,4.59-1.7c18.63,19.94,29.12,26.17,33.34,28.06c1.21,0.54,2.63,0.09,3.32-1.03l1.46-2.36
	c0.82-1.33,2.61-1.66,3.86-0.72c28.8,21.77,38.83,26.56,48.78,23.52c8.3-2.54-3.41-33.11-8.1-44.49c-0.78-1.88,0.77-3.9,2.79-3.64
	l3.64,0.47c1.78,0.23,3.28-1.34,2.95-3.1c-4.49-24.3-26.85-42.43-39.2-50.78c-2.2-1.48-1.1-4.91,1.55-4.85l2.77,0.07
	c2.29,0.06,3.58-2.64,2.08-4.37c-25.44-29.37-82.02-51.2-82.02-51.2L1233.57,325.94z"/>
<path class="st8" d="M1240.59,319.24c0.35,10.08,15.97,33.77,21.51,41.86c0.6,0.88,1.97,0.47,2-0.6l0-0.02
	c0.02-1.03,1.31-1.45,1.96-0.65c6.21,7.73,11.99,12.21,14.35,13.88c0.57,0.41,1.37,0.17,1.64-0.48l0.59-1.42
	c0.29-0.7,1.18-0.9,1.74-0.4c12.88,11.58,19.59,14.3,23.7,13.6c3.53-0.6-2.49-15.9-4.58-20.94c-0.31-0.74,0.26-1.55,1.06-1.52
	l1.98,0.09c0.64,0.03,1.16-0.48,1.15-1.12c-0.06-7.4-12.66-19.69-18.01-24.57c-0.76-0.7-0.22-1.97,0.81-1.9l0.05,0
	c0.96,0.06,1.52-1.06,0.9-1.81c-10.7-12.91-33.15-23.88-37.27-25.83c-0.4-0.19-0.87-0.12-1.2,0.18l-12.03,10.8
	C1240.72,318.62,1240.57,318.92,1240.59,319.24z"/>
<path class="st9" d="M1016.08,69.9c229.6,4.89,237.69,188.89,237.69,188.89l-55.64,54.13c0,0-183.71-13.18-182.24-242.83"/>
<circle class="st10" cx="1119.92" cy="177.1" r="43.72"/>
<circle class="st11" cx="1119.5" cy="176.66" r="33.44"/>
<polyline class="st11" points="1253.4,259.15 1287.71,272.78 1210.53,347.86 1197.85,313.18 "/>
<path class="st12" d="M1160.58,107.3c0,0,95.27,2.16,133.82,104.24l-52.84-4.81c-12.95-40.72-40.56-74.04-80.16-99.21"/>
<path class="st12" d="M1050,214.86c0,0-0.48,95.3,100.5,136.65l-3.35-52.95c-40.35-14.07-72.89-42.59-96.95-82.88"/>
</svg>
