<?xml version="1.0" encoding="utf-8"?>
<!-- Generator: Adobe Illustrator 27.3.1, SVG Export Plug-In . SVG Version: 6.00 Build 0)  -->
<svg version="1.1" id="Layer_1" xmlns="http://www.w3.org/2000/svg" xmlns:xlink="http://www.w3.org/1999/xlink" x="0px" y="0px"
	 viewBox="0 0 108 108" style="enable-background:new 0 0 108 108;" xml:space="preserve">
<style type="text/css">
	.st0{fill:#ECDED8;stroke:#CEBAB3;stroke-miterlimit:10;}
	.st1{fill:none;stroke:#A7A593;stroke-miterlimit:10;}
	.st2{fill:#E9DAD4;stroke:#CEBAB3;stroke-miterlimit:10;}
	.st3{fill:#1B140F;}
	.st4{fill:#0E1A1C;stroke:#76CDE1;stroke-width:2;stroke-miterlimit:10;}
	.st5{fill:none;stroke:#76CDE1;stroke-width:2;stroke-miterlimit:10;}
</style>
<polygon class="st0" points="100.21,98.65 6.73,97.86 6.73,68.59 100.44,68.5 "/>
<path class="st1" d="M100.21,69.1"/>
<path class="st0" d="M99.66,43.72c0,0-7.8-40.04-46.31-40.04h0.22c-38.51,0-46.31,40.04-46.31,40.04"/>
<path class="st2" d="M53.16,84.99c44.32-0.53,47.05-15.89,47.05-15.89V49.37c0-20.11-20.81-36.42-46.48-36.42h-0.55
	c-25.67,0-46.48,16.3-46.48,36.42V69.1c0,0,2.73,15.36,47.05,15.89"/>
<path class="st0" d="M53.45,104.67c27.28-0.41,38.66-2.84,43.49-4.11c3.87-1.01,3.28-3.44,3.28-3.44v-3.25
	c0,0-16.29,4.42-46.31,4.09h-0.89C22.99,98.29,6.7,93.87,6.7,93.87v3.25c0,0-0.6,2.43,3.28,3.44c4.83,1.26,16.21,3.7,43.49,4.11"/>
<path class="st1" d="M54.04,25.09"/>
<path class="st1" d="M54.04,25.09"/>
<g>
	<path class="st3" d="M53.57,81.95C12.51,81.46,9.98,67.23,9.98,67.23V48.95c0-18.63,19.28-33.74,43.06-33.74c0.83,0,0.83,0,0.83,0
		c23.78,0,43.06,15.11,43.06,33.74v18.28c0,0-2.53,14.23-43.59,14.72"/>
</g>
<path class="st4" d="M37.16,11.14l2.59,5.25c0.47,0.96,1.39,1.63,2.45,1.78l5.79,0.84c2.67,0.39,3.74,3.67,1.81,5.56l-4.19,4.09
	c-0.77,0.75-1.12,1.83-0.94,2.88l0.99,5.77c0.46,2.66-2.34,4.69-4.73,3.44l-5.18-2.72c-0.95-0.5-2.08-0.5-3.03,0l-5.18,2.72
	c-2.39,1.26-5.18-0.77-4.73-3.44l0.99-5.77c0.18-1.06-0.17-2.14-0.94-2.88l-4.19-4.09c-1.93-1.89-0.87-5.17,1.81-5.56l5.79-0.84
	c1.06-0.15,1.98-0.82,2.45-1.78l2.59-5.25C32.51,8.72,35.96,8.72,37.16,11.14z"/>
<path class="st4" d="M75.49,11l2.59,5.25c0.47,0.96,1.39,1.63,2.45,1.78l5.79,0.84c2.67,0.39,3.74,3.67,1.81,5.56l-4.19,4.09
	c-0.77,0.75-1.12,1.83-0.94,2.88L84,37.17c0.46,2.66-2.34,4.69-4.73,3.44l-5.18-2.72c-0.95-0.5-2.08-0.5-3.03,0l-5.18,2.72
	c-2.39,1.26-5.18-0.77-4.73-3.44l0.99-5.77c0.18-1.06-0.17-2.14-0.94-2.88L57,24.43c-1.93-1.89-0.87-5.17,1.81-5.56l5.79-0.84
	c1.06-0.15,1.98-0.82,2.45-1.78L69.65,11C70.84,8.58,74.3,8.58,75.49,11z"/>
<line class="st5" x1="50.96" y1="21.35" x2="55.43" y2="21.35"/>
</svg>
