<?xml version="1.0" encoding="utf-8"?>
<!-- Generator: Adobe Illustrator 27.3.1, SVG Export Plug-In . SVG Version: 6.00 Build 0)  -->
<svg version="1.1" id="Layer_1" xmlns="http://www.w3.org/2000/svg" xmlns:xlink="http://www.w3.org/1999/xlink" x="0px" y="0px"
	 viewBox="0 0 1080 684" style="enable-background:new 0 0 1080 684;" xml:space="preserve">
<style type="text/css">
	.st0{fill:#142728;}
	.st1{fill:none;stroke:#001012;stroke-width:5;stroke-miterlimit:10;}
	.st2{fill:#E5E5E4;}
	.st3{fill:#FFF1E7;}
	.st4{fill:#EDDFD9;stroke:#CEBBB3;stroke-width:3;stroke-miterlimit:10;}
	.st5{fill:none;stroke:#CEBBB3;stroke-width:3;stroke-miterlimit:10;}
	.st6{fill:#CEBBB3;stroke:#AB9C96;stroke-width:3;stroke-miterlimit:10;}
	.st7{fill:#F26722;stroke:#F26722;stroke-miterlimit:10;}
	.st8{fill:#F79756;}
	.st9{fill:#F9B485;}
	.st10{fill:#EEE0D8;stroke:#D7AF9D;stroke-width:0.25;stroke-miterlimit:10;}
	.st11{fill:#CEBBB3;stroke:#C2A79D;stroke-width:0.25;stroke-miterlimit:10;}
	.st12{fill:#1B140F;stroke:#000000;stroke-width:0.25;stroke-miterlimit:10;}
	.st13{fill:#D74928;stroke:#BB3B26;stroke-width:0.25;stroke-miterlimit:10;}
</style>
<path class="st0" d="M19.3,665.1h1040.6c7.6,0,13.7-6.1,13.7-13.7V33.1c0-7.6-6.1-13.7-13.7-13.7H19.3c-7.6,0-13.7,6.1-13.7,13.7
	v618.3C5.6,659,11.7,665.1,19.3,665.1z"/>
<path class="st1" d="M19.3,665.1h1040.6c7.6,0,13.7-6.1,13.7-13.7V33.1c0-7.6-6.1-13.7-13.7-13.7H19.3c-7.6,0-13.7,6.1-13.7,13.7
	v618.3C5.6,659,11.7,665.1,19.3,665.1z"/>
<g>
	<g>
		<path class="st2" d="M837.9,179.3c3.2,0,3.2-5,0-5C834.7,174.3,834.7,179.3,837.9,179.3L837.9,179.3z"/>
	</g>
</g>
<g>
	<g>
		<path class="st2" d="M913.7,517.2c3.2,0,3.2-5,0-5C910.5,512.2,910.5,517.2,913.7,517.2L913.7,517.2z"/>
	</g>
</g>
<g>
	<g>
		<path class="st2" d="M389.8,468.1c3.2,0,3.2-5,0-5C386.6,463.1,386.6,468.1,389.8,468.1L389.8,468.1z"/>
	</g>
</g>
<g>
	<g>
		<path class="st2" d="M411.9,256.7c3.2,0,3.2-5,0-5C408.7,251.7,408.7,256.7,411.9,256.7L411.9,256.7z"/>
	</g>
</g>
<g>
	<g>
		<path class="st2" d="M494,474.3c3.2,0,3.2-5,0-5C490.7,469.3,490.7,474.3,494,474.3L494,474.3z"/>
	</g>
</g>
<g>
	<g>
		<path class="st2" d="M136.5,535.5c3.2,0,3.2-5,0-5C133.3,530.5,133.3,535.5,136.5,535.5L136.5,535.5z"/>
	</g>
</g>
<g>
	<g>
		<path class="st2" d="M951.6,621.3c3.2,0,3.2-5,0-5C948.4,616.3,948.3,621.3,951.6,621.3L951.6,621.3z"/>
	</g>
</g>
<g>
	<g>
		<path class="st2" d="M957.9,382.4c3.2,0,3.2-5,0-5C954.7,377.4,954.7,382.4,957.9,382.4L957.9,382.4z"/>
	</g>
</g>
<g>
	<g>
		<path class="st2" d="M819,422.2c3.2,0,3.2-5,0-5C815.8,417.2,815.8,422.2,819,422.2L819,422.2z"/>
	</g>
</g>
<g>
	<g>
		<path class="st2" d="M809.6,265.9c3.2,0,3.2-5,0-5C806.3,260.9,806.3,265.9,809.6,265.9L809.6,265.9z"/>
	</g>
</g>
<g>
	<g>
		<path class="st2" d="M201.5,154.6c3.2,0,3.2-5,0-5C198.3,149.6,198.3,154.6,201.5,154.6L201.5,154.6z"/>
	</g>
</g>
<g>
	<g>
		<path class="st2" d="M755.8,346.6c3.2,0,3.2-5,0-5C752.6,341.6,752.6,346.6,755.8,346.6L755.8,346.6z"/>
	</g>
</g>
<g>
	<g>
		<path class="st2" d="M449.8,376.2c3.2,0,3.2-5,0-5C446.6,371.2,446.6,376.2,449.8,376.2L449.8,376.2z"/>
	</g>
</g>
<g>
	<g>
		<path class="st2" d="M213.1,238.4c3.2,0,3.2-5,0-5C209.9,233.4,209.9,238.4,213.1,238.4L213.1,238.4z"/>
	</g>
</g>
<g>
	<g>
		<path class="st2" d="M714,623.7c3.2,0,3.2-5,0-5C710.8,618.7,710.8,623.7,714,623.7L714,623.7z"/>
	</g>
</g>
<g>
	<g>
		<path class="st2" d="M415.2,317.1c3.2,0,3.2-5,0-5C412,312.1,412,317.1,415.2,317.1L415.2,317.1z"/>
	</g>
</g>
<g>
	<g>
		<path class="st2" d="M885.3,223c3.2,0,3.2-5,0-5C882.1,218,882.1,223,885.3,223L885.3,223z"/>
	</g>
</g>
<g>
	<g>
		<path class="st2" d="M535,154.7c3.2,0,3.2-5,0-5C531.7,149.7,531.7,154.7,535,154.7L535,154.7z"/>
	</g>
</g>
<g>
	<g>
		<path class="st2" d="M702.3,213.8c3.2,0,3.2-5,0-5C699,208.8,699,213.8,702.3,213.8L702.3,213.8z"/>
	</g>
</g>
<g>
	<g>
		<path class="st2" d="M535,290.4c3.2,0,3.2-5,0-5C531.8,285.4,531.8,290.4,535,290.4L535,290.4z"/>
	</g>
</g>
<g>
	<g>
		<path class="st2" d="M258.6,210.5c3.2,0,3.2-5,0-5C255.4,205.5,255.3,210.5,258.6,210.5L258.6,210.5z"/>
	</g>
</g>
<g>
	<g>
		<path class="st2" d="M257,615.1c3.2,0,3.2-5,0-5C253.8,610.1,253.8,615.1,257,615.1L257,615.1z"/>
	</g>
</g>
<g>
	<g>
		<path class="st2" d="M162.6,296.6c3.2,0,3.2-5,0-5C159.4,291.6,159.4,296.6,162.6,296.6L162.6,296.6z"/>
	</g>
</g>
<g>
	<g>
		<path class="st2" d="M141.1,174.7c3.2,0,3.2-5,0-5C137.9,169.7,137.9,174.7,141.1,174.7L141.1,174.7z"/>
	</g>
</g>
<g>
	<g>
		<path class="st2" d="M292,275.1c3.2,0,3.2-5,0-5C288.8,270.1,288.8,275.1,292,275.1L292,275.1z"/>
	</g>
</g>
<g>
	<g>
		<path class="st2" d="M399.3,370.1c3.2,0,3.2-5,0-5C396.1,365.1,396.1,370.1,399.3,370.1L399.3,370.1z"/>
	</g>
</g>
<g>
	<g>
		<path class="st2" d="M389.8,557c3.2,0,3.2-5,0-5C386.6,552,386.6,557,389.8,557L389.8,557z"/>
	</g>
</g>
<g>
	<g>
		<path class="st2" d="M153.5,467.3c3.2,0,3.2-5,0-5C150.3,462.3,150.3,467.3,153.5,467.3L153.5,467.3z"/>
	</g>
</g>
<g>
	<g>
		<path class="st2" d="M197.3,553.9c3.2,0,3.2-5,0-5C194.1,548.9,194.1,553.9,197.3,553.9L197.3,553.9z"/>
	</g>
</g>
<g>
	<g>
		<path class="st2" d="M501.9,208.8c3.2,0,3.2-5,0-5C498.7,203.8,498.7,208.8,501.9,208.8L501.9,208.8z"/>
	</g>
</g>
<g>
	<g>
		<path class="st2" d="M364.6,431.4c3.2,0,3.2-5,0-5C361.3,426.4,361.3,431.4,364.6,431.4L364.6,431.4z"/>
	</g>
</g>
<g>
	<g>
		<path class="st2" d="M826.9,328.7c3.2,0,3.2-5,0-5C823.7,323.7,823.7,328.7,826.9,328.7L826.9,328.7z"/>
	</g>
</g>
<g>
	<g>
		<path class="st2" d="M934.2,262.9c3.2,0,3.2-5,0-5C931,257.9,931,262.9,934.2,262.9L934.2,262.9z"/>
	</g>
</g>
<g>
	<g>
		<path class="st2" d="M590.7,456.4c3.2,0,3.2-5,0-5C587.5,451.4,587.5,456.4,590.7,456.4L590.7,456.4z"/>
	</g>
</g>
<g>
	<g>
		<path class="st2" d="M562.3,346.1c3.2,0,3.2-5,0-5C559.1,341.1,559.1,346.1,562.3,346.1L562.3,346.1z"/>
	</g>
</g>
<g>
	<g>
		<path class="st2" d="M647.5,300.1c3.2,0,3.2-5,0-5C644.3,295.1,644.3,300.1,647.5,300.1L647.5,300.1z"/>
	</g>
</g>
<g>
	<g>
		<path class="st2" d="M644.4,442.6c3.2,0,3.2-5,0-5C641.2,437.6,641.2,442.6,644.4,442.6L644.4,442.6z"/>
	</g>
</g>
<g>
	<g>
		<path class="st2" d="M742.2,448.7c3.2,0,3.2-5,0-5C739,443.7,739,448.7,742.2,448.7L742.2,448.7z"/>
	</g>
</g>
<g>
	<g>
		<path class="st2" d="M794.3,529.9c3.2,0,3.2-5,0-5C791.1,524.9,791.1,529.9,794.3,529.9L794.3,529.9z"/>
	</g>
</g>
<g>
	<g>
		<path class="st2" d="M890.6,447.2c3.2,0,3.2-5,0-5C887.3,442.2,887.3,447.2,890.6,447.2L890.6,447.2z"/>
	</g>
</g>
<g>
	<g>
		<path class="st2" d="M659.8,377.5c3.2,0,3.2-5,0-5C656.6,372.5,656.6,377.5,659.8,377.5L659.8,377.5z"/>
	</g>
</g>
<g>
	<g>
		<path class="st2" d="M966.3,551.4c3.2,0,3.2-5,0-5C963.1,546.4,963.1,551.4,966.3,551.4L966.3,551.4z"/>
	</g>
</g>
<g>
	<g>
		<path class="st2" d="M1018,560.6c3.2,0,3.2-5,0-5C1014.8,555.6,1014.8,560.6,1018,560.6L1018,560.6z"/>
	</g>
</g>
<g>
	<g>
		<path class="st2" d="M985.2,430.4c3.2,0,3.2-5,0-5C982,425.4,982,430.4,985.2,430.4L985.2,430.4z"/>
	</g>
</g>
<g>
	<g>
		<path class="st2" d="M1010.1,344.6c3.2,0,3.2-5,0-5C1006.9,339.6,1006.9,344.6,1010.1,344.6L1010.1,344.6z"/>
	</g>
</g>
<g>
	<g>
		<path class="st2" d="M995.9,234.3c3.2,0,3.2-5,0-5C992.7,229.3,992.7,234.3,995.9,234.3L995.9,234.3z"/>
	</g>
</g>
<g>
	<g>
		<path class="st2" d="M985.7,144.6c3.2,0,3.2-5,0-5C982.5,139.6,982.5,144.6,985.7,144.6L985.7,144.6z"/>
	</g>
</g>
<g>
	<g>
		<path class="st2" d="M944.7,187.1c3.2,0,3.2-5,0-5C941.5,182.1,941.5,187.1,944.7,187.1L944.7,187.1z"/>
	</g>
</g>
<g>
	<g>
		<path class="st2" d="M770.6,171.5c3.2,0,3.2-5,0-5C767.4,166.5,767.4,171.5,770.6,171.5L770.6,171.5z"/>
	</g>
</g>
<g>
	<g>
		<path class="st2" d="M689.3,133.7c3.2,0,3.2-5,0-5C686.1,128.7,686.1,133.7,689.3,133.7L689.3,133.7z"/>
	</g>
</g>
<g>
	<g>
		<path class="st2" d="M418.7,196c3.2,0,3.2-5,0-5C415.5,191,415.5,196,418.7,196L418.7,196z"/>
	</g>
</g>
<g>
	<g>
		<path class="st2" d="M360.4,192.9c3.2,0,3.2-5,0-5C357.1,187.9,357.1,192.9,360.4,192.9L360.4,192.9z"/>
	</g>
</g>
<g>
	<g>
		<path class="st2" d="M306.8,207.2c3.2,0,3.2-5,0-5C303.6,202.2,303.6,207.2,306.8,207.2L306.8,207.2z"/>
	</g>
</g>
<g>
	<g>
		<path class="st2" d="M571.7,512.6c3.2,0,3.2-5,0-5C568.4,507.6,568.4,512.6,571.7,512.6L571.7,512.6z"/>
	</g>
</g>
<g>
	<g>
		<path class="st2" d="M728,490.1c3.2,0,3.2-5,0-5C724.8,485.1,724.8,490.1,728,490.1L728,490.1z"/>
	</g>
</g>
<g>
	<g>
		<path class="st2" d="M542.2,434.8c3.2,0,3.2-5,0-5C539,429.8,538.9,434.8,542.2,434.8L542.2,434.8z"/>
	</g>
</g>
<g>
	<g>
		<path class="st2" d="M538.7,572.8c3.2,0,3.2-5,0-5C535.4,567.8,535.4,572.8,538.7,572.8L538.7,572.8z"/>
	</g>
</g>
<g>
	<g>
		<path class="st2" d="M713,548.8c3.2,0,3.2-5,0-5C709.8,543.8,709.8,548.8,713,548.8L713,548.8z"/>
	</g>
</g>
<g>
	<g>
		<path class="st2" d="M642.8,586.6c3.2,0,3.2-5,0-5C639.6,581.6,639.6,586.6,642.8,586.6L642.8,586.6z"/>
	</g>
</g>
<g>
	<g>
		<path class="st2" d="M556,620.3c3.2,0,3.2-5,0-5C552.8,615.3,552.8,620.3,556,620.3L556,620.3z"/>
	</g>
</g>
<g>
	<g>
		<path class="st2" d="M478.7,597.3c3.2,0,3.2-5,0-5C475.5,592.3,475.5,597.3,478.7,597.3L478.7,597.3z"/>
	</g>
</g>
<g>
	<g>
		<path class="st2" d="M597.9,242.8c3.2,0,3.2-5,0-5C594.7,237.8,594.7,242.8,597.9,242.8L597.9,242.8z"/>
	</g>
</g>
<g>
	<g>
		<path class="st2" d="M770.6,618.8c3.2,0,3.2-5,0-5C767.4,613.8,767.4,618.8,770.6,618.8L770.6,618.8z"/>
	</g>
</g>
<g>
	<g>
		<path class="st2" d="M853.4,571.1c3.2,0,3.2-5,0-5C850.2,566.1,850.2,571.1,853.4,571.1L853.4,571.1z"/>
	</g>
</g>
<g>
	<g>
		<path class="st2" d="M655.2,502.9c3.2,0,3.2-5,0-5C652,497.9,652,502.9,655.2,502.9L655.2,502.9z"/>
	</g>
</g>
<g>
	<g>
		<path class="st2" d="M146.9,623.5c3.2,0,3.2-5,0-5C143.7,618.5,143.7,623.5,146.9,623.5L146.9,623.5z"/>
	</g>
</g>
<g>
	<g>
		<path class="st2" d="M290.9,413.5c3.2,0,3.2-5,0-5C287.7,408.5,287.7,413.5,290.9,413.5L290.9,413.5z"/>
	</g>
</g>
<g>
	<g>
		<path class="st2" d="M458.2,413.5c3.2,0,3.2-5,0-5C455,408.5,455,413.5,458.2,413.5L458.2,413.5z"/>
	</g>
</g>
<g>
	<g>
		<path class="st2" d="M578.1,422.7c3.2,0,3.2-5,0-5C574.9,417.7,574.9,422.7,578.1,422.7L578.1,422.7z"/>
	</g>
</g>
<g>
	<g>
		<path class="st2" d="M1048.7,307.1c3.2,0,3.2-5,0-5C1045.5,302.1,1045.5,307.1,1048.7,307.1L1048.7,307.1z"/>
	</g>
</g>
<g>
	<g>
		<path class="st2" d="M66.2,505.5c3.2,0,3.2-5,0-5C63,500.5,63,505.5,66.2,505.5L66.2,505.5z"/>
	</g>
</g>
<g>
	<g>
		<path class="st2" d="M75.2,619.5c3.2,0,3.2-5,0-5C72,614.5,72,619.5,75.2,619.5L75.2,619.5z"/>
	</g>
</g>
<g>
	<g>
		<path class="st2" d="M79.8,351.9c3.2,0,3.2-5,0-5C76.6,346.9,76.6,351.9,79.8,351.9L79.8,351.9z"/>
	</g>
</g>
<g>
	<g>
		<path class="st2" d="M119,399.3c3.2,0,3.2-5,0-5C115.8,394.3,115.8,399.3,119,399.3L119,399.3z"/>
	</g>
</g>
<g>
	<g>
		<path class="st2" d="M30.2,590.6c3.2,0,3.2-5,0-5C27,585.6,27,590.6,30.2,590.6L30.2,590.6z"/>
	</g>
</g>
<g>
	<g>
		<path class="st2" d="M35.2,433c3.2,0,3.2-5,0-5C32,428,32,433,35.2,433L35.2,433z"/>
	</g>
</g>
<g>
	<g>
		<path class="st2" d="M73.5,556.5c3.2,0,3.2-5,0-5C70.3,551.5,70.3,556.5,73.5,556.5L73.5,556.5z"/>
	</g>
</g>
<g>
	<g>
		<path class="st2" d="M79.8,221.9c3.2,0,3.2-5,0-5C76.6,216.9,76.6,221.9,79.8,221.9L79.8,221.9z"/>
	</g>
</g>
<g>
	<g>
		<path class="st2" d="M119,269.3c3.2,0,3.2-5,0-5C115.8,264.3,115.8,269.3,119,269.3L119,269.3z"/>
	</g>
</g>
<g>
	<g>
		<path class="st2" d="M35.2,303c3.2,0,3.2-5,0-5C32,298,32,303,35.2,303L35.2,303z"/>
	</g>
</g>
<g>
	<g>
		<path class="st2" d="M984,89.7c3.2,0,3.2-5,0-5C980.8,84.7,980.8,89.7,984,89.7L984,89.7z"/>
	</g>
</g>
<g>
	<g>
		<path class="st2" d="M746.5,92.1c3.2,0,3.2-5,0-5C743.3,87.1,743.3,92.1,746.5,92.1L746.5,92.1z"/>
	</g>
</g>
<g>
	<g>
		<path class="st2" d="M1050.5,28.9c3.2,0,3.2-5,0-5C1047.2,23.9,1047.2,28.9,1050.5,28.9L1050.5,28.9z"/>
	</g>
</g>
<g>
	<g>
		<path class="st2" d="M675.3,54.9c3.2,0,3.2-5,0-5C672.1,49.9,672,54.9,675.3,54.9L675.3,54.9z"/>
	</g>
</g>
<g>
	<g>
		<path class="st2" d="M588.5,88.7c3.2,0,3.2-5,0-5C585.3,83.7,585.3,88.7,588.5,88.7L588.5,88.7z"/>
	</g>
</g>
<g>
	<g>
		<path class="st2" d="M803.1,87.1c3.2,0,3.2-5,0-5C799.9,82.1,799.9,87.1,803.1,87.1L803.1,87.1z"/>
	</g>
</g>
<g>
	<g>
		<path class="st2" d="M885.8,39.4c3.2,0,3.2-5,0-5C882.6,34.4,882.6,39.4,885.8,39.4L885.8,39.4z"/>
	</g>
</g>
<g>
	<g>
		<path class="st2" d="M470,37.8c3.2,0,3.2-5,0-5C466.7,32.8,466.7,37.8,470,37.8L470,37.8z"/>
	</g>
</g>
<g>
	<g>
		<path class="st2" d="M232.4,35.4c3.2,0,3.2-5,0-5C229.2,30.4,229.2,35.4,232.4,35.4L232.4,35.4z"/>
	</g>
</g>
<g>
	<g>
		<path class="st2" d="M312.7,129.2c3.2,0,3.2-5,0-5C309.5,124.2,309.5,129.2,312.7,129.2L312.7,129.2z"/>
	</g>
</g>
<g>
	<g>
		<path class="st2" d="M112.3,114c3.2,0,3.2-5,0-5C109.1,109,109.1,114,112.3,114L112.3,114z"/>
	</g>
</g>
<g>
	<g>
		<path class="st2" d="M536.4,98.6c3.2,0,3.2-5,0-5C533.2,93.6,533.2,98.6,536.4,98.6L536.4,98.6z"/>
	</g>
</g>
<g>
	<g>
		<path class="st2" d="M231.4,110.4c3.2,0,3.2-5,0-5C228.2,105.4,228.2,110.4,231.4,110.4L231.4,110.4z"/>
	</g>
</g>
<g>
	<g>
		<path class="st2" d="M161.2,72.6c3.2,0,3.2-5,0-5C158,67.6,158,72.6,161.2,72.6L161.2,72.6z"/>
	</g>
</g>
<g>
	<g>
		<path class="st2" d="M74.4,38.9c3.2,0,3.2-5,0-5C71.2,33.9,71.2,38.9,74.4,38.9L74.4,38.9z"/>
	</g>
</g>
<g>
	<g>
		<path class="st2" d="M309.1,52c3.2,0,3.2-5,0-5C305.9,47,305.9,52,309.1,52L309.1,52z"/>
	</g>
</g>
<g>
	<g>
		<path class="st2" d="M371.8,88.1c3.2,0,3.2-5,0-5C368.6,83.1,368.6,88.1,371.8,88.1L371.8,88.1z"/>
	</g>
</g>
<g>
	<g>
		<path class="st2" d="M48,115.2c3.2,0,3.2-5,0-5C44.8,110.2,44.8,115.2,48,115.2L48,115.2z"/>
	</g>
</g>
<g>
	<g>
		<path class="st3" d="M209.9,364c3.2,0,3.2-5,0-5C206.7,359,206.7,364,209.9,364L209.9,364z"/>
	</g>
</g>
<g>
	<g>
		<path class="st3" d="M345.6,348.7c3.2,0,3.2-5,0-5C342.4,343.7,342.4,348.7,345.6,348.7L345.6,348.7z"/>
	</g>
</g>
<g>
	<g>
		<path class="st3" d="M206.8,443.6c3.2,0,3.2-5,0-5C203.5,438.6,203.5,443.6,206.8,443.6L206.8,443.6z"/>
	</g>
</g>
<g>
	<g>
		<path class="st3" d="M336.2,593.8c3.2,0,3.2-5,0-5C332.9,588.8,332.9,593.8,336.2,593.8L336.2,593.8z"/>
	</g>
</g>
<g>
	<g>
		<path class="st3" d="M449.8,523.3c3.2,0,3.2-5,0-5C446.6,518.3,446.6,523.3,449.8,523.3L449.8,523.3z"/>
	</g>
</g>
<g>
	<g>
		<path class="st3" d="M669.6,185.2c3.2,0,3.2-5,0-5C666.4,180.2,666.4,185.2,669.6,185.2L669.6,185.2z"/>
	</g>
</g>
<g>
	<g>
		<path class="st3" d="M273.6,548.3c3.2,0,3.2-5,0-5C270.4,543.3,270.3,548.3,273.6,548.3L273.6,548.3z"/>
	</g>
</g>
<path class="st4" d="M250.1,473.3L215,487.1c-1.4,0.5-2.9,0.1-3.8-1.2l-76.3-114.5c-1.1-1.7-0.4-4,1.6-4.7l30.3-10.4
	c1.3-0.4,2.7,0,3.5,1.1l81.2,111.1C252.7,470.2,252,472.5,250.1,473.3z"/>
<line class="st5" x1="240" y1="452.2" x2="199.1" y2="468.2"/>
<line class="st5" x1="225.1" y1="432.5" x2="186" y2="447.9"/>
<line class="st5" x1="210.5" y1="412.7" x2="172.5" y2="427.7"/>
<line class="st5" x1="196" y1="392.9" x2="159" y2="407.5"/>
<line class="st5" x1="181.8" y1="373.2" x2="145.6" y2="387.2"/>
<path class="st4" d="M298.1,453l-34.6,15.2c-1.3,0.6-2.9,0.2-3.8-1L179,355.6c-1.2-1.7-0.5-4,1.4-4.8l29.9-11.6
	c1.3-0.5,2.7-0.1,3.6,1l85.4,107.9C300.6,449.8,300,452.1,298.1,453z"/>
<line class="st5" x1="287.1" y1="432.2" x2="246.9" y2="449.9"/>
<line class="st5" x1="271.5" y1="413.1" x2="233" y2="430"/>
<line class="st5" x1="256.1" y1="394" x2="218.7" y2="410.4"/>
<line class="st5" x1="240.9" y1="374.8" x2="204.5" y2="390.7"/>
<line class="st5" x1="225.9" y1="355.6" x2="190.3" y2="371"/>
<path class="st4" d="M359.6,432.3l-35.2,13.8c-1.4,0.5-2.9,0.1-3.8-1.2l-76.3-114.5c-1.1-1.7-0.4-4,1.6-4.7l30.3-10.4
	c1.3-0.4,2.7,0,3.5,1.1L361,427.5C362.2,429.2,361.5,431.5,359.6,432.3z"/>
<line class="st5" x1="349.5" y1="411.2" x2="308.6" y2="427.2"/>
<line class="st5" x1="334.6" y1="391.5" x2="295.5" y2="406.9"/>
<line class="st5" x1="320" y1="371.7" x2="282" y2="386.7"/>
<line class="st5" x1="305.5" y1="351.9" x2="268.5" y2="366.5"/>
<line class="st5" x1="291.2" y1="332.2" x2="255.1" y2="346.3"/>
<path class="st4" d="M407.6,412L373,427.2c-1.3,0.6-2.9,0.2-3.8-1l-80.7-111.5c-1.2-1.7-0.5-4,1.4-4.8l29.9-11.6
	c1.3-0.5,2.7-0.1,3.6,1l85.4,107.9C410,408.8,409.5,411.1,407.6,412z"/>
<line class="st5" x1="396.6" y1="391.2" x2="356.4" y2="408.9"/>
<line class="st5" x1="381" y1="372.2" x2="342.5" y2="389.1"/>
<line class="st5" x1="365.6" y1="353" x2="328.2" y2="369.4"/>
<line class="st5" x1="350.4" y1="333.8" x2="314" y2="349.7"/>
<line class="st5" x1="335.4" y1="314.6" x2="299.8" y2="330"/>
<path class="st4" d="M364.1,625.9l-35.2,13.8c-1.4,0.5-2.9,0.1-3.8-1.2l-76.3-114.5c-1.1-1.7-0.4-4,1.6-4.7l30.3-10.4
	c1.3-0.4,2.7,0,3.5,1.1l81.2,111.1C366.7,622.8,366,625.2,364.1,625.9z"/>
<line class="st5" x1="353.9" y1="604.8" x2="313.1" y2="620.9"/>
<line class="st5" x1="339.1" y1="585.1" x2="299.9" y2="600.5"/>
<line class="st5" x1="324.5" y1="565.4" x2="286.5" y2="580.3"/>
<line class="st5" x1="310" y1="545.6" x2="273" y2="560.1"/>
<line class="st5" x1="295.7" y1="525.9" x2="259.6" y2="539.9"/>
<path class="st4" d="M412.1,605.6l-34.6,15.2c-1.3,0.6-2.9,0.2-3.8-1l-80.7-111.5c-1.2-1.7-0.5-4,1.4-4.8l29.9-11.6
	c1.3-0.5,2.7-0.1,3.6,1l85.4,107.9C414.5,602.4,413.9,604.8,412.1,605.6z"/>
<line class="st5" x1="401.1" y1="584.9" x2="360.9" y2="602.5"/>
<line class="st5" x1="385.5" y1="565.8" x2="347" y2="582.7"/>
<line class="st5" x1="370.1" y1="546.6" x2="332.7" y2="563"/>
<line class="st5" x1="354.9" y1="527.4" x2="318.5" y2="543.3"/>
<line class="st5" x1="339.8" y1="508.2" x2="304.3" y2="523.6"/>
<path class="st4" d="M473.6,584.9l-35.2,13.8c-1.4,0.5-2.9,0.1-3.8-1.2l-76.3-114.5c-1.1-1.7-0.4-4,1.6-4.7l30.3-10.4
	c1.3-0.4,2.7,0,3.5,1.1L475,580.2C476.2,581.8,475.5,584.2,473.6,584.9z"/>
<line class="st5" x1="463.4" y1="563.8" x2="422.6" y2="579.9"/>
<line class="st5" x1="448.6" y1="544.1" x2="409.4" y2="559.5"/>
<line class="st5" x1="434" y1="524.4" x2="396" y2="539.3"/>
<line class="st5" x1="419.5" y1="504.6" x2="382.5" y2="519.1"/>
<line class="st5" x1="405.2" y1="484.9" x2="369.1" y2="498.9"/>
<path class="st4" d="M521.5,564.6l-34.6,15.2c-1.3,0.6-2.9,0.2-3.8-1l-80.7-111.5c-1.2-1.7-0.5-4,1.4-4.8l29.9-11.6
	c1.3-0.5,2.7-0.1,3.6,1l85.4,107.9C524,561.4,523.4,563.8,521.5,564.6z"/>
<line class="st5" x1="510.6" y1="543.9" x2="470.3" y2="561.5"/>
<line class="st5" x1="495" y1="524.8" x2="456.4" y2="541.7"/>
<line class="st5" x1="479.6" y1="505.6" x2="442.2" y2="522"/>
<line class="st5" x1="485.6" y1="270.5" x2="546" y2="251.4"/>
<line class="st5" x1="464.3" y1="486.4" x2="427.9" y2="502.3"/>
<line class="st5" x1="449.3" y1="467.3" x2="413.8" y2="482.7"/>
<path class="st4" d="M485.8,279.3l-20.7,6c0,0-0.1,0-0.1-0.1v-18.5c0,0,0,0,0-0.1l20.3-6.3c0,0,0.1,0,0.1,0.1L485.8,279.3
	C485.8,279.3,485.8,279.3,485.8,279.3z"/>
<path class="st4" d="M511.6,271.3l-20.7,6c0,0-0.1,0-0.1-0.1v-18.5c0,0,0,0,0-0.1l20.3-6.3c0,0,0.1,0,0.1,0.1L511.6,271.3
	C511.7,271.3,511.7,271.3,511.6,271.3z"/>
<path class="st4" d="M541.1,262.3l-20.7,6c0,0-0.1,0-0.1-0.1v-18.5c0,0,0,0,0-0.1l20.3-6.3c0,0,0.1,0,0.1,0.1L541.1,262.3
	C541.1,262.3,541.1,262.3,541.1,262.3z"/>
<path class="st4" d="M566.9,254.3l-20.7,6c0,0-0.1,0-0.1-0.1v-18.5c0,0,0,0,0-0.1l20.3-6.3c0,0,0.1,0,0.1,0.1L566.9,254.3
	C566.9,254.3,566.9,254.3,566.9,254.3z"/>
<path class="st4" d="M988.8,399.7l-47.1,26.2c-1.2,0.7-2.8,0.7-4-0.1L773.5,326c-2.8-1.7-2.4-5.8,0.6-7l43-17.6
	c1.1-0.4,2.3-0.4,3.4,0.2l168.3,91.2C991.5,394.2,991.5,398.2,988.8,399.7z"/>
<line class="st5" x1="967.6" y1="411.2" x2="794.6" y2="311.4"/>
<path class="st4" d="M1008.5,389.1l-173-91.9c-1.6-0.9-1.5-3.3,0.2-4l40.8-17c0.6-0.2,1.2-0.2,1.8,0l174.1,83c1.6,0.8,1.7,3,0.2,3.9
	l-41.9,25.9C1010,389.5,1009.2,389.5,1008.5,389.1z"/>
<line class="st5" x1="857.1" y1="284.4" x2="1032.8" y2="375"/>
<path class="st4" d="M771.5,267l-46.9,17.7c-1.2,0.5-2.7,0.3-3.7-0.4l-143.2-98.8c-2.4-1.7-1.7-5.1,1.3-5.9l42.1-10.9
	c1.1-0.3,2.2-0.1,3.1,0.5l148,92C774.6,262.6,774.2,265.9,771.5,267z"/>
<line class="st5" x1="750.4" y1="274.7" x2="598.9" y2="175"/>
<path class="st6" d="M521,316.5h-8.7c-1.1,0-2.1-0.9-2.1-2.1v-33.2c0-1.1,0.9-2.1,2.1-2.1h8.7c1.1,0,2.1,0.9,2.1,2.1v33.2
	C523,315.5,522.1,316.5,521,316.5z"/>
<path class="st4" d="M789.6,259.5l-152.3-93c-1.5-0.9-1.1-2.9,0.6-3.3l40.1-10.6c0.6-0.2,1.2-0.1,1.7,0.2l154.3,85.6
	c1.4,0.8,1.3,2.6-0.2,3.3l-42,18C791,259.9,790.2,259.8,789.6,259.5z"/>
<line class="st5" x1="658.9" y1="157.6" x2="813.9" y2="249.8"/>
<path class="st6" d="M665.2,432L665.2,432c-3.6,4.9-10.5,5.9-15.4,2.3L482.1,309.8c-4.9-3.6-5.9-10.5-2.3-15.4l0,0
	c3.6-4.9,10.5-5.9,15.4-2.3l167.6,124.5C667.8,420.2,668.8,427.1,665.2,432z"/>
<path class="st6" d="M594.3,433.4H585c-5.1,0-9.3-4.2-9.3-9.3v-58.3c0-5.1,4.2-9.3,9.3-9.3h9.3c5.1,0,9.3,4.2,9.3,9.3v58.3
	C603.6,429.2,599.4,433.4,594.3,433.4z"/>
<polygon class="st6" points="432.2,374.5 431.2,406 439.1,412.8 455.8,409.7 450.4,376.2 "/>
<path class="st6" d="M483.7,378.8c0,0.4,0,14.5,0,14.5l-32.5,14.5l0.4-16.8"/>
<path class="st6" d="M883.9,264.6L266.5,509.7c-7.8,3.1-16.6-0.7-19.7-8.5l0,0c-3.1-7.8,0.7-16.6,8.5-19.7l617.3-245.1
	c7.8-3.1,16.6,0.7,19.7,8.5v0C895.4,252.7,891.6,261.5,883.9,264.6z"/>
<path class="st6" d="M601.7,477.4l-13.2-7.4c-1.9-1-3-2.9-3-5l0.2-14.5l15.4,7.7"/>
<path class="st6" d="M462.6,362.6l-29.1,8.8c-1.3,0.4-1.6,2-0.7,2.9l17.6,16.1c0.5,0.4,1.1,0.6,1.7,0.4l30.3-10.4
	c1.3-0.4,1.6-2.1,0.5-3l-18.8-14.5C463.7,362.6,463.1,362.5,462.6,362.6z"/>
<polyline class="st6" points="698.6,371.5 698.6,396.7 716,407.2 735.3,396.7 735.7,371.5 "/>
<path class="st6" d="M769,400.4l-0.2,12.8c0,0.6-0.3,1.1-0.8,1.4l-18.2,10c-2.6,1-1-0.4-1-1.6v-11.1"/>
<path class="st6" d="M723.5,410.3l25,14.5c0.3,0.2,0.4-2.2,0.4-2.5l-0.6-12.2c0-0.1-0.1-0.2-0.2-0.3l-24-14.3
	c-0.2-0.1-0.6,0-0.6,0.3l-0.2,14.2C723.3,410.1,723.4,410.2,723.5,410.3z"/>
<path class="st6" d="M601.6,457.4c0.2,0,0.5,19.1,0.5,19.1L729.3,415l0.2-16.9"/>
<path class="st6" d="M747.8,411.7l-22.5-15c-1.6-1.1-1.5-3.4,0.2-4.4l17.9-9.8c0.9-0.5,1.9-0.4,2.7,0.2l21.7,15.5
	c1.5,1.1,1.4,3.4-0.3,4.3l-17.1,9.3C749.6,412.3,748.6,412.2,747.8,411.7z"/>
<path class="st6" d="M729.6,398.3l-127.9,59c-0.1,0-0.1,0-0.2,0l-15.6-8.3c-0.2-0.1-0.1-0.3,0-0.4L715,390c0.1,0,0.1,0,0.2,0
	l14.5,7.9C729.8,398,729.8,398.2,729.6,398.3z"/>
<line class="st5" x1="515.9" y1="260.8" x2="516" y2="278.8"/>
<path class="st6" d="M727.6,379.7h-20.9c-4.5,0-8.1-3.6-8.1-8.1l0,0c0-4.5,3.6-8.1,8.1-8.1h20.9c4.5,0,8.1,3.6,8.1,8.1l0,0
	C735.7,376,732.1,379.7,727.6,379.7z"/>
<path class="st7" d="M382.3,154.6c0,0-0.2,0-0.6-0.1c-3-0.3-15.8-1.4-22.8,2.3c-0.7,0.4-0.7,1.4,0,1.8h0c0.8,0.4,0.7,1.7-0.3,1.9
	c-5.1,0.9-15.1,3.4-20.6,9.7c-0.4,0.5-0.3,1.2,0.2,1.5l1.2,0.7c0.6,0.4,0.7,1.2,0.1,1.6c-2.9,2.3-10.4,8.5-10.7,12.5
	c-0.4,5,16.3,2.5,20.8,1.1c0.6-0.2,1.2,0.2,1.3,0.8l0.2,1.5c0.1,0.6,0.6,0.9,1.1,0.9c2.5-0.4,8.9-1.5,14.7-3.5
	c0.8-0.3,1.6,0.5,1.2,1.3l-0.1,0.2c-0.3,0.8,0.5,1.6,1.3,1.3c3.7-1.6,11.6-6,19.6-16.3L382.3,154.6z"/>
<path class="st8" d="M387.2,168.8c-3.5,5.9-13.5,11.7-17.3,13.8c-0.5,0.3-1.1-0.2-0.8-0.8l0,0c0.2-0.5-0.2-1-0.7-0.8
	c-5.7,2.1-8.4,2.3-9.5,2.2c-0.3,0-0.5-0.2-0.6-0.5l-0.1-0.6c0-0.3-0.4-0.6-0.7-0.5c-7.9,1.4-10.4,1.4-12.1-0.2c-1.4-1.3,4-6.2,6.1-8
	c0.3-0.3,0.2-0.9-0.2-1l-0.8-0.3c-0.4-0.1-0.5-0.6-0.3-0.9c3.3-4.4,9.6-5.7,12.9-6.2c0.6-0.1,0.7-0.9,0.2-1.1l-0.6-0.3
	c-0.5-0.2-0.4-0.9,0-1.1c8-3.3,21.5-1.9,21.5-1.9L387.2,168.8z"/>
<path class="st9" d="M386.4,166.8c-1.1,2-6.6,5.1-8.5,6.2c-0.2,0.1-0.4-0.1-0.3-0.3l0,0c0.1-0.2-0.1-0.4-0.3-0.3
	c-2,0.9-3.6,1.2-4.3,1.3c-0.2,0-0.3-0.1-0.3-0.3l0-0.3c0-0.2-0.1-0.3-0.3-0.3c-3.7,1-5.3,0.9-6.1,0.3c-0.6-0.5,2.1-2.9,3-3.7
	c0.1-0.1,0.1-0.3-0.1-0.4l-0.4-0.2c-0.1-0.1-0.2-0.2-0.1-0.3c0.8-1.5,4.5-2.6,6.1-3.1c0.2-0.1,0.2-0.4,0-0.5l0,0
	c-0.2-0.1-0.2-0.4,0-0.5c3.4-1.5,9-1.4,10-1.4c0.1,0,0.2,0.1,0.2,0.2l1.3,3.4C386.5,166.6,386.5,166.7,386.4,166.8z"/>
<path class="st10" d="M456.3,139.8c-46.2-22.2-66.4,13.6-66.4,13.6l5.6,16.4C395.5,169.8,433.4,185.7,456.3,139.8"/>
<circle class="st11" cx="424.8" cy="150.6" r="9.8"/>
<circle class="st12" cx="424.9" cy="150.6" r="7.5"/>
<polyline class="st12" points="389.9,153.5 381.7,152.8 389.5,175.5 395.6,169.9 "/>
<path class="st13" d="M423.7,132.6c0,0-19.2-9.2-37.2,7.3l11,4.4c6.7-6.8,15.5-10.7,26-11.7"/>
<path class="st13" d="M434.9,165.2c0,0-9.5,19-33.8,17.1l6-10.2c9.5,1.3,18.8-1.1,27.7-6.7"/>
</svg>
