<?xml version="1.0" encoding="utf-8"?>
<!-- Generator: Adobe Illustrator 27.3.1, SVG Export Plug-In . SVG Version: 6.00 Build 0)  -->
<svg version="1.1" id="Layer_1" xmlns="http://www.w3.org/2000/svg" xmlns:xlink="http://www.w3.org/1999/xlink" x="0px" y="0px"
	 viewBox="0 0 396 396" style="enable-background:new 0 0 396 396;" xml:space="preserve">
<style type="text/css">
	.st0{fill:#3E1D0D;stroke:#984C1E;stroke-width:5;stroke-miterlimit:10;}
	.st1{fill:#132628;stroke:#0D1A1C;stroke-width:5;stroke-miterlimit:10;}
	.st2{fill:#E4E4E3;stroke:#E4E4E3;stroke-miterlimit:10;}
	.st3{fill:#FFF7F3;stroke:#CEBAB2;stroke-width:3;stroke-miterlimit:10;}
	.st4{fill:#CEBAB2;stroke:#CEBAB2;stroke-width:7;stroke-miterlimit:10;}
	.st5{fill:#FDE6D8;stroke:#CEBAB2;stroke-width:3;stroke-miterlimit:10;}
	.st6{fill:#CEBAB2;stroke:#CEBAB2;stroke-width:2;stroke-miterlimit:10;}
	.st7{fill:#FFF7F3;stroke:#CEBAB2;stroke-width:7;stroke-miterlimit:10;}
</style>
<path class="st0" d="M335.5,378H59.7c-23.2,0-42.1-18.8-42.1-42.1V60.1C17.6,36.8,36.5,18,59.7,18h275.9c23.2,0,42.1,18.8,42.1,42.1
	v275.9C377.6,359.2,358.8,378,335.5,378z"/>
<path class="st1" d="M335.5,378H59.7c-23.2,0-42.1-18.8-42.1-42.1V60.1C17.6,36.8,36.5,18,59.7,18h275.9c23.2,0,42.1,18.8,42.1,42.1
	v275.9C377.6,359.2,358.8,378,335.5,378z"/>
<g>
	<g>
		<path class="st2" d="M95.5,244.5c3.2,0,3.2-5,0-5S92.3,244.5,95.5,244.5L95.5,244.5z"/>
	</g>
</g>
<g>
	<g>
		<path class="st2" d="M168.5,121.4c3.2,0,3.2-5,0-5C165.3,116.4,165.2,121.4,168.5,121.4L168.5,121.4z"/>
	</g>
</g>
<g>
	<g>
		<path class="st2" d="M145,42.3c3.2,0,3.2-5,0-5S141.7,42.3,145,42.3L145,42.3z"/>
	</g>
</g>
<g>
	<g>
		<path class="st2" d="M62.8,276.7c3.2,0,3.2-5,0-5S59.5,276.7,62.8,276.7L62.8,276.7z"/>
	</g>
</g>
<g>
	<g>
		<path class="st2" d="M343.8,137.4c3.2,0,3.2-5,0-5S340.5,137.4,343.8,137.4L343.8,137.4z"/>
	</g>
</g>
<g>
	<g>
		<path class="st2" d="M126,340.9c3.2,0,3.2-5,0-5S122.8,340.9,126,340.9L126,340.9z"/>
	</g>
</g>
<g>
	<g>
		<path class="st2" d="M337.5,324c3.2,0,3.2-5,0-5S334.2,324,337.5,324L337.5,324z"/>
	</g>
</g>
<g>
	<g>
		<path class="st2" d="M52.4,48.6c3.2,0,3.2-5,0-5S49.2,48.6,52.4,48.6L52.4,48.6z"/>
	</g>
</g>
<g>
	<g>
		<path class="st2" d="M238.8,299.3c3.2,0,3.2-5,0-5S235.6,299.3,238.8,299.3L238.8,299.3z"/>
	</g>
</g>
<g>
	<g>
		<path class="st2" d="M282.8,43.8c3.2,0,3.2-5,0-5C279.6,38.8,279.6,43.8,282.8,43.8L282.8,43.8z"/>
	</g>
</g>
<g>
	<g>
		<path class="st2" d="M49,169.3c3.2,0,3.2-5,0-5C45.8,164.3,45.7,169.3,49,169.3L49,169.3z"/>
	</g>
</g>
<g>
	<g>
		<path class="st2" d="M89.2,64.3c3.2,0,3.2-5,0-5C85.9,59.3,85.9,64.3,89.2,64.3L89.2,64.3z"/>
	</g>
</g>
<g>
	<g>
		<path class="st2" d="M46.7,325.2c3.2,0,3.2-5,0-5S43.4,325.2,46.7,325.2L46.7,325.2z"/>
	</g>
</g>
<g>
	<g>
		<path class="st2" d="M145.8,138.1c3.2,0,3.2-5,0-5S142.6,138.1,145.8,138.1L145.8,138.1z"/>
	</g>
</g>
<g>
	<g>
		<path class="st2" d="M258.6,97.5c3.2,0,3.2-5,0-5C255.4,92.5,255.4,97.5,258.6,97.5L258.6,97.5z"/>
	</g>
</g>
<g>
	<g>
		<path class="st2" d="M290.8,341c3.2,0,3.2-5,0-5C287.6,336,287.6,341,290.8,341L290.8,341z"/>
	</g>
</g>
<g>
	<g>
		<path class="st2" d="M337.5,254c3.2,0,3.2-5,0-5S334.2,254,337.5,254L337.5,254z"/>
	</g>
</g>
<g>
	<g>
		<path class="st2" d="M290.8,271c3.2,0,3.2-5,0-5C287.6,266,287.6,271,290.8,271L290.8,271z"/>
	</g>
</g>
<g>
	<path class="st3" d="M195.1,145.5l-139.8-4.7c0,0-0.1,0-0.1,0L40.7,146c-0.4,0.2-0.3,0.8,0.1,0.8l139.5,4.8c0,0,0.1,0,0.2,0
		l14.7-5.2C195.6,146.2,195.5,145.5,195.1,145.5z"/>
	<path class="st3" d="M174.4,163.2l-52.6,4.3c-0.6,0.1-1,0.8-0.6,1.3l11.5,15.2c0.2,0.2,0.5,0.3,0.8,0.3l33.4-4.7
		c0.3,0,0.5-0.2,0.6-0.4l7.6-14.8C175.4,163.8,175,163.1,174.4,163.2z"/>
	<path class="st3" d="M181.3,204.8l12.9,13.8c0.6,0.6,0.4,1.6-0.4,2L45.5,305.7c-0.6,0.3-1.3,0.2-1.7-0.2l-13.7-14
		c-0.6-0.6-0.4-1.6,0.3-2.1l149.1-84.9C180.1,204.2,180.8,204.3,181.3,204.8z"/>
	<path class="st3" d="M225.8,217.5l-14.7,5.8c-0.1,0-0.1,0.1-0.2,0.1L105.1,326.3c-0.4,0.4,0,1,0.5,0.8l17.9-7
		c0.1,0,0.1-0.1,0.2-0.1l102.6-101.7C226.7,217.9,226.3,217.3,225.8,217.5z"/>
	<line class="st3" x1="183.1" y1="145.1" x2="167.7" y2="151"/>
	<line class="st3" x1="137" y1="143.6" x2="123.8" y2="148.8"/>
	<line class="st3" x1="98.7" y1="141.7" x2="81.9" y2="148.3"/>
	<line class="st3" x1="160.1" y1="180.7" x2="147.6" y2="165.8"/>
	<line class="st3" x1="166" y1="213.5" x2="178.8" y2="228.5"/>
	<line class="st3" x1="120.5" y1="238.7" x2="134.4" y2="255.2"/>
	<line class="st3" x1="72.2" y1="265.9" x2="86.8" y2="281.9"/>
	<line class="st3" x1="195.1" y1="248.8" x2="178.1" y2="255.2"/>
	<line class="st3" x1="158.8" y1="284.1" x2="139.6" y2="291.5"/>
	
		<ellipse transform="matrix(0.9308 -0.3655 0.3655 0.9308 -36.3232 114.6927)" class="st4" cx="284.7" cy="153.3" rx="39.3" ry="50.9"/>
	<path class="st5" d="M277.1,107.3c-0.4,0.1-0.8,0.3-1.2,0.5c-18.7,7.4-26.7,32.4-17.6,55.6c9.1,23.1,32,36.1,50.7,28.7
		c0.8-0.3,1.6-0.7,2.3-1l0.7-0.5l51.8-52.3c2-3.8,1.9-9.8-0.4-15.4c-2.3-5.8-6.4-10.3-10.5-11.6l-74.9-4.2L277.1,107.3z"/>
	<path class="st6" d="M178.3,180.4l-11.9,4.7c-4.5,1.8-6.7,6.8-4.9,11.3l0.8,2c1.8,4.5,6.8,6.7,11.3,4.9l11.9-4.7"/>
	<path class="st5" d="M225.4,133.4l-36.2,14.2c-17.8,7-26.6,26.7-19.8,44.2l4.7,12c6.8,17.4,26.8,25.9,44.5,18.9l36.2-14.2"/>
	<path class="st7" d="M239.5,116.6c-16,8.7-21,34.5-11.4,59c10,25.5,32.6,41.1,50.4,34.9c0,0,24.6-8.2,25.3-11.3
		c-17.6,4.6-38.8-11-48.1-34.7c-9.3-23.7-4.3-50.2,11.7-58.8C267.4,105.7,258.4,107.1,239.5,116.6z"/>
</g>
</svg>
