<?xml version="1.0" encoding="utf-8"?>
<!-- Generator: Adobe Illustrator 26.3.1, SVG Export Plug-In . SVG Version: 6.00 Build 0)  -->
<svg version="1.1" id="Layer_1" xmlns="http://www.w3.org/2000/svg" xmlns:xlink="http://www.w3.org/1999/xlink" x="0px" y="0px"
	 viewBox="0 0 1800 576" style="enable-background:new 0 0 1800 576;" xml:space="preserve">
<style type="text/css">
	.st0{fill:#132628;stroke:#0D1A1C;stroke-width:5;stroke-miterlimit:10;}
	.st1{fill:#E4E4E3;stroke:#E4E4E3;stroke-miterlimit:10;}
	.st2{fill:#FFF7F3;stroke:#CEBAB2;stroke-width:3;stroke-miterlimit:10;}
	.st3{fill:#CEBAB2;stroke:#CEBAB2;stroke-width:7;stroke-miterlimit:10;}
	.st4{fill:#FDE6D8;stroke:#CEBAB2;stroke-width:3;stroke-miterlimit:10;}
	.st5{fill:#CEBAB2;stroke:#CEBAB2;stroke-width:2;stroke-miterlimit:10;}
	.st6{fill:#FFF7F3;stroke:#CEBAB2;stroke-width:7;stroke-miterlimit:10;}
	.st7{fill:#FDE6D8;stroke:#FDE6D8;stroke-miterlimit:10;}
</style>
<g>
	<path class="st0" d="M1744.3,535.7H55.7c-17.6,0-31.9-14.3-31.9-31.9V77.4c0-17.6,14.3-31.9,31.9-31.9h1688.6
		c17.6,0,31.9,14.3,31.9,31.9v426.3C1776.3,521.4,1762,535.7,1744.3,535.7z"/>
	<g>
		<g>
			<path class="st1" d="M65.1,210.1c3.2,0,3.2-5,0-5C61.9,205.1,61.8,210.1,65.1,210.1L65.1,210.1z"/>
		</g>
	</g>
	<g>
		<g>
			<path class="st1" d="M129.5,129.8c3.2,0,3.2-5,0-5S126.3,129.8,129.5,129.8L129.5,129.8z"/>
		</g>
	</g>
	<g>
		<g>
			<path class="st1" d="M748.3,363.3c3.2,0,3.2-5,0-5S745.1,363.3,748.3,363.3L748.3,363.3z"/>
		</g>
	</g>
	<g>
		<g>
			<path class="st1" d="M261.2,102.9c3.2,0,3.2-5,0-5S257.9,102.9,261.2,102.9L261.2,102.9z"/>
		</g>
	</g>
	<g>
		<g>
			<path class="st1" d="M340.8,320.4c3.2,0,3.2-5,0-5C337.6,315.4,337.6,320.4,340.8,320.4L340.8,320.4z"/>
		</g>
	</g>
	<g>
		<g>
			<path class="st1" d="M364.1,72.4c3.2,0,3.2-5,0-5C360.9,67.4,360.9,72.4,364.1,72.4L364.1,72.4z"/>
		</g>
	</g>
	<g>
		<g>
			<path class="st1" d="M785.1,467.5c3.2,0,3.2-5,0-5S781.8,467.5,785.1,467.5L785.1,467.5z"/>
		</g>
	</g>
	<g>
		<g>
			<path class="st1" d="M791.2,228.5c3.2,0,3.2-5,0-5C788,223.5,788,228.5,791.2,228.5L791.2,228.5z"/>
		</g>
	</g>
	<g>
		<g>
			<path class="st1" d="M656.4,268.3c3.2,0,3.2-5,0-5C653.2,263.3,653.2,268.3,656.4,268.3L656.4,268.3z"/>
		</g>
	</g>
	<g>
		<g>
			<path class="st1" d="M647.2,112.1c3.2,0,3.2-5,0-5C644,107.1,644,112.1,647.2,112.1L647.2,112.1z"/>
		</g>
	</g>
	<g>
		<g>
			<path class="st1" d="M142,342.2c3.2,0,3.2-5,0-5S138.7,342.2,142,342.2L142,342.2z"/>
		</g>
	</g>
	<g>
		<g>
			<path class="st1" d="M536.9,216.3c3.2,0,3.2-5,0-5C533.7,211.3,533.7,216.3,536.9,216.3L536.9,216.3z"/>
		</g>
	</g>
	<g>
		<g>
			<path class="st1" d="M297.9,222.4c3.2,0,3.2-5,0-5S294.7,222.4,297.9,222.4L297.9,222.4z"/>
		</g>
	</g>
	<g>
		<g>
			<path class="st1" d="M447.4,68.1c3.2,0,3.2-5,0-5S444.2,68.1,447.4,68.1L447.4,68.1z"/>
		</g>
	</g>
	<g>
		<g>
			<path class="st1" d="M75.8,73.5c3.2,0,3.2-5,0-5S72.5,73.5,75.8,73.5L75.8,73.5z"/>
		</g>
	</g>
	<g>
		<g>
			<path class="st1" d="M196.8,194.8c3.2,0,3.2-5,0-5C193.6,189.8,193.6,194.8,196.8,194.8L196.8,194.8z"/>
		</g>
	</g>
	<g>
		<g>
			<path class="st1" d="M720.7,69.2c3.2,0,3.2-5,0-5C717.5,64.2,717.5,69.2,720.7,69.2L720.7,69.2z"/>
		</g>
	</g>
	<g>
		<g>
			<path class="st1" d="M380.6,136.6c3.2,0,3.2-5,0-5S377.4,136.6,380.6,136.6L380.6,136.6z"/>
		</g>
	</g>
	<g>
		<g>
			<path class="st1" d="M296.4,149.4c3.2,0,3.2-5,0-5C293.2,144.4,293.2,149.4,296.4,149.4L296.4,149.4z"/>
		</g>
	</g>
	<g>
		<g>
			<path class="st1" d="M120,391.4c3.2,0,3.2-5,0-5S116.7,391.4,120,391.4L120,391.4z"/>
		</g>
	</g>
	<g>
		<g>
			<path class="st1" d="M219.8,142.4c3.2,0,3.2-5,0-5S216.5,142.4,219.8,142.4L219.8,142.4z"/>
		</g>
	</g>
	<g>
		<g>
			<path class="st1" d="M91.2,446.7c3.2,0,3.2-5,0-5C88,441.7,88,446.7,91.2,446.7L91.2,446.7z"/>
		</g>
	</g>
	<g>
		<g>
			<path class="st1" d="M62,289.8c3.2,0,3.2-5,0-5C58.8,284.8,58.8,289.8,62,289.8L62,289.8z"/>
		</g>
	</g>
	<g>
		<g>
			<path class="st1" d="M665.4,412.9c3.2,0,3.2-5,0-5C662.2,407.9,662.2,412.9,665.4,412.9L665.4,412.9z"/>
		</g>
	</g>
	<g>
		<g>
			<path class="st1" d="M187.6,439.9c3.2,0,3.2-5,0-5C184.4,434.9,184.4,439.9,187.6,439.9L187.6,439.9z"/>
		</g>
	</g>
	<g>
		<g>
			<path class="st1" d="M297.9,369.5c3.2,0,3.2-5,0-5S294.7,369.5,297.9,369.5L297.9,369.5z"/>
		</g>
	</g>
	<g>
		<g>
			<path class="st1" d="M239.7,403.2c3.2,0,3.2-5,0-5S236.5,403.2,239.7,403.2L239.7,403.2z"/>
		</g>
	</g>
	<g>
		<g>
			<path class="st1" d="M206,357.2c3.2,0,3.2-5,0-5C202.8,352.2,202.8,357.2,206,357.2L206,357.2z"/>
		</g>
	</g>
	<g>
		<g>
			<path class="st1" d="M215.2,277.5c3.2,0,3.2-5,0-5C212,272.5,212,277.5,215.2,277.5L215.2,277.5z"/>
		</g>
	</g>
	<g>
		<g>
			<path class="st1" d="M664.1,174.9c3.2,0,3.2-5,0-5S660.8,174.9,664.1,174.9L664.1,174.9z"/>
		</g>
	</g>
	<g>
		<g>
			<path class="st1" d="M768.2,109c3.2,0,3.2-5,0-5C765,104,765,109,768.2,109L768.2,109z"/>
		</g>
	</g>
	<g>
		<g>
			<path class="st1" d="M381.2,256.2c3.2,0,3.2-5,0-5S377.9,256.2,381.2,256.2L381.2,256.2z"/>
		</g>
	</g>
	<g>
		<g>
			<path class="st1" d="M434.8,302.6c3.2,0,3.2-5,0-5S431.6,302.6,434.8,302.6L434.8,302.6z"/>
		</g>
	</g>
	<g>
		<g>
			<path class="st1" d="M407.2,192.3c3.2,0,3.2-5,0-5C404,187.3,404,192.3,407.2,192.3L407.2,192.3z"/>
		</g>
	</g>
	<g>
		<g>
			<path class="st1" d="M489.9,146.3c3.2,0,3.2-5,0-5C486.7,141.3,486.7,146.3,489.9,146.3L489.9,146.3z"/>
		</g>
	</g>
	<g>
		<g>
			<path class="st1" d="M486.9,288.8c3.2,0,3.2-5,0-5C483.6,283.8,483.6,288.8,486.9,288.8L486.9,288.8z"/>
		</g>
	</g>
	<g>
		<g>
			<path class="st1" d="M542,88.5c3.2,0,3.2-5,0-5C538.8,83.5,538.8,88.5,542,88.5L542,88.5z"/>
		</g>
	</g>
	<g>
		<g>
			<path class="st1" d="M632.4,376.1c3.2,0,3.2-5,0-5C629.2,371.1,629.2,376.1,632.4,376.1L632.4,376.1z"/>
		</g>
	</g>
	<g>
		<g>
			<path class="st1" d="M725.8,293.4c3.2,0,3.2-5,0-5C722.6,288.4,722.6,293.4,725.8,293.4L725.8,293.4z"/>
		</g>
	</g>
	<g>
		<g>
			<path class="st1" d="M799.4,397.5c3.2,0,3.2-5,0-5C796.2,392.5,796.1,397.5,799.4,397.5L799.4,397.5z"/>
		</g>
	</g>
	<g>
		<g>
			<path class="st1" d="M817.8,276.5c3.2,0,3.2-5,0-5S814.5,276.5,817.8,276.5L817.8,276.5z"/>
		</g>
	</g>
	<g>
		<g>
			<path class="st1" d="M387,235.4c3.2,0,3.2-5,0-5C383.8,230.4,383.8,235.4,387,235.4L387,235.4z"/>
		</g>
	</g>
	<g>
		<g>
			<path class="st1" d="M459,402.6c3.2,0,3.2-5,0-5C455.8,397.6,455.8,402.6,459,402.6L459,402.6z"/>
		</g>
	</g>
	<g>
		<g>
			<path class="st1" d="M133.8,184.3c3.2,0,3.2-5,0-5S130.6,184.3,133.8,184.3L133.8,184.3z"/>
		</g>
	</g>
	<g>
		<g>
			<path class="st1" d="M444.3,364.2c3.2,0,3.2-5,0-5C441.1,359.2,441.1,364.2,444.3,364.2L444.3,364.2z"/>
		</g>
	</g>
	<g>
		<g>
			<path class="st1" d="M568.1,336.3c3.2,0,3.2-5,0-5S564.8,336.3,568.1,336.3L568.1,336.3z"/>
		</g>
	</g>
	<g>
		<g>
			<path class="st1" d="M384.2,419c3.2,0,3.2-5,0-5S381,419,384.2,419L384.2,419z"/>
		</g>
	</g>
	<g>
		<g>
			<path class="st1" d="M554.3,402.1c3.2,0,3.2-5,0-5S551,402.1,554.3,402.1L554.3,402.1z"/>
		</g>
	</g>
	<g>
		<g>
			<path class="st1" d="M808.1,72c3.2,0,3.2-5,0-5C804.9,67,804.9,72,808.1,72L808.1,72z"/>
		</g>
	</g>
	<g>
		<g>
			<path class="st1" d="M446.6,444.7c3.2,0,3.2-5,0-5S443.4,444.7,446.6,444.7L446.6,444.7z"/>
		</g>
	</g>
	<g>
		<g>
			<path class="st1" d="M326,443.5c3.2,0,3.2-5,0-5C322.8,438.5,322.8,443.5,326,443.5L326,443.5z"/>
		</g>
	</g>
	<g>
		<g>
			<path class="st1" d="M609.4,464.9c3.2,0,3.2-5,0-5C606.2,459.9,606.2,464.9,609.4,464.9L609.4,464.9z"/>
		</g>
	</g>
	<g>
		<g>
			<path class="st1" d="M685.8,352.3c3.2,0,3.2-5,0-5S682.6,352.3,685.8,352.3L685.8,352.3z"/>
		</g>
	</g>
	<g>
		<g>
			<path class="st1" d="M712.1,472.6c3.2,0,3.2-5,0-5S708.8,472.6,712.1,472.6L712.1,472.6z"/>
		</g>
	</g>
	<g>
		<g>
			<path class="st1" d="M357.8,476.4c3.2,0,3.2-5,0-5S354.6,476.4,357.8,476.4L357.8,476.4z"/>
		</g>
	</g>
	<g>
		<g>
			<path class="st1" d="M143.7,259.7c3.2,0,3.2-5,0-5S140.5,259.7,143.7,259.7L143.7,259.7z"/>
		</g>
	</g>
	<g>
		<g>
			<path class="st1" d="M306.1,259.7c3.2,0,3.2-5,0-5S302.9,259.7,306.1,259.7L306.1,259.7z"/>
		</g>
	</g>
	<g>
		<g>
			<path class="st1" d="M422.5,268.9c3.2,0,3.2-5,0-5C419.3,263.9,419.3,268.9,422.5,268.9L422.5,268.9z"/>
		</g>
	</g>
	<g>
		<g>
			<path class="st1" d="M175.6,74.6c3.2,0,3.2-5,0-5C172.4,69.6,172.4,74.6,175.6,74.6L175.6,74.6z"/>
		</g>
	</g>
	<g>
		<g>
			<path class="st1" d="M922.3,363.3c3.2,0,3.2-5,0-5S919,363.3,922.3,363.3L922.3,363.3z"/>
		</g>
	</g>
	<g>
		<g>
			<path class="st1" d="M885.5,467.5c3.2,0,3.2-5,0-5C882.3,462.5,882.3,467.5,885.5,467.5L885.5,467.5z"/>
		</g>
	</g>
	<g>
		<g>
			<path class="st1" d="M879.4,228.5c3.2,0,3.2-5,0-5C876.2,223.5,876.1,228.5,879.4,228.5L879.4,228.5z"/>
		</g>
	</g>
	<g>
		<g>
			<path class="st1" d="M1014.2,268.3c3.2,0,3.2-5,0-5C1011,263.3,1011,268.3,1014.2,268.3L1014.2,268.3z"/>
		</g>
	</g>
	<g>
		<g>
			<path class="st1" d="M1023.4,112.1c3.2,0,3.2-5,0-5C1020.2,107.1,1020.1,112.1,1023.4,112.1L1023.4,112.1z"/>
		</g>
	</g>
	<g>
		<g>
			<path class="st1" d="M966,209.1c3.2,0,3.2-5,0-5S962.7,209.1,966,209.1L966,209.1z"/>
		</g>
	</g>
	<g>
		<g>
			<path class="st1" d="M949.8,69.2c3.2,0,3.2-5,0-5C946.6,64.2,946.6,69.2,949.8,69.2L949.8,69.2z"/>
		</g>
	</g>
	<g>
		<g>
			<path class="st1" d="M1005.2,412.9c3.2,0,3.2-5,0-5S1001.9,412.9,1005.2,412.9L1005.2,412.9z"/>
		</g>
	</g>
	<g>
		<g>
			<path class="st1" d="M1006.5,174.9c3.2,0,3.2-5,0-5C1003.3,169.9,1003.3,174.9,1006.5,174.9L1006.5,174.9z"/>
		</g>
	</g>
	<g>
		<g>
			<path class="st1" d="M902.3,109c3.2,0,3.2-5,0-5C899.1,104,899.1,109,902.3,109L902.3,109z"/>
		</g>
	</g>
	<g>
		<g>
			<path class="st1" d="M1058.3,86.7c3.2,0,3.2-5,0-5S1055.1,86.7,1058.3,86.7L1058.3,86.7z"/>
		</g>
	</g>
	<g>
		<g>
			<path class="st1" d="M267.8,314.8c3.2,0,3.2-5,0-5S264.6,314.8,267.8,314.8L267.8,314.8z"/>
		</g>
	</g>
	<g>
		<g>
			<path class="st1" d="M1087.6,236.3c3.2,0,3.2-5,0-5S1084.4,236.3,1087.6,236.3L1087.6,236.3z"/>
		</g>
	</g>
	<g>
		<g>
			<path class="st1" d="M1038.2,376.1c3.2,0,3.2-5,0-5C1035,371.1,1035,376.1,1038.2,376.1L1038.2,376.1z"/>
		</g>
	</g>
	<g>
		<g>
			<path class="st1" d="M944.7,293.4c3.2,0,3.2-5,0-5C941.5,288.4,941.5,293.4,944.7,293.4L944.7,293.4z"/>
		</g>
	</g>
	<g>
		<g>
			<path class="st1" d="M871.2,397.5c3.2,0,3.2-5,0-5C868,392.5,868,397.5,871.2,397.5L871.2,397.5z"/>
		</g>
	</g>
	<g>
		<g>
			<path class="st1" d="M852.8,276.5c3.2,0,3.2-5,0-5S849.6,276.5,852.8,276.5L852.8,276.5z"/>
		</g>
	</g>
	<g>
		<g>
			<path class="st1" d="M1088.9,404.4c3.2,0,3.2-5,0-5S1085.7,404.4,1088.9,404.4L1088.9,404.4z"/>
		</g>
	</g>
	<g>
		<g>
			<path class="st1" d="M862.6,337.8c3.2,0,3.2-5,0-5S859.3,337.8,862.6,337.8L862.6,337.8z"/>
		</g>
	</g>
	<g>
		<g>
			<path class="st1" d="M862.4,72c3.2,0,3.2-5,0-5S859.2,72,862.4,72L862.4,72z"/>
		</g>
	</g>
	<g>
		<g>
			<path class="st1" d="M1061.2,464.9c3.2,0,3.2-5,0-5S1057.9,464.9,1061.2,464.9L1061.2,464.9z"/>
		</g>
	</g>
	<g>
		<g>
			<path class="st1" d="M984.7,352.3c3.2,0,3.2-5,0-5C981.5,347.3,981.5,352.3,984.7,352.3L984.7,352.3z"/>
		</g>
	</g>
	<g>
		<g>
			<path class="st1" d="M958.5,472.6c3.2,0,3.2-5,0-5C955.3,467.6,955.3,472.6,958.5,472.6L958.5,472.6z"/>
		</g>
	</g>
	<g>
		<g>
			<path class="st1" d="M35.3,89.5c3.2,0,3.2-5,0-5C32.1,84.5,32.1,89.5,35.3,89.5L35.3,89.5z"/>
		</g>
	</g>
	<g>
		<g>
			<path class="st1" d="M62.5,350c3.2,0,3.2-5,0-5C59.3,345,59.3,350,62.5,350L62.5,350z"/>
		</g>
	</g>
	<g>
		<g>
			<path class="st1" d="M48,410.2c3.2,0,3.2-5,0-5C44.7,405.2,44.7,410.2,48,410.2L48,410.2z"/>
		</g>
	</g>
	<g>
		<g>
			<path class="st1" d="M76.4,142.9c3.2,0,3.2-5,0-5C73.2,137.9,73.2,142.9,76.4,142.9L76.4,142.9z"/>
		</g>
	</g>
	<g>
		<path class="st2" d="M538.8,148.8L229,82.3c-0.1,0-0.2,0-0.3,0l-34.2,5.5c-1,0.2-1,1.6,0,1.8l309,66.6c0.1,0,0.2,0,0.3,0l34.9-5.7
			C539.7,150.4,539.8,149,538.8,148.8z"/>
		<path class="st2" d="M485.6,179.8l-118.9-11.5c-1.4-0.1-2.4,1.4-1.8,2.6l19.6,38.4c0.3,0.6,0.9,1,1.6,1l76.4,3
			c0.6,0,1.2-0.2,1.5-0.7l23-30C487.7,181.6,487,180,485.6,179.8z"/>
		<path class="st2" d="M484.3,275.3l23.2,36c1,1.6,0.2,3.7-1.6,4.4L141.3,445.8c-1.4,0.5-2.9,0-3.7-1.1l-25-36.7
			c-1.1-1.6-0.3-3.8,1.6-4.4l366.3-129.5C482,273.6,483.5,274.1,484.3,275.3z"/>
		<path class="st2" d="M578.5,321.5l-35.1,7c-0.1,0-0.3,0.1-0.4,0.2l-277.1,187c-1,0.7-0.4,2.3,0.8,2l42.8-8.5
			c0.2,0,0.3-0.1,0.4-0.2l269.4-185.5C580.3,322.8,579.7,321.3,578.5,321.5z"/>
		<line class="st2" x1="512.3" y1="143" x2="475.6" y2="150"/>
		<line class="st2" x1="410.2" y1="121.3" x2="378.6" y2="127.6"/>
		<line class="st2" x1="325.6" y1="101.7" x2="285.5" y2="109.6"/>
		<line class="st2" x1="446.8" y1="213.1" x2="424.8" y2="174.8"/>
		<line class="st2" x1="446.7" y1="288.6" x2="469.2" y2="327.2"/>
		<line class="st2" x1="335.2" y1="326.5" x2="359.7" y2="368.9"/>
		<line class="st2" x1="216.7" y1="367.8" x2="242.9" y2="409.2"/>
		<line class="st2" x1="497.5" y1="379" x2="457.1" y2="386.3"/>
		<line class="st2" x1="402.3" y1="443" x2="356.6" y2="451.8"/>
		
			<ellipse transform="matrix(0.9808 -0.1949 0.1949 0.9808 -25.267 147.2263)" class="st3" cx="735.6" cy="202" rx="89" ry="115.2"/>
		<path class="st4" d="M736.9,96.5c-1,0.2-1.9,0.3-2.9,0.5c-44.7,8.9-72.5,61.6-61.6,116.8S729.2,307,774,298.1
			c1.9-0.4,3.8-0.8,5.6-1.4l1.8-0.8l136.4-95.7c6-7.7,8-21,5.4-34.5c-2.7-13.8-10-25.5-18.7-30.1L739.1,96.3L736.9,96.5z"/>
		<path class="st5" d="M487.5,219.7l-28.4,5.6c-10.7,2.1-17.7,12.6-15.6,23.3l0.9,4.7c2.1,10.7,12.6,17.7,23.3,15.6l28.4-5.6"/>
		<path class="st4" d="M611.3,133.9L524.8,151c-42.4,8.4-70.1,48.9-61.8,90.5l5.7,28.6c8.3,41.5,49.3,68.4,91.7,60l86.4-17.2"/>
		<path class="st6" d="M649.3,102.1c-39.2,12.9-60.6,68.5-49,127c12.1,60.9,56.1,104.8,98.4,98.1c0,0,58.2-8.3,60.9-15
			c-41.1,3.1-82.1-40.1-93.4-96.6c-11.3-56.6,10.5-113.6,49.7-126.4C715.9,89.1,695.3,88.5,649.3,102.1z"/>
	</g>
	<g>
		<g>
			<path class="st1" d="M288.7,528.3c3.2,0,3.2-5,0-5C285.4,523.3,285.4,528.3,288.7,528.3L288.7,528.3z"/>
		</g>
	</g>
	<g>
		<g>
			<path class="st1" d="M622.7,506c3.2,0,3.2-5,0-5S619.5,506,622.7,506L622.7,506z"/>
		</g>
	</g>
	<g>
		<g>
			<path class="st1" d="M839.4,518.4c3.2,0,3.2-5,0-5C836.2,513.4,836.2,518.4,839.4,518.4L839.4,518.4z"/>
		</g>
	</g>
	<g>
		<g>
			<path class="st1" d="M928.4,431.6c3.2,0,3.2-5,0-5C925.2,426.6,925.2,431.6,928.4,431.6L928.4,431.6z"/>
		</g>
	</g>
	<g>
		<g>
			<path class="st1" d="M457.4,512.5c3.2,0,3.2-5,0-5S454.2,512.5,457.4,512.5L457.4,512.5z"/>
		</g>
	</g>
	<g>
		<g>
			<path class="st1" d="M776.8,511.4c3.2,0,3.2-5,0-5S773.5,511.4,776.8,511.4L776.8,511.4z"/>
		</g>
	</g>
	<g>
		<g>
			<path class="st1" d="M236,504.7c3.2,0,3.2-5,0-5C232.8,499.7,232.8,504.7,236,504.7L236,504.7z"/>
		</g>
	</g>
	<g>
		<g>
			<path class="st1" d="M559.6,479.1c3.2,0,3.2-5,0-5C556.4,474.1,556.4,479.1,559.6,479.1L559.6,479.1z"/>
		</g>
	</g>
	<g>
		<g>
			<path class="st1" d="M593.4,413.6c3.2,0,3.2-5,0-5C590.2,408.6,590.2,413.6,593.4,413.6L593.4,413.6z"/>
		</g>
	</g>
	<g>
		<g>
			<path class="st1" d="M757.6,432.2c3.2,0,3.2-5,0-5S754.3,432.2,757.6,432.2L757.6,432.2z"/>
		</g>
	</g>
	<g>
		<g>
			<path class="st1" d="M855.4,415.3c3.2,0,3.2-5,0-5C852.2,410.3,852.2,415.3,855.4,415.3L855.4,415.3z"/>
		</g>
	</g>
	<g>
		<g>
			<path class="st1" d="M707.9,504.5c3.2,0,3.2-5,0-5C704.6,499.5,704.6,504.5,707.9,504.5L707.9,504.5z"/>
		</g>
	</g>
	<g>
		<g>
			<path class="st1" d="M494.6,440.1c3.2,0,3.2-5,0-5S491.4,440.1,494.6,440.1L494.6,440.1z"/>
		</g>
	</g>
	<g>
		<g>
			<path class="st1" d="M496.8,499c3.2,0,3.2-5,0-5S493.6,499,496.8,499L496.8,499z"/>
		</g>
	</g>
	<g>
		<g>
			<path class="st1" d="M367.6,507.8c3.2,0,3.2-5,0-5S364.4,507.8,367.6,507.8L367.6,507.8z"/>
		</g>
	</g>
	<g>
		<g>
			<path class="st1" d="M263.9,450.5c3.2,0,3.2-5,0-5C260.7,445.5,260.7,450.5,263.9,450.5L263.9,450.5z"/>
		</g>
	</g>
	<g>
		<g>
			<path class="st1" d="M319.4,469.3c3.2,0,3.2-5,0-5C316.2,464.3,316.2,469.3,319.4,469.3L319.4,469.3z"/>
		</g>
	</g>
	<g>
		<g>
			<path class="st1" d="M127.6,486.8c3.2,0,3.2-5,0-5S124.4,486.8,127.6,486.8L127.6,486.8z"/>
		</g>
	</g>
	<g>
		<g>
			<path class="st1" d="M129.2,531.2c3.2,0,3.2-5,0-5S125.9,531.2,129.2,531.2L129.2,531.2z"/>
		</g>
	</g>
	<g>
		<g>
			<path class="st1" d="M396.9,469.2c3.2,0,3.2-5,0-5S393.6,469.2,396.9,469.2L396.9,469.2z"/>
		</g>
	</g>
	<g>
		<g>
			<path class="st1" d="M909.2,518.4c3.2,0,3.2-5,0-5C906,513.4,906,518.4,909.2,518.4L909.2,518.4z"/>
		</g>
	</g>
	<g>
		<g>
			<path class="st1" d="M971.9,511.4c3.2,0,3.2-5,0-5C968.7,506.4,968.7,511.4,971.9,511.4L971.9,511.4z"/>
		</g>
	</g>
	<g>
		<g>
			<path class="st1" d="M1040.8,504.5c3.2,0,3.2-5,0-5S1037.6,504.5,1040.8,504.5L1040.8,504.5z"/>
		</g>
	</g>
	<g>
		<g>
			<path class="st1" d="M178.6,493.4c3.2,0,3.2-5,0-5S175.4,493.4,178.6,493.4L178.6,493.4z"/>
		</g>
	</g>
	<g>
		<g>
			<path class="st1" d="M71.7,489.8c3.2,0,3.2-5,0-5S68.5,489.8,71.7,489.8L71.7,489.8z"/>
		</g>
	</g>
</g>
<g>
	<path class="st7" d="M1378.2,118.2l-8,49.8h-8.7l-8-49.8h5.5l6.8,45.9l6.9-45.9H1378.2z"/>
	<path class="st7" d="M1395.9,129.1c4.2,0,6.3,2.1,6.3,6.3v15h-14.5v10.3c0,2.1,0.4,2.5,2.5,2.5h3.8c2.1,0,2.5-0.4,2.5-2.5v-3.5h5.5
		v4.4c0,4.2-2.1,6.3-6.3,6.3h-7.1c-4.2,0-6.3-2.1-6.3-6.3v-26.2c0-4.2,2.1-6.3,6.3-6.3H1395.9z M1396.7,145.7v-9.4
		c0-2.1-0.4-2.5-2.5-2.5h-4c-2.1,0-2.5,0.4-2.5,2.5v9.4H1396.7z"/>
	<path class="st7" d="M1421.8,129.1c4.2,0,6.3,2.1,6.3,6.3v32.5h-5.5v-31.6c0-2.1-0.4-2.5-2.5-2.5h-3.2c-1.9,0-2.7,0.7-2.7,2.9v31.2
		h-5.5v-53.5h5.5v17.4c0.6-1.9,2.2-2.6,4.4-2.6H1421.8z"/>
	<path class="st7" d="M1435.1,114.3h5.8v6.5h-5.8V114.3z M1435.3,167.9v-38.8h5.5v38.8H1435.3z"/>
	<path class="st7" d="M1462.1,140.6v-4.3c0-2.1-0.4-2.5-2.5-2.5h-4c-2.1,0-2.5,0.4-2.5,2.5v24.4c0,2.1,0.4,2.5,2.5,2.5h4
		c2.1,0,2.5-0.4,2.5-2.5v-4.3h5.5v5.2c0,4.2-2.1,6.3-6.3,6.3h-7.4c-4.2,0-6.3-2.1-6.3-6.3v-26.2c0-4.2,2.1-6.3,6.3-6.3h7.4
		c4.2,0,6.3,2.1,6.3,6.3v5.2H1462.1z"/>
	<path class="st7" d="M1474,167.9v-53.5h5.5v53.5H1474z"/>
	<path class="st7" d="M1500.4,129.1c4.2,0,6.3,2.1,6.3,6.3v15h-14.5v10.3c0,2.1,0.4,2.5,2.5,2.5h3.8c2.1,0,2.5-0.4,2.5-2.5v-3.5h5.5
		v4.4c0,4.2-2.1,6.3-6.3,6.3h-7.1c-4.2,0-6.3-2.1-6.3-6.3v-26.2c0-4.2,2.1-6.3,6.3-6.3H1500.4z M1501.2,145.7v-9.4
		c0-2.1-0.4-2.5-2.5-2.5h-4c-2.1,0-2.5,0.4-2.5,2.5v9.4H1501.2z"/>
	<path class="st7" d="M1525,153.4c0-2.1-0.4-2.5-2.5-2.5h-3.9c-4.2,0-6.3-2.1-6.3-6.3v-9.2c0-4.2,2.1-6.3,6.3-6.3h5.4
		c4.2,0,6.3,2.1,6.3,6.3v3.9h-5.4v-3.1c0-2.1-0.4-2.5-2.5-2.5h-2.2c-2.1,0-2.5,0.4-2.5,2.5v7.6c0,2.1,0.4,2.5,2.5,2.5h3.9
		c4.2,0,6.3,2.1,6.3,6.3v9c0,4.2-2.1,6.3-6.3,6.3h-5.4c-4.2,0-6.3-2.1-6.3-6.3v-3.9h5.4v3.1c0,2.1,0.4,2.5,2.5,2.5h2.2
		c2.1,0,2.5-0.4,2.5-2.5V153.4z"/>
	<path class="st7" d="M1147.2,213.9c1.9,0,2.8,0.9,2.8,2.8v16.7c0,1.9-0.9,2.8-2.8,2.8h-3.7c-1.9,0-2.8-0.9-2.8-2.8v-16.7
		c0-1.9,0.9-2.8,2.8-2.8H1147.2z M1147.6,217.2c0-0.9-0.2-1.1-1.1-1.1h-2.2c-0.9,0-1.1,0.2-1.1,1.1v15.9c0,0.9,0.2,1.1,1.1,1.1h2.2
		c0.9,0,1.1-0.2,1.1-1.1V217.2z"/>
	<path class="st7" d="M1162.2,218.9v17.5h-2.5v-1.2c-0.3,0.9-1,1.2-2,1.2h-1.4c-1.9,0-2.8-0.9-2.8-2.8v-14.6h2.5v14.2
		c0,0.9,0.2,1.1,1.1,1.1h1.4c0.9,0,1.2-0.3,1.2-1.3v-14H1162.2z"/>
	<path class="st7" d="M1171.3,218.9v2.2h-1.1c-1.6,0-2.3,0.9-2.3,2.7v12.6h-2.5v-17.5h2.5v2c0.3-1,1.2-2,2.6-2H1171.3z"/>
	<path class="st7" d="M1184.1,224v-1.9c0-0.9-0.2-1.1-1.1-1.1h-1.8c-0.9,0-1.1,0.2-1.1,1.1v11c0,0.9,0.2,1.1,1.1,1.1h1.8
		c0.9,0,1.1-0.2,1.1-1.1v-1.9h2.5v2.3c0,1.9-0.9,2.8-2.8,2.8h-3.3c-1.9,0-2.8-0.9-2.8-2.8v-11.8c0-1.9,0.9-2.8,2.8-2.8h3.3
		c1.9,0,2.8,0.9,2.8,2.8v2.3H1184.1z"/>
	<path class="st7" d="M1195.8,218.9c1.9,0,2.8,0.9,2.8,2.8v11.8c0,1.9-0.9,2.8-2.8,2.8h-3.7c-1.9,0-2.8-0.9-2.8-2.8v-11.8
		c0-1.9,0.9-2.8,2.8-2.8H1195.8z M1196.2,222.1c0-0.9-0.2-1.1-1.1-1.1h-2.2c-0.9,0-1.1,0.2-1.1,1.1v11c0,0.9,0.2,1.1,1.1,1.1h2.2
		c0.9,0,1.1-0.2,1.1-1.1V222.1z"/>
	<path class="st7" d="M1213.9,218.9c1.9,0,2.8,0.9,2.8,2.8v14.6h-2.5v-14.2c0-0.9-0.2-1.1-1.1-1.1h-1.4c-0.9,0-1.2,0.3-1.2,1.3v14
		h-2.5v-14.2c0-0.9-0.2-1.1-1.1-1.1h-1.4c-0.9,0-1.2,0.3-1.2,1.3v14h-2.5v-17.5h2.5v1.2c0.3-0.9,1-1.2,2-1.2h1.4
		c1.4,0,2.2,0.5,2.6,1.4c0.3-1,1.1-1.4,2.2-1.4H1213.9z"/>
	<path class="st7" d="M1225.7,218.9c1.9,0,2.8,0.9,2.8,2.8v11.8c0,1.9-0.9,2.8-2.8,2.8h-1.4c-1,0-1.7-0.3-2-1.2v6.3h-2.5v-22.5h2.5
		v1.2c0.3-0.9,1-1.2,2-1.2H1225.7z M1226.1,222.1c0-0.9-0.2-1.1-1.1-1.1h-1.4c-0.9,0-1.2,0.3-1.2,1.3v10.6c0,1,0.4,1.3,1.2,1.3h1.4
		c0.9,0,1.1-0.2,1.1-1.1V222.1z"/>
	<path class="st7" d="M1240.2,218.9v17.5h-2.5v-1.2c-0.3,0.9-1,1.2-2,1.2h-1.4c-1.9,0-2.8-0.9-2.8-2.8v-11.8c0-1.9,0.9-2.8,2.8-2.8
		h1.4c1,0,1.7,0.3,2,1.2v-1.2H1240.2z M1236.5,234.2c0.9,0,1.2-0.3,1.2-1.3v-10.6c0-1-0.4-1.3-1.2-1.3h-1.4c-0.9,0-1.1,0.2-1.1,1.1
		v11c0,0.9,0.2,1.1,1.1,1.1H1236.5z"/>
	<path class="st7" d="M1249.3,218.9c1.9,0,2.8,0.9,2.8,2.8v14.6h-2.5v-14.2c0-0.9-0.2-1.1-1.1-1.1h-1.4c-0.9,0-1.2,0.3-1.2,1.3v14
		h-2.5v-17.5h2.5v1.2c0.3-0.9,1-1.2,2-1.2H1249.3z"/>
	<path class="st7" d="M1256.6,218.9l2.8,15.7l2.6-15.7h2.5l-3.5,19.7c-0.4,1.9-1.5,2.8-3.4,2.8h-1.9v-2.1h1.2c0.9,0,1.6-0.2,1.8-1.1
		l0.4-1.8h-1.6l-3.3-17.5H1256.6z"/>
	<path class="st7" d="M1268.9,232.3v2.1l-2,6.9h-1v-9H1268.9z"/>
	<path class="st7" d="M1282.2,218.8c1.9,0,2.8,0.9,2.8,2.8v11.8c0,1.9-0.9,2.8-2.8,2.8h-1.4c-1,0-1.7-0.3-2-1.2v1.2h-2.5v-24.1h2.5
		v7.8c0.3-0.9,1-1.2,2-1.2H1282.2z M1282.6,222.1c0-0.9-0.2-1.1-1.1-1.1h-1.4c-0.9,0-1.2,0.3-1.2,1.3v10.7c0,1,0.4,1.3,1.2,1.3h1.4
		c0.9,0,1.1-0.2,1.1-1.1V222.1z"/>
	<path class="st7" d="M1289.3,218.9l2.8,15.7l2.6-15.7h2.5l-3.5,19.7c-0.4,1.9-1.5,2.8-3.4,2.8h-1.9v-2.1h1.2c0.9,0,1.6-0.2,1.8-1.1
		l0.4-1.8h-1.6l-3.3-17.5H1289.3z"/>
	<path class="st7" d="M1312.7,218.9v17.5h-2.5v-1.2c-0.3,0.9-1,1.2-2,1.2h-1.4c-1.9,0-2.8-0.9-2.8-2.8v-14.6h2.5v14.2
		c0,0.9,0.2,1.1,1.1,1.1h1.4c0.9,0,1.2-0.3,1.2-1.3v-14H1312.7z"/>
	<path class="st7" d="M1321.3,229.8c0-0.9-0.2-1.1-1.1-1.1h-1.8c-1.9,0-2.8-0.9-2.8-2.8v-4.1c0-1.9,0.9-2.8,2.8-2.8h2.4
		c1.9,0,2.8,0.9,2.8,2.8v1.8h-2.4v-1.4c0-0.9-0.2-1.1-1.1-1.1h-1c-0.9,0-1.1,0.2-1.1,1.1v3.4c0,0.9,0.2,1.1,1.1,1.1h1.8
		c1.9,0,2.8,0.9,2.8,2.8v4c0,1.9-0.9,2.8-2.8,2.8h-2.4c-1.9,0-2.8-0.9-2.8-2.8v-1.8h2.4v1.4c0,0.9,0.2,1.1,1.1,1.1h1
		c0.9,0,1.1-0.2,1.1-1.1V229.8z"/>
	<path class="st7" d="M1326.5,212.2h2.6v2.9h-2.6V212.2z M1326.6,236.3v-17.5h2.5v17.5H1326.6z"/>
	<path class="st7" d="M1338.2,218.9c1.9,0,2.8,0.9,2.8,2.8v14.6h-2.5v-14.2c0-0.9-0.2-1.1-1.1-1.1h-1.4c-0.9,0-1.2,0.3-1.2,1.3v14
		h-2.5v-17.5h2.5v1.2c0.3-0.9,1-1.2,2-1.2H1338.2z"/>
	<path class="st7" d="M1352.9,218.9v19.7c0,1.9-0.9,2.8-2.8,2.8h-5.4v-2.1h4.6c0.9,0,1.1-0.2,1.1-1.1v-3c-0.3,0.9-1,1.2-2,1.2h-1.4
		c-1.9,0-2.8-0.9-2.8-2.8v-11.8c0-1.9,0.9-2.8,2.8-2.8h1.4c1,0,1.7,0.3,2,1.2v-1.2H1352.9z M1349.2,234.2c0.9,0,1.2-0.3,1.2-1.3
		v-10.6c0-1-0.4-1.3-1.2-1.3h-1.4c-0.9,0-1.1,0.2-1.1,1.1v11c0,0.9,0.2,1.1,1.1,1.1H1349.2z"/>
	<path class="st7" d="M1363.4,221v11.9c0,0.9,0.2,1.1,1.1,1.1h1.4v2.3h-2.1c-1.9,0-2.8-0.9-2.8-2.8V221h-1.6v-2.1h1.6V216h2.5v2.8
		h2.5v2.1H1363.4z"/>
	<path class="st7" d="M1373.8,218.9c1.9,0,2.8,0.9,2.8,2.8v14.6h-2.5v-14.2c0-0.9-0.2-1.1-1.1-1.1h-1.4c-0.9,0-1.2,0.3-1.2,1.3v14
		h-2.5v-24.1h2.5v7.8c0.3-0.9,1-1.2,2-1.2H1373.8z"/>
	<path class="st7" d="M1386,218.9c1.9,0,2.8,0.9,2.8,2.8v6.7h-6.5v4.6c0,0.9,0.2,1.1,1.1,1.1h1.7c0.9,0,1.1-0.2,1.1-1.1v-1.6h2.5v2
		c0,1.9-0.9,2.8-2.8,2.8h-3.2c-1.9,0-2.8-0.9-2.8-2.8v-11.8c0-1.9,0.9-2.8,2.8-2.8H1386z M1386.4,226.3v-4.2c0-0.9-0.2-1.1-1.1-1.1
		h-1.8c-0.9,0-1.1,0.2-1.1,1.1v4.2H1386.4z"/>
	<path class="st7" d="M1403.1,213.9c1.9,0,2.8,0.9,2.8,2.8v16.7c0,1.9-0.9,2.8-2.8,2.8h-3.7c-1.9,0-2.8-0.9-2.8-2.8v-16.7
		c0-1.9,0.9-2.8,2.8-2.8H1403.1z M1403.5,217.2c0-0.9-0.2-1.1-1.1-1.1h-2.2c-0.9,0-1.1,0.2-1.1,1.1v15.9c0,0.9,0.2,1.1,1.1,1.1h2.2
		c0.9,0,1.1-0.2,1.1-1.1V217.2z"/>
	<path class="st7" d="M1415.2,218.9v2.2h-1.1c-1.6,0-2.3,0.9-2.3,2.7v12.6h-2.5v-17.5h2.5v2c0.3-1,1.2-2,2.6-2H1415.2z"/>
	<path class="st7" d="M1417,212.2h2.6v2.9h-2.6V212.2z M1417,236.3v-17.5h2.5v17.5H1417z"/>
	<path class="st7" d="M1429.1,218.9c1.9,0,2.8,0.9,2.8,2.8v11.8c0,1.9-0.9,2.8-2.8,2.8h-3.7c-1.9,0-2.8-0.9-2.8-2.8v-11.8
		c0-1.9,0.9-2.8,2.8-2.8H1429.1z M1429.5,222.1c0-0.9-0.2-1.1-1.1-1.1h-2.2c-0.9,0-1.1,0.2-1.1,1.1v11c0,0.9,0.2,1.1,1.1,1.1h2.2
		c0.9,0,1.1-0.2,1.1-1.1V222.1z"/>
	<path class="st7" d="M1440.9,218.9c1.9,0,2.8,0.9,2.8,2.8v14.6h-2.5v-14.2c0-0.9-0.2-1.1-1.1-1.1h-1.4c-0.9,0-1.2,0.3-1.2,1.3v14
		h-2.5v-17.5h2.5v1.2c0.3-0.9,1-1.2,2-1.2H1440.9z"/>
	<path class="st7" d="M1457,229.8c0-0.9-0.2-1.1-1.1-1.1h-1.8c-1.9,0-2.8-0.9-2.8-2.8v-4.1c0-1.9,0.9-2.8,2.8-2.8h2.4
		c1.9,0,2.8,0.9,2.8,2.8v1.8h-2.4v-1.4c0-0.9-0.2-1.1-1.1-1.1h-1c-0.9,0-1.1,0.2-1.1,1.1v3.4c0,0.9,0.2,1.1,1.1,1.1h1.8
		c1.9,0,2.8,0.9,2.8,2.8v4c0,1.9-0.9,2.8-2.8,2.8h-2.4c-1.9,0-2.8-0.9-2.8-2.8v-1.8h2.4v1.4c0,0.9,0.2,1.1,1.1,1.1h1
		c0.9,0,1.1-0.2,1.1-1.1V229.8z"/>
	<path class="st7" d="M1468.3,218.9c1.9,0,2.8,0.9,2.8,2.8v11.8c0,1.9-0.9,2.8-2.8,2.8h-1.4c-1,0-1.7-0.3-2-1.2v6.3h-2.5v-22.5h2.5
		v1.2c0.3-0.9,1-1.2,2-1.2H1468.3z M1468.6,222.1c0-0.9-0.2-1.1-1.1-1.1h-1.4c-0.9,0-1.2,0.3-1.2,1.3v10.6c0,1,0.4,1.3,1.2,1.3h1.4
		c0.9,0,1.1-0.2,1.1-1.1V222.1z"/>
	<path class="st7" d="M1482.7,218.9v17.5h-2.5v-1.2c-0.3,0.9-1,1.2-2,1.2h-1.4c-1.9,0-2.8-0.9-2.8-2.8v-11.8c0-1.9,0.9-2.8,2.8-2.8
		h1.4c1,0,1.7,0.3,2,1.2v-1.2H1482.7z M1479,234.2c0.9,0,1.2-0.3,1.2-1.3v-10.6c0-1-0.4-1.3-1.2-1.3h-1.4c-0.9,0-1.1,0.2-1.1,1.1v11
		c0,0.9,0.2,1.1,1.1,1.1H1479z"/>
	<path class="st7" d="M1492.3,224v-1.9c0-0.9-0.2-1.1-1.1-1.1h-1.8c-0.9,0-1.1,0.2-1.1,1.1v11c0,0.9,0.2,1.1,1.1,1.1h1.8
		c0.9,0,1.1-0.2,1.1-1.1v-1.9h2.5v2.3c0,1.9-0.9,2.8-2.8,2.8h-3.3c-1.9,0-2.8-0.9-2.8-2.8v-11.8c0-1.9,0.9-2.8,2.8-2.8h3.3
		c1.9,0,2.8,0.9,2.8,2.8v2.3H1492.3z"/>
	<path class="st7" d="M1503.8,218.9c1.9,0,2.8,0.9,2.8,2.8v6.7h-6.5v4.6c0,0.9,0.2,1.1,1.1,1.1h1.7c0.9,0,1.1-0.2,1.1-1.1v-1.6h2.5
		v2c0,1.9-0.9,2.8-2.8,2.8h-3.2c-1.9,0-2.8-0.9-2.8-2.8v-11.8c0-1.9,0.9-2.8,2.8-2.8H1503.8z M1504.2,226.3v-4.2
		c0-0.9-0.2-1.1-1.1-1.1h-1.8c-0.9,0-1.1,0.2-1.1,1.1v4.2H1504.2z"/>
	<path class="st7" d="M1515.9,224v-1.9c0-0.9-0.2-1.1-1.1-1.1h-1.8c-0.9,0-1.1,0.2-1.1,1.1v11c0,0.9,0.2,1.1,1.1,1.1h1.8
		c0.9,0,1.1-0.2,1.1-1.1v-1.9h2.5v2.3c0,1.9-0.9,2.8-2.8,2.8h-3.3c-1.9,0-2.8-0.9-2.8-2.8v-11.8c0-1.9,0.9-2.8,2.8-2.8h3.3
		c1.9,0,2.8,0.9,2.8,2.8v2.3H1515.9z"/>
	<path class="st7" d="M1527.1,218.9v2.2h-1.1c-1.6,0-2.3,0.9-2.3,2.7v12.6h-2.5v-17.5h2.5v2c0.3-1,1.2-2,2.6-2H1527.1z"/>
	<path class="st7" d="M1537.4,218.9v17.5h-2.5v-1.2c-0.3,0.9-1,1.2-2,1.2h-1.4c-1.9,0-2.8-0.9-2.8-2.8v-11.8c0-1.9,0.9-2.8,2.8-2.8
		h1.4c1,0,1.7,0.3,2,1.2v-1.2H1537.4z M1533.7,234.2c0.9,0,1.2-0.3,1.2-1.3v-10.6c0-1-0.4-1.3-1.2-1.3h-1.4c-0.9,0-1.1,0.2-1.1,1.1
		v11c0,0.9,0.2,1.1,1.1,1.1H1533.7z"/>
	<path class="st7" d="M1544.6,214.5c-0.9,0-1.1,0.2-1.1,1.1v3.2h2.5v2.1h-2.5v15.3h-2.5V221h-1.7v-2.1h1.7v-3.8
		c0-1.9,0.9-2.8,2.8-2.8h2.2v2.3H1544.6z"/>
	<path class="st7" d="M1550.4,221v11.9c0,0.9,0.2,1.1,1.1,1.1h1.4v2.3h-2.1c-1.9,0-2.8-0.9-2.8-2.8V221h-1.6v-2.1h1.6V216h2.5v2.8
		h2.5v2.1H1550.4z"/>
	<path class="st7" d="M1557.3,232.3v2.1l-2,6.9h-1v-9H1557.3z"/>
	<path class="st7" d="M1581.1,218.9l-3.1,17.5h-3.8l-2.1-14l-2.1,14h-3.8l-3.1-17.5h2.4l2.6,15.7l2.3-15.7h3.4l2.2,15.7l2.6-15.7
		H1581.1z"/>
	<path class="st7" d="M1582.8,212.2h2.6v2.9h-2.6V212.2z M1582.9,236.3v-17.5h2.5v17.5H1582.9z"/>
	<path class="st7" d="M1588.6,236.3v-24.1h2.5v24.1H1588.6z"/>
	<path class="st7" d="M1594.4,236.3v-24.1h2.5v24.1H1594.4z"/>
	<path class="st7" d="M1610.7,218.9c1.9,0,2.8,0.9,2.8,2.8v11.8c0,1.9-0.9,2.8-2.8,2.8h-1.4c-1,0-1.7-0.3-2-1.2v6.3h-2.5v-22.5h2.5
		v1.2c0.3-0.9,1-1.2,2-1.2H1610.7z M1611,222.1c0-0.9-0.2-1.1-1.1-1.1h-1.4c-0.9,0-1.2,0.3-1.2,1.3v10.6c0,1,0.4,1.3,1.2,1.3h1.4
		c0.9,0,1.1-0.2,1.1-1.1V222.1z"/>
	<path class="st7" d="M1622.4,218.9v2.2h-1.1c-1.6,0-2.3,0.9-2.3,2.7v12.6h-2.5v-17.5h2.5v2c0.3-1,1.2-2,2.6-2H1622.4z"/>
	<path class="st7" d="M1630.5,218.9c1.9,0,2.8,0.9,2.8,2.8v11.8c0,1.9-0.9,2.8-2.8,2.8h-3.7c-1.9,0-2.8-0.9-2.8-2.8v-11.8
		c0-1.9,0.9-2.8,2.8-2.8H1630.5z M1630.9,222.1c0-0.9-0.2-1.1-1.1-1.1h-2.2c-0.9,0-1.1,0.2-1.1,1.1v11c0,0.9,0.2,1.1,1.1,1.1h2.2
		c0.9,0,1.1-0.2,1.1-1.1V222.1z"/>
	<path class="st7" d="M1639.8,234.6l2.4-15.7h2.5l-2.9,17.5h-3.9l-2.9-17.5h2.5L1639.8,234.6z"/>
	<path class="st7" d="M1646.4,212.2h2.6v2.9h-2.6V212.2z M1646.5,236.3v-17.5h2.5v17.5H1646.5z"/>
	<path class="st7" d="M1660.8,212.2v24.1h-2.5v-1.2c-0.3,0.9-1,1.2-2,1.2h-1.4c-1.9,0-2.8-0.9-2.8-2.8v-11.8c0-1.9,0.9-2.8,2.8-2.8
		h1.4c1,0,1.7,0.3,2,1.2v-7.8H1660.8z M1657.1,234.2c0.9,0,1.2-0.3,1.2-1.3v-10.7c0-1-0.4-1.3-1.2-1.3h-1.4c-0.9,0-1.1,0.2-1.1,1.1
		v11c0,0.9,0.2,1.1,1.1,1.1H1657.1z"/>
	<path class="st7" d="M1670.2,218.9c1.9,0,2.8,0.9,2.8,2.8v6.7h-6.5v4.6c0,0.9,0.2,1.1,1.1,1.1h1.7c0.9,0,1.1-0.2,1.1-1.1v-1.6h2.5
		v2c0,1.9-0.9,2.8-2.8,2.8h-3.2c-1.9,0-2.8-0.9-2.8-2.8v-11.8c0-1.9,0.9-2.8,2.8-2.8H1670.2z M1670.5,226.3v-4.2
		c0-0.9-0.2-1.1-1.1-1.1h-1.8c-0.9,0-1.1,0.2-1.1,1.1v4.2H1670.5z"/>
	<path class="st7" d="M1689.1,218.9v17.5h-2.5v-1.2c-0.3,0.9-1,1.2-2,1.2h-1.4c-1.9,0-2.8-0.9-2.8-2.8v-11.8c0-1.9,0.9-2.8,2.8-2.8
		h1.4c1,0,1.7,0.3,2,1.2v-1.2H1689.1z M1685.4,234.2c0.9,0,1.2-0.3,1.2-1.3v-10.6c0-1-0.4-1.3-1.2-1.3h-1.4c-0.9,0-1.1,0.2-1.1,1.1
		v11c0,0.9,0.2,1.1,1.1,1.1H1685.4z"/>
	<path class="st7" d="M1701,214.5c-0.9,0-1.1,0.2-1.1,1.1v3.2h2.5v2.1h-2.5v15.3h-2.5V221h-1.7v-2.1h1.7v-3.8c0-1.9,0.9-2.8,2.8-2.8
		h2.2v2.3H1701z"/>
	<path class="st7" d="M1712.9,218.9v17.5h-2.5v-1.2c-0.3,0.9-1,1.2-2,1.2h-1.4c-1.9,0-2.8-0.9-2.8-2.8v-14.6h2.5v14.2
		c0,0.9,0.2,1.1,1.1,1.1h1.4c0.9,0,1.2-0.3,1.2-1.3v-14H1712.9z"/>
	<path class="st7" d="M1716.1,236.3v-24.1h2.5v24.1H1716.1z"/>
	<path class="st7" d="M1721.9,236.3v-24.1h2.5v24.1H1721.9z"/>
	<path class="st7" d="M1728.8,218.9l2.8,15.7l2.6-15.7h2.5l-3.5,19.7c-0.4,1.9-1.5,2.8-3.4,2.8h-1.9v-2.1h1.2c0.9,0,1.6-0.2,1.8-1.1
		l0.4-1.8h-1.6l-3.3-17.5H1728.8z"/>
	<path class="st7" d="M1132.1,273c0-0.9-0.2-1.1-1.1-1.1h-1.8c-1.9,0-2.8-0.9-2.8-2.8v-4.1c0-1.9,0.9-2.8,2.8-2.8h2.4
		c1.9,0,2.8,0.9,2.8,2.8v1.8h-2.4v-1.4c0-0.9-0.2-1.1-1.1-1.1h-1c-0.9,0-1.1,0.2-1.1,1.1v3.4c0,0.9,0.2,1.1,1.1,1.1h1.8
		c1.9,0,2.8,0.9,2.8,2.8v4c0,1.9-0.9,2.8-2.8,2.8h-2.4c-1.9,0-2.8-0.9-2.8-2.8v-1.8h2.4v1.4c0,0.9,0.2,1.1,1.1,1.1h1
		c0.9,0,1.1-0.2,1.1-1.1V273z"/>
	<path class="st7" d="M1146,262.1v17.5h-2.5v-1.2c-0.3,0.9-1,1.2-2,1.2h-1.4c-1.9,0-2.8-0.9-2.8-2.8v-11.8c0-1.9,0.9-2.8,2.8-2.8
		h1.4c1,0,1.7,0.3,2,1.2v-1.2H1146z M1142.3,277.4c0.9,0,1.2-0.3,1.2-1.3v-10.6c0-1-0.4-1.3-1.2-1.3h-1.4c-0.9,0-1.1,0.2-1.1,1.1v11
		c0,0.9,0.2,1.1,1.1,1.1H1142.3z"/>
	<path class="st7" d="M1153.1,257.7c-0.9,0-1.1,0.2-1.1,1.1v3.2h2.5v2.1h-2.5v15.3h-2.5v-15.3h-1.7v-2.1h1.7v-3.8
		c0-1.9,0.9-2.8,2.8-2.8h2.2v2.3H1153.1z"/>
	<path class="st7" d="M1162.5,262.1c1.9,0,2.8,0.9,2.8,2.8v6.7h-6.5v4.6c0,0.9,0.2,1.1,1.1,1.1h1.7c0.9,0,1.1-0.2,1.1-1.1v-1.6h2.5
		v2c0,1.9-0.9,2.8-2.8,2.8h-3.2c-1.9,0-2.8-0.9-2.8-2.8v-11.8c0-1.9,0.9-2.8,2.8-2.8H1162.5z M1162.8,269.5v-4.2
		c0-0.9-0.2-1.1-1.1-1.1h-1.8c-0.9,0-1.1,0.2-1.1,1.1v4.2H1162.8z"/>
	<path class="st7" d="M1181.4,262.1v17.5h-2.5v-1.2c-0.3,0.9-1,1.2-2,1.2h-1.4c-1.9,0-2.8-0.9-2.8-2.8v-11.8c0-1.9,0.9-2.8,2.8-2.8
		h1.4c1,0,1.7,0.3,2,1.2v-1.2H1181.4z M1177.7,277.4c0.9,0,1.2-0.3,1.2-1.3v-10.6c0-1-0.4-1.3-1.2-1.3h-1.4c-0.9,0-1.1,0.2-1.1,1.1
		v11c0,0.9,0.2,1.1,1.1,1.1H1177.7z"/>
	<path class="st7" d="M1190.6,262.1c1.9,0,2.8,0.9,2.8,2.8v14.6h-2.5v-14.2c0-0.9-0.2-1.1-1.1-1.1h-1.4c-0.9,0-1.2,0.3-1.2,1.3v14
		h-2.5v-17.5h2.5v1.2c0.3-0.9,1-1.2,2-1.2H1190.6z"/>
	<path class="st7" d="M1205.2,255.4v24.1h-2.5v-1.2c-0.3,0.9-1,1.2-2,1.2h-1.4c-1.9,0-2.8-0.9-2.8-2.8v-11.8c0-1.9,0.9-2.8,2.8-2.8
		h1.4c1,0,1.7,0.3,2,1.2v-7.8H1205.2z M1201.5,277.4c0.9,0,1.2-0.3,1.2-1.3v-10.7c0-1-0.4-1.3-1.2-1.3h-1.4c-0.9,0-1.1,0.2-1.1,1.1
		v11c0,0.9,0.2,1.1,1.1,1.1H1201.5z"/>
	<path class="st7" d="M1219.1,262.1c1.9,0,2.8,0.9,2.8,2.8v14.6h-2.5v-14.2c0-0.9-0.2-1.1-1.1-1.1h-1.4c-0.9,0-1.2,0.3-1.2,1.3v14
		h-2.5v-24.1h2.5v7.8c0.3-0.9,1-1.2,2-1.2H1219.1z"/>
	<path class="st7" d="M1233.7,262.1v17.5h-2.5v-1.2c-0.3,0.9-1,1.2-2,1.2h-1.4c-1.9,0-2.8-0.9-2.8-2.8v-11.8c0-1.9,0.9-2.8,2.8-2.8
		h1.4c1,0,1.7,0.3,2,1.2v-1.2H1233.7z M1230,277.4c0.9,0,1.2-0.3,1.2-1.3v-10.6c0-1-0.4-1.3-1.2-1.3h-1.4c-0.9,0-1.1,0.2-1.1,1.1v11
		c0,0.9,0.2,1.1,1.1,1.1H1230z"/>
	<path class="st7" d="M1242.8,262c1.9,0,2.8,0.9,2.8,2.8v11.8c0,1.9-0.9,2.8-2.8,2.8h-1.4c-1,0-1.7-0.3-2-1.2v1.2h-2.5v-24.1h2.5
		v7.8c0.3-0.9,1-1.2,2-1.2H1242.8z M1243.2,265.3c0-0.9-0.2-1.1-1.1-1.1h-1.4c-0.9,0-1.2,0.3-1.2,1.3v10.7c0,1,0.4,1.3,1.2,1.3h1.4
		c0.9,0,1.1-0.2,1.1-1.1V265.3z"/>
	<path class="st7" d="M1248.7,255.4h2.6v2.9h-2.6V255.4z M1248.8,279.5v-17.5h2.5v17.5H1248.8z"/>
	<path class="st7" d="M1257.1,264.2v11.9c0,0.9,0.2,1.1,1.1,1.1h1.4v2.3h-2.1c-1.9,0-2.8-0.9-2.8-2.8v-12.5h-1.6v-2.1h1.6v-2.8h2.5
		v2.8h2.5v2.1H1257.1z"/>
	<path class="st7" d="M1270.1,262.1v17.5h-2.5v-1.2c-0.3,0.9-1,1.2-2,1.2h-1.4c-1.9,0-2.8-0.9-2.8-2.8v-11.8c0-1.9,0.9-2.8,2.8-2.8
		h1.4c1,0,1.7,0.3,2,1.2v-1.2H1270.1z M1266.4,277.4c0.9,0,1.2-0.3,1.2-1.3v-10.6c0-1-0.4-1.3-1.2-1.3h-1.4c-0.9,0-1.1,0.2-1.1,1.1
		v11c0,0.9,0.2,1.1,1.1,1.1H1266.4z"/>
	<path class="st7" d="M1279.3,262c1.9,0,2.8,0.9,2.8,2.8v11.8c0,1.9-0.9,2.8-2.8,2.8h-1.4c-1,0-1.7-0.3-2-1.2v1.2h-2.5v-24.1h2.5
		v7.8c0.3-0.9,1-1.2,2-1.2H1279.3z M1279.6,265.3c0-0.9-0.2-1.1-1.1-1.1h-1.4c-0.9,0-1.2,0.3-1.2,1.3v10.7c0,1,0.4,1.3,1.2,1.3h1.4
		c0.9,0,1.1-0.2,1.1-1.1V265.3z"/>
	<path class="st7" d="M1285.2,279.5v-24.1h2.5v24.1H1285.2z"/>
	<path class="st7" d="M1297.1,262.1c1.9,0,2.8,0.9,2.8,2.8v6.7h-6.5v4.6c0,0.9,0.2,1.1,1.1,1.1h1.7c0.9,0,1.1-0.2,1.1-1.1v-1.6h2.5
		v2c0,1.9-0.9,2.8-2.8,2.8h-3.2c-1.9,0-2.8-0.9-2.8-2.8v-11.8c0-1.9,0.9-2.8,2.8-2.8H1297.1z M1297.4,269.5v-4.2
		c0-0.9-0.2-1.1-1.1-1.1h-1.8c-0.9,0-1.1,0.2-1.1,1.1v4.2H1297.4z"/>
	<path class="st7" d="M1313.6,262.1c1.9,0,2.8,0.9,2.8,2.8v6.7h-6.5v4.6c0,0.9,0.2,1.1,1.1,1.1h1.7c0.9,0,1.1-0.2,1.1-1.1v-1.6h2.5
		v2c0,1.9-0.9,2.8-2.8,2.8h-3.2c-1.9,0-2.8-0.9-2.8-2.8v-11.8c0-1.9,0.9-2.8,2.8-2.8H1313.6z M1314,269.5v-4.2
		c0-0.9-0.2-1.1-1.1-1.1h-1.8c-0.9,0-1.1,0.2-1.1,1.1v4.2H1314z"/>
	<path class="st7" d="M1325.3,262.1c1.9,0,2.8,0.9,2.8,2.8v14.6h-2.5v-14.2c0-0.9-0.2-1.1-1.1-1.1h-1.4c-0.9,0-1.2,0.3-1.2,1.3v14
		h-2.5v-17.5h2.5v1.2c0.3-0.9,1-1.2,2-1.2H1325.3z"/>
	<path class="st7" d="M1334.7,277.8l2.4-15.7h2.5l-2.9,17.5h-3.9l-2.9-17.5h2.5L1334.7,277.8z"/>
	<path class="st7" d="M1341.3,255.4h2.6v2.9h-2.6V255.4z M1341.4,279.5v-17.5h2.5v17.5H1341.4z"/>
	<path class="st7" d="M1352.9,262.1v2.2h-1.1c-1.6,0-2.3,0.9-2.3,2.7v12.6h-2.5v-17.5h2.5v2c0.3-1,1.2-2,2.6-2H1352.9z"/>
	<path class="st7" d="M1361.1,262.1c1.9,0,2.8,0.9,2.8,2.8v11.8c0,1.9-0.9,2.8-2.8,2.8h-3.7c-1.9,0-2.8-0.9-2.8-2.8v-11.8
		c0-1.9,0.9-2.8,2.8-2.8H1361.1z M1361.5,265.3c0-0.9-0.2-1.1-1.1-1.1h-2.2c-0.9,0-1.1,0.2-1.1,1.1v11c0,0.9,0.2,1.1,1.1,1.1h2.2
		c0.9,0,1.1-0.2,1.1-1.1V265.3z"/>
	<path class="st7" d="M1372.9,262.1c1.9,0,2.8,0.9,2.8,2.8v14.6h-2.5v-14.2c0-0.9-0.2-1.1-1.1-1.1h-1.4c-0.9,0-1.2,0.3-1.2,1.3v14
		h-2.5v-17.5h2.5v1.2c0.3-0.9,1-1.2,2-1.2H1372.9z"/>
	<path class="st7" d="M1391.1,262.1c1.9,0,2.8,0.9,2.8,2.8v14.6h-2.5v-14.2c0-0.9-0.2-1.1-1.1-1.1h-1.4c-0.9,0-1.2,0.3-1.2,1.3v14
		h-2.5v-14.2c0-0.9-0.2-1.1-1.1-1.1h-1.4c-0.9,0-1.2,0.3-1.2,1.3v14h-2.5v-17.5h2.5v1.2c0.3-0.9,1-1.2,2-1.2h1.4
		c1.4,0,2.2,0.5,2.6,1.4c0.3-1,1.1-1.4,2.2-1.4H1391.1z"/>
	<path class="st7" d="M1403.2,262.1c1.9,0,2.8,0.9,2.8,2.8v6.7h-6.5v4.6c0,0.9,0.2,1.1,1.1,1.1h1.7c0.9,0,1.1-0.2,1.1-1.1v-1.6h2.5
		v2c0,1.9-0.9,2.8-2.8,2.8h-3.2c-1.9,0-2.8-0.9-2.8-2.8v-11.8c0-1.9,0.9-2.8,2.8-2.8H1403.2z M1403.5,269.5v-4.2
		c0-0.9-0.2-1.1-1.1-1.1h-1.8c-0.9,0-1.1,0.2-1.1,1.1v4.2H1403.5z"/>
	<path class="st7" d="M1414.8,262.1c1.9,0,2.8,0.9,2.8,2.8v14.6h-2.5v-14.2c0-0.9-0.2-1.1-1.1-1.1h-1.4c-0.9,0-1.2,0.3-1.2,1.3v14
		h-2.5v-17.5h2.5v1.2c0.3-0.9,1-1.2,2-1.2H1414.8z"/>
	<path class="st7" d="M1423.5,264.2v11.9c0,0.9,0.2,1.1,1.1,1.1h1.4v2.3h-2.1c-1.9,0-2.8-0.9-2.8-2.8v-12.5h-1.6v-2.1h1.6v-2.8h2.5
		v2.8h2.5v2.1H1423.5z"/>
	<path class="st7" d="M1436.6,257.7c-0.9,0-1.1,0.2-1.1,1.1v3.2h2.5v2.1h-2.5v15.3h-2.5v-15.3h-1.7v-2.1h1.7v-3.8
		c0-1.9,0.9-2.8,2.8-2.8h2.2v2.3H1436.6z"/>
	<path class="st7" d="M1446.1,262.1c1.9,0,2.8,0.9,2.8,2.8v11.8c0,1.9-0.9,2.8-2.8,2.8h-3.7c-1.9,0-2.8-0.9-2.8-2.8v-11.8
		c0-1.9,0.9-2.8,2.8-2.8H1446.1z M1446.5,265.3c0-0.9-0.2-1.1-1.1-1.1h-2.2c-0.9,0-1.1,0.2-1.1,1.1v11c0,0.9,0.2,1.1,1.1,1.1h2.2
		c0.9,0,1.1-0.2,1.1-1.1V265.3z"/>
	<path class="st7" d="M1457.8,262.1v2.2h-1.1c-1.6,0-2.3,0.9-2.3,2.7v12.6h-2.5v-17.5h2.5v2c0.3-1,1.2-2,2.6-2H1457.8z"/>
	<path class="st7" d="M1472.9,262.1v17.5h-2.5v-1.2c-0.3,0.9-1,1.2-2,1.2h-1.4c-1.9,0-2.8-0.9-2.8-2.8v-11.8c0-1.9,0.9-2.8,2.8-2.8
		h1.4c1,0,1.7,0.3,2,1.2v-1.2H1472.9z M1469.2,277.4c0.9,0,1.2-0.3,1.2-1.3v-10.6c0-1-0.4-1.3-1.2-1.3h-1.4c-0.9,0-1.1,0.2-1.1,1.1
		v11c0,0.9,0.2,1.1,1.1,1.1H1469.2z"/>
	<path class="st7" d="M1476.1,279.5v-24.1h2.5v24.1H1476.1z"/>
	<path class="st7" d="M1481.8,279.5v-24.1h2.5v24.1H1481.8z"/>
	<path class="st7" d="M1500.8,262.1v17.5h-2.5v-1.2c-0.3,0.9-1,1.2-2,1.2h-1.4c-1.9,0-2.8-0.9-2.8-2.8v-11.8c0-1.9,0.9-2.8,2.8-2.8
		h1.4c1,0,1.7,0.3,2,1.2v-1.2H1500.8z M1497.1,277.4c0.9,0,1.2-0.3,1.2-1.3v-10.6c0-1-0.4-1.3-1.2-1.3h-1.4c-0.9,0-1.1,0.2-1.1,1.1
		v11c0,0.9,0.2,1.1,1.1,1.1H1497.1z"/>
	<path class="st7" d="M1509.4,273c0-0.9-0.2-1.1-1.1-1.1h-1.8c-1.9,0-2.8-0.9-2.8-2.8v-4.1c0-1.9,0.9-2.8,2.8-2.8h2.4
		c1.9,0,2.8,0.9,2.8,2.8v1.8h-2.4v-1.4c0-0.9-0.2-1.1-1.1-1.1h-1c-0.9,0-1.1,0.2-1.1,1.1v3.4c0,0.9,0.2,1.1,1.1,1.1h1.8
		c1.9,0,2.8,0.9,2.8,2.8v4c0,1.9-0.9,2.8-2.8,2.8h-2.4c-1.9,0-2.8-0.9-2.8-2.8v-1.8h2.4v1.4c0,0.9,0.2,1.1,1.1,1.1h1
		c0.9,0,1.1-0.2,1.1-1.1V273z"/>
	<path class="st7" d="M1517.4,264.2v11.9c0,0.9,0.2,1.1,1.1,1.1h1.4v2.3h-2.1c-1.9,0-2.8-0.9-2.8-2.8v-12.5h-1.6v-2.1h1.6v-2.8h2.5
		v2.8h2.5v2.1H1517.4z"/>
	<path class="st7" d="M1527.7,262.1v2.2h-1.1c-1.6,0-2.3,0.9-2.3,2.7v12.6h-2.5v-17.5h2.5v2c0.3-1,1.2-2,2.6-2H1527.7z"/>
	<path class="st7" d="M1535.8,262.1c1.9,0,2.8,0.9,2.8,2.8v11.8c0,1.9-0.9,2.8-2.8,2.8h-3.7c-1.9,0-2.8-0.9-2.8-2.8v-11.8
		c0-1.9,0.9-2.8,2.8-2.8H1535.8z M1536.2,265.3c0-0.9-0.2-1.1-1.1-1.1h-2.2c-0.9,0-1.1,0.2-1.1,1.1v11c0,0.9,0.2,1.1,1.1,1.1h2.2
		c0.9,0,1.1-0.2,1.1-1.1V265.3z"/>
	<path class="st7" d="M1547.6,262.1c1.9,0,2.8,0.9,2.8,2.8v14.6h-2.5v-14.2c0-0.9-0.2-1.1-1.1-1.1h-1.4c-0.9,0-1.2,0.3-1.2,1.3v14
		h-2.5v-17.5h2.5v1.2c0.3-0.9,1-1.2,2-1.2H1547.6z"/>
	<path class="st7" d="M1562.3,262.1v17.5h-2.5v-1.2c-0.3,0.9-1,1.2-2,1.2h-1.4c-1.9,0-2.8-0.9-2.8-2.8v-11.8c0-1.9,0.9-2.8,2.8-2.8
		h1.4c1,0,1.7,0.3,2,1.2v-1.2H1562.3z M1558.6,277.4c0.9,0,1.2-0.3,1.2-1.3v-10.6c0-1-0.4-1.3-1.2-1.3h-1.4c-0.9,0-1.1,0.2-1.1,1.1
		v11c0,0.9,0.2,1.1,1.1,1.1H1558.6z"/>
	<path class="st7" d="M1574.3,262.1v17.5h-2.5v-1.2c-0.3,0.9-1,1.2-2,1.2h-1.4c-1.9,0-2.8-0.9-2.8-2.8v-14.6h2.5v14.2
		c0,0.9,0.2,1.1,1.1,1.1h1.4c0.9,0,1.2-0.3,1.2-1.3v-14H1574.3z"/>
	<path class="st7" d="M1580.1,264.2v11.9c0,0.9,0.2,1.1,1.1,1.1h1.4v2.3h-2.1c-1.9,0-2.8-0.9-2.8-2.8v-12.5h-1.6v-2.1h1.6v-2.8h2.5
		v2.8h2.5v2.1H1580.1z"/>
	<path class="st7" d="M1590,273c0-0.9-0.2-1.1-1.1-1.1h-1.8c-1.9,0-2.8-0.9-2.8-2.8v-4.1c0-1.9,0.9-2.8,2.8-2.8h2.4
		c1.9,0,2.8,0.9,2.8,2.8v1.8h-2.4v-1.4c0-0.9-0.2-1.1-1.1-1.1h-1c-0.9,0-1.1,0.2-1.1,1.1v3.4c0,0.9,0.2,1.1,1.1,1.1h1.8
		c1.9,0,2.8,0.9,2.8,2.8v4c0,1.9-0.9,2.8-2.8,2.8h-2.4c-1.9,0-2.8-0.9-2.8-2.8v-1.8h2.4v1.4c0,0.9,0.2,1.1,1.1,1.1h1
		c0.9,0,1.1-0.2,1.1-1.1V273z"/>
	<path class="st7" d="M1594.7,275.5h3v4h-3V275.5z"/>
	<path class="st7" d="M1615,257.1v22.4h-2.7l-4.6-17.3v17.3h-2.3v-22.4h2.9l4.5,16.7v-16.7H1615z"/>
	<path class="st7" d="M1625,262.1c1.9,0,2.8,0.9,2.8,2.8v11.8c0,1.9-0.9,2.8-2.8,2.8h-3.7c-1.9,0-2.8-0.9-2.8-2.8v-11.8
		c0-1.9,0.9-2.8,2.8-2.8H1625z M1625.4,265.3c0-0.9-0.2-1.1-1.1-1.1h-2.2c-0.9,0-1.1,0.2-1.1,1.1v11c0,0.9,0.2,1.1,1.1,1.1h2.2
		c0.9,0,1.1-0.2,1.1-1.1V265.3z"/>
	<path class="st7" d="M1633.5,264.2v11.9c0,0.9,0.2,1.1,1.1,1.1h1.4v2.3h-2.1c-1.9,0-2.8-0.9-2.8-2.8v-12.5h-1.6v-2.1h1.6v-2.8h2.5
		v2.8h2.5v2.1H1633.5z"/>
	<path class="st7" d="M1649,262.1c1.9,0,2.8,0.9,2.8,2.8v11.8c0,1.9-0.9,2.8-2.8,2.8h-3.7c-1.9,0-2.8-0.9-2.8-2.8v-11.8
		c0-1.9,0.9-2.8,2.8-2.8H1649z M1649.4,265.3c0-0.9-0.2-1.1-1.1-1.1h-2.2c-0.9,0-1.1,0.2-1.1,1.1v11c0,0.9,0.2,1.1,1.1,1.1h2.2
		c0.9,0,1.1-0.2,1.1-1.1V265.3z"/>
	<path class="st7" d="M1660.8,262.1c1.9,0,2.8,0.9,2.8,2.8v14.6h-2.5v-14.2c0-0.9-0.2-1.1-1.1-1.1h-1.4c-0.9,0-1.2,0.3-1.2,1.3v14
		h-2.5v-17.5h2.5v1.2c0.3-0.9,1-1.2,2-1.2H1660.8z"/>
	<path class="st7" d="M1666.9,279.5v-24.1h2.5v24.1H1666.9z"/>
	<path class="st7" d="M1673.8,262.1l2.8,15.7l2.6-15.7h2.5l-3.5,19.7c-0.4,1.9-1.5,2.8-3.4,2.8h-1.9v-2.1h1.2c0.9,0,1.6-0.2,1.8-1.1
		l0.4-1.8h-1.6l-3.3-17.5H1673.8z"/>
	<path class="st7" d="M1697,255.4v24.1h-2.5v-1.2c-0.3,0.9-1,1.2-2,1.2h-1.4c-1.9,0-2.8-0.9-2.8-2.8v-11.8c0-1.9,0.9-2.8,2.8-2.8
		h1.4c1,0,1.7,0.3,2,1.2v-7.8H1697z M1693.3,277.4c0.9,0,1.2-0.3,1.2-1.3v-10.7c0-1-0.4-1.3-1.2-1.3h-1.4c-0.9,0-1.1,0.2-1.1,1.1v11
		c0,0.9,0.2,1.1,1.1,1.1H1693.3z"/>
	<path class="st7" d="M1706.6,262.1c1.9,0,2.8,0.9,2.8,2.8v11.8c0,1.9-0.9,2.8-2.8,2.8h-3.7c-1.9,0-2.8-0.9-2.8-2.8v-11.8
		c0-1.9,0.9-2.8,2.8-2.8H1706.6z M1706.9,265.3c0-0.9-0.2-1.1-1.1-1.1h-2.2c-0.9,0-1.1,0.2-1.1,1.1v11c0,0.9,0.2,1.1,1.1,1.1h2.2
		c0.9,0,1.1-0.2,1.1-1.1V265.3z"/>
	<path class="st7" d="M1718.6,262.1c1.9,0,2.8,0.9,2.8,2.8v6.7h-6.5v4.6c0,0.9,0.2,1.1,1.1,1.1h1.7c0.9,0,1.1-0.2,1.1-1.1v-1.6h2.5
		v2c0,1.9-0.9,2.8-2.8,2.8h-3.2c-1.9,0-2.8-0.9-2.8-2.8v-11.8c0-1.9,0.9-2.8,2.8-2.8H1718.6z M1719,269.5v-4.2
		c0-0.9-0.2-1.1-1.1-1.1h-1.8c-0.9,0-1.1,0.2-1.1,1.1v4.2H1719z"/>
	<path class="st7" d="M1729.7,273c0-0.9-0.2-1.1-1.1-1.1h-1.8c-1.9,0-2.8-0.9-2.8-2.8v-4.1c0-1.9,0.9-2.8,2.8-2.8h2.4
		c1.9,0,2.8,0.9,2.8,2.8v1.8h-2.4v-1.4c0-0.9-0.2-1.1-1.1-1.1h-1c-0.9,0-1.1,0.2-1.1,1.1v3.4c0,0.9,0.2,1.1,1.1,1.1h1.8
		c1.9,0,2.8,0.9,2.8,2.8v4c0,1.9-0.9,2.8-2.8,2.8h-2.4c-1.9,0-2.8-0.9-2.8-2.8v-1.8h2.4v1.4c0,0.9,0.2,1.1,1.1,1.1h1
		c0.9,0,1.1-0.2,1.1-1.1V273z"/>
	<path class="st7" d="M1739.6,255.4h2.6v2.9h-2.6V255.4z M1739.7,279.5v-17.5h2.5v17.5H1739.7z"/>
	<path class="st7" d="M1748.1,264.2v11.9c0,0.9,0.2,1.1,1.1,1.1h1.4v2.3h-2.1c-1.9,0-2.8-0.9-2.8-2.8v-12.5h-1.6v-2.1h1.6v-2.8h2.5
		v2.8h2.5v2.1H1748.1z"/>
	<path class="st7" d="M1138.8,310.4v-1.9c0-0.9-0.2-1.1-1.1-1.1h-1.8c-0.9,0-1.1,0.2-1.1,1.1v11c0,0.9,0.2,1.1,1.1,1.1h1.8
		c0.9,0,1.1-0.2,1.1-1.1v-1.9h2.5v2.3c0,1.9-0.9,2.8-2.8,2.8h-3.3c-1.9,0-2.8-0.9-2.8-2.8v-11.8c0-1.9,0.9-2.8,2.8-2.8h3.3
		c1.9,0,2.8,0.9,2.8,2.8v2.3H1138.8z"/>
	<path class="st7" d="M1150.5,305.3c1.9,0,2.8,0.9,2.8,2.8v11.8c0,1.9-0.9,2.8-2.8,2.8h-3.7c-1.9,0-2.8-0.9-2.8-2.8v-11.8
		c0-1.9,0.9-2.8,2.8-2.8H1150.5z M1150.9,308.5c0-0.9-0.2-1.1-1.1-1.1h-2.2c-0.9,0-1.1,0.2-1.1,1.1v11c0,0.9,0.2,1.1,1.1,1.1h2.2
		c0.9,0,1.1-0.2,1.1-1.1V308.5z"/>
	<path class="st7" d="M1162.3,305.3c1.9,0,2.8,0.9,2.8,2.8v14.6h-2.5v-14.2c0-0.9-0.2-1.1-1.1-1.1h-1.4c-0.9,0-1.2,0.3-1.2,1.3v14
		h-2.5v-17.5h2.5v1.2c0.3-0.9,1-1.2,2-1.2H1162.3z"/>
	<path class="st7" d="M1171,307.4v11.9c0,0.9,0.2,1.1,1.1,1.1h1.4v2.3h-2.1c-1.9,0-2.8-0.9-2.8-2.8v-12.5h-1.6v-2.1h1.6v-2.8h2.5
		v2.8h2.5v2.1H1171z"/>
	<path class="st7" d="M1184.1,305.3v17.5h-2.5v-1.2c-0.3,0.9-1,1.2-2,1.2h-1.4c-1.9,0-2.8-0.9-2.8-2.8v-11.8c0-1.9,0.9-2.8,2.8-2.8
		h1.4c1,0,1.7,0.3,2,1.2v-1.2H1184.1z M1180.4,320.6c0.9,0,1.2-0.3,1.2-1.3v-10.6c0-1-0.4-1.3-1.2-1.3h-1.4c-0.9,0-1.1,0.2-1.1,1.1
		v11c0,0.9,0.2,1.1,1.1,1.1H1180.4z"/>
	<path class="st7" d="M1187.2,298.6h2.6v2.9h-2.6V298.6z M1187.3,322.7v-17.5h2.5v17.5H1187.3z"/>
	<path class="st7" d="M1198.9,305.3c1.9,0,2.8,0.9,2.8,2.8v14.6h-2.5v-14.2c0-0.9-0.2-1.1-1.1-1.1h-1.4c-0.9,0-1.2,0.3-1.2,1.3v14
		h-2.5v-17.5h2.5v1.2c0.3-0.9,1-1.2,2-1.2H1198.9z"/>
	<path class="st7" d="M1215.6,305.3c1.9,0,2.8,0.9,2.8,2.8v14.6h-2.5v-14.2c0-0.9-0.2-1.1-1.1-1.1h-1.4c-0.9,0-1.2,0.3-1.2,1.3v14
		h-2.5v-17.5h2.5v1.2c0.3-0.9,1-1.2,2-1.2H1215.6z"/>
	<path class="st7" d="M1227.8,305.3c1.9,0,2.8,0.9,2.8,2.8v6.7h-6.5v4.6c0,0.9,0.2,1.1,1.1,1.1h1.7c0.9,0,1.1-0.2,1.1-1.1v-1.6h2.5
		v2c0,1.9-0.9,2.8-2.8,2.8h-3.2c-1.9,0-2.8-0.9-2.8-2.8v-11.8c0-1.9,0.9-2.8,2.8-2.8H1227.8z M1228.2,312.7v-4.2
		c0-0.9-0.2-1.1-1.1-1.1h-1.8c-0.9,0-1.1,0.2-1.1,1.1v4.2H1228.2z"/>
	<path class="st7" d="M1250,305.3l-3.1,17.5h-3.8l-2.1-14l-2.1,14h-3.8l-3.1-17.5h2.4l2.6,15.7l2.3-15.7h3.4l2.2,15.7l2.6-15.7H1250
		z"/>
	<path class="st7" d="M1256.5,322.7v-24.1h2.5v24.1H1256.5z"/>
	<path class="st7" d="M1262.1,298.6h2.6v2.9h-2.6V298.6z M1262.2,322.7v-17.5h2.5v17.5H1262.2z"/>
	<path class="st7" d="M1271.8,300.9c-0.9,0-1.1,0.2-1.1,1.1v3.2h2.5v2.1h-2.5v15.3h-2.5v-15.3h-1.7v-2.1h1.7v-3.8
		c0-1.9,0.9-2.8,2.8-2.8h2.2v2.3H1271.8z"/>
	<path class="st7" d="M1281.2,305.3c1.9,0,2.8,0.9,2.8,2.8v6.7h-6.5v4.6c0,0.9,0.2,1.1,1.1,1.1h1.7c0.9,0,1.1-0.2,1.1-1.1v-1.6h2.5
		v2c0,1.9-0.9,2.8-2.8,2.8h-3.2c-1.9,0-2.8-0.9-2.8-2.8v-11.8c0-1.9,0.9-2.8,2.8-2.8H1281.2z M1281.5,312.7v-4.2
		c0-0.9-0.2-1.1-1.1-1.1h-1.8c-0.9,0-1.1,0.2-1.1,1.1v4.2H1281.5z"/>
	<path class="st7" d="M1297,316.2c0-0.9-0.2-1.1-1.1-1.1h-1.8c-1.9,0-2.8-0.9-2.8-2.8v-4.1c0-1.9,0.9-2.8,2.8-2.8h2.4
		c1.9,0,2.8,0.9,2.8,2.8v1.8h-2.4v-1.4c0-0.9-0.2-1.1-1.1-1.1h-1c-0.9,0-1.1,0.2-1.1,1.1v3.4c0,0.9,0.2,1.1,1.1,1.1h1.8
		c1.9,0,2.8,0.9,2.8,2.8v4c0,1.9-0.9,2.8-2.8,2.8h-2.4c-1.9,0-2.8-0.9-2.8-2.8v-1.8h2.4v1.4c0,0.9,0.2,1.1,1.1,1.1h1
		c0.9,0,1.1-0.2,1.1-1.1V316.2z"/>
	<path class="st7" d="M1311,305.3v17.5h-2.5v-1.2c-0.3,0.9-1,1.2-2,1.2h-1.4c-1.9,0-2.8-0.9-2.8-2.8v-14.6h2.5v14.2
		c0,0.9,0.2,1.1,1.1,1.1h1.4c0.9,0,1.2-0.3,1.2-1.3v-14H1311z"/>
	<path class="st7" d="M1320.2,305.3c1.9,0,2.8,0.9,2.8,2.8v11.8c0,1.9-0.9,2.8-2.8,2.8h-1.4c-1,0-1.7-0.3-2-1.2v6.3h-2.5v-22.5h2.5
		v1.2c0.3-0.9,1-1.2,2-1.2H1320.2z M1320.5,308.5c0-0.9-0.2-1.1-1.1-1.1h-1.4c-0.9,0-1.2,0.3-1.2,1.3v10.6c0,1,0.4,1.3,1.2,1.3h1.4
		c0.9,0,1.1-0.2,1.1-1.1V308.5z"/>
	<path class="st7" d="M1332,305.3c1.9,0,2.8,0.9,2.8,2.8v11.8c0,1.9-0.9,2.8-2.8,2.8h-1.4c-1,0-1.7-0.3-2-1.2v6.3h-2.5v-22.5h2.5
		v1.2c0.3-0.9,1-1.2,2-1.2H1332z M1332.3,308.5c0-0.9-0.2-1.1-1.1-1.1h-1.4c-0.9,0-1.2,0.3-1.2,1.3v10.6c0,1,0.4,1.3,1.2,1.3h1.4
		c0.9,0,1.1-0.2,1.1-1.1V308.5z"/>
	<path class="st7" d="M1344.2,305.3c1.9,0,2.8,0.9,2.8,2.8v11.8c0,1.9-0.9,2.8-2.8,2.8h-3.7c-1.9,0-2.8-0.9-2.8-2.8v-11.8
		c0-1.9,0.9-2.8,2.8-2.8H1344.2z M1344.6,308.5c0-0.9-0.2-1.1-1.1-1.1h-2.2c-0.9,0-1.1,0.2-1.1,1.1v11c0,0.9,0.2,1.1,1.1,1.1h2.2
		c0.9,0,1.1-0.2,1.1-1.1V308.5z"/>
	<path class="st7" d="M1356,305.3v2.2h-1.1c-1.6,0-2.3,0.9-2.3,2.7v12.6h-2.5v-17.5h2.5v2c0.3-1,1.2-2,2.6-2H1356z"/>
	<path class="st7" d="M1360.4,307.4v11.9c0,0.9,0.2,1.1,1.1,1.1h1.4v2.3h-2.1c-1.9,0-2.8-0.9-2.8-2.8v-12.5h-1.6v-2.1h1.6v-2.8h2.5
		v2.8h2.5v2.1H1360.4z"/>
	<path class="st7" d="M1378.1,305.3v17.5h-2.5v-1.2c-0.3,0.9-1,1.2-2,1.2h-1.4c-1.9,0-2.8-0.9-2.8-2.8v-11.8c0-1.9,0.9-2.8,2.8-2.8
		h1.4c1,0,1.7,0.3,2,1.2v-1.2H1378.1z M1374.4,320.6c0.9,0,1.2-0.3,1.2-1.3v-10.6c0-1-0.4-1.3-1.2-1.3h-1.4c-0.9,0-1.1,0.2-1.1,1.1
		v11c0,0.9,0.2,1.1,1.1,1.1H1374.4z"/>
	<path class="st7" d="M1387.2,305.3c1.9,0,2.8,0.9,2.8,2.8v14.6h-2.5v-14.2c0-0.9-0.2-1.1-1.1-1.1h-1.4c-0.9,0-1.2,0.3-1.2,1.3v14
		h-2.5v-17.5h2.5v1.2c0.3-0.9,1-1.2,2-1.2H1387.2z"/>
	<path class="st7" d="M1401.9,298.6v24.1h-2.5v-1.2c-0.3,0.9-1,1.2-2,1.2h-1.4c-1.9,0-2.8-0.9-2.8-2.8v-11.8c0-1.9,0.9-2.8,2.8-2.8
		h1.4c1,0,1.7,0.3,2,1.2v-7.8H1401.9z M1398.2,320.6c0.9,0,1.2-0.3,1.2-1.3v-10.7c0-1-0.4-1.3-1.2-1.3h-1.4c-0.9,0-1.1,0.2-1.1,1.1
		v11c0,0.9,0.2,1.1,1.1,1.1H1398.2z"/>
	<path class="st7" d="M1416,305.3c1.9,0,2.8,0.9,2.8,2.8v6.7h-6.5v4.6c0,0.9,0.2,1.1,1.1,1.1h1.7c0.9,0,1.1-0.2,1.1-1.1v-1.6h2.5v2
		c0,1.9-0.9,2.8-2.8,2.8h-3.2c-1.9,0-2.8-0.9-2.8-2.8v-11.8c0-1.9,0.9-2.8,2.8-2.8H1416z M1416.3,312.7v-4.2c0-0.9-0.2-1.1-1.1-1.1
		h-1.8c-0.9,0-1.1,0.2-1.1,1.1v4.2H1416.3z"/>
	<path class="st7" d="M1427.6,305.3c1.9,0,2.8,0.9,2.8,2.8v14.6h-2.5v-14.2c0-0.9-0.2-1.1-1.1-1.1h-1.4c-0.9,0-1.2,0.3-1.2,1.3v14
		h-2.5v-17.5h2.5v1.2c0.3-0.9,1-1.2,2-1.2H1427.6z"/>
	<path class="st7" d="M1437.1,321l2.4-15.7h2.5l-2.9,17.5h-3.9l-2.9-17.5h2.5L1437.1,321z"/>
	<path class="st7" d="M1443.7,298.6h2.6v2.9h-2.6V298.6z M1443.7,322.7v-17.5h2.5v17.5H1443.7z"/>
	<path class="st7" d="M1455.3,305.3v2.2h-1.1c-1.6,0-2.3,0.9-2.3,2.7v12.6h-2.5v-17.5h2.5v2c0.3-1,1.2-2,2.6-2H1455.3z"/>
	<path class="st7" d="M1463.4,305.3c1.9,0,2.8,0.9,2.8,2.8v11.8c0,1.9-0.9,2.8-2.8,2.8h-3.7c-1.9,0-2.8-0.9-2.8-2.8v-11.8
		c0-1.9,0.9-2.8,2.8-2.8H1463.4z M1463.8,308.5c0-0.9-0.2-1.1-1.1-1.1h-2.2c-0.9,0-1.1,0.2-1.1,1.1v11c0,0.9,0.2,1.1,1.1,1.1h2.2
		c0.9,0,1.1-0.2,1.1-1.1V308.5z"/>
	<path class="st7" d="M1475.2,305.3c1.9,0,2.8,0.9,2.8,2.8v14.6h-2.5v-14.2c0-0.9-0.2-1.1-1.1-1.1h-1.4c-0.9,0-1.2,0.3-1.2,1.3v14
		h-2.5v-17.5h2.5v1.2c0.3-0.9,1-1.2,2-1.2H1475.2z"/>
	<path class="st7" d="M1493.5,305.3c1.9,0,2.8,0.9,2.8,2.8v14.6h-2.5v-14.2c0-0.9-0.2-1.1-1.1-1.1h-1.4c-0.9,0-1.2,0.3-1.2,1.3v14
		h-2.5v-14.2c0-0.9-0.2-1.1-1.1-1.1h-1.4c-0.9,0-1.2,0.3-1.2,1.3v14h-2.5v-17.5h2.5v1.2c0.3-0.9,1-1.2,2-1.2h1.4
		c1.4,0,2.2,0.5,2.6,1.4c0.3-1,1.1-1.4,2.2-1.4H1493.5z"/>
	<path class="st7" d="M1505.5,305.3c1.9,0,2.8,0.9,2.8,2.8v6.7h-6.5v4.6c0,0.9,0.2,1.1,1.1,1.1h1.7c0.9,0,1.1-0.2,1.1-1.1v-1.6h2.5
		v2c0,1.9-0.9,2.8-2.8,2.8h-3.2c-1.9,0-2.8-0.9-2.8-2.8v-11.8c0-1.9,0.9-2.8,2.8-2.8H1505.5z M1505.9,312.7v-4.2
		c0-0.9-0.2-1.1-1.1-1.1h-1.8c-0.9,0-1.1,0.2-1.1,1.1v4.2H1505.9z"/>
	<path class="st7" d="M1517.2,305.3c1.9,0,2.8,0.9,2.8,2.8v14.6h-2.5v-14.2c0-0.9-0.2-1.1-1.1-1.1h-1.4c-0.9,0-1.2,0.3-1.2,1.3v14
		h-2.5v-17.5h2.5v1.2c0.3-0.9,1-1.2,2-1.2H1517.2z"/>
	<path class="st7" d="M1525.9,307.4v11.9c0,0.9,0.2,1.1,1.1,1.1h1.4v2.3h-2.1c-1.9,0-2.8-0.9-2.8-2.8v-12.5h-1.6v-2.1h1.6v-2.8h2.5
		v2.8h2.5v2.1H1525.9z"/>
	<path class="st7" d="M1538.9,305.3v17.5h-2.5v-1.2c-0.3,0.9-1,1.2-2,1.2h-1.4c-1.9,0-2.8-0.9-2.8-2.8v-11.8c0-1.9,0.9-2.8,2.8-2.8
		h1.4c1,0,1.7,0.3,2,1.2v-1.2H1538.9z M1535.2,320.6c0.9,0,1.2-0.3,1.2-1.3v-10.6c0-1-0.4-1.3-1.2-1.3h-1.4c-0.9,0-1.1,0.2-1.1,1.1
		v11c0,0.9,0.2,1.1,1.1,1.1H1535.2z"/>
	<path class="st7" d="M1542.1,322.7v-24.1h2.5v24.1H1542.1z"/>
	<path class="st7" d="M1558.9,310.4v-1.9c0-0.9-0.2-1.1-1.1-1.1h-1.8c-0.9,0-1.1,0.2-1.1,1.1v11c0,0.9,0.2,1.1,1.1,1.1h1.8
		c0.9,0,1.1-0.2,1.1-1.1v-1.9h2.5v2.3c0,1.9-0.9,2.8-2.8,2.8h-3.3c-1.9,0-2.8-0.9-2.8-2.8v-11.8c0-1.9,0.9-2.8,2.8-2.8h3.3
		c1.9,0,2.8,0.9,2.8,2.8v2.3H1558.9z"/>
	<path class="st7" d="M1570.6,305.3c1.9,0,2.8,0.9,2.8,2.8v11.8c0,1.9-0.9,2.8-2.8,2.8h-3.7c-1.9,0-2.8-0.9-2.8-2.8v-11.8
		c0-1.9,0.9-2.8,2.8-2.8H1570.6z M1571,308.5c0-0.9-0.2-1.1-1.1-1.1h-2.2c-0.9,0-1.1,0.2-1.1,1.1v11c0,0.9,0.2,1.1,1.1,1.1h2.2
		c0.9,0,1.1-0.2,1.1-1.1V308.5z"/>
	<path class="st7" d="M1582.4,305.3c1.9,0,2.8,0.9,2.8,2.8v14.6h-2.5v-14.2c0-0.9-0.2-1.1-1.1-1.1h-1.4c-0.9,0-1.2,0.3-1.2,1.3v14
		h-2.5v-17.5h2.5v1.2c0.3-0.9,1-1.2,2-1.2H1582.4z"/>
	<path class="st7" d="M1591.1,307.4v11.9c0,0.9,0.2,1.1,1.1,1.1h1.4v2.3h-2.1c-1.9,0-2.8-0.9-2.8-2.8v-12.5h-1.6v-2.1h1.6v-2.8h2.5
		v2.8h2.5v2.1H1591.1z"/>
	<path class="st7" d="M1601.4,305.3v2.2h-1.1c-1.6,0-2.3,0.9-2.3,2.7v12.6h-2.5v-17.5h2.5v2c0.3-1,1.2-2,2.6-2H1601.4z"/>
	<path class="st7" d="M1609.5,305.3c1.9,0,2.8,0.9,2.8,2.8v11.8c0,1.9-0.9,2.8-2.8,2.8h-3.7c-1.9,0-2.8-0.9-2.8-2.8v-11.8
		c0-1.9,0.9-2.8,2.8-2.8H1609.5z M1609.9,308.5c0-0.9-0.2-1.1-1.1-1.1h-2.2c-0.9,0-1.1,0.2-1.1,1.1v11c0,0.9,0.2,1.1,1.1,1.1h2.2
		c0.9,0,1.1-0.2,1.1-1.1V308.5z"/>
	<path class="st7" d="M1615.4,322.7v-24.1h2.5v24.1H1615.4z"/>
	<path class="st7" d="M1631.2,316.2c0-0.9-0.2-1.1-1.1-1.1h-1.8c-1.9,0-2.8-0.9-2.8-2.8v-4.1c0-1.9,0.9-2.8,2.8-2.8h2.4
		c1.9,0,2.8,0.9,2.8,2.8v1.8h-2.4v-1.4c0-0.9-0.2-1.1-1.1-1.1h-1c-0.9,0-1.1,0.2-1.1,1.1v3.4c0,0.9,0.2,1.1,1.1,1.1h1.8
		c1.9,0,2.8,0.9,2.8,2.8v4c0,1.9-0.9,2.8-2.8,2.8h-2.4c-1.9,0-2.8-0.9-2.8-2.8v-1.8h2.4v1.4c0,0.9,0.2,1.1,1.1,1.1h1
		c0.9,0,1.1-0.2,1.1-1.1V316.2z"/>
	<path class="st7" d="M1637.8,305.3l2.8,15.7l2.6-15.7h2.5l-3.5,19.7c-0.4,1.9-1.5,2.8-3.4,2.8h-1.9v-2.1h1.2c0.9,0,1.6-0.2,1.8-1.1
		l0.4-1.8h-1.6l-3.3-17.5H1637.8z"/>
	<path class="st7" d="M1653,316.2c0-0.9-0.2-1.1-1.1-1.1h-1.8c-1.9,0-2.8-0.9-2.8-2.8v-4.1c0-1.9,0.9-2.8,2.8-2.8h2.4
		c1.9,0,2.8,0.9,2.8,2.8v1.8h-2.4v-1.4c0-0.9-0.2-1.1-1.1-1.1h-1c-0.9,0-1.1,0.2-1.1,1.1v3.4c0,0.9,0.2,1.1,1.1,1.1h1.8
		c1.9,0,2.8,0.9,2.8,2.8v4c0,1.9-0.9,2.8-2.8,2.8h-2.4c-1.9,0-2.8-0.9-2.8-2.8v-1.8h2.4v1.4c0,0.9,0.2,1.1,1.1,1.1h1
		c0.9,0,1.1-0.2,1.1-1.1V316.2z"/>
	<path class="st7" d="M1661,307.4v11.9c0,0.9,0.2,1.1,1.1,1.1h1.4v2.3h-2.1c-1.9,0-2.8-0.9-2.8-2.8v-12.5h-1.6v-2.1h1.6v-2.8h2.5
		v2.8h2.5v2.1H1661z"/>
	<path class="st7" d="M1671.6,305.3c1.9,0,2.8,0.9,2.8,2.8v6.7h-6.5v4.6c0,0.9,0.2,1.1,1.1,1.1h1.7c0.9,0,1.1-0.2,1.1-1.1v-1.6h2.5
		v2c0,1.9-0.9,2.8-2.8,2.8h-3.2c-1.9,0-2.8-0.9-2.8-2.8v-11.8c0-1.9,0.9-2.8,2.8-2.8H1671.6z M1672,312.7v-4.2
		c0-0.9-0.2-1.1-1.1-1.1h-1.8c-0.9,0-1.1,0.2-1.1,1.1v4.2H1672z"/>
	<path class="st7" d="M1689.5,305.3c1.9,0,2.8,0.9,2.8,2.8v14.6h-2.5v-14.2c0-0.9-0.2-1.1-1.1-1.1h-1.4c-0.9,0-1.2,0.3-1.2,1.3v14
		h-2.5v-14.2c0-0.9-0.2-1.1-1.1-1.1h-1.4c-0.9,0-1.2,0.3-1.2,1.3v14h-2.5v-17.5h2.5v1.2c0.3-0.9,1-1.2,2-1.2h1.4
		c1.4,0,2.2,0.5,2.6,1.4c0.3-1,1.1-1.4,2.2-1.4H1689.5z"/>
	<path class="st7" d="M1700.8,316.2c0-0.9-0.2-1.1-1.1-1.1h-1.8c-1.9,0-2.8-0.9-2.8-2.8v-4.1c0-1.9,0.9-2.8,2.8-2.8h2.4
		c1.9,0,2.8,0.9,2.8,2.8v1.8h-2.4v-1.4c0-0.9-0.2-1.1-1.1-1.1h-1c-0.9,0-1.1,0.2-1.1,1.1v3.4c0,0.9,0.2,1.1,1.1,1.1h1.8
		c1.9,0,2.8,0.9,2.8,2.8v4c0,1.9-0.9,2.8-2.8,2.8h-2.4c-1.9,0-2.8-0.9-2.8-2.8v-1.8h2.4v1.4c0,0.9,0.2,1.1,1.1,1.1h1
		c0.9,0,1.1-0.2,1.1-1.1V316.2z"/>
	<path class="st7" d="M1708.5,318.7v2.1l-2,6.9h-1v-9H1708.5z"/>
	<path class="st7" d="M1721.8,305.2c1.9,0,2.8,0.9,2.8,2.8v11.8c0,1.9-0.9,2.8-2.8,2.8h-1.4c-1,0-1.7-0.3-2-1.2v1.2h-2.5v-24.1h2.5
		v7.8c0.3-0.9,1-1.2,2-1.2H1721.8z M1722.1,308.5c0-0.9-0.2-1.1-1.1-1.1h-1.4c-0.9,0-1.2,0.3-1.2,1.3v10.7c0,1,0.4,1.3,1.2,1.3h1.4
		c0.9,0,1.1-0.2,1.1-1.1V308.5z"/>
	<path class="st7" d="M1736.4,305.3v17.5h-2.5v-1.2c-0.3,0.9-1,1.2-2,1.2h-1.4c-1.9,0-2.8-0.9-2.8-2.8v-14.6h2.5v14.2
		c0,0.9,0.2,1.1,1.1,1.1h1.4c0.9,0,1.2-0.3,1.2-1.3v-14H1736.4z"/>
	<path class="st7" d="M1742.3,307.4v11.9c0,0.9,0.2,1.1,1.1,1.1h1.4v2.3h-2.1c-1.9,0-2.8-0.9-2.8-2.8v-12.5h-1.6v-2.1h1.6v-2.8h2.5
		v2.8h2.5v2.1H1742.3z"/>
	<path class="st7" d="M1165.4,348.5v17.5h-2.5v-1.2c-0.3,0.9-1,1.2-2,1.2h-1.4c-1.9,0-2.8-0.9-2.8-2.8v-11.8c0-1.9,0.9-2.8,2.8-2.8
		h1.4c1,0,1.7,0.3,2,1.2v-1.2H1165.4z M1161.7,363.8c0.9,0,1.2-0.3,1.2-1.3v-10.6c0-1-0.4-1.3-1.2-1.3h-1.4c-0.9,0-1.1,0.2-1.1,1.1
		v11c0,0.9,0.2,1.1,1.1,1.1H1161.7z"/>
	<path class="st7" d="M1168.6,365.9v-24.1h2.5v24.1H1168.6z"/>
	<path class="st7" d="M1179.7,359.4c0-0.9-0.2-1.1-1.1-1.1h-1.8c-1.9,0-2.8-0.9-2.8-2.8v-4.1c0-1.9,0.9-2.8,2.8-2.8h2.4
		c1.9,0,2.8,0.9,2.8,2.8v1.8h-2.4v-1.4c0-0.9-0.2-1.1-1.1-1.1h-1c-0.9,0-1.1,0.2-1.1,1.1v3.4c0,0.9,0.2,1.1,1.1,1.1h1.8
		c1.9,0,2.8,0.9,2.8,2.8v4c0,1.9-0.9,2.8-2.8,2.8h-2.4c-1.9,0-2.8-0.9-2.8-2.8v-1.8h2.4v1.4c0,0.9,0.2,1.1,1.1,1.1h1
		c0.9,0,1.1-0.2,1.1-1.1V359.4z"/>
	<path class="st7" d="M1191.4,348.5c1.9,0,2.8,0.9,2.8,2.8v11.8c0,1.9-0.9,2.8-2.8,2.8h-3.7c-1.9,0-2.8-0.9-2.8-2.8v-11.8
		c0-1.9,0.9-2.8,2.8-2.8H1191.4z M1191.8,351.7c0-0.9-0.2-1.1-1.1-1.1h-2.2c-0.9,0-1.1,0.2-1.1,1.1v11c0,0.9,0.2,1.1,1.1,1.1h2.2
		c0.9,0,1.1-0.2,1.1-1.1V351.7z"/>
	<path class="st7" d="M1207.9,348.5c1.9,0,2.8,0.9,2.8,2.8v14.6h-2.5v-14.2c0-0.9-0.2-1.1-1.1-1.1h-1.4c-0.9,0-1.2,0.3-1.2,1.3v14
		h-2.5v-17.5h2.5v1.2c0.3-0.9,1-1.2,2-1.2H1207.9z"/>
	<path class="st7" d="M1220.1,348.5c1.9,0,2.8,0.9,2.8,2.8v6.7h-6.5v4.6c0,0.9,0.2,1.1,1.1,1.1h1.7c0.9,0,1.1-0.2,1.1-1.1v-1.6h2.5
		v2c0,1.9-0.9,2.8-2.8,2.8h-3.2c-1.9,0-2.8-0.9-2.8-2.8v-11.8c0-1.9,0.9-2.8,2.8-2.8H1220.1z M1220.5,355.9v-4.2
		c0-0.9-0.2-1.1-1.1-1.1h-1.8c-0.9,0-1.1,0.2-1.1,1.1v4.2H1220.5z"/>
	<path class="st7" d="M1242.3,348.5l-3.1,17.5h-3.8l-2.1-14l-2.1,14h-3.8l-3.1-17.5h2.4l2.6,15.7l2.3-15.7h3.4l2.2,15.7l2.6-15.7
		H1242.3z"/>
	<path class="st7" d="M1252.6,344.1c-0.9,0-1.1,0.2-1.1,1.1v3.2h2.5v2.1h-2.5v15.3h-2.5v-15.3h-1.7v-2.1h1.7v-3.8
		c0-1.9,0.9-2.8,2.8-2.8h2.2v2.3H1252.6z"/>
	<path class="st7" d="M1264.4,348.5v17.5h-2.5v-1.2c-0.3,0.9-1,1.2-2,1.2h-1.4c-1.9,0-2.8-0.9-2.8-2.8v-11.8c0-1.9,0.9-2.8,2.8-2.8
		h1.4c1,0,1.7,0.3,2,1.2v-1.2H1264.4z M1260.7,363.8c0.9,0,1.2-0.3,1.2-1.3v-10.6c0-1-0.4-1.3-1.2-1.3h-1.4c-0.9,0-1.1,0.2-1.1,1.1
		v11c0,0.9,0.2,1.1,1.1,1.1H1260.7z"/>
	<path class="st7" d="M1267.6,341.8h2.6v2.9h-2.6V341.8z M1267.7,365.9v-17.5h2.5v17.5H1267.7z"/>
	<path class="st7" d="M1273.4,365.9v-24.1h2.5v24.1H1273.4z"/>
	<path class="st7" d="M1279.5,354.4h7.1v2.1h-7.1V354.4z"/>
	<path class="st7" d="M1295.5,359.4c0-0.9-0.2-1.1-1.1-1.1h-1.8c-1.9,0-2.8-0.9-2.8-2.8v-4.1c0-1.9,0.9-2.8,2.8-2.8h2.4
		c1.9,0,2.8,0.9,2.8,2.8v1.8h-2.4v-1.4c0-0.9-0.2-1.1-1.1-1.1h-1c-0.9,0-1.1,0.2-1.1,1.1v3.4c0,0.9,0.2,1.1,1.1,1.1h1.8
		c1.9,0,2.8,0.9,2.8,2.8v4c0,1.9-0.9,2.8-2.8,2.8h-2.4c-1.9,0-2.8-0.9-2.8-2.8v-1.8h2.4v1.4c0,0.9,0.2,1.1,1.1,1.1h1
		c0.9,0,1.1-0.2,1.1-1.1V359.4z"/>
	<path class="st7" d="M1309.4,348.5v17.5h-2.5v-1.2c-0.3,0.9-1,1.2-2,1.2h-1.4c-1.9,0-2.8-0.9-2.8-2.8v-11.8c0-1.9,0.9-2.8,2.8-2.8
		h1.4c1,0,1.7,0.3,2,1.2v-1.2H1309.4z M1305.7,363.8c0.9,0,1.2-0.3,1.2-1.3v-10.6c0-1-0.4-1.3-1.2-1.3h-1.4c-0.9,0-1.1,0.2-1.1,1.1
		v11c0,0.9,0.2,1.1,1.1,1.1H1305.7z"/>
	<path class="st7" d="M1316.5,344.1c-0.9,0-1.1,0.2-1.1,1.1v3.2h2.5v2.1h-2.5v15.3h-2.5v-15.3h-1.7v-2.1h1.7v-3.8
		c0-1.9,0.9-2.8,2.8-2.8h2.2v2.3H1316.5z"/>
	<path class="st7" d="M1325.9,348.5c1.9,0,2.8,0.9,2.8,2.8v6.7h-6.5v4.6c0,0.9,0.2,1.1,1.1,1.1h1.7c0.9,0,1.1-0.2,1.1-1.1v-1.6h2.5
		v2c0,1.9-0.9,2.8-2.8,2.8h-3.2c-1.9,0-2.8-0.9-2.8-2.8v-11.8c0-1.9,0.9-2.8,2.8-2.8H1325.9z M1326.3,355.9v-4.2
		c0-0.9-0.2-1.1-1.1-1.1h-1.8c-0.9,0-1.1,0.2-1.1,1.1v4.2H1326.3z"/>
	<path class="st7" d="M1341.7,359.4c0-0.9-0.2-1.1-1.1-1.1h-1.8c-1.9,0-2.8-0.9-2.8-2.8v-4.1c0-1.9,0.9-2.8,2.8-2.8h2.4
		c1.9,0,2.8,0.9,2.8,2.8v1.8h-2.4v-1.4c0-0.9-0.2-1.1-1.1-1.1h-1c-0.9,0-1.1,0.2-1.1,1.1v3.4c0,0.9,0.2,1.1,1.1,1.1h1.8
		c1.9,0,2.8,0.9,2.8,2.8v4c0,1.9-0.9,2.8-2.8,2.8h-2.4c-1.9,0-2.8-0.9-2.8-2.8v-1.8h2.4v1.4c0,0.9,0.2,1.1,1.1,1.1h1
		c0.9,0,1.1-0.2,1.1-1.1V359.4z"/>
	<path class="st7" d="M1352.9,348.5c1.9,0,2.8,0.9,2.8,2.8v11.8c0,1.9-0.9,2.8-2.8,2.8h-1.4c-1,0-1.7-0.3-2-1.2v6.3h-2.5v-22.5h2.5
		v1.2c0.3-0.9,1-1.2,2-1.2H1352.9z M1353.3,351.7c0-0.9-0.2-1.1-1.1-1.1h-1.4c-0.9,0-1.2,0.3-1.2,1.3v10.6c0,1,0.4,1.3,1.2,1.3h1.4
		c0.9,0,1.1-0.2,1.1-1.1V351.7z"/>
	<path class="st7" d="M1367.4,348.5v17.5h-2.5v-1.2c-0.3,0.9-1,1.2-2,1.2h-1.4c-1.9,0-2.8-0.9-2.8-2.8v-11.8c0-1.9,0.9-2.8,2.8-2.8
		h1.4c1,0,1.7,0.3,2,1.2v-1.2H1367.4z M1363.7,363.8c0.9,0,1.2-0.3,1.2-1.3v-10.6c0-1-0.4-1.3-1.2-1.3h-1.4c-0.9,0-1.1,0.2-1.1,1.1
		v11c0,0.9,0.2,1.1,1.1,1.1H1363.7z"/>
	<path class="st7" d="M1376.9,353.6v-1.9c0-0.9-0.2-1.1-1.1-1.1h-1.8c-0.9,0-1.1,0.2-1.1,1.1v11c0,0.9,0.2,1.1,1.1,1.1h1.8
		c0.9,0,1.1-0.2,1.1-1.1v-1.9h2.5v2.3c0,1.9-0.9,2.8-2.8,2.8h-3.3c-1.9,0-2.8-0.9-2.8-2.8v-11.8c0-1.9,0.9-2.8,2.8-2.8h3.3
		c1.9,0,2.8,0.9,2.8,2.8v2.3H1376.9z"/>
	<path class="st7" d="M1388.5,348.5c1.9,0,2.8,0.9,2.8,2.8v6.7h-6.5v4.6c0,0.9,0.2,1.1,1.1,1.1h1.7c0.9,0,1.1-0.2,1.1-1.1v-1.6h2.5
		v2c0,1.9-0.9,2.8-2.8,2.8h-3.2c-1.9,0-2.8-0.9-2.8-2.8v-11.8c0-1.9,0.9-2.8,2.8-2.8H1388.5z M1388.8,355.9v-4.2
		c0-0.9-0.2-1.1-1.1-1.1h-1.8c-0.9,0-1.1,0.2-1.1,1.1v4.2H1388.8z"/>
	<path class="st7" d="M1399.6,359.4c0-0.9-0.2-1.1-1.1-1.1h-1.8c-1.9,0-2.8-0.9-2.8-2.8v-4.1c0-1.9,0.9-2.8,2.8-2.8h2.4
		c1.9,0,2.8,0.9,2.8,2.8v1.8h-2.4v-1.4c0-0.9-0.2-1.1-1.1-1.1h-1c-0.9,0-1.1,0.2-1.1,1.1v3.4c0,0.9,0.2,1.1,1.1,1.1h1.8
		c1.9,0,2.8,0.9,2.8,2.8v4c0,1.9-0.9,2.8-2.8,2.8h-2.4c-1.9,0-2.8-0.9-2.8-2.8v-1.8h2.4v1.4c0,0.9,0.2,1.1,1.1,1.1h1
		c0.9,0,1.1-0.2,1.1-1.1V359.4z"/>
	<path class="st7" d="M1413.6,348.5v17.5h-2.5v-1.2c-0.3,0.9-1,1.2-2,1.2h-1.4c-1.9,0-2.8-0.9-2.8-2.8v-14.6h2.5v14.2
		c0,0.9,0.2,1.1,1.1,1.1h1.4c0.9,0,1.2-0.3,1.2-1.3v-14H1413.6z"/>
	<path class="st7" d="M1416.8,341.8h2.6v2.9h-2.6V341.8z M1416.9,365.9v-17.5h2.5v17.5H1416.9z"/>
	<path class="st7" d="M1425.2,350.6v11.9c0,0.9,0.2,1.1,1.1,1.1h1.4v2.3h-2.1c-1.9,0-2.8-0.9-2.8-2.8v-12.5h-1.6v-2.1h1.6v-2.8h2.5
		v2.8h2.5v2.1H1425.2z"/>
	<path class="st7" d="M1435,359.4c0-0.9-0.2-1.1-1.1-1.1h-1.8c-1.9,0-2.8-0.9-2.8-2.8v-4.1c0-1.9,0.9-2.8,2.8-2.8h2.4
		c1.9,0,2.8,0.9,2.8,2.8v1.8h-2.4v-1.4c0-0.9-0.2-1.1-1.1-1.1h-1c-0.9,0-1.1,0.2-1.1,1.1v3.4c0,0.9,0.2,1.1,1.1,1.1h1.8
		c1.9,0,2.8,0.9,2.8,2.8v4c0,1.9-0.9,2.8-2.8,2.8h-2.4c-1.9,0-2.8-0.9-2.8-2.8v-1.8h2.4v1.4c0,0.9,0.2,1.1,1.1,1.1h1
		c0.9,0,1.1-0.2,1.1-1.1V359.4z"/>
	<path class="st7" d="M1445,341.8h2.6v2.9h-2.6V341.8z M1445.1,365.9v-17.5h2.5v17.5H1445.1z"/>
	<path class="st7" d="M1456.7,348.5c1.9,0,2.8,0.9,2.8,2.8v14.6h-2.5v-14.2c0-0.9-0.2-1.1-1.1-1.1h-1.4c-0.9,0-1.2,0.3-1.2,1.3v14
		h-2.5v-17.5h2.5v1.2c0.3-0.9,1-1.2,2-1.2H1456.7z"/>
	<path class="st7" d="M1470.1,350.6v11.9c0,0.9,0.2,1.1,1.1,1.1h1.4v2.3h-2.1c-1.9,0-2.8-0.9-2.8-2.8v-12.5h-1.6v-2.1h1.6v-2.8h2.5
		v2.8h2.5v2.1H1470.1z"/>
	<path class="st7" d="M1480.4,348.5c1.9,0,2.8,0.9,2.8,2.8v14.6h-2.5v-14.2c0-0.9-0.2-1.1-1.1-1.1h-1.4c-0.9,0-1.2,0.3-1.2,1.3v14
		h-2.5v-24.1h2.5v7.8c0.3-0.9,1-1.2,2-1.2H1480.4z"/>
	<path class="st7" d="M1492.7,348.5c1.9,0,2.8,0.9,2.8,2.8v6.7h-6.5v4.6c0,0.9,0.2,1.1,1.1,1.1h1.7c0.9,0,1.1-0.2,1.1-1.1v-1.6h2.5
		v2c0,1.9-0.9,2.8-2.8,2.8h-3.2c-1.9,0-2.8-0.9-2.8-2.8v-11.8c0-1.9,0.9-2.8,2.8-2.8H1492.7z M1493,355.9v-4.2
		c0-0.9-0.2-1.1-1.1-1.1h-1.8c-0.9,0-1.1,0.2-1.1,1.1v4.2H1493z"/>
	<path class="st7" d="M1509.2,348.5c1.9,0,2.8,0.9,2.8,2.8v6.7h-6.5v4.6c0,0.9,0.2,1.1,1.1,1.1h1.7c0.9,0,1.1-0.2,1.1-1.1v-1.6h2.5
		v2c0,1.9-0.9,2.8-2.8,2.8h-3.2c-1.9,0-2.8-0.9-2.8-2.8v-11.8c0-1.9,0.9-2.8,2.8-2.8H1509.2z M1509.6,355.9v-4.2
		c0-0.9-0.2-1.1-1.1-1.1h-1.8c-0.9,0-1.1,0.2-1.1,1.1v4.2H1509.6z"/>
	<path class="st7" d="M1518.3,364.2l2.4-15.7h2.5l-2.9,17.5h-3.9l-2.9-17.5h2.5L1518.3,364.2z"/>
	<path class="st7" d="M1531.2,348.5c1.9,0,2.8,0.9,2.8,2.8v6.7h-6.5v4.6c0,0.9,0.2,1.1,1.1,1.1h1.7c0.9,0,1.1-0.2,1.1-1.1v-1.6h2.5
		v2c0,1.9-0.9,2.8-2.8,2.8h-3.2c-1.9,0-2.8-0.9-2.8-2.8v-11.8c0-1.9,0.9-2.8,2.8-2.8H1531.2z M1531.5,355.9v-4.2
		c0-0.9-0.2-1.1-1.1-1.1h-1.8c-0.9,0-1.1,0.2-1.1,1.1v4.2H1531.5z"/>
	<path class="st7" d="M1542.8,348.5c1.9,0,2.8,0.9,2.8,2.8v14.6h-2.5v-14.2c0-0.9-0.2-1.1-1.1-1.1h-1.4c-0.9,0-1.2,0.3-1.2,1.3v14
		h-2.5v-17.5h2.5v1.2c0.3-0.9,1-1.2,2-1.2H1542.8z"/>
	<path class="st7" d="M1551.5,350.6v11.9c0,0.9,0.2,1.1,1.1,1.1h1.4v2.3h-2.1c-1.9,0-2.8-0.9-2.8-2.8v-12.5h-1.6v-2.1h1.6v-2.8h2.5
		v2.8h2.5v2.1H1551.5z"/>
	<path class="st7" d="M1567,348.5c1.9,0,2.8,0.9,2.8,2.8v11.8c0,1.9-0.9,2.8-2.8,2.8h-3.7c-1.9,0-2.8-0.9-2.8-2.8v-11.8
		c0-1.9,0.9-2.8,2.8-2.8H1567z M1567.4,351.7c0-0.9-0.2-1.1-1.1-1.1h-2.2c-0.9,0-1.1,0.2-1.1,1.1v11c0,0.9,0.2,1.1,1.1,1.1h2.2
		c0.9,0,1.1-0.2,1.1-1.1V351.7z"/>
	<path class="st7" d="M1576.8,344.1c-0.9,0-1.1,0.2-1.1,1.1v3.2h2.5v2.1h-2.5v15.3h-2.5v-15.3h-1.7v-2.1h1.7v-3.8
		c0-1.9,0.9-2.8,2.8-2.8h2.2v2.3H1576.8z"/>
	<path class="st7" d="M1593.2,348.5v17.5h-2.5v-1.2c-0.3,0.9-1,1.2-2,1.2h-1.4c-1.9,0-2.8-0.9-2.8-2.8v-11.8c0-1.9,0.9-2.8,2.8-2.8
		h1.4c1,0,1.7,0.3,2,1.2v-1.2H1593.2z M1589.5,363.8c0.9,0,1.2-0.3,1.2-1.3v-10.6c0-1-0.4-1.3-1.2-1.3h-1.4c-0.9,0-1.1,0.2-1.1,1.1
		v11c0,0.9,0.2,1.1,1.1,1.1H1589.5z"/>
	<path class="st7" d="M1607.5,353.6v-1.9c0-0.9-0.2-1.1-1.1-1.1h-1.8c-0.9,0-1.1,0.2-1.1,1.1v11c0,0.9,0.2,1.1,1.1,1.1h1.8
		c0.9,0,1.1-0.2,1.1-1.1v-1.9h2.5v2.3c0,1.9-0.9,2.8-2.8,2.8h-3.3c-1.9,0-2.8-0.9-2.8-2.8v-11.8c0-1.9,0.9-2.8,2.8-2.8h3.3
		c1.9,0,2.8,0.9,2.8,2.8v2.3H1607.5z"/>
	<path class="st7" d="M1621.4,348.5v17.5h-2.5v-1.2c-0.3,0.9-1,1.2-2,1.2h-1.4c-1.9,0-2.8-0.9-2.8-2.8v-11.8c0-1.9,0.9-2.8,2.8-2.8
		h1.4c1,0,1.7,0.3,2,1.2v-1.2H1621.4z M1617.7,363.8c0.9,0,1.2-0.3,1.2-1.3v-10.6c0-1-0.4-1.3-1.2-1.3h-1.4c-0.9,0-1.1,0.2-1.1,1.1
		v11c0,0.9,0.2,1.1,1.1,1.1H1617.7z"/>
	<path class="st7" d="M1627.3,350.6v11.9c0,0.9,0.2,1.1,1.1,1.1h1.4v2.3h-2.1c-1.9,0-2.8-0.9-2.8-2.8v-12.5h-1.6v-2.1h1.6v-2.8h2.5
		v2.8h2.5v2.1H1627.3z"/>
	<path class="st7" d="M1640.3,348.5v17.5h-2.5v-1.2c-0.3,0.9-1,1.2-2,1.2h-1.4c-1.9,0-2.8-0.9-2.8-2.8v-11.8c0-1.9,0.9-2.8,2.8-2.8
		h1.4c1,0,1.7,0.3,2,1.2v-1.2H1640.3z M1636.6,363.8c0.9,0,1.2-0.3,1.2-1.3v-10.6c0-1-0.4-1.3-1.2-1.3h-1.4c-0.9,0-1.1,0.2-1.1,1.1
		v11c0,0.9,0.2,1.1,1.1,1.1H1636.6z"/>
	<path class="st7" d="M1648.9,359.4c0-0.9-0.2-1.1-1.1-1.1h-1.8c-1.9,0-2.8-0.9-2.8-2.8v-4.1c0-1.9,0.9-2.8,2.8-2.8h2.4
		c1.9,0,2.8,0.9,2.8,2.8v1.8h-2.4v-1.4c0-0.9-0.2-1.1-1.1-1.1h-1c-0.9,0-1.1,0.2-1.1,1.1v3.4c0,0.9,0.2,1.1,1.1,1.1h1.8
		c1.9,0,2.8,0.9,2.8,2.8v4c0,1.9-0.9,2.8-2.8,2.8h-2.4c-1.9,0-2.8-0.9-2.8-2.8v-1.8h2.4v1.4c0,0.9,0.2,1.1,1.1,1.1h1
		c0.9,0,1.1-0.2,1.1-1.1V359.4z"/>
	<path class="st7" d="M1656.9,350.6v11.9c0,0.9,0.2,1.1,1.1,1.1h1.4v2.3h-2.1c-1.9,0-2.8-0.9-2.8-2.8v-12.5h-1.6v-2.1h1.6v-2.8h2.5
		v2.8h2.5v2.1H1656.9z"/>
	<path class="st7" d="M1667.2,348.5v2.2h-1.1c-1.6,0-2.3,0.9-2.3,2.7v12.6h-2.5v-17.5h2.5v2c0.3-1,1.2-2,2.6-2H1667.2z"/>
	<path class="st7" d="M1675.3,348.5c1.9,0,2.8,0.9,2.8,2.8v11.8c0,1.9-0.9,2.8-2.8,2.8h-3.7c-1.9,0-2.8-0.9-2.8-2.8v-11.8
		c0-1.9,0.9-2.8,2.8-2.8H1675.3z M1675.7,351.7c0-0.9-0.2-1.1-1.1-1.1h-2.2c-0.9,0-1.1,0.2-1.1,1.1v11c0,0.9,0.2,1.1,1.1,1.1h2.2
		c0.9,0,1.1-0.2,1.1-1.1V351.7z"/>
	<path class="st7" d="M1687.1,348.5c1.9,0,2.8,0.9,2.8,2.8v11.8c0,1.9-0.9,2.8-2.8,2.8h-1.4c-1,0-1.7-0.3-2-1.2v6.3h-2.5v-22.5h2.5
		v1.2c0.3-0.9,1-1.2,2-1.2H1687.1z M1687.5,351.7c0-0.9-0.2-1.1-1.1-1.1h-1.4c-0.9,0-1.2,0.3-1.2,1.3v10.6c0,1,0.4,1.3,1.2,1.3h1.4
		c0.9,0,1.1-0.2,1.1-1.1V351.7z"/>
	<path class="st7" d="M1698.9,348.5c1.9,0,2.8,0.9,2.8,2.8v14.6h-2.5v-14.2c0-0.9-0.2-1.1-1.1-1.1h-1.4c-0.9,0-1.2,0.3-1.2,1.3v14
		h-2.5v-24.1h2.5v7.8c0.3-0.9,1-1.2,2-1.2H1698.9z"/>
	<path class="st7" d="M1704.9,341.8h2.6v2.9h-2.6V341.8z M1705,365.9v-17.5h2.5v17.5H1705z"/>
	<path class="st7" d="M1717.1,353.6v-1.9c0-0.9-0.2-1.1-1.1-1.1h-1.8c-0.9,0-1.1,0.2-1.1,1.1v11c0,0.9,0.2,1.1,1.1,1.1h1.8
		c0.9,0,1.1-0.2,1.1-1.1v-1.9h2.5v2.3c0,1.9-0.9,2.8-2.8,2.8h-3.3c-1.9,0-2.8-0.9-2.8-2.8v-11.8c0-1.9,0.9-2.8,2.8-2.8h3.3
		c1.9,0,2.8,0.9,2.8,2.8v2.3H1717.1z"/>
	<path class="st7" d="M1223.5,402.6c0-0.9-0.2-1.1-1.1-1.1h-1.8c-1.9,0-2.8-0.9-2.8-2.8v-4.1c0-1.9,0.9-2.8,2.8-2.8h2.4
		c1.9,0,2.8,0.9,2.8,2.8v1.8h-2.4v-1.4c0-0.9-0.2-1.1-1.1-1.1h-1c-0.9,0-1.1,0.2-1.1,1.1v3.4c0,0.9,0.2,1.1,1.1,1.1h1.8
		c1.9,0,2.8,0.9,2.8,2.8v4c0,1.9-0.9,2.8-2.8,2.8h-2.4c-1.9,0-2.8-0.9-2.8-2.8v-1.8h2.4v1.4c0,0.9,0.2,1.1,1.1,1.1h1
		c0.9,0,1.1-0.2,1.1-1.1V402.6z"/>
	<path class="st7" d="M1230,391.7l2.8,15.7l2.6-15.7h2.5l-3.5,19.7c-0.4,1.9-1.5,2.8-3.4,2.8h-1.9v-2.1h1.2c0.9,0,1.6-0.2,1.8-1.1
		l0.4-1.8h-1.6l-3.3-17.5H1230z"/>
	<path class="st7" d="M1245.3,402.6c0-0.9-0.2-1.1-1.1-1.1h-1.8c-1.9,0-2.8-0.9-2.8-2.8v-4.1c0-1.9,0.9-2.8,2.8-2.8h2.4
		c1.9,0,2.8,0.9,2.8,2.8v1.8h-2.4v-1.4c0-0.9-0.2-1.1-1.1-1.1h-1c-0.9,0-1.1,0.2-1.1,1.1v3.4c0,0.9,0.2,1.1,1.1,1.1h1.8
		c1.9,0,2.8,0.9,2.8,2.8v4c0,1.9-0.9,2.8-2.8,2.8h-2.4c-1.9,0-2.8-0.9-2.8-2.8v-1.8h2.4v1.4c0,0.9,0.2,1.1,1.1,1.1h1
		c0.9,0,1.1-0.2,1.1-1.1V402.6z"/>
	<path class="st7" d="M1253.3,393.8v11.9c0,0.9,0.2,1.1,1.1,1.1h1.4v2.3h-2.1c-1.9,0-2.8-0.9-2.8-2.8v-12.5h-1.6v-2.1h1.6v-2.8h2.5
		v2.8h2.5v2.1H1253.3z"/>
	<path class="st7" d="M1263.9,391.7c1.9,0,2.8,0.9,2.8,2.8v6.7h-6.5v4.6c0,0.9,0.2,1.1,1.1,1.1h1.7c0.9,0,1.1-0.2,1.1-1.1v-1.6h2.5
		v2c0,1.9-0.9,2.8-2.8,2.8h-3.2c-1.9,0-2.8-0.9-2.8-2.8v-11.8c0-1.9,0.9-2.8,2.8-2.8H1263.9z M1264.2,399.1v-4.2
		c0-0.9-0.2-1.1-1.1-1.1h-1.8c-0.9,0-1.1,0.2-1.1,1.1v4.2H1264.2z"/>
	<path class="st7" d="M1281.8,391.7c1.9,0,2.8,0.9,2.8,2.8v14.6h-2.5v-14.2c0-0.9-0.2-1.1-1.1-1.1h-1.4c-0.9,0-1.2,0.3-1.2,1.3v14
		h-2.5v-14.2c0-0.9-0.2-1.1-1.1-1.1h-1.4c-0.9,0-1.2,0.3-1.2,1.3v14h-2.5v-17.5h2.5v1.2c0.3-0.9,1-1.2,2-1.2h1.4
		c1.4,0,2.2,0.5,2.6,1.4c0.3-1,1.1-1.4,2.2-1.4H1281.8z"/>
	<path class="st7" d="M1293,402.6c0-0.9-0.2-1.1-1.1-1.1h-1.8c-1.9,0-2.8-0.9-2.8-2.8v-4.1c0-1.9,0.9-2.8,2.8-2.8h2.4
		c1.9,0,2.8,0.9,2.8,2.8v1.8h-2.4v-1.4c0-0.9-0.2-1.1-1.1-1.1h-1c-0.9,0-1.1,0.2-1.1,1.1v3.4c0,0.9,0.2,1.1,1.1,1.1h1.8
		c1.9,0,2.8,0.9,2.8,2.8v4c0,1.9-0.9,2.8-2.8,2.8h-2.4c-1.9,0-2.8-0.9-2.8-2.8v-1.8h2.4v1.4c0,0.9,0.2,1.1,1.1,1.1h1
		c0.9,0,1.1-0.2,1.1-1.1V402.6z"/>
	<path class="st7" d="M1306.9,387.3c-0.9,0-1.1,0.2-1.1,1.1v3.2h2.5v2.1h-2.5v15.3h-2.5v-15.3h-1.7v-2.1h1.7v-3.8
		c0-1.9,0.9-2.8,2.8-2.8h2.2v2.3H1306.9z"/>
	<path class="st7" d="M1318.7,391.7v17.5h-2.5v-1.2c-0.3,0.9-1,1.2-2,1.2h-1.4c-1.9,0-2.8-0.9-2.8-2.8v-11.8c0-1.9,0.9-2.8,2.8-2.8
		h1.4c1,0,1.7,0.3,2,1.2v-1.2H1318.7z M1315,407c0.9,0,1.2-0.3,1.2-1.3v-10.6c0-1-0.4-1.3-1.2-1.3h-1.4c-0.9,0-1.1,0.2-1.1,1.1v11
		c0,0.9,0.2,1.1,1.1,1.1H1315z"/>
	<path class="st7" d="M1321.9,385h2.6v2.9h-2.6V385z M1322,409.1v-17.5h2.5v17.5H1322z"/>
	<path class="st7" d="M1327.7,409.1V385h2.5v24.1H1327.7z"/>
	<path class="st7" d="M1342.1,391.7v17.5h-2.5v-1.2c-0.3,0.9-1,1.2-2,1.2h-1.4c-1.9,0-2.8-0.9-2.8-2.8v-14.6h2.5v14.2
		c0,0.9,0.2,1.1,1.1,1.1h1.4c0.9,0,1.2-0.3,1.2-1.3v-14H1342.1z"/>
	<path class="st7" d="M1351.2,391.7v2.2h-1.1c-1.6,0-2.3,0.9-2.3,2.7v12.6h-2.5v-17.5h2.5v2c0.3-1,1.2-2,2.6-2H1351.2z"/>
	<path class="st7" d="M1359.2,391.7c1.9,0,2.8,0.9,2.8,2.8v6.7h-6.5v4.6c0,0.9,0.2,1.1,1.1,1.1h1.7c0.9,0,1.1-0.2,1.1-1.1v-1.6h2.5
		v2c0,1.9-0.9,2.8-2.8,2.8h-3.2c-1.9,0-2.8-0.9-2.8-2.8v-11.8c0-1.9,0.9-2.8,2.8-2.8H1359.2z M1359.5,399.1v-4.2
		c0-0.9-0.2-1.1-1.1-1.1h-1.8c-0.9,0-1.1,0.2-1.1,1.1v4.2H1359.5z"/>
	<path class="st7" d="M1372.2,393.8v11.9c0,0.9,0.2,1.1,1.1,1.1h1.4v2.3h-2.1c-1.9,0-2.8-0.9-2.8-2.8v-12.5h-1.6v-2.1h1.6v-2.8h2.5
		v2.8h2.5v2.1H1372.2z"/>
	<path class="st7" d="M1382.6,391.7c1.9,0,2.8,0.9,2.8,2.8v14.6h-2.5v-14.2c0-0.9-0.2-1.1-1.1-1.1h-1.4c-0.9,0-1.2,0.3-1.2,1.3v14
		h-2.5V385h2.5v7.8c0.3-0.9,1-1.2,2-1.2H1382.6z"/>
	<path class="st7" d="M1397.2,391.7v17.5h-2.5v-1.2c-0.3,0.9-1,1.2-2,1.2h-1.4c-1.9,0-2.8-0.9-2.8-2.8v-11.8c0-1.9,0.9-2.8,2.8-2.8
		h1.4c1,0,1.7,0.3,2,1.2v-1.2H1397.2z M1393.5,407c0.9,0,1.2-0.3,1.2-1.3v-10.6c0-1-0.4-1.3-1.2-1.3h-1.4c-0.9,0-1.1,0.2-1.1,1.1v11
		c0,0.9,0.2,1.1,1.1,1.1H1393.5z"/>
	<path class="st7" d="M1403.1,393.8v11.9c0,0.9,0.2,1.1,1.1,1.1h1.4v2.3h-2.1c-1.9,0-2.8-0.9-2.8-2.8v-12.5h-1.6v-2.1h1.6v-2.8h2.5
		v2.8h2.5v2.1H1403.1z"/>
	<path class="st7" d="M1428.7,391.7l-3.1,17.5h-3.8l-2.1-14l-2.1,14h-3.8l-3.1-17.5h2.4l2.6,15.7l2.3-15.7h3.4l2.2,15.7l2.6-15.7
		H1428.7z"/>
	<path class="st7" d="M1430.4,385h2.6v2.9h-2.6V385z M1430.5,409.1v-17.5h2.5v17.5H1430.5z"/>
	<path class="st7" d="M1436.2,409.1V385h2.5v24.1H1436.2z"/>
	<path class="st7" d="M1441.9,409.1V385h2.5v24.1H1441.9z"/>
	<path class="st7" d="M1460.9,391.7v17.5h-2.5v-1.2c-0.3,0.9-1,1.2-2,1.2h-1.4c-1.9,0-2.8-0.9-2.8-2.8v-11.8c0-1.9,0.9-2.8,2.8-2.8
		h1.4c1,0,1.7,0.3,2,1.2v-1.2H1460.9z M1457.2,407c0.9,0,1.2-0.3,1.2-1.3v-10.6c0-1-0.4-1.3-1.2-1.3h-1.4c-0.9,0-1.1,0.2-1.1,1.1v11
		c0,0.9,0.2,1.1,1.1,1.1H1457.2z"/>
	<path class="st7" d="M1464.1,409.1V385h2.5v24.1H1464.1z"/>
	<path class="st7" d="M1469.9,409.1V385h2.5v24.1H1469.9z"/>
	<path class="st7" d="M1481.9,391.7c1.9,0,2.8,0.9,2.8,2.8v11.8c0,1.9-0.9,2.8-2.8,2.8h-3.7c-1.9,0-2.8-0.9-2.8-2.8v-11.8
		c0-1.9,0.9-2.8,2.8-2.8H1481.9z M1482.3,394.9c0-0.9-0.2-1.1-1.1-1.1h-2.2c-0.9,0-1.1,0.2-1.1,1.1v11c0,0.9,0.2,1.1,1.1,1.1h2.2
		c0.9,0,1.1-0.2,1.1-1.1V394.9z"/>
	<path class="st7" d="M1504.3,391.7l-3.1,17.5h-3.8l-2.1-14l-2.1,14h-3.8l-3.1-17.5h2.4l2.6,15.7l2.3-15.7h3.4l2.2,15.7l2.6-15.7
		H1504.3z"/>
	<path class="st7" d="M1514.7,387.3c-0.9,0-1.1,0.2-1.1,1.1v3.2h2.5v2.1h-2.5v15.3h-2.5v-15.3h-1.7v-2.1h1.7v-3.8
		c0-1.9,0.9-2.8,2.8-2.8h2.2v2.3H1514.7z"/>
	<path class="st7" d="M1524.2,391.7c1.9,0,2.8,0.9,2.8,2.8v11.8c0,1.9-0.9,2.8-2.8,2.8h-3.7c-1.9,0-2.8-0.9-2.8-2.8v-11.8
		c0-1.9,0.9-2.8,2.8-2.8H1524.2z M1524.6,394.9c0-0.9-0.2-1.1-1.1-1.1h-2.2c-0.9,0-1.1,0.2-1.1,1.1v11c0,0.9,0.2,1.1,1.1,1.1h2.2
		c0.9,0,1.1-0.2,1.1-1.1V394.9z"/>
	<path class="st7" d="M1535.9,391.7v2.2h-1.1c-1.6,0-2.3,0.9-2.3,2.7v12.6h-2.5v-17.5h2.5v2c0.3-1,1.2-2,2.6-2H1535.9z"/>
	<path class="st7" d="M1547.8,402.6c0-0.9-0.2-1.1-1.1-1.1h-1.8c-1.9,0-2.8-0.9-2.8-2.8v-4.1c0-1.9,0.9-2.8,2.8-2.8h2.4
		c1.9,0,2.8,0.9,2.8,2.8v1.8h-2.4v-1.4c0-0.9-0.2-1.1-1.1-1.1h-1c-0.9,0-1.1,0.2-1.1,1.1v3.4c0,0.9,0.2,1.1,1.1,1.1h1.8
		c1.9,0,2.8,0.9,2.8,2.8v4c0,1.9-0.9,2.8-2.8,2.8h-2.4c-1.9,0-2.8-0.9-2.8-2.8v-1.8h2.4v1.4c0,0.9,0.2,1.1,1.1,1.1h1
		c0.9,0,1.1-0.2,1.1-1.1V402.6z"/>
	<path class="st7" d="M1561.7,391.7v17.5h-2.5v-1.2c-0.3,0.9-1,1.2-2,1.2h-1.4c-1.9,0-2.8-0.9-2.8-2.8v-11.8c0-1.9,0.9-2.8,2.8-2.8
		h1.4c1,0,1.7,0.3,2,1.2v-1.2H1561.7z M1558,407c0.9,0,1.2-0.3,1.2-1.3v-10.6c0-1-0.4-1.3-1.2-1.3h-1.4c-0.9,0-1.1,0.2-1.1,1.1v11
		c0,0.9,0.2,1.1,1.1,1.1H1558z"/>
	<path class="st7" d="M1568.8,387.3c-0.9,0-1.1,0.2-1.1,1.1v3.2h2.5v2.1h-2.5v15.3h-2.5v-15.3h-1.7v-2.1h1.7v-3.8
		c0-1.9,0.9-2.8,2.8-2.8h2.2v2.3H1568.8z"/>
	<path class="st7" d="M1578.2,391.7c1.9,0,2.8,0.9,2.8,2.8v6.7h-6.5v4.6c0,0.9,0.2,1.1,1.1,1.1h1.7c0.9,0,1.1-0.2,1.1-1.1v-1.6h2.5
		v2c0,1.9-0.9,2.8-2.8,2.8h-3.2c-1.9,0-2.8-0.9-2.8-2.8v-11.8c0-1.9,0.9-2.8,2.8-2.8H1578.2z M1578.5,399.1v-4.2
		c0-0.9-0.2-1.1-1.1-1.1h-1.8c-0.9,0-1.1,0.2-1.1,1.1v4.2H1578.5z"/>
	<path class="st7" d="M1594.4,391.7v2.2h-1.1c-1.6,0-2.3,0.9-2.3,2.7v12.6h-2.5v-17.5h2.5v2c0.3-1,1.2-2,2.6-2H1594.4z"/>
	<path class="st7" d="M1602.3,391.7c1.9,0,2.8,0.9,2.8,2.8v6.7h-6.5v4.6c0,0.9,0.2,1.1,1.1,1.1h1.7c0.9,0,1.1-0.2,1.1-1.1v-1.6h2.5
		v2c0,1.9-0.9,2.8-2.8,2.8h-3.2c-1.9,0-2.8-0.9-2.8-2.8v-11.8c0-1.9,0.9-2.8,2.8-2.8H1602.3z M1602.7,399.1v-4.2
		c0-0.9-0.2-1.1-1.1-1.1h-1.8c-0.9,0-1.1,0.2-1.1,1.1v4.2H1602.7z"/>
	<path class="st7" d="M1610.7,393.8v11.9c0,0.9,0.2,1.1,1.1,1.1h1.4v2.3h-2.1c-1.9,0-2.8-0.9-2.8-2.8v-12.5h-1.6v-2.1h1.6v-2.8h2.5
		v2.8h2.5v2.1H1610.7z"/>
	<path class="st7" d="M1623.9,391.7v17.5h-2.5v-1.2c-0.3,0.9-1,1.2-2,1.2h-1.4c-1.9,0-2.8-0.9-2.8-2.8v-14.6h2.5v14.2
		c0,0.9,0.2,1.1,1.1,1.1h1.4c0.9,0,1.2-0.3,1.2-1.3v-14H1623.9z"/>
	<path class="st7" d="M1633,391.7v2.2h-1.1c-1.6,0-2.3,0.9-2.3,2.7v12.6h-2.5v-17.5h2.5v2c0.3-1,1.2-2,2.6-2H1633z"/>
	<path class="st7" d="M1640.7,391.7c1.9,0,2.8,0.9,2.8,2.8v14.6h-2.5v-14.2c0-0.9-0.2-1.1-1.1-1.1h-1.4c-0.9,0-1.2,0.3-1.2,1.3v14
		h-2.5v-17.5h2.5v1.2c0.3-0.9,1-1.2,2-1.2H1640.7z"/>
	<path class="st7" d="M1646.2,405.1h3v4h-3V405.1z"/>
</g>
</svg>
