<?xml version="1.0" encoding="utf-8"?>
<!-- Generator: Adobe Illustrator 27.3.1, SVG Export Plug-In . SVG Version: 6.00 Build 0)  -->
<svg version="1.1" id="Layer_1" xmlns="http://www.w3.org/2000/svg" xmlns:xlink="http://www.w3.org/1999/xlink" x="0px" y="0px"
	 viewBox="0 0 720 684" style="enable-background:new 0 0 720 684;" xml:space="preserve">
<style type="text/css">
	.st0{fill:#CEBBB3;stroke:#AB9C96;stroke-width:10;stroke-miterlimit:10;}
	.st1{fill:#0D1A1C;stroke:#AB9B95;stroke-width:10;stroke-miterlimit:10;}
	.st2{fill:#E5E5E4;stroke:#E5E5E4;stroke-miterlimit:10;}
	.st3{fill:#E5E5E4;}
	.st4{fill:#57B7CF;}
	.st5{fill:#B04F26;}
	.st6{fill:#57B7D0;}
</style>
<circle class="st0" cx="359.2" cy="339.2" r="306.7"/>
<circle class="st1" cx="358.4" cy="338.1" r="267.1"/>
<path class="st2" d="M410,622"/>
<g>
	<path class="st3" d="M257.2,238.1"/>
	<g>
		<path class="st3" d="M257.2,240.6c3.2,0,3.2-5,0-5C254,235.6,254,240.6,257.2,240.6L257.2,240.6z"/>
	</g>
</g>
<g>
	<path class="st3" d="M451.2,163.4"/>
	<g>
		<path class="st3" d="M451.2,165.9c3.2,0,3.2-5,0-5C448,160.9,448,165.9,451.2,165.9L451.2,165.9z"/>
	</g>
</g>
<g>
	<path class="st3" d="M323.8,409.4"/>
	<g>
		<path class="st3" d="M323.8,411.9c3.2,0,3.2-5,0-5C320.6,406.9,320.6,411.9,323.8,411.9L323.8,411.9z"/>
	</g>
</g>
<g>
	<path class="st3" d="M450.8,564.4"/>
	<g>
		<path class="st3" d="M450.8,566.9c3.2,0,3.2-5,0-5C447.5,561.9,447.5,566.9,450.8,566.9L450.8,566.9z"/>
	</g>
</g>
<g>
	<path class="st3" d="M609,304.3"/>
	<g>
		<path class="st3" d="M609,306.8c3.2,0,3.2-5,0-5C605.7,301.8,605.7,306.8,609,306.8L609,306.8z"/>
	</g>
</g>
<g>
	<path class="st3" d="M201.6,424.4"/>
	<g>
		<path class="st3" d="M201.6,426.9c3.2,0,3.2-5,0-5C198.4,421.9,198.4,426.9,201.6,426.9L201.6,426.9z"/>
	</g>
</g>
<g>
	<path class="st3" d="M340.8,569"/>
	<g>
		<path class="st3" d="M340.8,571.5c3.2,0,3.2-5,0-5C337.6,566.5,337.6,571.5,340.8,571.5L340.8,571.5z"/>
	</g>
</g>
<g>
	<path class="st3" d="M239.1,543.8"/>
	<g>
		<path class="st3" d="M239.1,546.3c3.2,0,3.2-5,0-5C235.9,541.3,235.9,546.3,239.1,546.3L239.1,546.3z"/>
	</g>
</g>
<g>
	<path class="st3" d="M574.3,339.6"/>
	<g>
		<path class="st3" d="M574.3,342.1c3.2,0,3.2-5,0-5C571.1,337.1,571.1,342.1,574.3,342.1L574.3,342.1z"/>
	</g>
</g>
<g>
	<path class="st3" d="M384,534.9"/>
	<g>
		<path class="st3" d="M384,537.4c3.2,0,3.2-5,0-5C380.8,532.4,380.8,537.4,384,537.4L384,537.4z"/>
	</g>
</g>
<g>
	<path class="st3" d="M283,421"/>
	<g>
		<path class="st3" d="M283,423.5c3.2,0,3.2-5,0-5C279.7,418.5,279.7,423.5,283,423.5L283,423.5z"/>
	</g>
</g>
<g>
	<path class="st3" d="M260.3,390.6"/>
	<g>
		<path class="st3" d="M260.3,393.1c3.2,0,3.2-5,0-5C257,388.1,257,393.1,260.3,393.1L260.3,393.1z"/>
	</g>
</g>
<g>
	<path class="st3" d="M582.2,234.9"/>
	<g>
		<path class="st3" d="M582.2,237.4c3.2,0,3.2-5,0-5C579,232.4,579,237.4,582.2,237.4L582.2,237.4z"/>
	</g>
</g>
<g>
	<path class="st3" d="M317.2,290.6"/>
	<g>
		<path class="st3" d="M317.2,293.1c3.2,0,3.2-5,0-5C314,288.1,314,293.1,317.2,293.1L317.2,293.1z"/>
	</g>
</g>
<g>
	<path class="st3" d="M205.8,350.8"/>
	<g>
		<path class="st3" d="M205.8,353.3c3.2,0,3.2-5,0-5C202.6,348.3,202.6,353.3,205.8,353.3L205.8,353.3z"/>
	</g>
</g>
<g>
	<path class="st3" d="M380.8,94.5"/>
	<g>
		<path class="st3" d="M380.8,97c3.2,0,3.2-5,0-5C377.6,92,377.6,97,380.8,97L380.8,97z"/>
	</g>
</g>
<g>
	<path class="st3" d="M515.3,284"/>
	<g>
		<path class="st3" d="M515.3,286.5c3.2,0,3.2-5,0-5C512.1,281.5,512.1,286.5,515.3,286.5L515.3,286.5z"/>
	</g>
</g>
<g>
	<path class="st3" d="M520.4,219.2"/>
	<g>
		<path class="st3" d="M520.4,221.7c3.2,0,3.2-5,0-5C517.1,216.7,517.1,221.7,520.4,221.7L520.4,221.7z"/>
	</g>
</g>
<g>
	<path class="st3" d="M490,535.2"/>
	<g>
		<path class="st3" d="M490,537.7c3.2,0,3.2-5,0-5C486.8,532.7,486.8,537.7,490,537.7L490,537.7z"/>
	</g>
</g>
<g>
	<path class="st3" d="M315.4,366.1"/>
	<g>
		<path class="st3" d="M315.4,368.6c3.2,0,3.2-5,0-5C312.2,363.6,312.2,368.6,315.4,368.6L315.4,368.6z"/>
	</g>
</g>
<g>
	<path class="st3" d="M397.2,367.2"/>
	<g>
		<path class="st3" d="M397.2,369.7c3.2,0,3.2-5,0-5C394,364.7,394,369.7,397.2,369.7L397.2,369.7z"/>
	</g>
</g>
<g>
	<path class="st3" d="M268.4,502.5"/>
	<g>
		<path class="st3" d="M268.4,505c3.2,0,3.2-5,0-5C265.2,500,265.2,505,268.4,505L268.4,505z"/>
	</g>
</g>
<g>
	<path class="st3" d="M349.3,470.5"/>
	<g>
		<path class="st3" d="M349.3,473c3.2,0,3.2-5,0-5C346.1,468,346.1,473,349.3,473L349.3,473z"/>
	</g>
</g>
<g>
	<path class="st3" d="M406.7,160"/>
	<g>
		<path class="st3" d="M406.7,162.5c3.2,0,3.2-5,0-5C403.5,157.5,403.5,162.5,406.7,162.5L406.7,162.5z"/>
	</g>
</g>
<g>
	<path class="st3" d="M584.1,387.4"/>
	<g>
		<path class="st3" d="M584.1,389.9c3.2,0,3.2-5,0-5C580.9,384.9,580.9,389.9,584.1,389.9L584.1,389.9z"/>
	</g>
</g>
<g>
	<path class="st3" d="M440.7,304.3"/>
	<g>
		<path class="st3" d="M440.7,306.8c3.2,0,3.2-5,0-5C437.4,301.8,437.4,306.8,440.7,306.8L440.7,306.8z"/>
	</g>
</g>
<g>
	<path class="st3" d="M509.5,475.2"/>
	<g>
		<path class="st3" d="M509.5,477.7c3.2,0,3.2-5,0-5C506.3,472.7,506.3,477.7,509.5,477.7L509.5,477.7z"/>
	</g>
</g>
<g>
	<path class="st3" d="M394.3,459.4"/>
	<g>
		<path class="st3" d="M394.3,461.9c3.2,0,3.2-5,0-5C391.1,456.9,391.1,461.9,394.3,461.9L394.3,461.9z"/>
	</g>
</g>
<g>
	<path class="st3" d="M493.4,397.4"/>
	<g>
		<path class="st3" d="M493.4,399.9c3.2,0,3.2-5,0-5C490.2,394.9,490.2,399.9,493.4,399.9L493.4,399.9z"/>
	</g>
</g>
<g>
	<path class="st3" d="M529,424.1"/>
	<g>
		<path class="st3" d="M529,426.6c3.2,0,3.2-5,0-5C525.8,421.6,525.8,426.6,529,426.6L529,426.6z"/>
	</g>
</g>
<g>
	<path class="st3" d="M573.4,283.6"/>
	<g>
		<path class="st3" d="M573.4,286.1c3.2,0,3.2-5,0-5C570.2,281.1,570.2,286.1,573.4,286.1L573.4,286.1z"/>
	</g>
</g>
<g>
	<path class="st3" d="M346.6,206.2"/>
	<g>
		<path class="st3" d="M346.6,208.7c3.2,0,3.2-5,0-5C343.4,203.7,343.4,208.7,346.6,208.7L346.6,208.7z"/>
	</g>
</g>
<g>
	<path class="st3" d="M320.6,569.7"/>
	<g>
		<path class="st3" d="M320.6,572.2c3.2,0,3.2-5,0-5C317.4,567.2,317.4,572.2,320.6,572.2L320.6,572.2z"/>
	</g>
</g>
<g>
	<path class="st3" d="M375.8,593.9"/>
	<g>
		<path class="st3" d="M375.8,596.4c3.2,0,3.2-5,0-5C372.6,591.4,372.6,596.4,375.8,596.4L375.8,596.4z"/>
	</g>
</g>
<path class="st2" d="M170.3,452.7"/>
<g>
	<path class="st3" d="M347.8,131.2"/>
	<g>
		<path class="st3" d="M347.8,133.7c3.2,0,3.2-5,0-5C344.6,128.7,344.6,133.7,347.8,133.7L347.8,133.7z"/>
	</g>
</g>
<g>
	<path class="st3" d="M553.2,197"/>
	<g>
		<path class="st3" d="M553.2,199.5c3.2,0,3.2-5,0-5C550,194.5,550,199.5,553.2,199.5L553.2,199.5z"/>
	</g>
</g>
<g>
	<path class="st3" d="M281.8,252.2"/>
	<g>
		<path class="st3" d="M281.8,254.7c3.2,0,3.2-5,0-5C278.6,249.7,278.6,254.7,281.8,254.7L281.8,254.7z"/>
	</g>
</g>
<g>
	<path class="st3" d="M240.7,448.2"/>
	<g>
		<path class="st3" d="M240.7,450.7c3.2,0,3.2-5,0-5C237.5,445.7,237.5,450.7,240.7,450.7L240.7,450.7z"/>
	</g>
</g>
<g>
	<path class="st3" d="M550,417.6"/>
	<g>
		<path class="st3" d="M550,420.1c3.2,0,3.2-5,0-5C546.8,415.1,546.8,420.1,550,420.1L550,420.1z"/>
	</g>
</g>
<g>
	<path class="st3" d="M193.4,166.4"/>
	<g>
		<path class="st3" d="M193.4,168.9c3.2,0,3.2-5,0-5C190.2,163.9,190.2,168.9,193.4,168.9L193.4,168.9z"/>
	</g>
</g>
<g>
	<path class="st3" d="M132,377.7"/>
	<g>
		<path class="st3" d="M132,380.2c3.2,0,3.2-5,0-5C128.7,375.2,128.7,380.2,132,380.2L132,380.2z"/>
	</g>
</g>
<g>
	<path class="st3" d="M124,270.5"/>
	<g>
		<path class="st3" d="M124,273c3.2,0,3.2-5,0-5C120.8,268,120.8,273,124,273L124,273z"/>
	</g>
</g>
<g>
	<path class="st3" d="M531.1,356.3"/>
	<g>
		<path class="st3" d="M531.1,358.8c3.2,0,3.2-5,0-5C527.9,353.8,527.9,358.8,531.1,358.8L531.1,358.8z"/>
	</g>
</g>
<g>
	<path class="st3" d="M221.8,377.8"/>
	<g>
		<path class="st3" d="M221.8,380.3c3.2,0,3.2-5,0-5C218.6,375.3,218.6,380.3,221.8,380.3L221.8,380.3z"/>
	</g>
</g>
<g>
	<path class="st3" d="M247.1,227.7"/>
	<g>
		<path class="st3" d="M247.1,230.2c3.2,0,3.2-5,0-5C243.8,225.2,243.8,230.2,247.1,230.2L247.1,230.2z"/>
	</g>
</g>
<g>
	<path class="st3" d="M256.5,190.9"/>
	<g>
		<path class="st3" d="M256.5,193.4c3.2,0,3.2-5,0-5C253.3,188.4,253.3,193.4,256.5,193.4L256.5,193.4z"/>
	</g>
</g>
<g>
	<path class="st3" d="M154.2,450.2"/>
	<g>
		<path class="st3" d="M154.2,452.7c3.2,0,3.2-5,0-5C151,447.7,151,452.7,154.2,452.7L154.2,452.7z"/>
	</g>
</g>
<g>
	<path class="st3" d="M370.1,172.5"/>
	<g>
		<path class="st3" d="M370.1,175c3.2,0,3.2-5,0-5C366.9,170,366.9,175,370.1,175L370.1,175z"/>
	</g>
</g>
<g>
	<path class="st3" d="M253.4,123.5"/>
	<g>
		<path class="st3" d="M253.4,126c3.2,0,3.2-5,0-5C250.2,121,250.1,126,253.4,126L253.4,126z"/>
	</g>
</g>
<g>
	<path class="st3" d="M499.5,322.6"/>
	<g>
		<path class="st3" d="M499.5,325.1c3.2,0,3.2-5,0-5C496.3,320.1,496.3,325.1,499.5,325.1L499.5,325.1z"/>
	</g>
</g>
<g>
	<path class="st3" d="M553.2,285.9"/>
	<g>
		<path class="st3" d="M553.2,288.4c3.2,0,3.2-5,0-5C550,283.4,550,288.4,553.2,288.4L553.2,288.4z"/>
	</g>
</g>
<g>
	<path class="st3" d="M288.1,460.5"/>
	<g>
		<path class="st3" d="M288.1,463c3.2,0,3.2-5,0-5C284.9,458,284.9,463,288.1,463L288.1,463z"/>
	</g>
</g>
<g>
	<path class="st3" d="M310.2,218.5"/>
	<g>
		<path class="st3" d="M310.2,221c3.2,0,3.2-5,0-5C307,216,307,221,310.2,221L310.2,221z"/>
	</g>
</g>
<g>
	<path class="st3" d="M360.7,282.8"/>
	<g>
		<path class="st3" d="M360.7,285.3c3.2,0,3.2-5,0-5C357.5,280.3,357.5,285.3,360.7,285.3L360.7,285.3z"/>
	</g>
</g>
<g>
	<path class="st3" d="M174.5,267.5"/>
	<g>
		<path class="st3" d="M174.5,270c3.2,0,3.2-5,0-5C171.3,265,171.2,270,174.5,270L174.5,270z"/>
	</g>
</g>
<g>
	<path class="st3" d="M250.2,310.4"/>
	<g>
		<path class="st3" d="M250.2,312.9c3.2,0,3.2-5,0-5C247,307.9,247,312.9,250.2,312.9L250.2,312.9z"/>
	</g>
</g>
<g>
	<path class="st3" d="M527.9,160.2"/>
	<g>
		<path class="st3" d="M527.9,162.7c3.2,0,3.2-5,0-5C524.7,157.7,524.7,162.7,527.9,162.7L527.9,162.7z"/>
	</g>
</g>
<g>
	<path class="st3" d="M190.4,487.5"/>
	<g>
		<path class="st3" d="M190.4,490c3.2,0,3.2-5,0-5C187.2,485,187.2,490,190.4,490L190.4,490z"/>
	</g>
</g>
<g>
	<path class="st3" d="M560,461"/>
	<g>
		<path class="st3" d="M560,463.5c3.2,0,3.2-5,0-5C556.8,458.5,556.8,463.5,560,463.5L560,463.5z"/>
	</g>
</g>
<g>
	<path class="st3" d="M462.2,441.1"/>
	<g>
		<path class="st3" d="M462.2,443.6c3.2,0,3.2-5,0-5C459,438.6,459,443.6,462.2,443.6L462.2,443.6z"/>
	</g>
</g>
<g>
	<path class="st3" d="M436.9,277.2"/>
	<g>
		<path class="st3" d="M436.9,279.7c3.2,0,3.2-5,0-5C433.7,274.7,433.7,279.7,436.9,279.7L436.9,279.7z"/>
	</g>
</g>
<g>
	<path class="st3" d="M347,438"/>
	<g>
		<path class="st3" d="M347,440.5c3.2,0,3.2-5,0-5C343.8,435.5,343.8,440.5,347,440.5L347,440.5z"/>
	</g>
</g>
<g>
	<path class="st3" d="M287,338.5"/>
	<g>
		<path class="st3" d="M287,341c3.2,0,3.2-5,0-5C283.8,336,283.8,341,287,341L287,341z"/>
	</g>
</g>
<g>
	<path class="st3" d="M397.5,376.8"/>
	<g>
		<path class="st3" d="M397.5,379.3c3.2,0,3.2-5,0-5C394.3,374.3,394.3,379.3,397.5,379.3L397.5,379.3z"/>
	</g>
</g>
<g>
	<path class="st3" d="M399.1,421.2"/>
	<g>
		<path class="st3" d="M399.1,423.7c3.2,0,3.2-5,0-5C395.9,418.7,395.8,423.7,399.1,423.7L399.1,423.7z"/>
	</g>
</g>
<g>
	<path class="st3" d="M536.4,367.6"/>
	<g>
		<path class="st3" d="M536.4,370.1c3.2,0,3.2-5,0-5C533.1,365.1,533.1,370.1,536.4,370.1L536.4,370.1z"/>
	</g>
</g>
<g>
	<path class="st3" d="M454.3,142.4"/>
	<g>
		<path class="st3" d="M454.3,144.9c3.2,0,3.2-5,0-5C451.1,139.9,451.1,144.9,454.3,144.9L454.3,144.9z"/>
	</g>
</g>
<g>
	<path class="st3" d="M147,322.7"/>
	<g>
		<path class="st3" d="M147,325.2c3.2,0,3.2-5,0-5C143.8,320.2,143.8,325.2,147,325.2L147,325.2z"/>
	</g>
</g>
<g>
	<path class="st3" d="M170.7,408.4"/>
	<g>
		<path class="st3" d="M170.7,410.9c3.2,0,3.2-5,0-5C167.5,405.9,167.5,410.9,170.7,410.9L170.7,410.9z"/>
	</g>
</g>
<ellipse class="st4" cx="362.9" cy="338.6" rx="175" ry="175.4"/>
<g>
	<g>
		<path class="st5" d="M529.3,313.4c3.5,23.3,2.1,47.4-4.2,70.1c-4.3,15.5-10.8,30.3-19.3,43.9l-125.2-85.2L529.3,313.4 M535,305.2
			l-172.1,33.3l145,98.6c10.8-15.8,18.9-33.4,24.1-51.8C539.2,359.3,540.2,331.8,535,305.2L535,305.2z"/>
	</g>
</g>
<g>
	<g>
		<path class="st6" d="M362.4,346.5c17,11.8,34.2,23.3,51.5,34.6c17.3,11.3,34.8,22.4,52.4,33.3c9.9,6.1,19.9,12.2,29.9,18.1
			c3.4,2,8.4,0.9,10.3-2.7c1.9-3.6,0.9-8.1-2.7-10.3c-17.8-10.6-35.4-21.5-52.9-32.5c-17.5-11.1-34.8-22.4-52-33.9
			c-9.7-6.5-19.3-13-28.9-19.6c-3.2-2.2-8.5-0.7-10.3,2.7C357.6,340,358.9,344.1,362.4,346.5L362.4,346.5z"/>
	</g>
</g>
<g>
	<g>
		<path class="st6" d="M526,313.4c0.6-1.4,1.3-2.9,1.9-4.3c0.8-1.9,1.3-3.7,0.8-5.8c-0.5-1.7-1.8-3.6-3.4-4.5
			c-1.7-0.9-3.8-1.4-5.8-0.8c-2,0.6-3.2,1.8-4.5,3.4c1.5-2,0.3-0.5,0,0c-0.3,0.3-0.5,0.6-0.8,0.8c-0.3,0.3-0.5,0.5-0.8,0.8
			c-0.2,0.2-1.5,1.3-0.4,0.4c1.1-0.9-0.3,0.2-0.5,0.3c-0.3,0.2-0.6,0.4-1,0.6c-0.8,0.5-1.6,0.8-2.4,1.2c0.6-0.3,1.2-0.5,1.8-0.8
			c-1.8,0.8-3.7,1.3-5.6,1.5c0.7-0.1,1.3-0.2,2-0.3c-1.9,0.2-3.9,0.2-5.8,0.3c-2.6,0.1-5.1,0.4-7.7,0.8c-3.8,0.6-7.6,1.4-11.4,2.1
			c-7.8,1.5-15.7,3-23.5,4.6c-15.5,3-31,6-46.5,9c-8.9,1.7-17.9,3.5-26.8,5.3c-3.9,0.8-6.4,5.6-5.2,9.2c1.3,4.1,5.1,6.1,9.2,5.2
			c28.3-5.6,56.7-11.1,85-16.6c7.9-1.5,15.7-3.3,23.6-4.5c-0.7,0.1-1.3,0.2-2,0.3c5.8-0.8,11.8,0,17.4-2c2.6-0.9,5.1-2.1,7.3-3.7
			c2.8-2.1,4.9-4.2,7-7c-4.3-2.5-8.6-5-13-7.6c-0.6,1.4-1.3,2.9-1.9,4.3c-0.8,1.9-1.3,3.7-0.8,5.8c0.5,1.7,1.8,3.6,3.4,4.5
			c1.7,0.9,3.8,1.4,5.8,0.8C523.2,316.2,525.2,315.1,526,313.4L526,313.4z"/>
	</g>
</g>
<g>
	<path class="st5" d="M362.9,169.1c12.3,0,24.5,1.3,36.4,4l-41.2,160l-163.4,21.7c-0.5-5.4-0.8-10.9-0.8-16.3
		c0-22.7,4.5-44.8,13.4-65.7c8.6-20.1,20.8-38.3,36.4-53.9c15.6-15.6,33.7-27.9,53.8-36.5C318.2,173.6,340.2,169.1,362.9,169.1
		 M362.9,163.1c-96,0-175,79.2-175,175.4c0,7.7,0.5,15.4,1.5,23l173.5-23l43.8-169.8C392.4,165,377.6,163.1,362.9,163.1L362.9,163.1
		z"/>
</g>
<g>
	<g>
		<path class="st6" d="M356.6,428.9c1.9-7.7,3.9-15.5,5.7-23.2c1-4.3,1.8-8.6,2-13.1c0.2-3.9,0.2-7.8,0.6-11.6
			c-0.1,0.7-0.2,1.3-0.3,2c1.8-13.1,7.5-25.8,6.3-39.2c-0.3-3.8-2.6-6.8-6.5-7.4c-1.6-0.2-3.4,0-4.8,0.9c-1.5,1-3.2,2.6-3.4,4.5
			c-0.5,3.7-0.5,7.2,0.7,10.8c1,3,2.4,5.8,4.2,8.4c1.5,2.2,3.1,4.3,4.6,6.5c1.6,2.4,2.8,4.9,3.9,7.5c-0.3-0.6-0.5-1.2-0.8-1.8
			c1.8,4.2,3.5,8.4,5.6,12.4c1.9,3.6,3.9,7.2,6,10.7c4.1,7,8.3,13.9,11.4,21.4c-0.3-0.6-0.5-1.2-0.8-1.8c1.7,4.1,3.2,8.4,4.9,12.5
			c1.6,3.7,3.6,7,5.7,10.4c4.3,6.8,8.1,13.9,11.7,21.2c1.7,3.5,7,4.8,10.3,2.7c3.6-2.3,4.6-6.5,2.7-10.3c-2.7-5.5-5.4-11-8.6-16.2
			c-3.1-5.1-6.6-10-8.9-15.6c0.3,0.6,0.5,1.2,0.8,1.8c-2.1-5-3.8-10.2-6.1-15.2c-2-4.2-4.2-8.3-6.6-12.4
			c-4.7-8.2-9.8-16.2-13.4-24.9c0.3,0.6,0.5,1.2,0.8,1.8c-1.9-4.4-3.6-8.8-6.3-12.8c-2.4-3.4-5-6.7-6.7-10.5
			c0.3,0.6,0.5,1.2,0.8,1.8c-0.6-1.5-1.1-3-1.3-4.6c0.1,0.7,0.2,1.3,0.3,2c-0.1-1.1-0.2-2.3,0-3.4c-0.1,0.7-0.2,1.3-0.3,2
			c0-0.1,0-0.3,0.1-0.4c-4.9-0.7-9.8-1.3-14.7-2c0.3,3.4,0.1,6.8-0.3,10.2c0.1-0.7,0.2-1.3,0.3-2c-1,7-3.1,13.8-4.6,20.8
			c-0.8,3.9-1.5,7.9-1.7,11.9c-0.3,3.9-0.1,7.8-0.6,11.7c0.1-0.7,0.2-1.3,0.3-2c-0.7,5.2-2.1,10.2-3.4,15.3
			c-1.3,5.1-2.5,10.2-3.8,15.4c-0.9,3.8,1.2,8.3,5.2,9.2C351.3,435,355.6,433,356.6,428.9L356.6,428.9z"/>
	</g>
</g>
<g>
	<g>
		<path class="st6" d="M260.6,361.4c3.7,0.9,7.5,1.4,11.3,1.6c3.8,0.2,7.6-0.3,11.4-0.8c5.5-0.8,10.7-3,16.3-3.8
			c-1.1,0.1-2.2,0.3-3.3,0.4c6.4-0.8,13.1-0.6,19.2-2.8c3.1-1.1,5.7-2.8,7.5-5.7c1.6-2.7,2.2-6.6,1.3-9.6c-1-3-2.9-5.9-5.7-7.5
			c-2.8-1.5-6.5-2.4-9.6-1.3c-2,0.7-4,1.2-6,1.4c1.1-0.1,2.2-0.3,3.3-0.4c-5.4,0.7-10.9,0.8-16.3,2c-4.6,1-8.9,2.7-13.6,3.3
			c1.1-0.1,2.2-0.3,3.3-0.4c-3.8,0.5-7.6,0.5-11.3,0c1.1,0.1,2.2,0.3,3.3,0.4c-1.4-0.2-2.8-0.5-4.2-0.8c-3.2-0.8-6.7-0.4-9.6,1.3
			c-2.6,1.5-5.1,4.5-5.7,7.5c-0.7,3.2-0.6,6.8,1.3,9.6C254.9,358.3,257.4,360.7,260.6,361.4L260.6,361.4z"/>
	</g>
</g>
<g>
	<g>
		<path class="st6" d="M401,221.3c-0.1-1.1-0.1-2.2,0-3.3c-0.1,0.7-0.2,1.3-0.3,2c0.6-4.2,2.6-7.9,3.3-12.1c0.4-2.8,0.5-5.5,0.5-8.3
			c-0.1-2.4-0.1-4.7,0.2-7c-0.1,0.7-0.2,1.3-0.3,2c0.4-2.5,1-4.9,2-7.3c-0.3,0.6-0.5,1.2-0.8,1.8c0.2-0.5,0.5-1.1,0.8-1.6
			c0.9-1.8,1.3-3.8,0.8-5.8c-0.5-1.7-1.8-3.6-3.4-4.5c-3.4-1.8-8.4-1.1-10.3,2.7c-2.2,4.4-3.4,8.7-3.9,13.6c-0.4,4,0.2,8-0.2,12
			c0.1-0.7,0.2-1.3,0.3-2c-0.8,6.1-4.4,11.6-3.6,17.9c0.3,2.1,0.7,3.8,2.2,5.3c1.3,1.3,3.4,2.3,5.3,2.2c1.9-0.1,4-0.7,5.3-2.2
			C400,225.3,401.2,223.2,401,221.3L401,221.3z"/>
	</g>
</g>
<g>
	<path class="st5" d="M484.8,222.3c2.4,2.5,4.7,5.1,6.9,7.7c7.6,9,14.3,18.9,19.8,29.3l-116.5,56L484.8,222.3 M484.7,212.3
		L362.9,338.6l158.1-76c-6.4-13.3-14.4-25.8-23.9-37.1C493.1,220.9,489,216.5,484.7,212.3L484.7,212.3z"/>
</g>
<g>
	<g>
		<path class="st6" d="M473.9,213.6c-7.2,8.6-14.3,17.2-21.5,25.8c-1.7,2-3.3,3.9-5.2,5.8c-0.9,0.9-1.7,1.7-2.7,2.5
			c-0.5,0.5-1.1,0.9-1.6,1.4c-0.2,0.2-0.5,0.4-0.7,0.6c0.3-0.2,0.5-0.4,0.8-0.6c-0.2,0.1-0.4,0.3-0.6,0.4
			c-4.5,3.4-9.1,6.8-13.4,10.5c-7.8,6.6-15.1,14-21.7,21.8c-3.4,4-6.6,8.2-10.3,11.9c-3.1,3.1-6.5,6-9.8,8.8
			c-7.8,6.6-15.9,13.6-20.5,22.9c-1.4,2.9-1.4,6.7,1.2,9.1c2.6,2.4,6,2.7,9.1,1.2c5.9-2.8,11.7-5.6,17.6-8.4
			c5.7-2.7,11.4-5.6,17.3-8.1c-0.6,0.3-1.2,0.5-1.8,0.8c4-1.7,8.2-2.7,12.4-3.9c4.6-1.2,8.9-3.2,13-5.4c7.5-4.1,15-8.1,22.8-11.8
			c4.4-2.1,8.8-4,13.3-5.9c-0.6,0.3-1.2,0.5-1.8,0.8c5.9-2.5,11.9-4.8,17.9-7c1.9-0.7,3.5-1.7,4.5-3.4c0.9-1.6,1.3-4,0.8-5.8
			c-1.2-3.6-5.3-6.7-9.2-5.2c-16.7,6-33,13.2-48.7,21.5c-4.2,2.3-8.4,4.8-12.8,6.7c0.6-0.3,1.2-0.5,1.8-0.8c-4.4,1.8-9,2.6-13.5,4
			c-4.9,1.6-9.6,3.9-14.3,6.1c-8.9,4.3-17.9,8.5-26.8,12.8c3.4,3.4,6.8,6.8,10.3,10.3c0.9-1.9,2.1-3.8,3.3-5.5
			c0.1-0.2,0.3-0.4,0.4-0.6c0.7-0.9-0.4,0.6-0.5,0.6c0.3-0.2,0.7-0.9,0.9-1.2c0.7-0.9,1.5-1.7,2.3-2.6c3-3.2,6.3-6.1,9.6-8.9
			c3.4-2.9,6.8-5.7,10-8.7c3.7-3.5,6.9-7.4,10.1-11.3c6.5-7.9,13.5-15.4,21.2-22.2c1.9-1.6,3.7-3.2,5.7-4.8c1-0.8,2-1.6,3-2.4
			c-0.1,0.1-1.4,1.1-0.4,0.3c0.2-0.2,0.5-0.4,0.7-0.5c0.6-0.4,1.1-0.8,1.7-1.3c4.7-3.5,9.1-7,13-11.4c8.2-9.3,15.9-19.1,23.9-28.6
			c1.3-1.6,2.2-3.2,2.2-5.3c0-1.8-0.8-4-2.2-5.3C481.8,211,476.6,210.3,473.9,213.6L473.9,213.6z"/>
	</g>
</g>
<path class="st5" d="M484.5,212.2c0,0,5.4,31.5-9.3,33.7c-14.7,2.2,6.9,32.3,6.9,32.3s6.2,24.2,27,16.1c20.8-8.1,2.3-23.5,2.3-23.5
	s7.7,6.6,10.8,2.9C525.4,270.1,522.3,259.9,484.5,212.2z"/>
<g>
	<g>
		<path class="st5" d="M366.2,361l65,131.4c-21.4,9.5-44.9,14.5-68.3,14.5c-7,0-14.1-0.4-21.1-1.3L366.2,361 M362.9,338.6l-29.2,173
			c9.6,1.6,19.4,2.5,29.2,2.5c27,0,53.6-6.2,77.7-18.3L362.9,338.6L362.9,338.6z"/>
	</g>
</g>
<g>
	<g>
		<path class="st6" d="M356.6,429.4c1.9-7.7,3.9-15.4,5.8-23.1c1-4.2,1.8-8.5,2-12.9c0.2-3.8,0.2-7.5,0.6-11.2
			c-0.1,0.7-0.2,1.3-0.3,2c1.8-12.9,7.5-25.3,6.3-38.6c-0.3-3.8-2.6-6.8-6.5-7.4c-3.3-0.4-7.7,1.7-8.2,5.4
			c-0.5,3.6-0.5,7.1,0.7,10.6c1,2.8,2.3,5.5,4,7.9c1.5,2.2,3.2,4.3,4.7,6.5c1.4,2.1,2.6,4.4,3.7,6.7c2.1,4.8,4.2,9.5,6.8,14.1
			c2.5,4.5,5.3,8.9,7.9,13.4c3,5.1,5.9,10.3,8.2,15.7c-0.3-0.6-0.5-1.2-0.8-1.8c1.7,4,3.1,8.2,4.9,12.2c1.6,3.6,3.7,6.9,5.8,10.2
			c4.3,6.6,8,13.5,11.5,20.6c1.8,3.5,7,4.8,10.3,2.7c3.6-2.3,4.6-6.5,2.7-10.3c-2.7-5.5-5.5-10.9-8.7-16.1c-3.1-5.1-6.6-10-9-15.5
			c0.3,0.6,0.5,1.2,0.8,1.8c-2.3-5.4-4.2-11-6.8-16.3c-2.3-4.6-4.9-9.1-7.6-13.5c-2.7-4.5-5.4-9-7.9-13.7c-2.4-4.6-4.2-9.6-6.6-14.2
			c-2.8-5.2-7.2-9.4-9.5-14.9c0.3,0.6,0.5,1.2,0.8,1.8c-0.5-1.3-0.9-2.7-1.2-4.1c0.1,0.7,0.2,1.3,0.3,2c-0.1-1.1-0.2-2.2,0-3.4
			c-0.1,0.7-0.2,1.3-0.3,2c0-0.1,0-0.3,0.1-0.4c-4.9-0.7-9.8-1.3-14.7-2c0.3,3.3,0.1,6.5-0.3,9.7c0.1-0.7,0.2-1.3,0.3-2
			c-1,7-3.1,13.7-4.6,20.6c-0.8,3.9-1.5,7.8-1.7,11.8c-0.3,3.8-0.1,7.7-0.6,11.5c0.1-0.7,0.2-1.3,0.3-2c-0.7,5.1-2.1,10-3.3,14.9
			c-1.3,5.1-2.5,10.1-3.8,15.2c-0.9,3.8,1.2,8.3,5.2,9.2C351.3,435.5,355.6,433.5,356.6,429.4L356.6,429.4z"/>
	</g>
</g>
<path class="st5" d="M412.8,169.5c0,0-9.5,17.4-34.8,19.8c-25.3,2.4-40.4,13.5-40.4,13.5s-13.5,45.9,11.1,44.3
	c24.6-1.6,29.3-22.2,29.3-22.2s10.3-15,21.4-4.8c11.1,10.3,11.1,10.3,11.1,10.3s7.1,4,4,23c-3.2,19-19,28.5-19,28.5s-23,7.9-19,36.4
	c4,28.5-25.3,18.2-25.3,18.2s0,30.9-19,23.8c-19-7.1-23.8-23.8-23.8-23.8s-14.3-27.7-38.8-15c-24.6,12.7,7.1,43.6,7.1,43.6
	s16.6-2.4,16.6,2.4s3.2,11.9-9.5,28.5c-12.7,16.6,15.8,26.1,15.8,26.1s40.4,9.5,60.2,0.8s37.2,29.3,37.2,29.3s47.5,4.8,47.5,15.8
	s-4.8,26.1-4.8,26.1s-33.3,23.4-106.1,17c0,0-15-13.9-11.9-33.7c0,0-0.8-6.3-17.4-19c0,0-3.2-15.8,2.4-16.6c0,0-34.8,3.2-56.2-19.8
	c0,0-16.6-0.8-18.2-6.3c-1.6-5.5-5.5-8.7-5.5-8.7s-14.3-8.7-12.7-19c1.6-10.3-25.3-26.9-25.3-26.9S178.4,133.8,412.8,169.5z"/>
<path class="st5" d="M512.6,426.9c-18,25.5-19.8-29.3-28.5-42c-8.7-12.7,6.3-34.8,6.3-34.8s25.3-13.5,28.5-22.2
	c3.2-8.7,14.3-22.2,14.3-22.2S550.6,373,512.6,426.9z"/>
<g>
	<g>
		<path class="st6" d="M379.9,351.8c3.9-0.8,8-1.2,11.6-3.2c1.5-0.8,2.8-1.8,4.2-2.8c1.4-0.9,2.8-2.1,4.3-2.8
			c-0.6,0.3-1.2,0.5-1.8,0.8c0.1,0,0.2,0,0.3-0.1c-0.7,0.1-1.3,0.2-2,0.3c0.2,0,0.4,0,0.6,0c-0.7-0.1-1.3-0.2-2-0.3
			c0.1,0,0.2,0,0.3,0.1c-0.6-0.3-1.2-0.5-1.8-0.8c0.2,0.1,0.3,0.1,0.5,0.2c-0.5-0.4-1-0.8-1.5-1.2c0.1,0.1,0.2,0.2,0.3,0.3
			c-0.4-0.5-0.8-1-1.2-1.5c0,0.1,0.1,0.1,0.1,0.2c-0.3-0.6-0.5-1.2-0.8-1.8c0.1,0.1,0.1,0.3,0.1,0.4c-0.1-0.7-0.2-1.3-0.3-2
			c0,0.1,0,0.1,0,0.2c0.1-0.7,0.2-1.3,0.3-2c0,0.2,0,0.3-0.1,0.5c0.3-0.6,0.5-1.2,0.8-1.8c-0.1,0.2-0.1,0.3-0.3,0.4
			c0.4-0.5,0.8-1,1.2-1.5c-0.1,0.2-0.3,0.3-0.4,0.4c0.5-0.4,1-0.8,1.5-1.2c-0.2,0.2-0.4,0.3-0.7,0.4c0.6-0.3,1.2-0.5,1.8-0.8
			c-0.4,0.2-0.9,0.3-1.3,0.4c0.7-0.1,1.3-0.2,2-0.3c-0.4,0-0.7,0-1.1,0c0.7,0.1,1.3,0.2,2,0.3c-0.2-0.1-0.5-0.1-0.7-0.2
			c0.6,0.3,1.2,0.5,1.8,0.8c-0.1,0-0.1-0.1-0.2-0.1c-2.8-1.6-6.8-1.3-9.1,1.2c-0.9,1-1.5,2.1-1.9,3.3c-0.5,1.7-0.2,4.3,0.8,5.8
			c0,0.1,0.1,0.1,0.1,0.2c-0.3-0.6-0.5-1.2-0.8-1.8c0,0.1,0,0.1,0,0.2c0-1.3,0-2.7,0-4c0,0.1,0,0.1,0,0.2c0.3-0.6,0.5-1.2,0.8-1.8
			c0,0.1-0.1,0.1-0.1,0.2c0.4-0.5,0.8-1,1.2-1.5c-0.1,0.1-0.2,0.3-0.4,0.4c0.5-0.4,1-0.8,1.5-1.2c-0.2,0.1-0.3,0.2-0.5,0.3
			c0.6-0.3,1.2-0.5,1.8-0.8c-0.9,0.4-1.9,0.5-2.8,0.8c-1.2,0.4-2.4,0.9-3.6,1.6c-1.4,0.8-2.6,2-4.1,2.6c0.6-0.3,1.2-0.5,1.8-0.8
			c-0.2,0.1-0.5,0.2-0.7,0.2c0.7-0.1,1.3-0.2,2-0.3c-0.2,0-0.4,0-0.6,0c0.7,0.1,1.3,0.2,2,0.3c-0.2,0-0.3-0.1-0.5-0.1
			c0.6,0.3,1.2,0.5,1.8,0.8c-0.1,0-0.1-0.1-0.2-0.1c0.5,0.4,1,0.8,1.5,1.2c-0.1-0.1-0.2-0.2-0.3-0.3c0.4,0.5,0.8,1,1.2,1.5
			c0-0.1-0.1-0.1-0.1-0.2c0.3,0.6,0.5,1.2,0.8,1.8c0-0.1,0-0.1-0.1-0.2c0.1,0.7,0.2,1.3,0.3,2c0-0.1,0-0.3,0-0.4
			c-0.1,0.7-0.2,1.3-0.3,2c0-0.1,0.1-0.3,0.1-0.4c-0.3,0.6-0.5,1.2-0.8,1.8c0.1-0.1,0.2-0.3,0.3-0.4c-0.4,0.5-0.8,1-1.2,1.5
			c0.2-0.2,0.4-0.4,0.6-0.6c-0.5,0.4-1,0.8-1.5,1.2c0.9-0.7,1.9-1.1,2.8-1.8c1.1-0.8,2-1.5,2.8-2.6c0.8-1,1.6-2.2,1.8-3.5
			c0.3-1.7,0.3-3.2-0.4-4.9c-0.6-1.4-1.6-2.8-3.1-3.6c-1.2-0.6-2.5-1-3.8-1c-2-0.1-3.8,1-5.3,2.2c-0.5,0.4-1,0.8-1.5,1.2
			c0.5-0.4,1-0.8,1.5-1.2c-1.4,1.1-2.8,2-4.4,2.7c0.6-0.3,1.2-0.5,1.8-0.8c-0.9,0.4-1.9,0.7-2.9,0.8c0.7-0.1,1.3-0.2,2-0.3
			c-0.2,0-0.5,0.1-0.7,0.1c-2,0.2-3.8,0.7-5.3,2.2c-1.3,1.3-2.3,3.4-2.2,5.3c0.1,1.9,0.7,4,2.2,5.3c1.4,1.3,3.3,2.4,5.3,2.2
			c3.2-0.3,6-1.1,8.8-2.6c2.1-1.2,4.1-2.8,5.9-4.3c-4.2-2.4-8.4-4.9-12.5-7.3c0,0.2-0.1,0.3-0.1,0.5c0.3-0.6,0.5-1.2,0.8-1.8
			c-0.1,0.2-0.2,0.3-0.3,0.5c0.4-0.5,0.8-1,1.2-1.5c-0.2,0.2-0.5,0.5-0.7,0.7c0.5-0.4,1-0.8,1.5-1.2c-0.7,0.5-1.5,0.9-2.3,1.4
			c-1.6,1.1-2.8,2.1-3.8,3.6c-2.6,3.7-1.5,8.8,2,11.5c3.4,2.6,7.8,2.2,11.4,0c1.4-0.9,2.7-2,4.2-2.7c-0.6,0.3-1.2,0.5-1.8,0.8
			c1.9-0.8,3.8-0.9,5.6-2c1.7-1,2.9-2.5,3.7-4.3c1-2.3,0.9-5.1-0.5-7.2c-3.4,3.4-6.8,6.8-10.3,10.3c3.5,2,8.2,1.8,11.5-0.4
			c2.6-1.8,4.4-4.6,4.5-7.8c0.1-3.1-1.8-6.2-4.4-7.7c-2.8-1.7-6.3-1.7-9.2-0.1c-1.1,0.6-2,1.3-3,2c-2.1,1.4-4.2,3-6.5,4.1
			c0.6-0.3,1.2-0.5,1.8-0.8c-1.3,0.5-2.8,0.8-4.2,1c-1.5,0.3-3,0.6-4.5,0.9c-1.8,0.3-3.6,1.9-4.5,3.4c-0.9,1.6-1.3,4-0.8,5.8
			c0.6,1.8,1.7,3.6,3.4,4.5C376,352.1,377.8,352.2,379.9,351.8L379.9,351.8z"/>
	</g>
</g>
<g>
	<g>
		<path class="st6" d="M380.4,346.2c3.9,0,7.7-3.4,7.5-7.5c-0.2-4.1-3.3-7.5-7.5-7.5c-3.9,0-7.7,3.4-7.5,7.5
			C373,342.7,376.2,346.2,380.4,346.2L380.4,346.2z"/>
	</g>
</g>
</svg>
