<?xml version="1.0" encoding="utf-8"?>
<!-- Generator: Adobe Illustrator 26.3.1, SVG Export Plug-In . SVG Version: 6.00 Build 0)  -->
<svg version="1.1" id="Layer_1" xmlns="http://www.w3.org/2000/svg" xmlns:xlink="http://www.w3.org/1999/xlink" x="0px" y="0px"
	 viewBox="0 0 396 396" style="enable-background:new 0 0 396 396;" xml:space="preserve">
<style type="text/css">
	.st0{fill:#F1A57A;}
	.st1{fill:none;stroke:#A8A694;stroke-miterlimit:10;}
	.st2{fill:#EEE7CB;}
	.st3{fill:#EA8039;stroke:#CD6028;stroke-miterlimit:10;}
	.st4{fill:none;stroke:#47B549;stroke-miterlimit:10;}
	.st5{fill:#B9C2C4;stroke:#90979A;stroke-width:3;stroke-miterlimit:10;}
	.st6{fill:#ECDED8;stroke:#CEBAB2;stroke-width:1;stroke-miterlimit:9.9998;}
	.st7{fill:#EEE7CB;stroke:#B1AE9B;stroke-miterlimit:10;}
	.st8{fill:none;stroke:#A8A594;stroke-miterlimit:10;}
	.st9{fill:#ECDED8;stroke:#CEBAB2;stroke-miterlimit:10;}
	.st10{fill:#19100A;}
	.st11{fill:none;stroke:#C78966;stroke-width:5;stroke-miterlimit:10;}
</style>
<path class="st0" d="M335.5,377.9H59.7c-23.2,0-42.1-18.8-42.1-42.1V60c0-23.2,18.8-42.1,42.1-42.1h275.9
	c23.2,0,42.1,18.8,42.1,42.1v275.9C377.6,359.1,358.8,377.9,335.5,377.9z"/>
<path class="st1" d="M300.3,168.2"/>
<path class="st1" d="M200.5,71.6"/>
<path class="st1" d="M200.5,71.6"/>
<path class="st2" d="M54.6,155.5"/>
<path class="st3" d="M48.1,376.5c54.2-0.1,108.3-0.2,162.5-0.2c12.6,0,25.2,0,37.7,0c-0.8-27-0.5-49.2,2-58.4
	c8.6-31.8-6-102.9-31.1-110.5c0,0-5.9-9.2-35.7-12v-29.7l-80.7,5.3v38c-5.7,5.3-11,11-15.9,17.1c-16.1,20-55.4,71.5-44.8,110.1
	C44.7,345.6,46.7,359.8,48.1,376.5z"/>
<path class="st4" d="M32.4,564"/>
<path class="st5" d="M369.1,351.5V124.2c0-53.4-43.3-96.6-96.6-96.6H245c-16.3,0-29.5,13.2-29.5,29.5v319.3c42.8,0,85.7,0,128.5,0.1
	C357.9,376.5,369.1,365.3,369.1,351.5z"/>
<path class="st2" d="M75.1,155.5"/>
<rect x="53.2" y="133.3" transform="matrix(0.9995 -3.104628e-02 3.104628e-02 0.9995 -4.7993 4.3024)" class="st6" width="165.9" height="46.8"/>
<path class="st7" d="M137.3,159.4"/>
<path class="st8" d="M134.1,64.1"/>
<path class="st8" d="M134.1,64.1"/>
<path class="st9" d="M53.7,176.2l-1.5-39.4v-0.2l-1.3-31.2c-0.1-2.3,0.1-4.6,0.4-6.9l0.2-2.1c0,0,11.5-64.1,80.3-66.3h-0.4
	c68.9-2.1,85.3,61.1,85.3,61.1l0.2,1c0.6,2.6,1.1,5.3,1.2,8l1.2,31.4L221,171"/>
<path class="st9" d="M78.8,46.1c-2.1-1.9,0.7-3.9,0.7-3.9c33.8,7.6,58.4,30.5,58.4,57.5v32.6c0,0-8.2,25.4-87.6,26.3
	c0,0-1.3-3.5,0.7-5"/>
<path class="st10" d="M54.9,153.6c73.5-0.8,78-24.4,78-24.4V99.1c0-25.4-22.1-46.2-54.1-53l-1.1,0.4C57.3,65.8,52,91.1,52,91.1
	l-0.3,2.2c-0.4,2.3-0.7,4.7-0.7,7.2V133v0.2v20.5L54.9,153.6z"/>
<path class="st9" d="M138,190.7c48.8-2.2,69-6.7,77.5-9c6.9-1.8,5.6-5.7,5.6-5.7l-0.1-5c0,0-28.9,7.9-82.6,9.1h-1.6
	c-53.7,2.2-83.1-3.9-83.1-3.9l0.2,5.2c0,0-0.9,3.9,6.1,5.3C68.7,188.4,89.2,191.6,138,190.7"/>
<path class="st3" d="M210.6,376.3c3.1,0,6.2,0,9.2,0c0.1-30.2-1.4-61.9-3.5-79.4c0,0-6.5-40.8-52-39s-46.1,38.8-46.1,38.8
	s-6.6,39.3-10.9,79.6C141.7,376.4,176.2,376.3,210.6,376.3z"/>
<path class="st5" d="M77,376.5V260.3c0-6.1-5-11.1-11.1-11.1H35.1c-6.1,0-11.1,5-11.1,11.1v87.6c0,15.8,12.8,28.6,28.6,28.6
	C60.8,376.5,68.9,376.5,77,376.5z"/>
<path class="st11" d="M335.5,377.9H59.7c-23.2,0-42.1-18.8-42.1-42.1V60c0-23.2,18.8-42.1,42.1-42.1h275.9
	c23.2,0,42.1,18.8,42.1,42.1v275.9C377.6,359.1,358.8,377.9,335.5,377.9z"/>
<path class="st1" d="M92.6-1079.9"/>
<path class="st1" d="M92.6-1079.9"/>
</svg>
