<?xml version="1.0" encoding="utf-8"?>
<!-- Generator: Adobe Illustrator 26.3.1, SVG Export Plug-In . SVG Version: 6.00 Build 0)  -->
<svg version="1.1" id="Layer_1" xmlns="http://www.w3.org/2000/svg" xmlns:xlink="http://www.w3.org/1999/xlink" x="0px" y="0px"
	 viewBox="0 0 864 720" style="enable-background:new 0 0 864 720;" xml:space="preserve">
<style type="text/css">
	.st0{fill:#F06924;stroke:#F06924;stroke-miterlimit:10;}
	.st1{fill:#F79757;}
	.st2{fill:#F7B384;}
	.st3{fill:#EEDFD7;stroke:#D6AE9C;stroke-width:2;stroke-miterlimit:10;}
	.st4{fill:#CEBAB3;stroke:#C3A79C;stroke-width:2;stroke-miterlimit:10;}
	.st5{fill:#1C1511;stroke:#010101;stroke-width:2;stroke-miterlimit:10;}
	.st6{fill:#D64A28;stroke:#BB3B26;stroke-width:2;stroke-linecap:round;stroke-linejoin:round;stroke-miterlimit:10;}
</style>
<path class="st0" d="M501.01,347.62c0,0,1.41,0.05,3.96,0.19c18.44,1.01,96.67,6.91,135.53,35.62c3.98,2.94,3.01,9.14-1.68,10.69
	l0,0c-5.53,1.83-5.58,9.65-0.07,11.53c29.64,10.14,88,34.77,114.71,78.39c1.98,3.23,0.61,7.45-2.9,8.86l-7.84,3.15
	c-3.96,1.59-5.1,6.65-2.2,9.78c15.41,16.65,54.54,61.52,52.55,85.77c-2.51,30.57-100.86-0.62-126.7-13.12
	c-3.39-1.64-7.43,0.18-8.48,3.79l-2.64,9.07c-0.96,3.31-4.47,5.16-7.74,4.08c-14.4-4.73-52.2-17.84-85.49-35.35
	c-4.59-2.42-9.9,1.69-8.75,6.75l0.22,0.97c1.21,5.32-4.64,9.43-9.22,6.48c-20.79-13.39-64.32-47.54-102.54-117.2L501.01,347.62z"/>
<path class="st1" d="M458,428.85c15.59,38.78,70.11,83.51,91.3,99.85c2.75,2.12,6.62-0.48,5.69-3.83l0,0
	c-0.86-3.09,2.45-5.68,5.25-4.11c32.48,18.11,48.69,21.81,54.94,22.51c1.79,0.2,3.45-0.97,3.88-2.72l0.91-3.67
	c0.51-2.07,2.7-3.24,4.71-2.54c46.44,16.24,61.45,18.28,73.1,10.19c9.72-6.75-18.23-41.54-29.05-54.34
	c-1.79-2.12-0.62-5.38,2.11-5.88l4.91-0.91c2.4-0.44,3.7-3.1,2.54-5.26c-15.96-29.65-52.52-43.86-72.02-49.55
	c-3.47-1.01-3.48-5.92-0.01-6.94l3.62-1.07c3-0.88,3.55-4.92,0.88-6.54C565.52,386.54,483,381.79,483,381.79L458,428.85z"/>
<path class="st2" d="M464.31,417.23c4.65,12.93,34.79,37.15,45.35,45.34c1.15,0.89,2.76-0.21,2.35-1.61l-0.01-0.02
	c-0.4-1.34,1.1-2.43,2.27-1.66c11.28,7.44,20.64,10.84,24.41,12.03c0.91,0.29,1.85-0.35,1.93-1.3l0.18-2.09
	c0.09-1.02,1.16-1.66,2.1-1.24c21.53,9.65,31.38,10.38,36.42,7.77c4.33-2.25-9.86-19.59-14.67-25.26c-0.71-0.84-0.31-2.12,0.75-2.41
	l2.6-0.7c0.84-0.23,1.3-1.11,1.03-1.93c-3.16-9.57-24.63-20.27-33.6-24.38c-1.28-0.59-1.11-2.46,0.26-2.81l0.07-0.02
	c1.28-0.33,1.53-2.01,0.42-2.72c-19.26-12.3-52.96-17.17-59.12-17.98c-0.6-0.08-1.18,0.21-1.48,0.73L464.46,416
	C464.23,416.38,464.17,416.83,464.31,417.23z"/>
<path class="st3" d="M69.13,187.28c299.93-89.34,387.11,146.01,387.11,146.01L406.6,426.7c0,0-243.84,59.46-337.64-239.11"/>
<circle class="st4" cx="248.52" cy="283.1" r="59.58"/>
<circle class="st5" cx="247.79" cy="282.71" r="45.57"/>
<polyline class="st5" points="455.9,333.93 506.1,337.32 437.24,466.89 406.34,427.18 "/>
<path class="st6" d="M272.19,175.59c0,0,124.51-36.9,217.06,79.48l-70.56,15.78c-33.77-47.44-83.48-79.16-145.35-95.31"/>
<path class="st6" d="M173.55,361.23c0,0,39.09,123.84,187.34,135.41l-26.41-67.31c-58.21-1.44-112.32-24.88-160.33-67.13"/>
</svg>
