<?xml version="1.0" encoding="utf-8"?>
<!-- Generator: Adobe Illustrator 27.5.0, SVG Export Plug-In . SVG Version: 6.00 Build 0)  -->
<svg version="1.1" id="Layer_1" xmlns="http://www.w3.org/2000/svg" xmlns:xlink="http://www.w3.org/1999/xlink" x="0px" y="0px"
	 viewBox="0 0 72 72" style="enable-background:new 0 0 72 72;" xml:space="preserve">
<style type="text/css">
	.st0{fill:#122124;}
</style>
<path class="st0" d="M38.1,16.9l4.7,9.4c0.4,0.8,1.2,1.4,2.1,1.5l10.4,1.5c2.2,0.3,3.1,3.1,1.5,4.7l-7.5,7.3
	c-0.6,0.6-0.9,1.5-0.8,2.4l1.8,10.4c0.4,2.2-2,3.9-4,2.9l-9.3-4.9c-0.8-0.4-1.7-0.4-2.5,0L25.1,57c-2,1.1-4.4-0.6-4-2.9l1.8-10.4
	c0.2-0.9-0.1-1.8-0.8-2.4L14.5,34c-1.6-1.6-0.7-4.3,1.5-4.7l10.4-1.5c0.9-0.1,1.7-0.7,2.1-1.5l4.7-9.4
	C34.2,14.8,37.1,14.8,38.1,16.9z"/>
</svg>
