<?xml version="1.0" encoding="utf-8"?>
<!-- Generator: Adobe Illustrator 27.1.1, SVG Export Plug-In . SVG Version: 6.00 Build 0)  -->
<svg version="1.1" id="Layer_1" xmlns="http://www.w3.org/2000/svg" xmlns:xlink="http://www.w3.org/1999/xlink" x="0px" y="0px"
	 viewBox="0 0 324 324" style="enable-background:new 0 0 324 324;" xml:space="preserve">
<style type="text/css">
	.st0{fill:#F7BA98;stroke:#984D23;stroke-width:5;stroke-miterlimit:10;}
	.st1{fill:#EFE8CC;}
	.st2{fill:#A53A23;}
	.st3{fill:none;stroke:#984D23;stroke-width:2;stroke-linecap:round;stroke-linejoin:round;stroke-miterlimit:10;}
	.st4{fill:#D23C27;stroke:#A53A23;stroke-width:0.25;stroke-miterlimit:10;}
	.st5{fill:#EFE8CC;stroke:#B5956A;stroke-width:0.25;stroke-miterlimit:10;}
	.st6{fill:#EFE8CC;stroke:#B5956A;stroke-width:0.25;stroke-linecap:round;stroke-linejoin:round;stroke-miterlimit:10;}
	.st7{fill:none;stroke:#3D52A4;stroke-width:0.25;stroke-linecap:round;stroke-linejoin:round;stroke-miterlimit:10;}
	.st8{fill:none;stroke:#B5956A;stroke-width:0.25;stroke-linecap:round;stroke-linejoin:round;stroke-miterlimit:10;}
	.st9{fill:none;stroke:#B5956A;stroke-width:0.25;stroke-miterlimit:10;}
	.st10{fill:#EFE8CC;stroke:#EFE8CC;stroke-width:0.25;stroke-miterlimit:10;}
	.st11{fill:none;stroke:#B5956A;stroke-miterlimit:10;}
	.st12{fill:none;stroke:#A8A694;stroke-width:0.25;stroke-miterlimit:10;}
	.st13{fill:none;stroke:#A5391D;stroke-width:0.25;stroke-miterlimit:10;}
	.st14{fill:none;stroke:#82C341;stroke-width:0.25;stroke-linecap:round;stroke-linejoin:round;stroke-miterlimit:10;}
	.st15{fill:#EFE8CC;stroke:#B1AE9C;stroke-width:0.25;stroke-miterlimit:10;}
	.st16{fill:#DC7038;stroke:#A5391D;stroke-width:0.25;stroke-miterlimit:10;}
	.st17{fill:#DC7038;stroke:#AA5626;stroke-width:0.25;stroke-miterlimit:10;}
	.st18{fill:none;stroke:#AA5517;stroke-width:0.25;stroke-miterlimit:10;}
	.st19{fill:#2B190D;}
	.st20{fill:none;stroke:#984D23;stroke-width:5;stroke-miterlimit:10;}
</style>
<path class="st0" d="M290.42,306.22H33.67c-8.63,0-15.62-6.99-15.62-15.62V33.85c0-8.63,6.99-15.62,15.62-15.62h256.76
	c8.63,0,15.62,6.99,15.62,15.62V290.6C306.05,299.23,299.05,306.22,290.42,306.22z"/>
<g>
	<g>
		<path class="st1" d="M112.53,118.48c0.09-0.2,0.19-0.38,0.32-0.55c-0.78,1.01-1.56,2.02-2.35,3.04c0.13-0.17,0.27-0.32,0.43-0.45
			c-1.01,0.78-2.02,1.56-3.04,2.35c0.35-0.27,0.7-0.46,1.1-0.64c-1.19,0.5-2.39,1.01-3.58,1.51c0.54-0.19,1.08-0.32,1.65-0.41
			c-1.33,0.18-2.66,0.36-3.99,0.54c3.89-0.52,7.91-0.52,11.83-0.76c3.82-0.23,7.75-0.74,11.56-0.24c-1.33-0.18-2.66-0.36-3.99-0.54
			c0.99,0.16,1.92,0.39,2.86,0.74c-1.19-0.5-2.39-1.01-3.58-1.51c2.81,1.19,5.15,3.07,8.25,3.74c2.06,0.45,4.19,0.74,6.31,0.66
			c0.99-0.03,1.96-0.1,2.95,0.01c-1.33-0.18-2.66-0.36-3.99-0.54c0.42,0.08,0.79,0.18,1.19,0.34c2.66,0.71,5.32,0.71,7.98,0
			c2.54-0.71,4.75-2,6.62-3.86c3.64-3.64,5.5-9.58,3.86-14.59c-0.93-2.84-1.83-5.68-2.26-8.64c0.18,1.33,0.36,2.66,0.54,3.99
			c-0.23-1.86-0.24-3.68,0-5.54c-0.18,1.33-0.36,2.66-0.54,3.99c0.49-3.19,1.62-6.21,2.86-9.18c-0.5,1.19-1.01,2.39-1.51,3.58
			c2.75-6.48,6.26-12.45,9.69-18.57c2.16-3.85,4.06-7.92,5.46-12.11c1.01-3.02,1.65-6.15,2.86-9.1c-0.5,1.19-1.01,2.39-1.51,3.58
			c0.49-1.14,1.05-2.22,1.75-3.24c0.5-1.19,1.01-2.39,1.51-3.58c0.63-1.99,0.71-3.99,0.27-5.98c0-1.35-0.35-2.62-1.02-3.79
			c-0.6-1.86-1.64-3.47-3.1-4.83c-1.92-1.76-4.14-3.06-6.62-3.86c-1.99-0.63-3.99-0.71-5.98-0.27c-2,0.09-3.86,0.68-5.58,1.78
			c-8.2,3.94-16.84,7.88-23.77,13.88c-2.23,1.94-3.97,4.39-5.75,6.72c-1.2,1.57-2.33,3.19-3.47,4.8c-2.42,3.43-4.84,6.86-7.27,10.28
			c-2.8,3.97-5.6,7.93-8.41,11.9c-1.36,2.34-2.04,4.86-2.05,7.57c-0.08,2.07,0.35,3.99,1.29,5.78c0.6,1.86,1.64,3.47,3.1,4.83
			c1.87,1.86,4.08,3.14,6.62,3.86c16.5,4.01,32.99,8.06,49.47,12.15c4.05,1.01,8.27,1.79,12.13,3.4c-1.19-0.5-2.39-1.01-3.58-1.51
			c1.24,0.54,2.41,1.18,3.48,2.01c-1.01-0.78-2.02-1.56-3.04-2.35c0.67,0.54,1.26,1.12,1.8,1.79c-0.78-1.01-1.56-2.02-2.35-3.04
			c1.13,1.51,2.14,3.15,3.51,4.44c3.06,2.89,7.15,4.68,11.4,4.69c3.13,0.01,5.92-0.89,8.62-2.39c1.63-0.9,2.94-2.3,4.38-3.47
			c-1.01,0.78-2.02,1.56-3.04,2.35c0.34-0.23,0.66-0.41,1.04-0.57c-1.19,0.5-2.39,1.01-3.58,1.51c0.64-0.22,1.29-0.36,1.96-0.45
			c-1.33,0.18-2.66,0.36-3.99,0.54c8.26-1,16.75-1.77,25.04-0.69c-1.33-0.18-2.66-0.36-3.99-0.54c3,0.42,5.94,1.1,8.8,2.12
			c-2.21-1.29-4.41-2.57-6.62-3.86c0.07,0.07,0.14,0.15,0.21,0.22c-0.78-1.01-1.56-2.02-2.35-3.04c0.04,0.09,0.08,0.19,0.12,0.28
			c-0.68-2.52-1.37-5.05-2.05-7.57c0.01,0.1,0.02,0.21,0.03,0.31c0.18-1.33,0.36-2.66,0.54-3.99c-0.02,0.1-0.05,0.2-0.07,0.3
			c0.5-1.19,1.01-2.39,1.51-3.58c-0.06,0.09-0.11,0.17-0.17,0.26c9.32,2.52,18.63,5.05,27.95,7.57c0.28-2.5-0.15-5.2-0.95-7.57
			c-0.83-2.43-1.89-4.92-3.44-7c-1.55-2.07-3.11-4.05-4.91-5.89c-1.06-1.08-2.11-2.15-3.05-3.34c0.78,1.01,1.56,2.02,2.35,3.04
			c-0.95-1.25-1.68-2.6-2.31-4.04c0.5,1.19,1.01,2.39,1.51,3.58c-1.3-3.1-2.41-6.26-3.83-9.32c-0.94-2.04-2.1-3.96-3.3-5.85
			c-2.6-4.11-5.27-8.18-7.9-12.27c-1.9-2.95-3.89-5.81-6.15-8.5c-1.4-1.67-3.09-3.03-4.8-4.37c-4.33-3.37-8.67-6.7-13.43-9.43
			c-4.69-2.69-9.78-4.98-14.99-6.44c-3.25-0.91-6.61-1.34-9.96-1.71c-0.5-0.06-1-0.11-1.5-0.12c-0.9-0.01-1.75,0.17-2.65,0.29
			c-0.38,0.05-1.71,0.15-2.42,0.35c-1.18,0.32-2.94,1.03-3.99,1.65c-0.23,0.14-0.42,0.27-0.64,0.42c-2.54,1.78-4.11,3.44-5.91,5.95
			c-3.4,4.76-5,11.42-4.93,17.21c0.03,2.1,0.39,4.24,0.71,6.3c0.15,0.94,0.34,1.87,0.63,2.78c0.6,1.91,1.44,3.77,2.28,5.58
			c0.4,0.86,0.86,1.69,1.4,2.47c3.57,5.16,8.22,9.35,13.9,12.08c4.62,2.22,9.48,3.83,14.2,5.81c-1.19-0.5-2.39-1.01-3.58-1.51
			c2.45,1.04,4.84,2.24,6.97,3.86c-1.01-0.78-2.02-1.56-3.04-2.35c1.04,0.82,1.99,1.73,2.84,2.74c2.34,2.79,7.1,4.39,10.61,4.39
			c3.68,0,8.07-1.63,10.61-4.39c2.62-2.86,4.57-6.61,4.39-10.61c-0.18-1.33-0.36-2.66-0.54-3.99c-0.71-2.54-2-4.75-3.86-6.62
			c-1.87-2.23-4.31-4.01-6.67-5.67c-1.5-1.05-3.12-1.91-4.78-2.67c-4.46-2.03-9.07-3.62-13.58-5.52c1.19,0.5,2.39,1.01,3.58,1.51
			c-2.47-1.06-4.86-2.27-6.99-3.91c1.01,0.78,2.02,1.56,3.04,2.35c-1.16-0.92-2.21-1.94-3.12-3.11c0.78,1.01,1.56,2.02,2.35,3.04
			c-0.78-1.05-1.43-2.17-1.96-3.37c0.5,1.19,1.01,2.39,1.51,3.58c-0.6-1.43-1.01-2.91-1.25-4.45c0.18,1.33,0.36,2.66,0.54,3.99
			c-0.22-1.66-0.23-3.32-0.01-4.98c-0.18,1.33-0.36,2.66-0.54,3.99c0.21-1.42,0.58-2.78,1.12-4.11c-0.5,1.19-1.01,2.39-1.51,3.58
			c0.44-1.01,0.95-1.97,1.59-2.86c-0.78,1.01-1.56,2.02-2.35,3.04c0.16-0.21,0.34-0.4,0.53-0.57c-1.01,0.78-2.02,1.56-3.04,2.35
			c0.19-0.17,0.41-0.31,0.64-0.42c-1.19,0.5-2.39,1.01-3.58,1.51c0.27-0.12,0.54-0.19,0.83-0.22c-1.33,0.18-2.66,0.36-3.99,0.54
			c1-0.06,2,0.07,2.99,0.2c-1.33-0.18-2.66-0.36-3.99-0.54c3.62,0.51,7.11,1.55,10.48,2.97c-1.19-0.5-2.39-1.01-3.58-1.51
			c5.89,2.53,11.23,6.1,16.29,10c-1.01-0.78-2.02-1.56-3.04-2.35c2.09,1.62,4.05,3.29,5.68,5.38c-0.78-1.01-1.56-2.02-2.35-3.04
			c2.85,3.77,5.25,7.92,7.81,11.89c2.47,3.83,5.13,7.6,6.93,11.81c-0.5-1.19-1.01-2.39-1.51-3.58c1.62,3.9,2.76,8.17,5.18,11.66
			c1.55,2.23,3.26,4.35,5.15,6.29c1.1,1.13,2.21,2.23,3.2,3.46c-0.78-1.01-1.56-2.02-2.35-3.04c0.76,1,1.41,2.05,1.91,3.2
			c-0.5-1.19-1.01-2.39-1.51-3.58c0.24,0.64,0.43,1.27,0.55,1.95c-0.18-1.33-0.36-2.66-0.54-3.99c0.09,0.68,0.09,1.33,0.02,2.01
			c0.18,1.33,0.36,2.66,0.54,3.99c0.46,1.95,1.36,3.65,2.68,5.1c1.91,2.48,4.65,4.66,7.79,5.38c2.64,0.6,5.34,0.6,7.98,0
			c3.77-0.86,6.92-3.78,8.96-6.89c1.45-2.2,1.7-3.79,2.02-6.13c0.47-3.47-0.03-6.74-1.81-9.87c-0.73-1.28-1.62-2.49-2.68-3.54
			c-2.07-2.03-4.39-3.07-7.05-4.01c-1.85-0.66-3.76-1.16-5.69-1.53c-4.95-0.96-10.03-1.5-15.07-1.48
			c-3.92,0.01-7.83,0.31-11.72,0.69c-3.09,0.3-6.26,0.54-9.3,1.11c-4.08,0.75-7.2,3.14-10.29,5.75c1.01-0.78,2.02-1.56,3.04-2.35
			c-0.17,0.14-0.36,0.27-0.56,0.37c1.19-0.5,2.39-1.01,3.58-1.51c-0.19,0.1-0.39,0.16-0.6,0.18c1.33-0.18,2.66-0.36,3.99-0.54
			c-0.11-0.01-0.22-0.01-0.33-0.02c1.33,0.18,2.66,0.36,3.99,0.54c-0.11-0.04-0.22-0.07-0.33-0.11c1.19,0.5,2.39,1.01,3.58,1.51
			c-0.1-0.06-0.2-0.12-0.3-0.18c1.01,0.78,2.02,1.56,3.04,2.35c-0.19-0.15-0.36-0.32-0.5-0.52c0.78,1.01,1.56,2.02,2.35,3.04
			c-1.24-1.65-2.38-3.42-3.85-4.88c-1.45-1.44-3.16-2.7-4.87-3.82c-2.56-1.69-5.57-2.79-8.48-3.73c-4.39-1.41-8.98-2.34-13.46-3.45
			c-9.73-2.41-19.46-4.81-29.2-7.19c-5.55-1.36-11.1-2.71-16.66-4.06c2.99,7.34,5.98,14.69,8.96,22.03
			c3.23-4.57,6.46-9.14,9.69-13.71c3.13-4.43,6.14-8.97,9.45-13.27c-0.78,1.01-1.56,2.02-2.35,3.04c1.27-1.62,2.65-3.1,4.26-4.38
			c-1.01,0.78-2.02,1.56-3.04,2.35c2.92-2.22,6.24-3.88,9.47-5.59c3.43-1.82,6.9-3.56,10.4-5.24c-6.84-6.84-13.68-13.68-20.52-20.52
			c-3.76,5.58-4.55,12.32-7.05,18.42c0.5-1.19,1.01-2.39,1.51-3.58c-1.71,4.02-4,7.73-6.18,11.51c-2.24,3.89-4.27,7.89-6.06,12.01
			c-1.34,3.08-2.75,6.2-3.78,9.41c-1.01,3.15-1.5,6.5-1.74,9.79c-0.42,5.68,1.19,11.45,2.95,16.8c6.15-6.15,12.3-12.3,18.45-18.45
			c-3.33-1.29-6.48-0.66-9.83-0.92c1.33,0.18,2.66,0.36,3.99,0.54c-0.56-0.08-1.07-0.21-1.6-0.41c1.19,0.5,2.39,1.01,3.58,1.51
			c-0.69-0.31-1.34-0.69-2-1.07c-1.64-0.94-3.56-1.74-5.27-2.36c-2.58-0.94-5.4-1.21-8.12-1.41c-3.25-0.24-6.56,0.15-9.8,0.35
			c-3.49,0.21-6.99,0.41-10.48,0.62c-2.5,0.15-5.11,0.28-7.48,1.11c-1.58,0.56-3.29,1.18-4.68,2.15c-1.66,1.15-2.41,1.65-3.46,2.79
			c-0.94,1.02-2.03,2.34-2.67,3.59c-1.83,3.6-2.61,7.58-1.51,11.56c0.96,3.48,3.65,7.25,6.89,8.96c3.48,1.84,7.7,2.76,11.56,1.51
			C107.16,124.22,110.76,121.96,112.53,118.48L112.53,118.48z"/>
	</g>
</g>
<g>
	<g>
		<path class="st2" d="M155.81,53.4c0.32-1.31,0.72-2.61,1.2-3.87c0.1-0.33,0.12-0.66,0.04-1c-0.02-0.33-0.11-0.64-0.3-0.93
			c-0.3-0.52-0.9-1.01-1.49-1.15c-0.64-0.15-1.36-0.11-1.93,0.25c-0.17,0.13-0.34,0.26-0.51,0.39c-0.31,0.31-0.52,0.68-0.64,1.1
			c-0.48,1.27-0.88,2.56-1.2,3.87c-0.16,0.64-0.09,1.35,0.25,1.93c0.3,0.52,0.9,1.01,1.49,1.15c0.64,0.15,1.36,0.11,1.93-0.25
			C155.2,54.55,155.66,54.04,155.81,53.4L155.81,53.4z"/>
	</g>
</g>
<g>
	<g>
		<path class="st2" d="M161.21,34.34c-2.43,1.17-2.66,4.02-3.36,6.3c-0.78,2.55-1.96,4.92-3.44,7.13c1.44,0.84,2.88,1.68,4.32,2.52
			c0.78-1.34,1.55-2.67,2.33-4.01c0.8-1.37,0.08-3.27-1.49-3.67c-3.45-0.88-4.52,2.78-5.4,5.3c-0.91,2.6-1.72,5.23-2.45,7.89
			c1.64,0.22,3.27,0.44,4.91,0.66c0.01-0.55,0.02-1.1,0.03-1.66c0.05-2.8-4.22-3.42-4.91-0.66c-0.65,2.58-1.49,5.09-2.52,7.54
			c1.64,0.22,3.27,0.44,4.91,0.66c0.2-1.58,0.66-3.2,1.3-4.66c-1.52-0.64-3.05-1.28-4.57-1.93c-0.28,1.41-0.57,2.82-0.9,4.22
			c-0.14,0.62-0.29,1.24-0.45,1.87c-0.1,0.39-0.2,0.78-0.3,1.16c-0.04,0.15-0.08,0.31-0.12,0.46c-0.15,0.43-0.03,0.33,0.34-0.3
			c0.64-0.08,1.28-0.17,1.93-0.25c-0.09-0.02-0.18-0.03-0.27-0.05c0.58,0.58,1.16,1.16,1.75,1.75c-0.16-0.55-0.32-1.1-0.48-1.65
			c-0.65-2.25-4.32-2.51-4.82,0c-1.03,5.18-2.06,10.35-3.09,15.53c-0.99,4.95-2.09,9.9-2.85,14.89c-0.78,5.09-0.83,10.11-0.71,15.24
			c0.13,5.31,0.25,10.62,0.38,15.92c0.05,2.13,2.72,3.34,4.27,1.77c1.2-1.22,2.76-2.14,4.49-2.36c-0.22-1.64-0.44-3.27-0.66-4.91
			c-1.63,0.41-2.98,1.9-3.04,3.62c-0.07,1.81,1.43,3.26,3.22,3.26c0.93,0,1.79-0.47,2.65-0.77c0.85-0.3,1.72-0.56,2.59-0.78
			c1.61-0.41,3.24-0.66,4.91-0.75c3.48-0.19,6.95,0.34,10.37,0.92c3.67,0.62,7.31,1.42,10.9,2.38c1.66,0.44,3.05-0.8,3.16-2.41
			c0.42-6.07,0.85-12.14,0.83-18.23c-0.02-6.07-0.62-12.07-1.66-18.05c-0.97-5.62-1.99-11.28-3.42-16.8
			c-0.72-2.77-1.59-5.49-2.67-8.14c-0.5-1.22-1.01-2.44-1.3-3.74c-0.28-1.3-0.37-2.64-0.7-3.94c-0.78-3.07-2.49-5.84-4.04-8.56
			c-1.67-2.93-3.35-5.86-5.02-8.78c-1.6-2.79-5.92-0.28-4.32,2.52c1.44,2.51,2.87,5.02,4.31,7.53c1.3,2.27,2.79,4.52,3.73,6.97
			c0.96,2.49,0.93,5.2,1.86,7.7c0.97,2.58,2.01,5.1,2.78,7.75c1.55,5.39,2.53,10.96,3.55,16.47c1.05,5.67,1.77,11.33,1.88,17.1
			c0.13,6.74-0.33,13.48-0.8,20.2c1.05-0.8,2.11-1.61,3.16-2.41c-5.63-1.51-11.37-2.62-17.17-3.27c-2.76-0.31-5.49-0.3-8.24,0.08
			c-1.38,0.19-2.74,0.45-4.09,0.82c-1.31,0.36-2.59,1.04-3.92,1.29c0.44,0,0.89,0,1.33,0c0.02,0.02,0.03,0.05,0.05,0.07
			c0.3,0.3,0.6,0.6,0.9,0.9c0.21,0.28,0.24,1.71-0.46,1.89c1.19-0.3,1.97-1.55,1.79-2.74c-0.17-1.1-1.21-2.33-2.46-2.17
			c-3.08,0.39-5.82,1.59-8.02,3.82c1.42,0.59,2.85,1.18,4.27,1.77c-0.12-5.14-0.24-10.28-0.36-15.43c-0.12-4.99-0.2-9.93,0.59-14.89
			c1.6-10.03,3.89-19.99,5.87-29.95c-1.61,0-3.21,0-4.82,0c0.16,0.55,0.32,1.1,0.48,1.65c0.22,0.77,0.91,1.61,1.75,1.75
			c2.89,0.47,3.86-1.68,4.46-4.06c0.55-2.17,1.03-4.36,1.46-6.55c0.24-1.22-0.24-2.46-1.45-2.95c-1.04-0.42-2.61-0.13-3.12,1.02
			c-1.03,2.34-1.66,4.65-1.98,7.18c-0.15,1.22,1.07,2.32,2.17,2.46c1.34,0.16,2.25-0.61,2.74-1.79c1.03-2.45,1.87-4.97,2.52-7.54
			c-1.64-0.22-3.27-0.44-4.91-0.66c-0.01,0.55-0.02,1.1-0.03,1.66c-0.05,2.83,4.17,3.38,4.91,0.66c0.5-1.82,1.04-3.63,1.62-5.43
			c0.29-0.9,0.59-1.79,0.91-2.68c0.13-0.37,0.26-0.74,0.4-1.11c0.08-0.22,0.16-0.44,0.24-0.67c0.16-0.33,0.01-0.29-0.44,0.12
			c-0.44,0-0.89,0-1.33,0c0.1,0.03,0.2,0.05,0.3,0.08c-0.5-1.22-1-2.45-1.49-3.67c-0.78,1.34-1.55,2.67-2.33,4.01
			c-1.63,2.81,2.55,5.18,4.32,2.52c1.39-2.08,2.5-4.31,3.37-6.66c0.41-1.1,0.75-2.23,1.03-3.37c0.11-0.45,0.22-0.89,0.35-1.33
			c-0.04,0.13,0.14-0.43,0.14-0.29c0.12-0.18,0.11-0.18-0.04,0c-0.21,0.19-0.16,0.19,0.16,0c1.22-0.58,1.54-2.32,0.9-3.42
			C163.9,33.99,162.43,33.75,161.21,34.34L161.21,34.34z"/>
	</g>
</g>
<g>
	<g>
		<path class="st2" d="M152.09,51.76c0.1,8.95,0.12,17.91,0.05,26.86c-0.03,4.48-0.09,8.95-0.16,13.43
			c-0.07,4.25,0.05,8.58-0.45,12.81c0.12-0.89,0.24-1.77,0.36-2.66c-0.22,1.62-0.58,3.18-1.2,4.7c0.34-0.8,0.67-1.59,1.01-2.39
			c-0.2,0.45-0.41,0.87-0.68,1.29c0.52-0.67,1.04-1.35,1.56-2.02c-0.13,0.18-0.27,0.35-0.44,0.49c0.67-0.52,1.35-1.04,2.02-1.56
			c-0.16,0.15-0.35,0.26-0.55,0.35c0.8-0.34,1.59-0.67,2.39-1.01c-0.12,0.04-0.25,0.07-0.37,0.11c0.89-0.12,1.77-0.24,2.66-0.36
			c-2.05,0.26-4.12,0.06-6.16,0.69c-2.65,0.82-5.08,2.27-7.03,4.23c5.57,3.24,11.14,6.49,16.71,9.73
			c1.01-5.29,2.14-10.58,2.96-15.91c0.51-3.36,0.99-6.76,1.09-10.16c0.08-2.79-0.09-5.56,0.24-8.34c-0.12,0.89-0.24,1.77-0.36,2.66
			c0.49-3.64,1.27-7.55,2.65-10.96c-0.34,0.8-0.67,1.59-1.01,2.39c0.27-0.6,0.58-1.14,0.97-1.66c-0.52,0.67-1.04,1.35-1.56,2.02
			c0.24-0.28,0.48-0.51,0.76-0.75c-0.67,0.52-1.35,1.04-2.02,1.56c0.29-0.2,0.57-0.36,0.89-0.52c-0.8,0.34-1.59,0.67-2.39,1.01
			c0.33-0.12,0.63-0.21,0.98-0.28c-0.89,0.12-1.77,0.24-2.66,0.36c0.35-0.03,0.64-0.03,0.99,0c-0.89-0.12-1.77-0.24-2.66-0.36
			c0.21,0.03,0.42,0.1,0.62,0.18c-0.8-0.34-1.59-0.67-2.39-1.01c0.2,0.09,0.39,0.2,0.57,0.34c-0.67-0.52-1.35-1.04-2.02-1.56
			c0.2,0.16,0.37,0.34,0.53,0.55c-0.52-0.67-1.04-1.35-1.56-2.02c0.22,0.34,0.39,0.65,0.55,1.02c-0.34-0.8-0.67-1.59-1.01-2.39
			c0.93,2.49,1.57,5.11,2.34,7.65c0.78,2.6,1.52,5.18,1.89,7.87c-0.12-0.89-0.24-1.77-0.36-2.66c0.74,5.79,0.78,11.72,1.09,17.55
			c0.18,3.43,0.19,6.92,0.8,10.31c0.36,2.04,1.31,3.91,2.57,5.53c2.33,3.01,5.43,4.42,9.23,4.65c2.46,0.15,5.37-1.22,7.07-2.93
			c1.73-1.73,3.04-4.58,2.93-7.07c-0.26-5.7-4.4-9.65-10-10c-0.09-0.01-0.19-0.01-0.28-0.02c0.89,0.12,1.77,0.24,2.66,0.36
			c-0.09-0.02-0.17-0.04-0.26-0.06c0.8,0.34,1.59,0.67,2.39,1.01c-0.17-0.06-0.32-0.14-0.46-0.25c0.67,0.52,1.35,1.04,2.02,1.56
			c-0.14-0.11-0.27-0.24-0.38-0.38c0.52,0.67,1.04,1.35,1.56,2.02c-0.17-0.25-0.3-0.49-0.42-0.76c0.34,0.8,0.67,1.59,1.01,2.39
			c-0.18-0.5-0.3-1-0.38-1.52c0.12,0.89,0.24,1.77,0.36,2.66c-0.3-2.72-0.31-5.5-0.46-8.23c-0.15-2.87-0.3-5.74-0.45-8.61
			c-0.17-3.19-0.35-6.36-0.78-9.53c-0.41-3.08-1.11-6-2-8.98c-0.75-2.5-1.43-5.04-2.27-7.51c-0.98-2.88-2.37-5.26-4.79-7.14
			c-2.33-1.8-5.24-2.89-8.23-2.67c-5.09,0.37-9.75,3.16-12.09,7.8c-1.47,2.92-2.26,6.11-3,9.28c-0.87,3.75-1.42,7.61-1.42,11.46
			c0,3.29-0.07,6.52-0.49,9.79c0.12-0.89,0.24-1.77,0.36-2.66c-0.8,5.9-2.08,11.75-3.2,17.6c-0.44,2.28-0.41,4.34,0.5,6.51
			c0.81,1.92,2.2,3.78,4.09,4.78c3.93,2.08,8.89,1.68,12.12-1.56c0.28-0.28,0.56-0.53,0.88-0.78c-0.67,0.52-1.35,1.04-2.02,1.56
			c0.44-0.3,0.88-0.54,1.37-0.75c-0.8,0.34-1.59,0.67-2.39,1.01c0.5-0.18,0.99-0.31,1.51-0.39c-0.89,0.12-1.77,0.24-2.66,0.36
			c1.25-0.12,2.43-0.09,3.68-0.26c2.78-0.37,5.03-1.6,7-3.57c1.71-1.71,2.47-3.64,3.35-5.83c0.41-1.03,0.73-2.08,0.95-3.17
			c0.97-4.87,0.93-9.83,1.02-14.77c0.16-9.04,0.24-18.07,0.24-27.11c0-5.14-0.03-10.28-0.09-15.42c-0.03-2.58-1.1-5.24-2.93-7.07
			c-1.73-1.73-4.58-3.04-7.07-2.93C156.72,42,152.03,46.15,152.09,51.76L152.09,51.76z"/>
	</g>
</g>
<g>
	<g>
		<g>
			<path class="st2" d="M57.13,124c8.18-2.97,16.81-4.09,25.48-3.32c-0.42-1.55-0.84-3.11-1.26-4.66c-0.73,0.38-1.45,0.77-2.18,1.15
				c-2.17,1.14-1.2,4.78,1.26,4.66c5.14-0.25,10.18,0.84,14.72,3.3c2.09,1.13,3.96-0.73,3.67-2.82c-0.47-3.41,0.35-6.9,1.05-10.21
				c0.7-3.29,1.41-6.57,2.19-9.84c1.57-6.55,3.4-13.04,5.78-19.35c4.62-12.2,11.6-23.45,21.02-32.52
				c5.1-4.91,10.82-9.09,17.02-12.52c2.82-1.56,0.3-5.88-2.52-4.32c-11.86,6.56-21.94,15.88-29.59,27.05
				c-7.93,11.58-12.72,24.91-16.07,38.46c-0.96,3.88-1.82,7.79-2.65,11.7c-0.91,4.29-1.66,8.49-1.05,12.87
				c1.22-0.94,2.45-1.88,3.67-2.82c-5.28-2.86-11.24-4.27-17.24-3.98c0.42,1.55,0.84,3.11,1.26,4.66c0.73-0.38,1.45-0.77,2.18-1.15
				c0.97-0.51,1.43-1.79,1.15-2.82c-0.31-1.12-1.3-1.74-2.41-1.84c-9.05-0.8-18.27,0.4-26.81,3.5c-1.27,0.46-2.12,1.7-1.75,3.08
				C54.39,123.48,55.85,124.46,57.13,124L57.13,124z"/>
		</g>
	</g>
	<g>
		<g>
			<path class="st2" d="M59.14,119.33c0.57-4.41,1.69-8.76,2.63-13.1c0.3-1.39-0.69-3.39-2.41-3.16c-1.57,0.21-2.77,0.79-3.6,2.19
				c1.52,0.64,3.05,1.28,4.57,1.93c2.84-12.89,8.58-25.27,17.34-35.21c4.68-5.3,10.1-9.6,16.08-13.35
				c6.54-4.09,13.3-7.87,20.33-11.08c7.74-3.53,15.85-6.25,24.2-7.87c1.33-0.26,2.08-1.85,1.75-3.08c-0.38-1.39-1.74-2-3.08-1.75
				c-15.57,3-30.12,9.92-43.58,18.13c-6.42,3.91-12.48,8.23-17.65,13.72c-4.77,5.05-8.83,10.8-12.08,16.94
				c-3.7,6.99-6.43,14.49-8.13,22.21c-0.6,2.71,3.08,4.44,4.57,1.93c-0.24,0.09-0.48,0.19-0.71,0.28c-0.8-1.05-1.61-2.11-2.41-3.16
				c-1.03,4.79-2.18,9.56-2.8,14.43c-0.17,1.34,1.27,2.5,2.5,2.5C58.13,121.83,58.96,120.68,59.14,119.33L59.14,119.33z"/>
		</g>
	</g>
	<g>
		<g>
			<path class="st2" d="M57.39,110.94c3.22,0,3.22-5,0-5C54.17,105.94,54.17,110.94,57.39,110.94L57.39,110.94z"/>
		</g>
	</g>
	<g>
		<g>
			<path class="st2" d="M146.91,36.92c1.49-0.44,2.98-0.88,4.47-1.32c0.63-0.18,1.08-0.89,0.87-1.54c-0.21-0.63-0.87-1.07-1.54-0.87
				c-1.49,0.44-2.98,0.88-4.47,1.32c-0.63,0.18-1.08,0.89-0.87,1.54C145.58,36.68,146.24,37.11,146.91,36.92L146.91,36.92z"/>
		</g>
	</g>
	<g>
		<g>
			<path class="st2" d="M153.13,33.05c-0.57,0.07-1.15,0.13-1.72,0.2c-0.17-0.01-0.33,0.03-0.48,0.11c-0.15,0.05-0.29,0.14-0.4,0.26
				c-0.12,0.11-0.21,0.25-0.26,0.4c-0.08,0.15-0.11,0.31-0.11,0.48c0.01,0.32,0.12,0.66,0.37,0.88c0.08,0.07,0.17,0.13,0.25,0.2
				c0.19,0.11,0.41,0.17,0.63,0.17c0.57-0.07,1.15-0.13,1.72-0.2c0.17,0.01,0.33-0.03,0.48-0.11c0.15-0.05,0.29-0.14,0.4-0.26
				c0.12-0.11,0.21-0.25,0.26-0.4c0.08-0.15,0.11-0.31,0.11-0.48c-0.01-0.32-0.12-0.66-0.37-0.88c-0.08-0.07-0.17-0.13-0.25-0.2
				C153.57,33.11,153.36,33.05,153.13,33.05L153.13,33.05z"/>
		</g>
	</g>
	<g>
		<g>
			<path class="st2" d="M68.12,100.55c-2.63-0.29-5.48,0.63-7.74,1.93c-4.33,2.49-6,7.98-4.09,12.49c1.99,4.71,6.87,6.87,11.8,5.79
				c2.73-0.6,5.47-1.17,8.24-1.56c-0.89,0.12-1.77,0.24-2.66,0.36c3.17-0.42,6.35-0.59,9.53-0.19c-0.89-0.12-1.77-0.24-2.66-0.36
				c1.85,0.26,3.64,0.72,5.37,1.42c-0.8-0.34-1.59-0.67-2.39-1.01c0.13,0.06,0.27,0.11,0.4,0.17c1.56,0.9,3.24,1.36,5.05,1.37
				c1.81-0.01,3.49-0.46,5.05-1.37c2.87-1.68,5.2-5.19,4.95-8.63c-0.31-4.29-0.18-8.59,0.38-12.85c-0.12,0.89-0.24,1.77-0.36,2.66
				c0.23-1.65,0.52-3.3,0.88-4.93c0.3-1.36,0.59-2.78,0.62-4.17c0.06-2.77-1.19-5.92-3.25-7.81c-1.58-1.45-3.41-2.48-5.36-3.33
				c-2.83-1.24-5.42-2.17-8.58-2.19c-5.2-0.02-9.44,2.59-13.18,5.94c-2.52,2.26-4.99,4.58-7.48,6.88c-3.67,3.37-3.7,9.36-0.78,13.13
				c2.84,3.67,8.79,5.43,12.9,2.58c2.22-1.55,3.9-3.16,5.24-5.55c0.63-1.12,1.21-2.27,1.87-3.37c1.3-2.2,2.75-4.31,4.31-6.33
				c-0.52,0.67-1.04,1.35-1.56,2.02c3.24-4.15,6.96-7.86,11.11-11.09c-0.67,0.52-1.35,1.04-2.02,1.56c0.66-0.5,1.32-1,2-1.48
				c-4.9-1.99-9.79-3.98-14.69-5.98c0.27,0.7,0.45,1.4,0.56,2.14c-0.12-0.89-0.24-1.77-0.36-2.66c0.24,2.03,0.02,4.05,0.08,6.08
				c0.1,3.36,0.75,7.03,2.74,9.83c1.3,1.82,2.68,3.2,4.78,4.09c1.99,0.84,4.4,1.19,6.51,0.5c4.23-1.37,7.31-5.1,7.34-9.64
				c0.02-2.22,0.17-4.43,0.47-6.63c-0.12,0.89-0.24,1.77-0.36,2.66c0.31-2.17,0.61-4.6,1.44-6.65c-0.34,0.8-0.67,1.59-1.01,2.39
				c0.08-0.19,0.2-0.36,0.33-0.52c-0.52,0.67-1.04,1.35-1.56,2.02c0.07-0.06,0.14-0.12,0.21-0.19c-0.67,0.52-1.35,1.04-2.02,1.56
				c0.08-0.04,0.16-0.08,0.25-0.11c-1.68,0.46-3.36,0.91-5.05,1.37c0.09-0.01,0.19-0.01,0.28-0.02c-2.36-0.98-4.71-1.95-7.07-2.93
				c0.06,0.07,0.11,0.15,0.17,0.22c-0.52-0.67-1.04-1.35-1.56-2.02c0.04,0.08,0.09,0.16,0.13,0.24c-0.34-0.8-0.67-1.59-1.01-2.39
				c0.08,0.17,0.13,0.34,0.16,0.53c-0.12-0.89-0.24-1.77-0.36-2.66c0.03,0.3,0.03,0.54-0.01,0.83c0.12-0.89,0.24-1.77,0.36-2.66
				c-0.03,0.18-0.09,0.36-0.16,0.54c0.34-0.8,0.67-1.59,1.01-2.39c-0.07,0.17-0.17,0.33-0.28,0.48c0.52-0.67,1.04-1.35,1.56-2.02
				c-0.11,0.15-0.24,0.28-0.39,0.39c0.67-0.52,1.35-1.04,2.02-1.56c-0.15,0.11-0.31,0.2-0.49,0.27c4.04,5.24,8.08,10.47,12.12,15.71
				c2.68-3.45,5.09-6.89,6.83-10.91c0.9-1.56,1.36-3.24,1.37-5.05c0.05-1.38-0.24-2.66-0.86-3.85c-1.08-2.57-3.51-5.36-6.48-5.79
				c-1.91-0.27-3.64-0.59-5.53-0.39c-2.52,0.27-4.35,0.67-6.63,1.63c-3.9,1.65-6.77,4.25-9.2,7.69c-0.92,1.3-1.37,3.48-1.37,5.05
				c0,2.23,0.8,4.32,2.15,6.06c1.09,1.41,2.36,2.39,4,3.08c1.91,0.81,4.5,1.27,6.51,0.5c1.85-0.7,3.65-1.42,5.25-2.59
				c1.59-1.16,3.11-2.39,4.53-3.75c2.05-1.97,4.13-3.83,6.38-5.57c-0.67,0.52-1.35,1.04-2.02,1.56c2.61-2.01,5.22-4.02,7.83-6.02
				c2.16-1.66,3.84-3.23,4.6-5.98c0.66-2.39,0.36-5.58-1.01-7.71c-1.38-2.14-3.43-4.01-5.98-4.6c-2.43-0.55-5.63-0.59-7.71,1.01
				c-3.66,2.82-7.35,5.6-10.98,8.47c-2.67,2.11-4.93,4.67-7.6,6.76c0.67-0.52,1.35-1.04,2.02-1.56c-0.83,0.62-1.69,1.15-2.65,1.56
				c0.8-0.34,1.59-0.67,2.39-1.01c-0.12,0.05-0.24,0.09-0.36,0.14c3.76,4.9,7.53,9.79,11.29,14.69c0.14-0.2,0.28-0.39,0.43-0.58
				c-0.52,0.67-1.04,1.35-1.56,2.02c0.54-0.66,1.14-1.23,1.81-1.75c-0.67,0.52-1.35,1.04-2.02,1.56c0.69-0.5,1.41-0.91,2.18-1.26
				c-0.8,0.34-1.59,0.67-2.39,1.01c0.9-0.37,1.81-0.62,2.78-0.77c-0.89,0.12-1.77,0.24-2.66,0.36c0.85-0.1,1.67-0.1,2.52-0.02
				c-0.89-0.12-1.77-0.24-2.66-0.36c0.12,0.02,0.24,0.03,0.36,0.05c-1.99-4.9-3.98-9.79-5.98-14.69c-1.32,3.04-2.99,5.89-4.99,8.53
				c0.52-0.67,1.04-1.35,1.56-2.02c-0.09,0.12-0.18,0.24-0.28,0.36c-1.63,2.09-3.05,4.26-2.93,7.07c0.1,2.26,0.76,4.26,2.15,6.06
				c1.28,1.65,3.1,3.11,5.19,3.58c0.89,0.12,1.77,0.24,2.66,0.36c1.81-0.01,3.49-0.46,5.05-1.37c1.92-0.87,3.75-2.9,4.74-4.73
				c1.48-2.74,1.98-6.04,1.18-9.08c-0.96-3.66-3.72-6.95-7.45-7.97c-4.55-1.25-9.78,0.95-12.13,5.04c-1.53,2.65-2.13,5.74-2.58,8.73
				c-0.51,3.32-0.9,6.64-0.93,10c6.21-1.68,12.42-3.36,18.63-5.05c-0.28-0.4-0.52-0.8-0.72-1.25c0.34,0.8,0.67,1.59,1.01,2.39
				c-0.27-0.67-0.43-1.35-0.54-2.06c0.12,0.89,0.24,1.77,0.36,2.66c-0.48-4.14,0.47-8.33-1.11-12.36c-1.18-3.01-2.74-5.19-5.79-6.48
				c-2.72-1.15-6.36-1.31-8.9,0.5c-4.92,3.51-9.53,7.42-13.44,12.04c-2.15,2.54-4.2,5.21-6.03,7.99c-1.44,2.19-2.51,4.64-4,6.79
				c0.52-0.67,1.04-1.35,1.56-2.02c-0.24,0.3-0.47,0.55-0.76,0.8c0.67-0.52,1.35-1.04,2.02-1.56c-0.1,0.07-0.2,0.14-0.3,0.21
				c4.04,5.24,8.08,10.47,12.12,15.71c2.87-2.64,5.66-5.46,8.7-7.91c-0.67,0.52-1.35,1.04-2.02,1.56c0.74-0.57,1.49-1.06,2.33-1.45
				c-0.8,0.34-1.59,0.67-2.39,1.01c0.49-0.2,0.97-0.34,1.49-0.45c-0.89,0.12-1.77,0.24-2.66,0.36c0.72-0.1,1.4-0.09,2.12,0
				c-0.89-0.12-1.77-0.24-2.66-0.36c0.86,0.16,1.67,0.41,2.48,0.74c-0.8-0.34-1.59-0.67-2.39-1.01c1.13,0.49,2.36,1.02,3.34,1.77
				c-1.2-1.2-2.39-2.39-3.59-3.59c0.07,0.09,0.14,0.18,0.21,0.27c-0.34-0.8-0.67-1.59-1.01-2.39c0.03,0.1,0.07,0.2,0.1,0.3
				c-0.12-0.89-0.24-1.77-0.36-2.66c0.03,0.22,0.02,0.43-0.03,0.65c0.12-0.89,0.24-1.77,0.36-2.66c-1.52,7.06-2.37,14.24-1.85,21.46
				c5.02-2.88,10.03-5.76,15.05-8.63c-2.73-1.17-5.23-2.16-8.16-2.59c-2.76-0.41-5.47-0.69-8.26-0.55c-5,0.26-9.95,1.23-14.83,2.3
				c2.57,6.09,5.14,12.18,7.71,18.28c0.23-0.15,0.46-0.27,0.72-0.36c-0.8,0.34-1.59,0.67-2.39,1.01c0.25-0.09,0.51-0.16,0.78-0.2
				c-0.89,0.12-1.77,0.24-2.66,0.36c0.42-0.04,0.78-0.04,1.2,0.01c2.38,0.27,5.45-1.31,7.07-2.93c1.73-1.73,3.04-4.58,2.93-7.07
				c-0.12-2.59-0.97-5.27-2.93-7.07c-0.67-0.52-1.35-1.04-2.02-1.56C71.6,101.01,69.92,100.55,68.12,100.55L68.12,100.55z"/>
		</g>
	</g>
	<g>
		<g>
			<path class="st2" d="M78.09,67.28c-0.11,0.11-0.21,0.22-0.31,0.34c-0.6,0.73-1.27,1.53-1.8,2.36c-0.08,0.13-0.16,0.26-0.22,0.4
				c-0.44,0.91-0.83,1.84-1.18,2.79c-0.05,0.14-0.1,0.29-0.13,0.44c-0.23,0.99-0.32,2.19-0.43,3.06c-0.04,0.31-0.04,0.63-0.01,0.94
				c-0.05,1.38,0.24,2.66,0.86,3.85c0.4,1.24,1.09,2.31,2.07,3.22c0.91,0.98,1.98,1.66,3.22,2.07c1.19,0.63,2.48,0.91,3.85,0.86
				c0.89-0.12,1.77-0.24,2.66-0.36c1.69-0.48,3.16-1.33,4.41-2.57c0.52-0.67,1.04-1.35,1.56-2.02c0.9-1.56,1.36-3.24,1.37-5.05
				c-0.04-0.32-0.03-0.65,0.01-0.97c-0.12,0.89-0.24,1.77-0.36,2.66c0.05-0.36,0.15-0.7,0.29-1.03c-0.34,0.8-0.67,1.59-1.01,2.39
				c0.14-0.31,0.31-0.61,0.52-0.88c-0.52,0.67-1.04,1.35-1.56,2.02c0.11-0.13,0.22-0.26,0.34-0.38c0.98-0.91,1.66-1.98,2.07-3.22
				c0.63-1.19,0.91-2.48,0.86-3.85c0.05-1.38-0.24-2.66-0.86-3.85c-0.4-1.24-1.09-2.31-2.07-3.22c-0.67-0.52-1.35-1.04-2.02-1.56
				c-1.56-0.9-3.24-1.36-5.05-1.37c-0.89,0.12-1.77,0.24-2.66,0.36C80.81,65.19,79.34,66.04,78.09,67.28L78.09,67.28z"/>
		</g>
	</g>
	<g>
		<g>
			<path class="st2" d="M114,50.02c4.82-1.92,9.74-3.6,14.73-5.04c-0.81-1.39-1.62-2.79-2.43-4.18c-1.78,1.54-3.6,3.05-5.35,4.62
				c-0.76,0.68-1.46,1.43-2.03,2.28c-0.64,0.98-0.73,2.03-1.13,3.08c0.21-0.37,0.43-0.74,0.64-1.1c0.19-0.09,0.38-0.19,0.57-0.28
				c0.44,0,0.89,0,1.33,0c-0.07-0.01-0.14-0.03-0.21-0.04c0.37,0.21,0.74,0.43,1.1,0.64c0.14,0.26,0.15,0.25,0.02-0.01
				c-0.08-0.2-0.17-0.39-0.26-0.59c-0.14-0.29-0.3-0.57-0.47-0.84c-0.46-0.72-1.01-1.4-1.6-2.01c-0.17,1.31-0.34,2.62-0.51,3.93
				c2.26-1.41,4.71-2.31,7.22-3.16c2.76-0.93,5.53-1.85,8.29-2.77c1.28-0.43,2.12-1.72,1.75-3.08c-0.34-1.25-1.79-2.18-3.08-1.75
				c-2.88,0.96-5.75,1.92-8.63,2.89c-2.79,0.94-5.58,1.98-8.08,3.55c-1.38,0.86-1.65,2.74-0.51,3.93c0.53,0.55,0.94,1.14,1.29,1.84
				c0.4,0.81,0.69,1.51,1.53,2c1.17,0.68,2.69,0.38,3.63-0.54c0.73-0.71,0.8-1.53,1.05-2.43c0.12-0.44,0.33-0.74,0.72-1.15
				c0.59-0.63,1.26-1.18,1.91-1.74c1.44-1.24,2.88-2.48,4.32-3.72c1.93-1.66-0.13-4.84-2.43-4.18c-4.99,1.44-9.9,3.12-14.73,5.04
				c-1.25,0.5-2.13,1.67-1.75,3.08C111.25,49.47,112.73,50.52,114,50.02L114,50.02z"/>
		</g>
	</g>
</g>
<g>
	<g>
		<g>
			<path class="st2" d="M268.88,118.99c-8.55-3.1-17.76-4.3-26.81-3.5c-1.11,0.1-2.1,0.71-2.41,1.84c-0.28,1.03,0.18,2.31,1.15,2.82
				c0.73,0.38,1.45,0.77,2.18,1.15c0.42-1.55,0.84-3.11,1.26-4.66c-6-0.29-11.96,1.12-17.24,3.98c1.22,0.94,2.45,1.88,3.67,2.82
				c0.54-3.89,0.03-7.63-0.75-11.45c-0.71-3.45-1.47-6.89-2.27-10.32c-1.61-6.87-3.51-13.68-6-20.28
				c-4.92-13.01-12.24-25.04-22.3-34.73c-5.39-5.19-11.48-9.68-18.03-13.3c-2.82-1.56-5.34,2.76-2.52,4.32
				c11.09,6.14,20.64,14.79,27.8,25.26c7.52,10.99,12.1,23.48,15.33,36.33c0.94,3.72,1.78,7.47,2.58,11.22
				c0.81,3.76,1.89,7.75,1.35,11.62c-0.29,2.1,1.59,3.95,3.67,2.82c4.53-2.45,9.58-3.55,14.72-3.3c2.46,0.12,3.43-3.52,1.26-4.66
				c-0.73-0.38-1.45-0.77-2.18-1.15c-0.42,1.55-0.84,3.11-1.26,4.66c8.67-0.77,17.3,0.35,25.48,3.32c1.27,0.46,2.74-0.52,3.08-1.75
				C271.01,120.67,270.16,119.45,268.88,118.99L268.88,118.99z"/>
		</g>
	</g>
	<g>
		<g>
			<path class="st2" d="M270.54,119.14c-0.63-4.86-1.77-9.64-2.8-14.43c-0.8,1.05-1.61,2.11-2.41,3.16
				c-0.24-0.09-0.48-0.19-0.71-0.28c1.47,2.49,5.17,0.81,4.57-1.93c-3.02-13.68-9.24-26.71-18.5-37.27
				c-4.87-5.55-10.59-10.1-16.82-14.03c-6.67-4.19-13.56-8.06-20.73-11.33c-8.14-3.71-16.61-6.67-25.4-8.37
				c-1.32-0.26-2.7,0.37-3.08,1.75c-0.34,1.22,0.41,2.82,1.75,3.08c14.97,2.89,28.84,9.42,41.81,17.27
				c6.16,3.73,11.95,7.77,16.94,13c4.61,4.83,8.45,10.32,11.57,16.21c3.51,6.62,6.01,13.71,7.63,21.02
				c1.52-0.64,3.05-1.28,4.57-1.93c-0.83-1.41-2.03-1.99-3.6-2.19c-1.72-0.23-2.71,1.77-2.41,3.16c0.93,4.34,2.06,8.69,2.63,13.1
				c0.17,1.34,1.03,2.5,2.5,2.5C269.26,121.64,270.72,120.49,270.54,119.14L270.54,119.14z"/>
		</g>
	</g>
	<g>
		<g>
			<path class="st2" d="M267.29,110.75c3.22,0,3.22-5,0-5C264.07,105.75,264.07,110.75,267.29,110.75L267.29,110.75z"/>
		</g>
	</g>
	<g>
		<g>
			<path class="st2" d="M178.43,34.31c-1.49-0.44-2.98-0.88-4.47-1.32c-0.63-0.19-1.39,0.22-1.54,0.87
				c-0.15,0.67,0.2,1.34,0.87,1.54c1.49,0.44,2.98,0.88,4.47,1.32c0.63,0.19,1.39-0.22,1.54-0.87
				C179.46,35.18,179.1,34.51,178.43,34.31L178.43,34.31z"/>
		</g>
	</g>
	<g>
		<g>
			<path class="st2" d="M171.55,35.36c0.57,0.07,1.15,0.13,1.72,0.2c0.17,0.01,0.33-0.03,0.48-0.11c0.15-0.05,0.29-0.14,0.4-0.26
				c0.12-0.11,0.21-0.25,0.26-0.4c0.08-0.15,0.11-0.31,0.11-0.48c-0.01-0.32-0.12-0.66-0.37-0.88c-0.08-0.07-0.17-0.13-0.25-0.2
				c-0.19-0.11-0.41-0.17-0.63-0.17c-0.57-0.07-1.15-0.13-1.72-0.2c-0.17-0.01-0.33,0.03-0.48,0.11c-0.15,0.05-0.29,0.14-0.4,0.26
				c-0.12,0.11-0.21,0.25-0.26,0.4c-0.08,0.15-0.11,0.31-0.11,0.48c0.01,0.32,0.12,0.66,0.37,0.88c0.08,0.07,0.17,0.13,0.25,0.2
				C171.11,35.3,171.32,35.36,171.55,35.36L171.55,35.36z"/>
		</g>
	</g>
	<g>
		<g>
			<path class="st2" d="M256.57,120.35c0.42-0.05,0.78-0.05,1.2-0.01c-0.89-0.12-1.77-0.24-2.66-0.36c0.27,0.04,0.52,0.11,0.78,0.2
				c-0.8-0.34-1.59-0.67-2.39-1.01c0.25,0.1,0.49,0.22,0.72,0.36c2.57-6.09,5.14-12.18,7.71-18.28c-4.88-1.07-9.83-2.05-14.83-2.3
				c-2.79-0.14-5.5,0.14-8.26,0.55c-2.93,0.44-5.43,1.43-8.16,2.59c5.02,2.88,10.03,5.76,15.05,8.63c0.53-7.22-0.33-14.4-1.85-21.46
				c0.12,0.89,0.24,1.77,0.36,2.66c-0.05-0.21-0.05-0.43-0.03-0.65c-0.12,0.89-0.24,1.77-0.36,2.66c0.03-0.1,0.07-0.2,0.1-0.3
				c-0.34,0.8-0.67,1.59-1.01,2.39c0.07-0.09,0.14-0.18,0.21-0.27c-1.2,1.2-2.39,2.39-3.59,3.59c0.98-0.75,2.21-1.28,3.34-1.77
				c-0.8,0.34-1.59,0.67-2.39,1.01c0.81-0.33,1.62-0.58,2.48-0.74c-0.89,0.12-1.77,0.24-2.66,0.36c0.72-0.09,1.4-0.1,2.12,0
				c-0.89-0.12-1.77-0.24-2.66-0.36c0.52,0.11,1,0.25,1.49,0.45c-0.8-0.34-1.59-0.67-2.39-1.01c0.85,0.39,1.6,0.88,2.33,1.45
				c-0.67-0.52-1.35-1.04-2.02-1.56c3.04,2.45,5.83,5.27,8.7,7.91c4.04-5.24,8.08-10.47,12.12-15.71c-0.1-0.07-0.2-0.14-0.3-0.21
				c0.67,0.52,1.35,1.04,2.02,1.56c-0.29-0.25-0.52-0.5-0.76-0.8c0.52,0.67,1.04,1.35,1.56,2.02c-1.45-2.09-2.49-4.48-3.89-6.61
				c-1.86-2.85-3.95-5.57-6.14-8.16c-3.91-4.62-8.52-8.53-13.44-12.04c-2.54-1.81-6.18-1.65-8.9-0.5c-3.05,1.29-4.61,3.47-5.79,6.48
				c-1.58,4.03-0.63,8.22-1.11,12.36c0.12-0.89,0.24-1.77,0.36-2.66c-0.11,0.72-0.27,1.39-0.54,2.06c0.34-0.8,0.67-1.59,1.01-2.39
				c-0.21,0.44-0.44,0.85-0.72,1.25c6.21,1.68,12.42,3.36,18.63,5.05c-0.03-3.28-0.41-6.52-0.89-9.76c-0.45-3-0.99-6.36-2.62-8.96
				c-2.32-3.71-6.44-5.8-10.8-5.21c-4.26,0.57-7.68,3.86-8.75,8.02c-0.7,2.72-0.43,5.45,0.65,8.02c1.01,2.39,2.8,4.81,5.24,5.92
				c2.41,1.09,5.05,1.87,7.71,1.01c2.11-0.68,3.83-1.82,5.19-3.58c1.3-1.69,2.25-3.87,2.15-6.06c-0.12-0.89-0.24-1.77-0.36-2.66
				c-0.48-1.69-1.33-3.16-2.57-4.41c-0.09-0.12-0.18-0.24-0.28-0.36c0.52,0.67,1.04,1.35,1.56,2.02c-2-2.64-3.67-5.49-4.99-8.53
				c-1.99,4.9-3.98,9.79-5.98,14.69c0.12-0.02,0.24-0.03,0.36-0.05c-0.89,0.12-1.77,0.24-2.66,0.36c0.85-0.09,1.67-0.08,2.52,0.02
				c-0.89-0.12-1.77-0.24-2.66-0.36c0.96,0.15,1.88,0.4,2.78,0.77c-0.8-0.34-1.59-0.67-2.39-1.01c0.78,0.35,1.49,0.76,2.18,1.26
				c-0.67-0.52-1.35-1.04-2.02-1.56c0.67,0.52,1.27,1.09,1.81,1.75c-0.52-0.67-1.04-1.35-1.56-2.02c0.15,0.19,0.29,0.38,0.43,0.58
				c3.76-4.9,7.53-9.79,11.29-14.69c-0.12-0.05-0.24-0.09-0.36-0.14c0.8,0.34,1.59,0.67,2.39,1.01c-0.96-0.41-1.82-0.94-2.65-1.56
				c0.67,0.52,1.35,1.04,2.02,1.56c-2.67-2.09-4.93-4.65-7.6-6.76c-3.63-2.86-7.32-5.65-10.98-8.47c-1.91-1.47-5.51-1.61-7.71-1.01
				c-2.32,0.64-4.83,2.43-5.98,4.6c-1.23,2.32-1.84,5.13-1.01,7.71c0.34,0.8,0.67,1.59,1.01,2.39c0.89,1.5,2.08,2.7,3.59,3.59
				c2.61,2.01,5.22,4.01,7.83,6.02c-0.67-0.52-1.35-1.04-2.02-1.56c2.25,1.74,4.34,3.59,6.38,5.57c1.37,1.32,2.84,2.5,4.37,3.64
				c1.64,1.22,3.48,1.97,5.4,2.7c0.89,0.12,1.77,0.24,2.66,0.36c0.89-0.12,1.77-0.24,2.66-0.36c2.1-0.58,3.88-1.88,5.19-3.58
				c1.11-1.44,1.73-2.93,1.97-4.73c0.28-2.06,0.06-4.61-1.19-6.38c-2.43-3.44-5.31-6.04-9.2-7.69c-1.82-0.77-3.34-1.19-5.3-1.45
				c-2.46-0.33-4.35-0.15-6.86,0.21c-2.97,0.43-5.4,3.22-6.48,5.79c-0.63,1.19-0.91,2.48-0.86,3.85c0.01,1.81,0.46,3.49,1.37,5.05
				c1.74,4.02,4.15,7.46,6.83,10.91c4.04-5.24,8.08-10.47,12.12-15.71c-0.18-0.06-0.34-0.15-0.49-0.27
				c0.67,0.52,1.35,1.04,2.02,1.56c-0.15-0.11-0.28-0.24-0.39-0.39c0.52,0.67,1.04,1.35,1.56,2.02c-0.11-0.15-0.21-0.31-0.28-0.48
				c0.34,0.8,0.67,1.59,1.01,2.39c-0.07-0.17-0.13-0.35-0.16-0.54c0.12,0.89,0.24,1.77,0.36,2.66c-0.04-0.3-0.04-0.54-0.01-0.83
				c-0.12,0.89-0.24,1.77-0.36,2.66c0.03-0.18,0.08-0.36,0.16-0.53c-0.34,0.8-0.67,1.59-1.01,2.39c0.04-0.08,0.09-0.16,0.13-0.24
				c-0.52,0.67-1.04,1.35-1.56,2.02c0.06-0.07,0.11-0.15,0.17-0.22c-2.36,0.98-4.71,1.95-7.07,2.93c0.09,0.01,0.19,0.01,0.28,0.02
				c-1.68-0.46-3.36-0.91-5.05-1.37c0.08,0.04,0.16,0.08,0.25,0.11c-0.67-0.52-1.35-1.04-2.02-1.56c0.07,0.06,0.14,0.12,0.21,0.19
				c-0.52-0.67-1.04-1.35-1.56-2.02c0.14,0.16,0.25,0.33,0.33,0.52c-0.34-0.8-0.67-1.59-1.01-2.39c0.83,2.05,1.13,4.47,1.44,6.65
				c-0.12-0.89-0.24-1.77-0.36-2.66c0.29,2.2,0.45,4.41,0.47,6.63c0.03,4.23,3.07,8.67,7.34,9.64c1.76,0.4,3.56,0.4,5.32,0
				c2.6-0.59,4.5-2.52,5.98-4.6c1.99-2.8,2.64-6.47,2.74-9.83c0.06-2.03-0.17-4.06,0.08-6.08c-0.12,0.89-0.24,1.77-0.36,2.66
				c0.11-0.74,0.29-1.44,0.56-2.14c-4.9,1.99-9.79,3.98-14.69,5.98c0.67,0.48,1.34,0.97,2,1.48c-0.67-0.52-1.35-1.04-2.02-1.56
				c4.15,3.22,7.88,6.94,11.11,11.09c-0.52-0.67-1.04-1.35-1.56-2.02c1.56,2.03,3,4.13,4.31,6.33c0.62,1.05,1.19,2.13,1.78,3.21
				c1.32,2.42,3.1,4.16,5.33,5.71c1.95,1.35,5.48,1.73,7.71,1.01c2.11-0.68,3.83-1.82,5.19-3.58c2.92-3.78,2.9-9.74-0.78-13.13
				c-2.49-2.29-4.96-4.62-7.48-6.88c-3.74-3.35-7.97-5.96-13.18-5.94c-2.63,0.01-5.01,0.68-7.39,1.68
				c-2.23,0.94-4.88,2.01-6.56,3.84c-1.92,2.09-3.21,4.76-3.24,7.65c-0.01,1.36,0.27,2.76,0.56,4.1c0.38,1.71,0.69,3.43,0.93,5.16
				c-0.12-0.89-0.24-1.77-0.36-2.66c0.56,4.27,0.69,8.56,0.38,12.85c-0.25,3.44,2.08,6.95,4.95,8.63c1.56,0.9,3.24,1.36,5.05,1.37
				c1.81-0.01,3.49-0.46,5.05-1.37c0.13-0.06,0.27-0.11,0.4-0.17c-0.8,0.34-1.59,0.67-2.39,1.01c1.74-0.7,3.52-1.15,5.37-1.42
				c-0.89,0.12-1.77,0.24-2.66,0.36c3.18-0.4,6.36-0.23,9.53,0.19c-0.89-0.12-1.77-0.24-2.66-0.36c2.77,0.39,5.51,0.96,8.24,1.56
				c4.91,1.08,9.81-1.07,11.8-5.79c1.9-4.51,0.25-9.99-4.09-12.49c-2.24-1.29-5.13-2.22-7.74-1.93c-2.73,0.31-5.05,0.91-7.07,2.93
				c-1.73,1.73-3.04,4.58-2.93,7.07c0.12,2.59,0.97,5.27,2.93,7.07C251.32,119.1,253.99,120.64,256.57,120.35L256.57,120.35z"/>
		</g>
	</g>
	<g>
		<g>
			<path class="st2" d="M232.45,81.23c0.12,0.12,0.23,0.25,0.34,0.38c-0.52-0.67-1.04-1.35-1.56-2.02c0.21,0.27,0.38,0.56,0.52,0.88
				c-0.34-0.8-0.67-1.59-1.01-2.39c0.14,0.33,0.23,0.67,0.29,1.03c-0.12-0.89-0.24-1.77-0.36-2.66c0.04,0.32,0.05,0.64,0.01,0.97
				c-0.05,1.38,0.24,2.66,0.86,3.85c0.4,1.24,1.09,2.31,2.07,3.22c0.91,0.98,1.98,1.66,3.22,2.07c1.19,0.63,2.48,0.91,3.85,0.86
				c0.89-0.12,1.77-0.24,2.66-0.36c1.69-0.48,3.16-1.33,4.41-2.57c0.52-0.67,1.04-1.35,1.56-2.02c0.9-1.56,1.36-3.24,1.37-5.05
				c0.03-0.31,0.03-0.61,0-0.92c-0.1-0.88-0.24-1.86-0.37-2.73c-0.01-0.03-0.01-0.07-0.02-0.1c-0.01-0.08-0.03-0.15-0.05-0.23
				c-0.04-0.16-0.08-0.31-0.14-0.46c-0.03-0.07-0.05-0.14-0.08-0.21c-0.33-0.79-0.68-1.66-1.03-2.44c-0.02-0.04-0.04-0.08-0.05-0.12
				c-0.07-0.14-0.14-0.27-0.22-0.4c-0.04-0.06-0.08-0.13-0.13-0.19c-0.02-0.03-0.04-0.05-0.06-0.08c-0.5-0.67-1.08-1.43-1.61-2.08
				c-0.1-0.13-0.21-0.25-0.32-0.36c-0.91-0.98-1.98-1.66-3.22-2.07c-1.19-0.63-2.48-0.91-3.85-0.86c-1.38-0.05-2.66,0.24-3.85,0.86
				c-1.24,0.4-2.31,1.09-3.22,2.07c-0.52,0.67-1.04,1.35-1.56,2.02c-0.9,1.56-1.36,3.24-1.37,5.05c0.12,0.89,0.24,1.77,0.36,2.66
				C230.35,78.52,231.21,79.99,232.45,81.23L232.45,81.23z"/>
		</g>
	</g>
	<g>
		<g>
			<path class="st2" d="M212.01,45.01c-4.82-1.92-9.74-3.6-14.73-5.04c-2.3-0.67-4.37,2.51-2.43,4.18c1.44,1.24,2.88,2.48,4.32,3.72
				c0.65,0.56,1.32,1.11,1.91,1.74c0.38,0.41,0.6,0.72,0.72,1.15c0.25,0.9,0.35,1.73,1.05,2.43c0.92,0.94,2.48,1.21,3.63,0.54
				c0.82-0.48,1.13-1.2,1.53-2c0.34-0.7,0.76-1.29,1.29-1.84c1.14-1.18,0.87-3.07-0.51-3.93c-2.51-1.56-5.29-2.6-8.08-3.55
				c-2.87-0.97-5.75-1.93-8.63-2.89c-1.28-0.43-2.73,0.49-3.08,1.75c-0.37,1.36,0.46,2.65,1.75,3.08c2.76,0.92,5.53,1.84,8.29,2.77
				c2.51,0.85,4.97,1.75,7.22,3.16c-0.17-1.31-0.34-2.62-0.51-3.93c-0.59,0.61-1.14,1.29-1.6,2.01c-0.17,0.27-0.33,0.55-0.47,0.84
				c-0.1,0.19-0.18,0.39-0.26,0.59c-0.13,0.27-0.12,0.27,0.02,0.01c0.37-0.21,0.74-0.43,1.1-0.64c-0.07,0.01-0.14,0.03-0.21,0.04
				c0.44,0,0.89,0,1.33,0c0.19,0.09,0.38,0.19,0.57,0.28c0.21,0.37,0.43,0.74,0.64,1.1c-0.39-1-0.46-2-1.05-2.95
				c-0.57-0.91-1.31-1.7-2.1-2.41c-1.76-1.57-3.57-3.08-5.35-4.62c-0.81,1.39-1.62,2.79-2.43,4.18c4.99,1.44,9.9,3.12,14.73,5.04
				c1.26,0.5,2.75-0.55,3.08-1.75C214.15,46.66,213.27,45.51,212.01,45.01L212.01,45.01z"/>
		</g>
	</g>
</g>
<g>
	<g>
		<path class="st2" d="M229.73,125.48c1.46-2.22,4.92-2.06,7.23-2.22c3.4-0.24,6.59-1.42,9.97-1.7c6.96-0.58,13.79,1.26,20.44,3.05
			c3.11,0.84,4.44-3.98,1.33-4.82c-7.5-2.02-15.35-4.07-23.17-3.08c-1.92,0.24-3.76,0.71-5.64,1.14c-1.72,0.39-3.44,0.42-5.19,0.56
			c-3.65,0.31-7.17,1.34-9.28,4.55C223.64,125.65,227.96,128.16,229.73,125.48L229.73,125.48z"/>
	</g>
</g>
<g>
	<g>
		<path class="st2" d="M178.22,38.56c3.22,0,3.22-5,0-5C175,33.56,175,38.56,178.22,38.56L178.22,38.56z"/>
	</g>
</g>
<line class="st3" x1="100.48" y1="126.25" x2="148.42" y2="217.65"/>
<line class="st3" x1="58.73" y1="124.52" x2="142.22" y2="219.69"/>
<path class="st4" d="M126.81,271.76l0.58-4.12l-0.43,37.69c2.57-0.01,5.15,0.04,7.72,0.21c10.55,0.71,21.06,0.7,31.63,0.43
	c6.34-0.16,12.68-0.14,19.02-0.06c1.7-0.68,3.51-1.07,5.34-1.07c3.19,0,6.38,0.01,9.57,0.01l-0.42-37.21l0.58,4.12
	c6.68,3.02,30.98-9.96,29.03-13.13l-17.13-31.14c0,0-1.65-4.75-8.98-6.97l-21.05-5.26l-2.04-0.47c-0.54-0.01-0.44,0.3-0.44,0.3
	c-0.01,0.75-0.11,1.71-0.44,2.63l-2.76,10.21l-0.01,0.02c-0.14,0.45-0.55,0.73-1.02,0.73c-0.18,0-0.32-0.03-0.48-0.11l-0.03-0.02
	l-10.32-5.26l-0.84,0.69l-0.84-0.69l-10.31,5.27l-0.52,0.12c-0.47,0-0.89-0.31-1.03-0.75l-0.01-0.06l-2.76-10.21
	c-0.36-0.99-0.44-2.05-0.44-2.82l0.01-0.28l-3.04,0.7l-21.05,5.26c-7.33,2.22-8.98,6.97-8.98,6.97l-17.13,31.14
	C95.83,261.8,120.14,274.78,126.81,271.76z"/>
<path class="st3" d="M154.29,207.63l-12.64-79.66c-4.4-66.45,20.78-95.17,20.78-95.17s27.1,31.79,21.35,95.17
	c0,0-2.87,44.23-9.57,58.6"/>
<path class="st3" d="M161.75,32.8c0,0,67.98,10.15,63.57,94.4l-47.11,92.11"/>
<line class="st3" x1="266.88" y1="125.29" x2="182.24" y2="224.67"/>
<path class="st5" d="M154.34,251.76c0,0,0.58,2.11,0.86,0s-0.43-3.45-0.43-3.45s-1.93-1.22-1.56-3.65c0.37-2.43,0.27-3.79,1.8-4.35
	c0,0,2.83-0.05,4.08-0.36s2.53,0.61,2.53,0.61s1.53,1.47,2,3.08c0.47,1.6,0.26,1.99,0.26,1.99s1.66,2.35,0.05,4.46
	c0,0-0.44,1-2.38,1.82c0,0-1.58,1.17-1.73,1.64s-0.28,0.33-0.28,0.33s-0.27-1.1,0.21-1.81c0.48-0.7-0.31-0.32-0.31-0.32l-1.43,2.85
	c0,0-0.65,0.88-0.67-0.31s0.22-3.27,0.22-3.27s-0.36-1.95-0.84-0.11s-0.29,4.63-0.29,4.63s-0.03,2.2-0.81,0.61
	c0,0-0.94-3.14-1.84-3.22c-0.9-0.09-0.75,0.76-0.75,0.76l1.67,2.5c0,0,0.72,1.94-0.84,0.63c0,0-1.29-1.95-3.9-2.58
	c-2.61-0.62-1.34,1.35-1.34,1.35s2.97,0.11,3.7,1.6c0,0,1.43,1.18,0.03,1.42c0,0-1.02-0.16-1.39-0.32
	c-0.37-0.16-4.57,0.18-4.57,0.18s-2.12,1.38-3.48,0.29s-2.03-3.18-2.03-3.18s-0.83-3.37,1.6-5.19c2.43-1.81,2.13-2.88,2.13-2.88
	s0.19-2.19,4.24-1.65S154.34,251.76,154.34,251.76z"/>
<path class="st5" d="M152.08,261.17c0,0-1.69,0.13,0.18,1.35h0.78c0,0,2.42,0.02,1.09,1.13c-1.33,1.11-3.33,2.05-3.33,2.05
	s-3.16,1.84-0.73,2.08c2.43,0.24,3.9-2.6,3.9-2.6s1.71-2.22,0.63,1s-1.41,3.49-0.85,4.01c0.56,0.52,1.79-2.69,1.79-2.69
	s-0.11-3.07,0.85-2.91c0.96,0.16,0.33,3.79,0.33,3.79l-0.05,4.08c0,0-0.49,4.41-3.34,5.37s-3,0.49-4.41-1.21
	c0,0-3.84,1.76-5.81-3.38c-1.97-5.14-0.65-7.89-0.65-7.89s0.64-1.24,1.22-1.23c0.01,0,0.02,0,0.03,0l-0.03-0.18
	c0,0-0.5-3.08,2.18-3.99c2.67-0.91,4.06-0.63,4.06-0.63s4.39,0.3,4.87,1.3s-2.59,0.55-2.59,0.55H152.08z"/>
<path class="st6" d="M168.07,249.54c-10.4,3.72-11.69,11.06-11.69,11.06s-0.07,2.78,1.68,0.57c0,0,1.94-8.46,10.89-10.99
	c0,0-1.46,3.28,0.97,3.28c0,0,1.24,0.58,0.95-2.48c0,0,1.29,3.48,2.77,1.7s-1.51-3.57-1.51-3.57s3.01-0.24,2.48-2.14
	c-0.53-1.9-2.65-0.88-2.65-0.88l-0.97,0.9c0,0,0.46-3.82-1.68-2.24s-0.19,2.5-0.19,2.5s-1.56-1.26-2.09,0.17
	c-0.53,1.43,0.92,1.99,0.92,1.99L168.07,249.54z"/>
<path class="st6" d="M162.84,279.38c0,0-6.85,2.19-4.91-6.15l-0.02-0.17c0,0-0.56-4.3,0-7.19c0.56-2.89,1.02-0.05,1.02-0.05
	l0.39,3.33c0.95,1.97,1.05,0.22,1.05,0.22s-0.78-5.27,0-3.04c0.78,2.24,1.48,2.45,1.48,2.45c1.65,0.83-0.29-2.07-0.29-2.07
	c-1.05-2.19,1.63,0.24,1.63,0.24c2.28,3.18,2.31,0.12,2.31,0.12s-0.98-2.36-3.97-2.92c-2.99-0.56,1.9-2.24,1.9-2.24
	c3.55,0.24,3.04-0.22,3.04-0.22s0.63-1.99-2.75-1.39c-3.38,0.61-0.24-1.43-0.24-1.43s2.48,0.36,2.84-1.22
	c0.36-1.58-3.84-0.05-3.84-0.05c-3.4,2.31,0-1.6,0-1.6s3.4-3.69,5.64-2.16c2.24,1.53,2.84,1.41,2.84,1.41s2.19,0.31,2.89,4.43
	c0.7,4.12-0.49,5.58-0.49,5.58s-2.14,2.72-4.81-0.74l-0.1-0.13c0,0-5.86-1.39-0.94,0.95c4.92,2.33,1.42,7.51,1.42,7.51
	s1.85,7.95-5.95,6.51H162.84z"/>
<path class="st5" d="M204.95,223.05c0,0-3.28,2.65-3.68,2.72s-1.33,0.52-1.33,0.52c-1.03,0.98,0.83,1.15,0.83,1.15
	c1.44,0.81,3.96-0.77,3.96-0.77S205.31,227.03,204.95,223.05z"/>
<path class="st5" d="M192.56,217.88c-0.12,0.86,0.23,2.96,0.23,2.96s1.82,2.47,0.94,2.88s-2.4-2.94-2.4-2.94l-2.26-3.4
	c0,0-0.08-0.15-0.19-0.41L192.56,217.88z"/>
<path class="st5" d="M195.87,218.71c-0.74,1.37-0.53,3.08-0.53,3.08s-0.16,2.8-1.09-0.47c-0.51-1.81-0.55-2.71-0.74-3.2
	L195.87,218.71z"/>
<path class="st5" d="M205.19,221.24c0.11,0.05-0.13,0.2-0.2,0.3c-1.7,2.25-3,2.81-3,2.81s-3.8,2.23-4.75,1.67
	c-0.96-0.56,1.83-1.91,1.83-1.91l0.1-0.07c0,0,1.32-1.06-0.91-1.02l-0.64,0.44c0,0-2.01,1.35-1.54-0.32c0.47-1.67,1.6-3.57,1.6-3.57
	s0.07-0.15,0.16-0.37C197.83,219.2,203.22,220.4,205.19,221.24z"/>
<path class="st5" d="M187.19,216.54c0.12,0.26,0.23,0.53,0.34,0.82l0.12,0.13c0,0,2.89,3.24,4.05,5.94s-0.82,0.62-0.82,0.62
	l-2.2-2.53c-1.89-1.09-0.99,0.41-0.99,0.41s3.61,3.92,1.71,2.51c-1.9-1.41-2.61-1.19-2.61-1.19c-1.83,0.25,1.4,1.54,1.4,1.54
	c2.1,1.22-1.48,0.72-1.48,0.72c-3.68-1.34-1.98,1.2-1.98,1.2s2.14,1.4,4.92,0.18c2.79-1.22-0.31,2.92-0.31,2.92
	c-3.07,1.8-2.39,1.89-2.39,1.89s0.6,2,3.05-0.4c2.45-2.41,1.01,1.05,1.01,1.05s-2.25,1.1-1.67,2.61c0.59,1.51,3.2-2.12,3.2-2.12
	c1.51-3.82,0.9,1.33,0.9,1.33s-0.73,4.97-3.44,4.96c-2.71-0.01-3.14,0.44-3.14,0.44s-1.98,0.97-4.89-2.03
	c-2.9-3.01-2.74-4.88-2.74-4.88s0.23-3.45,4.39-2.1l0.16,0.06c0,0,5.62-2.16,0.24-1.31c-5.38,0.84-5.41-5.4-5.41-5.4
	s-0.33-0.31-0.74-0.81l1.75-6.51c0,0,0.17-1.37,0.13-1.62c-0.04-0.24,0.66,0,0.66,0l3.5,0.8l2.26,0.57L187.19,216.54z"/>
<path class="st7" d="M188.24,217.6"/>
<path class="st5" d="M145.36,294.56c0,0-0.92,1.98-0.85-0.14c0.07-2.12,0.98-3.34,0.98-3.34s2.1-0.89,2.12-3.35
	c0.02-2.46,0.35-3.79-1.07-4.58c0,0-2.78-0.5-3.97-1.01c-1.19-0.51-2.59,0.19-2.59,0.19s-1.75,1.21-2.47,2.72s-0.58,1.93-0.58,1.93
	s-2.01,2.05-0.76,4.39c0,0,0.28,1.06,2.06,2.18c0,0,1.37,1.41,1.45,1.89c0.08,0.49,0.23,0.37,0.23,0.37s0.44-1.04,0.08-1.82
	s0.35-0.26,0.35-0.26l0.95,3.04c0,0,0.5,0.98,0.71-0.2c0.22-1.17,0.31-3.26,0.31-3.26s0.67-1.87,0.85,0.03
	c0.17,1.9-0.46,4.62-0.46,4.62s-0.32,2.18,0.7,0.73c0,0,1.43-2.94,2.33-2.89c0.9,0.06,0.62,0.87,0.62,0.87l-2.05,2.2
	c0,0-1.02,1.79,0.73,0.76c0,0,1.59-1.72,4.26-1.91c2.68-0.2,1.1,1.55,1.1,1.55s-2.94-0.37-3.91,0.98c0,0-1.61,0.94-0.26,1.39
	c0,0,1.03,0,1.43-0.1c0.39-0.1,4.48,0.91,4.48,0.91s1.87,1.7,3.39,0.85c1.52-0.85,2.51-2.82,2.51-2.82s1.37-3.19-0.74-5.37
	c-2.11-2.18-1.64-3.18-1.64-3.18s0.16-2.19-3.92-2.31C147.66,289.53,145.36,294.56,145.36,294.56z"/>
<path class="st5" d="M145.69,305.52l-0.77-0.13c0,0-1.91-0.29-1.5,0.58c3.51,0.12,7.02,0.17,10.53,0.17
	c-0.1-0.76-0.49-1.58-1.53-2.13c-2.49-1.32-3.9-1.28-3.9-1.28s-4.38-0.41-5.01,0.5c-0.63,0.91,2.47,0.96,2.47,0.96l0.11,0.02
	C146.08,304.21,147.72,304.62,145.69,305.52z"/>
<path class="st6" d="M127.74,285.67c0.62,0.1,1.15,0.47,1.15,0.47l0.81,1.04c0,0,0.16-3.84,2.02-1.94c1.86,1.9-0.21,2.5-0.21,2.5
	s1.74-1,2.04,0.5c0.3,1.5-1.23,1.82-1.23,1.82l-0.14,0.1c9.67,5.35,9.76,12.8,9.76,12.8s-0.38,2.76-1.75,0.29
	c0,0-0.55-8.67-8.98-12.6c0,0,0.91,3.47-1.49,3.08c0,0-1.32,0.38-0.54-2.6c0,0-0.71,1.24-1.52,1.71L127.74,285.67z"/>
<path class="st5" d="M128.74,305.35c0.17-0.14,0.35-0.29,0.54-0.46l0.12-0.12c0,0,4.67-0.33,2.18,0.63
	c1.04,0.03,2.07,0.07,3.11,0.14c0.56,0.04,1.11,0.07,1.67,0.1c2.87-0.11-1.59-2.51-1.59-2.51c-3.54-0.33-2.96-0.71-2.96-0.71
	s-0.3-2.07,2.93-0.92c3.24,1.14,0.47-1.38,0.47-1.38s-2.51-0.04-2.61-1.66s3.8,0.57,3.8,0.57c2.99,2.83,0.26-1.58,0.26-1.58
	s-2.76-4.19-5.22-3.04s-3.03,0.93-3.03,0.93s-0.31-0.01-0.78,0.2l-0.11,9.79C127.92,305.34,128.33,305.35,128.74,305.35z"/>
<path class="st6" d="M199.83,273.46c-0.29,0.17-0.49,0.31-0.54,0.37c-0.24,0.33-1.03,0.99-1.03,0.99c-1.32,0.52-0.7-1.23-0.7-1.23
	c-0.11-1.45,1.78-2.87,2.25-3.2L199.83,273.46z"/>
<path class="st8" d="M174.53,270.15"/>
<path class="st6" d="M200.5,262.28c-1.16-0.42-1.31-0.96-1.31-0.96s-1.29-1.78-4.48,0.76c-3.19,2.54-1.7,7.87-1.7,7.87
	s0.58,2.11-0.74,0.44c-1.32-1.67-1.41-3.18-1.41-3.18s1.03-2.03-0.54-3.93s-2.18-3.11-3.78-2.81c0,0-2.45,1.41-3.69,1.79
	c-1.24,0.38-1.86,1.82-1.86,1.82s-0.56,2.05-0.13,3.67c0.42,1.62,0.8,1.84,0.8,1.84s-0.21,2.87,2.25,3.85c0,0,0.9,0.63,2.98,0.34
	c0,0,1.95,0.19,2.33,0.51c0.37,0.32,0.41,0.14,0.41,0.14s-0.34-1.08-1.11-1.44s0.1-0.43,0.1-0.43l2.69,1.71c0,0,1.01,0.42,0.42-0.61
	c-0.59-1.03-1.87-2.69-1.87-2.69s-0.69-1.86,0.67-0.52c1.36,1.34,2.63,3.82,2.63,3.82s1.16,1.87,1.01,0.1c0,0-0.81-3.17-0.08-3.71
	s1.04,0.27,1.04,0.27l-0.14,3.01c0,0,0.38,2.03,1.05,0.11c0,0,0.1-2.34,2.02-4.21c1.13-1.11,1.57-0.74,1.74-0.26L200.5,262.28z"/>
<path class="st9" d="M200.01,283.95c-0.3-0.52-1.51-2.48-2.16-1.94c-0.74,0.63,1.67,3.42,1.67,3.42l0.47,0.77"/>
<path class="st6" d="M200,282.27c-1.77-1.56-0.58-1.28-0.01-1.09L200,282.27z"/>
<path class="st6" d="M199.97,280.12c-0.22-0.02-0.44-0.05-0.66-0.08c-1.71-0.27,0.36-1.53,0.36-1.53l0.24-0.14L199.97,280.12"/>
<path class="st6" d="M199.93,276.85c0,0-2.63,2.03-2.74,0.93c-0.08-0.77,1.66-2.23,2.72-3.04L199.93,276.85z"/>
<path class="st6" d="M180.1,275.12c10.83-2.16,15.71,3.48,15.71,3.48s1.49,2.35-1.15,1.35c0,0-6.02-6.26-14.99-3.83
	c0,0,2.94,2.06,0.85,3.31c0,0-0.76,1.14-2.09-1.64c0,0,0.68,3.64-1.5,2.88c-2.18-0.76-0.54-3.84-0.54-3.84s-2.71,1.34-3.23-0.56
	c-0.52-1.9,1.82-2.11,1.82-2.11l1.3,0.27c0,0-2.36-3.04,0.29-2.78c2.65,0.26,1.45,2.05,1.45,2.05s0.68-1.88,1.88-0.93
	c1.2,0.95,0.23,2.18,0.23,2.18"/>
<path class="st6" d="M200.06,288.29c-0.69-1.34-1.73-3.16-2.85-4.4c-1.97-2.19-0.9,0.48-0.9,0.48l1.38,3.06
	c0.2,2.18-0.78,0.73-0.78,0.73s-2.04-4.92-1.56-2.61s-0.01,2.87-0.01,2.87c-0.99,1.56-0.81-1.92-0.81-1.92
	c-0.23-2.41-1.27,1.05-1.27,1.05c-0.32,3.91-1.92,1.29-1.92,1.29s-0.37-2.52,1.9-4.54c2.28-2.02-2.78-0.94-2.78-0.94
	c-2.92,2.03-2.72,1.37-2.72,1.37s-1.57-1.38,1.64-2.6c3.21-1.22-0.53-1.35-0.53-1.35s-1.94,1.59-3.06,0.42s3.27-2.02,3.27-2.02
	c4.11,0.23-0.82-1.38-0.82-1.38s-4.82-1.42-5.95,1.04c-1.13,2.46-1.71,2.67-1.71,2.67s-1.72,1.39-0.2,5.29
	c1.51,3.9,3.29,4.54,3.29,4.54s3.23,1.23,3.75-3.11l0.02-0.16c0,0,4.31-4.2,1.29,0.33c-3.02,4.53,2.64,7.17,2.64,7.17
	s2.87,7.74,8.82,2.5L200.06,288.29z"/>
<path class="st8" d="M127.74,289.32c0.29-0.15,0.5-0.24,0.5-0.24s-0.22-0.06-0.53-0.17"/>
<path class="st7" d="M201.06,289.47"/>
<path class="st6" d="M122.34,227.63c0.13,0,0.21-0.01,0.21-0.01c1.08-0.42,0.18-1.08-0.18-1.3L122.34,227.63z"/>
<path class="st6" d="M122.31,224.66c0.83,0.45,1.29,0.9,1.29,0.9c1.8,0.96,0.7-0.79,0.7-0.79l-1.99-1.96L122.31,224.66z"/>
<path class="st6" d="M125.24,220.38c0.14,1.67,0.62,3.41,0.62,3.41s0.41,2.16-0.67,0.76c0,0-1.55-2.88-2.45-2.79
	c-0.19,0.02-0.33,0.07-0.43,0.15l0-0.55L125.24,220.38z"/>
<path class="st6" d="M127.94,219.82l-0.72,2.71c0,0-0.46,1-0.72-0.17c-0.14-0.63-0.26-1.53-0.34-2.22L127.94,219.82z"/>
<path class="st6" d="M130.28,219.17c0,0-1.31,1.46-1.37,1.95c-0.06,0.49-0.21,0.38-0.21,0.38s-0.48-1.03-0.16-1.81
	c0.02-0.04,0.03-0.09,0.05-0.12L130.28,219.17z"/>
<path class="st9" d="M123.62,220.93c0.25,0.38,0.63,0.82,0.64-0.07"/>
<path class="st6" d="M124.62,235.32c0.55-0.82,0.77-1.63,0.77-1.63s1.23-2.52,0.82,0.85s-0.67,3.71-0.02,4.1s1.21-2.99,1.21-2.99
	s-0.73-2.98,0.24-3.02s1.09,3.64,1.09,3.64l0.78,4.01c0,0,0.41,4.41-2.19,5.94c-0.61,0.36-0.95,0.6-1.35,0.76l-0.06-2.9
	c0,0,0.01-3.95-0.4-4.78l-0.4-1.94L124.62,235.32z"/>
<path class="st6" d="M124.1,233.4c0.4-0.38,0.81-0.8,1.15-1.23c1.08-1.36-1.3-0.89-1.3-0.89l-0.52,0.11L124.1,233.4z"/>
<path class="st6" d="M123.01,230.13c0,0,3.09-0.18,2.42-1.07c-0.35-0.46-1.69-0.52-2.9-0.47L123.01,230.13z"/>
<path class="st6" d="M133.73,218.25c-5,4.51-5.14,10.69-5.14,10.69c-1.27,2.53-1.76-0.21-1.76-0.21s-0.15-5.03,5.03-10.01
	L133.73,218.25z"/>
<path class="st9" d="M130.34,240.29"/>
<path class="st9" d="M122.74,229.41c-0.56,0.07-1.16,0.01-1.66-0.39c-1.36-1.09-2.03-3.18-2.03-3.18s-0.3-1.23-0.01-2.6"/>
<polygon class="st10" points="184.3,208.55 143.14,208.55 143.24,195.5 184.4,195.5 "/>
<path class="st6" d="M125.92,247.14c-1.29,0.11-3.36-0.32-4.64-3.65c-1.97-5.14-0.65-7.89-0.65-7.89s0.64-1.24,1.22-1.23
	c0.01,0,0.02,0,0.03,0l0.03-0.11c0,0-0.43-2.38,1.25-3.62c0,0,1.28,3.28,2.46,8.98l0.3,2.92c0,0,0.03,1.35-0.06,1.85
	C125.77,244.87,125.92,247.14,125.92,247.14z"/>
<path class="st6" d="M127.58,266.53c-1.77-0.44-2.99,1.06-4.22,2.04c-1.49,1.19-3.36,1.47-4.99,2.39c0,0,4.2,1.9,8.99,0.86
	l0.53-4.51L127.58,266.53z"/>
<path class="st6" d="M124.18,261.99c0,0,1.81,2.76-0.26,4.68c-2.07,1.92-3.44,2.24-3.44,2.24s-4.13,1.53-4.97,0.81
	s2.13-1.57,2.13-1.57l0.11-0.05c0,0,1.49-0.81-0.71-1.16l-0.71,0.32c0,0-2.22,0.98-1.46-0.58c0.76-1.56,2.2-3.23,2.2-3.23
	s2.13-2.97-0.19-2.19c-2.31,0.78-2.49,3.97-2.49,3.97s-0.65,2.73-0.99-0.66c-0.34-3.39-0.15-3.76-0.87-4.01
	c-0.72-0.24-0.53,3.18-0.53,3.18s1.36,2.75,0.42,3s-1.85-3.32-1.85-3.32l-1.63-3.74c0,0-1.36-4.22,0.85-6.27
	c2.2-2.05,2.53-1.67,4.51-0.7c0,0,2.78-3.18,6.68,0.7c3.9,3.88,3.83,6.93,3.83,6.93s-0.08,1.39-0.61,1.63
	C124.18,261.99,124.18,261.99,124.18,261.99"/>
<path class="st11" d="M108.12,259.87"/>
<path class="st6" d="M219.17,240.04c-0.02,0.53,0.13,0.77-0.05,1.43c-1.4,5.32-4.07,6.79-4.07,6.79s-1.24,0.63-1.71,0.29
	c-0.01-0.01-0.02-0.01-0.02-0.02l-0.09,0.15c0,0-1.38,2.81-4.09,1.99c-2.7-0.82-3.67-1.85-3.67-1.85s-3.4-2.8-3.2-3.89
	c0.2-1.09,2.43,1.06,2.43,1.06l0.09,0.07c0,0,1.45,0.88,0.64-1.2l-0.63-0.45c0,0-1.96-1.43-0.23-1.56s3.9,0.28,3.9,0.28
	s3.64,0.35,1.8-1.26c-1.84-1.61-4.69-0.16-4.69-0.16s-2.69,0.81,0.07-1.18s3.18-2.02,3.03-2.76c-0.15-0.75-3.02,1.14-3.02,1.14
	s-1.7,2.56-2.39,1.87c-0.69-0.69,1.94-3.27,1.94-3.27l2.42-3.29c0,0,2.97-3.29,5.85-2.42c0.99,0.3,1.18,0.65,1.59,0.95
	L219.17,240.04z"/>
<path class="st7" d="M207.1,233.59"/>
<path class="st6" d="M206.18,271.96c-0.1,0.02-0.86,0.09-0.96,0.1c0.3-0.86,1.31-2.67,1.43-3.56c0.16-1.28,1.48-2.14,1.48-2.14
	s1.93-0.9,3.59-0.76c1.67,0.14,1.95,0.48,1.95,0.48s2.78-0.7,4.17,1.55C217.84,267.62,211.61,271.11,206.18,271.96z"/>
<path class="st6" d="M219.74,266.8c-0.09-0.99-0.09-1.98,0-2.96c0.78,0.76,2.68,2.02,3.38,0.42c0.52-1.19-1.05-1.69-1.94-1.92
	c1.14,0,3.94-0.64,2.44-2.36c-0.92-1.05-2.84-0.15-3.73,0.5c0.27-1.02,0.31-2.91-1.04-3.14c-2.19-0.38-1.83,2.27-1.35,3.45
	c-0.87-0.46-2.59-1.23-2.85,0.27c-0.22,1.25,1.38,2.55,2.43,1.58c-1.98,1.11,0.17,3.38,1.6,1.87l0.16-0.07
	c-0.02,0.92,0,1.85,0.07,2.76L219.74,266.8z"/>
<path class="st12" d="M184.65,195.74"/>
<line class="st12" x1="143.13" y1="206.74" x2="143.13" y2="195.74"/>
<path class="st13" d="M149.49,210.75l-1.48,3.08c0,0,0.01,0.22-0.02,0.57"/>
<path class="st13" d="M163.05,223.29"/>
<path class="st13" d="M152.22,227.6"/>
<path class="st13" d="M165.3,223.29"/>
<path class="st14" d="M127.94,267.71"/>
<path class="st13" d="M125.92,248.07c0,0-3.89-2.83-5.1-6.75"/>
<path class="st13" d="M126.35,254.17c0,0-2.18,0.09-2.55,3.64"/>
<path class="st15" d="M184.4,184.47c0,0-3.46-17.78-20.56-17.78h0.1c-17.1,0-20.56,17.78-20.56,17.78"/>
<path class="st15" d="M163.75,202.79c19.68-0.24,20.89-7.06,20.89-7.06v-8.76c0-8.93-9.24-16.17-20.64-16.17h-0.24
	c-11.4,0-20.64,7.24-20.64,16.17v8.76c0,0,1.21,6.82,20.89,7.06"/>
<path class="st16" d="M173.36,210.64c-1.47,3.71-4.35,9.31-9.34,13.23l-0.31-0.03c-4.98-3.92-7.85-9.5-9.31-13.2L173.36,210.64z"/>
<path class="st13" d="M178.23,210.64l1.48,3.08c0,0,0.06,0.71,0.08,1.21"/>
<path class="st4" d="M144.94,215.25"/>
<path class="st13" d="M163.05,223.29"/>
<path class="st13" d="M152.22,227.6"/>
<path class="st13" d="M165.3,223.29"/>
<path class="st4" d="M154.4,210.64c1.38,3.48,4,8.62,8.45,12.48l0.2,0.17l-10.31,5.27l-0.52,0.12c-0.47,0-0.89-0.31-1.03-0.75
	l-0.01-0.06l-2.76-10.21c-0.36-0.99-0.44-2.05-0.44-2.82l0.01-0.28l0.01-0.16c0.02-0.36,0.02-0.57,0.02-0.57l1.48-3.08L154.4,210.64
	z"/>
<path class="st4" d="M178.23,210.64l1.48,3.08c0,0,0.06,0.71,0.08,1.21l0,0.16c-0.01,0.75-0.11,1.71-0.44,2.63l-2.76,10.21
	l-0.01,0.02c-0.14,0.45-0.55,0.73-1.02,0.73c-0.18,0-0.32-0.03-0.48-0.11l-0.03-0.02l-10.32-5.26l0.24-0.2
	c4.99-3.92,6.93-8.74,8.4-12.45L178.23,210.64z"/>
<path class="st13" d="M175.55,227.6"/>
<path class="st13" d="M162.48,223.29"/>
<path class="st13" d="M152.22,227.6"/>
<path class="st13" d="M165.3,223.29"/>
<path class="st13" d="M175.55,227.6"/>
<path class="st13" d="M162.48,223.29"/>
<path class="st15" d="M163.88,211.53c12.11-0.18,17.16-1.26,19.31-1.82c1.72-0.45,1.45-1.53,1.45-1.53v-1.44
	c0,0-7.23,1.96-20.56,1.82h-0.4c-13.33,0.15-20.56-1.82-20.56-1.82v1.44c0,0-0.27,1.08,1.45,1.53c2.15,0.56,7.2,1.64,19.31,1.82"/>
<line class="st12" x1="184.65" y1="206.74" x2="184.65" y2="195.74"/>
<path class="st13" d="M164.72,223.29"/>
<path class="st13" d="M175.55,227.6"/>
<path class="st13" d="M162.48,223.29"/>
<path class="st14" d="M199.83,267.71"/>
<path class="st13" d="M201.85,248.07c0,0,3.89-2.83,5.1-6.75"/>
<path class="st13" d="M201.42,254.17c0,0,2.18,0.09,2.55,3.64"/>
<path class="st7" d="M188.24,217.6"/>
<path class="st6" d="M200,286.19l-0.47-0.77c0,0-2.41-2.79-1.67-3.42c0.65-0.55,1.85,1.42,2.16,1.94L200,286.19z"/>
<path class="st7" d="M201.06,289.47"/>
<path class="st13" d="M163.82,223.92c-0.4,27.5-0.4,54.5,0,81.64"/>
<path class="st9" d="M130.34,240.29"/>
<path class="st6" d="M122.74,229.41c-0.56,0.07-1.16,0.01-1.66-0.39c-1.36-1.09-2.03-3.18-2.03-3.18s-0.3-1.23-0.01-2.6l1.99-1.26
	l1.31-0.63l-0.04,6.76L122.74,229.41z"/>
<path class="st11" d="M108.12,259.87"/>
<path class="st7" d="M207.1,233.59"/>
<path class="st13" d="M163.05,223.29"/>
<path class="st13" d="M152.22,227.6"/>
<path class="st13" d="M122.31,221.36v6.7c0,0,3.99,10.17,3.58,15.67c-0.4,5.5,2.05,23.77,2.05,23.77"/>
<path class="st13" d="M165.3,223.29"/>
<path class="st17" d="M101.8,304.31c1.66-0.14,3.34-0.05,4.96,0.31c3.71,0.82,7.81,0.85,12.99,0.8c7.86-5.87,5.07-17.8,5.07-17.8h0
	l-0.09-0.22c2.28-3.42,1.88-9.61,0.79-15.26c0,0-6.15,1.75-23.49-8.35c0,0-5.51,14.8-4.04,23.7l0.03,0.13
	C98.02,287.61,95.55,298.17,101.8,304.31z"/>
<path class="st14" d="M127.94,267.71"/>
<path class="st18" d="M122.11,289.55c1.12-0.45,1.98-1.2,2.63-2.16"/>
<path class="st17" d="M202.39,287.61c0,0-2.62,11.21,4.38,17.25c2.7,0,5.4,0,8.1-0.01c3.5-0.02,6.88-0.26,10.18-0.19
	c6.71-6.08,4.15-17.05,4.15-17.05l0.03-0.13c1.47-8.9-4.04-23.7-4.04-23.7c-17.34,10.09-23.49,8.35-23.49,8.35
	c-1.08,5.65-1.48,11.84,0.79,15.26L202.39,287.61z"/>
<path class="st18" d="M229.22,287.48c-0.48,2.88-1.68,5.14-4.04,6.08"/>
<path class="st18" d="M205.1,289.55c-1.12-0.45-1.98-1.2-2.63-2.16"/>
<path class="st13" d="M164.72,223.29"/>
<path class="st13" d="M175.55,227.6"/>
<path class="st13" d="M162.48,223.29"/>
<path class="st14" d="M199.83,267.71"/>
<path class="st5" d="M175.66,305.85c3.22-0.01,6.44,0.02,9.66,0.06c1.7-0.68,3.51-1.07,5.34-1.07c1.04,0,2.09,0,3.13,0
	c-0.7-2.13-3.28-2.03-3.28-2.03l-0.21-0.27c0-0.01,0.01-0.02,0.01-0.03c0.12-0.57-0.96-1.45-0.96-1.45s-2.43-1.85-7.86-0.97
	c-5.43,0.88-4.49,5-4.49,5C176.44,305.41,176,305.62,175.66,305.85z"/>
<path class="st5" d="M200.22,304.86l-0.05-3.19c-0.56-0.09-0.94-0.07-0.94-0.07s-2.19,0.21-3.54,1.31c-0.61,0.5-0.75,1.26-0.73,1.95
	C196.72,304.85,198.47,304.85,200.22,304.86z"/>
<path class="st5" d="M108.33,266.79c-0.63-0.94-2.12-2.78-1.4-3.4c0.75-0.63,1.72,1.58,1.99,2.06c0.35,0.62,1.47,2.76,1.63,1.13
	c0.22-2.25-1.9-5.12-3-6.92l-0.09-0.15c-1.64-8.4-7.45-3.87-7.45-3.87l-1.58,2.88c0,0-0.59,0.65,0.15,1.54
	c0.74,0.89,1.2,1.58,3.73,3.32C104.83,265.12,108.33,266.79,108.33,266.79z"/>
<path class="st6" d="M192.44,242.66c6.58-8.87,3.57-15.69,3.57-15.69s-1.49-2.35-1.71,0.46c0,0,3.09,8.12-2.94,15.19
	c0,0-0.61-3.54-2.63-2.19c0,0-1.35,0.2,0.59,2.59c0,0-3-2.17-3.25,0.13c-0.25,2.3,3.24,2.13,3.24,2.13s-2.37,1.88-0.87,3.16
	c1.5,1.28,2.69-0.74,2.69-0.74l0.31-1.29c0,0,1.74,3.43,2.64,0.93c0.9-2.5-1.23-2.19-1.23-2.19s2,0.19,1.64-1.3
	c-0.35-1.49-1.88-1.14-1.88-1.14L192.44,242.66z"/>
<path class="st13" d="M127.36,271.82l0.58-4.32l-0.84,37.83c2.53,0,5.05,0.04,7.58,0.21c10.55,0.71,21.06,0.7,31.63,0.43
	c6.34-0.16,12.68-0.14,19.02-0.06c1.7-0.68,3.51-1.07,5.34-1.07c3.19,0,6.38,0.01,9.57,0.01l-0.42-37.21l0.58,4.12
	c6.68,3.02,30.98-9.96,29.03-13.13l-17.13-31.14c0,0-1.65-4.75-8.98-6.97l-21.05-5.26l-2.04-0.47c-0.54-0.01-0.44,0.3-0.44,0.3
	c-0.01,0.75-0.11,1.71-0.44,2.63l-2.76,10.21l-0.01,0.02c-0.14,0.45-0.55,0.73-1.02,0.73c-0.18,0-0.32-0.03-0.48-0.11l-0.03-0.02
	l-10.32-5.26l-0.84,0.69l-0.84-0.69l-10.31,5.27l-0.52,0.12c-0.47,0-0.89-0.31-1.03-0.75l-0.01-0.06l-2.76-10.21
	c-0.36-0.99-0.44-2.05-0.44-2.82l0.01-0.28l-3.04,0.7l-21.05,5.26c-7.33,2.22-8.98,6.97-8.98,6.97l-17.13,31.14
	C95.83,261.8,120.69,274.84,127.36,271.82z"/>
<path class="st5" d="M205.46,228.26l-1.88,5.55c-0.62-0.4-1-0.72-1-0.72s-1.67-1.41-0.71,0.48c0.4,0.79,0.86,1.37,1.27,1.78
	c0,0-1.73,5.25-1.22,10.29l0,0.28l-0.01,0.28c-0.72-0.21-1.7-0.59-2.43-1.18c-1.29-1.06-1.34-1.5-1.34-1.5s-2.69-1.01-2.55-3.66
	c0,0-0.2-1.08,0.94-2.85c0,0,0.65-1.85,0.51-2.33c-0.14-0.47,0.05-0.43,0.05-0.43s0.84,0.76,0.84,1.61c0,0.85,0.43,0.09,0.43,0.09
	l-0.43-3.16c0,0,0.04-1.09,0.73-0.12c0.69,0.97,1.66,2.82,1.66,2.82s1.4,1.41,0.76-0.39c-0.65-1.8-2.37-3.99-2.37-3.99
	s-1.21-1.84,0.33-0.96c0,0,2.54,2.06,3.34,1.63c0.79-0.43,0.19-1.05,0.19-1.05l-2.79-1.13c0,0-1.69-1.19,0.34-1
	c0,0,2.16,0.89,4.67-0.07c0.25-0.1,0.46-0.19,0.63-0.29"/>
<path class="st6" d="M138.14,244.57c0,0-6.22,3.61-6.12-4.95l-0.06-0.16c0,0-1.47-4.08-1.55-7.03c-0.08-2.94,0.99-0.27,0.99-0.27
	l1.1,3.17c1.35,1.72,1.07-0.01,1.07-0.01s-1.89-4.98-0.65-2.97s1.98,2.08,1.98,2.08c1.79,0.45-0.73-1.96-0.73-1.96
	c-1.49-1.91,1.64-0.11,1.64-0.11c2.92,2.62,2.29-0.38,2.29-0.38s-1.46-2.09-4.5-2c-3.04,0.1,1.37-2.59,1.37-2.59
	c3.52-0.52,2.92-0.87,2.92-0.87s0.19-2.08-2.98-0.76c-3.17,1.32-0.55-1.35-0.55-1.35s2.5-0.18,2.52-1.8
	c0.02-1.62-3.76,0.78-3.76,0.78c-2.83,2.99-0.34-1.57-0.34-1.57s2.53-4.34,5.04-3.32c2.51,1.02,3.08,0.77,3.08,0.77
	s2.2-0.17,3.78,3.71c1.57,3.87,0.72,5.55,0.72,5.55s-1.5,3.12-4.86,0.31l-0.12-0.11c0,0-6.02-0.09-0.71,1.13
	c5.31,1.22,3,7.03,3,7.03s3.51,7.37-4.42,7.64L138.14,244.57z"/>
<g>
	<g>
		<path class="st19" d="M163.93,201.44c-18.23-0.22-19.35-6.54-19.35-6.54v-8.12c0-8.27,8.56-14.98,19.12-14.98
			c0.37,0,0.37,0,0.37,0c10.56,0,19.12,6.71,19.12,14.98v8.12c0,0-1.12,6.32-19.35,6.54"/>
	</g>
</g>
<path class="st13" d="M205.46,221.56v6.7c0,0-3.99,10.17-3.58,15.67c0.4,5.5-2.05,23.77-2.05,23.77"/>
<path class="st18" d="M97.97,287.48c0.48,2.88,1.68,5.14,4.04,6.08"/>
<path class="st20" d="M290.42,306.22H33.67c-8.63,0-15.62-6.99-15.62-15.62V33.85c0-8.63,6.99-15.62,15.62-15.62h256.76
	c8.63,0,15.62,6.99,15.62,15.62V290.6C306.05,299.23,299.05,306.22,290.42,306.22z"/>
<path class="st3" d="M269.75,126.06c0.38-2.89,0.57-5.8,0.57-8.71c0-46.38-48.71-84.54-107.9-84.54s-107.9,38.16-107.9,84.54
	c0,2.76,0.17,5.52,0.52,8.26c0,0,19.4-10.27,43.33,1.22c0,0,22.98-9.19,43.28,1.15c0,0,19.34-9.96,42.13,0
	c0,0,20.87-10.34,41.55-0.77C225.33,127.2,245.05,116.1,269.75,126.06z"/>
<path class="st3" d="M159.46,32.99c0,0-56.49,12.64-61.09,93.83"/>
</svg>
