<?xml version="1.0" encoding="utf-8"?>
<!-- Generator: Adobe Illustrator 26.3.1, SVG Export Plug-In . SVG Version: 6.00 Build 0)  -->
<svg version="1.1" id="Layer_1" xmlns="http://www.w3.org/2000/svg" xmlns:xlink="http://www.w3.org/1999/xlink" x="0px" y="0px"
	 viewBox="0 0 1080 1080" style="enable-background:new 0 0 1080 1080;" xml:space="preserve">
<style type="text/css">
	.st0{fill:#984C1E;}
	.st1{fill:#B35923;}
	.st2{fill:#C26024;}
	.st3{fill:#763317;}
	.st4{fill:#7A3519;}
	.st5{fill:none;stroke:#B1AE9C;stroke-linecap:round;stroke-linejoin:round;stroke-miterlimit:10;}
	.st6{fill:#FFF1E7;}
	.st7{fill:#EFE8CC;stroke:#B1AE9C;stroke-width:4;stroke-linecap:round;stroke-linejoin:round;stroke-miterlimit:10;}
	.st8{fill:#B1AE9C;stroke:#9B9989;stroke-miterlimit:10;}
	.st9{fill:#2B190D;stroke:#A8A694;stroke-width:4;stroke-miterlimit:10;}
	.st10{fill:#2B190D;stroke:#000000;stroke-width:2;stroke-miterlimit:10;}
	.st11{fill:#D23C27;stroke:#A53A23;stroke-width:3;stroke-linecap:round;stroke-linejoin:round;stroke-miterlimit:10;}
	.st12{fill:none;stroke:#2B0000;stroke-width:10;stroke-miterlimit:10;}
	.st13{fill:#DC7038;stroke:#AA5626;stroke-miterlimit:10;}
	.st14{fill:#D23C27;stroke:#A53A23;stroke-miterlimit:10;}
	.st15{fill:none;stroke:#A5391D;stroke-miterlimit:10;}
	.st16{fill:none;stroke:#AA5517;stroke-miterlimit:10;}
	.st17{fill:#EFE8CC;stroke:#B1AE9C;stroke-linecap:round;stroke-linejoin:round;stroke-miterlimit:10;}
	.st18{fill:#EFE8CC;stroke:#B1AE9C;stroke-miterlimit:10;}
	.st19{fill:#EFE8CC;stroke:#B5956A;stroke-miterlimit:10;}
	.st20{fill:#EFE8CC;stroke:#B5956A;stroke-linecap:round;stroke-linejoin:round;stroke-miterlimit:10;}
	.st21{fill:none;stroke:#A53A23;stroke-miterlimit:10;}
	.st22{fill:#D23D27;stroke:#B5956A;stroke-miterlimit:10;}
	.st23{fill:#EFE8CC;stroke:#EFE8CC;stroke-miterlimit:10;}
	.st24{fill:none;stroke:#A8A694;stroke-miterlimit:10;}
	.st25{fill:#2B190D;stroke:#A8A694;stroke-miterlimit:10;}
	.st26{opacity:0.56;fill:#EFE8CC;stroke:#B1AE9C;stroke-miterlimit:10;}
	.st27{fill:#EFE8CC;}
	.st28{fill:#470000;stroke:#350000;stroke-miterlimit:10;}
	.st29{fill:none;stroke:#350000;stroke-miterlimit:10;}
	.st30{opacity:0.45;fill:#470000;stroke:#350000;stroke-miterlimit:10;}
	.st31{fill:#A9493B;stroke:#A53A23;stroke-miterlimit:10;}
	.st32{fill:#C75647;stroke:#A53A23;stroke-miterlimit:10;}
	.st33{fill:#2B190D;stroke:#000000;stroke-miterlimit:10;}
</style>
<path class="st0" d="M936.5,324.25H142.95V150.21c0-28.86,23.4-52.26,52.26-52.26h692.52c26.94,0,48.77,21.84,48.77,48.77V324.25z"
	/>
<rect x="141.79" y="324.25" class="st1" width="795.26" height="219.54"/>
<rect x="141.79" y="535.69" class="st2" width="795.26" height="185.44"/>
<rect x="141.79" y="720.25" class="st3" width="795.36" height="152.53"/>
<path class="st4" d="M889.14,983.24H190.86c-26.91,0-48.73-21.82-48.73-48.73v-80.79h794.76v81.78
	C936.89,961.87,915.51,983.24,889.14,983.24z"/>
<path class="st5" d="M168.7,672.88"/>
<g>
	<g>
		<path class="st6" d="M244.57,221.9c3.22,0,3.22-5,0-5C241.35,216.9,241.35,221.9,244.57,221.9L244.57,221.9z"/>
	</g>
</g>
<g>
	<g>
		<path class="st6" d="M340.97,370.08c3.22,0,3.22-5,0-5C337.75,365.08,337.75,370.08,340.97,370.08L340.97,370.08z"/>
	</g>
</g>
<g>
	<g>
		<path class="st6" d="M884.55,268.7c3.22,0,3.22-5,0-5C881.33,263.7,881.33,268.7,884.55,268.7L884.55,268.7z"/>
	</g>
</g>
<g>
	<g>
		<path class="st6" d="M938.1,500.06c3.22,0,3.22-5,0-5C934.88,495.06,934.88,500.06,938.1,500.06L938.1,500.06z"/>
	</g>
</g>
<g>
	<g>
		<path class="st6" d="M493.6,458.47c3.22,0,3.22-5,0-5C490.38,453.47,490.38,458.47,493.6,458.47L493.6,458.47z"/>
	</g>
</g>
<g>
	<g>
		<path class="st6" d="M512.34,279.09c3.22,0,3.22-5,0-5C509.13,274.09,509.12,279.09,512.34,279.09L512.34,279.09z"/>
	</g>
</g>
<g>
	<g>
		<path class="st6" d="M581.96,463.66c3.22,0,3.22-5,0-5C578.75,458.66,578.74,463.66,581.96,463.66L581.96,463.66z"/>
	</g>
</g>
<g>
	<g>
		<path class="st6" d="M263.31,505.26c3.22,0,3.22-5,0-5C260.1,500.26,260.09,505.26,263.31,505.26L263.31,505.26z"/>
	</g>
</g>
<g>
	<g>
		<path class="st6" d="M228.5,671.63c3.22,0,3.22-5,0-5C225.29,666.63,225.28,671.63,228.5,671.63L228.5,671.63z"/>
	</g>
</g>
<g>
	<g>
		<path class="st6" d="M490.92,645.63c3.22,0,3.22-5,0-5C487.7,640.63,487.7,645.63,490.92,645.63L490.92,645.63z"/>
	</g>
</g>
<g>
	<g>
		<path class="st6" d="M857.77,419.47c3.22,0,3.22-5,0-5C854.55,414.47,854.55,419.47,857.77,419.47L857.77,419.47z"/>
	</g>
</g>
<g>
	<g>
		<path class="st6" d="M849.74,286.89c3.22,0,3.22-5,0-5C846.52,281.89,846.51,286.89,849.74,286.89L849.74,286.89z"/>
	</g>
</g>
<g>
	<g>
		<path class="st6" d="M753.34,375.28c3.22,0,3.22-5,0-5C750.12,370.28,750.12,375.28,753.34,375.28L753.34,375.28z"/>
	</g>
</g>
<g>
	<g>
		<path class="st6" d="M544.48,380.48c3.22,0,3.22-5,0-5C541.26,375.48,541.25,380.48,544.48,380.48L544.48,380.48z"/>
	</g>
</g>
<g>
	<g>
		<path class="st6" d="M188.34,432.47c3.22,0,3.22-5,0-5C185.12,427.47,185.12,432.47,188.34,432.47L188.34,432.47z"/>
	</g>
</g>
<g>
	<g>
		<path class="st6" d="M182.98,338.89c3.22,0,3.22-5,0-5C179.77,333.89,179.76,338.89,182.98,338.89L182.98,338.89z"/>
	</g>
</g>
<g>
	<g>
		<path class="st6" d="M343.65,263.5c3.22,0,3.22-5,0-5C340.43,258.5,340.42,263.5,343.65,263.5L343.65,263.5z"/>
	</g>
</g>
<g>
	<g>
		<path class="st6" d="M456.11,357.08c3.22,0,3.22-5,0-5C452.89,352.08,452.89,357.08,456.11,357.08L456.11,357.08z"/>
	</g>
</g>
<g>
	<g>
		<path class="st6" d="M758.69,619.64c3.22,0,3.22-5,0-5C755.48,614.64,755.47,619.64,758.69,619.64L758.69,619.64z"/>
	</g>
</g>
<g>
	<g>
		<path class="st6" d="M914,250.5c3.22,0,3.22-5,0-5C910.79,245.5,910.78,250.5,914,250.5L914,250.5z"/>
	</g>
</g>
<g>
	<g>
		<path class="st6" d="M659.62,229.7c3.22,0,3.22-5,0-5C656.4,224.7,656.4,229.7,659.62,229.7L659.62,229.7z"/>
	</g>
</g>
<g>
	<g>
		<path class="st6" d="M758.69,242.7c3.22,0,3.22-5,0-5C755.48,237.7,755.47,242.7,758.69,242.7L758.69,242.7z"/>
	</g>
</g>
<g>
	<g>
		<path class="st6" d="M616.77,307.69c3.22,0,3.22-5,0-5C613.56,302.69,613.55,307.69,616.77,307.69L616.77,307.69z"/>
	</g>
</g>
<g>
	<g>
		<path class="st6" d="M474.86,593.64c3.22,0,3.22-5,0-5C471.64,588.64,471.63,593.64,474.86,593.64L474.86,593.64z"/>
	</g>
</g>
<g>
	<g>
		<path class="st6" d="M212.44,611.84c3.22,0,3.22-5,0-5C209.22,606.84,209.22,611.84,212.44,611.84L212.44,611.84z"/>
	</g>
</g>
<g>
	<g>
		<path class="st6" d="M233.86,484.46c3.22,0,3.22-5,0-5C230.64,479.46,230.64,484.46,233.86,484.46L233.86,484.46z"/>
	</g>
</g>
<g>
	<g>
		<path class="st6" d="M300.8,312.89c3.22,0,3.22-5,0-5C297.59,307.89,297.58,312.89,300.8,312.89L300.8,312.89z"/>
	</g>
</g>
<g>
	<g>
		<path class="st6" d="M241.89,453.27c3.22,0,3.22-5,0-5C238.68,448.27,238.67,453.27,241.89,453.27L241.89,453.27z"/>
	</g>
</g>
<g>
	<g>
		<path class="st6" d="M172.27,645.63c3.22,0,3.22-5,0-5C169.05,640.63,169.05,645.63,172.27,645.63L172.27,645.63z"/>
	</g>
</g>
<g>
	<g>
		<path class="st6" d="M410.59,294.69c3.22,0,3.22-5,0-5C407.37,289.69,407.37,294.69,410.59,294.69L410.59,294.69z"/>
	</g>
</g>
<g>
	<g>
		<path class="st6" d="M338.29,437.67c3.22,0,3.22-5,0-5C335.07,432.67,335.07,437.67,338.29,437.67L338.29,437.67z"/>
	</g>
</g>
<g>
	<g>
		<path class="st6" d="M239.22,396.08c3.22,0,3.22-5,0-5C236,391.08,235.99,396.08,239.22,396.08L239.22,396.08z"/>
	</g>
</g>
<g>
	<g>
		<path class="st6" d="M501.63,375.28c3.22,0,3.22-5,0-5C498.42,370.28,498.41,375.28,501.63,375.28L501.63,375.28z"/>
	</g>
</g>
<g>
	<g>
		<path class="st6" d="M448.08,565.05c3.22,0,3.22-5,0-5C444.86,560.05,444.86,565.05,448.08,565.05L448.08,565.05z"/>
	</g>
</g>
<g>
	<g>
		<path class="st6" d="M573.93,624.84c3.22,0,3.22-5,0-5C570.71,619.84,570.71,624.84,573.93,624.84L573.93,624.84z"/>
	</g>
</g>
<g>
	<g>
		<path class="st6" d="M544.48,505.26c3.22,0,3.22-5,0-5C541.26,500.26,541.25,505.26,544.48,505.26L544.48,505.26z"/>
	</g>
</g>
<g>
	<g>
		<path class="st6" d="M493.6,533.85c3.22,0,3.22-5,0-5C490.38,528.85,490.38,533.85,493.6,533.85L493.6,533.85z"/>
	</g>
</g>
<g>
	<g>
		<path class="st6" d="M268.67,682.03c3.22,0,3.22-5,0-5C265.45,677.03,265.45,682.03,268.67,682.03L268.67,682.03z"/>
	</g>
</g>
<g>
	<g>
		<path class="st6" d="M287.41,476.66c3.22,0,3.22-5,0-5C284.2,471.66,284.19,476.66,287.41,476.66L287.41,476.66z"/>
	</g>
</g>
<g>
	<g>
		<path class="st6" d="M330.26,531.25c3.22,0,3.22-5,0-5C327.04,526.25,327.04,531.25,330.26,531.25L330.26,531.25z"/>
	</g>
</g>
<g>
	<g>
		<path class="st6" d="M172.27,518.26c3.22,0,3.22-5,0-5C169.05,513.26,169.05,518.26,172.27,518.26L172.27,518.26z"/>
	</g>
</g>
<g>
	<g>
		<path class="st6" d="M236.54,554.65c3.22,0,3.22-5,0-5C233.32,549.65,233.31,554.65,236.54,554.65L236.54,554.65z"/>
	</g>
</g>
<g>
	<g>
		<path class="st6" d="M531.09,245.3c3.22,0,3.22-5,0-5C527.87,240.3,527.86,245.3,531.09,245.3L531.09,245.3z"/>
	</g>
</g>
<g>
	<g>
		<path class="st6" d="M472.18,427.27c3.22,0,3.22-5,0-5C468.96,422.27,468.95,427.27,472.18,427.27L472.18,427.27z"/>
	</g>
</g>
<g>
	<g>
		<path class="st6" d="M864.46,340.18c3.22,0,3.22-5,0-5C861.25,335.18,861.24,340.18,864.46,340.18L864.46,340.18z"/>
	</g>
</g>
<g>
	<g>
		<path class="st6" d="M664.08,448.5c3.22,0,3.22-5,0-5C660.86,443.5,660.86,448.5,664.08,448.5L664.08,448.5z"/>
	</g>
</g>
<g>
	<g>
		<path class="st6" d="M639.98,354.92c3.22,0,3.22-5,0-5C636.76,349.92,636.76,354.92,639.98,354.92L639.98,354.92z"/>
	</g>
</g>
<g>
	<g>
		<path class="st6" d="M712.28,315.92c3.22,0,3.22-5,0-5C709.06,310.92,709.06,315.92,712.28,315.92L712.28,315.92z"/>
	</g>
</g>
<g>
	<g>
		<path class="st6" d="M709.6,436.8c3.22,0,3.22-5,0-5C706.39,431.8,706.38,436.8,709.6,436.8L709.6,436.8z"/>
	</g>
</g>
<g>
	<g>
		<path class="st6" d="M792.61,442c3.22,0,3.22-5,0-5C789.4,437,789.39,442,792.61,442L792.61,442z"/>
	</g>
</g>
<g>
	<g>
		<path class="st6" d="M836.79,510.89c3.22,0,3.22-5,0-5C833.58,505.89,833.57,510.89,836.79,510.89L836.79,510.89z"/>
	</g>
</g>
<g>
	<g>
		<path class="st6" d="M918.47,440.7c3.22,0,3.22-5,0-5C915.25,435.7,915.24,440.7,918.47,440.7L918.47,440.7z"/>
	</g>
</g>
<g>
	<g>
		<path class="st6" d="M518.15,227.54c3.22,0,3.22-5,0-5C514.93,222.54,514.92,227.54,518.15,227.54L518.15,227.54z"/>
	</g>
</g>
<g>
	<g>
		<path class="st6" d="M468.61,224.94c3.22,0,3.22-5,0-5C465.39,219.94,465.38,224.94,468.61,224.94L468.61,224.94z"/>
	</g>
</g>
<g>
	<g>
		<path class="st6" d="M641.32,531.69c3.22,0,3.22-5,0-5C638.1,526.69,638.1,531.69,641.32,531.69L641.32,531.69z"/>
	</g>
</g>
<g>
	<g>
		<path class="st6" d="M780.56,477.1c3.22,0,3.22-5,0-5C777.35,472.1,777.34,477.1,780.56,477.1L780.56,477.1z"/>
	</g>
</g>
<g>
	<g>
		<path class="st6" d="M739.06,604.47c3.22,0,3.22-5,0-5C735.84,599.47,735.84,604.47,739.06,604.47L739.06,604.47z"/>
	</g>
</g>
<g>
	<g>
		<path class="st6" d="M619.9,547.28c3.22,0,3.22-5,0-5C616.68,542.28,616.68,547.28,619.9,547.28L619.9,547.28z"/>
	</g>
</g>
<g>
	<g>
		<path class="st6" d="M768.51,532.99c3.22,0,3.22-5,0-5C765.3,527.99,765.29,532.99,768.51,532.99L768.51,532.99z"/>
	</g>
</g>
<g>
	<g>
		<path class="st6" d="M727.01,578.48c3.22,0,3.22-5,0-5C723.79,573.48,723.79,578.48,727.01,578.48L727.01,578.48z"/>
	</g>
</g>
<g>
	<g>
		<path class="st6" d="M634.63,587.58c3.22,0,3.22-5,0-5C631.41,582.58,631.4,587.58,634.63,587.58L634.63,587.58z"/>
	</g>
</g>
<g>
	<g>
		<path class="st6" d="M569.02,568.08c3.22,0,3.22-5,0-5C565.8,563.08,565.8,568.08,569.02,568.08L569.02,568.08z"/>
	</g>
</g>
<g>
	<g>
		<path class="st6" d="M597.14,662.96c3.22,0,3.22-5,0-5C593.92,657.96,593.92,662.96,597.14,662.96L597.14,662.96z"/>
	</g>
</g>
<g>
	<g>
		<path class="st6" d="M796.63,627.87c3.22,0,3.22-5,0-5C793.41,622.87,793.41,627.87,796.63,627.87L796.63,627.87z"/>
	</g>
</g>
<g>
	<g>
		<path class="st6" d="M816.71,586.28c3.22,0,3.22-5,0-5C813.49,581.28,813.49,586.28,816.71,586.28L816.71,586.28z"/>
	</g>
</g>
<g>
	<g>
		<path class="st6" d="M848.84,560.28c3.22,0,3.22-5,0-5C845.63,555.28,845.62,560.28,848.84,560.28L848.84,560.28z"/>
	</g>
</g>
<g>
	<g>
		<path class="st6" d="M906.42,592.78c3.22,0,3.22-5,0-5C903.2,587.78,903.19,592.78,906.42,592.78L906.42,592.78z"/>
	</g>
</g>
<g>
	<g>
		<path class="st6" d="M876.96,673.36c3.22,0,3.22-5,0-5C873.74,668.36,873.74,673.36,876.96,673.36L876.96,673.36z"/>
	</g>
</g>
<g>
	<g>
		<path class="st6" d="M737.72,660.37c3.22,0,3.22-5,0-5C734.5,655.37,734.5,660.37,737.72,660.37L737.72,660.37z"/>
	</g>
</g>
<g>
	<g>
		<path class="st6" d="M839.47,666.86c3.22,0,3.22-5,0-5C836.26,661.86,836.25,666.86,839.47,666.86L839.47,666.86z"/>
	</g>
</g>
<g>
	<g>
		<path class="st6" d="M743.07,711.06c3.22,0,3.22-5,0-5C739.86,706.06,739.85,711.06,743.07,711.06L743.07,711.06z"/>
	</g>
</g>
<g>
	<g>
		<path class="st6" d="M688.18,672.06c3.22,0,3.22-5,0-5C684.96,667.06,684.96,672.06,688.18,672.06L688.18,672.06z"/>
	</g>
</g>
<g>
	<g>
		<path class="st6" d="M684.16,621.37c3.22,0,3.22-5,0-5C680.95,616.37,680.94,621.37,684.16,621.37L684.16,621.37z"/>
	</g>
</g>
<g>
	<g>
		<path class="st6" d="M499.4,682.46c3.22,0,3.22-5,0-5C496.18,677.46,496.18,682.46,499.4,682.46L499.4,682.46z"/>
	</g>
</g>
<g>
	<g>
		<path class="st6" d="M583.75,701.96c3.22,0,3.22-5,0-5C580.53,696.96,580.53,701.96,583.75,701.96L583.75,701.96z"/>
	</g>
</g>
<g>
	<g>
		<path class="st6" d="M416.39,665.56c3.22,0,3.22-5,0-5C413.17,660.56,413.17,665.56,416.39,665.56L416.39,665.56z"/>
	</g>
</g>
<g>
	<g>
		<path class="st6" d="M394.97,526.49c3.22,0,3.22-5,0-5C391.75,521.49,391.75,526.49,394.97,526.49L394.97,526.49z"/>
	</g>
</g>
<g>
	<g>
		<path class="st6" d="M318.65,662.96c3.22,0,3.22-5,0-5C315.44,657.96,315.43,662.96,318.65,662.96L318.65,662.96z"/>
	</g>
</g>
<g>
	<g>
		<path class="st6" d="M267.78,578.48c3.22,0,3.22-5,0-5C264.56,573.48,264.56,578.48,267.78,578.48L267.78,578.48z"/>
	</g>
</g>
<g>
	<g>
		<path class="st6" d="M361.5,610.97c3.22,0,3.22-5,0-5C358.28,605.97,358.28,610.97,361.5,610.97L361.5,610.97z"/>
	</g>
</g>
<g>
	<g>
		<path class="st6" d="M362.84,648.67c3.22,0,3.22-5,0-5C359.62,643.67,359.61,648.67,362.84,648.67L362.84,648.67z"/>
	</g>
</g>
<g>
	<g>
		<path class="st6" d="M479.32,603.17c3.22,0,3.22-5,0-5C476.1,598.17,476.1,603.17,479.32,603.17L479.32,603.17z"/>
	</g>
</g>
<g>
	<g>
		<path class="st6" d="M409.7,412.11c3.22,0,3.22-5,0-5C406.48,407.11,406.47,412.11,409.7,412.11L409.7,412.11z"/>
	</g>
</g>
<g>
	<g>
		<path class="st6" d="M551.62,412.11c3.22,0,3.22-5,0-5C548.4,407.11,548.39,412.11,551.62,412.11L551.62,412.11z"/>
	</g>
</g>
<g>
	<g>
		<path class="st6" d="M653.37,419.9c3.22,0,3.22-5,0-5C650.15,414.9,650.15,419.9,653.37,419.9L653.37,419.9z"/>
	</g>
</g>
<path class="st7" d="M714.21,280.17c-259.96,263.86-62.39,485.69-62.39,485.69h125.2c0,0,197.57-221.83-62.39-485.69"/>
<circle class="st8" cx="714.72" cy="520.88" r="70.51"/>
<circle class="st9" cx="714.72" cy="519.91" r="53.94"/>
<polyline class="st10" points="652.67,765.86 628.33,820.21 802,820.21 777.66,765.86 "/>
<path class="st11" d="M589.21,485.91c0,0-107.72,109.64-37.48,271.01l55.68-64.99c-30.83-61.64-36.37-131.21-18.89-204.85"/>
<path class="st11" d="M838.02,485.91c0,0,107.72,109.64,37.48,271.01l-55.68-64.99c30.83-61.64,36.37-131.21,18.89-204.85"/>
<path class="st12" d="M915.8,192.54c-3.25,0-5.89,2.64-5.89,5.89v613.7c0,3.25,2.64,5.89,5.89,5.89l21.09,0.32"/>
<path class="st12" d="M937.27,274.08l-438.49-1.52c-3.25,0-5.89-2.64-5.89-5.89v-68.4c0-3.25,2.64-5.89,5.89-5.89l437.72-1.14"/>
<path class="st12" d="M909.27,191.24C920,202,930,212,941.5,223.47"/>
<path class="st12" d="M941.02,241.38C931,252,920,263,909.27,273.13"/>
<path class="st12" d="M909.27,271C920,282,931,292,941.5,303.23"/>
<path class="st12" d="M939.54,322.35c-10.37,9.9-19.76,20.78-30.27,30.54"/>
<path class="st12" d="M909.27,355.85c10.53,10.01,20.83,20.26,30.91,30.73"/>
<path class="st12" d="M941,406c-10.58,10.58-21.16,21.16-31.73,31.73"/>
<path class="st12" d="M909.27,435.6C920,447,932,457,942.23,468.56"/>
<path class="st12" d="M939.33,487.43C929,497,920,508,909.27,517.49"/>
<path class="st12" d="M909.27,520.45C920,531,930,542,940.53,551.71"/>
<path class="st12" d="M942.23,569.38C932,581,920,591,909.27,602.34"/>
<path class="st12" d="M909.27,606.14C919,616,930,627,939.81,636.69"/>
<path class="st12" d="M939.81,657.49C930,668,919,678,909.27,688.03"/>
<path class="st12" d="M909.27,690.99C919,700,928,710,938.14,719.86"/>
<path class="st12" d="M939.33,742.82C929,753,919,763,909.27,772.88"/>
<path class="st12" d="M909.27,770.75C920,780,929,791,939.92,801.4"/>
<line class="st12" x1="909.59" y1="190.83" x2="827.71" y2="272.71"/>
<line class="st12" x1="909.59" y1="272.71" x2="827.71" y2="190.83"/>
<line class="st12" x1="824.75" y1="190.83" x2="742.86" y2="272.71"/>
<line class="st12" x1="824.75" y1="272.71" x2="742.86" y2="190.83"/>
<line class="st12" x1="744.99" y1="190.83" x2="663.1" y2="272.71"/>
<line class="st12" x1="744.99" y1="272.71" x2="663.1" y2="190.83"/>
<line class="st12" x1="660.14" y1="190.83" x2="578.26" y2="272.71"/>
<line class="st12" x1="660.14" y1="272.71" x2="578.26" y2="190.83"/>
<line class="st12" x1="574.45" y1="190.83" x2="492.56" y2="272.71"/>
<line class="st12" x1="574.45" y1="272.71" x2="492.56" y2="190.83"/>
<path class="st13" d="M323.93,672.43c0,0,1.66,24.12-15.82,32.42l-30.03-4.9c-13.93-13.43-4.7-35.77-4.7-35.77l-0.01-0.26
	c-0.03-17.23,14.91-43.45,14.91-43.45c29.6,24.38,41.74,22.97,41.74,22.97c0.3,10.99-0.84,22.79-6.19,28.54L323.93,672.43"/>
<path class="st14" d="M336,635.47l3.53-88.94c-11.24,2.8-14.92,9.6-14.92,9.6l-41.9,53.46c-4.65,5.37,37.19,37.34,50.71,33.7
	l2.36-7.58L336,635.47z"/>
<path class="st15" d="M337.44,597.4c0,0-6.62-6.38-7.88-14.12"/>
<path class="st15" d="M334.76,611.92c0,0-4.16,0.18-4.87,6.96"/>
<path class="st16" d="M321.25,666.05c1.81,1.44,2.97,3.28,3.62,5.41"/>
<path class="st17" d="M406.89,945.75c0,0,25.78-6.93,27.08,14.3c1.3,21.23-58.27,15.6-58.27,15.6s-10.61-2.17-5.63-20.58
	s4.33-17.98,4.33-17.98l29.03,2.17l6.5,12.35"/>
<path class="st18" d="M315.55,939.9c-2.02-3.47,4.04-18.49,4.04-18.49l28.31,1.44c0,0,7.8,36.97-5.49,36.39
	c-13.29-0.58-22.53,0.29-22.53,0.29c-20.58-13.58-7.03-33.8-2.6-32.06"/>
<path class="st13" d="M315.39,769.55c0,0-15.99,63.76-11.3,77.59l-6.23,42.79c0,0-0.99,25.44,18.38,32.52s32.85,2.65,32.85,2.65
	s6.92-3.43,9.74-13.77l6.23-42.79c8.44-11.92,11.3-77.59,11.3-77.59l0.29-2.04c2.25-15.95,3.57-31.68,4.14-39.17l0.12-1.79
	c0,0-38.03-6.99-57.69-19.17c0,0-18.68,81.85-7.41,86.75"/>
<path class="st16" d="M356.06,887.18c0,0-30.32,9.15-43.37-17.39"/>
<path class="st16" d="M354.12,814.84c0,0-2.94,11.92-26.35,9.05"/>
<path class="st13" d="M437.95,775.09c0,0,8.59,72.84,0,87.33v48.17c0,0-3.47,28.2-29.62,32.9c-26.15,4.7-42.59-2.35-42.59-2.35
	s-8.22-4.9-9.91-16.74v-48.17c-8.59-14.49,0-87.33,0-87.33l0.01-2.29c0.1-17.94,1.34-35.49,2-43.84l0.17-2c0,0,50.03-1.6,77.5-11.87
	c0,0,8.67,93.21-6.7,96.8"/>
<path class="st16" d="M361.81,907.62c0,0,37.14,15.61,58.81-12.74"/>
<path class="st14" d="M404.91,617.74c0,0-30.25,5.68-65.29,0.1"/>
<path class="st5" d="M362.96,742.21c0.61-0.64,0.83-3.76,0.85-7.62"/>
<path class="st14" d="M411.96,554.77c-0.01,0.97,34.43,34.8,27.39,58.67c-7.05,23.88-1.09,129.34-1.09,129.34
	s-118.61,2.31-121.19-4.75s6.65-45.53,6.65-45.53s3.6-76.46-0.99-92.21c-4.59-15.76,8.83-56.43,22.23-60.21
	S411.96,554.77,411.96,554.77z"/>
<path class="st19" d="M439.94,600.82c-0.41,0.61-1.58,1.99-4.36,3.16c0,0-3.02,2.23-3.31,3.13c-0.29,0.9-0.54,0.63-0.54,0.63
	s-0.51-2.11,0.4-3.45c0.91-1.35-0.59-0.6-0.59-0.6l-2.72,5.45c0,0-1.24,1.69-1.29-0.59c-0.05-2.28,0.42-6.24,0.42-6.24
	s-0.7-3.73-1.61-0.2c-0.91,3.53-0.56,8.86-0.56,8.86s-0.06,4.21-1.55,1.16c0,0-1.8-5.99-3.51-6.16c-1.72-0.17-1.44,1.46-1.44,1.46
	l3.19,4.78c0,0,1.38,3.7-1.61,1.21c0,0-2.46-3.73-7.45-4.92c-4.99-1.19-2.55,2.59-2.55,2.59s5.67,0.22,7.08,3.05
	c0,0,2.74,2.26,0.06,2.71c0,0-1.95-0.31-2.66-0.62s-8.73,0.34-8.73,0.34s-4.06,2.63-6.66,0.56c-2.6-2.07-3.87-6.08-3.87-6.08
	s-1.59-6.44,3.05-9.91c4.64-3.47,4.07-5.5,4.07-5.5s0.37-4.18,8.1-3.16c7.73,1.02,10.51,11.22,10.51,11.22s1.11,4.03,1.64,0
	s-0.82-6.6-0.82-6.6s-3.68-2.32-2.97-6.97c0.71-4.64,0.51-7.25,3.44-8.31c0,0,5.4-0.09,7.8-0.68c0.28-0.07,0.57-0.11,0.85-0.12"/>
<path class="st19" d="M417.48,621.67c0,0-3.23,0.26,0.34,2.58h1.49c0,0,4.63,0.03,2.09,2.16c-2.54,2.12-6.36,3.91-6.36,3.91
	s-6.04,3.52-1.39,3.97c4.64,0.45,7.45-4.97,7.45-4.97s3.27-4.25,1.21,1.92c-2.07,6.17-2.69,6.68-1.63,7.66
	c1.07,0.99,3.41-5.13,3.41-5.13s-0.21-5.86,1.63-5.56c1.83,0.3,0.63,7.23,0.63,7.23l-0.09,7.8c0,0-0.94,8.42-6.39,10.26
	c-5.45,1.85-5.72,0.93-8.42-2.31c0,0-7.34,3.37-11.1-6.46s-1.24-15.08-1.24-15.08s1.22-2.37,2.33-2.36c0.02,0,0.04,0,0.06,0
	l-0.06-0.35c0,0-0.95-5.89,4.16-7.62c5.11-1.73,7.76-1.21,7.76-1.21s8.4,0.57,9.3,2.48c0.91,1.92-4.95,1.06-4.95,1.06H417.48z"/>
<path class="st20" d="M439.94,603.21c-12.49,7.39-14.24,17.38-14.24,17.38s-0.14,5.32,3.2,1.08c0,0,2.21-9.6,11.04-16.22"/>
<path class="st20" d="M439.1,614.34c-1.02,0.29-1.76,0.56-1.76,0.56c-6.5,4.41,0-3.07,0-3.07s1.04-1.13,2.57-2.3"/>
<path class="st20" d="M437.95,620.27c-2.39,0.07-0.77-1.42,0.4-2.31"/>
<path class="st20" d="M437.18,627.83c-0.51-0.18-1.06-0.32-1.65-0.43c-4.12-0.77-0.42-2.65,1.97-3.64"/>
<path class="st20" d="M436.64,634.05c-0.5-0.93-1.07-1.77-1.07-1.77c-1.14-2.38,0.03-1.9,1.25-1.04"/>
<path class="st20" d="M435.96,656.89c-3.53,0.41-10.07-0.32-7.31-12.17l-0.05-0.33c0,0-1.07-8.22,0-13.75
	c1.07-5.53,1.95-0.09,1.95-0.09l0.74,6.36c1.81,3.76,2,0.42,2,0.42s-1.49-10.08,0-5.81s2.83,4.69,2.83,4.69
	c0.14,0.07,0.27,0.13,0.38,0.17"/>
<path class="st19" d="M406.34,684.63c0,0-1.75,3.79-1.62-0.26s1.87-6.38,1.87-6.38s4.01-1.7,4.06-6.4c0.05-4.7,0.66-7.23-2.05-8.76
	c0,0-5.32-0.96-7.59-1.93c-2.27-0.97-4.95,0.37-4.95,0.37s-3.34,2.31-4.72,5.19c-1.38,2.88-1.1,3.68-1.1,3.68s-3.85,3.92-1.46,8.39
	c0,0,0.53,2.03,3.93,4.17c0,0,2.62,2.69,2.77,3.62s0.43,0.71,0.43,0.71s0.84-2,0.16-3.47s0.68-0.5,0.68-0.5l1.81,5.82
	c0,0,0.95,1.87,1.36-0.37s0.59-6.23,0.59-6.23s1.29-3.57,1.62,0.06c0.33,3.63-0.88,8.83-0.88,8.83s-0.62,4.17,1.34,1.4
	c0,0,2.74-5.62,4.46-5.52c1.72,0.11,1.19,1.67,1.19,1.67l-3.92,4.21c0,0-1.96,3.43,1.39,1.45c0,0,3.03-3.29,8.14-3.66
	c5.11-0.37,2.1,2.96,2.1,2.96s-5.63-0.7-7.47,1.87c0,0-3.07,1.79-0.5,2.66c0,0,1.98,0.01,2.73-0.18c0.75-0.19,8.56,1.74,8.56,1.74
	s3.58,3.25,6.48,1.62s4.8-5.38,4.8-5.38s2.61-6.1-1.41-10.27c-4.03-4.17-3.13-6.08-3.13-6.08s0.31-4.19-7.48-4.42
	C410.73,675.01,406.34,684.63,406.34,684.63z"/>
<path class="st19" d="M420.54,711.49c0,0,2.34-5.43-2.42-7.96s-7.46-2.44-7.46-2.44s-8.38-0.79-9.58,0.95s4.71,1.84,4.71,1.84
	l0.22,0.04c0,0,3.14,0.77-0.75,2.49l-1.47-0.24c0,0-4.58-0.71-2.41,1.79c2.17,2.51,5.65,4.89,5.65,4.89s5.39,4.45,0.74,4.14
	c-4.66-0.3-6.56-6.11-6.56-6.11s-2.55-4.72-1.5,1.7s1.58,7.02,0.37,7.83s-2.54-5.62-2.54-5.62s1.15-5.75-0.71-5.75
	c-1.86,0-1.78,7.04-1.78,7.04l-1.17,7.72c0,0-0.43,8.46,4.65,11.16c5.08,2.7,5.5,1.84,8.68-0.92c0,0,6.7,4.51,12-4.58
	c5.3-9.09,3.66-14.69,3.66-14.69s-0.83-2.53-1.92-2.71c-0.02,0-0.04-0.01-0.06-0.01L420.54,711.49z"/>
<path class="st20" d="M401.39,551.29c2.86,7.21,1.28,10.35,1.28,10.35s-2.88,5.96-9.29,0.59l-0.24-0.21c0,0-11.5-0.18-1.36,2.15
	s5.74,13.43,5.74,13.43s6.71,14.08-8.44,14.6l-0.27,0.06c0,0-11.89,6.9-11.69-9.46l-0.12-0.31c0,0-2.81-7.8-2.95-13.43
	c-0.14-5.63,1.89-0.51,1.89-0.51l2.09,6.06c2.58,3.29,2.04-0.02,2.04-0.02s-3.62-9.52-1.25-5.67c2.37,3.85,3.77,3.97,3.77,3.97
	c3.42,0.86-1.39-3.74-1.39-3.74c-2.85-3.65,3.14-0.21,3.14-0.21c5.57,5,4.37-0.72,4.37-0.72s-2.79-4-8.6-3.82
	c-5.81,0.18,2.62-4.95,2.62-4.95c6.72-1,5.58-1.66,5.58-1.66s0.36-3.98-5.69-1.46c-6.06,2.52-1.04-2.58-1.04-2.58
	s4.78-0.34,4.81-3.44s-7.19,1.49-7.19,1.49c-5.4,5.71-0.66-2.99-0.66-2.99s0.94-1.62,2.41-3.26"/>
<path class="st20" d="M381.59,676.83c17.86,11.26,17.21,25.49,17.21,25.49s-1.02,5.22-3.36,0.36c0,0-0.11-16.6-15.74-25.03
	c0,0,1.36,6.73-3.18,5.72c0,0-2.55,0.57-0.74-5.02c0,0-3.85,5.95-5.88,2.02c-2.03-3.93,4.3-6.04,4.3-6.04s-5.52-1.71-3.74-5.02
	c1.79-3.31,5.31-0.53,5.31-0.53l1.44,2.08c0,0,0.72-7.31,4.06-3.47c3.33,3.84-0.68,4.75-0.68,4.75s3.43-1.71,3.83,1.19
	c0.4,2.9-2.55,3.33-2.55,3.33L381.59,676.83z"/>
<path class="st20" d="M380.12,734.8c0,0,12.53,5.66,10.67-10.6l0.08-0.32c0,0,2.01-8.04,1.58-13.66c-0.43-5.61-1.93-0.32-1.93-0.32
	l-1.47,6.24c-2.23,3.53-2.03,0.19-2.03,0.19s2.63-9.84,0.67-5.77c-1.97,4.07-3.35,4.33-3.35,4.33c-3.32,1.21,1.01-3.86,1.01-3.86
	c2.46-3.92-3.14,0.1-3.14,0.1c-5.04,5.54-4.42-0.28-4.42-0.28s2.37-4.26,8.17-4.67c5.8-0.4-3.11-4.66-3.11-4.66
	c-6.79-0.32-5.72-1.08-5.72-1.08s-0.76-3.92,5.52-2.03c6.28,1.9,0.78-2.67,0.78-2.67s-4.79,0.15-5.13-2.93
	c-0.35-3.08,7.3,0.75,7.3,0.75c5.95,5.13,0.35-3.05,0.35-3.05s-5.65-7.76-10.23-5.34c-4.58,2.42-5.71,2.05-5.71,2.05
	s-4.22,0.11-6.46,7.78c-2.24,7.67-0.3,10.7-0.3,10.7s3.46,5.63,9.3-0.35l0.21-0.23c0,0,11.43-1.34,1.57,2.01s-4.35,13.94-4.35,13.94
	s-5.25,14.68,9.87,13.67L380.12,734.8z"/>
<path class="st19" d="M365.24,541.57c0.1,0.02-0.01,0.2-0.01,0.31c-0.09,3.65,1.45,8.75,1.45,8.75s0.89,4.12-1.25,1.48
	c0,0-3.1-5.43-4.81-5.21c-1.71,0.22-1.07,1.74-1.07,1.74l4.19,3.94c0,0,2.18,3.29-1.3,1.54c0,0-3.24-3.08-8.37-3.12
	c-5.13-0.04-1.91,3.09-1.91,3.09s5.57-1.07,7.58,1.38c0,0,3.18,1.58,0.67,2.63c0,0-1.97,0.14-2.73,0c-0.76-0.14-8.43,2.3-8.43,2.3
	s-3.36,3.48-6.36,2.04c-3-1.43-5.14-5.06-5.14-5.06s-3.01-5.92,0.74-10.34c2.04-2.41,2.67-4.06,2.81-5.06
	C341.3,542,345.48,537.53,365.24,541.57z"/>
<path class="st19" d="M370.49,542.92l-1.26,5.25c0,0-0.83,1.92-1.38-0.28c-0.44-1.75-0.81-4.61-0.95-5.71"/>
<path class="st19" d="M361.01,562.95c0,0-3.09,0.98,0.91,2.44l1.45-0.34c0,0,4.52-1.01,2.52,1.63c-2,2.64-5.32,5.25-5.32,5.25
	s-5.09,4.79-0.46,4.18c4.63-0.61,6.14-6.52,6.14-6.52s2.23-4.88,1.61,1.59s-1.12,7.11,0.14,7.83c1.26,0.72,2.17-5.77,2.17-5.77
	s-1.53-5.67,0.33-5.79c1.86-0.12,2.24,6.91,2.24,6.91l1.67,7.62c0,0,0.98,8.41-3.91,11.44s-5.37,2.2-8.72-0.35
	c0,0-6.39,4.94-12.27-3.79c-5.88-8.72-4.61-14.42-4.61-14.42s0.66-2.58,1.74-2.83c0.02,0,0.04-0.01,0.06-0.01l-0.14-0.32
	c0,0-2.25-5.52,2.33-8.36s7.28-2.93,7.28-2.93s8.31-1.34,9.62,0.32s-4.58,2.14-4.58,2.14L361.01,562.95z"/>
<path class="st20" d="M375.18,543.77c-6.83,8.6-6.41,16.27-6.41,16.27s1.06,5.21,3.37,0.33c0,0-0.01-8.14,5.32-15.96"/>
<path class="st21" d="M373.4,543.4c2.57,0.62,5.16,1.29,7.72,1.97"/>
<path class="st21" d="M366.89,541.92c2.13,0.45,4.31,0.95,6.51,1.48"/>
<path class="st19" d="M325.02,627.98c1.11,0.96,1.99,1.78,1.99,1.78s3.43,1.64,1.11-1.18c-0.85-1.04-2-2.07-3.11-2.98"/>
<path class="st19" d="M324.32,609.99c1.47-2.11,3.77-5.87,3.77-5.87s0.26-4.83,3.47-5.71s7.2,0.46,7.2,0.46s6.14,2.51,6.21,8.3
	s2.04,6.53,2.04,6.53s3.16,2.76-2.22,8.4s-15.26,1.88-15.26,1.88s-3.91-1.47-0.97,1.33c2.94,2.8,5.81,3.22,5.81,3.22
	s4.05-1.61,7.38,1.7c3.33,3.31,5.55,4.68,4.69,7.68c0,0-3.11,4.42-4.05,6.71c-0.94,2.29-3.78,3.22-3.78,3.22s-4,0.7-7.01-0.38
	c-3.01-1.08-3.37-1.84-3.37-1.84s-1.48-0.02-3.1-0.72"/>
<path class="st22" d="M324.5,617.27c1.65-0.32,3.96-1.08,6.09-2.9c3.9-3.33-0.58-3.59-0.58-3.59s-2.65,3.36-5.39,3.89"/>
<path class="st22" d="M324.92,621.97c1.45,0.28,2.9,0.37,3.41-0.2c1.15-1.29-0.33-2.02-0.33-2.02l-3.13-0.13"/>
<path class="st19" d="M321.84,590.19c0.06,0.09,0.08,0.14,0.08,0.14s1.19,2.38,0.53,3.28c-0.01,0.02-0.02,0.03-0.04,0.05l0.31,0.16
	c0,0,5.32,2.7,3.71,7.85c-0.89,2.84-1.89,4.67-2.61,5.74"/>
<path class="st19" d="M317.83,723.47c0.28,0.06,0.77-0.16,1.61-0.85c0,0,2.46-3.73,7.45-4.92c4.99-1.19,2.55,2.59,2.55,2.59
	s-5.67,0.22-7.08,3.05c0,0-2.74,2.26-0.06,2.71c0,0,1.95-0.31,2.66-0.62c0.71-0.31,8.73,0.34,8.73,0.34s4.06,2.63,6.66,0.56
	c2.6-2.07,3.87-6.08,3.87-6.08s1.59-6.44-3.05-9.91c-4.64-3.47-4.07-5.5-4.07-5.5s-0.37-4.18-8.1-3.16
	c-4.35,0.57-7.13,4.05-8.73,6.99"/>
<path class="st22" d="M319.16,715.32c0.14-0.09,0.28-0.14,0.42-0.15c1.72-0.17,1.44,1.46,1.44,1.46l-2.85,4.28"/>
<polyline class="st13" points="403.4,544.05 360.39,527.18 360.39,521.88 403.4,524.59 403.4,526.56 403.4,544.05 "/>
<path class="st19" d="M341.93,741.99c-0.22-2.06-0.73-3.12-0.73-3.12s-1.22-2.37-2.33-2.36c-0.02,0-0.04,0-0.06,0l0.06-0.35
	c0,0,0.95-5.89-4.16-7.62c-5.11-1.73-7.76-1.21-7.76-1.21s-8.4,0.57-9.3,2.48c-0.91,1.92,4.95,1.06,4.95,1.06h0.22
	c0,0,3.23,0.26-0.34,2.58H321c0,0-4.63,0.03-2.09,2.16c2.54,2.12,6.36,3.91,6.36,3.91s0.96,0.56,1.82,1.26"/>
<path class="st22" d="M325.02,627.98c1.11,0.96,1.99,1.78,1.99,1.78s3.43,1.64,1.11-1.18c-0.85-1.04-2-2.07-3.11-2.98"/>
<path class="st21" d="M381.13,545.37c16.01,4.29,30.83,9.4,30.83,9.4c-0.01,0.97,34.43,34.8,27.39,58.67
	c-7.05,23.88-1.09,129.34-1.09,129.34s-118.61,2.31-121.19-4.75s6.65-45.53,6.65-45.53s3.6-76.46-0.99-92.21
	c-4.59-15.76,8.83-56.43,22.23-60.21c4.26-1.2,12.57-0.16,21.93,1.83"/>
<path class="st18" d="M421.51,742.41c0.02-3.82-0.14-8.38-0.31-11.96c-0.34-7.2,4.44-10.36,4.44-10.36l17.26,0.2
	c0,0,10.8,6.29,10.8,22.3c0,16.01-13.72,20.8-13.72,20.8l-0.23,0.09c-5.43,5.85-12.48,0.81-12.48,0.81s-1.15-0.79-1.38-1.86l-0.35,0
	c-3.61,0.03-7.17-0.87-9.42-5.27l-0.1-0.17c-1.81-0.84-3.26-2.59-3.53-5.96c-0.82-10.09,8.58-8.68,8.58-8.68L421.51,742.41z"/>
<path class="st5" d="M416.01,757c3.61,1.68,8.66-0.28,8.66-0.28s5.83-2.72,8.51-17.72"/>
<path class="st5" d="M425.53,762.43c4.65-0.04,9.04-2.28,9.62-2.98c0,0,4.73-3.92,7.34-15.92"/>
<path class="st5" d="M449.75,743.53c0,0-3.75,11.83-9.26,19.06c-0.25,0.32-0.5,0.62-0.75,0.89"/>
<path class="st14" d="M347.45,540.09c-1.54,0.52,1.64-3.67,1.64-3.67s-0.29-4.74,1.74-9.96c2.03-5.22,20.4,1.19,20.4,1.19
	s48.91,20.07,43.4,24.71l-6.09,7.62c0,0-0.39,1.47-4.54-2.06C399.84,554.39,362.43,535.06,347.45,540.09z"/>
<path class="st16" d="M377.8,824.7c0,0,1.55,14.21,32.08,14.83"/>
<path class="st13" d="M387.22,630.59c0.56,19.22,2.85,40,9.47,50.67l-0.07,0.77l-0.09,0.5c0,0-2.02,28.2,17.76,38.24l34.1-5.2
	c15.89-15.48,5.54-41.8,5.54-41.8l0.01-0.3c0.14-20.17-16.65-51.13-16.65-51.13"/>
<path class="st13" d="M446.28,721.5l-27.51,4.2c-1.16,0.18-2.24-0.62-2.41-1.77l-0.22-1.41c-0.18-1.16,0.62-2.24,1.77-2.41
	l27.51-4.2c1.16-0.18,2.24,0.62,2.41,1.77l0.22,1.41C448.23,720.25,447.44,721.33,446.28,721.5z"/>
<path class="st14" d="M434.32,579.45c0,0-16.77-29.18-47.47-9.9c0,0-18.25,9.22-9.81,38.88l3.94,29.19
	c-0.04-3.28,46.81-15.25,63.74-9.83C444.73,627.8,440.43,583.6,434.32,579.45z"/>
<path class="st15" d="M563.25,763.39"/>
<polygon class="st23" points="347.11,533.49 421.78,524.35 418.63,499.6 343.95,508.74 "/>
<path class="st18" d="M378.96,518.21"/>
<path class="st24" d="M376.83,467.43"/>
<path class="st24" d="M376.83,467.43"/>
<path class="st18" d="M426.42,520.12l-2.5-20.87l-0.03-0.08l-1.96-16.55c-0.15-1.24-0.42-2.44-0.77-3.61l-0.28-1.09
	c0,0-10.84-32.9-44.41-28.8l0.19-0.02c-33.56,4.11-36.32,38.67-36.32,38.67l-0.01,0.53c-0.09,1.42-0.08,2.85,0.09,4.29l1.99,16.62
	l2.5,20.87"/>
<path class="st18" d="M386.77,534.2c-23.82,2.56-33.98,1.72-38.32,1.18c-3.48-0.44-3.2-2.55-3.2-2.55l-0.33-2.74
	c0,0,14.64,1.98,40.77-1.49l0.78-0.1c26.2-2.92,39.95-8.38,39.95-8.38l0.33,2.74c0,0,0.77,1.98-2.51,3.24
	c-4.08,1.58-13.75,4.84-37.49,8.1"/>
<path class="st18" d="M425.01,508.52c-13.15-1.69-16.86-5.57-17.23-7.55l-2.49-15.92c-1.2-7.67,1.56-15.16,7.21-21.32
	c0.41-1.26-1.17-1.67-1.17-1.67c-6.57,6.86-9.94,15.26-8.61,23.72l2.69,17.18c0,0,3.21,6.34,19.84,7.91
	C425.47,511.13,426.28,508.68,425.01,508.52z"/>
<path class="st25" d="M425.01,508.52c-13.15-1.69-16.86-5.57-17.23-7.55l-2.49-15.92c-1.2-7.67,1.56-15.16,7.21-21.32l0.24-0.01
	c5.82,7.16,8.14,14.2,8.14,14.2l0.28,1.09c0.35,1.17,0.62,2.37,0.77,3.61l1.96,16.55l0.03,0.08l1.39,11.63"/>
<path class="st26" d="M340.34,487.78l-0.01,0.53c-0.09,1.42-0.08,2.85,0.09,4.29l1.99,16.62l2.5,20.87"/>
<g>
	<g>
		<path class="st27" d="M298.21,730.66c3.22,0,3.22-5,0-5C294.99,725.66,294.99,730.66,298.21,730.66L298.21,730.66z"/>
	</g>
</g>
<g>
	<g>
		<path class="st27" d="M300.63,723.77c3.22,0,3.22-5,0-5C297.41,718.77,297.4,723.77,300.63,723.77L300.63,723.77z"/>
	</g>
</g>
<path class="st28" d="M304.19,739.09L280.5,814.7l-7.33-2.3l23.69-75.61l1.16-3.62l1.2-3.84c0.43-1.38-0.81-2.99-2.77-3.61
	l-16.8-5.27c-1.96-0.61-3.9,0-4.33,1.38l-1.2,3.84l-1.29,3.85l-23.52,75.06l-7.33-2.3l23.52-75.06l0.36-1.29l2.91-9.27
	c0.97-3.11,4.21-4.85,7.24-3.91l27.7,8.68c3.02,0.95,4.69,4.23,3.71,7.34l-2.91,9.27L304.19,739.09z"/>
<path class="st29" d="M299.22,729.34c0.43-1.38-0.81-2.99-2.77-3.61"/>
<path class="st18" d="M307.32,724.67c0-1.14-0.09-2.46-0.31-3.98c-1.73-12.28-3.61-13-3.61-13l-23.54-1.88
	c0,0-11.91,8.88-7.58,19.82l0.72,1.55c1.55,5.96,4.94,5.7,4.94,5.7s4.16,5.02,6.73,4.01v-0.14c4.2,3.72,8.23,3.5,11.65,1.44
	l2.61-7.98l-0.51-0.3c-3.74-5.32-0.64-8.68,0.9-9.91c0.44-0.35,0.75-0.52,0.75-0.52"/>
<path class="st5" d="M292.7,739.73c0.8-0.07,1.26-0.5,1.53-1c0.4-0.74,0.12-1.66-0.6-2.09c-1.88-1.13-5.92-4.25-6.72-10.68"/>
<path class="st5" d="M284.74,736.77c0.85,0.9,1.83,1.64,2.96,2.08c1.39,0.54,2.32,0.71,2.94,0.66"/>
<path class="st5" d="M280.73,727.01c0,0,1.15,6.56,4.65,10.3"/>
<path class="st5" d="M277.42,726.65c0,0,0.69,5.28,1.28,6.78"/>
<line class="st30" x1="249.31" y1="804.59" x2="241.98" y2="802.3"/>
<polyline class="st29" points="295.75,740.18 298.02,733.17 299.22,729.34 "/>
<path class="st28" d="M300.09,720.34l3.62,1.11c3.02,0.95,4.69,4.23,3.71,7.34"/>
<path class="st13" d="M305.98,710.25l-27.46-4.48c-1.15-0.19-1.94-1.28-1.75-2.43l0.23-1.41c0.19-1.15,1.28-1.94,2.43-1.75
	l27.46,4.48c1.15,0.19,1.94,1.28,1.75,2.43l-0.23,1.41C308.23,709.66,307.14,710.44,305.98,710.25z"/>
<path class="st31" d="M252.88,948.15l-60.99-18.86c-13.81-4.27-21.54-18.93-17.27-32.74l29.6-95.74
	c4.27-13.81,18.93-21.54,32.74-17.27l60.99,18.86c13.81,4.27,21.54,18.93,17.27,32.74l-29.6,95.74
	C281.35,944.69,266.69,952.42,252.88,948.15z"/>
<path class="st32" d="M248.06,941.42l-60.99-18.86c-13.81-4.27-21.54-18.93-17.27-32.74l29.6-95.74
	c4.27-13.81,18.93-21.54,32.74-17.27l60.99,18.86c13.81,4.27,21.54,18.93,17.27,32.74l-29.6,95.74
	C276.53,937.95,261.88,945.69,248.06,941.42z"/>
<circle class="st33" cx="181.33" cy="934.56" r="9.95"/>
<circle class="st8" cx="181.33" cy="934.56" r="3.02"/>
<circle class="st33" cx="260.59" cy="958.3" r="9.95"/>
<circle class="st8" cx="260.59" cy="958.3" r="3.02"/>
<circle class="st33" cx="247.61" cy="953.8" r="9.95"/>
<circle class="st8" cx="247.61" cy="953.8" r="3.02"/>
<circle class="st33" cx="168.8" cy="925.12" r="9.95"/>
<circle class="st8" cx="168.8" cy="925.12" r="3.02"/>
<g>
	<path class="st6" d="M888.11,97.56c26.94,0,48.77,21.84,48.77,48.77v788.13c0,26.94-21.84,48.77-48.77,48.77H191.34
		c-26.94,0-48.77-21.84-48.77-48.77V146.34c0-26.94,21.84-48.77,48.77-48.77H888.11 M888.11,88.56H191.34
		c-31.86,0-57.77,25.92-57.77,57.77v788.13c0,31.86,25.92,57.77,57.77,57.77h696.77c31.86,0,57.77-25.92,57.77-57.77V146.34
		C945.89,114.48,919.97,88.56,888.11,88.56L888.11,88.56z"/>
</g>
</svg>
