<?xml version="1.0" encoding="utf-8"?>
<!-- Generator: Adobe Illustrator 26.3.1, SVG Export Plug-In . SVG Version: 6.00 Build 0)  -->
<svg version="1.1" id="Layer_1" xmlns="http://www.w3.org/2000/svg" xmlns:xlink="http://www.w3.org/1999/xlink" x="0px" y="0px"
	 viewBox="0 0 1080 1080" style="enable-background:new 0 0 1080 1080;" xml:space="preserve">
<style type="text/css">
	.st0{fill:#411900;}
	.st1{fill:#FFF1E7;}
	.st2{fill:#E15D25;}
	.st3{fill:#F68B44;}
	.st4{fill:#F9A369;}
	.st5{fill:#EFE8CC;stroke:#B1AE9C;stroke-width:4;stroke-linecap:round;stroke-linejoin:round;stroke-miterlimit:10;}
	.st6{fill:#B1AE9C;stroke:#9B9989;stroke-miterlimit:10;}
	.st7{fill:#2B190D;stroke:#A8A694;stroke-width:4;stroke-miterlimit:10;}
	.st8{fill:#2B190D;stroke:#000000;stroke-width:2;stroke-miterlimit:10;}
	.st9{fill:#D23C27;stroke:#A53A23;stroke-width:3;stroke-linecap:round;stroke-linejoin:round;stroke-miterlimit:10;}
</style>
<path class="st0" d="M891.56,983.24H188.57c-25.41,0-46.01-20.6-46.01-46.01V143.57c0-25.41,20.6-46.01,46.01-46.01h702.99
	c25.41,0,46.01,20.6,46.01,46.01v793.67C937.56,962.64,916.96,983.24,891.56,983.24z"/>
<g>
	<g>
		<path class="st1" d="M157.19,445.91c3.22,0,3.22-5,0-5C153.97,440.91,153.96,445.91,157.19,445.91L157.19,445.91z"/>
	</g>
</g>
<g>
	<g>
		<path class="st1" d="M186.3,362.63c3.22,0,3.22-5,0-5C183.08,357.63,183.08,362.63,186.3,362.63L186.3,362.63z"/>
	</g>
</g>
<g>
	<g>
		<path class="st1" d="M874.72,606.79c3.22,0,3.22-5,0-5C871.5,601.79,871.49,606.79,874.72,606.79L874.72,606.79z"/>
	</g>
</g>
<g>
	<g>
		<path class="st1" d="M363.11,333.29c3.22,0,3.22-5,0-5C359.9,328.29,359.89,333.29,363.11,333.29L363.11,333.29z"/>
	</g>
</g>
<g>
	<g>
		<path class="st1" d="M446.77,561.74c3.22,0,3.22-5,0-5C443.55,556.74,443.55,561.74,446.77,561.74L446.77,561.74z"/>
	</g>
</g>
<g>
	<g>
		<path class="st1" d="M471.28,301.24c3.22,0,3.22-5,0-5C468.06,296.24,468.05,301.24,471.28,301.24L471.28,301.24z"/>
	</g>
</g>
<g>
	<g>
		<path class="st1" d="M337.37,797.48c3.22,0,3.22-5,0-5C334.16,792.48,334.15,797.48,337.37,797.48L337.37,797.48z"/>
	</g>
</g>
<g>
	<g>
		<path class="st1" d="M913.33,716.19c3.22,0,3.22-5,0-5C910.11,711.19,910.1,716.19,913.33,716.19L913.33,716.19z"/>
	</g>
</g>
<g>
	<g>
		<path class="st1" d="M919.76,465.21c3.22,0,3.22-5,0-5C916.54,460.21,916.54,465.21,919.76,465.21L919.76,465.21z"/>
	</g>
</g>
<g>
	<g>
		<path class="st1" d="M778.19,507.04c3.22,0,3.22-5,0-5C774.97,502.04,774.96,507.04,778.19,507.04L778.19,507.04z"/>
	</g>
</g>
<g>
	<g>
		<path class="st1" d="M768.53,342.94c3.22,0,3.22-5,0-5C765.32,337.94,765.31,342.94,768.53,342.94L768.53,342.94z"/>
	</g>
</g>
<g>
	<g>
		<path class="st1" d="M237.93,584.59c3.22,0,3.22-5,0-5C234.71,579.59,234.71,584.59,237.93,584.59L237.93,584.59z"/>
	</g>
</g>
<g>
	<g>
		<path class="st1" d="M652.7,452.34c3.22,0,3.22-5,0-5C649.48,447.34,649.48,452.34,652.7,452.34L652.7,452.34z"/>
	</g>
</g>
<g>
	<g>
		<path class="st1" d="M401.73,458.78c3.22,0,3.22-5,0-5C398.51,453.78,398.5,458.78,401.73,458.78L401.73,458.78z"/>
	</g>
</g>
<g>
	<g>
		<path class="st1" d="M558.68,296.77c3.22,0,3.22-5,0-5C555.46,291.77,555.46,296.77,558.68,296.77L558.68,296.77z"/>
	</g>
</g>
<g>
	<g>
		<path class="st1" d="M168.41,302.46c3.22,0,3.22-5,0-5C165.2,297.46,165.19,302.46,168.41,302.46L168.41,302.46z"/>
	</g>
</g>
<g>
	<g>
		<path class="st1" d="M295.54,429.82c3.22,0,3.22-5,0-5C292.33,424.82,292.32,429.82,295.54,429.82L295.54,429.82z"/>
	</g>
</g>
<g>
	<g>
		<path class="st1" d="M701.78,764.28c3.22,0,3.22-5,0-5C698.56,759.28,698.55,764.28,701.78,764.28L701.78,764.28z"/>
	</g>
</g>
<g>
	<g>
		<path class="st1" d="M929.41,777.32c3.22,0,3.22-5,0-5C926.2,772.32,926.19,777.32,929.41,777.32L929.41,777.32z"/>
	</g>
</g>
<g>
	<g>
		<path class="st1" d="M845.76,297.9c3.22,0,3.22-5,0-5C842.54,292.9,842.53,297.9,845.76,297.9L845.76,297.9z"/>
	</g>
</g>
<g>
	<g>
		<path class="st1" d="M659.13,288.24c3.22,0,3.22-5,0-5C655.92,283.24,655.91,288.24,659.13,288.24L659.13,288.24z"/>
	</g>
</g>
<g>
	<g>
		<path class="st1" d="M488.6,368.68c3.22,0,3.22-5,0-5C485.38,363.68,485.38,368.68,488.6,368.68L488.6,368.68z"/>
	</g>
</g>
<g>
	<g>
		<path class="st1" d="M400.13,382.14c3.22,0,3.22-5,0-5C396.92,377.14,396.91,382.14,400.13,382.14L400.13,382.14z"/>
	</g>
</g>
<g>
	<g>
		<path class="st1" d="M877.93,838.46c3.22,0,3.22-5,0-5C874.72,833.46,874.71,838.46,877.93,838.46L877.93,838.46z"/>
	</g>
</g>
<g>
	<g>
		<path class="st1" d="M318.07,722.62c3.22,0,3.22-5,0-5C314.85,717.62,314.84,722.62,318.07,722.62L318.07,722.62z"/>
	</g>
</g>
<g>
	<g>
		<path class="st1" d="M319.64,374.83c3.22,0,3.22-5,0-5C316.42,369.83,316.42,374.83,319.64,374.83L319.64,374.83z"/>
	</g>
</g>
<g>
	<g>
		<path class="st1" d="M184.67,694.36c3.22,0,3.22-5,0-5C181.46,689.36,181.45,694.36,184.67,694.36L184.67,694.36z"/>
	</g>
</g>
<g>
	<g>
		<path class="st1" d="M153.97,529.57c3.22,0,3.22-5,0-5C150.75,524.57,150.75,529.57,153.97,529.57L153.97,529.57z"/>
	</g>
</g>
<g>
	<g>
		<path class="st1" d="M787.67,658.86c3.22,0,3.22-5,0-5C784.45,653.86,784.44,658.86,787.67,658.86L787.67,658.86z"/>
	</g>
</g>
<g>
	<g>
		<path class="st1" d="M285.89,687.23c3.22,0,3.22-5,0-5C282.67,682.23,282.67,687.23,285.89,687.23L285.89,687.23z"/>
	</g>
</g>
<g>
	<g>
		<path class="st1" d="M437.12,771.74c3.22,0,3.22-5,0-5C433.9,766.74,433.9,771.74,437.12,771.74L437.12,771.74z"/>
	</g>
</g>
<g>
	<g>
		<path class="st1" d="M401.73,613.22c3.22,0,3.22-5,0-5C398.51,608.22,398.5,613.22,401.73,613.22L401.73,613.22z"/>
	</g>
</g>
<g>
	<g>
		<path class="st1" d="M340.59,648.62c3.22,0,3.22-5,0-5C337.37,643.62,337.37,648.62,340.59,648.62L340.59,648.62z"/>
	</g>
</g>
<g>
	<g>
		<path class="st1" d="M144.32,645.4c3.22,0,3.22-5,0-5C141.1,640.4,141.09,645.4,144.32,645.4L144.32,645.4z"/>
	</g>
</g>
<g>
	<g>
		<path class="st1" d="M385.64,291.46c3.22,0,3.22-5,0-5C382.42,286.46,382.41,291.46,385.64,291.46L385.64,291.46z"/>
	</g>
</g>
<g>
	<g>
		<path class="st1" d="M314.85,516.7c3.22,0,3.22-5,0-5C311.63,511.7,311.63,516.7,314.85,516.7L314.85,516.7z"/>
	</g>
</g>
<g>
	<g>
		<path class="st1" d="M786.23,408.9c3.22,0,3.22-5,0-5C783.01,403.9,783.01,408.9,786.23,408.9L786.23,408.9z"/>
	</g>
</g>
<g>
	<g>
		<path class="st1" d="M895.63,339.73c3.22,0,3.22-5,0-5C892.41,334.73,892.41,339.73,895.63,339.73L895.63,339.73z"/>
	</g>
</g>
<g>
	<g>
		<path class="st1" d="M731.86,316.29c3.22,0,3.22-5,0-5C728.64,311.29,728.64,316.29,731.86,316.29L731.86,316.29z"/>
	</g>
</g>
<g>
	<g>
		<path class="st1" d="M863.57,769.97c3.22,0,3.22-5,0-5C860.36,764.97,860.35,769.97,863.57,769.97L863.57,769.97z"/>
	</g>
</g>
<g>
	<g>
		<path class="st1" d="M545.45,542.97c3.22,0,3.22-5,0-5C542.23,537.97,542.22,542.97,545.45,542.97L545.45,542.97z"/>
	</g>
</g>
<g>
	<g>
		<path class="st1" d="M516.49,427.14c3.22,0,3.22-5,0-5C513.27,422.14,513.26,427.14,516.49,427.14L516.49,427.14z"/>
	</g>
</g>
<g>
	<g>
		<path class="st1" d="M603.36,378.87c3.22,0,3.22-5,0-5C600.15,373.87,600.14,378.87,603.36,378.87L603.36,378.87z"/>
	</g>
</g>
<g>
	<g>
		<path class="st1" d="M600.14,528.49c3.22,0,3.22-5,0-5C596.93,523.49,596.92,528.49,600.14,528.49L600.14,528.49z"/>
	</g>
</g>
<g>
	<g>
		<path class="st1" d="M699.89,534.93c3.22,0,3.22-5,0-5C696.67,529.93,696.67,534.93,699.89,534.93L699.89,534.93z"/>
	</g>
</g>
<g>
	<g>
		<path class="st1" d="M752.98,620.2c3.22,0,3.22-5,0-5C749.76,615.2,749.76,620.2,752.98,620.2L752.98,620.2z"/>
	</g>
</g>
<g>
	<g>
		<path class="st1" d="M851.12,533.32c3.22,0,3.22-5,0-5C847.9,528.32,847.9,533.32,851.12,533.32L851.12,533.32z"/>
	</g>
</g>
<g>
	<g>
		<path class="st1" d="M928.34,642.72c3.22,0,3.22-5,0-5C925.12,637.72,925.12,642.72,928.34,642.72L928.34,642.72z"/>
	</g>
</g>
<g>
	<g>
		<path class="st1" d="M947.65,515.62c3.22,0,3.22-5,0-5C944.43,510.62,944.43,515.62,947.65,515.62L947.65,515.62z"/>
	</g>
</g>
<g>
	<g>
		<path class="st1" d="M160.28,848.84c3.22,0,3.22-5,0-5C157.07,843.84,157.06,848.84,160.28,848.84L160.28,848.84z"/>
	</g>
</g>
<g>
	<g>
		<path class="st1" d="M495.26,472.39c3.22,0,3.22-5,0-5C492.04,467.39,492.04,472.39,495.26,472.39L495.26,472.39z"/>
	</g>
</g>
<g>
	<g>
		<path class="st1" d="M570.87,648.01c3.22,0,3.22-5,0-5C567.66,643.01,567.65,648.01,570.87,648.01L570.87,648.01z"/>
	</g>
</g>
<g>
	<g>
		<path class="st1" d="M229.39,418.73c3.22,0,3.22-5,0-5C226.17,413.73,226.17,418.73,229.39,418.73L229.39,418.73z"/>
	</g>
</g>
<g>
	<g>
		<path class="st1" d="M518.1,645.94c3.22,0,3.22-5,0-5C514.88,640.94,514.87,645.94,518.1,645.94L518.1,645.94z"/>
	</g>
</g>
<g>
	<g>
		<path class="st1" d="M685.41,578.37c3.22,0,3.22-5,0-5C682.19,573.37,682.19,578.37,685.41,578.37L685.41,578.37z"/>
	</g>
</g>
<g>
	<g>
		<path class="st1" d="M635.54,736.03c3.22,0,3.22-5,0-5C632.32,731.03,632.32,736.03,635.54,736.03L635.54,736.03z"/>
	</g>
</g>
<g>
	<g>
		<path class="st1" d="M492.35,665.24c3.22,0,3.22-5,0-5C489.14,660.24,489.13,665.24,492.35,665.24L492.35,665.24z"/>
	</g>
</g>
<g>
	<g>
		<path class="st1" d="M670.93,647.54c3.22,0,3.22-5,0-5C667.72,642.54,667.71,647.54,670.93,647.54L670.93,647.54z"/>
	</g>
</g>
<g>
	<g>
		<path class="st1" d="M937.56,300.84c3.22,0,3.22-5,0-5C934.35,295.84,934.34,300.84,937.56,300.84L937.56,300.84z"/>
	</g>
</g>
<g>
	<g>
		<path class="st1" d="M510.05,715.11c3.22,0,3.22-5,0-5C506.83,710.11,506.83,715.11,510.05,715.11L510.05,715.11z"/>
	</g>
</g>
<g>
	<g>
		<path class="st1" d="M431.22,690.98c3.22,0,3.22-5,0-5C428,685.98,428,690.98,431.22,690.98L431.22,690.98z"/>
	</g>
</g>
<g>
	<g>
		<path class="st1" d="M526.16,819.57c3.22,0,3.22-5,0-5C522.94,814.57,522.93,819.57,526.16,819.57L526.16,819.57z"/>
	</g>
</g>
<g>
	<g>
		<path class="st1" d="M698.52,839.08c3.22,0,3.22-5,0-5C695.31,834.08,695.3,839.08,698.52,839.08L698.52,839.08z"/>
	</g>
</g>
<g>
	<g>
		<path class="st1" d="M728.85,713.51c3.22,0,3.22-5,0-5C725.63,708.51,725.63,713.51,728.85,713.51L728.85,713.51z"/>
	</g>
</g>
<g>
	<g>
		<path class="st1" d="M809.1,595.16c3.22,0,3.22-5,0-5C805.88,590.16,805.88,595.16,809.1,595.16L809.1,595.16z"/>
	</g>
</g>
<g>
	<g>
		<path class="st1" d="M836.64,721.55c3.22,0,3.22-5,0-5C833.42,716.55,833.42,721.55,836.64,721.55L836.64,721.55z"/>
	</g>
</g>
<g>
	<g>
		<path class="st1" d="M801.25,821.3c3.22,0,3.22-5,0-5C798.03,816.3,798.02,821.3,801.25,821.3L801.25,821.3z"/>
	</g>
</g>
<g>
	<g>
		<path class="st1" d="M633.93,805.21c3.22,0,3.22-5,0-5C630.71,800.21,630.71,805.21,633.93,805.21L633.93,805.21z"/>
	</g>
</g>
<g>
	<g>
		<path class="st1" d="M791.21,762.65c3.22,0,3.22-5,0-5C788,757.65,787.99,762.65,791.21,762.65L791.21,762.65z"/>
	</g>
</g>
<g>
	<g>
		<path class="st1" d="M591.2,842.33c3.22,0,3.22-5,0-5C587.98,837.33,587.98,842.33,591.2,842.33L591.2,842.33z"/>
	</g>
</g>
<g>
	<g>
		<path class="st1" d="M569.58,756.94c3.22,0,3.22-5,0-5C566.36,751.94,566.35,756.94,569.58,756.94L569.58,756.94z"/>
	</g>
</g>
<g>
	<g>
		<path class="st1" d="M298.5,852.09c3.22,0,3.22-5,0-5C295.28,847.09,295.28,852.09,298.5,852.09L298.5,852.09z"/>
	</g>
</g>
<g>
	<g>
		<path class="st1" d="M439.16,848.02c3.22,0,3.22-5,0-5C435.94,843.02,435.94,848.02,439.16,848.02L439.16,848.02z"/>
	</g>
</g>
<g>
	<g>
		<path class="st1" d="M247.82,811.64c3.22,0,3.22-5,0-5C244.6,806.64,244.59,811.64,247.82,811.64L247.82,811.64z"/>
	</g>
</g>
<g>
	<g>
		<path class="st1" d="M181.85,744.07c3.22,0,3.22-5,0-5C178.64,739.07,178.63,744.07,181.85,744.07L181.85,744.07z"/>
	</g>
</g>
<g>
	<g>
		<path class="st1" d="M183.46,790.73c3.22,0,3.22-5,0-5C180.25,785.73,180.24,790.73,183.46,790.73L183.46,790.73z"/>
	</g>
</g>
<g>
	<g>
		<path class="st1" d="M323.43,734.42c3.22,0,3.22-5,0-5C320.21,729.42,320.21,734.42,323.43,734.42L323.43,734.42z"/>
	</g>
</g>
<g>
	<g>
		<path class="st1" d="M239.77,497.93c3.22,0,3.22-5,0-5C236.55,492.93,236.55,497.93,239.77,497.93L239.77,497.93z"/>
	</g>
</g>
<g>
	<g>
		<path class="st1" d="M410.31,497.93c3.22,0,3.22-5,0-5C407.09,492.93,407.08,497.93,410.31,497.93L410.31,497.93z"/>
	</g>
</g>
<g>
	<g>
		<path class="st1" d="M532.57,507.58c3.22,0,3.22-5,0-5C529.36,502.58,529.35,507.58,532.57,507.58L532.57,507.58z"/>
	</g>
</g>
<path class="st2" d="M465.47,525.83c0,0-1.48,0.05-4.16,0.2c-19.37,1.06-101.53,7.26-142.34,37.41c-4.18,3.09-3.17,9.59,1.77,11.23
	h0c5.81,1.93,5.86,10.13,0.07,12.11c-31.13,10.65-92.42,36.51-120.47,82.32c-2.07,3.39-0.64,7.83,3.05,9.31l8.23,3.31
	c4.16,1.67,5.35,6.98,2.31,10.27c-16.19,17.49-57.28,64.61-55.19,90.07c2.64,32.1,105.92-0.65,133.05-13.78
	c3.56-1.72,7.8,0.19,8.9,3.98l2.77,9.53c1.01,3.47,4.69,5.42,8.13,4.29c15.12-4.97,54.82-18.74,89.79-37.12
	c4.82-2.54,10.4,1.77,9.19,7.09l-0.23,1.01c-1.27,5.58,4.87,9.9,9.68,6.8c21.83-14.06,67.55-49.92,107.69-123.08L465.47,525.83z"/>
<path class="st3" d="M510.63,611.14c-16.37,40.73-73.63,87.7-95.89,104.87c-2.89,2.23-6.95-0.5-5.97-4.02l0,0
	c0.9-3.25-2.57-5.96-5.51-4.32c-34.11,19.02-51.13,22.91-57.7,23.64c-1.88,0.21-3.62-1.02-4.08-2.86l-0.96-3.85
	c-0.54-2.17-2.83-3.4-4.94-2.66c-48.77,17.06-64.53,19.2-76.77,10.7c-10.2-7.09,19.14-43.62,30.5-57.07
	c1.88-2.22,0.65-5.65-2.21-6.18l-5.16-0.95c-2.52-0.47-3.88-3.26-2.67-5.52c16.76-31.14,55.16-46.07,75.63-52.04
	c3.64-1.06,3.65-6.21,0.01-7.28l-3.8-1.12c-3.15-0.93-3.73-5.17-0.92-6.87c47.52-28.88,134.17-33.87,134.17-33.87L510.63,611.14z"/>
<path class="st4" d="M504,598.94c-4.88,13.58-36.54,39.02-47.62,47.62c-1.2,0.93-2.9-0.22-2.47-1.69l0.01-0.02
	c0.42-1.41-1.15-2.56-2.38-1.75c-11.85,7.81-21.68,11.39-25.63,12.63c-0.96,0.3-1.94-0.37-2.03-1.37l-0.19-2.19
	c-0.09-1.07-1.22-1.74-2.2-1.3c-22.61,10.14-32.95,10.91-38.25,8.16c-4.55-2.36,10.36-20.57,15.41-26.53
	c0.74-0.88,0.32-2.23-0.79-2.53l-2.73-0.74c-0.88-0.24-1.37-1.17-1.08-2.03c3.32-10.05,25.87-21.28,35.29-25.6
	c1.35-0.62,1.17-2.58-0.27-2.95l-0.08-0.02c-1.34-0.34-1.61-2.11-0.44-2.86c20.23-12.91,55.62-18.03,62.09-18.88
	c0.63-0.08,1.24,0.22,1.55,0.77l11.67,19.98C504.09,598.04,504.16,598.51,504,598.94z"/>
<path class="st5" d="M919.03,357.45c-314.98-93.83-406.54,153.34-406.54,153.34l52.13,98.1c0,0,256.08,62.44,354.58-251.11"/>
<circle class="st6" cx="730.63" cy="458.07" r="62.57"/>
<circle class="st7" cx="731.39" cy="457.66" r="47.86"/>
<polyline class="st8" points="512.84,511.45 460.12,515.01 532.43,651.09 564.89,609.39 "/>
<path class="st9" d="M705.77,345.17c0,0-130.76-38.76-227.95,83.47l74.11,16.57c35.46-49.82,87.67-83.13,152.65-100.09"/>
<path class="st9" d="M809.36,540.12c0,0-41.05,130.05-196.74,142.21l27.74-70.69c61.14-1.51,117.95-26.13,168.38-70.49"/>
<g>
	<g>
		<path class="st1" d="M273.3,303.62c3.22,0,3.22-5,0-5C270.08,298.62,270.07,303.62,273.3,303.62L273.3,303.62z"/>
	</g>
</g>
<g>
	<path class="st1" d="M888.11,97.56c26.94,0,48.77,21.84,48.77,48.77v788.13c0,26.94-21.84,48.77-48.77,48.77H191.34
		c-26.94,0-48.77-21.84-48.77-48.77V146.34c0-26.94,21.84-48.77,48.77-48.77H888.11 M888.11,92.56H191.34
		c-29.65,0-53.77,24.12-53.77,53.77v788.13c0,29.65,24.12,53.77,53.77,53.77h696.77c29.65,0,53.77-24.12,53.77-53.77V146.34
		C941.89,116.69,917.76,92.56,888.11,92.56L888.11,92.56z"/>
</g>
<g>
	<g>
		<path class="st1" d="M185.88,957.43c3.22,0,3.22-5,0-5C182.66,952.43,182.66,957.43,185.88,957.43L185.88,957.43z"/>
	</g>
</g>
<g>
	<g>
		<path class="st1" d="M237.91,243.2c3.22,0,3.22-5,0-5C234.69,238.2,234.68,243.2,237.91,243.2L237.91,243.2z"/>
	</g>
</g>
<g>
	<g>
		<path class="st1" d="M362.69,928.09c3.22,0,3.22-5,0-5C359.47,923.09,359.47,928.09,362.69,928.09L362.69,928.09z"/>
	</g>
</g>
<g>
	<g>
		<path class="st1" d="M470.85,896.04c3.22,0,3.22-5,0-5C467.64,891.04,467.63,896.04,470.85,896.04L470.85,896.04z"/>
	</g>
</g>
<g>
	<g>
		<path class="st1" d="M200.76,133.3c3.22,0,3.22-5,0-5C197.54,128.3,197.54,133.3,200.76,133.3L200.76,133.3z"/>
	</g>
</g>
<g>
	<g>
		<path class="st1" d="M908.14,189.85c3.22,0,3.22-5,0-5C904.92,184.85,904.92,189.85,908.14,189.85L908.14,189.85z"/>
	</g>
</g>
<g>
	<g>
		<path class="st1" d="M766.56,231.68c3.22,0,3.22-5,0-5C763.35,226.68,763.34,231.68,766.56,231.68L766.56,231.68z"/>
	</g>
</g>
<g>
	<g>
		<path class="st1" d="M768.11,937.74c3.22,0,3.22-5,0-5C764.89,932.74,764.89,937.74,768.11,937.74L768.11,937.74z"/>
	</g>
</g>
<g>
	<g>
		<path class="st1" d="M842.43,185.22c3.22,0,3.22-5,0-5C839.22,180.22,839.21,185.22,842.43,185.22L842.43,185.22z"/>
	</g>
</g>
<g>
	<g>
		<path class="st1" d="M558.26,891.57c3.22,0,3.22-5,0-5C555.04,886.57,555.03,891.57,558.26,891.57L558.26,891.57z"/>
	</g>
</g>
<g>
	<g>
		<path class="st1" d="M167.99,897.26c3.22,0,3.22-5,0-5C164.77,892.26,164.77,897.26,167.99,897.26L167.99,897.26z"/>
	</g>
</g>
<g>
	<g>
		<path class="st1" d="M845.33,892.69c3.22,0,3.22-5,0-5C842.12,887.69,842.11,892.69,845.33,892.69L845.33,892.69z"/>
	</g>
</g>
<g>
	<g>
		<path class="st1" d="M658.71,883.04c3.22,0,3.22-5,0-5C655.49,878.04,655.49,883.04,658.71,883.04L658.71,883.04z"/>
	</g>
</g>
<g>
	<g>
		<path class="st1" d="M488.18,963.48c3.22,0,3.22-5,0-5C484.96,958.48,484.96,963.48,488.18,963.48L488.18,963.48z"/>
	</g>
</g>
<g>
	<g>
		<path class="st1" d="M399.71,976.94c3.22,0,3.22-5,0-5C396.49,971.94,396.49,976.94,399.71,976.94L399.71,976.94z"/>
	</g>
</g>
<g>
	<g>
		<path class="st1" d="M319.22,969.62c3.22,0,3.22-5,0-5C316,964.62,316,969.62,319.22,969.62L319.22,969.62z"/>
	</g>
</g>
<g>
	<g>
		<path class="st1" d="M325.64,192.3c3.22,0,3.22-5,0-5C322.43,187.3,322.42,192.3,325.64,192.3L325.64,192.3z"/>
	</g>
</g>
<g>
	<g>
		<path class="st1" d="M710.94,243.1c3.22,0,3.22-5,0-5C707.72,238.1,707.72,243.1,710.94,243.1L710.94,243.1z"/>
	</g>
</g>
<g>
	<g>
		<path class="st1" d="M385.21,886.26c3.22,0,3.22-5,0-5C382,881.26,381.99,886.26,385.21,886.26L385.21,886.26z"/>
	</g>
</g>
<g>
	<g>
		<path class="st1" d="M774.61,133.54c3.22,0,3.22-5,0-5C771.39,128.54,771.38,133.54,774.61,133.54L774.61,133.54z"/>
	</g>
</g>
<g>
	<g>
		<path class="st1" d="M895.21,934.52c3.22,0,3.22-5,0-5C891.99,929.52,891.98,934.52,895.21,934.52L895.21,934.52z"/>
	</g>
</g>
<g>
	<g>
		<path class="st1" d="M731.44,911.08c3.22,0,3.22-5,0-5C728.22,906.08,728.21,911.08,731.44,911.08L731.44,911.08z"/>
	</g>
</g>
<g>
	<g>
		<path class="st1" d="M559.08,948.58c3.22,0,3.22-5,0-5C555.86,943.58,555.86,948.58,559.08,948.58L559.08,948.58z"/>
	</g>
</g>
<g>
	<g>
		<path class="st1" d="M602.94,973.67c3.22,0,3.22-5,0-5C599.72,968.67,599.72,973.67,602.94,973.67L602.94,973.67z"/>
	</g>
</g>
<g>
	<g>
		<path class="st1" d="M684.5,937.74c3.22,0,3.22-5,0-5C681.28,932.74,681.28,937.74,684.5,937.74L684.5,937.74z"/>
	</g>
</g>
<g>
	<g>
		<path class="st1" d="M859.47,123.29c3.22,0,3.22-5,0-5C856.25,118.29,856.24,123.29,859.47,123.29L859.47,123.29z"/>
	</g>
</g>
<g>
	<g>
		<path class="st1" d="M359.81,231.43c3.22,0,3.22-5,0-5C356.59,226.43,356.59,231.43,359.81,231.43L359.81,231.43z"/>
	</g>
</g>
<g>
	<g>
		<path class="st1" d="M839.5,257.95c3.22,0,3.22-5,0-5C836.28,252.95,836.27,257.95,839.5,257.95L839.5,257.95z"/>
	</g>
</g>
<g>
	<g>
		<path class="st1" d="M184.76,206.56c3.22,0,3.22-5,0-5C181.55,201.56,181.54,206.56,184.76,206.56L184.76,206.56z"/>
	</g>
</g>
<g>
	<g>
		<path class="st1" d="M542.27,206.05c3.22,0,3.22-5,0-5C539.05,201.05,539.05,206.05,542.27,206.05L542.27,206.05z"/>
	</g>
</g>
<g>
	<g>
		<path class="st1" d="M595.02,208.83c3.22,0,3.22-5,0-5C591.8,203.83,591.79,208.83,595.02,208.83L595.02,208.83z"/>
	</g>
</g>
<g>
	<g>
		<path class="st1" d="M837.79,960.97c3.22,0,3.22-5,0-5C834.57,955.97,834.57,960.97,837.79,960.97L837.79,960.97z"/>
	</g>
</g>
<g>
	<g>
		<path class="st1" d="M478.79,117.17c3.22,0,3.22-5,0-5C475.57,112.17,475.57,117.17,478.79,117.17L478.79,117.17z"/>
	</g>
</g>
<g>
	<g>
		<path class="st1" d="M621.01,189.87c3.22,0,3.22-5,0-5C617.8,184.87,617.79,189.87,621.01,189.87L621.01,189.87z"/>
	</g>
</g>
<g>
	<g>
		<path class="st1" d="M442.22,205.18c3.22,0,3.22-5,0-5C439,200.18,438.99,205.18,442.22,205.18L442.22,205.18z"/>
	</g>
</g>
<g>
	<g>
		<path class="st1" d="M937.14,895.64c3.22,0,3.22-5,0-5C933.92,890.64,933.92,895.64,937.14,895.64L937.14,895.64z"/>
	</g>
</g>
<g>
	<g>
		<path class="st1" d="M603.99,139.76c3.22,0,3.22-5,0-5C600.77,134.76,600.76,139.76,603.99,139.76L603.99,139.76z"/>
	</g>
</g>
<g>
	<g>
		<path class="st1" d="M682.49,164.95c3.22,0,3.22-5,0-5C679.27,159.95,679.27,164.95,682.49,164.95L682.49,164.95z"/>
	</g>
</g>
<g>
	<g>
		<path class="st1" d="M385.19,138.45c3.22,0,3.22-5,0-5C381.97,133.45,381.96,138.45,385.19,138.45L385.19,138.45z"/>
	</g>
</g>
<g>
	<g>
		<path class="st1" d="M303.36,255.7c3.22,0,3.22-5,0-5C300.14,250.7,300.14,255.7,303.36,255.7L303.36,255.7z"/>
	</g>
</g>
<g>
	<g>
		<path class="st1" d="M277.51,128.96c3.22,0,3.22-5,0-5C274.3,123.96,274.29,128.96,277.51,128.96L277.51,128.96z"/>
	</g>
</g>
<g>
	<g>
		<path class="st1" d="M272.87,898.41c3.22,0,3.22-5,0-5C269.66,893.41,269.65,898.41,272.87,898.41L272.87,898.41z"/>
	</g>
</g>
</svg>
