<?xml version="1.0" encoding="utf-8"?>
<!-- Generator: Adobe Illustrator 26.3.1, SVG Export Plug-In . SVG Version: 6.00 Build 0)  -->
<svg version="1.1" id="Layer_1" xmlns="http://www.w3.org/2000/svg" xmlns:xlink="http://www.w3.org/1999/xlink" x="0px" y="0px"
	 viewBox="0 0 1080 1080" style="enable-background:new 0 0 1080 1080;" xml:space="preserve">
<style type="text/css">
	.st0{fill:#B26B37;}
	.st1{fill:#D23C27;stroke:#A53A23;stroke-width:4;stroke-miterlimit:10;}
	.st2{fill:#EFE8CC;stroke:#B5956A;stroke-width:4;stroke-miterlimit:10;}
	.st3{fill:#EFE8CC;stroke:#B5956A;stroke-width:4;stroke-linecap:round;stroke-linejoin:round;stroke-miterlimit:10;}
	.st4{fill:#EFE8CC;stroke:#EFE8CC;stroke-miterlimit:10;}
	.st5{fill:none;stroke:#A8A694;stroke-miterlimit:10;}
	.st6{fill:none;stroke:#A8A694;stroke-width:4;stroke-miterlimit:10;}
	.st7{fill:none;stroke:#A5391D;stroke-miterlimit:10;}
	.st8{fill:#EFE8CC;stroke:#B1AE9C;stroke-width:4;stroke-miterlimit:10;}
	.st9{fill:#DC7038;stroke:#A5391D;stroke-miterlimit:10;}
	.st10{fill:#D23C27;stroke:#A53A23;stroke-miterlimit:10;}
	.st11{fill:none;stroke:#A5391D;stroke-width:4;stroke-miterlimit:10;}
	.st12{fill:#2B190D;stroke:#A8A694;stroke-miterlimit:10;}
	.st13{fill:#4F231A;stroke:#321915;stroke-width:4;stroke-miterlimit:10;}
	.st14{fill:#E58327;stroke:#DE7426;stroke-width:4;stroke-miterlimit:10;}
	.st15{fill:#E58327;stroke:#DE7426;stroke-miterlimit:10;}
	.st16{fill:none;stroke:#DE7426;stroke-width:9;stroke-miterlimit:10;}
	.st17{fill:none;stroke:#E58327;stroke-width:4;stroke-miterlimit:10;}
	.st18{fill:#4F231A;stroke:#DE7426;stroke-width:0.25;stroke-miterlimit:10;}
	.st19{fill:#FFF1E7;}
</style>
<path class="st0" d="M882.96,95.29H201.05c-32.3,0-58.48,27.24-58.48,60.83v772.13c0,19.65,8.97,37.1,22.88,48.22
	c6.27,1.7,12.76,4.4,18.44,8.02c1.67,0.47,3.34,0.86,5.02,1.18c0.71-0.44,1.56-0.67,2.55-0.55c2.19,0.27,4.4,0.63,6.61,1.01
	c0.77-1.61,2.25-2.84,4.31-2.74c6.72,0.33,15.36,0.37,21.73,2.91c3.96-0.08,7.92-0.16,11.88-0.27c15.08-0.42,30.26-1.06,45.28,0.28
	c6.15-0.14,12.3-0.23,18.45-0.22c0.6-0.25,1.29-0.4,2.09-0.4c7.89-0.06,16.53-1.07,24.49,0.41c0.6-0.01,1.21-0.01,1.81-0.01
	c16.99-1,34.01-0.13,51.07,0.12c13.86,0.2,28.39-1.78,42.2,0.21c21.63-0.78,43.28-1.77,64.91-1.88c1.13-0.01,2.07,0.33,2.83,0.87
	c0.52-0.19,1.11-0.3,1.77-0.3c21.91,0,43.82,0,65.73,0.01c76.17,0.02,152.35,0.12,228.52,0.57c0.23,0,0.45,0.02,0.66,0.05
	c0.73-0.39,1.49-0.72,2.24-1c4.61-1.7,9.51-1.54,13.58,0.32c28.12-0.19,56.28-0.89,84.38,0.05c1.87-0.18,3.74-0.38,5.6-0.61
	c4.33-0.54,8.33-1.47,12.59-1.35c7.34-3.66,13.97-8.71,19.52-14.73c-0.01-0.96-0.01-1.92-0.04-2.87c-0.1-3.18-0.3-6.36-0.59-9.53
	c-0.13-1.42-0.2-2.88-0.45-4.28c-0.14-0.76-0.27-1.52-0.3-1.71c-1.16-7.5-0.31-14.45,5.1-20.08c0.03-0.03,0.07-0.07,0.1-0.1
	c8.74-8.94,13.93-20.96,13.93-33.7V156.12C941.45,122.52,915.26,95.29,882.96,95.29z"/>
<path class="st1" d="M937.21,934.5l-134.22-33.57l-27.42-6.28c-7.28-0.15-5.94,4.07-5.94,4.07c-0.14,10.1-1.43,23.03-5.9,35.28
	l-13.95,51.54c11.78,0.05,23.56,0.1,35.35,0.17c0.23,0,0.45,0.02,0.67,0.04c0.73-0.39,1.49-0.72,2.24-1
	c4.61-1.7,9.51-1.54,13.58,0.32c28.12-0.19,56.28-0.89,84.38,0.05c1.87-0.18,3.74-0.38,5.6-0.61c4.33-0.54,8.33-1.47,12.59-1.35
	c17.12-8.55,30.37-24.59,35.04-43.06C938.45,938.26,937.75,936.39,937.21,934.5z"/>
<path class="st1" d="M348.51,933.17c-4.87-13.33-5.97-27.47-5.91-37.89l0.08-3.7l-40.82,9.35l-160.18,40.07
	c0.11,0.43,0.18,0.9,0.18,1.42c-0.08,9.54,6.61,16.94,10.06,25.46c0.21,0.04,0.42,0.1,0.64,0.18c4.32,1.71,7.57,4.57,10.5,7.82
	c6.99,1.62,14.42,4.54,20.83,8.62c1.67,0.47,3.34,0.86,5.01,1.17c0.71-0.44,1.56-0.67,2.56-0.55c2.19,0.27,4.4,0.63,6.61,1.01
	c0.77-1.61,2.25-2.84,4.31-2.74c6.72,0.33,15.36,0.37,21.73,2.91c3.96-0.08,7.92-0.16,11.88-0.27c15.07-0.42,30.23-1.06,45.24,0.28
	c6.17-0.14,12.34-0.23,18.51-0.22c0.59-0.24,1.28-0.39,2.07-0.39c7.89-0.06,16.53-1.07,24.49,0.41c0.65-0.01,1.31-0.01,1.96-0.01
	c11.49-0.67,23-0.5,34.52-0.23L348.51,933.17z"/>
<path class="st2" d="M937.47,935.36l-45.88-11.25c1.53,3.48,2.6,5.49,2.6,5.49l27.31,41.1c8.51-8.42,14.8-19.04,17.72-30.62
	C938.57,938.54,937.97,936.96,937.47,935.36z"/>
<path class="st2" d="M875.28,931l-1.56-1.7c-1.52-3.92-3.06-7.6-4.62-11.05l-13.28-3.32l-30.38-7.6l-46.99-10.79
	c0,0-9.36-3.26-8.8,0c0.55,3.26-1.78,21.71-1.78,21.71l-18.11,67.28c11.79,0.05,23.58,0.1,35.37,0.17c0.23,0,0.45,0.02,0.67,0.04
	c0.73-0.39,1.49-0.72,2.24-1c4.61-1.7,9.51-1.54,13.59,0.33c23.93-0.16,47.89-0.69,71.82-0.27c-1.24-4.51,0.08-8.69,15.34,0.03
	c0.94-0.1,1.87-0.2,2.81-0.32c4.33-0.54,8.33-1.47,12.59-1.35c2.63-1.31,5.16-2.8,7.59-4.45C894.83,952.96,875.28,931,875.28,931z"
	/>
<path class="st3" d="M142.92,949.27c2.68-2.71,5.47-5.39,8.39-8.02l-9.44,2.36C141.98,945.58,142.36,947.45,142.92,949.27z"/>
<polygon class="st4" points="834.16,810.98 277.59,810.98 278.93,635.65 835.5,635.65 "/>
<path class="st5" d="M834.94,638.88"/>
<line class="st6" x1="277.44" y1="786.6" x2="277.44" y2="638.88"/>
<path class="st7" d="M362.91,840.43l-19.85,41.33c0,0,0.09,2.91-0.22,7.7"/>
<path class="st8" d="M831.63,487.6c0,0-46.52-238.74-276.1-238.74h1.32c-229.58,0-276.1,238.74-276.1,238.74"/>
<path class="st8" d="M554.42,733.63c264.25-3.16,280.52-94.74,280.52-94.74V521.25c0-119.91-124.07-217.12-277.12-217.12h-3.26
	c-153.05,0-277.12,97.21-277.12,217.12v117.64c0,0,16.27,91.58,280.52,94.74"/>
<path class="st9" d="M556.61,985.12c11.98,0,23.95,0.01,35.93,0.02c46.16-48.31,74.79-105.6,90.9-146.13l-254.59,0
	c16.04,40.53,44.62,97.81,90.87,146.11C532.01,985.12,544.31,985.12,556.61,985.12z"/>
<path class="st7" d="M748.76,839.01l19.85,41.33c0,0,0.77,9.5,1.04,16.19"/>
<path class="st10" d="M301.86,900.93"/>
<path class="st1" d="M489.1,985.41c0.52-0.19,1.11-0.3,1.77-0.3c9.61,0,19.23,0,28.84,0c-46.26-48.3-74.83-105.57-90.87-146.11
	l-65.93,1.42l-19.85,41.33c0,0,0.09,2.91-0.22,7.7l-0.17,2.11l-0.08,3.7c-0.05,10.41,1.04,24.56,5.91,37.89l14.26,52.69
	c5.46,0.13,10.93,0.27,16.4,0.35c13.86,0.2,28.39-1.78,42.2,0.21c21.63-0.78,43.28-1.77,64.91-1.88
	C487.41,984.53,488.35,984.87,489.1,985.41z"/>
<path class="st1" d="M749.78,985.52l13.95-51.54c4.48-12.25,5.77-25.18,5.9-35.28l0.01-2.18c-0.27-6.68-1.04-16.19-1.04-16.19
	l-19.85-41.34l-65.32,0c-17.23,43.36-39.26,97.98-88.81,146.13C646.34,985.18,698.06,985.29,749.78,985.52z"/>
<path class="st8" d="M556.12,850.97c162.66-2.45,230.48-16.96,259.3-24.48c23.1-6.03,19.53-20.49,19.53-20.49v-19.4
	c0,0-97.11,26.33-276.1,24.38h-5.31c-178.98,1.95-276.1-24.38-276.1-24.38V806c0,0-3.58,14.46,19.53,20.49
	c28.81,7.52,96.63,22.03,259.3,24.48"/>
<line class="st6" x1="834.94" y1="786.6" x2="834.94" y2="638.88"/>
<path class="st5" d="M556.91,369.7"/>
<path class="st5" d="M556.91,369.7"/>
<path class="st11" d="M937.21,934.5l-134.22-33.57l-27.42-6.28c-7.28-0.15-5.94,4.07-5.94,4.07c-0.14,10.1-1.43,23.03-5.9,35.28
	l-13.95,51.54c11.78,0.05,23.56,0.1,35.35,0.17c0.23,0,0.45,0.02,0.67,0.04c0.73-0.39,1.49-0.72,2.24-1
	c4.61-1.7,9.51-1.54,13.58,0.32c28.12-0.19,56.28-0.89,84.38,0.05c1.87-0.18,3.74-0.38,5.6-0.61c4.33-0.54,8.33-1.47,12.59-1.35
	c17.12-8.55,30.37-24.59,35.04-43.06C938.45,938.26,937.75,936.39,937.21,934.5z"/>
<path class="st11" d="M348.51,933.17c-4.87-13.33-5.97-27.47-5.91-37.89l0.08-3.7l-40.82,9.35l-160.18,40.07
	c0.11,0.43,0.18,0.9,0.18,1.42c-0.08,9.54,6.61,16.94,10.06,25.46c0.21,0.04,0.42,0.1,0.64,0.18c4.32,1.71,7.57,4.57,10.5,7.82
	c6.99,1.62,14.42,4.54,20.83,8.62c1.67,0.47,3.34,0.86,5.01,1.17c0.71-0.44,1.56-0.67,2.56-0.55c2.19,0.27,4.4,0.63,6.61,1.01
	c0.77-1.61,2.25-2.84,4.31-2.74c6.72,0.33,15.36,0.37,21.73,2.91c3.96-0.08,7.92-0.16,11.88-0.27c15.07-0.42,30.23-1.06,45.24,0.28
	c6.17-0.14,12.34-0.23,18.51-0.22c0.59-0.24,1.28-0.39,2.07-0.39c7.89-0.06,16.53-1.07,24.49,0.41c0.65-0.01,1.31-0.01,1.96-0.01
	c11.49-0.67,23-0.5,34.52-0.23L348.51,933.17z"/>
<path class="st3" d="M233.13,971.28c0,0-7.62,3.35-41.36-10.29c-12.76-5.16-25.56-0.02-36.53,8.35c3.03,1.7,5.52,3.99,7.8,6.53
	c7,1.62,14.43,4.54,20.84,8.62c1.67,0.47,3.34,0.86,5.01,1.17c0.71-0.44,1.56-0.67,2.56-0.55c2.19,0.27,4.4,0.63,6.61,1.01
	c0.77-1.61,2.25-2.84,4.31-2.74c6.72,0.33,15.36,0.37,21.73,2.91c3.96-0.08,7.92-0.16,11.88-0.27c8.57-0.24,17.17-0.54,25.76-0.52
	C246.53,970.31,233.13,971.28,233.13,971.28z"/>
<g>
	<g>
		<path class="st12" d="M556.85,715.53c-244.81-2.93-259.89-87.77-259.89-87.77V518.77c0-111.09,114.95-201.15,256.74-201.15
			c4.98,0,4.98,0,4.98,0c141.79,0,256.74,90.06,256.74,201.15v108.99c0,0-15.07,84.85-259.89,87.77"/>
	</g>
</g>
<path class="st13" d="M305.74,377.55c0,0-126.96-79.06-70.98-139.08s324.9-55.4,324.9-55.4h0.75c0,0,268.92-4.62,324.9,55.4
	s-70.98,139.08-70.98,139.08"/>
<path class="st13" d="M304.01,409.05l-0.16,0.1c-4.16,2.77-7.8,6.31-10.45,10.55c-7.7,12.29-10.65,35.03,59.66,46.47
	c99.26,16.16,206.02,10.39,206.02,10.39l0,0c1.22,0,2.44,0.03,3.65,0.09c14.21,0.66,112.45,4.47,204.27-10.47
	c70.31-11.45,67.36-34.18,59.66-46.47c-2.66-4.24-6.29-7.78-10.45-10.55l-0.16-0.1"/>
<polyline class="st13" points="303.85,409.16 559.08,365.43 816.21,409.16 "/>
<path class="st14" d="M563.29,381.59c115.83,0,231.18,23.54,250.51,27.66c1.83,0.39,3.61-0.79,4-2.63
	c1.82-8.53-2.86-22.26-4.6-26.91c-0.37-1-1.19-1.76-2.22-2.04c-68.21-18.77-248.27-29.56-248.27-29.56l-1.51-0.08
	c-1.28-0.07-2.57-0.04-3.85,0.08l0,0c0,0-180.05,10.79-248.27,29.56c-1.03,0.28-1.85,1.04-2.22,2.04
	c-1.73,4.64-6.41,18.37-4.6,26.91c0.39,1.83,2.17,3.02,4,2.63c19.33-4.13,134.68-27.66,250.51-27.66H563.29z"/>
<path class="st15" d="M498.77,246.84h-61.04c-3.1,0-5.61-2.05-5.61-4.57v0c0-2.52,2.51-4.57,5.61-4.57h65.13"/>
<path class="st15" d="M494.26,259.54h-48.72c-2.47,0-4.48-1.87-4.48-4.18v0c0-2.31,2.01-4.18,4.48-4.18h51.98"/>
<path class="st15" d="M496.35,286.42h-28.08c-1.43,0-2.58-1.74-2.58-3.9l0,0c0-2.15,1.16-3.9,2.58-3.9h29.96"/>
<path class="st15" d="M619.41,246.84h61.04c3.1,0,5.61-2.05,5.61-4.57v0c0-2.52-2.51-4.57-5.61-4.57h-65.13"/>
<path class="st15" d="M623.92,259.54h48.72c2.47,0,4.48-1.87,4.48-4.18v0c0-2.31-2.01-4.18-4.48-4.18h-51.98"/>
<path class="st15" d="M621.83,286.42h28.08c1.43,0,2.58-1.74,2.58-3.9l0,0c0-2.15-1.16-3.9-2.58-3.9h-29.96"/>
<path class="st15" d="M624.46,273.01h36.6c1.86,0,3.36-1.74,3.36-3.9v0c0-2.15-1.51-3.9-3.36-3.9H622"/>
<path class="st15" d="M615.88,300.24h28.08c1.43,0,2.58-1.74,2.58-3.9l0,0c0-2.15-1.16-3.9-2.58-3.9H614"/>
<path class="st15" d="M493.73,273.01h-36.6c-1.86,0-3.36-1.74-3.36-3.9v0c0-2.15,1.51-3.9,3.36-3.9h39.05"/>
<path class="st15" d="M502.3,300.24h-28.08c-1.43,0-2.58-1.74-2.58-3.9l0,0c0-2.15,1.16-3.9,2.58-3.9h29.96"/>
<ellipse class="st16" cx="559.18" cy="268.86" rx="59.34" ry="59.26"/>
<ellipse class="st17" cx="559.18" cy="268.86" rx="59.34" ry="59.26"/>
<polyline class="st15" points="550.27,301.54 546.34,310.29 574.32,310.32 570.41,301.56 "/>
<path class="st15" d="M560.12,223.18c-41.94,42.46-10.15,78.24-10.15,78.24l20.17,0.03c0,0,31.88-35.7-9.95-78.27"/>
<circle class="st15" cx="560.15" cy="261.97" r="11.36"/>
<circle class="st18" cx="560.15" cy="261.81" r="8.69"/>
<path class="st15" d="M539.94,256.31c0,0-17.38,17.64-6.1,43.66l8.98-10.46c-4.95-9.94-5.83-21.15-3-33.01"/>
<path class="st15" d="M580.03,256.36c0,0,17.33,17.69,5.98,43.67l-8.96-10.48c4.98-9.93,5.89-21.13,3.09-33"/>
<g>
	<path class="st19" d="M888.11,97.56c26.94,0,48.77,21.84,48.77,48.77v788.13c0,26.94-21.84,48.77-48.77,48.77H191.34
		c-26.94,0-48.77-21.84-48.77-48.77V146.34c0-26.94,21.84-48.77,48.77-48.77H888.11 M888.11,92.56H191.34
		c-29.65,0-53.77,24.12-53.77,53.77v788.13c0,29.65,24.12,53.77,53.77,53.77h696.77c29.65,0,53.77-24.12,53.77-53.77V146.34
		C941.89,116.69,917.76,92.56,888.11,92.56L888.11,92.56z"/>
</g>
</svg>
