<?xml version="1.0" encoding="utf-8"?>
<!-- Generator: Adobe Illustrator 26.3.1, SVG Export Plug-In . SVG Version: 6.00 Build 0)  -->
<svg version="1.1" id="Layer_1" xmlns="http://www.w3.org/2000/svg" xmlns:xlink="http://www.w3.org/1999/xlink" x="0px" y="0px"
	 viewBox="0 0 396 396" style="enable-background:new 0 0 396 396;" xml:space="preserve">
<style type="text/css">
	.st0{fill:#955E52;stroke:#984C1E;stroke-width:5;stroke-miterlimit:10;}
	.st1{fill:#EFE8CC;stroke:#B1AE9C;stroke-miterlimit:10;}
	.st2{fill:none;stroke:#AA5517;stroke-miterlimit:10;}
	.st3{fill:#DC7038;stroke:#AA5626;stroke-miterlimit:10;}
	.st4{fill:#D23C27;stroke:#A53A23;stroke-miterlimit:10;}
	.st5{fill:none;stroke:#3D52A4;stroke-linecap:round;stroke-linejoin:round;stroke-miterlimit:10;}
	.st6{fill:none;stroke:#B5956A;stroke-linecap:round;stroke-linejoin:round;stroke-miterlimit:10;}
	.st7{fill:none;stroke:#B5956A;stroke-miterlimit:10;}
	.st8{fill:#EFE8CC;stroke:#EFE8CC;stroke-miterlimit:10;}
	.st9{fill:none;stroke:#A8A694;stroke-miterlimit:10;}
	.st10{fill:none;stroke:#A5391D;stroke-miterlimit:10;}
	.st11{fill:none;stroke:#82C341;stroke-linecap:round;stroke-linejoin:round;stroke-miterlimit:10;}
	.st12{fill:none;stroke:#B1AE9C;stroke-miterlimit:10;}
	.st13{fill:none;}
	.st14{fill:#EFE8CC;stroke:#B5956A;stroke-linecap:round;stroke-linejoin:round;stroke-miterlimit:10;}
	.st15{font-family:'OCRAExtended';}
	.st16{font-size:33px;}
	.st17{letter-spacing:-1;}
	.st18{fill:none;stroke:#984C1E;stroke-width:5;stroke-miterlimit:10;}
</style>
<path class="st0" d="M335.53,377.94H59.68c-23.24,0-42.07-18.84-42.07-42.07V60.01c0-23.24,18.84-42.07,42.07-42.07h275.85
	c23.24,0,42.07,18.84,42.07,42.07v275.85C377.6,359.1,358.76,377.94,335.53,377.94z"/>
<path class="st1" d="M89.27,379.99c-3.1-11.53,4.26-11.66,4.26-11.66l6.02,7.36c0.74,0.91,1.76,1.52,2.87,1.71
	c2.14,0.37,5.52,0.53,6.55-1.78c0.88-1.98,0.22-3.76-0.51-4.91c-0.45-0.71-1.05-1.29-1.74-1.73c-1.69-1.07-6.67-4.89-13.53-15.95
	l-28.67-0.09c0,0-6.01,13.84-5.74,25.52C68.94,378.24,79.11,379.09,89.27,379.99z"/>
<path class="st1" d="M291.73,377.4c1.12-0.19,2.13-0.8,2.87-1.71l6.02-7.36c0,0,6.31,0.1,4.78,9.29c9.97-0.58,20.08-1.44,29.98-0.65
	c-0.23-11.34-5.75-24.04-5.75-24.04l-28.67,0.09c-6.86,11.06-11.84,14.88-13.53,15.95c-0.69,0.44-1.29,1.02-1.74,1.73
	c-0.73,1.15-1.39,2.93-0.51,4.91C286.21,377.93,289.6,377.76,291.73,377.4z"/>
<path class="st2" d="M297.81,353.05h33.55c1.17,0,2.12-0.95,2.12-2.12v-2.44c0-1.17-0.95-2.12-2.12-2.12h-33.55
	c-1.17,0-2.12,0.95-2.12,2.12v2.44C295.69,352.1,296.64,353.05,297.81,353.05z"/>
<path class="st3" d="M297.81,353.05h33.55c1.17,0,2.12-0.95,2.12-2.12v-2.44c0-1.17-0.95-2.12-2.12-2.12h-33.55
	c-1.17,0-2.12,0.95-2.12,2.12v2.44C295.69,352.1,296.64,353.05,297.81,353.05z"/>
<path class="st4" d="M195.88,160.79"/>
<line class="st4" x1="169.16" y1="171.09" x2="169.18" y2="171.22"/>
<path class="st4" d="M162.94,148.09"/>
<path class="st4" d="M345.39,240.38l-38.59-70.14c0,0-3.71-10.69-20.22-15.7l-47.4-11.86l-4.6-1.05l-72.61-0.51l-6.85,1.57
	l-47.4,11.86c-16.51,5.01-20.22,15.7-20.22,15.7L48.9,240.38c-4.39,7.13,50.34,36.38,65.38,29.57l1.31-9.27l-1.31,114.79
	c0,0,3.46,1.39,9.89,3.26c0.53-0.06,1.05-0.1,1.59-0.1h30.41c10.8-0.9,21.69-1.12,32.48-1.14c20.66-0.05,41.49-2.46,62.04,0.11
	c0.48-0.06,0.97-0.1,1.46-0.12c7.31-0.25,14.61-0.13,21.91,0.05c3.89-1.24,5.96-2.07,5.96-2.07l-1.31-114.79l1.31,9.27
	C295.04,276.75,349.78,247.51,345.39,240.38z"/>
<line class="st4" x1="226.34" y1="171.28" x2="226.36" y2="171.22"/>
<path class="st4" d="M199.66,160.79"/>
<path class="st4" d="M197.77,162.33"/>
<path class="st5" d="M252.63,147.97"/>
<path class="st6" d="M221.75,266.32"/>
<path class="st5" d="M281.5,309.84"/>
<path class="st7" d="M232.02,365.65"/>
<path class="st7" d="M122.22,199.08"/>
<polygon class="st8" points="243.74,127.59 151.04,127.59 151.26,98.18 243.97,98.18 "/>
<path class="st7" d="M72.17,243.16"/>
<path class="st5" d="M295.1,183.98"/>
<path class="st9" d="M244.53,98.73"/>
<path class="st10" d="M195.88,160.79"/>
<path class="st10" d="M171.5,170.5"/>
<path class="st10" d="M200.94,160.79"/>
<path class="st11" d="M116.82,260.82"/>
<path class="st10" d="M112.27,216.6c0,0-8.76-6.38-11.48-15.21"/>
<path class="st10" d="M113.23,230.34c0,0-4.91,0.21-5.74,8.2"/>
<path class="st1" d="M198.07,114.62"/>
<path class="st1" d="M244.53,98.73V78.99c0-1.71-0.18-3.38-0.47-5.03l-0.08-0.62c0,0-7.8-40.04-46.31-40.04h0.22
	c-38.51,0-46.31,40.04-46.31,40.04l-0.17,1.32c-0.24,1.42-0.38,2.86-0.38,4.33l0.03,19.64l-0.03,0.1v24.78"/>
<path class="st4" d="M155.11,142.68"/>
<path class="st10" d="M195.88,160.79"/>
<path class="st10" d="M171.5,170.5"/>
<path class="st10" d="M200.94,160.79"/>
<path class="st10" d="M224.04,170.5"/>
<path class="st10" d="M194.6,160.79"/>
<path class="st10" d="M171.5,170.5"/>
<path class="st10" d="M200.94,160.79"/>
<path class="st10" d="M224.04,170.5"/>
<path class="st10" d="M194.6,160.79"/>
<path class="st4" d="M176.4,130.29l-10.96,0l-3.33,6.93c0,0-0.13,1.59-0.17,2.72l0,0.36c0.02,1.54,0.2,3.48,0.8,5.36l0.19,0.34
	c0,0,25.98,4.16,69.56,0l0.27-0.34c0.6-1.88,0.78-3.82,0.8-5.36l0-0.36c-0.04-1.12-0.17-2.72-0.17-2.72l-3.33-6.93l-10.96,0"/>
<path class="st1" d="M197.76,134.3c27.28-0.41,38.66-2.84,43.49-4.11c3.87-1.01,3.28-3.44,3.28-3.44v-3.25
	c0,0-16.29,4.42-46.31,4.09h-0.89c-30.02,0.33-46.31-4.09-46.31-4.09v3.25c0,0-0.6,2.43,3.28,3.44c4.83,1.26,16.21,3.7,43.49,4.11"
	/>
<line class="st9" x1="244.53" y1="123.5" x2="244.53" y2="98.73"/>
<path class="st10" d="M199.66,160.79"/>
<path class="st10" d="M224.04,170.5"/>
<path class="st10" d="M194.6,160.79"/>
<path class="st11" d="M278.73,260.82"/>
<path class="st10" d="M283.27,216.6c0,0,8.76-6.38,11.48-15.21"/>
<path class="st10" d="M282.31,230.34c0,0,4.91,0.21,5.74,8.2"/>
<path class="st9" d="M198.35,54.72"/>
<path class="st5" d="M252.63,147.97"/>
<path class="st5" d="M281.5,309.84"/>
<path class="st7" d="M232.02,365.65"/>
<path class="st10" d="M197.62,162.21"/>
<path class="st7" d="M122.22,199.08"/>
<path class="st7" d="M72.17,243.16"/>
<path class="st5" d="M295.1,183.98"/>
<path class="st10" d="M195.88,160.79"/>
<path class="st10" d="M171.5,170.5"/>
<path class="st10" d="M200.94,160.79"/>
<path class="st3" d="M109.79,305.64c0,0,6.5,27.74-12.25,40.72H61.68c-18.76-12.98-12.25-40.72-12.25-40.72l-0.06-0.3
	c-3.31-20.04,9.09-53.37,9.09-53.37c39.06,22.74,52.92,18.8,52.92,18.8c2.44,12.73,3.34,26.67-1.78,34.37L109.79,305.64"/>
<path class="st11" d="M116.82,260.82"/>
<path class="st2" d="M96.48,353.05H62.92c-1.17,0-2.12-0.95-2.12-2.12v-2.44c0-1.17,0.95-2.12,2.12-2.12h33.55
	c1.17,0,2.12,0.95,2.12,2.12v2.44C98.59,352.1,97.65,353.05,96.48,353.05z"/>
<path class="st2" d="M104.47,299.37c2.34,1.39,4,3.35,5.1,5.73"/>
<path class="st2" d="M97.54,346.36"/>
<path class="st3" d="M96.48,353.05H62.92c-1.17,0-2.12-0.95-2.12-2.12v-2.44c0-1.17,0.95-2.12,2.12-2.12h33.55
	c1.17,0,2.12,0.95,2.12,2.12v2.44C98.59,352.1,97.65,353.05,96.48,353.05z"/>
<path class="st10" d="M199.66,160.79"/>
<path class="st10" d="M224.04,170.5"/>
<path class="st10" d="M194.6,160.79"/>
<path class="st11" d="M278.73,260.82"/>
<path class="st9" d="M198.35,54.72"/>
<path class="st3" d="M284.18,305.64c0,0-6.5,27.74,12.25,40.72h35.86c18.76-12.98,12.25-40.72,12.25-40.72l0.06-0.3
	c3.31-20.04-9.09-53.37-9.09-53.37c-39.06,22.74-52.92,18.8-52.92,18.8c-2.44,12.73-3.34,26.67,1.78,34.37L284.18,305.64"/>
<path class="st2" d="M289.5,299.37c-2.34,1.39-4,3.35-5.1,5.73"/>
<path class="st2" d="M344.62,306.01c-1.07-6.48-3.79-11.57-9.09-13.69"/>
<path class="st10" d="M172.67,172.65"/>
<path class="st10" d="M291.42,156.89v15.09c0,0-8.98,22.91-8.07,35.3s-4.62,53.54-4.62,53.54"/>
<path class="st2" d="M49.35,306.01c1.07-6.48,3.79-11.57,9.09-13.69"/>
<path class="st10" d="M114.75,353.63l2.06-93.27l-1.3,9.73c-15.04,6.8-71.01-22.58-66.62-29.71l38.59-70.14
	c0,0,3.71-10.69,20.22-15.7l47.4-11.86l6.85-1.57"/>
<line class="st10" x1="114.59" y1="360.98" x2="114.75" y2="353.63"/>
<line class="st10" x1="114.52" y1="364.03" x2="114.59" y2="360.98"/>
<line class="st10" x1="114.43" y1="368.23" x2="114.52" y2="364.03"/>
<path class="st10" d="M285.25,154.21c13.99,0.83,20.99,13.83,26.99,24.83c10,21,22,40,33,61c1,3-1,6-4,8c-17,13-37,24-58,23
	c-5-1-3-6-4.54-10.36c0.01,0.84,0.02,1.68,0.07,2.51c0.05-0.83,0.02-1.68-0.07-2.51c2.54,38.36-0.46,76.36,1.54,114.36
	c0,1-1,1-2.45,1.56"/>
<polyline class="st10" points="234.57,141.62 239.17,142.68 285.25,154.21 "/>
<path class="st10" d="M104.12,156.43v15.09c0,0,8.98,22.91,8.07,35.3s4.62,53.54,4.62,53.54"/>
<path class="st10" d="M291.42,156.89v15.09c0,0-8.98,22.91-8.07,35.3s-4.62,53.54-4.62,53.54"/>
<path class="st12" d="M88.24,353.05"/>
<path class="st12" d="M257.78,354.47"/>
<rect x="112.22" y="175.59" class="st13" width="171.06" height="53.87"/>
<text transform="matrix(1 0 0 1 114.1278 197.0104)" class="st14 st15 st16 st17">CHAPERONE</text>
<path class="st18" d="M335.53,377.94H59.68c-23.24,0-42.07-18.84-42.07-42.07V60.01c0-23.24,18.84-42.07,42.07-42.07h275.85
	c23.24,0,42.07,18.84,42.07,42.07v275.85C377.6,359.1,358.76,377.94,335.53,377.94z"/>
</svg>
