<?xml version="1.0" encoding="utf-8"?>
<!-- Generator: Adobe Illustrator 27.1.1, SVG Export Plug-In . SVG Version: 6.00 Build 0)  -->
<svg version="1.1" id="Layer_1" xmlns="http://www.w3.org/2000/svg" xmlns:xlink="http://www.w3.org/1999/xlink" x="0px" y="0px"
	 viewBox="0 0 792 864" style="enable-background:new 0 0 792 864;" xml:space="preserve">
<style type="text/css">
	.st0{fill:#F3AA7E;stroke:#984D23;stroke-width:5;stroke-miterlimit:10;}
	.st1{fill:none;stroke:#A8A694;stroke-width:5;stroke-miterlimit:10;}
	.st2{fill:#EFE8CC;stroke:#EFE8CC;stroke-width:5;stroke-miterlimit:10;}
	.st3{fill:#EFE8CC;stroke:#B1AE9C;stroke-width:5;stroke-miterlimit:10;}
	.st4{fill:#2B190D;stroke:#A8A694;stroke-width:5;stroke-miterlimit:10;}
</style>
<path class="st0" d="M59.75,857.15h672.09c23.24,0,42.07-18.84,42.07-42.07V48.12c0-23.24-18.84-42.07-42.07-42.07H59.75
	c-23.24,0-42.07,18.84-42.07,42.07v766.96C17.67,838.31,36.51,857.15,59.75,857.15z"/>
<line class="st1" x1="620.3" y1="640.92" x2="620.3" y2="454.88"/>
<polygon class="st2" points="744.27,758.2 43.32,758.2 45.02,537.39 745.97,537.39 "/>
<path class="st1" d="M745.27,541.46"/>
<path class="st3" d="M741.09,350.93c0,0-58.58-300.67-347.72-300.67h1.66c-289.14,0-347.72,300.67-347.72,300.67"/>
<path class="st3" d="M391.97,660.78c332.8-3.98,353.29-119.32,353.29-119.32V393.3c0-151.02-156.26-273.44-349.01-273.44h-4.11
	c-192.75,0-349.01,122.42-349.01,273.44v148.16c0,0,20.49,115.34,353.29,119.32"/>
<path class="st3" d="M394.11,808.56c204.86-3.08,290.27-21.36,326.56-30.83c29.09-7.59,24.59-25.8,24.59-25.8v-24.43
	c0,0-122.31,33.16-347.72,30.71h-6.69c-225.41,2.46-347.72-30.71-347.72-30.71v24.43c0,0-4.5,18.21,24.59,25.8
	c36.29,9.47,121.7,27.75,326.56,30.83"/>
<line class="st1" x1="745.27" y1="727.49" x2="745.27" y2="541.46"/>
<path class="st1" d="M395.11,202.43"/>
<path class="st1" d="M395.11,202.43"/>
<g>
	<g>
		<path class="st4" d="M395.03,637.98C86.71,634.3,67.72,527.44,67.72,527.44V390.18c0-139.91,144.76-253.33,323.34-253.33
			c6.27,0,6.27,0,6.27,0c178.58,0,323.34,113.42,323.34,253.33v137.26c0,0-18.98,106.86-327.3,110.54"/>
	</g>
</g>
</svg>
