<?xml version="1.0" encoding="utf-8"?>
<!-- Generator: Adobe Illustrator 26.3.1, SVG Export Plug-In . SVG Version: 6.00 Build 0)  -->
<svg version="1.1" id="Layer_1" xmlns="http://www.w3.org/2000/svg" xmlns:xlink="http://www.w3.org/1999/xlink" x="0px" y="0px"
	 viewBox="0 0 396 396" style="enable-background:new 0 0 396 396;" xml:space="preserve">
<style type="text/css">
	.st0{fill:#B26B37;stroke:#984D23;stroke-width:5;stroke-miterlimit:10;}
	.st1{fill:#D23C27;stroke:#A53A23;stroke-miterlimit:10;}
	.st2{fill:#EFE8CC;stroke:#B5956A;stroke-miterlimit:10;}
	.st3{fill:none;stroke:#3D52A4;stroke-linecap:round;stroke-linejoin:round;stroke-miterlimit:10;}
	.st4{fill:#EFE8CC;stroke:#B5956A;stroke-linecap:round;stroke-linejoin:round;stroke-miterlimit:10;}
	.st5{fill:#EFE8CC;stroke:#EFE8CC;stroke-miterlimit:10;}
	.st6{fill:none;stroke:#A8A694;stroke-miterlimit:10;}
	.st7{fill:none;stroke:#A5391D;stroke-miterlimit:10;}
	.st8{fill:#EFE8CC;stroke:#B1AE9C;stroke-miterlimit:10;}
	.st9{fill:#DC7038;stroke:#A5391D;stroke-miterlimit:10;}
	.st10{fill:#2B190D;stroke:#A8A694;stroke-miterlimit:10;}
	.st11{fill:#4F231A;stroke:#321915;stroke-miterlimit:10;}
	.st12{fill:#E58327;stroke:#DE7426;stroke-miterlimit:10;}
	.st13{fill:none;stroke:#DE7426;stroke-miterlimit:10;}
	.st14{fill:none;stroke:#E58327;stroke-miterlimit:10;}
	.st15{fill:#4F231A;stroke:#DE7426;stroke-miterlimit:10;}
	.st16{fill:none;stroke:#984D23;stroke-width:5;stroke-miterlimit:10;}
</style>
<path class="st0" d="M335.53,377.99H59.68c-23.24,0-42.07-18.84-42.07-42.07V60.07c0-23.24,18.84-42.07,42.07-42.07h275.85
	c23.24,0,42.07,18.84,42.07,42.07v275.85C377.6,359.16,358.76,377.99,335.53,377.99z"/>
<path class="st1" d="M359.21,369.27c-2.9,1,0.5-0.31,1.18-0.72c0.95-0.58,1.86-1.22,2.77-1.86c1.86-1.3,3.68-2.62,5.65-3.75
	c0.09-0.05,0.19-0.1,0.28-0.15c0.2-1.03,0.53-2,0.95-2.93l-76.15-19.05l-10.75-2.46c-0.06-0.01-0.12-0.02-0.18-0.02
	c-2.46-0.02-2.33,1.26-2.27,1.55c0.01,0.05,0.01,0.1,0.01,0.16c-0.06,3.97-0.58,9.03-2.32,13.82c-0.01,0.02-0.01,0.03-0.02,0.05
	l-5.68,20.99c-0.14,0.5,0.24,1,0.76,1c25.77-0.02,51.54-0.18,77.31-0.25C352.8,372.74,355.82,370.44,359.21,369.27z"/>
<path class="st1" d="M114.22,353.59c-0.01-0.02-0.01-0.04-0.02-0.06c-1.92-5.26-2.35-10.84-2.33-14.95l0.01-0.34
	c0.01-0.57-0.51-1-1.07-0.87l-15.04,3.45l-70.7,17.68c0.65,0.79,1.24,1.65,1.76,2.56c0.52,0.89,0.99,1.85,1.45,2.77
	c-1.42-2.82,0.56,0.27,1.48,1.12c2.43,2.26,4.93,4.3,7.02,6.9c0.04,0.05,0.07,0.1,0.11,0.15c1.65,0.88,3.07,2.03,4.25,3.37
	c26.35,0.13,52.7,0.39,79.06,0.38c0.01,0,0.01,0,0.02,0L114.22,353.59z"/>
<path class="st2" d="M352.06,374c-1.25-2.02-2.32-3.48-2.32-3.48s-1.86-11.15-1.2-15.73l-19.61-4.81c0.61,1.38,1.03,2.17,1.03,2.17
	l12,18.06c0,0,1.12,2.47,2.77,5.46c2.01-0.01,4.02-0.01,6.03-0.02C351.16,375.07,351.59,374.52,352.06,374z"/>
<path class="st2" d="M359.21,369.27c-2.9,1,0.5-0.31,1.18-0.72c0.95-0.58,1.86-1.22,2.77-1.86c0.19-0.13,0.38-0.27,0.57-0.4
	c0.43-2.32,1.16-4.8,2.4-7.11l-12.52-3.13c0.94,2.35,1.19,6.45,3.21,14.27C357.59,369.91,358.39,369.55,359.21,369.27z"/>
<path class="st2" d="M272.41,375.9c16.69-0.01,33.38-0.08,50.08-0.15c-0.86-1.65-2.97-6.57,5.51-1.67l1.43,1.64
	c3.36-0.01,6.72-0.03,10.08-0.04c-7.1-11.84-17.03-22.99-17.03-22.99l-0.62-0.67c-0.6-1.55-1.21-3.01-1.83-4.37l-5.25-1.31l-12.01-3
	l-18.58-4.27c0,0-3.7-1.29-3.48,0c0.22,1.29-0.7,8.58-0.7,8.58L272.41,375.9z"/>
<path class="st3" d="M325.63,353.29"/>
<path class="st4" d="M26.83,361.06c0.52,0.89,0.99,1.85,1.45,2.77c-1.11-2.2-0.15-0.8,0.77,0.32c2.16-2.52,4.54-5,7.2-7.39
	l-9.92,2.48c-0.14,0.13-0.27,0.27-0.41,0.4C26.24,360.09,26.55,360.57,26.83,361.06z"/>
<polygon class="st5" points="306.22,305.25 86.17,305.25 86.71,235.93 306.75,235.93 "/>
<path class="st6" d="M306.53,237.21"/>
<line class="st6" x1="86.11" y1="295.61" x2="86.11" y2="237.21"/>
<path class="st7" d="M119.91,316.89l-7.85,16.34c0,0,0.04,1.15-0.09,3.04"/>
<path class="st8" d="M305.22,177.4c0,0-18.39-94.39-109.16-94.39h0.52c-90.77,0-109.16,94.39-109.16,94.39"/>
<path class="st8" d="M195.63,274.67c104.47-1.25,110.91-37.46,110.91-37.46V190.7c0-47.41-49.05-85.84-109.56-85.84h-1.29
	c-60.51,0-109.56,38.43-109.56,85.84v46.51c0,0,6.43,36.21,110.91,37.46"/>
<path class="st9" d="M190.76,375.38c6.2-0.02,12.39,0.03,18.59,0.12c19.05-19.38,30.76-42.75,37.29-59.17l-100.66,0
	c6.49,16.4,18.17,39.75,37.24,59.12C185.73,375.42,188.24,375.39,190.76,375.38z"/>
<path class="st7" d="M272.46,316.33l7.85,16.34c0,0,0.3,3.76,0.41,6.4"/>
<path class="st1" d="M95.77,340.81"/>
<path class="st1" d="M145.97,316.33l-26.07,0.56l-7.85,16.34c0,0,0.04,1.15-0.09,3.04l-0.07,0.84l-0.03,1.46
	c-0.02,4.12,0.41,9.71,2.34,14.98l6.01,22.2c0.47,0,0.92,0.03,1.37,0.08c7.15-0.22,14.33,0,21.48,0.09
	c13.39,0.18,26.76-0.29,40.14-0.47C164.15,356.08,152.47,332.74,145.97,316.33z"/>
<path class="st1" d="M247.94,375.9c1.32-0.49,2.72-0.76,4.14-0.76c5.94,0.02,11.86,0.3,17.8,0.46c0.85,0.02,1.68,0.13,2.47,0.3
	c0.03,0,0.05,0,0.08,0l5.96-22.02c1.77-4.84,2.28-9.96,2.33-13.95l0-0.86c-0.11-2.64-0.41-6.4-0.41-6.4l-7.85-16.34l-25.83,0
	c-6.98,17.57-15.95,39.81-36.58,59.18c9.03,0.14,18.06,0.35,27.08,0.56C240.65,375.49,244.41,375.71,247.94,375.9z"/>
<path class="st8" d="M196.3,321.06c64.31-0.97,91.12-6.71,102.52-9.68c9.13-2.38,7.72-8.1,7.72-8.1v-7.67
	c0,0-38.4,10.41-109.16,9.64h-2.1c-70.76,0.77-109.16-9.64-109.16-9.64v7.67c0,0-1.41,5.72,7.72,8.1
	c11.39,2.97,38.21,8.71,102.52,9.68"/>
<line class="st6" x1="306.53" y1="295.61" x2="306.53" y2="237.21"/>
<path class="st6" d="M196.61,130.78"/>
<path class="st3" d="M325.63,353.29"/>
<path class="st6" d="M196.61,130.78"/>
<path class="st7" d="M359.21,369.27c-2.9,1,0.5-0.31,1.18-0.72c0.95-0.58,1.86-1.22,2.77-1.86c1.86-1.3,3.68-2.62,5.65-3.75
	c0.09-0.05,0.19-0.1,0.28-0.15c0.2-1.03,0.53-2,0.95-2.93l-76.15-19.05l-10.84-2.48c0,0,0,0,0,0c-2.87-0.06-2.35,1.59-2.35,1.61
	c0,0,0,0,0,0c-0.05,3.99-0.56,9.1-2.33,13.95l0,0l-5.96,22.01c0,0,0,0.01,0.01,0.01c26.11-0.02,52.22-0.18,78.33-0.26
	C352.8,372.74,355.82,370.44,359.21,369.27z"/>
<path class="st7" d="M114.22,353.58c0-0.02-0.01-0.03-0.02-0.05c-1.92-5.26-2.35-10.84-2.33-14.95l0.01-0.51
	c0.01-0.49-0.44-0.85-0.91-0.75l-15.2,3.48l-70.7,17.68c0.65,0.79,1.24,1.65,1.76,2.56c0.52,0.89,0.99,1.85,1.45,2.77
	c-1.42-2.82,0.56,0.27,1.48,1.12c2.43,2.26,4.93,4.3,7.02,6.9c0.04,0.05,0.07,0.1,0.11,0.15c1.65,0.88,3.07,2.03,4.25,3.37
	c26.35,0.13,52.7,0.39,79.06,0.38c0.01,0,0.01,0,0.02,0L114.22,353.58z"/>
<path class="st4" d="M36.89,372c1.65,0.88,3.08,2.04,4.25,3.38c13.35,0.06,26.7,0.15,40.04,0.23c-6.52-7.44-12.59-6.99-12.59-6.99
	s-3.01,1.32-16.35-4.07c-6.09-2.46-12.2,1.01-17.04,5.5c0.54,0.57,1.07,1.17,1.58,1.79C36.82,371.9,36.85,371.95,36.89,372z"/>
<g>
	<g>
		<path class="st10" d="M196.58,267.51c-96.79-1.16-102.75-34.7-102.75-34.7v-43.09c0-43.92,45.45-79.53,101.5-79.53
			c1.97,0,1.97,0,1.97,0c56.06,0,101.5,35.61,101.5,79.53v43.09c0,0-5.96,33.55-102.75,34.7"/>
	</g>
</g>
<path class="st11" d="M97.31,133.89c0,0-50.19-31.26-28.06-54.99S197.69,57,197.69,57h0.3c0,0,106.32-1.83,128.45,21.9
	s-28.06,54.99-28.06,54.99"/>
<path class="st11" d="M96.62,146.34l-0.06,0.04c-1.65,1.1-3.08,2.5-4.13,4.17c-3.04,4.86-4.21,13.85,23.59,18.37
	c39.24,6.39,81.45,4.11,81.45,4.11l0,0c0.48,0,0.96,0.01,1.44,0.03c5.62,0.26,44.46,1.77,80.76-4.14
	c27.8-4.53,26.63-13.51,23.59-18.37c-1.05-1.68-2.49-3.08-4.13-4.17l-0.06-0.04"/>
<polyline class="st11" points="96.56,146.38 197.47,129.1 299.13,146.38 "/>
<path class="st12" d="M199.13,135.48c45.8,0,91.4,9.31,99.04,10.94c0.72,0.15,1.43-0.31,1.58-1.04c0.72-3.37-1.13-8.8-1.82-10.64
	c-0.15-0.4-0.47-0.7-0.88-0.81c-26.97-7.42-98.16-11.69-98.16-11.69l-0.6-0.03c-0.51-0.03-1.02-0.02-1.52,0.03l0,0
	c0,0-71.19,4.27-98.16,11.69c-0.41,0.11-0.73,0.41-0.88,0.81c-0.69,1.84-2.54,7.26-1.82,10.64c0.15,0.72,0.86,1.19,1.58,1.04
	c7.64-1.63,53.25-10.94,99.04-10.94H199.13z"/>
<path class="st12" d="M173.62,82.21h-24.13c-1.23,0-2.22-0.81-2.22-1.81v0c0-1,0.99-1.81,2.22-1.81h25.75"/>
<path class="st12" d="M171.84,87.23h-19.26c-0.98,0-1.77-0.74-1.77-1.65v0c0-0.91,0.79-1.65,1.77-1.65h20.55"/>
<path class="st12" d="M172.67,97.86h-11.1c-0.56,0-1.02-0.69-1.02-1.54l0,0c0-0.85,0.46-1.54,1.02-1.54h11.85"/>
<path class="st12" d="M221.32,82.21h24.13c1.23,0,2.22-0.81,2.22-1.81v0c0-1-0.99-1.81-2.22-1.81H219.7"/>
<path class="st12" d="M223.1,87.23h19.26c0.98,0,1.77-0.74,1.77-1.65v0c0-0.91-0.79-1.65-1.77-1.65h-20.55"/>
<path class="st12" d="M222.27,97.86h11.1c0.56,0,1.02-0.69,1.02-1.54l0,0c0-0.85-0.46-1.54-1.02-1.54h-11.85"/>
<path class="st12" d="M223.31,92.55h14.47c0.73,0,1.33-0.69,1.33-1.54v0c0-0.85-0.6-1.54-1.33-1.54h-15.44"/>
<path class="st12" d="M219.92,103.32h11.1c0.56,0,1.02-0.69,1.02-1.54l0,0c0-0.85-0.46-1.54-1.02-1.54h-11.85"/>
<path class="st12" d="M171.63,92.55h-14.47c-0.73,0-1.33-0.69-1.33-1.54v0c0-0.85,0.6-1.54,1.33-1.54h15.44"/>
<path class="st12" d="M175.02,103.32h-11.1c-0.56,0-1.02-0.69-1.02-1.54l0,0c0-0.85,0.46-1.54,1.02-1.54h11.85"/>
<ellipse class="st13" cx="197.5" cy="90.91" rx="23.46" ry="23.43"/>
<ellipse class="st14" cx="197.5" cy="90.91" rx="23.46" ry="23.43"/>
<polyline class="st12" points="193.98,103.83 192.43,107.29 203.49,107.31 201.95,103.84 "/>
<path class="st12" d="M197.88,72.86c-16.58,16.79-4.01,30.93-4.01,30.93l7.98,0.01c0,0,12.6-14.11-3.93-30.94"/>
<circle class="st12" cx="197.89" cy="88.19" r="4.49"/>
<circle class="st15" cx="197.89" cy="88.13" r="3.44"/>
<path class="st12" d="M189.9,85.95c0,0-6.87,6.98-2.41,17.26l3.55-4.14c-1.96-3.93-2.31-8.36-1.19-13.05"/>
<path class="st12" d="M205.75,85.97c0,0,6.85,6.99,2.37,17.27l-3.54-4.14c1.97-3.92,2.33-8.36,1.22-13.05"/>
<path class="st16" d="M335.53,377.99H59.68c-23.24,0-42.07-18.84-42.07-42.07V60.07c0-23.24,18.84-42.07,42.07-42.07h275.85
	c23.24,0,42.07,18.84,42.07,42.07v275.85C377.6,359.16,358.76,377.99,335.53,377.99z"/>
</svg>
