<?xml version="1.0" encoding="utf-8"?>
<!-- Generator: Adobe Illustrator 27.1.1, SVG Export Plug-In . SVG Version: 6.00 Build 0)  -->
<svg version="1.1" id="Layer_1" xmlns="http://www.w3.org/2000/svg" xmlns:xlink="http://www.w3.org/1999/xlink" x="0px" y="0px"
	 viewBox="0 0 1944 936" style="enable-background:new 0 0 1944 936;" xml:space="preserve">
<style type="text/css">
	.st0{fill:#B26B37;stroke:#984D23;stroke-width:5;stroke-miterlimit:10;}
	.st1{fill:none;stroke:#984C1E;stroke-width:11;stroke-linecap:round;stroke-linejoin:round;stroke-miterlimit:10;}
	.st2{fill:#D23C27;stroke:#A53A23;stroke-miterlimit:10;}
	.st3{fill:#EFE8CC;stroke:#B5956A;stroke-miterlimit:10;}
	.st4{fill:none;stroke:#3D52A4;stroke-linecap:round;stroke-linejoin:round;stroke-miterlimit:10;}
	.st5{fill:#EFE8CC;stroke:#B5956A;stroke-linecap:round;stroke-linejoin:round;stroke-miterlimit:10;}
	.st6{fill:#EFE8CC;stroke:#EFE8CC;stroke-miterlimit:10;}
	.st7{fill:none;stroke:#A8A694;stroke-miterlimit:10;}
	.st8{fill:none;stroke:#A5391D;stroke-miterlimit:10;}
	.st9{fill:#EFE8CC;stroke:#B1AE9C;stroke-miterlimit:10;}
	.st10{fill:#DC7038;stroke:#A5391D;stroke-miterlimit:10;}
	.st11{fill:#2B190D;stroke:#A8A694;stroke-miterlimit:10;}
	.st12{fill:#4F231A;stroke:#321915;stroke-miterlimit:10;}
	.st13{fill:#E58327;stroke:#DE7426;stroke-miterlimit:10;}
	.st14{fill:none;stroke:#DE7426;stroke-miterlimit:10;}
	.st15{fill:none;stroke:#E58327;stroke-miterlimit:10;}
	.st16{fill:#4F231A;stroke:#DE7426;stroke-miterlimit:10;}
	.st17{fill:none;}
	.st18{fill:#984C1E;}
	.st19{font-family:'OCRAExtended';}
	.st20{font-size:36px;}
	.st21{letter-spacing:-1;}
	.st22{fill:#D86B29;}
	.st23{font-size:24px;}
	.st24{fill:#FFF1E7;}
	.st25{fill:#D23C27;stroke:#A53A23;stroke-width:4;stroke-miterlimit:10;}
	.st26{fill:#EFE8CC;stroke:#B5956A;stroke-width:4;stroke-miterlimit:10;}
	.st27{fill:#E15D25;}
	.st28{fill:#F68B44;}
	.st29{fill:#F9A369;}
	.st30{fill:#EFE8CC;stroke:#B1AE9C;stroke-width:0.25;stroke-linecap:round;stroke-linejoin:round;stroke-miterlimit:10;}
	.st31{fill:#B1AE9C;stroke:#9B9989;stroke-width:0.25;stroke-miterlimit:10;}
	.st32{fill:#2B190D;stroke:#A8A694;stroke-width:0.25;stroke-miterlimit:10;}
	.st33{fill:#2B190D;stroke:#000000;stroke-width:0.25;stroke-miterlimit:10;}
	.st34{fill:#D23C27;stroke:#A53A23;stroke-width:0.25;stroke-linecap:round;stroke-linejoin:round;stroke-miterlimit:10;}
	.st35{fill:none;stroke:#A8A694;stroke-width:4;stroke-miterlimit:10;}
	.st36{fill:#EFE8CC;stroke:#B1AE9C;stroke-width:4;stroke-miterlimit:10;}
	.st37{fill:none;stroke:#A5391D;stroke-width:4;stroke-miterlimit:10;}
	.st38{fill:#4F231A;stroke:#321915;stroke-width:4;stroke-miterlimit:10;}
	.st39{fill:#E58327;stroke:#DE7426;stroke-width:4;stroke-miterlimit:10;}
	.st40{fill:none;stroke:#DE7426;stroke-width:9;stroke-miterlimit:10;}
	.st41{fill:none;stroke:#E58327;stroke-width:4;stroke-miterlimit:10;}
	.st42{fill:#4F231A;stroke:#DE7426;stroke-width:0.25;stroke-miterlimit:10;}
	.st43{fill:none;stroke:#984D23;stroke-width:5;stroke-miterlimit:10;}
</style>
<path class="st0" d="M724.23,385.93H448.38c-23.24,0-42.07-18.84-42.07-42.07V68c0-23.24,18.84-42.07,42.07-42.07h275.85
	c23.24,0,42.07,18.84,42.07,42.07v275.85C766.31,367.09,747.47,385.93,724.23,385.93z"/>
<polyline class="st1" points="696.06,383.37 696.06,599.37 725.79,599.59 "/>
<path class="st2" d="M747.92,377.2c-2.9,1,0.5-0.31,1.18-0.72c0.95-0.58,1.86-1.22,2.77-1.86c1.86-1.3,3.68-2.62,5.65-3.75
	c0.09-0.05,0.19-0.1,0.28-0.15c0.2-1.03,0.53-2,0.95-2.93l-76.15-19.05l-10.75-2.46c-0.06-0.01-0.12-0.02-0.18-0.02
	c-2.46-0.02-2.33,1.26-2.27,1.55c0.01,0.05,0.01,0.1,0.01,0.16c-0.06,3.97-0.58,9.03-2.32,13.82c-0.01,0.02-0.01,0.03-0.02,0.05
	l-5.68,20.99c-0.14,0.5,0.24,1,0.76,1c25.77-0.02,51.54-0.18,77.31-0.25C741.5,380.67,744.52,378.38,747.92,377.2z"/>
<path class="st2" d="M502.93,361.52c-0.01-0.02-0.01-0.04-0.02-0.06c-1.92-5.26-2.35-10.84-2.33-14.95l0.01-0.34
	c0.01-0.57-0.51-1-1.07-0.87l-15.04,3.45l-70.7,17.68c0.65,0.79,1.24,1.65,1.76,2.56c0.52,0.89,0.99,1.85,1.45,2.77
	c-1.42-2.82,0.56,0.27,1.48,1.12c2.43,2.26,4.93,4.3,7.02,6.9c0.04,0.05,0.07,0.1,0.11,0.15c1.65,0.88,3.07,2.03,4.25,3.37
	c26.35,0.13,52.7,0.39,79.06,0.38c0.01,0,0.01,0,0.02,0L502.93,361.52z"/>
<path class="st3" d="M740.77,381.93c-1.25-2.02-2.32-3.48-2.32-3.48s-1.86-11.15-1.2-15.73l-19.61-4.81
	c0.61,1.38,1.03,2.17,1.03,2.17l12,18.06c0,0,1.12,2.47,2.77,5.46c2.01-0.01,4.02-0.01,6.03-0.02
	C739.86,383.01,740.3,382.46,740.77,381.93z"/>
<path class="st3" d="M747.92,377.2c-2.9,1,0.5-0.31,1.18-0.72c0.95-0.58,1.86-1.22,2.77-1.86c0.19-0.13,0.38-0.27,0.57-0.4
	c0.43-2.32,1.16-4.8,2.4-7.11l-12.52-3.13c0.94,2.35,1.19,6.45,3.21,14.27C746.3,377.85,747.09,377.49,747.92,377.2z"/>
<path class="st3" d="M661.12,383.83c16.69-0.01,33.38-0.08,50.08-0.15c-0.86-1.65-2.97-6.57,5.51-1.67l1.43,1.64
	c3.36-0.01,6.72-0.03,10.08-0.04c-7.1-11.84-17.03-22.99-17.03-22.99l-0.62-0.67c-0.6-1.55-1.21-3.01-1.83-4.37l-5.25-1.31l-12.01-3
	l-18.58-4.27c0,0-3.7-1.29-3.48,0c0.22,1.29-0.7,8.58-0.7,8.58L661.12,383.83z"/>
<path class="st4" d="M714.33,361.23"/>
<path class="st5" d="M415.54,368.99c0.52,0.89,0.99,1.85,1.45,2.77c-1.11-2.2-0.15-0.8,0.77,0.32c2.16-2.52,4.54-5,7.2-7.39
	l-9.92,2.48c-0.14,0.13-0.27,0.27-0.41,0.4C414.95,368.03,415.26,368.5,415.54,368.99z"/>
<polygon class="st6" points="694.93,313.18 474.88,313.18 475.41,243.87 695.46,243.87 "/>
<path class="st7" d="M695.24,245.14"/>
<line class="st7" x1="474.82" y1="303.54" x2="474.82" y2="245.14"/>
<path class="st8" d="M508.61,324.83l-7.85,16.34c0,0,0.04,1.15-0.09,3.04"/>
<path class="st9" d="M693.93,185.33c0,0-18.39-94.39-109.16-94.39h0.52c-90.77,0-109.16,94.39-109.16,94.39"/>
<path class="st9" d="M584.33,282.6c104.47-1.25,110.91-37.46,110.91-37.46v-46.51c0-47.41-49.05-85.84-109.56-85.84h-1.29
	c-60.51,0-109.56,38.43-109.56,85.84v46.51c0,0,6.43,36.21,110.91,37.46"/>
<path class="st10" d="M579.46,383.32c6.2-0.02,12.39,0.03,18.59,0.12c19.05-19.38,30.76-42.75,37.29-59.17l-100.66,0
	c6.49,16.4,18.17,39.75,37.24,59.12C574.43,383.35,576.95,383.32,579.46,383.32z"/>
<path class="st8" d="M661.16,324.27l7.85,16.34c0,0,0.3,3.76,0.41,6.4"/>
<path class="st2" d="M484.48,348.74"/>
<path class="st2" d="M534.68,324.27l-26.07,0.56l-7.85,16.34c0,0,0.04,1.15-0.09,3.04l-0.07,0.84l-0.03,1.46
	c-0.02,4.12,0.41,9.71,2.34,14.98l6.01,22.2c0.47,0,0.92,0.03,1.37,0.08c7.15-0.22,14.33,0,21.48,0.09
	c13.39,0.18,26.76-0.29,40.14-0.47C552.86,364.02,541.18,340.67,534.68,324.27z"/>
<path class="st2" d="M636.64,383.84c1.32-0.49,2.72-0.76,4.14-0.76c5.94,0.02,11.86,0.3,17.8,0.46c0.85,0.02,1.68,0.13,2.47,0.3
	c0.03,0,0.05,0,0.08,0l5.96-22.02c1.77-4.84,2.28-9.96,2.33-13.95l0-0.86c-0.11-2.64-0.41-6.4-0.41-6.4l-7.85-16.34l-25.83,0
	c-6.98,17.57-15.95,39.81-36.58,59.18c9.03,0.14,18.06,0.35,27.08,0.56C629.36,383.42,633.12,383.64,636.64,383.84z"/>
<path class="st9" d="M585,328.99c64.31-0.97,91.12-6.71,102.52-9.68c9.13-2.38,7.72-8.1,7.72-8.1v-7.67c0,0-38.4,10.41-109.16,9.64
	h-2.1c-70.76,0.77-109.16-9.64-109.16-9.64v7.67c0,0-1.41,5.72,7.72,8.1c11.39,2.97,38.21,8.71,102.52,9.68"/>
<line class="st7" x1="695.24" y1="303.54" x2="695.24" y2="245.14"/>
<path class="st7" d="M585.32,138.72"/>
<path class="st4" d="M714.33,361.23"/>
<path class="st7" d="M585.32,138.72"/>
<path class="st8" d="M747.92,377.2c-2.9,1,0.5-0.31,1.18-0.72c0.95-0.58,1.86-1.22,2.77-1.86c1.86-1.3,3.68-2.62,5.65-3.75
	c0.09-0.05,0.19-0.1,0.28-0.15c0.2-1.03,0.53-2,0.95-2.93l-76.15-19.05l-10.84-2.48c0,0,0,0,0,0c-2.87-0.06-2.35,1.59-2.35,1.61
	c0,0,0,0,0,0c-0.05,3.99-0.56,9.1-2.33,13.95l0,0l-5.96,22.01c0,0,0,0.01,0.01,0.01c26.11-0.02,52.22-0.18,78.33-0.26
	C741.5,380.67,744.52,378.38,747.92,377.2z"/>
<path class="st8" d="M502.93,361.52c0-0.02-0.01-0.03-0.02-0.05c-1.92-5.26-2.35-10.84-2.33-14.95l0.01-0.51
	c0.01-0.49-0.44-0.85-0.91-0.75l-15.2,3.48l-70.7,17.68c0.65,0.79,1.24,1.65,1.76,2.56c0.52,0.89,0.99,1.85,1.45,2.77
	c-1.42-2.82,0.56,0.27,1.48,1.12c2.43,2.26,4.93,4.3,7.02,6.9c0.04,0.05,0.07,0.1,0.11,0.15c1.65,0.88,3.07,2.03,4.25,3.37
	c26.35,0.13,52.7,0.39,79.06,0.38c0.01,0,0.01,0,0.02,0L502.93,361.52z"/>
<path class="st5" d="M425.6,379.94c1.65,0.88,3.08,2.04,4.25,3.38c13.35,0.06,26.7,0.15,40.04,0.23
	c-6.52-7.44-12.59-6.99-12.59-6.99s-3.01,1.32-16.35-4.07c-6.09-2.46-12.2,1.01-17.04,5.5c0.54,0.57,1.07,1.17,1.58,1.79
	C425.53,379.83,425.56,379.89,425.6,379.94z"/>
<g>
	<g>
		<path class="st11" d="M585.29,275.44c-96.79-1.16-102.75-34.7-102.75-34.7v-43.09c0-43.92,45.45-79.53,101.5-79.53
			c1.97,0,1.97,0,1.97,0c56.06,0,101.5,35.61,101.5,79.53v43.09c0,0-5.96,33.55-102.75,34.7"/>
	</g>
</g>
<path class="st12" d="M486.01,141.82c0,0-50.19-31.26-28.06-54.99c22.13-23.73,128.45-21.9,128.45-21.9h0.3
	c0,0,106.32-1.83,128.45,21.9c22.13,23.73-28.06,54.99-28.06,54.99"/>
<path class="st12" d="M485.33,154.28l-0.06,0.04c-1.65,1.1-3.08,2.5-4.13,4.17c-3.04,4.86-4.21,13.85,23.59,18.37
	c39.24,6.39,81.45,4.11,81.45,4.11l0,0c0.48,0,0.96,0.01,1.44,0.03c5.62,0.26,44.46,1.77,80.76-4.14
	c27.8-4.53,26.63-13.51,23.59-18.37c-1.05-1.68-2.49-3.08-4.13-4.17l-0.06-0.04"/>
<polyline class="st12" points="485.27,154.32 586.17,137.03 687.83,154.32 "/>
<path class="st13" d="M587.84,143.42c45.8,0,91.4,9.31,99.04,10.94c0.72,0.15,1.43-0.31,1.58-1.04c0.72-3.37-1.13-8.8-1.82-10.64
	c-0.15-0.4-0.47-0.7-0.88-0.81c-26.97-7.42-98.16-11.69-98.16-11.69l-0.6-0.03c-0.51-0.03-1.02-0.02-1.52,0.03l0,0
	c0,0-71.19,4.27-98.16,11.69c-0.41,0.11-0.73,0.41-0.88,0.81c-0.69,1.84-2.54,7.26-1.82,10.64c0.15,0.72,0.86,1.19,1.58,1.04
	c7.64-1.63,53.25-10.94,99.04-10.94H587.84z"/>
<path class="st13" d="M562.33,90.15H538.2c-1.23,0-2.22-0.81-2.22-1.81l0,0c0-1,0.99-1.81,2.22-1.81h25.75"/>
<path class="st13" d="M560.55,95.16h-19.26c-0.98,0-1.77-0.74-1.77-1.65l0,0c0-0.91,0.79-1.65,1.77-1.65h20.55"/>
<path class="st13" d="M561.37,105.79h-11.1c-0.56,0-1.02-0.69-1.02-1.54l0,0c0-0.85,0.46-1.54,1.02-1.54h11.85"/>
<path class="st13" d="M610.02,90.15h24.13c1.23,0,2.22-0.81,2.22-1.81l0,0c0-1-0.99-1.81-2.22-1.81h-25.75"/>
<path class="st13" d="M611.81,95.16h19.26c0.98,0,1.77-0.74,1.77-1.65l0,0c0-0.91-0.79-1.65-1.77-1.65h-20.55"/>
<path class="st13" d="M610.98,105.79h11.1c0.56,0,1.02-0.69,1.02-1.54l0,0c0-0.85-0.46-1.54-1.02-1.54h-11.85"/>
<path class="st13" d="M612.02,100.49h14.47c0.73,0,1.33-0.69,1.33-1.54v0c0-0.85-0.6-1.54-1.33-1.54h-15.44"/>
<path class="st13" d="M608.63,111.25h11.1c0.56,0,1.02-0.69,1.02-1.54l0,0c0-0.85-0.46-1.54-1.02-1.54h-11.85"/>
<path class="st13" d="M560.33,100.49h-14.47c-0.73,0-1.33-0.69-1.33-1.54v0c0-0.85,0.6-1.54,1.33-1.54h15.44"/>
<path class="st13" d="M563.73,111.25h-11.1c-0.56,0-1.02-0.69-1.02-1.54l0,0c0-0.85,0.46-1.54,1.02-1.54h11.85"/>
<ellipse class="st14" cx="586.21" cy="98.85" rx="23.46" ry="23.43"/>
<ellipse class="st15" cx="586.21" cy="98.85" rx="23.46" ry="23.43"/>
<polyline class="st13" points="582.69,111.77 581.14,115.23 592.2,115.24 590.65,111.78 "/>
<path class="st13" d="M586.59,80.79c-16.58,16.79-4.01,30.93-4.01,30.93l7.98,0.01c0,0,12.6-14.11-3.93-30.94"/>
<circle class="st13" cx="586.6" cy="96.12" r="4.49"/>
<circle class="st16" cx="586.6" cy="96.06" r="3.44"/>
<path class="st13" d="M578.61,93.89c0,0-6.87,6.98-2.41,17.26l3.55-4.14c-1.96-3.93-2.31-8.36-1.19-13.05"/>
<path class="st13" d="M594.45,93.91c0,0,6.85,6.99,2.37,17.27l-3.54-4.14c1.97-3.92,2.33-8.36,1.22-13.05"/>
<path class="st0" d="M1816.82,420.86H128.18c-17.64,0-31.94,14.3-31.94,31.94v426.34c0,17.64,14.3,31.94,31.94,31.94h650.54
	c1.45-0.29,2.9-0.49,4.29-0.59c3.51-0.27,6.98,0.24,10.49,0.3c0.01,0,0.01,0,0.02,0c22.01,0.01,44.02,0.12,66.04,0.29h152.97
	c1.82-0.8,3.79-1.21,5.78-1.06c9.01,0.66,18.03,0.96,27.05,1.06h17.42c4.99-0.05,9.98-0.14,14.97-0.24
	c19.4-0.37,38.73-0.12,58.12-0.06c1,0,1.97,0.11,2.9,0.3h678.04c17.64,0,31.94-14.3,31.94-31.94V452.8
	C1848.76,435.16,1834.46,420.86,1816.82,420.86z"/>
<g>
	<rect x="1215.93" y="468.54" class="st17" width="582.13" height="425.87"/>
	<text transform="matrix(1 0 0 1 1224.9277 491.9059)"><tspan x="0" y="0" class="st18 st19 st20 st21">Astronuts Can Fly Spacecraft </tspan><tspan x="582.56" y="0" class="st22 st19 st23 st21"> </tspan><tspan x="-6.42" y="57.6" class="st24 st19 st23 st21">By requiring all astronauts to receive some </tspan><tspan x="13.67" y="86.4" class="st24 st19 st23 st21">level of certification before true space </tspan><tspan x="-6.42" y="115.2" class="st24 st19 st23 st21">flight, as well as other requirements, such </tspan><tspan x="0.28" y="144" class="st24 st19 st23 st21">as the astronaut physical, this makes sure </tspan><tspan x="20.36" y="172.8" class="st24 st19 st23 st21">that the flight can be completed safely </tspan><tspan x="0.28" y="201.6" class="st24 st19 st23 st21">even in the event of our onboard chaperone </tspan><tspan x="27.06" y="230.4" class="st24 st19 st23 st21">becoming incapacitated for any reason. </tspan><tspan x="20.36" y="259.2" class="st24 st19 st23 st21">Additionally, if astronauts want to fly </tspan><tspan x="27.06" y="288" class="st24 st19 st23 st21">without a company chaperone, they will </tspan><tspan x="27.06" y="316.8" class="st24 st19 st23 st21">undergo far more intensive training in </tspan><tspan x="13.67" y="345.6" class="st24 st19 st23 st21">order to ensure all participants safety.</tspan></text>
</g>
<path class="st25" d="M1109.18,910.65l-9.13-2.09c-0.1-0.02-0.21-0.04-0.31-0.04c-3.29-0.02-3.85,1.31-3.89,2.13
	C1100.3,910.64,1104.74,910.64,1109.18,910.65z"/>
<path class="st25" d="M809.48,908.37c0.02-0.97-0.87-1.69-1.81-1.48l-16.54,3.79c0.79,0.04,1.58,0.08,2.38,0.09
	c0.01,0,0.01,0,0.02,0c5.32,0,10.64,0.03,15.96,0.04c-0.01-0.64-0.01-1.26-0.01-1.87L809.48,908.37z"/>
<path class="st26" d="M1105.53,910.64l-3.7-0.85c0,0-6.28-2.19-5.91,0c0.03,0.2,0.05,0.5,0.05,0.86
	C1099.16,910.64,1102.34,910.64,1105.53,910.64z"/>
<path class="st27" d="M552.99,623.04c0,0,1.41,0.05,3.96,0.19c18.44,1.01,96.67,6.91,135.53,35.62c3.98,2.94,3.01,9.14-1.68,10.69h0
	c-5.53,1.83-5.58,9.65-0.07,11.53c29.64,10.14,88,34.77,114.71,78.39c1.98,3.23,0.61,7.45-2.9,8.86l-7.84,3.15
	c-3.96,1.59-5.1,6.65-2.2,9.78c15.41,16.65,54.54,61.52,52.55,85.77c-2.51,30.57-100.86-0.62-126.7-13.12
	c-3.39-1.64-7.43,0.18-8.48,3.79l-2.64,9.07c-0.96,3.31-4.47,5.16-7.74,4.08c-14.4-4.73-52.2-17.84-85.49-35.35
	c-4.59-2.42-9.9,1.69-8.75,6.75l0.22,0.97c1.21,5.32-4.64,9.43-9.22,6.48c-20.79-13.39-64.32-47.54-102.54-117.2L552.99,623.04z"/>
<path class="st28" d="M509.98,704.27c15.59,38.78,70.11,83.51,91.3,99.85c2.75,2.12,6.62-0.48,5.69-3.83h0
	c-0.86-3.09,2.45-5.68,5.25-4.11c32.48,18.11,48.69,21.81,54.94,22.51c1.79,0.2,3.45-0.97,3.88-2.72l0.91-3.67
	c0.51-2.07,2.7-3.24,4.71-2.54c46.44,16.24,61.45,18.28,73.1,10.19c9.72-6.75-18.23-41.54-29.05-54.34
	c-1.79-2.12-0.62-5.38,2.11-5.88l4.91-0.91c2.4-0.44,3.7-3.1,2.54-5.26c-15.96-29.65-52.52-43.86-72.02-49.55
	c-3.47-1.01-3.48-5.92-0.01-6.94l3.62-1.07c3-0.88,3.55-4.92,0.88-6.54c-45.24-27.5-127.76-32.25-127.76-32.25L509.98,704.27z"/>
<path class="st29" d="M516.29,692.65c4.65,12.93,34.79,37.15,45.35,45.34c1.15,0.89,2.76-0.21,2.35-1.61l-0.01-0.02
	c-0.4-1.34,1.1-2.43,2.27-1.66c11.28,7.44,20.64,10.84,24.41,12.03c0.91,0.29,1.85-0.35,1.93-1.3l0.18-2.09
	c0.09-1.02,1.16-1.66,2.1-1.24c21.53,9.65,31.38,10.38,36.42,7.77c4.33-2.25-9.86-19.59-14.67-25.26c-0.71-0.84-0.31-2.12,0.75-2.41
	l2.6-0.7c0.84-0.23,1.3-1.11,1.03-1.93c-3.16-9.57-24.63-20.27-33.6-24.38c-1.28-0.59-1.11-2.46,0.26-2.81l0.07-0.02
	c1.28-0.33,1.53-2.01,0.42-2.72c-19.26-12.3-52.96-17.17-59.12-17.98c-0.6-0.08-1.18,0.21-1.48,0.73l-11.11,19.03
	C516.21,691.8,516.15,692.25,516.29,692.65z"/>
<path class="st30" d="M121.11,462.7c299.93-89.34,387.11,146.01,387.11,146.01l-49.64,93.41c0,0-243.84,59.46-337.64-239.11"/>
<circle class="st31" cx="300.5" cy="558.52" r="59.58"/>
<circle class="st32" cx="299.77" cy="558.13" r="45.57"/>
<polyline class="st33" points="507.88,609.35 558.08,612.74 489.22,742.31 458.32,702.6 "/>
<path class="st34" d="M324.17,451.01c0,0,124.51-36.9,217.06,79.48l-70.56,15.78c-33.77-47.44-83.48-79.16-145.35-95.31"/>
<path class="st34" d="M225.53,636.65c0,0,39.09,123.84,187.34,135.41l-26.41-67.31c-58.21-1.44-112.32-24.88-160.33-67.13"/>
<polygon class="st6" points="1139.2,852.41 765.86,852.41 766.76,734.8 1140.1,734.8 "/>
<path class="st7" d="M1139.73,736.97"/>
<line class="st35" x1="765.76" y1="836.05" x2="765.76" y2="736.97"/>
<path class="st8" d="M823.09,872.16l-13.31,27.73c0,0,0.06,1.95-0.14,5.16"/>
<path class="st36" d="M1137.5,635.49c0,0-31.2-160.14-185.2-160.14h0.88c-154,0-185.2,160.14-185.2,160.14"/>
<path class="st36" d="M951.56,800.52c177.25-2.12,188.17-63.55,188.17-63.55v-78.91c0-80.43-83.23-145.64-185.89-145.64h-2.19
	c-102.66,0-185.89,65.2-185.89,145.64v78.91c0,0,10.91,61.43,188.17,63.55"/>
<path class="st10" d="M1018.31,910.01c0.49,0.04,0.99,0.06,1.48,0.09c7.74-14.09,13.77-27.49,18.31-38.89l-170.78,0
	c4.64,11.72,10.85,25.54,18.89,40.06c41.5,0.32,83,0.59,124.5,0.77C1013.01,910.62,1015.64,909.82,1018.31,910.01z"/>
<path class="st8" d="M1081.91,871.21l13.31,27.73c0,0,0.52,6.37,0.7,10.86"/>
<path class="st25" d="M863.81,911.1c7.47,0.06,14.93,0.11,22.4,0.17c-8.04-14.52-14.25-28.33-18.89-40.06l-44.23,0.95l-13.31,27.73
	c0,0,0.06,1.95-0.14,5.16l-0.12,1.42l-0.05,2.49c0,0.6,0,1.23,0.01,1.87C827.59,910.86,845.7,910.95,863.81,911.1z"/>
<path class="st25" d="M1077.76,910.84c6.06-0.12,12.11-0.17,18.16-0.19l0-0.86c-0.18-4.48-0.7-10.86-0.7-10.86l-13.31-27.73
	l-43.82,0c-4.76,11.98-10.09,25.26-17.01,38.97C1039.95,911.41,1058.86,911.2,1077.76,910.84z"/>
<path class="st36" d="M952.7,879.23c109.11-1.64,154.6-11.38,173.93-16.42c15.5-4.04,13.1-13.74,13.1-13.74v-13.01
	c0,0-65.14,17.66-185.2,16.35h-3.56c-120.06,1.31-185.2-16.35-185.2-16.35v13.01c0,0-2.4,9.7,13.1,13.74
	c19.33,5.04,64.82,14.78,173.93,16.42"/>
<line class="st35" x1="1139.73" y1="836.05" x2="1139.73" y2="736.97"/>
<path class="st7" d="M953.23,556.4"/>
<path class="st7" d="M953.23,556.4"/>
<path class="st37" d="M1109.18,910.65l-9.28-2.13c0,0,0,0,0,0c-3.43-0.07-4,1.3-4.04,2.12
	C1100.3,910.64,1104.74,910.64,1109.18,910.65z"/>
<path class="st37" d="M809.48,908.1c0.02-0.83-0.75-1.45-1.55-1.26l-16.81,3.85c0.79,0.04,1.58,0.08,2.38,0.09c0.01,0,0.01,0,0.02,0
	c5.32,0,10.64,0.03,15.96,0.04c-0.01-0.64-0.01-1.26-0.01-1.87L809.48,908.1z"/>
<g>
	<g>
		<path class="st11" d="M953.19,788.38c-164.22-1.96-174.33-58.88-174.33-58.88V656.4c0-74.52,77.1-134.93,172.22-134.93
			c3.34,0,3.34,0,3.34,0c95.11,0,172.22,60.41,172.22,134.93v73.11c0,0-10.11,56.91-174.33,58.88"/>
	</g>
</g>
<path class="st38" d="M784.75,561.67c0,0-85.16-53.03-47.61-93.29s217.94-37.16,217.94-37.16h0.5c0,0,180.39-3.1,217.94,37.16
	c37.55,40.26-47.61,93.29-47.61,93.29"/>
<path class="st38" d="M783.58,582.8l-0.1,0.07c-2.79,1.86-5.23,4.24-7.01,7.08c-5.16,8.24-7.14,23.5,40.02,31.17
	c66.58,10.84,138.19,6.97,138.19,6.97l0,0c0.82,0,1.63,0.02,2.45,0.06c9.53,0.44,75.43,3,137.02-7.03
	c47.16-7.68,45.18-22.93,40.02-31.17c-1.78-2.84-4.22-5.22-7.01-7.08l-0.1-0.07"/>
<polyline class="st38" points="783.48,582.87 954.68,553.54 1127.16,582.87 "/>
<path class="st39" d="M957.51,564.38c77.7,0,155.07,15.79,168.04,18.56c1.23,0.26,2.42-0.53,2.68-1.76
	c1.22-5.72-1.92-14.93-3.08-18.05c-0.25-0.67-0.8-1.18-1.49-1.37c-45.76-12.59-166.53-19.83-166.53-19.83l-1.02-0.06
	c-0.86-0.05-1.73-0.03-2.59,0.06l0,0c0,0-120.78,7.24-166.53,19.83c-0.69,0.19-1.24,0.7-1.49,1.37c-1.16,3.11-4.3,12.32-3.08,18.05
	c0.26,1.23,1.45,2.02,2.68,1.76c12.97-2.77,90.34-18.56,168.04-18.56H957.51z"/>
<path class="st13" d="M914.23,473.99h-40.95c-2.08,0-3.76-1.37-3.76-3.06l0,0c0-1.69,1.69-3.06,3.76-3.06h43.69"/>
<path class="st13" d="M911.2,482.51h-32.68c-1.66,0-3-1.26-3-2.81l0,0c0-1.55,1.35-2.81,3-2.81h34.87"/>
<path class="st13" d="M912.6,500.54h-18.84c-0.96,0-1.73-1.17-1.73-2.61l0,0c0-1.44,0.78-2.61,1.73-2.61h20.1"/>
<path class="st13" d="M995.15,473.99h40.95c2.08,0,3.76-1.37,3.76-3.06l0,0c0-1.69-1.69-3.06-3.76-3.06h-43.69"/>
<path class="st13" d="M998.18,482.51h32.68c1.66,0,3-1.26,3-2.81l0,0c0-1.55-1.35-2.81-3-2.81h-34.87"/>
<path class="st13" d="M996.77,500.54h18.84c0.96,0,1.73-1.17,1.73-2.61l0,0c0-1.44-0.78-2.61-1.73-2.61h-20.1"/>
<path class="st13" d="M998.53,491.54h24.55c1.25,0,2.26-1.17,2.26-2.61l0,0c0-1.44-1.01-2.61-2.26-2.61h-26.19"/>
<path class="st13" d="M992.78,509.81h18.84c0.96,0,1.73-1.17,1.73-2.61l0,0c0-1.44-0.78-2.61-1.73-2.61h-20.1"/>
<path class="st13" d="M910.84,491.54h-24.55c-1.25,0-2.26-1.17-2.26-2.61l0,0c0-1.44,1.01-2.61,2.26-2.61h26.19"/>
<path class="st13" d="M916.6,509.81h-18.84c-0.96,0-1.73-1.17-1.73-2.61l0,0c0-1.44,0.78-2.61,1.73-2.61h20.1"/>
<ellipse class="st40" cx="954.75" cy="488.76" rx="39.81" ry="39.75"/>
<ellipse class="st41" cx="954.75" cy="488.76" rx="39.81" ry="39.75"/>
<polyline class="st13" points="948.77,510.68 946.13,516.55 964.9,516.57 962.28,510.7 "/>
<path class="st13" d="M955.38,458.12c-28.13,28.48-6.81,52.48-6.81,52.48l13.53,0.02c0,0,21.38-23.95-6.68-52.5"/>
<circle class="st13" cx="955.4" cy="484.14" r="7.62"/>
<circle class="st42" cx="955.4" cy="484.03" r="5.83"/>
<path class="st13" d="M941.84,480.34c0,0-11.66,11.83-4.09,29.28l6.03-7.02c-3.32-6.67-3.91-14.19-2.01-22.14"/>
<path class="st13" d="M968.73,480.38c0,0,11.63,11.86,4.01,29.29l-6.01-7.03c3.34-6.66,3.95-14.18,2.07-22.14"/>
<path class="st43" d="M724.23,385.93H448.38c-23.24,0-42.07-18.84-42.07-42.07V68c0-23.24,18.84-42.07,42.07-42.07h275.85
	c23.24,0,42.07,18.84,42.07,42.07v275.85C766.31,367.09,747.47,385.93,724.23,385.93z"/>
</svg>
