<?xml version="1.0" encoding="utf-8"?>
<!-- Generator: Adobe Illustrator 26.3.1, SVG Export Plug-In . SVG Version: 6.00 Build 0)  -->
<svg version="1.1" id="Layer_1" xmlns="http://www.w3.org/2000/svg" xmlns:xlink="http://www.w3.org/1999/xlink" x="0px" y="0px"
	 viewBox="0 0 396 396" style="enable-background:new 0 0 396 396;" xml:space="preserve">
<style type="text/css">
	.st0{fill:#7E5945;stroke:#984C1E;stroke-width:5;stroke-miterlimit:10;}
	.st1{fill:#6C322C;stroke:#441710;stroke-miterlimit:10;}
	.st2{fill:#DC7038;stroke:#AA5626;stroke-width:0.5;stroke-miterlimit:10;}
	.st3{fill:none;stroke:#000000;stroke-miterlimit:10;}
	.st4{fill:#EFE8CC;}
	.st5{fill:#D23C27;stroke:#A53A23;stroke-width:0.5;stroke-miterlimit:10;}
	.st6{fill:#EFE8CC;stroke:#EFE8CC;stroke-width:0.5;stroke-miterlimit:10;}
	.st7{fill:#EFE8CC;stroke:#B1AE9C;stroke-width:0.5;stroke-miterlimit:10;}
	.st8{fill:none;stroke:#A8A694;stroke-width:0.5;stroke-miterlimit:10;}
	.st9{fill:#EFE8CC;stroke:#B1AE9C;stroke-width:0.5;stroke-linecap:round;stroke-linejoin:round;stroke-miterlimit:10;}
	.st10{fill:none;stroke:#B1AE9C;stroke-width:0.5;stroke-linecap:round;stroke-linejoin:round;stroke-miterlimit:10;}
	.st11{fill:#EFE8CC;stroke:#B5956A;stroke-width:0.5;stroke-miterlimit:10;}
	.st12{fill:#EFE8CC;stroke:#B5956A;stroke-width:0.5;stroke-linecap:round;stroke-linejoin:round;stroke-miterlimit:10;}
	.st13{fill:none;stroke:#A53A23;stroke-width:0.5;stroke-miterlimit:10;}
	.st14{fill:#D23D27;stroke:#B5956A;stroke-width:0.5;stroke-miterlimit:10;}
	.st15{fill:#2B190D;stroke:#A8A694;stroke-width:0.5;stroke-miterlimit:10;}
	.st16{fill:#B18F72;stroke:#806852;stroke-miterlimit:10;}
	.st17{fill:#3E1D0D;stroke:#180000;stroke-width:2;stroke-miterlimit:10;}
</style>
<path class="st0" d="M335.53,377.99H59.68c-23.24,0-42.07-18.84-42.07-42.07V60.07c0-23.24,18.84-42.07,42.07-42.07h275.85
	c23.24,0,42.07,18.84,42.07,42.07v275.85C377.6,359.16,358.76,377.99,335.53,377.99z"/>
<path class="st1" d="M95.35,318.46c-9.8,2.03-19.38-4.27-21.4-14.07l-39.7-191.97c-2.03-9.8,4.27-19.38,14.07-21.4L63,87.98
	c9.8-2.03,19.38,4.27,21.4,14.07l39.7,191.97"/>
<path class="st1" d="M93.23,267.46h133.14c10.84,0,19.62,8.11,19.62,18.11v15.01c0,10-8.78,18.11-19.62,18.11H93.23"/>
<path class="st2" d="M180.48,275.18c0,0-50.27,0.65-54-13.01c-3.73-13.66,48.55-11.71,48.55-11.71l19.74,17.56L180.48,275.18z"/>
<path class="st1" d="M122.41,319.07c10.56,23.21-3.29,40.26-11.42,47.7c-1.5,1.37-0.57,4.03,1.39,3.98l86.12-0.46l0.99,0.02
	c1.96,0,2.83-2.68,1.29-4.02c-8.32-7.23-22.6-23.92-12.64-47.39"/>
<path class="st3" d="M134.63,323.3"/>
<path class="st3" d="M202.16,367.29"/>
<path class="st4" d="M182.56,81.28"/>
<path class="st5" d="M133.86,99.62c-1.18,0.48,1.11-2.97,1.11-2.97s-0.46-3.71,0.89-7.92s16.1-0.05,16.1-0.05
	s39.46,13.42,35.35,17.33l-4.42,6.29c0,0-0.23,1.18-3.67-1.4C175.78,108.33,145.4,94.94,133.86,99.62z"/>
<polyline class="st2" points="177.35,104.68 142.69,93.5 142.43,89.32 176.4,89.37 176.5,90.92 177.35,104.68 "/>
<rect x="147.34" y="42.4" transform="matrix(0.207 -0.9783 0.9783 0.207 49.0696 215.0364)" class="st6" width="19.67" height="69.7"/>
<path class="st7" d="M156.52,78.29"/>
<path class="st8" d="M164.92,39.11"/>
<path class="st8" d="M164.92,39.11"/>
<path class="st4" d="M191,82.8"/>
<path class="st9" d="M276.6,340.49c0.83-0.75,1.86-1.31,2.95-1.72c3.26-1.23,7.01-1.16,7.01-1.16c6.71-0.13,12.84,4.06,15.39,10.52
	c0,0,4.44,17.19-5.78,17.33c-8.99,0.12-34.63,0.66-40.64,0.79c0,0-1.27,0.08-1.5-1.7c-0.63-5.09-1.94-20.26,2.11-29.2
	c0,0,21.33-0.33,21.87-0.42c0.54-0.09,1.54,3.84,1.54,3.84"/>
<path class="st2" d="M197.17,222.97c0,0,41.2-1.53,48.84,5.14l26.94,2.83c0,0,15.58,4.01,16.81,21.96
	c1.23,17.96-3.59,28.66-3.59,28.66s-3.18,5.27-9.89,5.71l-26.94-2.83c-8.56,4.96-48.84-5.14-48.84-5.14l-1.28-0.14
	c-10.03-1.12-19.78-2.99-24.41-3.93l-1.11-0.24c0,0,1.78-33.92-2.5-53.1c0,0,52.59-0.38,53.78,10.22"/>
<path class="st9" d="M269.23,343.69c0.86-0.7,1.92-1.2,3.02-1.54c3.32-1.04,7.05-0.74,7.05-0.74c6.71,0.27,12.64,4.81,14.9,11.42
	c0,0,3.67,17.43-6.54,16.97c-8.99-0.41-34.62-1.38-40.62-1.61c0,0-1.27,0.01-1.42-1.79c-0.41-5.12-1.04-20.35,3.4-29.04
	c0,0,21.31,0.93,21.86,0.86c0.55-0.06,1.37,3.93,1.37,3.93"/>
<path class="st2" d="M247.63,285.84c-17.22-1.2-40.67-6.31-40.67-6.31l-1.49-0.14c-11.65-1.13-22.96-3.02-28.34-3.97l-1.28-0.24
	c0,0,2.09-34.36-2.87-53.79c0,0,61.07-0.42,62.44,10.32"/>
<path class="st2" d="M286.99,274.38c-0.23,5.16,0.65,9.47-0.51,11.66l0.29,31.41c0,0-1.9,18.41-17.46,21.66
	c-15.56,3.25-25.4-1.22-25.4-1.22s-4.93-3.13-6.01-10.84l-0.29-31.41c-1.52-2.74-2.2-8.73-2.4-15.84"/>
<path class="st5" d="M179.27,162.34c0,0-23.53,5.94-51.36,3.25"/>
<path class="st10" d="M152.31,262.31c0.45-0.53,0.47-3,0.3-6.03"/>
<path class="st5" d="M181.76,112.46c0.04,0.76,28.78,25.71,24.4,44.83s5.43,101.82,5.43,101.82s-93.21,7.58-95.58,2.15
	c-2.37-5.43,3.02-36.14,3.02-36.14s-0.88-60.33-5.26-72.5c-4.38-12.17,4.21-44.83,14.57-48.45
	C138.68,100.54,181.76,112.46,181.76,112.46z"/>
<path class="st11" d="M206.01,147.33c-0.29,0.5-1.15,1.64-3.28,2.7c0,0-2.27,1.9-2.45,2.62c-0.19,0.72-0.4,0.53-0.4,0.53
	s-0.5-1.63,0.15-2.74s-0.49-0.45-0.49-0.45l-1.88,4.42c0,0-0.89,1.39-1.04-0.4c-0.15-1.79,0.03-4.93,0.03-4.93s-0.73-2.9-1.28-0.08
	c-0.55,2.82-0.01,6.99-0.01,6.99s0.16,3.32-1.16,0.99c0,0-1.7-4.63-3.06-4.68c-1.36-0.05-1.06,1.21-1.06,1.21l2.74,3.61
	c0,0,1.26,2.84-1.21,1.03c0,0-2.12-2.82-6.1-3.51c-3.98-0.7-1.88,2.16-1.88,2.16s4.47-0.1,5.72,2.06c0,0,2.27,1.65,0.18,2.13
	c0,0-1.55-0.15-2.13-0.36c-0.58-0.21-6.85,0.69-6.85,0.69s-3.06,2.27-5.21,0.76c-2.15-1.51-3.34-4.6-3.34-4.6s-1.57-4.99,1.92-7.94
	c3.49-2.95,2.94-4.52,2.94-4.52s0.09-3.31,6.22-2.88c6.13,0.43,8.82,8.32,8.82,8.32s1.07,3.11,1.29-0.08
	c0.22-3.19-0.97-5.15-0.97-5.15s-3.01-1.65-2.68-5.34c0.33-3.69,0.05-5.73,2.3-6.71c0,0,4.25-0.34,6.11-0.92
	c0.22-0.07,0.44-0.11,0.66-0.13"/>
<path class="st11" d="M189.35,164.83c0,0-2.53,0.36,0.39,2.01l1.17-0.07c0,0,3.65-0.2,1.75,1.6c-1.9,1.8-4.82,3.39-4.82,3.39
	s-4.58,3.06-0.9,3.19c3.68,0.13,5.62-4.27,5.62-4.27s2.37-3.5,1.04,1.45c-1.33,4.95-1.8,5.38-0.91,6.11s2.44-4.2,2.44-4.2
	s-0.45-4.6,1.01-4.46c1.46,0.15,0.84,5.66,0.84,5.66l0.31,6.14c0,0-0.33,6.67-4.53,8.39c-4.2,1.72-4.46,1.01-6.74-1.41
	c0,0-5.61,3.01-9.05-4.54s-1.71-11.81-1.71-11.81s0.85-1.92,1.72-1.97c0.02,0,0.03,0,0.05,0l-0.06-0.27c0,0-1.03-4.59,2.9-6.2
	c3.94-1.61,6.04-1.33,6.04-1.33s6.63,0.04,7.44,1.5c0.81,1.46-3.84,1.07-3.84,1.07L189.35,164.83z"/>
<path class="st12" d="M206.13,149.21c-9.47,6.42-10.36,14.37-10.36,14.37s0.15,4.19,2.57,0.69c0,0,1.27-7.66,7.9-13.3"/>
<path class="st12" d="M206,158.01c-0.79,0.28-1.36,0.53-1.36,0.53c-4.9,3.79-0.15-2.41-0.15-2.41s0.77-0.94,1.91-1.94"/>
<path class="st12" d="M205.38,162.73c-1.88,0.17-0.67-1.08,0.2-1.84"/>
<path class="st12" d="M205.15,168.72c-0.41-0.11-0.85-0.2-1.32-0.26c-3.28-0.41-0.46-2.07,1.37-2.96"/>
<path class="st12" d="M205.03,173.63c-0.44-0.71-0.93-1.34-0.93-1.34c-1.01-1.82-0.07-1.49,0.93-0.88"/>
<path class="st12" d="M205.6,191.64c-2.76,0.49-7.94,0.24-6.34-9.22l-0.05-0.25c0,0-1.24-6.42-0.67-10.82
	c0.57-4.4,1.53-0.17,1.53-0.17l0.89,4.97c1.61,2.87,1.59,0.23,1.59,0.23s-1.66-7.86-0.28-4.57c1.38,3.29,2.46,3.55,2.46,3.55
	c0.11,0.05,0.21,0.09,0.31,0.11"/>
<path class="st11" d="M183.64,214.9c0,0-1.19,3.07-1.29-0.13s1.16-5.11,1.16-5.11s3.07-1.53,2.88-5.23
	c-0.19-3.7,0.17-5.72-2.04-6.79c0,0-4.23-0.5-6.07-1.15c-1.84-0.65-3.88,0.53-3.88,0.53s-2.52,1.98-3.46,4.31
	c-0.95,2.33-0.69,2.95-0.69,2.95s-2.84,3.27-0.74,6.67c0,0,0.51,1.57,3.29,3.09c0,0,2.19,1.99,2.35,2.71
	c0.16,0.73,0.37,0.54,0.37,0.54s0.57-1.61-0.04-2.74c-0.61-1.13,0.51-0.43,0.51-0.43l1.71,4.49c0,0,0.84,1.42,1.05-0.36
	c0.22-1.78,0.16-4.93,0.16-4.93s0.84-2.87,1.28-0.03c0.44,2.84-0.26,6.99-0.26,6.99s-0.28,3.31,1.12,1.03c0,0,1.88-4.56,3.24-4.56
	s1.01,1.25,1.01,1.25l-2.88,3.5c0,0-1.37,2.79,1.17,1.07c0,0,2.22-2.73,6.23-3.27c4-0.54,1.8,2.23,1.8,2.23s-4.46-0.28-5.79,1.83
	c0,0-2.33,1.56-0.26,2.12c0,0,1.55-0.09,2.14-0.28c0.58-0.19,6.82,0.96,6.82,0.96s2.97,2.38,5.18,0.96c2.2-1.42,3.52-4.47,3.52-4.47
	s1.76-4.93-1.61-8.01c-3.37-3.09-2.76-4.63-2.76-4.63s0.04-3.31-6.1-3.12C186.63,207.12,183.64,214.9,183.64,214.9z"/>
<path class="st11" d="M196.13,235.35c0,0,1.58-4.38-2.29-6.14s-5.99-1.56-5.99-1.56s-6.63-0.22-7.49,1.22
	c-0.86,1.43,3.8,1.22,3.8,1.22l0.17,0.02c0,0,2.51,0.45-0.47,2l-1.17-0.12c0,0-3.64-0.34-1.81,1.53c1.83,1.87,4.68,3.57,4.68,3.57
	s4.46,3.24,0.78,3.22c-3.68-0.01-5.46-4.49-5.46-4.49s-2.23-3.59-1.1,1.41c1.14,5,1.59,5.45,0.67,6.14
	c-0.92,0.69-2.27-4.29-2.27-4.29s0.63-4.58-0.84-4.49c-1.46,0.09-1.06,5.62-1.06,5.62l-0.54,6.13c0,0,0.07,6.68,4.2,8.55
	c4.13,1.88,4.42,1.18,6.79-1.15c0,0,5.49,3.22,9.22-4.19c3.73-7.41,2.16-11.73,2.16-11.73s-0.77-1.95-1.64-2.03
	c-0.02,0-0.03,0-0.05,0L196.13,235.35z"/>
<path class="st12" d="M173.27,110.23c2.6,5.54,1.51,8.08,1.51,8.08s-1.97,4.83-7.28,0.92l-0.2-0.15c0,0-9.06,0.42-0.96,1.76
	s5.17,10.29,5.17,10.29s5.96,10.75-5.93,11.9l-0.21,0.06c0,0-9.02,6-9.66-6.88l-0.11-0.24c0,0-2.59-6-2.98-10.42
	c-0.39-4.42,1.46-0.49,1.46-0.49l1.94,4.66c2.19,2.46,1.6-0.12,1.6-0.12s-3.31-7.32-1.26-4.4s3.16,2.94,3.16,2.94
	c2.74,0.51-1.28-2.87-1.28-2.87c-2.42-2.74,2.46-0.32,2.46-0.32c4.63,3.67,3.4-0.78,3.4-0.78s-2.39-3.01-6.95-2.58
	s1.82-4.02,1.82-4.02c5.24-1.12,4.31-1.57,4.31-1.57s0.09-3.15-4.55-0.87c-4.64,2.28-0.95-1.98-0.95-1.98s3.74-0.5,3.62-2.94
	c-0.13-2.44-5.58,1.52-5.58,1.52c-3.97,4.75-0.66-2.32-0.66-2.32s0.66-1.32,1.74-2.68"/>
<path class="st12" d="M163.79,209.97c14.6,7.99,14.78,19.22,14.78,19.22s-0.55,4.16-2.63,0.44c0,0-0.89-13.05-13.6-18.93
	c0,0,1.39,5.23-2.22,4.65c0,0-1.98,0.57-0.82-3.91c0,0-2.74,4.87-4.52,1.88c-1.79-2.99,3.09-4.96,3.09-4.96s-4.43-1.07-3.18-3.77
	c1.24-2.69,4.15-0.68,4.15-0.68l1.23,1.57c0,0,0.21-5.79,3.02-2.93c2.81,2.86-0.3,3.77-0.3,3.77s2.61-1.51,3.07,0.75
	s-1.85,2.75-1.85,2.75L163.79,209.97z"/>
<path class="st12" d="M165.45,255.65c0,0,10.13,3.84,7.88-8.85l0.05-0.25c0,0,1.19-6.43,0.58-10.82s-1.53-0.16-1.53-0.16l-0.85,4.98
	c-1.58,2.89-1.59,0.24-1.59,0.24s1.59-7.87,0.24-4.57c-1.35,3.3-2.43,3.57-2.43,3.57c-2.55,1.11,0.61-3.08,0.61-3.08
	c1.75-3.21-2.47,0.23-2.47,0.23c-3.69,4.61-3.49,0-3.49,0s1.66-3.47,6.2-4.07c4.54-0.6-2.67-3.52-2.67-3.52
	c-5.36,0.08-4.55-0.57-4.55-0.57s-0.79-3.05,4.24-1.86c5.03,1.19,0.48-2.14,0.48-2.14s-3.76,0.35-4.18-2.06s5.78,0.24,5.78,0.24
	c4.93,3.75,0.13-2.41,0.13-2.41s-4.82-5.83-8.31-3.71c-3.49,2.12-4.39,1.89-4.39,1.89s-3.32,0.29-4.71,6.44
	c-1.39,6.14,0.28,8.43,0.28,8.43s3,4.26,7.3-0.73l0.16-0.19c0,0,8.92-1.61,1.33,1.5s-2.74,11.18-2.74,11.18s-3.42,11.81,8.43,10.28
	L165.45,255.65z"/>
<path class="st11" d="M144.36,104.35c0.08,0.01,0,0.16,0.01,0.25c0.1,2.87,1.57,6.82,1.57,6.82s0.9,3.2-0.91,1.23
	c0,0-2.7-4.12-4.04-3.87c-1.34,0.26-0.76,1.42-0.76,1.42l3.48,2.9c0,0,1.87,2.49-0.95,1.27c0,0-2.7-2.27-6.73-2.05
	c-4.03,0.22-1.35,2.53-1.35,2.53s4.33-1.11,6.03,0.71c0,0,2.58,1.09,0.66,2.03c0,0-1.54,0.2-2.15,0.13
	c-0.61-0.07-6.52,2.22-6.52,2.22s-2.47,2.9-4.9,1.92c-2.43-0.98-4.29-3.73-4.29-3.73s-2.65-4.51,0.08-8.17
	c1.49-2,1.9-3.32,1.97-4.12C125.54,105.85,128.62,102.12,144.36,104.35z"/>
<path class="st11" d="M148.55,105.15l-0.74,4.19c0,0-0.56,1.55-1.1-0.16c-0.43-1.36-0.86-3.59-1.02-4.45"/>
<path class="st11" d="M142.06,121.37c0,0-2.38,0.92,0.83,1.87l1.12-0.33c0,0,3.51-1.01,2.06,1.16c-1.44,2.18-3.93,4.39-3.93,4.39
	s-3.77,4.02-0.16,3.31c3.61-0.7,4.52-5.43,4.52-5.43s1.52-3.95,1.34,1.18c-0.18,5.12-0.54,5.65,0.49,6.16
	c1.03,0.51,1.43-4.65,1.43-4.65s-1.48-4.38-0.02-4.57c1.45-0.18,2.1,5.32,2.1,5.32l1.68,5.92c0,0,1.18,6.57-2.52,9.19
	s-4.12,1.99-6.88,0.15c0,0-4.79,4.19-9.84-2.38c-5.05-6.58-4.33-11.12-4.33-11.12s0.39-2.06,1.23-2.31c0.01,0,0.03-0.01,0.04-0.01
	l-0.12-0.25c0,0-2.04-4.24,1.43-6.69c3.47-2.46,5.59-2.66,5.59-2.66s6.47-1.46,7.59-0.21c1.11,1.24-3.5,1.91-3.5,1.91L142.06,121.37
	z"/>
<path class="st12" d="M152.29,105.59c-4.95,7.09-4.25,13.12-4.25,13.12s1.09,4.05,2.66,0.1c0,0-0.41-6.4,3.41-12.81"/>
<path class="st13" d="M150.87,105.39c2.05,0.36,4.12,0.76,6.17,1.18"/>
<path class="st13" d="M145.67,104.54c1.7,0.25,3.44,0.54,5.2,0.85"/>
<path class="st11" d="M116.91,174.29c0.92,0.7,1.66,1.3,1.66,1.3s2.77,1.12,0.82-0.98c-0.72-0.77-1.67-1.54-2.59-2.19"/>
<path class="st11" d="M115.49,160.16c1.05-1.73,2.68-4.8,2.68-4.8s-0.03-3.81,2.46-4.66c2.48-0.85,5.68,0.01,5.68,0.01
	s4.96,1.67,5.29,6.23s1.92,5.04,1.92,5.04s2.62,2.02-1.34,6.72c-3.96,4.7-11.92,2.22-11.92,2.22s-3.15-0.97-0.7,1.09
	c2.45,2.06,4.73,2.25,4.73,2.25s3.11-1.46,5.89,0.98s4.6,3.41,4.06,5.81c0,0-2.23,3.63-2.86,5.47c-0.63,1.84-2.82,2.72-2.82,2.72
	s-3.11,0.75-5.53,0.04c-2.42-0.7-2.74-1.29-2.74-1.29s-1.16,0.05-2.48-0.42"/>
<path class="st14" d="M115.98,165.89c1.28-0.33,3.06-1.04,4.65-2.58c2.91-2.81-0.63-2.79-0.63-2.79s-1.92,2.77-4.06,3.32"/>
<path class="st14" d="M116.54,169.56c1.15,0.15,2.3,0.15,2.67-0.32c0.84-1.07-0.36-1.57-0.36-1.57l-2.47,0.05"/>
<path class="st11" d="M112.57,144.71c0.05,0.07,0.07,0.1,0.07,0.1s1.05,1.82,0.58,2.55c-0.01,0.01-0.02,0.03-0.03,0.04l0.25,0.11
	c0,0,4.32,1.87,3.3,6c-0.56,2.28-1.26,3.77-1.78,4.64"/>
<path class="st11" d="M115.9,249.77c0.22,0.03,0.6-0.16,1.22-0.75c0,0,1.76-3.06,5.62-4.24c3.86-1.18,2.14,1.91,2.14,1.91
	s-4.45,0.45-5.42,2.74c0,0-2.05,1.91,0.08,2.13c0,0,1.52-0.34,2.07-0.62c0.55-0.28,6.89-0.16,6.89-0.16s3.32,1.87,5.27,0.12
	s2.75-4.98,2.75-4.98s0.94-5.14-2.88-7.65s-3.47-4.13-3.47-4.13s-0.5-3.27-6.52-2.09c-3.39,0.66-5.41,3.54-6.53,5.92"/>
<path class="st11" d="M135.76,263.16c-0.27-1.61-0.72-2.42-0.72-2.42s-1.08-1.8-1.95-1.74c-0.02,0-0.03,0-0.05,0l0.03-0.27
	c0,0,0.46-4.68-3.64-5.79s-6.16-0.57-6.16-0.57s-6.58,0.86-7.2,2.41s3.94,0.59,3.94,0.59l0.17-0.01c0,0,2.55,0.04-0.14,2.04
	l-1.17,0.07c0,0-3.64,0.25-1.54,1.8c2.1,1.55,5.2,2.77,5.2,2.77s0.78,0.39,1.49,0.9"/>
<path class="st14" d="M116.91,174.29c0.92,0.7,1.66,1.3,1.66,1.3s2.77,1.12,0.82-0.98c-0.72-0.77-1.67-1.54-2.59-2.19"/>
<path class="st13" d="M157.04,106.57c12.8,2.6,24.72,5.9,24.72,5.9c0.04,0.76,28.78,25.71,24.4,44.83s5.43,101.82,5.43,101.82
	s-93.21,7.58-95.58,2.15c-2.37-5.43,3.02-36.14,3.02-36.14s-0.88-60.33-5.26-72.5c-4.38-12.17,4.21-44.83,14.57-48.45
	c3.29-1.15,9.88-0.73,17.35,0.37"/>
<path class="st2" d="M162.93,163.67c11.72,9.62,25.26,19.01,35.03,20.6l0.42,0.44l0.25,0.31c0,0,15.72,15.8,31.93,9.23l14.55-22.97
	c-0.98-17.46-21.98-24.93-21.98-24.93l-0.18-0.16c-11.92-10.53-39.02-16.56-39.02-16.56"/>
<path class="st7" d="M250.77,203.19c-2.54-1.63-5.64-3.44-8.1-4.84c-4.94-2.81-5.03-7.33-5.03-7.33l7.42-11.41
	c0,0,8.74-4.54,19.41,2.22c10.66,6.76,8.06,17.91,8.06,17.91l-0.04,0.19c1.6,6.09-4.73,8.65-4.73,8.65s-1.01,0.43-1.82,0.14
	l-0.15,0.23c-1.51,2.42-3.6,4.41-7.48,4.05l-0.16,0c-1.32,0.85-3.1,1.07-5.46-0.16c-7.07-3.71-2.16-9.37-2.16-9.37L250.77,203.19z"
	/>
<path class="st10" d="M258.16,213.01c2.64-1.7,3.47-5.89,3.47-5.89s0.65-5.03-8.21-13.14"/>
<path class="st10" d="M265.79,208.97c1.94-3.11,2.3-6.98,2.07-7.66c0,0-0.61-4.8-7.51-11.61"/>
<path class="st10" d="M263.43,184.87c0,0,6.3,7.49,8.78,14.21c0.11,0.3,0.2,0.59,0.28,0.88"/>
<path class="st2" d="M247.51,175.68l-11.65,18.39c-0.52,0.82-1.6,1.06-2.42,0.54l-0.81-0.51c-0.82-0.52-1.06-1.6-0.54-2.42
	l11.65-18.39c0.52-0.82,1.6-1.06,2.42-0.54l0.81,0.51C247.79,173.78,248.03,174.86,247.51,175.68z"/>
<path class="st5" d="M155.1,107.63c0,0-26.03-5.13-30.45,23.1c0,0-3.97,15.62,18.04,25.96l19.4,12.77
	c-1.97-1.67,15.16-35.73,27.15-42.99C189.24,126.47,160.73,106.15,155.1,107.63z"/>
<path class="st5" d="M130.28,104.04c-1.18,0.48,1.11-2.97,1.11-2.97s-0.46-3.71,0.89-7.92s16.1-0.05,16.1-0.05
	s39.46,13.42,35.35,17.33l-4.42,6.29c0,0-0.23,1.18-3.67-1.4C172.2,112.75,141.83,99.36,130.28,104.04z"/>
<path class="st12" d="M186.5,124.32c-3.62-0.51-7.28-0.44-7.28-0.44l-0.26,0.01c-12.17-4.28-10.01,6.34-10.01,6.34l-0.02,0.22
	c-2.94,9.84,5.66,10.14,8.13,10.03c0,0,7.49-10.23,10.75-12.37c1.3-0.85-3.46,0.05-3.46,0.05s-2.6-0.43,0.5-1.53l4.48-0.03
	L186.5,124.32z"/>
<path class="st7" d="M189.85,91.42l3.56-16.19l0-0.07l2.84-12.82c0.21-0.96,0.31-1.92,0.34-2.89l0.06-0.89
	c0,0,0.02-27.37-28.31-33.37l0.16,0.03c-28.32-5.99-39.82,18.95-39.82,18.95l-0.15,0.39c-0.46,1.03-0.83,2.09-1.07,3.21l-2.84,12.89
	l-3.56,16.19"/>
<path class="st7" d="M153.91,91.2c-20.01-4.51-28.03-7.87-31.4-9.45c-2.7-1.26-1.91-2.75-1.91-2.75l0.47-2.13
	c0,0,11.35,5.42,33.48,9.88l0.66,0.14c22.04,4.89,34.65,4.54,34.65,4.54l-0.47,2.13c0,0,0.09,1.68-2.9,1.74
	c-3.74,0.07-12.45-0.11-32.58-4.09"/>
<path class="st7" d="M189.12,35.77c1.02-0.64,0.01-1.67,0.01-1.67c-14.55,0.65-26.4,8.28-28.4,19.45l-2.42,13.5
	c0,0,1.52,11.12,34.26,17.36c0,0,0.79-1.33,0.1-2.12"/>
<path class="st15" d="M191.04,82.02c-30.33-5.79-30.46-15.86-30.46-15.86l2.24-12.5c1.88-10.49,12.56-17.46,26.29-17.9l0.43,0.24
	c7,9.51,7.33,20.38,7.33,20.38l-0.03,0.92c0,1-0.07,2.01-0.25,3.01l-2.43,13.43l0.01,0.07l-1.52,8.46L191.04,82.02z"/>
<path class="st16" d="M248.49,216.13L343.35,147c2.03-1.48,4.81,0.06,4.78,2.64l-2.6,217.87c-0.02,1.73-1.36,3.12-3.01,3.14
	l-57.54,0.64c-1.73,0.02-3.12-1.46-3.07-3.26c0.43-15.97,0.95-85.9-21.24-116.95c-0.36-0.51-0.87-0.88-1.44-1.09l-10.58-3.87
	c-1.25-0.46-2.07-1.7-2.04-3.08l0.58-24.39C247.21,217.65,247.7,216.71,248.49,216.13z"/>
<path class="st17" d="M144.43,72.42l-5.85-1.77c-4.79-1.45-7.5-6.51-6.05-11.31l3.71-12.26c1.45-4.79,6.51-7.5,11.31-6.05l5.85,1.77
	c4.79,1.45,7.5,6.51,6.05,11.31l-3.71,12.26C154.28,71.16,149.22,73.87,144.43,72.42z"/>
<path class="st17" d="M153.39,42.8c0,0,11.36-10.45,19.4-16.77l-4.28-0.79c-8.3,0.93-20.97,15.79-20.97,15.79"/>
</svg>
