<?xml version="1.0" encoding="utf-8"?>
<!-- Generator: Adobe Illustrator 27.1.1, SVG Export Plug-In . SVG Version: 6.00 Build 0)  -->
<svg version="1.1" id="Layer_1" xmlns="http://www.w3.org/2000/svg" xmlns:xlink="http://www.w3.org/1999/xlink" x="0px" y="0px"
	 viewBox="0 0 792 864" style="enable-background:new 0 0 792 864;" xml:space="preserve">
<style type="text/css">
	.st0{fill:#D97F3D;}
	.st1{fill:#EFE8CC;stroke:#B1AE9C;stroke-width:4;stroke-linecap:round;stroke-linejoin:round;stroke-miterlimit:10;}
	.st2{fill:#B1AE9C;stroke:#9B9989;stroke-miterlimit:10;}
	.st3{fill:#2B190D;stroke:#A8A694;stroke-width:4;stroke-miterlimit:10;}
	.st4{fill:#2B190D;stroke:#000000;stroke-width:2;stroke-miterlimit:10;}
	.st5{fill:#D23C27;stroke:#A53A23;stroke-width:3;stroke-linecap:round;stroke-linejoin:round;stroke-miterlimit:10;}
	.st6{fill:#BC7B44;stroke:#895A2E;stroke-miterlimit:10;}
	.st7{fill:none;stroke:#B1AE9B;stroke-width:0.75;stroke-miterlimit:10;}
	.st8{fill:#DC7038;stroke:#AA5626;stroke-width:0.75;stroke-miterlimit:10;}
	.st9{fill:#D23C27;stroke:#A53A23;stroke-width:0.75;stroke-miterlimit:10;}
	.st10{fill:#EFE8CC;stroke:#B5956A;stroke-width:0.75;stroke-miterlimit:10;}
	.st11{fill:#EFE8CC;stroke:#B5956A;stroke-width:0.75;stroke-linecap:round;stroke-linejoin:round;stroke-miterlimit:10;}
	.st12{fill:none;stroke:#3D52A4;stroke-width:0.75;stroke-linecap:round;stroke-linejoin:round;stroke-miterlimit:10;}
	.st13{fill:none;stroke:#AA5517;stroke-width:0.75;stroke-miterlimit:10;}
	.st14{fill:none;stroke:#B5956A;stroke-width:0.75;stroke-miterlimit:10;}
	.st15{fill:none;stroke:#B5956A;stroke-width:0.75;stroke-linecap:round;stroke-linejoin:round;stroke-miterlimit:10;}
	.st16{fill:#EFE8CC;stroke:#EFE8CC;stroke-width:0.75;stroke-miterlimit:10;}
	.st17{fill:none;stroke:#A8A694;stroke-width:0.75;stroke-miterlimit:10;}
	.st18{fill:none;stroke:#A5391D;stroke-width:0.75;stroke-miterlimit:10;}
	.st19{fill:none;stroke:#82C341;stroke-width:0.75;stroke-linecap:round;stroke-linejoin:round;stroke-miterlimit:10;}
	.st20{fill:#EFE8CC;stroke:#B1AE9C;stroke-width:0.75;stroke-miterlimit:10;}
	.st21{fill:#DC7038;stroke:#A5391D;stroke-width:0.75;stroke-miterlimit:10;}
	.st22{fill:#2B190D;}
	.st23{fill:none;stroke:#984D23;stroke-width:5;stroke-miterlimit:10;}
</style>
<path class="st0" d="M58.57,857.59h672.09c23.24,0,42.07-18.84,42.07-42.07V48.56c0-23.24-18.84-42.07-42.07-42.07H58.57
	c-23.24,0-42.07,18.84-42.07,42.07v766.96C16.49,838.76,35.33,857.59,58.57,857.59z"/>
<path class="st1" d="M151.76,315.43C17.4,566.71,211.47,687.36,211.47,687.36l92.38-27.26c0,0,97.47-206.68-151.77-344.76"/>
<circle class="st2" cx="204.54" cy="562.93" r="54.24"/>
<circle class="st3" cx="204.33" cy="562.21" r="41.5"/>
<polyline class="st4" points="212.09,687.18 205.97,732.58 334.11,694.77 304.31,659.97 "/>
<path class="st5" d="M104.32,564.45c0,0-55.61,104.34,31.35,208.11l26.93-60.07c-36.17-38.77-55.4-88.89-58.54-147.03"/>
<path class="st5" d="M287.9,440.28c0,0,103.35,57.44,86.66,191.79l-55.23-35.83c9.33-52.19-1.73-104.73-30.66-155.26"/>
<path class="st6" d="M17.44,571.73c0,0,98.04-52.44,170.04-23.14c72,29.31,94.98,50.9,128.68,46.27s78.13-37.02,116.43-38.56
	s41.36,32.39,99.57,41.65c58.21,9.25,116.43-18.51,131.74-30.85c15.32-12.34,104.17,4.63,104.17,4.63l3.06,232.91
	c0,0,7.66,43.19-29.11,49.36c-36.77,6.17-675.57,1.54-675.57,1.54s-53.68,15.67-49.02-61.7C21.92,719.36,15.64,573.22,17.44,571.73z
	"/>
<path class="st7" d="M644.53,792.45"/>
<path class="st7" d="M645.31,793.92"/>
<path class="st7" d="M644.53,792.45"/>
<path class="st8" d="M479.71,685.83c0,0,16.98,17.36,9.03,35.1l-26.15,15.82c-19.4-1.19-26.9-24.29-26.9-24.29l-0.17-0.19
	c-11.25-13.15-16.91-42.93-16.91-42.93c38.51-0.65,46.88-9.63,46.88-9.63c7.4,8.21,14.2,17.97,13.86,25.85L479.71,685.83"/>
<path class="st8" d="M609.75,685.83c0,0-16.98,17.36-9.03,35.1l26.15,15.82c19.4-1.19,26.9-24.29,26.9-24.29l0.17-0.19
	c11.25-13.15,16.91-42.93,16.91-42.93c-38.51-0.65-46.88-9.63-46.88-9.63c-7.4,8.21-14.2,17.97-13.86,25.85L609.75,685.83"/>
<path class="st9" d="M475.01,715.32l0.33-29.29l-1.11,7.9c-12.81,5.8-59.46-19.13-55.72-25.2l32.89-59.78c0,0,3.16-9.11,17.23-13.38
	l40.4-10.11l5.83-1.34l-0.01,0.53c-0.01,1.49,0.15,3.51,0.85,5.42l5.3,19.6l0.02,0.12c0.27,0.86,1.07,1.45,1.97,1.45l1-0.23
	l19.78-10.11l1.61,1.32l1.61-1.32l19.81,10.1l0.06,0.03c0.3,0.16,0.58,0.21,0.92,0.21c0.9,0,1.69-0.55,1.96-1.4l0.01-0.04l5.3-19.6
	c0.64-1.75,0.82-3.6,0.84-5.04c0,0-0.19-0.6,0.85-0.58l3.92,0.9l40.4,10.11c14.07,4.27,17.23,13.38,17.23,13.38l32.89,59.78
	c3.74,6.08-42.9,31-55.72,25.2l-1.11-7.9l0.35,30.45"/>
<path class="st10" d="M527.07,655.52c0,0,1.12,4.04,1.65,0s-0.82-6.62-0.82-6.62s-3.7-2.33-2.99-7s0.51-7.28,3.45-8.35
	c0,0,5.43-0.09,7.84-0.68s4.85,1.17,4.85,1.17s2.94,2.83,3.84,5.91c0.9,3.08,0.5,3.83,0.5,3.83s3.18,4.51,0.09,8.55
	c0,0-0.85,1.93-4.57,3.5c0,0-3.03,2.24-3.33,3.14c-0.3,0.9-0.54,0.64-0.54,0.64s-0.51-2.11,0.4-3.47c0.92-1.35-0.59-0.61-0.59-0.61
	l-2.74,5.47c0,0-1.24,1.7-1.29-0.59c-0.05-2.29,0.42-6.27,0.42-6.27s-0.7-3.75-1.62-0.2c-0.92,3.55-0.56,8.9-0.56,8.9
	s-0.06,4.23-1.56,1.17c0,0-1.8-6.02-3.53-6.19c-1.73-0.17-1.45,1.46-1.45,1.46l3.2,4.81c0,0,1.38,3.72-1.62,1.21
	c0,0-2.47-3.75-7.48-4.95c-5.01-1.2-2.57,2.6-2.57,2.6s5.69,0.22,7.11,3.06c0,0,2.75,2.27,0.06,2.72c0,0-1.96-0.31-2.67-0.62
	c-0.72-0.31-8.77,0.34-8.77,0.34s-4.07,2.64-6.69,0.56c-2.61-2.08-3.89-6.11-3.89-6.11s-1.6-6.47,3.06-9.95
	c4.67-3.48,4.09-5.52,4.09-5.52s0.37-4.2,8.13-3.17C524.27,645.28,527.07,655.52,527.07,655.52z"/>
<path class="st10" d="M522.73,673.59c0,0-3.24,0.26,0.34,2.59h1.49c0,0,4.65,0.04,2.1,2.17c-2.55,2.13-6.39,3.93-6.39,3.93
	s-6.06,3.53-1.4,3.99c4.67,0.45,7.49-4.99,7.49-4.99s3.29-4.27,1.21,1.92c-2.08,6.19-2.71,6.71-1.63,7.7
	c1.07,0.99,3.43-5.16,3.43-5.16s-0.21-5.89,1.63-5.59c1.84,0.3,0.63,7.27,0.63,7.27l-0.09,7.84c0,0-0.94,8.46-6.41,10.31
	c-5.47,1.85-5.75,0.93-8.46-2.32c0,0-7.37,3.38-11.15-6.48s-1.25-15.15-1.25-15.15s1.23-2.38,2.34-2.37c0.02,0,0.04,0,0.06,0
	l-0.06-0.35c0,0-0.96-5.92,4.18-7.65c5.13-1.74,7.79-1.21,7.79-1.21s8.43,0.57,9.34,2.5s-4.97,1.06-4.97,1.06H522.73z"/>
<path class="st11" d="M553.43,651.28c-19.97,7.14-22.44,21.23-22.44,21.23s-0.14,5.34,3.22,1.08c0,0,3.73-16.25,20.9-21.1
	c0,0-2.8,6.3,1.87,6.3c0,0,2.38,1.12,1.82-4.76c0,0,2.47,6.67,5.32,3.27c2.85-3.41-2.89-6.86-2.89-6.86s5.78-0.47,4.76-4.11
	c-1.03-3.64-5.09-1.68-5.09-1.68l-1.87,1.73c0,0,0.89-7.32-3.22-4.29c-4.11,3.03-0.37,4.81-0.37,4.81s-2.99-2.43-4.01,0.33
	c-1.03,2.75,1.77,3.83,1.77,3.83L553.43,651.28z"/>
<path class="st11" d="M543.37,708.55c0,0-13.16,4.2-9.42-11.8l-0.05-0.33c0,0-1.07-8.26,0-13.81c1.07-5.55,1.96-0.09,1.96-0.09
	l0.75,6.39c1.82,3.78,2.01,0.42,2.01,0.42s-1.49-10.12,0-5.83c1.49,4.29,2.85,4.71,2.85,4.71c3.17,1.59-0.56-3.97-0.56-3.97
	c-2.01-4.2,3.13,0.47,3.13,0.47c4.39,6.11,4.44,0.23,4.44,0.23s-1.88-4.53-7.62-5.6c-5.74-1.07,3.64-4.29,3.64-4.29
	c6.81,0.47,5.83-0.42,5.83-0.42s1.21-3.83-5.27-2.66c-6.48,1.17-0.47-2.75-0.47-2.75s4.76,0.7,5.46-2.33
	c0.7-3.03-7.37-0.09-7.37-0.09c-6.53,4.43,0-3.08,0-3.08s6.53-7.09,10.82-4.15c4.29,2.94,5.46,2.71,5.46,2.71s4.2,0.6,5.55,8.51
	c1.35,7.91-0.93,10.71-0.93,10.71s-4.11,5.22-9.24-1.42l-0.19-0.26c0,0-11.25-2.66-1.8,1.82s2.73,14.42,2.73,14.42
	s3.55,15.26-11.43,12.5H543.37z"/>
<path class="st10" d="M624.2,600.42c0,0-6.29,5.08-7.05,5.22c-0.77,0.15-2.56,0.99-2.56,0.99c-1.97,1.89,1.58,2.21,1.58,2.21
	c2.77,1.55,7.6-1.47,7.6-1.47S624.89,608.07,624.2,600.42z"/>
<path class="st10" d="M600.42,590.51c-0.24,1.66,0.43,5.69,0.43,5.69s3.49,4.75,1.8,5.54c-1.69,0.79-4.61-5.65-4.61-5.65l-4.34-6.53
	c0,0-0.15-0.29-0.37-0.78L600.42,590.51z"/>
<path class="st8" d="M490.64,726.43l-23.93,14.48c-1,0.61-2.3,0.28-2.91-0.72l-0.75-1.24c-0.61-1-0.28-2.3,0.72-2.91l23.93-14.48
	c1-0.61,2.3-0.28,2.91,0.72l0.75,1.24C491.97,724.52,491.64,725.83,490.64,726.43z"/>
<path class="st10" d="M606.78,592.1c-1.41,2.64-1.02,5.91-1.02,5.91s-0.31,5.38-2.09-0.91c-0.98-3.48-1.05-5.19-1.42-6.14
	L606.78,592.1z"/>
<path class="st10" d="M624.67,596.96c0.21,0.09-0.24,0.38-0.39,0.57c-3.26,4.33-5.75,5.39-5.75,5.39s-7.29,4.28-9.13,3.2
	s3.51-3.68,3.51-3.68l0.18-0.12c0,0,2.53-2.04-1.74-1.95l-1.23,0.84c0,0-3.86,2.59-2.96-0.61s3.07-6.85,3.07-6.85
	s0.14-0.29,0.31-0.71C610.54,593.04,620.89,595.34,624.67,596.96z"/>
<path class="st10" d="M590.12,587.93c0.22,0.49,0.44,1.02,0.66,1.58l0.22,0.24c0,0,5.54,6.22,7.78,11.41
	c2.24,5.19-1.57,1.18-1.57,1.18l-4.22-4.86c-3.63-2.1-1.89,0.78-1.89,0.78s6.94,7.52,3.28,4.82c-3.65-2.71-5.01-2.29-5.01-2.29
	c-3.51,0.48,2.7,2.96,2.7,2.96c4.02,2.34-2.85,1.38-2.85,1.38c-7.07-2.58-3.8,2.31-3.8,2.31s4.1,2.68,9.45,0.34s-0.59,5.6-0.59,5.6
	c-5.89,3.45-4.58,3.63-4.58,3.63s1.15,3.84,5.85-0.77c4.7-4.62,1.94,2.01,1.94,2.01s-4.33,2.1-3.2,5c1.13,2.9,6.14-4.08,6.14-4.08
	c2.9-7.34,1.73,2.54,1.73,2.54s-1.4,9.54-6.6,9.53s-6.03,0.84-6.03,0.84s-3.81,1.87-9.38-3.9s-5.26-9.38-5.26-9.38
	s0.45-6.63,8.43-4.03l0.3,0.11c0,0,10.79-4.14,0.46-2.52c-10.33,1.62-10.38-10.37-10.38-10.37s-0.64-0.59-1.43-1.56l3.37-12.5
	c0,0,0.33-2.64,0.25-3.1c-0.08-0.47,1.26,0,1.26,0l6.72,1.54l4.34,1.09L590.12,587.93z"/>
<path class="st12" d="M592.14,589.97"/>
<path class="st13" d="M435.47,712.29c3.64,4.25,7.86,6.77,12.67,5.97"/>
<path class="st14" d="M497.44,776.26"/>
<path class="st11" d="M614.38,697.18c-0.56,0.33-0.94,0.59-1.04,0.72c-0.45,0.63-1.97,1.91-1.97,1.91c-2.54,1-1.35-2.37-1.35-2.37
	c-0.22-2.77,3.41-5.51,4.32-6.14L614.38,697.18z"/>
<path class="st15" d="M565.82,690.82"/>
<path class="st11" d="M615.67,675.73c-2.23-0.81-2.51-1.84-2.51-1.84s-2.48-3.41-8.61,1.46c-6.13,4.87-3.26,15.1-3.26,15.1
	s1.12,4.04-1.41,0.85c-2.53-3.2-2.7-6.11-2.7-6.11s1.97-3.9-1.04-7.54c-3.01-3.63-4.18-5.98-7.25-5.39c0,0-4.7,2.71-7.07,3.44
	c-2.37,0.73-3.56,3.5-3.56,3.5s-1.07,3.94-0.26,7.04c0.81,3.1,1.54,3.54,1.54,3.54s-0.41,5.5,4.32,7.38c0,0,1.72,1.22,5.72,0.65
	c0,0,3.75,0.36,4.47,0.98c0.72,0.62,0.79,0.27,0.79,0.27s-0.65-2.08-2.13-2.77c-1.48-0.69,0.19-0.82,0.19-0.82l5.16,3.29
	c0,0,1.94,0.81,0.8-1.17c-1.14-1.98-3.58-5.16-3.58-5.16s-1.33-3.57,1.28-1.01c2.61,2.57,5.05,7.34,5.05,7.34s2.23,3.6,1.93,0.2
	c0,0-1.55-6.09-0.15-7.12c1.39-1.03,1.99,0.51,1.99,0.51l-0.28,5.77c0,0,0.72,3.9,2.01,0.21c0,0,0.19-4.49,3.87-8.09
	c2.17-2.13,3.01-1.43,3.34-0.49L615.67,675.73z"/>
<path class="st14" d="M614.74,717.31c-0.58-1-2.9-4.77-4.14-3.71c-1.42,1.21,3.2,6.56,3.2,6.56l0.9,1.47"/>
<path class="st11" d="M614.7,714.09c-3.4-3-1.11-2.45-0.02-2.09L614.7,714.09z"/>
<path class="st11" d="M614.65,709.97c-0.43-0.04-0.85-0.09-1.26-0.15c-3.29-0.52,0.69-2.94,0.69-2.94l0.46-0.28L614.65,709.97"/>
<path class="st11" d="M614.58,703.68c0,0-5.05,3.91-5.26,1.79c-0.15-1.48,3.19-4.28,5.22-5.83L614.58,703.68z"/>
<path class="st11" d="M576.51,700.36c20.79-4.15,30.16,6.67,30.16,6.67s2.87,4.51-2.2,2.59c0,0-11.55-12.02-28.77-7.35
	c0,0,5.64,3.96,1.64,6.36c0,0-1.46,2.18-4.01-3.15c0,0,1.31,6.99-2.88,5.54s-1.05-7.37-1.05-7.37s-5.2,2.57-6.19-1.07
	c-0.99-3.65,3.5-4.06,3.5-4.06l2.49,0.52c0,0-4.53-5.83,0.55-5.34c5.08,0.49,2.79,3.93,2.79,3.93s1.31-3.62,3.61-1.78
	c2.3,1.83,0.45,4.19,0.45,4.19"/>
<path class="st15" d="M476,727.62c0.56-0.3,0.95-0.46,0.95-0.46s-0.43-0.11-1.02-0.33"/>
<path class="st12" d="M616.75,727.92"/>
<path class="st14" d="M574.58,775.48"/>
<path class="st11" d="M465.65,609.21c0.25-0.01,0.41-0.01,0.41-0.01c2.08-0.81,0.35-2.07-0.35-2.5L465.65,609.21z"/>
<path class="st11" d="M465.58,603.51c1.59,0.86,2.47,1.74,2.47,1.74c3.45,1.84,1.34-1.52,1.34-1.52l-3.81-3.76L465.58,603.51z"/>
<path class="st11" d="M471.2,595.3c0.27,3.21,1.19,6.54,1.19,6.54s0.79,4.16-1.29,1.46c0,0-2.98-5.53-4.71-5.35
	c-0.37,0.04-0.64,0.14-0.82,0.28v-1.05L471.2,595.3z"/>
<path class="st11" d="M476.4,594.23l-1.38,5.2c0,0-0.88,1.91-1.38-0.32c-0.27-1.21-0.5-2.93-0.65-4.26L476.4,594.23z"/>
<path class="st11" d="M480.88,592.98c0,0-2.52,2.81-2.62,3.75c-0.11,0.94-0.4,0.73-0.4,0.73s-0.93-1.97-0.31-3.48
	c0.04-0.09,0.06-0.16,0.09-0.23L480.88,592.98z"/>
<path class="st14" d="M468.1,596.35c0.48,0.74,1.2,1.57,1.24-0.14"/>
<path class="st11" d="M470.03,623.98c1.05-1.58,1.48-3.12,1.48-3.12s2.36-4.85,1.58,1.64c-0.78,6.49-1.29,7.11-0.04,7.87
	c1.25,0.75,2.32-5.74,2.32-5.74s-1.4-5.73,0.47-5.8c1.87-0.08,2.09,6.99,2.09,6.99l1.49,7.69c0,0,0.78,8.47-4.2,11.39
	c-1.17,0.68-1.82,1.16-2.58,1.46l-0.11-5.56c0,0,0.01-7.59-0.77-9.18l-0.77-3.73L470.03,623.98z"/>
<path class="st11" d="M469.02,620.29c0.77-0.73,1.55-1.54,2.2-2.36c2.07-2.61-2.49-1.7-2.49-1.7l-1,0.21L469.02,620.29z"/>
<path class="st11" d="M466.92,614.02c0,0,5.93-0.34,4.65-2.04c-0.66-0.88-3.24-1-5.57-0.91L466.92,614.02z"/>
<path class="st11" d="M487.51,591.22c-9.61,8.65-9.87,20.52-9.87,20.52c-2.43,4.85-3.37-0.41-3.37-0.41s-0.29-9.66,9.65-19.22
	L487.51,591.22z"/>
<path class="st14" d="M481,633.52"/>
<path class="st14" d="M466.41,612.64c-1.08,0.14-2.23,0.01-3.18-0.75c-2.61-2.08-3.89-6.11-3.89-6.11s-0.58-2.36-0.02-5"/>
<polygon class="st16" points="584.57,572.6 505.56,572.6 505.75,547.54 584.76,547.54 "/>
<path class="st11" d="M472.52,646.66c-2.48,0.21-6.45-0.61-8.9-7.02c-3.78-9.87-1.25-15.15-1.25-15.15s1.23-2.38,2.34-2.37
	c0.02,0,0.04,0,0.06,0l0.05-0.21c0,0-0.83-4.57,2.4-6.94c0,0,2.46,6.29,4.73,17.23l0.57,5.6c0,0,0.06,2.59-0.12,3.54
	C472.24,642.31,472.52,646.66,472.52,646.66z"/>
<path class="st11" d="M475.7,683.89c-3.4-0.85-5.74,2.03-8.11,3.91c-2.86,2.28-6.45,2.82-9.57,4.59c0,0,8.06,3.65,17.26,1.65
	l1.01-8.67L475.7,683.89z"/>
<path class="st11" d="M469.17,675.17c0,0,3.47,5.3-0.49,8.99s-6.61,4.3-6.61,4.3s-7.93,2.93-9.54,1.55c-1.62-1.38,4.1-3,4.1-3
	l0.2-0.09c0,0,2.85-1.56-1.37-2.22l-1.36,0.61c0,0-4.26,1.88-2.8-1.12c1.46-2.99,4.22-6.2,4.22-6.2s4.08-5.71-0.36-4.21
	s-4.78,7.62-4.78,7.62s-1.25,5.24-1.9-1.26s-0.28-7.23-1.67-7.69s-1.01,6.11-1.01,6.11s2.61,5.29,0.8,5.77
	c-1.81,0.48-3.55-6.37-3.55-6.37l-3.13-7.19c0,0-2.6-8.1,1.63-12.03c4.23-3.93,4.86-3.21,8.66-1.35c0,0,5.34-6.11,12.83,1.35
	s7.35,13.31,7.35,13.31s-0.15,2.67-1.17,3.12c-0.02,0.01-0.04,0.02-0.05,0.02"/>
<path class="st14" d="M438.35,671.09"/>
<path class="st11" d="M651.51,633.03c-0.04,1.01,0.24,1.48-0.09,2.75c-2.68,10.22-7.82,13.04-7.82,13.04s-2.38,1.22-3.29,0.56
	c-0.02-0.01-0.03-0.02-0.05-0.04l-0.17,0.29c0,0-2.66,5.39-7.84,3.82s-7.04-3.55-7.04-3.55s-6.52-5.38-6.14-7.47
	c0.38-2.09,4.66,2.03,4.66,2.03l0.18,0.13c0,0,2.78,1.68,1.23-2.3l-1.21-0.87c0,0-3.76-2.74-0.44-2.99s7.48,0.53,7.48,0.53
	s6.99,0.66,3.46-2.43s-8.99-0.31-8.99-0.31s-5.16,1.55,0.14-2.27c5.3-3.82,6.11-3.87,5.81-5.3c-0.29-1.43-5.79,2.19-5.79,2.19
	s-3.26,4.91-4.58,3.59c-1.32-1.32,3.72-6.27,3.72-6.27l4.64-6.31c0,0,5.7-6.32,11.22-4.64c1.9,0.58,2.26,1.25,3.04,1.82
	L651.51,633.03z"/>
<path class="st12" d="M628.33,620.66"/>
<path class="st11" d="M626.56,694.31c-0.19,0.03-1.66,0.16-1.83,0.19c0.57-1.66,2.52-5.13,2.74-6.84c0.32-2.46,2.83-4.11,2.83-4.11
	s3.7-1.72,6.9-1.46c3.2,0.27,3.75,0.91,3.75,0.91s5.34-1.34,8,2.98C648.95,685.98,636.99,692.67,626.56,694.31z"/>
<path class="st11" d="M652.59,684.4c-0.18-1.89-0.17-3.8,0-5.69c1.5,1.45,5.14,3.87,6.48,0.81c0.99-2.28-2.01-3.24-3.72-3.69
	c2.19,0,7.55-1.24,4.69-4.52c-1.76-2.02-5.45-0.28-7.17,0.96c0.51-1.96,0.6-5.58-1.99-6.03c-4.19-0.73-3.51,4.35-2.59,6.62
	c-1.67-0.88-4.98-2.36-5.48,0.51c-0.42,2.4,2.66,4.89,4.67,3.02c-3.79,2.13,0.32,6.48,3.07,3.58l0.3-0.13
	c-0.04,1.77,0,3.54,0.14,5.31L652.59,684.4z"/>
<path class="st17" d="M585.23,548"/>
<line class="st17" x1="505.54" y1="569.11" x2="505.54" y2="548"/>
<path class="st18" d="M517.76,576.81l-2.84,5.91c0,0,0.01,0.42-0.03,1.1"/>
<path class="st18" d="M543.78,600.89"/>
<path class="st18" d="M523,609.17"/>
<path class="st18" d="M548.09,600.89"/>
<path class="st19" d="M476.4,686.14"/>
<path class="st18" d="M472.52,648.45c0,0-7.46-5.44-9.78-12.96"/>
<path class="st18" d="M473.34,660.16c0,0-4.18,0.18-4.89,6.99"/>
<path class="st20" d="M584.76,526.37c0,0-6.65-34.13-39.47-34.13h0.19c-32.82,0-39.47,34.13-39.47,34.13"/>
<path class="st20" d="M545.14,561.54c37.77-0.45,40.1-13.54,40.1-13.54v-16.82c0-17.14-17.74-31.04-39.61-31.04h-0.47
	c-21.88,0-39.61,13.9-39.61,31.04V548c0,0,2.33,13.09,40.1,13.54"/>
<path class="st21" d="M563.58,576.61c-2.83,7.12-8.36,17.86-17.93,25.39l-0.59-0.05c-9.56-7.52-15.06-18.23-17.88-25.34
	L563.58,576.61z"/>
<path class="st18" d="M572.91,576.61l2.84,5.91c0,0,0.11,1.36,0.15,2.31"/>
<path class="st9" d="M509.03,585.46"/>
<path class="st18" d="M543.78,600.89"/>
<path class="st18" d="M523,609.17"/>
<path class="st18" d="M548.09,600.89"/>
<path class="st9" d="M527.18,576.61c2.65,6.68,7.67,16.55,16.21,23.96l0.38,0.32L524,611l-1,0.23c-0.9,0-1.7-0.59-1.97-1.45
	l-0.02-0.12l-5.3-19.6c-0.7-1.91-0.85-3.93-0.85-5.42l0.01-0.53l0.03-0.3c0.04-0.68,0.03-1.1,0.03-1.1l2.84-5.91L527.18,576.61z"/>
<path class="st9" d="M572.91,576.61l2.84,5.91c0,0,0.11,1.36,0.15,2.31l0,0.31c-0.02,1.44-0.2,3.29-0.84,5.04l-5.3,19.6l-0.01,0.04
	c-0.27,0.86-1.06,1.4-1.96,1.4c-0.34,0-0.62-0.05-0.92-0.21l-0.06-0.03L547,600.89l0.45-0.39c9.57-7.53,13.3-16.78,16.13-23.9
	L572.91,576.61z"/>
<path class="st18" d="M567.78,609.17"/>
<path class="st18" d="M542.68,600.89"/>
<path class="st18" d="M523,609.17"/>
<path class="st18" d="M548.09,600.89"/>
<path class="st18" d="M567.78,609.17"/>
<path class="st18" d="M542.68,600.89"/>
<path class="st20" d="M545.38,578.31c23.25-0.35,32.95-2.42,37.06-3.5c3.3-0.86,2.79-2.93,2.79-2.93v-2.77
	c0,0-13.88,3.76-39.47,3.49h-0.76c-25.58,0.28-39.47-3.49-39.47-3.49v2.77c0,0-0.51,2.07,2.79,2.93c4.12,1.07,13.81,3.15,37.06,3.5"
	/>
<line class="st17" x1="585.23" y1="569.11" x2="585.23" y2="548"/>
<path class="st18" d="M547,600.89"/>
<path class="st18" d="M567.78,609.17"/>
<path class="st18" d="M542.68,600.89"/>
<path class="st19" d="M614.38,686.14"/>
<path class="st18" d="M618.25,648.45c0,0,7.46-5.44,9.78-12.96"/>
<path class="st18" d="M617.43,660.16c0,0,4.18,0.18,4.89,6.99"/>
<path class="st19" d="M546.48,795.25"/>
<path class="st17" d="M545.89,510.49"/>
<path class="st12" d="M592.14,589.97"/>
<path class="st14" d="M497.44,776.26"/>
<path class="st11" d="M614.7,721.62l-0.9-1.47c0,0-4.62-5.35-3.2-6.56c1.24-1.05,3.56,2.72,4.14,3.71L614.7,721.62z"/>
<path class="st19" d="M544.3,795.25"/>
<path class="st14" d="M574.58,775.48"/>
<line class="st18" x1="545.26" y1="602.1" x2="543.84" y2="702.1"/>
<path class="st14" d="M481,633.52"/>
<path class="st11" d="M466.41,612.64c-1.08,0.14-2.23,0.01-3.18-0.75c-2.61-2.08-3.89-6.11-3.89-6.11s-0.58-2.36-0.02-5l3.83-2.43
	l2.51-1.2l-0.07,12.97L466.41,612.64z"/>
<path class="st14" d="M438.35,671.09"/>
<path class="st12" d="M628.33,620.66"/>
<path class="st18" d="M543.78,600.89"/>
<path class="st18" d="M523,609.17"/>
<path class="st18" d="M465.58,597.18v12.86c0,0,7.65,19.52,6.88,30.08s3.94,45.63,3.94,45.63"/>
<path class="st18" d="M548.09,600.89"/>
<path class="st19" d="M476.4,686.14"/>
<path class="st7" d="M443.68,792.45"/>
<path class="st7" d="M442.9,793.92"/>
<path class="st7" d="M443.68,792.45"/>
<path class="st7" d="M442.9,793.92"/>
<path class="st13" d="M465.2,728.07c2.15-0.86,3.8-2.29,5.04-4.15"/>
<path class="st13" d="M624.5,728.07c-2.15-0.86-3.8-2.29-5.04-4.15"/>
<path class="st13" d="M459.97,759.04"/>
<path class="st18" d="M547,600.89"/>
<path class="st18" d="M567.78,609.17"/>
<path class="st18" d="M542.68,600.89"/>
<path class="st19" d="M614.38,686.14"/>
<path class="st19" d="M546.48,795.25"/>
<path class="st17" d="M545.89,510.49"/>
<path class="st19" d="M544.3,795.25"/>
<path class="st14" d="M615.42,777.96"/>
<path class="st11" d="M438.76,684.38c-1.21-1.81-4.07-5.34-2.68-6.53c1.43-1.22,3.3,3.03,3.82,3.95c0.68,1.19,2.83,5.29,3.14,2.16
	c0.43-4.32-3.65-9.82-5.77-13.29l-0.18-0.28c-3.15-16.13-14.3-7.43-14.3-7.43l-3.04,5.53c0,0-1.12,1.24,0.29,2.96
	s2.31,3.03,7.15,6.37C432.04,681.17,438.76,684.38,438.76,684.38z"/>
<path class="st11" d="M600.2,638.05c12.63-17.03,6.86-30.12,6.86-30.12s-2.85-4.52-3.28,0.89c0,0,5.93,15.58-5.65,29.16
	c0,0-1.17-6.79-5.05-4.2c0,0-2.6,0.39,1.13,4.97c0,0-5.76-4.17-6.24,0.24c-0.47,4.41,6.22,4.09,6.22,4.09s-4.55,3.6-1.67,6.06
	c2.88,2.45,5.16-1.43,5.16-1.43l0.59-2.47c0,0,3.33,6.58,5.06,1.78c1.73-4.8-2.36-4.2-2.36-4.2s3.83,0.36,3.15-2.5
	c-0.68-2.86-3.6-2.2-3.6-2.2L600.2,638.05z"/>
<path class="st18" d="M475.65,719.33l0.74-33.58l-1.11,8.29c-12.81,5.8-60.51-19.24-56.77-25.32l32.89-59.78
	c0,0,3.16-9.11,17.23-13.38l40.4-10.11l5.83-1.34l-0.01,0.53c-0.01,1.49,0.15,3.51,0.85,5.42l5.3,19.6l0.02,0.12
	c0.27,0.86,1.07,1.45,1.97,1.45l1-0.23l19.78-10.11l1.61,1.32l1.61-1.32l19.81,10.1l0.06,0.03c0.3,0.16,0.58,0.21,0.92,0.21
	c0.9,0,1.69-0.55,1.96-1.4l0.01-0.04l5.3-19.6c0.64-1.75,0.82-3.6,0.84-5.04c0,0-0.19-0.6,0.85-0.58l3.92,0.9l40.4,10.11
	c14.07,4.27,17.23,13.38,17.23,13.38l32.89,59.78c3.74,6.08-42.9,31-55.72,25.2l-1.11-7.9l0.41,36.2"/>
<path class="st10" d="M625.2,610.43l-3.6,10.65c-1.2-0.77-1.91-1.38-1.91-1.38s-3.2-2.71-1.36,0.93c0.76,1.51,1.65,2.63,2.43,3.42
	c0,0-3.32,10.08-2.35,19.76l-0.01,0.54l-0.01,0.54c-1.38-0.41-3.26-1.13-4.66-2.27c-2.48-2.04-2.57-2.88-2.57-2.88
	s-5.17-1.93-4.89-7.02c0,0-0.38-2.07,1.8-5.46c0,0,1.24-3.56,0.98-4.47c-0.26-0.91,0.09-0.83,0.09-0.83s1.62,1.46,1.62,3.09
	c0,1.63,0.83,0.17,0.83,0.17l-0.82-6.06c0,0,0.07-2.1,1.4-0.24s3.18,5.41,3.18,5.41s2.69,2.7,1.45-0.74
	c-1.24-3.45-4.55-7.67-4.55-7.67s-2.33-3.53,0.63-1.84c0,0,4.88,3.96,6.4,3.13c1.52-0.83,0.37-2.02,0.37-2.02l-5.35-2.17
	c0,0-3.24-2.29,0.65-1.91c0,0,4.15,1.7,8.97-0.13c0.49-0.19,0.88-0.37,1.2-0.55"/>
<path class="st11" d="M495.96,641.74c0,0-11.95,6.93-11.74-9.5l-0.12-0.31c0,0-2.82-7.83-2.97-13.49c-0.14-5.65,1.89-0.51,1.89-0.51
	l2.1,6.08c2.59,3.3,2.05-0.02,2.05-0.02s-3.63-9.57-1.25-5.7c2.38,3.87,3.79,3.99,3.79,3.99c3.44,0.87-1.4-3.75-1.4-3.75
	c-2.86-3.67,3.15-0.22,3.15-0.22c5.6,5.03,4.39-0.73,4.39-0.73s-2.81-4.02-8.64-3.83c-5.83,0.18,2.63-4.97,2.63-4.97
	c6.75-1.01,5.61-1.66,5.61-1.66s0.36-4-5.72-1.46c-6.08,2.53-1.05-2.59-1.05-2.59s4.8-0.34,4.83-3.45s-7.22,1.49-7.22,1.49
	c-5.43,5.73-0.66-3.01-0.66-3.01s4.86-8.33,9.68-6.38c4.82,1.95,5.91,1.47,5.91,1.47s4.23-0.32,7.25,7.12
	c3.02,7.44,1.39,10.66,1.39,10.66s-2.89,5.98-9.33,0.59l-0.24-0.21c0,0-11.55-0.18-1.36,2.16c10.19,2.34,5.76,13.49,5.76,13.49
	s6.74,14.14-8.48,14.67L495.96,641.74z"/>
<g>
	<g>
		<path class="st22" d="M545.48,558.95c-34.99-0.42-37.15-12.55-37.15-12.55v-15.58c0-15.88,16.43-28.75,36.7-28.75
			c0.71,0,0.71,0,0.71,0c20.27,0,36.7,12.87,36.7,28.75v15.58c0,0-2.15,12.13-37.15,12.55"/>
	</g>
</g>
<path class="st18" d="M625.2,597.57v12.86c0,0-7.65,19.52-6.88,30.08c0.77,10.56-3.94,45.63-3.94,45.63"/>
<path class="st4" d="M613.87,733.98h-139.4c-9.73,0-17.62-7.89-17.62-17.62l0,0c0-9.73,7.89-17.62,17.62-17.62h139.4
	c9.73,0,17.62,7.89,17.62,17.62l0,0C631.48,726.09,623.6,733.98,613.87,733.98z"/>
<path class="st6" d="M385.87,742.32c0,0,47.11-47.68,72.96-29.3c25.85,18.38,21.83,42.51,63.19,39.06
	c41.36-3.45,74.11-37.91,117.19-35.04c43.09,2.87,47.68,16.09,72.38,27"/>
<path class="st23" d="M58.57,857.59h672.09c23.24,0,42.07-18.84,42.07-42.07V48.56c0-23.24-18.84-42.07-42.07-42.07H58.57
	c-23.24,0-42.07,18.84-42.07,42.07v766.96C16.49,838.76,35.33,857.59,58.57,857.59z"/>
</svg>
