<?xml version="1.0" encoding="utf-8"?>
<!-- Generator: Adobe Illustrator 27.1.1, SVG Export Plug-In . SVG Version: 6.00 Build 0)  -->
<svg version="1.1" id="Layer_1" xmlns="http://www.w3.org/2000/svg" xmlns:xlink="http://www.w3.org/1999/xlink" x="0px" y="0px"
	 viewBox="0 0 792 864" style="enable-background:new 0 0 792 864;" xml:space="preserve">
<style type="text/css">
	.st0{fill:#7E5945;stroke:#984C1E;stroke-width:5;stroke-miterlimit:10;}
	.st1{fill:#6C322C;stroke:#441710;stroke-width:2;stroke-miterlimit:10;}
	.st2{fill:#DC7038;stroke:#AA5626;stroke-width:2;stroke-miterlimit:10;}
	.st3{fill:#EFE8CC;}
	.st4{fill:#D23C27;stroke:#A53A23;stroke-width:2;stroke-miterlimit:10;}
	.st5{fill:#EFE8CC;stroke:#EFE8CC;stroke-width:2;stroke-miterlimit:10;}
	.st6{fill:#EFE8CC;stroke:#B1AE9C;stroke-width:2;stroke-linecap:round;stroke-linejoin:round;stroke-miterlimit:10;}
	.st7{fill:#EFE8CC;stroke:#B5956A;stroke-width:2;stroke-miterlimit:10;}
	.st8{fill:#EFE8CC;stroke:#B5956A;stroke-width:2;stroke-linecap:round;stroke-linejoin:round;stroke-miterlimit:10;}
	.st9{fill:none;stroke:#A53A23;stroke-width:2;stroke-miterlimit:10;}
	.st10{fill:#EFE8CC;stroke:#B1AE9C;stroke-width:2;stroke-miterlimit:10;}
	.st11{fill:none;stroke:#B1AE9C;stroke-width:2;stroke-linecap:round;stroke-linejoin:round;stroke-miterlimit:10;}
	.st12{fill:#2B190D;stroke:#A8A694;stroke-width:2;stroke-miterlimit:10;}
	.st13{fill:#B18F72;stroke:#806852;stroke-width:2;stroke-miterlimit:10;}
	.st14{fill:none;stroke:#000000;stroke-width:2;stroke-miterlimit:10;}
	.st15{fill:none;stroke:#A8A694;stroke-width:2;stroke-miterlimit:10;}
	.st16{fill:#D23D27;stroke:#B5956A;stroke-width:2;stroke-miterlimit:10;}
	.st17{fill:#3E1D0D;stroke:#180000;stroke-width:2;stroke-miterlimit:10;}
	.st18{fill:none;stroke:#984C1E;stroke-width:5;stroke-miterlimit:10;}
</style>
<path class="st0" d="M730.98,857.15H58.9c-23.24,0-42.07-18.84-42.07-42.07V48.12c0-23.24,18.84-42.07,42.07-42.07h672.09
	c23.24,0,42.07,18.84,42.07,42.07v766.96C773.06,838.31,754.22,857.15,730.98,857.15z"/>
<path class="st1" d="M144.11,633.71H15.21c-0.01,0.19-0.02,0.38-0.03,0.57c-0.04,0.81-0.09,1.61-0.14,2.41
	c0.49,1.46,0.77,2.99,0.79,4.53c0.09,10.98,1.38,21.95,0,32.9c-0.21,1.69-0.59,3.33-1.13,4.87c0.9,13.81,0.33,27.76,0.36,41.58
	c0.03,12.77,0.57,25.52,0.72,38.29c0.12,0.64,0.24,1.28,0.35,1.92h127.98c26.88,0,48.67-20.12,48.67-44.93v-37.22
	C192.77,653.83,170.98,633.71,144.11,633.71z"/>
<path class="st2" d="M16.72,591.57c0,0-0.46-0.02-1.29-0.04c-0.16,6.82,2.04,14.3,1.35,21.89c-0.63,6.97-1.29,13.87-1.61,20.86
	c-0.04,0.81-0.09,1.62-0.14,2.42c0.49,1.46,0.77,2.98,0.78,4.52c0.03,3.84,0.21,7.69,0.37,11.53c8.63,0.19,14.05,0.13,14.05,0.13
	l35.45-17.74L16.72,591.57z"/>
<path class="st1" d="M16.23,761.41c1.19,6.92,1.77,13.96,1.41,20.98c-0.2,4.06-0.65,7.54-1.1,10.85c-0.02,6.35-0.36,12.75-0.6,19.09
	c-0.11,2.95-0.22,5.91-0.24,8.86c0.02,0.09,0.03,0.18,0.05,0.29c0.26,1.42,0.52,2.83,0.85,4.24c0.31,1.32,0.67,2.63,1.06,3.92
	c1.48,1.96,2.49,4.3,2.93,6.85c0.5,0.84,1.02,1.67,1.51,2.52c0.24,0.41,0.37,0.67,0.45,0.84c0.13,0.11,0.31,0.3,0.6,0.6
	c0.15,0.16,0.31,0.32,0.46,0.48c1.63,1.32,3.06,2.69,4.35,4.14c1.18,0.81,2.39,1.57,3.61,2.3c2.79,1.68,5.71,3.18,8.43,4.99
	c0.77,0.51,2.07,1.37,3.4,2.36c0.04,0.01,0.07,0.02,0.11,0.03c4.69,1.04,9.36,2.2,14.06,3.21c1.13-0.06,2.25-0.12,3.38-0.19
	c-16.37-22-29.33-54.95-11.71-96.46L16.23,761.41z"/>
<path class="st3" d="M35.4,171.87"/>
<path class="st4" d="M17.23,212.33c-0.31,2.45-0.74,4.89-1.23,7.31c-0.03,6.47-0.88,12.65-1.13,19.22
	c6.15,2.85,10.54,5.21,12.25,6.49c8.54,6.39,9.11,3.46,9.11,3.46l10.97-15.6C51.55,229.08,36.23,220.64,17.23,212.33z"/>
<path class="st2" d="M20.38,195.77l-0.24-3.85l-3.85-0.01c-0.04,1.38-0.07,2.77-0.08,4.15c-0.01,0.72-0.06,1.41-0.16,2.1
	c1.11,2.1,1.74,4.44,1.71,6.81c-0.05,4.92-0.77,9.81-1.76,14.62c-0.01,2.73-0.17,5.42-0.38,8.09l6.86,2.21L20.38,195.77z"/>
<path class="st5" d="M15.44,146.02v1.27c0,1.18-0.15,2.3-0.41,3.38c1.75,5.72,1.94,12.45,1.96,18.27c0,1.11,0,2.22-0.02,3.34
	c0.21,1.75,0.36,3.49,0.4,5.2c0.04,1.79-0.23,3.42-0.73,4.91c-0.19,4.56-0.4,9.11-0.43,13.67l35.78,7.57l10.08-47.75L15.44,146.02z"
	/>
<path class="st3" d="M56.36,175.63"/>
<path class="st6" d="M211.41,858.1c5.34-0.15,9.16-1.15,14.91-1.81c4.82-0.55,9.62-0.53,14.46-0.47
	c30.98,0.38,61.99,1.44,92.98,1.58c0.93-11.38-2.2-23.53-2.2-23.53c-6.32-16.04-21.51-26.43-38.17-26.11c0,0-9.29-0.19-17.38,2.87
	c0,0-2.47-9.77-3.82-9.54c-1.35,0.23-54.25,1.05-54.25,1.05c-7.1,15.7-7.56,39.12-6.67,55.95
	C211.32,858.1,211.36,858.1,211.41,858.1z"/>
<path class="st2" d="M301.35,597.61c-3.05-44.54-41.71-54.48-41.71-54.48l-66.83-7.03c-18.96-16.53-121.16-12.74-121.16-12.74
	l0.24,0.08c-21.56-1.95-42.81-2.52-54.78-2.68c0,0.36,0,0.72,0,1.08c-0.04,11.07,0.04,22.14-0.14,33.21
	c-0.16,9.93-2.19,19.72-2.31,29.66c-0.01,0.52-0.05,1.03-0.11,1.53c0.61,1.62,0.94,3.32,0.88,5.05c-0.22,6.88,2.05,14.45,1.35,22.13
	c-0.63,6.97-1.29,13.87-1.61,20.86c-0.04,0.81-0.09,1.62-0.13,2.42c0.49,1.46,0.77,2.98,0.78,4.52c0.03,3.93,0.22,7.86,0.38,11.78
	c11.49,2.33,35.67,6.97,60.54,9.75l3.18,0.35c0,0,99.92,25.04,121.16,12.74l66.83,7.03c16.66-1.1,24.54-14.17,24.54-14.17
	S304.41,642.15,301.35,597.61z"/>
<path class="st6" d="M202.77,856.96c1.77,0.31,3.52,0.68,5.29,1.01c0.27,0.05,0.51,0.09,0.71,0.13c0.1-0.01,0.26-0.01,0.51-0.01
	c0.71,0.01,1.42,0.03,2.14,0.01c5.34-0.15,9.16-1.15,14.91-1.81c4.82-0.55,9.62-0.53,14.46-0.47c24.34,0.29,48.69,1.01,73.04,1.38
	c-0.39-6.63-1.46-11.72-1.46-11.72c-5.6-16.39-20.31-27.66-36.96-28.32c0,0-9.26-0.74-17.49,1.84c0,0-2.03-9.9-3.39-9.75
	c-1.36,0.15-54.23-2.15-54.23-2.15c-6.82,13.37-8.82,32.96-9.11,48.95C195.01,855.87,198.67,856.25,202.77,856.96z"/>
<path class="st2" d="M166.54,545.05c-3.02-23.6-122.25-25.47-149.41-25.59c0,0.79,0,1.59-0.01,2.38c-0.04,9.77,0.01,19.54-0.1,29.31
	c5.07,46.64,1.73,101.73,1.73,101.73l3.19,0.59c13.34,2.35,41.42,7.04,70.31,9.84l3.69,0.35c0,0,58.17,12.68,100.88,15.66
	L166.54,545.05z"/>
<path class="st2" d="M294.47,650.87c-0.58,12.8,1.61,23.5-1.26,28.92l0.72,77.91c0,0-4.72,45.67-43.31,53.74s-63.02-3.03-63.02-3.03
	s-12.23-7.77-14.9-26.9l-0.72-77.91c-3.77-6.8-5.45-21.66-5.94-39.3"/>
<path class="st4" d="M16.85,375.19c6.67-1.3,10.4-2.24,10.4-2.24l-10.41,0.66C16.84,374.14,16.85,374.67,16.85,375.19z"/>
<path class="st4" d="M16.26,619.34c48.86-2.88,91.14-6.32,91.14-6.32S83.07,407.88,93.94,360.43
	c10.88-47.45-60.42-109.33-60.52-111.22c0,0-7.32-2.03-18.59-4.86c0.3,11.8,1.62,23.56,1.76,35.37c0.07,5.6,0.14,11.29-0.45,16.87
	c-0.14,1.29-0.31,2.57-0.51,3.85c3.25,18.39,0.65,37.57-0.45,56.04c-0.32,5.28,0.38,6.3,1.16,11.36c0.94,6.11,0.47,11.45-0.34,17.57
	c-0.04,0.27-0.1,1.1-0.12,1.42c-0.05,1.01-0.09,2.02-0.12,3.02c-0.08,2.42-0.1,4.84-0.09,7.27c0.01,1.9,0.04,3.8,0.07,5.7
	c0.48,1.48,0.69,3.03,0.49,4.6c-0.15,1.17-0.27,2.34-0.4,3.51c0,0.25,0.01,0.5,0.01,0.75c0,0.71-0.06,1.4-0.15,2.07
	c1.21,2.21,1.95,4.7,2.09,7.22c0.55,10.34-2.51,20.01-2.71,29.81c-0.01,0.33-0.04,0.66-0.07,0.98c0.46,1.4,0.75,2.89,0.84,4.44
	c1.26,21.86,1.38,43.76,1.29,65.65c-0.04,11.07,0.04,22.14-0.14,33.21c-0.16,9.93-2.19,19.72-2.31,29.66
	c-0.01,0.53-0.04,1.05-0.1,1.56c0.6,1.61,0.93,3.31,0.87,5.02c-0.22,6.88,2.05,14.45,1.35,22.13
	C16.61,615.4,16.43,617.37,16.26,619.34z"/>
<path class="st7" d="M75.19,298.03c-0.55,0.05-1.1,0.16-1.65,0.33c-4.61,1.44-15.15,2.27-15.15,2.27
	c-5.58,2.44-4.88,7.49-5.71,16.64c-0.83,9.15,6.64,13.24,6.64,13.24s2.94,4.85,2.4,12.77c-0.54,7.92-3.2,0.2-3.2,0.2
	s-6.67-19.58-21.87-20.64c-15.2-1.06-15.42,7.14-15.42,7.14s1.07,3.09-4.79,8.94c-0.42,5.9-0.91,11.77-1.26,17.57
	c-0.32,5.28,0.38,6.3,1.16,11.36c0.21,1.34,0.33,2.63,0.41,3.91c0.24,0.19,0.48,0.38,0.73,0.56c5.33,3.74,12.93-1.89,12.93-1.89
	s15.57-2.24,17-1.72c1.43,0.52,5.27,0.89,5.27,0.89c5.17-1.2-0.45-5.28-0.45-5.28c-3.09-5.36-14.18-5.1-14.18-5.1
	s-5.2-7.08,4.67-5.35c9.87,1.73,15.13,8.71,15.13,8.71c6.13,4.51,3-2.55,3-2.55l-6.8-8.95c0,0-0.74-3.14,2.63-3.01
	c3.37,0.12,7.6,11.6,7.6,11.6c3.27,5.77,2.88-2.45,2.88-2.45s-1.34-10.35,0.02-17.35c1.36-7,3.17,0.2,3.17,0.2
	s-0.43,7.79-0.06,12.23c0.36,4.44,2.58,0.99,2.58,0.99l4.66-10.97c0,0,2.84-1.63,1.22,1.11c-1.62,2.74-0.37,6.79-0.37,6.79
	s0.52,0.48,0.98-1.3c0.47-1.79,6.09-6.5,6.09-6.5c5.28-2.62,7.4-5.44,8.13-6.69L75.19,298.03z"/>
<path class="st7" d="M52.26,379.12c0,0-6.27,0.89,0.97,4.99l2.9-0.18c0,0,9.05-0.49,4.34,3.96s-11.95,8.4-11.95,8.4
	s-11.36,7.59-2.24,7.92s13.95-10.6,13.95-10.6s5.88-8.69,2.59,3.59c-3.29,12.28-4.45,13.36-2.25,15.15
	c2.2,1.8,6.04-10.43,6.04-10.43s-1.11-11.42,2.5-11.05c3.62,0.37,2.1,14.04,2.1,14.04l0.76,15.24c0,0-0.82,16.54-11.23,20.8
	c-10.41,4.26-11.06,2.5-16.71-3.5c0,0-13.92,7.46-22.44-11.26s-4.24-29.29-4.24-29.29s2.1-4.77,4.27-4.89c0.04,0,0.08,0,0.11,0
	l-0.16-0.67c0,0-2.57-11.38,7.2-15.37c9.76-3.99,14.99-3.29,14.99-3.29s16.45,0.1,18.45,3.73c2,3.63-9.53,2.66-9.53,2.66
	L52.26,379.12z"/>
<path class="st8" d="M93.87,340.38c-23.48,15.93-25.7,35.64-25.7,35.64s0.37,10.4,6.39,1.72c0,0,3.15-19.01,19.59-32.99"/>
<path class="st8" d="M93.57,362.2c-1.95,0.69-3.37,1.31-3.37,1.31c-12.16,9.4-0.37-5.98-0.37-5.98s1.9-2.34,4.74-4.81"/>
<path class="st8" d="M92.03,373.92c-4.66,0.43-1.67-2.69,0.5-4.57"/>
<path class="st8" d="M91.45,388.76c-1.02-0.28-2.11-0.5-3.28-0.65c-8.13-1.01-1.13-5.12,3.41-7.34"/>
<path class="st8" d="M91.15,400.96c-1.09-1.76-2.3-3.33-2.3-3.33c-2.51-4.52-0.16-3.71,2.32-2.18"/>
<path class="st8" d="M92.57,445.63c-6.84,1.22-19.69,0.6-15.73-22.86l-0.13-0.63c0,0-3.08-15.92-1.66-26.83s3.8-0.42,3.8-0.42
	l2.22,12.33c3.99,7.12,3.95,0.58,3.95,0.58s-4.12-19.49-0.7-11.33c3.42,8.16,6.1,8.81,6.1,8.81c0.28,0.12,0.53,0.21,0.76,0.28"/>
<path class="st7" d="M82.73,502.78c-8.36-7.66-6.85-11.49-6.85-11.49s0.09-8.21-15.14-7.73c-15.23,0.48-22.65,19.78-22.65,19.78
	s-2.96,7.61-3.19-0.32c-0.24-7.94,2.89-12.67,2.89-12.67s7.62-3.8,7.15-12.97s0.42-14.2-5.06-16.85c0,0-10.5-1.24-15.05-2.85
	c-3.51-1.24-7.31,0.2-8.88,0.94c0.89,16.52,1.15,33.05,1.18,49.59c0.39,1.49,0.86,1.1,0.86,1.1s1.41-4-0.11-6.8
	c-1.51-2.8,1.26-1.06,1.26-1.06l4.24,11.14c0,0,2.08,3.53,2.62-0.89c0.54-4.42,0.41-12.22,0.41-12.22s2.09-7.12,3.17-0.08
	c1.09,7.05-0.65,17.34-0.65,17.34s-0.7,8.21,2.79,2.56c0,0,4.67-11.31,8.04-11.3c3.38,0,2.52,3.11,2.52,3.11l-7.14,8.68
	c0,0-3.4,6.93,2.9,2.66c0,0,5.52-6.78,15.45-8.12c9.93-1.34,4.46,5.53,4.46,5.53s-11.07-0.69-14.36,4.55c0,0-5.77,3.86-0.65,5.26
	c0,0,3.86-0.22,5.3-0.68c1.45-0.46,16.92,2.37,16.92,2.37s7.38,5.91,12.84,2.39c5.47-3.53,8.72-11.08,8.72-11.08
	S91.09,510.43,82.73,502.78z"/>
<path class="st7" d="M69.06,554.06c0,0,3.92-10.87-5.68-15.24s-14.86-3.87-14.86-3.87s-16.45-0.53-18.58,3.02
	c-2.14,3.55,9.42,3.02,9.42,3.02l0.43,0.04c0,0,6.23,1.13-1.16,4.95l-2.89-0.29c0,0-9.02-0.84-4.49,3.79
	c4.53,4.63,11.62,8.86,11.62,8.86s11.06,8.03,1.93,8c-9.13-0.03-13.53-11.13-13.53-11.13s-5.54-8.91-2.72,3.49
	c2.82,12.4,3.94,13.52,1.66,15.23c-2.27,1.71-5.64-10.65-5.64-10.65s1.55-11.37-2.08-11.14c-3.63,0.23-2.63,13.95-2.63,13.95
	l-1.35,15.2c0,0,0.18,16.56,10.42,21.22c10.23,4.66,10.96,2.93,16.83-2.85c0,0,13.62,7.99,22.86-10.39
	c9.24-18.38,5.37-29.11,5.37-29.11s-1.92-4.84-4.08-5.05c-0.04,0-0.08-0.01-0.11-0.01L69.06,554.06z"/>
<path class="st8" d="M15.07,250.53c0.23,4.55,0.54,9.09,0.83,13.64c0.14-0.27,0.2-0.43,0.2-0.43S17.91,259.53,15.07,250.53z"/>
<path class="st8" d="M17.13,516.06c0,1.93-0.01,3.86-0.02,5.78c-0.01,2.86-0.01,5.72-0.01,8.58c1.63,5.62,1.89,9.46,1.89,9.46
	c5.16,9.21,6.52-1.1,6.52-1.1S25.33,528.54,17.13,516.06z"/>
<path class="st9" d="M15.87,244.62C42.31,247,54.31,272,69.31,291c16,18,29,40,26,65c-2,8-3,16-3,24c-4,64,4,126,10,190
	c2,14,4,29,5.09,43.01c-0.42,0.03-0.92,0.15-1.33,0.05c0.46-0.06,0.9-0.05,1.33-0.05C77.31,615,48.31,618,17.82,619.28"/>
<path class="st2" d="M136.06,333.31l-0.43-0.4c-29.57-26.11-96.8-41.09-96.8-41.09l-21.72,35.2c-0.35,9.88-1.34,19.77-1.92,29.47
	c-0.32,5.28,0.38,6.3,1.16,11.36c0.94,6.11,0.47,11.45-0.34,17.57c-0.04,0.27-0.1,1.1-0.12,1.42c-0.05,1.01-0.09,2.02-0.12,3.02
	c-0.08,2.42-0.1,4.84-0.09,7.27c0,0.44,0.01,0.88,0.02,1.32c20.73,14.63,41.49,26.23,57.94,28.9l1.04,1.09l0.62,0.78
	c0,0,39,39.2,79.2,22.91l36.1-56.97C188.15,351.84,136.06,333.31,136.06,333.31z"/>
<path class="st10" d="M204.61,474.29c-6.29-4.04-13.99-8.53-20.08-12c-12.24-6.98-12.47-18.18-12.47-18.18l18.4-28.29
	c0,0,21.69-11.25,48.14,5.51s19.99,44.44,19.99,44.44l-0.09,0.48c3.97,15.1-11.73,21.46-11.73,21.46s-2.51,1.07-4.52,0.34
	l-0.36,0.57c-3.73,6-8.93,10.93-18.55,10.04l-0.39-0.01c-3.28,2.11-7.69,2.66-13.54-0.41c-17.53-9.2-5.36-23.25-5.36-23.25
	L204.61,474.29z"/>
<path class="st11" d="M222.95,498.65c6.56-4.21,8.6-14.6,8.6-14.6s1.62-12.47-20.36-32.6"/>
<path class="st11" d="M241.89,488.62c4.8-7.71,5.69-17.31,5.15-19c0,0-1.52-11.92-18.62-28.79"/>
<path class="st11" d="M236.02,428.83c0,0,15.62,18.57,21.79,35.24c0.28,0.75,0.51,1.47,0.69,2.18"/>
<path class="st2" d="M197.93,403.85l-31.68,50c-0.52,0.82-1.6,1.06-2.42,0.54l-6.4-4.05c-0.82-0.52-1.06-1.6-0.54-2.42l31.68-50
	c0.52-0.82,1.6-1.06,2.42-0.54l6.4,4.05C198.2,401.95,198.45,403.04,197.93,403.85z"/>
<path class="st4" d="M15.61,259.68c0.44,6.68,0.9,13.35,0.98,20.04c0.07,5.6,0.14,11.29-0.45,16.87c-0.14,1.29-0.31,2.57-0.51,3.85
	c1.32,7.48,1.69,15.09,1.56,22.73c11.34-17.17,23.91-32.63,34.78-39.22C51.97,283.96,34.74,271.68,15.61,259.68z"/>
<path class="st4" d="M15.71,226.62c-0.4,5.64-1.03,11.25-0.89,17.32c0.08,3.52,0.26,7.04,0.47,10.56c1.32,0.74,2.33,1.36,2.96,1.84
	c8.54,6.39,9.11,3.46,9.11,3.46l10.97-15.6C42.1,240.6,31.08,233.78,15.71,226.62z"/>
<path class="st8" d="M39.86,288.17c0,0-6.46-1.07,1.24-3.79l11.11-0.08l-7.01-5.66c-8.98-1.27-18.06-1.09-18.06-1.09l-0.64,0.02
	c-3.9-1.37-7.2-2.12-10.01-2.39c0.05,1.51,0.09,3.03,0.11,4.55c0.07,5.6,0.14,11.29-0.45,16.87c-0.14,1.29-0.31,2.57-0.51,3.85
	c1.06,6,1.5,12.08,1.57,18.2c1.84,0.15,3.45,0.14,4.56,0.09c0,0,18.57-25.37,26.67-30.7C51.65,285.92,39.86,288.17,39.86,288.17z"/>
<path class="st10" d="M18.93,38.58c-0.53,4.85-1.55,9.65-2.64,14.4c-0.54,2.38-0.95,4.25-1.24,5.99v22.1
	c0.24,1.03,0.38,2.07,0.39,3.13c0.04,5.3,0.32,10.48,0.35,15.66c0.4,8.22-0.23,16.4-0.92,24.6c0.36,1.26,0.57,2.56,0.57,3.87v18.97
	c0,1.18-0.15,2.3-0.41,3.38c1.75,5.72,1.94,12.45,1.96,18.27c0,1.11,0,2.22-0.02,3.34c0.21,1.75,0.36,3.49,0.4,5.2
	c0.04,1.79-0.23,3.42-0.73,4.9c-0.1,2.26-0.2,4.52-0.28,6.78l37.12,7.85l8.84-40.15l-0.01-0.16l7.05-31.81
	c0.52-2.38,0.77-4.77,0.85-7.16l0.15-2.2C70.37,115.52,70.4,60.34,18.93,38.58z"/>
<path class="st10" d="M53.5,197.01c0,0-13.15,0.36-37.25-2.68c-0.01,0.58-0.02,1.16-0.03,1.73c-0.01,0.72-0.06,1.41-0.16,2.1
	c1.11,2.1,1.74,4.44,1.71,6.81c0,0.03,0,0.05,0,0.08c14.13,1.55,22.48,1.63,27.37,1.54c7.43-0.14,7.2-4.3,7.2-4.3L53.5,197.01z"/>
<path class="st10" d="M60.45,174.35L51.68,58.96c2.54-1.59,0.01-4.15,0.01-4.15c-13.46,0.6-25.97,3.62-36.64,8.59v17.66
	c0.24,1.03,0.38,2.07,0.39,3.13c0.04,5.3,0.32,10.48,0.35,15.66c0.4,8.22-0.23,16.4-0.92,24.6c0.36,1.26,0.57,2.56,0.57,3.87v18.97
	c0,1.18-0.15,2.3-0.41,3.38c1.65,5.42,1.92,11.74,1.96,17.35c11.17,4.17,25.3,8.18,43.22,11.6
	C60.22,179.62,62.18,176.31,60.45,174.35z"/>
<path class="st12" d="M52.74,59.56l-1.06-0.6c-13.77,0.43-26.28,3.53-36.63,8.76v13.34c0.24,1.03,0.38,2.07,0.39,3.13
	c0.04,5.3,0.32,10.48,0.35,15.66c0.4,8.22-0.23,16.4-0.92,24.6c0.36,1.26,0.57,2.56,0.57,3.87v18.97c0,1.18-0.15,2.3-0.41,3.38
	c1.18,3.87,1.65,8.19,1.84,12.39c10.1,3.81,23.02,7.48,39.58,10.64l4,0.64l3.76-20.99l-0.02-0.17l6.02-33.31
	c0.45-2.49,0.62-4.99,0.61-7.47l0.08-2.29C70.92,110.12,70.1,83.14,52.74,59.56z"/>
<path class="st13" d="M199.34,580.79l26.25,9.59c1.42,0.52,2.67,1.45,3.57,2.71c46.65,65.28,52.83,199.88,52.98,263.5
	c22.68,0.49,45.36,0.97,68.03,0.8c17.79-0.14,35.54-1.49,53.33-1.83c12.16-0.23,24.33-0.23,36.5-0.2l6.13-513.91
	c0.08-6.42-6.83-10.23-11.87-6.56L198.96,506.39c-1.97,1.43-3.17,3.76-3.23,6.27l-1.45,60.5
	C194.21,576.58,196.25,579.66,199.34,580.79z"/>
<path class="st1" d="M179.06,760.23c-24.3,5.03-48.07-10.6-53.1-34.9l-98.5-476.22c-5.03-24.3,10.6-48.07,34.9-53.1l36.45-7.54
	c24.3-5.03,48.07,10.6,53.1,34.9l98.5,476.22"/>
<path class="st1" d="M173.81,633.71l330.29,0c26.88,0,48.67,20.12,48.67,44.93v37.22c0,24.81-21.79,44.93-48.67,44.93H173.81"/>
<path class="st2" d="M390.25,652.88c0,0-124.69,1.62-133.96-32.27c-9.26-33.89,120.43-29.05,120.43-29.05l48.97,43.57L390.25,652.88
	z"/>
<path class="st1" d="M238.8,855.81c0.66,0.01,1.32,0.01,1.99,0.02c36.45,0.44,72.94,1.85,109.4,1.57
	c17.79-0.14,35.54-1.49,53.33-1.83c5.23-0.1,10.46-0.15,15.69-0.18c-15.51-21.97-26.94-54.04-9.96-94.06l-163.05,0.41
	C264.14,801.18,253.66,833.46,238.8,855.81z"/>
<path class="st14" d="M276.52,772.23"/>
<path class="st3" d="M395.4,171.87"/>
<path class="st4" d="M274.6,217.36c-2.94,1.19,2.76-7.37,2.76-7.37s-1.14-9.21,2.2-19.64c3.33-10.43,39.95-0.13,39.95-0.13
	s97.88,33.28,87.69,43l-10.97,15.6c0,0-0.58,2.92-9.11-3.46S303.24,205.74,274.6,217.36z"/>
<polyline class="st2" points="382.49,229.9 296.5,202.17 295.86,191.81 380.14,191.92 380.38,195.77 382.49,229.9 "/>
<rect x="308.05" y="75.41" transform="matrix(0.207 -0.9783 0.9783 0.207 105.2805 453.6122)" class="st5" width="48.8" height="172.91"/>
<path class="st10" d="M330.81,164.45"/>
<path class="st15" d="M351.65,67.26"/>
<path class="st15" d="M351.65,67.26"/>
<path class="st3" d="M416.36,175.63"/>
<path class="st6" d="M678.26,856.32c5.19-0.1,10.39-0.16,15.59-0.2c0.61-10.99-2.29-22.25-2.29-22.25
	c-6.32-16.04-21.51-26.43-38.17-26.11c0,0-9.29-0.19-17.38,2.87c0,0-2.47-9.77-3.82-9.54c-1.35,0.23-54.25,1.05-54.25,1.05
	c-6.94,15.34-7.54,38.06-6.73,54.8C606.9,856.97,642.58,857.03,678.26,856.32z"/>
<path class="st2" d="M431.66,523.36c0,0,102.19-3.79,121.16,12.74l66.83,7.03c0,0,38.66,9.94,41.71,54.48
	c3.05,44.54-8.9,71.1-8.9,71.1s-7.88,13.07-24.54,14.17l-66.83-7.03c-21.24,12.3-121.16-12.74-121.16-12.74l-3.18-0.35
	c-24.88-2.78-49.06-7.42-60.55-9.76l-2.74-0.58c0,0,4.41-84.15-6.19-131.72c0,0,130.47-0.94,133.41,25.35"/>
<path class="st6" d="M553.99,856.94c39.93,0,79.85,0.18,119.78-0.54c-0.42-6.24-1.4-10.91-1.4-10.91
	c-5.6-16.39-20.31-27.66-36.96-28.32c0,0-9.26-0.74-17.49,1.84c0,0-2.03-9.9-3.39-9.75c-1.36,0.15-54.23-2.15-54.23-2.15
	c-6.99,13.7-8.91,33.93-9.12,50.13C552.1,857.04,553.04,856.94,553.99,856.94z"/>
<path class="st2" d="M556.82,679.32c-42.72-2.98-100.88-15.66-100.88-15.66l-3.69-0.35c-28.89-2.8-56.97-7.49-70.31-9.84l-3.19-0.59
	c0,0,5.17-85.24-7.11-133.43c0,0,151.49-1.04,154.9,25.59"/>
<path class="st2" d="M654.47,650.87c-0.58,12.8,1.61,23.5-1.26,28.92l0.72,77.91c0,0-4.72,45.67-43.31,53.74
	c-38.6,8.07-63.02-3.03-63.02-3.03s-12.23-7.77-14.9-26.9l-0.72-77.91c-3.77-6.8-5.45-21.66-5.94-39.3"/>
<path class="st4" d="M387.24,372.96c0,0-58.36,14.73-127.42,8.07"/>
<path class="st11" d="M320.37,620.95c1.11-1.33,1.16-7.44,0.74-14.97"/>
<path class="st4" d="M393.42,249.21c0.1,1.89,71.4,63.77,60.52,111.22s13.46,252.58,13.46,252.58s-231.22,18.8-237.1,5.34
	c-5.89-13.46,7.49-89.66,7.49-89.66s-2.2-149.66-13.05-179.86c-10.86-30.2,10.44-111.21,36.14-120.2S393.42,249.21,393.42,249.21z"
	/>
<path class="st7" d="M453.58,335.71c-0.73,1.25-2.85,4.07-8.13,6.69c0,0-5.62,4.72-6.09,6.5c-0.47,1.79-0.98,1.3-0.98,1.3
	s-1.25-4.05,0.37-6.79c1.62-2.74-1.22-1.11-1.22-1.11l-4.66,10.97c0,0-2.21,3.44-2.58-0.99c-0.36-4.44,0.06-12.23,0.06-12.23
	s-1.81-7.2-3.17-0.2s-0.02,17.35-0.02,17.35s0.39,8.23-2.88,2.45c0,0-4.23-11.48-7.6-11.6s-2.63,3.01-2.63,3.01l6.8,8.95
	c0,0,3.14,7.06-3,2.55c0,0-5.25-6.99-15.13-8.71c-9.87-1.73-4.67,5.35-4.67,5.35s11.09-0.26,14.18,5.1c0,0,5.62,4.08,0.45,5.28
	c0,0-3.84-0.37-5.27-0.89c-1.43-0.52-17,1.72-17,1.72s-7.6,5.63-12.93,1.89c-5.33-3.74-8.29-11.41-8.29-11.41
	s-3.89-12.38,4.76-19.71s7.28-11.22,7.28-11.22s0.22-8.2,15.42-7.14c15.2,1.06,21.87,20.64,21.87,20.64s2.66,7.72,3.2-0.2
	c0.54-7.92-2.4-12.77-2.4-12.77s-7.47-4.09-6.64-13.24c0.83-9.15,0.12-14.2,5.71-16.64c0,0,10.53-0.83,15.15-2.27
	c0.55-0.17,1.1-0.28,1.65-0.33"/>
<path class="st7" d="M412.26,379.12c0,0-6.27,0.89,0.97,4.99l2.9-0.18c0,0,9.05-0.49,4.34,3.96c-4.71,4.45-11.95,8.4-11.95,8.4
	s-11.36,7.59-2.24,7.92s13.95-10.6,13.95-10.6s5.88-8.69,2.59,3.59c-3.29,12.28-4.45,13.36-2.25,15.15s6.04-10.43,6.04-10.43
	s-1.11-11.42,2.5-11.05s2.1,14.04,2.1,14.04l0.76,15.24c0,0-0.82,16.54-11.23,20.8c-10.41,4.26-11.06,2.5-16.71-3.5
	c0,0-13.92,7.46-22.44-11.26c-8.53-18.72-4.24-29.29-4.24-29.29s2.1-4.77,4.27-4.89c0.04,0,0.08,0,0.11,0l-0.16-0.67
	c0,0-2.57-11.38,7.2-15.37c9.76-3.99,14.99-3.29,14.99-3.29s16.45,0.1,18.45,3.73c2,3.63-9.53,2.66-9.53,2.66L412.26,379.12z"/>
<path class="st8" d="M453.87,340.38c-23.48,15.93-25.7,35.64-25.7,35.64s0.37,10.4,6.39,1.72c0,0,3.15-19.01,19.59-32.99"/>
<path class="st8" d="M453.57,362.2c-1.95,0.69-3.37,1.31-3.37,1.31c-12.16,9.4-0.37-5.98-0.37-5.98s1.9-2.34,4.74-4.81"/>
<path class="st8" d="M452.03,373.92c-4.66,0.43-1.67-2.69,0.5-4.57"/>
<path class="st8" d="M451.45,388.76c-1.02-0.28-2.11-0.5-3.28-0.65c-8.13-1.01-1.13-5.12,3.41-7.34"/>
<path class="st8" d="M451.15,400.96c-1.09-1.76-2.3-3.33-2.3-3.33c-2.51-4.52-0.16-3.71,2.32-2.18"/>
<path class="st8" d="M452.57,445.63c-6.84,1.22-19.69,0.6-15.73-22.86l-0.13-0.63c0,0-3.08-15.92-1.66-26.83
	c1.42-10.92,3.8-0.42,3.8-0.42l2.22,12.33c3.99,7.12,3.95,0.58,3.95,0.58s-4.12-19.49-0.7-11.33s6.1,8.81,6.1,8.81
	c0.28,0.12,0.53,0.21,0.76,0.28"/>
<path class="st7" d="M398.1,503.34c0,0-2.96,7.61-3.19-0.32s2.89-12.67,2.89-12.67s7.62-3.8,7.15-12.97
	c-0.48-9.18,0.42-14.2-5.06-16.85c0,0-10.5-1.24-15.05-2.85c-4.55-1.61-9.63,1.31-9.63,1.31s-6.24,4.91-8.59,10.7
	c-2.35,5.79-1.71,7.31-1.71,7.31s-7.04,8.12-1.84,16.55c0,0,1.28,3.9,8.17,7.67c0,0,5.44,4.93,5.83,6.73
	c0.4,1.8,0.93,1.34,0.93,1.34s1.41-4-0.11-6.8c-1.51-2.8,1.26-1.06,1.26-1.06l4.24,11.14c0,0,2.08,3.53,2.62-0.89
	s0.41-12.22,0.41-12.22s2.09-7.12,3.17-0.08c1.09,7.05-0.65,17.34-0.65,17.34s-0.7,8.21,2.79,2.56c0,0,4.67-11.31,8.04-11.3
	s2.52,3.11,2.52,3.11l-7.14,8.68c0,0-3.4,6.93,2.9,2.66c0,0,5.52-6.78,15.45-8.12c9.93-1.34,4.46,5.53,4.46,5.53
	s-11.07-0.69-14.36,4.55c0,0-5.77,3.86-0.65,5.26c0,0,3.86-0.22,5.3-0.68s16.92,2.37,16.92,2.37s7.38,5.91,12.84,2.39
	s8.72-11.08,8.72-11.08s4.36-12.22-4-19.88c-8.36-7.66-6.85-11.49-6.85-11.49s0.09-8.21-15.14-7.73
	C405.52,484.03,398.1,503.34,398.1,503.34z"/>
<path class="st7" d="M429.06,554.06c0,0,3.92-10.87-5.68-15.24s-14.86-3.87-14.86-3.87s-16.45-0.53-18.58,3.02
	c-2.14,3.55,9.42,3.02,9.42,3.02l0.43,0.04c0,0,6.23,1.13-1.16,4.95l-2.89-0.29c0,0-9.02-0.84-4.49,3.79
	c4.53,4.63,11.62,8.86,11.62,8.86s11.06,8.03,1.93,8c-9.13-0.03-13.53-11.13-13.53-11.13s-5.54-8.91-2.72,3.49
	c2.82,12.4,3.94,13.52,1.66,15.23c-2.27,1.71-5.64-10.65-5.64-10.65s1.55-11.37-2.08-11.14c-3.63,0.23-2.63,13.95-2.63,13.95
	l-1.35,15.2c0,0,0.18,16.56,10.42,21.22c10.23,4.66,10.96,2.93,16.83-2.85c0,0,13.62,7.99,22.86-10.39
	c9.24-18.38,5.37-29.11,5.37-29.11s-1.92-4.84-4.08-5.05c-0.04,0-0.08-0.01-0.11-0.01L429.06,554.06z"/>
<path class="st8" d="M372.37,243.69c6.45,13.74,3.74,20.04,3.74,20.04s-4.89,11.97-18.05,2.27l-0.49-0.38c0,0-22.47,1.03-2.39,4.37
	c20.08,3.33,12.82,25.53,12.82,25.53s14.79,26.66-14.71,29.52l-0.52,0.15c0,0-22.38,14.89-23.95-17.06l-0.26-0.59
	c0,0-6.42-14.88-7.38-25.85c-0.96-10.97,3.62-1.22,3.62-1.22l4.81,11.57c5.43,6.1,3.98-0.29,3.98-0.29s-8.21-18.15-3.12-10.92
	c5.09,7.24,7.85,7.3,7.85,7.3c6.79,1.27-3.17-7.12-3.17-7.12c-6-6.79,6.1-0.8,6.1-0.8c11.48,9.1,8.44-1.94,8.44-1.94
	s-5.93-7.47-17.25-6.41c-11.32,1.06,4.52-9.98,4.52-9.98c13-2.77,10.69-3.9,10.69-3.9s0.23-7.81-11.29-2.16s-2.34-4.9-2.34-4.9
	s9.28-1.23,8.97-7.28s-13.85,3.77-13.85,3.77c-9.86,11.79-1.65-5.76-1.65-5.76s1.65-3.27,4.31-6.65"/>
<path class="st8" d="M348.85,491.11c36.21,19.82,36.66,47.67,36.66,47.67s-1.36,10.31-6.52,1.1c0,0-2.21-32.38-33.74-46.95
	c0,0,3.46,12.96-5.51,11.54c0,0-4.92,1.43-2.05-9.71c0,0-6.79,12.07-11.22,4.66c-4.43-7.42,7.66-12.3,7.66-12.3
	s-10.98-2.66-7.9-9.35c3.08-6.68,10.29-1.68,10.29-1.68l3.06,3.89c0,0,0.53-14.35,7.5-7.27c6.97,7.08-0.75,9.35-0.75,9.35
	s6.48-3.75,7.61,1.85s-4.58,6.81-4.58,6.81L348.85,491.11z"/>
<path class="st8" d="M352.97,604.43c0,0,25.14,9.53,19.55-21.97l0.12-0.63c0,0,2.95-15.94,1.44-26.85c-1.51-10.9-3.8-0.39-3.8-0.39
	l-2.12,12.35c-3.93,7.16-3.94,0.61-3.94,0.61s3.96-19.53,0.61-11.34s-6.02,8.86-6.02,8.86c-6.33,2.75,1.5-7.65,1.5-7.65
	c4.34-7.95-6.13,0.58-6.13,0.58c-9.16,11.42-8.66-0.01-8.66-0.01s4.12-8.6,15.39-10.09c11.27-1.49-6.63-8.72-6.63-8.72
	c-13.29,0.2-11.29-1.42-11.29-1.42s-1.96-7.56,10.53-4.62s1.19-5.3,1.19-5.3s-9.32,0.87-10.37-5.1c-1.04-5.97,14.34,0.59,14.34,0.59
	c12.24,9.3,0.32-5.99,0.32-5.99s-11.96-14.47-20.61-9.2c-8.65,5.27-10.89,4.69-10.89,4.69s-8.22,0.72-11.68,15.97
	c-3.45,15.24,0.7,20.92,0.7,20.92s7.44,10.58,18.11-1.81l0.39-0.48c0,0,22.14-4,3.3,3.72c-18.83,7.72-6.81,27.74-6.81,27.74
	s-8.48,29.29,20.92,25.5L352.97,604.43z"/>
<path class="st7" d="M300.64,229.09c0.19,0.03,0.01,0.39,0.01,0.61c0.26,7.13,3.89,16.91,3.89,16.91s2.23,7.93-2.25,3.04
	c0,0-6.71-10.23-10.02-9.59c-3.32,0.64-1.89,3.53-1.89,3.53l8.64,7.19c0,0,4.65,6.17-2.34,3.16c0,0-6.69-5.62-16.7-5.08
	c-10.01,0.54-3.35,6.27-3.35,6.27s10.74-2.75,14.96,1.77c0,0,6.4,2.71,1.63,5.04c0,0-3.83,0.51-5.34,0.32s-16.18,5.51-16.18,5.51
	s-6.14,7.19-12.17,4.76c-6.03-2.44-10.65-9.25-10.65-9.25s-6.58-11.18,0.19-20.27c3.69-4.95,4.72-8.24,4.88-10.21
	C253.97,232.8,261.59,223.57,300.64,229.09z"/>
<path class="st7" d="M311.05,231.09l-1.83,10.4c0,0-1.38,3.85-2.74-0.39c-1.08-3.36-2.14-8.89-2.53-11.04"/>
<path class="st7" d="M294.95,271.31c0,0-5.91,2.28,2.07,4.64l2.79-0.83c0,0,8.7-2.52,5.12,2.88c-3.58,5.4-9.75,10.88-9.75,10.88
	s-9.36,9.96-0.4,8.22c8.96-1.74,11.2-13.47,11.2-13.47s3.77-9.79,3.33,2.92c-0.44,12.71-1.33,14.02,1.23,15.27
	s3.54-11.52,3.54-11.52s-3.66-10.87-0.05-11.33c3.61-0.46,5.21,13.21,5.21,13.21l4.18,14.68c0,0,2.93,16.3-6.25,22.8
	c-9.18,6.5-10.21,4.93-17.07,0.36c0,0-11.88,10.4-24.41-5.91c-12.53-16.32-10.74-27.58-10.74-27.58s0.97-5.12,3.06-5.72
	c0.04-0.01,0.07-0.02,0.11-0.03l-0.3-0.62c0,0-5.07-10.51,3.55-16.6c8.61-6.09,13.87-6.59,13.87-6.59s16.05-3.61,18.82-0.53
	s-8.68,4.74-8.68,4.74L294.95,271.31z"/>
<path class="st8" d="M320.31,232.16c-12.29,17.6-10.55,32.54-10.55,32.54s2.7,10.05,6.61,0.24c0,0-1.01-15.88,8.47-31.79"/>
<path class="st9" d="M316.8,231.66c5.09,0.9,10.23,1.89,15.31,2.92"/>
<path class="st9" d="M303.91,229.55c4.21,0.62,8.53,1.34,12.89,2.11"/>
<path class="st7" d="M232.56,402.59c2.28,1.73,4.11,3.23,4.11,3.23s6.88,2.78,2.03-2.44c-1.78-1.92-4.15-3.81-6.42-5.43"/>
<path class="st7" d="M229.02,367.55c2.61-4.3,6.65-11.92,6.65-11.92s-0.07-9.46,6.09-11.56c6.16-2.1,14.1,0.03,14.1,0.03
	s12.29,4.15,13.12,15.46c0.82,11.31,4.77,12.5,4.77,12.5s6.5,5.01-3.32,16.67c-9.82,11.66-29.56,5.51-29.56,5.51s-7.81-2.4-1.73,2.7
	c6.08,5.11,11.73,5.59,11.73,5.59s7.71-3.63,14.61,2.44s11.4,8.47,10.08,14.42c0,0-5.54,9-7.09,13.58c-1.56,4.57-7,6.74-7,6.74
	s-7.72,1.86-13.72,0.11c-6-1.75-6.8-3.19-6.8-3.19s-2.89,0.13-6.14-1.04"/>
<path class="st16" d="M230.25,381.74c3.18-0.81,7.59-2.58,11.55-6.39c7.21-6.96-1.57-6.93-1.57-6.93s-4.77,6.88-10.06,8.25"/>
<path class="st16" d="M231.63,390.85c2.86,0.37,5.7,0.37,6.62-0.8c2.09-2.65-0.88-3.9-0.88-3.9l-6.12,0.12"/>
<path class="st7" d="M221.79,329.21c0.12,0.17,0.18,0.26,0.18,0.26s2.61,4.51,1.43,6.33c-0.02,0.03-0.04,0.06-0.07,0.09l0.63,0.27
	c0,0,10.71,4.63,8.18,14.87c-1.39,5.65-3.13,9.34-4.41,11.52"/>
<path class="st7" d="M230.04,589.82c0.55,0.08,1.49-0.4,3.04-1.86c0,0,4.35-7.58,13.94-10.51c9.59-2.93,5.3,4.74,5.3,4.74
	s-11.03,1.11-13.44,6.81c0,0-5.08,4.74,0.21,5.3c0,0,3.77-0.84,5.12-1.53c1.35-0.69,17.08-0.39,17.08-0.39s8.23,4.65,13.06,0.29
	c4.83-4.36,6.82-12.34,6.82-12.34s2.34-12.76-7.15-18.97c-9.48-6.21-8.61-10.24-8.61-10.24s-1.23-8.11-16.18-5.19
	c-8.41,1.65-13.42,8.77-16.2,14.69"/>
<path class="st7" d="M279.31,623.06c-0.68-3.99-1.8-6-1.8-6s-2.67-4.47-4.84-4.32c-0.04,0-0.08,0.01-0.11,0.01l0.07-0.68
	c0,0,1.15-11.61-9.03-14.37c-10.18-2.76-15.28-1.42-15.28-1.42s-16.32,2.12-17.85,5.97c-1.54,3.85,9.78,1.47,9.78,1.47l0.43-0.03
	c0,0,6.33,0.11-0.35,5.07l-2.9,0.18c0,0-9.04,0.63-3.82,4.47c5.22,3.84,12.89,6.87,12.89,6.87s1.94,0.97,3.7,2.24"/>
<path class="st16" d="M232.56,402.59c2.28,1.73,4.11,3.23,4.11,3.23s6.88,2.78,2.03-2.44c-1.78-1.92-4.15-3.81-6.42-5.43"/>
<path class="st9" d="M332.11,234.59c31.76,6.45,61.31,14.63,61.31,14.63c0.1,1.89,71.4,63.77,60.52,111.22
	s13.46,252.58,13.46,252.58s-231.22,18.8-237.1,5.34c-5.89-13.46,7.49-89.66,7.49-89.66s-2.2-149.66-13.05-179.86
	c-10.86-30.2,10.44-111.21,36.14-120.2c8.16-2.86,24.52-1.82,43.03,0.92"/>
<path class="st2" d="M346.72,376.25c29.07,23.86,62.67,47.16,86.89,51.09l1.04,1.09l0.62,0.78c0,0,39,39.2,79.2,22.91l36.1-56.97
	c-2.43-43.31-54.53-61.84-54.53-61.84l-0.43-0.4c-29.57-26.11-96.8-41.09-96.8-41.09"/>
<path class="st10" d="M564.61,474.29c-6.29-4.04-13.99-8.53-20.08-12c-12.24-6.98-12.47-18.18-12.47-18.18l18.4-28.29
	c0,0,21.69-11.25,48.14,5.51c26.45,16.76,19.99,44.44,19.99,44.44l-0.09,0.48c3.97,15.1-11.73,21.46-11.73,21.46
	s-2.51,1.07-4.52,0.34l-0.36,0.57c-3.73,6-8.93,10.93-18.55,10.04l-0.39-0.01c-3.28,2.11-7.69,2.66-13.54-0.41
	c-17.53-9.2-5.36-23.25-5.36-23.25L564.61,474.29z"/>
<path class="st11" d="M582.95,498.65c6.56-4.21,8.6-14.6,8.6-14.6s1.62-12.47-20.36-32.6"/>
<path class="st11" d="M601.89,488.62c4.8-7.71,5.69-17.31,5.15-19c0,0-1.52-11.92-18.62-28.79"/>
<path class="st11" d="M596.02,428.83c0,0,15.62,18.57,21.79,35.24c0.28,0.75,0.51,1.47,0.69,2.18"/>
<path class="st2" d="M557.93,403.85l-31.68,50c-0.52,0.82-1.6,1.06-2.42,0.54l-6.4-4.05c-0.82-0.52-1.06-1.6-0.54-2.42l31.68-50
	c0.52-0.82,1.6-1.06,2.42-0.54l6.4,4.05C558.2,401.95,558.45,403.04,557.93,403.85z"/>
<path class="st4" d="M327.3,237.24c0,0-64.57-12.72-75.54,57.31c0,0-9.84,38.75,44.76,64.39l48.11,31.67
	c-4.9-4.15,37.6-88.62,67.34-106.65C411.97,283.96,341.26,233.55,327.3,237.24z"/>
<path class="st4" d="M265.73,228.33c-2.94,1.19,2.76-7.37,2.76-7.37s-1.14-9.21,2.2-19.64c3.33-10.43,39.95-0.13,39.95-0.13
	s97.88,33.28,87.69,43l-10.97,15.6c0,0-0.58,2.92-9.11-3.46C369.71,249.94,294.37,216.71,265.73,228.33z"/>
<path class="st8" d="M405.2,278.64c-8.98-1.27-18.06-1.09-18.06-1.09l-0.64,0.02c-30.18-10.61-24.84,15.74-24.84,15.74l-0.06,0.54
	c-7.3,24.41,14.03,25.16,20.17,24.88c0,0,18.57-25.37,26.67-30.7c3.22-2.12-8.58,0.13-8.58,0.13s-6.46-1.07,1.24-3.79l11.11-0.08
	L405.2,278.64z"/>
<path class="st10" d="M413.5,197.01l8.84-40.15l-0.01-0.16l7.05-31.81c0.52-2.38,0.77-4.77,0.85-7.16l0.15-2.2
	c0,0,0.05-67.91-70.22-82.77l0.4,0.09c-70.27-14.87-98.79,47.02-98.79,47.02l-0.37,0.97c-1.13,2.55-2.05,5.19-2.66,7.96l-7.04,31.98
	l-8.84,40.15"/>
<path class="st10" d="M324.35,196.46c-49.64-11.2-69.53-19.53-77.9-23.44c-6.71-3.13-4.75-6.83-4.75-6.83l1.16-5.27
	c0,0,28.15,13.45,83.04,24.51l1.63,0.34c54.66,12.12,85.96,11.25,85.96,11.25l-1.16,5.27c0,0,0.23,4.16-7.2,4.3
	c-9.27,0.18-30.89-0.27-80.83-10.14"/>
<path class="st10" d="M411.68,58.96c2.54-1.59,0.01-4.15,0.01-4.15c-36.1,1.62-65.49,20.55-70.46,48.26l-6,33.48
	c0,0,3.76,27.58,84.98,43.07c0,0,1.96-3.31,0.24-5.27"/>
<path class="st12" d="M416.45,173.71c-75.24-14.35-75.56-39.33-75.56-39.33l5.56-31.02c4.67-26.02,31.15-43.32,65.22-44.39l1.06,0.6
	c17.35,23.58,18.17,50.56,18.17,50.56l-0.08,2.29c0,2.48-0.17,4.98-0.61,7.47l-6.02,33.31l0.02,0.17l-3.76,20.99L416.45,173.71z"/>
<path class="st13" d="M772.71,690.64c-0.21-33.37-0.48-66.48,1.99-99.78c-0.44-6.08-1.03-12.19-0.71-18.15
	c0.15-2.76,0.61-5.52,1.14-8.26c-1.34-2.3-2.17-4.94-2.34-7.6c-0.05-0.77-0.04-1.51-0.01-2.25c-0.02-13.27-0.16-26.54-0.05-39.8
	c0.06-6.89,0.15-13.78,0.44-20.66c0.13-3.02,0.55-6.03,1-8.95c-5.8-11.02-2.37-24.91-2.16-36.73c0.16-9.35-0.49-18.73-0.69-28.08
	c-0.18-8.32,0.71-16.51,0.99-24.78c-3.71-8.3-2.87-17.69-1.33-27.01c0.34-2.04,0.74-4.06,1.12-6.09c0.19-1.01,0.36-2.03,0.56-3.04
	c-0.06-2.97,0.06-5.98,0.19-8.98L558.96,506.39c-1.97,1.43-3.17,3.76-3.23,6.27l-1.45,60.5c-0.08,3.42,1.96,6.5,5.05,7.63
	l26.25,9.59c1.42,0.52,2.67,1.45,3.57,2.71c46.7,65.35,52.84,200.17,52.98,263.7c12.04-0.1,24.08-0.24,36.11-0.48
	c20.12-0.4,40.29-0.11,60.4-0.73c2.15-0.07,4.29-0.17,6.43-0.29c0.68-0.52,1.41-0.99,2.23-1.34c2.65-1.15,5.23-2.41,7.69-3.93
	c0.94-0.58,1.85-1.19,2.75-1.82c0.25-0.2,0.85-0.66,1.26-1.05c1.78-1.63,3.41-3.35,5.02-5.15c0.16-0.18,0.3-0.34,0.42-0.46
	c0.09-0.17,0.21-0.37,0.38-0.65c0.56-0.93,1.2-1.82,1.76-2.76c1.08-1.79,2.04-3.65,2.93-5.54c-0.21,0.4,0.91-2.24,0.98-2.45
	c0.4-1.1,0.77-2.2,1.12-3.32c1.95-6.16,2.58-8.99,2.5-14.77c-0.08-5.98-0.67-11.91-0.49-17.88c-0.82-1.85-1.27-3.84-1.25-5.86
	c0.11-8.04,1.5-15.92,2.34-23.89c0.86-8.18,0.19-15.99-0.52-24.14C772.76,723.74,772.82,707.24,772.71,690.64z"/>
<path class="st17" d="M313.66,153.77l-40.22-12.18c-4.79-1.45-7.5-6.51-6.05-11.31l16.99-56.12c1.45-4.79,6.51-7.5,11.31-6.05
	l40.22,12.18c4.79,1.45,7.5,6.51,6.05,11.31l-16.99,56.12C323.52,152.51,318.46,155.22,313.66,153.77z"/>
<path class="st17" d="M323.06,76.4c0,0,28.18-25.92,48.13-41.6l-10.62-1.97c-20.6,2.31-52.02,39.17-52.02,39.17"/>
<path class="st1" d="M549.06,760.23c-24.3,5.03-48.07-10.6-53.1-34.9l-98.5-476.22c-5.03-24.3,10.6-48.07,34.9-53.1l36.45-7.54
	c24.3-5.03,48.07,10.6,53.1,34.9l98.5,476.22"/>
<path class="st1" d="M543.81,760.79h231.21c0.37-6.88-0.19-13.57-0.8-20.5c-1.46-16.55-1.4-33.05-1.51-49.65
	c-0.12-19.03-0.26-37.98,0.1-56.93h-229"/>
<path class="st2" d="M773.34,615.25l-26.62-23.69c0,0-129.7-4.84-120.44,29.05c9.26,33.89,133.96,32.27,133.96,32.27l12.39-6.2
	C772.73,636.2,772.93,625.73,773.34,615.25z"/>
<path class="st1" d="M772.72,782.11c0.48-5.91,1.4-11.77,2.02-17.68c0.11-1.04,0.19-2.07,0.26-3.1l-158.81,0.4
	c18.25,40.12,7.1,72.83-8.17,95.21c23.41-0.03,46.82-0.17,70.23-0.63c20.12-0.4,40.29-0.11,60.4-0.73c2.15-0.07,4.29-0.17,6.43-0.29
	c0.68-0.52,1.41-0.99,2.23-1.34c2.65-1.15,5.23-2.41,7.69-3.93c0.94-0.58,1.85-1.19,2.75-1.82c0.25-0.2,0.85-0.66,1.26-1.05
	c1.78-1.63,3.41-3.35,5.02-5.15c0.16-0.18,0.3-0.34,0.42-0.46c0.09-0.17,0.21-0.37,0.38-0.65c0.56-0.93,1.2-1.82,1.76-2.76
	c1.08-1.79,2.04-3.65,2.93-5.54c-0.21,0.4,0.91-2.24,0.98-2.45c0.4-1.1,0.77-2.2,1.12-3.32c0.71-2.25,1.25-4.06,1.64-5.72
	C770.45,809.43,769.81,796.38,772.72,782.11z"/>
<path class="st14" d="M646.52,772.23"/>
<path class="st3" d="M765.4,171.87"/>
<path class="st4" d="M774.28,226.7c-16.67-13.32-84.77-36.48-84.77-36.48s-36.62-10.3-39.95,0.13s-2.2,19.64-2.2,19.64
	s-5.7,8.56-2.76,7.37c28.64-11.62,103.98,21.61,112.52,28c8.54,6.39,9.11,3.46,9.11,3.46l7.99-11.37
	C774.17,233.87,774.2,230.29,774.28,226.7z"/>
<polyline class="st2" points="752.49,229.9 666.5,202.17 665.86,191.81 750.14,191.92 750.38,195.77 752.49,229.9 "/>
<path class="st5" d="M771.71,151.58L622.91,120.1l-10.08,47.75l162.51,34.38c0.01-0.16,0.01-0.32,0.02-0.48
	C770.41,185.88,771.04,168.07,771.71,151.58z"/>
<path class="st10" d="M700.81,164.45"/>
<path class="st15" d="M721.65,67.26"/>
<path class="st15" d="M721.65,67.26"/>
<path class="st2" d="M774,572.7c0.15-2.76,0.61-5.52,1.14-8.26c-1.34-2.3-2.17-4.94-2.34-7.6c-0.05-0.77-0.04-1.51-0.01-2.25
	c-0.02-11.57-0.12-23.13-0.07-34.7c-18.26-0.53-31.08-0.44-31.08-0.44c12.29,48.18,7.11,133.43,7.11,133.43l3.19,0.59
	c5.03,0.89,12.17,2.11,20.65,3.43c0.04-22.02,0.48-43.99,2.12-66.04C774.27,584.78,773.68,578.67,774,572.7z"/>
<path class="st4" d="M757.24,372.96c0,0-58.36,14.73-127.42,8.07"/>
<path class="st11" d="M690.37,620.95c1.11-1.33,1.16-7.44,0.74-14.97"/>
<path class="st4" d="M775.14,564.45c-1.34-2.3-2.17-4.94-2.34-7.6c-0.05-0.77-0.04-1.51-0.01-2.25c-0.02-13.27-0.16-26.54-0.05-39.8
	c0.06-6.89,0.15-13.78,0.44-20.66c0.13-3.02,0.55-6.03,1-8.95c-5.8-11.02-2.37-24.91-2.16-36.73c0.16-9.35-0.49-18.73-0.69-28.08
	c-0.18-8.32,0.71-16.51,0.99-24.78c-3.71-8.3-2.87-17.69-1.33-27.01c0.34-2.04,0.74-4.06,1.12-6.09c0.19-1.01,0.36-2.03,0.56-3.04
	c-0.12-6.16,0.49-12.44,0.55-18.61c0.14-14.09,0.11-28.21-0.12-42.3c-0.22-13.2-0.88-26.39-0.37-39.59
	c-5.59-5.77-9.31-9.31-9.33-9.74c0,0-106.85-29.57-132.55-20.58c-25.7,8.99-46.99,90-36.14,120.2s13.05,179.86,13.05,179.86
	s-13.38,76.2-7.49,89.66c3.85,8.8,104.06,3.81,172.96-0.7c0.32-8.92,0.79-17.85,1.45-26.79c-0.44-6.08-1.03-12.19-0.71-18.15
	C774.15,569.94,774.61,567.18,775.14,564.45z"/>
<path class="st7" d="M771,368.58c0.34-2.04,0.74-4.06,1.12-6.09c0.19-0.98,0.35-1.97,0.55-2.95c-2.58-0.37-4.62-0.32-4.62-0.32
	s-5.2-7.08,4.67-5.35c0.01,0,0.01,0,0.02,0c0.14-4.34,0.45-8.71,0.49-13.03c0.05-5.4,0.07-10.8,0.08-16.21
	c-2.01-0.97-4.22-1.62-6.66-1.79c-15.2-1.06-15.42,7.14-15.42,7.14s1.36,3.89-7.28,11.22c-8.65,7.33-4.76,19.71-4.76,19.71
	s2.96,7.67,8.29,11.41c5.33,3.74,12.93-1.89,12.93-1.89s5.7-0.82,10.52-1.35C770.95,368.92,770.98,368.75,771,368.58z"/>
<path class="st7" d="M772.33,395.59c-3.15-7.05-3.02-14.88-1.96-22.79c-2.52,0.28-6.42,1.07-11.6,3.19
	c-9.76,3.99-7.2,15.37-7.2,15.37l0.16,0.67c-0.04,0-0.08,0-0.11,0c-2.17,0.12-4.27,4.89-4.27,4.89s-4.28,10.57,4.24,29.29
	c6.51,14.29,16.15,13.33,20.35,12.07c-0.17-5.97-0.47-11.95-0.6-17.91C771.16,412.06,772.04,403.87,772.33,395.59z"/>
<path class="st7" d="M772.74,514.79c0.06-6.81,0.15-13.63,0.43-20.44c-3.39,4.63-5.07,8.99-5.07,8.99s-2.96,7.61-3.19-0.32
	c-0.24-7.94,2.89-12.67,2.89-12.67s3.81-1.91,5.87-6.27c-3.23-6.95-3.09-14.93-2.5-22.79c-0.39-0.27-0.81-0.53-1.29-0.76
	c0,0-10.5-1.24-15.05-2.85c-4.55-1.61-9.63,1.31-9.63,1.31s-6.24,4.91-8.59,10.7c-2.35,5.79-1.71,7.31-1.71,7.31
	s-7.04,8.12-1.84,16.55c0,0,1.28,3.9,8.17,7.67c0,0,5.44,4.93,5.83,6.73c0.4,1.8,0.93,1.34,0.93,1.34s1.41-4-0.11-6.8
	c-1.51-2.8,1.26-1.06,1.26-1.06l4.24,11.14c0,0,2.08,3.53,2.62-0.89c0.54-4.42,0.41-12.22,0.41-12.22s2.09-7.12,3.17-0.08
	c1.09,7.05-0.65,17.34-0.65,17.34s-0.7,8.21,2.79,2.56c0,0,4.67-11.31,8.04-11.3c3.38,0,2.52,3.11,2.52,3.11l-7.14,8.68
	c0,0-3.4,6.93,2.9,2.66c0,0,1.63-1.99,4.69-4.02C772.73,517.21,772.73,516,772.74,514.79z"/>
<path class="st7" d="M772.7,525.09c-1.36,1.15-3.44,3.44,0.01,4.5C772.7,528.09,772.7,526.59,772.7,525.09z"/>
<path class="st7" d="M774,572.7c0.12-2.12,0.42-4.24,0.79-6.35c-9.12-0.04-13.52-11.13-13.52-11.13s-5.54-8.91-2.72,3.49
	c2.82,12.4,3.94,13.52,1.66,15.23c-2.27,1.71-5.64-10.65-5.64-10.65s1.55-11.37-2.08-11.14c-3.63,0.23-2.63,13.95-2.63,13.95
	l-1.35,15.2c0,0,0.18,16.56,10.42,21.22c9.12,4.15,10.7,3.22,15.09-1.12c0.2-3.52,0.43-7.03,0.69-10.55
	C774.27,584.78,773.68,578.67,774,572.7z"/>
<path class="st7" d="M769.36,541l0.43,0.04c0,0,6.23,1.13-1.16,4.95l-2.89-0.29c0,0-9.02-0.84-4.49,3.79
	c4.53,4.63,11.62,8.86,11.62,8.86s0.04,0.03,0.12,0.09c-0.09-0.53-0.16-1.07-0.19-1.6c-0.05-0.77-0.04-1.51-0.01-2.25
	c-0.01-6.53-0.05-13.07-0.07-19.6c-4.96,0.18-11.48,0.83-12.78,2.98C757.8,541.53,769.36,541,769.36,541z"/>
<path class="st8" d="M742.37,243.69c6.45,13.74,3.74,20.04,3.74,20.04s-4.89,11.97-18.05,2.27l-0.49-0.38c0,0-22.47,1.03-2.39,4.37
	c20.08,3.33,12.82,25.53,12.82,25.53s14.79,26.66-14.71,29.52l-0.52,0.15c0,0-22.38,14.89-23.95-17.06l-0.26-0.59
	c0,0-6.42-14.88-7.38-25.85c-0.96-10.97,3.62-1.22,3.62-1.22l4.81,11.57c5.43,6.1,3.98-0.29,3.98-0.29s-8.21-18.15-3.12-10.92
	c5.09,7.24,7.85,7.3,7.85,7.3c6.79,1.27-3.17-7.12-3.17-7.12c-6-6.79,6.1-0.8,6.1-0.8c11.48,9.1,8.44-1.94,8.44-1.94
	s-5.93-7.47-17.25-6.41c-11.32,1.06,4.52-9.98,4.52-9.98c13-2.77,10.69-3.9,10.69-3.9s0.23-7.81-11.29-2.16s-2.34-4.9-2.34-4.9
	s9.28-1.23,8.97-7.28s-13.85,3.77-13.85,3.77c-9.86,11.79-1.65-5.76-1.65-5.76s1.65-3.27,4.31-6.65"/>
<path class="st8" d="M718.85,491.11c36.21,19.82,36.66,47.67,36.66,47.67s-1.36,10.31-6.52,1.1c0,0-2.21-32.38-33.74-46.95
	c0,0,3.46,12.96-5.51,11.54c0,0-4.92,1.43-2.05-9.71c0,0-6.79,12.07-11.22,4.66c-4.43-7.42,7.66-12.3,7.66-12.3
	s-10.98-2.66-7.9-9.35c3.08-6.68,10.29-1.68,10.29-1.68l3.06,3.89c0,0,0.53-14.35,7.5-7.27c6.97,7.08-0.75,9.35-0.75,9.35
	s6.48-3.75,7.61,1.85s-4.58,6.81-4.58,6.81L718.85,491.11z"/>
<path class="st8" d="M722.97,604.43c0,0,25.14,9.53,19.55-21.97l0.12-0.63c0,0,2.95-15.94,1.44-26.85c-1.51-10.9-3.8-0.39-3.8-0.39
	l-2.12,12.35c-3.93,7.16-3.94,0.61-3.94,0.61s3.96-19.53,0.61-11.34c-3.35,8.19-6.02,8.86-6.02,8.86c-6.33,2.75,1.5-7.65,1.5-7.65
	c4.34-7.95-6.13,0.58-6.13,0.58c-9.16,11.42-8.66-0.01-8.66-0.01s4.12-8.6,15.39-10.09c11.27-1.49-6.63-8.72-6.63-8.72
	c-13.29,0.2-11.29-1.42-11.29-1.42s-1.96-7.56,10.53-4.62c12.49,2.94,1.19-5.3,1.19-5.3s-9.32,0.87-10.37-5.1
	c-1.04-5.97,14.34,0.59,14.34,0.59c12.24,9.3,0.32-5.99,0.32-5.99s-11.96-14.47-20.61-9.2c-8.65,5.27-10.89,4.69-10.89,4.69
	s-8.22,0.72-11.68,15.97c-3.45,15.24,0.7,20.92,0.7,20.92s7.44,10.58,18.11-1.81l0.39-0.48c0,0,22.14-4,3.3,3.72
	c-18.83,7.72-6.81,27.74-6.81,27.74s-8.48,29.29,20.92,25.5L722.97,604.43z"/>
<path class="st7" d="M670.64,229.09c0.19,0.03,0.01,0.39,0.01,0.61c0.26,7.13,3.89,16.91,3.89,16.91s2.23,7.93-2.25,3.04
	c0,0-6.71-10.23-10.02-9.59c-3.32,0.64-1.89,3.53-1.89,3.53l8.64,7.19c0,0,4.65,6.17-2.34,3.16c0,0-6.69-5.62-16.7-5.08
	c-10.01,0.54-3.35,6.27-3.35,6.27s10.74-2.75,14.96,1.77c0,0,6.4,2.71,1.63,5.04c0,0-3.83,0.51-5.34,0.32
	c-1.51-0.18-16.18,5.51-16.18,5.51s-6.14,7.19-12.17,4.76c-6.03-2.44-10.65-9.25-10.65-9.25s-6.58-11.18,0.19-20.27
	c3.69-4.95,4.72-8.24,4.88-10.21C623.97,232.8,631.59,223.57,670.64,229.09z"/>
<path class="st7" d="M681.05,231.09l-1.83,10.4c0,0-1.38,3.85-2.74-0.39c-1.08-3.36-2.14-8.89-2.53-11.04"/>
<path class="st7" d="M664.95,271.31c0,0-5.91,2.28,2.07,4.64l2.79-0.83c0,0,8.7-2.52,5.12,2.88c-3.58,5.4-9.75,10.88-9.75,10.88
	s-9.36,9.96-0.4,8.22s11.2-13.47,11.2-13.47s3.77-9.79,3.33,2.92c-0.44,12.71-1.33,14.02,1.23,15.27s3.54-11.52,3.54-11.52
	s-3.66-10.87-0.05-11.33c3.61-0.46,5.21,13.21,5.21,13.21l4.18,14.68c0,0,2.93,16.3-6.25,22.8c-9.18,6.5-10.21,4.93-17.07,0.36
	c0,0-11.88,10.4-24.41-5.91c-12.53-16.32-10.74-27.58-10.74-27.58s0.97-5.12,3.06-5.72c0.04-0.01,0.07-0.02,0.11-0.03l-0.3-0.62
	c0,0-5.07-10.51,3.55-16.6c8.61-6.09,13.87-6.59,13.87-6.59s16.05-3.61,18.82-0.53s-8.68,4.74-8.68,4.74L664.95,271.31z"/>
<path class="st8" d="M690.31,232.16c-12.29,17.6-10.55,32.54-10.55,32.54s2.7,10.05,6.61,0.24c0,0-1.01-15.88,8.47-31.79"/>
<path class="st9" d="M686.8,231.66c5.09,0.9,10.23,1.89,15.31,2.92"/>
<path class="st9" d="M673.91,229.55c4.21,0.62,8.53,1.34,12.89,2.11"/>
<path class="st7" d="M602.56,402.59c2.28,1.73,4.11,3.23,4.11,3.23s6.88,2.78,2.03-2.44c-1.78-1.92-4.15-3.81-6.42-5.43"/>
<path class="st7" d="M599.02,367.55c2.61-4.3,6.65-11.92,6.65-11.92s-0.07-9.46,6.09-11.56c6.16-2.1,14.1,0.03,14.1,0.03
	s12.29,4.15,13.12,15.46c0.82,11.31,4.77,12.5,4.77,12.5s6.5,5.01-3.32,16.67c-9.82,11.66-29.56,5.51-29.56,5.51s-7.81-2.4-1.73,2.7
	c6.08,5.11,11.73,5.59,11.73,5.59s7.71-3.63,14.61,2.44s11.4,8.47,10.08,14.42c0,0-5.54,9-7.09,13.58c-1.56,4.57-7,6.74-7,6.74
	s-7.72,1.86-13.72,0.11c-6-1.75-6.8-3.19-6.8-3.19s-2.89,0.13-6.14-1.04"/>
<path class="st16" d="M600.25,381.74c3.18-0.81,7.59-2.58,11.55-6.39c7.21-6.96-1.57-6.93-1.57-6.93s-4.77,6.88-10.06,8.25"/>
<path class="st16" d="M601.63,390.85c2.86,0.37,5.7,0.37,6.62-0.8c2.09-2.65-0.88-3.9-0.88-3.9l-6.12,0.12"/>
<path class="st7" d="M591.79,329.21c0.12,0.17,0.18,0.26,0.18,0.26s2.61,4.51,1.43,6.33c-0.02,0.03-0.04,0.06-0.07,0.09l0.63,0.27
	c0,0,10.71,4.63,8.18,14.87c-1.39,5.65-3.13,9.34-4.41,11.52"/>
<path class="st7" d="M600.04,589.82c0.55,0.08,1.49-0.4,3.04-1.86c0,0,4.35-7.58,13.94-10.51c9.59-2.93,5.3,4.74,5.3,4.74
	s-11.03,1.11-13.44,6.81c0,0-5.08,4.74,0.21,5.3c0,0,3.77-0.84,5.12-1.53c1.35-0.69,17.08-0.39,17.08-0.39s8.23,4.65,13.06,0.29
	c4.83-4.36,6.82-12.34,6.82-12.34s2.34-12.76-7.15-18.97c-9.48-6.21-8.61-10.24-8.61-10.24s-1.23-8.11-16.18-5.19
	c-8.41,1.65-13.42,8.77-16.2,14.69"/>
<path class="st7" d="M649.31,623.06c-0.68-3.99-1.8-6-1.8-6s-2.67-4.47-4.84-4.32c-0.04,0-0.08,0.01-0.11,0.01l0.07-0.68
	c0,0,1.15-11.61-9.03-14.37s-15.28-1.42-15.28-1.42s-16.32,2.12-17.85,5.97c-1.54,3.85,9.78,1.47,9.78,1.47l0.43-0.03
	c0,0,6.33,0.11-0.35,5.07l-2.9,0.18c0,0-9.04,0.63-3.82,4.47c5.22,3.84,12.89,6.87,12.89,6.87s1.94,0.97,3.7,2.24"/>
<path class="st16" d="M602.56,402.59c2.28,1.73,4.11,3.23,4.11,3.23s6.88,2.78,2.03-2.44c-1.78-1.92-4.15-3.81-6.42-5.43"/>
<path class="st9" d="M772.4,617.71C741.31,620,709.31,622,678.31,623c-23,0-46,1-70-1c-4-1-8-2-9-6c0-3-1-7-1-10c2-15,2-30,4-45
	c2-10,4-19,4-28c3-45-1-90-4-136c-2-21-5-41-10-61c-1-35,7-73,29-101c15-12,36-8,52.59-5.45"/>
<path class="st9" d="M702.11,234.59c15.2,4.42,31.2,5.42,46.2,11.42c9-1,18,3,23.22,11"/>
<path class="st2" d="M771,368.58c0.34-2.04,0.74-4.06,1.12-6.09c0.19-1.01,0.36-2.03,0.56-3.04c-0.12-6.16,0.49-12.44,0.55-18.61
	c0.14-14.09,0.11-28.21-0.12-42.3c-0.03-1.91-0.07-3.82-0.12-5.73c-2.66-0.66-4.18-1-4.18-1l-52.1,84.44
	c17.58,14.43,36.83,28.65,54.65,38.52c0.17-6.4,0.75-12.76,0.97-19.17C768.62,387.3,769.46,377.91,771,368.58z"/>
<path class="st4" d="M772.96,291c-0.11-4.52-0.24-9.03-0.32-13.54c-19.68-13.49-64.53-43.08-75.34-40.22
	c0,0-64.57-12.72-75.54,57.31c0,0-9.84,38.75,44.76,64.39l48.11,31.67C710.22,386.86,744.39,317.71,772.96,291z"/>
<path class="st4" d="M635.73,228.33c-2.94,1.19,2.76-7.37,2.76-7.37s-1.14-9.21,2.2-19.64s39.95-0.13,39.95-0.13
	s97.88,33.28,87.69,43l-10.97,15.6c0,0-0.58,2.92-9.11-3.46C739.71,249.94,664.37,216.71,635.73,228.33z"/>
<path class="st8" d="M772.87,287.65c-1.66,0.26-3.02,0.52-3.02,0.52s-6.46-1.07,1.24-3.79l1.69-0.01c-0.05-2.02-0.1-4.03-0.14-6.05
	c-8.07-0.91-15.52-0.77-15.52-0.77l-0.64,0.02c-30.18-10.61-24.84,15.74-24.84,15.74l-0.06,0.54c-7.3,24.41,14.03,25.16,20.17,24.88
	c0,0,12.29-16.79,21.24-25.92C772.96,291.09,772.92,289.37,772.87,287.65z"/>
<path class="st10" d="M771.88,147.26c0.84-21.67,3.41-43.3,2.34-64.95c-1.12-3.98-1.13-8.22-1.04-12.43
	c0.06-2.64,0.74-5.06,1.91-7.16c-0.55-2.66-1.04-5.34-1.31-8.04c-10.13-9.62-24.11-17.76-43.42-21.89
	c-70.12-14.7-98.59,47.06-98.59,47.06l-0.37,0.97c-1.13,2.55-2.05,5.19-2.66,7.96l-7.04,31.98l-8.84,40.15l160.71,34
	C770.28,179.44,771.28,162.64,771.88,147.26z"/>
<path class="st10" d="M774,196.82c-13.1-0.59-39.4-2.84-76.47-11.06l-1.63-0.34c-54.9-11.06-83.04-24.51-83.04-24.51l-1.16,5.27
	c0,0-1.96,3.7,4.75,6.83c8.37,3.91,28.25,12.24,77.87,23.44c49.9,9.86,71.52,10.31,80.8,10.13c0.08-1.63,0.15-3.25,0.23-4.88
	C774.85,200.1,774.4,198.47,774,196.82z"/>
<path class="st10" d="M771.88,147.26c0.84-21.67,3.41-43.3,2.34-64.95c-1.12-3.98-1.13-8.22-1.04-12.43
	c0.06-2.64,0.74-5.06,1.91-7.16c-0.5-2.41-0.93-4.83-1.22-7.26c-32.45,3.81-58.03,21.94-62.63,47.61l-6,33.48
	c0,0,3.17,23.14,66.13,38.93C771.03,165.96,771.52,156.36,771.88,147.26z"/>
<path class="st12" d="M771.88,147.26c0.84-21.67,3.41-43.3,2.34-64.95c-1.12-3.98-1.13-8.22-1.04-12.43
	c0.06-2.64,0.74-5.06,1.91-7.16c-0.22-1.09-0.43-2.18-0.63-3.27c-30.54,3.13-53.67,19.75-58,43.9l-5.56,31.02
	c0,0,0.28,21.49,60.37,36.06C771.2,162.58,771.59,154.75,771.88,147.26z"/>
<path class="st17" d="M683.66,153.77l-40.22-12.18c-4.79-1.45-7.5-6.51-6.05-11.31l16.99-56.12c1.45-4.79,6.51-7.5,11.31-6.05
	l40.22,12.18c4.79,1.45,7.5,6.51,6.05,11.31l-16.99,56.12C693.52,152.51,688.46,155.22,683.66,153.77z"/>
<path class="st17" d="M693.06,76.4c0,0,28.18-25.92,48.13-41.6l-10.62-1.97c-20.6,2.31-52.02,39.17-52.02,39.17"/>
<path class="st18" d="M730.98,857.15H58.9c-23.24,0-42.07-18.84-42.07-42.07V48.12c0-23.24,18.84-42.07,42.07-42.07h672.09
	c23.24,0,42.07,18.84,42.07,42.07v766.96C773.06,838.31,754.22,857.15,730.98,857.15z"/>
</svg>
