<?xml version="1.0" encoding="utf-8"?>
<!-- Generator: Adobe Illustrator 27.1.1, SVG Export Plug-In . SVG Version: 6.00 Build 0)  -->
<svg version="1.1" id="Layer_1" xmlns="http://www.w3.org/2000/svg" xmlns:xlink="http://www.w3.org/1999/xlink" x="0px" y="0px"
	 viewBox="0 0 1944 576" style="enable-background:new 0 0 1944 576;" xml:space="preserve">
<style type="text/css">
	.st0{fill:#3E1D0D;stroke:#984C1E;stroke-width:5;stroke-miterlimit:10;}
	.st1{fill:#FFF1E7;}
	.st2{fill:#FFF1E9;stroke:#B1AE9C;stroke-width:3;stroke-linecap:round;stroke-linejoin:round;stroke-miterlimit:10;}
	.st3{fill:none;stroke:#B1AE9C;stroke-width:3;stroke-linecap:round;stroke-linejoin:round;stroke-miterlimit:10;}
	.st4{fill:#B1AE9C;stroke:#B1AE9C;stroke-width:7;stroke-linecap:round;stroke-linejoin:round;stroke-miterlimit:10;}
	.st5{fill:#EFE8CC;stroke:#B1AE9C;stroke-width:3;stroke-miterlimit:10;}
	.st6{fill:#B1AE9C;stroke:#B1AE9C;stroke-width:2;stroke-linecap:round;stroke-linejoin:round;stroke-miterlimit:10;}
	.st7{fill:#FFF1E9;stroke:#B1AE9C;stroke-width:7;stroke-linecap:round;stroke-linejoin:round;stroke-miterlimit:10;}
	.st8{fill:#984C1E;}
</style>
<path class="st0" d="M1889.79,568.73H55.21c-23.24,0-42.07-18.84-42.07-42.07V50.34c0-23.24,18.84-42.07,42.07-42.07h1834.57
	c23.24,0,42.07,18.84,42.07,42.07v476.32C1931.86,549.9,1913.02,568.73,1889.79,568.73z"/>
<g>
	<g>
		<path class="st1" d="M82.1,172.13c3.22,0,3.22-5,0-5C78.88,167.13,78.87,172.13,82.1,172.13L82.1,172.13z"/>
	</g>
</g>
<g>
	<g>
		<path class="st1" d="M109.82,92.83c3.22,0,3.22-5,0-5C106.6,87.83,106.6,92.83,109.82,92.83L109.82,92.83z"/>
	</g>
</g>
<g>
	<g>
		<path class="st1" d="M765.33,325.32c3.22,0,3.22-5,0-5C762.11,320.32,762.11,325.32,765.33,325.32L765.33,325.32z"/>
	</g>
</g>
<g>
	<g>
		<path class="st1" d="M278.18,64.9c3.22,0,3.22-5,0-5C274.96,59.9,274.96,64.9,278.18,64.9L278.18,64.9z"/>
	</g>
</g>
<g>
	<g>
		<path class="st1" d="M357.84,282.43c3.22,0,3.22-5,0-5C354.62,277.43,354.62,282.43,357.84,282.43L357.84,282.43z"/>
	</g>
</g>
<g>
	<g>
		<path class="st1" d="M381.17,34.38c3.22,0,3.22-5,0-5C377.96,29.38,377.95,34.38,381.17,34.38L381.17,34.38z"/>
	</g>
</g>
<g>
	<g>
		<path class="st1" d="M253.67,506.9c3.22,0,3.22-5,0-5C250.45,501.9,250.45,506.9,253.67,506.9L253.67,506.9z"/>
	</g>
</g>
<g>
	<g>
		<path class="st1" d="M802.1,429.49c3.22,0,3.22-5,0-5C798.88,424.49,798.87,429.49,802.1,429.49L802.1,429.49z"/>
	</g>
</g>
<g>
	<g>
		<path class="st1" d="M808.22,190.52c3.22,0,3.22-5,0-5C805.01,185.52,805,190.52,808.22,190.52L808.22,190.52z"/>
	</g>
</g>
<g>
	<g>
		<path class="st1" d="M673.41,230.34c3.22,0,3.22-5,0-5C670.2,225.34,670.19,230.34,673.41,230.34L673.41,230.34z"/>
	</g>
</g>
<g>
	<g>
		<path class="st1" d="M664.22,74.09c3.22,0,3.22-5,0-5C661.01,69.09,661,74.09,664.22,74.09L664.22,74.09z"/>
	</g>
</g>
<g>
	<g>
		<path class="st1" d="M158.98,304.19c3.22,0,3.22-5,0-5C155.76,299.19,155.76,304.19,158.98,304.19L158.98,304.19z"/>
	</g>
</g>
<g>
	<g>
		<path class="st1" d="M553.93,178.26c3.22,0,3.22-5,0-5C550.71,173.26,550.7,178.26,553.93,178.26L553.93,178.26z"/>
	</g>
</g>
<g>
	<g>
		<path class="st1" d="M314.95,184.39c3.22,0,3.22-5,0-5C311.73,179.39,311.72,184.39,314.95,184.39L314.95,184.39z"/>
	</g>
</g>
<g>
	<g>
		<path class="st1" d="M464.4,30.13c3.22,0,3.22-5,0-5C461.18,25.13,461.18,30.13,464.4,30.13L464.4,30.13z"/>
	</g>
</g>
<g>
	<g>
		<path class="st1" d="M92.79,35.54c3.22,0,3.22-5,0-5C89.57,30.54,89.56,35.54,92.79,35.54L92.79,35.54z"/>
	</g>
</g>
<g>
	<g>
		<path class="st1" d="M213.84,156.81c3.22,0,3.22-5,0-5C210.62,151.81,210.62,156.81,213.84,156.81L213.84,156.81z"/>
	</g>
</g>
<g>
	<g>
		<path class="st1" d="M600.66,475.29c3.22,0,3.22-5,0-5C597.44,470.29,597.43,475.29,600.66,475.29L600.66,475.29z"/>
	</g>
</g>
<g>
	<g>
		<path class="st1" d="M817.41,487.71c3.22,0,3.22-5,0-5C814.2,482.71,814.19,487.71,817.41,487.71L817.41,487.71z"/>
	</g>
</g>
<g>
	<g>
		<path class="st1" d="M737.76,31.2c3.22,0,3.22-5,0-5C734.54,26.2,734.53,31.2,737.76,31.2L737.76,31.2z"/>
	</g>
</g>
<g>
	<g>
		<path class="st1" d="M397.67,98.6c3.22,0,3.22-5,0-5C394.45,93.6,394.45,98.6,397.67,98.6L397.67,98.6z"/>
	</g>
</g>
<g>
	<g>
		<path class="st1" d="M313.43,111.42c3.22,0,3.22-5,0-5C310.21,106.42,310.21,111.42,313.43,111.42L313.43,111.42z"/>
	</g>
</g>
<g>
	<g>
		<path class="st1" d="M768.39,545.92c3.22,0,3.22-5,0-5C765.18,540.92,765.17,545.92,768.39,545.92L768.39,545.92z"/>
	</g>
</g>
<g>
	<g>
		<path class="st1" d="M136.99,353.41c3.22,0,3.22-5,0-5C133.77,348.41,133.77,353.41,136.99,353.41L136.99,353.41z"/>
	</g>
</g>
<g>
	<g>
		<path class="st1" d="M236.79,104.45c3.22,0,3.22-5,0-5C233.57,99.45,233.56,104.45,236.79,104.45L236.79,104.45z"/>
	</g>
</g>
<g>
	<g>
		<path class="st1" d="M108.27,408.71c3.22,0,3.22-5,0-5C105.05,403.71,105.05,408.71,108.27,408.71L108.27,408.71z"/>
	</g>
</g>
<g>
	<g>
		<path class="st1" d="M79.03,251.79c3.22,0,3.22-5,0-5C75.81,246.79,75.81,251.79,79.03,251.79L79.03,251.79z"/>
	</g>
</g>
<g>
	<g>
		<path class="st1" d="M682.44,374.9c3.22,0,3.22-5,0-5C679.22,369.9,679.22,374.9,682.44,374.9L682.44,374.9z"/>
	</g>
</g>
<g>
	<g>
		<path class="st1" d="M204.65,401.92c3.22,0,3.22-5,0-5C201.43,396.92,201.43,401.92,204.65,401.92L204.65,401.92z"/>
	</g>
</g>
<g>
	<g>
		<path class="st1" d="M331.16,510.81c3.22,0,3.22-5,0-5C327.94,505.81,327.94,510.81,331.16,510.81L331.16,510.81z"/>
	</g>
</g>
<g>
	<g>
		<path class="st1" d="M314.95,331.45c3.22,0,3.22-5,0-5C311.73,326.45,311.72,331.45,314.95,331.45L314.95,331.45z"/>
	</g>
</g>
<g>
	<g>
		<path class="st1" d="M256.73,365.15c3.22,0,3.22-5,0-5C253.52,360.15,253.51,365.15,256.73,365.15L256.73,365.15z"/>
	</g>
</g>
<g>
	<g>
		<path class="st1" d="M223.03,319.2c3.22,0,3.22-5,0-5C219.81,314.2,219.81,319.2,223.03,319.2L223.03,319.2z"/>
	</g>
</g>
<g>
	<g>
		<path class="st1" d="M232.22,239.54c3.22,0,3.22-5,0-5C229.01,234.54,229,239.54,232.22,239.54L232.22,239.54z"/>
	</g>
</g>
<g>
	<g>
		<path class="st1" d="M681.07,136.9c3.22,0,3.22-5,0-5C677.86,131.9,677.85,136.9,681.07,136.9L681.07,136.9z"/>
	</g>
</g>
<g>
	<g>
		<path class="st1" d="M785.24,71.03c3.22,0,3.22-5,0-5C782.03,66.03,782.02,71.03,785.24,71.03L785.24,71.03z"/>
	</g>
</g>
<g>
	<g>
		<path class="st1" d="M629.3,48.71c3.22,0,3.22-5,0-5C626.09,43.71,626.08,48.71,629.3,48.71L629.3,48.71z"/>
	</g>
</g>
<g>
	<g>
		<path class="st1" d="M754.72,480.71c3.22,0,3.22-5,0-5C751.5,475.71,751.5,480.71,754.72,480.71L754.72,480.71z"/>
	</g>
</g>
<g>
	<g>
		<path class="st1" d="M451.8,264.56c3.22,0,3.22-5,0-5C448.58,259.56,448.58,264.56,451.8,264.56L451.8,264.56z"/>
	</g>
</g>
<g>
	<g>
		<path class="st1" d="M424.22,154.26c3.22,0,3.22-5,0-5C421.01,149.26,421,154.26,424.22,154.26L424.22,154.26z"/>
	</g>
</g>
<g>
	<g>
		<path class="st1" d="M506.95,108.3c3.22,0,3.22-5,0-5C503.73,103.3,503.72,108.3,506.95,108.3L506.95,108.3z"/>
	</g>
</g>
<g>
	<g>
		<path class="st1" d="M503.88,250.77c3.22,0,3.22-5,0-5C500.67,245.77,500.66,250.77,503.88,250.77L503.88,250.77z"/>
	</g>
</g>
<g>
	<g>
		<path class="st1" d="M598.86,256.9c3.22,0,3.22-5,0-5C595.64,251.9,595.64,256.9,598.86,256.9L598.86,256.9z"/>
	</g>
</g>
<g>
	<g>
		<path class="st1" d="M649.41,338.09c3.22,0,3.22-5,0-5C646.2,333.09,646.19,338.09,649.41,338.09L649.41,338.09z"/>
	</g>
</g>
<g>
	<g>
		<path class="st1" d="M742.86,255.37c3.22,0,3.22-5,0-5C739.64,250.37,739.64,255.37,742.86,255.37L742.86,255.37z"/>
	</g>
</g>
<g>
	<g>
		<path class="st1" d="M816.39,359.54c3.22,0,3.22-5,0-5C813.18,354.54,813.17,359.54,816.39,359.54L816.39,359.54z"/>
	</g>
</g>
<g>
	<g>
		<path class="st1" d="M834.78,238.52c3.22,0,3.22-5,0-5C831.56,233.52,831.55,238.52,834.78,238.52L834.78,238.52z"/>
	</g>
</g>
<g>
	<g>
		<path class="st1" d="M85.04,555.8c3.22,0,3.22-5,0-5C81.83,550.8,81.82,555.8,85.04,555.8L85.04,555.8z"/>
	</g>
</g>
<g>
	<g>
		<path class="st1" d="M404.01,197.35c3.22,0,3.22-5,0-5C400.79,192.35,400.79,197.35,404.01,197.35L404.01,197.35z"/>
	</g>
</g>
<g>
	<g>
		<path class="st1" d="M476.01,364.58c3.22,0,3.22-5,0-5C472.79,359.58,472.79,364.58,476.01,364.58L476.01,364.58z"/>
	</g>
</g>
<g>
	<g>
		<path class="st1" d="M150.85,146.25c3.22,0,3.22-5,0-5C147.63,141.25,147.63,146.25,150.85,146.25L150.85,146.25z"/>
	</g>
</g>
<g>
	<g>
		<path class="st1" d="M425.76,362.6c3.22,0,3.22-5,0-5C422.54,357.6,422.53,362.6,425.76,362.6L425.76,362.6z"/>
	</g>
</g>
<g>
	<g>
		<path class="st1" d="M585.07,298.26c3.22,0,3.22-5,0-5C581.86,293.26,581.85,298.26,585.07,298.26L585.07,298.26z"/>
	</g>
</g>
<g>
	<g>
		<path class="st1" d="M537.59,448.39c3.22,0,3.22-5,0-5C534.37,443.39,534.36,448.39,537.59,448.39L537.59,448.39z"/>
	</g>
</g>
<g>
	<g>
		<path class="st1" d="M401.24,380.98c3.22,0,3.22-5,0-5C398.03,375.98,398.02,380.98,401.24,380.98L401.24,380.98z"/>
	</g>
</g>
<g>
	<g>
		<path class="st1" d="M571.29,364.13c3.22,0,3.22-5,0-5C568.07,359.13,568.06,364.13,571.29,364.13L571.29,364.13z"/>
	</g>
</g>
<g>
	<g>
		<path class="st1" d="M825.17,34c3.22,0,3.22-5,0-5C821.96,29,821.95,34,825.17,34L825.17,34z"/>
	</g>
</g>
<g>
	<g>
		<path class="st1" d="M418.1,428.47c3.22,0,3.22-5,0-5C414.88,423.47,414.87,428.47,418.1,428.47L418.1,428.47z"/>
	</g>
</g>
<g>
	<g>
		<path class="st1" d="M343.03,405.49c3.22,0,3.22-5,0-5C339.81,400.49,339.81,405.49,343.03,405.49L343.03,405.49z"/>
	</g>
</g>
<g>
	<g>
		<path class="st1" d="M433.43,527.93c3.22,0,3.22-5,0-5C430.21,522.93,430.21,527.93,433.43,527.93L433.43,527.93z"/>
	</g>
</g>
<g>
	<g>
		<path class="st1" d="M597.56,546.51c3.22,0,3.22-5,0-5C594.34,541.51,594.34,546.51,597.56,546.51L597.56,546.51z"/>
	</g>
</g>
<g>
	<g>
		<path class="st1" d="M626.44,426.94c3.22,0,3.22-5,0-5C623.22,421.94,623.21,426.94,626.44,426.94L626.44,426.94z"/>
	</g>
</g>
<g>
	<g>
		<path class="st1" d="M702.85,314.25c3.22,0,3.22-5,0-5C699.63,309.25,699.63,314.25,702.85,314.25L702.85,314.25z"/>
	</g>
</g>
<g>
	<g>
		<path class="st1" d="M729.07,434.6c3.22,0,3.22-5,0-5C725.86,429.6,725.85,434.6,729.07,434.6L729.07,434.6z"/>
	</g>
</g>
<g>
	<g>
		<path class="st1" d="M695.37,529.58c3.22,0,3.22-5,0-5C692.16,524.58,692.15,529.58,695.37,529.58L695.37,529.58z"/>
	</g>
</g>
<g>
	<g>
		<path class="st1" d="M536.05,514.26c3.22,0,3.22-5,0-5C532.84,509.26,532.83,514.26,536.05,514.26L536.05,514.26z"/>
	</g>
</g>
<g>
	<g>
		<path class="st1" d="M685.82,473.74c3.22,0,3.22-5,0-5C682.6,468.74,682.6,473.74,685.82,473.74L685.82,473.74z"/>
	</g>
</g>
<g>
	<g>
		<path class="st1" d="M495.37,549.61c3.22,0,3.22-5,0-5C492.15,544.61,492.14,549.61,495.37,549.61L495.37,549.61z"/>
	</g>
</g>
<g>
	<g>
		<path class="st1" d="M474.78,468.3c3.22,0,3.22-5,0-5C471.56,463.3,471.55,468.3,474.78,468.3L474.78,468.3z"/>
	</g>
</g>
<g>
	<g>
		<path class="st1" d="M216.66,558.9c3.22,0,3.22-5,0-5C213.44,553.9,213.43,558.9,216.66,558.9L216.66,558.9z"/>
	</g>
</g>
<g>
	<g>
		<path class="st1" d="M350.59,555.03c3.22,0,3.22-5,0-5C347.38,550.03,347.37,555.03,350.59,555.03L350.59,555.03z"/>
	</g>
</g>
<g>
	<g>
		<path class="st1" d="M168.39,520.39c3.22,0,3.22-5,0-5C165.18,515.39,165.17,520.39,168.39,520.39L168.39,520.39z"/>
	</g>
</g>
<g>
	<g>
		<path class="st1" d="M105.59,456.05c3.22,0,3.22-5,0-5C102.37,451.05,102.36,456.05,105.59,456.05L105.59,456.05z"/>
	</g>
</g>
<g>
	<g>
		<path class="st1" d="M107.12,500.47c3.22,0,3.22-5,0-5C103.9,495.47,103.89,500.47,107.12,500.47L107.12,500.47z"/>
	</g>
</g>
<g>
	<g>
		<path class="st1" d="M374.82,438.43c3.22,0,3.22-5,0-5C371.6,433.43,371.6,438.43,374.82,438.43L374.82,438.43z"/>
	</g>
</g>
<g>
	<g>
		<path class="st1" d="M160.73,221.66c3.22,0,3.22-5,0-5C157.52,216.66,157.51,221.66,160.73,221.66L160.73,221.66z"/>
	</g>
</g>
<g>
	<g>
		<path class="st1" d="M323.12,221.66c3.22,0,3.22-5,0-5C319.9,216.66,319.89,221.66,323.12,221.66L323.12,221.66z"/>
	</g>
</g>
<g>
	<g>
		<path class="st1" d="M439.54,230.86c3.22,0,3.22-5,0-5C436.33,225.86,436.32,230.86,439.54,230.86L439.54,230.86z"/>
	</g>
</g>
<g>
	<g>
		<path class="st1" d="M192.66,36.64c3.22,0,3.22-5,0-5C189.44,31.64,189.43,36.64,192.66,36.64L192.66,36.64z"/>
	</g>
</g>
<g>
	<g>
		<path class="st1" d="M1622.52,172.13c3.22,0,3.22-5,0-5C1619.3,167.13,1619.3,172.13,1622.52,172.13L1622.52,172.13z"/>
	</g>
</g>
<g>
	<g>
		<path class="st1" d="M1594.8,92.83c3.22,0,3.22-5,0-5C1591.58,87.83,1591.58,92.83,1594.8,92.83L1594.8,92.83z"/>
	</g>
</g>
<g>
	<g>
		<path class="st1" d="M939.29,325.32c3.22,0,3.22-5,0-5C936.07,320.32,936.06,325.32,939.29,325.32L939.29,325.32z"/>
	</g>
</g>
<g>
	<g>
		<path class="st1" d="M1426.44,64.9c3.22,0,3.22-5,0-5C1423.22,59.9,1423.21,64.9,1426.44,64.9L1426.44,64.9z"/>
	</g>
</g>
<g>
	<g>
		<path class="st1" d="M1346.78,282.43c3.22,0,3.22-5,0-5C1343.56,277.43,1343.55,282.43,1346.78,282.43L1346.78,282.43z"/>
	</g>
</g>
<g>
	<g>
		<path class="st1" d="M1323.44,34.38c3.22,0,3.22-5,0-5C1320.23,29.38,1320.22,34.38,1323.44,34.38L1323.44,34.38z"/>
	</g>
</g>
<g>
	<g>
		<path class="st1" d="M1450.95,506.9c3.22,0,3.22-5,0-5C1447.73,501.9,1447.72,506.9,1450.95,506.9L1450.95,506.9z"/>
	</g>
</g>
<g>
	<g>
		<path class="st1" d="M902.52,429.49c3.22,0,3.22-5,0-5C899.3,424.49,899.3,429.49,902.52,429.49L902.52,429.49z"/>
	</g>
</g>
<g>
	<g>
		<path class="st1" d="M896.39,190.52c3.22,0,3.22-5,0-5C893.18,185.52,893.17,190.52,896.39,190.52L896.39,190.52z"/>
	</g>
</g>
<g>
	<g>
		<path class="st1" d="M1031.2,230.34c3.22,0,3.22-5,0-5C1027.98,225.34,1027.98,230.34,1031.2,230.34L1031.2,230.34z"/>
	</g>
</g>
<g>
	<g>
		<path class="st1" d="M1040.39,74.09c3.22,0,3.22-5,0-5C1037.18,69.09,1037.17,74.09,1040.39,74.09L1040.39,74.09z"/>
	</g>
</g>
<g>
	<g>
		<path class="st1" d="M1545.64,304.19c3.22,0,3.22-5,0-5C1542.42,299.19,1542.41,304.19,1545.64,304.19L1545.64,304.19z"/>
	</g>
</g>
<g>
	<g>
		<path class="st1" d="M1150.69,178.26c3.22,0,3.22-5,0-5C1147.47,173.26,1147.47,178.26,1150.69,178.26L1150.69,178.26z"/>
	</g>
</g>
<g>
	<g>
		<path class="st1" d="M1389.67,184.39c3.22,0,3.22-5,0-5C1386.45,179.39,1386.45,184.39,1389.67,184.39L1389.67,184.39z"/>
	</g>
</g>
<g>
	<g>
		<path class="st1" d="M1240.22,30.13c3.22,0,3.22-5,0-5C1237,25.13,1237,30.13,1240.22,30.13L1240.22,30.13z"/>
	</g>
</g>
<g>
	<g>
		<path class="st1" d="M1611.83,35.54c3.22,0,3.22-5,0-5C1608.61,30.54,1608.61,35.54,1611.83,35.54L1611.83,35.54z"/>
	</g>
</g>
<g>
	<g>
		<path class="st1" d="M1490.78,156.81c3.22,0,3.22-5,0-5C1487.56,151.81,1487.55,156.81,1490.78,156.81L1490.78,156.81z"/>
	</g>
</g>
<g>
	<g>
		<path class="st1" d="M1103.96,475.29c3.22,0,3.22-5,0-5C1100.74,470.29,1100.74,475.29,1103.96,475.29L1103.96,475.29z"/>
	</g>
</g>
<g>
	<g>
		<path class="st1" d="M887.2,487.71c3.22,0,3.22-5,0-5C883.98,482.71,883.98,487.71,887.2,487.71L887.2,487.71z"/>
	</g>
</g>
<g>
	<g>
		<path class="st1" d="M966.86,31.2c3.22,0,3.22-5,0-5C963.64,26.2,963.64,31.2,966.86,31.2L966.86,31.2z"/>
	</g>
</g>
<g>
	<g>
		<path class="st1" d="M1306.95,98.6c3.22,0,3.22-5,0-5C1303.73,93.6,1303.72,98.6,1306.95,98.6L1306.95,98.6z"/>
	</g>
</g>
<g>
	<g>
		<path class="st1" d="M1391.19,111.42c3.22,0,3.22-5,0-5C1387.97,106.42,1387.96,111.42,1391.19,111.42L1391.19,111.42z"/>
	</g>
</g>
<g>
	<g>
		<path class="st1" d="M936.22,545.92c3.22,0,3.22-5,0-5C933.01,540.92,933,545.92,936.22,545.92L936.22,545.92z"/>
	</g>
</g>
<g>
	<g>
		<path class="st1" d="M1469.33,435.62c3.22,0,3.22-5,0-5C1466.11,430.62,1466.11,435.62,1469.33,435.62L1469.33,435.62z"/>
	</g>
</g>
<g>
	<g>
		<path class="st1" d="M1467.83,104.45c3.22,0,3.22-5,0-5C1464.61,99.45,1464.61,104.45,1467.83,104.45L1467.83,104.45z"/>
	</g>
</g>
<g>
	<g>
		<path class="st1" d="M1596.35,408.71c3.22,0,3.22-5,0-5C1593.13,403.71,1593.12,408.71,1596.35,408.71L1596.35,408.71z"/>
	</g>
</g>
<g>
	<g>
		<path class="st1" d="M1625.59,251.79c3.22,0,3.22-5,0-5C1622.37,246.79,1622.36,251.79,1625.59,251.79L1625.59,251.79z"/>
	</g>
</g>
<g>
	<g>
		<path class="st1" d="M1022.18,374.9c3.22,0,3.22-5,0-5C1018.96,369.9,1018.95,374.9,1022.18,374.9L1022.18,374.9z"/>
	</g>
</g>
<g>
	<g>
		<path class="st1" d="M1499.97,401.92c3.22,0,3.22-5,0-5C1496.75,396.92,1496.75,401.92,1499.97,401.92L1499.97,401.92z"/>
	</g>
</g>
<g>
	<g>
		<path class="st1" d="M1355.97,482.39c3.22,0,3.22-5,0-5C1352.75,477.39,1352.75,482.39,1355.97,482.39L1355.97,482.39z"/>
	</g>
</g>
<g>
	<g>
		<path class="st1" d="M1389.67,331.45c3.22,0,3.22-5,0-5C1386.45,326.45,1386.45,331.45,1389.67,331.45L1389.67,331.45z"/>
	</g>
</g>
<g>
	<g>
		<path class="st1" d="M1447.88,365.15c3.22,0,3.22-5,0-5C1444.67,360.15,1444.66,365.15,1447.88,365.15L1447.88,365.15z"/>
	</g>
</g>
<g>
	<g>
		<path class="st1" d="M1634.78,362.09c3.22,0,3.22-5,0-5C1631.56,357.09,1631.55,362.09,1634.78,362.09L1634.78,362.09z"/>
	</g>
</g>
<g>
	<g>
		<path class="st1" d="M1472.39,239.54c3.22,0,3.22-5,0-5C1469.18,234.54,1469.17,239.54,1472.39,239.54L1472.39,239.54z"/>
	</g>
</g>
<g>
	<g>
		<path class="st1" d="M1023.54,136.9c3.22,0,3.22-5,0-5C1020.33,131.9,1020.32,136.9,1023.54,136.9L1023.54,136.9z"/>
	</g>
</g>
<g>
	<g>
		<path class="st1" d="M919.37,71.03c3.22,0,3.22-5,0-5C916.16,66.03,916.15,71.03,919.37,71.03L919.37,71.03z"/>
	</g>
</g>
<g>
	<g>
		<path class="st1" d="M1075.31,48.71c3.22,0,3.22-5,0-5C1072.1,43.71,1072.09,48.71,1075.31,48.71L1075.31,48.71z"/>
	</g>
</g>
<g>
	<g>
		<path class="st1" d="M949.9,480.71c3.22,0,3.22-5,0-5C946.68,475.71,946.67,480.71,949.9,480.71L949.9,480.71z"/>
	</g>
</g>
<g>
	<g>
		<path class="st1" d="M1252.82,264.56c3.22,0,3.22-5,0-5C1249.6,259.56,1249.6,264.56,1252.82,264.56L1252.82,264.56z"/>
	</g>
</g>
<g>
	<g>
		<path class="st1" d="M1280.39,154.26c3.22,0,3.22-5,0-5C1277.18,149.26,1277.17,154.26,1280.39,154.26L1280.39,154.26z"/>
	</g>
</g>
<g>
	<g>
		<path class="st1" d="M1197.67,108.3c3.22,0,3.22-5,0-5C1194.45,103.3,1194.45,108.3,1197.67,108.3L1197.67,108.3z"/>
	</g>
</g>
<g>
	<g>
		<path class="st1" d="M1200.73,250.77c3.22,0,3.22-5,0-5C1197.52,245.77,1197.51,250.77,1200.73,250.77L1200.73,250.77z"/>
	</g>
</g>
<g>
	<g>
		<path class="st1" d="M1105.76,256.9c3.22,0,3.22-5,0-5C1102.54,251.9,1102.53,256.9,1105.76,256.9L1105.76,256.9z"/>
	</g>
</g>
<g>
	<g>
		<path class="st1" d="M1055.2,338.09c3.22,0,3.22-5,0-5C1051.98,333.09,1051.98,338.09,1055.2,338.09L1055.2,338.09z"/>
	</g>
</g>
<g>
	<g>
		<path class="st1" d="M961.76,255.37c3.22,0,3.22-5,0-5C958.54,250.37,958.53,255.37,961.76,255.37L961.76,255.37z"/>
	</g>
</g>
<g>
	<g>
		<path class="st1" d="M888.22,359.54c3.22,0,3.22-5,0-5C885.01,354.54,885,359.54,888.22,359.54L888.22,359.54z"/>
	</g>
</g>
<g>
	<g>
		<path class="st1" d="M869.84,238.52c3.22,0,3.22-5,0-5C866.62,233.52,866.62,238.52,869.84,238.52L869.84,238.52z"/>
	</g>
</g>
<g>
	<g>
		<path class="st1" d="M1619.57,555.8c3.22,0,3.22-5,0-5C1616.36,550.8,1616.35,555.8,1619.57,555.8L1619.57,555.8z"/>
	</g>
</g>
<g>
	<g>
		<path class="st1" d="M1300.6,197.35c3.22,0,3.22-5,0-5C1297.39,192.35,1297.38,197.35,1300.6,197.35L1300.6,197.35z"/>
	</g>
</g>
<g>
	<g>
		<path class="st1" d="M1228.6,364.58c3.22,0,3.22-5,0-5C1225.39,359.58,1225.38,364.58,1228.6,364.58L1228.6,364.58z"/>
	</g>
</g>
<g>
	<g>
		<path class="st1" d="M1553.77,146.25c3.22,0,3.22-5,0-5C1550.55,141.25,1550.54,146.25,1553.77,146.25L1553.77,146.25z"/>
	</g>
</g>
<g>
	<g>
		<path class="st1" d="M1278.86,362.6c3.22,0,3.22-5,0-5C1275.64,357.6,1275.64,362.6,1278.86,362.6L1278.86,362.6z"/>
	</g>
</g>
<g>
	<g>
		<path class="st1" d="M1119.54,298.26c3.22,0,3.22-5,0-5C1116.33,293.26,1116.32,298.26,1119.54,298.26L1119.54,298.26z"/>
	</g>
</g>
<g>
	<g>
		<path class="st1" d="M1167.03,448.39c3.22,0,3.22-5,0-5C1163.81,443.39,1163.81,448.39,1167.03,448.39L1167.03,448.39z"/>
	</g>
</g>
<g>
	<g>
		<path class="st1" d="M1303.37,380.98c3.22,0,3.22-5,0-5C1300.16,375.98,1300.15,380.98,1303.37,380.98L1303.37,380.98z"/>
	</g>
</g>
<g>
	<g>
		<path class="st1" d="M1133.33,364.13c3.22,0,3.22-5,0-5C1130.11,359.13,1130.11,364.13,1133.33,364.13L1133.33,364.13z"/>
	</g>
</g>
<g>
	<g>
		<path class="st1" d="M879.44,34c3.22,0,3.22-5,0-5C876.23,29,876.22,34,879.44,34L879.44,34z"/>
	</g>
</g>
<g>
	<g>
		<path class="st1" d="M1286.52,428.47c3.22,0,3.22-5,0-5C1283.3,423.47,1283.3,428.47,1286.52,428.47L1286.52,428.47z"/>
	</g>
</g>
<g>
	<g>
		<path class="st1" d="M1361.59,405.49c3.22,0,3.22-5,0-5C1358.37,400.49,1358.36,405.49,1361.59,405.49L1361.59,405.49z"/>
	</g>
</g>
<g>
	<g>
		<path class="st1" d="M1271.19,527.93c3.22,0,3.22-5,0-5C1267.97,522.93,1267.96,527.93,1271.19,527.93L1271.19,527.93z"/>
	</g>
</g>
<g>
	<g>
		<path class="st1" d="M1107.06,546.51c3.22,0,3.22-5,0-5C1103.84,541.51,1103.83,546.51,1107.06,546.51L1107.06,546.51z"/>
	</g>
</g>
<g>
	<g>
		<path class="st1" d="M1078.18,426.94c3.22,0,3.22-5,0-5C1074.96,421.94,1074.96,426.94,1078.18,426.94L1078.18,426.94z"/>
	</g>
</g>
<g>
	<g>
		<path class="st1" d="M1001.77,314.25c3.22,0,3.22-5,0-5C998.55,309.25,998.54,314.25,1001.77,314.25L1001.77,314.25z"/>
	</g>
</g>
<g>
	<g>
		<path class="st1" d="M975.54,434.6c3.22,0,3.22-5,0-5C972.33,429.6,972.32,434.6,975.54,434.6L975.54,434.6z"/>
	</g>
</g>
<g>
	<g>
		<path class="st1" d="M1009.24,529.58c3.22,0,3.22-5,0-5C1006.03,524.58,1006.02,529.58,1009.24,529.58L1009.24,529.58z"/>
	</g>
</g>
<g>
	<g>
		<path class="st1" d="M1168.56,514.26c3.22,0,3.22-5,0-5C1165.35,509.26,1165.34,514.26,1168.56,514.26L1168.56,514.26z"/>
	</g>
</g>
<g>
	<g>
		<path class="st1" d="M1018.8,473.74c3.22,0,3.22-5,0-5C1015.58,468.74,1015.58,473.74,1018.8,473.74L1018.8,473.74z"/>
	</g>
</g>
<g>
	<g>
		<path class="st1" d="M1209.25,549.61c3.22,0,3.22-5,0-5C1206.03,544.61,1206.03,549.61,1209.25,549.61L1209.25,549.61z"/>
	</g>
</g>
<g>
	<g>
		<path class="st1" d="M1229.84,468.3c3.22,0,3.22-5,0-5C1226.62,463.3,1226.62,468.3,1229.84,468.3L1229.84,468.3z"/>
	</g>
</g>
<g>
	<g>
		<path class="st1" d="M1487.96,558.9c3.22,0,3.22-5,0-5C1484.74,553.9,1484.74,558.9,1487.96,558.9L1487.96,558.9z"/>
	</g>
</g>
<g>
	<g>
		<path class="st1" d="M1354.02,555.03c3.22,0,3.22-5,0-5C1350.81,550.03,1350.8,555.03,1354.02,555.03L1354.02,555.03z"/>
	</g>
</g>
<g>
	<g>
		<path class="st1" d="M1536.22,520.39c3.22,0,3.22-5,0-5C1533.01,515.39,1533,520.39,1536.22,520.39L1536.22,520.39z"/>
	</g>
</g>
<g>
	<g>
		<path class="st1" d="M1599.03,456.05c3.22,0,3.22-5,0-5C1595.81,451.05,1595.81,456.05,1599.03,456.05L1599.03,456.05z"/>
	</g>
</g>
<g>
	<g>
		<path class="st1" d="M1597.5,500.47c3.22,0,3.22-5,0-5C1594.28,495.47,1594.28,500.47,1597.5,500.47L1597.5,500.47z"/>
	</g>
</g>
<g>
	<g>
		<path class="st1" d="M1426.1,276.43c3.22,0,3.22-5,0-5C1422.88,271.43,1422.87,276.43,1426.1,276.43L1426.1,276.43z"/>
	</g>
</g>
<g>
	<g>
		<path class="st1" d="M1543.88,221.66c3.22,0,3.22-5,0-5C1540.67,216.66,1540.66,221.66,1543.88,221.66L1543.88,221.66z"/>
	</g>
</g>
<g>
	<g>
		<path class="st1" d="M1381.5,221.66c3.22,0,3.22-5,0-5C1378.28,216.66,1378.28,221.66,1381.5,221.66L1381.5,221.66z"/>
	</g>
</g>
<g>
	<g>
		<path class="st1" d="M1265.07,230.86c3.22,0,3.22-5,0-5C1261.86,225.86,1261.85,230.86,1265.07,230.86L1265.07,230.86z"/>
	</g>
</g>
<g>
	<g>
		<path class="st1" d="M1511.96,36.64c3.22,0,3.22-5,0-5C1508.74,31.64,1508.74,36.64,1511.96,36.64L1511.96,36.64z"/>
	</g>
</g>
<g>
	<g>
		<path class="st1" d="M1642.1,416.89c3.22,0,3.22-5,0-5C1638.88,411.89,1638.87,416.89,1642.1,416.89L1642.1,416.89z"/>
	</g>
</g>
<g>
	<g>
		<path class="st1" d="M1669.82,496.19c3.22,0,3.22-5,0-5C1666.6,491.19,1666.6,496.19,1669.82,496.19L1669.82,496.19z"/>
	</g>
</g>
<g>
	<g>
		<path class="st1" d="M1838.18,524.13c3.22,0,3.22-5,0-5C1834.96,519.13,1834.96,524.13,1838.18,524.13L1838.18,524.13z"/>
	</g>
</g>
<g>
	<g>
		<path class="st1" d="M1917.84,336.59c3.22,0,3.22-5,0-5C1914.62,331.59,1914.62,336.59,1917.84,336.59L1917.84,336.59z"/>
	</g>
</g>
<g>
	<g>
		<path class="st1" d="M1813.67,82.13c3.22,0,3.22-5,0-5C1810.45,77.13,1810.45,82.13,1813.67,82.13L1813.67,82.13z"/>
	</g>
</g>
<g>
	<path class="st2" d="M1267.14,176l335.34-144.75c0.12-0.05,0.25-0.08,0.38-0.09l39.9-1.43c1.18-0.04,1.54,1.58,0.46,2.04
		L1308.7,176.53c-0.12,0.05-0.25,0.08-0.39,0.09l-40.72,1.43C1266.42,178.09,1266.06,176.47,1267.14,176z"/>
	<path class="st2" d="M1334.26,199.18l131.9-39.74c1.58-0.48,3.07,0.98,2.62,2.58l-13.48,47.84c-0.21,0.73-0.79,1.29-1.53,1.47
		l-85.71,20.61c-0.66,0.16-1.36-0.01-1.87-0.46l-32.71-28.71C1332.25,201.68,1332.69,199.66,1334.26,199.18z"/>
	<path class="st2" d="M1357.2,306.78l-18.16,45.9c-0.81,2.04,0.56,4.26,2.83,4.59l441.49,65.26c1.66,0.25,3.28-0.63,3.91-2.11
		l20-47.06c0.87-2.05-0.5-4.34-2.81-4.67l-443.33-64.1C1359.44,304.35,1357.8,305.27,1357.2,306.78z"/>
	<path class="st2" d="M1261.06,380.27h41.27c0.17,0,0.34,0.03,0.5,0.1l355.37,149.2c1.31,0.55,0.91,2.49-0.5,2.49h-50.34
		c-0.18,0-0.35-0.04-0.52-0.11l-346.3-149.2C1259.25,382.19,1259.65,380.27,1261.06,380.27z"/>
	<line class="st3" x1="1295.76" y1="163.53" x2="1338.81" y2="163.16"/>
	<line class="st3" x1="1406.36" y1="116.03" x2="1443.47" y2="116.03"/>
	<line class="st3" x1="1497.65" y1="74.83" x2="1544.79" y2="74.83"/>
	<line class="st3" x1="1385.57" y1="228.11" x2="1401.9" y2="179.86"/>
	<line class="st3" x1="1402.65" y1="313.47" x2="1385.94" y2="362.08"/>
	<line class="st3" x1="1537.36" y1="331.28" x2="1519.18" y2="384.72"/>
	<line class="st3" x1="1680.62" y1="351.32" x2="1660.21" y2="404.02"/>
	<line class="st3" x1="1365.51" y1="427.1" x2="1412.91" y2="426.26"/>
	<line class="st3" x1="1487.56" y1="478.12" x2="1541.25" y2="477.7"/>
	<ellipse class="st4" cx="1056.57" cy="280.43" rx="102.62" ry="132.86"/>
	<path class="st5" d="M1031.33,161.38c1.14-0.05,2.27-0.07,3.41-0.07c52.59,0,95.87,53.36,95.87,118.2s-43.28,118.2-95.87,118.2
		c-2.21,0-4.43-0.09-6.63-0.28l-2.21-0.46l-175.76-77.63c-8.49-7.36-13.82-21.95-13.82-37.79c0-16.23,5.6-31.11,14.4-38.28
		l178.07-81.59L1031.33,161.38z"/>
	<path class="st6" d="M1341.1,244.68h33.4c12.61,0,22.82,10.22,22.82,22.82v5.57c0,12.61-10.22,22.82-22.82,22.82h-33.4"/>
	<path class="st5" d="M1181.83,175.41h101.6c49.83,0,90.23,39.58,90.23,88.41v33.6c0,48.83-40.4,88.41-90.23,88.41h-101.6"/>
	<path class="st7" d="M1131.62,148.05c47.21,5.8,83.93,63.81,83.93,132.57c0,71.64-39.86,131.07-89.2,133c0,0-67.7,3.66-72.2-3.29
		c47.16-5.69,83.87-63.77,83.87-130.26c0-66.56-37.41-126.13-84.62-131.75C1053.42,148.31,1076.6,142.95,1131.62,148.05z"/>
</g>
<g>
	<g>
		<path class="st8" d="M348.96,113.1V99.8h49.69v13.42c0,1.37-0.49,2.53-1.46,3.49c-0.98,0.96-2.13,1.44-3.46,1.44
			c-1.37,0-2.55-0.49-3.54-1.46c-1-0.98-1.49-2.13-1.49-3.46v-3.57h-9.96v62.99c0,1.37-0.49,2.53-1.46,3.49
			c-0.98,0.96-2.13,1.44-3.46,1.44c-1.41,0-2.6-0.48-3.57-1.44c-0.98-0.96-1.46-2.12-1.46-3.49v-62.99h-9.96v3.46
			c0,1.37-0.48,2.53-1.44,3.49c-0.96,0.96-2.12,1.44-3.49,1.44c-1.37,0-2.53-0.48-3.49-1.44
			C349.44,115.63,348.96,114.47,348.96,113.1z"/>
		<path class="st8" d="M421.44,172.63V104.6c0-1.33,0.48-2.46,1.44-3.4c0.96-0.94,2.12-1.41,3.49-1.41c1.37,0,2.53,0.48,3.49,1.44
			c0.96,0.96,1.44,2.12,1.44,3.49v24.84l7.91-5.16c3.59-2.27,6.8-3.4,9.61-3.4h6.09c4.02,0,7.48,1.44,10.37,4.31
			c2.89,2.87,4.39,6.36,4.51,10.46l1.23,36.86c0.04,1.37-0.43,2.53-1.41,3.49c-0.98,0.96-2.15,1.44-3.52,1.44
			c-1.37,0-2.52-0.5-3.46-1.49s-1.43-2.14-1.46-3.43l-1.23-36.97c-0.04-1.33-0.55-2.48-1.52-3.46c-0.98-0.98-2.15-1.46-3.52-1.46
			h-5.51c-1.25,0-2.62,0.49-4.1,1.46l-14,9.14v31.29c0,1.37-0.48,2.53-1.44,3.49c-0.96,0.96-2.12,1.44-3.49,1.44
			c-1.37,0-2.53-0.48-3.49-1.44C421.92,175.16,421.44,174,421.44,172.63z"/>
		<path class="st8" d="M543.61,139.53v11.89c0,1.33-0.49,2.48-1.46,3.46c-0.98,0.98-2.13,1.46-3.46,1.46h-34.8v2.87
			c0,1.68,0.72,3.11,2.17,4.28l2.87,2.4c1.56,1.21,3.05,1.82,4.45,1.82h25.31c1.33,0,2.48,0.48,3.46,1.44
			c0.98,0.96,1.46,2.12,1.46,3.49c0,1.33-0.5,2.48-1.49,3.46c-1,0.98-2.14,1.46-3.43,1.46h-25.96c-1.72,0-3.53-0.36-5.42-1.08
			c-1.9-0.72-3.29-1.47-4.19-2.26l-4.39-3.87c-1.37-1.09-2.51-2.62-3.43-4.57c-0.92-1.95-1.38-3.75-1.38-5.39v-22.56
			c0-1.29,0.5-3.03,1.49-5.21c1-2.19,2.26-3.89,3.78-5.1l4.1-3.22c2.7-2.19,5.68-3.28,8.96-3.28h13.83c3.48,0,6.76,1.45,9.84,4.34
			l3.69,3.52C542.28,131.25,543.61,134.8,543.61,139.53z M504,138.76v7.62h29.88v-6.86c0-1.84-0.57-3.24-1.7-4.22l-2.87-2.52
			c-1.48-1.21-2.81-1.82-3.98-1.82h-12.36c-1.52,0-2.91,0.53-4.16,1.58l-2.87,2.4C504.65,135.93,504,137.2,504,138.76z"/>
		<path class="st8" d="M313.04,250.89l10.84,22.09c1.52,3.01,2.29,6.27,2.29,9.79c0,3.44-0.76,6.68-2.29,9.73l-10.84,21.86
			c-2.31,4.8-6.21,7.21-11.72,7.21c-2.62,0-4.97-0.68-7.06-2.05c-2.09-1.37-3.66-3.09-4.72-5.16l-10.9-21.86
			c-1.45-2.85-2.17-6.09-2.17-9.73s0.72-6.89,2.17-9.79l10.9-22.09c2.46-4.8,6.39-7.21,11.78-7.21
			C306.79,243.68,310.7,246.08,313.04,250.89z M298.04,255.81l-10.2,20.74c-0.94,2.07-1.41,4.1-1.41,6.09c0,2.15,0.47,4.2,1.41,6.15
			l10.49,20.98c0.55,1.29,1.54,1.93,2.99,1.93c1.25,0,2.21-0.64,2.87-1.93l10.55-20.98c0.98-2.07,1.46-4.12,1.46-6.15
			c0-2.15-0.49-4.18-1.46-6.09l-10.31-20.74c-0.66-1.52-1.7-2.29-3.11-2.29S298.82,254.29,298.04,255.81z"/>
		<path class="st8" d="M349.08,316.63v-46.7c0-1.37,0.48-2.55,1.44-3.54c0.96-1,2.12-1.49,3.49-1.49c1.37,0,2.53,0.49,3.49,1.46
			c0.96,0.98,1.44,2.17,1.44,3.57v6.15l8.03-6.86c3.32-2.81,6.56-4.22,9.73-4.22h7.21c4.06,0,7.54,1.45,10.43,4.34
			c2.89,2.89,4.34,6.37,4.34,10.43v2.64c0,1.41-0.48,2.6-1.44,3.57c-0.96,0.98-2.12,1.46-3.49,1.46c-1.37,0-2.53-0.48-3.49-1.44
			c-0.96-0.96-1.44-2.12-1.44-3.49v-2.75c0-1.37-0.48-2.53-1.44-3.49c-0.96-0.96-2.12-1.44-3.49-1.44h-6.39
			c-1.37,0-2.89,0.72-4.57,2.17l-14,12.13v27.48c0,1.37-0.49,2.53-1.46,3.49c-0.98,0.96-2.13,1.44-3.46,1.44
			c-1.37,0-2.53-0.48-3.49-1.44C349.56,319.16,349.08,318,349.08,316.63z"/>
		<path class="st8" d="M461.29,321.44h-30c-1.37,0-2.53-0.48-3.49-1.44c-0.96-0.96-1.44-2.12-1.44-3.49c0-1.33,0.48-2.48,1.44-3.46
			c0.96-0.98,2.12-1.46,3.49-1.46h10.08v-36.74h-9.96c-1.37,0-2.53-0.49-3.49-1.46c-0.96-0.98-1.44-2.13-1.44-3.46
			c0-1.37,0.48-2.55,1.44-3.54c0.96-1,2.12-1.49,3.49-1.49h15c1.37,0,2.53,0.5,3.49,1.49c0.96,1,1.44,2.18,1.44,3.54v41.66h9.84
			c1.37,0,2.55,0.48,3.54,1.44c1,0.96,1.49,2.12,1.49,3.49c0,1.37-0.49,2.53-1.46,3.49C463.77,320.96,462.61,321.44,461.29,321.44z
			 M441.25,239.35h5.16c1.37,0,2.53,0.48,3.49,1.44c0.96,0.96,1.44,2.12,1.44,3.49v4.22c0,1.37-0.48,2.55-1.44,3.54
			c-0.96,1-2.12,1.49-3.49,1.49h-5.27c-1.41,0-2.59-0.51-3.54-1.52c-0.96-1.02-1.42-2.15-1.38-3.4l0.12-4.34
			c0-1.37,0.48-2.53,1.44-3.49C438.72,239.83,439.88,239.35,441.25,239.35z"/>
		<path class="st8" d="M543.61,282.76v20.8c0,4.41-2.08,8.5-6.24,12.25s-8.45,5.62-12.86,5.62h-11.54c-4.49,0-8.79-1.9-12.89-5.71
			s-6.15-7.86-6.15-12.16v-20.8c0-4.3,2-8.35,6.01-12.16c4-3.81,8.35-5.71,13.04-5.71h11.54c4.41-0.08,8.7,1.76,12.86,5.51
			S543.61,278.27,543.61,282.76z M503.88,283.17v19.92c0,1.8,0.64,3.22,1.93,4.28l3.69,3.16c0.82,0.7,1.97,1.05,3.46,1.05h11.43
			c1.68,0,3.2-0.6,4.57-1.82l2.99-2.64c1.21-0.94,1.82-2.25,1.82-3.93v-19.92c0-1.95-0.61-3.4-1.82-4.34l-3.46-2.75
			c-1.17-0.98-2.54-1.46-4.1-1.46h-10.2c-2.23,0-3.95,0.53-5.16,1.58l-3.34,2.87C504.49,280.21,503.88,281.53,503.88,283.17z"/>
		<path class="st8" d="M589.81,276.44l-13.45,8.73v31.46c0,1.33-0.49,2.48-1.46,3.46c-0.98,0.98-2.13,1.46-3.46,1.46
			c-1.33,0-2.48-0.49-3.46-1.46c-0.98-0.98-1.46-2.13-1.46-3.46v-46.7c0-1.37,0.48-2.55,1.44-3.54c0.96-1,2.12-1.49,3.49-1.49
			c1.33,0,2.48,0.5,3.46,1.49c0.98,1,1.46,2.18,1.46,3.54v3.28l8.98-5.45c3.01-1.91,6.42-2.87,10.21-2.87h4.58
			c3.91,0,7.29,1.39,10.15,4.16c2.86,2.77,4.36,6.19,4.52,10.25l1.35,37.32c0.04,1.33-0.43,2.48-1.41,3.46
			c-0.98,0.98-2.15,1.46-3.52,1.46c-1.29,0-2.42-0.44-3.4-1.32c-0.98-0.88-1.48-2.08-1.52-3.6l-1.46-36.74
			c-0.12-3.44-1.92-5.16-5.4-5.16h-4.81C593.14,274.74,591.53,275.3,589.81,276.44z"/>
		<path class="st8" d="M231.11,455.71h17.77c1.37,0,2.55,0.48,3.55,1.44c1,0.96,1.5,2.12,1.5,3.49c0,1.37-0.5,2.53-1.49,3.49
			c-1,0.96-2.18,1.44-3.54,1.44h-18.4c-2.34,0-4.77-0.74-7.27-2.23c-2.5-1.48-4.24-3.14-5.21-4.98l-11.37-21.97
			c-1.52-3.16-2.29-6.41-2.29-9.73c0-3.67,0.72-6.86,2.17-9.55L218,395.36c1.09-2.03,2.79-3.82,5.1-5.36
			c2.3-1.54,4.53-2.31,6.68-2.31h19.45c1.37,0,2.53,0.49,3.49,1.46c0.96,0.98,1.44,2.13,1.44,3.46c0,1.37-0.48,2.55-1.43,3.54
			c-0.96,1-2.12,1.49-3.48,1.49H230.5c-1.56,0-2.83,0.92-3.81,2.76l-10.92,20.38c-0.86,1.6-1.29,3.5-1.28,5.69
			c-0.01,2.31,0.46,4.34,1.4,6.1l10.42,20.04C227.28,454.68,228.89,455.72,231.11,455.71z"/>
		<path class="st8" d="M291.27,430.05h19.31c1.06,0,2.58,0.23,4.58,0.7l-0.11-6.97c0-1.37-0.48-2.53-1.44-3.49
			c-0.96-0.96-2.12-1.44-3.49-1.44h-18.73c-1.33,0-2.49-0.49-3.46-1.46c-0.98-0.98-1.47-2.13-1.47-3.46c0-1.37,0.48-2.53,1.44-3.49
			c0.96-0.96,2.12-1.44,3.49-1.44h18.72c4.07,0,7.54,1.43,10.42,4.28c2.88,2.85,4.37,6.35,4.49,10.49l1.23,36.86
			c0,1.37-0.49,2.53-1.46,3.49c-0.98,0.96-2.13,1.44-3.46,1.44c-1.41,0-2.6-0.48-3.57-1.44c-0.98-0.96-1.46-2.12-1.46-3.49
			l-8.33,4.92h-16.67c-4.15,0-7.67-1.44-10.56-4.34c-2.9-2.89-4.34-6.41-4.34-10.55v-5.74c0-4.1,1.46-7.61,4.37-10.52
			C283.65,431.5,287.16,430.05,291.27,430.05z M315.88,449.21l-0.29-4.16c-0.04-1.41-0.53-2.58-1.47-3.52s-2.09-1.41-3.46-1.41
			h-19.41c-1.37,0-2.53,0.48-3.49,1.44c-0.96,0.96-1.44,2.12-1.44,3.49v5.51c0,1.33,0.49,2.48,1.47,3.46
			c0.98,0.98,2.13,1.46,3.46,1.46h13.9L315.88,449.21z"/>
		<path class="st8" d="M359.04,459.93v21.8c0,1.41-0.48,2.6-1.44,3.57c-0.96,0.98-2.12,1.46-3.49,1.46c-1.37,0-2.55-0.49-3.54-1.46
			c-1-0.98-1.49-2.17-1.49-3.57v-70.2c0-1.33,0.49-2.48,1.46-3.46c0.98-0.98,2.17-1.46,3.57-1.46c1.33,0,2.48,0.49,3.46,1.46
			c0.98,0.98,1.46,2.13,1.46,3.46v3.16c4.77-5.31,9.47-7.97,14.12-7.97h2.29c3.48,0,6.68,1.29,9.61,3.87l8.2,7.09
			c3.59,3.13,5.39,7.09,5.39,11.89v15.35c0,4.84-1.93,8.93-5.8,12.25l-8.03,6.91c-2.66,2.42-6.02,3.63-10.08,3.63h-2.17
			c-3.83,0-7.07-1.33-9.73-3.98L359.04,459.93z M372.93,457.76h2.52c1.21,0,2.5-0.6,3.87-1.82l7.68-6.74
			c1.29-1.02,1.93-2.4,1.93-4.16v-15.88c0-1.56-0.72-2.95-2.17-4.16l-8.26-7.09c-0.94-0.82-1.95-1.23-3.05-1.23h-2.87
			c-1.09,0-2.52,0.9-4.28,2.7l-7.32,7.27c-1.29,1.29-1.93,2.73-1.93,4.34v12.6c0,1.52,0.72,3.01,2.17,4.45l7.09,7.09
			C370.06,456.88,371.6,457.76,372.93,457.76z"/>
		<path class="st8" d="M435.33,409.01h22.56c3.52,0,6.62,1.05,9.32,3.13c2.7,2.09,4.04,4.13,4.04,6.12c0,1.41-0.5,2.56-1.49,3.46
			c-1,0.9-2.1,1.35-3.31,1.35c-1.56,0-2.99-0.7-4.28-2.11s-2.64-2.11-4.04-2.11h-22.27c-2.19,0-3.28,0.91-3.28,2.73
			c0,1.28,0.73,2.25,2.19,2.9l26.17,11.65c2.66,1.17,4.83,3.06,6.53,5.65c1.7,2.6,2.55,5.48,2.55,8.64c0,4.22-1.49,7.79-4.48,10.72
			s-6.38,4.39-10.17,4.39h-19.92c-3.44,0-6.63-1.03-9.58-3.11c-2.95-2.07-4.42-4.08-4.42-6.04c0-1.29,0.48-2.43,1.44-3.43
			c0.96-1,2.2-1.49,3.72-1.49c1.25,0,2.59,0.7,4.01,2.11c1.43,1.41,3.49,2.11,6.18,2.11h18.34c1.44,0,2.66-0.56,3.63-1.67
			c0.98-1.11,1.46-2.39,1.46-3.84c0-2.23-1.09-3.83-3.28-4.8l-26.43-11.89c-2.54-1.13-4.49-2.77-5.86-4.92
			c-1.37-2.15-2.05-4.34-2.05-6.56c0-3.52,1.22-6.56,3.66-9.14C428.72,410.3,431.73,409.01,435.33,409.01z"/>
		<path class="st8" d="M517.45,455.59L534,445.05v-31.11c0-1.37,0.48-2.55,1.44-3.54c0.96-1,2.12-1.49,3.49-1.49
			c1.37,0,2.53,0.5,3.49,1.49c0.96,1,1.44,2.18,1.44,3.54v46.7c0,1.33-0.49,2.48-1.46,3.46c-0.98,0.98-2.13,1.46-3.46,1.46
			c-1.33,0-2.48-0.49-3.46-1.46c-0.98-0.98-1.46-2.13-1.46-3.46v-3.87l-8.54,5.57c-3.35,2.15-6.75,3.22-10.18,3.22h-4.56
			c-4.02,0-7.47-1.41-10.36-4.22s-4.43-6.25-4.62-10.31l-1.46-37.09c-0.08-1.29,0.38-2.43,1.38-3.43s2.18-1.49,3.54-1.49
			c1.33,0,2.47,0.49,3.43,1.46c0.96,0.98,1.45,2.13,1.49,3.46l1.35,36.39c0.12,3.52,2.12,5.27,6.02,5.27H517.45z"/>
		<path class="st8" d="M606.25,465.55h-29.77c-1.37,0-2.53-0.5-3.49-1.49c-0.96-1-1.44-2.18-1.44-3.54c0-1.33,0.48-2.48,1.44-3.46
			c0.96-0.98,2.12-1.46,3.49-1.46h9.84v-58.07h-9.96c-1.37,0-2.53-0.48-3.49-1.44c-0.96-0.96-1.44-2.12-1.44-3.49
			c0-1.37,0.48-2.53,1.44-3.49c0.96-0.96,2.12-1.44,3.49-1.44h15c1.33,0,2.48,0.49,3.46,1.46c0.98,0.98,1.46,2.13,1.46,3.46v62.99
			h9.96c1.33,0,2.48,0.49,3.46,1.46c0.98,0.98,1.46,2.13,1.46,3.46c0,1.37-0.48,2.55-1.44,3.54
			C608.78,465.06,607.61,465.55,606.25,465.55z"/>
		<path class="st8" d="M688.57,427.53v11.89c0,1.33-0.49,2.48-1.46,3.46c-0.98,0.98-2.13,1.46-3.46,1.46h-34.8v2.87
			c0,1.68,0.72,3.11,2.17,4.28l2.87,2.4c1.56,1.21,3.05,1.82,4.45,1.82h25.31c1.33,0,2.48,0.48,3.46,1.44
			c0.98,0.96,1.46,2.12,1.46,3.49c0,1.33-0.5,2.48-1.49,3.46c-1,0.98-2.14,1.46-3.43,1.46h-25.96c-1.72,0-3.53-0.36-5.42-1.08
			c-1.9-0.72-3.29-1.47-4.19-2.26l-4.39-3.87c-1.37-1.09-2.51-2.62-3.43-4.57c-0.92-1.95-1.38-3.75-1.38-5.39v-22.56
			c0-1.29,0.5-3.03,1.49-5.21c1-2.19,2.26-3.89,3.78-5.1l4.1-3.22c2.7-2.19,5.68-3.28,8.96-3.28h13.83c3.48,0,6.76,1.45,9.84,4.34
			l3.69,3.52C687.24,419.25,688.57,422.8,688.57,427.53z M648.96,426.76v7.62h29.88v-6.86c0-1.84-0.57-3.24-1.7-4.22l-2.87-2.52
			c-1.48-1.21-2.81-1.82-3.98-1.82h-12.36c-1.52,0-2.91,0.53-4.16,1.58l-2.87,2.4C649.61,423.93,648.96,425.2,648.96,426.76z"/>
	</g>
</g>
<g>
	<g>
		<path class="st1" d="M1718.98,284.83c3.22,0,3.22-5,0-5C1715.76,279.83,1715.76,284.83,1718.98,284.83L1718.98,284.83z"/>
	</g>
</g>
<g>
	<g>
		<path class="st1" d="M1874.95,404.64c3.22,0,3.22-5,0-5C1871.73,399.64,1871.72,404.64,1874.95,404.64L1874.95,404.64z"/>
	</g>
</g>
<g>
	<g>
		<path class="st1" d="M1652.79,553.48c3.22,0,3.22-5,0-5C1649.57,548.48,1649.56,553.48,1652.79,553.48L1652.79,553.48z"/>
	</g>
</g>
<g>
	<g>
		<path class="st1" d="M1773.84,432.21c3.22,0,3.22-5,0-5C1770.62,427.21,1770.62,432.21,1773.84,432.21L1773.84,432.21z"/>
	</g>
</g>
<g>
	<g>
		<path class="st1" d="M1873.43,477.61c3.22,0,3.22-5,0-5C1870.21,472.61,1870.21,477.61,1873.43,477.61L1873.43,477.61z"/>
	</g>
</g>
<g>
	<g>
		<path class="st1" d="M1795.29,153.4c3.22,0,3.22-5,0-5C1792.07,148.4,1792.06,153.4,1795.29,153.4L1795.29,153.4z"/>
	</g>
</g>
<g>
	<g>
		<path class="st1" d="M1796.79,484.58c3.22,0,3.22-5,0-5C1793.57,479.58,1793.56,484.58,1796.79,484.58L1796.79,484.58z"/>
	</g>
</g>
<g>
	<g>
		<path class="st1" d="M1668.27,180.32c3.22,0,3.22-5,0-5C1665.05,175.32,1665.05,180.32,1668.27,180.32L1668.27,180.32z"/>
	</g>
</g>
<g>
	<g>
		<path class="st1" d="M1639.03,337.23c3.22,0,3.22-5,0-5C1635.81,332.23,1635.81,337.23,1639.03,337.23L1639.03,337.23z"/>
	</g>
</g>
<g>
	<g>
		<path class="st1" d="M1764.65,187.11c3.22,0,3.22-5,0-5C1761.43,182.11,1761.43,187.11,1764.65,187.11L1764.65,187.11z"/>
	</g>
</g>
<g>
	<g>
		<path class="st1" d="M1908.65,136.64c3.22,0,3.22-5,0-5C1905.43,131.64,1905.43,136.64,1908.65,136.64L1908.65,136.64z"/>
	</g>
</g>
<g>
	<g>
		<path class="st1" d="M1874.95,257.57c3.22,0,3.22-5,0-5C1871.73,252.57,1871.72,257.57,1874.95,257.57L1874.95,257.57z"/>
	</g>
</g>
<g>
	<g>
		<path class="st1" d="M1816.73,223.87c3.22,0,3.22-5,0-5C1813.52,218.87,1813.51,223.87,1816.73,223.87L1816.73,223.87z"/>
	</g>
</g>
<g>
	<g>
		<path class="st1" d="M1629.84,226.94c3.22,0,3.22-5,0-5C1626.62,221.94,1626.62,226.94,1629.84,226.94L1629.84,226.94z"/>
	</g>
</g>
<g>
	<g>
		<path class="st1" d="M1792.22,349.49c3.22,0,3.22-5,0-5C1789.01,344.49,1789,349.49,1792.22,349.49L1792.22,349.49z"/>
	</g>
</g>
<g>
	<g>
		<path class="st1" d="M1645.04,33.22c3.22,0,3.22-5,0-5C1641.83,28.22,1641.82,33.22,1645.04,33.22L1645.04,33.22z"/>
	</g>
</g>
<g>
	<g>
		<path class="st1" d="M1710.85,442.77c3.22,0,3.22-5,0-5C1707.63,437.77,1707.63,442.77,1710.85,442.77L1710.85,442.77z"/>
	</g>
</g>
<g>
	<g>
		<path class="st1" d="M1903.03,213.53c3.22,0,3.22-5,0-5C1899.81,208.53,1899.81,213.53,1903.03,213.53L1903.03,213.53z"/>
	</g>
</g>
<g>
	<g>
		<path class="st1" d="M1776.66,30.13c3.22,0,3.22-5,0-5C1773.44,25.13,1773.43,30.13,1776.66,30.13L1776.66,30.13z"/>
	</g>
</g>
<g>
	<g>
		<path class="st1" d="M1910.59,64c3.22,0,3.22-5,0-5C1907.38,59,1907.37,64,1910.59,64L1910.59,64z"/>
	</g>
</g>
<g>
	<g>
		<path class="st1" d="M1728.39,68.64c3.22,0,3.22-5,0-5C1725.18,63.64,1725.17,68.64,1728.39,68.64L1728.39,68.64z"/>
	</g>
</g>
<g>
	<g>
		<path class="st1" d="M1665.59,132.98c3.22,0,3.22-5,0-5C1662.37,127.98,1662.36,132.98,1665.59,132.98L1665.59,132.98z"/>
	</g>
</g>
<g>
	<g>
		<path class="st1" d="M1667.12,88.55c3.22,0,3.22-5,0-5C1663.9,83.55,1663.89,88.55,1667.12,88.55L1667.12,88.55z"/>
	</g>
</g>
<g>
	<g>
		<path class="st1" d="M1800.39,142.17c3.22,0,3.22-5,0-5C1797.18,137.17,1797.17,142.17,1800.39,142.17L1800.39,142.17z"/>
	</g>
</g>
<g>
	<g>
		<path class="st1" d="M1720.73,367.36c3.22,0,3.22-5,0-5C1717.52,362.36,1717.51,367.36,1720.73,367.36L1720.73,367.36z"/>
	</g>
</g>
<g>
	<g>
		<path class="st1" d="M1883.12,367.36c3.22,0,3.22-5,0-5C1879.9,362.36,1879.89,367.36,1883.12,367.36L1883.12,367.36z"/>
	</g>
</g>
<g>
	<g>
		<path class="st1" d="M1752.66,552.38c3.22,0,3.22-5,0-5C1749.44,547.38,1749.43,552.38,1752.66,552.38L1752.66,552.38z"/>
	</g>
</g>
<g>
	<g>
		<path class="st1" d="M24.65,160.77c3.22,0,3.22-5,0-5C21.43,155.77,21.43,160.77,24.65,160.77L24.65,160.77z"/>
	</g>
</g>
<g>
	<g>
		<path class="st1" d="M52.37,51.47c3.22,0,3.22-5,0-5C49.15,46.47,49.15,51.47,52.37,51.47L52.37,51.47z"/>
	</g>
</g>
<g>
	<g>
		<path class="st1" d="M79.54,312.05c3.22,0,3.22-5,0-5C76.33,307.05,76.32,312.05,79.54,312.05L79.54,312.05z"/>
	</g>
</g>
<g>
	<g>
		<path class="st1" d="M50.82,367.34c3.22,0,3.22-5,0-5C47.61,362.34,47.6,367.34,50.82,367.34L50.82,367.34z"/>
	</g>
</g>
<g>
	<g>
		<path class="st1" d="M21.59,240.43c3.22,0,3.22-5,0-5C18.37,235.43,18.36,240.43,21.59,240.43L21.59,240.43z"/>
	</g>
</g>
<g>
	<g>
		<path class="st1" d="M27.6,544.44c3.22,0,3.22-5,0-5C24.38,539.44,24.37,544.44,27.6,544.44L27.6,544.44z"/>
	</g>
</g>
<g>
	<g>
		<path class="st1" d="M93.4,104.89c3.22,0,3.22-5,0-5C90.19,99.89,90.18,104.89,93.4,104.89L93.4,104.89z"/>
	</g>
</g>
<g>
	<g>
		<path class="st1" d="M48.14,414.69c3.22,0,3.22-5,0-5C44.92,409.69,44.92,414.69,48.14,414.69L48.14,414.69z"/>
	</g>
</g>
<g>
	<g>
		<path class="st1" d="M49.67,459.11c3.22,0,3.22-5,0-5C46.45,454.11,46.45,459.11,49.67,459.11L49.67,459.11z"/>
	</g>
</g>
</svg>
