<?xml version="1.0" encoding="utf-8"?>
<!-- Generator: Adobe Illustrator 27.1.1, SVG Export Plug-In . SVG Version: 6.00 Build 0)  -->
<svg version="1.1" id="Layer_1" xmlns="http://www.w3.org/2000/svg" xmlns:xlink="http://www.w3.org/1999/xlink" x="0px" y="0px"
	 viewBox="0 0 1944 144" style="enable-background:new 0 0 1944 144;" xml:space="preserve">
<style type="text/css">
	.st0{fill:#FFF1E7;}
	.st1{fill:#2B190D;}
	.st2{fill:#BC7B44;}
	.st3{fill:#B2652D;}
	.st4{fill:#E49A37;stroke:#E88024;stroke-miterlimit:10;}
	.st5{fill:#F1A443;stroke:#E88024;stroke-miterlimit:10;}
	.st6{fill:#E15D25;}
	.st7{fill:#F68B44;}
	.st8{fill:#F9A369;}
	.st9{fill:#EFE8CC;stroke:#B1AE9C;stroke-width:0.25;stroke-linecap:round;stroke-linejoin:round;stroke-miterlimit:10;}
	.st10{fill:#B1AE9C;stroke:#9B9989;stroke-width:0.25;stroke-miterlimit:10;}
	.st11{fill:#2B190D;stroke:#A8A694;stroke-width:0.25;stroke-miterlimit:10;}
	.st12{fill:#2B190D;stroke:#000000;stroke-width:0.25;stroke-miterlimit:10;}
	.st13{fill:#D23C27;stroke:#A53A23;stroke-width:0.25;stroke-linecap:round;stroke-linejoin:round;stroke-miterlimit:10;}
	.st14{fill:none;stroke:#2B190D;stroke-miterlimit:10;}
</style>
<g>
	<g>
		<path class="st0" d="M1512.69,70.88c3.22,0,3.22-5,0-5C1509.48,65.88,1509.47,70.88,1512.69,70.88L1512.69,70.88z"/>
	</g>
</g>
<g>
	<g>
		<path class="st0" d="M1312.29,34.11c3.22,0,3.22-5,0-5C1309.07,29.11,1309.07,34.11,1312.29,34.11L1312.29,34.11z"/>
	</g>
</g>
<g>
	<g>
		<path class="st0" d="M1072.18,28.49c3.22,0,3.22-5,0-5C1068.96,23.49,1068.95,28.49,1072.18,28.49L1072.18,28.49z"/>
	</g>
</g>
<g>
	<g>
		<path class="st0" d="M1898.94,27.98c3.22,0,3.22-5,0-5C1895.72,22.98,1895.72,27.98,1898.94,27.98L1898.94,27.98z"/>
	</g>
</g>
<g>
	<g>
		<path class="st0" d="M1599.22,32.32c3.22,0,3.22-5,0-5C1596,27.32,1596,32.32,1599.22,32.32L1599.22,32.32z"/>
	</g>
</g>
<g>
	<g>
		<path class="st0" d="M1817.77,62.19c3.22,0,3.22-5,0-5C1814.55,57.19,1814.55,62.19,1817.77,62.19L1817.77,62.19z"/>
	</g>
</g>
<g>
	<g>
		<path class="st0" d="M1218.14,53c3.22,0,3.22-5,0-5C1214.92,48,1214.92,53,1218.14,53L1218.14,53z"/>
	</g>
</g>
<g>
	<g>
		<path class="st0" d="M1357.7,51.47c3.22,0,3.22-5,0-5C1354.48,46.47,1354.47,51.47,1357.7,51.47L1357.7,51.47z"/>
	</g>
</g>
<g>
	<g>
		<path class="st0" d="M1091.14,63.73c3.22,0,3.22-5,0-5C1087.93,58.73,1087.92,63.73,1091.14,63.73L1091.14,63.73z"/>
	</g>
</g>
<g>
	<g>
		<path class="st0" d="M965.53,57.6c3.22,0,3.22-5,0-5C962.31,52.6,962.3,57.6,965.53,57.6L965.53,57.6z"/>
	</g>
</g>
<g>
	<g>
		<path class="st0" d="M1504.76,42.28c3.22,0,3.22-5,0-5C1501.54,37.28,1501.54,42.28,1504.76,42.28L1504.76,42.28z"/>
	</g>
</g>
<path class="st1" d="M1911.58,136.29H33.42c-14.55,0-26.34-11.79-26.34-26.34V38.76c0-14.55,11.79-26.34,26.34-26.34h1878.16
	c14.55,0,26.34,11.79,26.34,26.34v71.19C1937.92,124.5,1926.13,136.29,1911.58,136.29z"/>
<path class="st2" d="M201.82,135.68h239.13c24.55,0,49.06-0.43,73.6-1.04c20.37-0.51,40.79-0.71,61.11,0.86
	C539.58,68.7,469.05,23.32,387.93,23.32c-81.25,0-151.88,45.52-187.93,112.5C200.61,135.73,201.21,135.68,201.82,135.68z"/>
<g>
	<path class="st3" d="M387.93,30.32c15.07,0,30.11,1.66,44.82,4.94l-24.08,93.42H212.6c17.21-27.7,40.73-51.12,68.62-68.19
		C313.44,40.75,350.34,30.32,387.93,30.32 M387.93,23.32c-80.54,0-151.26,45.71-187.55,112.44c0.48-0.05,0.96-0.08,1.44-0.08h212.27
		L441.3,30.12C423.87,25.6,405.93,23.32,387.93,23.32L387.93,23.32z"/>
</g>
<g>
	<g>
		<path class="st2" d="M432.45,92.27c-0.02-0.14-0.04-0.28-0.06-0.42c0.09,0.66,0.18,1.33,0.27,1.99c-0.13-1.26-0.1-2.5,0.05-3.75
			c-0.09,0.66-0.18,1.33-0.27,1.99c0.72-5,3.17-9.55,3.95-14.54c0.51-3.28,0.62-6.48,0.53-9.79c-0.08-2.87-0.12-5.71,0.25-8.56
			c-0.09,0.66-0.18,1.33-0.27,1.99c0.44-3.01,1.26-5.93,2.44-8.74c-0.25,0.6-0.5,1.19-0.76,1.79c0.31-0.7,0.63-1.4,0.97-2.08
			c1.75-3.51,1.05-8.28-2.69-10.26c-3.4-1.8-8.39-1.06-10.26,2.69c-2.55,5.1-4.04,10.29-4.59,15.95c-0.47,4.84,0.29,9.7-0.29,14.53
			c0.09-0.66,0.18-1.33,0.27-1.99c-0.49,3.48-1.79,6.74-2.84,10.08c-0.51,1.62-0.94,3.26-1.18,4.95c-0.42,2.92-0.4,5.23,0,8.16
			c0.23,1.72,2.03,3.65,3.45,4.48c1.61,0.94,3.98,1.34,5.78,0.76c1.81-0.59,3.57-1.71,4.48-3.45
			C432.71,96.13,432.74,94.39,432.45,92.27L432.45,92.27z"/>
	</g>
</g>
<g>
	<path class="st3" d="M536.54,93.29c3.31,3.42,6.51,6.96,9.56,10.58c6.31,7.49,12.12,15.49,17.34,23.89
		c-7.32-0.33-15.12-0.49-23.55-0.49c-7.4,0-15.27,0.11-25.52,0.37c-3.69,0.09-7.42,0.18-11.25,0.26L536.54,93.29 M536.45,83.3
		l-50.12,51.93c9.41-0.17,18.82-0.36,28.23-0.6c8.44-0.21,16.89-0.37,25.34-0.37c12.06,0,24.12,0.32,36.14,1.26
		c-6.93-12.86-15.16-25-24.59-36.18C546.73,93.75,541.72,88.39,536.45,83.3L536.45,83.3z"/>
</g>
<g>
	<g>
		<path class="st2" d="M524.5,85.96c-6.27,6.39-12.31,13-18.59,19.38c-3.13,3.18-6.33,6.3-9.64,9.29c-1.67,1.51-3.36,2.99-5.09,4.43
			c-0.87,0.72-1.75,1.44-2.64,2.14c-0.44,0.35-2.17,1.37-0.28,0.23c-0.51,0.31-0.98,0.74-1.46,1.1c-1.62,1.21-2.89,2.45-3.45,4.48
			c-0.49,1.8-0.27,4.19,0.76,5.78c1.03,1.6,2.57,3.01,4.48,3.45c1.84,0.42,4.2,0.43,5.78-0.76c7.8-5.82,14.99-12.3,21.82-19.22
			c6.4-6.47,12.53-13.2,18.9-19.69c2.75-2.8,3-7.85,0-10.61C532.14,83.23,527.44,82.96,524.5,85.96L524.5,85.96z"/>
	</g>
</g>
<path class="st3" d="M574.77,135.44c-6.97-11.1-18.9-27.55-38.5-52.25c0,0,6.58,38.43-11.29,41.11c-5.56,0.83-6.83,4.96-5.96,10.24
	C537.62,134.12,556.23,134.05,574.77,135.44z"/>
<path class="st3" d="M440.95,135.68c3.1,0,6.19-0.03,9.29-0.04c0.16-0.74,0.32-1.48,0.45-2.25c3.86-23.17-4.83-28-4.83-28
	s0,0-13.52-12.55c-13.52-12.55-26.07,5.79-26.07,5.79s-5.79,25.1-35.73,27.04S357.04,71.6,357.04,71.6s18.35-13.52,49.24-16.41
	c30.9-2.9,42.48-24.14,42.48-24.14C302.81,8.86,234.67,70.27,202.93,135.68H440.95z"/>
<path class="st4" d="M1718.37,67.91c0.12,0.05-14.28-3.43-17.62,9.35c-0.06,0.21-0.36,0.16-0.37-0.05
	C1700.18,73.41,1702.29,61.02,1718.37,67.91z"/>
<path class="st5" d="M1803.91,48.22c-48.11-17.84-101.44,6.34-119.11,54.01c-4.18,11.28-5.98,22.87-5.67,34.22
	c17.54-0.08,35.13-1.78,52.54,0h6.76c8.12-0.78,16.29-0.89,24.44-0.54c2.39-0.04,4.78-0.05,7.17-0.01c0.81-0.02,1.61-0.05,2.42-0.07
	c0.81-0.11,1.65-0.17,2.54-0.15c0.46,0.01,0.92,0.03,1.38,0.05c10.41-0.25,20.78-0.27,31.18,0.53c10.06-0.48,20.13,0.46,30.21,0.11
	c9.03-0.32,18-1.1,26.92-0.25C1865.11,98.21,1841.8,62.27,1803.91,48.22z"/>
<path class="st4" d="M1730.31,119.4c9.6-7.44,28.34-16.9,47.12,1.99c0.71,0.71,1.83-0.23,1.21-1.03
	c-9.9-12.78-28.02-27.17-49.44-2.11C1728.57,118.97,1729.55,119.98,1730.31,119.4z"/>
<path class="st4" d="M1812.4,82.06c0,0,4.09-3.36,8.66,0.77C1821.05,82.83,1819.12,76.15,1812.4,82.06z"/>
<path class="st4" d="M1812.97,89.15c0,0,3.25,4.29,8.75-1.19c0.08-0.08,0.21,0.01,0.16,0.11
	C1821.05,89.92,1817.34,95.96,1812.97,89.15z"/>
<path class="st4" d="M1812.84,118.5c3.07-4.45,11.73-13.62,26.35-3.29c0,0-18.86-19.33-26.86,3.03
	C1812.22,118.56,1812.65,118.78,1812.84,118.5z"/>
<path class="st4" d="M1819.41,133.57c1.68,1.17,3.24,2.07,4.69,2.73c3.75,0.1,7.5,0.19,11.26,0.13c4.21-2.62,6.02-8.24,6.68-11.03
	c0.06-0.25-0.28-0.38-0.41-0.15c-5.72,10.58-17.06,8.91-21.9,7.61C1819.3,132.75,1819.04,133.32,1819.41,133.57z"/>
<path class="st4" d="M1752.05,117.12c1.19-1.5,4.75-4.75,10.29,0.77c0.11,0.11-0.02,0.28-0.15,0.2c-1.86-1.08-6.32-3.15-9.97-0.79
	C1752.1,117.38,1751.96,117.23,1752.05,117.12z"/>
<path class="st4" d="M1752.37,126.42c1.65,0.87,5.61,2.47,9.12,0.22c0.16-0.11,0.42,0.08,0.32,0.23c-1.22,1.85-4.68,5.7-9.69-0.23
	C1751.99,126.48,1752.18,126.32,1752.37,126.42z"/>
<path class="st4" d="M1702.44,135.06c1.33-1,4.41-2.49,9.17-0.14c0.2,0.1,0.39-0.09,0.23-0.22c-2.05-1.69-6.86-4.83-9.71,0.17
	C1702.04,135.01,1702.29,135.17,1702.44,135.06z"/>
<path class="st4" d="M1787.9,56.07c0,0-4.68-0.84-2.69-3.86C1785.21,52.2,1779.85,54.78,1787.9,56.07z"/>
<path class="st4" d="M1794.17,53.96c0,0,2.65-2.5-4.52-3.39c-0.1-0.01-0.07-0.09,0.04-0.1
	C1791.71,50.34,1798.69,50.31,1794.17,53.96z"/>
<path class="st4" d="M1741.88,72.52c2.3-1.58,8.79-4.82,16.9,1.54c0.09,0.07,0.2-0.04,0.13-0.13c-2.03-2.52-10.19-11.42-17.28-1.67
	C1741.51,72.43,1741.71,72.64,1741.88,72.52z"/>
<path class="st4" d="M1742.68,86.58c-0.13-0.08-0.27,0.09-0.16,0.2c2.33,2.45,10.86,9.89,17.67-4.08
	C1760.18,82.7,1754.57,93.69,1742.68,86.58z"/>
<path class="st4" d="M1717.98,73.81c-1.06,3.64-4.7,10.97-16.25,6.09c-0.15-0.06-0.1-0.3,0.07-0.28c2.79,0.29,10.7,0.44,15.57-6.12
	C1717.6,73.2,1718.09,73.44,1717.98,73.81z"/>
<path class="st6" d="M1071.7,53.33c0,0-0.42-0.2-1.18-0.54c-5.53-2.47-29.24-12.5-44.89-9.96c-1.6,0.26-2.25,2.21-1.11,3.37v0
	c1.34,1.37,0.18,3.65-1.71,3.37c-10.17-1.49-30.89-3.07-45.23,5.64c-1.06,0.64-1.3,2.08-0.48,3.02l1.81,2.1
	c0.92,1.06,0.49,2.7-0.83,3.18c-7,2.54-25.15,9.76-28.21,17.13c-3.86,9.3,29.52,14.96,38.93,15.19c1.23,0.03,2.14,1.17,1.9,2.38
	l-0.59,3.04c-0.22,1.11,0.53,2.18,1.65,2.35c4.91,0.78,17.91,2.63,30.25,2.52c1.7-0.01,2.64,1.98,1.54,3.28l-0.21,0.25
	c-1.15,1.37-0.06,3.45,1.72,3.27c8.07-0.79,25.9-4.21,47.51-18.8L1071.7,53.33z"/>
<path class="st7" d="M1072.05,83.49c-10.37,8.97-32.99,13.84-41.63,15.42c-1.12,0.21-1.86-1.13-1.09-1.97v0
	c0.71-0.77,0.14-2.02-0.91-1.99c-12.19,0.41-17.48-0.95-19.41-1.68c-0.55-0.21-0.86-0.8-0.72-1.38l0.28-1.21
	c0.16-0.68-0.3-1.35-0.99-1.45c-15.99-2.23-20.67-3.89-22.85-8c-1.82-3.43,11.55-9.38,16.63-11.49c0.84-0.35,0.99-1.48,0.27-2.03
	l-1.3-1c-0.63-0.49-0.61-1.46,0.05-1.91c9.11-6.25,21.91-4.91,28.45-3.64c1.16,0.23,1.9-1.2,1.05-2.02l-0.89-0.85
	c-0.74-0.71-0.3-1.97,0.73-2.04c17.33-1.23,42.11,9.77,42.11,9.77L1072.05,83.49z"/>
<path class="st8" d="M1071.6,79.83c-3.3,3.08-15.73,5.61-20.04,6.42c-0.47,0.09-0.77-0.48-0.44-0.82l0.01-0.01
	c0.32-0.33,0.04-0.88-0.41-0.83c-4.41,0.48-7.65,0.06-8.93-0.16c-0.31-0.05-0.49-0.38-0.37-0.67l0.26-0.64
	c0.13-0.31-0.09-0.66-0.43-0.68c-7.73-0.42-10.71-1.68-11.79-3.2c-0.93-1.31,5.82-4.23,8.07-5.17c0.33-0.14,0.41-0.57,0.14-0.82
	l-0.65-0.6c-0.21-0.19-0.21-0.52-0.01-0.72c2.36-2.32,10.23-2.21,13.46-2.07c0.46,0.02,0.69-0.55,0.35-0.86l-0.02-0.02
	c-0.32-0.29-0.14-0.82,0.29-0.86c7.47-0.69,18.03,2.94,19.95,3.63c0.19,0.07,0.31,0.24,0.32,0.43l0.38,7.22
	C1071.75,79.59,1071.7,79.73,1071.6,79.83z"/>
<path class="st9" d="M1221.76,71.41c-74.08-71.1-134.85-15.53-134.85-15.53l0.46,34.7c0,0,62.21,53.96,134.4-19.06"/>
<circle class="st10" cx="1155.04" cy="72.42" r="19.55"/>
<circle class="st11" cx="1155.31" cy="72.42" r="14.95"/>
<polyline class="st12" points="1086.91,56.11 1071.76,49.56 1072.39,97.7 1087.37,90.76 "/>
<path class="st13" d="M1164.28,37.5c0,0-30.78-29.46-75.26-9.4l18.22,15.2c16.97-8.77,36.24-10.56,56.71-5.98"/>
<path class="st13" d="M1165.18,106.47c0,0-30,30.26-74.98,11.38l17.81-15.67c17.2,8.32,36.5,9.6,56.85,4.49"/>
<g>
	<g>
		<path class="st0" d="M1221.35,32.38c3.22,0,3.22-5,0-5C1218.13,27.38,1218.13,32.38,1221.35,32.38L1221.35,32.38z"/>
	</g>
</g>
<g>
	<g>
		<path class="st0" d="M810.26,44.58c3.22,0,3.22-5,0-5C807.05,39.58,807.04,44.58,810.26,44.58L810.26,44.58z"/>
	</g>
</g>
<g>
	<g>
		<path class="st0" d="M608.83,90.37c3.22,0,3.22-5,0-5C605.61,85.37,605.6,90.37,608.83,90.37L608.83,90.37z"/>
	</g>
</g>
<g>
	<g>
		<path class="st0" d="M825.58,102.79c3.22,0,3.22-5,0-5C822.37,97.79,822.36,102.79,825.58,102.79L825.58,102.79z"/>
	</g>
</g>
<g>
	<g>
		<path class="st0" d="M776.56,141c3.22,0,3.22-5,0-5C773.34,136,773.34,141,776.56,141L776.56,141z"/>
	</g>
</g>
<g>
	<g>
		<path class="st0" d="M116.44,23.79c3.22,0,3.22-5,0-5C113.22,18.79,113.22,23.79,116.44,23.79L116.44,23.79z"/>
	</g>
</g>
<g>
	<g>
		<path class="st0" d="M212.82,17c3.22,0,3.22-5,0-5C209.6,12,209.59,17,212.82,17L212.82,17z"/>
	</g>
</g>
<g>
	<g>
		<path class="st0" d="M1838.9,29.75c3.22,0,3.22-5,0-5C1835.68,24.75,1835.67,29.75,1838.9,29.75L1838.9,29.75z"/>
	</g>
</g>
<g>
	<g>
		<path class="st0" d="M762.89,95.79c3.22,0,3.22-5,0-5C759.67,90.79,759.67,95.79,762.89,95.79L762.89,95.79z"/>
	</g>
</g>
<g>
	<g>
		<path class="st0" d="M545.75,63.47c3.22,0,3.22-5,0-5C542.54,58.47,542.53,63.47,545.75,63.47L545.75,63.47z"/>
	</g>
</g>
<g>
	<g>
		<path class="st0" d="M1072.23,133.26c3.22,0,3.22-5,0-5C1069.01,128.26,1069.01,133.26,1072.23,133.26L1072.23,133.26z"/>
	</g>
</g>
<g>
	<g>
		<path class="st0" d="M351.2,20.58c3.22,0,3.22-5,0-5C347.98,15.58,347.98,20.58,351.2,20.58L351.2,20.58z"/>
	</g>
</g>
<g>
	<g>
		<path class="st0" d="M45.04,116.59c3.22,0,3.22-5,0-5C41.82,111.59,41.81,116.59,45.04,116.59L45.04,116.59z"/>
	</g>
</g>
<g>
	<g>
		<path class="st0" d="M634.6,42.02c3.22,0,3.22-5,0-5C631.39,37.02,631.38,42.02,634.6,42.02L634.6,42.02z"/>
	</g>
</g>
<g>
	<g>
		<path class="st0" d="M737.24,49.68c3.22,0,3.22-5,0-5C734.03,44.68,734.02,49.68,737.24,49.68L737.24,49.68z"/>
	</g>
</g>
<g>
	<g>
		<path class="st0" d="M522.23,34.13c3.22,0,3.22-5,0-5C519.01,29.13,519.01,34.13,522.23,34.13L522.23,34.13z"/>
	</g>
</g>
<g>
	<g>
		<path class="st0" d="M693.99,88.82c3.22,0,3.22-5,0-5C690.77,83.82,690.76,88.82,693.99,88.82L693.99,88.82z"/>
	</g>
</g>
<g>
	<g>
		<path class="st0" d="M209.95,68.34c3.22,0,3.22-5,0-5C206.73,63.34,206.73,68.34,209.95,68.34L209.95,68.34z"/>
	</g>
</g>
<g>
	<g>
		<path class="st0" d="M644.16,118.34c3.22,0,3.22-5,0-5C640.94,113.34,640.94,118.34,644.16,118.34L644.16,118.34z"/>
	</g>
</g>
<g>
	<g>
		<path class="st0" d="M176.56,135.47c3.22,0,3.22-5,0-5C173.34,130.47,173.34,135.47,176.56,135.47L176.56,135.47z"/>
	</g>
</g>
<g>
	<g>
		<path class="st0" d="M113.75,71.13c3.22,0,3.22-5,0-5C110.54,66.13,110.53,71.13,113.75,71.13L113.75,71.13z"/>
	</g>
</g>
<g>
	<g>
		<path class="st0" d="M115.29,115.56c3.22,0,3.22-5,0-5C112.07,110.56,112.06,115.56,115.29,115.56L115.29,115.56z"/>
	</g>
</g>
<g>
	<g>
		<path class="st0" d="M287.14,28.87c3.22,0,3.22-5,0-5C283.92,23.87,283.92,28.87,287.14,28.87L287.14,28.87z"/>
	</g>
</g>
<g>
	<g>
		<path class="st0" d="M1459.11,121.98c3.22,0,3.22-5,0-5C1455.9,116.98,1455.89,121.98,1459.11,121.98L1459.11,121.98z"/>
	</g>
</g>
<g>
	<g>
		<path class="st0" d="M910.69,44.58c3.22,0,3.22-5,0-5C907.47,39.58,907.47,44.58,910.69,44.58L910.69,44.58z"/>
	</g>
</g>
<g>
	<g>
		<path class="st0" d="M870.47,62.2c3.22,0,3.22-5,0-5C867.26,57.2,867.25,62.2,870.47,62.2L870.47,62.2z"/>
	</g>
</g>
<g>
	<g>
		<path class="st0" d="M895.37,102.79c3.22,0,3.22-5,0-5C892.15,97.79,892.15,102.79,895.37,102.79L895.37,102.79z"/>
	</g>
</g>
<g>
	<g>
		<path class="st0" d="M944.39,141c3.22,0,3.22-5,0-5C941.17,136,941.17,141,944.39,141L944.39,141z"/>
	</g>
</g>
<g>
	<g>
		<path class="st0" d="M1477.5,50.7c3.22,0,3.22-5,0-5C1474.28,45.7,1474.28,50.7,1477.5,50.7L1477.5,50.7z"/>
	</g>
</g>
<g>
	<g>
		<path class="st0" d="M1604.52,23.79c3.22,0,3.22-5,0-5C1601.3,18.79,1601.29,23.79,1604.52,23.79L1604.52,23.79z"/>
	</g>
</g>
<g>
	<g>
		<path class="st0" d="M1508.14,17c3.22,0,3.22-5,0-5C1504.92,12,1504.91,17,1508.14,17L1508.14,17z"/>
	</g>
</g>
<g>
	<g>
		<path class="st0" d="M1364.14,97.47c3.22,0,3.22-5,0-5C1360.92,92.47,1360.91,97.47,1364.14,97.47L1364.14,97.47z"/>
	</g>
</g>
<g>
	<g>
		<path class="st0" d="M958.06,95.79c3.22,0,3.22-5,0-5C954.85,90.79,954.84,95.79,958.06,95.79L958.06,95.79z"/>
	</g>
</g>
<g>
	<g>
		<path class="st0" d="M1398.54,66.59c3.22,0,3.22-5,0-5C1395.33,61.59,1395.32,66.59,1398.54,66.59L1398.54,66.59z"/>
	</g>
</g>
<g>
	<g>
		<path class="st0" d="M1294.69,43.56c3.22,0,3.22-5,0-5C1291.47,38.56,1291.47,43.56,1294.69,43.56L1294.69,43.56z"/>
	</g>
</g>
<g>
	<g>
		<path class="st0" d="M1369.75,20.58c3.22,0,3.22-5,0-5C1366.54,15.58,1366.53,20.58,1369.75,20.58L1369.75,20.58z"/>
	</g>
</g>
<g>
	<g>
		<path class="st0" d="M1115.22,141.6c3.22,0,3.22-5,0-5C1112.01,136.6,1112,141.6,1115.22,141.6L1115.22,141.6z"/>
	</g>
</g>
<g>
	<g>
		<path class="st0" d="M1086.35,42.02c3.22,0,3.22-5,0-5C1083.13,37.02,1083.13,42.02,1086.35,42.02L1086.35,42.02z"/>
	</g>
</g>
<g>
	<g>
		<path class="st0" d="M983.71,49.68c3.22,0,3.22-5,0-5C980.49,44.68,980.49,49.68,983.71,49.68L983.71,49.68z"/>
	</g>
</g>
<g>
	<g>
		<path class="st0" d="M1176.73,129.34c3.22,0,3.22-5,0-5C1173.51,124.34,1173.51,129.34,1176.73,129.34L1176.73,129.34z"/>
	</g>
</g>
<g>
	<g>
		<path class="st0" d="M1307.67,115.14c3.22,0,3.22-5,0-5C1304.45,110.14,1304.45,115.14,1307.67,115.14L1307.67,115.14z"/>
	</g>
</g>
<g>
	<g>
		<path class="st0" d="M1238.01,83.39c3.22,0,3.22-5,0-5C1234.79,78.39,1234.79,83.39,1238.01,83.39L1238.01,83.39z"/>
	</g>
</g>
<g>
	<g>
		<path class="st0" d="M1544.39,135.47c3.22,0,3.22-5,0-5C1541.17,130.47,1541.17,135.47,1544.39,135.47L1544.39,135.47z"/>
	</g>
</g>
<g>
	<g>
		<path class="st0" d="M1607.2,71.13c3.22,0,3.22-5,0-5C1603.98,66.13,1603.98,71.13,1607.2,71.13L1607.2,71.13z"/>
	</g>
</g>
<g>
	<g>
		<path class="st0" d="M1605.67,115.56c3.22,0,3.22-5,0-5C1602.45,110.56,1602.45,115.56,1605.67,115.56L1605.67,115.56z"/>
	</g>
</g>
<g>
	<g>
		<path class="st0" d="M1650.26,31.98c3.22,0,3.22-5,0-5C1647.05,26.98,1647.04,31.98,1650.26,31.98L1650.26,31.98z"/>
	</g>
</g>
<g>
	<g>
		<path class="st0" d="M1677.99,111.27c3.22,0,3.22-5,0-5C1674.77,106.27,1674.76,111.27,1677.99,111.27L1677.99,111.27z"/>
	</g>
</g>
<g>
	<g>
		<path class="st0" d="M1916.97,59.57c3.22,0,3.22-5,0-5C1913.75,54.57,1913.74,59.57,1916.97,59.57L1916.97,59.57z"/>
	</g>
</g>
<g>
	<g>
		<path class="st0" d="M1883.11,19.72c3.22,0,3.22-5,0-5C1879.9,14.72,1879.89,19.72,1883.11,19.72L1883.11,19.72z"/>
	</g>
</g>
<g>
	<g>
		<path class="st0" d="M1920.61,118.35c3.22,0,3.22-5,0-5C1917.39,113.35,1917.38,118.35,1920.61,118.35L1920.61,118.35z"/>
	</g>
</g>
<g>
	<g>
		<path class="st0" d="M1881.6,92.69c3.22,0,3.22-5,0-5C1878.38,87.69,1878.38,92.69,1881.6,92.69L1881.6,92.69z"/>
	</g>
</g>
<g>
	<g>
		<path class="st0" d="M1541.53,80.62c3.22,0,3.22-5,0-5C1538.31,75.62,1538.3,80.62,1541.53,80.62L1541.53,80.62z"/>
	</g>
</g>
<g>
	<g>
		<path class="st0" d="M1719.02,57.85c3.22,0,3.22-5,0-5C1715.8,52.85,1715.8,57.85,1719.02,57.85L1719.02,57.85z"/>
	</g>
</g>
<g>
	<g>
		<path class="st0" d="M1746.79,27.99c3.22,0,3.22-5,0-5C1743.57,22.99,1743.57,27.99,1746.79,27.99L1746.79,27.99z"/>
	</g>
</g>
<g>
	<g>
		<path class="st0" d="M56.31,29.77c3.22,0,3.22-5,0-5C53.09,24.77,53.08,29.77,56.31,29.77L56.31,29.77z"/>
	</g>
</g>
<g>
	<g>
		<path class="st0" d="M57.84,74.19c3.22,0,3.22-5,0-5C54.62,69.19,54.62,74.19,57.84,74.19L57.84,74.19z"/>
	</g>
</g>
<path class="st14" d="M1911.58,136.29H33.42c-14.55,0-26.34-11.79-26.34-26.34V38.76c0-14.55,11.79-26.34,26.34-26.34h1878.16
	c14.55,0,26.34,11.79,26.34,26.34v71.19C1937.92,124.5,1926.13,136.29,1911.58,136.29z"/>
</svg>
