<?xml version="1.0" encoding="utf-8"?>
<!-- Generator: Adobe Illustrator 27.1.1, SVG Export Plug-In . SVG Version: 6.00 Build 0)  -->
<svg version="1.1" id="Layer_1" xmlns="http://www.w3.org/2000/svg" xmlns:xlink="http://www.w3.org/1999/xlink" x="0px" y="0px"
	 viewBox="0 0 324 324" style="enable-background:new 0 0 324 324;" xml:space="preserve">
<style type="text/css">
	.st0{fill:none;}
	.st1{fill:none;stroke:#984C1E;stroke-width:5;stroke-miterlimit:10;}
	.st2{fill:#C98372;stroke:#984D23;stroke-width:5;stroke-miterlimit:10;}
	.st3{fill:#F9A360;stroke:#3E1D0D;stroke-width:8;stroke-miterlimit:10;}
	.st4{fill:#3E1D0D;stroke:#3E1D0D;stroke-linecap:round;stroke-linejoin:round;stroke-miterlimit:10;}
	.st5{fill:#3E1D0D;stroke:#3E1D0D;stroke-width:8;stroke-linecap:round;stroke-linejoin:round;stroke-miterlimit:10;}
</style>
<rect x="72.16" y="1712.81" class="st0" width="288" height="288"/>
<path class="st1" d="M344.54,2000.81H87.78c-8.63,0-15.62-6.99-15.62-15.62v-256.76c0-8.63,6.99-15.62,15.62-15.62h256.75
	c8.63,0,15.62,6.99,15.62,15.62v256.76C360.16,1993.81,353.17,2000.81,344.54,2000.81z"/>
<path class="st2" d="M345.01,2000.81H88.26c-8.63,0-15.62-6.99-15.62-15.62v-256.76c0-8.63,6.99-15.62,15.62-15.62h256.75
	c8.63,0,15.62,6.99,15.62,15.62v256.76C360.63,1993.81,353.64,2000.81,345.01,2000.81z"/>
<circle class="st3" cx="216.63" cy="1854.55" r="124.66"/>
<path class="st4" d="M104.91,1857.06l75.9,1.11c0.77,0.01,1.41-0.6,1.41-1.37c-0.09-18.8,14.37-31.53,18.11-34.51
	c0.51-0.4,0.66-1.11,0.37-1.69l-33.17-67.45c-0.34-0.69-1.17-0.98-1.85-0.64c-8.93,4.41-62.66,33.87-62.15,103.17
	C103.54,1856.43,104.16,1857.05,104.91,1857.06z"/>
<path class="st4" d="M262.5,1750.74l-30.51,69.85c-0.34,0.77-0.03,1.68,0.71,2.07c4.42,2.36,18.56,11.31,22.73,31.03
	c0.16,0.77,0.84,1.32,1.63,1.31l73.45-1.75c0.9-0.02,1.6-0.76,1.58-1.66c-0.23-10.84-4.34-73.17-67.42-101.69
	C263.84,1749.53,262.86,1749.91,262.5,1750.74z"/>
<ellipse class="st5" cx="218.19" cy="1854.87" rx="16.47" ry="17.36"/>
<path class="st4" d="M282.66,1948.19l-41.62-66.26c-20.43,11.74-41.11,2.04-41.11,2.04l-42,67.53
	C157.94,1951.51,216.53,1992.74,282.66,1948.19z"/>
<rect x="17.81" y="18.22" class="st0" width="288" height="288"/>
<path class="st1" d="M290.19,306.22H33.43c-8.63,0-15.62-6.99-15.62-15.62V33.85c0-8.63,6.99-15.62,15.62-15.62h256.75
	c8.63,0,15.62,6.99,15.62,15.62V290.6C305.81,299.23,298.82,306.22,290.19,306.22z"/>
<path class="st2" d="M290.66,306.22H33.91c-8.63,0-15.62-6.99-15.62-15.62V33.85c0-8.63,6.99-15.62,15.62-15.62h256.75
	c8.63,0,15.62,6.99,15.62,15.62V290.6C306.28,299.23,299.29,306.22,290.66,306.22z"/>
<circle class="st3" cx="162.28" cy="159.97" r="124.66"/>
<path class="st4" d="M50.56,162.48l75.9,1.11c0.77,0.01,1.41-0.6,1.41-1.37c-0.09-18.8,14.37-31.53,18.11-34.51
	c0.51-0.4,0.66-1.11,0.37-1.69l-33.17-67.45c-0.34-0.69-1.17-0.98-1.85-0.64c-8.93,4.41-62.66,33.87-62.15,103.17
	C49.19,161.85,49.81,162.47,50.56,162.48z"/>
<path class="st4" d="M208.15,56.15L177.64,126c-0.34,0.77-0.03,1.68,0.71,2.07c4.42,2.36,18.56,11.31,22.73,31.03
	c0.16,0.77,0.84,1.33,1.63,1.31l73.45-1.75c0.9-0.02,1.6-0.76,1.58-1.66c-0.23-10.84-4.34-73.17-67.42-101.69
	C209.49,54.95,208.51,55.33,208.15,56.15z"/>
<ellipse class="st5" cx="163.84" cy="160.29" rx="16.47" ry="17.36"/>
<path class="st4" d="M228.31,253.61l-41.62-66.26c-20.43,11.74-41.11,2.04-41.11,2.04l-42,67.53
	C103.59,256.93,162.18,298.16,228.31,253.61z"/>
</svg>
