<?xml version="1.0" encoding="utf-8"?>
<!-- Generator: Adobe Illustrator 27.1.1, SVG Export Plug-In . SVG Version: 6.00 Build 0)  -->
<svg version="1.1" id="Layer_1" xmlns="http://www.w3.org/2000/svg" xmlns:xlink="http://www.w3.org/1999/xlink" x="0px" y="0px"
	 viewBox="0 0 324 324" style="enable-background:new 0 0 324 324;" xml:space="preserve">
<style type="text/css">
	.st0{fill:#D6B79E;stroke:#984D23;stroke-width:5;stroke-miterlimit:10;}
	.st1{fill:#6C322C;stroke:#441710;stroke-miterlimit:10;}
	.st2{fill:#DC7038;stroke:#AA5626;stroke-width:0.5;stroke-miterlimit:10;}
	.st3{fill:none;stroke:#000000;stroke-miterlimit:10;}
	.st4{fill:#EFE8CC;}
	.st5{fill:#D23C27;stroke:#A53A23;stroke-width:0.5;stroke-miterlimit:10;}
	.st6{fill:#EFE8CC;stroke:#EFE8CC;stroke-width:0.5;stroke-miterlimit:10;}
	.st7{fill:#EFE8CC;stroke:#B1AE9C;stroke-width:0.5;stroke-miterlimit:10;}
	.st8{fill:none;stroke:#A8A694;stroke-width:0.5;stroke-miterlimit:10;}
	.st9{fill:#EFE8CC;stroke:#B1AE9C;stroke-width:0.5;stroke-linecap:round;stroke-linejoin:round;stroke-miterlimit:10;}
	.st10{fill:none;stroke:#B1AE9C;stroke-width:0.5;stroke-linecap:round;stroke-linejoin:round;stroke-miterlimit:10;}
	.st11{fill:#EFE8CC;stroke:#B5956A;stroke-width:0.5;stroke-miterlimit:10;}
	.st12{fill:#EFE8CC;stroke:#B5956A;stroke-width:0.5;stroke-linecap:round;stroke-linejoin:round;stroke-miterlimit:10;}
	.st13{fill:none;stroke:#A53A23;stroke-width:0.5;stroke-miterlimit:10;}
	.st14{fill:#D23D27;stroke:#B5956A;stroke-width:0.5;stroke-miterlimit:10;}
	.st15{fill:#2B190D;stroke:#A8A694;stroke-width:0.5;stroke-miterlimit:10;}
	.st16{fill:none;stroke:#E8A350;stroke-width:3;stroke-linecap:round;stroke-linejoin:bevel;stroke-miterlimit:10;}
</style>
<path class="st0" d="M290.42,306.22H33.67c-8.63,0-15.62-6.99-15.62-15.62V33.85c0-8.63,6.99-15.62,15.62-15.62h256.76
	c8.63,0,15.62,6.99,15.62,15.62V290.6C306.05,299.23,299.05,306.22,290.42,306.22z"/>
<path class="st1" d="M113.39,260.21c-7.69,1.59-15.21-3.35-16.8-11.04L65.42,98.48c-1.59-7.69,3.35-15.21,11.04-16.8L88,79.29
	c7.69-1.59,15.21,3.35,16.8,11.04l31.17,150.69"/>
<path class="st1" d="M111.73,220.18h104.51c8.51,0,15.4,6.37,15.4,14.22v11.78c0,7.85-6.89,14.22-15.4,14.22H111.73"/>
<path class="st2" d="M180.22,226.24c0,0-39.46,0.51-42.39-10.21c-2.93-10.72,38.11-9.19,38.11-9.19l15.49,13.79L180.22,226.24z"/>
<path class="st1" d="M134.64,260.69c8.27,16.75-2.62,29.08-9.01,34.46c-1.18,0.99-0.45,2.91,1.09,2.88l67.6-0.4l0.78,0.02
	c1.54-0.01,2.22-1.94,1.02-2.9c-6.52-5.21-17.72-17.26-9.89-34.21"/>
<path class="st3" d="M150.9,265.23"/>
<path class="st3" d="M206.05,296.22"/>
<path class="st4" d="M179.4,68.69"/>
<path class="st5" d="M138.79,90.06c-0.9,0.44,0.72-2.38,0.72-2.38s-0.55-2.88,0.29-6.25c0.84-3.36,12.61-0.87,12.61-0.87
	s31.6,8.48,28.58,11.76l-3.14,5.15c0,0-0.12,0.94-2.95-0.91C172.07,94.73,147.6,85.8,138.79,90.06z"/>
<polyline class="st2" points="173.12,91.79 145.39,84.81 144.98,81.56 171.59,79.85 171.75,81.06 173.12,91.79 "/>
<rect x="132.09" y="63.93" transform="matrix(0.9954 -0.096 0.096 0.9954 -6.142 15.6388)" class="st6" width="54.71" height="15.44"/>
<path class="st7" d="M159.2,72.58"/>
<path class="st8" d="M156.26,41.27"/>
<path class="st8" d="M156.26,41.27"/>
<path class="st4" d="M186.08,67.84"/>
<path class="st9" d="M268.39,277.51c0.75-0.59,1.69-1.03,2.67-1.35c2.96-0.97,6.35-0.91,6.35-0.91c6.08-0.1,11.63,3.19,13.93,8.26
	c0,0,4.02,13.49-5.23,13.6c-8.14,0.1-31.36,0.52-36.8,0.62c0,0-1.15,0.07-1.35-1.34c-0.57-4-1.75-15.9,1.91-22.92
	c0,0,19.31-0.26,19.81-0.33s1.39,3.02,1.39,3.02"/>
<path class="st2" d="M196.45,185.26c0,0,37.31-1.2,44.23,4.03l24.4,2.22c0,0,14.11,3.14,15.23,17.24c1.12,14.1-3.25,22.5-3.25,22.5
	s-2.88,4.14-8.96,4.48l-24.4-2.22c-7.75,3.89-44.23-4.03-44.23-4.03l-1.16-0.11c-9.08-0.88-17.91-2.35-22.11-3.09l-1-0.18
	c0,0,1.61-26.63-2.26-41.68c0,0,47.63-0.3,48.7,8.02"/>
<path class="st9" d="M261.71,280.02c0.78-0.55,1.74-0.94,2.74-1.21c3-0.81,6.38-0.58,6.38-0.58c6.08,0.21,11.45,3.78,13.49,8.96
	c0,0,3.32,13.68-5.92,13.32c-8.14-0.32-31.35-1.08-36.79-1.26c0,0-1.15,0.01-1.28-1.4c-0.37-4.02-0.94-15.97,3.08-22.79
	c0,0,19.3,0.73,19.8,0.68c0.5-0.05,1.24,3.08,1.24,3.08"/>
<path class="st2" d="M232.93,234.61c-13.52-0.94-31.92-4.96-31.92-4.96l-1.17-0.11c-9.14-0.89-18.03-2.37-22.25-3.11l-1.01-0.19
	c0,0,1.64-26.97-2.25-42.22c0,0,47.94-0.33,49.01,8.1"/>
<path class="st2" d="M277.8,225.61c-0.21,4.05,0.59,7.44-0.46,9.15l0.26,24.65c0,0-1.72,14.45-15.81,17.01
	c-14.09,2.55-23.01-0.96-23.01-0.96s-4.46-2.46-5.44-8.51l-0.26-24.65c-1.38-2.15-1.99-6.85-2.17-12.44"/>
<path class="st2" d="M222.12,190.32c0,0,33.13-1.88,53.57,7.62"/>
<path class="st5" d="M177.58,136.86c0,0-18.12,5.86-40.07,5.19"/>
<path class="st10" d="M161.61,216.55c0.32-0.44,0.21-2.37-0.08-4.74"/>
<path class="st5" d="M176.97,97.66c0.07,0.59,23.87,18.66,21.41,33.86s9.48,79.47,9.48,79.47s-72.62,10.73-74.75,6.6
	c-2.14-4.13,0.51-28.47,0.51-28.47s-3.79-47.21-7.85-56.52s0.99-35.33,8.92-38.7S176.97,97.66,176.97,97.66z"/>
<path class="st11" d="M197.76,123.73c-0.2,0.41-0.82,1.34-2.43,2.28c0,0-1.68,1.61-1.79,2.18s-0.28,0.43-0.28,0.43
	s-0.48-1.25-0.02-2.15c0.45-0.9-0.41-0.32-0.41-0.32l-1.24,3.56c0,0-0.63,1.13-0.83-0.26c-0.21-1.39-0.23-3.86-0.23-3.86
	s-0.72-2.24-1,0c-0.28,2.24,0.35,5.48,0.35,5.48s0.29,2.59-0.86,0.83c0,0-1.57-3.54-2.64-3.51c-1.07,0.03-0.77,1.01-0.77,1.01
	l2.33,2.69c0,0,1.14,2.16-0.89,0.87c0,0-1.8-2.1-4.96-2.44c-3.15-0.34-1.36,1.79-1.36,1.79s3.5-0.31,4.58,1.32
	c0,0,1.86,1.17,0.25,1.66c0,0-1.22-0.04-1.68-0.17c-0.46-0.13-5.33,0.89-5.33,0.89s-2.28,1.93-4.04,0.86s-2.85-3.43-2.85-3.43
	s-1.48-3.83,1.09-6.32s2.07-3.69,2.07-3.69s-0.1-2.59,4.72-2.57c4.82,0.02,7.33,6.06,7.33,6.06s1,2.38,1.01-0.13
	c0.01-2.51-1.02-3.98-1.02-3.98s-2.44-1.14-2.37-4.04c0.07-2.91-0.26-4.49,1.46-5.37c0,0,3.31-0.48,4.74-1.03
	c0.17-0.07,0.34-0.11,0.51-0.14"/>
<path class="st11" d="M185.61,138.29c0,0-1.96,0.41,0.41,1.56l0.91-0.12c0,0,2.85-0.34,1.45,1.16s-3.6,2.9-3.6,2.9
	s-3.43,2.63-0.54,2.55c2.89-0.09,4.19-3.64,4.19-3.64s1.68-2.87,0.89,1.08c-0.78,3.95-1.13,4.31-0.4,4.83
	c0.73,0.52,1.69-3.42,1.69-3.42s-0.59-3.58,0.56-3.54c1.15,0.04,0.95,4.39,0.95,4.39l0.56,4.8c0,0,0.08,5.24-3.11,6.8
	c-3.2,1.56-3.44,1.02-5.35-0.76c0,0-4.24,2.64-7.32-3.09s-1.95-9.16-1.95-9.16s0.56-1.55,1.25-1.63c0.01,0,0.02,0,0.04,0l-0.06-0.21
	c0,0-1.05-3.54,1.95-5c3-1.46,4.67-1.35,4.67-1.35s5.2-0.31,5.9,0.8c0.71,1.1-2.95,1.04-2.95,1.04L185.61,138.29z"/>
<path class="st12" d="M197.95,125.19c-7.09,5.52-7.38,11.78-7.38,11.78s0.33,3.28,2.05,0.41c0,0,0.6-6.07,5.5-10.82"/>
<path class="st12" d="M198.3,132.09c-0.6,0.26-1.04,0.48-1.04,0.48c-3.64,3.22-0.24-1.88-0.24-1.88s0.55-0.78,1.4-1.62"/>
<path class="st12" d="M198.06,135.82c-1.46,0.23-0.58-0.81,0.06-1.45"/>
<path class="st12" d="M198.18,140.52c-0.33-0.07-0.68-0.11-1.05-0.14c-2.59-0.15-0.46-1.59,0.92-2.39"/>
<path class="st12" d="M198.34,144.38c-0.38-0.53-0.79-1-0.79-1c-0.89-1.37-0.13-1.17,0.69-0.74"/>
<path class="st12" d="M199.72,158.45c-2.14,0.53-6.21,0.6-5.44-6.89l-0.05-0.2c0,0-1.3-4.96-1.08-8.44
	c0.22-3.48,1.19-0.21,1.19-0.21l0.96,3.85c1.41,2.17,1.26,0.1,1.26,0.1s-1.7-6.07-0.46-3.56s2.11,2.66,2.11,2.66
	c0.09,0.03,0.17,0.06,0.25,0.07"/>
<path class="st11" d="M183.71,177.8c0,0-0.78,2.47-1.01-0.04c-0.24-2.5,0.65-4.06,0.65-4.06s2.33-1.36,1.99-4.24
	c-0.34-2.89-0.16-4.49-1.95-5.22c0,0-3.34-0.17-4.81-0.59c-1.47-0.42-3.01,0.61-3.01,0.61s-1.87,1.68-2.49,3.56
	c-0.62,1.88-0.39,2.34-0.39,2.34s-2.06,2.71-0.24,5.26c0,0,0.48,1.21,2.74,2.25c0,0,1.82,1.44,1.98,2.01
	c0.16,0.56,0.32,0.4,0.32,0.4s0.36-1.29-0.17-2.14c-0.54-0.85,0.38-0.36,0.38-0.36l1.57,3.43c0,0,0.73,1.07,0.81-0.34
	s-0.12-3.87-0.12-3.87s0.51-2.29,1-0.09c0.49,2.2,0.15,5.49,0.15,5.49s-0.05,2.61,0.93,0.75c0,0,1.24-3.67,2.31-3.74
	c1.07-0.07,0.86,0.93,0.86,0.93l-2.07,2.89c0,0-0.93,2.26,0.97,0.78c0,0,1.6-2.25,4.71-2.88c3.11-0.63,1.52,1.65,1.52,1.65
	s-3.51,0.01-4.44,1.73c0,0-1.74,1.34-0.1,1.67c0,0,1.21-0.15,1.66-0.33c0.45-0.18,5.39,0.4,5.39,0.4s2.45,1.71,4.11,0.49
	c1.65-1.23,2.52-3.68,2.52-3.68s1.12-3.95-1.67-6.19c-2.8-2.24-2.4-3.49-2.4-3.49s-0.14-2.59-4.94-2.13
	C185.66,171.55,183.71,177.8,183.71,177.8z"/>
<path class="st11" d="M194.54,193.18c0,0,1.01-3.51-2.11-4.69c-3.12-1.18-4.77-0.91-4.77-0.91s-5.2,0.17-5.81,1.34
	c-0.6,1.17,3.04,0.76,3.04,0.76l0.14,0c0,0,1.99,0.23-0.26,1.59l-0.92-0.03c0,0-2.87-0.08-1.34,1.29c1.53,1.37,3.85,2.56,3.85,2.56
	s3.66,2.31,0.78,2.49c-2.88,0.18-4.5-3.23-4.5-3.23s-1.93-2.7-0.79,1.16c1.15,3.86,1.52,4.19,0.84,4.77s-2-3.25-2-3.25
	s0.25-3.62-0.89-3.47s-0.54,4.46-0.54,4.46l-0.11,4.83c0,0,0.4,5.23,3.73,6.48c3.33,1.26,3.52,0.7,5.26-1.25c0,0,4.47,2.24,7-3.75
	c2.54-5.99,1.09-9.3,1.09-9.3s-0.71-1.49-1.39-1.51c-0.01,0-0.02,0-0.04,0L194.54,193.18z"/>
<path class="st12" d="M170.21,96.35c2.32,4.2,1.6,6.25,1.6,6.25s-1.3,3.88-5.65,1.09l-0.16-0.11c0,0-7.07,0.79-0.66,1.43
	s4.58,7.79,4.58,7.79s5.22,8.11-4.03,9.62l-0.16,0.06c0,0-6.76,5.17-7.92-4.89l-0.09-0.18c0,0-2.34-4.57-2.87-8.01
	s1.12-0.46,1.12-0.46l1.76,3.55c1.84,1.81,1.25-0.17,1.25-0.17s-2.97-5.56-1.21-3.38c1.76,2.18,2.63,2.14,2.63,2.14
	c2.17,0.26-1.15-2.18-1.15-2.18c-2.04-2.02,1.91-0.38,1.91-0.38c3.81,2.63,2.63-0.79,2.63-0.79s-2.03-2.24-5.58-1.67
	c-3.55,0.57,1.22-3.24,1.22-3.24c4.05-1.14,3.3-1.45,3.3-1.45s-0.09-2.47-3.61-0.45c-3.52,2.02-0.84-1.5-0.84-1.5
	s2.91-0.58,2.68-2.49c-0.22-1.9-4.29,1.48-4.29,1.48c-2.87,3.93-0.64-1.79-0.64-1.79s0.45-1.07,1.22-2.19"/>
<path class="st12" d="M167.91,174.96c11.85,5.51,12.56,14.29,12.56,14.29s-0.22,3.28-2.04,0.48c0,0-1.37-10.18-11.63-14.13
	c0,0,1.36,4.02-1.5,3.76c0,0-1.52,0.55-0.85-3.02c0,0-1.89,3.95-3.45,1.7c-1.55-2.25,2.16-4.04,2.16-4.04s-3.52-0.61-2.69-2.79
	s3.21-0.74,3.21-0.74l1.05,1.16c0,0-0.13-4.54,2.22-2.45c2.35,2.09-0.04,2.97-0.04,2.97s1.97-1.32,2.44,0.43
	c0.47,1.75-1.3,2.25-1.3,2.25L167.91,174.96z"/>
<path class="st12" d="M171.56,210.66c0,0,8.14,2.49,5.72-7.34l0.03-0.2c0,0,0.6-5.09-0.1-8.51c-0.7-3.41-1.21-0.04-1.21-0.04
	l-0.41,3.94c-1.09,2.34-1.23,0.27-1.23,0.27s0.84-6.25-0.04-3.59c-0.89,2.65-1.72,2.92-1.72,2.92c-1.94,1,0.32-2.45,0.32-2.45
	c1.2-2.6-1.92,0.31-1.92,0.31c-2.66,3.8-2.74,0.18-2.74,0.18s1.12-2.8,4.65-3.51s-2.27-2.62-2.27-2.62c-4.19,0.34-3.6-0.22-3.6-0.22
	s-0.78-2.35,3.23-1.68s0.27-1.7,0.27-1.7s-2.93,0.47-3.38-1.4c-0.45-1.86,4.54-0.11,4.54-0.11c4.06,2.68-0.02-1.9-0.02-1.9
	s-4.08-4.32-6.7-2.48c-2.62,1.84-3.34,1.71-3.34,1.71s-2.58,0.4-3.36,5.28s0.65,6.59,0.65,6.59s2.57,3.19,5.68-0.95l0.11-0.16
	c0,0,6.91-1.72,1.12,1.11c-5.79,2.83-1.57,8.9-1.57,8.9s-2.07,9.42,7.13,7.62L171.56,210.66z"/>
<path class="st11" d="M147.26,93.23c0.06,0,0.01,0.12,0.02,0.19c0.23,2.24,1.58,5.26,1.58,5.26s0.87,2.46-0.65,1.01
	c0,0-2.33-3.09-3.36-2.82c-1.03,0.27-0.52,1.15-0.52,1.15l2.88,2.09c0,0,1.59,1.85-0.67,1.05c0,0-2.23-1.64-5.38-1.26
	s-0.93,2.05-0.93,2.05s3.33-1.09,4.76,0.25c0,0,2.08,0.72,0.62,1.56c0,0-1.2,0.24-1.68,0.21c-0.48-0.03-4.99,2.07-4.99,2.07
	s-1.79,2.4-3.74,1.75c-1.96-0.65-3.55-2.7-3.55-2.7s-2.31-3.39-0.36-6.41c1.06-1.64,1.32-2.7,1.33-3.32
	C132.6,95.37,134.82,92.29,147.26,93.23z"/>
<path class="st11" d="M150.59,93.64l-0.36,3.32c0,0-0.36,1.25-0.87-0.07c-0.41-1.04-0.86-2.76-1.03-3.43"/>
<path class="st11" d="M146.34,106.68c0,0-1.82,0.84,0.75,1.42l0.86-0.32c0,0,2.7-0.98,1.68,0.8s-2.85,3.64-2.85,3.64
	s-2.75,3.34,0.04,2.6c2.79-0.74,3.26-4.49,3.26-4.49s0.99-3.17,1.11,0.85c0.13,4.02-0.13,4.45,0.7,4.8s0.88-3.71,0.88-3.71
	s-1.38-3.36-0.25-3.58c1.13-0.22,1.92,4.06,1.92,4.06l1.62,4.55c0,0,1.26,5.09-1.5,7.33c-2.76,2.24-3.12,1.77-5.38,0.47
	c0,0-3.53,3.53-7.83-1.36c-4.29-4.89-3.96-8.49-3.96-8.49s0.2-1.64,0.85-1.87c0.01,0,0.02-0.01,0.03-0.01l-0.11-0.19
	c0,0-1.82-3.21,0.78-5.31s4.24-2.37,4.24-2.37s4.99-1.47,5.93-0.56c0.94,0.92-2.64,1.68-2.64,1.68L146.34,106.68z"/>
<path class="st12" d="M153.53,93.79c-3.51,5.81-2.66,10.49-2.66,10.49s1.06,3.12,2.09-0.06c0,0-0.65-4.99,2.02-10.21"/>
<path class="st13" d="M152.41,93.71c1.62,0.18,3.27,0.39,4.9,0.61"/>
<path class="st13" d="M148.3,93.31c1.34,0.11,2.72,0.24,4.11,0.4"/>
<path class="st13" d="M171.67,106.57c0,0-9.94-18.3-29.21-6.83c0,0-11.43,5.43-6.65,23.91l2,18.12c0.02-2.03,29.18-8.73,39.58-5.13
	C177.39,136.64,175.39,109.23,171.67,106.57z"/>
<path class="st11" d="M129.36,149.42c0.76,0.5,1.36,0.93,1.36,0.93s2.23,0.74,0.59-0.81c-0.6-0.57-1.39-1.12-2.14-1.58"/>
<path class="st11" d="M127.52,138.43c0.73-1.41,1.85-3.9,1.85-3.9s-0.22-2.98,1.68-3.78c1.9-0.79,4.45-0.28,4.45-0.28
	s3.97,1.06,4.46,4.61c0.49,3.55,1.77,3.85,1.77,3.85s2.16,1.45-0.7,5.33s-9.22,2.35-9.22,2.35s-2.51-0.6-0.49,0.89
	c2.03,1.49,3.82,1.52,3.82,1.52s2.36-1.3,4.66,0.47s3.78,2.44,3.48,4.34c0,0-1.56,2.96-1.96,4.43s-2.07,2.27-2.07,2.27
	s-2.4,0.75-4.33,0.32c-1.93-0.43-2.21-0.87-2.21-0.87s-0.91,0.1-1.96-0.2"/>
<path class="st14" d="M128.19,142.89c0.99-0.32,2.34-0.97,3.51-2.26c2.13-2.35-0.64-2.16-0.64-2.16s-1.36,2.27-3.01,2.81"/>
<path class="st14" d="M128.82,145.74c0.91,0.06,1.81,0,2.08-0.39c0.6-0.88-0.36-1.21-0.36-1.21l-1.93,0.16"/>
<path class="st11" d="M124.44,126.48c0.04,0.05,0.06,0.08,0.06,0.08s0.92,1.37,0.58,1.97c-0.01,0.01-0.01,0.02-0.02,0.03l0.2,0.07
	c0,0,3.48,1.24,2.89,4.53c-0.32,1.81-0.79,3.01-1.15,3.73"/>
<path class="st11" d="M132.44,208.59c0.18,0.01,0.46-0.16,0.92-0.65c0,0,1.22-2.48,4.18-3.61c2.97-1.12,1.77,1.39,1.77,1.39
	s-3.46,0.58-4.1,2.43c0,0-1.5,1.6,0.17,1.67c0,0,1.17-0.34,1.59-0.59c0.41-0.25,5.39-0.48,5.39-0.48s2.7,1.3,4.13-0.18
	s1.9-4.04,1.9-4.04s0.47-4.08-2.65-5.84c-3.12-1.76-2.93-3.05-2.93-3.05s-0.56-2.54-5.22-1.3c-2.62,0.69-4.06,3.05-4.81,4.98"/>
<path class="st11" d="M148.69,218.07c-0.3-1.25-0.69-1.86-0.69-1.86s-0.94-1.36-1.62-1.27c-0.01,0-0.02,0-0.04,0.01l0.01-0.22
	c0,0,0.12-3.69-3.15-4.35c-3.27-0.66-4.86-0.13-4.86-0.13s-5.11,1.01-5.51,2.26c-0.41,1.25,3.12,0.26,3.12,0.26l0.14-0.02
	c0,0,2-0.1,0,1.61l-0.91,0.12c0,0-2.84,0.39-1.11,1.49c1.73,1.1,4.21,1.9,4.21,1.9s0.63,0.27,1.21,0.63"/>
<path class="st14" d="M129.36,149.42c0.76,0.5,1.36,0.93,1.36,0.93s2.23,0.74,0.59-0.81c-0.6-0.57-1.39-1.12-2.14-1.58"/>
<path class="st13" d="M157.31,94.31c10.16,1.38,19.66,3.35,19.66,3.35c0.07,0.59,23.87,18.66,21.41,33.86s9.48,79.47,9.48,79.47
	s-72.62,10.73-74.75,6.6c-2.14-4.13,0.51-28.47,0.51-28.47s-3.79-47.21-7.85-56.52s0.99-35.33,8.92-38.7
	c2.52-1.07,7.7-1.08,13.61-0.6"/>
<path class="st2" d="M141.42,138.92c0.06,11.9,1.16,24.79,5.1,31.49l-0.06,0.48l-0.06,0.31c0,0-1.68,17.42,10.41,23.92l21.17-2.71
	c10.06-9.34,4.06-25.77,4.06-25.77l0.01-0.19c0.39-12.48-9.53-31.88-9.53-31.88"/>
<path class="st7" d="M161.53,211.81c-0.29-2.35-0.75-5.13-1.13-7.32c-0.77-4.39,1.91-6.71,1.91-6.71l10.61-1.23
	c0,0,7.12,3.01,8.38,12.84c1.26,9.83-6.79,13.84-6.79,13.84l-0.14,0.07c-2.88,4.02-7.6,1.47-7.6,1.47s-0.77-0.39-0.99-1.03
	l-0.21,0.03c-2.22,0.3-4.47,0.03-6.19-2.49l-0.08-0.1c-1.18-0.37-2.2-1.34-2.63-3.38c-1.3-6.13,4.58-6,4.58-6L161.53,211.81z"/>
<path class="st10" d="M159.3,221.19c2.35,0.75,5.29-0.85,5.29-0.85s3.37-2.12,3.83-11.54"/>
<path class="st10" d="M165.57,223.78c2.85-0.39,5.37-2.11,5.67-2.58c0,0,2.6-2.78,3.26-10.35"/>
<path class="st10" d="M178.95,210.28c0,0-1.37,7.56-4.19,12.42c-0.13,0.22-0.26,0.42-0.39,0.61"/>
<path class="st2" d="M176.15,196.11l-16.2,2.07c-0.96,0.12-1.84-0.56-1.96-1.52l0,0c-0.12-0.96,0.56-1.84,1.52-1.96l16.2-2.07
	c0.96-0.12,1.84,0.56,1.96,1.52l0,0C177.79,195.11,177.11,195.98,176.15,196.11z"/>
<path class="st5" d="M171.37,106.12c0,0-9.94-18.3-29.21-6.83c0,0-11.43,5.43-6.65,23.91l2,18.12c0.02-2.03,29.18-8.73,39.58-5.13
	C177.08,136.19,175.09,108.78,171.37,106.12z"/>
<path class="st5" d="M136.22,93.71c-0.9,0.44,0.72-2.38,0.72-2.38s-0.55-2.88,0.29-6.25c0.84-3.36,12.61-0.87,12.61-0.87
	s31.6,8.48,28.58,11.76l-3.14,5.15c0,0-0.12,0.94-2.95-0.91C169.5,98.38,145.02,89.45,136.22,93.71z"/>
<path class="st12" d="M177.01,133.46c-1.5-2.44-3.38-4.62-3.38-4.62l-0.13-0.15c-3.51-9.5-8.85-2.87-8.85-2.87l-0.14,0.09
	c-7.42,3.15-3.3,8.5-1.99,9.94c0,0,9.93-0.6,12.86,0.3c1.16,0.36-1.76-2.06-1.76-2.06s-1.04-1.79,1.17-0.46l2.26,2.69L177.01,133.46
	z"/>
<path class="st13" d="M171.67,106.57c0,0-9.94-18.3-29.21-6.83c0,0-11.43,5.43-6.65,23.91l2,18.12c0.02-2.03,29.18-8.73,39.58-5.13
	C177.39,136.64,175.39,109.23,171.67,106.57z"/>
<path class="st7" d="M187.25,74.57l-1.14-12.96l-0.02-0.05l-0.89-10.27c-0.07-0.77-0.22-1.51-0.42-2.24l-0.16-0.68
	c0,0-6.43-20.5-29.05-18.32l0.13-0.01c-22.62,2.18-25.36,23.57-25.36,23.57l-0.02,0.33c-0.1,0.88-0.13,1.76-0.05,2.66l0.91,10.32
	l1.14,12.96"/>
<path class="st7" d="M160.29,82.86c-16.05,1.33-22.84,0.7-25.74,0.32c-2.32-0.31-2.08-1.61-2.08-1.61l-0.15-1.7
	c0,0,9.77,1.39,27.39-0.48l0.52-0.05c17.65-1.53,27.02-4.76,27.02-4.76l0.15,1.7c0,0,0.46,1.23-1.77,1.98
	c-2.78,0.93-9.35,2.85-25.36,4.61"/>
<path class="st7" d="M173.6,33.07c0.61-0.72-0.39-1.25-0.39-1.25c-10.74,3.92-17.82,12.42-16.69,21.25l1.37,10.68
	c0,0,3.75,7.97,29.74,4.94c0,0,0.28-1.18-0.43-1.61"/>
<path class="st15" d="M185.93,67.25c-24.08,2.81-26.54-4.7-26.54-4.7l-1.26-9.89c-1.06-8.3,5.29-16.03,15.47-19.59l0.38,0.08
	c7.48,5.47,10.28,13.54,10.28,13.54l0.19,0.7c0.24,0.75,0.42,1.52,0.52,2.31l1.34,10.63l0.02,0.05l0.86,6.69L185.93,67.25z"/>
<path class="st16" d="M187.4,35.09l16.35-5.41c1.79-0.59,3.3,1.44,2.22,2.99l-6.5,9.24c-0.72,1.03-0.3,2.47,0.87,2.94l20.23,8.2
	c1.82,0.74,1.54,3.39-0.38,3.74l-16.92,3.09c-1.22,0.22-1.92,1.5-1.47,2.65l5.47,13.8c0.68,1.72-1.18,3.33-2.78,2.43l-9.24-5.22"/>
</svg>
