<?xml version="1.0" encoding="utf-8"?>
<!-- Generator: Adobe Illustrator 26.3.1, SVG Export Plug-In . SVG Version: 6.00 Build 0)  -->
<svg version="1.1" id="Layer_1" xmlns="http://www.w3.org/2000/svg" xmlns:xlink="http://www.w3.org/1999/xlink" x="0px" y="0px"
	 viewBox="0 0 396 396" style="enable-background:new 0 0 396 396;" xml:space="preserve">
<style type="text/css">
	.st0{fill:#F3AA7E;stroke:#984D23;stroke-width:5;stroke-miterlimit:10;}
	.st1{fill:#D23C27;stroke:#A53A23;stroke-miterlimit:10;}
	.st2{fill:#B15A2B;stroke:#A5391D;stroke-miterlimit:10;}
	.st3{fill:#C56531;stroke:#A5391D;stroke-miterlimit:10;}
	.st4{fill:#AE301D;stroke:#A53A23;stroke-miterlimit:10;}
	.st5{fill:#DC7038;stroke:#A5391D;stroke-miterlimit:10;}
	.st6{fill:#EFE8CC;stroke:#EFE8CC;stroke-miterlimit:10;}
	.st7{fill:none;stroke:#A8A694;stroke-miterlimit:10;}
	.st8{fill:#EFE8CC;stroke:#B1AE9C;stroke-miterlimit:10;}
	.st9{fill:#2B190D;stroke:#A8A694;stroke-miterlimit:10;}
</style>
<path class="st0" d="M335.53,17.99H59.68c-23.24,0-42.07,18.84-42.07,42.07v275.85c0,11.19,4.38,21.35,11.5,28.89
	c0.4,0.2,0.8,0.39,1.19,0.61c2.13,1.15,3.81,2.83,5.03,4.81c6.87,4.89,15.27,7.77,24.34,7.77h275.85
	c23.24,0,42.07-18.84,42.07-42.07V60.07C377.6,36.83,358.76,17.99,335.53,17.99z"/>
<path class="st1" d="M317.58,299.53c28.17,31.13,2.78,45.91,2.78,45.91c-142.61,30.44-152.18,23.65-152.18,23.65l-14.44-65.39
	L317.58,299.53z"/>
<path class="st2" d="M164.88,259.53c0,0,2.96-2.78-75.65-23.83c-8.6-2.3-11.17-4.09-8.95-5.44c0,0-15.06,3.18-6.88,24.05
	c1.23,3.14,1.14,5.8,0.12,8.05c0,0-5.02,10.86,8.4,18.73c13.71,8.04,78.92,30.03,79.13,29.22c0,0,17.62-3.71,15.54-35.71
	C174.5,242.6,164.88,259.53,164.88,259.53"/>
<path class="st3" d="M161.06,310.31c0,0,69.57,5.57,155.48-10.78c0,0,18.09-10.78,10.61-36.52c-2.05-7.07-6.74-11.57-12.47-14.37
	c0,0-125.45,12.98-149.8,10.89C164.88,259.53,184.19,294.13,161.06,310.31z"/>
<path class="st4" d="M168.19,369.09c-37.05-14.67-74.88-29.55-91.13-38.78c0,0-11.13-5.74-5.57-18.44c0,0,2.09-1.91,0.87-6.26
	c-1.22-4.35-3.83-23.65,9.57-23.48c0,0,38.09,17.22,70.26,25.57c0,0,28.87,6.78,25.39,39.31c-1.03,9.61-4.7,16.69-9.36,21.88"/>
<path class="st5" d="M80.88,229.96c0,0,77.57-12.35,160.18-13.91c1.18-2.39,74.39,21.82,73.74,32l-0.12,0.58
	c0,0-125.45,12.98-149.8,10.89l-0.29-0.46c0,0,3.59-2.26-75.02-23.3l-0.35-0.06c-8.6-2.3-11.17-4.09-8.95-5.44L80.88,229.96z"/>
<polygon class="st6" points="300.03,230.02 100.18,230.02 100.66,167.07 300.51,167.07 "/>
<path class="st7" d="M300.31,168.23"/>
<line class="st7" x1="100.12" y1="221.27" x2="100.12" y2="168.23"/>
<path class="st8" d="M299.12,113.9c0,0-16.7-85.73-99.14-85.73h0.47c-82.44,0-99.14,85.73-99.14,85.73"/>
<path class="st8" d="M199.58,202.25c94.89-1.13,100.73-34.02,100.73-34.02v-42.24c0-43.06-44.55-77.96-99.51-77.96h-1.17
	c-54.96,0-99.51,34.91-99.51,77.96v42.24c0,0,5.84,32.89,100.73,34.02"/>
<path class="st8" d="M200.19,244.38c58.41-0.88,82.76-6.09,93.11-8.79c8.3-2.16,7.01-7.36,7.01-7.36v-6.97
	c0,0-34.87,9.46-99.14,8.76h-1.91c-64.27,0.7-99.14-8.76-99.14-8.76v6.97c0,0-1.28,5.19,7.01,7.36c10.35,2.7,34.7,7.91,93.11,8.79"
	/>
<line class="st7" x1="300.31" y1="221.27" x2="300.31" y2="168.23"/>
<path class="st7" d="M200.48,71.57"/>
<path class="st7" d="M200.48,71.57"/>
<g>
	<g>
		<path class="st9" d="M200.46,195.75c-87.91-1.05-93.32-31.52-93.32-31.52V125.1c0-39.89,41.28-72.23,92.19-72.23
			c1.79,0,1.79,0,1.79,0c50.92,0,92.19,32.34,92.19,72.23v39.13c0,0-5.41,30.47-93.32,31.52"/>
	</g>
</g>
</svg>
