<?xml version="1.0" encoding="utf-8"?>
<!-- Generator: Adobe Illustrator 27.1.1, SVG Export Plug-In . SVG Version: 6.00 Build 0)  -->
<svg version="1.1" id="Layer_1" xmlns="http://www.w3.org/2000/svg" xmlns:xlink="http://www.w3.org/1999/xlink" x="0px" y="0px"
	 viewBox="0 0 1080 684" style="enable-background:new 0 0 1080 684;" xml:space="preserve">
<style type="text/css">
	.st0{fill:#3E1D0D;stroke:#984C1E;stroke-width:5;stroke-miterlimit:10;}
	.st1{fill:none;stroke:#B1AE9C;stroke-width:7;stroke-miterlimit:10;}
	.st2{fill:#FFF1E7;}
	.st3{fill:none;stroke:#A8A694;stroke-miterlimit:10;}
	.st4{fill:#DC7038;stroke:#AA5626;stroke-width:0.5;stroke-miterlimit:10;}
	.st5{fill:none;stroke:#B1AE9B;stroke-width:0.5;stroke-miterlimit:10;}
	.st6{fill:#EFE8CC;stroke:#B1AE9C;stroke-width:0.5;stroke-miterlimit:10;}
	.st7{fill:none;stroke:#AA5517;stroke-width:0.5;stroke-miterlimit:10;}
	.st8{fill:#EFE8CC;stroke:#B1AE9C;stroke-width:0.5;stroke-linecap:round;stroke-linejoin:round;stroke-miterlimit:10;}
	.st9{fill:none;stroke:#B1AE9C;stroke-width:0.5;stroke-miterlimit:10;}
	.st10{fill:none;stroke:#B1AE9C;stroke-width:0.5;stroke-linecap:round;stroke-linejoin:round;stroke-miterlimit:10;}
	.st11{fill:#D23C27;stroke:#A53A23;stroke-width:0.5;stroke-miterlimit:10;}
	.st12{fill:#EFE8CC;stroke:#B5956A;stroke-width:0.5;stroke-miterlimit:10;}
	.st13{fill:#EFE8CC;stroke:#B5956A;stroke-width:0.5;stroke-linecap:round;stroke-linejoin:round;stroke-miterlimit:10;}
	.st14{fill:none;stroke:#3D52A4;stroke-width:0.5;stroke-linecap:round;stroke-linejoin:round;stroke-miterlimit:10;}
	.st15{fill:none;stroke:#B5956A;stroke-width:0.5;stroke-miterlimit:10;}
	.st16{fill:none;stroke:#B5956A;stroke-width:0.5;stroke-linecap:round;stroke-linejoin:round;stroke-miterlimit:10;}
	.st17{fill:#EFE8CC;stroke:#EFE8CC;stroke-width:0.5;stroke-miterlimit:10;}
	.st18{fill:none;stroke:#A8A694;stroke-width:0.5;stroke-miterlimit:10;}
	.st19{fill:none;stroke:#A5391D;stroke-width:0.5;stroke-miterlimit:10;}
	.st20{fill:none;stroke:#82C341;stroke-width:0.5;stroke-linecap:round;stroke-linejoin:round;stroke-miterlimit:10;}
	.st21{fill:#DC7038;stroke:#A5391D;stroke-width:0.5;stroke-miterlimit:10;}
	.st22{fill:#2B190D;stroke:#2B190D;stroke-width:0.5;stroke-miterlimit:10;}
	.st23{fill:#E49A37;stroke:#E88024;stroke-miterlimit:10;}
	.st24{fill:#F1A443;stroke:#E88024;stroke-miterlimit:10;}
	.st25{fill:none;stroke:#984C1E;stroke-width:5;stroke-miterlimit:10;}
</style>
<path class="st0" d="M1060.24,660.29H19.62c-7.55,0-13.67-6.12-13.67-13.67V28.28c0-7.55,6.12-13.67,13.67-13.67h1040.62
	c7.55,0,13.67,6.12,13.67,13.67v618.34C1073.91,654.17,1067.79,660.29,1060.24,660.29z"/>
<path class="st1" d="M847.85,273.19c0,0-187.35,104.77-195.1,2.58c-7.74-102.19,21.68-69.16,51.1-134.19S645.01,71.9,575.33,85.84
	s-60.39-71.23-60.39-71.23"/>
<g>
	<g>
		<g>
			<path class="st2" d="M818.14,303.21c3.22,0,3.22-5,0-5C814.92,298.21,814.91,303.21,818.14,303.21L818.14,303.21z"/>
		</g>
	</g>
	<g>
		<g>
			<path class="st2" d="M801.05,90.41c3.22,0,3.22-5,0-5C797.84,85.41,797.83,90.41,801.05,90.41L801.05,90.41z"/>
		</g>
	</g>
	<g>
		<g>
			<path class="st2" d="M868.97,164.67c3.22,0,3.22-5,0-5C865.75,159.67,865.75,164.67,868.97,164.67L868.97,164.67z"/>
		</g>
	</g>
	<g>
		<g>
			<path class="st2" d="M800.21,172.65c3.22,0,3.22-5,0-5C797,167.65,796.99,172.65,800.21,172.65L800.21,172.65z"/>
		</g>
	</g>
	<g>
		<g>
			<path class="st2" d="M773.29,263.35c3.22,0,3.22-5,0-5C770.07,258.35,770.07,263.35,773.29,263.35L773.29,263.35z"/>
		</g>
	</g>
	<g>
		<g>
			<path class="st2" d="M801.13,108.55c3.22,0,3.22-5,0-5C797.91,103.55,797.91,108.55,801.13,108.55L801.13,108.55z"/>
		</g>
	</g>
	<g>
		<g>
			<path class="st2" d="M818.53,272.76c3.22,0,3.22-5,0-5C815.31,267.76,815.3,272.76,818.53,272.76L818.53,272.76z"/>
		</g>
	</g>
	<g>
		<g>
			<path class="st2" d="M940.93,341.3c3.22,0,3.22-5,0-5C937.72,336.3,937.71,341.3,940.93,341.3L940.93,341.3z"/>
		</g>
	</g>
	<g>
		<g>
			<path class="st2" d="M887.77,155.47c3.22,0,3.22-5,0-5C884.55,150.47,884.54,155.47,887.77,155.47L887.77,155.47z"/>
		</g>
	</g>
	<g>
		<g>
			<path class="st2" d="M881.44,436.99c3.22,0,3.22-5,0-5C878.23,431.99,878.22,436.99,881.44,436.99L881.44,436.99z"/>
		</g>
	</g>
	<g>
		<g>
			<path class="st2" d="M975.95,443.19c3.22,0,3.22-5,0-5C972.74,438.19,972.73,443.19,975.95,443.19L975.95,443.19z"/>
		</g>
	</g>
	<g>
		<g>
			<path class="st2" d="M993.25,452.05c3.22,0,3.22-5,0-5C990.03,447.05,990.02,452.05,993.25,452.05L993.25,452.05z"/>
		</g>
	</g>
	<g>
		<g>
			<path class="st2" d="M986.05,442.11c3.22,0,3.22-5,0-5C982.84,437.11,982.83,442.11,986.05,442.11L986.05,442.11z"/>
		</g>
	</g>
	<g>
		<g>
			<path class="st2" d="M891.69,210.5c3.22,0,3.22-5,0-5C888.47,205.5,888.47,210.5,891.69,210.5L891.69,210.5z"/>
		</g>
	</g>
	<path class="st3" d="M980.8,382"/>
	<path class="st4" d="M863.16,418.22c-9.54-17.77-19.94-45.83-19.94-45.83l-0.77-1.56c-6-12.22-11.18-24.56-13.6-30.45l-0.57-1.41
		c-3.67-67.84,28.47-42.85,43.04-33.73c0,0,36.77,60.46,28.65,67.99"/>
	<path class="st5" d="M870.84,478.47c6.18-6.11,16.09-7.94,24.96-4.62c8.92,3.34,15.04,11.25,15.38,19.88c0,0,1.19,12.58-6.41,16.28
		c-7.59,3.7-37.98-9.87-37.98-9.87s-11.72-5.48-13.6-12.86c0,0,3.97-20.7,14.78-28.53"/>
	<path class="st6" d="M895.58,473.77l-1.68-5.3l-25.93-9.72c-10.81,7.83-14.78,28.53-14.78,28.53c1.89,7.38,13.6,12.86,13.6,12.86
		s30.39,13.57,37.98,9.87c7.59-3.7,6.41-16.28,6.41-16.28c-0.34-8.62-6.47-16.54-15.38-19.88c-8.86-3.32-18.78-1.49-24.96,4.62"/>
	<path class="st4" d="M877.34,326.08c0,0,33.8,45.28,39.37,62.75c0,0,6.59,31.46,4.87,38.61c-0.54,2.23-1.67,3.56-2.66,4.35
		l-4.93,31.78c0,0-5.44,17.25-25.11,10.12s-31.03-18.2-31.03-18.2s-5.53-6.44-5.56-14.92l4.93-31.78c-1.29-3.46-1.25-9.2-0.5-15.75"
		/>
	<path class="st7" d="M982.07,400.5"/>
	<line class="st5" x1="974.47" y1="406.43" x2="977.35" y2="410.37"/>
	<path class="st4" d="M791.11,286.66c-0.29,0.91-0.65,1.76-1.08,2.55l0.2,0.4"/>
	<path class="st4" d="M791.11,286.66c2.23-6.97,0.47-17.11-2.25-26.36c0,0-11.48,4.45-46.49-11.32c0,0-7.35,26.75-4.02,43.48
		c0,0,13.01,30.49,24.06,38.77c0.55,0.41,1.27,0.51,1.9,0.73l0.25,0.08c0,0,17.98,16.01,35.48,7.43L814.97,313
		c-1.87-19.09-25.27-25.5-25.27-25.5"/>
	<path class="st7" d="M982.07,400.5"/>
	<path class="st4" d="M943.84,367.12c-12.01-6.09-39.74-42.66-39.74-42.66l-1.08-1.14c-8.43-8.94-16.12-18.19-19.75-22.63
		l-0.86-1.07c-16.72-23.51-0.29-56.28,31.72-40.4c0,0,48.21,42.35,42.51,50.97"/>
	<path class="st8" d="M974.08,436.02c1.25-0.62,2.73-0.98,4.24-1.15c4.54-0.53,9.39,0.52,9.39,0.52
		c8.77,1.58,15.76,7.82,17.55,15.67c0,0,1.73,20.27-11.6,17.79c-11.73-2.18-45.23-8.18-53.08-9.58c0,0-1.68-0.23-1.55-2.28
		c0.37-5.83,2.25-23.04,9.62-31.95c0,0,27.84,5.12,28.57,5.16c0.73,0.04,1.1,4.67,1.1,4.67"/>
	<path class="st4" d="M940.56,373.65c0.17,0.69,0.37,1.3,0.6,1.82l-2.02,39.41c0.65,9.74,6.01,13.98,6.01,13.98
		s10.84,6.23,28.75,3.13c17.91-3.1,21.44-26.07,21.44-26.07l2.02-39.41c1.76-0.31,1.47-23.78-11.03-36.59
		c-11.16-11.44-48.96-49.64-49.19-48.87"/>
	<path class="st7" d="M939.75,351.41c0,0,20.5-17.44,7.45-38.56"/>
	<path class="st5" d="M956.96,86.4"/>
	<path class="st5" d="M958.06,85.06"/>
	<path class="st5" d="M956.96,86.4"/>
	<path class="st5" d="M958.06,85.06"/>
	<path class="st6" d="M953.96,93.9c3.48-15.66-1.89-21.27-4.79-23.09c-1.46-0.92-3.46-0.41-4.24,1.23c-0.65,1.37-0.62,3.4,0.26,6.27
		c7.32,23.72-3.17,21.59-3.17,21.59l-3.59-7.09c-0.44-0.88-1.17-1.56-2.05-1.92c-1.7-0.68-4.47-1.43-5.76,0.27
		c-1.11,1.46-0.9,3.03-0.51,4.1c0.24,0.66,0.62,1.24,1.11,1.73c1.2,1.18,4.6,5.2,8.17,15.47l23.72,5.25c0,0,18.13-24.34,5.78-33.13
		c0,0-0.58-0.25-1.21-0.08l0-0.5c-0.29-2.54-1.61-10.79-6.52-8.15l0.12-0.71c0.35-1.94-0.63-4.7-4.13-4.44
		c-4.74,0.35-3.55,5.62-3.55,5.62"/>
	<path class="st9" d="M967.68,84.5c-1.13,0.31-2.46,1.94-1.08,8.64c0,0,0.8,0.41-1.84,7.57"/>
	<path class="st10" d="M950.35,94.44c0,0,10.12-0.45,15.4,7.19"/>
	<path class="st9" d="M961.16,75.84c-0.32,0.17-0.65,0.39-1,0.65c0,0-1.88,1.39,1.24,9.02c0.93,2.28-0.16,6.36-2.16,10.95"/>
	<path class="st7" d="M937.01,111.91l27.33,5.96c1.09,0.24,1.77,1.3,1.52,2.38l-0.36,1.55c-0.25,1.08-1.34,1.76-2.43,1.52
		l-27.33-5.96c-1.09-0.24-1.77-1.3-1.52-2.38l0.36-1.55C934.83,112.35,935.92,111.67,937.01,111.91z"/>
	<path class="st4" d="M937.01,111.91l27.33,5.96c1.09,0.24,1.77,1.3,1.52,2.38l-0.36,1.55c-0.25,1.08-1.34,1.76-2.43,1.52
		l-27.33-5.96c-1.09-0.24-1.77-1.3-1.52-2.38l0.36-1.55C934.83,112.35,935.92,111.67,937.01,111.91z"/>
	<path class="st4" d="M916.5,148.11c4.94,1.85,8.73-20.5,17.88-31.04l29.69,6.48c13.06,13.99,2.41,35.46,2.41,35.46l-0.01,0.25
		c-0.76,12.07-13.63,36.36-22.91,49.69c-3.29,4.73-9.13,8.95-14.88,8.31c-15.3-1.7-19.91-8.55-23.33-10.13
		c-2.79-1.28-4.49-4.11-4.18-7.14c1.53-14.92,10.54-46.89,15.4-51.46L916.5,148.11"/>
	<path class="st7" d="M919.71,154.2c-1.67-1.56-2.67-3.45-3.13-5.6"/>
	<path class="st7" d="M966.61,158.73c-2.12,5.1-5.33,8.76-10.13,9.54"/>
	<path class="st11" d="M807.31,162.38l-11.73,16.19l-0.03,0.05c-0.17,0.25-0.37,0.41-0.65,0.55c-0.72,0.37-1.58,0.27-2.16-0.3
		l-0.03-0.03l-12.41-13.26c-1.24-1.12-2.16-2.5-2.77-3.63c0,0-0.1-0.55-0.92-0.11l-2.78,2.34l-28.29,24.74
		c-9.54,9.21-8.3,17.71-8.3,17.71l-1.62,60.79c-0.48,6.35,47.38,6.64,55.27-3.26l-2.39-6.69l39.74,77.61c0,0,26.54-2.7,61.17-20.26
		l0.62-0.32c34.37-18.06,51.8-38.06,51.8-38.06l-41.53-76.68l4.18,5.77c12.71-0.75,39.87-39.77,34.34-43.01l-51.28-33.49
		c0,0-6.33-5.87-19.42-3.4l-36.69,8.8l-5.25,1.37l0.23,0.41c0.62,1.17,1.34,2.83,1.57,4.62l3.88,17.66l0.03,0.1
		c0.14,0.79-0.26,1.59-0.98,1.96l-0.9,0.23l-20.11,0.24l-0.75,1.71L807.31,162.38z"/>
	<path class="st12" d="M846.02,197.19c0,0,0.78,3.65-1.33,0.68c-2.1-2.97-2.09-5.57-2.09-5.57s2.01-3.38-0.51-6.76
		c-2.51-3.38-3.44-5.53-6.24-5.15c0,0-4.4,2.18-6.59,2.71c-2.18,0.53-3.42,2.93-3.42,2.93s-1.19,3.45-0.63,6.25s1.19,3.22,1.19,3.22
		s-0.69,4.88,3.48,6.78c0,0,1.49,1.17,5.13,0.86c0,0,3.37,0.51,3.98,1.1s0.7,0.28,0.7,0.28s-0.47-1.88-1.77-2.57
		c-1.3-0.69,0.22-0.72,0.22-0.72l4.47,3.18c0,0,1.7,0.82,0.79-1c-0.91-1.82-2.94-4.77-2.94-4.77s-0.99-3.25,1.22-0.83
		s4.14,6.78,4.14,6.78s1.81,3.31,1.73,0.27c0,0-1.05-5.49,0.27-6.35s1.77,0.55,1.77,0.55l-0.58,5.12c0,0,0.43,3.51,1.8,0.29
		c0,0,0.43-3.98,3.96-7s3.14,0.98,3.14,0.98s-4.49,2.53-4.44,5.37c0,0-1.27,2.93,1.08,2.17c0,0,1.45-1.06,1.89-1.6
		c0.45-0.54,7.2-3.37,7.2-3.37s4.37,0.39,5.61-2.33c1.24-2.73,0.59-6.43,0.59-6.43s-1.4-5.77-6.6-6.58
		c-5.2-0.81-5.58-2.66-5.58-2.66s-2.04-3.16-7.86,0.87S846.02,197.19,846.02,197.19z"/>
	<path class="st12" d="M857.02,209.64c0,0,2.71-1.14,0.8,2.18l-1.2,0.62c0,0-3.73,1.96-0.79,2.58c2.94,0.62,6.77,0.45,6.77,0.45
		s6.35,0.27,2.78,2.56s-8.09-0.83-8.09-0.83s-4.42-2-0.18,2.02c4.24,4.02,4.96,4.17,4.51,5.39c-0.45,1.23-4.9-2.64-4.9-2.64
		s-2.28-4.73-3.63-3.73c-1.36,1,2.51,5.99,2.51,5.99l3.33,6.14c0,0,4.27,6.28,9.44,5.47s5.01-1.65,5.84-5.34
		c0,0,7.33-0.39,6.27-9.74c-1.06-9.35-5.29-12.47-5.29-12.47s-1.98-1.36-2.87-0.9c-0.02,0.01-0.03,0.02-0.05,0.03l-0.1-0.3
		c0,0-1.69-5.06-6.54-4.3s-6.77,2.28-6.77,2.28s-6.54,3.95-6.48,5.85s4.44-1.23,4.44-1.23L857.02,209.64z"/>
	<path class="st13" d="M823.06,204.78c19.02-2.66,26.86,7.43,26.86,7.43s2.33,4.15-2.14,2.19c0,0-9.75-11.26-25.57-7.96
		c0,0,4.87,3.8,1.12,5.74c0,0-1.45,1.87-3.44-3c0,0,0.78,6.29-2.92,4.78s-0.52-6.61-0.52-6.61s-4.85,2.03-5.53-1.26
		c-0.69-3.3,3.39-3.44,3.39-3.44l2.22,0.59c0,0-3.75-5.41,0.81-4.72c4.56,0.69,2.3,3.63,2.3,3.63s1.39-3.15,3.36-1.41
		c1.97,1.74,0.16,3.75,0.16,3.75L823.06,204.78z"/>
	<path class="st13" d="M854.93,245.77c0,0,12.32-2.15,2.68-13.22l-0.1-0.28c0,0-2.57-6.96-5.74-10.89
		c-3.17-3.93-1.61,0.74-1.61,0.74l2.05,5.35c0.11,3.74-1.44,1.16-1.44,1.16s-3-8.6-2.42-4.6c0.58,4-0.33,4.9-0.33,4.9
		c-1.89,2.57-1.2-3.36-1.2-3.36c-0.13-4.14-2.32,1.67-2.32,1.67c-0.99,6.64-3.48,2.03-3.48,2.03s-0.37-4.35,3.8-7.58
		s-4.71-1.87-4.71-1.87c-5.28,3.2-4.86,2.09-4.86,2.09s-2.56-2.51,3.14-4.29c5.7-1.77-0.77-2.36-0.77-2.36s-3.54,2.53-5.36,0.43
		c-1.82-2.1,5.89-3.13,5.89-3.13c7.09,0.78-1.28-2.43-1.28-2.43s-8.2-2.88-10.43,1.22c-2.23,4.1-3.27,4.4-3.27,4.4
		s-3.13,2.21-0.93,9.02s5.2,8.06,5.2,8.06s5.47,2.41,6.84-4.96l0.04-0.28c0,0,7.94-6.77,2.2,0.69s3.79,12.5,3.79,12.5
		s3.48,13.5,14.38,5.11L854.93,245.77z"/>
	<path class="st12" d="M745.02,194.06c0,0,7.17,1.39,7.84,1.19s2.47-0.28,2.47-0.28c2.37,0.67-0.35,2.4-0.35,2.4
		c-1.58,2.38-6.72,1.99-6.72,1.99S747.65,200.38,745.02,194.06z"/>
	<path class="st12" d="M760.03,176.38c0.88,1.21,2.01,4.66,2.01,4.66s-0.84,5.19,0.85,5.11c1.69-0.08,1.36-6.37,1.36-6.37l0.78-6.95
		c0,0,0-0.29-0.03-0.77L760.03,176.38z"/>
	<path class="st12" d="M755.58,180.27c2.23,1.49,3.27,4.24,3.27,4.24s2.49,4.11,1.3-1.58c-0.66-3.15-1.32-4.53-1.4-5.43
		L755.58,180.27z"/>
	<path class="st12" d="M743.21,191.53c-0.13,0.15,0.36,0.2,0.55,0.29c4.42,2.06,6.87,1.86,6.87,1.86s7.64,0.35,8.67-1.26
		c1.03-1.61-4.35-1.44-4.35-1.44l-0.2-0.02c0,0-2.88-0.56,0.59-2.26l1.34,0.15c0,0,4.18,0.44,2.12-1.71s-5.31-4.13-5.31-4.13
		s-0.23-0.17-0.55-0.43C752.94,182.57,745.57,188.68,743.21,191.53z"/>
	<path class="st12" d="M767.25,170.06c0.02,0.48,0.07,0.99,0.12,1.52l-0.08,0.28c0,0-1.87,7.2-1.52,12.23s1.75,0.28,1.75,0.28
		l1.37-5.58c2.05-3.16,1.85-0.17,1.85-0.17s-2.45,8.81-0.64,5.16s3.07-3.88,3.07-3.88c3.02-1.08-0.94,3.45-0.94,3.45
		c-2.26,3.51,2.86-0.1,2.86-0.1c4.61-4.97,4.02,0.24,4.02,0.24s-2.18,3.82-7.46,4.19c-5.27,0.37,2.8,4.17,2.8,4.17
		c6.17,0.28,5.19,0.96,5.19,0.96s0.67,3.51-5.03,1.82c-5.7-1.69-0.72,2.39-0.72,2.39s4.35-0.14,4.65,2.62
		c0.3,2.76-6.63-0.66-6.63-0.66c-5.38-4.58-0.34,2.73-0.34,2.73s5.09,6.94,9.27,4.77c4.18-2.17,5.2-1.84,5.2-1.84
		s3.84-0.1,5.92-6.97c2.08-6.87,0.34-9.58,0.34-9.58s-3.11-5.04-8.46,0.33l-0.2,0.21c0,0-10.4,1.22-1.41-1.79
		c8.98-3.01,4.04-12.49,4.04-12.49s0.27-0.73,0.5-1.83l-7.9-8.46c0,0-1.36-1.94-1.49-2.34s-1.01,0.52-1.01,0.52l-4.76,4.01
		l-3.04,2.66L767.25,170.06z"/>
	<path class="st14" d="M766.47,172.51"/>
	<path class="st12" d="M894.01,254.82c0,0,3,2.28,1.2-0.88s-4.17-4.27-4.17-4.27s-3.95,0.33-5.95-3.38c-2-3.7-3.55-5.45-2-7.79
		c0,0,3.89-2.98,5.33-4.69c1.43-1.71,4.16-1.77,4.16-1.77s3.66,0.44,5.98,2.14c2.32,1.71,2.43,2.45,2.43,2.45s4.75,1.5,4.68,6.04
		c0,0,0.42,1.83-1.43,4.94c0,0-1,3.22-0.72,4.02c0.27,0.8-0.05,0.75-0.05,0.75s-1.51-1.23-1.58-2.68s-0.76-0.11-0.76-0.11l0.96,5.36
		c0,0,0.01,1.87-1.26,0.27c-1.27-1.6-3.08-4.68-3.08-4.68s-2.53-2.29-1.28,0.72c1.25,3.01,4.39,6.63,4.39,6.63s2.24,3.04-0.5,1.66
		c0,0-4.56-3.31-5.9-2.51c-1.35,0.8-0.26,1.82-0.26,1.82l4.92,1.7c0,0,3.01,1.9-0.52,1.73c0,0-3.82-1.34-8.1,0.5
		s-0.46,3.22-0.46,3.22s4.25-2.9,6.82-1.64c0,0,3.23,0.14,1.51,1.9c0,0-1.59,0.83-2.28,0.99s-6.19,4.95-6.19,4.95
		s-1.53,4.07-4.56,3.99c-3.02-0.08-6.12-2.26-6.12-2.26s-4.65-3.74-3.14-8.72c1.51-4.98-0.01-6.12-0.01-6.12s-1.99-3.19,4.2-6.62
		C886.44,249.03,894.01,254.82,894.01,254.82z"/>
	<path class="st12" d="M892.02,282.06c0,0-4.16-3.32-1.36-7.31c2.79-3.99,5.01-5.05,5.01-5.05s6.44-4.12,8.14-3.24
		c1.7,0.88-3.04,3.42-3.04,3.42l-0.16,0.12c0,0-2.22,1.92,1.64,1.66l1.08-0.8c0,0,3.4-2.47,2.7,0.42c-0.7,2.89-2.52,6.23-2.52,6.23
		s-2.5,5.77,1.13,3.59s2.75-7.57,2.75-7.57s0.09-4.8,1.92,0.72c1.83,5.52,1.65,6.22,2.97,6.35c1.31,0.13-0.29-5.51-0.29-5.51
		s-3.33-4.08-1.83-4.85s4.38,4.83,4.38,4.83l4.16,5.63c0,0,3.88,6.52,0.9,10.78c-2.97,4.26-3.68,3.75-7.4,2.89
		c0,0-3.53,6.36-11.6,1.37s-9.08-10.11-9.08-10.11s-0.39-2.35,0.43-2.94c0.01-0.01,0.03-0.02,0.04-0.03L892.02,282.06z"/>
	<path class="st13" d="M914.12,227.32c-0.88,0.64-1.4,1.62-1.4,1.62l-0.42,2.23c0,0-3.31-5.69-4.66-1.33s2.32,3.62,2.32,3.62
		s-3.48-0.12-2.74,2.39s3.35,1.77,3.35,1.77l0.29,0.04c-10.66,15.79-4.85,27.15-4.85,27.15s2.78,3.88,2.92-0.96
		c0,0-6.05-13.56,3.81-26.23c0,0,1.36,5.98,4.75,3.48c0,0,2.33-0.48-1.24-4.36c0,0,2.08,1.32,3.71,1.37L914.12,227.32z"/>
	<path class="st12" d="M930.74,257.99c-0.98,0.16-2.11,0.07-3.67-0.35l-0.27-0.08c0,0-9.61,4.14-0.32,2.26
		c2.34-0.48,4.12-0.15,5.47,0.59l9.08,16.56l-10.47,9.99c-2.62,1.1-6.16,0.6-9.3-6.51l-0.21-0.21c0,0-5.23-5.3-7.45-9.82
		c-2.22-4.53,1.37-1.12,1.37-1.12l3.99,4.15c3.36,1.71,1.68-0.78,1.68-0.78s-6.55-6.4-3.15-4.15c3.4,2.25,4.61,1.82,4.61,1.82
		c3.16-0.57-2.55-2.52-2.55-2.52c-3.72-1.91,2.52-1.35,2.52-1.35c6.48,1.99,3.35-2.22,3.35-2.22s-3.81-2.21-8.55,0.11
		s0.33-5.01,0.33-5.01c5.2-3.32,4.01-3.43,4.01-3.43s-1.18-3.37-5.27,0.94c-4.08,4.31-1.82-1.71-1.82-1.71s3.84-2.06,2.71-4.59
		c-1.13-2.53-5.41,3.89-5.41,3.89c-2.36,6.66-1.66-2.19-1.66-2.19s0.92-8.55,5.63-8.76c4.7-0.21,5.43-1.01,5.43-1.01
		s0.48-0.26,1.36-0.32L930.74,257.99z"/>
	<path class="st15" d="M920,280.1"/>
	<path class="st13" d="M793.11,266.29c0.58,0.03,1,0.07,1.13,0.14c0.63,0.31,2.38,0.69,2.38,0.69c2.46-0.27,0.1-2.42,0.1-2.42
		c-0.98-2.28-5.03-2.93-6.02-3.05L793.11,266.29z"/>
	<path class="st16" d="M829.52,241.12"/>
	<path class="st13" d="M783.16,249.91c1.46-1.56,1.25-2.49,1.25-2.49s0.58-3.72,7.53-2.42c6.95,1.3,8.89,10.55,8.89,10.55
		s0.78,3.65,1.49,0.08c0.71-3.57-0.36-5.94-0.36-5.94s-3.21-2.26-2.3-6.37c0.91-4.12,0.88-6.45,3.6-7.26c0,0,4.91,0.19,7.12-0.22
		c2.21-0.41,4.32,1.28,4.32,1.28s2.49,2.66,3.13,5.45s0.23,3.43,0.23,3.43s2.62,4.17-0.41,7.61c0,0-0.88,1.67-4.33,2.89
		c0,0-2.87,1.84-3.19,2.63c-0.32,0.79-0.53,0.54-0.53,0.54s-0.34-1.91,0.56-3.07c0.91-1.16-0.5-0.57-0.5-0.57l-2.79,4.74
		c0,0-1.22,1.45-1.13-0.59s0.74-5.56,0.74-5.56s-0.42-3.37-1.45-0.26c-1.03,3.11-1.02,7.89-1.02,7.89s-0.3,3.76-1.47,0.96
		c0,0-1.28-5.44-2.83-5.68c-1.55-0.24-1.39,1.23-1.39,1.23l2.62,4.43c0,0,1.04,3.38-1.53,1c0,0-2.02-3.46-6.47-4.77
		c-2.63-0.78-3.01,0.13-2.89,0.99L783.16,249.91z"/>
	<path class="st15" d="M801.19,282.31c0.05-1.03,0.35-4.96,1.78-4.65c1.65,0.36,0.15,6.5,0.15,6.5l-0.12,1.53"/>
	<path class="st13" d="M799.88,279.76c1.48-3.78-0.13-2.39-0.85-1.66L799.88,279.76z"/>
	<path class="st13" d="M798.2,276.48c0.33-0.21,0.65-0.42,0.95-0.64c2.43-1.77-1.77-2.03-1.77-2.03l-0.48-0.03L798.2,276.48"/>
	<path class="st13" d="M795.65,271.5c0,0,5.69,0.98,4.98-0.78c-0.5-1.23-4.34-2.05-6.62-2.43L795.65,271.5z"/>
	<path class="st13" d="M824.88,253.07c-18.45,5.36-21.49,17.78-21.49,17.78s-0.43,4.75,2.85,1.12c0,0,4.3-14.27,20.09-17.74
		c0,0-2.89,5.47,1.32,5.7c0,0,2.09,1.11,1.92-4.14c0,0,1.85,6.06,4.62,3.17c2.77-2.89-2.22-6.25-2.22-6.25s5.25-0.13,4.53-3.42
		c-0.72-3.29-4.5-1.75-4.5-1.75l-1.78,1.44c0,0,1.22-6.47-2.66-3.98c-3.88,2.5-0.61,4.26-0.61,4.26s-2.56-2.31-3.64,0.09
		s1.38,3.49,1.38,3.49"/>
	<path class="st13" d="M804.57,288.92c0-2.58,0.15-6.16,0.89-8.93c1.29-4.89,1.78,0.01,1.78,0.01l0.31,5.72
		c1.43,3.45,1.79,0.47,1.79,0.47s-0.77-9.08,0.33-5.19s2.3,4.33,2.3,4.33c2.77,1.57-0.28-3.56-0.28-3.56
		c-1.57-3.84,2.8,0.57,2.8,0.57c3.61,5.65,4,0.43,4,0.43s-1.44-4.12-6.56-5.36c-5.12-1.24,3.53-3.64,3.53-3.64
		c6.13,0.75,5.29-0.09,5.29-0.09s1.31-3.34-4.61-2.63c-5.92,0.72-0.26-2.47-0.26-2.47s4.26,0.86,5.06-1.81
		c0.81-2.66-6.65-0.45-6.65-0.45c-6.15,3.62,0.18-2.74,0.18-2.74s6.31-5.99,10.01-3.16c3.71,2.83,4.78,2.68,4.78,2.68
		s3.76,0.74,4.53,7.85c0.77,7.11-1.46,9.48-1.46,9.48s-4.01,4.44-8.26-1.72l-0.15-0.24c0,0-10.01-2.92-1.73,1.53
		c8.28,4.45,1.64,12.96,1.64,12.96s1.75,14.01-11.62,10.82L804.57,288.92z"/>
	<path class="st16" d="M917.03,232.84c-0.57,0-0.95,0.04-0.95,0.04s0.3-0.26,0.68-0.69"/>
	<path class="st14" d="M803.97,291.51"/>
	<path class="st15" d="M836.14,333.89c0.95-6.95,4.14-10.63,4.14-10.63s3.66-3.15,2.61,1.58c0,0-2.55,3.27-4.02,8.48"/>
	<path class="st12" d="M849.72,330.76c-0.35-0.97-1.92-4.44-0.64-5.16c1.09-0.62,5.62,2.62,7,2.88L849.72,330.76z"/>
	<path class="st15" d="M857.64,311.51"/>
	<path class="st13" d="M876.18,135.17c-0.2,0.1-0.33,0.16-0.33,0.16c-2.01,0.23-1.14-1.48-0.76-2.12L876.18,135.17z"/>
	<path class="st13" d="M873.87,130.65c-0.92,1.33-1.27,2.4-1.27,2.4c-2,2.89-1.71-0.64-1.71-0.64l1.5-4.55L873.87,130.65z"/>
	<path class="st13" d="M865.94,126.51c1.12,2.64,1.76,5.66,1.76,5.66s1.09,3.61,1.64,0.61c0,0,0.1-5.6,1.57-6.17
		c0.32-0.12,0.57-0.15,0.78-0.12l-0.44-0.83L865.94,126.51z"/>
	<path class="st13" d="M861.32,127.82l3.27,3.53c0,0,1.5,1.14,0.98-0.82c-0.28-1.07-0.81-2.52-1.24-3.63L861.32,127.82z"/>
	<path class="st13" d="M857.2,128.7c0,0,3.19,1.17,3.67,1.87c0.48,0.7,0.63,0.41,0.63,0.41s-0.07-1.94-1.2-2.87
		c-0.06-0.05-0.12-0.1-0.17-0.15L857.2,128.7z"/>
	<path class="st15" d="M868.87,126.04c-0.08,0.78-0.32,1.74-1.05,0.41"/>
	<path class="st13" d="M878.79,148.64c-1.5-0.81-2.49-1.85-2.49-1.85s-3.91-2.84-0.59,1.95s4,5.07,3.3,6.19
		c-0.69,1.11-4.25-3.57-4.25-3.57s-1.25-5.1-2.79-4.38s1.22,6.38,1.22,6.38l1.99,6.69c0,0,2.89,7.01,8.11,7.24
		c1.22,0.06,1.95,0.16,2.68,0.08l-2.22-4.43c0,0-3.16-5.98-3.2-7.56l-0.93-3.26L878.79,148.64z"/>
	<path class="st13" d="M878.08,145.31c-0.92-0.26-1.89-0.57-2.75-0.95c-2.75-1.2,1.3-2.38,1.3-2.38l0.89-0.25L878.08,145.31z"/>
	<path class="st13" d="M877.15,139.49c0,0-4.91,2.19-4.59,0.32c0.17-0.97,2.19-2.13,4.1-3.02L877.15,139.49z"/>
	<path class="st13" d="M851.13,130.06c11.32,2.83,16.46,12.09,16.46,12.09c3.97,2.82,2.54-1.72,2.54-1.72s-3.78-7.73-15.74-11.15
		L851.13,130.06z"/>
	<path class="st15" d="M873.94,160.72"/>
	<path class="st15" d="M877,138.19c0.92-0.33,1.8-0.91,2.25-1.91c1.24-2.73,0.59-6.43,0.59-6.43s-0.51-2.11-2.06-3.95"/>
	<polygon class="st17" points="765.34,155.67 828.88,122.87 818.31,103.19 754.78,135.99 	"/>
	<path class="st13" d="M886.21,167.56c2.08-0.86,4.93-3.16,4.25-9.23c-1.06-9.35-5.29-12.47-5.29-12.47s-1.98-1.36-2.87-0.9
		c-0.02,0.01-0.03,0.02-0.05,0.03l-0.13-0.14c0,0-1.23-3.95-4.81-4.48c0,0,0.63,5.98,3.36,15.55l1.87,4.65c0,0,1.03,2.06,1.56,2.75
		C884.63,164.01,886.21,167.56,886.21,167.56z"/>
	<path class="st13" d="M899.12,198.23c2.38-2.09,5.46-0.79,8.15-0.28c3.24,0.61,6.35-0.46,9.6-0.35c0,0-4.96,6.22-13.2,8.47
		l-4.41-6.41L899.12,198.23z"/>
	<path class="st13" d="M900.75,188.65c0,0-0.59,5.62,4.13,6.89c4.72,1.26,7.1,0.65,7.1,0.65s7.59-0.98,8.32-2.74
		c0.73-1.76-4.54-0.67-4.54-0.67l-0.2,0.01c0,0-2.94-0.05,0.18-2.32l1.35-0.08c0,0,4.2-0.29,1.79-2.05
		c-2.41-1.76-5.97-3.14-5.97-3.14s-5.66-2.81-1.46-3.47c4.19-0.66,7.01,4.02,7.01,4.02s3.18,3.61,1-1.78
		c-2.18-5.39-2.78-5.81-1.85-6.76c0.92-0.94,3.35,4.39,3.35,4.39s0.1,5.25,1.75,4.88s0.21-6.5,0.21-6.5l-0.47-6.97
		c0,0-1.27-7.47-6.31-8.81c-5.03-1.35-5.24-0.51-7.53,2.53c0,0-6.83-2.6-9.76,6.39c-2.93,8.99-0.38,13.54-0.38,13.54
		s1.23,2.05,2.24,1.98c0.02,0,0.04,0,0.05-0.01"/>
	<path class="st15" d="M923.84,172.64"/>
	<path class="st13" d="M736.61,231.11c0.45,0.78,0.42,1.27,1.21,2.13c6.4,6.95,11.7,7.04,11.7,7.04s2.42-0.03,2.88-0.92
		c0.01-0.02,0.02-0.03,0.02-0.05l0.25,0.16c0,0,4.38,3.15,7.89-0.25c3.51-3.4,4.18-5.73,4.18-5.73s3.01-6.95,1.83-8.44
		s-2.9,3.54-2.9,3.54l-0.09,0.18c0,0-1.54,2.48-1.95-1.3l0.61-1.19c0,0,1.89-3.72-0.89-2.54c-2.77,1.18-5.8,3.53-5.8,3.53
		s-5.34,3.42-3.79-0.48c1.55-3.9,7.11-3.98,7.11-3.98s4.79-0.92-1.05-1.73c-5.85-0.82-6.52-0.52-6.88-1.77
		c-0.36-1.25,5.57-0.68,5.57-0.68s4.66,2.52,5.18,0.93c0.51-1.59-5.6-3.4-5.6-3.4l-6.36-3.05c0,0-7.21-2.62-10.95,1
		c-1.29,1.25-1.3,1.93-1.69,2.69L736.61,231.11z"/>
	<path class="st14" d="M750.11,211.73"/>
	<path class="st13" d="M782.12,269.08c0.16-0.05,1.4-0.56,1.55-0.62c-1.15-1.07-4.16-3-5.05-4.26c-1.28-1.81-3.99-2.06-3.99-2.06
		s-3.69,0.18-6.15,1.71c-2.46,1.54-2.64,2.28-2.64,2.28s-4.85,1.16-5.2,5.67C760.65,271.8,773.06,272.12,782.12,269.08z"/>
	<path class="st13" d="M757.08,272.07c-0.64-1.56-1.44-3.07-2.36-4.49c-0.6,1.77-2.53,5.19-4.87,3.33
		c-1.75-1.39,0.27-3.39,1.45-4.45c-1.76,0.91-6.59,2.16-5.65-1.62c0.58-2.32,4.27-2.48,6.16-2.22c-1.23-1.33-2.8-4.15-0.91-5.58
		c3.07-2.31,4.63,1.97,4.83,4.14c0.98-1.38,3.02-3.93,4.62-1.87c1.33,1.72-0.11,4.96-2.5,4.32c3.93,0.11,2.43,5.24-0.98,4.1
		l-0.3,0.02c0.77,1.38,1.47,2.79,2.09,4.24L757.08,272.07z"/>
	<path class="st18" d="M754.59,136.55"/>
	<path class="st19" d="M820.82,131.25l4.74,3.48c0,0,0.16,0.33,0.48,0.85"/>
	<path class="st19" d="M809.89,161.04"/>
	<path class="st19" d="M830.05,158.95"/>
	<path class="st19" d="M806.42,162.83"/>
	<path class="st20" d="M899.49,200.3"/>
	<path class="st19" d="M886.95,168.97c0,0,3.74-7.38,2.48-14.28"/>
	<path class="st19" d="M891.16,178.55c0,0,3.44-1.59,6.84,3.48"/>
	<path class="st6" d="M763.36,153.2l-8.77-16.65l-8.6-17.25c0,0-8.83-29.67,17.57-43.29l-0.15,0.08
		c26.39-13.62,45.91,10.53,45.91,10.53l9.36,16.86l8.77,16.65"/>
	<path class="st21" d="M783.89,150.12c5.23,4.44,14.14,10.62,24.96,12.58l0.45-0.29c4.57-9.9,4.54-20.63,3.85-27.4L783.89,150.12z"
		/>
	<path class="st19" d="M776.38,153.99l0.17,5.84c0,0,0.48,1.12,0.84,1.89"/>
	<path class="st11" d="M831.43,134.45"/>
	<path class="st19" d="M809.89,161.04"/>
	<path class="st19" d="M830.05,158.95"/>
	<path class="st19" d="M806.42,162.83"/>
	<path class="st11" d="M813.15,135.01c0.65,6.37,0.71,16.24-3.09,25.62l-0.17,0.41L830,160.8l0.9-0.23
		c0.72-0.37,1.12-1.17,0.98-1.96l-0.03-0.1l-3.88-17.66c-0.23-1.79-0.95-3.45-1.57-4.62l-0.23-0.41l-0.15-0.23
		c-0.32-0.52-0.48-0.85-0.48-0.85l-4.74-3.48L813.15,135.01z"/>
	<path class="st11" d="M776.38,153.99l0.17,5.84c0,0,0.48,1.12,0.84,1.89l0.13,0.24c0.62,1.13,1.53,2.51,2.77,3.63l12.41,13.26
		l0.03,0.03c0.57,0.57,1.43,0.67,2.16,0.3c0.27-0.14,0.47-0.3,0.65-0.55l0.03-0.05l11.73-16.19l-0.52-0.12
		c-10.82-1.96-17.66-7.71-22.89-12.15L776.38,153.99z"/>
	<path class="st19" d="M794.03,177.54"/>
	<path class="st19" d="M810.78,160.59"/>
	<path class="st19" d="M830.05,158.95"/>
	<path class="st19" d="M806.42,162.83"/>
	<path class="st19" d="M794.03,177.54"/>
	<path class="st19" d="M810.78,160.59"/>
	<path class="st6" d="M799.23,143.91c-18.84,9.38-27.5,11.77-31.26,12.63c-3.01,0.69-3.46-1.15-3.46-1.15l-1.15-2.19
		c0,0,12.73-2.79,33.19-13.64l0.61-0.32c20.69-10.4,30.29-19.13,30.29-19.13l1.15,2.19c0,0,1.27,1.42-1.03,3.47
		c-2.87,2.56-9.8,8.22-28.35,18.15"/>
	<path class="st19" d="M807.3,162.38"/>
	<path class="st19" d="M794.03,177.54"/>
	<path class="st19" d="M810.78,160.59"/>
	<path class="st20" d="M788.52,257.58"/>
	<path class="st19" d="M769.76,229.47c0,0-8.26-1.19-13.25-6.16"/>
	<path class="st19" d="M775.28,238.36c0,0-3.29,1.88-1.03,7.54"/>
	<path class="st20" d="M888.45,315.43"/>
	<path class="st18" d="M770.66,90.64"/>
	<path class="st14" d="M766.47,172.51"/>
	<path class="st15" d="M920,280.1"/>
	<path class="st13" d="M803.01,285.69l0.12-1.53c0,0,1.49-6.14-0.15-6.5c-1.43-0.31-1.73,3.62-1.78,4.65L803.01,285.69z"/>
	<path class="st20" d="M890.2,314.53"/>
	<path class="st14" d="M803.97,291.51"/>
	<path class="st12" d="M836.14,333.89c0.95-6.95,4.14-10.63,4.14-10.63s3.66-3.15,2.61,1.58c0,0-2.55,3.27-4.02,8.48L836.14,333.89z
		"/>
	<path class="st15" d="M857.64,311.51"/>
	<line class="st19" x1="809.21" y1="162.61" x2="889.42" y2="314.91"/>
	<path class="st15" d="M873.94,160.72"/>
	<path class="st13" d="M877,138.19c0.92-0.33,1.8-0.91,2.25-1.91c1.24-2.73,0.59-6.43,0.59-6.43s-0.51-2.11-2.06-3.95l-4.09-0.32
		l-2.52,0.09l5.44,10.2L877,138.19z"/>
	<path class="st15" d="M923.84,172.64"/>
	<path class="st14" d="M750.11,211.73"/>
	<path class="st19" d="M809.89,161.04"/>
	<path class="st19" d="M830.05,158.95"/>
	<path class="st19" d="M871.24,125.66l5.34,10.14c0,0,1.96,18.57,6.96,26.57s15.78,37.62,15.78,37.62"/>
	<path class="st19" d="M806.42,162.83"/>
	<path class="st20" d="M899.49,200.3"/>
	<path class="st19" d="M807.3,162.38"/>
	<path class="st19" d="M794.03,177.54"/>
	<path class="st19" d="M810.78,160.59"/>
	<path class="st20" d="M788.52,257.58"/>
	<path class="st20" d="M888.45,315.43"/>
	<path class="st18" d="M770.66,90.64"/>
	<path class="st20" d="M890.2,314.53"/>
	<path class="st12" d="M830.89,303.3c0,0-4.87,2.27-3.17,6.78c1.7,4.51,3.59,6.05,3.59,6.05s5.21,5.48,7.08,5.01
		c1.87-0.46-2.09-4.02-2.09-4.02l-0.13-0.15c0,0-1.67-2.38,2.01-1.23l0.85,1.03c0,0,2.68,3.18,2.72,0.21
		c0.04-2.97-0.88-6.62-0.88-6.62s-0.97-6.17,2.01-3.22c2.98,2.95,0.76,7.98,0.76,7.98s-1.13,4.68,2.04-0.26
		c3.17-4.94,3.17-5.66,4.48-5.48c1.31,0.18-1.67,5.28-1.67,5.28s-4.26,3.19-3,4.29c1.26,1.1,5.47-3.68,5.47-3.68l5.46-4.5
		c0,0,5.41-5.44,3.59-10.25c-1.81-4.81-2.62-4.48-6.45-4.5c0,0-1.82-6.99-10.91-4c-9.09,2.99-11.36,7.73-11.36,7.73
		s-0.97,2.19-0.33,2.96c0.01,0.01,0.02,0.03,0.03,0.04L830.89,303.3z"/>
	<path class="st12" d="M876.3,320.94c1.82-3.72-0.68-7.26-3.53-9.6l-0.16-0.19c0,0-4.62-11.4-13.67,0.29l-0.26,0.15
		c-3.03,1.91-6.07,4.05-8.53,6.66c-0.71,0.75-3.25,3.26-1.2,3.17c1.35-0.06,6.63-5.46,7.82-3.79c0.82,1.15-4.83,3.95-5.47,4.79
		c1.03-0.05,6.27-2.44,6.61-0.46c0.32,1.84-5.61,0.42-4.8,2.44c0.34,0.83,9.24,0.77,6.82,2.95L876.3,320.94z"/>
	<path class="st15" d="M825.82,330.42"/>
	<path class="st12" d="M825.82,330.42l-10.76-21.17c0.79-0.57,1.4-0.86,1.4-0.86s3.55-1.43,6.51-0.83s3.45,4.89,3.45,4.89
		s4.17,5.88,4.8,6.2c0.63,0.31,1.97,1.47,1.97,1.47c1.23,2.1-1.94,1.51-1.94,1.51c-2.8,0.66-6.23-3.11-6.23-3.11
		s-4.06,0.5-0.34,3.24c3.71,2.74,7.76,2.29,7.76,2.29c3.48,0.62,0.08,1.8,0.08,1.8l-5.2,0.55c0,0-1.3,0.74-0.19,1.82
		c1.11,1.08,6.36-1.12,6.36-1.12c3-0.73,0.08,1.73,0.08,1.73s-3.81,2.71-5.79,5.32l-1.18-2.24c0.17-0.16,0.34-0.33,0.51-0.51
		c2.52-2.67-0.95-1.13-0.95-1.13S826.04,330.33,825.82,330.42"/>
	<path class="st12" d="M832.9,334.38l-3.83,0.57c0.74-0.75,2.54-2.53,3.8-3.52c1.63-1.27,1.15,0.55,1.15,0.55l-1.14,2.53"/>
	<path class="st13" d="M929.03,183.29c0.22-1.93,1.06-5.91-0.55-6.26c-1.66-0.37-1.39,3.75-1.44,4.7c-0.05,1.22-0.08,5.34-1.62,3.01
		c-2.14-3.23-1.14-9.26-0.88-12.87l0.03-0.29c-4.16-14.03,8.41-11.8,8.41-11.8l4.74,3.1c0,0,1.42,0.51,1,2.45s-0.6,3.35-3.1,8
		S929.03,183.29,929.03,183.29z"/>
	<path class="st13" d="M779.95,213.78c-17.23-8.18-18.02-20.9-18.02-20.9s0.42-4.75,3.01-0.66c0,0,1.71,14.75,16.65,20.65
		c0,0-1.88-5.84,2.32-5.41c0,0,2.25-0.77,1.15,4.39c0,0,2.9-5.68,5.12-2.4c2.21,3.28-3.3,5.81-3.3,5.81s5.16,0.95,3.86,4.08
		s-4.74,1.02-4.74,1.02l-1.5-1.7c0,0,0.05,6.57-3.33,3.5s0.15-4.29,0.15-4.29s-2.93,1.87-3.58-0.66s1.98-3.23,1.98-3.23
		L779.95,213.78z"/>
	<path class="st19" d="M807.31,162.38l-11.73,16.19l-0.03,0.05c-0.17,0.25-0.37,0.41-0.65,0.55c-0.72,0.37-1.58,0.27-2.16-0.3
		l-0.03-0.03l-12.41-13.26c-1.24-1.12-2.16-2.5-2.77-3.63c0,0-0.1-0.55-0.92-0.11l-2.78,2.34l-28.29,24.74
		c-9.54,9.21-8.3,17.71-8.3,17.71l-1.62,60.79c-0.48,6.35,47.38,6.64,55.27-3.26l-2.39-6.69l39.74,77.61c0,0,26.54-2.7,61.17-20.26
		l0.62-0.32c34.37-18.06,51.8-38.06,51.8-38.06l-42.49-76.46l4.34,6.08c12.71-0.75,40.67-40.3,35.14-43.54l-51.28-33.49
		c0,0-6.33-5.87-19.42-3.4l-36.69,8.8l-5.25,1.37l0.23,0.41c0.62,1.17,1.34,2.83,1.57,4.62l3.88,17.66l0.03,0.1
		c0.14,0.79-0.26,1.59-0.98,1.96l-0.9,0.23l-20.11,0.24l-0.75,1.71L807.31,162.38z"/>
	<path class="st12" d="M748.38,202.37l7.32,6.9c0.64-1.1,0.97-1.88,0.97-1.88s1.45-3.47,1.48,0.17c0.01,1.51-0.24,2.76-0.54,3.71
		c0,0,6.86,6.57,10.09,14.61l0.23,0.42l0.23,0.42c0.94-0.9,2.16-2.24,2.8-3.72c1.15-2.63,0.87-3.34,0.87-3.34s3.35-3.67,1.02-7.56
		c0,0-0.55-1.79-3.72-3.56c0,0-2.48-2.29-2.64-3.12s-0.42-0.62-0.42-0.62s-0.69,1.82-0.02,3.11c0.68,1.29-0.6,0.48-0.6,0.48
		l-1.86-5.12c0,0-0.93-1.63-1.22,0.39s-0.31,5.59-0.31,5.59s-1.04,3.25-1.48,0.02c-0.43-3.23,0.47-7.93,0.47-7.93
		s0.41-3.75-1.27-1.19c0,0-2.28,5.15-3.85,5.12c-1.57-0.02-1.14-1.44-1.14-1.44l3.41-3.93c0,0,1.65-3.15-1.32-1.24
		c0,0-2.63,3.07-7.26,3.62c-0.47,0.06-0.86,0.07-1.2,0.06"/>
	<path class="st6" d="M836.78,340.97c0,0,12.42,10.14,23.1-1.62c0,0,4.63-6.27-1.28-9.08c0,0-2.89-2.74-6.73,2.49
		c-3.84,5.23-19.17-6.02-19.17-6.02l-1.52-1c1.48,1.07,2.87,1.77,4.01,2.23c1.72,0.69,2.86,0.81,2.86,0.81
		c8.44-0.79,8.28-8.38,8.28-8.38s0.21-1.94-3.33-4.24c-3.53-2.3-5.08,0.95-5.08,0.95c-3.79,6.72-7.45,3.76-7.45,3.76
		c-9.24-5.3-13.66,0.4-13.66,0.4l-8.51,15.08c0,0-4.43,8.24,24.2,21.81c0,0,10.45,0.88,16.58-8.57c0,0,4.6-2.03,4.16-5.66"/>
	<path class="st13" d="M865.31,173.41c0,0,12.48,0.5,5.49-12.37l-0.04-0.29c0,0-0.98-7.35-3.22-11.87
		c-2.23-4.52-1.74,0.38-1.74,0.38l0.84,5.67c-0.71,3.68-1.66,0.83-1.66,0.83s-1.05-9.05-1.36-5.01c-0.31,4.04-1.39,4.72-1.39,4.72
		c-2.41,2.11-0.43-3.54-0.43-3.54c0.78-4.08-2.63,1.14-2.63,1.14c-2.41,6.29-3.83,1.25-3.83,1.25s0.59-4.33,5.36-6.61
		c4.77-2.28-4.18-2.83-4.18-2.83c-5.85,2.01-5.2,1.02-5.2,1.02s-1.95-3,3.99-3.53c5.94-0.53-0.23-2.48-0.23-2.48s-4,1.72-5.32-0.72
		c-1.32-2.44,6.43-1.82,6.43-1.82c6.74,2.27-0.72-2.65-0.72-2.65s-7.36-4.55-10.43-1.01s-4.14,3.61-4.14,3.61s-3.53,1.5-2.87,8.62
		c0.66,7.12,3.31,8.98,3.31,8.98s4.81,3.52,7.75-3.4l0.1-0.26c0,0,9.22-4.94,2,1.14s0.97,13.03,0.97,13.03s0.45,13.95,12.91,8.05
		L865.31,173.41z"/>
	<path class="st5" d="M842.21,355.98c0,0-5.66-0.13-9.43-2.18"/>
	<path class="st19" d="M743.04,192.23l5.34,10.14c0,0,14.26,12.22,18.02,20.87s22.12,34.35,22.12,34.35"/>
	<path class="st5" d="M849.08,349.59c0,0-5.16,2.86-13.14-0.49"/>
	<g>
		<g>
			<path class="st22" d="M803.84,125.23c-28.32,14.2-35.09,5.53-35.09,5.53l-6.47-12.28c-6.6-12.52,1.27-29.49,17.57-37.91
				c0,0,0,0,0.57-0.3c5.18-2.67,10.58-4.16,15.76-4.55c0,0,12.04,7.96,13.46,11.15c1.42,3.19,13.81,24.25,13.81,24.25
				c-3.56,3.95-9.6,8.77-19.78,14.18"/>
		</g>
	</g>
	<path class="st4" d="M819.41,316.69l-13.75,24.35c-0.55,0.97-1.79,1.33-2.77,0.8l-1.42-0.77c-0.98-0.53-1.34-1.75-0.79-2.73
		l13.75-24.35c0.55-0.97,1.79-1.33,2.77-0.8l1.42,0.77C819.61,314.5,819.96,315.72,819.41,316.69z"/>
	<g>
		<g>
			<path class="st6" d="M824.43,113.12c-3.96,4.01-10.23,8.76-20.13,14.02l0.41-0.21c-30.56,15.33-37.87,5.97-37.87,5.97
				l-6.98-13.26c-7.12-13.52,1.37-31.84,18.97-40.92l0.38-0.19c4.54-2.34,9.25-3.84,13.85-4.55c1.58-0.46,2.81,1.47,2.81,1.47
				c-5.18,0.38-10.58,1.87-15.76,4.55c-0.57,0.3-0.57,0.3-0.57,0.3c-16.3,8.41-24.17,25.39-17.57,37.91l6.47,12.28
				c0,0,6.77,8.67,35.09-5.53c0,0,14.56-8.25,19.66-13.62C823.16,111.34,824.21,111.92,824.43,113.12z"/>
		</g>
	</g>
	<path class="st7" d="M764.31,331.95c5.28,1.83,10.21,1.89,14-1.17"/>
	<path class="st7" d="M790.42,293.78c0.3-2.27-0.15-4.38-1.17-6.34"/>
</g>
<path class="st23" d="M491.74,392.44c0.21,0.8-37.9-82.52-112.77-49.94c-1.24,0.54-2.17-1.12-1.15-2.01
	C395.47,325.06,463.81,287.96,491.74,392.44z"/>
<path class="st24" d="M5.36,608.47c2.11,13.67,1.34,27.34,1.24,41.17c0.95,0.89,1.81,1.89,2.54,3.02c0.26,0.27,0.51,0.55,0.78,0.81
	c0.03,0.02,0.04,0.03,0.07,0.05c0.03,0.01,0.05,0.02,0.08,0.04c0.91,0.47,1.84,1.02,2.74,1.52c0.04,0.02,0.07,0.04,0.1,0.06
	c0.11,0.03,0.22,0.05,0.37,0.1c2.66,0.74,5.24,1.55,7.96,2.08c1.21,0.24,2.43,0.43,3.65,0.63c0.12,0.02,0.23,0.04,0.33,0.06
	c0.18,0.02,0.4,0.04,0.67,0.06c7.69,0.75,15.43,1.12,23.12,1.91c1.46-0.49,2.98-0.76,4.51-0.75c14.82,0.07,29.6,1.66,44.38,3.1
	h33.03c1.94-0.91,4.06-1.46,6.21-1.55c48.61-2.01,97.19,0.01,145.77,1.59c0.27-0.02,0.54-0.04,0.81-0.04
	c5.94,0.01,11.88,0.11,17.82,0.22c3.73-0.43,7.49-0.52,11.25-0.38c2.16-0.2,4.34-0.33,6.55-0.36c0.66-0.01,1.3,0.04,1.93,0.12
	c15.51-0.8,31.05-1.14,46.58-1.15c0.6,0,1.18,0.04,1.76,0.11c19.51-0.62,39.08-0.13,58.63-0.11c0.14,0,0.27,0.02,0.41,0.02
	c1.97-0.94,4.12-1.5,6.3-1.57c34.46-1.04,68.92,0.12,103.37,0.93c61.04,1.44,122.11,0.01,183.16-0.32
	c54.58-0.3,109.16-0.14,163.73-0.11C763.29,404.76,470.69,272.25,196.64,360.44C125.51,383.33,62.03,419.03,7.89,464.22
	c0.15,0.83,0.25,1.68,0.25,2.52V599.9C8.14,603.16,7.1,606.08,5.36,608.47z"/>
<path class="st23" d="M287.15,647.21c13.41,3.36,28.35,7.98,43.66,14.27c12.34-0.48,24.69-0.69,37.04-0.7
	c0.63,0,1.24,0.05,1.85,0.12c8.5-0.27,17.02-0.34,25.54-0.32c-26.96-12.97-61.89-21.34-106.73-23.17
	C282.57,637.16,281.38,645.76,287.15,647.21z"/>
<path class="st23" d="M104.53,571.6c9.92,2.64,28.96,11.87,35.72,44.05c0.28,1.33,1.91,1.55,1.94,0.26
	c0.4-16.41-2.73-51.77-37.92-46.56C103.23,569.51,103.43,571.31,104.53,571.6z"/>
<path class="st23" d="M72.91,595.42c0.13-0.4,5.84,36.25,37.96,40.78c1.05,0.15,1.06,1.68,0.01,1.82
	C94.71,640.29,58.49,640.73,72.91,595.42z"/>
<path class="st23" d="M815.58,659.67c1.91-1.25,4.49-2.12,7.93-2.4c0,0-16.2-7.96-17.48,2.4
	C809.21,659.67,812.4,659.66,815.58,659.67z"/>
<path class="st23" d="M559.18,524.31c16.46,5.15,57.05,24.29,57.11,88.01c0,0.68,0.97,0.81,1.12,0.14
	c4.5-19.53,16.58-93.18-57.91-90.35C558.23,522.16,557.96,523.93,559.18,524.31z"/>
<path class="st23" d="M493.91,581.9c-0.12-0.94-1.47-0.97-1.61-0.03c-2.99,20.65-6.55,90.54,87.36,70.25
	C579.66,652.12,504.78,666.88,493.91,581.9z"/>
<path class="st23" d="M461.61,413.09c-21.75,8.74-71.31,19.09-91.71-55.67c-0.27-0.99,1.07-1.61,1.61-0.74
	c9.26,14.64,38.75,53.69,89.24,52.3C463.12,408.91,463.81,412.21,461.61,413.09z"/>
<g>
	<g>
		<path class="st2" d="M468.49,309.76c3.22,0,3.22-5,0-5C465.27,304.76,465.27,309.76,468.49,309.76L468.49,309.76z"/>
	</g>
</g>
<g>
	<g>
		<path class="st2" d="M491.72,135.69c3.22,0,3.22-5,0-5C488.51,130.69,488.5,135.69,491.72,135.69L491.72,135.69z"/>
	</g>
</g>
<g>
	<g>
		<path class="st2" d="M441.5,168.34c3.22,0,3.22-5,0-5C438.28,163.34,438.28,168.34,441.5,168.34L441.5,168.34z"/>
	</g>
</g>
<g>
	<g>
		<path class="st2" d="M330.04,161.31c3.22,0,3.22-5,0-5C326.83,156.31,326.82,161.31,330.04,161.31L330.04,161.31z"/>
	</g>
</g>
<g>
	<g>
		<path class="st2" d="M128.24,246.38c3.22,0,3.22-5,0-5C125.02,241.38,125.02,246.38,128.24,246.38L128.24,246.38z"/>
	</g>
</g>
<g>
	<g>
		<path class="st2" d="M40.6,302.39c3.22,0,3.22-5,0-5C37.38,297.39,37.38,302.39,40.6,302.39L40.6,302.39z"/>
	</g>
</g>
<g>
	<g>
		<path class="st2" d="M216.21,293.77c3.22,0,3.22-5,0-5C212.99,288.77,212.99,293.77,216.21,293.77L216.21,293.77z"/>
	</g>
</g>
<g>
	<g>
		<path class="st2" d="M255.48,346.04c3.22,0,3.22-5,0-5C252.26,341.04,252.26,346.04,255.48,346.04L255.48,346.04z"/>
	</g>
</g>
<g>
	<g>
		<path class="st2" d="M137.24,360.35c3.22,0,3.22-5,0-5C134.02,355.35,134.02,360.35,137.24,360.35L137.24,360.35z"/>
	</g>
</g>
<g>
	<g>
		<path class="st2" d="M507.67,223.65c3.22,0,3.22-5,0-5C504.45,218.65,504.45,223.65,507.67,223.65L507.67,223.65z"/>
	</g>
</g>
<g>
	<g>
		<path class="st2" d="M403.02,289.65c3.22,0,3.22-5,0-5C399.81,284.65,399.8,289.65,403.02,289.65L403.02,289.65z"/>
	</g>
</g>
<g>
	<g>
		<path class="st2" d="M394.56,130.87c3.22,0,3.22-5,0-5C391.35,125.87,391.34,130.87,394.56,130.87L394.56,130.87z"/>
	</g>
</g>
<g>
	<g>
		<path class="st2" d="M290.36,196.45c3.22,0,3.22-5,0-5C287.14,191.45,287.14,196.45,290.36,196.45L290.36,196.45z"/>
	</g>
</g>
<g>
	<g>
		<path class="st2" d="M217.65,164.21c3.22,0,3.22-5,0-5C214.44,159.21,214.43,164.21,217.65,164.21L217.65,164.21z"/>
	</g>
</g>
<g>
	<g>
		<path class="st2" d="M14.15,158.5c3.22,0,3.22-5,0-5C10.93,153.5,10.93,158.5,14.15,158.5L14.15,158.5z"/>
	</g>
</g>
<g>
	<g>
		<path class="st2" d="M53.3,205.89c3.22,0,3.22-5,0-5C50.09,200.89,50.08,205.89,53.3,205.89L53.3,205.89z"/>
	</g>
</g>
<g>
	<g>
		<path class="st2" d="M533.78,289.36c3.22,0,3.22-5,0-5C530.56,284.36,530.55,289.36,533.78,289.36L533.78,289.36z"/>
	</g>
</g>
<g>
	<g>
		<path class="st2" d="M580.08,338.67c3.22,0,3.22-5,0-5C576.86,333.67,576.86,338.67,580.08,338.67L580.08,338.67z"/>
	</g>
</g>
<g>
	<g>
		<path class="st2" d="M301.27,284.98c3.22,0,3.22-5,0-5C298.05,279.98,298.04,284.98,301.27,284.98L301.27,284.98z"/>
	</g>
</g>
<g>
	<g>
		<path class="st2" d="M92.23,331.43c3.22,0,3.22-5,0-5C89.02,326.43,89.01,331.43,92.23,331.43L92.23,331.43z"/>
	</g>
</g>
<g>
	<g>
		<path class="st2" d="M58.17,387.18c3.22,0,3.22-5,0-5C54.95,382.18,54.95,387.18,58.17,387.18L58.17,387.18z"/>
	</g>
</g>
<g>
	<g>
		<path class="st2" d="M392.37,206.65c3.22,0,3.22-5,0-5C389.15,201.65,389.15,206.65,392.37,206.65L392.37,206.65z"/>
	</g>
</g>
<g>
	<g>
		<path class="st2" d="M97.28,173.82c3.22,0,3.22-5,0-5C94.06,168.82,94.06,173.82,97.28,173.82L97.28,173.82z"/>
	</g>
</g>
<g>
	<g>
		<path class="st2" d="M135.59,297.37c3.22,0,3.22-5,0-5C132.37,292.37,132.37,297.37,135.59,297.37L135.59,297.37z"/>
	</g>
</g>
<g>
	<g>
		<path class="st2" d="M198.45,224.8c3.22,0,3.22-5,0-5C195.23,219.8,195.22,224.8,198.45,224.8L198.45,224.8z"/>
	</g>
</g>
<g>
	<g>
		<path class="st2" d="M326.74,235.57c3.22,0,3.22-5,0-5C323.53,230.57,323.52,235.57,326.74,235.57L326.74,235.57z"/>
	</g>
</g>
<g>
	<g>
		<path class="st2" d="M956.89,596.58c3.22,0,3.22-5,0-5C953.68,591.58,953.67,596.58,956.89,596.58L956.89,596.58z"/>
	</g>
</g>
<g>
	<g>
		<path class="st2" d="M620.42,196.22c3.22,0,3.22-5,0-5C617.2,191.22,617.2,196.22,620.42,196.22L620.42,196.22z"/>
	</g>
</g>
<g>
	<g>
		<path class="st2" d="M810.34,305.32c3.22,0,3.22-5,0-5C807.13,300.32,807.12,305.32,810.34,305.32L810.34,305.32z"/>
	</g>
</g>
<g>
	<g>
		<path class="st2" d="M652.54,246.79c3.22,0,3.22-5,0-5C649.32,241.79,649.31,246.79,652.54,246.79L652.54,246.79z"/>
	</g>
</g>
<g>
	<g>
		<path class="st2" d="M644.33,358.17c3.22,0,3.22-5,0-5C641.11,353.17,641.11,358.17,644.33,358.17L644.33,358.17z"/>
	</g>
</g>
<g>
	<g>
		<path class="st2" d="M849.99,569.31c3.22,0,3.22-5,0-5C846.77,564.31,846.77,569.31,849.99,569.31L849.99,569.31z"/>
	</g>
</g>
<g>
	<g>
		<path class="st2" d="M879.48,322.81c3.22,0,3.22-5,0-5C876.26,317.81,876.25,322.81,879.48,322.81L879.48,322.81z"/>
	</g>
</g>
<g>
	<g>
		<path class="st2" d="M978.85,169.19c3.22,0,3.22-5,0-5C975.63,164.19,975.62,169.19,978.85,169.19L978.85,169.19z"/>
	</g>
</g>
<g>
	<g>
		<path class="st2" d="M791.86,165.1c3.22,0,3.22-5,0-5C788.64,160.1,788.64,165.1,791.86,165.1L791.86,165.1z"/>
	</g>
</g>
<g>
	<g>
		<path class="st2" d="M1011.98,210.66c3.22,0,3.22-5,0-5C1008.76,205.66,1008.75,210.66,1011.98,210.66L1011.98,210.66z"/>
	</g>
</g>
<g>
	<g>
		<path class="st2" d="M1039.85,322.14c3.22,0,3.22-5,0-5C1036.63,317.14,1036.62,322.14,1039.85,322.14L1039.85,322.14z"/>
	</g>
</g>
<g>
	<g>
		<path class="st2" d="M927.9,382.45c3.22,0,3.22-5,0-5C924.68,377.45,924.68,382.45,927.9,382.45L927.9,382.45z"/>
	</g>
</g>
<g>
	<g>
		<path class="st2" d="M774.28,448.42c3.22,0,3.22-5,0-5C771.06,443.42,771.06,448.42,774.28,448.42L774.28,448.42z"/>
	</g>
</g>
<g>
	<g>
		<path class="st2" d="M768.6,217.99c3.22,0,3.22-5,0-5C765.38,212.99,765.37,217.99,768.6,217.99L768.6,217.99z"/>
	</g>
</g>
<g>
	<g>
		<path class="st2" d="M776.62,374.79c3.22,0,3.22-5,0-5C773.4,369.79,773.4,374.79,776.62,374.79L776.62,374.79z"/>
	</g>
</g>
<g>
	<g>
		<path class="st2" d="M817.48,505.06c3.22,0,3.22-5,0-5C814.27,500.06,814.26,505.06,817.48,505.06L817.48,505.06z"/>
	</g>
</g>
<g>
	<g>
		<path class="st2" d="M917.63,263.8c3.22,0,3.22-5,0-5C914.41,258.8,914.4,263.8,917.63,263.8L917.63,263.8z"/>
	</g>
</g>
<g>
	<g>
		<path class="st2" d="M708.54,181.21c3.22,0,3.22-5,0-5C705.32,176.21,705.32,181.21,708.54,181.21L708.54,181.21z"/>
	</g>
</g>
<g>
	<g>
		<path class="st2" d="M979.22,531.83c3.22,0,3.22-5,0-5C976,526.83,975.99,531.83,979.22,531.83L979.22,531.83z"/>
	</g>
</g>
<g>
	<g>
		<path class="st2" d="M585,253.02c3.22,0,3.22-5,0-5C581.78,248.02,581.77,253.02,585,253.02L585,253.02z"/>
	</g>
</g>
<g>
	<g>
		<path class="st2" d="M821.32,406.23c3.22,0,3.22-5,0-5C818.11,401.23,818.1,406.23,821.32,406.23L821.32,406.23z"/>
	</g>
</g>
<g>
	<g>
		<path class="st2" d="M679.05,398.22c3.22,0,3.22-5,0-5C675.83,393.22,675.82,398.22,679.05,398.22L679.05,398.22z"/>
	</g>
</g>
<g>
	<g>
		<path class="st2" d="M756.59,473.55c3.22,0,3.22-5,0-5C753.37,468.55,753.36,473.55,756.59,473.55L756.59,473.55z"/>
	</g>
</g>
<g>
	<g>
		<path class="st2" d="M867.01,234.08c3.22,0,3.22-5,0-5C863.8,229.08,863.79,234.08,867.01,234.08L867.01,234.08z"/>
	</g>
</g>
<g>
	<g>
		<path class="st2" d="M905.14,588.02c3.22,0,3.22-5,0-5C901.93,583.02,901.92,588.02,905.14,588.02L905.14,588.02z"/>
	</g>
</g>
<g>
	<g>
		<path class="st2" d="M987.36,430.3c3.22,0,3.22-5,0-5C984.14,425.3,984.14,430.3,987.36,430.3L987.36,430.3z"/>
	</g>
</g>
<g>
	<g>
		<path class="st2" d="M948.06,219.8c3.22,0,3.22-5,0-5C944.85,214.8,944.84,219.8,948.06,219.8L948.06,219.8z"/>
	</g>
</g>
<g>
	<g>
		<path class="st2" d="M893.52,183.85c3.22,0,3.22-5,0-5C890.3,178.85,890.29,183.85,893.52,183.85L893.52,183.85z"/>
	</g>
</g>
<g>
	<g>
		<path class="st2" d="M896.08,653.38c3.22,0,3.22-5,0-5C892.87,648.38,892.86,653.38,896.08,653.38L896.08,653.38z"/>
	</g>
</g>
<g>
	<g>
		<path class="st2" d="M690.32,296.32c3.22,0,3.22-5,0-5C687.1,291.32,687.1,296.32,690.32,296.32L690.32,296.32z"/>
	</g>
</g>
<g>
	<g>
		<path class="st2" d="M1022.81,611.69c3.22,0,3.22-5,0-5C1019.6,606.69,1019.59,611.69,1022.81,611.69L1022.81,611.69z"/>
	</g>
</g>
<g>
	<g>
		<path class="st2" d="M980.63,264.29c3.22,0,3.22-5,0-5C977.41,259.29,977.41,264.29,980.63,264.29L980.63,264.29z"/>
	</g>
</g>
<g>
	<g>
		<path class="st2" d="M881.69,530.49c3.22,0,3.22-5,0-5C878.47,525.49,878.46,530.49,881.69,530.49L881.69,530.49z"/>
	</g>
</g>
<g>
	<g>
		<path class="st2" d="M718.55,362.25c3.22,0,3.22-5,0-5C715.34,357.25,715.33,362.25,718.55,362.25L718.55,362.25z"/>
	</g>
</g>
<g>
	<g>
		<path class="st2" d="M818.62,244.82c3.22,0,3.22-5,0-5C815.4,239.82,815.4,244.82,818.62,244.82L818.62,244.82z"/>
	</g>
</g>
<g>
	<g>
		<path class="st2" d="M441.5,38.34c3.22,0,3.22-5,0-5C438.28,33.34,438.28,38.34,441.5,38.34L441.5,38.34z"/>
	</g>
</g>
<g>
	<g>
		<path class="st2" d="M330.04,31.31c3.22,0,3.22-5,0-5C326.83,26.31,326.82,31.31,330.04,31.31L330.04,31.31z"/>
	</g>
</g>
<g>
	<g>
		<path class="st2" d="M507.67,93.65c3.22,0,3.22-5,0-5C504.45,88.65,504.45,93.65,507.67,93.65L507.67,93.65z"/>
	</g>
</g>
<g>
	<g>
		<path class="st2" d="M290.36,66.45c3.22,0,3.22-5,0-5C287.14,61.45,287.14,66.45,290.36,66.45L290.36,66.45z"/>
	</g>
</g>
<g>
	<g>
		<path class="st2" d="M217.65,34.21c3.22,0,3.22-5,0-5C214.44,29.21,214.43,34.21,217.65,34.21L217.65,34.21z"/>
	</g>
</g>
<g>
	<g>
		<path class="st2" d="M14.15,28.5c3.22,0,3.22-5,0-5C10.93,23.5,10.93,28.5,14.15,28.5L14.15,28.5z"/>
	</g>
</g>
<g>
	<g>
		<path class="st2" d="M53.3,75.89c3.22,0,3.22-5,0-5C50.09,70.89,50.08,75.89,53.3,75.89L53.3,75.89z"/>
	</g>
</g>
<g>
	<g>
		<path class="st2" d="M392.37,76.65c3.22,0,3.22-5,0-5C389.15,71.65,389.15,76.65,392.37,76.65L392.37,76.65z"/>
	</g>
</g>
<g>
	<g>
		<path class="st2" d="M97.28,43.82c3.22,0,3.22-5,0-5C94.06,38.82,94.06,43.82,97.28,43.82L97.28,43.82z"/>
	</g>
</g>
<g>
	<g>
		<path class="st2" d="M198.45,94.8c3.22,0,3.22-5,0-5C195.23,89.8,195.22,94.8,198.45,94.8L198.45,94.8z"/>
	</g>
</g>
<g>
	<g>
		<path class="st2" d="M326.74,105.57c3.22,0,3.22-5,0-5C323.53,100.57,323.52,105.57,326.74,105.57L326.74,105.57z"/>
	</g>
</g>
<g>
	<g>
		<path class="st2" d="M620.42,66.22c3.22,0,3.22-5,0-5C617.2,61.22,617.2,66.22,620.42,66.22L620.42,66.22z"/>
	</g>
</g>
<g>
	<g>
		<path class="st2" d="M978.85,39.19c3.22,0,3.22-5,0-5C975.63,34.19,975.62,39.19,978.85,39.19L978.85,39.19z"/>
	</g>
</g>
<g>
	<g>
		<path class="st2" d="M791.86,35.1c3.22,0,3.22-5,0-5C788.64,30.1,788.64,35.1,791.86,35.1L791.86,35.1z"/>
	</g>
</g>
<g>
	<g>
		<path class="st2" d="M768.6,87.99c3.22,0,3.22-5,0-5C765.38,82.99,765.37,87.99,768.6,87.99L768.6,87.99z"/>
	</g>
</g>
<g>
	<g>
		<path class="st2" d="M708.54,51.21c3.22,0,3.22-5,0-5C705.32,46.21,705.32,51.21,708.54,51.21L708.54,51.21z"/>
	</g>
</g>
<g>
	<g>
		<path class="st2" d="M867.01,104.08c3.22,0,3.22-5,0-5C863.8,99.08,863.79,104.08,867.01,104.08L867.01,104.08z"/>
	</g>
</g>
<g>
	<g>
		<path class="st2" d="M948.06,89.8c3.22,0,3.22-5,0-5C944.85,84.8,944.84,89.8,948.06,89.8L948.06,89.8z"/>
	</g>
</g>
<g>
	<g>
		<path class="st2" d="M893.52,53.85c3.22,0,3.22-5,0-5C890.3,48.85,890.29,53.85,893.52,53.85L893.52,53.85z"/>
	</g>
</g>
<g>
	<g>
		<path class="st2" d="M555.21,144.21c3.22,0,3.22-5,0-5C552,139.21,551.99,144.21,555.21,144.21L555.21,144.21z"/>
	</g>
</g>
<g>
	<g>
		<path class="st2" d="M619.94,154.16c3.22,0,3.22-5,0-5C616.73,149.16,616.72,154.16,619.94,154.16L619.94,154.16z"/>
	</g>
</g>
<g>
	<g>
		<path class="st2" d="M665.12,101.48c3.22,0,3.22-5,0-5C661.91,96.48,661.9,101.48,665.12,101.48L665.12,101.48z"/>
	</g>
</g>
<g>
	<g>
		<path class="st2" d="M1024.51,418.09c3.22,0,3.22-5,0-5C1021.29,413.09,1021.28,418.09,1024.51,418.09L1024.51,418.09z"/>
	</g>
</g>
<g>
	<g>
		<path class="st2" d="M1063.07,526.53c3.22,0,3.22-5,0-5C1059.85,521.53,1059.85,526.53,1063.07,526.53L1063.07,526.53z"/>
	</g>
</g>
<g>
	<g>
		<path class="st2" d="M1064.15,576.66c3.22,0,3.22-5,0-5C1060.93,571.66,1060.92,576.66,1064.15,576.66L1064.15,576.66z"/>
	</g>
</g>
<g>
	<g>
		<path class="st2" d="M1053.51,652.44c3.22,0,3.22-5,0-5C1050.29,647.44,1050.29,652.44,1053.51,652.44L1053.51,652.44z"/>
	</g>
</g>
<g>
	<g>
		<path class="st2" d="M1044.55,483.15c3.22,0,3.22-5,0-5C1041.33,478.15,1041.33,483.15,1044.55,483.15L1044.55,483.15z"/>
	</g>
</g>
<g>
	<g>
		<path class="st2" d="M1021.12,363.69c3.22,0,3.22-5,0-5C1017.9,358.69,1017.9,363.69,1021.12,363.69L1021.12,363.69z"/>
	</g>
</g>
<g>
	<g>
		<path class="st2" d="M1027.67,266.44c3.22,0,3.22-5,0-5C1024.45,261.44,1024.45,266.44,1027.67,266.44L1027.67,266.44z"/>
	</g>
</g>
<g>
	<g>
		<path class="st2" d="M1036.75,88.34c3.22,0,3.22-5,0-5C1033.53,83.34,1033.53,88.34,1036.75,88.34L1036.75,88.34z"/>
	</g>
</g>
<g>
	<g>
		<path class="st2" d="M1039.85,54.27c3.22,0,3.22-5,0-5C1036.63,49.27,1036.62,54.27,1039.85,54.27L1039.85,54.27z"/>
	</g>
</g>
<g>
	<g>
		<path class="st2" d="M1042.94,164.21c3.22,0,3.22-5,0-5C1039.73,159.21,1039.72,164.21,1042.94,164.21L1042.94,164.21z"/>
	</g>
</g>
<g>
	<g>
		<path class="st2" d="M1061.52,219.95c3.22,0,3.22-5,0-5C1058.31,214.95,1058.3,219.95,1061.52,219.95L1061.52,219.95z"/>
	</g>
</g>
<path class="st25" d="M1060.24,660.29H19.62c-7.55,0-13.67-6.12-13.67-13.67V28.28c0-7.55,6.12-13.67,13.67-13.67h1040.62
	c7.55,0,13.67,6.12,13.67,13.67v618.34C1073.91,654.17,1067.79,660.29,1060.24,660.29z"/>
</svg>
