<?xml version="1.0" encoding="utf-8"?>
<!-- Generator: Adobe Illustrator 27.1.1, SVG Export Plug-In . SVG Version: 6.00 Build 0)  -->
<svg version="1.1" id="Layer_1" xmlns="http://www.w3.org/2000/svg" xmlns:xlink="http://www.w3.org/1999/xlink" x="0px" y="0px"
	 viewBox="0 0 792 864" style="enable-background:new 0 0 792 864;" xml:space="preserve">
<style type="text/css">
	.st0{fill:#3E1D0D;stroke:#984C1E;stroke-width:5;stroke-miterlimit:10;}
	.st1{fill:#984C1E;}
	.st2{fill:#B35923;}
	.st3{fill:#C26024;}
	.st4{fill:#FFF1E7;}
	.st5{fill:#EFE8CC;stroke:#B1AE9C;stroke-width:4;stroke-linecap:round;stroke-linejoin:round;stroke-miterlimit:10;}
	.st6{fill:#B1AE9C;stroke:#9B9989;stroke-miterlimit:10;}
	.st7{fill:#2B190D;stroke:#A8A694;stroke-width:4;stroke-miterlimit:10;}
	.st8{fill:#2B190D;stroke:#000000;stroke-width:2;stroke-miterlimit:10;}
	.st9{fill:#D23C27;stroke:#A53A23;stroke-width:3;stroke-linecap:round;stroke-linejoin:round;stroke-miterlimit:10;}
	.st10{fill:none;stroke:#2B0000;stroke-width:10;stroke-miterlimit:10;}
	.st11{fill:none;stroke:#984C1E;stroke-width:5;stroke-miterlimit:10;}
</style>
<path class="st0" d="M731.83,857.15H59.75c-23.24,0-42.07-18.84-42.07-42.07V48.12c0-23.24,18.84-42.07,42.07-42.07h672.09
	c23.24,0,42.07,18.84,42.07,42.07v766.96C773.91,838.31,755.07,857.15,731.83,857.15z"/>
<path class="st1" d="M731.98,339.45H57.07c-23.03,0-41.69-18.67-41.69-41.69V46.8c0-23.03,18.67-41.69,41.69-41.69h674.92
	c23.03,0,41.69,18.67,41.69,41.69v250.96C773.67,320.78,755.01,339.45,731.98,339.45z"/>
<rect x="16.53" y="241.49" class="st2" width="755.51" height="258.74"/>
<rect x="16.53" y="490.68" class="st3" width="755.51" height="218.55"/>
<g>
	<g>
		<path class="st4" d="M564.65,175.57c3.22,0,3.22-5,0-5C561.44,170.57,561.43,175.57,564.65,175.57L564.65,175.57z"/>
	</g>
</g>
<g>
	<g>
		<path class="st4" d="M627.77,448.25c3.22,0,3.22-5,0-5C624.55,443.25,624.55,448.25,627.77,448.25L627.77,448.25z"/>
	</g>
</g>
<g>
	<g>
		<path class="st4" d="M103.88,399.23c3.22,0,3.22-5,0-5C100.67,394.23,100.66,399.23,103.88,399.23L103.88,399.23z"/>
	</g>
</g>
<g>
	<g>
		<path class="st4" d="M125.98,187.82c3.22,0,3.22-5,0-5C122.76,182.82,122.75,187.82,125.98,187.82L125.98,187.82z"/>
	</g>
</g>
<g>
	<g>
		<path class="st4" d="M208.03,405.35c3.22,0,3.22-5,0-5C204.81,400.35,204.81,405.35,208.03,405.35L208.03,405.35z"/>
	</g>
</g>
<g>
	<g>
		<path class="st4" d="M100.73,619.82c3.22,0,3.22-5,0-5C97.51,614.82,97.51,619.82,100.73,619.82L100.73,619.82z"/>
	</g>
</g>
<g>
	<g>
		<path class="st4" d="M665.64,552.42c3.22,0,3.22-5,0-5C662.43,547.42,662.42,552.42,665.64,552.42L665.64,552.42z"/>
	</g>
</g>
<g>
	<g>
		<path class="st4" d="M671.96,313.44c3.22,0,3.22-5,0-5C668.74,308.44,668.73,313.44,671.96,313.44L671.96,313.44z"/>
	</g>
</g>
<g>
	<g>
		<path class="st4" d="M533.09,353.27c3.22,0,3.22-5,0-5C529.88,348.27,529.87,353.27,533.09,353.27L533.09,353.27z"/>
	</g>
</g>
<g>
	<g>
		<path class="st4" d="M523.63,197.01c3.22,0,3.22-5,0-5C520.41,192.01,520.4,197.01,523.63,197.01L523.63,197.01z"/>
	</g>
</g>
<g>
	<g>
		<path class="st4" d="M697.2,135.74c3.22,0,3.22-5,0-5C693.99,130.74,693.98,135.74,697.2,135.74L697.2,135.74z"/>
	</g>
</g>
<g>
	<g>
		<path class="st4" d="M410.01,301.18c3.22,0,3.22-5,0-5C406.79,296.18,406.79,301.18,410.01,301.18L410.01,301.18z"/>
	</g>
</g>
<g>
	<g>
		<path class="st4" d="M163.85,307.31c3.22,0,3.22-5,0-5C160.63,302.31,160.62,307.31,163.85,307.31L163.85,307.31z"/>
	</g>
</g>
<g>
	<g>
		<path class="st4" d="M416.32,589.18c3.22,0,3.22-5,0-5C413.11,584.18,413.1,589.18,416.32,589.18L416.32,589.18z"/>
	</g>
</g>
<g>
	<g>
		<path class="st4" d="M694.05,705.61c3.22,0,3.22-5,0-5C690.83,700.61,690.82,705.61,694.05,705.61L694.05,705.61z"/>
	</g>
</g>
<g>
	<g>
		<path class="st4" d="M681.42,610.63c3.22,0,3.22-5,0-5C678.21,605.63,678.2,610.63,681.42,610.63L681.42,610.63z"/>
	</g>
</g>
<g>
	<g>
		<path class="st4" d="M599.37,154.12c3.22,0,3.22-5,0-5C596.15,149.12,596.15,154.12,599.37,154.12L599.37,154.12z"/>
	</g>
</g>
<g>
	<g>
		<path class="st4" d="M299.55,129.61c3.22,0,3.22-5,0-5C296.34,124.61,296.33,129.61,299.55,129.61L299.55,129.61z"/>
	</g>
</g>
<g>
	<g>
		<path class="st4" d="M416.32,144.93c3.22,0,3.22-5,0-5C413.11,139.93,413.1,144.93,416.32,144.93L416.32,144.93z"/>
	</g>
</g>
<g>
	<g>
		<path class="st4" d="M249.06,221.52c3.22,0,3.22-5,0-5C245.84,216.52,245.84,221.52,249.06,221.52L249.06,221.52z"/>
	</g>
</g>
<g>
	<g>
		<path class="st4" d="M630.93,668.84c3.22,0,3.22-5,0-5C627.71,663.84,627.71,668.84,630.93,668.84L630.93,668.84z"/>
	</g>
</g>
<g>
	<g>
		<path class="st4" d="M81.79,558.55c3.22,0,3.22-5,0-5C78.58,553.55,78.57,558.55,81.79,558.55L81.79,558.55z"/>
	</g>
</g>
<g>
	<g>
		<path class="st4" d="M113.35,301.18c3.22,0,3.22-5,0-5C110.14,296.18,110.13,301.18,113.35,301.18L113.35,301.18z"/>
	</g>
</g>
<g>
	<g>
		<path class="st4" d="M198.56,595.31c3.22,0,3.22-5,0-5C195.35,590.31,195.34,595.31,198.56,595.31L198.56,595.31z"/>
	</g>
</g>
<g>
	<g>
		<path class="st4" d="M163.85,454.38c3.22,0,3.22-5,0-5C160.63,449.38,160.62,454.38,163.85,454.38L163.85,454.38z"/>
	</g>
</g>
<g>
	<g>
		<path class="st4" d="M103.88,488.08c3.22,0,3.22-5,0-5C100.67,483.08,100.66,488.08,103.88,488.08L103.88,488.08z"/>
	</g>
</g>
<g>
	<g>
		<path class="st4" d="M148.07,147.99c3.22,0,3.22-5,0-5C144.85,142.99,144.85,147.99,148.07,147.99L148.07,147.99z"/>
	</g>
</g>
<g>
	<g>
		<path class="st4" d="M78.64,362.46c3.22,0,3.22-5,0-5C75.42,357.46,75.41,362.46,78.64,362.46L78.64,362.46z"/>
	</g>
</g>
<g>
	<g>
		<path class="st4" d="M540.98,259.82c3.22,0,3.22-5,0-5C537.77,254.82,537.76,259.82,540.98,259.82L540.98,259.82z"/>
	</g>
</g>
<g>
	<g>
		<path class="st4" d="M648.29,193.95c3.22,0,3.22-5,0-5C645.07,188.95,645.06,193.95,648.29,193.95L648.29,193.95z"/>
	</g>
</g>
<g>
	<g>
		<path class="st4" d="M304.81,387.48c3.22,0,3.22-5,0-5C301.6,382.48,301.59,387.48,304.81,387.48L304.81,387.48z"/>
	</g>
</g>
<g>
	<g>
		<path class="st4" d="M276.41,277.18c3.22,0,3.22-5,0-5C273.19,272.18,273.19,277.18,276.41,277.18L276.41,277.18z"/>
	</g>
</g>
<g>
	<g>
		<path class="st4" d="M361.62,231.23c3.22,0,3.22-5,0-5C358.4,226.23,358.4,231.23,361.62,231.23L361.62,231.23z"/>
	</g>
</g>
<g>
	<g>
		<path class="st4" d="M358.46,373.69c3.22,0,3.22-5,0-5C355.25,368.69,355.24,373.69,358.46,373.69L358.46,373.69z"/>
	</g>
</g>
<g>
	<g>
		<path class="st4" d="M456.3,379.82c3.22,0,3.22-5,0-5C453.08,374.82,453.08,379.82,456.3,379.82L456.3,379.82z"/>
	</g>
</g>
<g>
	<g>
		<path class="st4" d="M508.37,461.01c3.22,0,3.22-5,0-5C505.15,456.01,505.15,461.01,508.37,461.01L508.37,461.01z"/>
	</g>
</g>
<g>
	<g>
		<path class="st4" d="M604.63,378.29c3.22,0,3.22-5,0-5C601.41,373.29,601.41,378.29,604.63,378.29L604.63,378.29z"/>
	</g>
</g>
<g>
	<g>
		<path class="st4" d="M749.02,382.89c3.22,0,3.22-5,0-5C745.81,377.89,745.8,382.89,749.02,382.89L749.02,382.89z"/>
	</g>
</g>
<g>
	<g>
		<path class="st4" d="M680.37,482.46c3.22,0,3.22-5,0-5C677.15,477.46,677.15,482.46,680.37,482.46L680.37,482.46z"/>
	</g>
</g>
<g>
	<g>
		<path class="st4" d="M733.24,500.84c3.22,0,3.22-5,0-5C730.02,495.84,730.01,500.84,733.24,500.84L733.24,500.84z"/>
	</g>
</g>
<g>
	<g>
		<path class="st4" d="M699.31,361.44c3.22,0,3.22-5,0-5C696.09,356.44,696.08,361.44,699.31,361.44L699.31,361.44z"/>
	</g>
</g>
<g>
	<g>
		<path class="st4" d="M725.34,284.84c3.22,0,3.22-5,0-5C722.12,279.84,722.12,284.84,725.34,284.84L725.34,284.84z"/>
	</g>
</g>
<g>
	<g>
		<path class="st4" d="M709.98,165.35c3.22,0,3.22-5,0-5C706.76,160.35,706.76,165.35,709.98,165.35L709.98,165.35z"/>
	</g>
</g>
<g>
	<g>
		<path class="st4" d="M738.06,120.46c3.22,0,3.22-5,0-5C734.84,115.46,734.84,120.46,738.06,120.46L738.06,120.46z"/>
	</g>
</g>
<g>
	<g>
		<path class="st4" d="M707.2,131.65c3.22,0,3.22-5,0-5C703.98,126.65,703.97,131.65,707.2,131.65L707.2,131.65z"/>
	</g>
</g>
<g>
	<g>
		<path class="st4" d="M383.71,116.33c3.22,0,3.22-5,0-5C380.49,111.33,380.49,116.33,383.71,116.33L383.71,116.33z"/>
	</g>
</g>
<g>
	<g>
		<path class="st4" d="M484.7,102.55c3.22,0,3.22-5,0-5C481.48,97.55,481.48,102.55,484.7,102.55L484.7,102.55z"/>
	</g>
</g>
<g>
	<g>
		<path class="st4" d="M401.07,90.29c3.22,0,3.22-5,0-5C397.85,85.29,397.85,90.29,401.07,90.29L401.07,90.29z"/>
	</g>
</g>
<g>
	<g>
		<path class="st4" d="M132.81,127.06c3.22,0,3.22-5,0-5C129.6,122.06,129.59,127.06,132.81,127.06L132.81,127.06z"/>
	</g>
</g>
<g>
	<g>
		<path class="st4" d="M277.99,485.52c3.22,0,3.22-5,0-5C274.77,480.52,274.76,485.52,277.99,485.52L277.99,485.52z"/>
	</g>
</g>
<g>
	<g>
		<path class="st4" d="M442.1,421.18c3.22,0,3.22-5,0-5C438.88,416.18,438.87,421.18,442.1,421.18L442.1,421.18z"/>
	</g>
</g>
<g>
	<g>
		<path class="st4" d="M393.18,571.31c3.22,0,3.22-5,0-5C389.96,566.31,389.96,571.31,393.18,571.31L393.18,571.31z"/>
	</g>
</g>
<g>
	<g>
		<path class="st4" d="M252.74,503.91c3.22,0,3.22-5,0-5C249.52,498.91,249.52,503.91,252.74,503.91L252.74,503.91z"/>
	</g>
</g>
<g>
	<g>
		<path class="st4" d="M427.9,487.06c3.22,0,3.22-5,0-5C424.68,482.06,424.67,487.06,427.9,487.06L427.9,487.06z"/>
	</g>
</g>
<g>
	<g>
		<path class="st4" d="M378.98,540.67c3.22,0,3.22-5,0-5C375.76,535.67,375.76,540.67,378.98,540.67L378.98,540.67z"/>
	</g>
</g>
<g>
	<g>
		<path class="st4" d="M270.1,551.4c3.22,0,3.22-5,0-5C266.88,546.4,266.88,551.4,270.1,551.4L270.1,551.4z"/>
	</g>
</g>
<g>
	<g>
		<path class="st4" d="M192.78,528.42c3.22,0,3.22-5,0-5C189.56,523.42,189.55,528.42,192.78,528.42L192.78,528.42z"/>
	</g>
</g>
<g>
	<g>
		<path class="st4" d="M225.91,640.25c3.22,0,3.22-5,0-5C222.7,635.25,222.69,640.25,225.91,640.25L225.91,640.25z"/>
	</g>
</g>
<g>
	<g>
		<path class="st4" d="M461.03,598.89c3.22,0,3.22-5,0-5C457.82,593.89,457.81,598.89,461.03,598.89L461.03,598.89z"/>
	</g>
</g>
<g>
	<g>
		<path class="st4" d="M484.7,549.86c3.22,0,3.22-5,0-5C481.48,544.86,481.48,549.86,484.7,549.86L484.7,549.86z"/>
	</g>
</g>
<g>
	<g>
		<path class="st4" d="M522.57,519.23c3.22,0,3.22-5,0-5C519.36,514.23,519.35,519.23,522.57,519.23L522.57,519.23z"/>
	</g>
</g>
<g>
	<g>
		<path class="st4" d="M590.43,557.52c3.22,0,3.22-5,0-5C587.21,552.52,587.2,557.52,590.43,557.52L590.43,557.52z"/>
	</g>
</g>
<g>
	<g>
		<path class="st4" d="M555.71,652.5c3.22,0,3.22-5,0-5C552.49,647.5,552.49,652.5,555.71,652.5L555.71,652.5z"/>
	</g>
</g>
<g>
	<g>
		<path class="st4" d="M391.6,637.18c3.22,0,3.22-5,0-5C388.38,632.18,388.38,637.18,391.6,637.18L391.6,637.18z"/>
	</g>
</g>
<g>
	<g>
		<path class="st4" d="M511.53,644.84c3.22,0,3.22-5,0-5C508.31,639.84,508.31,644.84,511.53,644.84L511.53,644.84z"/>
	</g>
</g>
<g>
	<g>
		<path class="st4" d="M397.91,696.93c3.22,0,3.22-5,0-5C394.7,691.93,394.69,696.93,397.91,696.93L397.91,696.93z"/>
	</g>
</g>
<g>
	<g>
		<path class="st4" d="M333.22,650.97c3.22,0,3.22-5,0-5C330,645.97,329.99,650.97,333.22,650.97L333.22,650.97z"/>
	</g>
</g>
<g>
	<g>
		<path class="st4" d="M328.48,591.23c3.22,0,3.22-5,0-5C325.27,586.23,325.26,591.23,328.48,591.23L328.48,591.23z"/>
	</g>
</g>
<g>
	<g>
		<path class="st4" d="M110.72,663.23c3.22,0,3.22-5,0-5C107.51,658.23,107.5,663.23,110.72,663.23L110.72,663.23z"/>
	</g>
</g>
<g>
	<g>
		<path class="st4" d="M210.13,686.21c3.22,0,3.22-5,0-5C206.92,681.21,206.91,686.21,210.13,686.21L210.13,686.21z"/>
	</g>
</g>
<g>
	<g>
		<path class="st4" d="M87.05,569.78c3.22,0,3.22-5,0-5C83.84,564.78,83.83,569.78,87.05,569.78L87.05,569.78z"/>
	</g>
</g>
<g>
	<g>
		<path class="st4" d="M172.26,344.59c3.22,0,3.22-5,0-5C169.05,339.59,169.04,344.59,172.26,344.59L172.26,344.59z"/>
	</g>
</g>
<g>
	<g>
		<path class="st4" d="M292.19,353.78c3.22,0,3.22-5,0-5C288.97,348.78,288.97,353.78,292.19,353.78L292.19,353.78z"/>
	</g>
</g>
<path class="st5" d="M363.9,189.53c-306.38,310.98-73.53,572.43-73.53,572.43h147.56c0,0,232.85-261.45-73.53-572.43"/>
<circle class="st6" cx="364.49" cy="473.24" r="83.11"/>
<circle class="st7" cx="364.49" cy="472.09" r="63.57"/>
<polyline class="st8" points="291.36,761.96 262.68,826.02 467.36,826.02 438.68,761.96 "/>
<path class="st9" d="M216.57,432.02c0,0-126.96,129.22-44.18,319.4l65.62-76.6c-36.34-72.65-42.87-154.64-22.26-241.44"/>
<path class="st9" d="M509.81,432.02c0,0,126.96,129.22,44.18,319.4l-65.62-76.6c36.34-72.65,42.87-154.64,22.26-241.44"/>
<path class="st10" d="M683.15,86.26h-82.72c-3.25,0-5.89,2.64-5.89,5.89v725.4c0,3.25,2.64,5.89,5.89,5.89h82.72
	c3.25,0,5.89-2.64,5.89-5.89V92.15C689.05,88.9,686.41,86.26,683.15,86.26z"/>
<path class="st10" d="M103.05,91.96v82.72c0,3.25,2.64,5.89,5.89,5.89h573.81c3.25,0,5.89-2.64,5.89-5.89V91.96
	c0-3.25-2.64-5.89-5.89-5.89H108.94C105.68,86.07,103.05,88.7,103.05,91.96z"/>
<line class="st10" x1="593.79" y1="84.73" x2="690.3" y2="181.24"/>
<line class="st10" x1="690.3" y1="84.73" x2="593.79" y2="181.24"/>
<line class="st10" x1="593.79" y1="178.73" x2="690.3" y2="275.24"/>
<line class="st10" x1="690.3" y1="178.73" x2="593.79" y2="275.24"/>
<line class="st10" x1="593.79" y1="278.73" x2="690.3" y2="375.24"/>
<line class="st10" x1="690.3" y1="278.73" x2="593.79" y2="375.24"/>
<line class="st10" x1="593.79" y1="372.73" x2="690.3" y2="469.24"/>
<line class="st10" x1="690.3" y1="372.73" x2="593.79" y2="469.24"/>
<line class="st10" x1="593.79" y1="472.73" x2="690.3" y2="569.24"/>
<line class="st10" x1="690.3" y1="472.73" x2="593.79" y2="569.24"/>
<line class="st10" x1="593.79" y1="573.73" x2="690.3" y2="670.24"/>
<line class="st10" x1="690.3" y1="573.73" x2="593.79" y2="670.24"/>
<line class="st10" x1="593.79" y1="673.73" x2="690.3" y2="770.24"/>
<line class="st10" x1="690.3" y1="673.73" x2="593.79" y2="770.24"/>
<line class="st10" x1="593.79" y1="767.73" x2="650.24" y2="824.17"/>
<line class="st10" x1="690.3" y1="767.73" x2="634.26" y2="823.77"/>
<line class="st10" x1="594.17" y1="84.24" x2="497.66" y2="180.75"/>
<line class="st10" x1="594.17" y1="180.75" x2="497.66" y2="84.24"/>
<line class="st10" x1="494.17" y1="84.24" x2="397.66" y2="180.75"/>
<line class="st10" x1="494.17" y1="180.75" x2="397.66" y2="84.24"/>
<line class="st10" x1="400.17" y1="84.24" x2="303.66" y2="180.75"/>
<line class="st10" x1="400.17" y1="180.75" x2="303.66" y2="84.24"/>
<line class="st10" x1="300.17" y1="84.24" x2="203.66" y2="180.75"/>
<line class="st10" x1="300.17" y1="180.75" x2="203.66" y2="84.24"/>
<line class="st10" x1="199.17" y1="84.24" x2="102.66" y2="180.75"/>
<line class="st10" x1="199.17" y1="180.75" x2="102.66" y2="84.24"/>
<path class="st11" d="M731.83,857.15H59.75c-23.24,0-42.07-18.84-42.07-42.07V48.12c0-23.24,18.84-42.07,42.07-42.07h672.09
	c23.24,0,42.07,18.84,42.07,42.07v766.96C773.91,838.31,755.07,857.15,731.83,857.15z"/>
</svg>
