<?xml version="1.0" encoding="utf-8"?>
<!-- Generator: Adobe Illustrator 27.1.1, SVG Export Plug-In . SVG Version: 6.00 Build 0)  -->
<svg version="1.1" id="Layer_1" xmlns="http://www.w3.org/2000/svg" xmlns:xlink="http://www.w3.org/1999/xlink" x="0px" y="0px"
	 viewBox="0 0 1080 684" style="enable-background:new 0 0 1080 684;" xml:space="preserve">
<style type="text/css">
	.st0{fill:#B1AE9D;stroke:#984D23;stroke-width:5;stroke-miterlimit:10;}
	.st1{fill:#888779;stroke:#B1AE9D;stroke-miterlimit:10;}
	.st2{fill:#3E1D0D;stroke:#888779;stroke-width:19;stroke-miterlimit:10;}
	.st3{fill:#BC7B44;}
	.st4{fill:#B2652D;}
</style>
<path class="st0" d="M1059.9,665.1H19.28c-7.55,0-13.67-6.12-13.67-13.67V33.1c0-7.55,6.12-13.67,13.67-13.67H1059.9
	c7.55,0,13.67,6.12,13.67,13.67v618.34C1073.57,658.98,1067.45,665.1,1059.9,665.1z"/>
<circle class="st1" cx="539.17" cy="339.23" r="306.7"/>
<circle class="st2" cx="539.17" cy="339.23" r="267.1"/>
<ellipse class="st3" cx="542.88" cy="338.55" rx="175.02" ry="175.41"/>
<g>
	<path class="st4" d="M709.34,313.44c3.54,23.29,2.13,47.36-4.16,70.05c-4.3,15.53-10.77,30.26-19.27,43.9l-125.19-85.17
		L709.34,313.44 M715.01,305.21l-172.14,33.34l145,98.64c10.81-15.84,18.94-33.36,24.05-51.84
		C719.16,359.25,720.22,331.81,715.01,305.21L715.01,305.21z"/>
</g>
<g>
	<g>
		<path class="st3" d="M542.36,346.45c17.02,11.76,34.19,23.31,51.51,34.63c17.33,11.32,34.81,22.42,52.42,33.29
			c9.91,6.12,19.87,12.16,29.88,18.13c3.37,2.01,8.38,0.87,10.26-2.69c1.91-3.62,0.91-8.11-2.69-10.26
			c-17.78-10.62-35.42-21.46-52.92-32.54c-17.49-11.07-34.83-22.36-52.03-33.88c-9.67-6.48-19.29-13.02-28.86-19.64
			c-3.24-2.24-8.47-0.71-10.26,2.69C537.65,340.01,538.91,344.06,542.36,346.45L542.36,346.45z"/>
	</g>
</g>
<g>
	<g>
		<path class="st3" d="M705.96,313.35c0.64-1.43,1.27-2.85,1.91-4.28c0.85-1.9,1.33-3.69,0.76-5.78c-0.48-1.74-1.82-3.62-3.45-4.48
			c-1.74-0.92-3.85-1.38-5.78-0.76c-1.98,0.64-3.25,1.8-4.48,3.45c1.49-1.98,0.35-0.46-0.03-0.04c-0.25,0.28-0.52,0.56-0.79,0.83
			c-0.27,0.27-0.55,0.53-0.83,0.79c-0.2,0.18-1.55,1.26-0.42,0.39c1.13-0.87-0.26,0.15-0.48,0.31c-0.32,0.21-0.64,0.41-0.97,0.61
			c-0.77,0.45-1.57,0.85-2.39,1.21c0.6-0.25,1.19-0.5,1.79-0.76c-1.82,0.76-3.68,1.26-5.64,1.53c0.66-0.09,1.33-0.18,1.99-0.27
			c-1.94,0.22-3.88,0.23-5.83,0.29c-2.58,0.07-5.12,0.37-7.67,0.75c-3.83,0.57-7.63,1.39-11.43,2.13
			c-7.84,1.52-15.67,3.04-23.51,4.56c-15.5,3.01-31,6.01-46.5,9.03c-8.93,1.74-17.86,3.49-26.78,5.26
			c-3.86,0.76-6.42,5.57-5.24,9.23c1.33,4.1,5.1,6.06,9.23,5.24c28.33-5.62,56.69-11.07,85.04-16.57
			c7.86-1.52,15.72-3.35,23.65-4.48c-0.66,0.09-1.33,0.18-1.99,0.27c5.79-0.77,11.82-0.02,17.42-2.02c2.59-0.92,5.12-2.09,7.35-3.72
			c2.79-2.05,4.91-4.22,6.99-6.99c-4.32-2.52-8.63-5.05-12.95-7.57c-0.64,1.43-1.27,2.85-1.91,4.28c-0.85,1.9-1.33,3.69-0.76,5.78
			c0.48,1.74,1.82,3.62,3.45,4.48c1.74,0.92,3.85,1.38,5.78,0.76C703.22,316.24,705.18,315.1,705.96,313.35L705.96,313.35z"/>
	</g>
</g>
<g>
	<path class="st4" d="M542.88,170.14c11.83,0,23.65,1.26,35.21,3.74l-40.81,158.36l-161.73,21.48c-0.45-5.04-0.68-10.12-0.68-15.16
		c0-22.56,4.47-44.52,13.29-65.27c8.51-20.03,20.68-38.06,36.17-53.58c15.49-15.52,33.47-27.72,53.45-36.25
		C498.47,174.62,520.37,170.14,542.88,170.14 M542.88,163.14c-96.01,0-175.02,79.19-175.02,175.41c0,7.71,0.51,15.4,1.52,23.04
		l173.5-23.04l43.77-169.84C572.35,165.01,557.64,163.14,542.88,163.14L542.88,163.14z"/>
</g>
<g>
	<g>
		<path class="st3" d="M536.65,428.89c1.9-7.75,3.86-15.48,5.7-23.24c1.02-4.29,1.8-8.65,2.04-13.06c0.21-3.89,0.15-7.78,0.65-11.65
			c-0.09,0.66-0.18,1.33-0.27,1.99c1.78-13.12,7.46-25.79,6.29-39.24c-0.33-3.75-2.6-6.84-6.5-7.37c-1.6-0.21-3.39-0.01-4.78,0.89
			c-1.52,0.98-3.17,2.6-3.45,4.48c-0.54,3.66-0.51,7.2,0.69,10.76c1.01,2.99,2.45,5.81,4.21,8.42c1.47,2.19,3.1,4.26,4.56,6.46
			c1.57,2.36,2.79,4.88,3.89,7.48c-0.25-0.6-0.5-1.19-0.76-1.79c1.76,4.2,3.53,8.36,5.64,12.4c1.89,3.62,3.94,7.16,6.01,10.68
			c4.09,6.97,8.25,13.92,11.42,21.38c-0.25-0.6-0.5-1.19-0.76-1.79c1.73,4.14,3.16,8.4,4.94,12.53c1.58,3.65,3.62,7.04,5.75,10.39
			c4.33,6.83,8.07,13.91,11.65,21.16c1.74,3.53,7.02,4.78,10.26,2.69c3.61-2.33,4.55-6.49,2.69-10.26
			c-2.71-5.48-5.42-10.96-8.56-16.21c-3.08-5.14-6.56-10.02-8.93-15.56c0.25,0.6,0.5,1.19,0.76,1.79c-2.11-5.03-3.81-10.2-6.1-15.15
			c-1.96-4.24-4.22-8.33-6.56-12.38c-4.72-8.17-9.75-16.19-13.44-24.9c0.25,0.6,0.5,1.19,0.76,1.79c-1.86-4.43-3.6-8.79-6.35-12.76
			c-2.38-3.44-5.04-6.68-6.75-10.53c0.25,0.6,0.5,1.19,0.76,1.79c-0.62-1.48-1.09-2.98-1.34-4.56c0.09,0.66,0.18,1.33,0.27,1.99
			c-0.15-1.14-0.17-2.26-0.04-3.41c-0.09,0.66-0.18,1.33-0.27,1.99c0.02-0.14,0.04-0.28,0.06-0.43c-4.91-0.66-9.82-1.33-14.73-1.99
			c0.3,3.43,0.13,6.84-0.33,10.25c0.09-0.66,0.18-1.33,0.27-1.99c-1,7.03-3.11,13.83-4.59,20.77c-0.83,3.9-1.47,7.87-1.73,11.85
			c-0.25,3.89-0.13,7.79-0.62,11.66c0.09-0.66,0.18-1.33,0.27-1.99c-0.71,5.18-2.13,10.25-3.37,15.31
			c-1.26,5.12-2.51,10.23-3.77,15.35c-0.93,3.8,1.21,8.31,5.24,9.23C531.29,435.01,535.65,432.97,536.65,428.89L536.65,428.89z"/>
	</g>
</g>
<g>
	<g>
		<path class="st3" d="M440.64,361.41c3.69,0.87,7.51,1.41,11.29,1.59c3.83,0.18,7.57-0.26,11.36-0.81
			c5.54-0.8,10.73-3.04,16.27-3.83c-1.11,0.15-2.22,0.3-3.32,0.45c6.38-0.85,13.1-0.59,19.21-2.85c3.11-1.15,5.75-2.8,7.47-5.74
			c1.57-2.68,2.23-6.63,1.26-9.63c-0.98-3.02-2.85-5.94-5.74-7.47c-2.83-1.5-6.51-2.41-9.63-1.26c-1.96,0.72-3.98,1.15-6.05,1.44
			c1.11-0.15,2.22-0.3,3.32-0.45c-5.43,0.7-10.93,0.76-16.29,1.98c-4.57,1.04-8.94,2.69-13.6,3.33c1.11-0.15,2.22-0.3,3.32-0.45
			c-3.78,0.47-7.57,0.45-11.35-0.05c1.11,0.15,2.22,0.3,3.32,0.45c-1.41-0.2-2.8-0.47-4.19-0.8c-3.23-0.76-6.73-0.44-9.63,1.26
			c-2.59,1.52-5.07,4.49-5.74,7.47c-0.73,3.2-0.57,6.79,1.26,9.63C434.9,358.35,437.45,360.65,440.64,361.41L440.64,361.41z"/>
	</g>
</g>
<g>
	<g>
		<path class="st3" d="M580.97,221.32c-0.15-1.12-0.14-2.22-0.01-3.35c-0.09,0.66-0.18,1.33-0.27,1.99
			c0.59-4.16,2.6-7.94,3.26-12.08c0.44-2.77,0.55-5.47,0.47-8.27c-0.06-2.36-0.1-4.7,0.21-7.04c-0.09,0.66-0.18,1.33-0.27,1.99
			c0.37-2.51,1.05-4.93,2.03-7.26c-0.25,0.6-0.5,1.19-0.76,1.79c0.24-0.55,0.5-1.09,0.76-1.63c0.9-1.82,1.31-3.77,0.76-5.78
			c-0.48-1.74-1.82-3.62-3.45-4.48c-3.39-1.79-8.4-1.06-10.26,2.69c-2.17,4.36-3.42,8.72-3.93,13.55c-0.42,3.98,0.2,7.98-0.24,11.96
			c0.09-0.66,0.18-1.33,0.27-1.99c-0.82,6.07-4.42,11.58-3.58,17.9c0.27,2.07,0.66,3.76,2.2,5.3c1.3,1.3,3.44,2.28,5.3,2.2
			c1.94-0.09,3.95-0.72,5.3-2.2C580.01,225.27,581.22,223.24,580.97,221.32L580.97,221.32z"/>
	</g>
</g>
<g>
	<path class="st4" d="M664.76,222.33c2.37,2.49,4.68,5.05,6.88,7.67c7.63,9.05,14.28,18.89,19.83,29.33l-116.47,56L664.76,222.33
		 M664.69,212.33L542.88,338.55l158.07-76c-6.38-13.32-14.43-25.77-23.95-37.06C673.12,220.9,669.02,216.51,664.69,212.33
		L664.69,212.33z"/>
</g>
<g>
	<g>
		<path class="st3" d="M653.94,213.55c-7.17,8.61-14.33,17.24-21.52,25.83c-1.66,1.98-3.35,3.95-5.16,5.79
			c-0.86,0.87-1.74,1.71-2.66,2.52c-0.54,0.47-1.08,0.92-1.64,1.37c-0.24,0.2-0.51,0.38-0.74,0.59c0.26-0.2,0.51-0.39,0.77-0.59
			c-0.19,0.14-0.38,0.29-0.57,0.43c-4.52,3.42-9.06,6.8-13.38,10.46c-7.83,6.65-15.08,13.96-21.67,21.84
			c-3.37,4.03-6.6,8.17-10.3,11.91c-3.1,3.13-6.46,5.98-9.82,8.83c-7.83,6.63-15.9,13.56-20.51,22.94
			c-1.43,2.91-1.38,6.74,1.17,9.09c2.61,2.39,5.95,2.67,9.09,1.17c5.85-2.79,11.7-5.58,17.56-8.37c5.74-2.73,11.42-5.63,17.27-8.11
			c-0.6,0.25-1.19,0.5-1.79,0.76c4.04-1.68,8.19-2.7,12.4-3.86c4.56-1.25,8.86-3.18,13-5.45c7.52-4.1,15.05-8.13,22.8-11.78
			c4.38-2.07,8.81-4.04,13.27-5.92c-0.6,0.25-1.19,0.5-1.79,0.76c5.91-2.49,11.89-4.81,17.93-6.98c1.86-0.67,3.46-1.69,4.48-3.45
			c0.94-1.61,1.34-3.98,0.76-5.78c-1.17-3.63-5.27-6.66-9.23-5.24c-16.71,5.99-33.03,13.17-48.68,21.55
			c-4.24,2.27-8.38,4.81-12.81,6.72c0.6-0.25,1.19-0.5,1.79-0.76c-4.35,1.82-9.01,2.58-13.47,4.04c-4.92,1.61-9.61,3.92-14.27,6.14
			c-8.93,4.26-17.86,8.51-26.79,12.77c3.42,3.42,6.84,6.84,10.26,10.26c0.95-1.93,2.05-3.77,3.3-5.51c0.15-0.2,0.3-0.4,0.44-0.61
			c0.67-0.95-0.44,0.59-0.49,0.62c0.34-0.2,0.69-0.87,0.95-1.18c0.73-0.87,1.48-1.73,2.26-2.56c2.99-3.19,6.29-6.07,9.62-8.9
			c3.36-2.86,6.77-5.67,9.97-8.7c3.68-3.49,6.92-7.36,10.14-11.27c6.51-7.92,13.51-15.37,21.21-22.16c1.86-1.64,3.75-3.23,5.67-4.79
			c0.99-0.8,1.98-1.62,3-2.38c-0.1,0.08-1.44,1.1-0.45,0.35c0.24-0.18,0.48-0.36,0.72-0.55c0.56-0.42,1.11-0.84,1.67-1.25
			c4.68-3.47,9.1-6.99,12.95-11.38c8.19-9.33,15.95-19.07,23.89-28.6c1.3-1.56,2.2-3.2,2.2-5.3c0-1.84-0.82-4.04-2.2-5.3
			C661.78,211.01,656.62,210.34,653.94,213.55L653.94,213.55z"/>
	</g>
</g>
<path class="st4" d="M664.55,212.24c0,0,5.4,31.52-9.26,33.72c-14.66,2.2,6.94,32.25,6.94,32.25s6.17,24.19,27,16.13
	s2.31-23.46,2.31-23.46s7.71,6.6,10.8,2.93C705.43,270.14,702.35,259.88,664.55,212.24z"/>
<g>
	<path class="st4" d="M546.19,361.03l64.99,131.39c-21.41,9.53-44.88,14.55-68.3,14.55c-7.02,0-14.08-0.45-21.06-1.33L546.19,361.03
		 M542.88,338.55l-29.15,172.96c9.63,1.63,19.38,2.45,29.15,2.45c26.97,0,53.58-6.25,77.74-18.26L542.88,338.55L542.88,338.55z"/>
</g>
<g>
	<g>
		<path class="st3" d="M536.65,429.39c1.92-7.69,3.9-15.37,5.75-23.08c1.01-4.23,1.77-8.53,1.99-12.87
			c0.19-3.76,0.15-7.51,0.64-11.25c-0.09,0.66-0.18,1.33-0.27,1.99c1.78-12.89,7.46-25.34,6.28-38.57c-0.33-3.75-2.6-6.84-6.5-7.37
			c-3.32-0.45-7.68,1.68-8.23,5.37c-0.54,3.62-0.51,7.13,0.69,10.64c0.96,2.81,2.3,5.48,3.96,7.94c1.5,2.22,3.17,4.32,4.68,6.53
			c1.45,2.12,2.63,4.36,3.66,6.71c2.1,4.78,4.22,9.49,6.77,14.05c2.53,4.53,5.26,8.94,7.89,13.41c3,5.09,5.87,10.26,8.18,15.7
			c-0.25-0.6-0.5-1.19-0.76-1.79c1.69,4.03,3.1,8.17,4.86,12.17c1.58,3.59,3.66,6.91,5.78,10.19c4.29,6.64,7.98,13.54,11.53,20.6
			c1.77,3.51,7.01,4.79,10.26,2.69c3.59-2.31,4.58-6.5,2.69-10.26c-2.74-5.46-5.49-10.92-8.68-16.13
			c-3.14-5.12-6.63-9.97-8.99-15.52c0.25,0.6,0.5,1.19,0.76,1.79c-2.28-5.45-4.18-11.02-6.8-16.33c-2.3-4.64-4.93-9.11-7.58-13.55
			c-2.7-4.51-5.43-9.01-7.88-13.66c-2.45-4.63-4.18-9.6-6.63-14.21c-2.78-5.23-7.17-9.43-9.52-14.91c0.25,0.6,0.5,1.19,0.76,1.79
			c-0.54-1.33-0.94-2.67-1.17-4.09c0.09,0.66,0.18,1.33,0.27,1.99c-0.15-1.12-0.17-2.23-0.04-3.35c-0.09,0.66-0.18,1.33-0.27,1.99
			c0.02-0.14,0.04-0.28,0.06-0.42c-4.91-0.66-9.82-1.33-14.73-1.99c0.29,3.26,0.14,6.5-0.28,9.74c0.09-0.66,0.18-1.33,0.27-1.99
			c-0.97,7-3.11,13.75-4.61,20.64c-0.85,3.87-1.49,7.83-1.75,11.78c-0.25,3.82-0.13,7.66-0.62,11.46c0.09-0.66,0.18-1.33,0.27-1.99
			c-0.7,5.05-2.11,9.99-3.34,14.93c-1.27,5.07-2.53,10.14-3.8,15.21c-0.95,3.8,1.22,8.31,5.24,9.23
			C531.31,435.51,535.63,433.46,536.65,429.39L536.65,429.39z"/>
	</g>
</g>
<path class="st4" d="M592.77,169.47c0,0-9.5,17.42-34.85,19.8c-25.34,2.38-40.39,13.46-40.39,13.46s-13.46,45.93,11.09,44.35
	c24.55-1.58,29.3-22.17,29.3-22.17s10.3-15.05,21.38-4.75c11.09,10.3,11.09,10.3,11.09,10.3s7.13,3.96,3.96,22.97
	c-3.17,19.01-19.01,28.51-19.01,28.51s-22.97,7.92-19.01,36.43c3.96,28.51-25.34,18.21-25.34,18.21s0,30.89-19.01,23.76
	c-19.01-7.13-23.76-23.76-23.76-23.76s-14.25-27.72-38.81-15.05c-24.55,12.67,7.13,43.56,7.13,43.56s16.63-2.38,16.63,2.38
	s3.17,11.88-9.5,28.51c-12.67,16.63,15.84,26.13,15.84,26.13s40.39,9.5,60.19,0.79c19.8-8.71,37.22,29.3,37.22,29.3
	s47.52,4.75,47.52,15.84s-4.75,26.13-4.75,26.13s-33.26,23.36-106.12,17.03c0,0-15.05-13.86-11.88-33.66c0,0-0.79-6.34-17.42-19.01
	c0,0-3.17-15.84,2.38-16.63c0,0-34.85,3.17-56.23-19.8c0,0-16.63-0.79-18.21-6.34c-1.58-5.54-5.54-8.71-5.54-8.71
	s-14.25-8.71-12.67-19.01c1.58-10.3-25.34-26.93-25.34-26.93S358.36,133.83,592.77,169.47z"/>
<path class="st4" d="M692.56,426.85c-18,25.5-19.8-29.3-28.51-41.97c-8.71-12.67,6.34-34.85,6.34-34.85s25.34-13.46,28.51-22.17
	c3.17-8.71,14.25-22.17,14.25-22.17S730.57,373,692.56,426.85z"/>
<g>
	<g>
		<path class="st3" d="M559.89,351.83c3.95-0.76,8.03-1.2,11.58-3.21c1.47-0.83,2.84-1.83,4.24-2.76c1.39-0.93,2.8-2.12,4.33-2.8
			c-0.6,0.25-1.19,0.5-1.79,0.76c0.09-0.02,0.17-0.05,0.26-0.07c-0.66,0.09-1.33,0.18-1.99,0.27c0.2-0.04,0.39-0.03,0.59,0.01
			c-0.66-0.09-1.33-0.18-1.99-0.27c0.09,0.02,0.18,0.05,0.27,0.07c-0.6-0.25-1.19-0.5-1.79-0.76c0.17,0.06,0.32,0.14,0.46,0.24
			c-0.51-0.39-1.01-0.78-1.52-1.17c0.13,0.1,0.25,0.21,0.34,0.34c-0.39-0.51-0.78-1.01-1.17-1.52c0.04,0.07,0.08,0.13,0.12,0.2
			c-0.25-0.6-0.5-1.19-0.76-1.79c0.07,0.14,0.11,0.28,0.12,0.43c-0.09-0.66-0.18-1.33-0.27-1.99c0,0.07,0,0.15,0.01,0.22
			c0.09-0.66,0.18-1.33,0.27-1.99c-0.01,0.16-0.04,0.31-0.1,0.46c0.25-0.6,0.5-1.19,0.76-1.79c-0.06,0.16-0.15,0.31-0.25,0.44
			c0.39-0.51,0.78-1.01,1.17-1.52c-0.12,0.15-0.25,0.29-0.4,0.41c0.51-0.39,1.01-0.78,1.52-1.17c-0.22,0.16-0.43,0.28-0.67,0.4
			c0.6-0.25,1.19-0.5,1.79-0.76c-0.44,0.18-0.87,0.29-1.34,0.35c0.66-0.09,1.33-0.18,1.99-0.27c-0.36,0.03-0.71,0.02-1.07-0.02
			c0.66,0.09,1.33,0.18,1.99,0.27c-0.25-0.05-0.46-0.11-0.69-0.21c0.6,0.25,1.19,0.5,1.79,0.76c-0.06-0.04-0.13-0.07-0.19-0.11
			c-2.81-1.56-6.82-1.3-9.09,1.17c-0.88,0.96-1.53,2.07-1.93,3.31c-0.55,1.7-0.24,4.29,0.76,5.78c0.04,0.06,0.08,0.11,0.12,0.17
			c-0.25-0.6-0.5-1.19-0.76-1.79c0.01,0.06,0.02,0.13,0.03,0.19c0-1.33,0-2.66,0-3.99c-0.02,0.07-0.03,0.13-0.05,0.2
			c0.25-0.6,0.5-1.19,0.76-1.79c-0.04,0.07-0.08,0.14-0.11,0.2c0.39-0.51,0.78-1.01,1.17-1.52c-0.11,0.15-0.24,0.28-0.38,0.39
			c0.51-0.39,1.01-0.78,1.52-1.17c-0.16,0.12-0.34,0.23-0.53,0.31c0.6-0.25,1.19-0.5,1.79-0.76c-0.91,0.35-1.88,0.47-2.79,0.79
			c-1.23,0.43-2.45,0.94-3.56,1.61c-1.4,0.85-2.63,1.95-4.13,2.63c0.6-0.25,1.19-0.5,1.79-0.76c-0.23,0.09-0.46,0.16-0.7,0.21
			c0.66-0.09,1.33-0.18,1.99-0.27c-0.21,0.04-0.42,0.05-0.64,0.02c0.66,0.09,1.33,0.18,1.99,0.27c-0.16-0.02-0.31-0.06-0.46-0.13
			c0.6,0.25,1.19,0.5,1.79,0.76c-0.06-0.04-0.12-0.07-0.18-0.11c0.51,0.39,1.01,0.78,1.52,1.17c-0.11-0.08-0.2-0.17-0.28-0.29
			c0.39,0.51,0.78,1.01,1.17,1.52c-0.03-0.06-0.06-0.11-0.09-0.17c0.25,0.6,0.5,1.19,0.76,1.79c-0.02-0.06-0.04-0.12-0.06-0.18
			c0.09,0.66,0.18,1.33,0.27,1.99c-0.03-0.13-0.03-0.26-0.02-0.39c-0.09,0.66-0.18,1.33-0.27,1.99c0.02-0.14,0.06-0.27,0.12-0.4
			c-0.25,0.6-0.5,1.19-0.76,1.79c0.07-0.15,0.17-0.28,0.28-0.41c-0.39,0.51-0.78,1.01-1.17,1.52c0.2-0.22,0.41-0.4,0.64-0.59
			c-0.51,0.39-1.01,0.78-1.52,1.17c0.9-0.66,1.9-1.14,2.8-1.8c1.11-0.81,2-1.52,2.83-2.6c0.8-1.04,1.58-2.18,1.79-3.52
			c0.28-1.73,0.32-3.22-0.38-4.88c-0.61-1.44-1.65-2.84-3.07-3.59c-1.18-0.62-2.45-0.96-3.79-1.02c-2.05-0.09-3.8,0.95-5.3,2.2
			c-0.48,0.4-0.96,0.79-1.45,1.17c0.51-0.39,1.01-0.78,1.52-1.17c-1.39,1.06-2.83,2.01-4.44,2.71c0.6-0.25,1.19-0.5,1.79-0.76
			c-0.93,0.38-1.88,0.65-2.87,0.8c0.66-0.09,1.33-0.18,1.99-0.27c-0.22,0.03-0.45,0.05-0.68,0.07c-2.02,0.17-3.83,0.72-5.3,2.2
			c-1.3,1.3-2.28,3.44-2.2,5.3c0.09,1.94,0.72,3.95,2.2,5.3c1.39,1.28,3.34,2.37,5.3,2.2c3.19-0.28,5.99-1.06,8.81-2.62
			c2.14-1.18,4.06-2.78,5.93-4.33c-4.18-2.43-8.36-4.86-12.54-7.3c-0.01,0.17-0.05,0.34-0.13,0.49c0.25-0.6,0.5-1.19,0.76-1.79
			c-0.09,0.17-0.19,0.33-0.32,0.47c0.39-0.51,0.78-1.01,1.17-1.52c-0.23,0.25-0.46,0.45-0.73,0.67c0.51-0.39,1.01-0.78,1.52-1.17
			c-0.73,0.53-1.54,0.94-2.29,1.44c-1.59,1.05-2.76,2.1-3.85,3.64c-2.59,3.69-1.47,8.84,1.98,11.51c3.4,2.63,7.85,2.18,11.38,0.03
			c1.42-0.87,2.68-1.96,4.2-2.67c-0.6,0.25-1.19,0.5-1.79,0.76c1.88-0.79,3.8-0.93,5.61-2.02c1.69-1.01,2.93-2.46,3.69-4.26
			c0.95-2.26,0.94-5.13-0.48-7.24c-3.42,3.42-6.84,6.84-10.26,10.26c3.51,1.95,8.17,1.83,11.54-0.41c2.65-1.76,4.4-4.55,4.47-7.78
			c0.07-3.13-1.76-6.15-4.42-7.74c-2.83-1.69-6.29-1.67-9.16-0.13c-1.06,0.57-2.05,1.31-3.05,1.97c-2.11,1.4-4.19,3.04-6.5,4.08
			c0.6-0.25,1.19-0.5,1.79-0.76c-1.35,0.55-2.79,0.76-4.21,1.04c-1.5,0.29-2.99,0.58-4.49,0.86c-1.76,0.34-3.6,1.94-4.48,3.45
			c-0.94,1.61-1.34,3.98-0.76,5.78c0.59,1.81,1.71,3.57,3.45,4.48C555.97,352.06,557.82,352.23,559.89,351.83L559.89,351.83z"/>
	</g>
</g>
<g>
	<g>
		<path class="st3" d="M560.36,346.15c3.92,0,7.68-3.45,7.5-7.5c-0.18-4.06-3.3-7.5-7.5-7.5c-3.92,0-7.68,3.45-7.5,7.5
			C553.04,342.71,556.15,346.15,560.36,346.15L560.36,346.15z"/>
	</g>
</g>
</svg>
