<?xml version="1.0" encoding="utf-8"?>
<!-- Generator: Adobe Illustrator 27.1.1, SVG Export Plug-In . SVG Version: 6.00 Build 0)  -->
<svg version="1.1" id="Layer_1" xmlns="http://www.w3.org/2000/svg" xmlns:xlink="http://www.w3.org/1999/xlink" x="0px" y="0px"
	 viewBox="0 0 1080 684" style="enable-background:new 0 0 1080 684;" xml:space="preserve">
<style type="text/css">
	.st0{fill:#3E1D0D;stroke:#984C1E;stroke-width:5;stroke-miterlimit:10;}
	.st1{fill:none;stroke:#984C1E;stroke-width:5;stroke-miterlimit:10;}
	.st2{fill:#FFF1E7;}
	.st3{fill:#FFF1E9;stroke:#B1AE9C;stroke-width:3;stroke-miterlimit:10;}
	.st4{fill:none;stroke:#B1AE9C;stroke-width:3;stroke-miterlimit:10;}
	.st5{fill:#EFE8CC;stroke:#B1AE9C;stroke-width:3;stroke-miterlimit:10;}
	.st6{fill:#E15D25;}
	.st7{fill:#F68B44;}
	.st8{fill:#F9A369;}
	.st9{fill:#EFE8CC;stroke:#B1AE9C;stroke-width:0.25;stroke-linecap:round;stroke-linejoin:round;stroke-miterlimit:10;}
	.st10{fill:#B1AE9C;stroke:#9B9989;stroke-width:0.25;stroke-miterlimit:10;}
	.st11{fill:#2B190D;stroke:#A8A694;stroke-width:0.25;stroke-miterlimit:10;}
	.st12{fill:#2B190D;stroke:#000000;stroke-width:0.25;stroke-miterlimit:10;}
	.st13{fill:#D23C27;stroke:#A53A23;stroke-width:0.25;stroke-linecap:round;stroke-linejoin:round;stroke-miterlimit:10;}
</style>
<path class="st0" d="M19.28,665.1H1059.9c7.55,0,13.67-6.12,13.67-13.67V33.1c0-7.55-6.12-13.67-13.67-13.67H19.28
	c-7.55,0-13.67,6.12-13.67,13.67v618.34C5.61,658.98,11.73,665.1,19.28,665.1z"/>
<path class="st1" d="M19.28,665.1H1059.9c7.55,0,13.67-6.12,13.67-13.67V33.1c0-7.55-6.12-13.67-13.67-13.67H19.28
	c-7.55,0-13.67,6.12-13.67,13.67v618.34C5.61,658.98,11.73,665.1,19.28,665.1z"/>
<g>
	<g>
		<path class="st2" d="M209.92,363.97c3.22,0,3.22-5,0-5C206.71,358.97,206.7,363.97,209.92,363.97L209.92,363.97z"/>
	</g>
</g>
<g>
	<g>
		<path class="st2" d="M837.91,179.34c3.22,0,3.22-5,0-5C834.69,174.34,834.69,179.34,837.91,179.34L837.91,179.34z"/>
	</g>
</g>
<g>
	<g>
		<path class="st2" d="M913.7,517.16c3.22,0,3.22-5,0-5C910.48,512.16,910.48,517.16,913.7,517.16L913.7,517.16z"/>
	</g>
</g>
<g>
	<g>
		<path class="st2" d="M389.81,468.14c3.22,0,3.22-5,0-5C386.59,463.14,386.59,468.14,389.81,468.14L389.81,468.14z"/>
	</g>
</g>
<g>
	<g>
		<path class="st2" d="M411.9,256.74c3.22,0,3.22-5,0-5C408.69,251.74,408.68,256.74,411.9,256.74L411.9,256.74z"/>
	</g>
</g>
<g>
	<g>
		<path class="st2" d="M493.96,474.27c3.22,0,3.22-5,0-5C490.74,469.27,490.74,474.27,493.96,474.27L493.96,474.27z"/>
	</g>
</g>
<g>
	<g>
		<path class="st2" d="M136.49,535.47c3.22,0,3.22-5,0-5C133.27,530.47,133.27,535.47,136.49,535.47L136.49,535.47z"/>
	</g>
</g>
<g>
	<g>
		<path class="st2" d="M951.57,621.33c3.22,0,3.22-5,0-5C948.35,616.33,948.35,621.33,951.57,621.33L951.57,621.33z"/>
	</g>
</g>
<g>
	<g>
		<path class="st2" d="M957.88,382.36c3.22,0,3.22-5,0-5C954.66,377.36,954.66,382.36,957.88,382.36L957.88,382.36z"/>
	</g>
</g>
<g>
	<g>
		<path class="st2" d="M819.02,422.19c3.22,0,3.22-5,0-5C815.8,417.19,815.8,422.19,819.02,422.19L819.02,422.19z"/>
	</g>
</g>
<g>
	<g>
		<path class="st2" d="M809.55,265.93c3.22,0,3.22-5,0-5C806.34,260.93,806.33,265.93,809.55,265.93L809.55,265.93z"/>
	</g>
</g>
<g>
	<g>
		<path class="st2" d="M201.52,154.56c3.22,0,3.22-5,0-5C198.31,149.56,198.3,154.56,201.52,154.56L201.52,154.56z"/>
	</g>
</g>
<g>
	<g>
		<path class="st2" d="M755.85,346.56c3.22,0,3.22-5,0-5C752.63,341.56,752.62,346.56,755.85,346.56L755.85,346.56z"/>
	</g>
</g>
<g>
	<g>
		<path class="st2" d="M449.77,376.23c3.22,0,3.22-5,0-5C446.56,371.23,446.55,376.23,449.77,376.23L449.77,376.23z"/>
	</g>
</g>
<g>
	<g>
		<path class="st2" d="M213.08,238.36c3.22,0,3.22-5,0-5C209.86,233.36,209.86,238.36,213.08,238.36L213.08,238.36z"/>
	</g>
</g>
<g>
	<g>
		<path class="st2" d="M345.63,348.65c3.22,0,3.22-5,0-5C342.41,343.65,342.41,348.65,345.63,348.65L345.63,348.65z"/>
	</g>
</g>
<g>
	<g>
		<path class="st2" d="M714.04,623.72c3.22,0,3.22-5,0-5C710.82,618.72,710.82,623.72,714.04,623.72L714.04,623.72z"/>
	</g>
</g>
<g>
	<g>
		<path class="st2" d="M415.2,317.14c3.22,0,3.22-5,0-5C411.98,312.14,411.98,317.14,415.2,317.14L415.2,317.14z"/>
	</g>
</g>
<g>
	<g>
		<path class="st2" d="M885.3,223.04c3.22,0,3.22-5,0-5C882.08,218.04,882.07,223.04,885.3,223.04L885.3,223.04z"/>
	</g>
</g>
<g>
	<g>
		<path class="st2" d="M534.96,154.73c3.22,0,3.22-5,0-5C531.74,149.73,531.73,154.73,534.96,154.73L534.96,154.73z"/>
	</g>
</g>
<g>
	<g>
		<path class="st2" d="M702.25,213.85c3.22,0,3.22-5,0-5C699.03,208.85,699.03,213.85,702.25,213.85L702.25,213.85z"/>
	</g>
</g>
<g>
	<g>
		<path class="st2" d="M534.98,290.44c3.22,0,3.22-5,0-5C531.77,285.44,531.76,290.44,534.98,290.44L534.98,290.44z"/>
	</g>
</g>
<g>
	<g>
		<path class="st2" d="M258.57,210.47c3.22,0,3.22-5,0-5C255.35,205.47,255.35,210.47,258.57,210.47L258.57,210.47z"/>
	</g>
</g>
<g>
	<g>
		<path class="st2" d="M257.01,615.08c3.22,0,3.22-5,0-5C253.79,610.08,253.79,615.08,257.01,615.08L257.01,615.08z"/>
	</g>
</g>
<g>
	<g>
		<path class="st2" d="M162.58,296.57c3.22,0,3.22-5,0-5C159.37,291.57,159.36,296.57,162.58,296.57L162.58,296.57z"/>
	</g>
</g>
<g>
	<g>
		<path class="st2" d="M141.14,174.69c3.22,0,3.22-5,0-5C137.92,169.69,137.91,174.69,141.14,174.69L141.14,174.69z"/>
	</g>
</g>
<g>
	<g>
		<path class="st2" d="M291.98,275.12c3.22,0,3.22-5,0-5C288.76,270.12,288.75,275.12,291.98,275.12L291.98,275.12z"/>
	</g>
</g>
<g>
	<g>
		<path class="st2" d="M206.77,443.63c3.22,0,3.22-5,0-5C203.55,438.63,203.54,443.63,206.77,443.63L206.77,443.63z"/>
	</g>
</g>
<g>
	<g>
		<path class="st2" d="M399.28,370.1c3.22,0,3.22-5,0-5C396.06,365.1,396.06,370.1,399.28,370.1L399.28,370.1z"/>
	</g>
</g>
<g>
	<g>
		<path class="st2" d="M336.16,593.76c3.22,0,3.22-5,0-5C332.94,588.76,332.94,593.76,336.16,593.76L336.16,593.76z"/>
	</g>
</g>
<g>
	<g>
		<path class="st2" d="M449.77,523.29c3.22,0,3.22-5,0-5C446.56,518.29,446.55,523.29,449.77,523.29L449.77,523.29z"/>
	</g>
</g>
<g>
	<g>
		<path class="st2" d="M389.81,556.99c3.22,0,3.22-5,0-5C386.59,551.99,386.59,556.99,389.81,556.99L389.81,556.99z"/>
	</g>
</g>
<g>
	<g>
		<path class="st2" d="M153.52,467.34c3.22,0,3.22-5,0-5C150.31,462.34,150.3,467.34,153.52,467.34L153.52,467.34z"/>
	</g>
</g>
<g>
	<g>
		<path class="st2" d="M197.3,553.93c3.22,0,3.22-5,0-5C194.08,548.93,194.08,553.93,197.3,553.93L197.3,553.93z"/>
	</g>
</g>
<g>
	<g>
		<path class="st2" d="M501.91,208.76c3.22,0,3.22-5,0-5C498.69,203.76,498.69,208.76,501.91,208.76L501.91,208.76z"/>
	</g>
</g>
<g>
	<g>
		<path class="st2" d="M364.56,431.38c3.22,0,3.22-5,0-5C361.35,426.38,361.34,431.38,364.56,431.38L364.56,431.38z"/>
	</g>
</g>
<g>
	<g>
		<path class="st2" d="M826.91,328.74c3.22,0,3.22-5,0-5C823.69,323.74,823.69,328.74,826.91,328.74L826.91,328.74z"/>
	</g>
</g>
<g>
	<g>
		<path class="st2" d="M934.21,262.87c3.22,0,3.22-5,0-5C931,257.87,930.99,262.87,934.21,262.87L934.21,262.87z"/>
	</g>
</g>
<g>
	<g>
		<path class="st2" d="M590.74,456.4c3.22,0,3.22-5,0-5C587.52,451.4,587.52,456.4,590.74,456.4L590.74,456.4z"/>
	</g>
</g>
<g>
	<g>
		<path class="st2" d="M562.34,346.1c3.22,0,3.22-5,0-5C559.12,341.1,559.11,346.1,562.34,346.1L562.34,346.1z"/>
	</g>
</g>
<g>
	<g>
		<path class="st2" d="M647.55,300.14c3.22,0,3.22-5,0-5C644.33,295.14,644.32,300.14,647.55,300.14L647.55,300.14z"/>
	</g>
</g>
<g>
	<g>
		<path class="st2" d="M644.39,442.61c3.22,0,3.22-5,0-5C641.17,437.61,641.17,442.61,644.39,442.61L644.39,442.61z"/>
	</g>
</g>
<g>
	<g>
		<path class="st2" d="M742.23,448.74c3.22,0,3.22-5,0-5C739.01,443.74,739,448.74,742.23,448.74L742.23,448.74z"/>
	</g>
</g>
<g>
	<g>
		<path class="st2" d="M794.3,529.93c3.22,0,3.22-5,0-5C791.08,524.93,791.08,529.93,794.3,529.93L794.3,529.93z"/>
	</g>
</g>
<g>
	<g>
		<path class="st2" d="M890.55,447.21c3.22,0,3.22-5,0-5C887.34,442.21,887.33,447.21,890.55,447.21L890.55,447.21z"/>
	</g>
</g>
<g>
	<g>
		<path class="st2" d="M659.85,377.53c3.22,0,3.22-5,0-5C656.63,372.53,656.62,377.53,659.85,377.53L659.85,377.53z"/>
	</g>
</g>
<g>
	<g>
		<path class="st2" d="M966.3,551.38c3.22,0,3.22-5,0-5C963.08,546.38,963.08,551.38,966.3,551.38L966.3,551.38z"/>
	</g>
</g>
<g>
	<g>
		<path class="st2" d="M1018.01,560.57c3.22,0,3.22-5,0-5C1014.8,555.57,1014.79,560.57,1018.01,560.57L1018.01,560.57z"/>
	</g>
</g>
<g>
	<g>
		<path class="st2" d="M985.23,430.36c3.22,0,3.22-5,0-5C982.02,425.36,982.01,430.36,985.23,430.36L985.23,430.36z"/>
	</g>
</g>
<g>
	<g>
		<path class="st2" d="M1010.12,344.57c3.22,0,3.22-5,0-5C1006.9,339.57,1006.9,344.57,1010.12,344.57L1010.12,344.57z"/>
	</g>
</g>
<g>
	<g>
		<path class="st2" d="M995.91,234.27c3.22,0,3.22-5,0-5C992.69,229.27,992.68,234.27,995.91,234.27L995.91,234.27z"/>
	</g>
</g>
<g>
	<g>
		<path class="st2" d="M985.68,144.57c3.22,0,3.22-5,0-5C982.46,139.57,982.45,144.57,985.68,144.57L985.68,144.57z"/>
	</g>
</g>
<g>
	<g>
		<path class="st2" d="M944.75,187.08c3.22,0,3.22-5,0-5C941.53,182.08,941.53,187.08,944.75,187.08L944.75,187.08z"/>
	</g>
</g>
<g>
	<g>
		<path class="st2" d="M669.64,185.25c3.22,0,3.22-5,0-5C666.42,180.25,666.42,185.25,669.64,185.25L669.64,185.25z"/>
	</g>
</g>
<g>
	<g>
		<path class="st2" d="M770.63,171.46c3.22,0,3.22-5,0-5C767.41,166.46,767.41,171.46,770.63,171.46L770.63,171.46z"/>
	</g>
</g>
<g>
	<g>
		<path class="st2" d="M689.32,133.66c3.22,0,3.22-5,0-5C686.1,128.66,686.1,133.66,689.32,133.66L689.32,133.66z"/>
	</g>
</g>
<g>
	<g>
		<path class="st2" d="M418.74,195.97c3.22,0,3.22-5,0-5C415.52,190.97,415.52,195.97,418.74,195.97L418.74,195.97z"/>
	</g>
</g>
<g>
	<g>
		<path class="st2" d="M360.36,192.91c3.22,0,3.22-5,0-5C357.14,187.91,357.13,192.91,360.36,192.91L360.36,192.91z"/>
	</g>
</g>
<g>
	<g>
		<path class="st2" d="M306.81,207.21c3.22,0,3.22-5,0-5C303.6,202.21,303.59,207.21,306.81,207.21L306.81,207.21z"/>
	</g>
</g>
<g>
	<g>
		<path class="st2" d="M571.66,512.63c3.22,0,3.22-5,0-5C568.44,507.63,568.43,512.63,571.66,512.63L571.66,512.63z"/>
	</g>
</g>
<g>
	<g>
		<path class="st2" d="M728.02,490.1c3.22,0,3.22-5,0-5C724.81,485.1,724.8,490.1,728.02,490.1L728.02,490.1z"/>
	</g>
</g>
<g>
	<g>
		<path class="st2" d="M542.17,434.82c3.22,0,3.22-5,0-5C538.95,429.82,538.95,434.82,542.17,434.82L542.17,434.82z"/>
	</g>
</g>
<g>
	<g>
		<path class="st2" d="M538.67,572.82c3.22,0,3.22-5,0-5C535.45,567.82,535.44,572.82,538.67,572.82L538.67,572.82z"/>
	</g>
</g>
<g>
	<g>
		<path class="st2" d="M713.02,548.8c3.22,0,3.22-5,0-5C709.8,543.8,709.8,548.8,713.02,548.8L713.02,548.8z"/>
	</g>
</g>
<g>
	<g>
		<path class="st2" d="M642.81,586.56c3.22,0,3.22-5,0-5C639.6,581.56,639.59,586.56,642.81,586.56L642.81,586.56z"/>
	</g>
</g>
<g>
	<g>
		<path class="st2" d="M556.02,620.31c3.22,0,3.22-5,0-5C552.81,615.31,552.8,620.31,556.02,620.31L556.02,620.31z"/>
	</g>
</g>
<g>
	<g>
		<path class="st2" d="M478.7,597.33c3.22,0,3.22-5,0-5C475.49,592.33,475.48,597.33,478.7,597.33L478.7,597.33z"/>
	</g>
</g>
<g>
	<g>
		<path class="st2" d="M597.91,242.82c3.22,0,3.22-5,0-5C594.69,237.82,594.69,242.82,597.91,242.82L597.91,242.82z"/>
	</g>
</g>
<g>
	<g>
		<path class="st2" d="M770.63,618.78c3.22,0,3.22-5,0-5C767.41,613.78,767.41,618.78,770.63,618.78L770.63,618.78z"/>
	</g>
</g>
<g>
	<g>
		<path class="st2" d="M853.39,571.08c3.22,0,3.22-5,0-5C850.18,566.08,850.17,571.08,853.39,571.08L853.39,571.08z"/>
	</g>
</g>
<g>
	<g>
		<path class="st2" d="M655.2,502.95c3.22,0,3.22-5,0-5C651.98,497.95,651.98,502.95,655.2,502.95L655.2,502.95z"/>
	</g>
</g>
<g>
	<g>
		<path class="st2" d="M273.57,548.31c3.22,0,3.22-5,0-5C270.35,543.31,270.34,548.31,273.57,548.31L273.57,548.31z"/>
	</g>
</g>
<g>
	<g>
		<path class="st2" d="M146.89,623.53c3.22,0,3.22-5,0-5C143.67,618.53,143.66,623.53,146.89,623.53L146.89,623.53z"/>
	</g>
</g>
<g>
	<g>
		<path class="st2" d="M290.92,413.51c3.22,0,3.22-5,0-5C287.71,408.51,287.7,413.51,290.92,413.51L290.92,413.51z"/>
	</g>
</g>
<g>
	<g>
		<path class="st2" d="M458.19,413.51c3.22,0,3.22-5,0-5C454.97,408.51,454.97,413.51,458.19,413.51L458.19,413.51z"/>
	</g>
</g>
<g>
	<g>
		<path class="st2" d="M578.12,422.7c3.22,0,3.22-5,0-5C574.9,417.7,574.89,422.7,578.12,422.7L578.12,422.7z"/>
	</g>
</g>
<path class="st3" d="M250.14,473.29l-35.17,13.85c-1.37,0.54-2.93,0.05-3.75-1.18l-76.35-114.52c-1.14-1.71-0.35-4.03,1.59-4.7
	l30.34-10.44c1.3-0.45,2.74,0,3.55,1.11l81.17,111.11C252.73,470.19,252.05,472.54,250.14,473.29z"/>
<line class="st4" x1="239.97" y1="452.16" x2="199.1" y2="468.22"/>
<line class="st4" x1="225.15" y1="432.48" x2="185.98" y2="447.88"/>
<line class="st4" x1="210.5" y1="412.74" x2="172.5" y2="427.67"/>
<line class="st4" x1="196.01" y1="392.93" x2="159.02" y2="407.47"/>
<line class="st4" x1="181.75" y1="373.23" x2="145.63" y2="387.24"/>
<path class="st3" d="M298.08,452.96l-34.61,15.2c-1.35,0.59-2.93,0.16-3.79-1.03l-80.72-111.48c-1.2-1.66-0.51-4.01,1.4-4.75
	l29.92-11.6c1.28-0.5,2.73-0.1,3.59,0.98l85.41,107.89C300.55,449.76,299.96,452.13,298.08,452.96z"/>
<line class="st4" x1="287.11" y1="432.24" x2="246.89" y2="449.87"/>
<line class="st4" x1="271.54" y1="413.15" x2="232.99" y2="430.05"/>
<line class="st4" x1="256.14" y1="393.99" x2="218.74" y2="410.38"/>
<line class="st4" x1="240.89" y1="374.76" x2="204.48" y2="390.71"/>
<line class="st4" x1="225.88" y1="355.62" x2="190.32" y2="371.02"/>
<path class="st3" d="M359.63,432.3l-35.17,13.85c-1.37,0.54-2.93,0.05-3.75-1.18l-76.35-114.52c-1.14-1.71-0.35-4.03,1.59-4.7
	l30.34-10.44c1.3-0.45,2.74,0,3.55,1.11l81.17,111.11C362.22,429.19,361.53,431.55,359.63,432.3z"/>
<line class="st4" x1="349.46" y1="411.17" x2="308.59" y2="427.23"/>
<line class="st4" x1="334.64" y1="391.49" x2="295.47" y2="406.89"/>
<line class="st4" x1="319.99" y1="371.75" x2="281.99" y2="386.68"/>
<line class="st4" x1="305.5" y1="351.94" x2="268.5" y2="366.48"/>
<line class="st4" x1="291.24" y1="332.24" x2="255.12" y2="346.25"/>
<path class="st3" d="M407.57,411.97l-34.61,15.2c-1.35,0.59-2.93,0.16-3.79-1.03l-80.72-111.48c-1.2-1.66-0.51-4.01,1.4-4.75
	l29.92-11.6c1.28-0.5,2.73-0.1,3.59,0.98l85.41,107.89C410.04,408.77,409.45,411.14,407.57,411.97z"/>
<line class="st4" x1="396.6" y1="391.25" x2="356.38" y2="408.88"/>
<line class="st4" x1="381.03" y1="372.16" x2="342.48" y2="389.06"/>
<line class="st4" x1="365.63" y1="352.99" x2="328.23" y2="369.39"/>
<line class="st4" x1="350.37" y1="333.76" x2="313.97" y2="349.72"/>
<line class="st4" x1="335.37" y1="314.63" x2="299.81" y2="330.03"/>
<path class="st3" d="M364.1,625.92l-35.17,13.85c-1.37,0.54-2.93,0.05-3.75-1.18l-76.35-114.52c-1.14-1.71-0.35-4.03,1.59-4.7
	l30.34-10.44c1.3-0.45,2.74,0,3.55,1.11l81.17,111.11C366.7,622.81,366.01,625.16,364.1,625.92z"/>
<line class="st4" x1="353.94" y1="604.79" x2="313.07" y2="620.85"/>
<line class="st4" x1="339.12" y1="585.11" x2="299.95" y2="600.51"/>
<line class="st4" x1="324.47" y1="565.36" x2="286.47" y2="580.3"/>
<line class="st4" x1="309.97" y1="545.56" x2="272.98" y2="560.1"/>
<line class="st4" x1="295.72" y1="525.86" x2="259.59" y2="539.87"/>
<path class="st3" d="M412.05,605.59l-34.61,15.2c-1.35,0.59-2.93,0.16-3.79-1.03l-80.72-111.48c-1.2-1.66-0.51-4.01,1.4-4.75
	l29.92-11.6c1.28-0.5,2.73-0.1,3.59,0.98l85.41,107.89C414.52,602.38,413.93,604.76,412.05,605.59z"/>
<line class="st4" x1="401.08" y1="584.86" x2="360.86" y2="602.5"/>
<line class="st4" x1="385.5" y1="565.78" x2="346.96" y2="582.68"/>
<line class="st4" x1="370.1" y1="546.61" x2="332.71" y2="563.01"/>
<line class="st4" x1="354.85" y1="527.38" x2="318.45" y2="543.34"/>
<line class="st4" x1="339.85" y1="508.25" x2="304.29" y2="523.65"/>
<path class="st3" d="M473.59,584.92l-35.17,13.85c-1.37,0.54-2.93,0.05-3.75-1.18l-76.35-114.52c-1.14-1.71-0.35-4.03,1.59-4.7
	l30.34-10.44c1.3-0.45,2.74,0,3.55,1.11l81.17,111.11C476.18,581.82,475.5,584.17,473.59,584.92z"/>
<line class="st4" x1="463.43" y1="563.79" x2="422.56" y2="579.86"/>
<line class="st4" x1="448.61" y1="544.12" x2="409.43" y2="559.51"/>
<line class="st4" x1="433.96" y1="524.37" x2="395.96" y2="539.31"/>
<line class="st4" x1="419.46" y1="504.57" x2="382.47" y2="519.11"/>
<line class="st4" x1="405.21" y1="484.87" x2="369.08" y2="498.88"/>
<path class="st3" d="M521.54,564.59l-34.61,15.2c-1.35,0.59-2.93,0.16-3.79-1.03l-80.72-111.48c-1.2-1.66-0.51-4.01,1.4-4.75
	l29.92-11.6c1.28-0.5,2.73-0.1,3.59,0.98l85.41,107.89C524.01,561.39,523.42,563.77,521.54,564.59z"/>
<line class="st4" x1="510.57" y1="543.87" x2="470.35" y2="561.51"/>
<line class="st4" x1="494.99" y1="524.78" x2="456.45" y2="541.68"/>
<line class="st4" x1="479.59" y1="505.62" x2="442.2" y2="522.01"/>
<line class="st5" x1="485.56" y1="270.51" x2="546.04" y2="251.45"/>
<line class="st4" x1="464.34" y1="486.39" x2="427.94" y2="502.35"/>
<line class="st4" x1="449.34" y1="467.26" x2="413.78" y2="482.65"/>
<path class="st3" d="M485.81,279.3l-20.73,5.97c-0.03,0.01-0.07-0.02-0.07-0.05v-18.47c0-0.02,0.02-0.04,0.04-0.05l20.28-6.29
	c0.03-0.01,0.07,0.01,0.07,0.05l0.45,18.79C485.84,279.27,485.83,279.29,485.81,279.3z"/>
<path class="st3" d="M511.64,271.3l-20.73,5.97c-0.03,0.01-0.07-0.02-0.07-0.05v-18.47c0-0.02,0.02-0.04,0.04-0.05l20.28-6.29
	c0.03-0.01,0.07,0.01,0.07,0.05l0.45,18.79C511.68,271.27,511.67,271.29,511.64,271.3z"/>
<path class="st3" d="M541.06,262.33l-20.73,5.97c-0.03,0.01-0.07-0.02-0.07-0.05v-18.47c0-0.02,0.02-0.04,0.04-0.05l20.28-6.29
	c0.03-0.01,0.07,0.01,0.07,0.05l0.45,18.79C541.1,262.3,541.09,262.32,541.06,262.33z"/>
<path class="st3" d="M566.9,254.33l-20.73,5.97c-0.03,0.01-0.07-0.02-0.07-0.05v-18.47c0-0.02,0.02-0.04,0.04-0.05l20.28-6.29
	c0.03-0.01,0.07,0.01,0.07,0.05l0.45,18.79C566.94,254.3,566.93,254.32,566.9,254.33z"/>
<path class="st3" d="M988.78,399.69l-47.13,26.16c-1.24,0.69-2.76,0.66-3.97-0.08l-164.14-99.72c-2.77-1.68-2.45-5.81,0.55-7.03
	l42.95-17.6c1.1-0.45,2.34-0.38,3.38,0.18l168.32,91.16C991.49,394.24,991.51,398.17,988.78,399.69z"/>
<line class="st3" x1="967.59" y1="411.22" x2="794.55" y2="311.35"/>
<path class="st3" d="M1008.47,389.15l-173.01-91.86c-1.65-0.88-1.54-3.28,0.19-3.99l40.83-16.99c0.58-0.24,1.23-0.22,1.8,0.05
	l174.09,82.99c1.58,0.75,1.7,2.96,0.21,3.88l-41.92,25.85C1010,389.49,1009.16,389.51,1008.47,389.15z"/>
<line class="st4" x1="857.07" y1="284.45" x2="1032.81" y2="375.03"/>
<path class="st3" d="M771.5,266.96l-46.94,17.74c-1.24,0.47-2.65,0.3-3.71-0.43l-143.18-98.82c-2.42-1.67-1.68-5.11,1.27-5.87
	l42.11-10.92c1.08-0.28,2.23-0.11,3.15,0.46l148,92C774.62,262.62,774.22,265.93,771.5,266.96z"/>
<line class="st3" x1="750.42" y1="274.75" x2="598.93" y2="174.99"/>
<path class="st5" d="M520.96,316.48h-8.71c-1.15,0-2.08-0.93-2.08-2.08v-33.19c0-1.15,0.93-2.08,2.08-2.08h8.71
	c1.15,0,2.08,0.93,2.08,2.08v33.19C523.04,315.55,522.11,316.48,520.96,316.48z"/>
<path class="st3" d="M789.59,259.47l-152.31-93.01c-1.45-0.89-1.09-2.9,0.6-3.34l40.06-10.59c0.57-0.15,1.18-0.08,1.68,0.2
	l154.28,85.65c1.4,0.78,1.28,2.64-0.22,3.28l-42.02,17.96C790.99,259.9,790.2,259.85,789.59,259.47z"/>
<line class="st4" x1="658.89" y1="157.61" x2="813.9" y2="249.8"/>
<path class="st5" d="M665.19,431.99L665.19,431.99c-3.63,4.89-10.54,5.91-15.43,2.28L482.15,309.79
	c-4.89-3.63-5.91-10.54-2.28-15.43l0,0c3.63-4.89,10.54-5.91,15.43-2.28l167.61,124.48C667.81,420.19,668.83,427.1,665.19,431.99z"
	/>
<path class="st5" d="M594.3,433.35h-9.29c-5.13,0-9.29-4.16-9.29-9.29v-58.32c0-5.13,4.16-9.29,9.29-9.29h9.29
	c5.13,0,9.29,4.16,9.29,9.29v58.32C603.59,429.19,599.43,433.35,594.3,433.35z"/>
<polygon class="st5" points="432.23,374.51 431.2,406 439.07,412.84 455.85,409.74 450.43,376.19 "/>
<path class="st5" d="M483.72,378.77c0,0.39,0,14.45,0,14.45l-32.52,14.45l0.39-16.77"/>
<path class="st5" d="M883.87,264.57L266.54,509.71c-7.78,3.09-16.59-0.71-19.67-8.49l0,0c-3.09-7.78,0.71-16.59,8.49-19.67
	l617.33-245.14c7.78-3.09,16.59,0.71,19.67,8.49v0C895.45,252.67,891.65,261.48,883.87,264.57z"/>
<path class="st5" d="M601.65,477.45l-13.21-7.35c-1.87-1.04-3-2.93-2.97-4.97l0.22-14.52l15.36,7.69"/>
<path class="st5" d="M462.61,362.64l-29.06,8.81c-1.27,0.38-1.64,2-0.66,2.9l17.56,16.12c0.46,0.42,1.12,0.56,1.71,0.36l30.35-10.38
	c1.29-0.44,1.57-2.14,0.49-2.97l-18.85-14.55C463.72,362.59,463.14,362.48,462.61,362.64z"/>
<polyline class="st5" points="698.55,371.55 698.55,396.71 715.97,407.16 735.33,396.71 735.72,371.55 "/>
<path class="st5" d="M769.01,400.38l-0.18,12.83c-0.01,0.57-0.31,1.09-0.8,1.37l-18.18,9.99c-2.62,1.03-0.97-0.4-0.97-1.65V411.8"/>
<path class="st5" d="M723.51,410.3l24.98,14.47c0.25,0.15,0.4-2.22,0.39-2.52l-0.57-12.18c0-0.13-0.07-0.24-0.18-0.31l-24.05-14.28
	c-0.25-0.15-0.56,0.03-0.56,0.31l-0.18,14.18C723.33,410.11,723.4,410.23,723.51,410.3z"/>
<path class="st5" d="M601.57,457.35c0.21,0,0.47,19.1,0.47,19.1l127.29-61.42l0.19-16.9"/>
<path class="st5" d="M747.79,411.72l-22.49-15c-1.6-1.07-1.49-3.45,0.19-4.37l17.92-9.79c0.86-0.47,1.91-0.41,2.71,0.16l21.69,15.47
	c1.54,1.1,1.39,3.42-0.26,4.32l-17.12,9.31C749.59,412.29,748.58,412.25,747.79,411.72z"/>
<path class="st5" d="M729.6,398.3l-127.94,59.01c-0.06,0.03-0.13,0.02-0.18-0.01l-15.59-8.27c-0.15-0.08-0.14-0.3,0.01-0.37
	l129.08-58.62c0.06-0.03,0.13-0.02,0.18,0.01l14.46,7.89C729.76,398.01,729.76,398.23,729.6,398.3z"/>
<line class="st5" x1="515.94" y1="260.84" x2="516.04" y2="278.84"/>
<path class="st5" d="M727.59,379.68h-20.9c-4.49,0-8.13-3.64-8.13-8.13l0,0c0-4.49,3.64-8.13,8.13-8.13h20.9
	c4.49,0,8.13,3.64,8.13,8.13l0,0C735.72,376.04,732.08,379.68,727.59,379.68z"/>
<g>
	<g>
		<path class="st2" d="M1048.68,307.08c3.22,0,3.22-5,0-5C1045.47,302.08,1045.46,307.08,1048.68,307.08L1048.68,307.08z"/>
	</g>
</g>
<path class="st6" d="M382.29,154.56c0,0-0.23-0.03-0.65-0.07c-3.01-0.31-15.81-1.37-22.84,2.27c-0.72,0.37-0.72,1.4,0,1.77h0
	c0.85,0.44,0.65,1.7-0.29,1.87c-5.06,0.88-15.13,3.36-20.57,9.72c-0.4,0.47-0.29,1.19,0.24,1.51l1.19,0.71
	c0.6,0.36,0.65,1.21,0.1,1.64c-2.92,2.3-10.41,8.54-10.71,12.52c-0.38,5.01,16.33,2.5,20.83,1.14c0.59-0.18,1.2,0.22,1.27,0.83
	l0.19,1.54c0.07,0.56,0.59,0.95,1.15,0.86c2.45-0.39,8.9-1.54,14.74-3.51c0.81-0.27,1.56,0.53,1.24,1.32l-0.06,0.15
	c-0.33,0.83,0.51,1.64,1.32,1.29c3.71-1.63,11.63-6.03,19.61-16.31L382.29,154.56z"/>
<path class="st7" d="M387.16,168.81c-3.52,5.87-13.49,11.7-17.34,13.8c-0.5,0.27-1.06-0.25-0.82-0.77l0,0
	c0.22-0.48-0.25-0.98-0.74-0.8c-5.72,2.09-8.44,2.27-9.47,2.22c-0.29-0.01-0.53-0.25-0.56-0.54l-0.05-0.62
	c-0.03-0.35-0.35-0.59-0.7-0.53c-7.93,1.43-10.41,1.37-12.09-0.24c-1.4-1.34,4.02-6.25,6.1-8.04c0.34-0.3,0.24-0.85-0.19-1.01
	l-0.77-0.27c-0.38-0.13-0.52-0.6-0.27-0.92c3.35-4.38,9.63-5.74,12.93-6.16c0.59-0.07,0.71-0.87,0.18-1.12l-0.56-0.27
	c-0.46-0.22-0.45-0.89,0.03-1.08c8.03-3.28,21.49-1.92,21.49-1.92L387.16,168.81z"/>
<path class="st8" d="M386.44,166.77c-1.09,1.97-6.59,5.11-8.5,6.16c-0.21,0.11-0.44-0.11-0.34-0.32l0,0
	c0.1-0.21-0.12-0.42-0.32-0.33c-2.02,0.91-3.62,1.22-4.26,1.32c-0.15,0.02-0.29-0.1-0.28-0.26l0.03-0.34
	c0.01-0.17-0.14-0.3-0.31-0.25c-3.73,1.01-5.34,0.87-6.09,0.32c-0.64-0.47,2.1-2.91,3.02-3.71c0.14-0.12,0.1-0.34-0.06-0.41
	l-0.4-0.18c-0.13-0.06-0.18-0.21-0.12-0.34c0.76-1.47,4.51-2.64,6.06-3.08c0.22-0.06,0.24-0.37,0.03-0.46l-0.01,0
	c-0.2-0.09-0.2-0.36,0-0.45c3.43-1.49,9.01-1.41,10.03-1.38c0.1,0,0.18,0.06,0.22,0.16l1.31,3.36
	C386.47,166.63,386.47,166.71,386.44,166.77z"/>
<path class="st9" d="M456.28,139.76c-46.21-22.18-66.37,13.64-66.37,13.64l5.62,16.39c0,0,37.91,15.9,60.77-29.97"/>
<circle class="st10" cx="424.79" cy="150.63" r="9.76"/>
<circle class="st11" cx="424.92" cy="150.59" r="7.46"/>
<polyline class="st12" points="389.94,153.51 381.74,152.76 389.53,175.5 395.56,169.87 "/>
<path class="st13" d="M423.74,132.64c0,0-19.19-9.18-37.16,7.26l11.01,4.37c6.68-6.8,15.54-10.65,25.97-11.67"/>
<path class="st13" d="M434.91,165.2c0,0-9.51,19.02-33.79,17.07l6.01-10.21c9.45,1.27,18.81-1.13,27.66-6.72"/>
<g>
	<g>
		<path class="st2" d="M66.19,505.55c3.22,0,3.22-5,0-5C62.97,500.55,62.97,505.55,66.19,505.55L66.19,505.55z"/>
	</g>
</g>
<g>
	<g>
		<path class="st2" d="M75.19,619.52c3.22,0,3.22-5,0-5C71.97,614.52,71.97,619.52,75.19,619.52L75.19,619.52z"/>
	</g>
</g>
<g>
	<g>
		<path class="st2" d="M79.84,351.87c3.22,0,3.22-5,0-5C76.63,346.87,76.62,351.87,79.84,351.87L79.84,351.87z"/>
	</g>
</g>
<g>
	<g>
		<path class="st2" d="M118.99,399.25c3.22,0,3.22-5,0-5C115.78,394.25,115.77,399.25,118.99,399.25L118.99,399.25z"/>
	</g>
</g>
<g>
	<g>
		<path class="st2" d="M30.18,590.6c3.22,0,3.22-5,0-5C26.97,585.6,26.96,590.6,30.18,590.6L30.18,590.6z"/>
	</g>
</g>
<g>
	<g>
		<path class="st2" d="M35.23,432.99c3.22,0,3.22-5,0-5C32.01,427.99,32.01,432.99,35.23,432.99L35.23,432.99z"/>
	</g>
</g>
<g>
	<g>
		<path class="st2" d="M73.54,556.54c3.22,0,3.22-5,0-5C70.32,551.54,70.31,556.54,73.54,556.54L73.54,556.54z"/>
	</g>
</g>
<g>
	<g>
		<path class="st2" d="M79.84,221.87c3.22,0,3.22-5,0-5C76.63,216.87,76.62,221.87,79.84,221.87L79.84,221.87z"/>
	</g>
</g>
<g>
	<g>
		<path class="st2" d="M118.99,269.25c3.22,0,3.22-5,0-5C115.78,264.25,115.77,269.25,118.99,269.25L118.99,269.25z"/>
	</g>
</g>
<g>
	<g>
		<path class="st2" d="M35.23,302.99c3.22,0,3.22-5,0-5C32.01,297.99,32.01,302.99,35.23,302.99L35.23,302.99z"/>
	</g>
</g>
<g>
	<g>
		<path class="st2" d="M984.02,89.69c3.22,0,3.22-5,0-5C980.81,84.69,980.8,89.69,984.02,89.69L984.02,89.69z"/>
	</g>
</g>
<g>
	<g>
		<path class="st2" d="M746.49,92.08c3.22,0,3.22-5,0-5C743.28,87.08,743.27,92.08,746.49,92.08L746.49,92.08z"/>
	</g>
</g>
<g>
	<g>
		<path class="st2" d="M1050.47,28.93c3.22,0,3.22-5,0-5C1047.25,23.93,1047.24,28.93,1050.47,28.93L1050.47,28.93z"/>
	</g>
</g>
<g>
	<g>
		<path class="st2" d="M675.27,54.92c3.22,0,3.22-5,0-5C672.05,49.92,672.04,54.92,675.27,54.92L675.27,54.92z"/>
	</g>
</g>
<g>
	<g>
		<path class="st2" d="M588.48,88.67c3.22,0,3.22-5,0-5C585.26,83.67,585.26,88.67,588.48,88.67L588.48,88.67z"/>
	</g>
</g>
<g>
	<g>
		<path class="st2" d="M803.08,87.14c3.22,0,3.22-5,0-5C799.87,82.14,799.86,87.14,803.08,87.14L803.08,87.14z"/>
	</g>
</g>
<g>
	<g>
		<path class="st2" d="M885.85,39.43c3.22,0,3.22-5,0-5C882.63,34.43,882.63,39.43,885.85,39.43L885.85,39.43z"/>
	</g>
</g>
<g>
	<g>
		<path class="st2" d="M469.96,37.84c3.22,0,3.22-5,0-5C466.74,32.84,466.74,37.84,469.96,37.84L469.96,37.84z"/>
	</g>
</g>
<g>
	<g>
		<path class="st2" d="M232.43,35.45c3.22,0,3.22-5,0-5C229.21,30.45,229.21,35.45,232.43,35.45L232.43,35.45z"/>
	</g>
</g>
<g>
	<g>
		<path class="st2" d="M312.69,129.24c3.22,0,3.22-5,0-5C309.47,124.24,309.47,129.24,312.69,129.24L312.69,129.24z"/>
	</g>
</g>
<g>
	<g>
		<path class="st2" d="M112.3,113.99c3.22,0,3.22-5,0-5C109.08,108.99,109.08,113.99,112.3,113.99L112.3,113.99z"/>
	</g>
</g>
<g>
	<g>
		<path class="st2" d="M536.4,98.6c3.22,0,3.22-5,0-5C533.19,93.6,533.18,98.6,536.4,98.6L536.4,98.6z"/>
	</g>
</g>
<g>
	<g>
		<path class="st2" d="M231.41,110.38c3.22,0,3.22-5,0-5C228.19,105.38,228.19,110.38,231.41,110.38L231.41,110.38z"/>
	</g>
</g>
<g>
	<g>
		<path class="st2" d="M161.2,72.61c3.22,0,3.22-5,0-5C157.99,67.61,157.98,72.61,161.2,72.61L161.2,72.61z"/>
	</g>
</g>
<g>
	<g>
		<path class="st2" d="M74.41,38.86c3.22,0,3.22-5,0-5C71.2,33.86,71.19,38.86,74.41,38.86L74.41,38.86z"/>
	</g>
</g>
<g>
	<g>
		<path class="st2" d="M309.15,52c3.22,0,3.22-5,0-5C305.93,47,305.93,52,309.15,52L309.15,52z"/>
	</g>
</g>
<g>
	<g>
		<path class="st2" d="M371.78,88.09c3.22,0,3.22-5,0-5C368.57,83.09,368.56,88.09,371.78,88.09L371.78,88.09z"/>
	</g>
</g>
<g>
	<g>
		<path class="st2" d="M47.99,115.25c3.22,0,3.22-5,0-5C44.77,110.25,44.77,115.25,47.99,115.25L47.99,115.25z"/>
	</g>
</g>
</svg>
