<?xml version="1.0" encoding="utf-8"?>
<!-- Generator: Adobe Illustrator 26.3.1, SVG Export Plug-In . SVG Version: 6.00 Build 0)  -->
<svg version="1.1" id="Layer_1" xmlns="http://www.w3.org/2000/svg" xmlns:xlink="http://www.w3.org/1999/xlink" x="0px" y="0px"
	 viewBox="0 0 396 396" style="enable-background:new 0 0 396 396;" xml:space="preserve">
<style type="text/css">
	.st0{fill:#3E1D0D;stroke:#984C1E;stroke-width:5;stroke-miterlimit:10;}
	.st1{fill:#FFF1E9;stroke:#B1AE9C;stroke-width:3;stroke-linecap:round;stroke-linejoin:round;stroke-miterlimit:10;}
	.st2{fill:none;stroke:#B1AE9C;stroke-width:3;stroke-linecap:round;stroke-linejoin:round;stroke-miterlimit:10;}
	.st3{fill:#B1AE9C;stroke:#B1AE9C;stroke-width:7;stroke-linecap:round;stroke-linejoin:round;stroke-miterlimit:10;}
	.st4{fill:#EFE8CC;stroke:#B1AE9C;stroke-width:3;stroke-miterlimit:10;}
	.st5{fill:#B1AE9C;stroke:#B1AE9C;stroke-width:2;stroke-linecap:round;stroke-linejoin:round;stroke-miterlimit:10;}
	.st6{fill:#FFF1E9;stroke:#B1AE9C;stroke-width:7;stroke-linecap:round;stroke-linejoin:round;stroke-miterlimit:10;}
	.st7{fill:#FFF1E7;}
</style>
<path class="st0" d="M335.53,377.99H59.68c-23.24,0-42.07-18.84-42.07-42.07V60.07c0-23.24,18.84-42.07,42.07-42.07h275.85
	c23.24,0,42.07,18.84,42.07,42.07v275.85C377.6,359.16,358.76,377.99,335.53,377.99z"/>
<path class="st0" d="M335.53,377.99H59.68c-23.24,0-42.07-18.84-42.07-42.07V60.07c0-23.24,18.84-42.07,42.07-42.07h275.85
	c23.24,0,42.07,18.84,42.07,42.07v275.85C377.6,359.16,358.76,377.99,335.53,377.99z"/>
<g>
	<path class="st1" d="M228.26,235.55l-103.39,76.8c-0.04,0.03-0.08,0.05-0.12,0.06l-13.58,3.72c-0.4,0.11-0.66-0.42-0.32-0.66
		l103.11-76.73c0.04-0.03,0.08-0.05,0.13-0.06l13.86-3.78C228.33,234.78,228.59,235.3,228.26,235.55z"/>
	<path class="st1" d="M203.34,233.02l-42.06,24.31c-0.51,0.29-1.13-0.09-1.11-0.67l0.76-17.51c0.01-0.27,0.17-0.51,0.41-0.63
		l27.75-14.01c0.21-0.11,0.47-0.11,0.68,0.01l13.55,7.21C203.83,232,203.85,232.73,203.34,233.02z"/>
	<path class="st1" d="M186.77,197.95l2.52-17.22c0.11-0.76-0.54-1.42-1.34-1.35l-156.81,13.3c-0.59,0.05-1.08,0.48-1.17,1.04
		l-3.06,17.77c-0.13,0.77,0.52,1.45,1.34,1.38l157.34-13.85C186.2,198.96,186.69,198.52,186.77,197.95z"/>
	<path class="st1" d="M213.82,164.95l-14.17,3.34c-0.06,0.01-0.12,0.02-0.18,0.01L65.44,145.82c-0.49-0.08-0.51-0.78-0.03-0.89
		l17.28-4.07c0.06-0.01,0.12-0.02,0.19-0.01l130.92,23.2C214.29,164.15,214.31,164.84,213.82,164.95z"/>
	<line class="st2" x1="219.44" y1="242.15" x2="204.7" y2="245.76"/>
	<line class="st2" x1="185.32" y1="267.39" x2="172.59" y2="270.4"/>
	<line class="st2" x1="157.32" y1="288.92" x2="141.14" y2="292.73"/>
	<line class="st2" x1="183.39" y1="227.25" x2="181.69" y2="245.13"/>
	<line class="st2" x1="170.63" y1="199.33" x2="172.43" y2="181.29"/>
	<line class="st2" x1="122.95" y1="204.11" x2="124.87" y2="184.3"/>
	<line class="st2" x1="72.17" y1="208.82" x2="74.91" y2="189.08"/>
	<line class="st2" x1="174.19" y1="157.32" x2="157.99" y2="161.44"/>
	<line class="st2" x1="128.17" y1="149.68" x2="109.78" y2="154.17"/>
	
		<ellipse transform="matrix(0.9733 -0.2293 0.2293 0.9733 -34.11 71.853)" class="st3" cx="292.08" cy="182.68" rx="36.18" ry="46.85"/>
	<path class="st4" d="M310.37,221.5c-0.39,0.11-0.77,0.21-1.16,0.3c-18.05,4.25-37.22-10.56-42.46-32.82s5.3-44.07,23.35-48.32
		c0.76-0.18,1.53-0.33,2.3-0.44l0.8-0.02l66.6,12.43c3.51,1.84,6.52,6.42,7.8,11.85c1.31,5.57,0.59,11.13-1.85,14.3l-54.52,42.4
		L310.37,221.5z"/>
	<path class="st5" d="M197.32,217.96l-11.46,2.7c-4.33,1.02-8.66-1.66-9.68-5.99l-0.45-1.91c-1.02-4.33,1.66-8.66,5.99-9.68
		l11.46-2.7"/>
	<path class="st4" d="M257.59,228.86l-34.87,8.22c-17.1,4.03-34.17-6.29-38.12-23.05l-2.72-11.53
		c-3.95-16.76,6.72-33.61,23.82-37.64l34.87-8.22"/>
	<path class="st6" d="M277.03,234.19c-16.67,1.83-33.97-15.11-39.53-38.71c-5.79-24.59,3.08-48.21,19.86-52.86
		c0,0,22.94-6.73,25.05-4.71c-15.73,5.77-23.63,28.67-18.25,51.49c5.38,22.84,23.04,40.27,39.7,38.38
		C303.85,227.77,296.33,231.49,277.03,234.19z"/>
</g>
<g>
	<g>
		<path class="st7" d="M95.5,244.53c3.22,0,3.22-5,0-5C92.28,239.53,92.27,244.53,95.5,244.53L95.5,244.53z"/>
	</g>
</g>
<g>
	<g>
		<path class="st7" d="M168.47,121.41c3.22,0,3.22-5,0-5C165.26,116.41,165.25,121.41,168.47,121.41L168.47,121.41z"/>
	</g>
</g>
<g>
	<g>
		<path class="st7" d="M144.96,42.32c3.22,0,3.22-5,0-5C141.74,37.32,141.74,42.32,144.96,42.32L144.96,42.32z"/>
	</g>
</g>
<g>
	<g>
		<path class="st7" d="M62.75,276.7c3.22,0,3.22-5,0-5C59.53,271.7,59.53,276.7,62.75,276.7L62.75,276.7z"/>
	</g>
</g>
<g>
	<g>
		<path class="st7" d="M343.77,137.45c3.22,0,3.22-5,0-5C340.55,132.45,340.55,137.45,343.77,137.45L343.77,137.45z"/>
	</g>
</g>
<g>
	<g>
		<path class="st7" d="M125.97,340.88c3.22,0,3.22-5,0-5C122.75,335.88,122.75,340.88,125.97,340.88L125.97,340.88z"/>
	</g>
</g>
<g>
	<g>
		<path class="st7" d="M337.47,323.96c3.22,0,3.22-5,0-5C334.25,318.96,334.25,323.96,337.47,323.96L337.47,323.96z"/>
	</g>
</g>
<g>
	<g>
		<path class="st7" d="M52.41,48.64c3.22,0,3.22-5,0-5C49.19,43.64,49.19,48.64,52.41,48.64L52.41,48.64z"/>
	</g>
</g>
<g>
	<g>
		<path class="st7" d="M238.77,299.28c3.22,0,3.22-5,0-5C235.55,294.28,235.55,299.28,238.77,299.28L238.77,299.28z"/>
	</g>
</g>
<g>
	<g>
		<path class="st7" d="M282.84,43.83c3.22,0,3.22-5,0-5C279.63,38.83,279.62,43.83,282.84,43.83L282.84,43.83z"/>
	</g>
</g>
<g>
	<g>
		<path class="st7" d="M48.96,169.28c3.22,0,3.22-5,0-5C45.75,164.28,45.74,169.28,48.96,169.28L48.96,169.28z"/>
	</g>
</g>
<g>
	<g>
		<path class="st7" d="M89.16,64.31c3.22,0,3.22-5,0-5C85.94,59.31,85.94,64.31,89.16,64.31L89.16,64.31z"/>
	</g>
</g>
<g>
	<g>
		<path class="st7" d="M46.66,325.19c3.22,0,3.22-5,0-5C43.44,320.19,43.43,325.19,46.66,325.19L46.66,325.19z"/>
	</g>
</g>
<g>
	<g>
		<path class="st7" d="M145.81,138.06c3.22,0,3.22-5,0-5C142.59,133.06,142.59,138.06,145.81,138.06L145.81,138.06z"/>
	</g>
</g>
<g>
	<g>
		<path class="st7" d="M258.64,97.47c3.22,0,3.22-5,0-5C255.43,92.47,255.42,97.47,258.64,97.47L258.64,97.47z"/>
	</g>
</g>
<g>
	<g>
		<path class="st7" d="M290.81,341.04c3.22,0,3.22-5,0-5C287.6,336.04,287.59,341.04,290.81,341.04L290.81,341.04z"/>
	</g>
</g>
<g>
	<g>
		<path class="st7" d="M337.47,253.96c3.22,0,3.22-5,0-5C334.25,248.96,334.25,253.96,337.47,253.96L337.47,253.96z"/>
	</g>
</g>
<g>
	<g>
		<path class="st7" d="M290.81,271.04c3.22,0,3.22-5,0-5C287.6,266.04,287.59,271.04,290.81,271.04L290.81,271.04z"/>
	</g>
</g>
</svg>
